/* XPM */
static char *noname_xpm[] = {
/* width height ncolors chars_per_pixel */
"48 48 17 1",
/* colors */
"` c black",
"a c grey33",
"b c grey47",
"c c grey40",
"d c grey87",
"e c grey80",
"f c grey73",
"g c grey27",
"h c grey20",
"i c grey13",
"j c grey67",
"k c grey60",
"l c grey53",
"m c white",
"n c grey93",
"o c grey7",
"p s None c None",
/* pixels */
"ppppppmmmmmmmmmmmmmmmmmmmdeefnmmmmmmmmmmmmpppppp",
"ppppppmmmmmmmmmmmnmmddeklaaccljemmmmmmmmmmpppppp",
"ppppppmmmmmmmmmmnfjjllcaaaaaacccemmmmmmmmmpppppp",
"ppppppmmmmmmmmmmfbcaagggggllagaagemmmmmmmmpppppp",
"ppppppmmmmmmmedkbaghihihhalbghhhhadmmmmmmmpppppp",
"ppppppmmmmmmmllcahhioihhhihhiioooicnmmmmmmpppppp",
"ppppppmmmmmmnbaghhhiioiiihoiiiooooikmmmmmmpppppp",
"ppppppmmmmmmnbhiioiiioihhhghhhhooi`hnmmmmmpppppp",
"ppppppmmmmmmkhooiiiiohhacbbcacccgi``lmmmmmpppppp",
"ppppppmmmmmjgiohaaggcbfdnndednnddgo`ofmmmmpppppp",
"ppppppmmmmdgioiljlkjdnmmmmmmmmmmmfi``ammmmpppppp",
"ppppppmmmmkiiiafeedmmmmmmmmmmmmmmna``onmmmpppppp",
"ppppppmmmmboiijedmmmmmmmmmmmmmmmmnl```dmmmpppppp",
"ppppppmmmml`ohjenmmmmmmmmmmmmmmmmdb```emmmpppppp",
"ppppppmmmmb`ogfdnmmmmmmmmmmmmmmmmdb```dmmmpppppp",
"ppppppmmmng``hjenmmmmmmmmmmmmmmmmec``oemmmpppppp",
"ppppppmmmdi``ikenmmmmmmmmmmmmmmmmda```knmmpppppp",
"ppppppmmmmo```kfnmmmmmmmmmmmmmmmndb``okmmmpppppp",
"ppppppmmmmg``ojfenmmmmmmmmmmmmnmndb``bemmmpppppp",
"ppppppmmmmko`ikklbkjeddmdejbaacleeb``kmmmmpppppp",
"ppppppmmmmdg`hlagho`ogbjlgo`ohaacjb`iemmmmpppppp",
"ppppppmmmmmc`gacagio`ocacioooigabbf`knmmmmpppppp",
"ppppppmmmmmk`gcahi`oiigfliiaihgcljfokmmmmmpppppp",
"ppppppmmmmmeocbbagaaghcmnagaccbkjjfgdmmmmmpppppp",
"ppppppmmmmmnkkbklcaabcfmmfllllkeejfjnmmmmmpppppp",
"ppppppmmmmmmjklkkjfjllemmnjkfeeffdejmmmmmmpppppp",
"ppppppmmmmmmfkjllklcajfmmnfkjjjenefjmmmmmmpppppp",
"ppppppmmmmmmeljfjjlacffmmddgbenndfjfmmmmmmpppppp",
"ppppppmmmmmmnlkkjkahbcbllbbbialjjfjdmmmmmmpppppp",
"ppppppmmmmmmmlkkbaiaghhiigaagohbljknmmmmmmpppppp",
"ppppppmmmmmmmkllbgiihiioohhhhiibkkkmmmmmmmpppppp",
"ppppppmmmmmmmflllai`oo`oioih`oglllfmmmmmmmpppppp",
"ppppppmmmmmmmnbblchgcgaccbclbablbbnmmmmmmmpppppp",
"ppppppmmmmmmmmlccacblbaaabkjjbcccjmmmmmmmmpppppp",
"ppppppmmmmmmmmeaaacbbcghhalkkccacmmmmmmmmmpppppp",
"ppppppmmmmmmmmdaaaabkkkkkjjjlaggdmmmmmmmmmpppppp",
"ppppppmmmmmmmmncgggclkfffjjkcggcmmmmmmmmmmpppppp",
"ppppppmmmmmmmmmlahgaclklklbcgggkmmmmmmmmmmpppppp",
"ppppppmmmnmmmnnkcghhhacacaghhhcemmmmmmmmmnpppppp",
"ppppppmmndmmmdddbcghiiooooiigclnmnmmmmmmmmpppppp",
"ppppppdmmmnnmdemkcagioo```iacblmmmmnmmmnmmpppppp",
"ppppppnmmmmedmeenbaaghiiihabbllmmmmmmmmmmmpppppp",
"ppppppmmmndenmdfnnccaaagaablblfnmnndneemmmpppppp",
"ppppppmnnmmedmmfjndcaaaaccbclldndmnbcdedempppppp",
"ppppppnnmmnnedmeefmnbagaaacblkmnemmjgjenempppppp",
"ppppppdnmdjmdfmmfffmmkaaggclcnmnedmnbgfmdmpppppp",
"ppppppemmjfmmlnmnklfmnecgabcjmnmdfmmegbmenpppppp",
"pppppplfekkefbcefkbbbfffchghfejebcefehgjjjpppppp"
};
