/* XPM */
static char *noname_xpm[] = {
/* width height ncolors chars_per_pixel */
"48 48 17 1",
/* colors */
"` c black",
"a c grey33",
"b c grey47",
"c c grey40",
"d c grey87",
"e c grey80",
"f c grey73",
"g c grey27",
"h c grey20",
"i c grey13",
"j c grey67",
"k c grey60",
"l c grey53",
"m c white",
"n c grey93",
"o c grey7",
"p s None c None",
/* pixels */
"ppppppmmmmnnnnnnnnndddeeeffjjjfjjjjjjkjkkkpppppp",
"ppppppmmmmnnnnnnnnnddeejkllkjjjjfjjkjjkkkkpppppp",
"ppppppmmmmnndnnnnndejbccclbaabkkkjjjkjkkkkpppppp",
"ppppppmmmnndddnnnejcgaablahioogcgckjkjkkkkpppppp",
"ppppppmmnndddddflcgggaabahooihaho`gkkjkkkkpppppp",
"ppppppmmnnddddkghhhhhhhhgio`ihaio``gkkkkklpppppp",
"ppppppnnddddekghhggaaacgio``igh`````gkkkklpppppp",
"ppppppnnddedfahhhihgagghiooiaai`o````ckkkkpppppp",
"ppppppnndddebhiiiihiiiiii`iihio``````obkllpppppp",
"ppppppdddeefgiiiiiiiiiooo`oio``o``````hlklpppppp",
"ppppppddeeekhiooooiioo``oooo``o`o``````clkpppppp",
"ppppppdeeeebioooooooo``````````o```````oblpppppp",
"ppppppdeeejgooo`ooo`o`o``oo`````````````gbpppppp",
"ppppppdeeflo`````````ooiihi`````````````ocpppppp",
"ppppppefffa```````````ohgaho`````````````gpppppp",
"ppppppeffjh``````````ohaaago`````````````ipppppp",
"ppppppfffko````````oihcbccgo`````````````opppppp",
"ppppppffjlo```````hgcbkkblah``````````````pppppp",
"ppppppfjjc```````ihglkjfklai``````````````pppppp",
"ppppppfjkg``````glkbcljfkcghoo````````````pppppp",
"ppppppjjli`````hcaacbbkjlcblbao```````````pppppp",
"ppppppjkc``````bllchckfflbaiigg```````````pppppp",
"ppppppjkg`````okejjkkedekllaaggho`````````pppppp",
"ppppppjbi`````ijddefdedejfkllllbo`````````pppppp",
"ppppppkc``````ijddddeedfjfdeefkco`````````pppppp",
"ppppppkg``````ijedefjeefljeedfkao`````````pppppp",
"ppppppli``````ikjjklffdjlljeejlg``````````pppppp",
"ppppppbo``````oblcbkbljllcckjkbh``````````pppppp",
"ppppppa````````aaalklbaggalcllci``````````pppppp",
"ppppppg````````hccalkkklllbbaaho``````````pppppp",
"ppppppi````````ocbcgcbbccaaaaai```````````pppppp",
"ppppppo`````````hblcllbcgigcbgo```````````pppppp",
"pppppp``````````ocbcbllcaabcao````````````pppppp",
"pppppp```````````gcccccaaacaio````````````pppppp",
"pppppp```````````ibbccccacai``````````````pppppp",
"pppppp````````````gblllbcaho``````````````pppppp",
"pppppp````````````oacbbcah````````````````pppppp",
"pppppp`````````````oihhho`````````````````pppppp",
"pppppp````````````````````````````````````pppppp",
"pppppp````````````````````````````````````pppppp",
"pppppp````````````````````````````````````pppppp",
"pppppp`````````````````````````````````oo`pppppp",
"pppppp`````````````````````````````````gggpppppp",
"pppppp````````````````````````````````ocjjpppppp",
"pppppp```````````````````````````````olfnmpppppp",
"pppppp`````````````````o````````````hgfmmmpppppp",
"ppppppi````````````````oo`````````icjjnmmmpppppp",
"ppppppi````````````````oo````````ilkkjfeeepppppp"
};
