#define noname_width 48
#define noname_height 48
static char noname_bits[] = {
 0x00,0x00,0xf0,0x07,0x00,0x00,0x00,0x00,0xfe,0x7f,0x00,0x00,0x00,0x80,0xff,
 0xff,0x00,0x00,0x00,0xc0,0xff,0xfd,0x03,0x00,0x00,0xe0,0xbf,0xf7,0x07,0x00,
 0x00,0xf0,0xd7,0xfa,0x0f,0x00,0x00,0xf8,0x02,0xd4,0x0f,0x00,0x00,0x7c,0x49,
 0xb9,0x1f,0x00,0x00,0x1c,0x00,0xd0,0x3d,0x00,0x00,0xac,0x00,0xa8,0x3f,0x00,
 0x00,0x0e,0x00,0x70,0x7f,0x00,0x00,0x2e,0x10,0x81,0x7f,0x00,0x20,0x06,0x01,
 0x68,0xff,0x00,0x00,0x5e,0x04,0x84,0xfb,0x00,0x00,0x06,0x20,0xf0,0xfe,0x00,
 0x00,0x16,0x00,0xa0,0xff,0x00,0x00,0x06,0x00,0xed,0xff,0x00,0x00,0x3e,0x01,
 0x70,0xff,0x01,0x00,0x1e,0x64,0xd0,0xff,0x01,0x00,0x14,0x84,0xb0,0xfe,0x01,
 0x00,0x0c,0xeb,0xf9,0xfd,0x00,0x00,0xf9,0x66,0x7d,0xff,0x01,0x40,0x54,0xf7,
 0xa5,0xfe,0x03,0x00,0x68,0x65,0x5b,0xf7,0x02,0x00,0x84,0xd6,0xa2,0xfe,0x03,
 0x00,0x54,0xe4,0x83,0xdd,0x02,0x00,0x24,0x53,0x29,0xff,0x03,0x00,0x8c,0xe5,
 0xc5,0xf6,0x01,0x00,0x54,0x62,0x53,0xbf,0x01,0x00,0x04,0xa1,0x03,0xfd,0x01,
 0x00,0x40,0x7a,0x09,0x77,0x01,0x00,0x14,0x84,0x45,0xdd,0x00,0x00,0x40,0x51,
 0x15,0x3f,0x00,0x08,0x24,0x04,0x1d,0x1a,0x00,0x00,0x80,0xa5,0xa3,0x1d,0x00,
 0x00,0x28,0x83,0x0e,0x3e,0x00,0x00,0x80,0xda,0xa6,0x1d,0x00,0x00,0x08,0x02,
 0x0b,0x3e,0x00,0x00,0x50,0xa8,0x52,0x7b,0x00,0x00,0x20,0x12,0x55,0xff,0x00,
 0x00,0xa0,0x40,0x58,0x6f,0x01,0x40,0xc0,0x14,0xb5,0xbb,0x0f,0x00,0x40,0x82,
 0xdc,0x4f,0x15,0x00,0x80,0x01,0xf6,0x45,0x7b,0x00,0x00,0xa5,0xdd,0x83,0xd4,
 0x00,0x00,0x8a,0xfe,0x02,0xbd,0x00,0x00,0x76,0xb7,0x01,0xea,0x00,0x82,0xdd,
 0xff,0x80,0xbe};
