/* XPM */
static char *noname_xpm[] = {
/* width height ncolors chars_per_pixel */
"48 48 17 1",
/* colors */
"` c black",
"a c grey33",
"b c grey47",
"c c grey40",
"d c grey87",
"e c grey80",
"f c grey73",
"g c grey27",
"h c grey20",
"i c grey13",
"j c grey67",
"k c grey60",
"l c grey53",
"m c white",
"n c grey93",
"o c grey7",
"p s None c None",
/* pixels */
"pppblllklklllllllllklklkkkkkkllbbbbbblbbbcbcpppp",
"pppbbllkkllllllbllllklkkkkkklllbbbblblbbcbcbpppp",
"pppblllklkklllbllllllkklkkklllbllbblllbbcbbcpppp",
"pppbblllkkkkllllbbcccccaccacbbblbbbllbbbbbbbpppp",
"pppllblkklkklkbbcgggghhhhihhhgcbbbllllbbbbbbpppp",
"ppplblllkkkkklbhiooiggghiiihiigcbblllbbbbbbbpppp",
"pppllblllkkkklgoooooiihghiioohhacllllbbbbbbbpppp",
"ppplllllkkkklciohiihhghhiihooigigblklbbbbbbbpppp",
"pppllllblkkbagiihhgcbbcchhhggihhiclkblblllbbpppp",
"pppllllllklghhaaaclkjjjjjjjjkbihihbllbbblblbpppp",
"pppllkllllghiallkkjjeeeeeefeffbhioalbbllllbbpppp",
"pppllllblci`gbkjffffeeeeeefffjjcio`gblblllblpppp",
"pppllkllci`ocbljfffeeddddeefjfjkgo``cbllllbbpppp",
"ppplllkbi``icbbjffffdnmmnndffjjkbi``hllllllbpppp",
"pppllkkb```accbljffeenmnnnefffjklg``glllllblpppp",
"ppplllkb``oaacbljffeednnnddefjjklg``gllkllllpppp",
"ppplllkc``oaacbljfeedddnnneeffjkbh``ollllllbpppp",
"ppplllklo`ohacbkjfededdnnddeffjkbh```blkllblpppp",
"ppplllkli`ohgcblkkfeedeedeeeffjjlh``ilkkllllpppp",
"ppplllkli``haclkllljjejjkllbjkjklg``aklkllllpppp",
"ppplllkkh``hhghgihablfkchhhgbcbkbg``akklklllpppp",
"ppplklkka``ghiooo``icflhiooiihccao``bklklllbpppp",
"pppblklkbo`oio```i`ocdbghghhbgaalioobkklkllbpppp",
"ppplllklli`io`ihggghbdkkfjjkbjbckahgbkkkllblpppp",
"pppblklkco`hhhalkkggbefkdddefbckkccccklllllbpppp",
"pppbllkka``gclljjflaceelennndkkjlaljkkklllbbpppp",
"pppblllka`ogbffjjjcaleejkddndkkjlcljjkllllbbpppp",
"pppbblllco`hcbkkkbaakedfcjeefbjlbjkfkklllbbbpppp",
"pppbllkklo`hgcllblbackjkkblklljlbjfjklllbbbbpppp",
"pppbblllkiohhggckjgioihikjjffjklcffjkllbbbbbpppp",
"pppcbllklchhhhgbkkio``ogfejjjjklcjjkllblbbcbpppp",
"pppcbllklkchhhablkhihhgaljfjjjklclkllblbbbbbpppp",
"pppcbbllkkklhhgclkcaaahhclkjjkkbbkkllbbbbbcbpppp",
"pppccbllllkkghgabcaiighiigaljkkcclklbbbbbccbpppp",
"pppbcbblklkkchhagho`ohggioiakkbclkklbbbbccbbpppp",
"pppccblllllllhhhi``oablllchhllbclklbbbbccccbpppp",
"pppcccblllkkkghiioiggggbllbbbcallllbbbbcbbbbpppp",
"pppbccbllllllahiiohhhhhabbcbbccllkbbbbbccbcbpppp",
"pppcccbblkllkchhioohgaaclbllbabkkfkbbcccbcbcpppp",
"pppbcccblllblchhihhgcclllllbcglllnmnfbcbcbcbpppp",
"pppbccbbbbbbbchihhhgacllbbbahblkldmmmnjbbbccpppp",
"pppbblkfcbccbahiihihhaacaaghablklemmmmmnfbbcpppp",
"ppplkmmnbbcacahiiiiooiiiiiigbllllfnmmmmmnnekpppp",
"pppllddlcccacahioiiiiiioiihcbllllenmnmmmmmnnpppp",
"pppelbbcblagaahiooiiiiooihabbbllkdnmnmmmnmnnpppp",
"pppmnekcbbbagahioooiiiioigacbbbbfenmnmmnnmnnpppp",
"pppnmnnkblbcgagoi`ooiiiihacccbbkeemndmmnmnndpppp",
"pppnmmndllcacgah```ooiiihaacccbfedmndnmnnndnpppp"
};
