/* XPM */
static char *noname_xpm[] = {
/* width height ncolors chars_per_pixel */
"48 48 17 1",
/* colors */
"` c black",
"a c grey33",
"b c grey47",
"c c grey40",
"d c grey87",
"e c grey80",
"f c grey73",
"g c grey27",
"h c grey20",
"i c grey13",
"j c grey67",
"k c grey60",
"l c grey53",
"m c white",
"n c grey93",
"o c grey7",
"p s None c None",
/* pixels */
"pppnnnnnnmmmnmmmmmmmmmnmnnnnnnnnnnnnnnnnnndjpppp",
"pppndnnnmnmnmnmnmmmmmnnmnnmnmnnnnndnnnnnnndjpppp",
"pppnnndnnmnnmnmmmmmmmnnnnnnnnnnnnnnndnnnnndjpppp",
"pppnnnnnnmmnnmnmmmmmmnnmnnmnnnndnndndnnnnndjpppp",
"pppnnnnnmmnnmnmnmmmmmnnnmnnnnnnnnnnndnnnnndkpppp",
"pppnnnnnmnmnnmnmmmmmmmnnnnnnnnndnndnnnnnnnnkpppp",
"pppnnnnnmnmnnnmnmmmnnnnnnnnmnnnnndnddnnnnndkpppp",
"pppnndnnnmnnmnnnmnnndnddfdnnnnnndnnnndnnnndkpppp",
"pppnnnnnmnmnndnddefjjkfkfjjnnnndndndnnnnnnnkpppp",
"pppmnnnnnmnddekbahiighaacbjknnnnnnnndnnnnndkpppp",
"pppnnnnmnmefjlgiiio`o`oiihcldndddnnnnnnnnnnkpppp",
"pppnnnnnnnkbchiiooooo``oooihkdnnndnndnnnnndkpppp",
"pppnnnnmndbghhihoohooooooooihjddndnnnnnnnnnlpppp",
"pppnnnnnnebhhhghohgohooooooiiaeddnnndnnnnndkpppp",
"pppnnnnndfgggabcckcbciioioi`ohjdnnndnnnnnndlpppp",
"pppnnnnnfbihabkjfffkklcghioooileddnnnnnnnnnlpppp",
"pppnnnnmdbhhcklfeddeefkbhhiooikfnnndnnnnnndlpppp",
"pppnnnnnnlgaljjjddddddfjbgiooicfdnndnnmnnndlpppp",
"pppnnnnmdcgakffeeeeedffjklgoooajendndnnnnndkpppp",
"pppnnnnndhicklbacljfflcgacaooohkenndnnnnnndlpppp",
"pppnnnmneiibbbbbbckfkggbcagoooikendnnnnnnndkpppp",
"pppnnnnndiibbbggabjelgcgachioocedndndnnnnnelpppp",
"pppnnnnnnhikkghhcjjeblchihaho`bddnndnnnnnnekpppp",
"pppnnnnnmahkjjjeffjebjefkllco`andndndnnnnnfkpppp",
"pppdnnnnnbhjeedddejeblfeejjbookddnnddnnnnnfkpppp",
"pppnnnnnnehkfenndfkfblfdefkcoifddnddnnnnnnjkpppp",
"pppdnnnnnncbjfedfjkfbbfefjlgocdndndndnnnnnjkpppp",
"pppndnnnndfckjjkbkclagkjklbhifddddnddnnnnnjkpppp",
"pppndnnnnnellklcklbhoibcbcghgddnddnnddnnndjkpppp",
"pppndnnnnddlcbcckjjlcbbaghoildeddddddnnnnnjkpppp",
"pppndnndndfcccabbbbbcahhbaoafeddddddddnnndjkpppp",
"pppdndnnnddabbllcckkbghckchajeeddnddddndndkkpppp",
"pppddndndddacllkklklbbablahkfededddddndnndkjpppp",
"pppndndndddfhbklklbbcacabgieeeeeddeddnnnddkkpppp",
"pppdddnddddebgllkkllbbcgai`jeeeedeeddddddekkpppp",
"pppddndnddedloablkjjklcii``beeeeeeddddndnelkpppp",
"pppdddddddejgoioabllbai`````hbffededdddddelkpppp",
"pppddddnfbho`````ihhoo````````ialfdedddddelkpppp",
"pppdddejooo`o````````````````oihhhabkenddflkpppp",
"pppddfchi`o`o```````````````igghhhiihhbdeflkpppp",
"pppkaghhho`o````````````````oioiooiiihhaejlkpppp",
"pppiihiigho``o`````````````hghghgggghhiiajbkpppp",
"pppghiiioiio``````````````hioiioioooooihicbkpppp",
"pppihghhghhi``o``````````oihgghhghhghghiiibkpppp",
"pppioooooihgio```````````ohiooiiiiiooooihigkpppp",
"ppphggghghiiihi`o``````oiiohgghhhhhhghhhihilpppp",
"pppioooiihhhhhio``````oiiigiooiihiiiiiiiiohipppp",
"ppphgghhhhhiiihhhoo``ohohiohggghhhhhhhhhigoipppp"
};
