/* XPM */
static char *noname_xpm[] = {
/* width height ncolors chars_per_pixel */
"48 48 17 1",
/* colors */
"` c black",
"a c grey33",
"b c grey47",
"c c grey40",
"d c grey87",
"e c grey80",
"f c grey73",
"g c grey27",
"h c grey20",
"i c grey13",
"j c grey67",
"k c grey60",
"l c grey53",
"m c white",
"n c grey93",
"o c grey7",
"p s None c None",
/* pixels */
"ppppppccbcbbbbbblblllllklkkkkjkjjjjjjfefffpppppp",
"ppppppblllllllklklkkkkkkkkjjjfjjjfjfffeeffpppppp",
"ppppppklkklkkkkkkkkbaghiicljjfffffffffefffpppppp",
"ppppppkklkkkkkkkkco```````ghljjfffffffefeepppppp",
"ppppppkkkkkkkkkkg``````````oibffffffffeefepppppp",
"ppppppklkkklkkli````````````i`cjffffffffefpppppp",
"ppppppklklkkkli`````````````o``afffffeffeepppppp",
"ppppppklkklkli``````````````````cfffffeffepppppp",
"ppppppkklklkh``````````````````oojeffeffffpppppp",
"ppppppkkklkc````````oigagio`````okffffffeepppppp",
"ppppppklkkli`````ogbjedndelgi``oocfffefefepppppp",
"ppppppkkkkc`````glkfemmmmmnekcgi`hjeffffffpppppp",
"pppppplllkh````alkjfedmmnmndfjlci`cfffefffpppppp",
"ppppppllklo````clkjfednmmnndejkbh`ojffffffpppppp",
"pppppplkllo```oclkjednnmmmndfjkbh``jffjfjfpppppp",
"ppppppkkkli```gcbkjfednmmmndefkbh``bffffffpppppp",
"ppppppkklko``oacbccbcljdddeffjkbh``bfffjffpppppp",
"ppppppklklo``iccacljjblfejbaacabg``lfjffjfpppppp",
"ppppppllllo``hcbcaghgbjfeklljkcga``ljfjjjjpppppp",
"ppppppkkkc```hblbbklklkfdklghacaa``kfjjjjjpppppp",
"ppppppklkci``gbkkjffjffjfkjkkkccc`ijjjjjfjpppppp",
"pppppplkkcgo`gbkjedndejjfkfeeejlb`ljjjjjjjpppppp",
"ppppppkklbgiigckfedddfjkfkjeddfkbcjjjjjjkkpppppp",
"pppppplkklchhhalfeddekljekkeddfkcjjfjjjkjjpppppp",
"ppppppkkllcghhabkfffkbkkfllkeeflcjfjjjkjkkpppppp",
"ppppppllkkaahggclkjjkaghahaljjjccjfjjjjkjkpppppp",
"ppppppkkllaohhgcbkkjjlbbcbljjkbabjjfjkkkkkpppppp",
"ppppppkllkc`ogaabkkcaaclkcackbcgljjjjjkkkkpppppp",
"ppppppkllkc`ohacclkcggcbbcagcbcgjjffjkjkkkpppppp",
"pppppplklkc``hgccbkkbbbbbcccbccajjjjfjkkkkpppppp",
"ppppppkllkc`ohgacclkkklcblllbaalkjjfjjkkkkpppppp",
"ppppppllklliohhgcablkjjkkklbacakkjjjjjkkkkpppppp",
"pppppplklklahhggaacblkjkkklcaalkjjjjfjkkkkpppppp",
"pppppplkllllbaghhggccbkkkbcaabkkkjjjjjkkkkpppppp",
"pppppplklllkjccgghhgaabccchgblkkkjjjjjjkkkpppppp",
"pppppplkkkkjekccghhihhihhhhbkllkkkjjjjkkkkpppppp",
"ppppppljdfjeddbbaghhihihiihcfllkkkjjjjjkkkpppppp",
"ppppppfmejjennjlbcgghhiiigaaekllkkkjjjkkkkpppppp",
"ppppppmmefjdmndkbbccaagggaaafdllkkkjjjjkklpppppp",
"ppppppnmefknnnmfllbcbbcagcgbjmmfkkkjkjkkklpppppp",
"ppppppneefknnmndkkbbblbcacaljmmnejkjjjkjklpppppp",
"ppppppmfjfjdnnmmfklbbbcacbckjnmmfddfkjkkklpppppp",
"ppppppnjjkfdnmmndklllcccbbcjfdmmeedmnfjkkbpppppp",
"ppppppdjjkedndkcckllbbbblcaffekfffedmmnfjlpppppp",
"ppppppdfkjenjhooicklbcbllcajedhhjfeedmmmekpppppp",
"ppppppdfkjelhhggigcbllkklcbjjcohkfeeddmnmnpppppp",
"ppppppdfkfkacccbbacclkjjkkkbacghlfeddeennnpppppp",
"ppppppjlcbaccbbcbcagcbllblbgacaiglkkjkjjjjpppppp"
};
