#define face_width 48
#define face_height 48
static unsigned char face_bits[] = {
 0x00,0x00,0x00,0x00,0x00,0x00,0x00,0x00,0x00,0x00,0x00,0x00,0x00,0x00,0xa0,
 0x1f,0x00,0x00,0x00,0x00,0xfc,0x3f,0x00,0x00,0x00,0x00,0xba,0xff,0x00,0x00,
 0x00,0x80,0xfe,0xef,0x01,0x00,0x00,0x80,0xed,0xfd,0x03,0x00,0x00,0x40,0xd7,
 0xfe,0x06,0x00,0x00,0x60,0xb5,0xd4,0x07,0x00,0x00,0xa0,0x2a,0x6a,0x0d,0x00,
 0x00,0x70,0xaa,0x4d,0x15,0x00,0x00,0xb0,0x14,0x22,0x0d,0x00,0x00,0x18,0xab,
 0x14,0x1c,0x00,0x00,0xb8,0x5e,0x4a,0x15,0x00,0x00,0xa8,0xfe,0x3d,0x2c,0x00,
 0x00,0xb8,0x7b,0xff,0x15,0x00,0x00,0x48,0xbf,0x2f,0x29,0x00,0x00,0x98,0x7e,
 0xfd,0x2e,0x00,0x00,0xa0,0x5d,0xbf,0x2a,0x00,0x00,0x48,0x36,0x5c,0x19,0x00,
 0x00,0x94,0xad,0x37,0x2d,0x00,0x00,0x08,0x4a,0x5c,0x14,0x00,0x00,0x50,0xb5,
 0x2a,0x25,0x00,0x00,0x08,0xb5,0x5f,0x1a,0x00,0x00,0xa0,0x6a,0x89,0x0c,0x00,
 0x00,0x20,0xaa,0xaa,0x12,0x00,0x00,0x40,0x55,0x95,0x0a,0x00,0x00,0x00,0xff,
 0x6f,0x02,0x00,0x00,0xa0,0xa8,0x4a,0x01,0x00,0x00,0x40,0xf5,0x55,0x00,0x00,
 0x00,0x20,0x55,0xaa,0x00,0x00,0x00,0x40,0xb5,0x55,0x00,0x00,0x00,0xa0,0xaa,
 0x2a,0x00,0x00,0x00,0x80,0x6a,0x35,0x00,0x00,0x00,0x58,0xdb,0x0e,0x00,0x00,
 0x00,0x98,0xbe,0x6b,0x00,0x00,0x00,0x5c,0xfa,0x65,0x00,0x00,0x00,0x5c,0x45,
 0x6a,0x01,0x00,0x00,0x8c,0x54,0x69,0x01,0x00,0x00,0x78,0xb3,0x3a,0x05,0x00,
 0x00,0x3b,0xaa,0x7e,0x44,0x00,0x00,0xf2,0xd5,0xbe,0x4a,0x00,0x00,0xf3,0x5a,
 0xcf,0xab,0x00,0x00,0xa6,0xf7,0x57,0xc5,0x00,0x00,0x73,0xff,0xe3,0x61,0x00,
 0x00,0xec,0xf9,0x77,0x4b,0x00,0x00,0xf5,0xf7,0xdb,0x20,0x00,0x00,0xf9,0xfa,
 0x75,0x49,0x00};
