/* XPM */
static char *noname_xpm[] = {
/* width height ncolors chars_per_pixel */
"48 48 17 1",
/* colors */
"` c black",
"a c grey33",
"b c grey47",
"c c grey40",
"d c grey87",
"e c grey80",
"f c grey73",
"g c grey27",
"h c grey20",
"i c grey13",
"j c grey67",
"k c grey60",
"l c grey53",
"m c white",
"n c grey93",
"o c grey7",
"p s None c None",
/* pixels */
"ppppppgggggggggggagaaaaaagagagggggggggggggpppppp",
"ppppppggghgggggagaaagaagaaaaagggggghgggaggpppppp",
"ppppppggggggggagaaaaccaagcfcgggggggggggagapppppp",
"ppppppghggggggggaacljchhhbeahhhgggggggagaapppppp",
"ppppppggghgggagaagacci``ohhiooohhgggggaaggpppppp",
"ppppppghggggggaghiiio```ggiio``oigggggggaapppppp",
"ppppppggggggaagiiio````ihooooo```ihaagaaagpppppp",
"ppppppggggggggho```````iahiooo````iggaaaaapppppp",
"ppppppggggggah```````````ooooo`o```iaaaaaapppppp",
"ppppppgggggah``````ohhio``````o`````haaaaapppppp",
"ppppppggggggo````oaljekcahi````o````iaaaaapppppp",
"ppppppgggagh````ocjenmnejlchi````````gaacapppppp",
"ppppppggggai````cjenmmmdfjkbho```````oacaapppppp",
"ppppppggaggi```ilenmmmmdefflcho```````aacapppppp",
"ppppppggggai```gkemmmmmdeefkbcgo``````hcccpppppp",
"ppppppggaaao``obfdnmmnnnefjjlbcgi`````ocacpppppp",
"ppppppgggggo``ikednmndnneffjkbcagio````accpppppp",
"ppppppggggg```gkednnnddeffjjlbcagho````hccpppppp",
"ppppppgagag```akeeeeffejjllllbcaggo````hccpppppp",
"ppppppggggg```cjfffkkblbcaghiiiihgi````hccpppppp",
"ppppppgggah```agchhhihbahgo```ioihi````iccpppppp",
"ppppppgaggg```hoo```ohkaio````ooioh````iccpppppp",
"ppppppgggah``oii`o``ohfkhiihoooohhgo```occpppppp",
"ppppppggggh``ogiihiihankhhghhhiggghi```occpppppp",
"ppppppggagh``icaghggccdkagcccaaaaagi````acpppppp",
"ppppppggggh``iblklllcldkcggcbbbccahi````ccpppppp",
"ppppppggagh``ibkjjjbckdjcghgaaacaggo````ccpppppp",
"ppppppggggg``ibbbbghcjjlachhacbbagho```iccpppppp",
"ppppppgggago`oclbahhcaagiigghgaaaghooo`hccpppppp",
"ppppppgggggg`occcgiaciio`oihhiggggi`ho`gccpppppp",
"ppppppgaggagiiacahighiiioiiiiiaagho```occapppppp",
"ppppppggaggaaihccgoihhgghhioihaggho```haccpppppp",
"ppppppggggagagoaccihiacachhgggchhiooo`aacapppppp",
"ppppppagagaaaaoigbabcacacccacgghio`io`aaacpppppp",
"ppppppgagagaaahohaabbbbcaaaaahhhiooh`iaaaapppppp",
"ppppppgagaagaaaiihgabbghghaaghiiooigohaacapppppp",
"ppppppaaaagaaaag`iihbbggagaahiiooigcggaaaapppppp",
"ppppppagaaaaacaaioihacbbbaghioooihabcgggccpppppp",
"ppppppaaaaaaaaacaioigacaagiioooohallbcgccbpppppp",
"ppppppaaaaaaacaaaaiiiighhiio``ohgbllklclkjpppppp",
"ppppppaaaaaaaaacachoooioioo`ooigclkkjllkjfpppppp",
"ppppppaaaaaaaaaaacaho```````oihcllkjjlkedepppppp",
"ppppppaaaaaaaacacacagoo``oooiiabbkjfjjjeddpppppp",
"ppppppcaaaaaaaacacalagiooooiiacblkffjjedddpppppp",
"ppppppaaaaaaaaaaaccebghiiooiacblkfffjfnmddpppppp",
"ppppppacaaaacaacbemnelghiihcbkkjffejfdnmnmpppppp",
"ppppppcacacaacckmmmdeekgihkjjjffeeejdmmmmmpppppp",
"ppppppgggghgggkddffjkjjb`ikkkkkjkjlkfededepppppp"
};
