/* XPM */
static char *noname_xpm[] = {
/* width height ncolors chars_per_pixel */
"48 48 17 1",
/* colors */
"` c black",
"a c grey33",
"b c grey47",
"c c grey40",
"d c grey87",
"e c grey80",
"f c grey73",
"g c grey27",
"h c grey20",
"i c grey13",
"j c grey67",
"k c grey60",
"l c grey53",
"m c white",
"n c grey93",
"o c grey7",
"p s None c None",
/* pixels */
"ppppppmmmmmmmmmmmmmmmmmmmmmmmmmmmmmmmmmmmmpppppp",
"ppppppmmmmmmmmmmmmmmmmmmmmmmmmmmmmmmmmmmmmpppppp",
"ppppppmmmmmmmmmmmmmmmmmmmmmmmmmmmmmmmmmmmmpppppp",
"ppppppmmmmmmmmmmmmmmmmmmmmnnmmmmmmmmmmmmmmpppppp",
"ppppppmmmmmmmmmmmmmmmnmdfkbljmmmmmmmmmmmmmpppppp",
"ppppppmmmmmmmmdfjffdnnfjlcacgkdmnmmmmmmmmmpppppp",
"ppppppmmmmmmnkbjblklbbaggaagcljeeenmmmmmmmpppppp",
"ppppppmmmmmmbckjlllahhhhhhcaagccbkemmmmmmmpppppp",
"ppppppmmmmmfcblccbchiihhhooiiigcggbemmmmmmpppppp",
"ppppppmmmmnahacaggioiiihi`ooooiihgabmmmmmmpppppp",
"ppppppmmmmjhoiggiohhiiioo``oooooigggemmmmmpppppp",
"ppppppmmmmcioiioo`oooooo``o`ooiiihhhcmmmmmpppppp",
"ppppppmmmdgooio``oooooioooo`iighogihgdmmmmpppppp",
"ppppppmmmfhiioo``o`oooooooihcbcaiihoilmmmmpppppp",
"ppppppmmmbioooooiooooohbblkeejcahihoohmmmmpppppp",
"ppppppmmmhii`hio``oohbenmmmmdkbbhoio`hmmmmpppppp",
"ppppppmmeihooii```icemmmmmmmdekchiioogmmmmpppppp",
"ppppppmmkiioooo``hfmmmmmmmmmmnjahiooignmmmpppppp",
"ppppppmnlhhooihgjmmmmmmmmmmmmneahii`ohmmmmpppppp",
"ppppppmng```ogbfdmmmmmmmmmmmmndbgoo`icmmmmpppppp",
"ppppppmei```ibkenmmmmmmmmnmndddjg```iknmmmpppppp",
"ppppppmki```hbkkjeeednneklbccljeco``hcemmmpppppp",
"ppppppmjo```ibbcghgclffcai`igabkjao`hgnmmmpppppp",
"ppppppmma```hagho``ohllghiiakbbcdkiogkmmmmpppppp",
"ppppppmme```hgghaoihgfnacaclkkjjneachkmmmmpppppp",
"ppppppmmmjh`ccaccagaadmlbaclkjefnefeodmmmmpppppp",
"ppppppmmmmeglclacbcccnmdbkblkejedefddmmmmmpppppp",
"ppppppmmmmnllblbblklbdmmjkjjffdddedemmmmmmpppppp",
"ppppppmmmmmklllbljkakdmmnbcbkddddfjdmmmmmmpppppp",
"ppppppmmmmmdklkkbcbbkemmnjljedeeffnmmmmmmmpppppp",
"ppppppmmmmmmdblkjjlbkendjjllkjjjjjmmmmmmmmpppppp",
"ppppppmmmmmmmblllbckcbllbjekbbkkjjmmmmmmmmpppppp",
"ppppppnmmennfcbccgcllcggljjlabkkkkjnmmmmmmpppppp",
"ppppppnmealcacccchhcccbbbbbggllllbjdmmmmmmpppppp",
"ppppppnflgbhcccachiggalcablbcbbbbcedmmmdfnpppppp",
"ppppppdjbgchcbaagggccaccbblbcbcbcgeemmeklmpppppp",
"ppppppmnagcgcbbgghgaghiigcbbccclcgeemfkcempppppp",
"ppppppjfcahccbccghgaaabkklllbcclbofnfllcmmpppppp",
"ppppppeklaibacbacggacbbkkkklccclcohbklcbdnpppppp",
"ppppppfdjh`gaabaaahgaaaccacaabalbhoabbgjdkpppppp",
"pppppplkeg`haabchchihhhiiiihcballloabaadbapppppp",
"pppppplbla`hagbcigahio```ohcbballegacgllcapppppp",
"ppppppblbc`gagcbgogghio``iabbhckljbgchlcgapppppp",
"pppppplbbc`gcaabciigghiiigacbhlllljggicahgpppppp",
"pppppplcccigcaaccaohghhiihgbgglklbjchhcgagpppppp",
"ppppppkcachabcabbcaogaghihaciicllkkliacgggpppppp",
"ppppppkbcagblbcbbcagighhhgahh``llkblgccghcpppppp",
"ppppppcahihccaaaag`oi`oooooio``occalbghiogpppppp"
};
