#define noname_width 48
#define noname_height 48
static char noname_bits[] = {
 0x00,0x94,0x00,0x02,0x81,0x00,0x00,0x42,0x00,0x55,0x54,0x00,0x00,0xd9,0xaa,
 0x86,0x82,0x02,0x00,0xa4,0xf7,0x5d,0x50,0x00,0x80,0xf8,0xff,0x9f,0x8a,0x02,
 0x00,0xf5,0xff,0x3f,0x41,0x00,0x00,0xfc,0xff,0x7f,0x2a,0x01,0x00,0xfe,0xff,
 0xff,0x81,0x00,0x80,0xfe,0xff,0xff,0x2a,0x01,0x00,0xfe,0xff,0xef,0x91,0x00,
 0x80,0xfe,0xff,0xff,0x23,0x01,0x00,0xff,0xff,0xcf,0x8b,0x00,0x00,0xff,0xff,
 0xf2,0x53,0x02,0x40,0xfe,0x7f,0xc0,0x27,0x01,0x00,0xff,0x17,0xe0,0x49,0x00,
 0x40,0x7e,0x01,0xa0,0x23,0x01,0x00,0xff,0x05,0xc0,0x55,0x02,0x00,0x7c,0x01,
 0xf4,0x09,0x01,0x80,0xfe,0xd6,0xbe,0x52,0x00,0x00,0xfc,0x3f,0xad,0xa5,0x02,
 0x80,0xba,0x2d,0x90,0x48,0x01,0x00,0x75,0x45,0x42,0x55,0x00,0x80,0xec,0x10,
 0x44,0x91,0x02,0x00,0xf4,0x65,0x95,0x4a,0x01,0x80,0x6a,0xf9,0x7f,0x29,0x02,
 0x00,0xf5,0xf6,0xbf,0x54,0x01,0x80,0xf4,0xff,0x7f,0xa9,0x00,0x40,0xfa,0x7d,
 0xca,0x4a,0x02,0x80,0xea,0xab,0x34,0x55,0x01,0x40,0xf4,0xae,0x6a,0x29,0x01,
 0x80,0xf2,0xb7,0x5a,0x55,0x01,0x00,0xfd,0xbf,0xaa,0x4a,0x01,0x40,0x70,0x7f,
 0xad,0xaa,0x02,0x00,0xd5,0xfe,0x5f,0x55,0x01,0x40,0x6a,0xff,0x1b,0x2a,0x01,
 0x00,0x69,0xeb,0xbf,0xa8,0x02,0x80,0xda,0xbd,0x7e,0x55,0x01,0x40,0x2a,0xa7,
 0x5f,0xa5,0x02,0x80,0xaa,0x2f,0xbf,0x57,0x01,0x80,0x52,0x5a,0xff,0xae,0x02,
 0x00,0xa9,0xbd,0xef,0x5f,0x01,0x00,0x52,0xf5,0x7f,0xbb,0x02,0x80,0xe4,0xea,
 0xef,0x5d,0x01,0x00,0xba,0xee,0xfb,0xbf,0x02,0x80,0xcd,0x75,0xff,0xbf,0x02,
 0x00,0xba,0xfd,0xef,0x7b,0x01,0xc0,0x76,0xf7,0xf7,0x5f,0x01,0x80,0xdd,0x7f,
 0xff,0x77,0x03};
