#define noname_width 48
#define noname_height 48
static char noname_bits[] = {
 0x00,0x04,0x80,0x44,0x10,0x00,0x80,0x22,0x11,0x11,0x0a,0x00,0x00,0x08,0x80,
 0x22,0x20,0x01,0x00,0x85,0x22,0x88,0x14,0x00,0x00,0x10,0x80,0x22,0x40,0x00,
 0x00,0x05,0x29,0x05,0x14,0x00,0x80,0x10,0xc8,0x52,0x00,0x01,0x00,0x04,0xe9,
 0x4f,0x24,0x00,0x80,0x92,0xd4,0xab,0x00,0x00,0x00,0x80,0xc2,0xff,0x12,0x01,
 0x80,0x4a,0xfd,0xbf,0x41,0x00,0x00,0xa0,0xf5,0xff,0x0e,0x00,0x80,0xca,0xff,
 0xff,0x23,0x02,0x00,0xe1,0xff,0xed,0x0f,0x00,0x00,0xd2,0xef,0xf6,0x8f,0x00,
 0x80,0xe4,0x5b,0x90,0x0f,0x00,0x00,0xf1,0x2b,0xc0,0x0f,0x01,0x40,0xe4,0x05,
 0x40,0x4f,0x00,0x00,0xf1,0x01,0xa8,0x1f,0x01,0x80,0xe8,0x05,0x40,0x5f,0x00,
 0x00,0xf5,0x02,0xd0,0x1e,0x01,0x80,0xe0,0x3d,0xbc,0x5f,0x00,0x00,0xf5,0xbe,
 0xfa,0x3f,0x03,0x40,0xf8,0x55,0xb4,0x7e,0x00,0x00,0xf5,0x5e,0x6a,0x3f,0x01,
 0x00,0xf9,0x81,0x94,0x7e,0x02,0x80,0x34,0x24,0x42,0x13,0x01,0x00,0xd2,0x81,
 0x84,0xb6,0x02,0x80,0x24,0x40,0x86,0x1d,0x01,0x40,0x52,0xa3,0x47,0x55,0x02,
 0x80,0xc4,0x40,0xa8,0xbf,0x02,0x00,0x12,0x2b,0x46,0x2f,0x01,0x80,0xa2,0xd4,
 0x5a,0x5f,0x01,0x80,0x14,0x53,0xad,0x9f,0x02,0x00,0x49,0x2a,0xd1,0xa7,0x02,
 0x80,0x52,0xd5,0x6e,0x5f,0x01,0x80,0x84,0x2a,0xd9,0x87,0x02,0x00,0x55,0x5c,
 0xf5,0xbe,0x02,0x80,0x92,0xba,0x5e,0x4f,0x01,0x80,0x54,0xe5,0xb7,0xad,0x02,
 0x80,0x92,0xf4,0x5d,0x53,0x03,0x80,0x4a,0x5a,0xa6,0xaa,0x00,0x80,0x54,0xb5,
 0x49,0x25,0x02,0x80,0xaa,0x6a,0x2a,0xaa,0x00,0x80,0x52,0xd9,0xa5,0x52,0x00,
 0x80,0x2a,0xb5,0x4a,0x25,0x01,0x80,0xca,0xfc,0xaa,0x94,0x00,0xc0,0x6a,0xb7,
 0x5b,0x6b,0x01};
