#define noname_width 48
#define noname_height 48
static char noname_bits[] = {
 0x00,0x00,0x00,0x00,0x00,0x00,0x00,0x00,0x00,0x00,0x00,0x00,0x00,0x00,0x00,
 0x2e,0x00,0x00,0x00,0x00,0x8a,0xfb,0x01,0x00,0x00,0x80,0xfd,0xfe,0x01,0x00,
 0x00,0x60,0xf5,0xbd,0x07,0x00,0x00,0xd0,0xfb,0xff,0x07,0x00,0x00,0xf0,0xfe,
 0xf6,0x0f,0x00,0x00,0xf8,0x7b,0xff,0x1e,0x00,0x00,0x50,0xdf,0xdd,0x1f,0x00,
 0x00,0xfc,0x3d,0xff,0x3f,0x00,0x00,0x78,0xb7,0xf4,0x7f,0x00,0x00,0xec,0x1f,
 0xba,0x7f,0x00,0x00,0xfa,0x0d,0xfa,0x7f,0x00,0x00,0xee,0x07,0xe8,0x7f,0x00,
 0x00,0x7a,0x0f,0xf2,0xff,0x00,0x00,0xfe,0x29,0xe0,0x7d,0x00,0x00,0xfc,0xb6,
 0xa0,0xff,0x00,0x00,0xee,0x48,0x59,0x7e,0x00,0x00,0xbc,0xa9,0x80,0xf9,0x00,
 0x00,0xfc,0x7a,0xf9,0x7f,0x00,0x00,0x7c,0xd4,0xd3,0x7b,0x00,0x00,0x78,0x7c,
 0x79,0x7f,0x00,0x00,0x70,0xa8,0xa1,0x75,0x00,0x00,0x20,0x70,0xd0,0x1a,0x00,
 0x00,0x80,0x00,0x21,0x10,0x00,0x00,0x40,0x00,0x08,0x0a,0x00,0x00,0x00,0x00,
 0x35,0x04,0x00,0x00,0x80,0x00,0x1b,0x02,0x00,0x00,0x60,0x82,0x5f,0x05,0x00,
 0x00,0xc0,0xf0,0x7f,0x01,0x00,0x00,0xc0,0xe4,0xf5,0x02,0x00,0x00,0xc0,0xb0,
 0xd4,0x02,0x00,0x00,0x00,0xea,0xf6,0x01,0x00,0x00,0x00,0x5a,0x5f,0x00,0x00,
 0x00,0x00,0xbc,0xff,0x01,0x00,0x00,0x00,0xf4,0xff,0x00,0x00,0x00,0x00,0xf8,
 0xff,0x03,0x00,0x00,0x00,0xfc,0xbf,0x00,0x00,0x00,0x00,0xf0,0xff,0x02,0x00,
 0x00,0x00,0xf8,0xff,0x00,0x00,0x00,0x00,0xd0,0xff,0x01,0x00,0x00,0x00,0xe0,
 0x7f,0x00,0x00,0x00,0x00,0x00,0x7f,0x00,0x00,0x00,0x00,0x00,0x5b,0x01,0x00,
 0x00,0x00,0x00,0x54,0x44,0x00,0x00,0x00,0x00,0xb0,0x84,0x00,0x00,0x10,0x01,
 0xac,0x55,0x01};
