#define noname_width 48
#define noname_height 48
static char noname_bits[] = {
 0x00,0x00,0x00,0x00,0x00,0x00,0x00,0x00,0x00,0x00,0x00,0x00,0x00,0x02,0x00,
 0x00,0x00,0x00,0x00,0x90,0x00,0x00,0x00,0x00,0x00,0x00,0x00,0x04,0x00,0x00,
 0x00,0x04,0x14,0x15,0x00,0x00,0x00,0x21,0x52,0x5d,0x00,0x00,0x00,0x00,0x5f,
 0xb2,0x03,0x00,0x00,0xc8,0xaf,0xec,0x02,0x00,0x00,0xc2,0xff,0xff,0x07,0x00,
 0x00,0xe0,0xdb,0x7b,0x0f,0x00,0x80,0xe4,0x7f,0xff,0x0f,0x00,0x00,0xf0,0xff,
 0xef,0x0f,0x00,0x00,0xe0,0xff,0x5b,0x1f,0x00,0x00,0xf5,0xdf,0x47,0x1f,0x00,
 0x00,0xf0,0x75,0x01,0x3c,0x00,0x00,0xf9,0x0b,0x00,0x17,0x00,0x00,0xf0,0x06,
 0x00,0x3c,0x00,0x80,0xf4,0xb3,0xc9,0x3f,0x00,0x00,0xf8,0x95,0x42,0x1d,0x00,
 0x00,0xf9,0xd1,0xf0,0x0e,0x00,0x40,0xf0,0x07,0x01,0x3b,0x00,0x00,0xb5,0x01,
 0x50,0x0c,0x00,0x00,0x50,0x05,0x20,0x8d,0x00,0x80,0x3a,0x05,0x22,0x06,0x00,
 0x00,0x60,0x02,0x54,0x22,0x00,0x80,0x6a,0x05,0xba,0x8a,0x00,0x00,0xd0,0x95,
 0x7e,0x03,0x00,0x80,0xe2,0xc3,0xeb,0x92,0x00,0x40,0x88,0xad,0xb4,0x02,0x00,
 0x00,0xa5,0x13,0x6a,0xa9,0x02,0x80,0x10,0x8d,0xb4,0x02,0x00,0x00,0x45,0x35,
 0xd0,0xa8,0x00,0x80,0x28,0xaa,0x6a,0x05,0x01,0x00,0x45,0x55,0xf5,0x50,0x00,
 0x80,0x90,0xe2,0x7e,0x0a,0x01,0x00,0xa5,0x8a,0xd5,0x50,0x00,0x80,0x48,0x21,
 0x78,0x0a,0x01,0x00,0xa2,0x4a,0x55,0x51,0x02,0x00,0x48,0x12,0xf4,0x88,0x00,
 0x80,0x50,0x45,0xad,0x20,0x01,0x00,0x24,0xa9,0x68,0x89,0x00,0x80,0x48,0x2a,
 0xb7,0x04,0x02,0x00,0xa2,0x4a,0xd5,0x0a,0x00,0x80,0x14,0xa9,0xaa,0x85,0x00,
 0x00,0xa2,0x44,0x6a,0x41,0x00,0x00,0x14,0xa9,0x2a,0x5d,0x01,0x40,0xd5,0x56,
 0xd5,0xb6,0x02};
