#define noname_width 48
#define noname_height 48
static char noname_bits[] = {
 0xc0,0xfd,0x7f,0xdf,0xdd,0x01,0x40,0x57,0xc5,0x62,0x6f,0x03,0xc0,0xfd,0x82,
 0xd1,0xba,0x01,0x80,0x2e,0x47,0x0b,0xd7,0x03,0xc0,0xeb,0x65,0xcb,0x7a,0x01,
 0xc0,0x7e,0xd3,0x57,0xaf,0x03,0x40,0xf7,0xd5,0xdf,0x75,0x03,0xc0,0xfd,0xff,
 0xbf,0xdf,0x02,0x40,0xf7,0xff,0xff,0xb3,0x03,0xc0,0xfd,0xff,0xff,0xaf,0x02,
 0x40,0xff,0xff,0xff,0x57,0x03,0x80,0xfc,0xff,0xff,0xb7,0x01,0xc0,0xff,0xff,
 0xff,0xaf,0x02,0x80,0xff,0xff,0xff,0x6f,0x03,0xc0,0xff,0xff,0x7f,0xdf,0x02,
 0xc0,0xff,0xff,0xff,0xbf,0x01,0xc0,0xff,0xdf,0xef,0x5f,0x03,0xc0,0xff,0xff,
 0xfd,0x7f,0x01,0xc0,0xff,0xb7,0xff,0xff,0x02,0xc0,0xff,0x5d,0xc9,0xbf,0x03,
 0xc0,0xff,0xab,0x7a,0xff,0x02,0xc0,0xff,0x5f,0xbd,0xff,0x03,0xc0,0x7f,0x3d,
 0x6f,0x7f,0x01,0xc0,0x7f,0x6f,0x34,0xff,0x03,0xc0,0xbf,0x54,0x89,0xff,0x02,
 0xc0,0x7f,0x49,0x42,0xff,0x02,0xc0,0x7f,0x21,0x84,0xbf,0x01,0xc0,0xff,0x54,
 0x52,0x7f,0x03,0xc0,0xbf,0x69,0xad,0xff,0x02,0xc0,0xff,0xb6,0xd5,0xaf,0x02,
 0xc0,0x7f,0xab,0xda,0xff,0x02,0xc0,0xff,0xda,0xae,0x5f,0x03,0xc0,0xff,0xb5,
 0xd2,0x7f,0x01,0xc0,0xff,0x53,0xf5,0xdf,0x02,0xc0,0xff,0xad,0xf4,0x7f,0x03,
 0xc0,0xff,0x17,0xfa,0xff,0x02,0xc0,0xff,0xdf,0xfe,0xbf,0x03,0xc0,0xff,0xbf,
 0xfd,0xff,0x02,0xc0,0xff,0xff,0xfe,0xbf,0x01,0xc0,0xff,0x3f,0xfd,0xff,0x03,
 0xc0,0xcd,0x7f,0xf8,0x5f,0x01,0xc0,0x0b,0x7f,0xf0,0xff,0x03,0x80,0x07,0x3e,
 0xe0,0x5f,0x01,0x80,0x00,0xf8,0xc0,0xb7,0x03,0x00,0x00,0x34,0xc0,0x7f,0x01,
 0x00,0x00,0xf0,0xe1,0xaf,0x03,0x00,0x00,0x60,0xc0,0xbf,0x02,0x00,0x11,0xa1,
 0xd2,0xed,0x03};
