/* XPM */
static char * pe_xpm[] = {
/* width height ncolors chars_per_pixel */
"48 48 4 1",
/* colors */
" 	s None	c None",
".	c black",
"X	c red",
"o	c white",
/* pixels */
"              ....                              ",
"              .   .                             ",
"              .   .  ..  . . .  .               ",
"              ....  .  . ..  .  .               ",
"              .     .... .   .  .               ",
"              .     .    .   .  .               ",
"              .     .  . .   .  .               ",
"              .      ..  .    ...               ",
"                                                ",
"                                                ",
"                                                ",
"                                                ",
"................................................",
".XXXXXXXXXXXXXXXooooooooooooooooXXXXXXXXXXXXXXX.",
".XXXXXXXXXXXXXXXooooooooooooooooXXXXXXXXXXXXXXX.",
".XXXXXXXXXXXXXXXooooooooooooooooXXXXXXXXXXXXXXX.",
".XXXXXXXXXXXXXXXooooooooooooooooXXXXXXXXXXXXXXX.",
".XXXXXXXXXXXXXXXooooooooooooooooXXXXXXXXXXXXXXX.",
".XXXXXXXXXXXXXXXooooooooooooooooXXXXXXXXXXXXXXX.",
".XXXXXXXXXXXXXXXooooooooooooooooXXXXXXXXXXXXXXX.",
".XXXXXXXXXXXXXXXooooooooooooooooXXXXXXXXXXXXXXX.",
".XXXXXXXXXXXXXXXooooooooooooooooXXXXXXXXXXXXXXX.",
".XXXXXXXXXXXXXXXooooooooooooooooXXXXXXXXXXXXXXX.",
".XXXXXXXXXXXXXXXooooooooooooooooXXXXXXXXXXXXXXX.",
".XXXXXXXXXXXXXXXooooooooooooooooXXXXXXXXXXXXXXX.",
".XXXXXXXXXXXXXXXooooooooooooooooXXXXXXXXXXXXXXX.",
".XXXXXXXXXXXXXXXooooooooooooooooXXXXXXXXXXXXXXX.",
".XXXXXXXXXXXXXXXooooooooooooooooXXXXXXXXXXXXXXX.",
".XXXXXXXXXXXXXXXooooooooooooooooXXXXXXXXXXXXXXX.",
".XXXXXXXXXXXXXXXooooooooooooooooXXXXXXXXXXXXXXX.",
".XXXXXXXXXXXXXXXooooooooooooooooXXXXXXXXXXXXXXX.",
".XXXXXXXXXXXXXXXooooooooooooooooXXXXXXXXXXXXXXX.",
".XXXXXXXXXXXXXXXooooooooooooooooXXXXXXXXXXXXXXX.",
".XXXXXXXXXXXXXXXooooooooooooooooXXXXXXXXXXXXXXX.",
".XXXXXXXXXXXXXXXooooooooooooooooXXXXXXXXXXXXXXX.",
".XXXXXXXXXXXXXXXooooooooooooooooXXXXXXXXXXXXXXX.",
".XXXXXXXXXXXXXXXooooooooooooooooXXXXXXXXXXXXXXX.",
".XXXXXXXXXXXXXXXooooooooooooooooXXXXXXXXXXXXXXX.",
".XXXXXXXXXXXXXXXooooooooooooooooXXXXXXXXXXXXXXX.",
".XXXXXXXXXXXXXXXooooooooooooooooXXXXXXXXXXXXXXX.",
".XXXXXXXXXXXXXXXooooooooooooooooXXXXXXXXXXXXXXX.",
".XXXXXXXXXXXXXXXooooooooooooooooXXXXXXXXXXXXXXX.",
".XXXXXXXXXXXXXXXooooooooooooooooXXXXXXXXXXXXXXX.",
"................................................",
"                                                ",
"                                                ",
"                                                ",
"                                                "};
