/* XPM */
static char * face_xpm[] = {
/* width height ncolors chars_per_pixel */
"48 48 3 1",
/* colors */
" 	s None	c None",
".	c dodger blue",
"X	c blue",
/* pixels */
"                                                ",
"                                                ",
"                                                ",
"                                                ",
"                                                ",
"                                                ",
"                                                ",
"                                                ",
"                                                ",
"                       ...                      ",
"                      .XXX.                     ",
"                    .XXX.XX..                   ",
"                   .XXX. .XXX.                  ",
"                 ..XX..   ..XX.                 ",
"               ..XX.. .XX.. ..XX.               ",
"              .XX..  .XXXXX   .XXX.             ",
"             .XX.    .XXXXX    .XXX.            ",
"           ..XX.     .XXXXX     ..XX..          ",
"         ..XX.        .XXX.       ..XX.         ",
"        ..XX.          ...          .XX..       ",
"       .XX..          .....          .XXX.      ",
"     .XXX.           .XXXXX.          ..XX..    ",
"    .XX..            .XXXXX.            .XXX.   ",
"   .XX.              .XXXXX.             ..XX.  ",
"  .XX.               .XXXXX.               .XX. ",
"  ..XX.              .XXXXX.             ..XX.. ",
"    .XX..            .XXXXX.            .XXX.   ",
"     .XXX.           .XXXXX.          ..XX..    ",
"       .XX..         .XXXXX.         .XXX.      ",
"        ..XX.        .XXXXX.        .XX..       ",
"         ..XX.       .XXXXX.      ..XX.         ",
"           ..XX.     .XXXXX.    ..XX..          ",
"             .XXX.   .XXXXX.   .XX..            ",
"              .XXX.  .XXXXX   .XX.              ",
"               ..XX.. ..... ..XX.               ",
"                 .XXX..   ..XX.                 ",
"                  ..XX.. .XXX.                  ",
"                    .XXX.XX..                   ",
"                     ..XXX.                     ",
"                       ..                       ",
"                                                ",
"                                                ",
"                                                ",
"                                                ",
"                                                ",
"                                                ",
"                                                ",
"                                                "};
