/* XPM */
static char *noname_xpm[] = {
/* width height ncolors chars_per_pixel */
"48 48 17 1",
/* colors */
"` c black",
"a c grey33",
"b c grey47",
"c c grey40",
"d c grey87",
"e c grey80",
"f c grey73",
"g c grey27",
"h c grey20",
"i c grey13",
"j c grey67",
"k c grey60",
"l c grey53",
"m c white",
"n c grey93",
"o c grey7",
"p s None c None",
/* pixels */
"ppppppmmmmmmmmmmmmndeffddjbjdmmmmmmmmmmmmmpppppp",
"ppppppmmmmmmmmnddnfkkjkjklbblnmmmmmmmmmmmmpppppp",
"ppppppmmmmmmmmekfjlllbbcblccbldnmmmmmmmmmmpppppp",
"ppppppmmmmmndklklaabbccaccbbbcbbfmmmmmmmmmpppppp",
"ppppppmmmmmklllkahgccccaaaacbccccemmmmmmmmpppppp",
"ppppppmmmmfbclbbcghgaaagghhgaaaaabnmmmmmmmpppppp",
"ppppppmmmdlllbcaahhigccghhhhhgagaakmmmmmmmpppppp",
"ppppppmmmkaccbghgigiiighhhhghhggggajmmmmmmpppppp",
"ppppppmmdcgihhhihhhiiiihggghghhghhgcmmmmmmpppppp",
"ppppppmdjggghhiihghghioiohghhhhhhghgemmmmmpppppp",
"ppppppelbghhihiihhgahiiihgggghihhgggfmmmmmpppppp",
"ppppppjbgghihhiiihgaghihggacgiiihiggfmmmmmpppppp",
"ppppppechghhhhhihihghihhhgghioiioilkjmmmmmpppppp",
"ppppppnbhhghihhaghhaghhggggaagiioigcnmmmmmpppppp",
"ppppppngiihhhiiigigaaggcaacblcahoigkmmmmmmpppppp",
"ppppppdiiihiihohihgagaaaccblklcahicnmmmmmmpppppp",
"ppppppmciihhggiiiiacccbbbbkjkkbagijmmmmmmmpppppp",
"ppppppmkiiohghiohgckkkjfjfefjklcahemmmmmmmpppppp",
"ppppppmnhiiiioioialfeeedddddfjlbcgnmmmmmmmpppppp",
"ppppppmmfaiooooihalfddnnmnndefjlccnmmmmmmmpppppp",
"ppppppmmmfoooooigbjedmmmmmndeflghammmmmmmmpppppp",
"ppppppmmmdioiooickjfddfeffefkbhhagnmmmmmmmpppppp",
"ppppppmmmmhhiiigbkjkklbaacbkbghhhhemmmmmmmpppppp",
"ppppppmmmmjcahigkjjllcgggablaghhgajmmmmmmmpppppp",
"ppppppmmmmmkcaggkfjbghhcackelccaabkmmmmmmmpppppp",
"ppppppmmmmmjkkbckffflbabbkdmfljkjjlnmmmmmmpppppp",
"ppppppmmmmmdfflbljeddjlljnmmdkfeeflemmmmmmpppppp",
"ppppppmmmmmmefjbbledmmnnmmnmnjblkkbemmmmmmpppppp",
"ppppppmmmmmmnfebbljdmmmndjennfbgacanmmmmmmpppppp",
"ppppppmmmmmmmekgcbkendejckeeekaahhcmmmmmmmpppppp",
"ppppppmmmmmmmnbhcbclkkbabkcaggaghglmmmmmmmpppppp",
"ppppppmmmmmmmmnlgbcggagakfjbcahhhgemmmmmmmpppppp",
"ppppppmmmmmmmmmfgacaaghgacaaggghggmmmmmmmmpppppp",
"ppppppmmmmmmmmmncgabacaaacbkjlagglmmmmmmmmpppppp",
"ppppppmmmmmmmmmdfhhccccbkjkkklahggaaldmmmmpppppp",
"ppppppmmmmmmmnbgdlhhaacbbblbcahhhoooohfmmmpppppp",
"ppppppmmmmmmeaiohjlhihabbcaghgggo``o``iemmpppppp",
"ppppppmmmmmnaiiioobkhihablbbbccg`o`````gmmpppppp",
"ppppppmmmebhiiooo``abioiablklbao````o``ojmpppppp",
"ppppppmnbiioooooo`o`iaoooigagho`````````gmpppppp",
"ppppppjhiiooo````o``ooio``ooii``````````oepppppp",
"ppppppiiooooo`o`o``````o`ooogg```````````bpppppp",
"ppppppiooo`o`o`o``o``o`o`o`ohc```````````gpppppp",
"ppppppiooo`o````o``o````o`ooici``````````opppppp",
"ppppppoo``o`o`o```o````o````oha```````````pppppp",
"ppppppoo`o``````o````o```oo`o`g```````````pppppp",
"ppppppo`o``o`o````o`````o``o`o````````````pppppp",
"pppppp````````````````````````````````````pppppp"
};
