/* XPM */
static char *noname_xpm[] = {
/* width height ncolors chars_per_pixel */
"48 48 17 1",
/* colors */
"` c black",
"a c grey33",
"b c grey47",
"c c grey40",
"d c grey87",
"e c grey80",
"f c grey73",
"g c grey27",
"h c grey20",
"i c grey13",
"j c grey67",
"k c grey60",
"l c grey53",
"m c white",
"n c grey93",
"o c grey7",
"p s None c None",
/* pixels */
"ppppppgggghgghgghggggghhiiiiihihhihihiiiiipppppp",
"ppppppggghgggggggggggggghhiihihhhhhihihhihpppppp",
"ppppppgghghgghghgggagckkkklghhhhhhhhhhhihhpppppp",
"ppppppggghgghghggggcjdnmmmmmfbhhhhhhhihhhhpppppp",
"ppppppgghhhhggggggaagbemmnfkccghhhhhhhhihipppppp",
"ppppppgghhhghggggio`ilfmmdho``ooohhhhhhhhhpppppp",
"ppppppghhhghgghhi``ihgcjfji``````hgghhhihipppppp",
"ppppppgghhghgggo`````o`oooo``````oaghghhhhpppppp",
"ppppppghhhhggh``````oglllbahio```ihigghhhhpppppp",
"ppppppgghhhhho`````ajeeefkbahoo`````ihghhhpppppp",
"ppppppghhhghh```igkednddefkchoo``````hghhgpppppp",
"pppppphghhhgo``ickfdnnnnefkbgi```````ihhhhpppppp",
"ppppppghhhhho``ibjfeddndejkbaho`o````ogghgpppppp",
"pppppphhhhhh```ibjfeddddfjlcagi```````hhhhpppppp",
"pppppphghhhh```ibjfdndddejlccgo```````hhhhpppppp",
"ppppppghhhhho``hljeeddddejkbcho```````hhhhpppppp",
"pppppphhhhhhi``habljffejjjllcho```````hhghpppppp",
"pppppphhhhhhh`oiggooalkbghihhi````````ihhgpppppp",
"pppppphhhihhhoioo```olkh``igho````````ihhhpppppp",
"pppppphhhihhhoahhahaabloihho``````````ihhhpppppp",
"pppppphhhhhihgbbaaacclciggagiooi``````hhhhpppppp",
"pppppphhhihhhcblkkkbblahgbbcccah`````ohhhhpppppp",
"pppppphhihhhhabkjjjckkaihbkkkbgi`````ihhhhpppppp",
"pppppphhihihhgckfkcallgiocjjkcgo````ohhhhhpppppp",
"pppppphhhhhihgablachhh``oglllah````iohhhhipppppp",
"pppppphiiiiihigaggccgooohgabcgio```oohihihpppppp",
"pppppphihhihhhhghhgcbbcghhggghi``````hihiipppppp",
"pppppphhihiihhhcagohacahiiohahio````iihiihpppppp",
"pppppphiiiihihhabbgihiioo`hcchh`````hhiiiipppppp",
"ppppppihiiiihhhabbcacaghhgclahho```ihihiiipppppp",
"pppppphiihiiihihccbaggggggcbggio```aljciiipppppp",
"pppppphiiiiihihhgcbbcaccagcahgio```bjdlhiipppppp",
"ppppppiiiiiiihiiiablllbbcgghhhi```cfflhiiipppppp",
"pppppphiiiiihihhihcblbbcghiihio`hkddelaiiopppppp",
"ppppppiiiiiiiihiiihcccahioohio`aenmnndnkoipppppp",
"pppppphhiiiihihihiiihhiioiii``bdmmmmmmmnbopppppp",
"ppppppiiiiiiiihihigiioiiiio`okmmmmmmmmmmmjpppppp",
"ppppppiiiiiiiiihigfiiooo```ijmmmmmmmmnmmmmpppppp",
"pppppphiiiiiiihihedgii````hjmmmmmmmmmmmmmmpppppp",
"pppppphiiiiihihhkmnaghiioadmmmmmmmmmmmmmmmpppppp",
"ppppppihiiihalenmmeaggggjnmmmmmmdmmmmmmmmmpppppp",
"pppppphhicfnmmmmmmnaagedjbenmmdfdmmmmmmmmmpppppp",
"pppppphhjmmmmmmmmmmgccejcemdddnmmmmmmmmmmmpppppp",
"ppppppgfmmmmmmmenmmckejbemmmmmmmmmmmmmmmmmpppppp",
"ppppppemmmmmmmndenmfeklemmmmmmmmmmmmmmmmmmpppppp",
"ppppppmmmmmmmmmnddneljnmmmmmmmmmmmmmmmmmmmpppppp",
"ppppppmnmmmmmmmmmnejdnmmmmmmmmmmmmmmmmmmmmpppppp",
"pppppplklkjjffejfjeeffffjfffjfffffffefefffpppppp"
};
