/* XPM */
static char *noname_xpm[] = {
/* width height ncolors chars_per_pixel */
"48 48 17 1",
/* colors */
"` c black",
"a c grey33",
"b c grey47",
"c c grey40",
"d c grey87",
"e c grey80",
"f c grey73",
"g c grey27",
"h c grey20",
"i c grey13",
"j c grey67",
"k c grey60",
"l c grey53",
"m c white",
"n c grey93",
"o c grey7",
"p s None c None",
/* pixels */
"ppppppkbbcbccccbcbcbcbbbbbbbbbbllblllllklkpppppp",
"pppppplbbcccccccccccaaaacbbbbblblllllkllklpppppp",
"pppppplbbcbccbccahoo```oihhclbblllllllllklpppppp",
"pppppplbbccbccago````oo`o``ogcblbllllllllkpppppp",
"ppppppbbccccahi```ooihgghiigihaclllllllkllpppppp",
"ppppppbbcbcah````oohgaacaghigiohcblllllllkpppppp",
"ppppppbcccai`````ihgacbbbahihkkgaglllllklkpppppp",
"ppppppcbcch`````ohaacblkkkkcaajechclllllllpppppp",
"ppppppbccco`````oaacbllkjfffklfmkiblllllllpppppp",
"ppppppbbcg``````haccblkjfffeeffnecglllllklpppppp",
"ppppppccch`````ohaccbkkjfeddeffedjgcllllllpppppp",
"ppppppbcch`````ihaacblkjfedndefjjfbgllllllpppppp",
"ppppppccch`````hgacbclkjfennnnefjklhblllllpppppp",
"ppppppccci````oigcccaggbjennnndfjkloblllllpppppp",
"ppppppccch````oggccao``ohkdnnndejjbocllllbpppppp",
"ppppppccch````igaccgghghihknmndjkkboblllllpppppp",
"ppppppbcgih``oigaaahihckbghkdelhohchllllllpppppp",
"ppppppccgghh``igggggighbbchhccghhiccllllllpppppp",
"ppppppccgaaho`haccg`io`ggcggoogklckkblllllpppppp",
"ppppppbcggiii`hgclaoghgcccgahiiihgllglblblpppppp",
"pppppplbahhhiohgclchcllllaickihhghcahbllllpppppp",
"pppppplbgghghiggablhljjkkhhffhlbcgccibbbblpppppp",
"pppppplbcgghhhggacbbckfjbhljfgkjlcbbgblllbpppppp",
"ppppppbbcaagghgaacbblbblccbjfbbjjbbccbbbllpppppp",
"ppppppccchcghhggccbkfeneccbjdjalfbbcbbblbbpppppp",
"ppppppbccohghhggabbljfelgcacjkklbcbbbbbblbpppppp",
"ppppppcccoihhhhgacblkjfkaghhhcjjlbbbbbbbblpppppp",
"ppppppccahihhhhgacbbkkkkbbbbclkklbbbbbbbbbpppppp",
"ppppppbccihiiihgaccllbbcbblbcblkbbbbbbbbbbpppppp",
"ppppppccaoihiihhaacbbaacccbbbcblbbbbbbbbbbpppppp",
"ppppppcccohiiiihgaaccgggacaghablbccbcbbbbbpppppp",
"ppppppcblcihiiiihggaaacaabbbggbccbbcbbcbbbpppppp",
"pppppplljjlhhiiihhhggggaghhaaaccccccccbbbbpppppp",
"ppppppckjddjgiiiiihhagaaaaaagaaccbccbcccbcpppppp",
"ppppppbljfmnfgiiiiihgaaaccagggccccccccbccbpppppp",
"ppppppbjjjfmmegiiiiihgghgghgaccccccccccbccpppppp",
"ppppppkjffedmmehiiiiiiiiiihgccccccccccccccpppppp",
"ppppppkfffdedmmehiooiioioigcccccccccccccccpppppp",
"ppppppffddddnnmmjhiooooogaccccccccccccccbcpppppp",
"ppppppfefeedndnmmfgiiiihcccccccacacaccccccpppppp",
"ppppppeeeeeddndmmmeghhgaacacacacaccaccccccpppppp",
"ppppppeffeeednddmmmehhgacaccccacacaccaccccpppppp",
"ppppppeeeffeemmdnmmmkgacacacaacacacaccacccpppppp",
"ppppppfeefefeenedmmmnjcacccacacaccacccccccpppppp",
"ppppppfeefffjfeeenmmmeacaaccacaaaacaacccccpppppp",
"ppppppffeeffjffeeemmmjcaacaacaaccacacaccccpppppp",
"ppppppdefefejkfeefnmnbbcacccacaaacacacccccpppppp",
"ppppppjjjfkkkblllljelgggghgggggggggggghgggpppppp"
};
