#define face_width 48
#define face_height 48
static unsigned char face_bits[] = {
 0x00,0x00,0x00,0x00,0x00,0x00,0x00,0x00,0x00,0x3b,0x00,0x00,0x00,0x00,0xf0,
 0xef,0x00,0x00,0x00,0x00,0xfe,0x5a,0x01,0x00,0x00,0x80,0xdb,0xff,0x01,0x00,
 0x00,0x40,0xbf,0xaa,0x06,0x00,0x00,0xe0,0xef,0x5f,0x0b,0x00,0x00,0xa0,0x5d,
 0xd5,0x0d,0x00,0x00,0xf0,0xbe,0xbe,0x16,0x00,0x00,0x50,0xcb,0xea,0x17,0x00,
 0x00,0x50,0x91,0x2d,0x15,0x00,0x00,0xa8,0xb4,0xd6,0x3a,0x00,0x00,0xa0,0x52,
 0xe9,0x2b,0x00,0x00,0x48,0x55,0x5b,0x3d,0x00,0x00,0xa0,0x6a,0x6d,0x15,0x00,
 0x00,0x50,0x55,0x77,0x3f,0x00,0x00,0xa0,0xaa,0xda,0x35,0x00,0x00,0xe0,0xea,
 0x6f,0x2f,0x00,0x00,0xd0,0x5d,0xf5,0x3e,0x00,0x00,0xa0,0xf3,0xbf,0x17,0x00,
 0x00,0xe0,0x9e,0x6a,0x1d,0x00,0x00,0x20,0xf5,0xdb,0x37,0x00,0x00,0xd0,0x9a,
 0x76,0x1d,0x00,0x00,0xa0,0xee,0xda,0x0f,0x00,0x00,0xa0,0xba,0x6e,0x17,0x00,
 0x00,0xd0,0xad,0xf5,0x0d,0x00,0x00,0xa0,0x7e,0x5b,0x0f,0x00,0x00,0x60,0xa5,
 0xed,0x0d,0x00,0x00,0xc0,0x7d,0xb5,0x07,0x00,0x00,0x40,0xd5,0xee,0x0d,0x00,
 0x00,0x80,0x77,0xbb,0x06,0x00,0x00,0x80,0xba,0xed,0x0f,0x00,0x00,0x00,0xad,
 0xb6,0x36,0x00,0x00,0x00,0x55,0xff,0x7f,0x00,0x00,0x00,0xba,0xbb,0x7d,0x00,
 0x00,0x00,0xd6,0xff,0xff,0x00,0x00,0x00,0xf8,0xff,0xff,0x00,0x00,0x00,0xa0,
 0x6a,0xff,0x00,0x00,0x00,0xd0,0xff,0xfd,0x00,0x00,0x00,0xa0,0xdb,0xef,0x00,
 0x00,0x00,0xf0,0xff,0xff,0x00,0x00,0x00,0xfc,0xff,0xff,0x00,0x00,0x00,0xfc,
 0xfe,0xff,0x00,0x00,0x00,0xe0,0xff,0xff,0x00,0x00,0x00,0xf8,0xff,0xff,0x00,
 0x00,0x00,0xfc,0xf7,0xff,0x00,0x00,0x00,0xbf,0xfd,0xdf,0x00,0x00,0x80,0xff,
 0xff,0xff,0x00};
