#define light_text_2_width 178
#define light_text_2_height 92
static char light_text_2_bits[] = {
 0x00,0x00,0x00,0x00,0x00,0x00,0x00,0x00,0x00,0x00,0x00,0x00,0x00,0x00,0x00,
 0x00,0x00,0x00,0x00,0x00,0x00,0x00,0xfc,0x00,0x00,0x00,0x00,0x00,0x00,0x00,
 0x00,0x00,0x00,0x00,0x00,0x00,0x00,0x00,0x00,0x00,0x00,0x00,0x00,0x00,0x00,
 0xfc,0x00,0x00,0x00,0x00,0x00,0x00,0x00,0x00,0x00,0x00,0x00,0x00,0x00,0x00,
 0x00,0x00,0x00,0x00,0x00,0x00,0x00,0x00,0xfc,0x00,0x00,0x00,0x00,0x00,0x00,
 0x00,0x00,0x00,0x00,0x00,0x00,0x00,0x00,0x00,0x00,0x00,0x00,0x00,0x00,0x00,
 0x00,0xfc,0x00,0x00,0x00,0x00,0x00,0x00,0x00,0x00,0x00,0x00,0x00,0x00,0x00,
 0x00,0x00,0x00,0x00,0x00,0x00,0x00,0x00,0x00,0xfc,0x00,0x00,0x00,0x00,0x00,
 0x00,0x00,0x00,0x00,0x00,0x00,0x00,0x00,0x00,0x00,0x00,0x00,0x00,0x00,0x00,
 0x00,0x00,0xfc,0x00,0x00,0x00,0x00,0x00,0x00,0x00,0x00,0x00,0x00,0x00,0x00,
 0x00,0x00,0x00,0x00,0x00,0x00,0x00,0x00,0x00,0x00,0xfc,0x00,0x00,0x00,0x00,
 0x00,0x00,0x00,0x00,0x00,0x00,0x00,0x00,0x00,0x00,0x00,0x00,0x00,0x00,0x00,
 0x00,0x00,0x00,0xfc,0x00,0x00,0x00,0x00,0x00,0x00,0x00,0x00,0x00,0x00,0x00,
 0x00,0x00,0x00,0x00,0x00,0x00,0x00,0x00,0x00,0x00,0x00,0xfc,0x00,0xaa,0xaa,
 0xaa,0xaa,0xaa,0xaa,0xaa,0xaa,0xaa,0xaa,0xaa,0xaa,0xaa,0xaa,0xaa,0xaa,0xaa,
 0xaa,0xaa,0xaa,0x02,0xfc,0x00,0x00,0x00,0x00,0x00,0x00,0x00,0x00,0x00,0x00,
 0x00,0x00,0x00,0x00,0x00,0x00,0x00,0x00,0x00,0x00,0x00,0x00,0xfc,0x00,0x02,
 0x00,0x00,0x00,0x00,0x00,0x00,0x00,0x00,0x00,0x00,0x00,0x00,0x00,0x00,0x00,
 0x00,0x00,0x00,0x00,0x02,0xfc,0x00,0x00,0x00,0x00,0x00,0x00,0x00,0x00,0x00,
 0x00,0x00,0x00,0x00,0x00,0x00,0x00,0x00,0x00,0x00,0x00,0x00,0x00,0xfc,0x00,
 0x02,0x00,0x00,0x00,0x00,0x00,0x00,0x00,0x00,0x00,0x00,0x00,0x00,0x00,0x00,
 0x00,0x00,0x00,0x00,0x00,0x02,0xfc,0x00,0x01,0x00,0x00,0x00,0x00,0x00,0x00,
 0x00,0x00,0x00,0x00,0x00,0x00,0x00,0x00,0x00,0x00,0x00,0x00,0x00,0x01,0xfc,
 0x00,0x02,0x00,0x00,0x00,0x00,0xaa,0x00,0x00,0x80,0x02,0xa0,0xaa,0x00,0x00,
 0x00,0x00,0x00,0x00,0x00,0x00,0x02,0xfc,0x00,0x00,0x00,0x00,0x00,0x00,0x44,
 0x00,0x00,0x00,0x00,0x40,0x44,0x00,0x00,0x40,0x00,0x00,0x00,0x00,0x00,0x00,
 0xfc,0x00,0x02,0x00,0x00,0x00,0x00,0x82,0x02,0x00,0x80,0x02,0x00,0x0a,0x00,
 0x00,0xa0,0x00,0x00,0x00,0x00,0x00,0x02,0xfc,0x00,0x01,0x00,0x00,0x00,0x00,
 0x05,0x05,0x00,0x00,0x01,0x00,0x04,0x00,0x00,0x00,0x00,0x00,0x00,0x00,0x00,
 0x01,0xfc,0x00,0x02,0x00,0x00,0x00,0x00,0x02,0x8a,0x0a,0xa2,0x22,0x00,0x0a,
 0xa0,0x28,0xaa,0x02,0x00,0x00,0x00,0x00,0x02,0xfc,0x00,0x00,0x00,0x00,0x00,
 0x00,0x04,0x44,0x14,0x14,0x10,0x00,0x04,0x54,0x10,0x54,0x00,0x00,0x00,0x00,
 0x00,0x00,0xfc,0x00,0x02,0x00,0x00,0x00,0x00,0x02,0x8a,0x28,0xaa,0x0a,0x00,
 0x0a,0x88,0x22,0xa2,0x00,0x00,0x00,0x00,0x00,0x02,0xfc,0x00,0x01,0x00,0x00,
 0x00,0x00,0x05,0x04,0x14,0x05,0x05,0x00,0x04,0x04,0x41,0x41,0x00,0x00,0x00,
 0x00,0x00,0x01,0xfc,0x00,0x02,0x00,0x00,0x00,0x00,0x02,0x0a,0x2a,0x82,0x0a,
 0x00,0x0a,0xaa,0x82,0xa0,0x00,0x00,0x00,0x00,0x00,0x02,0xfc,0x00,0x03,0x00,
 0x00,0x00,0x00,0x07,0x06,0x13,0x07,0x17,0x00,0x06,0x56,0x43,0x43,0x00,0x00,
 0x00,0x00,0x00,0x03,0xfc,0x00,0x02,0x00,0x00,0x00,0x00,0x02,0x82,0x28,0x82,
 0x2a,0x00,0x0a,0x0a,0x20,0xa2,0x00,0x00,0x00,0x00,0x00,0x02,0xfc,0x00,0x01,
 0x00,0x00,0x00,0x00,0x05,0x45,0x19,0x05,0x51,0x00,0x0c,0x1c,0x51,0x45,0x00,
 0x00,0x00,0x00,0x00,0x01,0xfc,0x00,0x02,0x00,0x00,0x00,0x00,0xaa,0x82,0x2a,
 0x82,0xa2,0x00,0x0a,0xa8,0x2a,0xaa,0x02,0x00,0x00,0x00,0x00,0x02,0xfc,0x00,
 0x03,0x00,0x00,0x00,0x00,0x77,0x00,0x33,0x07,0x63,0x00,0x06,0x70,0x30,0x46,
 0x03,0x00,0x00,0x00,0x00,0x03,0xfc,0x00,0x02,0x00,0x00,0x00,0x00,0x00,0x00,
 0x00,0x00,0x00,0x00,0x00,0x00,0x00,0x00,0x00,0x00,0x00,0x00,0x00,0x02,0xfc,
 0x00,0x01,0x00,0x00,0x00,0x00,0x00,0x00,0x00,0x00,0x00,0x00,0x00,0x00,0x00,
 0x00,0x00,0x00,0x00,0x00,0x00,0x01,0xfc,0x00,0x02,0x00,0x00,0x00,0x00,0x00,
 0x00,0x00,0x00,0x00,0x00,0x00,0x00,0x00,0x00,0x00,0x00,0x00,0x00,0x00,0x02,
 0xfc,0x00,0x03,0x00,0x00,0x00,0x00,0x00,0x00,0x00,0x00,0x00,0x00,0x00,0x00,
 0x00,0x00,0x00,0x00,0x00,0x00,0x00,0x03,0xfc,0x00,0x02,0x00,0x00,0x00,0x00,
 0x00,0x00,0x00,0x00,0x00,0x00,0x00,0x00,0x00,0x00,0x00,0x00,0x00,0x00,0x00,
 0x02,0xfc,0x00,0x03,0x00,0x00,0x00,0x00,0x00,0x00,0x00,0x00,0x00,0x00,0x00,
 0x00,0x00,0x00,0x00,0x00,0x00,0x00,0x00,0x03,0xfc,0x00,0x02,0x00,0x00,0x00,
 0x00,0x00,0x00,0x00,0x00,0x00,0x00,0x00,0x00,0x00,0x00,0x00,0x00,0x00,0x00,
 0x00,0x02,0xfc,0x00,0xff,0xff,0xff,0xff,0xff,0xff,0xff,0xff,0xff,0xff,0xff,
 0xff,0xff,0xff,0xff,0xff,0xff,0xff,0xff,0xff,0x03,0xfc,0x00,0xee,0xee,0xee,
 0xee,0xee,0xee,0xee,0xee,0xee,0xee,0xee,0xee,0xee,0xee,0xee,0xee,0xee,0xee,
 0xee,0xee,0x02,0xfc,0x00,0x00,0x00,0x00,0x00,0x00,0x00,0x00,0x00,0x00,0x00,
 0x00,0x00,0x00,0x00,0x00,0x00,0x00,0x00,0x00,0x00,0x00,0xfc,0x00,0x00,0x00,
 0x00,0x00,0x00,0x00,0x00,0x00,0x00,0x00,0x00,0x00,0x00,0x00,0x00,0x00,0x00,
 0x00,0x00,0x00,0x00,0xfc,0x00,0x00,0x00,0x00,0x00,0x00,0x00,0x00,0x00,0x00,
 0x00,0x00,0x00,0x00,0x00,0x00,0x00,0x00,0x00,0x00,0x00,0x00,0xfc,0x00,0x00,
 0x00,0x00,0x00,0x00,0x00,0x00,0x00,0x00,0x00,0x00,0x00,0x00,0x00,0x00,0x00,
 0x00,0x00,0x00,0x00,0x00,0xfc,0x00,0x00,0x00,0x00,0x00,0x00,0x00,0x00,0x00,
 0x00,0x00,0x00,0x00,0x00,0x00,0x00,0x00,0x00,0x00,0x00,0x00,0x00,0xfc,0x00,
 0x00,0x00,0x00,0x00,0x00,0x00,0x00,0x00,0x00,0x00,0x00,0x00,0x00,0x00,0x00,
 0x00,0x00,0x00,0x00,0x00,0x00,0xfc,0x00,0x00,0x00,0x00,0x00,0x00,0x00,0x00,
 0x00,0x00,0x00,0x00,0x00,0x00,0x00,0x00,0x00,0x00,0x00,0x00,0x00,0x00,0xfc,
 0x00,0x00,0x00,0x00,0x00,0x00,0x00,0x00,0x00,0x00,0x00,0x00,0x00,0x00,0x00,
 0x00,0x00,0x00,0x00,0x00,0x00,0x00,0xfc,0x00,0x00,0x00,0x00,0x00,0x00,0x00,
 0x00,0x00,0x00,0x00,0x00,0x00,0x00,0x00,0x00,0x00,0x00,0x00,0x00,0x00,0x00,
 0xfc,0x00,0x00,0x00,0x00,0x00,0x00,0x00,0x00,0x00,0x00,0x00,0x00,0x00,0x00,
 0x00,0x00,0x00,0x00,0x00,0x00,0x00,0x00,0xfc,0x00,0x00,0x00,0x00,0x00,0x00,
 0x00,0x00,0x00,0x00,0x00,0x00,0x00,0x00,0x00,0x00,0x00,0x00,0x00,0x00,0x00,
 0x00,0xfc,0x00,0x00,0x00,0x00,0x00,0x00,0x00,0x00,0x00,0x00,0x00,0x00,0x00,
 0x00,0x00,0x00,0x00,0x00,0x00,0x00,0x00,0x00,0xfc,0x00,0x00,0x00,0x00,0x00,
 0x00,0x00,0x00,0x00,0x00,0x00,0x00,0x00,0x00,0x00,0x00,0x00,0x00,0x00,0x00,
 0x00,0x00,0xfc,0x00,0x00,0x00,0x00,0x00,0x00,0x00,0x00,0x00,0x00,0x00,0x00,
 0x00,0x00,0x00,0x00,0x00,0x00,0x00,0x00,0x00,0x00,0xfc,0x00,0x00,0x00,0x00,
 0x00,0x00,0x00,0x00,0x00,0x00,0x00,0x00,0x00,0x00,0x00,0x00,0x00,0x00,0x00,
 0x00,0x00,0x00,0xfc,0x00,0x00,0x00,0x00,0x00,0x00,0x00,0x00,0x00,0x00,0x00,
 0x00,0x00,0x00,0x00,0x00,0x00,0x00,0x00,0x00,0x00,0x00,0xfc,0x00,0x00,0x00,
 0x00,0x00,0x00,0x00,0x00,0x00,0x00,0x00,0x00,0x00,0x00,0x00,0x00,0x00,0x00,
 0x00,0x00,0x00,0x00,0xfc,0x00,0x00,0x00,0x00,0x00,0x00,0x00,0x00,0x00,0x00,
 0x00,0x00,0x00,0x00,0x00,0x00,0x00,0x00,0x00,0x00,0x00,0x00,0xfc,0x00,0x00,
 0x00,0x00,0x00,0x00,0x00,0x00,0x00,0x00,0x00,0x00,0x00,0x00,0x00,0x00,0x00,
 0x00,0x00,0x00,0x00,0x00,0xfc,0x00,0xa8,0xaa,0xaa,0xaa,0xaa,0xaa,0xaa,0xaa,
 0xaa,0xaa,0xaa,0xaa,0xaa,0xaa,0xaa,0xaa,0xaa,0xaa,0xaa,0xaa,0x00,0xfc,0x00,
 0x40,0x44,0x40,0x44,0x40,0x44,0x40,0x44,0x40,0x44,0x40,0x44,0x40,0x44,0x40,
 0x44,0x40,0x44,0x40,0x44,0x00,0xfc,0x00,0xa8,0xaa,0xaa,0xaa,0xaa,0xaa,0xaa,
 0xaa,0xaa,0xaa,0xaa,0xaa,0xaa,0xaa,0xaa,0xaa,0xaa,0xaa,0xaa,0xaa,0x00,0xfc,
 0x00,0x00,0x00,0x01,0x00,0x01,0x00,0x01,0x00,0x01,0x00,0x01,0x00,0x01,0x00,
 0x01,0x00,0x01,0x00,0x01,0x00,0x00,0xfc,0x00,0xa8,0xaa,0xaa,0xaa,0x2a,0xaa,
 0xa0,0xaa,0xa2,0xaa,0x2a,0x00,0xa8,0xaa,0xaa,0xaa,0xaa,0xaa,0xaa,0xaa,0x00,
 0xfc,0x00,0x44,0x44,0x44,0x44,0x04,0x44,0x40,0x44,0x40,0x04,0x44,0x00,0x44,
 0x44,0x44,0x44,0x44,0x44,0x44,0x44,0x00,0xfc,0x00,0xa8,0xaa,0xaa,0xaa,0x2a,
 0xaa,0xaa,0xaa,0xa2,0x0a,0xaa,0x82,0xaa,0xaa,0x2a,0xa8,0xaa,0xaa,0xaa,0xaa,
 0x00,0xfc,0x00,0x14,0x15,0x15,0x15,0x15,0x14,0x15,0x15,0x01,0x15,0x15,0x05,
 0x15,0x15,0x15,0x14,0x15,0x15,0x15,0x15,0x00,0xfc,0x00,0xa8,0xaa,0xaa,0xaa,
 0x2a,0xaa,0xa0,0x00,0x22,0x08,0xa8,0x82,0x2a,0x08,0x02,0xa0,0xaa,0xaa,0xaa,
 0xaa,0x00,0xfc,0x00,0x54,0x54,0x54,0x54,0x14,0x54,0x50,0x00,0x00,0x00,0x54,
 0x44,0x04,0x10,0x04,0x50,0x54,0x54,0x54,0x54,0x00,0xfc,0x00,0xa8,0xaa,0xaa,
 0xaa,0x2a,0xaa,0x20,0x08,0x82,0x08,0xaa,0x82,0x8a,0x20,0x22,0xa8,0xaa,0xaa,
 0xaa,0xaa,0x00,0xfc,0x00,0x54,0x55,0x55,0x55,0x15,0x54,0x11,0x14,0x41,0x10,
 0x55,0x45,0x45,0x51,0x50,0x54,0x55,0x55,0x55,0x55,0x00,0xfc,0x00,0xa8,0xaa,
 0xaa,0xaa,0x2a,0xaa,0x20,0x0a,0xa2,0x08,0xaa,0x82,0x02,0xa0,0x28,0xa8,0xaa,
 0xaa,0xaa,0xaa,0x00,0xfc,0x00,0x54,0x57,0x57,0x57,0x17,0x56,0x11,0x16,0x43,
 0x10,0x57,0x47,0x07,0x50,0x50,0x54,0x57,0x57,0x57,0x57,0x00,0xfc,0x00,0xa8,
 0xaa,0xaa,0xaa,0x2a,0xaa,0x20,0x0a,0xa2,0x08,0xaa,0x82,0x82,0x2a,0x22,0xa8,
 0xaa,0xaa,0xaa,0xaa,0x00,0xfc,0x00,0x5c,0x5d,0x5d,0x5d,0x1d,0x5c,0x51,0x0c,
 0x41,0x18,0x5d,0x45,0x0d,0x11,0x40,0x5c,0x5d,0x5d,0x5d,0x5d,0x00,0xfc,0x00,
 0xa8,0xaa,0xaa,0xaa,0x2a,0x80,0x20,0x00,0xa2,0x08,0xa8,0x82,0x0a,0x00,0x02,
 0xa0,0xaa,0xaa,0xaa,0xaa,0x00,0xfc,0x00,0x74,0x77,0x77,0x77,0x37,0x00,0x71,
 0x10,0x63,0x30,0x74,0x47,0x37,0x14,0x47,0x70,0x77,0x77,0x77,0x77,0x00,0xfc,
 0x00,0xa8,0xaa,0xaa,0xaa,0xaa,0xaa,0xaa,0x0a,0xaa,0xaa,0xaa,0xaa,0xaa,0xaa,
 0xaa,0xaa,0xaa,0xaa,0xaa,0xaa,0x00,0xfc,0x00,0xfc,0xff,0xfd,0xff,0xfd,0xff,
 0x7d,0x8c,0xfd,0xff,0xfd,0xff,0xfd,0xff,0xfd,0xff,0xfd,0xff,0xfd,0xff,0x00,
 0xfc,0x00,0xa8,0xaa,0xaa,0xaa,0xaa,0xaa,0x2a,0x80,0xaa,0xaa,0xaa,0xaa,0xaa,
 0xaa,0xaa,0xaa,0xaa,0xaa,0xaa,0xaa,0x00,0xfc,0x00,0x74,0xf7,0x77,0xf7,0x77,
 0xf7,0x77,0xe1,0x77,0xf7,0x77,0xf7,0x77,0xf7,0x77,0xf7,0x77,0xf7,0x77,0xf7,
 0x00,0xfc,0x00,0xa8,0xaa,0xaa,0xaa,0xaa,0xaa,0xaa,0xaa,0xaa,0xaa,0xaa,0xaa,
 0xaa,0xaa,0xaa,0xaa,0xaa,0xaa,0xaa,0xaa,0x00,0xfc,0x00,0xfc,0xff,0xff,0xff,
 0xff,0xff,0xff,0xff,0xff,0xff,0xff,0xff,0xff,0xff,0xff,0xff,0xff,0xff,0xff,
 0xff,0x00,0xfc,0x00,0xa8,0xaa,0xaa,0xaa,0xaa,0xaa,0xaa,0xaa,0xaa,0xaa,0xaa,
 0xaa,0xaa,0xaa,0xaa,0xaa,0xaa,0xaa,0xaa,0xaa,0x00,0xfc,0x00,0x00,0x00,0x00,
 0x00,0x00,0x00,0x00,0x00,0x00,0x00,0x00,0x00,0x00,0x00,0x00,0x00,0x00,0x00,
 0x00,0x00,0x00,0xfc,0x00,0x00,0x00,0x00,0x00,0x00,0x00,0x00,0x00,0x00,0x00,
 0x00,0x00,0x00,0x00,0x00,0x00,0x00,0x00,0x00,0x00,0x00,0xfc,0x00,0x00,0x00,
 0x00,0x00,0x00,0x00,0x00,0x00,0x00,0x00,0x00,0x00,0x00,0x00,0x00,0x00,0x00,
 0x00,0x00,0x00,0x00,0xfc,0x00,0x00,0x00,0x00,0x00,0x00,0x00,0x00,0x00,0x00,
 0x00,0x00,0x00,0x00,0x00,0x00,0x00,0x00,0x00,0x00,0x00,0x00,0xfc,0x00,0x00,
 0x00,0x00,0x00,0x00,0x00,0x00,0x00,0x00,0x00,0x00,0x00,0x00,0x00,0x00,0x00,
 0x00,0x00,0x00,0x00,0x00,0xfc,0x00,0x00,0x00,0x00,0x00,0x00,0x00,0x00,0x00,
 0x00,0x00,0x00,0x00,0x00,0x00,0x00,0x00,0x00,0x00,0x00,0x00,0x00,0xfc,0x00,
 0x00,0x00,0x00,0x00,0x00,0x00,0x00,0x00,0x00,0x00,0x00,0x00,0x00,0x00,0x00,
 0x00,0x00,0x00,0x00,0x00,0x00,0xfc,0x00,0x00,0x00,0x00,0x00,0x00,0x00,0x00,
 0x00,0x00,0x00,0x00,0x00,0x00,0x00,0x00,0x00,0x00,0x00,0x00,0x00,0x00,0xfc,
 0x00,0x00,0x00,0x00,0x00,0x00,0x00,0x00,0x00,0x00,0x00,0x00,0x00,0x00,0x00,
 0x00,0x00,0x00,0x00,0x00,0x00,0x00,0xfc,0x00,0x00,0x00,0x00,0x00,0x00,0x00,
 0x00,0x00,0x00,0x00,0x00,0x00,0x00,0x00,0x00,0x00,0x00,0x00,0x00,0x00,0x00,
 0xfc};
