#define noname_width 48
#define noname_height 48
static char noname_bits[] = {
 0x00,0x94,0x00,0x08,0x10,0x00,0x00,0x22,0x02,0x02,0x04,0x01,0x00,0x54,0x91,
 0x48,0x91,0x00,0x80,0x12,0x55,0x02,0x08,0x00,0x00,0xa4,0xff,0x15,0xa1,0x00,
 0x00,0xd5,0xbe,0x2b,0x0a,0x01,0x00,0xf4,0xf7,0x5f,0x10,0x00,0x80,0xfa,0xff,
 0x7f,0x45,0x01,0x00,0xfe,0xff,0xff,0x12,0x00,0x00,0xfd,0xff,0xff,0x45,0x01,
 0x00,0xfe,0xbf,0xff,0x0b,0x00,0x40,0xff,0x57,0xf5,0x57,0x01,0x00,0xff,0x4a,
 0xf9,0x0b,0x00,0x00,0xff,0x05,0xe8,0x4b,0x01,0x80,0x7f,0x02,0xd0,0x97,0x00,
 0x80,0xbf,0x09,0x80,0x25,0x01,0x80,0xff,0x00,0xa0,0x17,0x00,0xc0,0x7f,0x05,
 0x00,0x4f,0x01,0xc0,0xff,0x2a,0xd0,0x93,0x00,0xc0,0x7f,0xd7,0xbd,0x27,0x01,
 0xc0,0xff,0x7f,0x55,0x97,0x00,0xc0,0xff,0xdd,0xfa,0x2d,0x01,0xc0,0xbf,0xaf,
 0x54,0x45,0x02,0x80,0xfb,0xaa,0xa9,0x2e,0x01,0xc0,0x5f,0x55,0x94,0x51,0x02,
 0xc0,0xeb,0x96,0xa1,0x2a,0x01,0xc0,0xbb,0x40,0x0d,0x45,0x02,0xc0,0x6f,0x93,
 0xb7,0x54,0x01,0xc0,0xff,0x2a,0x68,0x95,0x00,0xc0,0xbf,0xeb,0x95,0xaa,0x02,
 0xc0,0xef,0xaa,0xa8,0x52,0x00,0xc0,0xdf,0x47,0x44,0x95,0x02,0xc0,0x7f,0x95,
 0x52,0x55,0x01,0x80,0xaf,0x2f,0xa9,0xaa,0x00,0x80,0xdf,0x5b,0x54,0x55,0x01,
 0x80,0x36,0x7e,0xa9,0x4a,0x02,0x80,0xd5,0xef,0x57,0x55,0x01,0x80,0x3b,0xfa,
 0x5e,0x55,0x01,0xc0,0x57,0xfd,0x53,0x55,0x01,0x40,0xad,0xea,0xaf,0x2a,0x01,
 0xc0,0x5b,0x5d,0xad,0xaa,0x02,0x80,0xee,0xe2,0x5b,0x55,0x01,0x40,0x5b,0xaa,
 0xae,0xaa,0x02,0x80,0xaf,0xd5,0x5a,0x2b,0x01,0x40,0x75,0x95,0x56,0x55,0x01,
 0x40,0xaf,0x6d,0xac,0xaa,0x02,0xc0,0xfe,0xb7,0x76,0x55,0x02,0x80,0xf5,0xdf,
 0xdd,0xae,0x01};
