#define face_width 48
#define face_height 48
static char face_bits[] = {
   0x00, 0x00, 0xda, 0x56, 0x00, 0x00, 0x00, 0x80, 0xfe, 0xbf, 0x00, 0x00,
   0x00, 0x80, 0xff, 0x7f, 0x03, 0x00, 0x00, 0xe0, 0xff, 0xff, 0x17, 0x00,
   0x00, 0xf0, 0xff, 0xff, 0x1f, 0x00, 0x00, 0xf0, 0xff, 0xf7, 0x3f, 0x00,
   0x00, 0xf8, 0xff, 0xff, 0x3f, 0x00, 0x00, 0xf8, 0xd7, 0xfe, 0x7f, 0x00,
   0x00, 0xfc, 0x5d, 0xdb, 0xbf, 0x00, 0x00, 0x7c, 0x23, 0xaa, 0x7a, 0x00,
   0x00, 0x7c, 0x94, 0xd4, 0x7f, 0x00, 0x00, 0xf8, 0x4a, 0x52, 0xf5, 0x00,
   0x00, 0x1e, 0x91, 0xa4, 0xfe, 0x00, 0x00, 0x7c, 0x4a, 0x92, 0xea, 0x00,
   0x00, 0xaf, 0xa4, 0xa4, 0xf6, 0x01, 0x00, 0x3c, 0x12, 0x4a, 0xda, 0x02,
   0x00, 0x4f, 0xc9, 0x28, 0xd5, 0x01, 0x00, 0xbe, 0x24, 0x8a, 0xaa, 0x03,
   0x00, 0x0b, 0x49, 0x51, 0xd5, 0x03, 0x00, 0xd6, 0x7e, 0xed, 0xaf, 0x02,
   0x00, 0xaf, 0xd6, 0xfa, 0xd5, 0x03, 0x00, 0x95, 0x7d, 0x7d, 0xb7, 0x03,
   0x00, 0x6f, 0xff, 0xeb, 0x6d, 0x03, 0x00, 0xbb, 0x6a, 0xfd, 0xdf, 0x07,
   0x80, 0xae, 0xbf, 0x7a, 0xab, 0x0a, 0x00, 0xab, 0xea, 0xed, 0x6b, 0x07,
   0xc0, 0xaa, 0xba, 0x5a, 0xd5, 0x0a, 0x00, 0x15, 0xd5, 0xea, 0xaa, 0x05,
   0x40, 0xab, 0xaa, 0xda, 0x55, 0x03, 0x00, 0x55, 0xaa, 0x6a, 0xaa, 0x07,
   0x80, 0xaa, 0xaa, 0xdd, 0x6a, 0x01, 0x00, 0x55, 0xa9, 0x5e, 0xd5, 0x02,
   0x00, 0x54, 0xd5, 0xb7, 0xaa, 0x01, 0x00, 0xa8, 0x4a, 0x6a, 0x5b, 0x00,
   0x00, 0xa8, 0xaa, 0xdd, 0x6a, 0x00, 0x00, 0x50, 0x55, 0x7f, 0x2d, 0x00,
   0x00, 0x40, 0xf5, 0xed, 0x1a, 0x00, 0x00, 0x40, 0x55, 0xbf, 0x2d, 0x00,
   0x00, 0xc0, 0xea, 0x7d, 0x0b, 0x00, 0x00, 0x40, 0x5b, 0xd7, 0x16, 0x00,
   0x00, 0x40, 0xb5, 0xae, 0x1d, 0x00, 0x00, 0x80, 0xd5, 0x52, 0x0d, 0x00,
   0x00, 0x60, 0xab, 0x6a, 0x3f, 0x00, 0x00, 0xd0, 0xbd, 0xb6, 0x1b, 0x00,
   0x00, 0x68, 0xd5, 0xda, 0x7e, 0x00, 0x00, 0xf4, 0xfa, 0xff, 0x7d, 0x00,
   0x80, 0xfa, 0xb7, 0xdf, 0x7e, 0x01, 0x00, 0xff, 0xe9, 0xbf, 0xff, 0x17};
