#define lwm_width 48
#define lwm_height 48
static char lwm_bits[] = {
   0x55, 0x55, 0x55, 0x55, 0x55, 0x55, 0xaa, 0xaa, 0xaa, 0xaa, 0xaa, 0xaa,
   0x55, 0x55, 0xfd, 0x55, 0x55, 0x55, 0xaa, 0xaa, 0xfe, 0xbf, 0xaa, 0xaa,
   0x55, 0xd5, 0xff, 0xff, 0x55, 0x55, 0xaa, 0xea, 0xff, 0xff, 0xab, 0xaa,
   0x55, 0xf5, 0xff, 0xeb, 0x57, 0x55, 0xaa, 0xfa, 0x7f, 0x95, 0xae, 0xaa,
   0x55, 0xfd, 0x5f, 0x20, 0x5d, 0x55, 0xaa, 0xfe, 0x5f, 0x45, 0xba, 0xaa,
   0x55, 0xfd, 0x2f, 0x00, 0x7c, 0x55, 0xaa, 0xfe, 0x17, 0x00, 0xf2, 0xaa,
   0x55, 0xff, 0x56, 0x00, 0x74, 0x55, 0xaa, 0xfe, 0x15, 0x00, 0xf0, 0xaa,
   0x55, 0xdf, 0x0b, 0x00, 0x75, 0x55, 0xaa, 0xfe, 0xa5, 0x00, 0xe8, 0xaa,
   0x55, 0xff, 0x16, 0x00, 0x74, 0x55, 0xaa, 0xfe, 0xab, 0xa5, 0xeb, 0xaa,
   0x55, 0x7f, 0xdd, 0x42, 0x75, 0x55, 0xaa, 0xfe, 0xf7, 0xcd, 0xa7, 0xaa,
   0x55, 0x77, 0x2d, 0xa2, 0x74, 0x55, 0xaa, 0xfe, 0xaa, 0x0c, 0xa4, 0xaa,
   0x55, 0xeb, 0x01, 0xa2, 0x50, 0x55, 0xaa, 0xfe, 0x56, 0x0c, 0xb4, 0xaa,
   0x55, 0x6d, 0x05, 0x25, 0x51, 0x55, 0xaa, 0xf6, 0x2b, 0x4a, 0xa8, 0xaa,
   0x55, 0xdd, 0x86, 0x45, 0x51, 0x55, 0xaa, 0xfa, 0x55, 0xff, 0xac, 0xaa,
   0x55, 0xf5, 0xaf, 0xdf, 0x55, 0x55, 0xaa, 0xfa, 0xeb, 0xef, 0xb7, 0xaa,
   0x55, 0xf5, 0xfe, 0xfb, 0x5b, 0x55, 0xaa, 0xea, 0xef, 0x86, 0xae, 0xaa,
   0x55, 0xd5, 0xbb, 0xaa, 0x5b, 0x55, 0xaa, 0xea, 0xff, 0xb6, 0xae, 0xaa,
   0x55, 0xd5, 0x6f, 0x7f, 0x5f, 0x55, 0xaa, 0xaa, 0xff, 0xdd, 0xab, 0xaa,
   0x55, 0xd5, 0xff, 0xff, 0x57, 0x55, 0xaa, 0xaa, 0xfd, 0xff, 0xab, 0xaa,
   0x55, 0x55, 0xff, 0xff, 0x55, 0x55, 0xaa, 0xea, 0xed, 0xff, 0xaa, 0xaa,
   0x55, 0x55, 0xff, 0x7f, 0x55, 0x55, 0xaa, 0xca, 0x75, 0xaf, 0xaa, 0xaa,
   0x55, 0x27, 0xdb, 0x7d, 0x55, 0x55, 0xaa, 0x4a, 0x76, 0xef, 0xaa, 0xaa,
   0xd5, 0x15, 0xda, 0x95, 0x55, 0x55, 0xba, 0x6a, 0x68, 0x3d, 0xaa, 0xaa,
   0xd7, 0x57, 0xa0, 0xdb, 0x56, 0x55, 0xaa, 0xba, 0xca, 0xbe, 0xac, 0xaa};
