/* XPM */
static char *noname_xpm[] = {
/* width height ncolors chars_per_pixel */
"48 48 17 1",
/* colors */
"` c black",
"a c grey33",
"b c grey47",
"c c grey40",
"d c grey87",
"e c grey80",
"f c grey73",
"g c grey27",
"h c grey20",
"i c grey13",
"j c grey67",
"k c grey60",
"l c grey53",
"m c white",
"n c grey93",
"o c grey7",
"p s None c None",
/* pixels */
"pppeddejjfddddefenddekbkjfedndnddefjfdnmnnnnpppp",
"pppeddejjjdddeefeddddklkjffddnnddefkfdnnnnnnpppp",
"pppeddefkfeddeeeenddfjllkjfeddnddejkfdnnndnnpppp",
"pppeddejkfeddeefefjjkbbcbbcljjeeefjkjdnndnnnpppp",
"pppeddefkfeddeeejlbllllllbccclffefjlfdnnnnnnpppp",
"pppeddejkfeddefkbbbblllklbaigcljffjkjdnnnnnnpppp",
"pppeddejkfeddfbcccccbcbcccccgablkejkfennnnnnpppp",
"pppdddefkjedebccbcccbbcbbllccabbljjkjdnnnnnnpppp",
"pppeddejkjeelgaaagbbbbblllcccallkjklfddnndnnpppp",
"pppddddjjjefcggaghabcccllbccbcbbkjkbjennnnnnpppp",
"pppeddejkjfaggaaaacccbblllllllkklklckdnnnnnnpppp",
"pppeddejjjjaaaaggaacccbljkkkkkkjjllbldnndnnnpppp",
"pppeddejkjlaggggagaccblkjjffkejekklckennndnnpppp",
"pppeddejjkaghgaacccbbbkjjfdejeeekkkbjenndnndpppp",
"pppeddefklghhgagcaaccbkjjendjedfjkklkenndnnnpppp",
"pppeeeejjbahggagahaaclkffnnnfjekkklllennndnnpppp",
"pppeedejkcahhagaagacljjedmndfjjklklbbfnndnndpppp",
"pppeedeflagihghgggabljjdndejkbklbllbbkdnddnnpppp",
"pppeedejbggihgacbbllkddmneeffkbccacbbldddnndpppp",
"pppeeeejbagoigkjjkjefemmddeenmdjjigcbbedddndpppp",
"pppeedejbaiobkjcaockkfmmdfaialndeiaabbjdddndpppp",
"pppeeeeklgiikjkblckkkfnndjcglbjneggablkddnddpppp",
"pppeedfjlhigjedddeefkfddnejfddddebgcbbjeddddpppp",
"pppefdfkbhocfdnnnnneffddnndddnnnekhabljeddddpppp",
"pppfeejlciocfenmmmmdfenndmnnnnmndligbbfeedddpppp",
"pppfeeklai`hjenmmmnfffnndnmnmmmnebogcljeedddpppp",
"pppfefkbai`hjenmmnljfenmndfnmmmneh`hclffedddpppp",
"pppfffkbgo`ijfdnnebfkkedeeejdmmde``iabjeededpppp",
"pppffjkbho`ijfddejffjffdnnmkenddj``hgbjfeedepppp",
"pppffjkch``ijjeeffedddnmmdnejdddk``habkjeddepppp",
"pppjfklah``ijjeefkjeeddnndddjfdecooicbkffedepppp",
"pppjfllcio``jfdndgkfeeededjkeeddh``hcbkjfeeepppp",
"pppjjklchi``kjdmndlfnmmmmdkfdndehoohbbljfeddpppp",
"pppjjklbai``gjfmddfjfdeejfdnnndlghiglllkfeeepppp",
"pppjjkklci```ljddefedednnddnndeghggckkkkfeeepppp",
"pppjkjllcg```okjdefeeddnndnnnecohahckkkkjeeepppp",
"pppjjfjkbao```hkfeededdnnmnneb`oghglkkkkjefepppp",
"pppjeejkkbo````bkfedddnnmnnefgooihglkkkkjfeepppp",
"pppjfejkkbo````ckkfddddnnndfjgoohhablkkljjffpppp",
"pppjfffkkbi````alkkjeddnddfekhoiihablkjlkjffpppp",
"pppjfjjklbioo``glkkkkjfffedfkhiohiccbkkkkjjfpppp",
"pppjfjjlkbgoh``hlkjkjfjfdnnflghhggbllkjkkjffpppp",
"pppjjkjllbahghihbljfennnnnnjaahggallkljkjjfepppp",
"pppkjkjkkbcghhihckkfeedndndkgghhgcbkkkjkkffepppp",
"pppkkjjkklbaghihclkjffeeddechghigcblkkjkjjffpppp",
"pppklkfjjkbcghihabkjffeedefaihiihbbkkkjkjfffpppp",
"pppbljjfjkbbghhacblffffeeekhoiiigblkkkjkjfjfpppp",
"pppcljffjjlbggaccbljeeeedelh`hoiglbljjkjkfjjpppp"
};
