/* XPM */
static char *noname_xpm[] = {
/* width height ncolors chars_per_pixel */
"48 48 17 1",
/* colors */
"` c black",
"a c grey33",
"b c grey47",
"c c grey40",
"d c grey87",
"e c grey80",
"f c grey73",
"g c grey27",
"h c grey20",
"i c grey13",
"j c grey67",
"k c grey60",
"l c grey53",
"m c white",
"n c grey93",
"o c grey7",
"p s None c None",
/* pixels */
"ppppppbbbbbbbbbbbbbbcccacacccccccccaccacccpppppp",
"ppppppbbbbbbbbcbbcbbbcbbblllbccccccccaccacpppppp",
"ppppppbbbbbbbbbbbbcakablccaacbccccccccacacpppppp",
"ppppppcbcbbbbcbbcbgigcbghii`ggaaccccacccccpppppp",
"ppppppbbbccbcbbcagiiiio``oooiiihcccccacaccpppppp",
"ppppppbbbbbbbbah`oiio`````oiio`iggccacacccpppppp",
"ppppppbcbbbcbai``iio``````o`````o`gcccccccpppppp",
"ppppppbbbbbbbi``hghoo`o``````o````haccccccpppppp",
"ppppppbccbcba``hlllbagghii```oio```iccccccpppppp",
"ppppppcbcbbah`ibkjfeeflcbcagiihio```acccccpppppp",
"ppppppcbcbcio`akjeeendfeefjkccggi```occcccpppppp",
"ppppppbbcba``obkfedmmmnndeejlcagi````gccccpppppp",
"ppppppccbch``ibkfdnmmmmmmnefkccgi````hccccpppppp",
"ppppppbbcbi``ickfemmmmmmmdejlbcgi````occbcpppppp",
"ppppppcccco``ockfennmmmmneejlbcho````occcbpppppp",
"ppppppbcbco``iakfddnnnnndefjklcho````obcbcpppppp",
"ppppppcbcco``icjfeddnddndefjlbcio`````ccccpppppp",
"ppppppcccci``hcllkenmddndefklbaio`````gcbcpppppp",
"ppppppbcccg``ggooohlednnfkcghghoo`````gcccpppppp",
"ppppppcbcch``giacahaljjkbh``o``oo`````hbccpppppp",
"ppppppccccg``agcaahhcjkcgohaaho`i`````hcbcpppppp",
"ppppppccccch`cchioigcfecihio`iioio````ccccpppppp",
"ppppppccccccgclljklkkefccllagihhio```oacccpppppp",
"ppppppccccccablklkkfjfjcblblbaggho``ohccccpppppp",
"ppppppccccclcckjjjffjjkcbklbbbagio`ihhacccpppppp",
"ppppppcccccbackjjeefkjkabjkkllcaioihhiaccapppppp",
"ppppppcccacbcckfeekkkfkaaljjklcgioihhogcccpppppp",
"ppppppaccccbbckjjlblblaggckfjkcgi`ihi`iaccpppppp",
"ppppppccacacbablklkgiho`iakkkbgioohho`gcacpppppp",
"ppppppcccacaahgbbbg`oghooabbbahoo`hh`iaacapppppp",
"ppppppcaaaccaghahoo``ooo``hgahoi``o``oaacapppppp",
"ppppppacacacagai``````o````ooiiio````oaacapppppp",
"ppppppcaacacagc````oglco`````ohi`````hacaapppppp",
"ppppppacaaaccgahihhgcbbho``ohogo````iaaaaapppppp",
"ppppppaaacaaagggabccllbahihghoh``ooohaacaapppppp",
"ppppppcacaacaaigcccaccagihgaioo``ihogaaaaapppppp",
"ppppppaaaacaaaghacbbbcagghgh`````aaooacaaapppppp",
"ppppppcaaaaacaahgabljklcahho````ibch`hcaaapppppp",
"ppppppacaaaaaaaghgcljklahio````ollbh`ocaagpppppp",
"ppppppcaaaacacaagihabcaho`````obkkloo`hbaapppppp",
"ppppppaaaacacaaaaaooihi```````bjfkhoooiblapppppp",
"ppppppaaaaaaaaaacb`o``oo````obfefco`ooobkfpppppp",
"ppppppaaaaaaaaaabco``oo````oleeflooo`ooibjpppppp",
"ppppppacaaaacaacllioo`o``ohkfffjho`oooiogcpppppp",
"ppppppcaaacacclbcjoiooooibffeddcoooooii`gbpppppp",
"ppppppcaaacbllaaijciihhbffenmnlo`ooooooogcpppppp",
"ppppppaacbkbbagioddjhlnmmmmmmjhio`oiiioigapppppp",
"ppppppgggagghhiookekledddddflg`o`ooooo`ohhpppppp"
};
