#define face_width 48
#define face_height 48
static char face_bits[] = {
   0x00, 0x00, 0x40, 0x00, 0x00, 0x00, 0x00, 0x00, 0xbc, 0x03, 0x00, 0x00,
   0x00, 0x00, 0xff, 0x05, 0x00, 0x00, 0x00, 0x00, 0xfa, 0x1f, 0x00, 0x00,
   0x00, 0xc0, 0xf6, 0x7f, 0x00, 0x00, 0x00, 0x20, 0xdd, 0xff, 0x03, 0x00,
   0x00, 0xd0, 0xfe, 0xfe, 0x07, 0x00, 0x00, 0xa8, 0xa3, 0xff, 0x1d, 0x00,
   0x00, 0xb4, 0xde, 0xff, 0x1f, 0x00, 0x00, 0x5c, 0xf5, 0xff, 0x7f, 0x00,
   0x00, 0xeb, 0xfe, 0xff, 0xbb, 0x00, 0x00, 0xbe, 0xf7, 0xff, 0x6f, 0x00,
   0x00, 0xff, 0xfe, 0xff, 0xff, 0x00, 0x80, 0xdf, 0xfd, 0xff, 0xff, 0x01,
   0x80, 0xfe, 0xff, 0x6f, 0xdb, 0x00, 0x80, 0xef, 0xf7, 0xdf, 0xbf, 0x01,
   0xc0, 0x7e, 0x5f, 0xbb, 0xfe, 0x00, 0x80, 0xff, 0xf5, 0x4d, 0xfb, 0x00,
   0xc0, 0xad, 0x57, 0xb5, 0x7e, 0x00, 0x80, 0xbb, 0xaa, 0xd5, 0x77, 0x00,
   0x40, 0xaf, 0xb6, 0xfe, 0x7e, 0x00, 0x80, 0xef, 0xbf, 0xf6, 0x35, 0x00,
   0x00, 0xab, 0x5b, 0xfd, 0x77, 0x00, 0x00, 0xeb, 0x3f, 0xfe, 0x36, 0x00,
   0x00, 0xb6, 0x3e, 0xad, 0x6d, 0x00, 0x00, 0x55, 0x2b, 0xf6, 0x56, 0x00,
   0x00, 0xc2, 0x16, 0xa9, 0x39, 0x00, 0x00, 0x8a, 0x0a, 0x2a, 0x65, 0x00,
   0x00, 0x02, 0x10, 0x55, 0x2a, 0x00, 0x00, 0x08, 0x04, 0x8a, 0x54, 0x00,
   0x00, 0xa2, 0x28, 0x15, 0x39, 0x00, 0x00, 0x08, 0xa2, 0xaa, 0x14, 0x00,
   0x00, 0x20, 0xd4, 0x96, 0x0a, 0x00, 0x00, 0x88, 0xa2, 0x4f, 0x0d, 0x00,
   0x00, 0x20, 0xc9, 0xaa, 0x0a, 0x00, 0x00, 0x80, 0x44, 0x57, 0x0d, 0x00,
   0x00, 0x20, 0xd5, 0xba, 0x05, 0x00, 0x00, 0x80, 0xfc, 0xef, 0x06, 0x00,
   0x00, 0x40, 0x43, 0x5b, 0x05, 0x00, 0x00, 0x80, 0xb4, 0x5d, 0x03, 0x00,
   0x00, 0x80, 0xea, 0xb7, 0x05, 0x00, 0x00, 0x40, 0x15, 0xd4, 0x06, 0x00,
   0x00, 0x00, 0x45, 0x55, 0x05, 0x00, 0x00, 0x80, 0xaa, 0xba, 0x1f, 0x00,
   0x00, 0xa0, 0xaa, 0xd5, 0x12, 0x00, 0x00, 0x40, 0xed, 0x7e, 0x0f, 0x00,
   0x00, 0x80, 0x5a, 0xa5, 0x1d, 0x00, 0x00, 0x40, 0xaa, 0xdb, 0x0b, 0x00};
