/* XPM */
static char *noname_xpm[] = {
/* width height ncolors chars_per_pixel */
"48 48 17 1",
/* colors */
"` c black",
"a c grey33",
"b c grey47",
"c c grey40",
"d c grey87",
"e c grey80",
"f c grey73",
"g c grey27",
"h c grey20",
"i c grey13",
"j c grey67",
"k c grey60",
"l c grey53",
"m c white",
"n c grey93",
"o c grey7",
"p s None c None",
/* pixels */
"ppppppekkklkkkkllllllklklkkkkkkkjjjjjjjfffpppppp",
"ppppppdkklkkkkkkklklklkkkkkkkjkjjjjjjjfjffpppppp",
"ppppppdkkkkkkklkllklklklbbllkkkjkjjjjffjffpppppp",
"ppppppdkklklkkkkkkllbaiooohggcbjjjjjfjffffpppppp",
"ppppppdkkkkkkkkkllchooooiooiooialkffffffffpppppp",
"ppppppdjkkkkkkkklaooohhhhhhioo`ohakjffffffpppppp",
"ppppppnkjkkjkjkkahhgccggggghhhiioocjffffefpppppp",
"ppppppnjkjkjklagggcllbccbbbcaccgiohjfffeffpppppp",
"ppppppdjkkkkbhogaclkjjjejjjkbbllgiilffffefpppppp",
"ppppppnjjjkli`ogcbkkjfedeeejjjfjkahgffeffepppppp",
"ppppppnjkjkc``icblkkfeedneejeeefjlailffeefpppppp",
"ppppppnjjjkh``hcbllkfeddndeeddeffjbhajfffepppppp",
"ppppppnjjkko``abblljfeddddndddeffjkghkffefpppppp",
"ppppppnjjjk```acclkjeddddnnnndefjjkgibffffpppppp",
"ppppppnjjkl``iacclkjednddnmmmnefjkkcicjfffpppppp",
"ppppppmjjjk``ogccljjededennnmddejkkaocffffpppppp",
"ppppppmjjjk``ogcbbkjeeeedddnmdeejkkg`bffffpppppp",
"ppppppmjfjk``oaabbkjeedeeeddndefjklh`ljfffpppppp",
"ppppppmjjjk``oacbljjfeeeednmndefklco`kfjffpppppp",
"ppppppnffjk``iabcblkjjjjkkfdneefjkc``jffffpppppp",
"ppppppmjjkc``icbcghhhhgagcbkljkkjkc`hjffffpppppp",
"ppppppmfjbgaiiaagi```igighio`ohfejc`bjjfjfpppppp",
"ppppppmfjbgaohgahiooiohhcgi```oclkcikjfjffpppppp",
"ppppppmjjlag`hhaagagghhcfcghhhhiabgcllfjfjpppppp",
"ppppppmfjlai`agcccgggghlfkahgacccbhcbkjfffpppppp",
"ppppppnfjbgi`ggcbkllbggkfjacccbcblhgljjjjfpppppp",
"ppppppmjjlah`hacljklbgbkfebbkjfklbggljjjfjpppppp",
"ppppppmfjjccihaglklcaabjeflcbjfjlbhhljjjjfpppppp",
"ppppppmjjjlcghgacahhhcckjfkcacklbbialjjjjjpppppp",
"ppppppmfjjkbghgaaahaahohccgchgcllbckkjkjjjpppppp",
"ppppppmjjjjkchggghgggghiigacagcllclkjjjjkjpppppp",
"ppppppmfjjjjbhhgghhgaaagaacccggcbclkkkkjjjpppppp",
"ppppppnjjjkklhhgahi`ihgaaccaagaccbkjjjjkjkpppppp",
"ppppppmjjjjkjghhggghigacaah`hgcbcbkkkkjkjjpppppp",
"ppppppmjjjjedahhggacaaabccgccacaclkjkkkjkkpppppp",
"ppppppnfeeeneghhhaaaccblllblbacaceejjkjkkkpppppp",
"ppppppmmdlnmfgiihaaaagggacblccaakmmeffndekpppppp",
"ppppppmnbkmnehihhgaaaaggacbbbcaaemdknnndejpppppp",
"ppppppmlhjmmnaiiiggaacbcbbbbbcgcdmmdmfcbcapppppp",
"ppppppmbgcnmdaiiihggcccbbbbbbggbdmmnfhghgkpppppp",
"ppppppmcigeddghiiiigaaccbblbahaknmmncghhkepppppp",
"ppppppjciifddahiiiohhhgagccaggajnmmkljaabcpppppp",
"ppppppdbaoledbghiiooooiiihhhgacfmmnabkjjkkpppppp",
"ppppppmfkigedkghhioo````ooihgabdmmdgckdelcpppppp",
"ppppppjkelifdfgghhoo````oohgacknmnkihffccapppppp",
"ppppppbbjfcledlgghiio``oihaaccemnkhagjbcgapppppp",
"ppppppbccjbbjedbghhiiiihhggacjnmdagagccaglpppppp",
"ppppppkghaaigljlgioo```ooihhcjjjcoghiihohlpppppp"
};
