/* XPM */
static char *noname_xpm[] = {
/* width height ncolors chars_per_pixel */
"48 48 17 1",
/* colors */
"` c black",
"a c grey33",
"b c grey47",
"c c grey40",
"d c grey87",
"e c grey80",
"f c grey73",
"g c grey27",
"h c grey20",
"i c grey13",
"j c grey67",
"k c grey60",
"l c grey53",
"m c white",
"n c grey93",
"o c grey7",
"p s None c None",
/* pixels */
"pppppplkkkkkkkkkkkkkkkjkkjjjjkkjkjjjjffjjjpppppp",
"ppppppkkkkjkkkkkklkkkkjjjjffjjkkjjjkjfejjkpppppp",
"pppppplkkkkkkkkkkkkkkllkfdnnejkkjjjkjfejjkpppppp",
"pppppplkkkkkkkklkffjbhihhcjnmmfkkjjjjfejjkpppppp",
"pppppplkkkkkklbllenlio`ickfdnmnjjjjkjfefjkpppppp",
"pppppplklklklbaggaacoooigbemmmmnfkjjjjeefkpppppp",
"pppppplkkkklcgiooooiio````ilemmmdjjjjffejkpppppp",
"pppppplllklbhoo```oii``````oglfjjkjjjffefjpppppp",
"ppppppllkllg``````oo`oii```oihgklaljjffejjpppppp",
"ppppppllklc``````oi`igggho``oihglbcjjffffjpppppp",
"ppppppllllh``````ihhclllbcgo`ohgabaljffefjpppppp",
"ppppppbllb```````gggblkjffkbhoohaahcjffffjpppppp",
"ppppppbllg``````ohgalljeddeflgoohhgilfffjjpppppp",
"ppppppbblh``````oigalkjfdnnnfbhiiiiicfffjjpppppp",
"ppppppblli```````ohalkkfdnmmnjciiooogjffjjpppppp",
"ppppppllli```````oiabkkfednmmdjaih`oijffjjpppppp",
"ppppppbllo```````oiackkfennmmmdjago`hjfjjjpppppp",
"pppppplblo```````oiaclkfennmmmmdjco`gjfjjjpppppp",
"ppppppblbo``````oohackkjfeddndddfbo`hkfjjkpppppp",
"pppppplllo``````oohhgcaacljeefjlbco`okjjjjpppppp",
"ppppppllbo``````ihhgggghhhcjfbhhac``okjjjkpppppp",
"ppppppblb```````hgcaghocaagjeaohcc``ijjjjkpppppp",
"ppppppllb`````oohgblbcbklbclelcbljoogjjjkjpppppp",
"ppppppbllo``ooiihgbljjkkkbcbfkllkjgbkjjjjkpppppp",
"ppppppllla``hghhhgcljeeefbcbfjeeejkkjkjjkkpppppp",
"pppppplllli`iagihhabjeeejcccfffeejkkjkjkjkpppppp",
"ppppppllllg``ihhhhgclkjklacajfjffkkkjkjkkkpppppp",
"ppppppllllg```oihgaabbbllghhcbklblkkkjkjjkpppppp",
"ppppppllllh``ohhhggcllbbbcagallbblkkkjkkkkpppppp",
"ppppppllllo``ohhhgaaljcgabbkllllllkkjkjkkkpppppp",
"pppppplllbo```igigacckjcaaaacckklkkkkkkkkkpppppp",
"ppppppblllh```ighhgaclklbblkkkjlbklkkkkkklpppppp",
"ppppppblblli``hghhggablkkllllkkblkkkkkkkklpppppp",
"ppppppbllllaooihghhgaaclkjjjfjbbkllkkkkkkkpppppp",
"ppppppllllllgihaaghhgaabbkjfjlblllklkkklllpppppp",
"ppppppblllkkbcgccaghhhaaabkkkbblllllkkkkklpppppp",
"ppppppblcblkfedekbchhiiggaaccblllllklkklllpppppp",
"ppppppblbljfdnndmdkchhiiihhclbblllkllklkllpppppp",
"ppppppbbcljfenmmnnmebgggggcbllblbllkkkkkllpppppp",
"pppppplbblfnmnnmmmdnmfccccblbbbblllllklkllpppppp",
"ppppppblcbjenmmnnmmndmdlbbbllbblblllkkklllpppppp",
"pppppplbbkkdnnmmmmnmnenmjbljlbbblbllklkkllpppppp",
"ppppppbllefmnnnmmmmnmnedmejdebbbbllllkklllpppppp",
"pppppplkkedndddnnmmmnnnenddeedllblllklkkklpppppp",
"ppppppkkjjddddnnmnmmmnddejeeedfbllllkkklllpppppp",
"ppppppjkjkddeeednnnmmmnedkfjdmnlbblllklkkkpppppp",
"ppppppjkjfeddddddmdmmmmnekffendlbllllkkklkpppppp",
"pppppplbbkkjffjfjffjfefefffbcbcaaaacccccccpppppp"
};
