/* XPM */
static char *noname_xpm[] = {
/* width height ncolors chars_per_pixel */
"48 48 17 1",
/* colors */
"` c black",
"a c grey33",
"b c grey47",
"c c grey40",
"d c grey87",
"e c grey80",
"f c grey73",
"g c grey27",
"h c grey20",
"i c grey13",
"j c grey67",
"k c grey60",
"l c grey53",
"m c white",
"n c grey93",
"o c grey7",
"p s None c None",
/* pixels */
"ppppppblblbblblblbllllllkffjkkkkkkkkjjjjjjpppppp",
"ppppppblbbbbbbbbbbbbbblkfdemefdjjkkjjjkjjjpppppp",
"ppppppbbblbbbbbblbghhhigcdmmddnejkkkjjjjjjpppppp",
"pppppplbbbbbbblbho``o```oijnmddmmekjjjjjjjpppppp",
"ppppppbbbbbbbbao``````````oafejjnnfjjjkjjjpppppp",
"pppppplbblbbbco````````````oighcjnejjjkjjjpppppp",
"ppppppbbbbbbbo```````````````ohcgldfjjkkjjpppppp",
"ppppppbbbbbbg`````````````````o`ihcffjjjjjpppppp",
"ppppppbbbbcbi````````````````````ooljfjkkjpppppp",
"ppppppbbbbbc`````````oo`oo`````````cjjjkjkpppppp",
"ppppppbbbcbh`````oihhhoihghooo````icjjjjkjpppppp",
"ppppppcbcbco````ohabllbckllaghio`oocjjjjjjpppppp",
"ppppppbcbbco```oialjfeeedddnefbgo``ajjjjkjpppppp",
"ppppppcccbc````ohakjeeedddnnddkbh``gjjkjkkpppppp",
"ppppppccbbco```ohalkfeeeddnddekbh``ajkjjkjpppppp",
"ppppppcbcbbo```ihgbkjeeeddddefkci``bjjkkkjpppppp",
"ppppppcbcbc````iihggbljfffejklbci``ckjkjkkpppppp",
"ppppppcbcbc```oooihiohbkkbghgaggh``ajkkjjjpppppp",
"ppppppbcbbco``oiihiihohkkahhgacah`obkjkkjjpppppp",
"ppppppbcbccho`oghihabghfjbcggacli`bkjkkkkkpppppp",
"ppppppcbcbcgiiiacbbllcgkjkjkjjfkgajjkkkkkkpppppp",
"ppppppbcbbbghhiallkjkcgjkjfefeflbjjkkkkkkkpppppp",
"ppppppcbccbahhhgbkkfkgajkjeeeejlljjklklkkkpppppp",
"ppppppbcbbbbghigckfjcabfjkjfeekckkkkklkklkpppppp",
"ppppppcbbcbbgohhaljkgiibcckljjlckllkllllklpppppp",
"ppppppbccbcbc`ohallccggabkkkbkbgllklllkllkpppppp",
"ppppppccbccbcoohglbcabkkjkkklkccllllllllllpppppp",
"ppppppcbcbcbbaohglbhhhgcchhckkablllllbllllpppppp",
"ppppppbcccbbbbghhbkbhgbllcljklallllblbblllpppppp",
"ppppppcbcbcbbbahhabbaablllkklacllllblbbbbbpppppp",
"ppppppbcbbbbbbaihgacbccclkklcalbllllbbbbbbpppppp",
"ppppppcbccccbbahihgabblkkklbaalllllbbbbbbcpppppp",
"ppppppbccbbcbcaihihgcckkjlbagcblbllbbbcbccpppppp",
"ppppppccbcccbchhhhohgacbccahgclblllbbcbcbcpppppp",
"ppppppcccccbjghhhhiohhhhhihggcblbblbbcccccpppppp",
"ppppppcbcbbjechggghioiiihgaggbbbblbbbccccapppppp",
"ppppppccknmndebacccaaggaacaggbbbbllbcccccapppppp",
"ppppppbjnnmmmnekbbblbbccccggafbbbbllbbccccpppppp",
"ppppppemmnmmmmnneklkklbbcaagbmfbbblbbccccapppppp",
"ppppppmmmmmmmmmmmmdfkkllbcaaemmfblbbbcccccpppppp",
"ppppppmmmmmmmmmmmmmmmdfklcckfmmmnkllbcccbcpppppp",
"ppppppmmmmmmmmmmmmmmmmmmdeefemmmmmekbccbccpppppp",
"ppppppmmmmmmmmmmmmmmmmmndeefnmmmmmmmelcbccpppppp",
"ppppppmmmmmmmmmmmmmmmmmmmmndmmmmmmmmmnelcbpppppp",
"ppppppmmmmmmmmmmmmmmmmmmmmnnmnnmmmmmmmmmebpppppp",
"ppppppmmmmmmmmmmmmmmmmmnnnnnnnndnnmmmmmmmnpppppp",
"ppppppmmmmmmmmmmmmmmmmmmnnnnnnndddmmmmmmmmpppppp",
"ppppppeefeeffefeffefeffffjfjfjjjkjffeeeefepppppp"
};
