/* XPM */
static char * face_xpm[] = {
/* width height ncolors chars_per_pixel */
"48 48 11 1",
/* colors */
" 	s None	c None",
".	c gold",
"X	c yellow",
"o	c blue",
"O	c grey",
"+	c dark slate grey",
"@	c sky blue",
"#	c cyan",
"$	c violet",
"%	c white",
"&	c purple",
/* pixels */
"           .X.XX..XX.X.X.X.X.X.XX..XX.          ",
"          .X.X...X..X...X.X.X.X...X...X         ",
"         X.oOo+O+oOooO+ooOooOo+oOo+oO+X         ",
"        X.oooooooooooooooooooooooooooo+.        ",
"       ..oooooooooooooooooooooooooooooo..       ",
"      ..oooooo+oo+oo+o+ooo+oo+oo+ooooooo..      ",
"      Xooooooooooooooo@@Ooooo+oooooooooooO.     ",
"      .Ooooooooooo#ooOoooO#oOo+ooooooooo+.      ",
"       .ooo+oooo#oooOoOooooOooooo+ooooo+OX      ",
"       .+oooooo+o@oOoooo+oooOoOooo+o+ooo.       ",
"       XO+ooo+o@oo#oOoo+OOoooooooo#oooo.        ",
"        .ooooo@ooOooooooXoOooooOooooooo.        ",
"        .+oo+o@oooooOooO.+oooooo+oo#ooo.        ",
"        X+oooOoooOooo.Oo+o+OoooooOoo+oo.        ",
"        ..oOooooooooOOX++oO+Oo+oo@ooo+o.        ",
"        ..ooO@o+O@Ooo+O+Oo.+oOoOooOooooX        ",
"        .OoOooOooooooooOO+Ooo#ooooOooOoX        ",
"        X.ooOooooOoooooO+.+o@oOoooo+oooX        ",
"        XOoooX.X.O.O..O+XO+XO.O.+XOO+ooX        ",
"        X++ooO+.X...+X+O.oo.$.X....oooo.        ",
"        .Ooooooo.X.OO.X.O..O..O.O+oooooX        ",
"        X+o+oOooo++..O+O..X..O.++ooOooO.        ",
"    .X  .oooooOoo#ooooO.+O++ooo@oOoo+Oo.   .X   ",
"   X%OX .ooo+ooOooo@oo.o.o+OOoOoooo@ooo+. .%OX  ",
"  XOXOO..oo+oo@oooooO+OO.ooOoooooooooooO..XXO.  ",
"  .XO.%.o+oo@oo#oooo.X++XOO.oooOooOoOooO.O%OOX  ",
"  .OXOOXooooooooOoo+.O+O++oO.oooooOooooo.OOO.%. ",
" .%%$%%.oooooOoooOoo++ooooo++ooooOoooooO.O%XO%%.",
".%%%X%%O+ooooo+oooOoo@ooOooooOoOoo+ooooo.O%XO%%.",
".%%X%%%.oooooooooooooOooo@+oooOooOooooo+.O%%O%%.",
"X%%O%%%O+ooooooooooO@ooooooO#oooo#oooooOX%%%X%%.",
".OXO%%%X.Ooo+ooo+ooooo+oOooooo+ooooooo+.O%O%OOX.",
" .X%%%%%O.OooooooooOoooooo@ooOooooooo+OO%OOO%%$ ",
"  .OOOoO%X.+oooooooooOoOOoO#oooooooo+O.O%@O@O%X ",
"  X%%o%O%%OX++oo+oooooooooooooo+ooo+X.O%@%&OOX  ",
"   .O@&%@O%OXO.+oooooooooooo+oooO+XXO%OOOOOO%   ",
"   X%%@O@O%O%%OXXO+oo+oooo+ooo+..%O%O%O@O%O%X   ",
"    .%%&O%%@O%%%O...oooooooo+X.X%%%%O@%O%o%.    ",
"    XO%@O%OO@OO%%%%..+ooooo..X%%%OOoO@O@@O%.    ",
"     ...%OO&@O%OOOO%OXO++O.O%%OO@O@OOOOOOOX     ",
"        XO%@@%O&@&@O%%%X.O%O@O@@@&@&O%OO..      ",
"         .O%OOO@O@OOO@%OX%%O%O&OO@O@O%..        ",
"          ..%%%O&@%OOOO%OOOO%O@OO%%%%.          ",
"            .X.%%OO@OOOOOOO@%OOO%%...           ",
"               .X%OO&@%OO&%%OO%...              ",
"                 ..XO%%@O@%%O..                 ",
"                    X%%O@O%O.                   ",
"                     XO%O%X.                    "};
