#define noname_width 48
#define noname_height 48
static char noname_bits[] = {
 0x00,0x22,0xa1,0x02,0x00,0x00,0x40,0x49,0xbd,0x5f,0x49,0x00,0x00,0xf5,0xeb,
 0xfe,0x00,0x00,0x80,0xe8,0xb6,0xff,0x13,0x01,0x00,0xf5,0xdf,0xff,0x0b,0x00,
 0x80,0xfa,0xff,0xff,0x87,0x00,0x80,0xfe,0xff,0xff,0x1f,0x00,0x40,0xfe,0xff,
 0xff,0x4f,0x00,0x80,0xff,0xff,0xff,0x0f,0x01,0x40,0xfe,0xff,0xff,0x2f,0x00,
 0x80,0xff,0x02,0x5c,0x1f,0x00,0x00,0x5f,0x00,0xa0,0x2f,0x01,0x40,0x0f,0x00,
 0x40,0x1f,0x00,0x00,0x2f,0x00,0x40,0x9f,0x00,0x40,0x0f,0x00,0x80,0x2f,0x02,
 0x00,0x2f,0x00,0xa0,0x1e,0x00,0x40,0x4e,0x08,0x8a,0x4f,0x00,0x80,0x3e,0x14,
 0xd5,0x0e,0x01,0x80,0xcc,0x2f,0x7e,0x4f,0x00,0x40,0x1a,0x10,0x82,0x16,0x00,
 0x80,0x8c,0x00,0x25,0x4d,0x01,0x40,0x29,0x40,0x02,0x16,0x00,0x80,0x12,0x00,
 0x85,0x4b,0x01,0x40,0x12,0x20,0x02,0x0e,0x00,0x80,0x2a,0x50,0x46,0xa3,0x02,
 0x40,0xb5,0xa8,0x96,0x16,0x00,0x80,0x14,0x48,0x4b,0xa3,0x02,0x40,0xb5,0x92,
 0x54,0x4b,0x00,0x80,0x6a,0x55,0xde,0x25,0x01,0x40,0xb5,0x54,0xab,0x12,0x01,
 0x80,0x6a,0x09,0xac,0x49,0x02,0x80,0xd4,0xd5,0xd7,0x53,0x01,0x40,0x65,0x23,
 0x74,0x89,0x00,0x80,0xea,0x4a,0xea,0x53,0x02,0x80,0xb2,0x97,0xf5,0x87,0x00,
 0x40,0xe1,0xed,0xfa,0x8f,0x02,0x80,0xb0,0x57,0xdf,0x2f,0x02,0x00,0x68,0xfd,
 0xff,0x1f,0x00,0x00,0xf0,0xff,0xff,0xa7,0x00,0x00,0xa0,0xea,0xb7,0x17,0x00,
 0x00,0x68,0x7f,0xff,0x47,0x00,0x00,0xc0,0xd5,0x6d,0x15,0x00,0x00,0x90,0xfa,
 0xf7,0x02,0x00,0x00,0x80,0x56,0x5d,0x01,0x00,0x00,0x80,0xb5,0xaa,0x00,0x00,
 0x00,0x00,0x5a,0xb7,0x00,0x00,0x80,0x3f,0x65,0x49,0x00,0x00,0x40,0xaa,0xda,
 0x36,0x94,0x00};
