/* XPM */
static char *noname_xpm[] = {
/* width height ncolors chars_per_pixel */
"48 48 17 1",
/* colors */
"` c black",
"a c grey33",
"b c grey47",
"c c grey40",
"d c grey87",
"e c grey80",
"f c grey73",
"g c grey27",
"h c grey20",
"i c grey13",
"j c grey67",
"k c grey60",
"l c grey53",
"m c white",
"n c grey93",
"o c grey7",
"p s None c None",
/* pixels */
"pppddddnnnnnnnnnmmnmmnmenmnnnmmnnnmnndmmnnnnpppp",
"pppddeddnnnnnnmnnmnmmnnennmnnnmnnnnmndmmnnnnpppp",
"pppdeeddnnndnnnnmnnmnekbllkfdnmnnnnnddmnmnnnpppp",
"pppeeeeddndnnnnnnnjbaghhhhioiaednnnnndnmnnnnpppp",
"pppeeeedddddnnnnecghio`ioooo`oicennnddmnnnnnpppp",
"pppeeeedddddnndkhoo`o``oo`o`````gennndnnnnnnpppp",
"pppeffedddddndbo`ooii`o``````````bnnddmnnndnpppp",
"pppeffeeddddecooo`io```oiio``````ojnddmnnnnnpppp",
"pppfffeededdjioiihahhohaljkahhhh``ofddnnnnndpppp",
"pppfffeeeeedg`hlbljfeeennnddfjkbao`hednmnndnpppp",
"pppffffeeeeeo`cjkjedmmmmmmmnnejkbc`obdnnndndpppp",
"pppfjfeeeeef`ibjffdnmmmmnnnndefklbioiennnndnpppp",
"pppjffffeeek`glkfednmmmmnnnddefkklao`fnnndddpppp",
"pppjjfffeffbohlkfednmmnmnnnndefjllco`knndnndpppp",
"pppfjfffefeb`hlkfednmmmmmmmnnefjkbcioknndnddpppp",
"pppjjjffeffb`obkjednmmmmmmmmndfjkbai`fdnndndpppp",
"pppjjjjffffb``bkjednnmnnmmmnddejkba``jnnddddpppp",
"pppjjjjfjffa``bkjjjkjedddddefjjjlba``jnddnddpppp",
"pppjjjjffjfa`oblbbcgglkjfffkcacbbbg``fdnddddpppp",
"pppkjjjjjjjl`obbbbghacbjfkcghiaaaag`oddnddddpppp",
"pppjjjjjfjcjciblbcaglblenkagacigahg`gjddddddpppp",
"pppkkjjjjkcfkhlllkjkkjjemecbjkachgg`agfdddddpppp",
"pppkjkjjjjcfagkjeeeffffenekbkklbcaa`aojdddddpppp",
"pppkkjkjjjlkaalfennneefemdkljjfjlbaoaifdddddpppp",
"pppkkjkjkkkkeblfdnnndffenelbkfffjlaigaedddddpppp",
"pppkkkkjkjkjeclfedndeffenekbkffjklgigkddddedpppp",
"pppkkkjkjkkfelljfeddeffendkblffjkcggcfdddeddpppp",
"pppkkkkkkkkjekbkjfdddffdnelllkfklcabledddddepppp",
"pppkkkkkkkkkjkbkjfeddjbjjlablkklbaccjeddeedepppp",
"pppklkkkkkkjkkbkjfeddellbahbkkllcaabededdeddpppp",
"pppkkkkkkklkkkblkfedffjjkkbklkklcakfeeddededpppp",
"ppplllkkkkkkjkblkjefjfffffkkblkbagfeeedededepppp",
"pppklkkklklkkkbbkjjkjjjjjklbcclbaaeeeedededepppp",
"ppplllklkllkkklbkjklccblbbbagclcaleeeeedeeeepppp",
"pppllklklklkkkkcbkkjfjffefkbblkchfeeeededeeepppp",
"pppllllkllllkkkcbkljjjklbbbcbbbagfffeeedeeeepppp",
"pppllkkllllkkkblcbblkkkllbbbbcgggjeeeeeeeeeepppp",
"ppplllllllllbcclbbblljfeefklcahggcfffeeeeeeepppp",
"ppplllllllllcccblccblkfeffjbcgggaicjeeedeeeepppp",
"ppplllllkkkccccblbccllkjllbcaggggohajfeeeeeepppp",
"pppbbllkkbbcccccllbbcbbbabcgghgggohhabjfeefepppp",
"ppplklkklkjcaccallbbbcaghghhgggghohhcaalkfefpppp",
"pppbbkklcbcccacgllbbblklagggghggoihhgccablkfpppp",
"pppblbcagbacccahllbbbclklagggggg`ihhhghgabllpppp",
"pppaccchccacaccgclllbbblbgggacag`hhhhggaccccpppp",
"pppacaahcbaacacahbkllbccghggbcaihghggaaaccccpppp",
"pppccchgbjlcccachblkllbcgaacbcahaghgabccccccpppp",
"pppnmefmmmmkaacaacklbbbccaalbbggaghakmmeeeeepppp"
};
