/* XPM */
static char *noname_xpm[] = {
/* width height ncolors chars_per_pixel */
"48 48 16 1",
/* colors */
"` c grey33",
"a c grey47",
"b c grey40",
"c c grey87",
"d c grey80",
"e c grey73",
"f c grey27",
"g c grey20",
"h c grey13",
"i c grey67",
"j c grey60",
"k c grey53",
"l c white",
"m c grey93",
"n c grey7",
"o s None c None",
/* pixels */
"oooooolllllllllldeeeeeeedddclllllllllllllooooooo",
"oooooolllllllllceeeeeeeeeddmlllllllllllllooooooo",
"oooooollllllllmdeeeeeeeeedmllllllllllllllooooooo",
"oooooolllllllmdeeeeeeeeedclllllllllllllllooooooo",
"oooooollllllldeeeeeeeeeeeeeemllllllllllllooooooo",
"oooooollllllceeeeeeeeiijkaaakemllllllllllooooooo",
"oooooolllllmdeeeeeik`fggfbab`bkelllllllllooooooo",
"oooooollllmdeeeeeikbhnng`bbb``baellllllllooooooo",
"oooooolllldeeeeeikbhnnnnf`bb``bbbclllllllooooooo",
"oooooolllceeeeeeja`nnnnngfbbb`baailllllllooooooo",
"oooooollceeeeeeeabbafhff`bakbbbakklllllllooooooo",
"oooooolmdeeeeeeib`bjkaaieeikka`aajdllllllooooooo",
"oooooomdeeeeeeei`kieccmmmmcdejkkbaellllllooooooo",
"ooooooceeeeeeeeibeccmmmmmmcddejjkbillllllooooooo",
"ooooooeeeeeeeeejaeccmmmmmmccdejabaellllllooooooo",
"ooooooceeeeeeeeiaedcmmmmmccddijbbadllllllooooooo",
"oooooolceeeeeeedkdcmmmmmmmcdeijabbdllllllooooooo",
"oooooommdeeeeecmiiidclmmcejijjikbbdllllllooooooo",
"oooooomcccdeedmldeeedcmcddcddeijabellllllooooooo",
"ooooooeeedccdmllddeeedmdedeiedijakillllllooooooo",
"oooooolmceeecllldddcddceedcccdejkkdllllllooooooo",
"oooooollceeemlllcccccddeeccccdijkbdllllllooooooo",
"oooooollceecllllmcmmmddeecmmcdijjacllllllooooooo",
"oooooocdedmlllllmcmmmdcdedmmcejkkimllllllooooooo",
"oooooommmllllllllcmmmdccddcmcejkjclllllllooooooo",
"oooooolllllllllllmmcccmccddccekkmllllllllooooooo",
"oooooolllllllllllmccedmmcdeccijjmllllllllooooooo",
"oooooollllllllllllcmceccdedccijjemlllllllooooooo",
"oooooollllllllllllmccccccccddikkjddllllllooooooo",
"oooooolllllllllllllcdcccccdeejkkemcmlllllooooooo",
"oooooolllllllllllllcedcccdiijkkicmmmlllmcooooooo",
"oooooolllllllllllmlceecccejkakiemmmmlllllooooooo",
"oooooollllllllllmllcdieeejkkkiedmlmmlllllooooooo",
"oooooolllllllllmmmmcdeieiiijieddmlcllllllooooooo",
"oooooollllllmmllmmmcdddddddeeddmlmcllllllooooooo",
"oooooollllllmmlllmlceccdddddcccllccllllllooooooo",
"oooooollllmmmmlllmlcdcccccccccmllcmllllllooooooo",
"oooooolllmmmmmlllmmmmecmmmmmmlllmdlllllllooooooo",
"oooooolllmmmlmllllmmmcemmmmlllllcclllllllooooooo",
"oooooolmmllclmllllecmmlmmlllllllcdlllllllooooooo",
"oooooolmlllclmlllcicmmlllllllllldclllllllooooooo",
"oooooomllllcmmllmccmmmlllllllllmdllllllllooooooo",
"oooooomlllmcmmllllmmlmmlllllciecdllllllllooooooo",
"oooooomlmlmcclllmlmmlmmmlllldemmcllllllllooooooo",
"oooooomllmmcclllmlmmllmlmccllllllllllllllooooooo",
"oooooomlmmmmcllllllmllmmcmlllllllllllllllooooooo",
"oooooolllllmclmllllmlllcmllllllllllllllllooooooo",
"oooooolllllmmllllllmlllmlllllllllllllllllooooooo"
};
