#define noname_width 48
#define noname_height 48
static char noname_bits[] = {
 0x00,0x00,0x00,0x00,0x80,0x00,0x00,0x00,0x00,0x94,0x28,0x01,0x00,0x00,0x00,
 0x40,0x82,0x00,0x00,0xa4,0xa0,0x10,0x20,0x01,0x00,0x00,0x08,0x95,0x14,0x02,
 0x00,0x12,0x11,0x6a,0xa1,0x00,0x80,0x20,0x40,0xfc,0x84,0x02,0x00,0x94,0x80,
 0xaf,0x53,0x00,0x00,0x50,0x4b,0xff,0x23,0x01,0x40,0xaa,0xf7,0xff,0x17,0x01,
 0x00,0xa8,0xaa,0xfe,0x47,0x02,0x80,0xda,0xc3,0xff,0x57,0x01,0x00,0xfc,0x50,
 0xff,0x8f,0x00,0x00,0xb9,0x85,0xfe,0x5f,0x02,0x80,0xfc,0x00,0xfd,0xaf,0x00,
 0x00,0xb9,0x52,0xf4,0x1f,0x02,0x00,0x7a,0x41,0xe9,0x5f,0x01,0x80,0xfc,0x3e,
 0xfe,0x3f,0x01,0x00,0xba,0x5f,0xff,0x4f,0x02,0x80,0xb8,0x3a,0xff,0x3f,0x01,
 0x00,0xbd,0xcf,0xfb,0x8f,0x02,0x40,0x52,0x28,0x6f,0xaf,0x00,0x00,0xb9,0x52,
 0xdb,0x17,0x01,0x80,0xa4,0x24,0xd7,0x4f,0x01,0x00,0x52,0xd4,0xab,0x27,0x02,
 0x80,0x54,0xad,0xde,0x4f,0x01,0x80,0x52,0xd3,0xff,0x25,0x01,0x40,0xa8,0x56,
 0xbf,0x4b,0x01,0x80,0x52,0xdf,0xdf,0x27,0x02,0x40,0xa4,0x55,0xfd,0x57,0x01,
 0x80,0x4a,0xb5,0xd7,0x47,0x02,0x00,0xa2,0xaa,0xee,0x2b,0x01,0x40,0x95,0xa2,
 0xfd,0x51,0x01,0x80,0xa4,0xaa,0xb6,0x8b,0x00,0x00,0x49,0x4b,0xfd,0x53,0x01,
 0x80,0x24,0xd6,0xfe,0x0b,0x01,0x00,0x55,0xfd,0xef,0x4f,0x02,0x80,0x12,0x75,
 0x7f,0x17,0x01,0x00,0xa4,0xde,0xfb,0x43,0x01,0x80,0x2a,0xf1,0xdf,0xab,0x00,
 0x80,0xa4,0x6c,0x7d,0x41,0x02,0x80,0x12,0xb4,0xca,0x60,0x00,0x00,0x05,0x68,
 0x35,0x20,0x00,0x80,0x00,0xb4,0x4a,0x28,0x00,0x80,0x00,0x54,0x15,0x10,0x00,
 0x40,0x00,0x54,0x02,0x0a,0x00,0x00,0x00,0xa4,0x04,0x00,0x00,0x00,0x11,0x5a,
 0xb5,0xab,0x00};
