#define noname_width 48
#define noname_height 48
static char noname_bits[] = {
 0x00,0x21,0x21,0x81,0x44,0x00,0x40,0xaa,0x94,0x28,0x15,0x01,0x00,0xa4,0x20,
 0x21,0x2a,0x02,0x40,0x51,0x8a,0x00,0x89,0x00,0x00,0xaa,0x04,0x03,0x54,0x02,
 0x80,0x44,0x55,0xd4,0x0b,0x00,0x00,0x29,0xfd,0x6f,0x55,0x01,0x40,0x52,0xff,
 0xff,0x1e,0x00,0x00,0xa9,0xff,0xff,0xab,0x02,0x80,0x48,0xff,0x7f,0x7f,0x00,
 0x00,0xd5,0xff,0xff,0x55,0x01,0x40,0xa2,0xbf,0xdf,0xfe,0x00,0x80,0xd4,0xd7,
 0x7a,0xfb,0x02,0x00,0xc9,0xfd,0xd7,0xd6,0x01,0x80,0xd4,0xab,0xac,0xff,0x02,
 0x40,0xd2,0xfe,0xb5,0xf6,0x01,0x00,0xe9,0xaa,0xde,0xff,0x02,0x80,0x94,0xdb,
 0xf7,0xfd,0x01,0x80,0xd2,0x85,0xde,0xff,0x01,0x40,0xd4,0x4b,0x57,0xff,0x03,
 0x80,0x52,0xad,0xda,0xfe,0x00,0x40,0xd4,0x7e,0x94,0xfa,0x03,0x80,0xd2,0x52,
 0x7c,0xff,0x00,0x00,0xa9,0x24,0x50,0xf9,0x03,0x40,0x6a,0x80,0x04,0xee,0x00,
 0x00,0x95,0x01,0x20,0xf8,0x02,0x40,0x52,0x20,0x02,0x7d,0x01,0x40,0xa9,0x1b,
 0x00,0xbc,0x02,0x80,0xaa,0x2a,0x05,0xb7,0x02,0x40,0xaa,0xd6,0x5b,0xad,0x02,
 0x80,0x14,0x2d,0xb0,0x5f,0x01,0x80,0x6a,0x55,0x57,0x4d,0x03,0x80,0x94,0x5a,
 0x4a,0xaf,0x02,0x80,0xaa,0x2e,0xa9,0xaf,0x02,0x40,0x55,0xa9,0x6a,0xd5,0x02,
 0x80,0x54,0xd6,0xd5,0x6b,0x03,0x80,0xaa,0x2a,0x7a,0x56,0x01,0x80,0xaa,0x5a,
 0xb5,0x6b,0x03,0x40,0x55,0xfd,0x5f,0x6a,0x01,0x40,0xb5,0xd5,0xbf,0xd5,0x03,
 0x80,0x6a,0xfb,0xaa,0x72,0x01,0x80,0xfe,0xbd,0x5f,0xb5,0x03,0xc0,0xbf,0xea,
 0xb5,0xf4,0x03,0x40,0xfb,0xfd,0xae,0x5a,0x01,0xc0,0x5f,0x55,0xab,0xfc,0x03,
 0x80,0xff,0xaa,0x55,0xe4,0x02,0xc0,0x7e,0x55,0x0b,0xff,0x03,0xc0,0xdb,0xab,
 0xaa,0xba,0x02};
