/* XPM */
static char * face_xpm[] = {
/* width height ncolors chars_per_pixel */
"48 48 10 1",
/* colors */
" 	s None	c None",
".	c grey47",
"X	c black",
"o	c grey40",
"O	c grey7",
"+	c grey53",
"@	c grey33",
"#	c grey20",
"$	c grey27",
"%	c grey13",
/* pixels */
"                                                ",
"                                                ",
"                                                ",
"                                                ",
"                                                ",
"                                                ",
"  .XXooOX+                                      ",
"   @#   oX++.....++..........+.............+    ",
"   @#   +X# $X@+#O.%X$++XO$X% oX+@X$++OO.XX+    ",
"   @#    %X .X+ @X$+Xo  @O+X# +# +X.  o% XX     ",
"   @#    %X+.X+ @Xo+Xo   O $O+++ +X.  .% XX     ",
"   @#    %X..X+ @X++Xo o @ @X#o  +X. # @ XX     ",
"   @#    %X..X.+#@ +X$+X   +XX$  +X@+O   XX     ",
"   @#    %X..X#%O+ +X%#X    $X$  +X%XO   XX     ",
"   @#    %X..X++X$ +Xo X    #X#  +X. O   XX     ",
"   @#    %X .X+ $$ +Xo .    XXX  +X. $   XX   + ",
"   @#    OX .X+ @X +Xo   o oo$X@ +X.   o XX   . ",
"   @#   +Xo .X+ @X++Xo  +O $ +XX +X.  +% XX  +. ",
"   @O   %X  .X+ +X%OXo  XO#%  $X +X.  #% XX  %. ",
"  oXX@.$O+ .XX$  #XXX#.#XXXO++%X%$X#.#XO@XX@OX. ",
"  ++++++   ++++   ++++++++++++++++++++++++++++  ",
"@@@@@@@@@@@@@@@@@@@@@@@@@@@@@@@@@@@@@@@@@@@@@@@@",
"++++++++++++++++++++++++++++++++++++++++++++++++",
"                                                ",
"   + +  %+o  o  ++.+  oo  +.+  ++   o  +o+  o@  ",
"   + +  .o.  +   oo   @+   %o  +o   +   +   ++  ",
"   @+   .+.  @   ++   @@  +o+  +o   @   @   .   ",
"                                                ",
"++++++++++++++++++++++++++++++++++++++++++++++++",
"                                                ",
"              #XXXXXXXX+XXXXXXXXXX+             ",
"              +XXXXXXX. +XXXXXXXX.              ",
"               +OXXXX$   +XXXXXX$               ",
"                oXXXX     @XXXX#                ",
"                 $XX@      $XXO+                ",
"                  O@       +OXo                 ",
"                  +++++++++++o                  ",
"                   @XXXXXXXX@                   ",
"                    @XXXXXX@                    ",
"                     %XXXXO                     ",
"                     +XXXX+                     ",
"                      +XX@                      ",
"                       $$                       ",
"                                                ",
"                                                ",
"                                                ",
"                                                ",
"                                                "};
