/* XPM */
static char * face_xpm[] = {
/* width height ncolors chars_per_pixel */
"48 48 3 1",
/* colors */
" 	s None	c None",
".	c red",
"X	c white",
/* pixels */
"                                                ",
"                                                ",
"                                                ",
"                                                ",
"                                                ",
"                                                ",
"                                                ",
"                                                ",
"                                                ",
"                                                ",
"                                                ",
"                                                ",
"                                                ",
"                                                ",
"                                                ",
"                                                ",
"                                                ",
"                                                ",
"                                                ",
"................................................",
"..XX..XXXXXXX.XXXXXXXXXX..XX..XX...XXXXX.X....X.",
"..XX.XX.XX....XX..XX..XX..XX..XX...XX....XX..XX.",
"..XXXX..XX....XX..XX..XX..XX..XX...XX.....X..X..",
"..XXX...XXXXX.XX..XX..XXXXXX..XX...XXXXX...XX...",
"..XXXX..XX....XX..XX..XXXXXX..XX...XX......XX...",
"..XXXX..XX....XX..XX..XX..XX..XX...XX......XX...",
"..XX.XX.XX....XX..XX..XX..XX..XX...XX......XX...",
"..XX.XXXXXXXX.XX..XX..XX..XX..XXXXXXXXXX...XX...",
"................................................",
"                                                ",
"                                                ",
"                                                ",
"                                                ",
"                                                ",
"                                                ",
"                                                ",
"                                                ",
"                                                ",
"                                                ",
"                                                ",
"                                                ",
"                                                ",
"                                                ",
"                                                ",
"                                                ",
"                                                ",
"                                                ",
"                                                "};
