#define noname_width 48
#define noname_height 48
static char noname_bits[] = {
 0x00,0x00,0x00,0x00,0x00,0x00,0x00,0x00,0xa0,0x02,0x00,0x00,0x00,0x00,0xd0,
 0xff,0x01,0x00,0x00,0x00,0xf8,0xff,0x03,0x00,0x00,0x00,0xff,0xff,0x0f,0x00,
 0x00,0xc0,0xff,0xff,0x1f,0x00,0x00,0xe0,0xff,0xff,0x3f,0x00,0x00,0xe0,0xff,
 0xff,0x7f,0x00,0x00,0xe0,0xff,0xff,0x7f,0x00,0x00,0xf0,0xff,0xff,0xff,0x00,
 0x00,0xf8,0xff,0xff,0xff,0x00,0x00,0xfc,0xff,0xff,0xff,0x01,0x00,0xfc,0xf7,
 0xff,0xff,0x01,0x00,0xfc,0x4b,0xff,0xff,0x01,0x00,0xfc,0x01,0x01,0xfd,0x03,
 0x00,0xfc,0x09,0xa0,0xfc,0x03,0x00,0xfc,0x00,0x00,0xf2,0x07,0x00,0x7c,0x04,
 0x00,0xf8,0x03,0x00,0x7e,0x01,0xe0,0xf7,0x03,0x00,0x7e,0x28,0xf0,0xea,0x03,
 0x00,0x7e,0x3f,0x40,0xd2,0x03,0x00,0x7e,0x81,0x18,0xd0,0x0b,0x00,0x7c,0x40,
 0x00,0xac,0x03,0x00,0x3c,0x09,0xa9,0xc5,0x07,0x00,0xb8,0x44,0x19,0xa0,0x03,
 0x00,0x38,0x02,0x81,0xc5,0x03,0x00,0x38,0xa0,0x18,0x30,0x15,0x00,0x20,0x00,
 0x80,0x88,0x2e,0x00,0x30,0x80,0x28,0x44,0x0f,0x00,0x98,0x40,0x10,0xa0,0x26,
 0x00,0x58,0x28,0xa2,0x50,0x1f,0x00,0x38,0x00,0x39,0x48,0x07,0x00,0x78,0x00,
 0xbf,0xa2,0x1f,0x00,0x20,0x85,0xff,0xd9,0x0f,0x00,0xe0,0xe0,0xff,0xa7,0x0f,
 0x00,0xe0,0xf2,0xff,0xd7,0x03,0x00,0x80,0xf0,0xff,0xaf,0x05,0x00,0x00,0xf4,
 0xef,0xaf,0x01,0x00,0x00,0xf2,0xf2,0xef,0x0a,0x00,0x00,0xf0,0x9c,0x16,0x01,
 0x00,0x00,0x74,0x42,0xfa,0x00,0x00,0x00,0x10,0x51,0x2d,0x00,0x00,0x00,0x48,
 0x44,0x1f,0x02,0x00,0x00,0x50,0xb3,0xab,0x00,0x00,0x00,0xa0,0xd4,0x4d,0x00,
 0x00,0x00,0x00,0x6f,0x27,0x00,0x00,0x00,0xa0,0xb2,0x29,0x00,0x00,0x00,0x00,
 0xd9,0x06,0x00};
