#define face_width 48
#define face_height 48
static unsigned char face_bits[] = {
 0x00,0x00,0x80,0x2a,0x00,0x00,0x00,0x00,0x20,0x91,0x00,0x00,0x00,0x00,0x40,
 0x26,0x00,0x00,0x00,0x00,0x40,0x49,0x00,0x00,0x00,0x00,0x50,0x15,0x00,0x00,
 0x00,0x00,0x50,0x02,0x00,0x00,0x00,0x00,0xa4,0x14,0x00,0x00,0x00,0x00,0x10,
 0x05,0x00,0x00,0x00,0x00,0xea,0x03,0x00,0x00,0x00,0x00,0xfa,0x0f,0x00,0x00,
 0x00,0x80,0x5c,0x0d,0x00,0x00,0x00,0x00,0xfa,0x7f,0x00,0x00,0x00,0x40,0x05,
 0xb5,0x00,0x00,0x00,0x00,0xa9,0xfe,0x00,0x00,0x00,0xa0,0x01,0xfd,0x03,0x00,
 0x00,0x80,0x08,0xfc,0x03,0x00,0x00,0xa8,0x22,0xfd,0x03,0x00,0x00,0x90,0x01,
 0xf8,0x03,0x00,0x00,0xe4,0x00,0xe2,0x03,0x00,0x00,0x90,0x55,0xd4,0x03,0x00,
 0x00,0xea,0x00,0xd9,0x03,0x00,0x00,0x92,0x34,0xb5,0x03,0x00,0x80,0xa4,0x40,
 0xd2,0x03,0x00,0x00,0x12,0x14,0x55,0x03,0x00,0x80,0x54,0x40,0xd3,0x03,0x00,
 0x00,0x2a,0x08,0xa5,0x02,0x00,0x00,0x88,0x00,0xd1,0x01,0x00,0x00,0x22,0x44,
 0x24,0x00,0x00,0x40,0x09,0x10,0x53,0x00,0x00,0x00,0x08,0x80,0x24,0x00,0x00,
 0x00,0x02,0x44,0x2a,0x00,0x00,0x00,0x08,0x00,0x51,0x00,0x00,0x00,0x01,0x08,
 0x3c,0x00,0x00,0x00,0x00,0x20,0x55,0x00,0x00,0x00,0x00,0x80,0x4a,0x00,0x00,
 0x00,0x00,0x20,0x28,0x00,0x00,0x00,0x00,0x04,0xd2,0x01,0x00,0x00,0x00,0x40,
 0x08,0x03,0x00,0x00,0x00,0x04,0xa5,0x80,0x00,0x00,0x80,0x20,0x08,0x95,0x00,
 0x00,0x00,0x88,0x24,0x00,0x00,0x00,0x10,0x01,0x41,0x92,0x00,0x00,0x00,0x20,
 0x14,0x00,0x00,0x00,0x84,0x00,0x81,0x24,0x00,0x80,0x00,0x02,0x04,0x00,0x00,
 0x00,0x10,0x88,0x20,0x89,0x00,0x00,0x01,0x00,0x08,0x00,0x00,0x00,0x90,0x10,
 0x82,0xa4,0x00};
