#define noname_width 48
#define noname_height 48
static char noname_bits[] = {
 0x00,0x00,0x00,0x00,0x00,0x00,0x00,0x00,0x80,0x06,0x00,0x00,0x00,0x00,0xa0,
 0x0a,0x00,0x00,0x00,0x00,0x50,0x75,0x00,0x00,0x00,0x00,0xac,0xaa,0x00,0x00,
 0x00,0x00,0x55,0x55,0x11,0x00,0x00,0x00,0xaa,0xaa,0x02,0x01,0x00,0x00,0x55,
 0x6d,0x01,0x00,0x00,0x80,0x6a,0x55,0x03,0x00,0x00,0x80,0x56,0x55,0x05,0x06,
 0x00,0x80,0xaa,0xba,0xa5,0x0f,0x00,0x00,0xad,0xca,0xf6,0x0f,0x80,0x80,0xab,
 0xfe,0xff,0x0f,0x40,0xaf,0xfa,0xff,0xff,0x0f,0xc0,0xfb,0xff,0xff,0xff,0x0f,
 0x40,0xff,0xff,0xff,0xff,0x07,0x80,0xff,0xff,0xff,0xff,0x03,0x80,0xff,0xff,
 0xff,0xff,0x07,0x00,0xfb,0xff,0xf7,0xff,0x01,0x00,0xfe,0xdd,0x7e,0xff,0x03,
 0x00,0xff,0xff,0xfb,0xff,0x00,0x00,0xfc,0xfb,0xfd,0xfd,0x00,0x00,0xf8,0x05,
 0x88,0x7e,0x00,0x00,0xf0,0x5b,0x55,0x3d,0x00,0x00,0xd0,0xa4,0x58,0x0e,0x02,
 0x00,0xc0,0x93,0xaa,0x1d,0x00,0x00,0x00,0x45,0x9d,0x0e,0x00,0x40,0x00,0x13,
 0x2e,0x8d,0x00,0x00,0x00,0xa5,0xde,0x0e,0x00,0x00,0x00,0x4b,0xf3,0x0e,0x02,
 0x00,0x22,0xef,0xdf,0x0f,0x00,0x20,0x00,0xae,0xa0,0x2e,0x00,0x00,0x00,0xae,
 0x5e,0x1f,0x02,0x08,0x10,0x5e,0xc9,0x3f,0x00,0x80,0x00,0xbf,0xe4,0x5f,0x01,
 0x00,0x80,0x7e,0xd5,0xbf,0x0a,0x10,0x50,0xfd,0xfb,0x4f,0x05,0x00,0xa4,0xfe,
 0xff,0x5f,0x0a,0x20,0xaa,0xfe,0xff,0xb7,0x05,0x88,0x52,0xfb,0xff,0x77,0x0a,
 0xa0,0xac,0xef,0xff,0x9b,0x05,0x48,0x52,0xf7,0xff,0xce,0x0a,0xa0,0x59,0xa9,
 0xfb,0x21,0x05,0x88,0xa4,0x4a,0x2d,0xd5,0x0a,0x28,0x59,0x29,0x65,0x51,0x05,
 0x48,0xa5,0xa2,0x54,0x2a,0x05,0x90,0xaa,0x94,0x2a,0x69,0x09,0x88,0x52,0x53,
 0x94,0xaa,0x04};
