#define noname_width 48
#define noname_height 48
static char noname_bits[] = {
 0x00,0x00,0x00,0x00,0x00,0x00,0x00,0x00,0x00,0x00,0x00,0x00,0x00,0x00,0xc0,
 0x03,0x00,0x00,0x00,0x00,0xff,0x1f,0x00,0x00,0x00,0x80,0xff,0x3f,0x00,0x00,
 0x00,0xc0,0xff,0x7f,0x01,0x00,0x00,0xe0,0xff,0xff,0x01,0x00,0x00,0xf0,0xff,
 0xff,0x0f,0x00,0x00,0xff,0xff,0xff,0x1f,0x00,0x80,0xff,0xff,0xff,0x3f,0x00,
 0xc0,0xff,0xff,0xff,0x3f,0x00,0xe0,0xff,0xff,0xff,0x1f,0x00,0xc0,0xff,0xff,
 0xff,0x3f,0x00,0xc0,0xff,0xff,0xff,0x7f,0x00,0xe0,0xff,0xff,0xff,0xff,0x00,
 0xc0,0xff,0x7f,0xe8,0xff,0x01,0xe0,0x7f,0x01,0xf2,0xff,0x01,0xe0,0xff,0x2a,
 0xd9,0xff,0x03,0xe0,0x7f,0x05,0xec,0xff,0x01,0xe0,0x7f,0x81,0x52,0xff,0x01,
 0xe0,0xbf,0x04,0xe8,0xff,0x01,0xe0,0x5f,0x42,0xa0,0xfe,0x07,0xe0,0xaf,0x01,
 0x7e,0xff,0x07,0xe0,0xff,0x55,0xff,0xff,0x07,0xc0,0xef,0xaf,0xaf,0xfe,0x07,
 0xc0,0xff,0x8f,0xff,0xff,0x07,0xc0,0xb7,0x8d,0xf3,0xff,0x07,0x80,0xff,0xaf,
 0xbd,0xfc,0x07,0x00,0xa7,0x92,0x4a,0xfb,0x07,0x00,0x56,0x59,0xa5,0xfc,0x03,
 0x00,0x16,0x8c,0x12,0xfa,0x02,0x00,0xae,0x0a,0x89,0xfd,0x00,0x00,0x16,0xd4,
 0x46,0x7e,0x00,0x00,0x6e,0xbd,0x53,0x2b,0x00,0x00,0x98,0xfa,0x43,0x2f,0x00,
 0x00,0x64,0xa9,0xb4,0x39,0x00,0x00,0x58,0x55,0xcb,0x1e,0x00,0x00,0xb0,0xfa,
 0xab,0x1a,0x00,0x00,0x40,0xff,0xdf,0x0a,0x00,0x00,0xa0,0xbd,0x6e,0x0f,0x00,
 0x00,0xc0,0xfe,0xf7,0x05,0x00,0x00,0x40,0xfb,0xbf,0x06,0x00,0x00,0x80,0xad,
 0xea,0x07,0x00,0x00,0x80,0x56,0x75,0x03,0x00,0x00,0x00,0x5f,0xba,0x07,0x00,
 0x00,0x00,0xab,0xff,0x0b,0x00,0x00,0x00,0xff,0xff,0x05,0x00,0x00,0x00,0xfd,
 0xff,0x0e,0x00};
