#define noname_width 48
#define noname_height 48
static char noname_bits[] = {
 0x00,0x00,0x40,0x00,0x00,0x00,0x00,0x00,0x7a,0x03,0x20,0x01,0x00,0x00,0xaa,
 0x0f,0x00,0x00,0x00,0x00,0xfd,0x3d,0x10,0x01,0x00,0x60,0xa2,0x7f,0x40,0x00,
 0x00,0xc0,0xff,0xea,0x04,0x00,0x00,0x60,0xfd,0xfd,0x00,0x01,0x00,0xc0,0xd2,
 0xff,0x21,0x00,0x00,0x66,0x20,0xff,0x01,0x00,0x00,0xf2,0x82,0xf4,0x03,0x01,
 0x00,0x3b,0x00,0xf8,0x03,0x00,0x00,0xbe,0x02,0xd0,0x43,0x00,0x00,0x5b,0x40,
 0xe2,0x01,0x02,0x00,0x7e,0x11,0x50,0x01,0x00,0x00,0xbe,0x84,0xaa,0x21,0x00,
 0x00,0x7e,0x01,0x60,0x81,0x00,0x00,0x5e,0x49,0xd5,0x00,0x00,0x00,0x5a,0xa5,
 0xb4,0x00,0x00,0x00,0xbc,0xba,0xfe,0x00,0x01,0x00,0xb4,0xee,0xfc,0x20,0x00,
 0x00,0x5a,0x19,0xa6,0x00,0x00,0x00,0xa4,0xa4,0xd4,0x80,0x00,0x00,0x74,0x42,
 0xad,0x10,0x00,0x00,0x58,0x91,0xd4,0x00,0x00,0x00,0x68,0xb5,0x7c,0x44,0x02,
 0x00,0xb0,0xaa,0xdf,0x00,0x00,0x00,0x68,0x5b,0x75,0x10,0x01,0x00,0xb0,0xaa,
 0x7e,0x02,0x00,0x00,0x68,0xbd,0x2e,0x20,0x01,0x00,0xa0,0xc5,0x75,0x08,0x00,
 0x00,0xc0,0x5a,0x1f,0xa2,0x00,0x00,0x00,0x55,0x35,0x00,0x01,0x00,0x00,0xab,
 0x0d,0x09,0x00,0x00,0x01,0x54,0x1a,0x40,0x01,0x00,0x00,0xac,0x45,0x12,0x00,
 0x00,0x00,0xf0,0x0f,0x00,0x01,0x00,0x00,0xa8,0x43,0x2a,0x00,0x00,0x00,0x40,
 0x07,0x40,0x01,0x00,0x00,0x54,0x95,0x0a,0x00,0x00,0x00,0x00,0x25,0x40,0x01,
 0x00,0x0d,0xa8,0x84,0x0a,0x00,0x80,0x30,0x02,0x2d,0x50,0x01,0x00,0x60,0xa8,
 0x9c,0x02,0x02,0x00,0x80,0x00,0x39,0xa8,0x00,0x00,0x00,0x49,0x9c,0x02,0x02,
 0x00,0x00,0x22,0x78,0xa0,0x00,0x00,0x00,0xa8,0x3c,0x15,0x02,0x00,0x11,0x52,
 0xfd,0x4a,0x01};
