/* XPM */
static char *noname_xpm[] = {
/* width height ncolors chars_per_pixel */
"48 48 17 1",
/* colors */
"` c black",
"a c grey33",
"b c grey47",
"c c grey40",
"d c grey87",
"e c grey80",
"f c grey73",
"g c grey27",
"h c grey20",
"i c grey13",
"j c grey67",
"k c grey60",
"l c grey53",
"m c white",
"n c grey93",
"o c grey7",
"p s None c None",
/* pixels */
"ppppppkkkjkkkkklbblllllblkklllkklbbbblllllpppppp",
"pppppplkjkjkjkklbllkkllbllkklkkllbbbblllllpppppp",
"pppppplkkjkjkkkllllklllblkklklkklblbblllllpppppp",
"ppppppkkkkjkkjklllllkklblkkklkkkllbbllllllpppppp",
"pppppplkjkjkjkklllkkkllblkkkkkkllllllllklkpppppp",
"ppppppkkkkjkkjklllllkbahhgcgabkklllbllklklpppppp",
"ppppppkkkjjkjkklllkkbi````````gbklllllklklpppppp",
"ppppppkkkkjkjjkllklao````o`````ocllllklkklpppppp",
"ppppppkkkjkjkjklllgo`````ho``````alllkklklpppppp",
"ppppppkkkjkjjkkklc``````ici```````glklklklpppppp",
"ppppppkkkkjkjkklc`````oogbg````````clkkkllpppppp",
"pppppplkkkjkjjkbo````ogbfdjh```````illklklpppppp",
"pppppplkkjjkjklh`````gjdnmnl````````ckkkllpppppp",
"pppppplkkkjkjjb`````hjnmmmmdc```````iklklbpppppp",
"pppppplkkjkjjkg```hgfdnmmmmmdbaao```olklllpppppp",
"pppppplkkkjkjkh``objednmmmmndfjlh````akklbpppppp",
"pppppplkkkjkjlo``oljenmmmmmmdfjlh````hlllbpppppp",
"pppppplkkkkjjl```ilfdnmmmmmmnefbg````olklbpppppp",
"pppppplkkjjkjl```hlkffdnnnejkllba`````blbbpppppp",
"pppppplkkkkjjl```acaaabfeflcabccch````clbbpppppp",
"pppppplkkjjjjko`occahgaleflcghclba````lllbpppppp",
"pppppplkkkjkjji`olkbclkldfjjlkkfka```illlcpppppp",
"ppppppkkkkjjjkgohkeffffkefjeefeejaho`cklbcpppppp",
"pppppplkkkjkjjlacleddddkejjeddefkaaahllbbcpppppp",
"pppppplkkkjjjkklllfendekefkjeddjlgaacllbccpppppp",
"ppppppllkkkkjkklbbjefllkeklbkjfkbggallbbccpppppp",
"pppppplkkkkjjkkllcljkkcgaaabkljlaghbbbbbcapppppp",
"ppppppllkkjkjkkllablkbbbblkllllbcgbbbbbbcapppppp",
"pppppplkkkkkjklllcclbacllllcabkbcabbbbbccapppppp",
"pppppplkkkjkkklllcckkaabkklbckjccalbbbbccapppppp",
"ppppppllkkkjkkkllbabllbllkbblklcgabbbbccaapppppp",
"ppppppllkkkkkkllllacllbbllbbllbcgicbbcbcaapppppp",
"ppppppllkkkkkkllllbacllbbbbllbcghiabbcccaapppppp",
"pppppplllkkkkklblbbaabkkkkklbaggghcbccccagpppppp",
"pppppplllklkkllbblbchabbllbbgghaaacccccaagpppppp",
"ppppppllllklkllbbbbbghgaaaahihaccbcalccaagpppppp",
"ppppppblllklklbbbbbahhiioioihabbbccbkkkbcapppppp",
"ppppppblllllllbbbccghahhhhhgabbbbcblllljkbpppppp",
"ppppppblllklklbbcclhogggagacbbbkclblkfllkjpppppp",
"ppppppbblllllbbbcllgoaggacbbbljbbbbbjljkljpppppp",
"ppppppbbllllblbbbblaogaaccbbbkjcccblflfkllpppppp",
"ppppppbblbllkblbbllchhaaccbbcebaabcjkkflflpppppp",
"ppppppbbllkljblbbhacchacaccbakcabklflejkflpppppp",
"ppppppbllkkjklblccbblaabccccigacbkfkkekjkjpppppp",
"pppppplkkjbfbkbccccckccbbcgaohcbklflfjkfkepppppp",
"ppppppljlfbjbjcbccccbjbbccagogcckjjlekkjfjpppppp",
"ppppppkfkebkljclcabcbbcbbchhalbllekkekfkelpppppp",
"ppppppclckccbbacggaglbagahhaglabbkckbbllkcpppppp"
};
