/* XPM */
static char *noname_xpm[] = {
/* width height ncolors chars_per_pixel */
"48 48 11 1",
/* colors */
"` c grey47",
"a c grey40",
"b c grey87",
"c c grey80",
"d c grey73",
"e c grey67",
"f c grey60",
"g c grey53",
"h c white",
"i c grey93",
"j s None c None",
/* pixels */
"jjjjjjhhhhhhhhhhiiiiiiiiiiiiiiiihhhhhhhhhijjjjjj",
"jjjjjjhhhhhhhhhhiiiiiiiiiiiiiiihhhhhhhhhhijjjjjj",
"jjjjjjhhhhhhhhhhhhhhhhhihhhihhhhhhhhhhhhhijjjjjj",
"jjjjjjhhhhhhhhhhhicdefgggfebhihhhhhhhhhhhijjjjjj",
"jjjjjjhhhhhhhhihif``````````fbhhhhhhhhhhhijjjjjj",
"jjjjjjhhhhhhiiiif``aa`a`aaaaa`cihhhhhhhhhijjjjjj",
"jjjjjjhhhhhhhibf```aaaaaaaaaaa`ihhhhhhhhhhjjjjjj",
"jjjjjjhhhhhhhc````aaaaaaaaaaaaagihhhhhhhhhjjjjjj",
"jjjjjjhhhhhhhg```aaaaaaaaaaaaaa`chhhhhhhhhjjjjjj",
"jjjjjjhhhhhhb````aaaaaaaaaaaaaaaehhhhhhhhhjjjjjj",
"jjjjjjhhhhhhd```aaaaaaaaaaaaaaaagihhhhhhhhjjjjjj",
"jjjjjjhhhhhhgaa`a``aaaaaa`aaaaaaaehhhhhhhhjjjjjj",
"jjjjjjhhhhhigaa````geddeg`aaaaaaagihhhhhhhjjjjjj",
"jjjjjjhhhhhhg`a````fcbccdefg`aaaa`ihhhhhhhjjjjjj",
"jjjjjjhhhhhhg```gffecccccdef`aaaa`bhhhhhhhjjjjjj",
"jjjjjjihhhhhe``fffedccccdeg``aaaagihhhhhhhjjjjjj",
"jjjjjjihhhhhc``fdcdedcdfgffg`aaaagihhhhhhhjjjjjj",
"jjjjjjihhhhhb``dedgdccegeggg``aaa`bhhhhhhhjjjjjj",
"jjjjjjihhhhhc`gcddedccf`effgf`aaagihhhhhhhjjjjjj",
"jjjjjjihhihhd`fccccccdf`dcdefgaaaehhhhhhhhjjjjjj",
"jjjjjjihihhhe`ecbbbbccf`fccdeg`aafhhhhhhhhjjjjjj",
"jjjjjjhhihhhcgcbhibbcbf`gccceg`aafhhhhhhhhjjjjjj",
"jjjjjjhhhhhhbgcbhhhbddgfdccdf``aafhhhhhhhhjjjjjj",
"jjjjjjihhihhcgdbbbbcddfgdcddf``aaehhhhhhhhjjjjjj",
"jjjjjjihhihhe`gcbbcdeee`gedef`aaachhhhhhhhjjjjjj",
"jjjjjjiiiiihd``cbcddeefggfdfg`aa`bhhhhhhhhjjjjjj",
"jjjjjjiiiiihif`dccccddeffddf`a`a`bhhhhhhhhjjjjjj",
"jjjjjjhhiiiiiiffcccccdddedeg`aaaghhhhhhhhhjjjjjj",
"jjjjjjhhiiiiihf`dcccccdddeg`aaagchhhhhhhhhjjjjjj",
"jjjjjjhhiiiiii`aeccccccdfg`aaa`bhhhhhhhhhhjjjjjj",
"jjjjjjiiiiiiid`a`cddccdeg`aaaaafihhhhhhhhhjjjjjj",
"jjjjjjiiiiic`aaaaecefef`aa`aaaaa`eihhhhhhhjjjjjj",
"jjjjjjiibcd`aaaaagcccdfggff`aaaaaa`gchhhhhjjjjjj",
"jjjjjjdg`aaaaaaaaadbccddeefaaaaaaaaaa`ecchjjjjjj",
"jjjjjj`aaaaaaaaaaa`eccccde`aaaaaaaaaaaa`fhjjjjjj",
"jjjjjjaaaaaaaaaaaaaaagfffgaaaaaaaaaaaaa`ghjjjjjj",
"jjjjjjaaaaaaaaaaaaaaaaaaaaaaaaaaaaaa`aa`fhjjjjjj",
"jjjjjjaaaaaaaaaaaaaaaaaaaaaaaaaaaaaaaaa`ghjjjjjj",
"jjjjjjaaaaaaaaaaaaaaa```aaaaaaaaaaaaaaa`ghjjjjjj",
"jjjjjjaaaaaaaaaaaaaaaa```aaaaaaaaa`aaaa`fhjjjjjj",
"jjjjjjaaaaaaaaaaaaaaaaa`aaa`aaaaaaaaaa``ghjjjjjj",
"jjjjjjaaaaaaaaaaaaaaaaa`````aaaaaaaa``a`fhjjjjjj",
"jjjjjjaaaaaaaaaaaaaaaaaa`a`aaaaaaa```aa`fhjjjjjj",
"jjjjjjaaaaaaaaaaaaaaaaaaaa`aaaaaa``aaaa`ghjjjjjj",
"jjjjjjaaaaaaaaaaaaaaaaaaaaaa````a`aaaa``fhjjjjjj",
"jjjjjjaaaaaaaaaaaaaaaaaaaaaa```aaaaaaa``fhjjjjjj",
"jjjjjjaaaaaaaaaaaaaaaaaaaaaaa`aaaaaaa```fhjjjjjj",
"jjjjjj````a`aaaaaaaaaaaaaaaaaaaaa```````fhjjjjjj"
};
