#define noname_width 48
#define noname_height 48
static char noname_bits[] = {
 0x40,0x55,0x5d,0xbe,0x4a,0x02,0x80,0xaa,0xee,0xd5,0x2f,0x01,0x80,0x54,0xfb,
 0xff,0x57,0x02,0x40,0xa5,0xbf,0xff,0x2f,0x01,0x80,0xea,0xff,0xff,0x5f,0x02,
 0x40,0xd5,0xfe,0xff,0x5f,0x01,0x80,0xf4,0xff,0xff,0xbf,0x00,0x40,0xd5,0xf7,
 0xff,0x7f,0x02,0x80,0xfa,0xff,0xff,0xbf,0x00,0x40,0xf5,0xff,0xff,0x7f,0x02,
 0x80,0xfa,0xdb,0xff,0x7f,0x01,0x80,0xfc,0xff,0xff,0xff,0x00,0x40,0xfd,0xff,
 0xff,0x7f,0x01,0x00,0xfd,0x7f,0xfb,0xff,0x02,0x40,0x7d,0x85,0xe8,0x7f,0x00,
 0x80,0x7e,0x01,0xa2,0xfe,0x02,0x40,0xfd,0x17,0xbe,0xff,0x01,0x40,0xfe,0x9a,
 0x59,0xfd,0x01,0x80,0x5e,0x6f,0xef,0xfe,0x00,0x40,0xfd,0xb5,0x52,0xfd,0x02,
 0x80,0xbe,0xaa,0x54,0x7d,0x01,0x40,0x59,0x91,0x01,0x7d,0x01,0x80,0xbe,0x10,
 0xa5,0x7e,0x02,0x40,0xb9,0x4c,0x09,0x55,0x01,0x80,0xaa,0x92,0xa2,0x5a,0x01,
 0x40,0x6a,0xa8,0x0a,0x2d,0x01,0x80,0xaa,0x55,0xa9,0xb6,0x02,0x40,0x55,0xaa,
 0x4a,0x5d,0x01,0x80,0xd2,0x0a,0x95,0x56,0x02,0x80,0xaa,0xfa,0xad,0x5a,0x01,
 0x40,0xaa,0x54,0x43,0x9f,0x02,0x80,0xaa,0x53,0x54,0x55,0x01,0x40,0x55,0x55,
 0xa5,0x8a,0x02,0x80,0x4a,0x4b,0xa9,0x26,0x01,0x80,0x54,0x95,0xd4,0x02,0x02,
 0x80,0xaa,0x2e,0x52,0x09,0x01,0x40,0x55,0x55,0x6d,0x41,0x00,0x80,0xaa,0x78,
 0xb5,0x00,0x00,0x80,0x92,0xec,0x5f,0x00,0x00,0x40,0x55,0x7a,0x37,0x00,0x00,
 0x80,0x2a,0xec,0x1d,0x00,0x00,0x40,0x15,0x75,0x0f,0x00,0x00,0x80,0x2a,0xac,
 0x01,0x10,0x00,0x40,0x15,0xa8,0x1a,0x00,0x00,0x80,0x42,0x52,0x2d,0x00,0x00,
 0x40,0x01,0x51,0xab,0x00,0x00,0x80,0x48,0xa5,0x02,0x09,0x00,0x40,0x93,0xaa,
 0xaa,0x24,0x01};
