/* XPM */
static char *noname_xpm[] = {
/* width height ncolors chars_per_pixel */
"48 48 17 1",
/* colors */
"` c black",
"a c grey33",
"b c grey47",
"c c grey40",
"d c grey87",
"e c grey80",
"f c grey73",
"g c grey27",
"h c grey20",
"i c grey13",
"j c grey67",
"k c grey60",
"l c grey53",
"m c white",
"n c grey93",
"o c grey7",
"p s None c None",
/* pixels */
"ppppppacaacaacaaccbbbbbcccaccccaaccccacaccpppppp",
"ppppppaacaacaaaacbbblbbcccccccacaccccacaccpppppp",
"ppppppacacaaacaabcbbbbbcccccbccacccccacaccpppppp",
"ppppppaacaaacaaccbbblbbcccccbccacccccaccccpppppp",
"ppppppacaacaacacbbbbcchhggabbcccccbcccacccpppppp",
"ppppppacaaacacaccbgio`````ogccccccbcccccccpppppp",
"ppppppacacaacaccai````oio```iaccccbbccacccpppppp",
"ppppppacaaaacagio````ohcaho```igccbccccccbpppppp",
"ppppppaacacaah`````ogaacbaiho```gbbbccccccpppppp",
"ppppppacacacg`````oaccbllbblcg``hbbbccccccpppppp",
"ppppppacacaa`````ogcbljjfffjkci``abccccccbpppppp",
"ppppppacaccg`````hacbjffeefjkbgo`ocbccccccpppppp",
"ppppppacccai````ogabljeeddejjlci``gccccccbpppppp",
"ppppppaccaci````ohclkjeedeefjkch``hcccccccpppppp",
"ppppppacccao`````hcbkjfeeeefjkbg``icccccccpppppp",
"ppppppcaccci````ohcljjefeeffjlbg``hcccccccpppppp",
"ppppppccccah````ihclkjfeedefjkbg``gcccccccpppppp",
"ppppppcaccch```ohhhhhgbjjfjjklcg``hccaccccpppppp",
"ppppppacccag```igghhhioakkbgiiii``acccacaapppppp",
"ppppppacaccgh``hbbhiohigljgo`ihio`accacccapppppp",
"ppppppcacacaho`hbllbbcccljaahiogooccaaacacpppppp",
"ppppppaccaahh`ohclkjjjlblkcllbcbihccacaacapppppp",
"ppppppacacaii``hcbkeffbclkcljjlcihccaaacaapppppp",
"ppppppcacaaoo``habkfjbcbkjclejkcihcaaaaaaapppppp",
"ppppppacacag```ogclbbcghgcgckjlaogcaaacaagpppppp",
"ppppppcacacai```iacacaio`oogclbg`aaaaaacagpppppp",
"ppppppacaccco```oaao```````igago`aaaaaaaagpppppp",
"ppppppcacacch````ig````oo```ogi``aaaagaaggpppppp",
"ppppppaacacjh`````i`gghghio`oh``oaagggaaggpppppp",
"ppppppcacckfg``````ocaaaagai`o``iaaagggaghpppppp",
"ppppppacbkefg```````gahoihah````gaggggggghpppppp",
"ppppppclffnea```````iahhhgg````oaaggggggghpppppp",
"ppppppfddnnek````````ighhhi````iaggghggghhpppppp",
"ppppppmnnmmdjh`````````o```````hagghghgghhpppppp",
"ppppppmmmmmnflo```````````````igaghhhghghipppppp",
"ppppppmmmmmmdjbi`````````````oggggghhhghhipppppp",
"ppppppnnnmmmmefki```````````hllcgghghhghhipppppp",
"ppppppnmnmmmmmdeki`````````hlkllbaghghhghipppppp",
"ppppppmnmnmmmmmnnkh``````ooljjkkkklbghghhipppppp",
"ppppppmmmmmmmmmmmnfaiooihholffkkkjkjjahhhopppppp",
"ppppppmnmmmmmmmmmmnfcagggholefejjjfjefchhopppppp",
"ppppppmmnnmmmmmmmmmdflaaaahjddejkjffeeeghopppppp",
"ppppppmmmnnmmndefjbedekbbbaednmnjlkfdenfiipppppp",
"ppppppmmmmmmnnnndedfkenellbdnmnekjjffnddaopppppp",
"ppppppmmmmmnmmnndddnnjjmnjlemnfkkjffeeddkipppppp",
"ppppppmmmmmmmmmnnddnmmfjdmkfmefjfeeeeeedjgpppppp",
"ppppppmmmmmmmmnmndnnnmmnndnenfeeedddddedfbpppppp",
"ppppppdeeeeeeefeffffffeeeeeeekjjjjjfjjjkkapppppp"
};
