/*
 * @(#)$Header: /n/opus/u/guest/william/src/tgif/v3/xbm/RCS/pat10.xbm,v 3.0 1996/05/06 16:15:29 william Exp $
 */
#define pat10_width 8
#define pat10_height 8
static unsigned char pat10_bits[] = {
   0xee, 0xff, 0xff, 0xff, 0xbb, 0xff, 0xff, 0xff};
