/*
 * @(#)$Header: /n/opus/u/guest/william/src/tgif/v3/xbm/RCS/pat16.xbm,v 3.0 1996/05/06 16:15:37 william Exp $
 */
#define pat16_width 8
#define pat16_height 8
static unsigned char pat16_bits[] = {
   0x1f, 0x2e, 0x44, 0xe2, 0xf1, 0xe8, 0x44, 0x8e};
