/*
 * @(#)$Header: /n/opus/u/guest/william/src/tgif/v3/xbm/RCS/pat8.xbm,v 3.0 1996/05/06 16:16:12 william Exp $
 */
#define pat8_width 8
#define pat8_height 8
static unsigned char pat8_bits[] = {
   0xee, 0xbb, 0xee, 0xbb, 0xee, 0xbb, 0xee, 0xbb};
