/* XPM */
static char *noname_xpm[] = {
/* width height ncolors chars_per_pixel */
"48 48 17 1",
/* colors */
"` c black",
"a c grey33",
"b c grey47",
"c c grey40",
"d c grey87",
"e c grey80",
"f c grey73",
"g c grey27",
"h c grey20",
"i c grey13",
"j c grey67",
"k c grey60",
"l c grey53",
"m c white",
"n c grey93",
"o c grey7",
"p s None c None",
/* pixels */
"pppppphhhhhhhhgghoooihccblbagggghghghgghhhpppppp",
"pppppphghghhghghi```ooihgaaghghgghgggghgghpppppp",
"pppppphhhhghhhiii````oooihagoohggghghgghhgpppppp",
"ppppppghghhhi`ho`````````ooooo`ihggggghgghpppppp",
"pppppphghhho```````ooooo`o`o``o`igggggghghpppppp",
"ppppppghhho``````iablkkkbgo``````hggggggghpppppp",
"pppppphghi````o`hbljfdnnnelh`o````hgggghggpppppp",
"pppppphgho````oicljffdnmmmmecioo``oaagggggpppppp",
"ppppppghg````oohbljjeenmmmmmnflho``ggaggggpppppp",
"ppppppghh````oogblkffdnnmmmmmndjlo`hagagggpppppp",
"pppppphgh````oigblkffennnmmmmmnejc`iaaagggpppppp",
"ppppppghgo```oogbkkjeedddnmmmnndflo`aaaaggpppppp",
"ppppppghh`````ogbkkjfeddeddnnndejka`gaaaagpppppp",
"pppppphgi`````oalkjkjeddndddndefjkb`haagagpppppp",
"ppppppggo````oicbkkjeednnndededefkbiiaaaagpppppp",
"pppppphgo`````hclljjffeeddndddddfkbihcaagapppppp",
"ppppppggo````ogbbblcgacclkfeefefjkbohaaaaapppppp",
"ppppppgago```oabcaggghioigbjklbccccoacaaaapppppp",
"ppppppgaah```gcbcghhihhiihckbhioooiiaaaaaapppppp",
"ppppppgcaioooabllahiioghhgkkcioiihihccaaaapppppp",
"ppppppgcaaghhcbkfkcacaccaajecgioioigcacaaapppppp",
"ppppppgcccacaabkfejbccccbbjebacagigaacaaaapppppp",
"ppppppgccagcccclfeeefkjjlkfdlcaagacccaacaapppppp",
"ppppppgabbaaccclkfenddefkkfelblcccbcacaaaapppppp",
"ppppppggclcacccllkfedefbbbfejbjjklbcaacaaapppppp",
"ppppppgggahaccbbbbkjjkbcklfdjckfjkbaccaaaapppppp",
"ppppppggag`gacblbclbbcbcccljkaakjlccaacaaapppppp",
"ppppppagggihaablbbbccbkbgogcabaclbaccaaaaapppppp",
"ppppppgggaghaacllllcclllcghaacaacaccaaaaaapppppp",
"ppppppggagghggabblkbaacbbllbccaaacacacaaaapppppp",
"ppppppggggggggaccbkkklbccacagaabcccacaaaagpppppp",
"ppppppggggghgggaccblkklllblbcblbcacaaaaaaapppppp",
"ppppppggaggggggaaacbllbblllccbbcaacaaaaaagpppppp",
"ppppppagcagggggagaabblbcaaaabcaaaaacaaaaagpppppp",
"ppppppgbhihgggaaaggablklbccccaaaacaaaaaagapppppp",
"ppppppgkihgaagggaagaclkkklllcgaaaaaaaaaaggpppppp",
"ppppppcjahgaagggaaggcblbbbbcaaaacaaaaaagagpppppp",
"pppppplfjaaccaghhaaggaacaacaaaaaaaaaaagaggpppppp",
"ppppppjenjcaccaghhhgghgggggaaaaaaaaaagagagpppppp",
"ppppppednmjccccgghihhghhhgabaaaaaaagaagaggpppppp",
"ppppppdddmmjbcbcagghhhhggaaklaaaaaaagaagggpppppp",
"ppppppnnnnmmebbbbagggaaacaalfekbaagaaggaggpppppp",
"ppppppmmnnmmmdlbbbcaaaccaccbjdnndkaagaggggpppppp",
"ppppppmmmnnmmmdkbbcccccccccbjjfedmdbaagaggpppppp",
"ppppppmmmmnnmmmnkbbbbcacccblfblffdmdfbggggpppppp",
"ppppppmnmmmmnmmmnjblbccbbcbkdjlfefeedmbaggpppppp",
"ppppppmmnmmmmnmmmmekkllllclekkkfffeeenncggpppppp",
"ppppppeejfeeeefffefbcbccacbbccblkllkkjfkhhpppppp"
};
