#define noname_width 48
#define noname_height 48
static char noname_bits[] = {
 0x00,0x00,0x00,0x00,0x00,0x00,0x00,0x00,0x00,0x00,0x00,0x00,0x00,0x00,0x00,
 0x00,0x00,0x00,0x00,0x00,0x00,0xec,0x03,0x00,0x00,0x00,0x00,0xdb,0x06,0x00,
 0x00,0x00,0x80,0xa4,0x0f,0x00,0x00,0x00,0x7a,0x80,0x1a,0x00,0x00,0x80,0x14,
 0x50,0x1f,0x00,0x00,0x40,0x0f,0x00,0x2d,0x00,0x00,0xe0,0x05,0x80,0x3e,0x00,
 0x00,0xe0,0x03,0xa0,0x3e,0x00,0x00,0x70,0x01,0x00,0x7d,0x00,0x00,0xe0,0x04,
 0x40,0x7d,0x00,0x00,0xf0,0x01,0x40,0xfd,0x00,0x00,0x70,0x01,0xa8,0xfe,0x00,
 0x00,0xf0,0x3e,0x7d,0xf9,0x01,0x00,0xf8,0xbb,0xde,0xfe,0x01,0x00,0xf0,0x5c,
 0x24,0x78,0x01,0x00,0x78,0x25,0x88,0x6e,0x01,0x00,0xf0,0x11,0x01,0xd4,0x00,
 0x00,0x78,0x00,0x00,0xeb,0x00,0x00,0xf8,0x23,0x04,0x7a,0x00,0x00,0xf8,0x88,
 0xa2,0x7a,0x00,0x00,0xf8,0x67,0x09,0x75,0x00,0x00,0xf0,0xa8,0x52,0xfd,0x01,
 0x00,0xf0,0xab,0x94,0xfa,0x01,0x00,0xe0,0x5b,0x5b,0xf9,0x03,0x00,0x80,0x57,
 0xa4,0xfa,0x03,0x00,0x80,0xaf,0x5b,0xf9,0x07,0x00,0x80,0xdf,0xaa,0xca,0x0f,
 0x00,0x80,0xb7,0x74,0x05,0x05,0x00,0x80,0x6c,0x5b,0x05,0x00,0x00,0x00,0xfe,
 0x6f,0x01,0x00,0x00,0x00,0x50,0xdd,0x03,0x00,0x00,0x00,0xb0,0x77,0x80,0x00,
 0x00,0x00,0x40,0xff,0x00,0x00,0x00,0x00,0xc0,0x0d,0x20,0x00,0x00,0x00,0x60,
 0x09,0x00,0x00,0x00,0x00,0xa0,0x16,0x0c,0x00,0x00,0x00,0xe0,0xea,0x02,0x00,
 0x00,0x00,0x70,0x01,0x00,0x00,0x00,0x00,0xa0,0x08,0x00,0x00,0x00,0x00,0x50,
 0x40,0x00,0x00,0x00,0x00,0x50,0x00,0x00,0x00,0x00,0x00,0x98,0x2a,0x40,0x00,
 0x00,0x00,0x71,0x00,0x10,0x00,0x00,0x00,0x14,0x05,0x04,0x00,0x00,0xa8,0x78,
 0x55,0x55,0x02};
