#define noname_width 48
#define noname_height 48
static char noname_bits[] = {
 0x00,0x00,0x00,0x00,0x00,0x00,0x00,0x00,0x80,0x04,0x00,0x00,0x00,0x00,0x68,
 0x5f,0x00,0x00,0x00,0x00,0xd4,0xb7,0x00,0x00,0x00,0x00,0xff,0xff,0x01,0x00,
 0x00,0xa0,0xb5,0x7e,0x07,0x00,0x00,0xc0,0xfe,0xfb,0x07,0x00,0x00,0xb0,0x97,
 0xb6,0x0f,0x00,0x00,0xe8,0x00,0xc2,0x1f,0x00,0x00,0xf8,0x01,0x00,0x3e,0x00,
 0x00,0x5c,0x00,0x80,0x3e,0x00,0x00,0x7c,0x00,0x00,0x7e,0x00,0x00,0x3e,0x00,
 0x80,0x7c,0x00,0x00,0x34,0x00,0x00,0x7d,0x00,0x00,0x3e,0x00,0x00,0x7c,0x00,
 0x00,0x3e,0x00,0x00,0x7a,0x00,0x00,0x1f,0x00,0x00,0x7c,0x00,0x00,0x3c,0x3a,
 0xf4,0x7d,0x00,0x00,0x1e,0x40,0x14,0x7d,0x00,0x00,0x1c,0x38,0x74,0x39,0x00,
 0x00,0x1e,0x02,0xc8,0x3a,0x00,0x00,0x10,0x00,0x82,0x18,0x00,0x00,0x08,0x00,
 0x00,0x1a,0x00,0x00,0x10,0x00,0x04,0x08,0x00,0x00,0x00,0x00,0x02,0x15,0x00,
 0x00,0x00,0x90,0x0d,0x0a,0x00,0x00,0x00,0x40,0x12,0x05,0x00,0x00,0x00,0xb0,
 0xac,0x04,0x00,0x00,0x00,0x5c,0x5f,0x05,0x00,0x00,0x00,0x14,0x70,0x02,0x00,
 0x00,0x00,0x08,0x55,0x01,0x00,0x00,0x00,0x40,0x89,0x01,0x00,0x00,0x20,0x00,
 0xa0,0x00,0x00,0x00,0xb0,0x02,0xd4,0x03,0x00,0x00,0x38,0x02,0x6a,0x07,0x00,
 0x00,0x30,0xba,0xfb,0x07,0x00,0x00,0x1c,0xd4,0x5f,0x0f,0x00,0x00,0x18,0xf4,
 0xbf,0x3f,0x00,0x00,0x1c,0xe8,0xab,0x2f,0x00,0x00,0x18,0x54,0x7f,0xfb,0x01,
 0x80,0x9e,0xe8,0xc5,0x6f,0x01,0x40,0x34,0x52,0x3b,0xff,0x03,0x80,0x1c,0x48,
 0xc5,0xb5,0x02,0x80,0x74,0xa0,0xaa,0xfe,0x01,0x00,0x5a,0x10,0xd1,0xf5,0x03,
 0xc0,0xaa,0x42,0x88,0xee,0x02,0x80,0x2c,0x00,0xe0,0x7b,0x03,0xc0,0xbf,0xab,
 0xaa,0xff,0x03};
