/* XPM */
static char * face_xpm[] = {
/* width height ncolors chars_per_pixel */
"48 48 16 1",
/* colors */
" 	s None	c None",
".	c sienna",
"X	c peru",
"o	c gold",
"O	c tan",
"+	c wheat",
"@	c dark slate grey",
"#	c grey",
"$	c black",
"%	c slate grey",
"&	c white",
"*	c lemon chiffon",
"=	c gainsboro",
"-	c lavender",
";	c orange",
":	c navy",
/* pixels */
"          .XXXXXXXXXXXXXXXXXXXXXXXXXXXX.        ",
"        .XXoXooXoXoooXXooXXooXXoXoXoXooXX.      ",
"      .XXoXXXOOOOXOOOOOOOOOOOOOOOOOOOXXXoXX.    ",
"     .XoXX+@@#$@%$$$%@%&&#$$$$@#$@@$@##+XXoX.   ",
"     XXXX%#$@%$$$$$$%@$&&%$$$@$@@$@$@@$&*OXXX.  ",
"    XoX+@$$@$@$$@$$@%$$#&#$$$$$@$$@@@$@#@#+XoX  ",
"   .XX+=@$$$@@$@$$$$$$$#&-$$$$$$%$$%$$%@$$#+oo. ",
"   XoO@$%$$$@%%%%%%%%%%#&&%%%%#%#%%%%$@$$@%#OXX ",
"  .XX%$$$$@%@@@@@@@@@@@@@@@@@@@@@@@@$@@@$%$$+;o ",
"  XoO%$$$@@$%########################%$@$$$@=OX%",
" .XX%$$$$@$###########################%$@$%-&Oo.",
" .Xo@$@$@@#############################%@@=&&+XX",
" .XX#$$$@%#############=################$=&&&OXX",
" .XX&#%%$#####=#####=######=##=###=##=##@@%%%XoX",
" .oX&&&%@###=#####=+####=###########*###%$$@@@XX",
" .XX&&&%@#=%#######%######%###%##########$$%@@;X",
" .oX&&%$@%%%%%%%%%%%%%%%%%%%%%%%%%%%%%%%%$$@$.oX",
" .oX$$$$@%%%%%%%%%%%%%%%%%%%%%%@%%%%%%%%@$$$$@XX",
" .XX$$$$@@@@@@@@@@@@@@@@@@@@@@@@@@@@@@@@@$$@@@oX",
" .oX@$$$::@%%:@%%:%%:@%%:%%:@%%:%%:@%##%:$$@@.;X",
" .;X$$$@::@&-$%&%:==$%&%:=-$%&%@&%:%&&&-@$$$$.oX",
" XXX@@$$::@-&@#&@:-=$#&@@&#$#&%@&@@=&#*&@$$$$@oX",
" .oX$$$@@@%&&@#&@@&%$=&@@&%$=&%%-@@&=$#&@$%%@@XX",
" .XX$$@@@@#&&@&-$%&@@=-$@&%@&&@##$%&#$#&$$$$$@oX",
" .oX@@$$@@=&&@&-$%&@@&#$@&%%#-@-@$#&%$@$$$%#%@XX",
" .XX$$$@@@&&-%&#$%-$@&%$@&%##&@&$@#&@@@@@$$$$@oX",
" X;X@$$$@@&###&%$#-$%&%$@&%&%&%&$@#-$@@@@$$@@@XX",
" .;X%@$$@%&%#&&%@#=$%&@$@&%&@-%#$@--$@#%@$$$$@oX",
" .XX$$$$@%&%#&&@@##$#&@$@&&=$&&%$@&%$%&%$$@$$@;X",
" .oX$$$$@%&@#&&@@&#$=&$:@&&#$&&%:@&%$%&@@$$$$@X;",
" .XX%%%@@#&@%&-$@&#@-#$@@&&%%&&@@@&#@=&$@$@%%XoX",
" XoX&&&%:#&@%&=$:#&&&%$:@&-$%&-$::-&&&%$:$#&&OXX",
" .XX&&&%$%%$@%%$:%&&#$:::%%$@#%$::#&&#$$:$#&&+oX",
" .;X&&&#$$$$:$$$::$$$$:::$$$:$$$:::$$$$:$$&&&OXX",
" .oX&&&-$:::::::::::::::::::::::::::::::$@&&&+oX",
" .XX&&&&@:::::::::::::::::::::::::::::::$#&&&OXX",
" %;X*&&&#$::::::::::::::##:::::::::::::$@&&&&Oo.",
"  X;+&&&&@$$::::::::::::#%::::::::::::$@&&&&*XX ",
"  XoO&&&&-@$$::::::::::::@:::::::::::$$#&&&&+XX ",
"   Xo*&&&&&-#@@@@@@@@@@@@@@@@@@@@@@@%#&&&&&*XoX ",
"   XXO&&&&&&&&&&&&&&&&&&&&&&&&&&&&&&&&&&&&&OXX  ",
"   %XoO*&&&&&&&&&&&&&&&&&&&&&&&&&&&&&&&&&&OX;.  ",
"    XoXX+&&&&&&&&&&&&&&&&&&&&&&&&&&&&&&&+XXoX   ",
"     XXoXO*&&&&&&&&&&&&&&&&&&&&&&&&&&&*OXXXX    ",
"      XoXXXXXOOOOOOOOOOOOOOOOOOOOOOOXXXoXoX     ",
"       .X;XXoXoXoXoXoXXXoXoXoXoXoXoXoXoXX.      ",
"         XXXXXXXXXXXXXXXXXXXXXXXXXXXXXX.        ",
"                                                "};
