#define player_5_15_width 48
#define player_5_15_height 69
static unsigned char player_5_15_bits[] = {
   0x00, 0x00, 0xc0, 0x07, 0x00, 0x00, 0x00, 0x00, 0x60, 0x0d, 0x00, 0x00,
   0x00, 0x00, 0xa0, 0x0e, 0x00, 0x00, 0x00, 0x00, 0x60, 0x0f, 0x00, 0x00,
   0x00, 0x00, 0xf0, 0x1f, 0x00, 0x00, 0x00, 0x00, 0x1e, 0xf0, 0x00, 0x00,
   0x00, 0x00, 0x1d, 0x70, 0x07, 0x00, 0x00, 0x40, 0x1c, 0x70, 0x18, 0x00,
   0x00, 0x50, 0x1d, 0x70, 0x20, 0x00, 0x00, 0x00, 0x18, 0x70, 0x40, 0x00,
   0x00, 0x1a, 0x1b, 0x70, 0x80, 0x00, 0x00, 0x01, 0x18, 0x70, 0x80, 0x01,
   0x00, 0x51, 0x1d, 0x70, 0x00, 0x01, 0x80, 0x40, 0x1c, 0x70, 0x80, 0x02,
   0x80, 0x00, 0x1c, 0x70, 0x00, 0x03, 0x80, 0x80, 0xff, 0xff, 0x83, 0x02,
   0x80, 0x70, 0x00, 0x00, 0x1c, 0x03, 0x80, 0x08, 0x00, 0x00, 0xa0, 0x02,
   0x80, 0x08, 0x00, 0x00, 0x20, 0x03, 0x80, 0x08, 0x3c, 0x78, 0xa0, 0x02,
   0x80, 0x08, 0x7e, 0xfc, 0x20, 0x03, 0x80, 0x08, 0x7e, 0xfc, 0xa0, 0x02,
   0x80, 0x08, 0x7e, 0xfc, 0x20, 0x03, 0x80, 0x08, 0x7e, 0xfc, 0xa0, 0x02,
   0x00, 0x09, 0x7e, 0xfc, 0x60, 0x01, 0x00, 0x09, 0x7e, 0xfc, 0xa0, 0x01,
   0x00, 0x12, 0x7e, 0xfc, 0xd0, 0x00, 0x00, 0x2c, 0x7e, 0xfc, 0x68, 0x00,
   0x00, 0x58, 0x3c, 0x78, 0x34, 0x00, 0x00, 0xb8, 0x01, 0x00, 0x3b, 0x00,
   0x00, 0xf6, 0xff, 0xff, 0xdf, 0x00, 0x80, 0x6b, 0xfc, 0xff, 0xac, 0x03,
   0x40, 0x55, 0x01, 0x00, 0x57, 0x07, 0xc0, 0xea, 0xf8, 0xbf, 0xaf, 0x07,
   0x60, 0x75, 0xfc, 0x43, 0x57, 0x0f, 0xa0, 0xfa, 0xf8, 0xbd, 0xaf, 0x0e,
   0x60, 0x7d, 0xfc, 0xba, 0x5f, 0x0f, 0xa0, 0xfe, 0xfa, 0xbe, 0xbf, 0x0e,
   0x60, 0x7d, 0xfd, 0xbe, 0x5f, 0x0f, 0xa0, 0xfe, 0xfe, 0xdd, 0xbf, 0x0e,
   0x60, 0xfd, 0xff, 0xe3, 0x5f, 0x0f, 0xc0, 0xfa, 0xff, 0xff, 0xaf, 0x06,
   0x40, 0xfd, 0x1f, 0xf0, 0x7f, 0x07, 0x80, 0x43, 0xd0, 0x17, 0x85, 0x03,
   0x00, 0x61, 0xd0, 0x17, 0x06, 0x01, 0x00, 0xc1, 0xd0, 0x17, 0x83, 0x01,
   0x00, 0xa1, 0xd0, 0x17, 0x42, 0x01, 0x00, 0xd2, 0x1f, 0xf0, 0xa7, 0x00,
   0x00, 0xfc, 0xff, 0xff, 0x7f, 0x00, 0x00, 0xc0, 0xff, 0xff, 0x07, 0x00,
   0x00, 0x40, 0xfd, 0x7f, 0x07, 0x00, 0x00, 0xa0, 0xfa, 0xbf, 0x0f, 0x00,
   0x00, 0x60, 0xfd, 0x5f, 0x0f, 0x00, 0x00, 0xa0, 0x3e, 0xa8, 0x0e, 0x00,
   0x00, 0x60, 0xfd, 0x5f, 0x0f, 0x00, 0x00, 0xb0, 0xfe, 0xbf, 0x1e, 0x00,
   0x00, 0x7c, 0xfd, 0x5f, 0x7f, 0x00, 0x00, 0xbe, 0xfe, 0xbf, 0xfe, 0x00,
   0x00, 0x7f, 0xfd, 0x7f, 0xff, 0x01, 0x00, 0xcf, 0xf3, 0xcf, 0xe7, 0x01,
   0x80, 0x07, 0xe8, 0x0f, 0xc0, 0x03, 0x80, 0x07, 0xf4, 0x0f, 0xe0, 0x03,
   0x80, 0x07, 0xea, 0x1f, 0xd0, 0x03, 0x00, 0x0f, 0xfd, 0x3f, 0xe8, 0x01,
   0x00, 0xaf, 0xfe, 0x7f, 0xf5, 0x01, 0x00, 0xfe, 0xff, 0xff, 0xff, 0x00,
   0x00, 0xfc, 0xff, 0xff, 0x7f, 0x00, 0x00, 0xf0, 0xff, 0xff, 0x1f, 0x00,
   0x00, 0x80, 0xff, 0xff, 0x03, 0x00};
