/* XPM */
static char *noname_xpm[] = {
/* width height ncolors chars_per_pixel */
"48 48 17 1",
/* colors */
"` c black",
"a c grey33",
"b c grey47",
"c c grey40",
"d c grey87",
"e c grey80",
"f c grey73",
"g c grey27",
"h c grey20",
"i c grey13",
"j c grey67",
"k c grey60",
"l c grey53",
"m c white",
"n c grey93",
"o c grey7",
"p s None c None",
/* pixels */
"pppjjjjjjjjjjjjjjjjjjjjjjjjjjjjjjjjjjjjkjjjjpppp",
"pppmmmmmmmmnmmmmmmmndnmmmnnmnmmmmmmmnmnmnmmnpppp",
"pppmmmmmmmmmnnmmndjllkkjllkjdnmmmmmmnmnnnmnmpppp",
"pppnnmnnmmnnnmnnjkkllbbaccaacbfnmnnmnnnnnnmnpppp",
"pppnmnnnmnnmnndjlkllbaaahhhgggakdnnnnnnnnnnnpppp",
"pppnnnmnnmnnnekllllbcaghhhhgghhhafnnnnnnnnnnpppp",
"pppnnnnnmnnnjbbbbbagaaaggggggaghhclnnddndnnnpppp",
"pppnmnnnnnnjbccagghiihhhhhhihiiggggfddndnndnpppp",
"pppnnnnnmndcghhhhhiiioiooioiiihihihledddnnndpppp",
"pppnnnnnnnkhhhhhioihhhhiiiiiiiihhhgcbjdnddnnpppp",
"pppnmnnnnmchghioiihhghhhhihihhhhhihclclddnndpppp",
"pppnnnnnndgggioohabbllbbbbbbcbbbbcgabbaedndnpppp",
"pppnnnnnnngghoohclkkkkkkklkkjkjkklacabakdnndpppp",
"pppnmnnnneagiigcllkjkkjkkjjjjjjjkkabaagcddndpppp",
"pppnnnnnnkaghhgblkjjjfjjjjjffffjjkacaaggendnpppp",
"pppnnnnmnlcghgabkkjjffjjjjjjffffjlacaaghenndpppp",
"pppnnnnnnbcacgalkkjjjjjjjjjjjkkkklagaaggdddnpppp",
"pppnnnnnnbcachcllklkkkjkjjkklcaacbchagghddndpppp",
"pppnnnnnnccaahcbbccaaclklbchgghhhhhihghhedddpppp",
"pppnnnnnecbaggcahhhhghiabchhgaghhiiiogailnddpppp",
"pppnnnnnfabghgghiihhahhicahhha```iho`oghheddpppp",
"pppnnnnnkbahhgghhioogoiicbiiihoooihihogagfddpppp",
"pppnnnnnkchihhhhh`ooioiolkhgggaaggggaihcbeddpppp",
"pppnnnnnlghgacggggaccgghkkbhcbccagagbhiafdddpppp",
"pppnnnnnfaghcbccccbbbcgakklagccbccaabgiaedddpppp",
"pppddnnndkahabcbbcbbccgckjlcagaaaaaccgicedddpppp",
"pppnndnnnnbigbcaccccaacblkkbbbbbcbbbcaobeddepppp",
"pppdndnnnnkihcccccccbbbbbbcgccbllbbbcgoleeddpppp",
"pppndndnndjoicbcbbblbcahhahhgccbbcccahokfddepppp",
"pppddndnndfoiacbcbbbccaggaagabbcccccah`leedepppp",
"pppndddnddeoigbccbbccccghhhhaccccccagi`jfdeepppp",
"pppddddndddgohabcbccccghhghhgaacaaaago`kfeeepppp",
"pppddddddddboigccbccahhhgaahhiihiccgho`jfeeepppp",
"pppdddddddef`ohacbcgioihhgggggghhgago`hffeeepppp",
"pppddddddddeiohhacahhgggacaagaaagggh``bfeeeepppp",
"pppddddddddeboiihgahaacagaaccccahhio`hffffffpppp",
"pppddeedddeeehooihghggcccccccbcaio```kffffffpppp",
"pppeedededdefkiooiioiicccbcbccch````iffeffffpppp",
"pppeeeeeddeeffkooooo`ogaaccaaahi```ooeffffffpppp",
"pppeeeeeedeeeffloio```ihhghhhi````oiiffeffjfpppp",
"pppeeeeeeedeffejghi````ooioo`````oiigfdeejjjpppp",
"pppeeeeeeeeefeeebghi````````````oiihaeenndfepppp",
"pppefefeeeddndfdkgggio````````oiiigoljeddndepppp",
"pppefeffednmndjdfcggghhiioiiiiihhhghfjeeeddnpppp",
"pppffffennddddfeffghggghhhghhhhhhggaefeeddfnpppp",
"pppefeedeedjnnfefekghhhgggghhhhhgghkefeedejepppp",
"pppeddnnmmdknnfefeflghggggghghhgagaeffededjkpppp",
"pppnddenmnfknnejffefcggggggggggaggkdffeedejbpppp"
};
