/* XPM */
static char *noname_xpm[] = {
/* width height ncolors chars_per_pixel */
"48 48 17 1",
/* colors */
"` c black",
"a c grey33",
"b c grey47",
"c c grey40",
"d c grey87",
"e c grey80",
"f c grey73",
"g c grey27",
"h c grey20",
"i c grey13",
"j c grey67",
"k c grey60",
"l c grey53",
"m c white",
"n c grey93",
"o c grey7",
"p s None c None",
/* pixels */
"ppppppjjjjjjfjjfffeffffefeeendffffeedeenmmpppppp",
"ppppppjfjfjjfjfffefeffffjfeendefffeddeddmmpppppp",
"ppppppjfjjfjjffffefflbhiiickjddffeedeednmmpppppp",
"ppppppjjjjjjjjjffflho`hoooigccjedfeedeedmmpppppp",
"ppppppjjjjjjjfjfja``o``ooiioogccjjeedednmmpppppp",
"ppppppfjjjjfjfjfg``````````````ogckddednmmpppppp",
"ppppppjjjjjjjjja`````````````````iikeeenmmpppppp",
"ppppppjjjjjjjjb````````````````````gfeedmmpppppp",
"ppppppjjkjjjjjo`````````````````````cjdnmmpppppp",
"ppppppjjjkjjjk```````````````````````gennmpppppp",
"ppppppjjjjjjjc```````````````````````ofnnmpppppp",
"ppppppjkjkjjkh`````````````ooo```````ojdnmpppppp",
"ppppppkjjjjjjo```````haaigaahiioo````okddnpppppp",
"ppppppkkjjjjk`````oialjeeffjkahaaho``oedddpppppp",
"ppppppkjkjjjc`````gabkfddddejbljkkkb`cddddpppppp",
"ppppppjkjjjkg````ogclkjednnndnnmnndfigjdddpppppp",
"ppppppjjkjkjh````ogcbkjednmmmmmmmmdeiojdddpppppp",
"ppppppkjkjjji````igabljedmmmmmmmmmdfgofdddpppppp",
"ppppppjkkjkki````haackjfnmmmmmmmmndfgodedepppppp",
"ppppppkjkjjjh```ohgaccblfennmmnmnmefgheeddpppppp",
"ppppppjkjjjja```ihghhhoohcfdefkklkjjgaededpppppp",
"ppppppjkjjjjbo``ihhhggahoibdfaiigcblgbdedepppppp",
"ppppppjjjjjjao``hghiooogholmjghigcbkgjeeeepppppp",
"ppppppjkjjjjahh`hagiohhlahkmjbbighbkbfeeeepppppp",
"ppppppjjjjjjchhogcbcghgaghfnjlbbbljjfeeeeepppppp",
"ppppppjkkjkjlihhhckkllllcgendffkkfefeeefefpppppp",
"ppppppkjjjjjkhhhhaljffejcaenddnnddnefeeeeepppppp",
"ppppppjkkkjkjhghhabkfdejaaenednmmmneffefffpppppp",
"ppppppkkjkjkjgghhgcljffccafdeeedmndjfefefepppppp",
"ppppppjjjkjkjlhihgablklghhalkffjeefjffffffpppppp",
"ppppppkkkkjkjkgohhabbccchhgaljjlljjkffffffpppppp",
"ppppppkjkkkkjkkhhgalbcaacljjjjklblkkfffjjfpppppp",
"ppppppjkjkjkkjkgiggbjbhohalllgcbjkljffjjjfpppppp",
"ppppppkjkkkkjkkghhgcjlbaabjjkkjfjlljjjfjjjpppppp",
"ppppppkkkkjkkkkgihhglbbbbljjefefklkkjjjfkjpppppp",
"ppppppjkjkkkkkkhhihhccccllkjeffklljkkjjfjjpppppp",
"ppppppkkkkjkkboihhihhacblkjfefjlbjjjkjjfjjpppppp",
"ppppppjkkkkkkhioihiiihabkjjeefkbbjjkkkjjjjpppppp",
"ppppppkkkkkkboiiihiioihalkjfjkbcljjkjkkjjkpppppp",
"ppppppkkklkjaiohhiiiioihacbllcabkjjkkkjkjjpppppp",
"ppppppkkkkfkhghhhgioioioihgggaclkkjjkkjjjkpppppp",
"ppppppkkljflcchghggiiiiihihhgcbbakjjkkkjkjpppppp",
"ppppppkkffmejggacccahhhhhhgacblbhajkkkkjkjpppppp",
"ppppppjddekcbhhhjekbaacaccccbkklhgbfjkjjjjpppppp",
"ppppppnnelacahiaabaackklklllkkkegabejljkkjpppppp",
"ppppppnnkaaaaaaahalaalfmdeefjjjnlbkeefjjkjpppppp",
"ppppppnddejjllkbchhabclnmmmnnnnmnabjnnnejjpppppp",
"ppppppfkbbbbghcgioihaaljeeeeeeeeecigfjjeebpppppp"
};
