/* XPM */
static char *noname_xpm[] = {
/* width height ncolors chars_per_pixel */
"48 48 17 1",
/* colors */
"` c black",
"a c grey33",
"b c grey47",
"c c grey40",
"d c grey87",
"e c grey80",
"f c grey73",
"g c grey27",
"h c grey20",
"i c grey13",
"j c grey67",
"k c grey60",
"l c grey53",
"m c white",
"n c grey93",
"o c grey7",
"p s None c None",
/* pixels */
"ppppppccaccccbcbbbbbbllllllllkkkkkkkjjkjjfpppppp",
"ppppppbcbcbbbblbllllkkfkejkkfddejkkkjjjjffpppppp",
"ppppppbbbbllllllllllbblkjjbcjmmmmejjjjjkjfpppppp",
"ppppppllbbblblllbcaggahhgaccacemmmdjjjjjffpppppp",
"ppppppblbblllllbgghhghhhhhggaahkmmmdjjjjjfpppppp",
"pppppplblbllblcgiihhhhhhhghhhgihjnmnfjfjjfpppppp",
"pppppplblblblbhoiiiiiiihhhiiiihigjfmdfjjffpppppp",
"pppppplblbllbaooooooooiiihhiiooiigbfndefjfpppppp",
"ppppppblblblcoooo`oooiiihhihoooooigbjdfjjfpppppp",
"ppppppblbblbh`oo``ooiiiihhhiooo`ooicljeffjpppppp",
"pppppplbblbboo```ooooiiihghhioo`ooigcbjjfjpppppp",
"ppppppblblbgo```````ooiihhhiiiooooigcgbjjfpppppp",
"pppppplbblbi```````o`ooihhhgghhgihhaaghjjjpppppp",
"ppppppbbbbco`````````oihhhgaaakchagacgibjjpppppp",
"ppppppbblbh`````````ooihhgacbjfkahcabhicjjpppppp",
"ppppppblbbo``````````oihhgabknnfcggccgogjjpppppp",
"pppppplbbg``````````ooiihhcknmmekgoacgogkjpppppp",
"ppppppbbbi``````````ooiihakdmmmmecoohhogkjpppppp",
"pppppplbc```````o`oiooiiihcfnmmmnbi`ooogjjpppppp",
"pppppplbh```````ohihiiihhihhlkjfflh``o`bkjpppppp",
"pppppplbi```````iacgoioighgglcaagho```oljjpppppp",
"pppppplbo`oo```ohabcacblbbaaecgihgh``oikkkpppppp",
"pppppplbh`agoooohalblkllllcldkchhii``ohkjkpppppp",
"ppppppblg`acgooigcblkjffklljelcbbgi```ckkkpppppp",
"pppppplba`icgoohaabkkfffjjkjnfblbca``ikkkkpppppp",
"pppppplbg``hhohgacbkjdnnflljmekjfkco`bkkjkpppppp",
"pppppplbi``oohgaabcbkjjjbbbkneffklciikkkkkpppppp",
"ppppppbco``ogggaclbblkjjlcggbbkeekg`ckkkkkpppppp",
"ppppppla```ogggabkbkkkkjjkbcljjljlihkkkkkkpppppp",
"pppppplg````igggbkbjjagbkjeffjjllchlkkkkkkpppppp",
"ppppppbg```oigggckbjekccccblblkkbcbklkkklkpppppp",
"pppppplh```iggggalllfkkbkjjlcbkkllkkklkkklpppppp",
"ppppppbh```hcaagabbbkjkkklllljjlblklkkkkkkpppppp",
"ppppppcihhabccgagabclkjefjjfkklclklkllkkklpppppp",
"ppppppgacbllbbaggaacbkjfeeefklcblllklklkklpppppp",
"ppppppccccblllcaggggalkjfeejlcclllllklkkkkpppppp",
"pppppplllbbbllkcghhggcbkkkkkbclllllklklkklpppppp",
"pppppplllblbbblbaghhhggaacaccbllblllllklkkpppppp",
"ppppppkbblkkbbclaghiiiiihihclllllllllkkkklpppppp",
"ppppppbkllklbccccaghhihiihallllblblllllkkkpppppp",
"ppppppklllbllfkcgaaghhhhhgblllllbllllklkkkpppppp",
"ppppppfeflcgblkcaaaagghggcllllblblllllkklkpppppp",
"ppppppeddfefflbacagaaghgablblllblblllklkklpppppp",
"ppppppffejfebbaaacaaaggccllllblbllllllklkkpppppp",
"ppppppddjjjfdlblgbaaaacbblbbllblbblblllkklpppppp",
"ppppppdccjnlfkjkjgbcaaabllblllblblblllkklkpppppp",
"ppppppdkkjflljejkbclccacjllblllblblllllkkkpppppp",
"ppppppebllljljckjbhcagghacccccccacccccbcbcpppppp"
};
