/* XPM */
static char * face_xpm[] = {
"48 48 13 1",
" 	s None	c None",
".	c sienna",
"X	c tan",
"o	c firebrick",
"O	c red",
"+	c peru",
"@	c slate grey",
"#	c navy",
"$	c dark slate grey",
"%	c black",
"&	c tomato",
"*	c white",
"=	c gainsboro",
"                                                ",
"                                                ",
"                                                ",
"                                                ",
".X                                            X.",
"XoX                                          XOX",
" Oo                                          oO ",
" oO+                 XXX@@                  +Oo ",
" oOO+                X..#$X                +OOo ",
" OOOO+              X..##..+X             .OOOO ",
" oOOOO.             ..$##$.+.+           +OOOOo ",
" oOOOOOX           @######%..+@         +OOOOO& ",
" oOOOOOO           $######$..+          OOOOOOo ",
"+oOOOOOO.          $##$###+..+         oOOOOOOoX",
". OOOOOOo           @@###$....X        OOOOOOO .",
"  oOOOOOO           @####$....X       XOOOOOOo X",
"  oOOOOOOX          #####$$.$.        +OOOOOO&  ",
"  oOOOOOOX.X.    @@ @%@*%$*$%@X    ++++OOOOOO.  ",
"  oOOOOOO+Oo+    $$.+.oooo.+.@=    ooO+OOOOOO&  ",
" XOOOOOOOoOOo+  XX.Oo.Oo.Oo.O.+   +oOOoOOOOOOO  ",
" ooOOOOOOOOooooXXX.oOo.oooooO.+ +oooOOOOOOOOOo. ",
"XX+OOOOOOOOOo++XXo+.oo.o..o.o+oX+.@oOOOOOOOOOX+ ",
"  oOOOOOOOoX+.X+XoXoo......o.+.X+@.++OOOOOOOO+  ",
"  oOOOOOOOoo     oX..+.......+.     ooOoOOOOO.  ",
"  oOOOOooOOOo   oO*++++++.+++XO+  XooOOoOOOOO.  ",
"  oOOOOo+OOOOo+.o.++++XX+X+++..oX+oOOOO.OOOOO+  ",
" XOOOOOOXoOOOOOo....++++++.+....oOOOOO.XOOOOOo  ",
" ooOOOOOo+oOOOoo.%%%%..%%%.$$%%+oOOOO.XoOOOOOO+ ",
" +  oOOOOOOOOOOo.%%%%.oo%%%%%%%+oOOOOOOOOOO&  + ",
"    XOOOOOOOOOO..%$%%.$%%%.%%%%XoOOOOOOOOOO     ",
"     oOOOOOOOOO@.%%%%.$%%%.%%%%X.OOOOOOOOO&     ",
"     oOoXOOOOoo+.%%%%.%%%$$%%%%XooOOOOO*OO+     ",
"   @oOO+oOOO+X.o.%%%%$%%%$%%$%$Xo.XoOOO&oOO+X   ",
"      .+OOo**Xoo+%%%%%%%%%%%%%..ooX*XOOO+XXX    ",
"     X+OOOOoO&Xo.$%%$.%%%$$%%%...XoooOOOo+      ",
"    XOoOOOOOOO&o+.%%$%%%%%%%%%..XoOOOOOOoO&     ",
"    ooXoOOOoOO&+o..%.%%%%%.%%..oXOOOOOOOXXo+    ",
"    oXXoOOo*oOoX+.+..%%%%%....X+XOO+*OOO+X@.    ",
"    ooOOOOo*oOoXXX....%%$%....*X.OO+*OOOOO.@    ",
"    .O..OOo@OOo+o*.oO..%$ooo.XXoXoOo@oOo.oOX    ",
"    +O.@@.XXoO.oOo+.o%%%%%o..XOOooOoX*XX@.o     ",
"    .ooOooo++oo.X.o+..%%%$.++o&++Oo.&oooOOoX    ",
"    .o*X*X   Xoo***X+.$%$$.XX**XO.X  XXXX*oX    ",
"    .OoOO&X   .OO&OO++.%.. .Oo+OoX   +oOooOX    ",
"      XXX     XXXXXX  X.+   XX+XXX   X X X      ",
"                                                ",
"                                                ",
"                                                "};
