#define noname_width 48
#define noname_height 48
static char noname_bits[] = {
 0x00,0x22,0xfc,0x7f,0x00,0x00,0x40,0x49,0xdf,0xdf,0x95,0x00,0x00,0xd2,0xfd,
 0xff,0x03,0x00,0x40,0x69,0xff,0x7e,0xaf,0x00,0x00,0xfa,0xff,0xff,0x1f,0x00,
 0x40,0xf5,0xff,0xf7,0x3f,0x01,0x00,0xfe,0xfd,0xff,0x5d,0x00,0x40,0xfd,0xff,
 0xff,0x7f,0x00,0x80,0xfe,0xff,0xff,0xbf,0x00,0x00,0xff,0x6f,0xb5,0xff,0x00,
 0xc0,0xff,0x9a,0xea,0x7f,0x02,0x00,0x7f,0x47,0xe8,0xfe,0x00,0x80,0xff,0x00,
 0xd1,0xff,0x00,0x80,0x7f,0x02,0x44,0xfd,0x00,0xc0,0x7f,0x11,0xa8,0x7f,0x01,
 0x80,0xff,0x04,0x51,0xfd,0x00,0xc0,0xbf,0x06,0xa0,0xff,0x00,0x00,0x7f,0x7f,
 0xd4,0x7d,0x01,0xc0,0x5f,0xe9,0xfa,0xff,0x00,0x00,0x3f,0x3d,0x2d,0x7d,0x01,
 0x80,0xa9,0xaa,0xf6,0x7f,0x00,0x40,0x57,0x24,0xa8,0x3a,0x01,0x80,0x2b,0x90,
 0xd6,0x2e,0x00,0x40,0x57,0x21,0x2a,0x5b,0x01,0x80,0x53,0x80,0x84,0x2e,0x02,
 0x40,0x57,0x28,0x5a,0x9a,0x00,0x80,0xaf,0x50,0x86,0x5f,0x02,0x40,0x5f,0xca,
 0x5d,0x95,0x00,0x80,0xbf,0xf2,0xd7,0x0e,0x01,0x40,0xbf,0xda,0xbf,0xaf,0x00,
 0x80,0x5f,0x7d,0x7f,0x43,0x02,0x80,0xbe,0x5a,0xe9,0x29,0x01,0x80,0x5a,0x55,
 0x5f,0x45,0x02,0x80,0xd0,0x4a,0xf5,0xa9,0x00,0x40,0xb0,0x55,0xf5,0x12,0x01,
 0x00,0xa0,0xae,0xba,0x4a,0x01,0x00,0x20,0x5b,0x6f,0x94,0x02,0x00,0xa0,0xf6,
 0xbb,0x4a,0x00,0x00,0x40,0xdd,0x47,0x51,0x01,0x00,0x40,0xf5,0x2e,0x4a,0x02,
 0x00,0x80,0xaa,0xaf,0x94,0x00,0x00,0x58,0x6b,0x2d,0xa5,0x02,0x00,0x10,0xaa,
 0xaf,0x94,0x00,0x00,0x00,0xd8,0x1a,0x4a,0x02,0x00,0x00,0xb4,0x4f,0xa8,0x00,
 0x00,0x00,0x6c,0x85,0x90,0x02,0x00,0x00,0xa8,0x07,0x40,0x02,0x00,0x80,0xf0,
 0xca,0x8a,0x01};
