/* XPM */
static char *noname_xpm[] = {
/* width height ncolors chars_per_pixel */
"48 48 17 1",
/* colors */
"` c black",
"a c grey33",
"b c grey47",
"c c grey40",
"d c grey87",
"e c grey80",
"f c grey73",
"g c grey27",
"h c grey20",
"i c grey13",
"j c grey67",
"k c grey60",
"l c grey53",
"m c white",
"n c grey93",
"o c grey7",
"p s None c None",
/* pixels */
"ppppppeeeefffjjkkeedddffjenddeddejjjfedddepppppp",
"ppppppeeeeefffjkkfedneejjenddeedejjjfedndepppppp",
"ppppppeeeefeffjkkfedddffjenndeddejjffdddddpppppp",
"ppppppeeeeeffffkkeedddejfendddddfjjffdddefpppppp",
"ppppppeeeefffjfkkfedddejjdnnddedeffffedeeepppppp",
"ppppppfeeeefffjkkfedneddeenndeddefjfeeddddpppppp",
"ppppppeeefefjfjkjfelnjbmnljddddeeeffeeddnnpppppp",
"ppppppffeeefffjjkbgadgcnbhigbendefffedddddpppppp",
"ppppppeefeffffjkao`gbglcio``oaeddeffeednddpppppp",
"ppppppefeeffffkgo```iah```````ceeeefeddnndpppppp",
"ppppppefeffffjc``````ho```````okdefeeddnnepppppp",
"ppppppffeefjjji```ihabcoii`````hfefeeddndepppppp",
"ppppppffeffffc```abjffjci```````kefeednndfpppppp",
"ppppppfffefjkh``ajfedddfkco`````cffeedndejpppppp",
"ppppppjffffjbo`hkjednmddfjbh````gjeeedddejpppppp",
"ppppppffeffjg``cjfennndeefkao```ijeeeddeekpppppp",
"ppppppfffffka``cjfendndeffla`````leeeddefkpppppp",
"ppppppjjffjjc``cbbkeddejkbbho````afeeddeflpppppp",
"ppppppjfffjjg``oioicfjaiihii`````gfeeddejbpppppp",
"ppppppjfffjjc`ohi`oafjahiighi````ijeddefkbpppppp",
"ppppppjjfffjc`gccacaflcbcaacai````jeeeejllpppppp",
"ppppppfjjfjjb`cjjjkbjbbkjjjkbi```ofeeefkklpppppp",
"ppppppfjfjjjcocjffjbjccjfffkci`oiojeefjklbpppppp",
"ppppppjjjfkjbhgkjfkbebalfejla`ohhojffjkklcpppppp",
"ppppppjjjjjjlbhbkjliaihakjkbhoog`gjjjjklbcpppppp",
"ppppppjjjjjjjkgclkkaaaglkklci`ooobkjkkkbbcpppppp",
"ppppppkkjkjkjkaalbcggchhgcbao``ogkjkkklbbapppppp",
"ppppppjkjjjkjkbgaiiihhioohcgo``alkkkklllbapppppp",
"ppppppkjjkkjjkligccbllccbbgh`ockkjkklllbcapppppp",
"ppppppkjkjkkjkkahbbbccbcbcgo`hkjjkkllllbcapppppp",
"ppppppkkjkkkkjlbggbkkkkbcgi`iakkkkllllbcagpppppp",
"ppppppkkkkjkkkkbbiablbcaho`ihalkblllkbbccgpppppp",
"ppppppkkkkkkkkkbbiohhhio`ooho`hacbbblbbcagpppppp",
"ppppppklkklkkklbcho`````oihgi``igacbbccaagpppppp",
"ppppppllkkklkklbbgiiiihhhgcah```ihccbccaggpppppp",
"ppppppklllllklbbcghaccccccbagalafioacacaghpppppp",
"ppppppllklllljjgbagcblbllllcagennechaccaghpppppp",
"ppppppllklkjemeccagabbllklbbccjndemnejbaghpppppp",
"ppppppkennmmmmfbbagacblklllklblfkdnmmmmdjlpppppp",
"ppppppmmmmmmmneblbagcblllbkejllbledmmmmmmmpppppp",
"ppppppdmmmmmmnfkjkbacbllcajdfllaleedmmmnndpppppp",
"ppppppmnenmmmnfllklblllcialfekbbkjkddddeklpppppp",
"ppppppmfdmmmnnfbablkklaiihajejlljkeejjfklcpppppp",
"ppppppdmmmmedelbchigaaaaagabjejkfefkkjjklbpppppp",
"ppppppfmmmnndjclcaccghccbbaclffjfjkkkfjklbpppppp",
"ppppppfnmnmdfklbcbcghggcbkbccjfkkfjfjjjjbcpppppp",
"ppppppdnnnmjfkllklagghgaaklcaleeeeeelbbbbcpppppp",
"ppppppkjjjjabccbaghhiiihhgbghckkkklcggacaapppppp"
};
