/* XPM */
static char *noname_xpm[] = {
/* width height ncolors chars_per_pixel */
"48 48 17 1",
/* colors */
"` c black",
"a c grey33",
"b c grey47",
"c c grey40",
"d c grey87",
"e c grey80",
"f c grey73",
"g c grey27",
"h c grey20",
"i c grey13",
"j c grey67",
"k c grey60",
"l c grey53",
"m c white",
"n c grey93",
"o c grey7",
"p s None c None",
/* pixels */
"ppppppddddedeeedejkjfnmmmmnnnmnnnmmndnnnnmpppppp",
"ppppppdddedededelcablfdddnmdddmmnmmnddnnnmpppppp",
"ppppppdddeeeeeelhihhhhhccbkendmmmmmmndnnnmpppppp",
"ppppppedeeeeeebioooiooiihgcckljnmmmmddddnmpppppp",
"ppppppdedeeeeki``oo``o`ooohggcddnmmmnddndmpppppp",
"ppppppeeeeeefa`````````ooo`igkfffmnnndddnmpppppp",
"ppppppeeeeefko````````oo`o`oohhbfddmdndddnpppppp",
"ppppppeeeeefg```````````ooo``o`ohbceednddmpppppp",
"ppppppeeeefk`````````o`oooo`o```ogcljkdddnpppppp",
"ppppppeeeefg`````````````ooio`oooogacaeddnpppppp",
"ppppppeefffh````````````oooooo`oigghhildedpppppp",
"ppppppeeefjo``````````````ooioiigcaa`ocddepppppp",
"ppppppffffk````````````````oiiggcbkk``cdedpppppp",
"ppppppffffc```````````````ooigabkfejh`addepppppp",
"ppppppffffa`````oo```````oigbkjfdndfc`cdddpppppp",
"ppppppffffa````ohhioo`oohalednnmmmnel`kdddpppppp",
"ppppppffffa````ogcccaaabkfnmmmmmmmdekokedepppppp",
"ppppppffffg````iaccbblkfdmmmmmmmmmnekojeeepppppp",
"ppppppffjfh````iacbcbljedmmmmmmmmmmekofeedpppppp",
"ppppppffjjaio``ohccccabbkenmmmmmdejlfaeeedpppppp",
"ppppppffjfagho`ihoighhgiihclkjkjahggakbeeepppppp",
"ppppppffjfaaci`iagi`iiihhiigcfkghgagafcaeepppppp",
"ppppppfjffbahhohacaii`o`ggigcnkgoiahbejjeepppppp",
"ppppppffjflgcaihaabahigaccaabnfbcbbckfkeffpppppp",
"ppppppffjfkaachhacbccccbcbbcbndjklkljeleefpppppp",
"ppppppffffjccchhaaclblkjfjlbbedjdeejjjffeepppppp",
"ppppppfjjjflcchhgacbljfefjlcbfnkjndjkfeffepppppp",
"ppppppfjjjjkigioggccbkkjkabbbenjbfefjfeefepppppp",
"ppppppfjjjjki`o`hgaabkjkagghgkekccefjffeffpppppp",
"ppppppjjjjjki`i`ohgaclbhghiiigcachbkkffeffpppppp",
"ppppppjjjkjkc`h``oihgcooiiihaaaghogbkffffjpppppp",
"ppppppjjkjkjkog````oiao``oihacaooogglfjfffpppppp",
"ppppppjjkjkjkhhi````iaoghihlffacahhijjfjffpppppp",
"ppppppjkkkkkkahi`````hhccaccllbkchogjjjjjfpppppp",
"ppppppkkkkkkklgh`````oiacccblllkcooljjjjjjpppppp",
"ppppppjjkkkjkbhhi`````ohgacaccbbg`hkkjjjjjpppppp",
"ppppppkkkjjchhhhh`````oohaahhabbiolkkkjjjkpppppp",
"ppppppjkkhg`hhigho`````oohgggcahoaklkkjjjkpppppp",
"ppppppkkl``oihihgh```````oihihhoilkkkkkjjkpppppp",
"ppppppkkc````iihhhi```````oo`oo`bkkllkkjjkpppppp",
"ppppppklhoo```oihhio```````````gkkkllkkjjkpppppp",
"ppppppkaooioo```oihio`````````hkjkkkllljjkpppppp",
"ppppppkoiiiiio`o`oiioo``````ohhabllllklkjjpppppp",
"ppppppcioiiiiioo``oohhiiooihag``ihllkkkkjjpppppp",
"pppppphiiooiiiioo```ohgaaggaci``oaklklllkjpppppp",
"pppppphhiii`oihiioo``oihgiabco``gjkllllkkjpppppp",
"pppppphhhiiio`oiiiioooo``ohlb```cejlkklkjjpppppp",
"ppppppiooioooo``oioooo```o`ca```cbkcccccbbpppppp"
};
