/* XPM */
static char *noname_xpm[] = {
/* width height ncolors chars_per_pixel */
"48 48 17 1",
/* colors */
"` c black",
"a c grey33",
"b c grey47",
"c c grey40",
"d c grey87",
"e c grey80",
"f c grey73",
"g c grey27",
"h c grey20",
"i c grey13",
"j c grey67",
"k c grey60",
"l c grey53",
"m c white",
"n c grey93",
"o c grey7",
"p s None c None",
/* pixels */
"pppcacaaaaaaaaaaaacaaaaaacacaaacaaaaacacacaapppp",
"pppacaaaaaaaacacacaacacacacacccaacaacacacacapppp",
"pppcacaacaacaacaaacaacacaccacacacaacacaccaccpppp",
"pppacaaaaaaacaaaacacacacccaccaccacacacacacaapppp",
"pppaacaaaacaacacaccbjefedejbccacaacacacacacapppp",
"pppacaaacaacaacablcccbblkfejbcacccacacccccacpppp",
"pppcaacaacaacaaaghgghhiiigggghihccccccacaccapppp",
"pppaccaacaccaahhihiiiiiio`oooo`oilbcccccccccpppp",
"pppcacacacaahiiiioiiiiiiiooo````ohbaccccccacpppp",
"pppacaacaaahoooooioiiioiioo```````ohacccccccpppp",
"pppcacaacaiooooiooooooiiooooo``````igcccccacpppp",
"pppacaccah`oo`o`````ooooooooo`o`````hcccccccpppp",
"pppcacaago`o```````oigaaahhhiiooiihoiacbccccpppp",
"pppacacci`o``````ialenmnmdfkklllkjlaohbcccccpppp",
"pppacacgo`o``o``oakfdmmmmmmmmmndddjloiccbcccpppp",
"pppcaccg`o`o`o``ibkjdnmmmmmmmmnnnefkhoccccccpppp",
"pppccach```o```ohlkjdnmmmmmmnmnnndejgoccccccpppp",
"pppcacag```````hckljdnnmmmmmnmmnndejgiccbcccpppp",
"pppccaao``````oclllkkkkkjednnmmnndejhhbccbccpppp",
"pppaccg```````iblllllbcagaljeddfjfjkigbcbcccpppp",
"pppccah``````ogllkklahgbaaclfjlcaacchcbcbcbcpppp",
"pppccch`o````oclkfdfklakllbkdjgggccaacbcbcccpppp",
"pppcccagbaiioobbkfdnefjjkjjjmjchhaacabccbcbcpppp",
"pppccacbjlblagbbkedmnddedfjenflbclccccbbcbccpppp",
"pppcccccjjklbaabljenmmnnneefnjlklklbbcbcccccpppp",
"pppccaccljekcacbljednmnndeefnjjjjjjbcbcbcbccpppp",
"pppcaccahlffccablkjfeejlkejenjjfefjbbcbcbcccpppp",
"pppcccccgohgaacblljjjlkkljjenflkfjkbbbcccbccpppp",
"pppcacacg``igaabllllklkkbackfkbckklcbccbccccpppp",
"pppcccccci`hgaabbkkkblkjkcggaacbclcbcbccbcccpppp",
"pppcacacaaogggccbkjlagclkkkbcbcccccbcbcbccccpppp",
"pppccaccccggggaccbjkjbljkbbbcaagccccbcccccccpppp",
"pppcaccaccagggaccbkfejkkfdeflhacbccccbccccccpppp",
"pppcccccccaaagaacckffjjfjjjkbcljbcbcbccbccccpppp",
"pppcaacaccgccggacclfffkkkkllbbkkcccbccccccccpppp",
"pppaccbjbcabbaggacbjffjklbbbbllcccccccccccccpppp",
"pppccajjhaabllaggacbjfejjkkbblcccccccccccccapppp",
"pppccbjeccclklcagggcbkjeffkklccccccccccccaccpppp",
"pppcckjffbblkllcghhggcbkjjkbccccccccccccccccpppp",
"pppcbkffeflkkklbcahhhggacbcaacaccccccccccccapppp",
"pppbjjfeeeekjjkbccaghiihhhgacccccaccccccacccpppp",
"pppjffeeeeeejjklbcccahhihabccaccccccccaccccapppp",
"pppefeeeffeedekklbcccbagghalacacaccaccccacacpppp",
"pppdfeeeffeeeddjlbbccbcaghhjcccccccccccccccapppp",
"pppndfeefffeeeddfbbccccahihlkacacaccaccccacapppp",
"pppdndfefffffeeddebbcaagiihbfcccccacccacccccpppp",
"pppdnneffjjfffeeejbbbaagiihaccacccccccccccacpppp",
"pppjfffklllllllklacccggioohgaaggggggggagggggpppp"
};
