/* XPM */
static char * face_xpm[] = {
/* width height ncolors chars_per_pixel */
"48 48 14 1",
/* colors */
" 	s None	c None",
".	c grey33",
"X	c grey40",
"o	c grey53",
"O	c grey80",
"+	c grey60",
"@	c grey47",
"#	c grey67",
"$	c grey27",
"%	c grey73",
"&	c grey93",
"*	c white",
"=	c grey87",
"-	c grey20",
/* pixels */
"                                                ",
"                     ..XoOXX                    ",
"                   ....XX+XX@+                  ",
"                 ......XX#X.@@+                 ",
"                .....$.$X+@.XX++                ",
"               ..$...$$..XX..X.Xo               ",
"              ...$$...$..XX.XX.XX#              ",
"             .....$$$XX@o@@.....XX+             ",
"            X....$$%&&**&=OO#XX...X+            ",
"            $...$.@=******=O%%@....o+           ",
"           .....X%==******=OOO%*O..XX           ",
"           .....#===*****&=OOOO**...X@          ",
"          X.$..$O===****===O%%%&**.$..          ",
"          $$$$$$O===***&====OOO***@$$.          ",
"          .....$O==*****&=====&***+...X         ",
"          ..$$$$O=&****===&=OO=***%....@        ",
"         ..$$$$X%#@@+%O=O=OO+@.XX**..-$$        ",
"         ...$$Xo@@@X..X###o@....X@=.-.X$        ",
"         .$X$.@#++@X...@o#@@X$$.X#=X.-..@       ",
"         .$$$$#O+@X$$$$X#O@X$$...O=X----.       ",
"         .$$$$#O%#@.$X.o#&@XX.$$.**X.$$$.       ",
"        .$$$.$+%%OOo@#%oO*+@@@XX@**o...-$       ",
"       X$$$.--+%OO&=OO&%=*#@%%#+#**o.$--.       ",
"       $$$$.--@%=&=OOO%O**OO#%OOO**@X--$.       ",
"       $....--@#===#@Xo=&&%O@+###O*X--$-X       ",
"       ...$..$X+OOO#@o##%%@+X+###+=X-..$X       ",
"       $.-$.$$$X#%+..++X$..X.XX@o@@$.-$$X       ",
"       $.$$$.-$X++X.$XX.$$$.$$$X@XX.$--$X       ",
"      @$..$.$.$X.X$.$X..X@$$$$$.$$.$...-.       ",
"      @.......$.$$$.$Xo@@oX.$$XXX$X......       ",
"      X$$..--...-X.$+O%##o@@X$X..$...-$$.@      ",
"      X-.-.---.$.XX$+O+o@@X...$.$--..--$..      ",
"      X...$.--....-.X%%+X$$..$X..$.---.-...     ",
"      ....$--..--$$$.XX+@XXXX...------$$$$.     ",
"     X.$.-$--..--$$$$.$X$.$$$--------$--.$.     ",
"     X$$..$$$$...$-.-.-.-...----.-.-$.--.$.     ",
"     X$$.$$$$-..-$$$--..-$.--.-$-$.-$$-$...     ",
"     .$$....$-..$$.X..$---.--...$$$---$$$..     ",
"     .$$..$.---$$.X.$.----..-..X$.--$$.-.$.     ",
"     .$..$$.--$...X@X$$$.$$.$$$...--$$-.$$.     ",
"     .$.-.$.-....$X@+@.$X.$...X...-.$-.$.-.$    ",
"     $$...$..-..$$X++@XX.......X..X......$.$    ",
"     .$..---.---$$.o@@oXXXX..X...XO#oX.X..$$.   ",
"     .$.-$$--.$-.$$@+@@XXXX..X.$$#OOO#XX....X   ",
"     .$$.-..--..Xo@+++oo@@@XXXXX%&&&*&#oX$$     ",
"     ..$.-$-$$.$X=&O%#+@+++@@o@&*****&=Oo..     ",
"     X$$.....$$XoO&**O%%%OO****************     ",
"     X$X..$..$$X#=**************************    "};
