#define noname_width 48
#define noname_height 48
static char noname_bits[] = {
 0x80,0x6a,0x55,0xa5,0x54,0x01,0x80,0xaa,0xaa,0x52,0x55,0x01,0x80,0x5a,0x89,
 0x4a,0x55,0x01,0x40,0xd5,0x2a,0xab,0x52,0x01,0x80,0xea,0xaf,0x4e,0x55,0x01,
 0x80,0xda,0x5f,0x5f,0xaa,0x02,0x80,0xf6,0x9f,0x5e,0x55,0x01,0x80,0xfa,0x7f,
 0x5d,0x55,0x01,0x40,0xfd,0xff,0xff,0xaa,0x02,0x80,0xfe,0xff,0xff,0x52,0x01,
 0x40,0xfd,0xff,0xf6,0xad,0x02,0x80,0xfe,0x17,0xe0,0x6b,0x01,0x40,0xff,0x47,
 0xd4,0x55,0x01,0x80,0xfe,0x1b,0xd0,0xab,0x02,0x40,0xff,0x42,0xe0,0xb7,0x02,
 0x80,0xfe,0x15,0xd4,0x57,0x01,0x40,0xff,0x4b,0xe1,0x6b,0x01,0x40,0xff,0x2e,
 0x90,0xb7,0x02,0x80,0xfe,0xbf,0xff,0xab,0x02,0x40,0xff,0xff,0xff,0x55,0x01,
 0x80,0xff,0x7d,0xef,0xbb,0x01,0x40,0x7d,0x6b,0xd5,0xd5,0x02,0x80,0xfe,0x6a,
 0xeb,0xb6,0x02,0x40,0xfb,0xf5,0xa4,0x5a,0x01,0x80,0x7e,0xab,0xea,0xb5,0x03,
 0x40,0xfb,0xf2,0xd2,0xda,0x00,0x40,0xfd,0x6d,0xeb,0xb6,0x03,0x80,0xf5,0xff,
 0x77,0x5b,0x01,0x40,0xfb,0xfd,0xff,0x76,0x03,0x40,0xf9,0xff,0x7f,0xad,0x01,
 0x80,0xfa,0x7f,0xbf,0x75,0x03,0xc0,0xf2,0xff,0xdf,0xbe,0x01,0x00,0xd0,0xff,
 0x7f,0x6b,0x03,0x00,0xe2,0xff,0xaf,0xdd,0x02,0x00,0x80,0xff,0x43,0xbb,0x01,
 0x00,0x40,0xff,0x83,0x6e,0x03,0x00,0x00,0xff,0x02,0xbd,0x01,0x00,0x00,0x78,
 0x0b,0x6a,0x03,0x00,0x00,0xe8,0x50,0xbc,0x01,0x00,0x80,0xb0,0x05,0x68,0x03,
 0x00,0x00,0x48,0x22,0xb9,0x01,0x00,0x80,0xd2,0x00,0x68,0x03,0x00,0x00,0x54,
 0x10,0xf0,0x02,0x00,0x00,0x24,0x40,0x52,0x03,0x00,0x00,0x20,0x01,0xe0,0x02,
 0x00,0x00,0x40,0x00,0x42,0x03,0x00,0x00,0x00,0x08,0x90,0x01,0x00,0x90,0xd4,
 0x22,0x45,0x03};
