#define noname_width 48
#define noname_height 48
static char noname_bits[] = {
 0x00,0x52,0x48,0x21,0x92,0x00,0x80,0x8a,0x22,0x4a,0x09,0x01,0x00,0x52,0x08,
 0x90,0x24,0x00,0x80,0x14,0x01,0x00,0x50,0x01,0x00,0x49,0x00,0x00,0x0a,0x01,
 0x40,0x95,0x00,0x00,0xa0,0x00,0x00,0x22,0x44,0x22,0x08,0x02,0x00,0x09,0xa0,
 0x94,0xa0,0x00,0x80,0x02,0x54,0x15,0x01,0x01,0x40,0x80,0x5a,0xed,0x42,0x00,
 0x00,0x41,0x6a,0x5d,0x11,0x01,0x40,0xa8,0xde,0xeb,0x45,0x02,0x00,0xd4,0x7a,
 0xff,0x1b,0x01,0x00,0x69,0xff,0xfd,0x6f,0x01,0x00,0xbe,0xf5,0xdf,0x5b,0x01,
 0x40,0xf5,0xbf,0xff,0xef,0x01,0x80,0x7a,0xfb,0xee,0xbf,0x02,0x00,0xfd,0xaf,
 0xf5,0xff,0x01,0xc0,0xfe,0x92,0xaa,0xef,0x03,0x40,0xef,0x49,0x50,0x7f,0x01,
 0x80,0x7e,0x2b,0xd5,0xfe,0x03,0x80,0xfd,0x35,0x4c,0xff,0x02,0x40,0x7f,0x5f,
 0xff,0xde,0x01,0xc0,0x7d,0x2f,0x59,0x7f,0x03,0x80,0x7e,0x54,0xa5,0xfe,0x01,
 0xc0,0xff,0x42,0x49,0xff,0x03,0x40,0xbf,0xb4,0xa0,0xef,0x02,0xc0,0xfa,0x21,
 0x8b,0xfe,0x03,0x80,0x7f,0xdd,0xea,0xff,0x03,0xc0,0xfa,0xab,0xab,0x7f,0x03,
 0x80,0xff,0x5e,0xfe,0xfe,0x01,0x40,0xfd,0xab,0xaa,0xff,0x03,0x80,0xfe,0x12,
 0xb5,0xbf,0x01,0x40,0xf5,0x5b,0xd5,0xff,0x03,0x80,0xfa,0x97,0xea,0x7f,0x01,
 0x40,0xd5,0x57,0xdc,0xbf,0x03,0x80,0xd6,0x9f,0xfb,0x6f,0x01,0x80,0xaa,0xfc,
 0x7e,0xbb,0x03,0x40,0xad,0xfe,0xdf,0x6f,0x01,0x80,0x6a,0xf5,0xb7,0xaf,0x03,
 0x40,0xdb,0xbe,0xad,0x7f,0x01,0x40,0xf5,0xff,0xd5,0xff,0x03,0x80,0xff,0x5f,
 0xeb,0xff,0x03,0xc0,0xff,0xff,0xca,0xff,0x03,0xc0,0xff,0x6f,0xeb,0xff,0x03,
 0xc0,0xff,0xdb,0xfd,0xff,0x03,0xc0,0xff,0x7f,0xff,0xff,0x03,0xc0,0xff,0xef,
 0xff,0xff,0x03};
