/* XPM */
static char *noname_xpm[] = {
/* width height ncolors chars_per_pixel */
"48 48 17 1",
/* colors */
"` c black",
"a c grey33",
"b c grey47",
"c c grey40",
"d c grey87",
"e c grey80",
"f c grey73",
"g c grey27",
"h c grey20",
"i c grey13",
"j c grey67",
"k c grey60",
"l c grey53",
"m c white",
"n c grey93",
"o c grey7",
"p s None c None",
/* pixels */
"ppppppmmmmmmmmmmmmmmmmmmmmmmmmmmmmmmmmmmmmpppppp",
"ppppppmmmmmmmmmmmmmmmmmdejdmmmmmmmmmmmmmmmpppppp",
"ppppppmmmmmmmmmmmmmmdjcghacjdnmmmmmmmmmmmmpppppp",
"ppppppmmmmmmmmmmmnfllbaghggcklkdmmmmmmmmmmpppppp",
"ppppppmmmmmmmmmmdkklbaghihhaaacljmmmmmmmmmpppppp",
"ppppppmmmmmmmmmdbcbbahhhihihhhhacbmmmmmmmmpppppp",
"ppppppmmmmmmmmecghhhhhihhiihiihhghkmmmmmmmpppppp",
"ppppppmmmmmmmdcihihhiiiiihhiiiihhhgdmmmmmmpppppp",
"ppppppmmmmmmmlhiiohghhihhhhhgahiihibmmmmmmpppppp",
"ppppppmmmmmmnghiohcagaghacbbjejaiiihemmmmmpppppp",
"ppppppmmmmmmbiooilfkccljenmmmmnegooicmmmmmpppppp",
"ppppppmmmmmnhiohlednnnnmmmmmmmmmfioihdmmmmpppppp",
"ppppppmmmmmdhiobfdmmmmmmmmmmmmmmmloihjmmmmpppppp",
"ppppppmmmmmfiohkedmmmmmmmmmmmmmmmdgihlmmmmpppppp",
"ppppppmmmmmjohajenmmmmmmmmmmmmmmmmlihcmmmmpppppp",
"ppppppmmmmmjoicedmmmmmmmmmmmmmmmmmjhiammmmpppppp",
"ppppppmmmmml`obfdnmmmmmmmmmmmmmmmmjgibmmmmpppppp",
"ppppppmmmmmf`obeeddednmmmmmmmmmmmmkhojmmmmpppppp",
"ppppppmmmmmnoollklcaabkdeefjjfenmmkoinmmmmpppppp",
"ppppppmmmmmmgiacdnklkdcbclfbcedednbocmmmmmpppppp",
"ppppppmmmmmnagllbcggakchhfjllendklgikmmmmmpppppp",
"ppppppmmmmmnlajkjccacbcflkcahabffelkmmmmmmpppppp",
"ppppppmmmmmncbjjdjkklcfmnlkkkfemeebemmmmmmpppppp",
"ppppppmmmmmnckjfeeeejbnmmkeeddmmfdcdmmmmmmpppppp",
"ppppppmmmmmdckfeennfcfnmmnkmmmmmemcdmmmmmmpppppp",
"ppppppmmmmmdckeejfejjemmmmeednmdnmlnmmmmmmpppppp",
"ppppppmmmmmnakfdmmnkjkjdnnfemnnmmmlmmmmmmmpppppp",
"ppppppmmmmmngkfennjjfgabbknlnmmmmnbnmmmmmmpppppp",
"ppppppmmmmmmaljfejllbgbccbjjfnmmmeanmmmmmmpppppp",
"ppppppmmmmmmlckkjlagggcacgaakdmmmlgmmmmmmmpppppp",
"ppppppmmmmmmlglkjcihcblllcghbfnndaammmmmmmpppppp",
"ppppppmmmmmmjhcbkbbffjkjdnjgcedelhbmmmmmmmpppppp",
"ppppppmmmmmmmghacckdnfccfmmjbkllghjmmmmmmmpppppp",
"ppppppmmmmmmmeoohglefkllfmmfacgiohfmmmmmmmpppppp",
"ppppppmmmmmmmmh`oogabbccljjahiooobemmmmmmmpppppp",
"ppppppmmmmmmmml```oohhgggghioo`oaffmmmmmmmpppppp",
"ppppppmmmmmmmmfg`````oiiiio``oiceeldmmmmmmpppppp",
"ppppppmmmmmmmmdci````````````ibffflemmmmmmpppppp",
"ppppppmmmmmmmmmcai``````````hbjjfcaeemmmmmpppppp",
"ppppppmmmmmmmmmlaah```````igbkkkccbjemmmmmpppppp",
"ppppppmmmmmmmndbcaahioooohaclbcagclenmmmmmpppppp",
"ppppppmmmmmmndfgaaaaghhggaccagaaabendnmmmmpppppp",
"ppppppmmmmmmmjjgacagggacccagggabjjemnnmmmmpppppp",
"ppppppmmmmmmdecggaaggacahhacackndffnmmmmmmpppppp",
"ppppppmmmmnnffciihghihiiihlllfnnmneenmmmmmpppppp",
"ppppppmmmmnekcgooo``oiihhaljeddnmmnejjjnmmpppppp",
"ppppppmmmmmjfbghoiooiiiiibeeeednmmnjbcknmmpppppp",
"ppppppeeeeflkahio``````oajkkkkfffjjbaacjfepppppp"
};
