#define noname_width 48
#define noname_height 48
static char noname_bits[] = {
 0x00,0x00,0x00,0x00,0x00,0x00,0x00,0x00,0x00,0x00,0x00,0x00,0x00,0x11,0xe9,
 0x05,0x00,0x00,0x00,0x04,0xfc,0x0b,0x00,0x00,0x00,0xa0,0xff,0x7a,0x00,0x00,
 0x00,0x09,0xff,0xad,0x01,0x00,0x00,0xe0,0xff,0xd7,0x01,0x00,0x80,0xe4,0xff,
 0xff,0x03,0x00,0x00,0xf0,0xff,0xbf,0x0b,0x00,0x00,0xf5,0x7f,0xff,0x07,0x00,
 0x00,0xf8,0xff,0xff,0x1d,0x00,0x00,0xf9,0xff,0xff,0x17,0x00,0x00,0xfc,0x2f,
 0xa4,0x0f,0x00,0x40,0xf9,0x57,0xa1,0xbb,0x00,0x00,0xfc,0x05,0x44,0x3f,0x00,
 0x00,0xfd,0xab,0xa0,0x3e,0x00,0x80,0x7c,0x15,0x92,0x9f,0x00,0x00,0xfc,0x5a,
 0x40,0x3e,0x00,0x80,0xfe,0x7f,0xa9,0x1f,0x00,0x00,0x74,0xf6,0xd2,0x0e,0x00,
 0x80,0xf4,0xba,0xfd,0x4f,0x02,0x00,0xba,0xda,0xe9,0x0f,0x00,0x80,0x6c,0x28,
 0xba,0x43,0x00,0x00,0xd4,0x42,0xd1,0x16,0x00,0x80,0x7a,0x89,0x28,0x81,0x00,
 0x00,0xa9,0xa5,0x92,0x21,0x00,0x80,0xfc,0xaa,0xa8,0x84,0x02,0x00,0x6a,0xab,
 0x5b,0x21,0x00,0x80,0xbc,0xad,0xd6,0x84,0x00,0x00,0x74,0x77,0xbb,0x28,0x00,
 0xc0,0xff,0xad,0x6e,0x82,0x02,0xc0,0xdf,0xd6,0xda,0x20,0x00,0xc0,0xff,0xdb,
 0x37,0x8a,0x00,0xc0,0xff,0xaf,0x7a,0x21,0x01,0xc0,0xff,0x5f,0x0d,0x14,0x00,
 0xc0,0xff,0xf7,0xaf,0x42,0x01,0xc0,0xff,0x7f,0x13,0x14,0x02,0xc0,0xff,0xff,
 0x8f,0xa2,0x00,0xc0,0xff,0xff,0x23,0x84,0x02,0xc0,0xff,0xff,0x93,0x52,0x00,
 0xc0,0xef,0xff,0x4a,0x84,0x02,0xc0,0xff,0xff,0x97,0x52,0x00,0xc0,0xff,0xff,
 0x23,0x24,0x01,0xc0,0xff,0xff,0x97,0x92,0x00,0xc0,0xff,0xff,0x27,0x49,0x02,
 0xc0,0xff,0xff,0x4f,0x92,0x00,0xc0,0xff,0xff,0x27,0x49,0x02,0xc0,0xff,0xff,
 0x5f,0x55,0x01};
