#define noname_width 48
#define noname_height 48
static char noname_bits[] = {
 0x00,0x00,0xfa,0x37,0x01,0x00,0x08,0x05,0xfe,0xdf,0xaa,0x00,0x00,0x00,0xbf,
 0xb7,0x22,0x02,0x20,0x45,0xd7,0xff,0x8f,0x00,0x00,0xc0,0xed,0x7e,0x55,0x04,
 0x08,0x65,0xdb,0xd5,0x2e,0x00,0x40,0xf0,0x6d,0xab,0x5b,0x01,0x00,0x7a,0xb7,
 0xa4,0x56,0x04,0x00,0xe8,0x0a,0x90,0x5e,0x00,0x40,0x7a,0x45,0x00,0xec,0x02,
 0x00,0xbd,0x12,0x80,0x78,0x00,0x08,0xf4,0x04,0x00,0xea,0x04,0x40,0x3e,0x01,
 0x00,0xf8,0x00,0x00,0xdc,0x20,0x01,0xf4,0x02,0x80,0x3c,0x05,0x00,0x78,0x08,
 0x00,0xf9,0x00,0x00,0x7a,0x01,0x40,0x38,0x01,0x00,0x78,0x04,0x00,0xb4,0x90,
 0x00,0x70,0x01,0x40,0xb1,0x02,0x88,0x72,0x08,0x00,0x54,0x59,0x51,0x34,0x02,
 0x40,0xb2,0x56,0x28,0xb1,0x00,0x00,0xb1,0x2d,0xf0,0x52,0x04,0x20,0x8a,0xa8,
 0x48,0x08,0x01,0x80,0x50,0x44,0x20,0x52,0x04,0x00,0x12,0x21,0x01,0x40,0x00,
 0x40,0x51,0x40,0x44,0x10,0x05,0x10,0x22,0x28,0x00,0x48,0x08,0x80,0xa4,0xa2,
 0x50,0x90,0x02,0x00,0x22,0x58,0x0a,0x22,0x08,0x48,0xa1,0x49,0xa5,0x90,0x02,
 0x00,0x4a,0xaa,0x40,0xaa,0x08,0x40,0xa1,0x4a,0x25,0x41,0x02,0x10,0x42,0x5f,
 0xd5,0x2c,0x09,0x80,0x94,0x54,0x55,0x41,0x02,0x10,0x41,0x55,0x0a,0xac,0x08,
 0x40,0x94,0x52,0x45,0x49,0x02,0x20,0x41,0x25,0x81,0x52,0x04,0x88,0x14,0x4b,
 0x24,0xaa,0x02,0x20,0x42,0x0d,0x41,0x49,0x04,0x08,0xe9,0x56,0xa8,0xba,0x02,
 0xa0,0x7a,0x19,0x22,0x7c,0x04,0x10,0xfc,0x6a,0x51,0xf9,0x05,0x40,0x3d,0x55,
 0x2d,0x70,0x09,0x50,0xbe,0xaa,0x15,0xe9,0x02,0x80,0x9b,0x54,0x02,0xf0,0x05,
 0xd0,0x56,0x22,0x89,0x60,0x0b,0x70,0x5f,0x88,0x00,0xf4,0x05,0x08,0x37,0x02,
 0x20,0x70,0x0d};
