/* XPM */
static char *noname_xpm[] = {
/* width height ncolors chars_per_pixel */
"48 48 17 1",
/* colors */
"` c black",
"a c grey33",
"b c grey47",
"c c grey40",
"d c grey87",
"e c grey80",
"f c grey73",
"g c grey27",
"h c grey20",
"i c grey13",
"j c grey67",
"k c grey60",
"l c grey53",
"m c white",
"n c grey93",
"o c grey7",
"p s None c None",
/* pixels */
"pppmmmmmmmmmmmmmmmmmmmmmmmmmmmmmmmnmmmnmnnmnpppp",
"pppmmmmmnmmmmmmmmmmmmmmmmmmmmmmmmnmmnmnnmnnmpppp",
"pppmnmmnmmmmmmmnmnnnnnnnmnmnmnmnmmnmnmnmnmnnpppp",
"pppmmmmmmmnmmnnnddeefjefddnmmmmmnmmmmmmnmnmmpppp",
"pppmmmnmmnmnedefjjkbbcabbjdnnmmmmmnmnmnmnmnnpppp",
"pppmnmmmmndfjjklkccbbbcahcldmnmnmnmmmnmnmmmnpppp",
"pppmmmmnnekllbcbbccaaacchhgleeddnmmnmmmmmnnnpppp",
"pppmmmmmfbblacaacbcbcbcaagihhabjdnmmmmnmmmnnpppp",
"pppmmnmebcbcaaccbbcklkbaaggiiigajdnmnmmmnnnnpppp",
"pppmmmebcbbcccbccclljfkbbbghiihgcknnmmmmmmnmpppp",
"pppmmmkbcbaccclllbljfddjklbahiiigldnmnmnnnmnpppp",
"pppmmdbcbcaabblllkjednnnefjlahiihaknmmmmnmnmpppp",
"pppmnecccaacllbllfdnmmnnndfjkcioiicjnnnnmnmnpppp",
"pppmnfcacacbllllfdmmnmmnnddejkgioiicfednnmnmpppp",
"pppmdkaaagcbblkenmmmmnnnnndeejbiooiiakedmnmnpppp",
"pppmdlgaacclljenmnmnmnmmnnndefkao``oicjfnmnmpppp",
"pppmeahihalkjfnnnmmnmnmmnnnddejkh```ohcjenmnpppp",
"pppnjgiihckjfdnmnmnmnmmnmnnfjkkkbo```iibfnnmpppp",
"pppnjaggibfednnnmnnmmmnmndjaggglkho``oihldmmpppp",
"pppnkaggikfddnnmmmmmnmndekagacblkbo``oiiienmpppp",
"pppmjahiijeennmmnmnmmndfbgigaggllkiooooiibmnpppp",
"pppmfaiiikfddnnnmnnnnnelghhlfkabkjaioooohhnmpppp",
"pppnebhiilfddnnmddeeenelagocfkllkjbihoioiodnpppp",
"pppmnkghiafdnnnfklcbkddkahgblllkkklgiiioiidmpppp",
"pppmnkagigkenflaiihacendlcccbbkjjjlgiiiiiicepppp",
"pppnnlchiicefcaahhgaaemnnfjjjeeefkkaohiihihcpppp",
"pppmelbgiihfkaagahaacennnnennnndfkkcohoiihhhpppp",
"pppdklcghiokkbablhbllnnmnnflfddejllbii`oiiigpppp",
"pppfkbagi`oajlabjllcjnmmnnfkckefkllbio``iiihpppp",
"pppfkcahoo`okjkkklbjnfnmndjlbcljkllbioooihhgpppp",
"pppfbggho`ooafffjedndkdddfciiggjkllcio`oigabpppp",
"pppkaghh`o`ohkefennnjbekklooihicklbcio`ihgblpppp",
"pppkghhio```icjeddndbcahag`ihlbibbcgio`ohcclpppp",
"pppcghhio`o``gkfedefccho``oiaacogaghoo``ogbfpppp",
"pppcgigiiooo`ickjffkgghho`ohgcgiihioo```oihbpppp",
"ppplgihioohio`hblkklghhhiiaagchiiio`o```oooipppp",
"pppkahiiiohhiooakjklaighgcbcacgiooo```o`oio`pppp",
"pppfjhiiiiighooibjjlgoaiaaakcagi`````oo``ooipppp",
"pppnebhihhgahioigjkbhiaihckkhgho`````hi`o`oopppp",
"pppmmebhhgaagi`iobcgiolabkfaohho`````hg````ipppp",
"pppmnnfgaccago``ohghoifjjfbi`oo`````oaao```ipppp",
"pppmmndcblcgio`o`ooooojeebio`oo`````icai````pppp",
"pppmnnjlkcghi``o`ooo``ibco```o``````gcaai```pppp",
"pppmnnflbghhiooooo`o``o````o``o`oo`oacaagho`pppp",
"pppnnfjbchiih``ooho``o`o`````o`o```gcacaagghpppp",
"pppndelbahiiioooigi``o`o`ooo`````oiacaaaaaaapppp",
"pppmndklghiihhgghgh```oo``o`````ooacaaccaccbpppp",
"pppnnnflgicaiaccbjca````o```````ogaacaacccbbpppp"
};
