#define noname_width 48
#define noname_height 48
static char noname_bits[] = {
 0x00,0x00,0x00,0x00,0x00,0x00,0x00,0x00,0x00,0x01,0x00,0x00,0x00,0x00,0xf4,
 0x2e,0x00,0x00,0x00,0x00,0x15,0xdb,0x00,0x00,0x00,0xc0,0xd6,0xbe,0x01,0x00,
 0x00,0x50,0x69,0xeb,0x07,0x00,0x00,0x28,0x48,0x5d,0x0f,0x00,0x00,0xb4,0xa4,
 0xee,0x3d,0x00,0x00,0x1e,0xa8,0x5a,0x2f,0x00,0x00,0x14,0x01,0xd2,0x7f,0x00,
 0x00,0x4f,0x00,0xa0,0x76,0x00,0x00,0x15,0x00,0x40,0xff,0x00,0x80,0x0f,0x00,
 0x00,0xed,0x00,0x00,0x15,0x00,0x00,0xfa,0x01,0xc0,0x0f,0x00,0x40,0xbd,0x01,
 0x80,0x15,0x00,0x00,0xfe,0x03,0x40,0x0f,0x10,0x40,0xed,0x01,0x80,0xab,0x05,
 0x11,0xfd,0x01,0xc0,0x46,0x0a,0x56,0xfd,0x00,0xc0,0x2f,0xad,0xbb,0xbe,0x01,
 0xa0,0x95,0x4a,0xa8,0x7e,0x00,0x40,0x2f,0x94,0x56,0x75,0x00,0xc0,0x92,0x92,
 0x48,0x3f,0x00,0x00,0x15,0x88,0x92,0x6c,0x00,0x00,0x27,0x04,0xa1,0x16,0x00,
 0x00,0x1a,0x91,0x14,0x1d,0x00,0x00,0x54,0x84,0xe2,0x0e,0x00,0x00,0x5c,0x52,
 0x11,0x1b,0x00,0x00,0x2a,0xed,0xe4,0x0f,0x00,0x00,0x74,0x55,0x57,0x0b,0x00,
 0x00,0xdc,0xbb,0xed,0x07,0x00,0x00,0x74,0xa5,0xda,0x06,0x00,0x00,0xd8,0xdd,
 0xee,0x03,0x00,0x00,0x78,0x6b,0xbb,0x03,0x00,0x00,0xf4,0xbd,0xfd,0x03,0x00,
 0x00,0x58,0x6f,0x6f,0x03,0x00,0x00,0xf0,0xfa,0xfd,0x85,0x00,0x00,0x60,0xbf,
 0xd7,0x13,0x00,0x00,0xd0,0xed,0xfe,0x2b,0x00,0x80,0xe0,0xfe,0x77,0x45,0x00,
 0x00,0xc0,0xfb,0xfd,0x53,0x00,0x80,0x80,0x7e,0x5f,0x8b,0x02,0x00,0xc0,0xeb,
 0xf7,0x93,0x04,0x00,0x01,0x5d,0xad,0x06,0x02,0x00,0x81,0x6b,0x5b,0x23,0x09,
 0x00,0x00,0xb6,0xaa,0x0b,0x02,0x20,0x01,0xaa,0xb5,0x1a,0x04,0x48,0x48,0xde,
 0xae,0xfb,0x08};
