#define cmu_width 48
#define cmu_height 48
static char cmu_bits[] = {
   0x00, 0x00, 0x00, 0x00, 0x00, 0x00, 0x00, 0x00, 0x00, 0x00, 0x00, 0x00,
   0x00, 0x00, 0x00, 0x00, 0x00, 0x00, 0x00, 0x00, 0x00, 0x80, 0x01, 0x00,
   0x00, 0x00, 0x00, 0x78, 0x01, 0x00, 0x00, 0x00, 0x80, 0x07, 0x02, 0x00,
   0x00, 0x00, 0x78, 0x00, 0x02, 0x00, 0x00, 0x80, 0x07, 0x00, 0x02, 0x00,
   0x00, 0x78, 0x00, 0x00, 0x02, 0x00, 0x80, 0x07, 0x00, 0x00, 0x04, 0x00,
   0x78, 0x00, 0x00, 0x00, 0x04, 0x00, 0x07, 0x00, 0x00, 0x00, 0x04, 0x00,
   0x01, 0x00, 0x00, 0x00, 0x04, 0x00, 0x02, 0x0f, 0x00, 0x00, 0x08, 0x06,
   0xc2, 0x00, 0x00, 0x00, 0x08, 0x00, 0xc2, 0xc0, 0x01, 0x00, 0xc0, 0xe6,
   0xc2, 0x40, 0x7b, 0x9f, 0x79, 0x96, 0xc4, 0x00, 0x5b, 0x53, 0x4a, 0x96,
   0xc4, 0xc0, 0x1b, 0xdb, 0x71, 0x76, 0xc4, 0x40, 0x1b, 0x5b, 0x08, 0x16,
   0x04, 0xcf, 0x1b, 0x9b, 0xf9, 0xe6, 0x08, 0x00, 0x00, 0x00, 0x88, 0x00,
   0x08, 0x00, 0x00, 0x00, 0x70, 0x00, 0xc8, 0x60, 0x60, 0x03, 0x00, 0x00,
   0xc8, 0x71, 0x60, 0x03, 0x20, 0x00, 0xd0, 0x69, 0x60, 0x03, 0x00, 0x00,
   0x50, 0x67, 0x66, 0x73, 0x3e, 0x00, 0x50, 0x67, 0x69, 0xdb, 0x26, 0x00,
   0x50, 0x66, 0x67, 0x8b, 0x36, 0x00, 0x60, 0x66, 0x61, 0xdb, 0xb6, 0x00,
   0x60, 0x66, 0x66, 0x73, 0xb6, 0x00, 0x20, 0x00, 0x00, 0x00, 0x80, 0x00,
   0x20, 0x00, 0x00, 0x00, 0x80, 0x00, 0x40, 0x00, 0x00, 0x00, 0x00, 0x01,
   0x40, 0x00, 0x00, 0x00, 0x00, 0x01, 0x40, 0x00, 0x00, 0x00, 0x80, 0x01,
   0x40, 0x00, 0x00, 0x00, 0x78, 0x00, 0x80, 0x00, 0x00, 0x80, 0x07, 0x00,
   0x80, 0x00, 0x00, 0x78, 0x00, 0x00, 0x80, 0x00, 0x80, 0x07, 0x00, 0x00,
   0x80, 0x00, 0x78, 0x00, 0x00, 0x00, 0x00, 0x81, 0x07, 0x00, 0x00, 0x00,
   0x00, 0x79, 0x00, 0x00, 0x00, 0x00, 0x00, 0x07, 0x00, 0x00, 0x00, 0x00,
   0x00, 0x00, 0x00, 0x00, 0x00, 0x00, 0x00, 0x00, 0x00, 0x00, 0x00, 0x00,
   0x00, 0x00, 0x00, 0x00, 0x00, 0x00, 0x00, 0x00, 0x00, 0x00, 0x00, 0x00};
