#define face_width 48
#define face_height 48
static char face_bits[] = {
   0x00, 0x00, 0x80, 0x07, 0x00, 0x00, 0x00, 0x00, 0xf0, 0x3f, 0x00, 0x00,
   0x00, 0x00, 0xff, 0xff, 0x03, 0x00, 0x00, 0xe0, 0xff, 0xff, 0x0f, 0x00,
   0x00, 0xf0, 0xff, 0xff, 0x1f, 0x00, 0x00, 0xfc, 0xff, 0xff, 0x7f, 0x00,
   0x00, 0xfe, 0xff, 0xff, 0xff, 0x00, 0x00, 0xff, 0xff, 0xff, 0xff, 0x01,
   0x80, 0xff, 0xff, 0xff, 0xff, 0x03, 0xc0, 0xff, 0xff, 0xff, 0x83, 0x07,
   0xe0, 0xff, 0xff, 0xff, 0x83, 0x0f, 0xe0, 0xff, 0xff, 0xff, 0x83, 0x0f,
   0xf0, 0xff, 0xff, 0xff, 0x00, 0x1c, 0xf0, 0xff, 0xff, 0xff, 0x00, 0x1c,
   0x78, 0xfc, 0xff, 0xff, 0x00, 0x3c, 0x38, 0xf8, 0x07, 0xf8, 0x00, 0x3c,
   0x1c, 0xf0, 0x01, 0xe0, 0x83, 0x7f, 0x1c, 0xf0, 0x00, 0x80, 0x83, 0x7f,
   0x1c, 0x70, 0x00, 0x00, 0x83, 0x7f, 0x3c, 0x38, 0xe0, 0x03, 0x83, 0x7f,
   0x7e, 0x1c, 0xf8, 0x0f, 0x82, 0xff, 0xfe, 0x1f, 0xfc, 0x1f, 0x80, 0xff,
   0xfe, 0x0f, 0xfe, 0x3f, 0x80, 0xff, 0x3e, 0x00, 0x00, 0x00, 0x80, 0xff,
   0x3e, 0x00, 0x00, 0x00, 0x80, 0xff, 0x3e, 0x00, 0x00, 0x00, 0x80, 0xff,
   0x3e, 0x00, 0x00, 0x00, 0x80, 0xff, 0x3e, 0x08, 0xff, 0xff, 0x83, 0xff,
   0x3e, 0x08, 0xff, 0xff, 0x83, 0xff, 0x3c, 0x08, 0xfe, 0x3f, 0x00, 0x78,
   0x3c, 0x18, 0xfe, 0x1f, 0x00, 0x78, 0x3c, 0x18, 0xfc, 0x0f, 0x00, 0x78,
   0x3c, 0x38, 0xf8, 0x07, 0xfe, 0x7f, 0xf8, 0x7f, 0xe0, 0x01, 0xff, 0x3f,
   0xf8, 0xff, 0x00, 0x80, 0xff, 0x3f, 0xf0, 0xff, 0x01, 0xc0, 0xff, 0x1f,
   0xf0, 0xff, 0x03, 0xf0, 0xff, 0x1f, 0xe0, 0xff, 0x0f, 0xfc, 0xff, 0x0f,
   0xe0, 0xff, 0xff, 0xff, 0xff, 0x0f, 0xc0, 0xff, 0xff, 0xff, 0xff, 0x07,
   0x91, 0xff, 0xff, 0xff, 0xff, 0x63, 0x11, 0xff, 0xff, 0xff, 0xff, 0x91,
   0x11, 0xfe, 0xff, 0xff, 0xff, 0x10, 0x11, 0xfc, 0xff, 0xff, 0x7f, 0x20,
   0x11, 0xf0, 0xff, 0xff, 0x1f, 0x40, 0x11, 0xc0, 0xff, 0xff, 0x07, 0x80,
   0x11, 0x00, 0xff, 0xff, 0x01, 0x90, 0x0e, 0x00, 0xf8, 0x3f, 0x00, 0x60};
