/* XPM */
static char *noname_xpm[] = {
/* width height ncolors chars_per_pixel */
"48 48 17 1",
/* colors */
"` c black",
"a c grey33",
"b c grey47",
"c c grey40",
"d c grey87",
"e c grey80",
"f c grey73",
"g c grey27",
"h c grey20",
"i c grey13",
"j c grey67",
"k c grey60",
"l c grey53",
"m c white",
"n c grey93",
"o c grey7",
"p s None c None",
/* pixels */
"pppednmnnnnmmmmmmmmmmmmmmnmnnnnmnnnnnnnndnndpppp",
"pppddnmnmnnmmmnmmmmmmmmmmnnnnnnnnnnnndndnnndpppp",
"pppddnmnnnnmmmmnmnmmndnnndnnnnnnnndndnndnddnpppp",
"pppddnnnmnnnmnmnnkbccgacaackednnnndnnndndnnnpppp",
"pppddnmnnnmmmmmechihaagghaagclffdndnnndnnnndpppp",
"pppddnmnmnnmmmnchhhgggggggggaaakeddnndnndnnnpppp",
"pppddnmmnnmmmmegihhhghhghihhiihglfendnddnnddpppp",
"pppdnnnmnnnnmnbhhiigghiihiiihooialjddnnndnndpppp",
"pppddnmmnmmmmfhhiiihgahiihhiiooogaafdndnnnnnpppp",
"pppddnmmmnnmmbhhioihgaghhiiiihiihgokdnnnnndnpppp",
"pppddnmmnmmmnghhgiihgggghiihghhihiocdnnnnnnnpppp",
"pppdnnmnmnmmdhacbhhhhaagggggaahhho`adnndnnndpppp",
"pppddnmmnmmnfialkkcaaaagaaagccagho`cdnnnnnndpppp",
"pppddmnmnnmmkigkjffeefkbccaclbcgio`bdnnnnndnpppp",
"pppddnmmnmmmloakjfednnneejjjjlcai``knndnnnnnpppp",
"pppddnmnmmnmjihljfednnnddddejkcgho`jnnnnnnndpppp",
"pppddnmnmnmmfihkjffeddeeeeefjklai`oenndnnnndpppp",
"pppddnmnnmnmjogkbgaaabkjfjjjllcah`hdnndnnnndpppp",
"pppddnmmmnmnnhhgacgiiickkahoo``oi`bnndnnnnndpppp",
"pppddnmnmnmmncbgchi`ihakbiio``o`oocnnddnnnnnpppp",
"pppddnmnmmmmdajgbcbbckcjkiagghiihihdnddnnnndpppp",
"pppddnnnnnmmefjlcjkkeeadjhkjlccccognnddnnnndpppp",
"pppddnmnmmmmdjkkfddddfkdfckfffjlaoannddnnnndpppp",
"pppednnnmnnmdekjfddflkjdjbckffjlgoanddndnmddpppp",
"pppednnnmnmndekjlkkclkblchibbllciobndddnnnndpppp",
"pppeddmnmnmmneklkbhalaio``ocaaaioojnnednnndnpppp",
"pppeddnnnmnmmekblcakjfekccbbhhh`oiddnddnnndnpppp",
"pppeddmnnnnnnnjklljcaccbaghiajh`gfnnddennnndpppp",
"pppeddnnnmnmmnfljjejabkjlgiajfooknnndednnmddpppp",
"pppeddmnnnmnnnfbkkfefkkkbbbkjcohddnddeednnndpppp",
"pppeednnnnnmnnfblkjefkkkbbckbiilddnddeddnndnpppp",
"pppeednnnnnnnnfkclkfejklllllgohddddndeeddndnpppp",
"pppeednnnnnndkjklblkeeedfkjco`kddddndeednnndpppp",
"pppeeddnnnndgbjjkbbbjfffjkci`iddddddeeednnndpppp",
"pppfeennnnelcjfffkcaallbcao``addddddefedddedpppp",
"pppeeddddjbcacjefjlchiiio```ocdeeeeeeffddndnpppp",
"pppfeefkbbccaaakfjkbaio``````ogkfbcaljedddddpppp",
"pppfjlbbcccaaaaabjjlbai````````ohhhhgakeddddpppp",
"pppkbbccccccagggggcllcai``````````iihhgkdnddpppp",
"pppbcccaaaaccaaagghggccai````````igaghhgkeeepppp",
"pppccaaaaacacagaggghhhhhio`````igagaacgiceeepppp",
"pppacacacaaaaaaaggghghhhihi```hggagaaaaghledpppp",
"pppaaaaaaaacaaaagggghhhhhiiiihggggagaggaggfepppp",
"pppaacaaaaaaaaaaaggghhhiiiihggggagaggagaagjfpppp",
"pppaaaaaaaaaacaagagggghhhghggggggaaagagggalfpppp",
"pppgaaaaaaaaaaaaagggghghhhggggggagggggggggbepppp",
"pppggagagaaaaaggggggggghggggggggggaagggggggjpppp",
"pppggaggagaagaggggggggggghggggggagggagghgghcpppp"
};
