/* XPM */
static char *noname_xpm[] = {
/* width height ncolors chars_per_pixel */
"48 48 17 1",
/* colors */
"` c black",
"a c grey33",
"b c grey47",
"c c grey40",
"d c grey87",
"e c grey80",
"f c grey73",
"g c grey27",
"h c grey20",
"i c grey13",
"j c grey67",
"k c grey60",
"l c grey53",
"m c white",
"n c grey93",
"o c grey7",
"p s None c None",
/* pixels */
"ppppppkllbcbbccbbbbbagckbblllllllllllbbllkpppppp",
"ppppppklbbbcbccblcgoohghohlcblblllkllbbblkpppppp",
"ppppppklbbcbcccbci```ohah`akaclbllllbbblllpppppp",
"ppppppklbbbcbccco`````oiaoohkggblllllbbllkpppppp",
"pppppplllbccccao```````oigaoghohblllbbbblkpppppp",
"ppppppllbccccao``````````oo`o```hbllbbblllpppppp",
"ppppppllbbcbch```````````````````hbbbbblllpppppp",
"ppppppllbbccao````````````````````gbbbbbllpppppp",
"ppppppllbbcch`````````````````````ogbbbbllpppppp",
"pppppplbbccco```````````````````````abbbllpppppp",
"ppppppllbbcg````````````````````````ocblblpppppp",
"ppppppbbbcco`````````````````````````gbbllpppppp",
"pppppplbcca``````````````````````````ibbblpppppp",
"pppppplbbai``````````````````````````icbblpppppp",
"pppppplbcao``````````````````````````obbblpppppp",
"ppppppbbcg```````````````````````````icbbbpppppp",
"pppppplbci``````````````````o````````hbbbbpppppp",
"ppppppbba`````````````oo```oihio````occblbpppppp",
"ppppppbbi````````oioigghhiiabbh`hgh`gcbbbbpppppp",
"ppppppbao````ii``hgaagi`cacbjlg`cgg`hcccbbpppppp",
"ppppppbg`````h```hccbbcablklfjlcbbc`hccbbbpppppp",
"ppppppco`````hho`halkjjjjjjlkjjjjfk`occcbbpppppp",
"ppppppa``````hgoohgbkjfedejlbjjfefk`occbbcpppppp",
"pppppph``````ighihhcljedefbclfjjffk``ccccbpppppp",
"ppppppo``````oaghhhackjfjccbljjbljl``cccbcpppppp",
"ppppppo```````ggihhgabkkbaghhaccala``accccpppppp",
"ppppppo`````````ihggacbbbbbcbblbhci``accbcpppppp",
"ppppppo`````````ohggacbagcbllkcaac```accccpppppp",
"ppppppo``````````hgaackbcgacbbablh``oaccccpppppp",
"ppppppi````````o`ogacclllbblllbbc```iaacccpppppp",
"pppppph````````o`ihcccblblblbblcg```gacccapppppp",
"ppppppa`````````ibhaccccblllkklho``iaacacapppppp",
"ppppppcgh``````ihjjacccccblkklc```igaaaccapppppp",
"ppppppckbhihhackbjeelaccbcbbccaahgaaaacacapppppp",
"ppppppjecaalkednefddekggggaaaaaaaaagaaaacapppppp",
"ppppppnkbckkfdnnmennnnechggacaggaaaaaaacaapppppp",
"ppppppelkjjjenmmmmmmmnnnkacjkaiiaaggaaaaaapppppp",
"ppppppjkjjffenmmmmmmmmmmmfkjeaaaaaagaaaaaapppppp",
"ppppppkjjjfedmmmmmmmmmmnmmneebaaaagaaaaaaapppppp",
"ppppppkjjjedfeemmmmmmmmmmmmmebaaaaaggaaaaapppppp",
"ppppppljjjnmmmmmmmmmmmmmnmmdkbaaagagaaaaaapppppp",
"ppppppljjjnmmmmmmmmmmmmmmnmelagaagagaaaaaapppppp",
"ppppppkjjkdmmmmmmmmmmmdmneeedaaaagagagaaaapppppp",
"ppppppfffjfmmmmmmmmmmmnmmfffecaaaggagaaaaapppppp",
"ppppppjfejjmmmmmmmmmmmmmnmfeeaaagagaaaaagapppppp",
"ppppppffefjdmmmmmmmmmmmmmmnffaaaagagaaaaagpppppp",
"ppppppeeefjfmmmmmmmmmmmmmmmdegaagagagaaaaapppppp",
"ppppppjkkkbbeeeeeeeededeeeeejhghhhhhhhggghpppppp"
};
