/* XPM */
static char *noname_xpm[] = {
/* width height ncolors chars_per_pixel */
"48 48 17 1",
/* colors */
"` c black",
"a c grey33",
"b c grey47",
"c c grey40",
"d c grey87",
"e c grey80",
"f c grey73",
"g c grey27",
"h c grey20",
"i c grey13",
"j c grey67",
"k c grey60",
"l c grey53",
"m c white",
"n c grey93",
"o c grey7",
"p s None c None",
/* pixels */
"ppppppfjfjfjffffffefeeeeededddddddndnnnnddpppppp",
"ppppppfjffffjfffefeeeeeefefeeddddddnddndndpppppp",
"ppppppjfjffffffffeeeeelahiiihckeddndnndnnnpppppp",
"ppppppjffjfffffeefeefa`````````igjdnnnnnnnpppppp",
"ppppppfjjfffffffeeekh````````````oaennndnnpppppp",
"ppppppjffffffffeefko```````````````gdnnnnnpppppp",
"ppppppffffffffeeeko`````````````````bnnmmmpppppp",
"ppppppffffffffefjo```````````````````jnnnmpppppp",
"ppppppfffffffeefg````````````````````gdnnnpppppp",
"ppppppjffffffefl``````````````````````knnnpppppp",
"ppppppfffjfffefh``````````````````````idnnpppppp",
"ppppppfffffefej````````````````````````fdnpppppp",
"ppppppfffffefel````o```ooo`o```````````lddpppppp",
"ppppppjjfeffeec`````o``iiggaacgio``````bndpppppp",
"ppppppjfffffefc````ooooihgacbbbcahio```cddpppppp",
"ppppppffffefeeg````oooiiiaacclbccghoi``cdepppppp",
"ppppppffffffefa````ooihigaacbbccagiii``kddpppppp",
"ppppppfffffeech`````oihgacbbllbcahhhi``fedpppppp",
"ppppppfffeeef``````````hgcbkkllbcgghi`ifeepppppp",
"ppppppfffffej````````oioihabkllbcahhiogdefpppppp",
"ppppppffeeeefo```````ohhlaihhghhhgaiooleefpppppp",
"ppppppfffffefo```oi````ooo````ioohgoookeefpppppp",
"ppppppffefefeh````io`ooagoooh`o``oo`hafeefpppppp",
"ppppppfffffffg````oihiihgiogbohiioi`cbeeffpppppp",
"ppppppjfffffec````ohabcccgocbhhgiooicleffjpppppp",
"ppppppffffeffji```iilbbbchiclahcagghajeeffpppppp",
"ppppppfffffffek```ogcccagggblbhckccchfeefjpppppp",
"ppppppffffjffel````habbghcalfbbggcagieefefpppppp",
"ppppppfffjfjfek````ohgagioiighhgacchgefeefpppppp",
"ppppppffffffffl`````oihggihhhohggghiaefeefpppppp",
"ppppppffjfjjffc`````oo`ooiaccgioiio`leeeffpppppp",
"ppppppefjjjfjkbo````````oihgago``o``feeeefpppppp",
"ppppppffjjjfjllg`````ooihghiiio``o`gdeefffpppppp",
"ppppppffjjenfjllo`````ioajddflhi``oedeffffpppppp",
"ppppppffjfndjjkkc`````oo`habchoi``kddeefjfpppppp",
"ppppppfenmndeekjkg`````ooo````o``cedeeejjjpppppp",
"ppppppdmmmmnneflfkg````ohacahio`gddeeeejjjpppppp",
"ppppppmmmmmmmndkkfkg````oiggho`oldmndefjkkpppppp",
"ppppppmmmmmmmmnebffjh`````oo```ilfmmmdejjkpppppp",
"ppppppmmmmmmmmmnjlfjja`````````alkdmmmmejjpppppp",
"ppppppmmmmmmmmmmnkkjjfb````````cjcfnnnmmnfpppppp",
"ppppppmmmmmmmmmmmnbkkfeko`````oakcjemnnnmmpppppp",
"ppppppmmmmmmmmmmmmnlklendh`````ablkennnmmmpppppp",
"ppppppmmmmmmmmmmmmmnkllemng````cakjnnnnmnmpppppp",
"ppppppmmmmmmmmmmmmmmnkblfklc```alkfdmnnmnmpppppp",
"ppppppmmmmmmmmmmmmmmmnlbkglkb``akeeemmnnnmpppppp",
"ppppppmmmmmmmmnmmmmmmmelbciabh`ljnnnnmnmmmpppppp",
"ppppppejeffffffffeffefflaahhgh`akjjjffjjffpppppp"
};
