/* XPM */
static char *noname_xpm[] = {
/* width height ncolors chars_per_pixel */
"48 48 17 1",
/* colors */
"` c black",
"a c grey33",
"b c grey47",
"c c grey40",
"d c grey87",
"e c grey80",
"f c grey73",
"g c grey27",
"h c grey20",
"i c grey13",
"j c grey67",
"k c grey60",
"l c grey53",
"m c white",
"n c grey93",
"o c grey7",
"p s None c None",
/* pixels */
"ppppppccaacaccccccbcbbblfjfmdlccacaaaaaagapppppp",
"ppppppccaaaccccccccblkfkcaledfkkbcaaaaaagapppppp",
"ppppppcaaaacacbcbbljdnelbldmmmdefkbbaaaaaapppppp",
"ppppppcacaaaccljjenemmjjkfbabjjjeefklcaaaapppppp",
"ppppppcaaaaccbjfeddkjkjefjjliihkennejbcaaapppppp",
"ppppppaaaaacckeejkbaaccahcgago`hbjeekkcaaapppppp",
"ppppppaaaaaablkfkahagi`giiooiihoihgkjkkcaapppppp",
"ppppppcaaaccllblao`ii``oioo`o`icho`igckkcapppppp",
"ppppppaaaaablacbo``iai`oo`i````ilao``hbklcpppppp",
"ppppppaaaaclcihi``obchogghho```ohago``icklpppppp",
"ppppppaaablkgho```hklccblcggi````oah``ohbbpppppp",
"ppppppaacblbhi````ckjkkjjjbaai````ogio`ogcpppppp",
"ppppppaacllcgo```obkjjjfefjcagh```oihi```hpppppp",
"ppppppaclllcgo```ilkjfffeeelcgai```ooiio``pppppp",
"ppppppaclllao````gbjjjfeedejlcaaiooo`oighipppppp",
"ppppppaablci`````acccbkjedeejlbcghihoo`oiipppppp",
"ppppppgabcg`````oaabahhbeeejkbaaaoooiio```pppppp",
"ppppppaablh`````hcbhiohcjejghiggh````o````pppppp",
"ppppppgcljc`````gbaooogakjahhohaao```o````pppppp",
"ppppppgcjfbo````ckbaggcbklgacio`hi````````pppppp",
"ppppppgaclbo```ockkkkllbkcgcbgiohho```````pppppp",
"ppppppggabli```ockjjjjkbjaabblbcbco```````pppppp",
"ppppppgggaaho``ockjfefllkaakkjklbao```````pppppp",
"ppppppggggggio`icljffkbkkgakjjjlcgo```````pppppp",
"ppppppghgggggh`iabkkllclbhgcjjkbci````````pppppp",
"ppppppgghgggghoiablbbbbcghablklcho````````pppppp",
"pppppphhgghggghogblbbbbllbccbbbgio````````pppppp",
"ppppppgghhgggggggbllghgacaaacbcgi`````````pppppp",
"pppppphhghggggggacllcggggiooblagi````````hpppppp",
"ppppppghhghhggaggcblbagagghcbbcgo`````ohhhpppppp",
"pppppphhghgggggggacbbbbbcaacccai`````oghggpppppp",
"ppppppghhhhhhgggggacclllbbbcaaho```ohghghhpppppp",
"pppppphhhghghgghgggacbllbccaagi```ihhhghhgpppppp",
"pppppphghhhhghgghghaaaacccgghho`hhhhghhhhhpppppp",
"pppppphhhhhghghgghgaaaaaghhhhho`ohghhhhhhhpppppp",
"ppppppghhhhhhhghhghgccaaaaaaagiiiahhhghhhhpppppp",
"pppppphhhhhhhhhghhaaaccccccccgggbjahhhhhhhpppppp",
"ppppppghhhhhghghhafaaaccbbbbbckedekchhhhhhpppppp",
"pppppphhhhhhhaaaldjcaaccblkjfeddddekghhhhhpppppp",
"pppppphhhhajnmmmmnkbbblkfedddnddddejchhhhhpppppp",
"pppppphghlnmmmmmmejfffeeddddddededeflbhhihpppppp",
"ppppppghkmmmmmmmnefeeeeeeddddddddeefjlcghhpppppp",
"ppppppgkmnnnmmmmdjeeeeeddedddddeeffffjbchhpppppp",
"ppppppkmddnmmmnnejffeedeeeddeeeeffeeedkbchpppppp",
"ppppppmdednnmnnnefffeeeeedeeedefeeddddfjlapppppp",
"ppppppndennmnnddejfffeeeeeeddefeedddnndfkbpppppp",
"ppppppmenmmmmnddffffeeeeeeddefddddnndnnfflpppppp",
"ppppppjkjfffjjkkllllllllkkklbkkkkkjkjjjllcpppppp"
};
