/* XPM */
static char *noname_xpm[] = {
/* width height ncolors chars_per_pixel */
"48 48 17 1",
/* colors */
"` c black",
"a c grey33",
"b c grey47",
"c c grey40",
"d c grey87",
"e c grey80",
"f c grey73",
"g c grey27",
"h c grey20",
"i c grey13",
"j c grey67",
"k c grey60",
"l c grey53",
"m c white",
"n c grey93",
"o c grey7",
"p s None c None",
/* pixels */
"ppppppfefffefeeeeefjkkkbcgkfdddnnnnnmnnmnmpppppp",
"ppppppefefefeffefejaaaho```iclfddnnnnmnnnmpppppp",
"ppppppfffefffefeefliio``````ihakednnnmmmmmpppppp",
"ppppppffeffffeffflo`````````i`oiakennnnmnnpppppp",
"ppppppffffffffefbo````````oo`oooohadnnnnmnpppppp",
"ppppppfffffffffjh``````````ooioooiilenmmmmpppppp",
"ppppppfeffffefjh`````````````o``o`ooaemmmmpppppp",
"ppppppfffffffjh````````````````````oocenmmpppppp",
"ppppppffffffja```````````````````````ogfmmpppppp",
"ppppppffjfjflo````````````````````````ocempppppp",
"ppppppfffjjki``````````````````````````ognpppppp",
"ppppppfffffl``````````````````````````o`gmpppppp",
"ppppppjjfjjg```````````````````````````obnpppppp",
"ppppppjjjfjg```````````````````````````oldpppppp",
"ppppppjjjjjg````````````````````````````bepppppp",
"ppppppfjfjjo```````````ihhho````````````kdpppppp",
"ppppppfjjjk`````````ohabbkjkchigago`````kdpppppp",
"ppppppfjfjb`````````oabkkjedndddeka````iedpppppp",
"ppppppfjjji`````````icbkkjfnnmmndflh```addpppppp",
"ppppppffjko`````````hcbbkjfdnnndeekci``lddpppppp",
"ppppppfjjk````````ohacbbkjenmndddjlbi`heddpppppp",
"ppppppfffkohi````ohgaacacljdmmmndflci`lddepppppp",
"ppppppfjjkihg````hgghhiooohcjennnfkciiedeepppppp",
"ppppppfjjkohoo``oggghio`````hlklccagobeedepppppp",
"ppppppfjjlohgg``igccgio`oi`ohaai`````kedeepppppp",
"ppppppfjjaohghi`igcklcghabghcjh`oo``heeeeepppppp",
"ppppppjjkhihhhiohacjfjbaacbbleg`hg`hleeedepppppp",
"ppppppjjkioagiihhgckfeefjjklldcgagaleeeeeepppppp",
"ppppppjjki`hiiihhgcbjeddefllknkbacbjfeedefpppppp",
"ppppppjjkg```iihhgcblfdndkbbjdkjjjlffeeeefpppppp",
"ppppppjjjkh`oiihhgaclkfdfcblknjjfkkfffeeefpppppp",
"ppppppjkjkbooihhhgacbkkjkgihbekjjllfjfffefpppppp",
"ppppppjkkkkooihhggaacbllkchoigbklcjfjjffejpppppp",
"ppppppkjaoo``iihgggaaaccaaghigbccaffjjjfffpppppp",
"ppppppjlhh``ooihghgggggihgacbagaabfffjjjffpppppp",
"ppppppjligi```ihhhhgghhhihiiiiiggkfjfjkjjfpppppp",
"ppppppkloigo``oohhhhhhgcaallahohajfjffjjjjpppppp",
"ppppppkgioiho```oihhhhgcahoohghhljjjjjkkjjpppppp",
"ppppppbahoohgo````ooihgcccagagigjjjjjjjjjjpppppp",
"ppppppmjgaoohho`````oihacbccaihkjjjjjjjjjjpppppp",
"ppppppmkehhoogh```````oihgaghglkjjjjjjjjjjpppppp",
"ppppppmccaohoihh`````````oooakjjjkjjjjjjjjpppppp",
"ppppppkccchohoigi`````````hbkkkjjjjkjjjkjkpppppp",
"ppppppbjmdekihohho```````hkjkjkjjkjkjjkjkjpppppp",
"ppppppfmnlkfioiohho`````ohljkkjkjjkkjkjkjkpppppp",
"ppppppmnbbcai`ohogiiooioihaffjkjjkjkkkjjjjpppppp",
"ppppppfbcbcbco`iihgiiiiiihgbnfkjkjkkjjkjkjpppppp",
"ppppppnelacdngoiioiiiioiooihjdbbbbcbcbbbcbpppppp"
};
