#define noname_width 48
#define noname_height 48
static char noname_bits[] = {
 0x00,0xaa,0x00,0x42,0xaa,0x00,0x80,0x94,0x6a,0x94,0x04,0x01,0x00,0xa9,0xea,
 0x40,0x69,0x02,0x40,0xaa,0xdf,0x5b,0x12,0x01,0x00,0xe9,0x76,0xaf,0xaa,0x00,
 0x40,0xaa,0xff,0x7d,0x45,0x01,0x00,0xf5,0x5f,0xf0,0x53,0x02,0x80,0xe8,0x3f,
 0xc4,0x57,0x01,0x00,0xfd,0x8f,0xd0,0x2b,0x01,0x40,0xf5,0x3f,0xc0,0x97,0x00,
 0x00,0xfe,0x0f,0xa0,0x5f,0x01,0x40,0xfd,0x9f,0x88,0xaf,0x02,0x80,0x76,0x17,
 0x20,0x5f,0x02,0x40,0xf6,0x4f,0x4b,0x5f,0x01,0x80,0xff,0xbf,0xd5,0xbf,0x02,
 0x40,0xfe,0x5f,0xb7,0x7f,0x01,0x80,0xff,0xf7,0xf7,0x7f,0x01,0x80,0xff,0xf7,
 0xda,0xff,0x02,0xc0,0xff,0xd5,0x75,0xbf,0x02,0x80,0xff,0xb7,0xca,0x7f,0x01,
 0xc0,0xff,0xeb,0x75,0xbf,0x02,0xc0,0xff,0xad,0xee,0x7f,0x01,0xc0,0xff,0xab,
 0x58,0x7f,0x01,0xc0,0xff,0xd7,0xf7,0xbf,0x02,0xc0,0xff,0x15,0xb4,0x7f,0x01,
 0xc0,0xff,0xae,0xd5,0xbf,0x02,0xc0,0xff,0x55,0xfa,0x7f,0x01,0xc0,0x7f,0x95,
 0xd2,0xff,0x02,0xc0,0xff,0x5c,0xf4,0x3f,0x01,0xc0,0x9f,0xe2,0xfb,0xff,0x02,
 0xc0,0x07,0xd8,0xff,0xaf,0x02,0xc0,0x03,0xc2,0xfe,0x7f,0x01,0xc0,0x00,0xa8,
 0xff,0xaf,0x02,0xc0,0x00,0x60,0xff,0x7f,0x01,0x00,0x10,0xa0,0xff,0x97,0x02,
 0x00,0x00,0x40,0xff,0xef,0x02,0x00,0x00,0x84,0x7e,0x95,0x02,0x00,0x80,0x28,
 0xff,0x6b,0x01,0x00,0x00,0x40,0xf7,0x5a,0x03,0x00,0x00,0x12,0xfc,0x55,0x01,
 0x00,0x00,0xa0,0x7f,0x6d,0x01,0x00,0x40,0x41,0xaa,0xaa,0x02,0x00,0x00,0x08,
 0xb5,0x55,0x01,0x00,0x00,0x81,0xd4,0xda,0x02,0x00,0x00,0x10,0x55,0xb7,0x02,
 0x00,0x00,0x42,0xa5,0xa9,0x02,0x00,0x00,0x00,0x75,0x57,0x01,0x00,0x92,0xaa,
 0xae,0xed,0x03};
