/* XPM */
static char * face_xpm[] = {
/* width height ncolors chars_per_pixel */
"48 48 6 1",
/* colors */
" 	c white",
".	c gainsboro",
"X	c slate grey",
"o	c grey",
"O	c dark slate grey",
"+	c black",
/* pixels */
"                                                ",
"                                                ",
"                      .                         ",
"                  .XoXOXXXX.                    ",
"                  .OoOOXXXOo                    ",
"                   XoXOXooXo                    ",
"                   OXo..   X.                   ",
"                  .OOo.oXX.o                    ",
"                  .OXXoXoXXo                    ",
"                   . oOooXOX.                   ",
"                  .oooXoXXXXO.                  ",
"                 ooXXXooo.XXXooo                ",
"               .XOXo.  ..   .XoX                ",
"               oOoo.ooXXOXXo...ooo              ",
"              oOXo oXOO+O++OXo oXO.             ",
"              Xo .XO++++++++OXo .Xo             ",
"            .oXo oO++++++++++OXo.XOo            ",
"            oXo oX++++O+XO+O++Oo .Xo   .        ",
"        o   .Xo.X+++++OO X+O+++Xo.Xo  .o        ",
"        o.  oXo.X+++OXXo oOO+++Xo oX.  o        ",
"       .O. .Xo oO+++OOO..O+O+++Oo oX.  o.       ",
"       .X.  oX.oO++OX++OX+++O++Oo oo   o.       ",
"       .o   oX.oO++OOOXXOoXOO++Oo .Xo  oo       ",
"       .X  .Xo oO++++X   .oOO++Oo oX.  o.       ",
"       .X  .oXooX+++++OooOOO+++Xo.X.   Oo       ",
"       .Oo  .Xo oO++++++++++++Oo .oo  .O.       ",
"       .Oo  oXo.oX+++++++++++Ooo.Xoo  o+o       ",
"        OO.  oXo oXOO+++++++OXo .X.  o+O        ",
"        X+o   oo. oXO++++++OXo oXX.  X+O        ",
"        o++o  oXX. oXXXooXoo. .Xo.  o++o        ",
"        .O+O    Xo.  .o  o. .ooX.  .X+O.        ",
"         X++o  XOXXX.. .. ooooooo..XOOo         ",
"         .O++ooO+XoOXXooXoXoOoXXooO++O          ",
"          o+++XoOOOOXoXooXoXXOOXXX+++o          ",
"           X+++XoXOO+O .XOOOXooo++++o           ",
"           .X++++XoooX .XOXoooXOOOOo            ",
"             XO+++OOo   .. .X++O+X.             ",
"              .X++++O.    .XOO+OX.              ",
"              .oXO++OoXXoooXOOOoXXX             ",
"             .OOXoXOXoXXXX..oo.oOOO.            ",
"             oXOO.    oo ..  ..oXXoo            ",
"             XOOXXooo.....ooXoXXOOOo            ",
"             oXX+OXOXXXXXooOOOOXOXo             ",
"              ooXOOO+XOoXOoOOXXXo.              ",
"                .oooXoXXXXoXoo.                 ",
"                   .........                    ",
"                                                ",
"                                                "};
