/* XPM */
static char *noname_xpm[] = {
/* width height ncolors chars_per_pixel */
"48 48 17 1",
/* colors */
"` c black",
"a c grey33",
"b c grey47",
"c c grey40",
"d c grey87",
"e c grey80",
"f c grey73",
"g c grey27",
"h c grey20",
"i c grey13",
"j c grey67",
"k c grey60",
"l c grey53",
"m c white",
"n c grey93",
"o c grey7",
"p s None c None",
/* pixels */
"ppppppmmmmmmmmmjkchhggclcaajnmmmmmmmmmmmmmpppppp",
"ppppppmmmmmmmmkaghihihhhhhhhgkmmmmmmmmmmmmpppppp",
"ppppppmmmmmmmjghiiiohiooiiiiiibdmmmmmmmmmmpppppp",
"ppppppmmmmmdchhhhiiooii`oooo`ooibdmmmmmmmmpppppp",
"ppppppmmmmmbhioiooiioio```````ooibmmmmmmmmpppppp",
"ppppppmmmmkgi`oo``o`oi`````````ooimmmmmmmmpppppp",
"ppppppmmmmah```oiiioooo`````````o`fmmmmmmmpppppp",
"ppppppmmmegi``ogbbcchio```````````kmmmmmmmpppppp",
"ppppppmmmbho``gkjkkkbcghiiooiiioo`hmmmmmmmpppppp",
"ppppppmmmgio`obffjjkkkklbgghhhgoo``nmmmmmmpppppp",
"ppppppmmfhiooikeeefjjffjlcahiicho``fmmmmmmpppppp",
"ppppppmmjiiooijeennnddeffjlahabci``bmmmmmmpppppp",
"ppppppmmkoioigfednnnnndededefkkba``ammmmmmpppppp",
"ppppppmmlooiicfddnnnndddedddfkkbci`cmmmmmmpppppp",
"ppppppmmloiihlednnnnddeeeeeefjkbci`kmmmmmmpppppp",
"ppppppmmjoiigknddnmndeeeeeeefjlcco`jmmmmmmpppppp",
"ppppppmmdioigjdedddddeefefffjklcco`fmmmmmmpppppp",
"ppppppmmnh`oafdfjlbblkkkjjllbcaaao`fmmmmmmpppppp",
"ppppppmmdioicefjklahihabbcgiiihhaoonmmmmmmpppppp",
"ppppppmmjklikffjkchhihcjkaiiigggaigmmmmmmmpppppp",
"ppppppmmekdljfekcchhggjnfchi`iohahlmmmmmmmpppppp",
"ppppppmmnjdffeeffflcckfdfbcgccccchbmmmmmmmpppppp",
"ppppppmmnjbjjfdeefjjfeeejbllbbbccgjmmmmmmmpppppp",
"ppppppmmdjcejfednneeddejjbbkjjlbcaemmmmmmmpppppp",
"ppppppmmdjjfjfeendeffffjjlcbkjkcaaemmmmmmmpppppp",
"ppppppmmmedeffeeeejlbjffjlcgalbcacemmmmmmmpppppp",
"ppppppmmmddjffffjkbgbkalcgggiacaaaemmmmmmmpppppp",
"ppppppmdcbckfeejkbhckbggiohgiihggcdmmmmmmmpppppp",
"ppppppmdbchkfefkkaacahooooihhohggknmmmmmmmpppppp",
"ppppppmmjcgffffljcaghhioooiiihhggdmmmmmmnnpppppp",
"ppppppmmeclffffbjlhihhghio`oigggcmmmmmmmmnpppppp",
"ppppppmmnkjffjjlklbllccacagacgggkmmmmmmnnnpppppp",
"ppppppmmmnfffjjlklklklccaaacaghgdmmmmnnnnnpppppp",
"ppppppmmnffefjjkbkklllagggaagghjmmmmnmnnnnpppppp",
"ppppppemdffffjkkllkkklllbcccghlmmnmnmnnnndpppppp",
"ppppppjjekjfffjkllbklklbbccahbnnmnmnnnnnndpppppp",
"ppppppjbfbkfjjjklbbbblbbccahgmnmnmnnnnnnddpppppp",
"ppppppfbjlcjjjkllbcaaaggghiilnnmmnnmnnnnndpppppp",
"ppppppekkfgjkkklbaaghioo`iihalkjnmnnnnnndnpppppp",
"ppppppjjbjikkklbcahiooooiihgagcfejennnnnnnpppppp",
"ppppppjjbbickkbcghiiiiiiihhgagallbbnnmnnnnpppppp",
"ppppppfkbahglbbagiiiihiiihhhaagabacbffnnnnpppppp",
"ppppppnklcgicbaahiiihhhihghhaagccgabkcdnnnpppppp",
"ppppppmeklgigaaghhhhgghggacgacaccaccbcffdepppppp",
"ppppppmnefchhcaghhhhhggaacbagbllcccacckjfbpppppp",
"ppppppmmmnegogaaaagaaaaccllbbnfklbbccalbbapppppp",
"ppppppmnmmmjihggggaacbllklkbnnkejkbbbckcccpppppp",
"ppppppjjfffjoihiihiiiigaacbgffbgaccbaabggcpppppp"
};
