/* XPM */
static char *noname_xpm[] = {
/* width height ncolors chars_per_pixel */
"48 48 17 1",
/* colors */
"` c black",
"a c grey33",
"b c grey47",
"c c grey40",
"d c grey87",
"e c grey80",
"f c grey73",
"g c grey27",
"h c grey20",
"i c grey13",
"j c grey67",
"k c grey60",
"l c grey53",
"m c white",
"n c grey93",
"o c grey7",
"p s None c None",
/* pixels */
"ppppppghghhhhhhhhhhhhhhhhhhhhhhhhhhhhghhhhpppppp",
"ppppppghghhghghghghhhgghghhhhhhhhhghghghghpppppp",
"ppppppghhhghhhhhhhgcllkklbchhghghhhhhhhhghpppppp",
"ppppppghghhghhghgckjjfeeefjkchhhhhghghghhhpppppp",
"ppppppghghhhghhgbkjeddmmmnnejlhhhhhghhghghpppppp",
"pppppphghhghhiickjennmmmmmmndfliohhhhghhghpppppp",
"ppppppghghhhoohkjfnmmmmmmmmmmdfbiohhghghhgpppppp",
"ppppppgghghioiakjenmmmmmmmmmmmejgoohhghgggpppppp",
"ppppppghghh``ockjdnmmmmmmmmmmmnfbo`hhghghhpppppp",
"pppppphghho`ooblkenmmmmmmmmmmmnflh`ihhhghgpppppp",
"ppppppghhi```illkenmmmmmmmmmmmdfkg`ohhgghgpppppp",
"pppppphghi```illkennmmmmmmmmmmdeka``hhgghgpppppp",
"ppppppghi````iblkfdmmmmmmmmmmmdekc`ohhhgghpppppp",
"pppppphho````iclkfenmmmmmmmmmmnfkao`ihgghgpppppp",
"pppppphh`````oabkfednmmmmmmmmnejla``oghghgpppppp",
"ppppppho``````gbljfennnnndnnndfjlg``ohghghpppppp",
"pppppph```````abbkkkllkjeefjklbbbh```gghggpppppp",
"pppppph```````cbbbcbbagbjejcaagahg``hhghghpppppp",
"ppppppi``ih``oabcakabbggbfbahckahi``hggghgpppppp",
"ppppppi``ooio`habcgiihhgcecghihhgohoggghggpppppp",
"ppppppho`ihhooaaabcgacccbmkaaaaaghhhgghgghpppppp",
"pppppph```ghoialcbbbcblakmfcbccchhgghggghgpppppp",
"ppppppho``hhhhabclkjjjkcjmealklchgghgghgghpppppp",
"ppppppho``ogghacbkkkjflajmdgcllcabhhghgghgpppppp",
"ppppppgo```hhhgcbkkkklclkejbgaccahhhgghgghpppppp",
"ppppppgh```ohhgabkkjkjbchahhcbbchihhhggghgpppppp",
"ppppppghh```ihgabkjfjjbioiihcbbcgoihgghgghpppppp",
"ppppppgghhioiihgclkjlbchigghaccchoihhghghgpppppp",
"ppppppghghhiiihgabkbcghhhihhhhaahiohghggghpppppp",
"ppppppghgaaiiiihhabaghooiioooohhioihhghghgpppppp",
"ppppppggajeaioiihgagiioighgi``iioiihghghghpppppp",
"ppppppghenecioioihhhoihgacahiooioiihhghghgpppppp",
"ppppppgafmdchiioihiiihhhhihhhooioohhghghghpppppp",
"ppppppgknmmfghioooioihhhiiihioooooihhghghgpppppp",
"ppppppcdmmmdchio`iioioiiioihhioooiihghghhhpppppp",
"ppppppkeeeffkhioooioooiihiiiihooooihhhghghpppppp",
"ppppppdddeebagioooooooiihiiooiioooohhghhhhpppppp",
"ppppppdddnefcgioo`ooooioiioooiio`iihhhhhghpppppp",
"ppppppdddddejchio`oooioiiiooioiooiihhghghhpppppp",
"ppppppdddeeefjciooooiiioiooooioioihhhghhghpppppp",
"ppppppmnndeffjlaio`ooioioooiioioihhghghghhpppppp",
"ppppppmmmndeefjlaio`oi`iioooooiohhhhhhhhhhpppppp",
"ppppppmmmmnndjjkbgo`oooooooooohihhhhghghhhpppppp",
"ppppppmmmmnndddejlgioo`ooo`oohahhhghhhhhghpppppp",
"ppppppmmmmnnnddeekbho``o`o`o`ahhhhhhghghhhpppppp",
"ppppppmmmmmnnndeefkbgioo`o```ahhhhhhghhhghpppppp",
"ppppppmmmmmmnedeeefjbghiio`oohhhghghghgghhpppppp",
"ppppppfffffffkjkklklbghiiio`oiiiiiiiiiiihipppppp"
};
