#define idbsu_width 48
#define idbsu_height 48
static char idbsu_bits[] = {
   0x00, 0x00, 0x00, 0x00, 0x00, 0x00, 0x00, 0x00, 0x00, 0x00, 0x00, 0x00,
   0x00, 0x00, 0x00, 0x00, 0x00, 0x00, 0x00, 0x00, 0x00, 0x00, 0x00, 0x00,
   0x00, 0x00, 0x00, 0x00, 0x00, 0x00, 0x00, 0x00, 0x00, 0x00, 0x00, 0x00,
   0x00, 0x7e, 0x00, 0x00, 0x00, 0x00, 0x00, 0x7f, 0x00, 0x00, 0x00, 0x00,
   0x00, 0x3f, 0x00, 0x00, 0x00, 0x00, 0x00, 0x3f, 0x00, 0x00, 0x00, 0x00,
   0x80, 0x3f, 0x00, 0x00, 0x00, 0x00, 0x80, 0x1f, 0x00, 0x00, 0x00, 0x00,
   0x80, 0x1f, 0x00, 0x00, 0x00, 0x00, 0xc0, 0x1f, 0x00, 0x00, 0x00, 0x00,
   0xc0, 0xef, 0x0f, 0xf0, 0x7f, 0x00, 0xc0, 0xef, 0x1f, 0xfc, 0x7f, 0x00,
   0xe0, 0xef, 0x3f, 0xfe, 0x7f, 0x00, 0xe0, 0xf7, 0x3f, 0xff, 0x7f, 0x00,
   0xe0, 0xf7, 0x3f, 0xff, 0x7f, 0x00, 0xf0, 0xf7, 0xbf, 0xff, 0x7f, 0x00,
   0xf0, 0x83, 0xbf, 0x3f, 0x00, 0x00, 0xf0, 0x83, 0xbf, 0x9f, 0x0f, 0xfc,
   0xf8, 0x83, 0xdf, 0xdf, 0x0f, 0xfe, 0xf8, 0xc1, 0xdf, 0xcf, 0x0f, 0x7e,
   0xf8, 0xc1, 0xdf, 0xef, 0x0f, 0x7e, 0xfc, 0xc1, 0xef, 0xef, 0x07, 0x7f,
   0xfc, 0xe0, 0xef, 0xe7, 0x07, 0x3f, 0xfc, 0xe0, 0xef, 0xf7, 0x07, 0x3f,
   0xfe, 0xff, 0xf7, 0xf7, 0x83, 0x3f, 0xfe, 0xff, 0xf7, 0xf3, 0x83, 0x1f,
   0xfe, 0xff, 0xf7, 0xfb, 0x83, 0x1f, 0xff, 0xff, 0xfb, 0xfb, 0xc1, 0x1f,
   0xff, 0xff, 0xfd, 0xf9, 0xc1, 0x0f, 0xff, 0xff, 0xfe, 0xfd, 0xc1, 0x0f,
   0x00, 0x00, 0xff, 0xfd, 0xe0, 0x0f, 0x00, 0xfe, 0xff, 0xfc, 0xe1, 0x07,
   0x00, 0xfe, 0x7f, 0xfe, 0xff, 0x07, 0x00, 0xfe, 0x3f, 0xfe, 0xff, 0x07,
   0x00, 0xfe, 0x1f, 0xfc, 0xff, 0x03, 0x00, 0xfe, 0x0f, 0xfc, 0xff, 0x03,
   0x00, 0xfe, 0x03, 0xf8, 0xff, 0x03, 0x00, 0x00, 0x00, 0xf0, 0xff, 0x01,
   0x00, 0x00, 0x00, 0x00, 0x00, 0x00, 0x00, 0x00, 0x00, 0x00, 0x00, 0x00,
   0x00, 0x00, 0x00, 0x00, 0x00, 0x00, 0x00, 0x00, 0x00, 0x00, 0x00, 0x00,
   0x00, 0x00, 0x00, 0x00, 0x00, 0x00, 0x00, 0x00, 0x00, 0x00, 0x00, 0x00};
