#define noname_width 48
#define noname_height 48
static char noname_bits[] = {
 0x00,0x00,0x80,0xea,0x00,0x00,0x00,0x00,0xe8,0xf7,0x03,0x00,0x00,0x00,0xfc,
 0xff,0x0f,0x00,0x00,0x00,0xb6,0xff,0x0f,0x00,0x00,0x00,0xfe,0xaa,0x1f,0x00,
 0x00,0x00,0xbd,0xd6,0x3e,0x00,0x00,0x00,0x6f,0xa9,0x7d,0x00,0x00,0x00,0x57,
 0xaa,0x7e,0x00,0x00,0x80,0x87,0xaa,0xfa,0x00,0x00,0x80,0x37,0x51,0xf7,0x03,
 0x00,0xc0,0x4b,0x94,0xfe,0x01,0x00,0x80,0x17,0x4a,0xf5,0x03,0x00,0xc0,0x53,
 0x54,0xfd,0x03,0x00,0xc0,0x0f,0xa2,0xea,0x03,0x00,0xc0,0xd1,0xed,0xff,0x03,
 0x00,0x80,0xaf,0x72,0xd5,0x03,0x00,0x80,0xf1,0xda,0xff,0x00,0x00,0x80,0x6f,
 0xb3,0xd5,0x01,0x00,0x00,0xd0,0xe8,0xfe,0x00,0x00,0x00,0x55,0xb5,0xd5,0x00,
 0x00,0x00,0x25,0xa9,0xea,0x00,0x00,0x00,0x92,0xa2,0xfa,0x01,0x00,0x00,0x45,
 0xf9,0x2a,0x00,0x00,0x00,0xea,0xda,0x3e,0x00,0x00,0x00,0xb5,0xee,0x5b,0x00,
 0x00,0xc0,0xff,0xb2,0x1e,0x00,0x00,0xf0,0xff,0xdf,0x1f,0x00,0x00,0xd8,0xff,
 0xf5,0x0d,0x00,0x00,0xfc,0xff,0x6f,0x0f,0x00,0x00,0xfe,0xfb,0xdf,0x07,0x00,
 0x00,0xfe,0xd7,0x7b,0x07,0x00,0x00,0xfb,0xea,0xef,0x07,0x00,0x00,0xcf,0xb5,
 0xff,0x07,0x00,0x80,0x2b,0xd4,0xff,0x1f,0x00,0x80,0x4b,0x55,0xff,0x1f,0x00,
 0x00,0x2b,0xd5,0xfe,0xff,0x00,0x80,0xad,0x5a,0xfb,0x7f,0x01,0x80,0x4e,0x75,
 0xbd,0xee,0x03,0x80,0xd5,0x92,0x1a,0xbc,0x02,0x40,0x6f,0x29,0xad,0xf8,0x03,
 0x80,0x86,0x54,0x55,0xf8,0x01,0x00,0x2c,0xaa,0x4e,0x52,0x03,0x00,0x87,0x7c,
 0x2b,0xf1,0x03,0x00,0x25,0xd7,0x16,0xd0,0x02,0x80,0xa6,0xee,0x00,0xe4,0x03,
 0x00,0xc5,0x2b,0x10,0xc4,0x02,0x00,0x03,0x05,0x85,0x63,0x03,0x80,0xd6,0x5f,
 0xff,0xed,0x03};
