#define noname_width 48
#define noname_height 48
static char noname_bits[] = {
 0x40,0x6b,0xdb,0xba,0xaa,0x02,0x80,0x5a,0xed,0xef,0x6d,0x03,0xc0,0xb6,0xf6,
 0xbf,0xdb,0x02,0x40,0xab,0xff,0xf6,0x55,0x01,0x80,0xda,0xae,0xff,0xdf,0x02,
 0x80,0xed,0xff,0xff,0xb7,0x02,0x40,0xf5,0xff,0xff,0xdd,0x02,0x80,0xfd,0xff,
 0xff,0xff,0x02,0x40,0xf7,0xfe,0xff,0xbf,0x01,0x80,0xfd,0xff,0xff,0xff,0x02,
 0xc0,0xff,0xff,0xf7,0xff,0x01,0x40,0xff,0xff,0xff,0xff,0x02,0xc0,0xff,0xff,
 0xff,0xf7,0x01,0x80,0xfe,0xff,0x7f,0x7f,0x03,0xc0,0xff,0x6f,0xab,0xfd,0x01,
 0x80,0xff,0xff,0xaa,0xfe,0x03,0xc0,0xff,0x15,0x21,0xfa,0x03,0x40,0xff,0x0f,
 0x80,0xf8,0x03,0xc0,0xbf,0x12,0x00,0xfa,0x03,0x80,0xff,0x05,0x00,0xf9,0x03,
 0xc0,0xff,0x12,0x00,0xfc,0x03,0x80,0xff,0x05,0x00,0xf4,0x03,0xc0,0x7f,0x01,
 0x20,0xfd,0x03,0xc0,0xff,0x76,0xd5,0xfa,0x03,0xc0,0xf7,0xed,0x79,0xfb,0x03,
 0xc0,0xff,0x7b,0xd7,0xfe,0x03,0xc0,0x7f,0xaf,0x5a,0xfd,0x03,0x80,0xff,0x55,
 0x23,0xf5,0x03,0xc0,0x7f,0x93,0x18,0xfa,0x02,0x80,0xfe,0x8a,0xa1,0xe8,0x03,
 0xc0,0xbf,0x65,0x62,0xf7,0x01,0x40,0xdf,0xba,0x93,0xf8,0x03,0x80,0xbf,0xa5,
 0x6e,0xfd,0x02,0xc0,0x7f,0xbb,0x52,0xfb,0x03,0x80,0xff,0xd5,0x6a,0xfd,0x01,
 0xc0,0x7e,0x6b,0xa9,0xfa,0x03,0x80,0xff,0xa5,0x52,0xbd,0x02,0x40,0x7f,0xab,
 0xaa,0xfe,0x01,0x40,0xff,0x57,0x55,0xdf,0x03,0x80,0xff,0xba,0xaa,0x7f,0x01,
 0x40,0x7f,0xaf,0xa4,0x5f,0x01,0x80,0xfe,0x7a,0xd2,0xbf,0x02,0x40,0xad,0xb6,
 0x69,0xad,0x02,0x80,0x76,0xf9,0xfe,0xd5,0x02,0x40,0x9b,0xea,0x57,0x55,0x01,
 0x80,0xae,0xaa,0xbd,0xaa,0x02,0x40,0x75,0x55,0x6b,0xad,0x01,0xc0,0xaf,0xb5,
 0xbd,0xeb,0x02};
