/* XPM */
static char *noname_xpm[] = {
/* width height ncolors chars_per_pixel */
"48 48 17 1",
/* colors */
"` c black",
"a c grey33",
"b c grey47",
"c c grey40",
"d c grey87",
"e c grey80",
"f c grey73",
"g c grey27",
"h c grey20",
"i c grey13",
"j c grey67",
"k c grey60",
"l c grey53",
"m c white",
"n c grey93",
"o c grey7",
"p s None c None",
/* pixels */
"pppfffeeeeeeeeeeeeeeeefjeeeeeeeefeeeffeeefffpppp",
"pppfefeeeefeeeeeeeeeeefkeeefeeefffeeffeefeefpppp",
"pppeffeeeeeeeefeeeeeeefjeeeeeeefefefffeeffffpppp",
"pppfffeeeeefeeeeeeeeeefkeeefeeeefefeffeefeffpppp",
"pppfffeeeefeefeeeeeeefjljefefefffeefffefefffpppp",
"pppfffefefeeeefeeeefkgh`ibkfefeeffefffefefffpppp",
"pppfffeeeeefeeeeejlgo`````oglffffeeffffeffffpppp",
"pppffffeeefeeeefboooio```````akffefffjeeefffpppp",
"pppfffeefeeeeffa``gagggghi`````hkfeffffeffffpppp",
"pppfffefefffefa`oabllkkjkbaioho``fffjjefffffpppp",
"pppfjffefefeek``cblkjffffjlbaago`gfffffeffffpppp",
"pppfffefeeffea`acllkjfffefjklcca``jfjffeffffpppp",
"pppjjffffffej`ocbllkjffffffjlbcco`cffjefffffpppp",
"pppfjffefeffc`gcblkjfffefffjkbcag`ojjfffffffpppp",
"pppjffffffffg`abbkjjeeeffffjklccg``kjffefffjpppp",
"pppfjfffffffiocclljfefefefjjllbaao`bjfffffffpppp",
"pppjjjffffff`icblkjfeffefffkklbcai`cjfffffjfpppp",
"pppjjjffffff`hbbljjfefefeffjklbaah`cjjfffjffpppp",
"pppjjjffjfff`gcbkjfeeffeffffjkbcai`cjfffffjjpppp",
"pppjjjfjfjjf`cbllkjjjjfffjjjkkbcai`bjjffjffjpppp",
"pppkjjjjfjjfibchhhhgclkklbccaacach`bjffffjffpppp",
"pppkjjjfjjjjgcghoiooicllgi`````gag`ljjffjfjjpppp",
"pppjkjjjjjkbgbchioiggckkhhhhhioiga`ljjffjfjfpppp",
"pppkjkjjjjlbclbacccccbjfagccioohgaogcjfjfjjjpppp",
"pppkkkjkjkblclkkbbbclkjjccbbacgcbagghjjffjfjpppp",
"pppkkkkjkkblcbkjjkkklkjfbblbbllllcgcgjjfjjjjpppp",
"pppkkkkkkkllcbkjjjjklkjfbckjjjjkbagaajjfjjjjpppp",
"pppllkkkkklbcbkkkjjklkfflbbjjjjlbahgcjfjjjjjpppp",
"ppplklkkklkbcllkjjjlbljjccckjjkbcahabjjjjjjjpppp",
"pppllkllklllcblkjjklaabcihcljkkbcggcljjjjjjjpppp",
"ppplllklllllabbkjkklbbcagabkjkkbcghckjjjjjjjpppp",
"pppllllllllkccbllllbbbbcccblllbcahgbkkjjjkjjpppp",
"ppplllllllblccbbblbbblllbccbbbccghlkkjjjkkjkpppp",
"pppbllllbbllbccbbccccaccacaacccahgkkkkjjjkkjpppp",
"pppblbllblbllacbcahhhghihoihaaaghckkkjjkjkjkpppp",
"pppbbblbbbbllccccccablllcgggacghgkkkkkkjkkkkpppp",
"pppbblbbbbbllbccccbbcccaaaacaahgckkkkkjkkkkjpppp",
"pppbbbbbcbblfecaacbccgggaacaaghgbkkllkkkkkkkpppp",
"pppbbbbbbbfnndccaacbbbccccagghhgkjklkkkkkkkkpppp",
"pppbbblkdnndenfaacabblbbbcgghhhcljefjjkkkkkkpppp",
"pppbbjeddfjjfmmbaaaccccccghhhihffffddekjlkkkpppp",
"pppfeemnnnnndmmdcgaaaggghhhiihbdfflefnnefklkpppp",
"pppenmmmmnjdenmmeaagghhiiiihhaddffleeendmnejpppp",
"pppmmmmmmmjnddmmmfgagghiiiihhfdnffkfdffdnmmmpppp",
"pppmmmddmmeemjnmmmkaaagghgggfnnnjfkfndjnmmmnpppp",
"pppmmmnmmmeendemmmnkbaagggcfmmmdfdfdnnfnmmmepppp",
"pppmmndmnmefdmfnmmmnklahicknmmmfededmnedmmmnpppp",
"pppmnndmnmedendfmmmmdo````bmmmnjdnfenndemmmmpppp"
};
