/* XPM */
static char *noname_xpm[] = {
/* width height ncolors chars_per_pixel */
"48 48 17 1",
/* colors */
"` c black",
"a c grey33",
"b c grey47",
"c c grey40",
"d c grey87",
"e c grey80",
"f c grey73",
"g c grey27",
"h c grey20",
"i c grey13",
"j c grey67",
"k c grey60",
"l c grey53",
"m c white",
"n c grey93",
"o c grey7",
"p s None c None",
/* pixels */
"ppppppmdfjkkklklllkjlkkjjjjjfeefjjjjffeednpppppp",
"ppppppmdfjkkklllllkjllkkjkjjfffjjjkjfffeedpppppp",
"ppppppndfkklllllllkkkkkkjkjjffejkkjjjffednpppppp",
"ppppppnefkklkllklkjjkjfffkjjjfejjkkkfffeedpppppp",
"ppppppddfkklllklkjjjkkknfklljfdfjkkjjfffedpppppp",
"ppppppdefkklkllkjjkgkbhcbejcbeendkkjjjffedpppppp",
"ppppppeefkklllkklbchcaiihgjkbbfjffjkjffffepppppp",
"ppppppdfjkkllkbbgahhihoooiacchakkkjjfjfjfepppppp",
"ppppppdfjklkkkhhiio``````o````igcbjjjfjfffpppppp",
"ppppppeffkllkcio````````````````igljjjjjfepppppp",
"ppppppdfjjkllh````````ooooiio````iakjjjjfepppppp",
"ppppppdffkklao``````ohgcaabccai``oglkjkjfepppppp",
"ppppppeejkkbi``````ohabkkkkkklbho`gbkjjjjfpppppp",
"ppppppeejjlc```````igclkjffjjjlch`abkjkkjfpppppp",
"ppppppefjkkg```````iackffedefjkch`clkkjkjjpppppp",
"ppppppefjklh``````ohaclkjfeejkkbg`alkkkjjfpppppp",
"ppppppefjlc````````gacbkjjfjjjlbg`clkkkjkjpppppp",
"ppppppejjlh```````ohccbjfffjfjkba`abkkkjjjpppppp",
"ppppppejkc````````ihabkjffjjffkba`gllkkjjjpppppp",
"ppppppefkg```````ihhaaaaclkkkaghh`oblkkjjjpppppp",
"ppppppejki```````ihhihiiigkjh``oio`alkkjjjpppppp",
"ppppppfjkh```````oggghhcaabfaaccgo`hlklkjjpppppp",
"ppppppfjlh```````ohabkkllbckcljkco`iblkkkkpppppp",
"ppppppfjbi```````oiabjeejlakcjejc``oclkkkkpppppp",
"ppppppfkco````````igbjefkcakccjkc```clkkkkpppppp",
"ppppppfka`````````ohabkbaaakbaacg```gllkkkpppppp",
"ppppppfkgo````````oihagaahiaaghhi```hblkkkpppppp",
"ppppppfbh`````````oihhhgcahhghhho```obkklkpppppp",
"ppppppkch`````````oihaaoihghgiah`````allklpppppp",
"pppppplao``````````ihabcacjkcggo`````hlkkkpppppp",
"ppppppbg````````````oiccaaccaai``````hblllpppppp",
"ppppppco``````````````hccaaaac```````oclllpppppp",
"ppppppg````````o```````glkjklg```````oalllpppppp",
"ppppppo````hckejbh``````hlkkco```````oglllpppppp",
"pppppp````gjdmmmmdkh`````ohi``````````gbllpppppp",
"pppppp```gknmmmmmmmmko````````````````habbpppppp",
"pppppp``iknmmmmmmmmmmdi```````````````iablpppppp",
"pppppp`oaemmmmmmmmmmmmdi``````````````oabbpppppp",
"ppppppohanmmmmmmmmmmmmmeo`````````````ogbbpppppp",
"ppppppihfmmmmmmmmmmmmmmmfo````````````ohbbpppppp",
"pppppphknnmmmmmmmmmmmmmmma````````````ihabpppppp",
"ppppppannmmmmmmmmmmmmmmmml````````````ogabpppppp",
"ppppppfmmmmmmmmmmmmmmmmmmfo```````````oaaapppppp",
"ppppppdmmmmmmmmmmmmmmmmmmdi```````````ohcapppppp",
"ppppppmmmmmmmmmmmmmmmmmmmnho``````````ogaapppppp",
"ppppppmmmmmmmmmmmmmmmmmmmmlh``````````ogaapppppp",
"ppppppmmmmmmmmmmmmmmmmmmmmfc``````````ohcapppppp",
"ppppppdedeeedddeddddddddddkgo`````````oiggpppppp"
};
