/* XPM */
static char *noname_xpm[] = {
/* width height ncolors chars_per_pixel */
"48 48 11 1",
/* colors */
"` c grey47",
"a c grey40",
"b c grey87",
"c c grey80",
"d c grey73",
"e c grey67",
"f c grey60",
"g c grey53",
"h c white",
"i c grey93",
"j s None c None",
/* pixels */
"jjjjjjjjhhhhhhhhhhhhhhhhhhhhhhhhhhhhhhhhjjjjjjjj",
"jjjjjjjjhhhhhhhhhhhhhhhibihhhhhhhhhhhhhhjjjjjjjj",
"jjjjjjjjhhhhhhhhhhhhhhcgggebhhhhhhhhhhhhjjjjjjjj",
"jjjjjjjjhhhhhhhhhhhhhcg```gfebhhhhhhhhhhjjjjjjjj",
"jjjjjjjjhhhhhhhhidfedgaaag``gechhhhhhhhhjjjjjjjj",
"jjjjjjjjhhhhhhhif`a`aaa```````fdhhhhhhhhjjjjjjjj",
"jjjjjjjjhhhhhhie`aaaaaaagg``a``fchhhhhhhjjjjjjjj",
"jjjjjjjjhhhhhhbgaaaaaaaa`gg`aa`ggchhhhhhjjjjjjjj",
"jjjjjjjjhhhhhhe`aaaa``aaa`g``aagffihhhhhjjjjjjjj",
"jjjjjjjjhhhhhbgaaaaaafaaaa`g`aa`gffihhhhjjjjjjjj",
"jjjjjjjjhhhhidgaaa``aegaaaa``````g`fhhhhjjjjjjjj",
"jjjjjjjjhhhhbd``a`g``ed`````g`g````gdhhhjjjjjjjj",
"jjjjjjjjhhhbceg``gegggce`````gg`````ghhhjjjjjjjj",
"jjjjjjjjhhidedg``fefggfefgg```g`````gchhjjjjjjjj",
"jjjjjjjjhhbeeefggffggggeefgg`````````dhhjjjjjjjj",
"jjjjjjjjhhceeeeffgg``gfeeeffg````````chhjjjjjjjj",
"jjjjjjjjhhbeddeefffgfefeefffg````````ehhjjjjjjjj",
"jjjjjjjjhhcfdfeefg`ggggffgg```````gggchhjjjjjjjj",
"jjjjjjjjhhbfdgeeg``aa`ff``````````gggihhjjjjjjjj",
"jjjjjjjjhhhbe`dceffg`fcdf`agfg``gg``ghhhjjjjjjjj",
"jjjjjjjjhhhhegccedcfagccfgagg```gf``gihhjjjjjjjj",
"jjjjjjjjhhhhedbbcf`aa`ceggaaaa`gffgfgihhjjjjjjjj",
"jjjjjjjjhhhhdbbibcfg`fdeg``aa`gffffffihhjjjjjjjj",
"jjjjjjjjhhhhbebibdefddcfggg```gffff`ehhhjjjjjjjj",
"jjjjjjjjhhhhiebbbceedcdfggg```fffff`dhhhjjjjjjjj",
"jjjjjjjjhhhhicbbibdedccef`g``gfffffebhhhjjjjjjjj",
"jjjjjjjjhhhhhibbbbegeeef``g`agfgffedhhhhjjjjjjjj",
"jjjjjjjjhhhhhhibcdfebddg``gg``ggffeihhhhjjjjjjjj",
"jjjjjjjjhhhhhhhbccdccceggggggggggdhhhhhhjjjjjjjj",
"jjjjjjjjhhhhhhhbcdefddeffg````gggchhhhhhjjjjjjjj",
"jjjjjjjjhhhhhhhbbcffgggg``a``ggggihhhhhhjjjjjjjj",
"jjjjjjjjhhhhhhhicceccdfgggggg`ggfhhhhhhhjjjjjjjj",
"jjjjjjjjhhhhhhhhccdccefgg``gggggchhhhhhhjjjjjjjj",
"jjjjjjjjhhhhhhhhbcccddfggg``ggggihhhhhhhjjjjjjjj",
"jjjjjjjjhhhhhideccdccddffggg```ghhhhhhhhjjjjjjjj",
"jjjjjjjjhhhhi`g`ccddddefg`````gfhhhhhhhhjjjjjjjj",
"jjjjjjjjhhhhf`eaccceffgg`````gg`dgeihhhhjjjjjjjj",
"jjjjjjjjhhhh``b`ccccdf``aa```gg`b`aaehhhjjjjjjjj",
"jjjjjjjjhhhbaacbfdcccccdfggggggdh`aaaehhjjjjjjjj",
"jjjjjjjjhb``aa`ihdgecccdfggggfchhdaaaaihjjjjjjjj",
"jjjjjjjjbaaaaaa`ihie`fdeg``gchhhhifaaaehjjjjjjjj",
"jjjjjjjjgaaaaag``eihiiiicecihhhhhbgaaa`ijjjjjjjj",
"jjjjjjjjggaaaaaf`a`chhhhhiiiiiihhc`agaaejjjjjjjj",
"jjjjjjjj`aa`aaa`aaa`bhbciiiibbihid``gg`ajjjjjjjj",
"jjjjjjjjgg`eafaaaaa`fihihhhhihhihf`ggg`gjjjjjjjj",
"jjjjjjjjf`a`a```aaaagdihhhhhhhhheg`a`aaajjjjjjjj",
"jjjjjjjja`aaga`aaaaaafbcbhhhhhic`aaaaa`ajjjjjjjj",
"jjjjjjjja`aa`aa`aaaaaagggbhhhbi`aaaaaa``jjjjjjjj"
};
