/* XPM */
static char *noname_xpm[] = {
/* width height ncolors chars_per_pixel */
"48 48 17 1",
/* colors */
"` c black",
"a c grey33",
"b c grey47",
"c c grey40",
"d c grey87",
"e c grey80",
"f c grey73",
"g c grey27",
"h c grey20",
"i c grey13",
"j c grey67",
"k c grey60",
"l c grey53",
"m c white",
"n c grey93",
"o c grey7",
"p s None c None",
/* pixels */
"pppffffffeffeeefefeeefeeeeeeeeeefffffjfjfjjjpppp",
"pppjffffefefffeeeeefeeeeeeeeeeeffffffjjffjfjpppp",
"pppffffffefefeeeefefefeeeeeeeefffffffjfffjjjpppp",
"pppfffffefeefefeeeeeeeeeeefeefffffffjffffjfjpppp",
"pppffffffefeefefefefeeeeeeeefffffeffjfffjjjfpppp",
"pppjffffffefeefeeeeeeeefeefffjjffffffffjfjfjpppp",
"pppffffffefeefefefeffjbblkjkbcbkjfjjffffjfjfpppp",
"pppffffffffeeeeefejlbggacccaagagcljjffffjffjpppp",
"pppfffffefeeeeefjkbgghhgghggggghhhbjfefffjfjpppp",
"pppfffffffffeeejcgaaacagiiihhgagghhajffjffffpppp",
"pppfffffefefeeechghaagoii`oiiihghhiicfffffjfpppp",
"pppffffffeffffkhhhgachi`````ooooihiiolffjfffpppp",
"pppfjfffefffekgiigghioo`````````ighiohkfffffpppp",
"pppffffffklfkghiighhho``oio````oohghiiafffffpppp",
"pppffffffbjjchhihggho`ooiahooo`oohggiiikffffpppp",
"pppfffffjblbhhhihhgho`ooihghiiooihgghhicffffpppp",
"pppfffffkkbahhhihih`oiioiigaiiiiihhgihigkfffpppp",
"pppffffjljbhhhiiohhhgghhhhgcahihiihhhiihbfffpppp",
"pppfffffbjaihiiiihgaaccccggbahhhhiiggahgafffpppp",
"pppfffffbchihiiiihgaclklbagaghiihooihhghckffpppp",
"pppfffffkghihhihihgabkjklbaagiiiiooihihhbcffpppp",
"pppffffkchiohiihhhaakjffklbcgihoii`iiiihgajfpppp",
"pppfffkkciooiiihhaablfefjklcgiahoiioihhghgjfpppp",
"pppfffkjciooioihgcblkfefjjklbccahhiiihhgacffpppp",
"pppffjjkcioiooihabbkffdefjkkkbbbaaoiihhhgljjpppp",
"pppfffkbciooo`ogcllkkfeeejjjjkkbbbi`iihggalkpppp",
"pppjjjjcghio`ooabllbcabfffjllbbbkboooiihghcjpppp",
"pppjlkjbahio`oiclbaggacbjejbagbjfkiooiiiigkfpppp",
"pppjjlbbahio`oillbaaglcbfnkcahhgljgooiiiigkfpppp",
"pppjjjkaaho``ogkfejjjfjkdmejklkljfai`ihoigbfpppp",
"pppjjkbagh```oclennddnnenmdddeeedeci`oiohgcjpppp",
"pppjjklggio`oiabfdmmmmnemmdmmmmmneci``ioigbjpppp",
"pppjlllciioi`iabjdmmmmnemmdmmmmmdfbo``oooocjpppp",
"pppjcabcgghio`ockennndedmmddnmmndklo``oooockpppp",
"pppkahggghhio``aljfeefjjnneefdddebho`oihoilbpppp",
"pppkahooiiiii``hbbkkjflclklefkffjcioooohigkkpppp",
"pppjccghiiiih``ibbljfejlckedeklllcihi`ihhallpppp",
"pppklbcghoihi```cbkjccbcckkkjkkklhhho`iggbblpppp",
"pppkkchioiiio```gblfbgljjfkbajjkboo```oiacbbpppp",
"pppkkhiiooii````gccjfkljeekkfejlh```ii`ogaacpppp",
"pppkcgiiiioo````gabljkkkjfjkffkao``oio``ohacpppp",
"pppkchgooiooo```aaclkkbbblljfjbo`ooii`o`ihagpppp",
"pppkbghiooio````gacckfjkkjjfflg``ihiio`oiaggpppp",
"pppklchhioi`````ihcabfeedeeekcao`ohhiooigaaapppp",
"pppklkahiiio``ooo`haabjfefekclkiooiio``icbcgpppp",
"pppkklbhhiooooo```ogaacbbbbacjjghoo``oohblggpppp",
"pppkllbghiooo`io`oooaaaggagckejghio`oohggaabpppp",
"ppplklbggioioooio`ooigaaggclffkhhoo`oihiihclpppp"
};
