/* XPM */
static char *noname_xpm[] = {
/* width height ncolors chars_per_pixel */
"48 48 17 1",
/* colors */
"` c black",
"a c grey33",
"b c grey47",
"c c grey40",
"d c grey87",
"e c grey80",
"f c grey73",
"g c grey27",
"h c grey20",
"i c grey13",
"j c grey67",
"k c grey60",
"l c grey53",
"m c white",
"n c grey93",
"o c grey7",
"p s None c None",
/* pixels */
"ppppppnnnnnnnnnmnmmmmmmmmmmmmmmmmmmmmmmmmmpppppp",
"ppppppnnnnnnnnnnnnnnmmmmeenmmmmmmmmmmmmmmmpppppp",
"ppppppnnnnnnnnnndjfdmmmdkbbemmmmmmmmmmmmmmpppppp",
"ppppppnnnndnddeklbbkfnnjcghcddmmmmmmmmmmmmpppppp",
"ppppppnndndndfbcaggackdjchhglfjmmmmmmmmmmmpppppp",
"ppppppndndddfcaaahhggabbcaghckcknmmmmmmmmmpppppp",
"ppppppnddddebgghhhhhhhgggiohclahbnmmmmmmmmpppppp",
"ppppppnndddjaagioghhghioooogclaiikmmmmmmmmpppppp",
"ppppppddddechcai`haahiiiihabllchogdmmmmmmmpppppp",
"ppppppndddfgogghogcaiioiajfejkbaoifmmmmmmmpppppp",
"ppppppdddelh`oggacghoigkdnmdfklcholenmmmmmpppppp",
"ppppppdddebi``hggghhakdmmmmnfjlbg`hlemmmmmpppppp",
"ppppppddeeao`ogcaaaldmmmmmmmefkba`ohkmmmmmpppppp",
"ppppppddekh``icbbbknmmmmmmmndfkbao`ojmmmmmpppppp",
"ppppppddfco``icllfnmmmmmmmmmdfjba``idmmmmmpppppp",
"ppppppddeh```ibkfnmmmmmmmmmmnejbaioidmmmmmpppppp",
"ppppppdejg```ikjdmmddnnnnndeeeflaihgnmmmmmpppppp",
"ppppppdejbi``ikjffelbbbkjlcccjelaihbnnmmnmpppppp",
"ppppppdejkcghaclkbcaaabkfcaghaachhhkmmmnmmpppppp",
"ppppppdeffklbcbblclclcljnbgbacgcgggknnnmnmpppppp",
"ppppppdeefjjjllkkkjfffjemlckklllaacjnmnnmnpppppp",
"ppppppdeefjlfkbjjdnnnnenmfldddekblknnnnnnnpppppp",
"ppppppeefcghjlbjfnmmnednmdkkdmekbbfnnnnnnnpppppp",
"ppppppeefbhilkcjfdnekldnmdlckeekccjnnndnnnpppppp",
"ppppppeefkahaccljejbblcckchacbjbaafnddddddpppppp",
"ppppppefekcghhalkjcgcahhiiihggccacfddddnddpppppp",
"ppppppeefflggiackkggghghhhhiihaaafddddddddpppppp",
"ppppppefffkcgigabahiiohblch`oohhkddddddeddpppppp",
"ppppppefffjlcaggaaaabcckjlggggigeddedeedeepppppp",
"ppppppffffffklghgcbkejefjjbccagkededeedeeepppppp",
"ppppppeffffffligggakfejkllbcchbedeeeeeeeeepppppp",
"ppppppffjfjfkgiaaggcjeejjkklggfeeeeeeeeeeepppppp",
"ppppppfffjffbighcahgbjddefkciaeeeeeeeeeeeepppppp",
"ppppppfffjjkgohhhkchhckfkkchiileeeeeffefefpppppp",
"ppppppffjjchiiihhgkcgihhhhiihihjeffffffefepppppp",
"ppppppfjjlchihoggggklcghihggh`iaffjfffffffpppppp",
"ppppppjbcahhiihgaghhkfklbbchh``hkffffffeffpppppp",
"ppppppblbghgiihhhahigjfklcagh``ocfffffffffpppppp",
"ppppppllbggagiahghhhickklcggi``iobjfffffffpppppp",
"pppppplbahgagighihahooclbaaai`oohhalffffffpppppp",
"ppppppkccggaahhhigo```iccbcaiihihihhbjfffjpppppp",
"pppppplbgghahgogh`````ogcbbaihhhhh`oickjffpppppp",
"pppppplbahhigahi``o```oiablaigaccghhigackjpppppp",
"ppppppccaahhgaahggohi``oickgiabh`ogchhablkpppppp",
"ppppppbcccahhgaighhhhiooohflhg```ohahhigcbpppppp",
"pppppplbblagghgiigioihiii`hah````oihhghogcpppppp",
"ppppppblcbcghhhgigghhahhhgihi``ooihhabaigcpppppp",
"ppppppahghhihhiioihiiihihghi`ooioihhaahgggpppppp"
};
