/* XPM */
static char *noname_xpm[] = {
/* width height ncolors chars_per_pixel */
"48 48 17 1",
/* colors */
"` c black",
"a c grey33",
"b c grey47",
"c c grey40",
"d c grey87",
"e c grey80",
"f c grey73",
"g c grey27",
"h c grey20",
"i c grey13",
"j c grey67",
"k c grey60",
"l c grey53",
"m c white",
"n c grey93",
"o c grey7",
"p s None c None",
/* pixels */
"pppfffjfjfffffffffffffffjfjfffffffjfjfjjffjjpppp",
"pppmnmmnmmmmmmmmmmnmmmmmmnmmmmmmmmmnmnnmnmmnpppp",
"pppmmnnnnmmnmmmmnmmnmmmnnmnmmmmnmnmnnnnnmnnnpppp",
"pppmnnmnnnmnmmnmmnnnmnmnnnnnmnmmnmnnnnnnnnnnpppp",
"pppnnmnnnnnnmnmnnnnmnnmnnnnnnnmnnnnnnnnnnnndpppp",
"pppmnnndnnnnnmnmnnnnnnnnnnnnmnnnnnnnnndnndndpppp",
"pppnnnndnnnnnnnnnnnnnnnejkkjfdnndnndnddndnddpppp",
"pppnnnnddnnnnnnnndnnelgiioo``ikddddndnddndndpppp",
"pppnnnnddnnnnmnnndeciioo```o``igbfdddddndnddpppp",
"pppnnnndnnnnnnnndliiio```o`ooooooiakdnddndddpppp",
"pppnnnnddnnnnnndgio```````oooo``oioicedddnddpppp",
"pppmnnnndnnnnnehoo```````o`o``o`oooioaedddddpppp",
"pppnnnnddnnnnngoo`o`o`oo````````o```oogeddddpppp",
"pppnnnnddnndnbo`o````o`o```o`o``oo`o`oocddddpppp",
"pppnnnnddndneio`````o`````o`o``oii````oojdddpppp",
"pppnnnnndnndco`o`````````oi``oigagi`````geedpppp",
"pppnnnndddndi``````````oiiooigaccci``o``ojdepppp",
"pppnnnndddnj````````o`ohgaccccbbbcg```o`ocedpppp",
"pppnnnnddnng`````ohhhgcbllklllbbbbg``````hdepppp",
"pppnnnnddddi````hacbbblkkklkllbbccg```````eepppp",
"pppnndddddfh```icbkklkllkkkkkllbccgo`````ojepppp",
"pppndnndddda```ablkkkkklkkkklklbbcao``````kepppp",
"pppnnddddddc``ialbblllklllbcbaabccaio`````kepppp",
"pppdnnndeddjo`hgghhgbbbbcghhhhggccaho`````kepppp",
"pppnddddddddi`hhhhhggcbcaaaacacaaccg``````fepppp",
"pppddndddedno`ggcbccccccagaaabcbcagi`````oeepppp",
"pppndnddeddeogiaaggckgbcaghhiahachha```o`aefpppp",
"pppdddddeedeccicigohgabcaghghgagaccch``hhkeepppp",
"pppdndddededjjkaaagaaalcaaaaacccccbcg`igajefpppp",
"pppdddddeeeedkfbbbaccaklabbcaccbcbbcgohacefepppp",
"pppddddeeedeejjllbbcabklcllbcbbbcccaghgakfefpppp",
"pppdddddeeeeejklllbbalklbbllllbccbcaggacjfefpppp",
"pppddddeeeedeekkkklccbkbbcaccbbcbcaagaclffffpppp",
"pppededeeeeeeejccccccbbcbbabbbbcccaggaakffffpppp",
"pppedddeefeeeeecccaaggaghgacccccaaaagihkffffpppp",
"pppedeeeeeeeeeebcaaccggaaacbcacaaaagh`gjjjffpppp",
"pppeedeeefefefelcaaccaccacaccaaaaaaao`bjjjfjpppp",
"pppfeeeefffffjfkcaagagaggaaggaaaaaaaogjjjjfjpppp",
"pppffeeeffffffjfcacahhhihiihgagaaaagljjjjjjjpppp",
"pppffeeefffffjjflcaccacaaagaagaaaaggjjjjjjjjpppp",
"pppjfeefffffjfjfjcaccagggaaaaggaaggajjfjjjjjpppp",
"pppjjeeffffjfjjjjlaccaaaaaaaagaagggajjjjjkjkpppp",
"pppjjefefjfjjfjjjfcacccaacacaagggggafjjfjjkjpppp",
"pppjjfeffjfjjjjjedbacccaaacaaaghgaggfffjjkjkpppp",
"pppkjfffffjjjjfdedkaacaaaaaaghggggaheddfjjkkpppp",
"pppjkffffjjjfnnennfagaggggghhgagagghfnnmnfjkpppp",
"pppkjffffedmmneddmeaagghhhhggagggaghennnmmnepppp",
"pppkkffdmmmmmfeemndbaaggaaacaaaggagaednnnnmmpppp"
};
