#define face_width 48
#define face_height 48
static unsigned char face_bits[] = {
 0x00,0x00,0x00,0x00,0x00,0x00,0x00,0x10,0x20,0x00,0x00,0x00,0x00,0x82,0x84,
 0x44,0x12,0x00,0x00,0x00,0x50,0x03,0x00,0x00,0x00,0x08,0xa8,0x0a,0x20,0x00,
 0x00,0x40,0x56,0x53,0x04,0x00,0x00,0x02,0x2d,0x25,0x80,0x00,0x00,0x00,0x72,
 0x5b,0x11,0x00,0x00,0x48,0xdb,0x56,0x00,0x00,0x00,0x81,0x44,0xb5,0x04,0x00,
 0x00,0x80,0x92,0xba,0x10,0x00,0x00,0xa0,0x50,0x6d,0x40,0x00,0x00,0x42,0x54,
 0x13,0x02,0x00,0x00,0x30,0x91,0xac,0x19,0x00,0x00,0x28,0x24,0xb5,0x2d,0x00,
 0x00,0x38,0x81,0x00,0x2a,0x00,0x00,0x2a,0x14,0x22,0x19,0x00,0x00,0x98,0xef,
 0x15,0x6c,0x00,0x00,0x3c,0x5f,0xff,0x38,0x00,0x00,0xd0,0xfb,0x1d,0x3a,0x00,
 0x00,0x5a,0x5f,0xff,0x1d,0x00,0x00,0x48,0x35,0xbd,0x54,0x00,0x00,0x90,0xad,
 0x5e,0x0a,0x00,0x00,0xa8,0x55,0x32,0x11,0x00,0x00,0x92,0x96,0xba,0x84,0x00,
 0x00,0x00,0x59,0x5c,0x18,0x00,0x00,0x48,0xad,0x55,0x02,0x00,0x00,0x91,0xd6,
 0x9a,0x00,0x00,0x00,0x40,0xa9,0x2a,0x49,0x00,0x00,0x40,0x57,0x95,0x00,0x00,
 0x00,0x24,0xad,0x5b,0x02,0x00,0x00,0x40,0x55,0x96,0x20,0x00,0x00,0x40,0x53,
 0xa9,0x00,0x00,0x00,0x49,0xed,0xae,0x48,0x00,0x00,0x80,0x56,0x59,0x00,0x00,
 0x00,0x60,0xab,0xb6,0x02,0x00,0x00,0xf4,0x6e,0x5b,0x8b,0x00,0x00,0x70,0xba,
 0x5f,0x07,0x00,0x00,0xf0,0xfd,0x56,0x0f,0x00,0x00,0xfe,0xea,0xaf,0x2f,0x00,
 0x00,0xff,0xab,0xd2,0x0f,0x00,0x00,0xff,0x57,0xed,0x0f,0x00,0x00,0xff,0xdf,
 0xf5,0x5f,0x00,0x00,0xff,0xbf,0xfe,0xbf,0x00,0x00,0xff,0xff,0xff,0xff,0x00,
 0x00,0xff,0xff,0xff,0xff,0x00,0x00,0xff,0xff,0xff,0xff,0x00,0x00,0xff,0xff,
 0xff,0xff,0x00};
