/* XPM */
static char *noname_xpm[] = {
/* width height ncolors chars_per_pixel */
"48 48 17 1",
/* colors */
"` c black",
"a c grey33",
"b c grey47",
"c c grey40",
"d c grey87",
"e c grey80",
"f c grey73",
"g c grey27",
"h c grey20",
"i c grey13",
"j c grey67",
"k c grey60",
"l c grey53",
"m c white",
"n c grey93",
"o c grey7",
"p s None c None",
/* pixels */
"ppppppmmmmmmmmmmmnmmneneflkfdemmmmmmmmmmmmpppppp",
"ppppppmmmmmmmmmmdmmdefeekeneflbjnmmmmmmmmmpppppp",
"ppppppmmmmmmmmmefnjllllbbclljbcclnmmmmmmmmpppppp",
"ppppppmmmmmmmmflcaagggggggggggcccjmmmmmmmmpppppp",
"ppppppmmmmmmdbagggggggggggagggggacnmmmmmmmpppppp",
"ppppppmmmmmeaggagaggggggggggghghgaemmmmmmmpppppp",
"ppppppmmmmnaggggggggghggggghhhhhhhlmmmmmmmpppppp",
"ppppppmmmmjgggggggghghghhhhhhhhhhhammmmmmmpppppp",
"ppppppmmmmlggghhghhggacbaioooiiiiihjmmmmmmpppppp",
"ppppppmmmmlhhghghgccahiiooooooiooiignmmmmmpppppp",
"ppppppmmmmlghhhgcchioo`o``````ighioifmmmmmpppppp",
"ppppppmmmmkhhhbbiooo`oo``o`o`o``hcchbmmmmmpppppp",
"ppppppmmmmfhhjaooooooo`o``o`o`o``oglkdmmmmpppppp",
"ppppppmmmmdbjgoo`oooooo`o``o`o`````oglmmmmpppppp",
"ppppppmmmmmfgoooooooooo`o`ooo`oo`o```kmmmmpppppp",
"ppppppmmmmjhioiooooooooooooooo`o````onmmmmpppppp",
"ppppppmmmmloooioiooooiooooioooo``````emmmmpppppp",
"ppppppmmmmjoooiooioiioioiiiiooo``````kmmmmpppppp",
"ppppppmmmmko`ooioioioiiiihiiio```````cmmmmpppppp",
"ppppppmmmmco`ooooioiooiiihhiio```````cmmmmpppppp",
"ppppppmmmmb`o`ooioiooiiiiiioo`o``````kmmmmpppppp",
"ppppppmmmmloo`oigachiihihhhhho`o`````jmmmmpppppp",
"ppppppmmmmnao`hblcgihgcaghgaaghho````fmmmmpppppp",
"ppppppmmmmmnigjddflggbefcaahihgahi``bemmmmpppppp",
"ppppppmmmmmmkjnmmdjkjdndblbcccccci`ammmmmmpppppp",
"ppppppmmmmmmndmmmmndnmnnlkkkllbccgijmmmmmmpppppp",
"ppppppmmmmmmmmmmmmnddmmnkbjjffkbcacnmmmmmmpppppp",
"ppppppmmmmmmmnmmmmejfnmnkbckffjbbbjmmmmmmmpppppp",
"ppppppmmmmmmmmmnnekbjmdellcaljlbblfmmmmmmmpppppp",
"ppppppmmmmmmmmmdfkcjfjlcgacaabbbkemmmmmmmmpppppp",
"ppppppmmmmmmmmmeflkeeflcccccgccbemmmmmmmmmpppppp",
"ppppppmmmmmmmmmdfjkbblbbaagacacbmmmmmmmmmmpppppp",
"ppppppmmmmmmmmmnefkkkjekaagacccemmmmmmmmmmpppppp",
"ppppppmmmmmmmmmmefjfffjjkccccckmmmmmmmmmmmpppppp",
"ppppppmmmmmmmmmddfffjlcaaacaccfmmmmmmmmmmmpppppp",
"ppppppmmmmmmmmmffefejjlccccccbjmmmmmmmmmmmpppppp",
"ppppppmmmmmmmmmlkdfjjjkbcccccckmmmmmmmmmmmpppppp",
"ppppppmmmmmmmmmbkdejkbcaacaccckmmmmmmmmmmmpppppp",
"ppppppmmmmmmmmmbkddfkbaacacccafmmmmmmmmmmmpppppp",
"ppppppmmmmmmmmmbleeejlcaaccccanmmmmmmmmmmmpppppp",
"ppppppmmmmmmmmmjajffjlbccbcbcbmmmmmmmmmmmmpppppp",
"ppppppmmmmmmmmmfgljjjlbccbbbcemmmmmdmmmmmmpppppp",
"ppppppmmmmmmmmmecckkjkbbbbbbkmmmmmnnmmmmmmpppppp",
"ppppppmmmmmmmmmnjgbkklbbbbbbmmmmmmdmmmmmmmpppppp",
"ppppppmmmmmmmmmmnaalkllbbbcemmmmmmnmmmmmmmpppppp",
"ppppppmmmmmmmmmmmnacbllbbblmmmmmmmnmmmmmmmpppppp",
"ppppppmmmmmmmmmmmmfabbbbbldmmmmmmnmmmmmmmmpppppp",
"ppppppeeeeeeeeeeeeeagaaccffffeeeefeeeeeeeepppppp"
};
