/* XPM */
static char *noname_xpm[] = {
/* width height ncolors chars_per_pixel */
"48 48 17 1",
/* colors */
"` c black",
"a c grey33",
"b c grey47",
"c c grey40",
"d c grey87",
"e c grey80",
"f c grey73",
"g c grey27",
"h c grey20",
"i c grey13",
"j c grey67",
"k c grey60",
"l c grey53",
"m c white",
"n c grey93",
"o c grey7",
"p s None c None",
/* pixels */
"pppppmmmmmmmmmmmmmmmmmmmmmmmmmmmmmmmmmmmmmpppppp",
"pppppmmmmmmmmmmmmmmmmmmmmmmmmmmmmmmmmmmmmmpppppp",
"pppppmmmmmmmmmmmmmmmmmmmmmmmmmmmmmmmmmmmmmpppppp",
"pppppmmmmmmmmmmmmmmmmmmmmmmmmmmmmmmmmmmmmmpppppp",
"pppppmmmmmmmmmmmmmmmmmmmmmmmmmmmmmmmmmmmmmpppppp",
"pppppmmmmmmmmmmmmmmmdjcgckemmmmmmmmmmmmmmmpppppp",
"pppppmmmmmmmmmmmmncho````oijmmmmmmmmmmmmmmpppppp",
"pppppmmmmmmmmmmmei`````````ikdmmmmmmmmmmmmpppppp",
"pppppmmmmmmmmmmfi```````````hajmmmmmmmmmmmpppppp",
"pppppmmmmmmmmmko`````````````ohjmmmmmmmmmmpppppp",
"pppppmmmmmmmmdo``o`````````hcgoiemmmmmmmmmpppppp",
"pppppmmmmmmmmk``hjkh`gbaabkenfh`bmmmmmmmmmpppppp",
"pppppmmmmmmmmc``jnnndnmmmmmmmml`hmmmmmmmmmpppppp",
"pppppmmmmmmmmh`hdmmmmmmmmmmmmmfoonmmmmmmmmpppppp",
"pppppmmmmmmmmo`gdmmmmmmmmmmmmmj``dmmmmmmmmpppppp",
"pppppmmmmmmmn``idmmmmmmmmmmmmmj``dmmmmmmmmpppppp",
"pppppmmmmmmmn``bnmmmmmmmmmmmmmeo`nmmmmmmmmpppppp",
"pppppmmmmmmmf``kndfkjdmmmnfkjeeiimmmmmmmmmpppppp",
"pppppmmmmmmmng`knnnelkdnelablljiammmmmmmmmpppppp",
"pppppmmmmmmmdecjmnflabemdchihbfhjmmmmmmmmmpppppp",
"pppppmmmmmmmnnedmmmnddnmmffjffdlfmmmmmmmmmpppppp",
"pppppmmmmmmmmdddmmmmmmmmmdndnnnjnmmmmmmmmmpppppp",
"pppppmmmmmmmmdddmmmmmmmmndnmmndemmmmmmmmmmpppppp",
"pppppmmmmmmmmmmdnmmnnnefclennnfdmmmmmmmmmmpppppp",
"pppppmmmmmmmmmmnnmmnmndfkkneefjnmmmmmmmmmmpppppp",
"pppppmmmmmmmmmnenmmdndejjjdefkfmmmmmmmmmmmpppppp",
"pppppmmmmmmmmmmenmmfcjefkahcjjemmmmmmmmmmmpppppp",
"pppppmmmmmmmmmmnnmmnndefflbjjkemmmmmmmmmmmpppppp",
"pppppmmmmmmmmmmmnmmmmneklljjkknmmmmmmmmmmmpppppp",
"pppppmmmmmmmmmmmdnmmmmdfjfefkkmmmmmmmmmmmmpppppp",
"pppppmmmmmmmmmmmdfenmmndddekbdmmmmmmmmmmmmpppppp",
"pppppmmmmmmmmmmmndjjfejjjbcgbmmmmmmmmmmmmmpppppp",
"pppppmmmmmmmmmmjendfkbhghoiajmmmmmmmmmmmmmpppppp",
"pppppmmmmmmmmmnkemmnekciohbkknmmmmmmmmmmmmpppppp",
"pppppmmmmmmmmmejfmmmnddflblkldmmmmmmmmmmmmpppppp",
"pppppmmmmmmmmdffjfmmnndfllkkcemmmmmmmmmmmmpppppp",
"pppppmmmmnnnjjffelfnnndkblklcddmmmmmmmmmmmpppppp",
"pppppmmnejdnkjejcgbjedejkkkclclddddmmmmmmmpppppp",
"pppppddelbenffei``ccjkkkkjbgo``ldfdnnnmmmmpppppp",
"pppppeedjbfndeao```bfkllkcohgi`ieffndddenmpppppp",
"pppppefdjbjdflcogh`hbbblboigao``akjnnddeenpppppp",
"pppppkllkccejjjkjfagcfjcogbllahiaclnndfjedpppppp",
"pppppkklklceeddfkklgabjbocjffjlcbcbeffklkjpppppp",
"pppppefkfjldfeefjjjaalkklljjjklkfklefefljlpppppp",
"pppppfklkjleffdfffebbbjjfjfffjlkflkdddffekpppppp",
"pppppeklkjjfeendfjelbbkfjkdeefkkflleeejkflpppppp",
"pppppdfjjffjefndejdkcbkjjkddefkkfkkeeejkfjpppppp",
"pppppefjjefjeendefdfbbkljfeddejjflkfdefjflpppppp"
};
