#define noname_width 48
#define noname_height 48
static char noname_bits[] = {
 0x00,0x00,0x14,0x2d,0x80,0x00,0x00,0x92,0x7e,0xff,0x2a,0x01,0x00,0x40,0xdf,
 0xff,0x41,0x02,0x00,0xc9,0xff,0xff,0x97,0x00,0x00,0xe0,0xff,0xff,0x23,0x02,
 0x00,0x72,0xff,0xff,0x1f,0x01,0x00,0xd8,0xff,0xff,0xaf,0x00,0x00,0xf5,0xff,
 0xff,0x1f,0x01,0x00,0xfc,0xff,0xff,0x3f,0x02,0x00,0xfc,0xff,0xff,0xbf,0x00,
 0x00,0xbf,0xef,0xfe,0xbf,0x02,0x00,0xfc,0xbf,0xff,0x7f,0x00,0x00,0xff,0xd5,
 0xfa,0x7f,0x01,0x00,0xfe,0x97,0xd6,0x7f,0x01,0x80,0xff,0x4a,0xed,0xff,0x00,
 0x00,0xfe,0xa5,0x52,0x7f,0x01,0x80,0x7f,0x05,0xed,0x7f,0x02,0x00,0xff,0xa3,
 0xb0,0x7e,0x01,0x00,0x5f,0x4a,0xff,0xff,0x00,0x00,0xff,0x37,0x55,0x7d,0x01,
 0x00,0x5b,0xad,0xeb,0x3e,0x02,0x00,0xfe,0x5a,0xbd,0x7d,0x01,0x00,0xaf,0xaf,
 0x6e,0x9f,0x00,0x00,0x5c,0x15,0xa9,0x7a,0x02,0x00,0x5e,0xa5,0x52,0x9f,0x00,
 0x80,0x58,0x50,0x95,0x55,0x02,0x00,0x2e,0x25,0xa5,0x2e,0x01,0x00,0x50,0x92,
 0x56,0x57,0x01,0x00,0xa9,0xec,0xab,0x8d,0x00,0x00,0x52,0xf5,0xfe,0x56,0x02,
 0x00,0xa4,0xba,0x57,0xaf,0x00,0x00,0x69,0xef,0xbf,0x15,0x02,0x00,0xa0,0x3e,
 0x7d,0x67,0x01,0x80,0x4a,0xdb,0xd7,0x15,0x01,0x00,0xa4,0xb6,0x5e,0xab,0x02,
 0x00,0x88,0xd5,0xeb,0x4b,0x00,0x00,0xa5,0xae,0xbe,0x15,0x03,0x00,0x88,0xd6,
 0x6a,0xab,0x00,0x00,0x45,0x7d,0xff,0x55,0x03,0x40,0x10,0xda,0xb7,0xd5,0x02,
 0x00,0xa5,0xf7,0xde,0xaa,0x02,0x80,0x28,0xba,0xf7,0xaa,0x01,0x00,0xca,0xed,
 0xda,0x6a,0x01,0x80,0x12,0x57,0x7f,0x55,0x01,0x00,0x44,0xbd,0x55,0xd5,0x02,
 0x00,0x29,0xeb,0xbf,0x52,0x01,0x80,0xc4,0xb7,0x2a,0xa5,0x02,0x80,0x3a,0xed,
 0xbf,0x5a,0x01};
