/* XPM */
static char *noname_xpm[] = {
/* width height ncolors chars_per_pixel */
"48 48 17 1",
/* colors */
"` c black",
"a c grey33",
"b c grey47",
"c c grey40",
"d c grey87",
"e c grey80",
"f c grey73",
"g c grey27",
"h c grey20",
"i c grey13",
"j c grey67",
"k c grey60",
"l c grey53",
"m c white",
"n c grey93",
"o c grey7",
"p s None c None",
/* pixels */
"pppjjffffffffefffjkkkffffffeeeeffffffjjjfjjjpppp",
"pppjfffefefffffkbccacbkbcckjeefffffffjjfjjjjpppp",
"pppjffffeffffjbacccaaggggcaakfffffffjjffjfjjpppp",
"pppjjffffeffkcaaaacaaghhhacggbffffffjfjffjjjpppp",
"pppjfffefffkaagggggghiihhhacghcjefffjfffjjjfpppp",
"pppjjffffekcaghghhhiiiihghhgahhcjffjfjffjfjjpppp",
"pppjjfffejcaghggaagaaaghhhhahihhgjjfjfffjfjjpppp",
"pppjjffffcagghgaacacgghiihigahoihgkjffffjfjfpppp",
"pppjjffflahghgagcaghhioooiihgaooihajfffffjfjpppp",
"pppjjjfjgghghgacchhhio`ooihhhcooihhcfeffjfffpppp",
"pppjjffahhhggaachihhiiiiihgggaioohigffffffjfpppp",
"pppjjjjaihghggcaooiioihhhhabcagiihiifffjffffpppp",
"pppjjjjhihhhhgahoooihahacckjjjahiiiokffffjfjpppp",
"pppjjjliihhhiggiihcllkkdedddddfhhiiilfffffffpppp",
"pppjjjgoiiioiihhbfennnmmmmmnnneciiioaffffffjpppp",
"pppjkkgiooio`iibfeddnmmmmmnnndecioo`ikfjfjffpppp",
"pppklcii`oo``iikfednnnmmmmnnddecooooobfffffjpppp",
"ppplcgii``o``oikfeddmmmmmmnnndeco```ocjfffffpppp",
"pppaghhoo````ohkfeddnmmmmmnnddelio``ogljfffjpppp",
"ppphgghio````ocjfdnnnmnmmmnnmneeh``oooajffffpppp",
"pppaiiioo````hkjfddmnnmnmmnnnneel````oiljffjpppp",
"pppahooo`o`oobklkjednnddefjlkjjfeo```oogjfffpppp",
"ppplg```iooihaaggabjfeefbagcbbckeh`````cjjffpppp",
"pppjloooioihihhhiigakjjbaghhgabjeci`o`hjffffpppp",
"pppjja``oihghhihhchgknnlalbkkkfdfbhoiolfffffpppp",
"pppjjlo`oiggghgbllbbfmmdfjffedddelghghjfffffpppp",
"pppjjko``igablkkjffkfmmdnddnnnndfjbggcjffffjpppp",
"pppjkco``iackffeeejlfnnddnnnnnnefkfghbjjfjffpppp",
"pppjki```hackjfddejlfnddddnnnndejjehigkfjffjpppp",
"pppjlgo``gaabkfedekkfnddeeenndefkkkiihbjffjfpppp",
"ppplbho``igackjeefkbbffjfffedeefkliibalkjjfjpppp",
"ppplgio```iacbkjffcggcccjeffeefjkaoiblkjfjfjpppp",
"pppbi`oo``oaaclkjfcggckeddeffffkkhiilbkjjjjjpppp",
"pppi`io````gaabkjflclfddddefffjkkihgkkkkjfjjpppp",
"ppp`igo````hgaclkkklljjjffefffjkboicjjkjkjjjpppp",
"ppp`ooo````oagabllagaabblllfejjkcihalkkkkjjjpppp",
"ppp`io``````ggabllcclfffjeejffjlaihackklkkjkpppp",
"ppp`i```````gggallbccbklkffjjkkbgohhgcbllkkkpppp",
"ppp````````ihgggcbcagggckjkjkllbi`oihigblllkpppp",
"pppo``ooo`iohhghgccblljfffjklccbio`oooigbbblpppp",
"ppp`oo```ooohghhhgclkjjfffjlaaaboo`o``oocccbpppp",
"ppp```````oohhhhhhacbklkjjlaagblh`iooiiogacbpppp",
"pppoo`oo`ooohghhhhhhgaccccacaakkcooiooohhgacpppp",
"pppooooooooiohhhhhhhhhhhhgaaabkkbgooiiihggggpppp",
"pppiiiiiiooiiohhhihhhhghghggckkbbbgoioiihhagpppp",
"pppcchihiiiioiiihhhhhhhhhhgalkbbbbbaiiiiigaapppp",
"pppbbchhhhiiiioioiihhhhhggablbccblbbcahhhhccpppp",
"pppbbbchhihiiiioioiooiiihhacaacbblllbbcaggcbpppp"
};
