/* XPM */
static char * face_xpm[] = {
/* width height ncolors chars_per_pixel */
"48 48 6 1",
/* colors */
" 	s None	c None",
".	c black",
"X	c red",
"o	c tan",
"O	c slate grey",
"+	c wheat",
/* pixels */
"                                                ",
"                                                ",
"                                                ",
"                                                ",
"                                                ",
"                                                ",
"                                                ",
"        ...............XXX.............         ",
"       .ooooooooooooooXXXXXoooooooooooo.        ",
"      .ooo............XXXXX..........ooo.       ",
"     .ooo.o.o.o.o.o.o.XXXXX.o.o.o.o.o.ooo.      ",
"    .ooo.oOoOoOoOoOoOoXXXXXoOoOoOoOoOo.ooo.     ",
"   .ooo...............XXXXX.............ooo.    ",
"  .oooooooooooooooooooXXXXXooooooooooooooooo.   ",
" .ooooooooooooooooooooXXXXXoooooooooooooooooo.  ",
" .+.+.+.+.+.+.+.+.+.+.XXXXX.+.+.+.+.+.+.+.+.+.  ",
" .++++++++++++++++++++XXXXX++++++++++++++++++.  ",
" .++++++++++++++++++++XXXXX++++++++++++++++++.  ",
" .++++++++++++++++++++XXXXX++++++++++++++++++.  ",
" .++++++++++++++++++++XXXXX++++++++++++++++++.  ",
" .++++++++++++++++++++XXXXX++++++++++++++++++.  ",
" .....................XXXXX...................  ",
"   .ooooooooooooooooooXXXXXoooooooooooooooo.    ",
"   .ooooooooooooooooooXXXXXoooooooooooooooo.    ",
" .......++++++++++++++XXXXX++++++++++++.......  ",
" .++++++++++++++++++++XXXXX++++++++++++++++++.  ",
" .++++++++++++++++++++XXXXX++++++++++++++++++.  ",
" .++++++++++++........XXXXX......++++++++++++.  ",
" .+++++++++++.oOoOoOoOXXXXXOoOoOo.+++++++++++.  ",
" .++++++++++.oOoOoOoOoXXXXXoOoOoOo.++++++++++.  ",
" .+++++++++.+.+.+.+.+.XXXXX.+.+.+.+.+++++++++.  ",
" .+++++++++.++++++++++XXXXX++++++++.+++++++++.  ",
" .+++++++++.+++++++++++XXX+++++++++.+++++++++.  ",
" ...........+++++++++++++++++++++++...........  ",
" ...........+++++++++++++++++++++++...........  ",
" ...........+++++++++++XXX+++++++++............ ",
" OOOOOOOOOO...........XXXXX.........OOOOOOOOOOOO",
"  OOOOOOOOO...........XXXXX.........OOOOOOOOOOOO",
"         OO...........XXXXX.........OO          ",
"          OOOOOOOOOOOOOXXXOOOOOOOOOOOOO         ",
"           OOOOOOOOOOOOOOOOOOOOOOOOOOO          ",
"                                                ",
"                                                ",
"                                                ",
"                                                ",
"                                                ",
"                                                ",
"                                                "};
