/* XPM */
static char * face_xpm[] = {
/* width height ncolors chars_per_pixel */
"48 48 16 1",
/* colors */
" 	c grey20",
".	c grey27",
"X	c grey33",
"o	c grey13",
"O	c grey7",
"+	c black",
"@	c grey40",
"#	c grey47",
"$	c grey53",
"%	c grey67",
"&	c grey60",
"*	c grey73",
"=	c grey80",
"-	c grey87",
";	c grey93",
":	c white",
/* pixels */
"  ..X  . o OO+++++++O+O+O++++O++OoOoOO+XoOOOOO@O",
"X X..X  . o+++++O+++OO+OOOOOOOOO+OOOoOOOOOoOOOXO",
"...X..X ooO+++++++O+O+++++oOoOOOOOOooOo OO+OOO.O",
".X .X    oO++++OOOoOOOOoO+OOOOOOOOO+O+OOOoO+OO#O",
"..X .X.o Oo+Oo . #$XXoooo  oo oOOOOOOOOOOO+++o%O",
".X..X  oOOOO X#$@$@&#%*&&%&$$#@ .OO+++++O+++OO#O",
"..X..X OOO XX#$%&$%*%*$*=&&$$$#@. oOOO+++OoOO+ O",
"@..X .++O X#@$$&%&&*===**&%*&&&$$$..oOO++OooOOOO",
"XXXooOO+..@@##$&&%%==*==*==***%$$##XoOOOOo.oOoOO",
"@# OooOO X@@$$&&*=*&====*==*==**%#$$@X .OOooO+OO",
"XXOOoOO .X#@&&&&%*===*=======*=*&&$$$. .OooOOO@$",
"#.O   Xo.#$$$$**===*==--=-=*-=*=%$%%$#.X OoOOo+O",
".oO..o@.@@$#%%==*-----*======*=*%$&$%@. Oo.oO oO",
"oO+o.  . #$$$**===*-=--==*=*===&*&$&$&@o.ooOOO++",
"o+O .X@ X$#&%%*====-=----=*=---=***&$$# oOOoo+OO",
"OOO . ...@$$%&**%=*=-=*-=*===-=*=*=&%#XX O+OOOO.",
"O+O   X.XX$%$%*=---------=-;--&#. o o@XX OO+O++O",
"o++.o # .#@$&*=*-=;;;;;=-;;-=& o oX.X  o..O+++OO",
" ++    oX.#$#X #X%*=-;:--;-*%@.X$$#X.&@ X.++oX.#",
"XO+.oo o .X  .Xo   @&=----=*$#%&.OO=o@&$ XO+.oOo",
"X+++.  Oo. X@#X#. .@#%%=-=*#$%#- OO%@#$&&@XO%$oO",
"&+++ooOO  o#$X..o.%*XX#*=-%$&*&$%%$%%&$%$# .==&o",
"$o++++oOX.X%Xo=o$ ;-%%X%=*%#%%&%=*=*&&$%$&. &&%O",
"%$+++OoO.X$#&X= o%=&&%.$==%$$&%%&%&*%*%*%$  &%& ",
"%*oO+++oo@%#%&*%--%%&#&&&*=$%*===*%%&***&$ .*.X ",
"&#$O++@XO.$%*&**==***$&$*=*&$%**-*%=****%$  %=# ",
"%$&.++X%O %*=%**%&*==%#$%%*%&**=-==**==%&$..%%&O",
"&$*& O#=X $**=*=&=*==&&$&**%$&&=-===*==&&$X *%@O",
"%$%%#+$*@o.%=-*==*=*=*#$%===&&$*=====*&%@$@X*#OO",
"%*%%$+.*.X @*====*===%@$%*=-*&&$%==*=**%$$#.Xo$#",
"*=%&&Oo=@&o.%=%*===*=%@&==-;=*%&=*=*=&*$$$@.OOOO",
"*&%$$++X%*o @$*==*===$$$$=*=%@*$==*%=%%%$&@XOOOO",
"**=**++O&&o.#&%&=====-#*X#%*$*%%***=*&%&&$#.OOOO",
"&&&$&+++O%%O@&&%*=*==*=***&**%****%=***%%$#XOO+O",
"&=*$% ++OO+OX&#%&%*==*=&*****%****%&*%*&%&@XOOOO",
"%&$&#$O+++++ $&$%%%%%%=*********%&X%%%**&$$.OOOO",
"%#$$##@O++++o@%$&%************&X$#&*&*%*$&X.%%%%",
"#$$#$#$#.O++O $%$%*%$$#$#$@@#*%&%&&*%%%$&$@@-oOO",
"$#$$##@@#X+++ $&&&%*=**$$%**=%&%$%**&%&&##XX;-OO",
"$$#$##@$@#+O++.&$%==%==*%$&$%#%%***%**&###$@X;%O",
"&#$@$@#@#@++++O@&@%=****&%%%==**==%%&%$$$@#X.=-#",
"#$$$@#@#@#.++++O##&&****===%=*==***&%%#@@&#$Xo;*",
"$@$@#@X@#@#oO++O X#&*****%*====*==*%$$X#@$$@#.:-",
"@#@#@#@#@#@.++++OoX#$%*******=**=*&%$.$X&&$&$$:;",
"@#@@#@#@#X.@.+++++OX#@$%&%%**%%*%$&.@&@%&%$%&=::",
"#@X@#X@#@.@X..++++o. X@ #&&&&&$&@#@###$%%%%$*;::",
"X#X.XX@X@..@.X&+++X#@X@@@$.X$&$%$$@$#&%&%&%%%;::",
"X.@.@.#.XX....* X$=.@#X##X$$#&$&$@$#&$%%&%%*%;::"};
