#define noname_width 48
#define noname_height 48
static char noname_bits[] = {
 0x00,0x00,0x00,0x00,0x00,0x00,0x00,0x00,0x00,0x00,0x00,0x00,0x00,0x00,0xf8,
 0x07,0x00,0x00,0x00,0x00,0xf6,0x3f,0x00,0x00,0x00,0x00,0xff,0x7f,0x00,0x00,
 0x00,0x80,0xff,0xff,0x00,0x00,0x00,0xc0,0xfe,0xff,0x01,0x00,0x00,0xc0,0xff,
 0xff,0x03,0x00,0x00,0xe0,0xff,0xff,0x03,0x00,0x00,0xf0,0xff,0xff,0x07,0x00,
 0x00,0xf0,0xff,0xff,0x07,0x00,0x00,0xf0,0xff,0xff,0x0f,0x00,0x00,0xf8,0xff,
 0xff,0x07,0x00,0x00,0xe8,0xff,0xff,0x0f,0x00,0x00,0xb0,0x52,0xff,0x0f,0x00,
 0x00,0xf8,0x4a,0xf5,0x07,0x00,0x00,0xb0,0x52,0xdd,0x07,0x00,0x00,0x54,0x55,
 0xf5,0x07,0x00,0x00,0xb4,0x4a,0xda,0x03,0x00,0x00,0xac,0x26,0xb5,0x09,0x00,
 0x00,0x70,0xdd,0xef,0x0e,0x00,0x00,0xf4,0x6f,0xb5,0x1a,0x00,0x00,0xf0,0xd7,
 0xdf,0x07,0x00,0x00,0xf4,0xef,0x7f,0x5d,0x00,0x00,0xf8,0xb7,0x7f,0x37,0x00,
 0x00,0xa8,0x5a,0xff,0xd3,0x00,0x00,0xf0,0xa7,0xbf,0x92,0x00,0x00,0x10,0x49,
 0xf5,0x6a,0x03,0x00,0x60,0xe5,0xdf,0x92,0x02,0x00,0xb1,0x95,0x72,0x55,0x03,
 0xc0,0xe0,0x76,0x2f,0xaa,0x02,0x80,0x63,0xfd,0x3d,0xdd,0x02,0xc0,0xe3,0xef,
 0x1f,0x35,0x01,0xc0,0xcf,0xfb,0x37,0xae,0x03,0xc0,0xcf,0xbf,0x0f,0xda,0x03,
 0xc0,0xbf,0xed,0xbf,0xfc,0x03,0xc0,0x9b,0xff,0xdf,0xeb,0x03,0xc0,0x7f,0xff,
 0xff,0x7e,0x01,0xc0,0xff,0x76,0xf7,0xeb,0x02,0xc0,0xff,0xff,0xff,0xbf,0x02,
 0xc0,0xff,0xfd,0xff,0x7f,0x03,0xc0,0xff,0xff,0xff,0xdb,0x02,0xc0,0xff,0xff,
 0xfe,0xff,0x03,0xc0,0xfe,0xff,0xff,0x7f,0x03,0xc0,0xff,0xff,0xff,0xff,0x02,
 0xc0,0xff,0xff,0xff,0xff,0x03,0xc0,0xff,0xff,0xff,0xff,0x03,0xc0,0xff,0xff,
 0xff,0xff,0x03};
