#define face_width 48
#define face_height 48
static char face_bits[] = {
   0x00, 0x00, 0x00, 0x00, 0x00, 0x00, 0x00, 0x00, 0x00, 0x00, 0x00, 0x00,
   0x00, 0x00, 0x00, 0x00, 0x00, 0x00, 0x00, 0x00, 0x00, 0x00, 0x00, 0x00,
   0x00, 0x00, 0x00, 0x00, 0x00, 0x00, 0x00, 0x00, 0x00, 0x00, 0x00, 0x00,
   0x00, 0x00, 0x00, 0x00, 0x00, 0x00, 0x00, 0x00, 0xfe, 0xff, 0xff, 0x00,
   0x00, 0x80, 0xff, 0xff, 0xff, 0x03, 0x00, 0xc0, 0x87, 0x87, 0xff, 0x07,
   0x00, 0xe0, 0xc1, 0xc1, 0x03, 0x0f, 0x00, 0xf0, 0xe0, 0xe0, 0x01, 0x1e,
   0x00, 0x70, 0x60, 0xf0, 0x00, 0x1c, 0x00, 0x70, 0x70, 0x70, 0x00, 0x38,
   0x00, 0x78, 0x70, 0x70, 0x00, 0x38, 0x00, 0x78, 0x70, 0x70, 0x00, 0x38,
   0x00, 0x78, 0x70, 0x70, 0x00, 0x38, 0x00, 0x78, 0x70, 0x70, 0x00, 0x38,
   0x00, 0x70, 0x70, 0x70, 0x00, 0x38, 0x00, 0xf0, 0x60, 0xe0, 0x00, 0x3c,
   0x00, 0xe0, 0xe0, 0xe0, 0x01, 0x1e, 0x00, 0xe0, 0xc1, 0xc1, 0x03, 0x0f,
   0x00, 0xff, 0xc1, 0xc3, 0xff, 0x07, 0xc0, 0xff, 0x83, 0x83, 0xff, 0x01,
   0xe0, 0xff, 0x07, 0x07, 0x7f, 0x00, 0xf0, 0x81, 0x07, 0x07, 0x07, 0x00,
   0x70, 0x00, 0x0f, 0x0e, 0x0e, 0x00, 0x38, 0x00, 0x0e, 0x0e, 0x0c, 0x00,
   0x18, 0x00, 0x1e, 0x1c, 0x1c, 0x00, 0x1c, 0x00, 0x1c, 0x1c, 0x1c, 0x00,
   0x1c, 0x00, 0x1c, 0x1c, 0x1c, 0x00, 0x1c, 0x00, 0x1c, 0x1c, 0x1c, 0x00,
   0x1c, 0x00, 0x1c, 0x1c, 0x1c, 0x00, 0x18, 0x00, 0x1c, 0x1c, 0x0c, 0x00,
   0x38, 0x00, 0x1e, 0x1c, 0x0e, 0x00, 0x78, 0x00, 0x0f, 0x0e, 0x0f, 0x00,
   0xf0, 0x80, 0x07, 0x87, 0x07, 0x00, 0xf0, 0xe3, 0xc7, 0xe3, 0x03, 0x00,
   0xc0, 0xff, 0xff, 0xff, 0x01, 0x00, 0x80, 0xff, 0xff, 0x7f, 0x00, 0x00,
   0x00, 0x00, 0x00, 0x00, 0x00, 0x00, 0x00, 0x00, 0x00, 0x00, 0x00, 0x00,
   0x00, 0x00, 0x00, 0x00, 0x00, 0x00, 0x00, 0x00, 0x00, 0x00, 0x00, 0x00,
   0x00, 0x00, 0x00, 0x00, 0x00, 0x00, 0x00, 0x00, 0x00, 0x00, 0x00, 0x00,
   0x00, 0x00, 0x00, 0x00, 0x00, 0x00, 0x00, 0x00, 0x00, 0x00, 0x00, 0x00};
