/* XPM */
static char * face_xpm[] = {
/* width height ncolors chars_per_pixel */
"48 48 12 1",
/* colors */
" 	s None	c None",
".	c blue",
"X	c navy",
"o	c dark slate grey",
"O	c slate grey",
"+	c grey",
"@	c gainsboro",
"#	c purple",
"$	c violet",
"%	c sky blue",
"&	c white",
"*	c lavender",
/* pixels */
"        ............XX..XoX............         ",
"        ...........XoOX.ooo............         ",
"        ...........oO+o.OOoX...........         ",
"        ..........Xo+@o.O#OoX..........         ",
"        .........XoO@OX.o$#Oo..........         ",
"        ........XoO@+o..Xo$OoX.........         ",
"        ........oO++oo..XoO$OoX........         ",
"        .......Xo+@OoX...ooO#OoX.......         ",
"        ......XoO@OOoX...ooo$#OoX......         ",
"        .....XoO@+oOo....XOoO$#oX......         ",
"        .....oO++OOOo.....oOoO$OoX.....         ",
"        ....Xo%@OoOOX.....oOooO#OoX....         ",
"        ...XoO@OXoOo......oOOoO$#Oo....         ",
"        ...X%++oXoOo......XOOoXO$#OX...         ",
"        ...O&@o.XoOX.......oOo.XO@&o...         ",
"        ...O&OX.XooX.......oOoX.o+*X...         ",
"        ...XOOo.ooo........XooX.o$OX...         ",
"        ...XOOoXooo........XoooXOOo....         ",
"        ....oOOoooX.........ooooOOX....         ",
"        ....oOOoOoX.........XoooOOX....         ",
"        ....XOOoOo..........XooOOo.....         ",
"        .....oOOOX...........ooOOo.....         ",
"        .....oOOoX...........ooOOX.....         ",
"        .....XOOoX...........XOOoX.....         ",
"        .....XoOo............XOOo......         ",
"        .....XoOOX...........oOOoX.....         ",
"        .....ooOOX...........oOooX.....         ",
"        .....oOOOo..........XOOoOX.....         ",
"        ....XOOoOo..........XOOoOo.....         ",
"        ....XOOoOOX.........oOOoOOX....         ",
"        ....oOooOOo.........oOooOOX....         ",
"        ...XOOoXoOo........XOOoXOOo....         ",
"        ...XOOo.oOOX.......oOOX.OOo....         ",
"        ...XOOoXoOOX.......oOoXXOOO....         ",
"        ...XO#OoXOOo......XOOoXo%+O....         ",
"        ....oOOoooOo......XOOooO@Oo....         ",
"        ....XO#OooOOX.....oOOoO++o.....         ",
"        .....oO#OoOOo.....oOoo%+oX.....         ",
"        ......oO#ooOo....XOOoO@OX......         ",
"        .......oOOoOOX...XOOO++o.......         ",
"        .......XO#oOOX...oOoO+o........         ",
"        ........oOOOOo..XOOo@OX........         ",
"        .........oOoOO..XOOOOX.........         ",
"        .........XOoOOX.oOOOo..........         ",
"        ..........XoOOX.oOooX..........         ",
"        ...........ooOo.OOoX...........         ",
"        ...........XoOX.OOo............         ",
"        ............Xo..Xo.............         "};
