#define noname_width 48
#define noname_height 48
static char noname_bits[] = {
 0x00,0x49,0xd5,0x2a,0x95,0x00,0x80,0x54,0xfa,0x5f,0x49,0x02,0x40,0x49,0xbf,
 0x7f,0x52,0x01,0x00,0xa5,0x56,0xe9,0x95,0x00,0x80,0x54,0x0b,0xf4,0x2b,0x01,
 0x40,0xca,0x45,0x80,0x97,0x02,0x80,0xf4,0x00,0xa8,0xa7,0x00,0x40,0x62,0x05,
 0x40,0x2e,0x01,0x80,0x7c,0x00,0xa0,0xaf,0x02,0x40,0x72,0x01,0x80,0x5c,0x00,
 0x80,0x5c,0x00,0x28,0x9f,0x02,0x00,0xba,0x04,0x80,0x7a,0x01,0x40,0x3d,0x00,
 0xa0,0x1e,0x02,0x00,0x6c,0x09,0x81,0x7a,0x01,0x40,0xbf,0x04,0x74,0x5f,0x02,
 0x00,0x7a,0xb2,0x88,0x7a,0x01,0x80,0x9e,0x6a,0x7d,0x5f,0x02,0x40,0xbf,0xba,
 0xd4,0x75,0x01,0x00,0xfb,0x66,0x55,0x5f,0x02,0x80,0x2e,0x95,0xac,0xea,0x01,
 0x80,0xd9,0xa0,0x08,0x5d,0x01,0x40,0x76,0x4a,0xb4,0xf4,0x02,0x00,0x9b,0xa0,
 0x28,0xdb,0x02,0x80,0x76,0x7b,0xdf,0x7e,0x01,0x80,0xdc,0xd4,0x7d,0xef,0x02,
 0x00,0xf5,0xff,0xff,0xbd,0x01,0x40,0xee,0xfd,0xef,0x7f,0x01,0x00,0xb5,0xff,
 0xfd,0xbf,0x03,0x40,0xdd,0xbf,0xfa,0xef,0x02,0x40,0xea,0x6e,0xd5,0xbd,0x03,
 0x80,0xda,0xbf,0xff,0x7f,0x03,0x80,0xea,0xff,0xf6,0xdf,0x02,0x80,0xba,0xff,
 0xfd,0xff,0x03,0x40,0xed,0xff,0xff,0xb7,0x02,0x80,0xda,0xff,0xff,0xff,0x03,
 0x40,0x6a,0xff,0xff,0xdf,0x02,0x80,0xfd,0xff,0xff,0xff,0x03,0x40,0xaa,0xff,
 0xff,0xdf,0x02,0x80,0xf7,0xff,0xff,0xfd,0x03,0xc0,0xda,0xff,0xff,0x6f,0x03,
 0xc0,0xfb,0xff,0xff,0xff,0x03,0xc0,0x6d,0xff,0xbf,0xb7,0x03,0xc0,0xf6,0xff,
 0xfd,0xff,0x01,0xc0,0xfd,0xef,0xff,0xbb,0x03,0xc0,0xf7,0xff,0xff,0xff,0x02,
 0xc0,0xdd,0xff,0xdf,0xdd,0x03,0x40,0xfa,0xff,0xff,0x7f,0x03,0x80,0xfc,0xff,
 0xff,0xf7,0x03};
