#define noname_width 48
#define noname_height 48
static char noname_bits[] = {
 0x00,0x00,0x00,0x00,0x00,0x00,0x00,0x00,0x00,0x00,0x00,0x00,0x00,0x00,0x00,
 0x00,0x00,0x00,0x00,0x00,0x00,0x00,0x00,0x02,0x00,0x00,0x40,0x0d,0x10,0x00,
 0x00,0x00,0xf8,0x7f,0x40,0x00,0x00,0x00,0xfe,0x3f,0x01,0x02,0x00,0x80,0xde,
 0xfe,0x05,0x00,0x00,0x00,0xff,0xff,0x13,0x00,0x00,0x80,0xef,0xf7,0x0f,0x00,
 0x00,0xc0,0x7d,0xff,0x4f,0x02,0x00,0xe1,0xff,0xff,0x3f,0x00,0x00,0xf0,0xdf,
 0xff,0x3f,0x00,0x00,0x60,0xff,0xfd,0x3f,0x00,0x00,0xf0,0x7f,0xc7,0x3f,0x02,
 0x00,0xf0,0xdf,0x54,0x3f,0x00,0x40,0xf8,0xab,0xa2,0x3f,0x00,0x00,0xe0,0x0b,
 0xaa,0x3e,0x02,0x00,0xe0,0x20,0x50,0x0f,0x00,0x00,0xc0,0x0b,0x25,0x1f,0x00,
 0x00,0x60,0x54,0xc8,0x8f,0x04,0x00,0xc0,0xeb,0xaa,0x06,0x00,0x40,0x40,0x5c,
 0xfe,0x03,0x00,0x00,0x20,0xb5,0x5c,0x43,0x00,0x00,0x80,0x48,0xf2,0x03,0x02,
 0x00,0x40,0x02,0xac,0x12,0x00,0x40,0x80,0x50,0xa2,0x81,0x04,0x00,0x44,0x85,
 0x4c,0x03,0x00,0x00,0x00,0x51,0xa4,0x11,0x00,0x10,0x80,0x94,0x4e,0x41,0x04,
 0x00,0x80,0x4a,0xd7,0x00,0x00,0x40,0x80,0xb2,0x6e,0x10,0x04,0x00,0x10,0xa5,
 0x55,0x42,0x00,0x08,0x81,0xaa,0x6e,0xb5,0x04,0x00,0x00,0x05,0xf9,0xad,0x08,
 0x10,0x80,0x5a,0x6a,0xdb,0x03,0x00,0x64,0x56,0xfd,0x6d,0x05,0x80,0x80,0xf8,
 0xff,0xab,0x07,0x10,0x68,0xd5,0xff,0x54,0x0a,0x00,0xc2,0xe2,0xff,0x09,0x05,
 0x90,0x94,0xd5,0xfd,0x52,0x02,0x40,0xc2,0xaf,0xff,0x49,0x09,0x90,0xaa,0x5f,
 0xff,0x96,0x04,0x48,0x81,0xff,0xff,0x2d,0x05,0x90,0xaa,0xff,0xff,0xaa,0x08,
 0xa0,0x54,0xff,0xff,0x2b,0x05,0x50,0x69,0xff,0x5f,0x4b,0x02,0x28,0xad,0xfa,
 0x7f,0x25,0x09};
