/* XPM */
static char * face_xpm[] = {
/* width height ncolors chars_per_pixel */
"48 48 4 1",
/* colors */
" 	s None	c None",
".	c black",
"X	c wheat",
"o	c tan",
/* pixels */
"                               ....             ",
"                              ..XX.             ",
"                              .XXX.             ",
"                             ..XX..             ",
"                             .XX..              ",
"                            ..XX.               ",
"                            .XX..               ",
"                           ..X..                ",
"                           .XX.                 ",
"                           .X..                 ",
"                          .XX.                  ",
"             ....X.X.X.X...X..                  ",
"         .....XXXXXXXXXX..XX..                  ",
"       .X....XXXXXXXXXXX.XX....X.               ",
"      ..X......................X..              ",
"      .XXX...................XXXX.              ",
"      ..XX.X.X...........XXXXXXX..              ",
"      ..XX.X.XXXX.XXXXXXXXXXXXX..               ",
"       ......XXXX.XXXXXXXXXX.....               ",
"       .......XXX.XXXX.X.X..XXXX.               ",
"       .X.....XXXX.XXXXXXXXXXXXX.               ",
"      ........XXXX.XXXXXXXXXXXXX..              ",
"      .X...X..XXXX.XXXXXXXXXXXXXX.              ",
"      ....XX..XXXXXXXXXXXXXXXXXXX.              ",
"     ..XX.XX..XXXXXXXXXXXXXXXXXXX..             ",
"     .X.XXXX.XXXXXXXXXXXXXXXXXXXXX.....         ",
"     ..XX.XX.XXXXXXXXXXXXXXXXXXXXX..XX....      ",
"    ..X.XXXXXXXXXXXXXXXXXXXXXXXXXX..XX.XXX..    ",
"    ..XXX.XXXXXXXXXXXXX..XXXXXXXXXX...X.XXXX... ",
"    .XX.XXXXXXXXXXXXXX.o.XXXXXXXXXX.X.XXXXXXXX..",
"    ..XXX.XXXXXXXXXX..oo.XXXXXXXXXX.XXX.XXXXXXX.",
"   ..XX.XXXXXXXXXX..ooo.XXXXXXXXXXX...XXXXXXXX..",
"   .X.XXX.XXXXXXX.oooo.........XXXXX.XX.XXXX..X.",
"   ..XX.XXXXXX...oooo.ooooooooo.XXXX..XXXX...X. ",
"  ..X.XXX.XXXXoooooo.oo.........XXXX......XXX.  ",
"  ..XXX.XXXXXXoooooooooooooooooo.XXXX.XXXX...   ",
"  .XX.XXXXXXXXooooooooo.........XXXXX.....      ",
"  ..XXX.XXXXXXooooooooooooooooo.XXXXX.          ",
" ..XX.XXXXXXXX...ooooo.........XXXXXX..         ",
" .X.XXX.XXXXXXXXX.oooooooooo.XXXXXXXXX.         ",
" ..XX.XXXXXXXXXXXX..........XXXXXXXXXX.         ",
" .X.XXX.XXXXXXXXXXXXXXXXXXXXXXXXXXXXXX.         ",
" ..XX.XXXXXXXXXXXXXXXXXXXXXXXXXXXXXXX..         ",
"  ..XXX.XXXXXXXXXXXXXXXXXXXXXXXXXXXX..          ",
"   ...XXXXXXXXXXXXXXXXXXXXXXXXXXXX...           ",
"     ...XXXXXXXXXXXXXXXXXXXXXXXX...             ",
"       .....XXXXXXXXXXXXXXXX.....               ",
"           ..................                   "};
