/* XPM */
static char *noname_xpm[] = {
/* width height ncolors chars_per_pixel */
"48 48 17 1",
/* colors */
"` c black",
"a c grey33",
"b c grey47",
"c c grey40",
"d c grey87",
"e c grey80",
"f c grey73",
"g c grey27",
"h c grey20",
"i c grey13",
"j c grey67",
"k c grey60",
"l c grey53",
"m c white",
"n c grey93",
"o c grey7",
"p s None c None",
/* pixels */
"pppddeeeeeefkaoooooiiihgiiihaabkjjfjffffeeeepppp",
"pppdeddeeefkgoo`````ooiggihghhgclkjfffffeeeepppp",
"pppddeeeefjaoo`````ooooiihhhhhhhgalkfffffeeepppp",
"pppddddjbagoooo``````ooiiiiiiihaghgckffffeeepppp",
"pppddefcghooo```oooooo`oooooiiihggggbjjffefepppp",
"pppddfbghioo````igaahoioooooooiiihhgaalkfffepppp",
"pppdjchhiooo``oiclllcgiiiiooooooohhhgggaljefpppp",
"pppebbgho`oo``hcljjjkbahiiiooo``oihihiggaljjpppp",
"pppkbliiooo``ialjfeefjlcgiiiooooooiihhggacljpppp",
"pppbbcoo``o``glkffddeejkbgiiiioooooiiiihhagcpppp",
"pppbccooo```oaljjeddddefjkchooiiooooiiiohaaapppp",
"pppbcioo``o`ocljjeddddedeekaiiooiiooiiiohacapppp",
"pppbghooo```hckjffddnddddeebgioioiiioiiiigacpppp",
"pppcgio`ooo`hbkllfeeddeeeeelaioiiohiooiiihgapppp",
"pppaho`oo```acggggckjjfjkkkcghhiiooioooihhggpppp",
"pppgiioooohiagghhhhgbkkbaghhhhiiooiooooihghhpppp",
"ppphiooo`oihacgiioigllbaghihiiiiioooiooiiiiipppp",
"ppphioooo`ihccghiohgakcghiioiihiioiooiooooiipppp",
"pppho`````ialklbaagakdbagghhhhhhhoooo`oioiihpppp",
"pppio`o```iclkfklbccfdkaacccccaghioooooooioipppp",
"pppioo````obljffjlbledfbbllkklbagoiooooooooipppp",
"pppiooo`o`obbjfjkbajdeflclkkjfkbgooooooooooopppp",
"pppioo`o``ocbbbcagcfddfkacblkjkbgo``oooooooopppp",
"pppioo`````accbaggbbjjllagcbbllbao```ooooooopppp",
"pppoo``o```aaaghgbcgaagccggcbbbcg```oooooioopppp",
"pppi`o````oacaggcbbbbcbbbcggaccch``ooooooooipppp",
"pppo```````abbcahgacbbbcbcaaaacci``ooooooooopppp",
"pppo`o`````hcbbbcalkkllkciabbccco```oooooooopppp",
"pppo``o````occbllbbjfeflbllllbbg```oo`oooooipppp",
"pppoo`o`````gcblllbllllllkklcbao``````oooooipppp",
"pppo````````oacllllbcbblkklcbcgo```o`o```ooopppp",
"ppp`o`oo`````hcbkkklbbllkkbbcaho``ooo`o`o``opppp",
"ppp``````````ogcljjjjjkjjlbcaago```o`ooooo`opppp",
"pppoo`o```````ogbjjfjjfjkbcaacai`o``oo`ooooopppp",
"pppo``````o````igbkkkkklbaaacccho`ooo`oo`ooopppp",
"pppoo`o````````ohhgacccagggabccgooiiooooooiipppp",
"pppoo`o```````ooihhiiihhhgaccccgihhhihiiigacpppp",
"pppooooo`o``o```ihhhhihhgaaacbchhggghhakednnpppp",
"pppoo`o```o````ooihhhhggaaaccbaghgagajeeddnmpppp",
"pppoooo`o`oo`o``ohhhhggggaaaccahgaabeefedmnmpppp",
"pppooooo`o`oo`o`oohghggaaaacaaggackejfendmnmpppp",
"pppooooo`ooooo``oiihgggaaaaagggccjffjednnmnmpppp",
"pppooioooooooooooiihhggggaggggacjfjleddmmmmmpppp",
"pppioooo`oooooooiiiihhhggggggcakfjlfdnmnmmmnpppp",
"pppoooo`ooo`ooooiihihhhhgggacccjklfdnnmmmmmmpppp",
"pppooooooooooioiihhhhghggacbbckkkendnmnmmmnmpppp",
"pppioiooiiiooioiihgggaaaacblbkljddnnnmnmmmmmpppp",
"pppoooooiiiooooiihhghgaaacccblljjfjffeeeefefpppp"
};
