#define noname_width 48
#define noname_height 48
static char noname_bits[] = {
 0x00,0x00,0x00,0x00,0x00,0x00,0x00,0x00,0x00,0x00,0x00,0x00,0x00,0x00,0x20,
 0x00,0x00,0x00,0x00,0x00,0x8a,0x3d,0x00,0x00,0x00,0x00,0xeb,0x3f,0x00,0x00,
 0x00,0x80,0xbe,0xf6,0x00,0x00,0x00,0xc0,0xfb,0xff,0x00,0x00,0x00,0x40,0xff,
 0xdf,0x01,0x00,0x00,0xe0,0x5f,0xfd,0x03,0x00,0x00,0xe0,0x7f,0xf5,0x07,0x00,
 0x00,0xf0,0x97,0xe8,0x07,0x00,0x00,0xf8,0x2f,0xe0,0x0f,0x00,0x00,0xf8,0x01,
 0x80,0x0f,0x00,0x00,0xf0,0x05,0x00,0x0e,0x00,0x00,0x78,0x11,0x08,0x0f,0x00,
 0x00,0xf8,0x7e,0x7c,0x0e,0x00,0x00,0xf8,0x5a,0x54,0x07,0x00,0x00,0xf0,0x6e,
 0x38,0x0e,0x00,0x00,0x78,0xab,0x54,0x06,0x00,0x00,0xb0,0x54,0x04,0x02,0x00,
 0x00,0x60,0x41,0x00,0x00,0x00,0x00,0xa8,0x90,0x00,0x02,0x00,0x00,0x50,0x21,
 0x00,0x00,0x00,0x00,0x60,0xd5,0x02,0x02,0x00,0x00,0xd0,0x6a,0x01,0x00,0x00,
 0x00,0x50,0xa5,0x0a,0x01,0x00,0x00,0xe0,0x5a,0x00,0x01,0x00,0x00,0xc0,0xb6,
 0xbb,0x02,0x00,0x00,0x40,0x5b,0x04,0x03,0x00,0x00,0xc0,0x56,0x51,0x07,0x00,
 0x00,0x80,0xab,0x88,0x06,0x00,0x00,0x80,0x1d,0x52,0x0f,0x00,0x00,0x00,0xb7,
 0x24,0x02,0x00,0x00,0x00,0x7d,0x55,0x01,0x00,0x00,0x00,0xef,0x2b,0x02,0x00,
 0x00,0x00,0xfa,0x5e,0x05,0x00,0x00,0x00,0xff,0x25,0x02,0x00,0x00,0x00,0xac,
 0xaa,0x00,0x00,0x00,0x00,0xbe,0x55,0x00,0x00,0x00,0x00,0xe8,0x2a,0x01,0x00,
 0x00,0x00,0xbc,0x56,0x00,0x00,0x00,0x00,0xec,0x2a,0x00,0x00,0x00,0x00,0xbc,
 0x15,0x00,0x00,0x00,0x00,0xec,0x16,0x00,0x00,0x00,0x00,0xf4,0x0b,0x00,0x00,
 0x00,0x00,0xb8,0x07,0x00,0x00,0x00,0x00,0xd0,0x02,0x00,0x00,0x00,0x00,0xf4,
 0x81,0x00,0x00};
