#define noname_width 48
#define noname_height 48
static char noname_bits[] = {
 0x48,0x25,0x95,0xaa,0x4a,0x0d,0xa8,0xaa,0x6a,0xa5,0x6a,0x05,0x50,0xaa,0xda,
 0xad,0x52,0x05,0x50,0xa9,0xfe,0x7b,0xad,0x0a,0xa8,0xaa,0xff,0xff,0x52,0x05,
 0x28,0xd5,0xff,0xdf,0xb7,0x0a,0x50,0xe9,0xd7,0x7f,0x55,0x05,0x28,0xd5,0x0a,
 0xfd,0xaf,0x0a,0x50,0x75,0x04,0xf4,0x57,0x05,0xa8,0x5c,0x21,0xa0,0xbe,0x0a,
 0x90,0x3e,0x04,0x40,0x5f,0x05,0x50,0x5b,0x01,0x10,0xba,0x0a,0xa8,0x2e,0x08,
 0x40,0x7c,0x05,0xa8,0xae,0x02,0x80,0xba,0x0a,0x90,0x5e,0x10,0x00,0x7c,0x05,
 0x50,0x2f,0x01,0x20,0xfd,0x0a,0x28,0xaf,0x04,0x81,0x7c,0x05,0xa8,0x5e,0x21,
 0x54,0xf8,0x0a,0x50,0xbf,0x8a,0xba,0x7d,0x05,0x90,0xde,0x57,0xda,0xf8,0x0a,
 0xa8,0x6e,0xad,0x6e,0x75,0x02,0xa8,0xfe,0x3f,0x5a,0xb9,0x0a,0x90,0xee,0x53,
 0x49,0x56,0x05,0xa8,0xbc,0x2e,0x76,0xc8,0x0a,0x50,0xed,0x9d,0x48,0x25,0x09,
 0x28,0x5d,0x2b,0x80,0x11,0x05,0x50,0xad,0x18,0x01,0xa5,0x0a,0xa8,0x7e,0x08,
 0x84,0x10,0x05,0x50,0x15,0x12,0x51,0x95,0x0a,0x58,0xde,0x79,0x85,0x24,0x05,
 0x50,0x6d,0xbd,0x22,0x49,0x05,0x50,0xfd,0x7d,0x49,0xb4,0x0a,0xa8,0x76,0xfd,
 0x2b,0x49,0x05,0x50,0xad,0xbd,0x34,0xaa,0x0a,0xa8,0xf4,0x56,0x49,0xa9,0x04,
 0xb0,0x6a,0x55,0x42,0x5a,0x0b,0xa8,0xea,0xad,0x54,0x55,0x0a,0x50,0x55,0x53,
 0xa2,0xae,0x05,0x68,0xd5,0xaf,0xaa,0x52,0x0a,0xa8,0xea,0xb5,0x55,0x57,0x0b,
 0xd0,0x52,0x6f,0xd5,0x55,0x05,0x58,0xed,0xdd,0xb6,0xaa,0x0a,0xd0,0xd2,0xf7,
 0xff,0xaa,0x0a,0x50,0xd5,0xbe,0x55,0x55,0x0b,0xa8,0xf5,0xff,0xbf,0x3a,0x05,
 0x68,0x55,0xef,0xae,0x52,0x0a,0xa8,0xea,0xff,0xaf,0x74,0x08,0x50,0x74,0xbb,
 0xab,0x4a,0x00};
