/* XPM */
static char *noname_xpm[] = {
/* width height ncolors chars_per_pixel */
"48 48 14 1",
/* colors */
"` c grey33",
"a c grey47",
"b c grey40",
"c c grey87",
"d c grey80",
"e c grey73",
"f c grey27",
"g c grey20",
"h c grey67",
"i c grey60",
"j c grey53",
"k c white",
"l c grey93",
"m s None c None",
/* pixels */
"mmmmmmmmkkkkkkkkkkkkkkkkkkkkkkkkkkkkkkkkmmmmmmmm",
"mmmmmmmmkkkkkkkkkkkkkkkkkllkkkkkkkkkkkkkmmmmmmmm",
"mmmmmmmmkkkkkkkkklclkkkeaaaickkkkkkkkkkkmmmmmmmm",
"mmmmmmmmkkkkkkchabbbjha``f`bbaclkkkkkkkkmmmmmmmm",
"mmmmmmmmkkkkkh`ffffff``fff`baaabickkkkkkmmmmmmmm",
"mmmmmmmmkkkli`ffggfffffffff``bab`bckkkkkmmmmmmmm",
"mmmmmmmmkkke`fggggffgfffffffff`bbf`ckkkkmmmmmmmm",
"mmmmmmmmkkkaffggggggggggffffffff``fbckkkmmmmmmmm",
"mmmmmmmmkkc`fgggggfffffgggggfff```ffakkkmmmmmmmm",
"mmmmmmmmkkdbfggggfff`bbffggggfff`bfffekkmmmmmmmm",
"mmmmmmmmkke`fgggf`jihhhia`ffffff``fffbkkmmmmmmmm",
"mmmmmmmmkkhfgggfjheedddddeja``ff`f`fffekmmmmmmmm",
"mmmmmmmmkkjfggfbheddccccccchib```ffff`ekmmmmmmmm",
"mmmmmmmmkkbffgfaheddccccccllddibbb``ffckmmmmmmmm",
"mmmmmmmmkkbffffjheeddddccclllcddei`ffbkkmmmmmmmm",
"mmmmmmmmkkafgffjeddddcdcccclllllce`ffikkmmmmmmmm",
"mmmmmmmmkkigggfaedheddccccccllcechfffikkmmmmmmmm",
"mmmmmmmmkkcfggfjea`bbjhdcccceaajiefffikkmmmmmmmm",
"mmmmmmmmkkkjfffhiiiibbaeeeejbjhdde`f`lkkmmmmmmmm",
"mmmmmmmmkkkkhfbhaab``bbiiiijaaihdd`fhkkkmmmmmmmm",
"mmmmmmmmkkkklbbdhabfff`ajjjbff`bii`hkkkkmmmmmmmm",
"mmmmmmmmkkkkdjjcdhhj`f`jhhib`bedccidkkkkmmmmmmmm",
"mmmmmmmmkkkkeeecdeeabbiihehiajdclldikkkkmmmmmmmm",
"mmmmmmmmkkkklhjcdeeijihiihedhhclclcekkkkmmmmmmmm",
"mmmmmmmmkkkkkhjccdeiaajeeeehihddllhlkkkkmmmmmmmm",
"mmmmmmmmkkkkkceddccejaiajiiehdlllcdkkkkkmmmmmmmm",
"mmmmmmmmkkkkklcddddeajjbbaaeedlllclkkkkkmmmmmmmm",
"mmmmmmmmkkkkkkcdddddehijajiedcllcckkkkkkmmmmmmmm",
"mmmmmmmmkkkkkkkcdddhab`````biclcclkkkkkkmmmmmmmm",
"mmmmmmmmkkkkkkkkdeejfff`bb```jccckkkkkkkmmmmmmmm",
"mmmmmmmmkkkkkkkkdeehaaaaajjabicclkkkkkkkmmmmmmmm",
"mmmmmmmmkkkkkkkkcehijhijjihehecclkkkkkkkmmmmmmmm",
"mmmmmmmmkkkkkkkkchhhhhhiihhdddcdkkkkkkkkmmmmmmmm",
"mmmmmmmmkkkkkkkklhhheeeeeddccdddkkkkkkkkmmmmmmmm",
"mmmmmmmmkkkkkkkklhiiieeddddddeeckkkkkkkkmmmmmmmm",
"mmmmmmmmkkkkkkkklehjajjhhhhiiieckkkkkkkkmmmmmmmm",
"mmmmmmmmkkkkkkkklehjab`bbbbaihdckkkkkkkkmmmmmmmm",
"mmmmmmmmkkkkkkkkldehjb````bjiedckkkkkkkkmmmmmmmm",
"mmmmmmmmkkkkkkkkcdehiabbbaaihddckkkkkkkkmmmmmmmm",
"mmmmmmmmkkkkkkclddeeiiaaaajieddckkkkkkkkmmmmmmmm",
"mmmmmmmmklldja`dddeehhijjiheddddb`ckkkkkmmmmmmmm",
"mmmmmmmmbfgggf`hddeeehhhhhheddddifaiclkkmmmmmmmm",
"mmmmmmmmggggggfbdddeeeeeeeedddde`fffffjcmmmmmmmm",
"mmmmmmmmggggggggadddddeeeeeddhafgffggfffmmmmmmmm",
"mmmmmmmmgggggggggfelcddddddi`fgggggggggfmmmmmmmm",
"mmmmmmmmggggggggggfilkkkkle`ggggggggggggmmmmmmmm",
"mmmmmmmmggggggggggggbcklchfgggggggggggggmmmmmmmm",
"mmmmmmmmggggggggggggg`icd`ggggggggggggggmmmmmmmm"
};
