/* XPM */
static char *noname_xpm[] = {
/* width height ncolors chars_per_pixel */
"48 48 17 1",
/* colors */
"` c black",
"a c grey33",
"b c grey47",
"c c grey40",
"d c grey87",
"e c grey80",
"f c grey73",
"g c grey27",
"h c grey20",
"i c grey13",
"j c grey67",
"k c grey60",
"l c grey53",
"m c white",
"n c grey93",
"o c grey7",
"p s None c None",
/* pixels */
"ppppppjkkkkkkjkjkkjjkjklblkkkkkkjkkkkkjjkkpppppp",
"ppppppjkkkkkkkjjkjjjkkklblkjkkkkkjkkkkjjjjpppppp",
"ppppppjkklkkkjkkkjjjkkklblkjkkkkjjkjkjjjkjpppppp",
"ppppppjkkkkkkkjkjkjjjjkllkjjjkkjjjjkkjjjjjpppppp",
"ppppppjkklkkjjjkkjjjkjkkljjfjjkkjjkjjjjjjjpppppp",
"ppppppjkkkkkkkjjkjfjjjkklkjjejkkjjkjkjjjjkpppppp",
"ppppppjkklkkjjjkjjjjjkjkfnmnndllkjjjjjjfjkpppppp",
"ppppppjklkkkkkjjkjfjklklknmdklcccbljjjfjjkpppppp",
"ppppppkkklkkjjkkjjjlkcgabfefjjlcklcbkjjjjkpppppp",
"ppppppjklkkkkkjkkbbkcggajjkbaahggaaackkjkkpppppp",
"ppppppkkklkkjkjjkjklghiohhhgghooihhgglkkjlpppppp",
"ppppppkkklkkkkkllcahhhiiiiiiiio`ohghggbkklpppppp",
"ppppppkklkkkkllcghigcclbllcahioo`oihgigbklpppppp",
"ppppppkklllkkkbhihgljeddnddflaooo`o`oggabbpppppp",
"ppppppklkkklllchihcjedmmmnnnfaiooi``oihgalpppppp",
"ppppppkkkllkklgoihlfedmmmmmnfcio`ioiiioihbpppppp",
"ppppppklllkllahoohkeenmmmmmnfaio`o`oiioohapppppp",
"ppppppkkllllaghiigjeedmmmmmndbiiooo`o``oigpppppp",
"ppppppkllllbghiooajddnmmmmmmdjhihoo`oooiohpppppp",
"ppppppkkklbahio`oajednmmmmmmmebiiho``o`ooipppppp",
"ppppppklllbghi``ockjfdnmmnmnndbhioi````oi`pppppp",
"ppppppkklbahio``igalecbjeeefmdhhhioo```oi`pppppp",
"ppppppkklbghi```igcfmagcljkclcgghiio````o`pppppp",
"ppppppkllbghi```haagghgcbjkbccaiioio``o```pppppp",
"ppppppkklbhio```abccblkkbdjckjkkcho``ooo``pppppp",
"ppppppklcggi````ckkjfjfjlejbjfjklao```oo``pppppp",
"ppppppklgggi````cjjfeeekjejlkfffkao`````i`pppppp",
"ppppppklaaho````cjjjeejkjeflkfjjjkh`oo``iopppppp",
"pppppplbaago````akfedejkkejllffefkaiiio`o`pppppp",
"ppppppkbagho````gbkfffkbclbabjfjjkaiioi```pppppp",
"ppppppllbagi````hcbklllcaggacbllklchioo`oopppppp",
"ppppppkbbaai````occbacaaaccccccabbcgoo``o`pppppp",
"pppppplbbcco`````gcbcaaacbccaaccbbbgo`````pppppp",
"pppppplbbbai`````icbbbcbblllbblllbcg`ooo``pppppp",
"ppppppllbbbg``````gccblllblklllbbcahooo```pppppp",
"pppppplbbbbg``````ogaacbcgaclbccbcgiiio```pppppp",
"ppppppllbbbg```````ighaccgaccccaaahiihiohipppppp",
"pppppplbbbcgo```````iiacacccccghhiiiggalbgpppppp",
"pppppplbbbbch````````ohgaaaacgiiiihgclfjjlpppppp",
"pppppplbbbbcooo```````oigghghhooohgcfeeddepppppp",
"ppppppbbbccioo```````ooooiiiiooihgcfeenddepppppp",
"ppppppbbcchiho`````oo`iooooiooiigcffenddddpppppp",
"pppppplbbcggio````oh``hhiihihhhalffennnnndpppppp",
"ppppppbbcbccho````o```ighhgghaljeeednnmndnpppppp",
"ppppppbbccbcgho```````iabcaclkfeeeenmndndnpppppp",
"ppppppbcbcccahiho````ohclkjjeeeeeenmndnnnnpppppp",
"ppppppbbcccgghho`````ogckjfffeeeedddnnmndnpppppp",
"ppppppcaaagghhgioo````gccblkkjjjjjffeffffepppppp"
};
