/* XPM */
static char *noname_xpm[] = {
/* width height ncolors chars_per_pixel */
"48 48 17 1",
/* colors */
"` c black",
"a c grey33",
"b c grey47",
"c c grey40",
"d c grey87",
"e c grey80",
"f c grey73",
"g c grey27",
"h c grey20",
"i c grey13",
"j c grey67",
"k c grey60",
"l c grey53",
"m c white",
"n c grey93",
"o c grey7",
"p s None c None",
/* pixels */
"ppppppmmmmmmmmmmmmmmmmnmnmmmmmmmmmmmmmmmmmpppppp",
"ppppppmmmmmmmmmmmdmnnekfdmmmmmmmmmmmmmmmmmpppppp",
"ppppppmmmmmmmmmmdjnnejbkefdddmnmnmmmmmmmmmpppppp",
"ppppppmmmmmmmmmmdbjfjkllbbllkeedddmmmmmmmmpppppp",
"ppppppmmmmmmmmmdblccccaaccccblkjfkknmmmmmmpppppp",
"ppppppmmmmmmmmmbbbaaaaggggaagckfklbjmmmmmmpppppp",
"ppppppmmmmmmmmkaccaaggghggghgcklkbbkdmmmmmpppppp",
"ppppppmmmmmmmeaggaaghhghhhghhgcbbcbkjjnmmmpppppp",
"ppppppmmmmmmejaghghhhhhhhiihihgaggablbdmmmpppppp",
"ppppppmmmmmekcghhhihhghhihihhhhggggacjnmnmpppppp",
"ppppppmmmmnjcghiiiihhhhhhggghghhhggacjdndmpppppp",
"ppppppmmmndlgahiiiihiihhghhhhhghhhhggcljdmpppppp",
"ppppppmmnnjhhhhiiiiihiiiihhhhghhhhhhhacjnmpppppp",
"ppppppmmejlhihiiiiiihhihhhgagghhhhihhacjdmpppppp",
"ppppppmnjbbiihhiiihhhhhhhgacccaghiihhgcbjdpppppp",
"ppppppmdkgaiihiiiiihhgghgcbllbcaghihggabjnpppppp",
"ppppppmefahiiiiihihhacagacbblllcghihhgabjdpppppp",
"ppppppmfkahhiiiiiihgccaacclcljjlghhihhabjdpppppp",
"ppppppmnbghiiiiiihhgggaagbckeeejgiihhhgaldpppppp",
"ppppppmebhhiiiiiihihhggacccalkkfciiihhhabepppppp",
"ppppppjbghoiiooihgaghgbklbgbjeeejiiihhggakpppppp",
"ppppppcghiiioiiiaccaacjndlbcckfedhioihhgcbpppppp",
"ppppppagioioioohcaggacfmmkkaacjddaoiihhhacpppppp",
"ppppppghioooooiakbcblkemmnjkkfnmdaoiihhhgapppppp",
"ppppppghiiooioobjefjfeemmmmdnmmmfgooihhhgapppppp",
"ppppppghiiiiiiobjnmmmddmmmmmmmmmjioiihhhgapppppp",
"pppppphhiiiiihobjdmneffeenjnmmmdkioohhhhgapppppp",
"pppppphhiiiioiockedjllcbbfkkdnnelo`oiihhhgpppppp",
"pppppphhiiioioogljkbkefjdmnlkfefboooohihihpppppp",
"ppppppiioiooooohllbcjjfffedlbkjfco`ooihihhpppppp",
"ppppppiiooooo``ibbbaaakfekcclfffc``oooiihhpppppp",
"ppppppiioooo```oblkkklendeededefg```ooiiihpppppp",
"ppppppii````````abkjjlblkfdmdefkh``ooiioihpppppp",
"ppppppoooooo````icljffeednmndfjci``ooiihhhpppppp",
"ppppppiiooo`o````gckjennmmndjlchiiiihhihhhpppppp",
"ppppppiiiioo``````gclkkjfffkagihiooiooohhipppppp",
"ppppppihhioo`````oihgacaacchioooiiiiiihhiopppppp",
"ppppppiioiooo``````ohiiiiiioooooohio`iooiopppppp",
"ppppppooiiooo``````oiiiioiooooo`oiioo`oohopppppp",
"ppppppiooiiiooo`````ihiioo``oooo`oiiooooihpppppp",
"ppppppioooiooii`o```ohgghhioo`o`ooohooooiipppppp",
"ppppppooo`o``hoo````oigaaghoo````ooioooiigpppppp",
"ppppppiooo``oiooo````ihacahiooooiiiiioiaccpppppp",
"ppppppoioo```ooo``o``ohaaahhioooiiiioogcccpppppp",
"ppppppoooi``oo`o`o```ihacghhi`oiihii`haccbpppppp",
"pppppp`oiio`ooo`ooo``igabghhhooihhiooaccccpppppp",
"ppppppoooiioooooo```oiabbhhhhioiiiioiaccbcpppppp",
"pppppp```````````````ihahiiiiooooo``ihhgggpppppp"
};
