#define face_width 48
#define face_height 48
static char face_bits[] = {
   0x00, 0x00, 0x00, 0x40, 0xaa, 0x00, 0x00, 0x00, 0x00, 0xb0, 0xd6, 0x0a,
   0x00, 0x00, 0x00, 0x54, 0xbb, 0x1b, 0x00, 0x00, 0x00, 0xd5, 0x56, 0x6d,
   0x00, 0x00, 0x80, 0xba, 0xfb, 0xf7, 0x00, 0x00, 0xc0, 0xef, 0x5e, 0xad,
   0x00, 0x00, 0xa0, 0xfe, 0xfb, 0xbf, 0x00, 0x00, 0xe8, 0xbb, 0x7f, 0xf7,
   0x00, 0x00, 0xb8, 0xef, 0xf6, 0xdf, 0x00, 0x00, 0xec, 0x15, 0xdb, 0xf6,
   0x00, 0x00, 0x7c, 0x05, 0x00, 0xbf, 0x00, 0x00, 0xda, 0x02, 0x00, 0xfc,
   0x00, 0x00, 0x7e, 0x01, 0x00, 0xf8, 0x00, 0x00, 0x7f, 0x09, 0x00, 0xe8,
   0x00, 0x80, 0xae, 0x04, 0x00, 0xf0, 0x00, 0x00, 0x5f, 0x01, 0x00, 0xe8,
   0x00, 0x00, 0xad, 0x00, 0x00, 0x70, 0x00, 0x70, 0x7f, 0x00, 0x00, 0xe8,
   0x00, 0xfc, 0x57, 0x07, 0x00, 0xf0, 0xff, 0xef, 0xad, 0x1d, 0x14, 0xe8,
   0x7d, 0x7f, 0xdb, 0x26, 0x7a, 0xb5, 0xef, 0xff, 0x77, 0x2d, 0xaa, 0xc6,
   0x3f, 0xbf, 0x4b, 0x15, 0xd4, 0xe9, 0x2b, 0xfd, 0xab, 0x0a, 0x64, 0x8b,
   0x1f, 0xdf, 0x03, 0x10, 0x20, 0xa1, 0x5f, 0xf5, 0x0b, 0x08, 0x10, 0x40,
   0x07, 0x0a, 0x02, 0x04, 0x00, 0x20, 0x11, 0xae, 0x04, 0x0b, 0x00, 0x50,
   0xe8, 0x1d, 0xab, 0x02, 0x04, 0xa0, 0x80, 0x7f, 0xd6, 0x1d, 0x18, 0x40,
   0x02, 0xaa, 0x7b, 0xf7, 0x53, 0x34, 0x12, 0xbc, 0xfe, 0xff, 0xb5, 0x4a,
   0x02, 0xb4, 0xfb, 0xdf, 0xff, 0x5a, 0xd0, 0x7f, 0xff, 0xed, 0xff, 0x2b,
   0x06, 0x78, 0xbd, 0x01, 0x7e, 0x5d, 0x02, 0x58, 0xf7, 0x00, 0xf8, 0x36,
   0xfa, 0x7f, 0xbe, 0x00, 0xec, 0x1b, 0xfc, 0x6f, 0xbd, 0x05, 0x72, 0x3d,
   0xac, 0x3e, 0x77, 0x11, 0xf4, 0x0f, 0xd0, 0x5f, 0xff, 0x5f, 0xe9, 0x36,
   0xac, 0xaa, 0x7f, 0xff, 0xff, 0x0f, 0x20, 0xf9, 0xfd, 0xfb, 0x7a, 0x37,
   0x84, 0xfc, 0x7f, 0x5f, 0xff, 0x3d, 0x40, 0xff, 0xef, 0xf7, 0xfd, 0xed,
   0xe8, 0xff, 0xff, 0xff, 0x7f, 0xfb, 0xfa, 0xff, 0xff, 0xff, 0xff, 0xfb,
   0xff, 0xff, 0xff, 0xff, 0x7f, 0xfd, 0xfe, 0xff, 0xff, 0xff, 0xbf, 0xfb};
