#define face_width 48
#define face_height 48
static unsigned char face_bits[] = {
 0x00,0x00,0x00,0x00,0x00,0x00,0x00,0x00,0x00,0x00,0x00,0x00,0x00,0x00,0xd0,
 0x04,0x00,0x00,0x00,0x00,0xfe,0x3f,0x00,0x00,0x00,0x80,0xff,0x5f,0x00,0x00,
 0x00,0xc0,0xff,0xff,0x01,0x00,0x00,0xe0,0xff,0xff,0x03,0x00,0x00,0xf0,0xff,
 0xff,0x07,0x00,0x00,0xf0,0xff,0xff,0x0f,0x00,0x00,0xf8,0xff,0xff,0x0f,0x00,
 0x00,0xf8,0xff,0xff,0x1f,0x00,0x00,0xfc,0xff,0xff,0x1f,0x00,0x00,0xf8,0xff,
 0xff,0x3f,0x00,0x00,0xfc,0xff,0xff,0x3f,0x00,0x00,0xfc,0xff,0xff,0x3f,0x00,
 0x00,0xfc,0xff,0xff,0x3f,0x00,0x00,0xfc,0xff,0xff,0x3f,0x00,0x00,0xfc,0x0f,
 0x22,0x3f,0x00,0x00,0xfc,0x13,0xf8,0x3e,0x00,0x00,0xfc,0x07,0xde,0x1e,0x00,
 0x00,0xf8,0x7f,0x57,0x0d,0x00,0x00,0x78,0x5d,0x7c,0x05,0x00,0x00,0x70,0x35,
 0x15,0x00,0x00,0x00,0x60,0x5a,0x0a,0x08,0x00,0x00,0x00,0x28,0x08,0x00,0x00,
 0x00,0x20,0x14,0x35,0x04,0x00,0x00,0x00,0x18,0xb4,0x00,0x00,0x00,0x00,0xec,
 0xef,0x06,0x00,0x00,0x80,0xfe,0xff,0x01,0x00,0x00,0x00,0xfe,0xed,0x06,0x00,
 0x00,0x80,0x16,0x30,0x02,0x00,0x00,0x00,0x69,0x1d,0x05,0x00,0x00,0x80,0x12,
 0xc5,0x02,0x00,0x00,0x00,0x4d,0x53,0x03,0x00,0x00,0x00,0x95,0xaa,0x00,0x00,
 0x00,0x00,0x6b,0xa5,0x03,0x00,0x00,0x00,0xab,0x76,0x05,0x00,0x00,0x80,0xbf,
 0xdd,0x06,0x00,0x00,0x80,0xf6,0xbf,0x07,0x00,0x00,0x4c,0xae,0x56,0x07,0x00,
 0x00,0xcf,0x7d,0xd5,0x09,0x00,0x00,0xdd,0xf1,0xff,0x3d,0x00,0x00,0xdf,0xe5,
 0xfa,0xee,0x00,0x00,0x7f,0xc5,0x77,0xef,0x00,0x00,0xff,0x84,0x9f,0xff,0x00,
 0x00,0xfd,0x09,0x0f,0xef,0x00,0x00,0xff,0x1b,0x47,0xbf,0x00,0x00,0xff,0x0f,
 0x8a,0xef,0x00};
