/* XPM */
static char *noname_xpm[] = {
/* width height ncolors chars_per_pixel */
"48 48 17 1",
/* colors */
"` c black",
"a c grey33",
"b c grey47",
"c c grey40",
"d c grey87",
"e c grey80",
"f c grey73",
"g c grey27",
"h c grey20",
"i c grey13",
"j c grey67",
"k c grey60",
"l c grey53",
"m c white",
"n c grey93",
"o c grey7",
"p s None c None",
/* pixels */
"ppppppmmmmmmmmmmmmmmmnmmmmmmmmmmmmmmmmmmmmpppppp",
"ppppppmmmmmmmmmmmmmnkkkffnmmmmmmmmmmmmmmmmpppppp",
"ppppppmmmmmmmmmmmmjkaihhakmmmmmmmmmmmmmmmmpppppp",
"ppppppmmmmmmmmmmmehoo`ooioknmmmmmmmmmmmmmmpppppp",
"ppppppmmmmmmmmmmdcoo`ooo``ilmmmmmmmmmmmmmmpppppp",
"ppppppmmmmmmmmmeciooihhho``iemmmmmmmmmmmmmpppppp",
"ppppppmmmmmmmmmkhiigallag```ammmmmmmmmmmmmpppppp",
"ppppppmmmmmmmmmkiogbljagaio`gnmmmmmmmmmmmmpppppp",
"ppppppmmmmmmmmmfiohcalbbbgi`gnmmmmmmmmmmmmpppppp",
"ppppppmmmmmmmmmdhogkjlckbg``oemmmmmmmmmmmmpppppp",
"ppppppmmmmmmmmmmlihljlclbho`hnmmmmmmmmmmmmpppppp",
"ppppppmmmmmmmmmmngogkbbclh`oikmmmmmmmmmmmmpppppp",
"ppppppmmmmmmmmmmmbiiblllchoooammmmmmmmmmmmpppppp",
"ppppppmmmmmmmmmmmehoibklaahhicmmmmmmmmmmmmpppppp",
"ppppppmmmmmmmmmmmehoigbblkacccdmmmmmmmmmmmpppppp",
"ppppppmmmmmmmmmmmeaiihkkjjjlkklfnmmmmmmmmmpppppp",
"ppppppmmmmmmmmmmmdcghhkkjejkjfklbfmmmmmmmmpppppp",
"ppppppmmmmmmmmmmmmjccilkffjkjkjklcfmmmmmmmpppppp",
"ppppppmmmmmmmmmmmmeaghbjffejlbllkbcfmmmmmmpppppp",
"ppppppmmmmmmmmmmmmmdjgljfeeejlbbbbcbknmmmmpppppp",
"ppppppmmmmmmmmmmmmmmkgkfedddjbcbbcbbblfmmmpppppp",
"ppppppmmmmmmmmmmmmmmghcfdddjbcbccbcbblbldmpppppp",
"ppppppmmmmmmmmmmmmmnhhhgldekkffbflcbbbbbbepppppp",
"ppppppmmmmmmmmmmmmmdhhiiigkjffjcnmjccccbbcpppppp",
"ppppppmmmmmmmmmmmmmjhiiiiiihbcginmmdlacbblpppppp",
"ppppppmmmmmmmmmmmmmbihiiiooiaioonmmmmeccbbpppppp",
"ppppppmmmmmmmmmmmmmhiiioooogagihmmmmmmecbapppppp",
"ppppppmmmmmmmmmmmmmaiioooiabcagbmmmmmmebbgpppppp",
"ppppppmmmmmmmmmmmmmkiooigbbbcggkmmmmmmjcahpppppp",
"ppppppmmmmmmmmmmmmmdhhacbbbcaahlmmmmmmbcgapppppp",
"ppppppmmmmmmmmmmmmmkcgaccccbcgicmmmmmecchepppppp",
"ppppppmmmmmmmmmmmmmjcggccccccgihmmmmmjcgampppppp",
"ppppppmmmmmmmmmmmmmdchhgacccaahiemmmmcahenpppppp",
"ppppppmmmmmmmmmmmmmmlhhhggaaaghocmmmfcglndpppppp",
"ppppppmmmmmmmmmmmmmdakeooooihba`oendbaaeddpppppp",
"ppppppmmmmmmmmmmmmnkgnmb````obaioadfchjdddpppppp",
"ppppppmmmmmmmmmmmmjajmmjo``iacccgijlacdnddpppppp",
"ppppppmmmmmmmmmmmeacmmmf``iaacccahgahjnnndpppppp",
"ppppppmmmmmmmmmmmbgdmmmn``hggabbagiahennndpppppp",
"ppppppmmmmmmmmmmjgfmmmmmi`ohhaccahhgiedddepppppp",
"ppppppmmmmmmmmmdakmmmmmmg````ogaghhhifddeepppppp",
"ppppppmmmmmmmmmjcnmmmmmd```oo`igi`g`hldeeepppppp",
"ppppppmmmmmmmmmknmmdlgi````gacch``h`hldeeepppppp",
"ppppppmmmmmmdnddmmnjg``gi``gcaaghi`oifeefepppppp",
"ppppppmmmmnnbeanmnflc``cco`oggghhiohhdeeffpppppp",
"ppppppmmmmnfjacejlbcco`gaa``hhhiioiijeeeffpppppp",
"ppppppmmmmfcghaccaaaah`igghhioooo`obdeeeffpppppp",
"ppppppeffliiioihiiiioiooooi````````kkkklllpppppp"
};
