#define noname_width 48
#define noname_height 48
static char noname_bits[] = {
 0x80,0x7a,0x55,0x55,0x55,0x01,0x80,0xaa,0xaa,0xab,0xaa,0x02,0x80,0xd6,0xfe,
 0xaa,0xaa,0x02,0x80,0x6a,0xfb,0x6f,0x55,0x01,0x40,0x5d,0x7f,0xdf,0x55,0x01,
 0x00,0xd5,0xff,0xff,0xab,0x02,0x40,0xf5,0xff,0xff,0x55,0x01,0x80,0xda,0xff,
 0xff,0xab,0x02,0x40,0xeb,0xff,0xff,0x6b,0x01,0x80,0xfa,0xff,0xff,0xaf,0x02,
 0x40,0xf5,0xff,0xff,0xab,0x02,0x40,0xfd,0xff,0xff,0x57,0x01,0x80,0xfa,0xff,
 0xff,0x6f,0x01,0x80,0xf6,0xff,0xf5,0xaf,0x02,0x40,0xfd,0xbf,0xea,0x5f,0x01,
 0x40,0xfb,0x57,0x10,0xdf,0x02,0x80,0xfe,0x5f,0x45,0x57,0x01,0x80,0xfa,0xfb,
 0xab,0xae,0x02,0x40,0xfd,0xef,0xf7,0xdf,0x02,0x40,0xfb,0xf7,0xea,0x6f,0x01,
 0x80,0xfe,0x55,0xf5,0x57,0x03,0xc0,0x5a,0x97,0x4a,0xaa,0x01,0x80,0xfe,0x25,
 0xaa,0x5a,0x01,0x40,0x95,0x5b,0x25,0xed,0x02,0x80,0xfd,0x56,0x5f,0xaa,0x02,
 0xc0,0xba,0x5f,0xf5,0xb6,0x02,0x80,0xf6,0xd5,0xea,0x6d,0x01,0x40,0x7d,0xd7,
 0xb5,0xb6,0x03,0xc0,0xf6,0x55,0x5b,0x55,0x01,0x00,0x7b,0xaf,0xb4,0xed,0x02,
 0xc0,0xd6,0x55,0xab,0x5b,0x03,0x40,0xdb,0xbe,0x6a,0xb5,0x01,0x80,0xa6,0x6b,
 0xe9,0x6e,0x03,0x80,0x0b,0xdd,0xbb,0xb5,0x01,0x40,0x05,0xf6,0xde,0x6e,0x03,
 0x40,0x40,0xf8,0xb7,0xbb,0x01,0x00,0x00,0xa0,0x6f,0x6d,0x03,0x00,0x00,0xc0,
 0xd7,0xdb,0x02,0x00,0x00,0x00,0x69,0x6d,0x03,0x00,0x00,0x00,0x86,0xdb,0x02,
 0x00,0x00,0x80,0x15,0x6e,0x03,0x00,0x00,0x00,0x0d,0xd0,0x02,0x00,0x00,0xc0,
 0x1a,0x60,0x03,0x00,0x00,0xc0,0x0d,0x80,0x01,0x00,0x00,0xa2,0x15,0x00,0x03,
 0x00,0x00,0x40,0x05,0x00,0x00,0x00,0x00,0x80,0x0a,0x00,0x00,0x00,0x54,0x69,
 0x57,0x11,0x01};
