#define noname_width 48
#define noname_height 48
static char noname_bits[] = {
 0x00,0x4a,0x22,0x49,0x08,0x02,0x80,0xaa,0x48,0x12,0xa2,0x00,0x80,0x14,0x45,
 0xa1,0x94,0x02,0x40,0xa5,0xa4,0x15,0x42,0x00,0x00,0x29,0xeb,0xfa,0x14,0x01,
 0x80,0xd4,0xef,0xf7,0xa3,0x00,0x80,0x6a,0xf7,0x7d,0x09,0x01,0x40,0xf5,0xff,
 0xef,0xae,0x00,0x00,0xfd,0xff,0xff,0x4b,0x02,0x40,0xfd,0xff,0xff,0x9f,0x00,
 0x80,0xfe,0xff,0xff,0x57,0x02,0x00,0xfd,0xdf,0xff,0x9f,0x00,0x40,0xff,0xd7,
 0xfe,0x57,0x02,0x40,0xff,0x2f,0xdb,0x9f,0x00,0x80,0xff,0x55,0x42,0x5f,0x02,
 0x00,0xff,0x97,0x00,0xbe,0x00,0x40,0xff,0x0b,0x00,0x2d,0x01,0x80,0xff,0x2b,
 0x00,0xdc,0x00,0xc0,0xff,0x15,0x80,0x3e,0x01,0x80,0xff,0xae,0x00,0xec,0x00,
 0x80,0xff,0x65,0x01,0x3d,0x01,0x40,0x7f,0xbb,0xf5,0xbe,0x00,0x80,0xff,0x54,
 0x51,0x2e,0x01,0x40,0xfe,0xaa,0xf2,0x5d,0x01,0x80,0xb7,0x00,0x89,0x2e,0x02,
 0x80,0xfe,0x85,0x52,0x4c,0x01,0x40,0x5f,0x91,0x08,0x95,0x00,0x00,0xfd,0x47,
 0x03,0x52,0x02,0x40,0x5d,0xd5,0x34,0xa5,0x00,0x40,0xfd,0x35,0x97,0x94,0x02,
 0x80,0x5a,0xf5,0xa8,0x52,0x02,0x40,0xf5,0x6a,0x55,0x55,0x01,0x80,0x6a,0xd5,
 0xae,0xaa,0x02,0x40,0xd5,0x29,0xa9,0x92,0x00,0x80,0x7a,0x53,0x25,0x55,0x01,
 0x40,0xd5,0x16,0xa9,0xaa,0x02,0x80,0xba,0x2d,0x54,0x55,0x02,0x40,0x65,0xaf,
 0xaa,0x52,0x01,0x80,0xda,0x7a,0x55,0x55,0x01,0x40,0x05,0xad,0xab,0xaa,0x02,
 0x80,0x52,0x5a,0x55,0x55,0x02,0x80,0x04,0x64,0x55,0x55,0x01,0x40,0x21,0x88,
 0x52,0x55,0x01,0x40,0x00,0xa1,0xa4,0xaa,0x02,0x00,0x0b,0x10,0x4d,0x55,0x02,
 0x40,0x30,0x42,0x4c,0x55,0x01,0x00,0xc9,0x00,0xac,0xaa,0x02,0x80,0xa4,0xad,
 0xad,0x7d,0x01};
