/* XPM */
static char *noname_xpm[] = {
/* width height ncolors chars_per_pixel */
"48 48 17 1",
/* colors */
"` c black",
"a c grey33",
"b c grey47",
"c c grey40",
"d c grey87",
"e c grey80",
"f c grey73",
"g c grey27",
"h c grey20",
"i c grey13",
"j c grey67",
"k c grey60",
"l c grey53",
"m c white",
"n c grey93",
"o c grey7",
"p s None c None",
/* pixels */
"ppppppeeeeeeeeeededdeddeddnnnnmmmmmmmmmmmnpppppp",
"ppppppdeeeeeeeeeeeffjjklljeedednnmmmmmmmnmpppppp",
"ppppppeeeeeeeedejlbahhghihacclkenmmmmmmmmnpppppp",
"ppppppeeeeeeeeflcaahhgghhiiiioohcenmmmmnmnpppppp",
"ppppppeeeeeeekaggaaaahhio``oooooiafmmmmmnmpppppp",
"ppppppeeeeeekhiihhgghio`````o`oo`icnmnmnnnpppppp",
"ppppppeeefejhoiigghioo`o```oo`o`o`hfmnmmnmpppppp",
"ppppppeefefa`oihhioooo`````oo`o``ooamnmnnnpppppp",
"ppppppeeefkiooiiiooo``o`o`oooo````oidmnnmnpppppp",
"ppppppefefc``oooiooo`o`o`ohgi`o``o`ofnmnnnpppppp",
"ppppppeeffho`ooooooo`o``oocbhoooo`oojnmnnnpppppp",
"ppppppeffjo`ooooooo`o```ohklioooio`oemnnnnpppppp",
"ppppppfffbo`oo``o`o``oooiblaioiaio`hnnnnddpppppp",
"ppppppjffaoo``````oo`o`hlfjbgabbghihdnnnddpppppp",
"ppppppefjh`````````o`oafdndefjkchgagjnndddpppppp",
"ppppppefji`````````ohkdmmneffkchabcfjkddddpppppp",
"ppppppfflo````````ohknmdjcckjkcbcbcedjedddpppppp",
"ppppppejloo```````ocfdjlcacbfjcahlclklbdddpppppp",
"ppppppfjko```````ohkjkjfklbljjcbblkkfkcdddpppppp",
"ppppppefjo````````ckjjjkabcljkbbkjkkekldddpppppp",
"ppppppffjh```````ikjjklbaclfkleblllljkfdddpppppp",
"ppppppefjc``````ihkjeeleeffjljnjccblljddddpppppp",
"ppppppffjb```iooohclfebndfkbljnflghaceddddpppppp",
"ppppppffjl```iioohaggcaefkbckjejbcghceddddpppppp",
"ppppppffjl```gggggbbaggbllbkaaaacaaacedddepppppp",
"ppppppffjbo``icbcablbccclkbcclcbchacceddddpppppp",
"ppppppfjjlh```ckkcblllbaagggcccaagccbddedepppppp",
"ppppppffjjg```olkacllllccahigcbbcacckddedepppppp",
"ppppppffjja````iaigcbllllcbbbblbbcccedededpppppp",
"ppppppfffjbh````hhgacbblblllllbbbcbkdedeeepppppp",
"ppppppfffjkbh```oohagaccbblljkkkklbfedeeeepppppp",
"ppppppfffjkcao````oihhggaablkjfjklbfeeeeeepppppp",
"ppppppffjjkbli`o`o`o`oihggcblkkkbcbfeeeeeepppppp",
"ppppppfffjkkjb``oooooo`ooihhgccaghijeeeeeepppppp",
"ppppppffjjjjci``````o`oooooooiiiio`gfefeffpppppp",
"ppppppfffjjkiooo`o`o`````o`ooihoo`ookffefepppppp",
"ppppppfjjjjcoo`ooo`oo````````oioooo`cffefepppppp",
"ppppppffjfjhi`oo`ooo`oo````````o`o`oifffefpppppp",
"ppppppffjjjhooooo`ooooooo````````o`oojefffpppppp",
"ppppppfjjfjhooo`ooooooooooooo````````cffefpppppp",
"ppppppfjfjjgoo`o`oooooooooo`ooo`o````ogkjepppppp",
"ppppppffjjkhooo`oo`ooooooooo`o`o``o````oilpppppp",
"ppppppfjjjciooo`o`ooooooooooo`ooooooo```obpppppp",
"ppppppffjjhiioo`oooooooooooooo`o``o`ooo``bpppppp",
"ppppppfjjlioooo`o`ooooooooooooo````o`o```ipppppp",
"ppppppjfjaiooooo`oooooooooooooo`o`````````pppppp",
"ppppppfjkhoooo`oo`oooooooooo`o`````o`oo```pppppp",
"ppppppklaio``o`o`o`o`o`oo`o`o`o```````o`o`pppppp"
};
