#define noname_width 48
#define noname_height 48
static char noname_bits[] = {
 0x00,0x00,0x08,0x00,0x00,0x00,0x00,0x10,0x41,0x45,0x00,0x00,0x00,0x45,0x14,
 0x89,0x92,0x00,0x00,0x00,0x4a,0x05,0x01,0x00,0x00,0x49,0x95,0x52,0x0a,0x01,
 0x00,0x80,0x56,0x55,0x05,0x00,0x00,0xa9,0xad,0xaa,0x2d,0x00,0x00,0x44,0xb7,
 0xd5,0x9a,0x00,0x00,0xe9,0x6e,0x5b,0x2f,0x00,0x00,0x54,0xaf,0xad,0x7b,0x00,
 0x00,0xd5,0x6d,0x6b,0x3d,0x01,0x00,0x6a,0xaf,0xd5,0x76,0x00,0x00,0xa9,0xdb,
 0x7a,0x7d,0x00,0x00,0xf5,0xb7,0xad,0x6a,0x01,0x80,0xaa,0x5e,0xd3,0x3d,0x00,
 0x00,0xea,0xb7,0xac,0x7e,0x00,0x80,0xda,0xbd,0x5a,0xbb,0x00,0x00,0x65,0x6f,
 0xeb,0x7e,0x00,0x00,0xf5,0xbf,0xb6,0x2f,0x02,0x00,0x7d,0xeb,0x6b,0x7f,0x00,
 0x80,0xb7,0x5f,0xed,0x1f,0x00,0x00,0xfe,0xb5,0x7b,0x1f,0x01,0x80,0xbb,0x6b,
 0xaf,0x4f,0x00,0x00,0xfe,0x96,0xfd,0x1d,0x00,0x00,0xbe,0x5f,0xbf,0x2e,0x01,
 0x00,0xfd,0x5a,0xeb,0x1f,0x00,0x00,0xbc,0x9f,0x5d,0x55,0x01,0x00,0x7a,0x6d,
 0x6a,0x1f,0x00,0x00,0xdc,0x96,0xd5,0x6a,0x01,0x00,0xb1,0x2a,0x2a,0x7f,0x03,
 0x00,0xa8,0x90,0xab,0xbd,0x03,0x00,0x42,0x55,0xdc,0xfe,0x03,0x00,0xa9,0x94,
 0xb7,0xfb,0x01,0x00,0x50,0xed,0x7a,0xff,0x03,0x00,0xed,0x9f,0xd7,0xfd,0x03,
 0x80,0xfe,0x6a,0xfd,0xff,0x03,0x40,0xbb,0xbd,0x5f,0xfd,0x03,0xc0,0xff,0x6b,
 0xf5,0xff,0x03,0x40,0xf7,0x5f,0xfb,0xfe,0x03,0x80,0xdf,0xed,0xbe,0xff,0x03,
 0xc0,0xfe,0xbe,0x77,0x7f,0x03,0x80,0xff,0x6f,0xfd,0xfe,0x03,0xc0,0xf6,0xde,
 0xaf,0xff,0x03,0x80,0xff,0x7f,0xdd,0xff,0x03,0xc0,0xdf,0x9f,0xea,0x7f,0x03,
 0x80,0xfd,0x7f,0xb5,0xff,0x03,0xc0,0xff,0xff,0xea,0xbf,0x01,0x80,0x7b,0x7f,
 0xd5,0xff,0x03};
