/* XPM */
static char *noname_xpm[] = {
/* width height ncolors chars_per_pixel */
"48 48 17 1",
/* colors */
"` c black",
"a c grey33",
"b c grey47",
"c c grey40",
"d c grey87",
"e c grey80",
"f c grey73",
"g c grey27",
"h c grey20",
"i c grey13",
"j c grey67",
"k c grey60",
"l c grey53",
"m c white",
"n c grey93",
"o c grey7",
"p s None c None",
/* pixels */
"ppppppmmmmmmmmmmmmmmmmmmmmmmmmmmmmmmmmmmmmpppppp",
"ppppppmmmmmmmmmmmmmmmmmmmmmmmmmmmmmmmmmmmmpppppp",
"ppppppmmmmmmmmmmmmmmmmmmmmmmmmmmmmmmmmmmmmpppppp",
"ppppppmmmmmmmmmmmmmmdefeeenmmmmmmmmmmmmmmmpppppp",
"ppppppmmmmmmmmmmmmjghiggaggakdmmmmmmmmmmmmpppppp",
"ppppppmmmmmmmmmmeaiiigbbbghhhigkdmmmmmmmmmpppppp",
"ppppppmmmmmmmmmlioggcbkjfklacciohlnmmmmmmmpppppp",
"ppppppmmmmmmmnaoickjedmmmmndjklh`ilmmmmmmmpppppp",
"ppppppmmmmmmng`hkenmmmmmmmmmmndjh`okmmmmmmpppppp",
"ppppppmmmmmma`gjenmmmmmmmmmmmmmmloiinmmmmmpppppp",
"ppppppmmmmmjo`lfenmmmmmmmmmmmmmmeioojmmmmmpppppp",
"ppppppmmmmnh`hjedmmmmmmmmmmmmmmmncoolmmmmmpppppp",
"ppppppmmmmc`oajfdmmmmmmmmmmmmmmmdloogmmmmmpppppp",
"ppppppmmmmh`objedmmmmmmmmmmmmmmmdli`immmmmpppppp",
"ppppppmmmno`obkfdmmmmmmmmmmmmmmmdbi`ommmmmpppppp",
"ppppppmmmd``ibkfdnmmmmmmmmmmmmmmdci``nmmmmpppppp",
"ppppppmmme``ockfdmmmmmmmmmmmmmmndco``nmmmmpppppp",
"ppppppmmmd``ockjeefjedmmnfkkfdnnnk``inmmmmpppppp",
"ppppppmmmnh``akklbgihaemfchgbjfenk``lemmmmpppppp",
"ppppppmmmml``glbcccagcdmnlaghbkdnfo`kemmmmpppppp",
"ppppppmmmmbi`gklaahcckdmmfjkkjfnmfohdnmmmmpppppp",
"ppppppmmmmjb`gkjklkllfdmnndddnmmmehlemmmmmpppppp",
"ppppppmmmmfjiajdneeedeemmmmmmmmmmeefdmmmmmpppppp",
"ppppppmmmmdfkbkemmmmdfemmmmmmmmmneeenmmmmmpppppp",
"ppppppmmmmnfjblfnmmmejdmmmmmmmmmneemmmmmmmpppppp",
"ppppppmmmmmeebbkdmmnjkfmmfedmmmmdfdmmmmmmmpppppp",
"ppppppmmmmmdelblfnmejackfkfnmmmmdffnmmmmmmpppppp",
"ppppppmmmmmnelbljdnefkbcljfdnmndejmmmmmmmmpppppp",
"ppppppmmmmmmdeclkfffklkedefjjndefjmmmmmmmmpppppp",
"ppppppmmmmmmmncbbkkcbllkkbbcceejjjmmmmmmmmpppppp",
"ppppppmmmmmmmmbccljcaacblkkfjefjlemmmmmmmmpppppp",
"ppppppmmmmmmmmjcabkjjlfdedfddfjlbmmmmmmmmmpppppp",
"ppppppmmmmmmmmcgaaljjkcaabjeejlcfmmmmmmmmmpppppp",
"ppppppmmmmmmmjhaggcljeeeednefkbbdmmmmmmmmmpppppp",
"ppppppmmmmmmmbibghabkedddndfkbakefmmmmmmmmpppppp",
"ppppppmmebkeegobcghacbllkkklcglkaabkekkmmmpppppp",
"ppppppmfaoigggiclahihgggggaggckbhaaahgicbkpppppp",
"ppppppjagigghhicllahiooooiiaclkchgaghhighgpppppp",
"ppppppgaahggghhglbcaghooigcbbkkgihgggiogigpppppp",
"ppppppghghhgghhhblbcagghgblllkliohgghiohihpppppp",
"ppppppghhghgghhialbccaaaabllkklooihghooohhpppppp",
"ppppppagigihhghhibbbccacaablllcoohhhhoo`hhpppppp",
"ppppppcghhhhhghghgllbcccbcblkba`ihhghioohipppppp",
"ppppppcgghhihhhgghcllbccbbbblbiohhhghi`oihpppppp",
"ppppppgaghhhhhggggablbcaaccclaoihhghgiooihpppppp",
"ppppppagghhhhhhhiihgllccagcbbihiho``oiooiipppppp",
"ppppppahghhhho````igalbaggcbgiio`````iiiiipppppp",
"ppppppiooiioo`````oihgahihgg``i`````````o`pppppp"
};
