/* XPM */
static char *noname_xpm[] = {
/* width height ncolors chars_per_pixel */
"48 48 17 1",
/* colors */
"` c black",
"a c grey33",
"b c grey47",
"c c grey40",
"d c grey87",
"e c grey80",
"f c grey73",
"g c grey27",
"h c grey20",
"i c grey13",
"j c grey67",
"k c grey60",
"l c grey53",
"m c white",
"n c grey93",
"o c grey7",
"p s None c None",
/* pixels */
"ppppppmmmmmmmmmmmmmmmmnnndmmmmmmmmmmmmmmmmpppppp",
"ppppppmmmmmmmmmmmmmmmmmndlemmndnmmmmmmmmmmpppppp",
"ppppppmmmmmmmmmmmmmndmmmdllfkklljnmmmmmmmmpppppp",
"ppppppmmmmmmmmmmmmmffnnmnkbcccgccbemmmmmmmpppppp",
"ppppppmmmmmmmmmeddffdemmdbggkkhhaccemmmmmmpppppp",
"ppppppmmmmmmmejjflfdednkaihgdkghihgadmmmmmpppppp",
"ppppppmmmmmmmjjkbaljklchooiikkghhiihcmmmmmpppppp",
"ppppppmmmmmmjllbccbacahoioiohchiiiiiijmmmmpppppp",
"ppppppmmmmmecccbcbcchiioiiiiigihhhioogmmmmpppppp",
"ppppppmmmmmcgaaabcahihiihiiihhhhiihioodmmmpppppp",
"ppppppmmmmegghhhghhiihhhhhhggaahooioo`dmmmpppppp",
"ppppppmmmmfgihighiihhhghhghggacgo```o`fmmmpppppp",
"ppppppmmmmkhioiiioihihihhhggcclbh`````lmmmpppppp",
"ppppppmmmmchooooooiiiiihacbblkkbgo````cmmmpppppp",
"ppppppmmmmhoooioiabkbcbkjffjjkkbco````cmmmpppppp",
"ppppppmmmmhiooglkjklkkeedekbabbbch````ammmpppppp",
"ppppppmmmmhh`oaljedklkkfflklbffcgi````ammmpppppp",
"ppppppmmmmhi`olcjflcblbaaacagccggg````bmmmpppppp",
"ppppppmmmnioohflflbabblkecacacabga````kmmmpppppp",
"ppppppmmmmhoogfkeejkkkkeecblblblaa```odmmmpppppp",
"ppppppmmmmboiaffdefjjjlefbckkklkbao``lmmmmpppppp",
"ppppppmmmmdiglfefeffjkjeflalkkllbagh`emmmmpppppp",
"ppppppmmmmmlakfddfjklkjffbbckjklccaionmmmmpppppp",
"ppppppmmmmmlckfedddfkjcbcgcckfjbbaaogmmmmmpppppp",
"ppppppmmmmmjakjffeejejbllacblklbcagoemmmmmpppppp",
"ppppppmmmmmmcbkjjfffkbcljcaclllcagihmmmmmmpppppp",
"ppppppmmmmmmnklkjjflaaabbahiclbcghikmmmmmmpppppp",
"ppppppmmmmmmmjclkjjblllklcccclcaghbdmmmmmmpppppp",
"ppppppmmmmmmecccbkfjfjjlblblklcgihhjnmmmmmpppppp",
"ppppppmmmmmmlbaacljffffjkkkllbghiiiiadmmmmpppppp",
"ppppppmmmemmbaaggcljfeffjjllbahiooihohgfmmpppppp",
"ppppppnmdkmncgghhaclkkjjklbcagi`ooighooadmpppppp",
"ppppppfneemmbghhihgacbccccaahioo`iihbhoohfpppppp",
"ppppppnmfemnagiiiihhgggghhgiioo``hhicigiiipppppp",
"ppppppnmbjndkghhiiihhhhhohiooo``ohhigiccihpppppp",
"ppppppmmajekghhhiiiiihiioooo`o``ocoih`gkccpppppp",
"ppppppmmclebgigchhiioiiooo`o````hc`oo`bkkkpppppp",
"ppppppmmcclahhabhgiioo`o`````o`ogg`i`ikjkkpppppp",
"ppppppnmccicgicbhgahiooo```oiooigi`i`gkjkkpppppp",
"ppppppnmcghklbabhiccghiiiihhhooiao`o`cjjkkpppppp",
"ppppppnmchhjbkgbiigbcagggggahioicio``bfkjkpppppp",
"ppppppmnbiajlkhhhihlbbcccclcahihbgg`olejkdpppppp",
"ppppppmncicfkfhhaaildejjkfjbhihhccgigjdkfdpppppp",
"ppppppmdaibeffhhabggdmmnddbghoiikbhiafelfnpppppp",
"ppppppmfghkdefhgcbbglmmmdkagoihbklhhcdebedpppppp",
"ppppppmbggfndehgbkklakdfkccggggfkcggbdfbdnpppppp",
"ppppppnagaennehgcjjkladelcbkaggdkcggcdkkddpppppp",
"pppppplihgkjflohgbllbaabcccbihgkbhiiglabfkpppppp"
};
