#define noname_width 48
#define noname_height 48
static char noname_bits[] = {
 0x80,0x56,0x55,0x6d,0xbb,0x03,0x40,0xb5,0x55,0xd0,0x56,0x01,0x80,0xad,0x3a,
 0x6a,0xed,0x02,0x80,0xaa,0xbe,0xfe,0x5b,0x03,0x40,0xdb,0xff,0xff,0xb5,0x01,
 0x40,0x55,0xff,0xff,0xda,0x02,0x80,0xed,0xff,0xff,0x6f,0x03,0xc0,0xf6,0xff,
 0xff,0xbf,0x02,0x80,0xfa,0xff,0xff,0xdf,0x01,0x40,0xfd,0x7f,0xeb,0xbf,0x02,
 0x40,0xfb,0x01,0xe8,0x7f,0x03,0x80,0xfd,0x01,0xd0,0xff,0x02,0x40,0x7d,0x00,
 0xe8,0xbf,0x01,0x40,0xbb,0x00,0x90,0xff,0x02,0x40,0x7d,0x00,0xe4,0xff,0x01,
 0x80,0x7e,0x01,0x90,0xff,0x02,0xc0,0xfd,0xa5,0x6f,0xff,0x01,0x80,0xfa,0xe7,
 0xbf,0xff,0x02,0x40,0xfb,0xa7,0xfd,0xfe,0x01,0x80,0xfd,0x4d,0xaf,0xff,0x02,
 0x40,0x5b,0x53,0x55,0x7f,0x03,0xc0,0xda,0x54,0xaa,0xdf,0x02,0x80,0x5d,0x25,
 0x90,0xef,0x01,0xc0,0x36,0x52,0xa5,0xfe,0x02,0x80,0x4d,0xb5,0xd0,0x57,0x03,
 0xc0,0x36,0x7f,0x4b,0xed,0x02,0x80,0xdd,0xff,0xf5,0xbf,0x03,0xc0,0xb6,0xff,
 0x57,0xff,0x02,0x80,0xfd,0xff,0xd7,0xaf,0x01,0x40,0xeb,0xff,0x6f,0x6f,0x03,
 0xc0,0xbe,0x55,0xda,0xdf,0x01,0x40,0xeb,0xbf,0xed,0x57,0x03,0xc0,0xf6,0x55,
 0xb7,0xa5,0x01,0x80,0xad,0x6f,0xed,0x49,0x03,0x40,0x77,0xab,0x7f,0x22,0x03,
 0xc0,0xba,0xff,0x37,0x45,0x02,0x40,0xd7,0xfe,0x4d,0x10,0x00,0x80,0x7b,0xff,
 0x97,0x02,0x00,0x40,0xad,0x7c,0x23,0x50,0x00,0x80,0xdb,0xfe,0x55,0x04,0x00,
 0xc0,0x6e,0x7f,0x08,0x01,0x00,0x80,0xb5,0xbd,0x26,0x50,0x00,0x40,0x6f,0x0f,
 0x09,0x00,0x00,0x80,0xb5,0xba,0x82,0x94,0x00,0xc0,0x0e,0x9d,0x10,0x02,0x00,
 0x40,0x0b,0x63,0x44,0x00,0x00,0x40,0x05,0x28,0x00,0x01,0x00,0xc0,0x23,0x55,
 0xab,0x54,0x01};
