#define c2_width 8
#define c2_height 16
#define c2_x_hot 7
#define c2_y_hot 0
static char c2_bits[] = {
   0x80, 0xc0, 0xe0, 0xf0, 0xd8, 0xcc, 0xc6, 0xdf, 0xf8, 0xd8, 0x8c, 0x0c,
   0x06, 0x06, 0x03, 0x03};
