/* XPM */
static char *noname_xpm[] = {
/* width height ncolors chars_per_pixel */
"48 48 17 1",
/* colors */
"` c black",
"a c grey33",
"b c grey47",
"c c grey40",
"d c grey87",
"e c grey80",
"f c grey73",
"g c grey27",
"h c grey20",
"i c grey13",
"j c grey67",
"k c grey60",
"l c grey53",
"m c white",
"n c grey93",
"o c grey7",
"p s None c None",
/* pixels */
"pppppp`o`o`ooooooooooooiioiiiiiihihhhhhhghpppppp",
"pppppphhhhhhhhhhhgggggggggaaaaaaaaaacccccbpppppp",
"ppppppaaaaaacccccccbbcbbbbbbblllblbbklkkkkpppppp",
"ppppppblblllllkllklkkkkkkjjkkjjjjkckjffeeepppppp",
"ppppppkkkkkjkjjjjffjfffjjkbclkjjjbcbfddddnpppppp",
"ppppppfjjfjffjjljlkkfflgiooiggbbaiiicjdnnmpppppp",
"ppppppeefeeefjjbbbbakbo```oooihho```igbjnnpppppp",
"ppppppeeeeefjbcaggggbaoio````ooo````ogaclepppppp",
"ppppppefffjbahioooiihhi```````````o`oihchepppppp",
"ppppppfefkgho``oo```o````````````````ooiifpppppp",
"ppppppeffaih``````````````````````````ooobpppppp",
"ppppppfflgoo``````````````o`````````````ohpppppp",
"ppppppffkh```````````oio``oo````````````ohpppppp",
"ppppppjjlo``````````ihhio```````````````ihpppppp",
"ppppppjjg``````````ohccghhiihagio```````ohpppppp",
"ppppppjlo``````````igbblljjfeeekai``````ohpppppp",
"ppppppjao``````````habkjednnmmndfbi`````oopppppp",
"ppppppjh```````````hcbljednmmnmnejbo`````ipppppp",
"ppppppji``````````ohgaggckedddjkbblg`````opppppp",
"ppppppli````````oihgacbkfffeejblkcbco````gpppppp",
"ppppppkbi```````iaccghiakjkjfklljkbio````apppppp",
"ppppppjjc```````hggghhoaabbblbcihgchh```ocpppppp",
"ppppppfjc``````oabbaaccbbbgklccaaacgio```gpppppp",
"ppppppjjc``````iacbbllllkccjjcllbllgh````opppppp",
"ppppppjka``````icbbbljjjlbljfbkkjjkbb````opppppp",
"ppppppjko``````iablkjkkkcbljjkljjkkkb`````pppppp",
"ppppppjl```````ogcbkedneckljfkjeeefjc`````pppppp",
"ppppppjko``````ihccljfejaahacckeddfkh`````pppppp",
"ppppppjl```````ohaclkjfjklbclbkfefjlo````ipppppp",
"ppppppkao``````ohacblkjjkkkjjjjffjjc````ilpppppp",
"ppppppb````````ohacblklcccccbbljjjlh```hlepppppp",
"pppppph````````ohgcclkbghcljcgakjkli`gbjffpppppp",
"ppppppa````````oihacbllbcclkkllkkla`ojfefepppppp",
"ppppppcio``````oihhaacbbbbccblkllbiokjfffepppppp",
"ppppppci```````oiihggcbblkjjkkklbgobfjjfffpppppp",
"ppppppli`````ooo`iihhgabkjjjjjlbaoijjfjfffpppppp",
"ppppppkc````oooooiiiiihacbllklbg`oajjjffffpppppp",
"ppppppklh```oiiiiiaaiiihggacaah``gkjjjjfffpppppp",
"ppppppgghiiiooihhiibbghhggggggo``cjjjjjfffpppppp",
"pppppphhihiiiooihihhjjlhiihhhh```bkjkjjjjfpppppp",
"pppppphhhhhhiiooihhhcdnnjahgai``ikkjkjjjfjpppppp",
"pppppphhhhhhhhio`iihhfmmmnjcahhalkkkkjjjfjpppppp",
"pppppphghhhhhhhii`ihhgnmmmmnkbkkkkkkjkjjjjpppppp",
"ppppppihhhhghhhhho`ihhlmmnmmmnckkkkkkkjjjjpppppp",
"ppppppihhhhhhhhihio`ihhemmmmndilkkkjkjjjjjpppppp",
"pppppphhhghhghhhhhho`ohcnmmmmfiajkjkkkkjjkpppppp",
"ppppppiihhhhhhhhihhi``ihlmmmmfoilfkkkkjkjjpppppp",
"ppppppiiiiiiiiioiooio``oijeeefooillbbbbbblpppppp"
};
