/* XPM */
static char * face_xpm[] = {
/* width height ncolors chars_per_pixel */
"48 48 10 1",
/* colors */
" 	s None	c None",
".	c blue",
"X	c white",
"o	c lavender",
"O	c sky blue",
"+	c dodger blue",
"@	c slate grey",
"#	c gainsboro",
"$	c grey",
"%	c dark slate grey",
/* pixels */
"                                                ",
"                                                ",
"                                                ",
"                                                ",
"                                                ",
"                                                ",
"                                                ",
"                                                ",
"                                                ",
"                                                ",
"  ............................................  ",
" .XXXXoO++...+..++OoXXXXXXXXXXXXXXXXXXXXXXXXXX. ",
".XXO+................+OXXXXXXXXXXXXXXXXXXXXXXXX.",
".XX.......O+..+O+......XXXXXXXXXXXXXXXXXXXXXXXX.",
".XX...OOXXXXoOXXXXO+...XXXXXXXXXXXXXXXXXXXXXXXX.",
".XX..+XXXXXXooXXXXXX+..XXXXXXXXXXXXXXXXXXXXXXXX.",
".XX..oXXXXXXooXXXXXXO..XXXXXXXXXXXXXXXXXXXXXXXX.",
".XX..oXXXXXXoOXXXXXXo..XX@#$XXX#XXX@@X#XX$$##XX.",
".XX..XXooO+ooOo+OoXXX..XX%@@@@@@$@#@@$@$@@@$%$X.",
".XX..OO+...+......+OO..XX@$@@$@$@@X@@$@$@@@@%$X.",
".XX..+++.........++++..XXXXXXXXX##XXXXXX#X#X#XX.",
".XX....................XXXXXXXXXXXXXXXXXXXXXXXX.",
".XX.++++++++++++++++++.XX$$XX####XX#$##XXX###XX.",
".XX.XXXXXXXXXXXXXXXXXX+XX@@$%@@@@$@@@%@@@$%@$XX.",
".XX.X++.oXXXXXXXXXXXXX+XX@@@%@#@@$@@@@@@@#%@$XX.",
".XX.XX+.+oXXXXXXXXXXXX+XXXX$@#XXXX#XX#X#XX#XXXX.",
".XX.XXX.+OXXXXXXXXXXXo.XXXXXXXXXXXXXXXXXXXXXXXX.",
".XXO+XXo..O+++...OO+X+OXX@@#X$$$#XXX#XXXXXXXXXX.",
".XXX.oXX+.....OOOOo+o.oX#@#$@@@@%$@@@@XXXXXXXXX.",
".XXXO.XXo.....+XXXXX+OXXX$@#@$@$@$@@@$XXXXXXXXX.",
".XXXX+OXXX+....oXXXO.oXXXXXXXXXXXX@$XXXXXXXXXXX.",
".XXXXo.OXXXoOO+OXXO.oXXXXXXXXXXXXXXXXXXXXXXXXXX.",
".XXXXXo++oXXXXXXXO+oXXXXXXXXXXXXXXXXXXXXXXXXXXX.",
".XXXXXXo+.oXXXXoO.oXXXXXXXXXXXXXXXXXXXXXXXXXXXX.",
".XXXXXXXXO.+OoO.+XXXXXXXXXXXXXXXXXXXXXXXXXXXXXX.",
" .oXXXXXXXXO..+oXXXXXXXXXXXXXXXXXXXXXXXXXXXXXX. ",
"  ............................................  ",
"                                                ",
"                                                ",
"                                                ",
"                                                ",
"                                                ",
"                                                ",
"                                                ",
"                                                ",
"                                                ",
"                                                ",
"                                                "};
