/* XPM */
static char *noname_xpm[] = {
/* width height ncolors chars_per_pixel */
"48 48 16 1",
/* colors */
"` c grey33",
"a c grey47",
"b c grey40",
"c c grey87",
"d c grey80",
"e c grey73",
"f c grey27",
"g c grey20",
"h c grey13",
"i c grey67",
"j c grey60",
"k c grey53",
"l c white",
"m c grey93",
"n c grey7",
"o s None c None",
/* pixels */
"oooolllllllllllllldemllmmmmllllllllllllllllooooo",
"oooollllllllllllllegbjij`acllllllllllllllllooooo",
"oooollllllllllllldjbbfnhngfilllllllllllllllooooo",
"oooolllllllllllleagggnnnhnhhkclllllllllllllooooo",
"oooollllllllllmah`gnnnnhhnnnn`cllllllllllllooooo",
"oooolllllllllljhnfgnnnn`fgnnnngdlllllllllllooooo",
"oooolllllllllchhhhnnnnnnnggngnngcllllllllllooooo",
"oooolllllllllbngfnnnnnnnnnghfnnnkllllllllllooooo",
"oooolllllllldnng`fnnbnnnnnnnfnnngmlllllllllooooo",
"oooollllllll`nnn`jfhhfhgnnnh`gnnnelllllllllooooo",
"oooollllllldhnnnn`fbbbhhhnnfkfnnnflllllllllooooo",
"oooolllllllannnnnfjeeakjekbkkhnnnnellllllllooooo",
"oooolllllllbnnhnfjjiedmllmjei`nnnnkllllllllooooo",
"oooolllllll`nn``jeidcclllmicdbnnnnbllllllllooooo",
"oooolllllll`nnfaecmmlmmmcdccef`ggnbllllllllooooo",
"oooolllllll`nnfkecmmllllmcmmcjj`hnallllllllooooo",
"oooolllllll`nnbjicmmlllllllmmdjgnnillllllllooooo",
"oooolllllllknhajidcmmlllllmdijkfnnellllllllooooo",
"oooolllllllknnbk`kkbkdmmmdebfafgnnellllllllooooo",
"oooolllllllighbf`bkk``icda`b`ggnhfillllllllooooo",
"oooollllllldkfkk``bgkabiabj`fg`n`bkllllllllooooo",
"oooolllllllce`jieeiiddamijceikiffajllllllllooooo",
"oooolllllllccaajeccccekmdacddddf`kjllllllllooooo",
"oooollllllldca`ikmmmmjedeadcccigaaellllllllooooo",
"oooollllllldiifjijeeeiicekjieiabi`dllllllllooooo",
"oooolllllllknfgkecmmcjimdkdccci`bhcllllllllooooo",
"oooolllllllbnngkidcccjadkadccdjgnfmllllllllooooo",
"oooolllllllknnhkedccdeekkieddejgnblllllllllooooo",
"oooolllllllennnkddddedcddeideeignklllllllllooooo",
"oooollllllldhnnbddcdkf`b`gbdeejnnjlllllllllooooo",
"oooolllllllmfnnfidccdkiejbideebnnilllllllllooooo",
"oooollllllllinhfaedccdijieddejgngclllllllllooooo",
"oooollllllllldeafkecdccccddejfaiellllllllllooooo",
"oooollllllllllekj`aiedmmmdikffcmlllllllllllooooo",
"oooollllllllllijeibbkieddjbfabimlllllllllllooooo",
"oooollllllllllmedcdjbbaaa``jibjlmllllllllllooooo",
"oooollllllllllllmmmceijkkjedeelllllmlllllllooooo",
"oooolllliblllllllllmccccdccmmlllllljkdlllllooooo",
"oooolmjbimllllllllllllllmllllllllllllikimllooooo",
"ooookkdlmjklllllllllllllllllllllllefbemcjjeooooo",
"oooolcj``kemllllllllllllllllllllllllcibbimcooooo",
"oooo`bemllllllllllllllllllllllllmdeclllmibbooooo",
"oooomllleaff`kmlllllllllllllllljfbbfgfkdmlmooooo",
"oooolebg`idcciidmlllllllllllmccmllllldjb`adooooo",
"oooogbimllllllllmcmmmmmmmmmmllllmmmlllllle`ooooo",
"oooomllllejkkkemllllllllllllmekfggghgbjjellooooo",
"oooolcjbg`akkkbff`kiedeeikbf`aimllllmejjakcooooo",
"ooooffaemllllllllcejkkkkjecllllllllllllllkgooooo"
};
