/* XPM */
static char *noname_xpm[] = {
/* width height ncolors chars_per_pixel */
"48 48 17 1",
/* colors */
"` c black",
"a c grey33",
"b c grey47",
"c c grey40",
"d c grey87",
"e c grey80",
"f c grey73",
"g c grey27",
"h c grey20",
"i c grey13",
"j c grey67",
"k c grey60",
"l c grey53",
"m c white",
"n c grey93",
"o c grey7",
"p s None c None",
/* pixels */
"ppppppfjkllllbbbcbkkkkkkkkkkkjkklllkkkklkkpppppp",
"ppppppjjkllllbbbcbkkkkjklklkkjkklklkkkkkkkpppppp",
"ppppppjjkllbbbbbcbkkkkjkkkkkkjkllllkkklkkkpppppp",
"ppppppjkklbblbbbcljkkkjkkklkkkkkllllkkklkkpppppp",
"ppppppjkklbbbbbbcljkkkkkkllkkjkllllkkkkkkkpppppp",
"ppppppjkllbbbbbbcljkkkkkbchbkkklllllkkllkkpppppp",
"ppppppjkklbbblbbckjkbbcghoiihccgblllklkklkpppppp",
"ppppppjkllbbbbbbckkhigiohh``oaaoicllkkklkkpppppp",
"ppppppkkklbbblbbcci```o``iiii````ibllklkkkpppppp",
"ppppppkklllbbbbbg`````````o``o````iblklklkpppppp",
"ppppppkkllbbblbco``````````````````ilklklkpppppp",
"ppppppkklllbbbbg````````````````````clllkkpppppp",
"ppppppkkllbbbbbh````````````````````gllklkpppppp",
"ppppppkkllbbbbbi````````oo``````````hllklkpppppp",
"ppppppklllbbbbco``````hgag``````````hllllkpppppp",
"ppppppklllbbbbb``````ohgacgioo``````hllllkpppppp",
"ppppppkllbbbbbc``````ohacblbbccgho``hllllkpppppp",
"ppppppklbbccbcg````ooigacbbblbccaho`hlblllpppppp",
"ppppppkllbcccci````ooohgcbbbbbcagho`gllbblpppppp",
"ppppppllbbbccai```oo````igcbbbccgh``cbblllpppppp",
"pppppplllbccbgi```iiio````hccccagi`iblblllpppppp",
"ppppppllbbcccghi`oohho````ogho`ooo`gbbbbllpppppp",
"pppppplllbcccghi``ihghiihhici``````cbbbbllpppppp",
"ppppppllbccbcagi``ohgaaaghhcii````ocbcbbbbpppppp",
"ppppppllbbcccgii``ohgcbcahgaigiooogcbbcbbbpppppp",
"ppppppblbcccci````oigcaghhgahaaghiaccbccbbpppppp",
"pppppplbbbccag````iihhhgiigaiacahiaccbcbbcpppppp",
"pppppplbbcccah```oiiiiihhooooiggihccbcbccbpppppp",
"ppppppbbbjfbbio``oiihioihhiioooiogacccbbbcpppppp",
"ppppppbblffkai`o`oiihgigagho``o`hacaccbcbcpppppp",
"ppppppbbjfffjioo`ooihghigaaoihoiaaacccccccpppppp",
"ppppppbbjffefkhio`oihhghhhioiooaaaaaacccccpppppp",
"ppppppjmffeffflii`ooihggioiooogagaaaacacccpppppp",
"ppppppmmmneeeeflio``iiggghiooggagggaacaaacpppppp",
"ppppppmmmmffeeffbi```oiihiiogagaggaaaaacacpppppp",
"ppppppmmmddfeeeffg````o`o`oaaagggggaaaaccapppppp",
"ppppppmmmndffefefji``````hcaaggggggaaaacaapppppp",
"ppppppmmnndfffeffflo````gacaaggggggaaaaacapppppp",
"ppppppnmmmnefjeefffg```gcacaagaggggaaaaaaapppppp",
"ppppppmnmmnefkffefjbo`illacaagggggggaaaaaapppppp",
"ppppppmnmndffjjffjghaggbjbaaagggghgagaccagpppppp",
"ppppppnnndejjjjfjccahgalefcagggggggggaaaaapppppp",
"ppppppddddejkjjjbbklllbjenfbgggghggggaaaagpppppp",
"ppppppeeedfkkjjkllkkcckkedejagggghggggaaagpppppp",
"ppppppeefefkkjjlklkkbcjjkfjflgghggggggagagpppppp",
"ppppppeeffjkkjjklbkkkljefllkjgggghgggggaggpppppp",
"ppppppdfffjjkjjkllkkjlfdjblljcghghgggagggapppppp",
"ppppppkllbbbbbbbcccbbckfbaaacgiiiiiihhihhhpppppp"
};
