#define noname_width 48
#define noname_height 48
static char noname_bits[] = {
 0x00,0x29,0x51,0x48,0x2b,0x01,0x40,0xd2,0x94,0x82,0x54,0x00,0x00,0x29,0x51,
 0x28,0x8b,0x02,0x80,0x54,0x2a,0x82,0x54,0x00,0x00,0x52,0xd1,0x48,0x2b,0x01,
 0x40,0x55,0xfa,0x2f,0x54,0x00,0x00,0x28,0xfd,0xff,0x15,0x01,0x80,0xaa,0xfe,
 0xff,0x4a,0x00,0x80,0x54,0xff,0xff,0x17,0x01,0x40,0x52,0xff,0xff,0xaf,0x00,
 0x00,0xa9,0xff,0xff,0x07,0x01,0x80,0xd4,0xdf,0xff,0xbf,0x00,0x80,0xd2,0xb7,
 0xfa,0x0f,0x01,0x00,0xe9,0x4d,0xfd,0x5f,0x01,0x40,0xea,0x97,0xd4,0x0f,0x02,
 0x00,0xe5,0x57,0xf5,0xbf,0x00,0x80,0xd4,0x2d,0xed,0x0f,0x01,0x40,0xea,0x5f,
 0xdf,0xaf,0x02,0x80,0xf4,0xff,0xff,0x9f,0x00,0x40,0xc9,0xbf,0xff,0x5f,0x02,
 0x00,0xd5,0xff,0xbf,0x57,0x01,0x80,0xe4,0xbf,0xee,0x2f,0x01,0x80,0xaa,0xd5,
 0xda,0xab,0x02,0x00,0xd1,0x9a,0xa5,0x1f,0x01,0x40,0xaa,0x6d,0xd3,0xa5,0x02,
 0x00,0xa5,0xfd,0xed,0x5b,0x01,0x40,0xaa,0xff,0xf7,0x97,0x02,0x80,0x52,0xff,
 0xdf,0x55,0x01,0x80,0x54,0xbf,0xff,0x55,0x02,0x80,0x2a,0xff,0xdd,0xa9,0x02,
 0x80,0x52,0xff,0xff,0x58,0x01,0x40,0xaa,0xbc,0x7e,0xa0,0x02,0x80,0xaa,0xfe,
 0x3f,0x80,0x02,0x40,0x55,0xf5,0x3f,0x00,0x00,0x80,0xaa,0xf2,0x0f,0x00,0x00,
 0x40,0x55,0xf1,0x0f,0x00,0x00,0x80,0xaa,0xf8,0x07,0x00,0x00,0x40,0x55,0xe4,
 0x13,0x00,0x00,0x80,0x2a,0xf0,0xaa,0x00,0x00,0x80,0x2a,0x70,0x08,0x00,0x00,
 0x40,0x15,0x28,0x03,0x00,0x00,0x80,0x0a,0x08,0x00,0x00,0x00,0x40,0x05,0x00,
 0x00,0x00,0x00,0x80,0x02,0x00,0x00,0x00,0x00,0x40,0x01,0x00,0x00,0x00,0x00,
 0x80,0x82,0x00,0x00,0x00,0x00,0x40,0x01,0x00,0x00,0x00,0x00,0xc0,0x49,0x25,
 0x49,0x04,0x00};
