#define face_width 48
#define face_height 48
static unsigned char face_bits[] = {
 0x00,0x00,0x80,0x00,0x00,0x00,0x00,0x00,0xf0,0x0f,0x00,0x00,0x00,0x00,0xfc,
 0x3f,0x00,0x00,0x00,0x00,0xff,0xfe,0x00,0x00,0x00,0x80,0xbf,0x77,0x00,0x00,
 0x00,0xc0,0xfb,0xff,0x01,0x00,0x00,0xe0,0xfe,0xdf,0x03,0x00,0x00,0xe0,0x7f,
 0xfb,0x03,0x00,0x00,0xf8,0xf7,0xff,0x07,0x00,0x00,0x70,0xdd,0x6f,0x07,0x00,
 0x00,0xb8,0x7d,0xff,0x07,0x00,0x00,0xe8,0x50,0xd5,0x0d,0x00,0x00,0x38,0x80,
 0xa8,0x07,0x00,0x00,0xb8,0x22,0xa2,0x0f,0x00,0x00,0x38,0x80,0xc8,0x07,0x00,
 0x00,0x74,0x09,0xa0,0x06,0x00,0x00,0x98,0x2a,0xdd,0x07,0x00,0x00,0xb0,0x04,
 0x62,0x07,0x00,0x00,0x30,0x55,0xda,0x05,0x00,0x00,0x40,0x88,0x62,0x03,0x00,
 0x00,0x30,0x24,0x95,0x03,0x00,0x00,0x00,0x01,0xa5,0x02,0x00,0x00,0x20,0x90,
 0x4a,0x03,0x00,0x00,0x00,0x04,0x45,0x01,0x00,0x00,0x40,0x50,0x95,0x02,0x00,
 0x00,0x00,0xa0,0x86,0x00,0x00,0x00,0x40,0x5a,0x6d,0x00,0x00,0x00,0x00,0x24,
 0x1b,0x00,0x00,0x00,0x80,0x90,0x6a,0x00,0x00,0x00,0x00,0x40,0x44,0x00,0x00,
 0x00,0x00,0x85,0x3a,0x00,0x00,0x00,0x00,0x20,0x64,0x00,0x00,0x00,0xc0,0x8a,
 0xba,0x01,0x00,0x00,0xe0,0xa9,0xde,0x07,0x00,0x00,0x38,0x90,0xaa,0x0f,0x00,
 0x00,0xf4,0x24,0x4a,0x1b,0x00,0x30,0x3a,0x80,0xd2,0x7f,0x02,0xe0,0x7f,0x31,
 0x49,0xff,0x0f,0xf0,0xff,0x80,0xd2,0xf7,0x05,0xa0,0xdb,0x12,0xc8,0xbf,0x0f,
 0xf0,0xff,0x43,0xf2,0xfe,0x07,0xe0,0xfe,0x5f,0xfd,0xff,0x0b,0xf0,0xb7,0xff,
 0xdf,0xdf,0x07,0xa0,0xff,0xfb,0xff,0xff,0x0e,0xf0,0xfd,0xfe,0xff,0xff,0x07,
 0xe0,0xdf,0xff,0xff,0xbf,0x07,0xf0,0xf7,0xff,0xff,0xff,0x05,0xe0,0xfe,0xff,
 0xff,0xfe,0x0f};
