/* XPM */
static char *noname_xpm[] = {
/* width height ncolors chars_per_pixel */
"48 48 17 1",
/* colors */
"` c black",
"a c grey33",
"b c grey47",
"c c grey40",
"d c grey87",
"e c grey80",
"f c grey73",
"g c grey27",
"h c grey20",
"i c grey13",
"j c grey67",
"k c grey60",
"l c grey53",
"m c white",
"n c grey93",
"o c grey7",
"p s None c None",
/* pixels */
"ppppppddffeeeedeennddddejjfedefeddeefeedddpppppp",
"ppppppdeeffeedddennddddejjfdeeeeddeefeedddpppppp",
"ppppppdeffeeeedeennddndfjjeedeeedddeeeddddpppppp",
"ppppppdeeffeededennddddejfedddeendeeeeddndpppppp",
"ppppppeeeffeededdnnddenejjeeeeeddndeeeddddpppppp",
"ppppppdefffeeeedennnfkkjlljkjjddndddeddnddpppppp",
"ppppppeefffeeedejjklcahhclablkdfdndeeeddddpppppp",
"ppppppdefffeeeejlgiooiooo`ocghkcfddddddnndpppppp",
"ppppppeefffeeekcchoioo``i``i``hgcfddddddddpppppp",
"ppppppeefffeeeaoio`````````o``oghgfdddndndpppppp",
"ppppppeefffeejo````````````````o``lddddnddpppppp",
"ppppppeefffeel```````````````o````gdddnddepppppp",
"ppppppfffjfeec```hiooihhhoigago```iendddefpppppp",
"ppppppeffffefh``icccbcbllbkklbh````jdedeeepppppp",
"ppppppfffjffjo``ckjeeeeeedefjbao```befefefpppppp",
"ppppppeffffec``iljeennmmmmdejlci```geeeeefpppppp",
"ppppppeffjffa``hljenmmmmmmnejlbi```gfedeejpppppp",
"ppppppefjjffg``hlkennmmmmmdejkch```ojddefjpppppp",
"ppppppfffjfec``gkjednmmmmndfjkbh````jeeffjpppppp",
"ppppppefjfffb``akjfdmmmmmneejlbh```ijefejkpppppp",
"ppppppfffjffl``ckjednnnnmndfjlbg```leeeffkpppppp",
"ppppppefjfffa`ockfeeedddeedefbcao``jeeefjkpppppp",
"ppppppeffjffaoibblkbljffkbbllccai`ileeffjkpppppp",
"ppppppffjjfflgibahiohbdfahhggacci`hcfeffkkpppppp",
"ppppppffjjfffailkljjkldjbkklbkkcohihjffjklpppppp",
"ppppppfjjjfffboljeffekdlkjfffjlg`oiikffjklpppppp",
"ppppppffjjjfflibfdddejekjeedefbgoogbjfjkklpppppp",
"ppppppfjjjjffaibjeddkjfkledndkbgo`afffjkklpppppp",
"ppppppffjkjfjgialjjbljdllblfjlah``bfjfjkkbpppppp",
"ppppppfjjjjjjaogabaagclggcabbahh``ajjjjklbpppppp",
"ppppppfjkjjjja`ihghhiihoighhchao``ajjjkklbpppppp",
"ppppppfjkkjjjb``ih`oiiahio`ichio``gjjjkllbpppppp",
"ppppppjjkkkjkb```ooahabbgigoio````hbbllkbcpppppp",
"ppppppjjkkjkjko```occbllaag```````````ocklpppppp",
"ppppppjkkkkkkki````accccaai`````````ooogblpppppp",
"ppppppjkklkkkkc````hghohgh```````````ghgccpppppp",
"ppppppjkklkkkklo````oiio`````````````ggggcpppppp",
"ppppppkkklkkkkka`````o`````````````o`hgohgpppppp",
"ppppppkkllklkkkbo````````````````````hgoihpppppp",
"ppppppkklllkklbg`````````````````````ghoihpppppp",
"ppppppkkllllcghooh``````````````````oi`iiopppppp",
"ppppppkllbcgiii`glgo````````````````o``ioopppppp",
"ppppppkbcahioo`olkci``````````````````oioopppppp",
"ppppppbghiiooo`gkkbg```ogh`````````o``oho`pppppp",
"ppppppho`oooo``kjklg```cki```````o````io``pppppp",
"ppppppo``oo`o`ifjfl```gjc`````````````io``pppppp",
"pppppp``oo`o``cffko```hkh`````````````io``pppppp",
"pppppp````````bkkh````oc``````````````o```pppppp"
};
