#define face_width 48
#define face_height 48
static char face_bits[] = {
   0x00, 0x00, 0x08, 0x00, 0x00, 0x00, 0x00, 0x00, 0xbe, 0x0f, 0x00, 0x00,
   0x00, 0xc0, 0xff, 0x3f, 0x00, 0x00, 0x00, 0xc0, 0xff, 0xff, 0x00, 0x00,
   0x00, 0xf0, 0xff, 0xff, 0x01, 0x00, 0x00, 0xf0, 0xff, 0xff, 0x03, 0x00,
   0x00, 0xf8, 0xff, 0xff, 0x07, 0x00, 0x00, 0xfc, 0xff, 0xff, 0x0f, 0x00,
   0x00, 0xfc, 0xff, 0xff, 0x0f, 0x00, 0x00, 0xfc, 0xff, 0xff, 0x0f, 0x00,
   0x00, 0xfc, 0xff, 0xff, 0x1f, 0x00, 0x00, 0xfc, 0xff, 0xff, 0x3f, 0x00,
   0x00, 0xfc, 0xc2, 0xff, 0x3f, 0x00, 0x00, 0x78, 0x00, 0xfc, 0x3f, 0x00,
   0x00, 0x78, 0x01, 0xff, 0x3f, 0x00, 0x00, 0xf0, 0x26, 0xf1, 0x1f, 0x00,
   0x00, 0x40, 0x82, 0xfe, 0x3f, 0x00, 0x00, 0x00, 0x4d, 0xe8, 0x1b, 0x00,
   0x00, 0x00, 0xc0, 0xd0, 0x0f, 0x00, 0x00, 0x80, 0x80, 0xe4, 0x03, 0x00,
   0x00, 0x00, 0xe8, 0xf0, 0x07, 0x00, 0x00, 0x00, 0x80, 0xe1, 0x03, 0x00,
   0x00, 0x80, 0x40, 0xf9, 0x01, 0x00, 0x00, 0x00, 0x08, 0x60, 0x00, 0x00,
   0x00, 0x00, 0x40, 0x6b, 0x00, 0x00, 0x00, 0x00, 0xa9, 0x73, 0x00, 0x00,
   0x00, 0x00, 0x40, 0x68, 0x00, 0x00, 0x00, 0x00, 0x88, 0x72, 0x00, 0x00,
   0x00, 0x00, 0x00, 0x7c, 0x00, 0x00, 0x00, 0x00, 0x40, 0xfa, 0x00, 0x00,
   0x00, 0x00, 0x10, 0xff, 0x01, 0x00, 0x00, 0x00, 0x80, 0x88, 0x03, 0x00,
   0x00, 0x00, 0x00, 0x62, 0x05, 0x00, 0x00, 0x00, 0x50, 0x00, 0x01, 0x00,
   0x00, 0x80, 0x00, 0x55, 0x00, 0x00, 0x00, 0x00, 0x30, 0x00, 0x80, 0x00,
   0x00, 0x00, 0x80, 0x00, 0x00, 0x08, 0x00, 0x00, 0x21, 0x04, 0x00, 0x00,
   0x00, 0x08, 0x00, 0x00, 0x00, 0x00, 0x00, 0x00, 0x00, 0x00, 0x00, 0x00,
   0x00, 0x00, 0x00, 0x00, 0x00, 0x00, 0x80, 0x00, 0x00, 0x00, 0x00, 0x00,
   0x00, 0x00, 0x00, 0x00, 0x00, 0x00, 0x00, 0x04, 0x00, 0x00, 0x00, 0x00,
   0x00, 0x20, 0x00, 0x00, 0x00, 0x00, 0x20, 0x00, 0x00, 0x00, 0x00, 0x00,
   0x00, 0x01, 0x00, 0x00, 0x00, 0x00, 0x10, 0x00, 0x00, 0x00, 0x00, 0x00};
