/* XPM */
static char *noname_xpm[] = {
/* width height ncolors chars_per_pixel */
"48 48 17 1",
/* colors */
"` c black",
"a c grey33",
"b c grey47",
"c c grey40",
"d c grey87",
"e c grey80",
"f c grey73",
"g c grey27",
"h c grey20",
"i c grey13",
"j c grey67",
"k c grey60",
"l c grey53",
"m c white",
"n c grey93",
"o c grey7",
"p s None c None",
/* pixels */
"ppppppmmmmmmmmmmmmecacbkekcacdnmmmmmmmmmmmpppppp",
"ppppppmmmmmmmmmmmjaaggablkaagkfldmmmmmmmmmpppppp",
"ppppppmmmmmmmmmmlagggagacbcaalkbcdmmmmmmmmpppppp",
"ppppppmmmmmmmmmkggggggaaaagcclahgcdmmmmmmmpppppp",
"ppppppmmmmmmmmfghgghhhhghhgacghhhhbnmmmmmmpppppp",
"ppppppmmmmmmmdahhhhihihihhgghihiiiglmmmmmmpppppp",
"ppppppmmmmmmnbhhhhhiiiiihgcaghihihhglmmmmmpppppp",
"ppppppmmmmmmlhhiiihiiiihgckblahihihhgjmmmmpppppp",
"ppppppmmmmmehiiiiiiiiihgclfljbhhhhhhhbnmmmpppppp",
"ppppppmmmmmaioioiiiiihgbbjffdkghhhhghhjmmmpppppp",
"ppppppmmmmfiioooooiihgbkfeenmjghihhiihgmmmpppppp",
"ppppppmmmmciooooooihglennnnmmfaiiiiiiiifmmpppppp",
"ppppppmmmegoooooiihljnmmmmnmmeciiiooooilmmpppppp",
"ppppppmmmjcioooiigbkdnmmmmmmmnlahoooooibmmpppppp",
"ppppppmmmflioooiaiihhcldmmneklbbcioooooammpppppp",
"ppppppmmnllooooooiooioohacgiioioogioooohempppppp",
"ppppppmmnlhooooiiiooioiogioooioioioooooijmpppppp",
"ppppppmmeaoooooahiooioohdbiiiooiigoooooicmpppppp",
"ppppppmjlgoooooacioooiikmnioooiiikoooiooanpppppp",
"ppppppnfciooooocfaiiihlnmmkioiohcfioiooihfpppppp",
"ppppppeahoooooocendefdedmmmkahaknkoooooohlpppppp",
"ppppppbaioo`ooocfnmmnjfjdnnnmmmmmboooooiicpppppp",
"ppppppebiioo`oobfeddjejkjffddmmmmaooo`oiiapppppp",
"ppppppnkhoo`ooocjjfeeenmmmmmnnmnnhoooooihgpppppp",
"ppppppmehoo`ooocffffkjjjeednnndddioooioihgpppppp",
"ppppppnlo`o`oooajffjclededfbknmmfoooooiiigpppppp",
"ppppppego`o`ooohkjfffjednneedmmdb`ooioioihpppppp",
"ppppppcoo``o`ooocjjfefdnnnnnmndfi`ooiiioiipppppp",
"ppppppgo```oooooibkfeefjjenmnejgoo`ooiiooopppppp",
"ppppppio`o`o``oo`ickedndnnmmdkg``o`oooiooopppppp",
"ppppppo```o`oo````ickfdnmmmelgo``o`o`oioo`pppppp",
"ppppppoo`o```ooo``iaalkffefbcho``o```oooo`pppppp",
"pppppp````````````iabcccblllch``oo`o`oooo`pppppp",
"pppppp`o``oo`o````iabllkkjjbah```o```oooo`pppppp",
"pppppp``````o`````igbkjfffkbah``oo``oooo``pppppp",
"pppppp`````o`````oigblkjjjkbaho``o````o`oopppppp",
"pppppp```````````oiaclljjjkbcgoo`o```oo`o`pppppp",
"pppppp```````o```ohgblkjjkkbcgio`o````o`oopppppp",
"pppppp``````````oohgbbkkkjlbcahioo```o````pppppp",
"pppppp````````oohaacbkkjfjjkjkacgoi``o`o``pppppp",
"pppppp``````oooiabkkjjjffffffjbkchho`ooo`opppppp",
"pppppp```oiiohhgckkjedededdfjjblbahoohhiiipppppp",
"pppppp`oogchicbbfeeeeedeededdejkkchihghaagpppppp",
"ppppppoiabbghlkjdmmmmmmmmmmmmmmdfchcaghhcgpppppp",
"ppppppogkjbbakeddmmmmmmmmmmmmmmmdabdjcghhapppppp",
"ppppppgjdfjjcjnddmmmmmmmmmmmmmmmncnmdjlcbapppppp",
"ppppppkdeddebemdnmmmmmmmmmmmmmmmnkmmedfbllpppppp",
"pppppplkffjlgjekffeeeeeeeeeeeeeeeljjjffjghpppppp"
};
