/* XPM */
static char *noname_xpm[] = {
/* width height ncolors chars_per_pixel */
"48 48 17 1",
/* colors */
"` c black",
"a c grey33",
"b c grey47",
"c c grey40",
"d c grey87",
"e c grey80",
"f c grey73",
"g c grey27",
"h c grey20",
"i c grey13",
"j c grey67",
"k c grey60",
"l c grey53",
"m c white",
"n c grey93",
"o c grey7",
"p s None c None",
/* pixels */
"ppppppkkllllkkkklkjkkkkbcblklllkkllllkkjkkpppppp",
"ppppppkkbllllkkklkjkkklbcblklllkklkllkkjkkpppppp",
"ppppppklllllkkkklklkkkjlkkbklllkkkklkkjjkkpppppp",
"ppppppkklllklkkkblccbcljkcigbklkjkkkkkjkjkpppppp",
"ppppppkllbllkkklchiohcagahi`oalkkkkkkjkjkjpppppp",
"ppppppkllllllkkco```iho`oo````gkjkkkkkjjjkpppppp",
"ppppppklbllklklh``````````````ialjkkkkjjkjpppppp",
"ppppppkllllllbh```````````o`````hlkkkjjjjjpppppp",
"ppppppklbllllh``````````oohho````ikkkjjjkkpppppp",
"ppppppkllbllbo````````ogaccaho````gkjjjjjkpppppp",
"ppppppklllllb`````oiggbkjjkcgi````okkjjjjkpppppp",
"ppppppkllblkb```ihglkjfeefklago````bjjjjklpppppp",
"ppppppllblllg``oackjfeedefklbgi````bjjjjklpppppp",
"ppppppllbbllh``ialkjfedeejklbaho```bkkjkklpppppp",
"ppppppkbblllh``icljjffeeefjlbaho```ckjkkkbpppppp",
"ppppppllbbllg``hclkfeeedeejbcaho```bkjjklbpppppp",
"ppppppklblllc``hacbljfefflhhhhhh```cjjjkkbpppppp",
"pppppplbblllb``ghhgggbjflagagghho`icjjkklcpppppp",
"ppppppklbllklo`gghi`igkjagaiiigah`gckkklbbpppppp",
"pppppplbbllklhoaahaccbbkabbbbccahigcklklbcpppppp",
"ppppppllblllkaicbblljbblabkkkllchhgbkkklbcpppppp",
"ppppppllbllkkcgcljffjblkacjeekbchhgbkkklbcpppppp",
"ppppppllbbllkbgaljefkckjaabkfkbaghalkkllbcpppppp",
"pppppplbblllllaabkflahgaooaalkcchhbkkklbccpppppp",
"pppppplbbblkklcgalbho```````ibabgaklkllbcapppppp",
"pppppplbbblllklgccg``````````ccbhaklklbbbapppppp",
"pppppplbbbllkkkabch``igblchiglcbgakkllbbcapppppp",
"pppppplbbbllllkccclaghhcahhcclcchhkkklbbcapppppp",
"pppppplbbbbllklbcabccacbccaccbcahhjknkbccapppppp",
"pppppplbbblblkllcaaccaagaacacacghhaknfbccapppppp",
"pppppplbbbbllllllchaacbbbcchgaagggbnefkbaapppppp",
"ppppppbbcbbbllllllaigacbccahhggaacddfjeccgpppppp",
"pppppplbcbbbbllbllbhigcccagihhackddeffdebapppppp",
"ppppppbbccbbblllbkfghihhhiiiogbfnnndeednmnpppppp",
"ppppppbcccbcbbbblecgghiioooiakfdmndeendnmmpppppp",
"ppppppbcccbcbblbelggghhhiihbndjennneddnnmmpppppp",
"ppppppbcccbcbbblmcgihggagggjddejennemddnmnpppppp",
"ppppppbccccccbbkebhohgggacaeeeejjdnddddmmnpppppp",
"ppppppcccccbbbfebfiohaaaaakeeefffddndnmnnmpppppp",
"ppppppbcccclenejcklhgaaaabeffenmefddndnnmmpppppp",
"ppppppccabfnmedjbkkjagaabjfednmndeefdnnmmnpppppp",
"ppppppcbfmmmddejjjkjfcacfednnmnnnddddndmnmpppppp",
"ppppppknnmmndneefjffefcjdnmmnndndddddndnmnpppppp",
"ppppppdmdnmnnnddejffdeednmmnndddddddndnnnnpppppp",
"ppppppmmnnndndmeefjfdednmmndddeedddddndmnnpppppp",
"ppppppmmnnnnddmfeejfeennmmddedddnddnnndmnnpppppp",
"ppppppmnmndddnnfefefddmmmdddeedddddddndnnnpppppp",
"ppppppffffjfjefkkklljffffjkkkkjjkjjjjjffjjpppppp"
};
