#define noname_width 48
#define noname_height 48
static char noname_bits[] = {
 0x00,0x00,0x00,0x01,0x00,0x00,0x00,0x00,0x40,0x21,0x00,0x00,0x00,0x00,0xe8,
 0xae,0x00,0x00,0x00,0x00,0xa8,0xbf,0x02,0x00,0x00,0x00,0xd5,0x76,0x05,0x00,
 0x00,0x40,0xba,0xff,0x03,0x00,0x00,0x40,0x55,0xdb,0x0e,0x00,0x00,0xa0,0xea,
 0xbf,0x2f,0x00,0x00,0x48,0x35,0xf5,0x1a,0x00,0x00,0xa8,0x5a,0xad,0x7e,0x00,
 0x00,0xd4,0x00,0xaa,0x6e,0x00,0x00,0x64,0x92,0x90,0xfa,0x00,0x00,0x54,0x01,
 0xa2,0xfe,0x00,0x40,0xb8,0x00,0x08,0xb5,0x00,0x00,0x36,0x82,0x60,0xfd,0x00,
 0x00,0xd8,0x20,0x8a,0xda,0x01,0x00,0x3e,0x81,0x50,0x7d,0x00,0x00,0xaa,0x04,
 0x84,0xf6,0x01,0x00,0x7c,0x52,0xa9,0xfa,0x01,0x00,0x3a,0xad,0x54,0xdd,0x01,
 0x00,0xec,0xb6,0xbf,0xfa,0x02,0x00,0x70,0x7d,0x6d,0xff,0x00,0x00,0x58,0xad,
 0xbb,0x5d,0x00,0x00,0x61,0xb5,0xd6,0xf6,0x00,0x00,0x70,0x55,0x2d,0x5d,0x00,
 0x00,0x44,0x35,0xd6,0xb6,0x00,0x00,0xb1,0x5a,0xab,0x2e,0x02,0x00,0x40,0x2d,
 0x5d,0x3b,0x00,0x00,0x60,0xb5,0x6b,0x8d,0x00,0x40,0x52,0xeb,0x5e,0x7f,0x00,
 0x00,0xe0,0xbe,0xf7,0xfe,0x02,0x00,0xd2,0xed,0xbf,0xff,0x01,0x80,0xe0,0xbe,
 0x7a,0xbf,0x03,0x80,0xde,0xad,0xad,0xff,0x03,0xc0,0xed,0x6b,0xdb,0xf7,0x02,
 0x40,0xff,0xd7,0xf6,0xff,0x03,0xc0,0xdd,0xaf,0xfa,0xff,0x03,0x40,0x7f,0x5f,
 0xd5,0xff,0x02,0xc0,0xfd,0xbb,0xff,0xff,0x03,0x40,0xb7,0xff,0xff,0x7f,0x03,
 0xc0,0xff,0xff,0xfe,0xdf,0x01,0xc0,0xfd,0xfd,0xff,0xff,0x03,0x40,0xdf,0xff,
 0xff,0x5f,0x03,0xc0,0x7b,0xef,0xff,0xff,0x02,0xc0,0xfd,0xff,0xff,0xf7,0x03,
 0xc0,0xbf,0xfb,0xff,0xbf,0x02,0x40,0xfb,0xde,0xff,0xf6,0x01,0xc0,0xff,0xff,
 0xfd,0x7f,0x03};
