/* XPM */
static const char * mic_xpm[] = {
"32 32 4 1",
" 	c none",
".	c #000000000000",
"X	c #FFFFFFFFFFFF",
"o	c #7DF77DF77DF7",
"                                ",
"                      .....     ",
"                    .X.X.X..    ",
"                    X.XX ooo.   ",
"                   ..X. .o.o..  ",
"                   .XX . oooo.  ",
"                   .. . . .o..o ",
"                   .X oo . oo.o ",
"                   ..o.o. . ..o ",
"                  .X.ooooo .ooo ",
"                 .X o..o.o.o.oo ",
"                .X ooo.....ooo  ",
"               .X ooo.oooooooo  ",
"              .X ooo.ooooooo    ",
"             .X ooo.ooo         ",
"            .X ooo.ooo          ",
"           .X ooo.ooo           ",
"          .X ooo.ooo            ",
"         .X ooo.ooo             ",
"        .X ooo.ooo              ",
"       .X ooo.ooo               ",
"       . ooo.ooo                ",
"      .o.oo.ooo                 ",
"      .oo..ooo                  ",
"     .o..oooo                   ",
"    .o.ooooo                    ",
"    ..oooo                      ",
"   . ooo                        ",
"  . o                           ",
" . o                            ",
"  o                             ",
"                                "};
