/* XPM */
static const char * tape_xpm[] = {
"32 32 8 1",
" 	c none",
".	c #000000000000",
"X	c #7DF77DF77DF7",
"o	c #8A2875D66595",
"O	c #0000FFFF0000",
"+	c #FFFF00000000",
"@	c #0000FFFF0000",
"'	c #FFFFFFFFFFFF",
"                                ",
"                                ",
"                                ",
"                                ",
"                                ",
"                                ",
" .............................X ",
" .'''''''''''''''''''''''''''.X ",
" .'''''ooooo''''''''ooooo''''.X ",
" .'''oo'''''oo''''oo'''''oo''.X ",
" .''oo'''''''oo''oo'''''''oo'.X ",
" .''o'..'''..'o''o'..'''..'o'.X ",
" .'o''...'...''oo''...'...''o.X ",
" .'o'''..'..'''oo'''..'..'''o.X ",
" .'o'''''.'''''oo'''''.'''''o.X ",
" .'o'''..'..'''oo'''..'..'''o.X ",
" .'o''...'...''oo''...'...''o.X ",
" .''o'..'''..'o''o'..'''..'o'.X ",
" .''oo'''''''oo''oo'''''''oo'.X ",
" .'''oo'''''oo''''oo'''''oo''.X ",
" .'''''ooooo''''''''ooooo''''.X ",
" .''''''''''oooooooo'''''''''.X ",
" .'''''''''''''''''''''O'+'@'.X ",
" .'''..''''''''''''''.'''''''.X ",
" .............................X ",
" XXXXXXXXXXXXXXXXXXXX.XX.XXXXXX ",
"                                ",
"                                ",
"                                ",
"                                ",
"                                ",
"                                "};

