/* XPM */
static char *noname_xpm[] = {
/* width height ncolors chars_per_pixel */
"48 48 16 1",
/* colors */
"` c grey33",
"a c grey47",
"b c grey40",
"c c grey87",
"d c grey80",
"e c grey73",
"f c grey27",
"g c grey20",
"h c grey13",
"i c grey67",
"j c grey60",
"k c grey53",
"l c white",
"m c grey93",
"n c grey7",
"o s None c None",
/* pixels */
"oooooooolllllllllllllllllllllllllllllllloooooooo",
"oooooooolllllllllllllllllllllllllllllllloooooooo",
"oooooooolllllllllllllllllllllllllllllllloooooooo",
"oooooooollllllllllllejkimllllllllllllllloooooooo",
"oooooooolllllllllmeabbbbbdcllllllllllllloooooooo",
"oooooooollllllllckb`````f`bbbjcllllllllloooooooo",
"oooooooolllllllma```bb`fggggf``illlllllloooooooo",
"oooooooolllllllaf```b`gghhhhgf``kllllllloooooooo",
"oooooooolllllljff```fg`fhhhhg```fjlllllloooooooo",
"oooooooollllli`f```fgf`fhghggf``ffkllllloooooooo",
"oooooooolllld`f````gff`fhghfff`ffffelllloooooooo",
"oooooooolllc`f````ffgffhgfgfb`fffgffcllloooooooo",
"oooooooolllkfff`ffgfffgfbbfff`fgggggallloooooooo",
"oooooooollm`fff`fgggffgbkab`gffggggggclloooooooo",
"oooooooolldfgfffggggfg`kkabbfgfggggggilloooooooo",
"oooooooolligfgfgggggffakkkab`gfghghhg`lloooooooo",
"oooooooollkgggfggggggbkkkkkb`gfghhhhggcloooooooo",
"oooooooollagggggghggfakkkkka`ggghhhhhhiloooooooo",
"oooooooollagggfggggg`akkkkkabfgghhhhhhjloooooooo",
"oooooooollifgffgghgfbakkkkkabfgghhhghhjloooooooo",
"oooooooolleggffghhg`bbakkkaab`fghhhghhiloooooooo",
"oooooooollcggbbb```fgf`akab`fggghhhghhdloooooooo",
"oooooooollmffakab`fggffbabfggfffhhhghblloooooooo",
"oooooooolld`faka``fnggfkiaggghggfggghjlloooooooo",
"oooooooollia`kkkka`f`g`kikghgnggf``ggdlloooooooo",
"oooooooollj`fkkkkab`bakjikbf```````fbllloooooooo",
"oooooooolljfbkkjjjkkjjjjjkka```babbf`llloooooooo",
"oooooooolli`akjjjiiijjkjjkkjkkakkabg`mlloooooooo",
"oooooooolldkakjjjjjkakkkkaakjjkkkabfallloooooooo",
"oooooooollmkaakkkkabbabfff`bakkkkabbjllloooooooo",
"oooooooollleaakaa`fkjbfffggaaakkabbaellloooooooo",
"oooooooollllbbaab`akja`gggfkkaaaabbkmllloooooooo",
"oooooooollllebaaa`bkjkbffbakkaabbb`clllloooooooo",
"oooooooollllljaaa`gff`f``baabbbb`bdllllloooooooo",
"oooooooollllleaaabbab`fggggggfbb`jlllllloooooooo",
"oooooooolllllcaaaakabb``b``fgfb``elllllloooooooo",
"oooooooollllllkaaaaaa`fgggfbbb```mlllllloooooooo",
"oooooooolllllljaaaaabb`fff`bb``fkllllllloooooooo",
"oooooooolllllliaaakkkkkaabbbb``fellllllloooooooo",
"oooooooolllllliabakkkkkkkkaa``f`dllllllloooooooo",
"oooooooolllllmiaabaakaabaaab`ff`dllllllloooooooo",
"oooooooolllefgbaabbbb`f`````ff``kclllllloooooooo",
"oooooooolldggnbaaaabfggggggff```g`kdlllloooooooo",
"oooooooojbbhggaaaaaabfggggff````ffbbaimloooooooo",
"oooooooo```ggfaaaaaaabfgffffff`bbf`b`fbdoooooooo",
"oooooooo```ggfaabbaaabffffffff`bbf```fb`oooooooo",
"oooooooo````gfaaabbabbfffffff``bb``````boooooooo",
"ooooooooa`f`fgbabbbbb`fffffff``bb`f```fboooooooo"
};
