/* XPM */
static char *noname_xpm[] = {
/* width height ncolors chars_per_pixel */
"48 48 17 1",
/* colors */
"` c black",
"a c grey33",
"b c grey47",
"c c grey40",
"d c grey87",
"e c grey80",
"f c grey73",
"g c grey27",
"h c grey20",
"i c grey13",
"j c grey67",
"k c grey60",
"l c grey53",
"m c white",
"n c grey93",
"o c grey7",
"p s None c None",
/* pixels */
"pppppplllbllbbbbbcbbbccaagggaggagaggggggggpppppp",
"ppppppllllbbbbbbbbbbbcccaaacaaaaaggaggggggpppppp",
"ppppppklbblbbbbblkkeeffeeeddekaagaggaggaggpppppp",
"ppppppllbbbbbbllfdmndefeedddnnecaaaagaggggpppppp",
"pppppplbbbbbbbbkemnjlkfeekbbkkkfccaaaaggggpppppp",
"pppppplbbbbbbbblenfkjffdefjffjbljbaagagaggpppppp",
"ppppppbbbbcbbbljndfeddnndefjkkllndlaaaggggpppppp",
"ppppppbbbcbbbbkddfednmnmddffkbcbemdcaaaagapppppp",
"ppppppbbccbcbbfdffdnnmmmnddfjlcabnmlaaaagapppppp",
"ppppppbcbbcbclfjjenmmmmmmndfjlcggbfkaaagagpppppp",
"ppppppbcccbbbljkjdnmmmmmmmnejlbggabcgaaagapppppp",
"ppppppccccccccllfemmmmmmmmdejkbgggchihgaagpppppp",
"ppppppcccccccalljdnmmmmmmndefklaahggiiagggpppppp",
"ppppppbccccccgcbjdnmmmmmnnndfkbcaghhiiaaagpppppp",
"ppppppccccccagabkdnmmmmmnnndfkbbcahioocggapppppp",
"ppppppccaaaacgabjdnmmmmnmmndfklbcah```hagapppppp",
"ppppppccaccaahakjendnnddddekbahhago```icgapppppp",
"ppppppcaaaaaaihhhgblllkflcgccio`````iiicggpppppp",
"ppppppcaaaaago`o`iahaagchhhacgi``ooo`i`gagpppppp",
"ppppppacaacagi`oogaggaajhghhhhooohho`oigggpppppp",
"ppppppaaaaaaah`hogaaclleacbbbbagogh`ooogggpppppp",
"ppppppaaaaaaahoaabllkkjflajjkklcihi``oogggpppppp",
"ppppppaaaagaaiigbkjffbfflgbjjkkcihi``oogggpppppp",
"ppppppaaggagghhhckkkllfebgcklklcghho``ogggpppppp",
"ppppppaggaggahgcbkfekcggoialjfjlahioo`ogggpppppp",
"ppppppaagggggagckfflbahhihhlbllchhhoo`oghhpppppp",
"ppppppagggggggaabkkckllbcccccacaghho`ohhggpppppp",
"ppppppagggggaggacbbcbbllkbcggaacchio`ohghhpppppp",
"ppppppggggggggggcbcacblllcghhaclchio``ohghpppppp",
"ppppppgghghghgggclcahooiooiiohckhio````ghhpppppp",
"ppppppggghgggghhabbagcbbllahaabcoi`````ighpppppp",
"ppppppghghghhgghhcbacaaaahgabaah````````bkpppppp",
"ppppppgggghhghghihgcccghiggabago```````ibjpppppp",
"ppppppghhhghghgga`iabaabbbcbci`````````hkkpppppp",
"ppppppghghhhhggkbi`ogbbbcccci``````````iblpppppp",
"ppppppghhhhhhhkkcgo`ogcagghi```````````oakpppppp",
"ppppppghhhhhgjjlbbioo`oioo``````````````gkpppppp",
"ppppppgghhhgkdjklaioihio```oo```````````hlpppppp",
"pppppphhhhaclmnflhio`iihhgago```````````ocpppppp",
"ppppppgghachlnmnfiighigfflao````````````oapppppp",
"ppppppgggcgghleenahioi`jlao`````````o```ohpppppp",
"ppppppioahioigdmncaaghibgo```````````````opppppp",
"ppppppo`iooihoamkaaacggg```````````oo`````pppppp",
"ppppppoooohgo`ckaaaaacbo````````o`o```````pppppp",
"ppppppiiihgo`glbcacbclc```````o`oo`oo`````pppppp",
"ppppppioggo`gbkkjljkjlo```````````````````pppppp",
"ppppppoha``cljfndefelo````````o```o`o`````pppppp",
"ppppppoho`hkklljkjlbo``````````o`o````````pppppp"
};
