/* XPM */
static char *noname_xpm[] = {
/* width height ncolors chars_per_pixel */
"48 48 17 1",
/* colors */
"` c black",
"a c grey33",
"b c grey47",
"c c grey40",
"d c grey87",
"e c grey80",
"f c grey73",
"g c grey27",
"h c grey20",
"i c grey13",
"j c grey67",
"k c grey60",
"l c grey53",
"m c white",
"n c grey93",
"o c grey7",
"p s None c None",
/* pixels */
"ppppppbcccbcbbbbbbbcbblbbllllllllklllkkkkkpppppp",
"ppppppbbcbcbcbcbccbbbbccccbblkkklllkkklkkkpppppp",
"ppppppccccbcbbcccablcagagagcbkllllklkkkkkkpppppp",
"ppppppbbcbcbccbaaaaaghhgihhalkllkllklklkkkpppppp",
"ppppppcccccbcbahiighooiihghggcjeklkllkkkkkpppppp",
"ppppppbcbccccch`ooooohgaaaggacckjlllklkkkkpppppp",
"ppppppcccccbch`````ohaacbbacklkljjkklkklkkpppppp",
"ppppppbcccccao````ohacccbbbaljbljelkkkkkkkpppppp",
"ppppppcbccbch````oiaccblkllccblkkkbblkkkkkpppppp",
"ppppppbcccca`````igacbbkkkkbbllkbcagklkkkkpppppp",
"ppppppbcccch````ohgacbllkjjklkllcihgbkkkkkpppppp",
"ppppppcccba`````hggccblkjjffjkklbh`hcklkkkpppppp",
"ppppppcccch````ihggcbbkjfeeeffjkba`oclklkkpppppp",
"ppppppcccc`````hhggcllkjeeedeffjlcooalklllpppppp",
"ppppppcccg````ihgggclkkjfeedeefjkbi`gbklklpppppp",
"ppppppcccg````ohhgaclkkjfeeeefjjklh`gllklkpppppp",
"ppppppccci````ihhggblkjjfeeddefjklg`hllklkpppppp",
"ppppppcca`````ogggaclkjfeedndeffklg`glklklpppppp",
"ppppppccco````igggaaccbkeeeeeeefkkg`blllllpppppp",
"ppppppbccho```hhgghhhhhhgclkjefjklgillllllpppppp",
"ppppppcccio``ogghhhhihhhiohchhigglaallllllpppppp",
"ppppppbcahio`ohaahoo`ohihigjghhgghhhllllllpppppp",
"ppppppccghio`ihgcciigabcghckgio`ihhgblllllpppppp",
"ppppppbcihio`ihgcbagaacbagljgaaaihhgklllllpppppp",
"ppppppcciihoohhhaccbblbcgbkfaccagghgblllllpppppp",
"ppppppcciohoohhgaacccbbccbkjbabccggclbllllpppppp",
"ppppppch``h`oghgaabkfeflbblfbccbbaabllllblpppppp",
"ppppppco``i`iggaaabkffkaaalkbljlccbblbbllbpppppp",
"ppppppa```ooihhaaaclkkjcgohacljjkcablblllbpppppp",
"ppppppcho`o`ihgaaacbbljkahhhbbbklaabblblllpppppp",
"ppppppcchoooihhacccaccbcaaggabaccgcbbblblbpppppp",
"ppppppbccai`ohgacclbhggcaagggagaggcblbblblpppppp",
"ppppppcbblaooihacblbhhiioioihhccggbbbllbllpppppp",
"ppppppblklkgooihaabcacccllbagabcgabbbbblblpppppp",
"ppppppbfjkkkgoohhgagcccacccccgagicbbbblblbpppppp",
"ppppppjfejjjlioihhhgaaaaaggaaghigcbbbbblblpppppp",
"ppppppenneffjciihihhaacaagggghoicbcbbbbblbpppppp",
"ppppppmmmneefjghhhigacaccaaghhoaccbbcbbblbpppppp",
"ppppppmmmmneejkhhhihaagaaaagahhlbbcbbbbblbpppppp",
"ppppppmmmmmnnffkhhiihaggghggggbfbbcbcbbbbbpppppp",
"ppppppmmmmmmndfelhioiihihihggccjfccbcbbblbpppppp",
"ppppppmmmmmmmnffeeio`o`o`oihccckebcccbbbbbpppppp",
"ppppppmmmmmmmmdfeddh```o`oigaaabfdkbbcbblbpppppp",
"ppppppmmmmmmmmmfeendgoioihhgbgaldmmebbbblbpppppp",
"ppppppmmmmmmmmmdfeenjaiihhghbggknmmmdbbbbbpppppp",
"ppppppmmmmmmmmmmffejjekggacicaajmmmmmdbbbbpppppp",
"ppppppmmmmmmmmmmdfejkfelacchcccjmmmmmmelbbpppppp",
"ppppppeeeeeeeeeefkkkcllcggghhagcfefefeelcapppppp"
};
