/* XPM */
static char *noname_xpm[] = {
/* width height ncolors chars_per_pixel */
"48 48 17 1",
/* colors */
"` c black",
"a c grey33",
"b c grey47",
"c c grey40",
"d c grey87",
"e c grey80",
"f c grey73",
"g c grey27",
"h c grey20",
"i c grey13",
"j c grey67",
"k c grey60",
"l c grey53",
"m c white",
"n c grey93",
"o c grey7",
"p s None c None",
/* pixels */
"pppppp``````o``o`o``````````````````o`o``opppppp",
"ppppppiiioiiiiiiioo`oiohiihhiiiiiiiiihiihhpppppp",
"ppppppgghhhhghhhhooo```ooooihgghgggagaaaaapppppp",
"ppppppaaaaaaggii`o``````````ohccccccbbbbblpppppp",
"ppppppbbcccahoo``````````````icbllklklkkkjpppppp",
"ppppppllbbho`o````````````````hbkkjkjjjjffpppppp",
"ppppppkllh```````````````````o`ocjjjjjffeepppppp",
"ppppppkkbi`````````````````ohhi`gjjfffffeepppppp",
"ppppppkla``````````ohagioigckjkaajfjffffeepppppp",
"ppppppka``````````oajeeeffddnmmecgfjffffeepppppp",
"ppppppki````````iiakfnnmmmmmmmmmjibfffeeedpppppp",
"ppppppc````````ogcljenmmmmmmmmmmdogjffefeepppppp",
"ppppppg````````ogclffemmmmmmmmmmnaokkefeeepppppp",
"ppppppg````````ogclffenmmmmmmmmmmk`cjfefeepppppp",
"ppppppa`````````galfedmmmmmmmmmmmj`cffffeepppppp",
"ppppppc`````````hcbjenmmmmmmmmmmme`akfefeepppppp",
"ppppppb````````ogabkenmmmmmmmmmmmnigbfffeepppppp",
"ppppppl````````igacckkfnmmmmmmmndjailjfffepppppp",
"ppppppbo```````ggghiooickfeeejklchhhjjjjffpppppp",
"pppppplhhi````iggioiiiobcbbfbhhabligbjjjjjpppppp",
"pppppplhhh````oioiio`iiiihgjbi`igagchkjkjjpppppp",
"ppppppbgaah```ggghoooiaghigjahiiiiahgkkjkjpppppp",
"ppppppbacaai``gacchhgabcghcmeccccachhkkkkkpppppp",
"ppppppbcchigoiaabccccblcgglnnblbbccockkkkkpppppp",
"ppppppbccgaahhgaabacbkkcgclnmjlkkbaobkkkkkpppppp",
"pppppplccaaaghgaaccblkkcabldmfblllgbkkkkkkpppppp",
"pppppplccacahhggacljedjabklnmdbleefflkkkkkpppppp",
"pppppplbcbcahhhgacljfjlaacbemdjafnejlkkklkpppppp",
"ppppppblbabahghgaacblbcahoickkkaajfkllklllpppppp",
"ppppppblbiiihhhgaacbcaaggghallbbglklllklllpppppp",
"ppppppblbiiihhhhacbbaggcbljddjlaaklbllllklpppppp",
"ppppppbbbihhhhhhacbkbhohgabklgcjbkblllllllpppppp",
"ppppppblbihgghhhaacfjlhohhckbgfekblblbllllpppppp",
"ppppppblcihghhhhgcajfjlcbbkjjjeelbbbllllllpppppp",
"ppppppbchhhhghhhhaalfjlbkjedefeecbblblbllbpppppp",
"pppppplgggghghhhigacjkkbcbblkfelbbbbbbbblbpppppp",
"pppppplgaggggghihhggckjjjllkfffcbbbbblbbblpppppp",
"ppppppcaaaaagghhiihggbjfeeeedfkcbcbbbbblbbpppppp",
"ppppppbccccaaghhiiihigbjfeddfjcbbcbbbbbbbbpppppp",
"ppppppclllbbaaghiioiiihcbljjlbcbcbcbcbbblbpppppp",
"ppppppcckllbccahhioooooihgaaaaccbbcbbbbbbbpppppp",
"ppppppkcckklbcaghiooo`oo`ooigcbcbcbbcbbbbbpppppp",
"ppppppjjlckklbcagioo`o``oogccccccbcbcbbbbbpppppp",
"ppppppkjkblklbbcahiiooooogccbcccbccbcbbbbbpppppp",
"ppppppljkjlkklbccahhhhhhacccccccccbbcbbbbbpppppp",
"ppppppljjjlclklbcccggggabbccccbcccccbbbbbbpppppp",
"ppppppklkbcbbkklbccaaagaclbcccccccbbcbbbbbpppppp",
"ppppppbaggcbbgccaggggiihaaagggggggggagaagapppppp"
};
