#define noname_width 48
#define noname_height 48
static char noname_bits[] = {
 0x50,0x25,0xb5,0x54,0x55,0x0b,0x48,0xd2,0xff,0x4b,0xaa,0x04,0x50,0x6d,0xfd,
 0xaa,0xa4,0x0a,0x28,0xf9,0xd7,0xaf,0xaa,0x0a,0x50,0x5d,0xfd,0x5f,0x55,0x05,
 0xa8,0xfe,0xbf,0x7e,0xaa,0x0a,0x90,0xff,0x76,0xad,0xaa,0x0a,0x50,0xdf,0x9d,
 0xf8,0x55,0x05,0xa8,0xff,0x2a,0xb2,0x95,0x0a,0xc8,0xff,0x0b,0xe4,0x57,0x05,
 0xd0,0x5f,0x85,0x50,0x2b,0x05,0xe8,0xff,0x00,0xc4,0x97,0x0a,0xd0,0x17,0x00,
 0xd0,0xab,0x0a,0xe8,0x2f,0x01,0xa4,0x4f,0x05,0xf0,0x15,0x00,0xc1,0xa7,0x0a,
 0xe8,0x4b,0x09,0xa0,0x57,0x05,0xf0,0x0b,0x00,0xc4,0x4f,0x0a,0xe8,0xab,0x00,
 0x90,0x57,0x05,0xf0,0x15,0x24,0xa5,0xaf,0x0a,0xd0,0x57,0x89,0x2e,0x4f,0x05,
 0xe8,0xbd,0xe2,0x59,0x93,0x0a,0xe8,0xef,0xab,0x26,0x57,0x05,0xd0,0xff,0xc2,
 0x96,0xaa,0x04,0xd0,0xfb,0x87,0x2a,0xa7,0x0a,0xe8,0x2d,0x12,0x80,0x92,0x02,
 0x90,0x7f,0x05,0x15,0xa7,0x0a,0xe8,0x25,0x25,0x40,0xab,0x0a,0x90,0x57,0x02,
 0x80,0xa2,0x04,0xa8,0x85,0x52,0x28,0x2b,0x05,0xa8,0x2f,0x85,0x80,0xaa,0x0a,
 0x50,0xab,0x12,0xa9,0x52,0x05,0x50,0x2f,0x7f,0x42,0xab,0x04,0xa8,0xab,0x2f,
 0xa8,0x4a,0x05,0x50,0x5e,0xd5,0x25,0xab,0x0a,0xa8,0xd6,0x3f,0xa5,0xa9,0x02,
 0xa8,0x7e,0xd5,0x55,0x55,0x0a,0x50,0xd5,0xaf,0xd6,0xa9,0x0a,0x68,0xfd,0x57,
 0xb5,0x4a,0x05,0x50,0xbd,0xba,0xde,0xaa,0x0a,0xa8,0xfa,0xaf,0x7a,0x55,0x05,
 0xd0,0xfa,0xaa,0x7f,0xa9,0x0a,0xa8,0xfa,0xdb,0xfe,0xaa,0x0a,0x50,0x7d,0x6d,
 0x1f,0x55,0x05,0xa8,0xf5,0xff,0xff,0xaa,0x0a,0x50,0xfd,0xfd,0x0f,0x54,0x05,
 0x68,0xd5,0xef,0xef,0xa8,0x0a,0xa8,0xfa,0xff,0x17,0x50,0x0d,0x50,0xb5,0xff,
 0xab,0xa0,0x06};
