#define noname_width 48
#define noname_height 48
static char noname_bits[] = {
 0x00,0x8a,0x44,0x11,0x00,0x00,0x80,0x52,0xb2,0x88,0x2a,0x01,0x00,0x55,0x7d,
 0x2b,0x00,0x00,0x80,0x88,0xbe,0xf8,0x92,0x00,0x00,0xd5,0x6b,0xd5,0x00,0x00,
 0x80,0xe4,0xdf,0xf7,0x2d,0x01,0x00,0xf5,0xff,0x5e,0x03,0x00,0x00,0xf2,0xff,
 0xed,0xbf,0x00,0x80,0xfc,0xbb,0xb7,0x12,0x00,0x00,0xfa,0x5f,0x3d,0xad,0x00,
 0x80,0xfe,0xd6,0x92,0x36,0x02,0x00,0xfe,0x55,0x0b,0xdc,0x00,0x80,0xfe,0xa3,
 0x10,0x78,0x00,0x00,0xfe,0x0a,0x82,0xa8,0x00,0x80,0xfe,0x25,0x00,0xf4,0x00,
 0x00,0xff,0x02,0x00,0xb0,0x00,0x00,0xff,0x8a,0x08,0x74,0x02,0x00,0xff,0x25,
 0x00,0xf1,0x00,0x80,0xbf,0x2a,0x49,0x3c,0x00,0x80,0x7e,0xfd,0x92,0x75,0x01,
 0x00,0x77,0xab,0x75,0x7b,0x00,0x80,0x6c,0xf5,0xd1,0x5a,0x00,0x00,0xab,0x2a,
 0xe9,0x35,0x01,0x00,0xb6,0x54,0x21,0x55,0x00,0x80,0x4b,0x81,0x44,0x10,0x01,
 0x00,0x76,0x29,0x11,0x54,0x00,0x00,0x97,0x42,0x21,0x91,0x02,0x80,0xd4,0x52,
 0x49,0x24,0x00,0x80,0x5f,0xa5,0x52,0x92,0x00,0x80,0xbf,0xaa,0x5f,0x05,0x01,
 0xc0,0x6f,0xd5,0xaa,0x28,0x00,0xc0,0xbf,0xba,0x5d,0x05,0x01,0xc0,0x7f,0x75,
 0x6b,0xa9,0x00,0xc0,0x7f,0xdb,0xbf,0x04,0x00,0xc0,0xff,0xaa,0x4a,0xa9,0x02,
 0x80,0x7f,0xd7,0xaa,0x12,0x00,0x00,0xff,0xad,0xab,0x44,0x01,0x00,0xfe,0xb7,
 0x54,0x51,0x00,0x00,0xfe,0x2d,0x21,0x85,0x02,0x00,0xfc,0x7f,0xad,0x28,0x00,
 0x00,0xfe,0xef,0x2b,0x45,0x01,0x00,0xf8,0xbf,0x97,0x28,0x00,0x00,0xf8,0xff,
 0x56,0xa2,0x02,0x00,0xf0,0xff,0x1b,0x95,0x00,0x00,0xf0,0xff,0x5d,0x48,0x02,
 0x00,0xa0,0xff,0x7f,0x93,0x00,0x00,0xf0,0xff,0xff,0x44,0x02,0x00,0xe5,0xff,
 0xff,0x35,0x01};
