/* XPM */
static char *noname_xpm[] = {
/* width height ncolors chars_per_pixel */
"48 48 17 1",
/* colors */
"` c black",
"a c grey33",
"b c grey47",
"c c grey40",
"d c grey87",
"e c grey80",
"f c grey73",
"g c grey27",
"h c grey20",
"i c grey13",
"j c grey67",
"k c grey60",
"l c grey53",
"m c white",
"n c grey93",
"o c grey7",
"p s None c None",
/* pixels */
"pppppplllllllllllllllllkklkkkkkkkkkkkkkkkkpppppp",
"ppppppllbbblblllllbbcllkjklkklklkkkkkkkkjkpppppp",
"pppppplblbbblbbbcagcaabllffejkkkkkkkkkkkkkpppppp",
"pppppplbbbbbbbcgiihahgaaggljjjklkkkkkkkkkkpppppp",
"ppppppblblbbbaiiiihciohhhohhckfjkkklkkkkkkpppppp",
"pppppplbbbbbgo`o`oiioioo`o`oihckjlkkkkkkkkpppppp",
"ppppppblblbco````````o``````oihakkklklklkkpppppp",
"ppppppbbbbbg```````````````o`ihakkkkkkkkkkpppppp",
"ppppppbbbbco```````oo`o`o```oihbkkkkllklklpppppp",
"pppppplbba```````ooohhgaghhooohcllkkkklkllpppppp",
"ppppppbbbh```````ihhaclkjlcghgaclblklkllkkpppppp",
"ppppppbbci``````ogabljfedefjllbclbklklklllpppppp",
"ppppppccci``````hcllkeddnddefjlaglklllllllpppppp",
"ppppppccci``````gbbkjfddnddffklaigblllllllpppppp",
"ppppppccch``````gblkkffdedeffklbohalllllllpppppp",
"ppppppbbci``````iclkjfeedeefjjkbiialllllblpppppp",
"ppppppbcbh``````icblkjeeeeeffjjbiohlllblllpppppp",
"ppppppcbch``````ocbljffeeeeffkkko`illllbllpppppp",
"ppppppbcch``````hccbllbbljjkbcblo`gllbllllpppppp",
"ppppppbccgoi```hcagghiiiibjcioihogbllllblbpppppp",
"ppppppcccahhi``gccgio`ghgbjao`oiicblbbbllbpppppp",
"ppppppbccchgio`gblbcacbbbcjcacaahblblblbbbpppppp",
"ppppppcccahggiogcllkklkklbkbbklbcbbbbbbblbpppppp",
"ppppppbccgoaggogablkjjjjlcklbjklbbblbbbblbpppppp",
"ppppppccca`gchohgcbkjjjkbckkblkllbbbbbbbbbpppppp",
"ppppppcccaioag`hgaclkbbbagclaacccbbbbbbbbbpppppp",
"ppppppcccccihhhhhgacccblcgihgagacbbbbbbbbbpppppp",
"ppppppbccccahihhggacbgabblccahgabbbbbbbbbbpppppp",
"ppppppcccbbahhhhgggclchhgaagiaaabbbcbcbcbbpppppp",
"ppppppcccljbgghghgaablbaacaggagcbcbcbcbbcbpppppp",
"ppppppcccbkeekghggaacllbbccaaagcbcbcbcbcbcpppppp",
"ppppppccclfedndcgggaabllbcccchccccccccccccpppppp",
"ppppppcabfdndnmnkagggabkkllccaccbccbccccccpppppp",
"ppppppccacdmmnmmmeagggabblbbgcccccccccccbcpppppp",
"ppppppabjkldmmmmmmeaihhgagggacccccccccccccpppppp",
"ppppppaajdflnmmmmmmdchiihihaccacacacaacaccpppppp",
"ppppppkcaendmmmmmmmmekchihlcaccacaaaacacacpppppp",
"ppppppjfbcdndldmmmmmmeekgadlacacacacaaaaccpppppp",
"ppppppkeebbdbldmmmmmmnnkbkmdcaaaaacaacaccapppppp",
"ppppppbkddbcbededmmmmmnjkdnmlacacaaacacacapppppp",
"ppppppfbjdebkmdldmnmmmkljenmeaaaaaacaaacccpppppp",
"ppppppdfbfdedddedjlmmdjlkedmnccaaaaaacaaaapppppp",
"ppppppjnfedefklbljeddkbaeedndkaaaaaaaaaacapppppp",
"ppppppbeeelccbkkkllkcbckdmnnmeaaaaaaaaaacapppppp",
"ppppppeelackendnndekkefmnfnnmmaaaaaaaaaaacpppppp",
"ppppppjackddddfjkkkjjfknfkemnmlaagagaaaaaapppppp",
"ppppppabfedjkbbbllklllcldmmmmmfaaaaaaaaaaapppppp",
"ppppppalklaggclkjjjklbckeeejfejhhhhhhhhhghpppppp"
};
