#define noname_width 48
#define noname_height 48
static char noname_bits[] = {
 0x80,0xd5,0xff,0xde,0x56,0x01,0x80,0xea,0xbf,0xbf,0xaa,0x02,0x40,0xfd,0xff,
 0xfd,0x5a,0x01,0x80,0xea,0xf7,0xff,0xab,0x02,0x40,0xfd,0xff,0xf7,0x56,0x01,
 0x40,0xfb,0xff,0xff,0xab,0x02,0x80,0xfe,0x7f,0xff,0x57,0x01,0x40,0xff,0xff,
 0xff,0xaf,0x02,0x80,0xdf,0xff,0xb7,0x57,0x01,0xc0,0xff,0xff,0xff,0xaf,0x02,
 0x80,0xff,0xff,0xff,0xaf,0x02,0xc0,0xf7,0xdb,0xff,0x5f,0x01,0xc0,0x7f,0xff,
 0xff,0xaf,0x02,0x80,0xff,0xeb,0x7f,0x5f,0x01,0xc0,0xff,0xeb,0xff,0x97,0x02,
 0xc0,0xff,0x06,0xfb,0x5f,0x01,0xc0,0xff,0x01,0xee,0xaf,0x02,0x80,0xff,0x05,
 0xa0,0x5e,0x01,0xc0,0x7f,0x5b,0x40,0x5f,0x01,0x80,0xff,0xb6,0x70,0x5d,0x02,
 0xc0,0x7d,0x7d,0xb8,0xa6,0x02,0x80,0x7b,0x45,0xa1,0x5c,0x01,0xc0,0x3a,0x88,
 0x08,0x24,0x01,0x80,0xf5,0x00,0x00,0xa8,0x02,0x80,0x2a,0x80,0x00,0x54,0x01,
 0x40,0x7f,0x01,0x00,0x24,0x01,0x80,0xae,0xa0,0x00,0xa8,0x02,0x80,0xee,0x0a,
 0x01,0x54,0x01,0x40,0x5d,0xa5,0xa5,0x4a,0x02,0x80,0xee,0x4a,0x0a,0x54,0x01,
 0x40,0xad,0x09,0x40,0xa5,0x02,0x80,0xda,0xf6,0x29,0x55,0x01,0x40,0x6d,0x25,
 0x8a,0xaa,0x02,0x40,0xaf,0x97,0x80,0x24,0x01,0x80,0xab,0x6d,0x55,0x55,0x01,
 0xc0,0x5e,0x57,0xa5,0xaa,0x02,0xc0,0xab,0xad,0x50,0xa9,0x02,0xc0,0x3e,0x5b,
 0x24,0x55,0x01,0x40,0x5b,0xaf,0x52,0xa5,0x02,0xc0,0xb7,0x7a,0x55,0x55,0x01,
 0x40,0xed,0xf6,0x55,0x95,0x02,0x40,0xff,0x5a,0x55,0x55,0x01,0x80,0x55,0xb5,
 0xaa,0xaa,0x02,0xc0,0xde,0xab,0x56,0x55,0x01,0x40,0x7b,0x55,0xab,0xaa,0x02,
 0x80,0xaf,0xaf,0xaf,0x52,0x01,0x40,0x7a,0xd3,0xaa,0xaa,0x02,0x80,0xdf,0xbe,
 0x7f,0x55,0x01};
