/* XPM */
static char *noname_xpm[] = {
/* width height ncolors chars_per_pixel */
"48 48 17 1",
/* colors */
"` c black",
"a c grey33",
"b c grey47",
"c c grey40",
"d c grey87",
"e c grey80",
"f c grey73",
"g c grey27",
"h c grey20",
"i c grey13",
"j c grey67",
"k c grey60",
"l c grey53",
"m c white",
"n c grey93",
"o c grey7",
"p s None c None",
/* pixels */
"pppjkjjjjjjjjffjjjfjjfffffffffjjkjjjjkkkkkklpppp",
"pppjjjjjfjjjjjjjjkklcbkkkkjfjjjkjjkjkkkkkkkkpppp",
"pppjjjjjjjfjkbllaggghhgahhckjjkjjjjjkkkkjkklpppp",
"pppkjjjjfjklhhghhhgggggchhhclljjjjjjkkkkjkkkpppp",
"pppjjjjjjjagihhhhiigaahagggggckjjjkkkkjjkkkkpppp",
"pppjjjjjkchhhhhghhohggihhhhhhhbllkjkkkkjjkkkpppp",
"pppjjjjjbhiihhhghh`hiohiiohghoiaaclkkkjjjkkkpppp",
"pppkjjjlghhiihhihhohh`hhoihhg``ihaclkjjjjkkkpppp",
"pppjjjjhihhiiihhhhhhgohhiioohho`ogalkjjjjkkjpppp",
"pppkjjbih`o`ioiooohggihooio``ghiiggbjjjjkkjkpppp",
"pppjjlhio`o`o````oiihih``io``ioohhgajjfjkjkjpppp",
"pppkjgioo```o``````oo`io`ooo``o`ohgajfjjjkjkpppp",
"pppjjaioo`````oio``````o`ooooi`oohicjfjjkjkjpppp",
"pppjkho```````ohgho```oiooihhii`oiiaffjjjkjjpppp",
"pppjkioo```ooohclgioihccagcaagio`oogjjjjjjkjpppp",
"pppjloo```iihclefbbllkkefjlblbbiooogffjjkjjjpppp",
"pppjbi```ogaljeeednedenmmdejkjkg``ocfjjjjjjjpppp",
"pppjb``ioiabjjfeemmnmmmmmnneefjco`obfjjjjkjjpppp",
"pppjl``iigcbjfeedmmnmmmmmmddeffboookjfjjkjjjpppp",
"pppkko`iigclkfeddnmmmmmmmmnddefloohjfjjjjjkjpppp",
"pppjkooiogclkkffdnmmmmmmmnndfjjkhobfjjjjjjjjpppp",
"pppjkcoioacaaaljfenmmmmmnddjkklkhilfjjjjkjkjpppp",
"pppkbaoo`achhhhabkjedndefjlccccjhhbfjjkjjjjjpppp",
"pppliii`ocghhhiiihakfejbahhabaajgglfjjjjjjjjpppp",
"ppplihiiighggaaggacgkjlgggcllaalcljjjjjjjjjjpppp",
"pppkgghohgahihagiihhbklghhhgcckahkffjjjjjjjjpppp",
"pppjcgiogcaaihhhagghkjcbcahcabklcfjjjkjkjjjjpppp",
"pppkkaiihaclbcblkklaenbbffjjjflkbfjjjfjjjjjjpppp",
"pppjkbgihgblkbbbblbbenklklkkefllbjjjjjjjjjjjpppp",
"pppjjjaghacbbbcabkbjdneljlcbkjlbbjjjjjjjjjjjpppp",
"pppkjjlgiaallllkkblfdmdfkjjkkkklcjjjjjjjjjjjpppp",
"pppjkkjbigagggcljkbfdmnfjkklccjbcjjjjkjjjjjjpppp",
"pppkkjjjagggabjffblfdmdekeefbcfcljjjjjjjjjjkpppp",
"pppjkkkjliagbkjfjcalfeeljkeefjkakjjjjjkjjjkjpppp",
"pppkkkkjjiacbkkklaoiabccekjjfjkhkjjjjjjjjkjjpppp",
"pppjkkkkjhgcblkllgo```hckjljjklgjjjjjkjjkjkjpppp",
"pppkkkkkjagabblbcghooogaablkjkccjjfjjkjjjjkjpppp",
"pppkkkkkjcigcblahhhhiohggackjkgljjjjkkjkjkjkpppp",
"pppkkkkkklihablhiooiiihiihgkklgajfjjkkjjkjkkpppp",
"pppkkkkkkg`hgcbghhabbbllcggblcihckjkjkjkkjkkpppp",
"pppkkkklg`iohhagaaaaghacbchachiihalkkjkkkjkkpppp",
"pppkklaho`a`ooihaaahiiggccgihoihihgbllkkkkklpppp",
"pppbgioo`oco``oiggghaagabchi`ohihhhhcbbllklkpppp",
"pppiooo``ich```ihggccblccaiooghihihhgcbbbcbbpppp",
"pppioo```hcii```ihaaaccbago`obhoihhhhabcbcccpppp",
"pppioo```gcohi```ihgahgahiooclhoiihhhhcccbccpppp",
"pppo`````gc`ihio`oiihihiioogbbhoiiihhhacccccpppp",
"pppoo````gb`ohhiiooiiiooiihclbhoiiiihghcccccpppp"
};
