/* XPM */
static char *noname_xpm[] = {
/* width height ncolors chars_per_pixel */
"48 48 17 1",
/* colors */
"` c black",
"a c grey33",
"b c grey47",
"c c grey40",
"d c grey87",
"e c grey80",
"f c grey73",
"g c grey27",
"h c grey20",
"i c grey13",
"j c grey67",
"k c grey60",
"l c grey53",
"m c white",
"n c grey93",
"o c grey7",
"p s None c None",
/* pixels */
"pppppp``````````````````oo````````````````pppppp",
"ppppppoo``o`oooooiihhhcbljkbghoooooiooioiipppppp",
"pppppphhihihhhhgghghhacghgcfjbcggggggaggaapppppp",
"ppppppaaggaaaacahoo`oo`ooohileflccbbbbbblkpppppp",
"pppppplbbccblbh````o``ooioiohcedfkkkjkjjjepppppp",
"ppppppkkllllbo``o``o`ihhgiiohckdmdfffffeedpppppp",
"ppppppkkllkbo``````oihghggagioibkeneeeeednpppppp",
"ppppppjkklli``````oooiooihihhioo`kneedddnnpppppp",
"ppppppjkkla``````oooooiiggggghioifffededdnpppppp",
"ppppppjjllo```````oooooiiggggghhgckleddddnpppppp",
"ppppppfkkh``````oooo`oioiihggcaaaabckddddmpppppp",
"ppppppjja`````````oooihoohaaccbccbclbdndnnpppppp",
"ppppppjl`````````````oooohcbkkkllbbjafdddnpppppp",
"ppppppkc`````````````o`ohclkkjjjefckgjdddnpppppp",
"ppppppkg``````````iablkfddnnmnmmmfcchlddddpppppp",
"ppppppkh````````ohclfnmmmmmmmmmmmeghhcdednpppppp",
"ppppppki```````ohgcljnmmmmmmmmmmndcooaednnpppppp",
"ppppppkg```````ohacbkdnmmmmmmmmnnel`oheeddpppppp",
"ppppppkbo`````ohihgaacljeejkbbccbkeoohfeeepppppp",
"ppppppklg`````iii``````oakg````oohlh`gfffepppppp",
"ppppppkkc`````hi````````icho``oihgch`cffffpppppp",
"ppppppklco```````o```o``idch```iogcigjjjjjpppppp",
"ppppppklciio`oio``ooigoohnkghhhagclgcjjjjjpppppp",
"pppppplkbiho`oiio`ohgghiamdbcgcccklchjjjjjpppppp",
"ppppppkllgh``oihihhhhghhbmmjlbbbljbbijjjjjpppppp",
"pppppplllaho``ihhhaacagacnmnklllljfbokjkjkpppppp",
"pppppplklbhi``ihghclkkcgcemnndnnnnecokjjkjpppppp",
"ppppppllllhi``ihgbjefbhgbnmndkenmnfcikjkkkpppppp",
"pppppplklboo``iihcblbhhhafneelcjddjahljkkkpppppp",
"ppppppllkbo```oihgcaoiiooabglkoakjlghlkkkkpppppp",
"ppppppllllh```ooihi`````````iio`gbcihkkkkkpppppp",
"ppppppllllg````ooio`````````````hca`gbkkkkpppppp",
"ppppppljjgh````ooi``````````````aah`gblklkpppppp",
"pppppplclch````o`o``o`oicbkchcoohhoogbklklpppppp",
"pppppplaccci````````ohiiacbblki`ii``gbllllpppppp",
"pppppplacbbc````````iialjjfejli````oclllllpppppp",
"ppppppbccllbi```````oihallllbco````iblblllpppppp",
"ppppppbcblbbg````````ooooiiiago````gblllllpppppp",
"ppppppbcklbba``````````````ogi`````abblbllpppppp",
"ppppppklkkbbcio``````````o`ooo`````cbbbllbpppppp",
"ppppppfefflbcao````````````o``````obbbllllpppppp",
"ppppppnmndjlbag``````````````````ogbbbblblpppppp",
"ppppppmmmmnflcai```````````````oiibbbblblbpppppp",
"ppppppmmmmmnflago`o````````````hhcbbbbblbbpppppp",
"ppppppmmmmmmekbaho````````````oaabbbbbllblpppppp",
"ppppppmmmmmmnfkbagii````````oohnfbbbbbblbbpppppp",
"ppppppmmmmmmmdfkbaghoi``ooihgglmmfbbbbllbbpppppp",
"ppppppeeefeeffjkbgghih``gaaaghbefecaaaaaaapppppp"
};
