/* XPM */
static char *noname_xpm[] = {
/* width height ncolors chars_per_pixel */
"48 48 17 1",
/* colors */
"` c black",
"a c grey33",
"b c grey47",
"c c grey40",
"d c grey87",
"e c grey80",
"f c grey73",
"g c grey27",
"h c grey20",
"i c grey13",
"j c grey67",
"k c grey60",
"l c grey53",
"m c white",
"n c grey93",
"o c grey7",
"p s None c None",
/* pixels */
"ppppppmmmmmmmmmmmmmmmmmnnnmmmnmmmmmmmmmmmmpppppp",
"ppppppmmmmmmmmmmmmmmmnejlkeffkldmmmmmmmmmmpppppp",
"ppppppmmmmmmmmmmmmmnnnfkbbkkbcaldmmmmmmmmmpppppp",
"ppppppmmmmmmmmmmmmeffjlllklbgghhgldmmmmmmmpppppp",
"ppppppmmmmmmmmmmmeklbbcblaagho`oigbfmmmmmmpppppp",
"ppppppmmmmmmmmmmelccaaagghiihioooigcemmmmmpppppp",
"ppppppmmmmmmmmmnjbcaaaghiiiioooooiihammmmmpppppp",
"ppppppmmmmmnndjklbccchahioooooooooioojmmmmpppppp",
"ppppppmmmmnfjklbbbbaghihihoioooioooo`ammmmpppppp",
"ppppppmmmnffkbcbbbbggiiiiiiiiiooo``ooinmmmpppppp",
"ppppppmmmdbkbghcbllbagiiiiihiiioo``ooofmmmpppppp",
"ppppppmmmfcchoiakfefllaghhiiihhiio``o`bmmmpppppp",
"ppppppmmmjahooibfnmmdejbagaaccghho``o`gmmmpppppp",
"ppppppmmmbiooogjdmmmmmnfkblkjkbghio```immmpppppp",
"ppppppmmnbhioiaemmmmmmmneeeddfklghi```ommmpppppp",
"ppppppmmeghooibdmmmmmmmmnndddeefbah````nmmpppppp",
"ppppppmmjhiooibdmmmmmmmmmmmmnnnelch````dmmpppppp",
"ppppppmmbahiiibdmmmmmmmmmmmmmmnelch```immmpppppp",
"ppppppmmjghoiocnmmmmmmmmmmmmmmdflco```jmmmpppppp",
"ppppppmmngio`olnmmmmmmmmmmmnnndelci```cmmmpppppp",
"ppppppmmmji``ienddndnnmmmnnefffjlcg````nmmpppppp",
"ppppppmmmnlgocddekchgbjdnflghgcccca```gnmmpppppp",
"ppppppmmmmnjhcdfkcahgcleelggiihaacc``icmmmpppppp",
"ppppppmmmmmelckkbefhgbljjbbciohigaa`hcemmmpppppp",
"ppppppmmmmmfjbakjllcablkjbjbcgcaahhoglmmmmpppppp",
"ppppppmmmmmedflffkkllkjkfacaaacbcg`ihfmmmmpppppp",
"ppppppmmmmmnddfndffffffnnacbbbbbgbiccdmmmmpppppp",
"ppppppmmmmmmndjnndeejefmncablllbclhckmmmmmpppppp",
"ppppppmmmmmmnejddefbkfdmnlacbbbcbcacjmmmmmpppppp",
"ppppppmmmmmmdeekkjlbcenmnkbgllcckaabfmmmmmpppppp",
"ppppppeemmmmeefflggckjfekcaoiihhggajemnmmmpppppp",
"ppppppkjjdmdjjfjbccljklcgiagihigggcjdfendnpppppp",
"ppppppcbklellffjlbackjjlccbahihaggkfjbjllfpppppp",
"ppppppccklellekkkbbabklkbagooaachgbcbakajcpppppp",
"ppppppkgblkbkekllbkjbkkacaggbccghhglaabafcpppppp",
"ppppppkcalllkfjlllkjkkkcbbcbccahhhhlagackcpppppp",
"ppppppklgblkkjflllkkkkbbbccaaahhiioggggkbapppppp",
"ppppppkkacblkkjklkkjlcagghgaaghhhohggghjagpppppp",
"pppppplklglllljjbbkfjklcaaccahhgiiggghhkgcpppppp",
"ppppppllkccbllbfkcckfeefkjlchihg`gggghcbgcpppppp",
"ppppppllllcbllbljlaabklkklciihghogagghacacpppppp",
"ppppppllllbcblbblklcggacghioighohaagggcccbpppppp",
"ppppppkllllccbbccblbcghoooihhghogaagacbclbpppppp",
"ppppppkllllbabbbcccbbcgiihhhhhgiacaacbbcbcpppppp",
"ppppppjkllllaccccaaaaaaghhhhggggcccabblcclpppppp",
"ppppppjklbllbaccccagggghhhhgaccccbcclllbckpppppp",
"ppppppfjlllllaccbbcaaghhggacbbabblcblllbkkpppppp",
"ppppppbccgaaagiggggggghgggaagihggagcaaacacpppppp"
};
