/* XPM */
static char *noname_xpm[] = {
/* width height ncolors chars_per_pixel */
"48 48 17 1",
/* colors */
"` c black",
"a c grey33",
"b c grey47",
"c c grey40",
"d c grey87",
"e c grey80",
"f c grey73",
"g c grey27",
"h c grey20",
"i c grey13",
"j c grey67",
"k c grey60",
"l c grey53",
"m c white",
"n c grey93",
"o c grey7",
"p s None c None",
/* pixels */
"ppppppdddndnndddddekccjfjdmmmndddnnnmmmmmmpppppp",
"ppppppedndnndddddebhllagafnnmnnddnnnnmmmmmpppppp",
"ppppppdddnndnddddliilcoohckdmmnddnnnnmmmmmpppppp",
"ppppppeeddnddddefi`gggo`ogclkenmnnnnmmmmmmpppppp",
"ppppppeedddddddda``ooi```ihgagcldmnnnmmmmmpppppp",
"ppppppedddddddeei````````oioiiiacfjnnmmmmmpppppp",
"ppppppeeddddddeb`````````````o`igclnmmmmnmpppppp",
"ppppppedddndddji```````````````ihajnmmmmmmpppppp",
"ppppppeedddddeh````````````````oigjnmmmmmnpppppp",
"ppppppeeeedddb`````o`oooiggi``ooogcfdmmmmmpppppp",
"ppppppeeedddfi````o`oohakjkchiihigialnmmnnpppppp",
"ppppppfedddeb`````hgcljednnejlcchioocfmmmmpppppp",
"ppppppfeedec`````ogbkkfdmmmmdekbbh`ogdmnnnpppppp",
"ppppppffeefo`````ogckjfdnmmmndfjja``ijdmnnpppppp",
"ppppppffeek``````ogcljfennmmmndfjc``oabdnnpppppp",
"ppppppfeeefo`````ogcljfdmmmmmmnefc``ohiaenpppppp",
"ppppppfeeeea`````ihacllkennndjkkkc``oooifnpppppp",
"ppppppfffeea`````hhohigggkeebgghgg`````gfdpppppp",
"ppppppjfeefg`````hhooiogioffooiio`o``ohledpppppp",
"ppppppjfffei`````hho```oiifjooo`iooobkfeddpppppp",
"ppppppjffefc````ohgioihhhhffhhhhghgbdnnnndpppppp",
"ppppppfffeeji````hgggaccacjdbblbcahcemnnddpppppp",
"ppppppfffeffa```ohgcckjkcbfdkkffkbicdnnnddpppppp",
"ppppppjjfeeel```oigblkjlabfnjlfejkhgjnndddpppppp",
"ppppppjjeeffb```oiabjekcagbjblbfekhaennddepppppp",
"ppppppjjfeffg````ohcbllbgoihglcclbicennndepppppp",
"ppppppjkfffja`````hacacchhhggaagcgobfdndeepppppp",
"ppppppjjjefkg`````iggghhhgbahhghai`bjdnddepppppp",
"ppppppkjjeflg`````ooihhhhalccaghio`aledndepppppp",
"ppppppkjjffbho``````ohbbbbblkkaoo`ogleddeepppppp",
"ppppppkjjfjah````````oclbbcclkg```ogledeeepppppp",
"ppppppkkjfkco`````````igbccbbao```ohlfeeeepppppp",
"ppppppkkjjki````````````igccgo`````hbeedeepppppp",
"ppppppkkkli``````````````ooo```````hcjeeeepppppp",
"ppppppkkco`````````````````````````hajeeffpppppp",
"ppppppbh```````````````````````````iglfeeepppppp",
"pppppp`````````````````````````````igbfeffpppppp",
"pppppp`````````````````````````````hgcfefepppppp",
"pppppp`````````````````````````````ihlffffpppppp",
"pppppp`````````````````````````````oajfeffpppppp",
"pppppp````````````````````````````oihcjfffpppppp",
"pppppp````````````````````````````iiggalfjpppppp",
"pppppp````````````````````````````ghhhhhljpppppp",
"pppppp`````````````````````````oo`iihhiihkpppppp",
"pppppp``````````````````oo```ogha`oioihoogpppppp",
"pppppp`````````````````oah```olkk``iooioo`pppppp",
"pppppp`````````````````glbo``okefh`iiooo``pppppp",
"pppppp`````````````````ibbh`o`bjla``oo`o``pppppp"
};
