/* XPM */
static char *noname_xpm[] = {
/* width height ncolors chars_per_pixel */
"48 48 17 1",
/* colors */
"` c black",
"a c grey33",
"b c grey47",
"c c grey40",
"d c grey87",
"e c grey80",
"f c grey73",
"g c grey27",
"h c grey20",
"i c grey13",
"j c grey67",
"k c grey60",
"l c grey53",
"m c white",
"n c grey93",
"o c grey7",
"p s None c None",
/* pixels */
"pppppphhhhhhhhhhhhhhhhhhhhhhhihhhihhhhhhhhpppppp",
"pppppphhhhhhhhhhihhhaclkklcghhhhihhhhhhhhhpppppp",
"pppppphghhhhhihhghckjfffeeejbghhhihihhhhhhpppppp",
"pppppphhhhhhhhhggljfeednnnndejaihhhhhhhihhpppppp",
"pppppphhhhhhhhhgbjjednnmmmmmddjahhhhihhhhhpppppp",
"pppppphhhhhhihgcljfdnmmmmmmmmddjghhhhhhhhhpppppp",
"pppppphghhhhihgbkfedmmmmmmmmmndekghhhhhhhhpppppp",
"ppppppghhhhiihclkfedmmmmmmmmmmnejchhhhhhhhpppppp",
"pppppphhhhioihclkeenmmmmmmmmmmneflhhhhhhhhpppppp",
"ppppppghhiooogcbjfenmmmmmmmmmmmdfkahhhhhhhpppppp",
"pppppphhho`i`hcbkfddmmmmmmmmmmndfkcihhghhhpppppp",
"ppppppghio`ooiackfednmmmmmmmmmmdfjlihhhhhhpppppp",
"pppppphho````igclfenmmmmmmmmmmndejbhohghhhpppppp",
"pppppphho```oihclfdmmmmmmmmmmmmndjbiohhhhhpppppp",
"pppppphho````ogaljenmnmmmmmmmmnnejbi`ihghhpppppp",
"pppppphho````ogacblkfffennndddneejco`ihhhhpppppp",
"pppppphho````igghhhhggckeefjkbccccco`ihhhhpppppp",
"ppppppghi`o``oghigblbcacjfjkcacbchho``hhghpppppp",
"pppppphhhio``iahhghhaaaafnebaacblah`oiihhhpppppp",
"ppppppghhiioohcaggggbbbcjmelcahhhagooihhghpppppp",
"pppppphhhhgoohclbblkkjjbfmdkjllkbcaiohhghhpppppp",
"ppppppghhhghohckffjjffjjfmdjffjkkkcoihhhhhpppppp",
"pppppphhiiagohckfdnnneffjdejenddekcihhghghpppppp",
"ppppppgho`haoicljdmmnejjjddjjdmnekchhhhhhhpppppp",
"pppppphgi`iaiiackeneelkjkdnjklfdejaghghhghpppppp",
"ppppppghhoiaoogcbkjkcgacbkkbcabkklahhhghhhpppppp",
"pppppphhgioioohgaccagahiihggaahcbcghhghhghpppppp",
"ppppppghhhiooohhhgghgaghhihhgghhgghhhhhhhhpppppp",
"pppppphghhio``ihhaghhghgahaghghhgghhhghghhpppppp",
"ppppppghhgioooohgahooohhgghhioigahihhhhhhhpppppp",
"pppppphhhhoo``oihghiiogalkchhhighoihhhghhhpppppp",
"pppppphghhiio```ihhgaagcbbbblaghooihhhhhghpppppp",
"pppppphhhhihi```oohgcblkjfklbcgioohhhhhghhpppppp",
"ppppppghghihho```oigcbbbbbcbbcho`hhhhhhhhhpppppp",
"pppppphhhhhhgi````ihacaagggaagioohhhhhghhhpppppp",
"ppppppghgghggh````oigaggghggghi`ihhhhhhhhhpppppp",
"ppppppgacgghggi````oiggaaaaahhoohhhhhhhhhhpppppp",
"ppppppcccaghaago````oihgggghhooihhhhhhhhhhpppppp",
"ppppppllbcaggcaho```ooiiihiiooohhhhhhhhhhhpppppp",
"ppppppllbcaghacgho````oooooooihhhihhhhhhhhpppppp",
"ppppppbbbbcgggcahio`````o``oogihhhhhhhhhhhpppppp",
"pppppplbbbcaghaaghioo``````igghhhhhhhhhhhhpppppp",
"pppppplcbbbcghhaaghioo``ooihahhhhhhhhhhhhhpppppp",
"pppppplbcbccahhhgghiioioihhgaghhghhhhggghhpppppp",
"pppppplbcbcccghhigghiiiihhhaghhhhhggghghghpppppp",
"ppppppllbccccaghiihhhhiiohaaghhhhhghhhggggpppppp",
"ppppppllbcbcccgghihhhhgihggghhhhhhghggggaapppppp",
"ppppppcccaaagghhhiooiiiihhhiiiiiiihihhhhhhpppppp"
};
