/* XPM */
static char *noname_xpm[] = {
/* width height ncolors chars_per_pixel */
"48 48 17 1",
/* colors */
"` c black",
"a c grey33",
"b c grey47",
"c c grey40",
"d c grey87",
"e c grey80",
"f c grey73",
"g c grey27",
"h c grey20",
"i c grey13",
"j c grey67",
"k c grey60",
"l c grey53",
"m c white",
"n c grey93",
"o c grey7",
"p s None c None",
/* pixels */
"pppppplllllbbblbblbbbbblblblbllbllllbbbbblpppppp",
"ppppppllllblblblbbagggaabblllllllllllbblblpppppp",
"ppppppklllblbllbchooooihhcblllllllllllblblpppppp",
"pppppplllblblbbch``````ooohabllllllllllbllpppppp",
"ppppppllllblbcai``````o`oo``hblllkllllblllpppppp",
"pppppplllblbch``````ooihhiiioogblllkllblblpppppp",
"ppppppllllbco`````ohhhgagggaco`hblklllllllpppppp",
"pppppplllbbi`````oaccabbbllkkli`ibllllblblpppppp",
"ppppppllbba``````gcbblkjjffefjlo`hbllllbllpppppp",
"pppppplllbh`````ocblkjjfedddnefaooalllllblpppppp",
"ppppppllbbi`````hcblkfennmmmndejoihlllllllpppppp",
"pppppplllco````ogclljednmmmmmndfaoocllllllpppppp",
"ppppppbbbb``````hclkfdnmmmmmmnnelo`gllllllpppppp",
"ppppppblbbo`````hclkfdnmmmmmmmndko`illllblpppppp",
"ppppppbblbi`````hckjfenmmmmmmmndjo`glllllbpppppp",
"pppppplllbh`````hclkjednmmmmmmndfh`cklllblpppppp",
"pppppplllbi````ogaljffnnmmmmmmnnfgollkllllpppppp",
"pppppplbbbho```hgcljfeedmmmmnmnefahkllllllpppppp",
"pppppplbbahho`ohgacacclljeefkbbbcgaklklbllpppppp",
"ppppppllbaggi`ohghgggglhgbkahhkcjaalklllblpppppp",
"pppppplbbcagi`iiighiohhihkjghoggcbbhlllllbpppppp",
"pppppplllcahh`ighghggccgikdcacbbblcblllblbpppppp",
"pppppplllcagg`hgacbccbbghkecllkjjlalllllblpppppp",
"pppppplllbaagiigcckjkjkackdkjfffebclllllllpppppp",
"ppppppllbbaaghhgajkkjjbcbkdfkjeeefklllllblpppppp",
"pppppplbllcaghhgablkfjkcbkdejkkjfjklllbllbpppppp",
"ppppppllbblahihgabkjjjbcckdejjkfjlllllllblpppppp",
"pppppplbbbbcihhaacbllklghallkkbblbllblbllbpppppp",
"pppppplbbbbcihhaacbbbbcaaacaaccbllllllbbbbpppppp",
"ppppppbllbbbihhccclahgghgaahhhhkbllblblblbpppppp",
"pppppplbbbbaihhabalahiiiiccigbllblllblblbbpppppp",
"ppppppbbbbahihhgbbclbaaabllbljlblllblblbbbpppppp",
"pppppplbbbggghhgclcblbcbblblkjbblbblbbbbbbpppppp",
"pppppplbbahagghhgbbalkbbbbkjklclbllbblbllbpppppp",
"pppppplbbggacgghhacaalkkjjfkkcbllblbbbbbbbpppppp",
"ppppppbbbbccbcaaghgagcblkkklcclblbbbbbbbbbpppppp",
"ppppppcakejkllcccghhghaacacaablblblbbbbbbbpppppp",
"ppppppckdnjjfllcbbahhhhhhhhhabbblbbbcbbbbbpppppp",
"pppppplfnmkkdfllbbbahiioihhaaclbbbbbbbbbbbpppppp",
"ppppppkenjkkjnfbcbblbbbahaccggcblbbbbccbbbpppppp",
"ppppppkdjlklkjmebcaclllacbbcahabbbbbbbbbbbpppppp",
"ppppppkjkllkkkfmjlccclbabbcagghcbbbbbbcbcbpppppp",
"ppppppdmnfklkkkenklbaaahgacgggabbbbccbccbcpppppp",
"ppppppdmnffkkkkkdflblcaccbagggcbbbbbbbbbbbpppppp",
"ppppppdmmjkjklkkkdkbbcagbfghgcbcbbbcbbcbbbpppppp",
"ppppppdmmjkkklllkjkkbacaglhhaccbbbbbbbbcbbpppppp",
"ppppppdmmfklkklllkklklccgcggabccbcbcbbbbbcpppppp",
"ppppppjeelbccbcacccccccaghghgaaagaaaaaaaaapppppp"
};
