#define face_width 48
#define face_height 48
static char face_bits[] = {
   0x00, 0xc0, 0xff, 0x7f, 0xf7, 0xff, 0x00, 0x40, 0xff, 0xff, 0xfd, 0xff,
   0x00, 0xe0, 0xff, 0xff, 0xff, 0xff, 0x00, 0xf0, 0xff, 0xff, 0xff, 0xff,
   0x00, 0xfc, 0xff, 0xff, 0xff, 0xff, 0x00, 0xfc, 0xff, 0xff, 0xff, 0xff,
   0x00, 0xfe, 0xff, 0xff, 0xff, 0xff, 0x80, 0xfc, 0xff, 0xff, 0x7d, 0xff,
   0x00, 0xff, 0xff, 0xff, 0xff, 0xff, 0x80, 0xfc, 0xff, 0xff, 0xff, 0xff,
   0x80, 0xff, 0xbf, 0xd0, 0xef, 0xff, 0x80, 0xff, 0xaf, 0xca, 0xff, 0xff,
   0xc0, 0xff, 0x5f, 0xd0, 0xff, 0xfd, 0xc0, 0xff, 0x57, 0x8b, 0xff, 0xff,
   0xe0, 0xff, 0x5f, 0xa1, 0xff, 0xff, 0xc0, 0xff, 0xb7, 0x94, 0xfe, 0xff,
   0xe0, 0xff, 0x6f, 0xa1, 0xfe, 0xff, 0xc0, 0xff, 0x5b, 0x4d, 0xff, 0xff,
   0xe0, 0xff, 0xaf, 0x82, 0xfe, 0xff, 0xe0, 0xff, 0x5b, 0x29, 0xff, 0xf7,
   0xc0, 0xff, 0xff, 0x56, 0xfd, 0xff, 0xe0, 0xff, 0xff, 0xfd, 0xfd, 0xff,
   0xe0, 0xff, 0xff, 0xff, 0xfe, 0xff, 0xf0, 0xff, 0xff, 0xfd, 0xf7, 0xff,
   0xf8, 0xff, 0xff, 0x7a, 0xfd, 0xff, 0xf4, 0xff, 0xff, 0x69, 0xf5, 0xff,
   0xfa, 0xff, 0xab, 0xaa, 0xf8, 0xff, 0xfe, 0xff, 0xfd, 0x51, 0xe4, 0xff,
   0xfe, 0x7f, 0x6b, 0x49, 0xf1, 0xff, 0xfd, 0xff, 0xf5, 0x82, 0xf4, 0xff,
   0xfc, 0xff, 0x5b, 0x69, 0xf2, 0xff, 0xfe, 0xff, 0xfe, 0x52, 0xe9, 0xff,
   0xfe, 0xff, 0xfb, 0xe7, 0xfa, 0xff, 0xfd, 0xff, 0xff, 0x9f, 0xe7, 0xff,
   0xfe, 0xff, 0xff, 0xeb, 0xf5, 0xff, 0xff, 0xff, 0xff, 0xff, 0xf7, 0xff,
   0xff, 0xff, 0xfd, 0xaa, 0xf9, 0xff, 0xfd, 0xff, 0xef, 0x57, 0xf5, 0xff,
   0xff, 0xff, 0xbf, 0x45, 0xfd, 0xff, 0xfd, 0xff, 0xff, 0x5b, 0xf5, 0xff,
   0xfb, 0xff, 0xff, 0x66, 0xfb, 0xff, 0xfd, 0xff, 0xff, 0xd2, 0xfa, 0xff,
   0xfb, 0xff, 0xbf, 0x6d, 0xfd, 0xff, 0xfc, 0xff, 0xff, 0xf7, 0xf5, 0xff,
   0xfa, 0xff, 0xff, 0xbf, 0xfc, 0xff, 0xfc, 0xff, 0xff, 0x7f, 0xf2, 0xff,
   0xf4, 0xff, 0xfd, 0xbf, 0xfc, 0xff, 0xe9, 0xff, 0xff, 0x5f, 0xf5, 0xff};
