/* XPM */
static char *noname_xpm[] = {
/* width height ncolors chars_per_pixel */
"48 48 17 1",
/* colors */
"` c black",
"a c grey33",
"b c grey47",
"c c grey40",
"d c grey87",
"e c grey80",
"f c grey73",
"g c grey27",
"h c grey20",
"i c grey13",
"j c grey67",
"k c grey60",
"l c grey53",
"m c white",
"n c grey93",
"o c grey7",
"p s None c None",
/* pixels */
"ppppppbbcccbbbbbbcbbcbcaacbbbccbbbccccccccpppppp",
"ppppppbbccbbblblbcbbbbcagcbbbcbbbbccccbcbcpppppp",
"ppppppbccccbblllbbbbbccaacbbbbcbbbcccccbbcpppppp",
"ppppppbbccbbbblbbbbbbbcagcbbbcbbbbbcbcbbcbpppppp",
"ppppppbbccbbllblbbbcagiooohhacbbbbbcbbcbbbpppppp",
"ppppppcbcccbbblbghhio````````oiabbbbcbbbbbpppppp",
"ppppppbbccbbbllg```o````````````oabbcbbcbbpppppp",
"ppppppbbccbblbbo`````````````````ohabbbbbbpppppp",
"ppppppbcccbbblh````````````````````ocbbbbbpppppp",
"ppppppbbccbbla``````o```````````````obbbbbpppppp",
"ppppppbbccbbbi`````ooohgaagghio``````abbbbpppppp",
"ppppppbccccbc```````hlffeejklcao`````obbbbpppppp",
"ppppppcbccbbh``````gjennnddfjbcgo`````abbcpppppp",
"ppppppbcccbbo````icjddmmnndejlbah`````gbbcpppppp",
"ppppppccccbc````hbjednmmmmnefklbao````ibbcpppppp",
"ppppppbbbccc```oalfedmmmmmnejjlbai````ocbcpppppp",
"ppppppbcccbg```iclfedmmmmmnefjlbai`````bbcpppppp",
"ppppppcccccg```ickjfdnmmmndejjlcai`````bccpppppp",
"ppppppbcccba```hclkjfennejlccggaah````obccpppppp",
"ppppppcbccbc```hghhhhalflcggacghgh````ibbapppppp",
"ppppppbcccbc```hhgggggcjkcaghggaago```hbcapppppp",
"ppppppbbccbc```achioogcfkbcaihhclao```gbcapppppp",
"ppppppbcccbbo``alcacclbjkllllbbklao```cbcapppppp",
"ppppppbcccbba``ckkkkjkbjbljffjkkbgi```bccapppppp",
"ppppppbcccbbbi`ckjffekkkcbfeefklcgi``ibccapppppp",
"ppppppbcccbblchaljfefbljbbkddekbcgiiiaccaapppppp",
"ppppppccccbbblhabjedjchchcbeeejbahohgbccagpppppp",
"ppppppbcacbbbbagbkjfjcccbcljffkbchohccccagpppppp",
"ppppppccccbbblbgblkkbggccgacbkklchohbcccagpppppp",
"ppppppbccccbblbacllagggacghgaljlah`gbccaagpppppp",
"ppppppcccccbbbbaclklacllllblkjlbai`acccaagpppppp",
"ppppppcccabbbbbcgclllkkkkjkkklbcgi`acccaggpppppp",
"ppppppccaccbbbbcaabblkkkkkklbbbahooaccaaahpppppp",
"ppppppccaccccbbccgacblkjjlbbccaghohbccaaghpppppp",
"ppppppccacccbbbccgggcbkkklbaaaghiillacaaghpppppp",
"ppppppccaacccccccchhgaccbcaggghhilfkcaagghpppppp",
"ppppppcaaacccbbckchhhhgghhhghihgleejbbcaghpppppp",
"ppppppcaaacbbllkbhhhiiiihhhihhajddnelkkkbapppppp",
"ppppppcackkkkljjgoghhhhiiihhgcednndnfffddepppppp",
"ppppppkjjjjkkfekg`hhhhghaaaaldnmmmndefjdddpppppp",
"ppppppejfejjjddjh`gaagacbbbkdmmmmmmmdeemmdpppppp",
"ppppppeddfjbendeh`gccccbbllnnmmmmmnmmjddeepppppp",
"ppppppnmdfbjnnmdaogcccllljnnmmmmmmmmnkdddepppppp",
"ppppppmnejjffnmmkohccccbfdnnfnmmmmmmdenddepppppp",
"ppppppndfeddffmmdigcaaleddnfhbemmmmmdnddddpppppp",
"ppppppnddnddefenncgcafdnnndllklkdmmmddddddpppppp",
"ppppppnnnndneeeenegkdmndkkkjedejjdmmedddnnpppppp",
"ppppppfjfjjjjkjkjjkjjlbcbkjjjjjkjjjejjjfefpppppp"
};
