#define face_width 48
#define face_height 48
static unsigned char face_bits[] = {
 0x00,0x00,0x00,0x00,0x00,0x00,0x00,0x00,0x80,0x0f,0x00,0x00,0x00,0x00,0xfa,
 0x3f,0x00,0x00,0x00,0x00,0xff,0xfb,0x00,0x00,0x00,0xe0,0x6f,0x7f,0x01,0x00,
 0x00,0xf0,0xfd,0xef,0x01,0x00,0x00,0xd8,0xdf,0xff,0x03,0x00,0x00,0xf4,0xfb,
 0x7e,0x07,0x00,0x00,0xb8,0xdf,0xd7,0x07,0x00,0x00,0xec,0xf6,0x7f,0x0d,0x00,
 0x00,0xbc,0x92,0xda,0x07,0x00,0x00,0x56,0x49,0xfd,0x0e,0x00,0x00,0x1c,0x52,
 0xd5,0x1f,0x00,0x00,0xa8,0x24,0xf5,0x0d,0x00,0x00,0x0c,0x49,0xaa,0x1f,0x00,
 0x00,0xa8,0xa4,0xd2,0x1b,0x00,0x00,0x08,0x92,0xa4,0x1f,0x00,0x00,0x50,0x49,
 0xd5,0x3e,0x00,0x00,0x08,0x92,0xaa,0x1b,0x00,0x00,0xa8,0xe4,0xd5,0x3f,0x00,
 0x00,0x68,0xd9,0xaf,0x7e,0x00,0x00,0x90,0x57,0x5b,0x6f,0x00,0x00,0xc0,0x79,
 0x55,0x35,0x00,0x00,0x48,0xab,0xab,0x3d,0x00,0x00,0xa0,0x75,0xaa,0x32,0x00,
 0x00,0x80,0xd4,0xaa,0x3a,0x00,0x00,0x20,0xd5,0x55,0x3d,0x00,0x00,0x40,0x55,
 0xab,0x3a,0x00,0x00,0x80,0xea,0xaa,0x35,0x00,0x00,0x40,0x95,0xaa,0x3a,0x00,
 0x00,0x80,0xb4,0xab,0x16,0x00,0x00,0x00,0x4b,0xb5,0x15,0x00,0x00,0x00,0x5a,
 0x55,0x5d,0x00,0x00,0x00,0xd5,0xaa,0xfb,0x00,0x00,0x00,0xa8,0xda,0xfe,0x00,
 0x00,0x00,0xa8,0xaa,0xff,0x00,0x00,0x00,0x54,0xfd,0xff,0x00,0x00,0x00,0xd0,
 0xd6,0xff,0x00,0x00,0x00,0x68,0xff,0xff,0x00,0x00,0x00,0xd0,0xfb,0xff,0x00,
 0x00,0x00,0x80,0xed,0xff,0x00,0x00,0x00,0x40,0xfb,0xff,0x00,0x00,0x00,0xc0,
 0xfd,0xff,0x00,0x00,0x00,0xe0,0xff,0xff,0x00,0x00,0x00,0xf0,0xfd,0xbf,0x00,
 0x00,0x00,0xf8,0xff,0xff,0x00,0x00,0x00,0xf0,0xff,0xff,0x00,0x00,0x00,0xe0,
 0xff,0xff,0x00};
