/* XPM */
static char *noname_xpm[] = {
/* width height ncolors chars_per_pixel */
"48 48 17 1",
/* colors */
"` c black",
"a c grey33",
"b c grey47",
"c c grey40",
"d c grey87",
"e c grey80",
"f c grey73",
"g c grey27",
"h c grey20",
"i c grey13",
"j c grey67",
"k c grey60",
"l c grey53",
"m c white",
"n c grey93",
"o c grey7",
"p s None c None",
/* pixels */
"pppdddnmnnnmmmmmmmmmmmmmmmmnnmnmnmnnnnnnnnnnpppp",
"pppdddnmmnmnmmmmmmdkcgggccjdmnnmnnnnnnnnnnnnpppp",
"pppdddnnmnnnmmmmnliiiihhiiihknnnmnnnnnnnnnndpppp",
"pppdddnmnnmnmmmegoooiohgiiooogdnnnnnnnnnnnnnpppp",
"pppddnnmmnnmmmehoooooiihooo``ohenmnnnnnnnnnnpppp",
"pppdddnmnmnmmna`oihhihiiiio````annnnnnnnnnnnpppp",
"pppddnnmmnnndcoiabklbgghoo`````ofnnnnnnnnnnnpppp",
"pppnddnnmnnnliickfdndejcio``````hnnnnnnnnnnnpppp",
"pppdndnmmnmegiakfddnnnndflcgi````jnnnnnnnnndpppp",
"pppddnnmmmnkihlfeddnmnnnndejkbi``cnnnnnmnnnnpppp",
"pppndnnmmnmbhgjfeednnnnnndffjkco`hdnnnnmnnnnpppp",
"pppdddnmmnmbiakfeedddndddffjkkbh`odnnnnnnnnnpppp",
"pppndnnmnmnlockkcbblkfffjbccccchoofnnnnmnnnnpppp",
"pppdndnnmnmb`bcccbcggcklggaihhhh``fnnnmnnnnnpppp",
"pppddnnmmnmcocgbkjjbbbjcgalllaiho`dnnnnnnnnnpppp",
"pppdndnnmnma`habcghgcbkcaaahggih`odnnnmnmnnnpppp",
"pppdddnmnmnc`albhaackbekacbhiohb`idnnnnnnnndpppp",
"pppndnnmmnmeobblbbllllflcllcahgbognnnnmnnnnnpppp",
"pppdndnnnmmnglckkkklbjfkbcbbbbaaojnnnnnnnnnnpppp",
"pppdddnnmnmmalkbbbcakjekcbacccchofnnnnmnnnnnpppp",
"pppndnnmnmmmblfbbjjfkjfkabjlchhiofnnmnnnmnnnpppp",
"pppdddnnmnnmbljfenefcgaiocefjkgiofnnnnnnnnndpppp",
"pppdddnmnmmdcbjfeejfli```ajjjkchojnnnnnnnnnnpppp",
"pppnddnnnnmeackjjllkchhiocjkklcholdnnndnnnnnpppp",
"pppdddnnmnmdcalklggghoghoigcllahobdnnnndnnnnpppp",
"pppdddnnmnmechcbkhhihhcgiiohcbgiibdnnnnnnnnnpppp",
"pppddddnnnmfgihcchbkkjjklcbaachoogddndddnnndpppp",
"pppdeddnmnndgoiiggljklblbblcghoooadnnndnnnnnpppp",
"pppdddnnnnmnbooohclklahggcbahio`oaedndednnddpppp",
"pppdeddnnnmnfiooicbkbchhgbcgio``olddndddddndpppp",
"pppedddnnnnmda``oigccahghchoo````kddnddddnddpppp",
"pppeeddnnnnnnjo`ooiiihihiho``o```ieddddddnddpppp",
"pppdedddnnnmmbo```ooooooo`o```````cddddenndnpppp",
"pppededdnnnnfgi```````o`````o`````ifddeeddddpppp",
"pppeedddnelcggio```````````````````gjefeedeepppp",
"pppdeeddkagaggho``````````````````iigglfdddepppp",
"pppeeekchagggggii``o`````o```````ihhggagckeepppp",
"pppejaghgaghhihhgo``````````````oihhhgghggakpppp",
"pppagghhggiooohhgg`````````````oo`oigggghhhhpppp",
"pppgggihgooohghhhcgo```````````o`oooohhhghhhpppp",
"pppgghihahhggggiigahoo`o`o```````hhhioihhhhhpppp",
"pppgghigagghggghhhhgcooo`o``o``oighgiiggghghpppp",
"pppahihgagghggghggihgcghggoi``ihigghihahhhhhpppp",
"pppaiighaghggahgggghigjffgi`oihhhgghhhagghghpppp",
"ppphhhggaghggagghgaghhafci`ohhhhgghhhgahhhghpppp",
"ppphhhggaghghahgghaggghgiohghhhhggghhhaghhhhpppp",
"pppiggghahgghagghgagghgi`igghhhhaghhhhahhhhipppp",
"ppphghggaghggaghggggghh`hhagghghaghhhhgghhgipppp"
};
