/* XPM */
static char *noname_xpm[] = {
/* width height ncolors chars_per_pixel */
"48 48 17 1",
/* colors */
"` c black",
"a c grey33",
"b c grey47",
"c c grey40",
"d c grey87",
"e c grey80",
"f c grey73",
"g c grey27",
"h c grey20",
"i c grey13",
"j c grey67",
"k c grey60",
"l c grey53",
"m c white",
"n c grey93",
"o c grey7",
"p s None c None",
/* pixels */
"pppnnnnnnnnnnnnnnlhhhhiiooooiioo`oooooifeffjpppp",
"pppnnnnnnnnmnmndlhhiioooooooiii``ooo``oaffffpppp",
"pppnnnnnnmnnnnjghhiioo``o`ooooo```oo``o`aeffpppp",
"pppnnnnnnnnnnbhhioio````o````oo```oo```o`lfepppp",
"pppnnnmnmnndahhiooooo``o``o``````````````iefpppp",
"pppnnnnnnnfghhioooo```o`o`o`o`````````````lepppp",
"pppnnmnmndghiiooo`o``o`oooo`o`o`o`````````gepppp",
"pppnnnnnnjhhhi`o`o```o`oo`oooo````````````hepppp",
"pppnnmnmnbhio`o````o`oo``o`````o``````````idpppp",
"pppmnnnnngooo``````o```ooooioio`o`````````gepppp",
"pppnnmnmnho````````oigabllllblbcagio``````cepppp",
"pppnnnnndooo````oihckjfeefffffjklbcgho````kdpppp",
"pppnmnnmeo`````ohabbccclkfffjjkkklbcago``oddpppp",
"pppnnnnndoo`o``hgabbcchihbkjklccagaaaah``hddpppp",
"pppnmnnmnboooooiggccaghhghlbcgggogacggg``cddpppp",
"pppnnmnnnnloghiggbcghhoighgiohhhhgablaioolfnpppp",
"pppnnnnmnmnebgcllklbagigghgaohohogacbchioakdpppp",
"pppnnmnnmnmnfajjkkjflccachfjihighaaacchiohenpppp",
"pppnnnnmnnmndcedljjjllbccbneggaaghghaahhhandpppp",
"pppnnmnnmnmndbdnjjjfffklaeneagaggggggghghlnnpppp",
"pppnnnnmnnnmnknnnkkjjjkajnnecgaaaagaghchgfddpppp",
"pppnnmnnnmmnnnnnnnjbbcaknmnfcahgaagahgchcdnnpppp",
"pppnnnnmnnnmnndnmndjkkldnndjbbghhhggacchjnndpppp",
"pppnnmnnmnmnndnnnnddfjjdeefkbcaccacccccadnnnpppp",
"pppnnnnnnmnnmdndnndeffdkallbacccbbbccccbdndnpppp",
"pppnnmnnmnnmnnndndeefdnecccahgabbbbbbcclnnnnpppp",
"pppnnnnnnmnnnmdddeefeedjlahhihgcccbbcccennnnpppp",
"pppnnnnmnnmnmndddefjffjlcaghihggghcbccdnnnnnpppp",
"pppnnnnnnnnmnnnedejcbllcaaaghhgghhcbcknnnnnnpppp",
"pppnnnnmnnmnnmndeejcacccaaaaggggggbcbennnnnnpppp",
"pppnnnnnnmnnmnndefjckkjjlllbccccacbcfnnnnnnnpppp",
"pppnnnnmnnnnnnnnfefkfefkkbcbcbcccbbldnnnnnnnpppp",
"pppnnnnnnnmnmnmnefeeeedejklblbcbbbbbnnnnnnnnpppp",
"pppnnnnnnnnnnnnddfedddeddfjlbbbccbclnnnnnnnnpppp",
"pppnnnnnmnnmnnmndffednddefklbbbcbcclnnnnnnnnpppp",
"pppnnnnnnnnnnnnnefjfeeeejklbbcccbccgfnnnnnnnpppp",
"pppnnnnnnnnnmnmndfkkjkjjlllbccccccciadnnnnndpppp",
"pppdnnnnnnnnnnmddejkkkkllbbbbccbccaigknnnndnpppp",
"pppnnnnnnnnnnmnddefjkklklllbbbbcccaiildnnnndpppp",
"pppdnnnnnnnnmmeddefjkllklllbbbcccaaiiblledddpppp",
"pppnnnnnnnmnmmfdeeffkllllbbbccccacgihbkbcbkfpppp",
"pppdnnnnnmmmmmefdeffjkllbbccbcccaagohlklbblbpppp",
"pppdnnmmmmmmmmdkeeefkkllbbcbcccaaahockkllblkpppp",
"pppnnnmmmmmmmmnlfeefjklllbbcccaccgholjjkkblkpppp",
"pppmmmmmmmmmmmmjjffffkkllbbcbccaagigkfjjjkkkpppp",
"pppnmmmmmmmmmmmdkjjfffkllbbccccaahhbfejjjkkkpppp",
"pppmmmmmmmmmmmmnjkkjfjjkbbcccaaaaghfefjjjkjkpppp",
"pppnmmmmmmmmmmmmnllkkjkklbccccaaghbeefjjjkjkpppp"
};
