/* XPM */
static char *noname_xpm[] = {
/* width height ncolors chars_per_pixel */
"48 48 16 1",
/* colors */
"` c grey33",
"a c grey47",
"b c grey40",
"c c grey87",
"d c grey80",
"e c grey73",
"f c grey27",
"g c grey20",
"h c grey13",
"i c grey67",
"j c grey60",
"k c grey53",
"l c white",
"m c grey93",
"n c grey7",
"o s None c None",
/* pixels */
"oooooooollllllllllllmcmllllllllllllllllloooooooo",
"oooooooollllllllmia`f````addcecllllllllloooooooo",
"oooooooolllllllcbffgggggggfffffdlllllllloooooooo",
"oooooooollllldaggghhhhhgggghhggfamlllllloooooooo",
"oooooooollllcfgggghhhgfffffhhhgfbklllllloooooooo",
"oooooooollllighhhgghgggfggfgghhgf`dllllloooooooo",
"oooooooolllljhhhggggghgffgfffghgffkllllloooooooo",
"oooooooolllcfggggfgghgggggg`ffhggf`clllloooooooo",
"oooooooolllighhggfffffhhhggf``gggggelllloooooooo",
"oooooooolllkhhhgggfgghnnhhgfbb`ggggklllloooooooo",
"oooooooolllbhhhgggggghhhhg`bakafghhjlllloooooooo",
"oooooooolllbhhgfffffffff`akkjjkbghhjlllloooooooo",
"oooooooolll`hhfbbbbb`bbbakkjjjjaghhalllloooooooo",
"oooooooolllghh`aakkaaakkjjjjjjjagnngmllloooooooo",
"oooooooolllfhhbkkkkkkkkjiiijjjjafnnhcllloooooooo",
"oooooooolllahgakkkkkjjjjiiijjjjk`nn`lllloooooooo",
"oooooooolllknfakjjkkkkkkkkjjjjjkbnhdlllloooooooo",
"oooooooollldhbkkkabbaaaaaakkkkjkanallllloooooooo",
"oooooooollmdfakbb`fgffbkbfff`baaahellllloooooooo",
"oooooooollk`fka`fghhhgaiaghhhg`bkfjdlllloooooooo",
"oooooooollbbakkaaa`fg`kikgggf``akb``lllloooooooo",
"oooooooollabbkjkkabbajjijab`bakjkbablllloooooooo",
"oooooooolleb`kkjjjjjjjjijkjjkjjjk`ajlllloooooooo",
"oooooooollmbbkkjjijjjkjijkkjiijjkbkdlllloooooooo",
"oooooooollljakkjjjjkkkaaaaakjjjkkkkmlllloooooooo",
"oooooooolllmakkkkkkkbffffgbaakkkkjdllllloooooooo",
"oooooooolllldjkaaaakab`gf`kabaaaailllllloooooooo",
"oooooooolllllckabakjkb`f`akkabbaillllllloooooooo",
"oooooooolllllmkaaaaaabff`baaaabadllllllloooooooo",
"oooooooolllllljaab`ghhhhhnhg`abamllllllloooooooo",
"oooooooolllllleabbb``````f``bbbjlllllllloooooooo",
"oooooooolllllldabaaabffff`bbb`bdlllllllloooooooo",
"oooooooolllllcaabaaab`fgf`abb`bfcllllllloooooooo",
"oooooooolllllb`bbbaaaaaaaaab``bhkllllllloooooooo",
"oooooooolllllgfab`bakkkkkkab``bnbllllllloooooooo",
"oooooooollllmhgbb``bbabbab`ff``ngclllllloooooooo",
"oooooooollmifhn`bbfgffffffgf```hgilllllloooooooo",
"oooooooojbghhhnh`bb`ghhhhgffffghh`mllllloooooooo",
"oooooooohhhnhhnng````fgggfffffhhhhfjmllloooooooo",
"oooooooohhhnnhnnngf``fggggffghhnhhhggkcloooooooo",
"oooooooohhhnnnnnnnhgfgghgggghnnnhhhggggkoooooooo",
"oooooooohhhhnnnnnnnnhhhhhhnnnnnnnhhhghhgoooooooo",
"oooooooohhhhnnnnnnnnnnnnnnnnnnnnnhhhhhhhoooooooo",
"oooooooohhhhhnnnnnnnnnnnnnnnnnnnhhhhhhhhoooooooo",
"oooooooohhhhnnnnnnnnnnnnnnnnnnnhhhhhhhhhoooooooo",
"oooooooohhhhhnnnnnnnnnnnnnnnnnhhhhhhhhhhoooooooo",
"oooooooohhhhhnnnnnnnnnnnnnnnnhhhhhhhhhhhoooooooo",
"oooooooohhhnhhhnnnnnnnnnnnnnnhhhhhhhhhhhoooooooo"
};
