#define face_width 48
#define face_height 48
static unsigned char face_bits[] = {
 0x00,0x01,0x00,0x00,0x00,0x00,0x40,0x00,0x00,0x00,0x00,0x00,0x00,0x00,0x00,
 0x00,0x00,0x00,0x40,0x00,0x00,0x00,0x00,0x00,0x00,0x00,0x00,0x00,0x00,0x00,
 0x00,0x00,0x00,0x00,0x00,0x00,0x00,0x00,0x00,0x00,0x00,0x00,0x00,0x00,0x00,
 0x00,0x00,0x00,0x00,0x00,0xa0,0x07,0x00,0x00,0x00,0x00,0xd8,0x1d,0x00,0x00,
 0x00,0x00,0xec,0x16,0x00,0x00,0x00,0x00,0xfc,0x5f,0x00,0x00,0x00,0x00,0x9e,
 0xbe,0x00,0x00,0x00,0x00,0x05,0xd0,0x01,0x00,0x00,0x00,0x23,0xb4,0x81,0x00,
 0x00,0x80,0x05,0xc1,0x03,0x00,0x00,0x80,0x03,0xd4,0x43,0x01,0x00,0xa0,0x01,
 0x50,0x4f,0x00,0x00,0xe0,0x01,0xa1,0x27,0x01,0x00,0xd0,0x2b,0x88,0x4b,0x00,
 0x00,0xe8,0x81,0xa4,0x07,0x01,0x00,0xf0,0x10,0x80,0x43,0x00,0x00,0x68,0xc1,
 0xa2,0x07,0x00,0x00,0xd0,0x04,0x81,0x03,0x01,0x00,0xc0,0x81,0xd0,0x07,0x00,
 0x00,0x00,0x00,0x02,0x0f,0x00,0x00,0x00,0x24,0xa4,0x0f,0x00,0x00,0x00,0x80,
 0x82,0x07,0x00,0x00,0x00,0x44,0xa8,0x07,0x00,0x00,0x00,0x02,0x82,0x07,0x00,
 0x00,0x00,0x14,0xe8,0x02,0x00,0x00,0x00,0x88,0x68,0x02,0x00,0x00,0x00,0x20,
 0x9a,0x06,0x00,0x00,0x00,0x40,0x25,0x15,0x00,0x00,0x00,0x00,0x84,0x02,0x00,
 0x00,0x00,0x40,0x51,0x44,0x00,0x00,0x00,0x20,0x80,0x00,0x00,0x00,0x00,0x00,
 0x24,0x22,0x00,0x00,0x00,0x44,0x81,0x00,0x00,0x00,0x00,0x01,0x08,0x90,0x00,
 0x00,0x20,0x10,0x00,0x00,0x00,0x00,0x00,0x00,0x00,0x22,0x00,0x00,0x20,0x80,
 0x10,0x10,0x00,0x00,0x04,0x12,0x40,0x00,0x00,0x00,0x20,0x00,0x01,0x88,0x00,
 0x00,0x08,0x00,0x00,0x11,0x00,0x00,0x81,0x10,0x04,0x80,0x00,0x00,0x10,0x80,
 0x00,0x00,0x00};
