#define face_width 48
#define face_height 48
static unsigned char face_bits[] = {
 0x00,0x00,0x00,0x00,0x00,0x00,0x00,0x00,0x00,0x00,0x00,0x00,0x00,0x00,0x00,
 0x00,0x00,0x00,0x00,0x00,0x40,0x01,0x00,0x00,0x00,0x00,0xf0,0x0f,0x00,0x00,
 0x00,0x00,0xfc,0x1f,0x00,0x00,0x00,0x00,0xfc,0x3f,0x00,0x00,0x00,0x00,0xfe,
 0x3f,0x00,0x00,0x00,0x00,0xff,0x7f,0x00,0x00,0x00,0x00,0xff,0x7e,0x00,0x00,
 0x80,0x80,0x2b,0xfe,0x00,0x00,0x00,0x00,0x03,0xfc,0x00,0x00,0x00,0x80,0x01,
 0xf8,0x00,0x00,0x00,0x80,0x80,0xf8,0x00,0x00,0x00,0x80,0x10,0xf8,0x00,0x00,
 0x00,0x80,0x02,0xfd,0x00,0x00,0x00,0x00,0x01,0xfa,0x01,0x00,0x40,0x00,0xda,
 0xe6,0x01,0x00,0x00,0x00,0xc1,0xf0,0x01,0x00,0x00,0x00,0xd2,0xf0,0x00,0x00,
 0x00,0x00,0x40,0xf2,0x00,0x00,0x00,0x00,0x80,0x70,0x00,0x00,0x00,0x00,0x44,
 0x69,0x00,0x00,0x00,0x00,0x00,0x70,0x00,0x00,0x00,0x00,0xd0,0x71,0x00,0x00,
 0x00,0x00,0x00,0x68,0x00,0x00,0x00,0x00,0x20,0x78,0x00,0x00,0x00,0x00,0x00,
 0xfa,0x01,0x00,0x00,0x00,0x00,0x1c,0x03,0x00,0x00,0x00,0x00,0x0f,0x01,0x00,
 0x00,0x00,0x40,0x00,0x00,0x00,0x00,0x00,0x00,0x20,0x40,0x00,0x00,0x00,0x20,
 0x00,0xc0,0x01,0x00,0x00,0x18,0x00,0x00,0x00,0x00,0x00,0x00,0x02,0x7c,0x01,
 0x00,0x00,0x1e,0x00,0xd0,0x01,0x00,0x80,0x21,0x80,0x00,0x02,0x00,0x00,0x34,
 0xc0,0x2f,0x00,0x00,0x80,0x0f,0x00,0xfe,0x00,0x00,0x40,0xe1,0x3f,0xc0,0x00,
 0x00,0x40,0x78,0xff,0x03,0x01,0x00,0x00,0x0f,0x40,0x3f,0x01,0x00,0x80,0xc3,
 0x00,0x78,0x02,0x00,0x40,0xf8,0x7f,0x40,0x00,0x00,0x64,0x0e,0xfa,0xc7,0x02,
 0x00,0xe0,0x03,0x00,0xbf,0x00,0x80,0x00,0xf8,0x03,0xb8,0x00,0x00,0x00,0xde,
 0xff,0x20,0x02};
