/* XPM */
static char *noname_xpm[] = {
/* width height ncolors chars_per_pixel */
"48 48 17 1",
/* colors */
"` c black",
"a c grey33",
"b c grey47",
"c c grey40",
"d c grey87",
"e c grey80",
"f c grey73",
"g c grey27",
"h c grey20",
"i c grey13",
"j c grey67",
"k c grey60",
"l c grey53",
"m c white",
"n c grey93",
"o c grey7",
"p s None c None",
/* pixels */
"ppppppmmmmmmmmmmmmmmmdfjemmmmmmmmmmmmmmmmmpppppp",
"ppppppmmmmmmmmmmmmmnjbagclnmnmdenmmmmmmmmmpppppp",
"ppppppmmmmmmmmmmmmekcahhhgcljeejknmmmmmmmmpppppp",
"ppppppmmmmmmmmmmmklchgghhiiihgcggbmmmmmmmmpppppp",
"ppppppmmmmmmmmmmkcbcggiiioooogchhhkmmmmmmmpppppp",
"ppppppmmmmmmmmmkgachioioooo`oiahiihdmmmmmmpppppp",
"ppppppmmmmmmmmkhghiiioiiioo`oohiooibmmmmmmpppppp",
"ppppppmmmmmmmfihiooooiioooooo`oooooofmmmmmpppppp",
"ppppppmmmmmmmgiiooo`ooiioo`oooooo``obmmmmmpppppp",
"ppppppmmmmmmeioioooohhhhiiigahio`o`okmmmmmpppppp",
"ppppppmmmmmmfoooooihaahhhhgblcaho``oemmmmmpppppp",
"ppppppmmmmmmcoiooihaaghaccblbggaio``emmmmmpppppp",
"ppppppmmmmmmhoooighiihaccbcghiihho`inmmmmmpppppp",
"ppppppmmmmmno`ooaaiiiialllaiiiiiho`cmmmmmmpppppp",
"ppppppmmmmmno`ohbgiiiihcccaiioogao`fmmmmmmpppppp",
"ppppppmmmmmeooohghgggaahghihihiigo`fmmmmmmpppppp",
"ppppppmmmmmdioiblljbaclalaihggggio`fmmmmmmpppppp",
"ppppppmmmmmmahiedjkchgbjmlhihaaahgodmmmmmmpppppp",
"ppppppmmmmmmefgnmkeekklnmdgggggcbhbmmmmmmmpppppp",
"ppppppmmmmmmdnbnmnjfkbfmmmbcbccbkhlmmmmmmmpppppp",
"ppppppmmmmmmmdemmmmfkjmmmmebcalfjgbmmmmmmmpppppp",
"ppppppmmmmmmmfmmnnmndnmmmmmblkefkbjmmmmmmmpppppp",
"ppppppmmmmmmmnnnmdmmeemmmmdblfjfjknmmmmmmmpppppp",
"ppppppmmmmmmmmnememmfabnelihakljlfmmmmmmmmpppppp",
"ppppppmmmmmmmmndnnndegihhiigbkllbfmmmmmmmmpppppp",
"ppppppmmmmmmmmmmmmneekccahhllklbbfmmmmmmmmpppppp",
"ppppppmmmmmmmmmmmnnedjefjbcjjekljdmmmmmmmmpppppp",
"ppppppmmmmmmmmnnnnmemmejkkljdffkjmmmmmmmmmpppppp",
"ppppppmmmmmmmmnnmnmemmndeffjdjkkkmmmmmmmmmpppppp",
"ppppppmmmmmmmmmnmnmdnmndejkkmfklkmmmmmmmmmpppppp",
"ppppppmmmmmmmmmnmdmndmeejjjjmkklkmmmmmmmmmpppppp",
"ppppppmmmmmmmmmnmnmmkjjfkkkddbkkjmmmmmmmmmpppppp",
"ppppppmmmmmmmmmnmmmmcgggaccmelkkfmmmmmmmmmpppppp",
"ppppppmmmmmdnmmmmnmmj`o`ooenkjkkemmmmmmmmmpppppp",
"ppppppmmmmdffnemmmmmdo``obmdkjklfmmmmmmmmmpppppp",
"ppppppnmmejlkednmmmmehi`odmfkkbbjmmmmmmmmmpppppp",
"ppppppclfkcalednmmmmehooammjkbbafmmmmmmmmmpppppp",
"ppppppghbcahlfemmmmmdho`kmnkkbcammmmmmmmmmpppppp",
"ppppppggaaghbfemmmmmfio`fmdklbabjmmmmmmmmmpppppp",
"ppppppghgghhajdmmmmnki`oemeklbacajdnmmmmmmpppppp",
"pppppphihhhhhjdmmmmebo`ienfkbcgahbkafmmmmmpppppp",
"pppppphiighhikmmmmnea``ifdfjlchhilhgljdmmmpppppp",
"ppppppaooihhiemmmmnfh``ienndlchoigicbkffnmpppppp",
"ppppppgooioohmmmmnel````emmnkbhohiicbjbbjfpppppp",
"pppppphi`go`kmmmmekh````bmmmfbhoiiiakbhblhpppppp",
"pppppphihc``nmmmdkl`````hnmmmjaoiohklhhjhhpppppp",
"pppppphiig`kmmmnfkc``````emmmebiioghgicchapppppp",
"ppppppo````feefjlbo``````cfffjai```oo`aooopppppp"
};
