#define noname_width 48
#define noname_height 48
static char noname_bits[] = {
 0x40,0x10,0x04,0x24,0x82,0x08,0x10,0x45,0x51,0x49,0x29,0x05,0x20,0x08,0xaa,
 0x22,0x92,0x08,0x48,0xa5,0xf4,0x9f,0x24,0x05,0x20,0x08,0xfb,0x77,0x91,0x08,
 0x88,0x52,0x6d,0xdd,0x24,0x05,0x20,0x84,0xb5,0x6a,0x49,0x08,0x10,0x51,0x6b,
 0xbf,0x25,0x05,0xa0,0xc4,0xde,0xd4,0x49,0x02,0x08,0xa9,0xab,0xbb,0x26,0x09,
 0x50,0xc4,0xf6,0xff,0x93,0x04,0x00,0xd1,0xfd,0xff,0x4d,0x02,0x50,0x6a,0xff,
 0xff,0x93,0x04,0x10,0xc1,0xff,0xff,0x27,0x05,0xa0,0xdc,0xff,0xff,0x4f,0x02,
 0x08,0xe9,0xff,0xea,0x27,0x09,0x50,0xfa,0x5f,0xbf,0x9f,0x04,0x80,0x74,0xf5,
 0xfd,0x5f,0x02,0x50,0xe8,0x5e,0x77,0x4f,0x05,0x10,0x75,0xf7,0xde,0x2f,0x04,
 0xa0,0x50,0x55,0x6b,0xad,0x02,0x10,0xea,0xaa,0xde,0x1f,0x09,0xa0,0x94,0x6a,
 0x2b,0xa5,0x02,0x90,0xd2,0xaa,0xd6,0x2e,0x09,0x50,0x54,0x55,0xad,0x93,0x02,
 0x08,0xa5,0xea,0xb6,0x4a,0x09,0x50,0x52,0x55,0xaf,0x15,0x02,0x48,0x49,0xd5,
 0x55,0xc5,0x0a,0x90,0xa4,0xba,0xf6,0x2a,0x05,0x48,0x92,0xaa,0x5f,0x51,0x02,
 0x90,0xa4,0x6a,0xa9,0x4a,0x05,0x48,0x15,0xd5,0xd6,0x25,0x09,0x90,0xa4,0x2d,
 0x6d,0xaa,0x02,0x48,0x52,0x55,0xb5,0x49,0x0a,0x90,0x8a,0x6a,0x5b,0xa5,0x0a,
 0xa0,0xa4,0xb6,0xad,0x29,0x05,0x48,0x89,0x6a,0x7b,0x51,0x02,0x50,0x02,0xad,
 0x56,0x85,0x0a,0x90,0x00,0xd5,0xaa,0x50,0x05,0x48,0x00,0x54,0x6d,0x81,0x04,
 0x10,0x00,0xb5,0x55,0x00,0x0a,0x08,0x00,0xa8,0x1a,0x00,0x04,0x00,0x00,0x40,
 0x05,0x00,0x00,0x00,0x00,0x10,0x80,0x80,0x00,0x00,0x00,0x80,0x00,0x08,0x00,
 0x00,0x00,0x00,0x10,0x00,0x00,0x00,0x00,0x00,0x00,0x00,0x01,0x00,0x00,0x04,
 0x82,0x00,0x00};
