/* XPM */
static char * face_xpm[] = {
/* width height ncolors chars_per_pixel */
"48 48 17 1",
/* colors */
" 	s None	c None",
".	c firebrick",
"X	c green",
"o	c sky blue",
"O	c lime green",
"+	c black",
"@	c tan",
"#	c dark slate grey",
"$	c orange",
"%	c navy",
"&	c sienna",
"*	c dodger blue",
"=	c yellow",
"-	c peru",
";	c sea green",
":	c slate grey",
">	c red",
/* pixels */
"                                                ",
"                                                ",
"                                                ",
"                                                ",
"                                                ",
"                                                ",
"                                                ",
"                                                ",
"                                                ",
"         .   XX   o   oo    OO   +   @@         ",
"         .  X  X  o  o  o  O  O  +  @  @        ",
"         .  X  X  o  o  o  O  O  +  @  @        ",
"         .  X  X  o  o  o  O  O  +  @  @        ",
"         .   XX   o   oo    OO   +   @@         ",
"                                                ",
"          ##   $   $$    ##   %   &&   #        ",
"         #  #  $  $  $  #  #  %  &  &  #        ",
"         #  #  $  $  $  #  #  %  &  &  #        ",
"         #  #  $  $  $  #  #  %  &  &  #        ",
"          ##   $   $$    ##   %   &&   #        ",
"                                                ",
"         *  =   --   &  #   OO    ;;   $        ",
"         *  =  -  -  &  #  O  O  ;  ;  $        ",
"         *  =  -  -  &  #  O  O  ;  ;  $        ",
"         *  =  -  -  &  #  O  O  ;  ;  $        ",
"         *  =   --   &  #   OO    ;;   $        ",
"                                                ",
"          ##   %  $   ++    **   =   ::         ",
"         #  #  %  $  +  +  *  *  =  :  :        ",
"         #  #  %  $  +  +  *  *  =  :  :        ",
"         #  #  %  $  +  +  *  *  =  :  :        ",
"          ##   %  $   ++    **   =   ::         ",
"                                                ",
"         -   **   .  >   @@   @   &&   .        ",
"         -  *  *  .  >  @  @  @  &  &  .        ",
"         -  *  *  .  >  @  @  @  &  &  .        ",
"         -  *  *  .  >  @  @  @  &  &  .        ",
"         -   **   .  >   @@   @   &&   .        ",
"                                                ",
"                                                ",
"                                                ",
"                                                ",
"                                                ",
"                                                ",
"                                                ",
"                                                ",
"                                                ",
"                                                "};
