/* XPM */
static char *noname_xpm[] = {
/* width height ncolors chars_per_pixel */
"48 48 17 1",
/* colors */
"` c black",
"a c grey33",
"b c grey47",
"c c grey40",
"d c grey87",
"e c grey80",
"f c grey73",
"g c grey27",
"h c grey20",
"i c grey13",
"j c grey67",
"k c grey60",
"l c grey53",
"m c white",
"n c grey93",
"o c grey7",
"p s None c None",
/* pixels */
"ppppppnefjjjjjkljffeeeffjffeeeefeeefjjkjfepppppp",
"ppppppnefjjfjkkkjfffeffjjjffeeefffffjkjjfepppppp",
"ppppppdefjjjjkkljfjffffjjjjfffffffejjkjkfepppppp",
"ppppppdefjjjjklkjfffeflcbcccacajffjjkjkjfepppppp",
"ppppppdfjjkkkkkkjjffkchihioihbbkjkkllkjkffpppppp",
"ppppppefjjkkjklljjjlgh```````iagcachglkjffpppppp",
"ppppppefjkkkkklkjkgii`````````hhhohi`alkffpppppp",
"ppppppefjkkkklllkh````````oo```````ooihljfpppppp",
"ppppppejjkkkklllh````````````````````i`ajfpppppp",
"ppppppfjkkkkklbo``````````````````````ocjfpppppp",
"ppppppffkkklllg```````````````````````oajjpppppp",
"ppppppfjkklkla`````````````````````````hcjpppppp",
"ppppppfjklklbo``````````iioo```````````oiapppppp",
"ppppppjjkllla``````````hclbbahihgo````````pppppp",
"ppppppjjkllbo`````````ohkjjjjjkkkcho``````pppppp",
"ppppppjkkllb```````iihacjeeeedeejkcgo````ipppppp",
"ppppppfkkllg``````oihacljeddddddejlai````hpppppp",
"ppppppjkklb```````ohgabljeeedddeejlch```oopppppp",
"ppppppjkkbh```````ohgblkjfeeeddefjlbh```c`pppppp",
"ppppppjklbo``````ohihcljjeedndnnefkba```aipppppp",
"ppppppjklh```````iiihgggackedmnneejka```ogpppppp",
"ppppppkklo```````iiioohho`ockffkbaaca```olpppppp",
"ppppppjklh```````hhiihioioohbjlco``oo```hlpppppp",
"ppppppkkbc``````oiggioo`hhoibfc```oio```ckpppppp",
"ppppppkklbo`````ohcccabccaggbjcho`h`h``iblpppppp",
"ppppppklbb``o```ohablbcccccabjchggbgao`cllpppppp",
"ppppppklbboohi```hgclfjkjkbcbjbccccbbohlllpppppp",
"ppppppkkbch`hgi`ohhalfefjbaabjbbjjjkbgbbllpppppp",
"ppppppklbba`hgi`oihabkkbcgcabjbcljfkccblllpppppp",
"ppppppklbbcioho`oiigcbahahaabfbcabkkacbblbpppppp",
"ppppppklbbcah```oiihag`oo```hgihhgbcgbblbbpppppp",
"ppppppklbbbci````iogah```````````iaghcblbbpppppp",
"ppppppklbbcbh````ioggio`oooooo```oghgcbbbbpppppp",
"ppppppklbbljl````ooihgao`hhagahooohiacbblbpppppp",
"ppppppklbbffeh```ooihacahihbahohhiihaccbbbpppppp",
"ppppppkllfjndjo```iohaagcbbbcahagoiaccbbbbpppppp",
"ppppppllkdjnnnco``iihaaghgcbbcgachgccccbbbpppppp",
"pppppplcleedmmdh``oiigcagghhhhhcagcaccbbbbpppppp",
"ppppppbhaememmmjo``ooiacbcblcaaagacccccbbcpppppp",
"ppppppbihjmnnmmmb````ogacblbbaggcccacccbcbpppppp",
"ppppppchiammdmmmdg````oigaaacghcccacaccbbcpppppp",
"ppppppcghidmnnmmmji`````oiihhiabcccaccbcbcpppppp",
"ppppppbahilmmnmmmnlo````````gebbccacaccbbcpppppp",
"ppppppblghimmmnmmmebo``````ikmjbcccaccbbbcpppppp",
"ppppppgachofmmnmmmmecio``iigbnmlccacccbcbcpppppp",
"ppppppaghgicmmmnmmmndgio`ihbffmdbccaccbbbcpppppp",
"ppppppkahghommmnmmmmmjiiihgjndembcccacbbbcpppppp",
"ppppppbaioh`keddfedebcgoiihkeekjbggggaaaaapppppp"
};
