#define noname_width 48
#define noname_height 48
static char noname_bits[] = {
 0xf8,0xff,0xff,0xff,0xff,0x0f,0xf8,0xff,0xbf,0xf4,0xff,0x0f,0xf8,0x6f,0xed,
 0xa3,0x5b,0x05,0xa8,0xda,0xbf,0x1f,0xaa,0x0a,0x50,0xf5,0xff,0xaf,0x54,0x01,
 0xa8,0xfa,0xff,0x5d,0x00,0x00,0xa0,0xfe,0xaf,0x7e,0x49,0x02,0x50,0xff,0xff,
 0xf7,0x03,0x00,0xa0,0xff,0xff,0xee,0x2b,0x01,0x50,0xff,0xff,0xfb,0x0a,0x00,
 0xa0,0xff,0xdd,0x57,0x2b,0x00,0xd0,0xff,0xff,0xad,0x2a,0x01,0xf0,0xff,0xff,
 0xaa,0x16,0x00,0xe8,0xff,0xef,0x47,0x68,0x00,0xf0,0xff,0x2b,0x00,0x34,0x01,
 0xf0,0xff,0x05,0x00,0x78,0x00,0xf0,0x7f,0x05,0x00,0x3c,0x01,0xf0,0xff,0x05,
 0x00,0x70,0x00,0xf0,0xdf,0x1e,0xb4,0x75,0x05,0xc8,0xff,0xff,0xfd,0x7b,0x00,
 0xd0,0xff,0xff,0xff,0xb7,0x02,0xe8,0xff,0xff,0xf8,0x5d,0x04,0xd0,0xff,0xff,
 0xbc,0x5b,0x09,0xc8,0xde,0xeb,0xd0,0x32,0x04,0xd0,0xff,0xbe,0x28,0xb5,0x02,
 0x50,0xbf,0xd7,0x50,0xb1,0x04,0xa8,0xdf,0x68,0x01,0x28,0x09,0xa0,0xfe,0xd2,
 0x20,0x70,0x05,0xa8,0xbf,0x7d,0x61,0x34,0x02,0xa8,0xff,0xed,0xdd,0xb5,0x0a,
 0x50,0xbf,0xff,0xff,0xb5,0x04,0x90,0xff,0xff,0xff,0x7d,0x05,0xc8,0xff,0xff,
 0xff,0x9f,0x04,0x50,0xff,0x7f,0xd5,0x7b,0x05,0x68,0xff,0xff,0xea,0x5d,0x05,
 0x50,0xfd,0x2f,0xc1,0xbf,0x0a,0x58,0xfd,0x7f,0xdd,0x5f,0x09,0xa0,0xfe,0xff,
 0xf7,0x5f,0x05,0x58,0xfd,0xff,0xff,0xaf,0x0a,0xa0,0xfa,0xff,0xff,0x5f,0x05,
 0x10,0xed,0xff,0xff,0xaf,0x0a,0x00,0xf5,0xff,0xff,0x57,0x05,0x00,0xf4,0xff,
 0xff,0xab,0x0a,0x00,0xd8,0xff,0xff,0x56,0x05,0x00,0xb0,0xff,0x7f,0xab,0x0a,
 0x00,0x48,0xff,0x7f,0x5a,0x05,0x00,0xa0,0xfd,0x57,0xa8,0x0a,0x00,0x51,0xef,
 0x7a,0x74,0x0f};
