/* XPM */
static char * royle_xpm[] = {
/* width height ncolors chars_per_pixel */
"48 48 16 1",
/* colors */
" 	s None	c None",
".	c grey67",
"X	c grey87",
"o	c grey80",
"O	c grey73",
"+	c grey53",
"@	c grey47",
"#	c grey60",
"$	c grey40",
"%	c grey33",
"&	c grey27",
"*	c grey20",
"=	c grey93",
"-	c white",
";	c grey13",
":	c grey7",
/* pixels */
"                                                ",
"                    .X  o..O                    ",
"                  .+@#+#@@+#..oOX               ",
"                O.@@@$$$$@@$@###.O.             ",
"               ++@$$$%%%%$$$$%$$$@@+#           ",
"              @%@@$$$%%%%%%%%%%&%$@+++          ",
"            +$%&%$$%%%%&&&&&%&&&%%$$@@#         ",
"           #$%%%%$$$$%&&&&*&**&%%%%$$$@o        ",
"          +$%$$$@$$%%&&&&***&&%$$$$$%%$@        ",
"         #@%&%$$$$%&&&&&***&&&&%%%&%%%%%.       ",
"         @+@%&&%%%&&&*******&&&&&&&&&&&&%       ",
"        #%%%%&&&&&&&&********&&**&*&&&&&&#      ",
"        +%%%%&&&%%%&&&&&&***&&&****&&&&&&$      ",
"        $&&%&&&%$$%%&&&&%%&**&*****&&&&&&%.     ",
"        $&&&&&%@+#@$$$%%%%&&&&***&&&&&&&&&#     ",
"        $*&&&&$#+#..O+@@@@@%&&**&&&&&&&&&&.     ",
"       X$*&&&&@.OoX=XOO#...+$&&&&%%%&&&&&&#     ",
"       .&**&&%#oX=---=XXXooO+$%%%$@$%&&*&&.     ",
"      o$&**&&$.X=--------==o#@@@#+.#@&&**&O     ",
"      o$&***&$OX==---------XO#..OOXo+%&**&O     ",
"      =$&***%#oX==----------=X==X===.$&&*&X     ",
"      X$***&+OooX=-----------------=#&&&*%      ",
"      o%&**%.OooXX==---------------=o&***%X     ",
"       #$**@OO#+@@+#OX=------------=X$***&+     ",
"       @@&*+O.#+$%&%%@#o====Xo..OOX==#***$O     ",
"       .O+&###+$$$&&&%@#oO.@$$@$$+#o=.**&O      ",
"       oo.$...#++@%$$$+OXo#$%&&$$@.o=.*&@       ",
"      XOo#..OO.###++@+#ooO.#@$&@#+.oo###O       ",
"      O#XOOOOooO..#++#.--OO.+++..ooX.#XXX       ",
"     X+$oX.OoX=XXoO...O--OOO#..OOoX=o.XXo       ",
"     O$%+X..XX=-=XXoO#X--o.XoooXXX==Xo=oo       ",
"     .$%&#..OoX===Xo.O=--=OX====---=X--X        ",
"    o#$&*&+.OooOO.#+.X----oX==-----==-X=        ",
"    .+%&**$..OOO#@$@OX----=OOX=--===X#.         ",
"    o+%&**$##++@$%@#+.X==oo+@+#.OX=X$#o         ",
"    o+%***@##+@%&$+#+@@+#+..#$@.oooO$O          ",
"    o.$***@+##+@%%$@#+@@+.OoO+%@.Oo#@O          ",
"     #%***+@#+++++$$@++++##++@@+.oo..           ",
"     #%*;*#@++++#.O.#.O.O#++.O..Oo.O            ",
"     X+**&#$$+++#.OOOOoooooXXoOOOO#             ",
"     =#**&#@%@++#.OO....OoXXoO...@+             ",
"   .@$*;;&##$$@+#.ooOO.OOooXoO..@&#             ",
"   *;;;;;*##+%$@+.oXXXXXXXXXO..@$%              ",
"   *;;;;;;+.#$%$$+.oXXX===Xo.#@***&%@           ",
"   ;;;:::;&##+$&%$@+Oooooo.#+@*;;;;;;;*$        ",
"   ;;;::::;@##@%&&&%$@+#++@$$@;;;:::;;**;%      ",
"   ;;;:::::*+#+@%******&&&%$+%;;;:::::;;;;*     ",
"   ;;;::::::&+++@%&*;****&%#.&:;**;::::;;:;*    "};
