/* XPM */
static char *cdrom1_xpm[] = {
/*blue*/
"64 38 14 1",
"   c None s None",
".  c gray",
"X  c navy",
"o  c SlateBlue",
"O  c gray70",
"+  c violet",
"@  c gainsboro",
"#  c yellow",
"$  c LightSteelBlue4",
"%  c orange",
"&  c white",
"*  c black",
"=  c LightSkyBlue",
"-  c cyan",
"                      .......................................X  ",
"                      ......................................XX  ",
"                      ..ooooooooooooooooooooooooooooooooooooXX  ",
"                      ..ooooooooooooooooOOOOOoooooooooooooooXX  ",
"                      ..oooooooooooooOOO+++++OOOooooooooooooXX  ",
"                      ..oooooooooooOO@++++++++++OOooooooooooXX  ",
"                    ##$.oooooooooOO@@@@+++++++++++OOooooooooXX  ",
"         ###$     ##$$$.ooooooooO@@@@@@+++++++++++++OoooooooXX  ",
"        ##$$      #$  ..oooooooO@@@@@@@++++++++++++++OooooooXX  ",
"       ##$        #$  ..ooooooO@@@@@@@@@++++++++++++++OoooooXX  ",
"       #$         #$  ..ooooooO@@@@@@@@@++++++++++++++OoooooXX  ",
"      $#$         %#  ..oooooO@@@@@@@@@@@++++++++++++++OooooXX  ",
"      $#$         $%%#..oooooO+@@@@@@@@@@++++++++++++++OooooXX  ",
"      $%#          $$%##ooooO++++@@@@@@@@&&&++++++++++++OoooXX  ",
"      $%#            $%%#oooO++++++@@@@OO@++&&++++++++++OoooXX  ",
"       $#             $$%%#oO++++++++@OO@***++&+++++++++OoooXX  ",
"       $#             ..$$%##++++#####&@*ooo*+&++++++++++OooXX  ",
"       $%             ..oo$%%#++##===##*ooooo*+&+++++++++OooXX  ",
"       $%             ..ooo$$%###=&&&==#ooooo*+&+++++++++O*oXX  ",
"       $%#            ..oooO+$###===&==##oooo*+&+++++++++O*oXX  ",
"       $%#      ##### ..oooO+$#==&&&==&-#ooo*@@@+++++++++O*oXX  ",
"       $%#    ##=====##.ooooO#=====&&&-&##**@@@O@@@+++++O**oXX  ",
"       $%#   ##==&&&==##oooo$#=======&&==#++@OOO@@@@@@@+O**oXX  ",
"        $#   #=====&&==##ooo$#========&#=#&&+@@@@@@@@@@@O*ooXX  ",
"        $%  ##=&&&&--&==##oo$#==========###++@@@@@@@@@@O**ooXX  ",
"        $%# #=====&&--&==#oo$#============#+++@@@@@@@@@O*oooXX  ",
"        $%# #=======&&===##$##==========###+++@@@@@@@@O**oooXX  ",
"        $%# #========&====#$#=======####$$$+++@@@@@@@@O*ooooXX  ",
"        $%# #=============#$#===####$$$$$$$++++@@@@@@O**ooooXX  ",
"        $%###==============####$$$$$$$$$+++++++@@@@@O**oooooXX  ",
"        $$%#===========####$$$$$$$$$++++++++++++@@OO**ooooooXX  ",
"         $%#========##$$$$$$$$$oo**OO+++++++++++OO***oooooooXX  ",
"         $%#===##$$$$$$$$$$oooooooo**OOO+++++OOO****ooooooooXX  ",
"         $%##$$$$$$$$$..ooooooooooooo***OOOOO*****ooooooooooXX  ",
"         $$$$$$$$     ..oooooooooooooooo*******oooooooooooooXX  ",
"          $$$         ..ooooooooooooooooooooooooooooooooooooXX  ",
"                      ..XXXXXXXXXXXXXXXXXXXXXXXXXXXXXXXXXXXXXX  ",
"                      .XXXXXXXXXXXXXXXXXXXXXXXXXXXXXXXXXXXXXXX  "};
