/* XPM */
static char *frame3d_tl_xpm[] = {
"8 8 3 2",
"    c white",
".   c DarkGray",
"X   c black",
/* pixels*/
"                ",
"                ",
"    . . . . . . ",
"    . . . . . . ",
"    . . . . . . ",
"    . . .       ",
"    . . .   . . ",
"    . . .   . X "};
