/* XPM */
static char * urec_fr_xpm[] = {
/* width height ncolors chars_per_pixel */
"48 48 6 1",
/* colors */
" 	s None	c None",
".	c grey",
"X	c slate grey",
"o	c dark slate grey",
"O	c black",
"+	c gainsboro",
/* pixels */
"                                                ",
"                                                ",
"                                                ",
"                                                ",
"                                                ",
"                                                ",
"                                                ",
"                                                ",
"                                                ",
"                                                ",
"                                                ",
"                                                ",
"                                                ",
"                                                ",
"                                                ",
"                                                ",
"................................................",
".........................................XoooX..",
"..OOOOOX.oOOOoOOOOOOOO....OOOOOOOOO....XoOoXooo.",
"..XX..+....X...o..+...X...XX..+..oX...oOo....o..",
"...o.......o...O..+.XX.....o..+..X...XOX.....o..",
"...o.......o...O..+..o.....o..+......oX......X..",
"...o.......o...O..+.oo.....o..+.oX...o..........",
"...o.......o...O...oOX.....o...oo+...o..........",
"...o.......o...O...XX......o...XX+...o..........",
"...o.......o...O..+.X......o..+.o+...X.......XX.",
"...o......oo...O..+.oX.....o..+...oX.XX......oX.",
"...o...XooOX...O..+.XX.....o..+...O..........O..",
".......XooX..XOO..XX.o..XoXO...oooO.......Xooo..",
".............XX..........+X....XXX..........X...",
"................................................",
"                                                ",
"                                                ",
"                                                ",
"                                                ",
"                                                ",
"                                                ",
"                                                ",
"                                                ",
"                                                ",
"                                                ",
"                                                ",
"                                                ",
"                                                ",
"                                                ",
"                                                ",
"                                                ",
"                                                "};
