#define d85_omc_width 48
#define d85_omc_height 48
static char d85_omc_bits[] = {
   0x00, 0x60, 0xff, 0xff, 0x1f, 0x00, 0x00, 0xf0, 0xff, 0xff, 0x7f, 0x00,
   0x00, 0xf8, 0xff, 0xbf, 0x3f, 0x00, 0x00, 0xf8, 0xff, 0xff, 0xff, 0x00,
   0x00, 0xfc, 0xff, 0xff, 0xff, 0x00, 0x00, 0xfe, 0xff, 0xbf, 0xff, 0x01,
   0x00, 0xfe, 0xff, 0x77, 0xff, 0x03, 0x00, 0xff, 0xff, 0x4d, 0xfe, 0x03,
   0x00, 0xff, 0xff, 0x17, 0xfe, 0x03, 0x80, 0xff, 0xff, 0x45, 0xfe, 0x07,
   0x80, 0xff, 0x5f, 0x16, 0xfe, 0x0f, 0x00, 0xff, 0x7f, 0x01, 0xfa, 0x05,
   0x80, 0xff, 0x2f, 0x03, 0xfc, 0x0f, 0xc0, 0xff, 0xaf, 0x04, 0xfc, 0x07,
   0xc0, 0xff, 0xaf, 0x01, 0xf8, 0x0f, 0xc0, 0xff, 0x5b, 0x04, 0xfc, 0x07,
   0xc0, 0xff, 0x57, 0x25, 0xf8, 0x07, 0xc0, 0xff, 0xdf, 0x9e, 0xf1, 0x07,
   0xc0, 0xff, 0x7f, 0xff, 0xf6, 0x07, 0xe0, 0xff, 0x6f, 0x3d, 0xf1, 0x07,
   0xe0, 0xff, 0x3f, 0x7f, 0xe8, 0x03, 0xc0, 0xff, 0x5f, 0x7d, 0xc3, 0x07,
   0xe0, 0x7b, 0x1f, 0x6e, 0xe1, 0x07, 0xe0, 0xdf, 0x3f, 0xb8, 0xe0, 0x07,
   0xe0, 0xeb, 0x2f, 0x2e, 0xe8, 0x07, 0x80, 0xff, 0x1f, 0x58, 0xd0, 0x03,
   0x80, 0xf7, 0x17, 0x24, 0xe0, 0x07, 0x80, 0xff, 0x0d, 0x50, 0xc0, 0x01,
   0x80, 0xbf, 0x3f, 0x40, 0xf0, 0x02, 0x00, 0xff, 0xbd, 0x21, 0x20, 0x00,
   0x00, 0xec, 0x1e, 0x00, 0x00, 0x00, 0x00, 0x7e, 0x3f, 0x80, 0x00, 0x00,
   0x00, 0xbe, 0x2d, 0x00, 0x00, 0x00, 0x00, 0xec, 0x2e, 0x00, 0x10, 0x00,
   0x00, 0xfe, 0x2f, 0x00, 0x00, 0x00, 0x00, 0xfe, 0xdf, 0x02, 0x00, 0x00,
   0x00, 0xfc, 0xab, 0x04, 0x00, 0x00, 0x00, 0xec, 0x2f, 0x00, 0x0c, 0x00,
   0x00, 0xf8, 0x3f, 0x21, 0x10, 0x00, 0x00, 0xf8, 0xff, 0x02, 0x04, 0x00,
   0x00, 0xfc, 0x4f, 0x84, 0x04, 0x00, 0x00, 0xfc, 0x9f, 0x10, 0x04, 0x00,
   0x00, 0xfe, 0x2e, 0x44, 0x04, 0x00, 0x00, 0xff, 0xdf, 0x00, 0x2f, 0x00,
   0x80, 0xff, 0xbf, 0x54, 0x46, 0x01, 0x00, 0xff, 0x7f, 0xc3, 0x97, 0x04,
   0x80, 0xff, 0xff, 0x50, 0x47, 0x01, 0x80, 0xff, 0xff, 0xd6, 0x27, 0x09};
