#define noname_width 48
#define noname_height 48
static char noname_bits[] = {
 0x00,0x00,0x00,0x00,0x00,0x00,0x00,0x00,0xe0,0x0f,0x00,0x01,0x00,0x00,0xf8,
 0x3f,0x28,0x00,0x00,0x00,0xfe,0xff,0x80,0x00,0x00,0x00,0xff,0x7f,0x01,0x02,
 0x00,0x00,0xfd,0xff,0x23,0x00,0x00,0x80,0xff,0xff,0x01,0x00,0x00,0xc0,0x2f,
 0xe9,0x0f,0x01,0x00,0xc0,0x13,0xd4,0x47,0x00,0x00,0xe0,0x25,0x41,0x0f,0x00,
 0x00,0xe0,0x02,0x54,0x0f,0x00,0x00,0xf0,0x95,0x40,0x1f,0x00,0x00,0xf0,0x01,
 0x54,0x8d,0x00,0x00,0xf8,0x0a,0x40,0x1f,0x00,0x00,0xf0,0x41,0xa9,0x0e,0x00,
 0x00,0x78,0x2a,0xa4,0x8d,0x00,0x00,0xf8,0xf4,0xd9,0x0f,0x00,0x00,0x78,0x95,
 0x6a,0x1b,0x00,0x00,0x78,0x7a,0xbb,0x0f,0x01,0x00,0xd0,0xda,0xee,0x0b,0x00,
 0x00,0xa8,0xfb,0x5d,0x0f,0x00,0x00,0x60,0x4a,0xe9,0x8a,0x00,0x00,0x50,0x55,
 0x99,0x07,0x00,0x00,0xa0,0xa8,0xf2,0x2c,0x00,0x00,0x50,0x55,0xad,0x0b,0x01,
 0x00,0xa0,0x82,0x5a,0x04,0x00,0x00,0x50,0x29,0x55,0x47,0x00,0x00,0xa0,0xd4,
 0xea,0x16,0x00,0x00,0x40,0xa5,0x3a,0x83,0x00,0x00,0xc0,0x52,0xad,0x0d,0x00,
 0x00,0xb0,0x2a,0xb5,0x22,0x00,0x00,0xc0,0xaa,0xaa,0x03,0x01,0x00,0xa8,0x15,
 0xd5,0x02,0x00,0x00,0x68,0xab,0xb4,0x91,0x00,0x00,0xd8,0x56,0xf5,0x00,0x00,
 0x00,0xb5,0x6d,0xbf,0x24,0x01,0x00,0xfc,0xba,0xfd,0x00,0x00,0x00,0xd1,0xec,
 0xef,0x93,0x00,0x80,0x7c,0xfb,0xff,0x05,0x00,0x80,0x53,0xe5,0xfe,0x2f,0x01,
 0x40,0xbf,0xbb,0xfb,0xbf,0x00,0x80,0xeb,0xd6,0xde,0xff,0x01,0x40,0xad,0xdf,
 0xfb,0xfb,0x03,0x80,0xdf,0xf5,0xfe,0xbf,0x03,0x80,0x76,0xff,0x6b,0xef,0x01,
 0x80,0xde,0xff,0xff,0xff,0x03,0x00,0x7a,0xfb,0xd7,0xfb,0x01,0xc0,0xfe,0xdf,
 0x7f,0xff,0x03};
