#define noname_width 48
#define noname_height 48
static char noname_bits[] = {
 0x80,0x08,0x54,0x09,0x00,0x00,0x00,0xa2,0xae,0x97,0x08,0x00,0x80,0x44,0xff,
 0x3f,0x42,0x00,0x00,0x91,0xff,0x7f,0x00,0x00,0x00,0xea,0xfb,0x7e,0x11,0x00,
 0x40,0xc1,0xff,0xff,0x00,0x01,0x00,0xfa,0xff,0x6d,0x45,0x00,0x40,0x71,0x6f,
 0xd2,0x03,0x00,0x00,0xfa,0x3f,0xe8,0x0e,0x00,0x80,0xfa,0x0f,0xa0,0x97,0x00,
 0x00,0xfc,0x01,0xd0,0x0f,0x00,0x40,0xfd,0x03,0xa0,0xbd,0x00,0x00,0x7e,0x00,
 0x54,0x0f,0x00,0x40,0xfd,0x01,0xa0,0x1f,0x00,0x00,0x3e,0x02,0xa0,0x9f,0x00,
 0x40,0xfd,0x14,0x68,0x2f,0x00,0x80,0x3e,0xbf,0xfe,0x9f,0x00,0x00,0xff,0x2a,
 0xda,0x1e,0x00,0x80,0x1e,0x2b,0x6a,0x4f,0x02,0x00,0xfd,0x48,0xaa,0x1f,0x00,
 0x80,0x14,0x02,0x52,0x4f,0x01,0x00,0xf9,0xa0,0x84,0x16,0x00,0x80,0xba,0x00,
 0xa6,0x47,0x02,0x40,0xf4,0xa8,0x9a,0x97,0x00,0x80,0xfa,0xa2,0xeb,0x03,0x02,
 0x40,0xfa,0xfd,0x5e,0xaf,0x00,0x00,0xfd,0xfd,0xff,0x03,0x01,0x40,0xf9,0x5f,
 0xfd,0xaf,0x00,0x00,0xf5,0x57,0xf5,0x41,0x02,0x40,0xf9,0xaf,0xfe,0x97,0x00,
 0x80,0xf2,0xff,0xfb,0x11,0x01,0x40,0xd4,0xbf,0xfe,0xa5,0x00,0x80,0xda,0xff,
 0x7f,0x08,0x01,0x80,0xb2,0xff,0x7f,0xa5,0x00,0x00,0xd1,0xfe,0x9f,0x48,0x01,
 0x40,0x40,0xff,0x3f,0x55,0x00,0x00,0x54,0xff,0x4f,0x84,0x02,0x00,0x48,0xf5,
 0x97,0x52,0x01,0x00,0x90,0xfa,0x4e,0x14,0x02,0x00,0x40,0xaa,0x97,0x4a,0x01,
 0x00,0x90,0xea,0x56,0x50,0x02,0x00,0x44,0xa4,0x2f,0x29,0x01,0x00,0x00,0x51,
 0x55,0x44,0x02,0x00,0x40,0x24,0x2d,0x01,0x01,0x00,0x00,0x51,0xaa,0x04,0x01,
 0x00,0x10,0x20,0x95,0x50,0x00,0x00,0x40,0x45,0x45,0x02,0x02,0x00,0x28,0xaa,
 0x1a,0x55,0x01};
