/* XPM */
static char *noname_xpm[] = {
/* width height ncolors chars_per_pixel */
"48 48 17 1",
/* colors */
"` c black",
"a c grey33",
"b c grey47",
"c c grey40",
"d c grey87",
"e c grey80",
"f c grey73",
"g c grey27",
"h c grey20",
"i c grey13",
"j c grey67",
"k c grey60",
"l c grey53",
"m c white",
"n c grey93",
"o c grey7",
"p s None c None",
/* pixels */
"ppppppfffjjjjjjjjfjfffefefffffffffeffefefepppppp",
"ppppppfffjfjjjjfjjjfdnnfjkekjffffefeffefeepppppp",
"ppppppffjjjjjjjjjfkkfjkbbkjbkfffefffefeeeepppppp",
"ppppppfjjjjjjjjfejkjjbaaacljdkjfffeffefefepppppp",
"ppppppfjfjjjkkjjklcggggggccbkllkefefefefeepppppp",
"ppppppjjjjjkccefcghioihhgcaabbccjfeffefefepppppp",
"ppppppjjjjkcllcaabcghooiggcagggalefefefeeepppppp",
"ppppppjjjklggaggihgghiiiihghihggcfffefeffepppppp",
"ppppppjjkkahhhhhghagggghiiiooigggkeffffefepppppp",
"ppppppjkjlhiihigackkjkllbahhoighhcfefeffefpppppp",
"ppppppjjkbhhiialfdnnnnddfjlahihhihlffffefepppppp",
"ppppppjkkahihgkedmmmmmmmdeflcghhiibffeffffpppppp",
"ppppppjklhhihbfenmmmmmmmndejbahiiicfffffefpppppp",
"ppppppkkbiiohljedmmmmmmmmdejlcgihigfffffffpppppp",
"ppppppkka`iogljednmmmmmmndejkcahiogjffffffpppppp",
"ppppppkkc``ogbjedmmmmmmmmnejkcahoohjffffffpppppp",
"ppppppkkc```hbkenmmmmmmmmnejlcgio`ijjfffffpppppp",
"ppppppkka```hclkjjednmndjbcaagho``ijffjfffpppppp",
"ppppppkla```gagccghajeflggbbahhi``ikfjffjfpppppp",
"pppppplka``ocaccbbcckdecbccagggh``ijjfjjffpppppp",
"ppppppklbi`ibbahhocbjmebbaihhacao`gjfjfjfjpppppp",
"pppppplklbgglkbacclkkdeblkbcallaihgjjjjfjjpppppp",
"ppppppklljkaljjlkjjfjejbkffjkklagaajjjjjjjpppppp",
"ppppppllkjkcbjfeeddekjjbjeeefjbghgbjjjjjjjpppppp",
"ppppppllblkackednmnfkfjbldndfkcghakjjjjjjjpppppp",
"ppppppllaalcckjdnmekljjacendfbchggljkjkjkjpppppp",
"pppppplbcilcaljeddjkgaghckdekbahgalkkjjkjkpppppp",
"pppppplbaigcabljfjjlcccaaljjlcgiickkjkkkjkpppppp",
"pppppplai```gcbkkcahhghhihalbcgo`gkkkkkkkkpppppp",
"pppppplai```icbkliiihhgiooicbch``gkkkkkkkkpppppp",
"ppppppbbah``oablkbccbkkbagalbah``hlkkkkkkkpppppp",
"pppppplbbao`ohcblllbkllbcclbcgiiickkklklkkpppppp",
"pppppplbbchoohgabbllbcbcbbccghicblklklklklpppppp",
"pppppplbbbchgghgacckkllllbaghihbklkllllkllpppppp",
"ppppppblbbllkcghhgcbllllcahiiigbkkllllllllpppppp",
"ppppppbllfdnfkghhiggacaaghiiiiccbkllbllkllpppppp",
"ppppppkemmmejecgghiiiiiiiiiiialbcldjklllllpppppp",
"ppppppmnmmnjjefggghiooooiiiiallbbbendjllllpppppp",
"ppppppmnnnnkfedkagghiioihhiakkkbckfdddekllpppppp",
"ppppppmnmmnjfenmjaagghhhhhcjjjklbkefennnflpppppp",
"ppppppmmmmnjednmmjaghghhgkedfjjkcjdefdnmmdpppppp",
"ppppppmmmmnedddmmecagigaajnnekjkcennednmmmpppppp",
"ppppppmmmmndnndmk``hggahiifndfjjcnmmednmmmpppppp",
"ppppppmmmmmnnmnj````hghh``idnffllmmmddmmmmpppppp",
"ppppppmmmmmnmmdh`o``hai```obdfecemmmnemmmmpppppp",
"ppppppmmmmmmmnloihgoii````hafeebnmmmmemmmmpppppp",
"ppppppmmmmmmmeaialkbh```ihacleeknmmmmdnmmmpppppp",
"ppppppeeeeeefahacbbla``ihgcgbkkleeeeejfeeepppppp"
};
