/* XPM */
static char *noname_xpm[] = {
/* width height ncolors chars_per_pixel */
"48 48 17 1",
/* colors */
"` c black",
"a c grey33",
"b c grey47",
"c c grey40",
"d c grey87",
"e c grey80",
"f c grey73",
"g c grey27",
"h c grey20",
"i c grey13",
"j c grey67",
"k c grey60",
"l c grey53",
"m c white",
"n c grey93",
"o c grey7",
"p s None c None",
/* pixels */
"pppkkkkklkkkkkkkkkkkklkkkkkkkkkklklkkklklkkkpppp",
"pppndndddddndnnnnddddddddnnndndnddddndddddndpppp",
"pppnndddddddndeffjffeefeddddndddddddddddddddpppp",
"pppddddddddnflbcccbbbkkkkkeeddddddddnddeddddpppp",
"pppdddddeddjaaaaaagghgacccbkedddededddddedddpppp",
"pppddddedefagiihgghgooogggahcfddededdddeddddpppp",
"pppddddddechiiigaaggi``iiihiibedededddeeedddpppp",
"pppdddddejiiiihacaio````ihgiooldededddddddedpppp",
"pppddddedgoiihghi``````oiiaio`idededddeeedddpppp",
"pppdddddkoihhiooiioooo```ihhio`jededddddedddpppp",
"pppddddegihooooiiiiihhhiiiihio`lededddededddpppp",
"pppddddliiioooiiiihggccahhihio`ijdeddddeddedpppp",
"pppddddgohioooiihggabllbcghiioookdedddddedddpppp",
"pppdddeiooooooihgacbklllccaioo`obedddddededdpppp",
"pppdddbiii`ooihgabbklkkllbchoo`ocdedddddedddpppp",
"pppdddahhiiohhgcbblkkklllbcaho`ohdedddedededpppp",
"pppddeiihiiiggcbblkkkkkkllbagi`oodeddddeeddepppp",
"pppddkiiiooggccbblkkklkkllccahooodedddedededpppp",
"pppddbii``iaaccbllkkkkkklbbcag`o`eedddeeededpppp",
"pppddcho``haccbbblllllllbccaag`o`feeddedededpppp",
"pppddli```hacaahhigcbbbchooiih```feddedeeedepppp",
"pppddeio``hacghhioigcbchooiiih``oeeeedeeeedepppp",
"pppdddgo``iccggoooihclcoi``ohgo`geeedeeeeeeepppp",
"pppdddki``hccgoiogiggkchhiiihai`bdeeddeeeeedpppp",
"pppdddeg``gbbcgghhggajbhhhhgach`jeeeeeeefedepppp",
"pppddnechiabbbcaaacacjlgaaacbbaheeeedeeeeeeepppp",
"pppdddejaacbllllbbccbklaccbllbabeeeeeeeffeeepppp",
"pppdddefabcbblklblbcbkkccbbllbhjeefeeeeeffeepppp",
"pppdddeelgcbblllllcclkkcabbbbcaefefeeeeffeeepppp",
"pppdddeefghcbbcbbbcbclbaaccccalfeeffeeeffffepppp",
"pppdedeffbobcbcbccbahghigagacakfeeffeeffffeepppp",
"pppeddeefa`cccbcaccaggggagggagjffeffeeeffffepppp",
"pppdedefjh`gccbcaacccacaghhgagffefffefffffffpppp",
"pppeeeelai`occcagghhghhiohgggcffeffffefffffepppp",
"pppedeflai``ccccacghhghhgaaghlffefffffffjfffpppp",
"pppeeeklgi``ccacgccagggggaggajffeffffffjfjjfpppp",
"pppfeeflho``baaaaaaaahhhaaghabkffffjfffjjjfjpppp",
"pppfeeflg```ccaaaaaagggaaagggabffffjjjjfjjjjpppp",
"pppffefbi`o`ccagaaccaaaccagallbjfffjjjfjjjjjpppp",
"pppfffjaoihicccaggaacccaghhaennmnefjjjjjjkjjpppp",
"pppffejgccghccccggggaggghhgafnmmmmmneffjjjjjpppp",
"pppjffffjkhacbcccghhhhhiigacennmnmmmmmmndfkjpppp",
"pppjfdmjjllcbbccaaghhiiiggacennmmmmmmmmmmmndpppp",
"pppdmmndkjfjbbcacagghhhhggcbennmnmmmmmmmmmmmpppp",
"pppmmndndndelbccaaaggghhggakennnmmmnndnnmmmmpppp",
"pppnmddnndnefkcccaaggghggabfddndnmnnndnnnnnmpppp",
"pppmnddnnnddfjjbcaagggggalkjdnndmnndnddddnnnpppp",
"pppmneennnddefjkkllbbbblllkeddndnnndddedeeedpppp"
};
