#define noname_width 48
#define noname_height 48
static char noname_bits[] = {
 0x80,0x54,0x92,0x54,0x29,0x01,0x00,0x25,0xa9,0x92,0xa4,0x02,0x80,0x48,0x55,
 0x55,0x55,0x00,0x40,0xaa,0xaa,0x24,0x92,0x02,0x80,0x52,0x25,0x91,0xa4,0x02,
 0x00,0xa9,0x54,0x08,0x52,0x01,0x80,0x4a,0x55,0xa1,0x88,0x00,0x40,0x52,0x2d,
 0x10,0x40,0x02,0x80,0x54,0x55,0x44,0xa1,0x00,0x80,0xaa,0x16,0x00,0x82,0x02,
 0x00,0x95,0x55,0x00,0x48,0x02,0x80,0x54,0x0b,0x00,0x20,0x01,0x40,0xad,0x95,
 0x00,0x45,0x01,0x40,0x4a,0x2b,0x00,0x20,0x01,0x80,0xb6,0x05,0x00,0x40,0x01,
 0x40,0xcd,0xab,0x00,0x04,0x01,0x00,0xb5,0x06,0x00,0x48,0x01,0x80,0xdc,0xb5,
 0x40,0xa2,0x02,0x40,0xb5,0x0b,0x00,0x48,0x00,0x00,0xfd,0xa6,0x10,0x91,0x02,
 0x40,0xae,0x6d,0x75,0xa5,0x00,0x40,0xfd,0xfb,0xfb,0x55,0x02,0x80,0xee,0xfe,
 0xeb,0x4a,0x01,0x80,0xbc,0x5f,0x2b,0xb5,0x02,0x80,0xfa,0xb5,0xd1,0x4a,0x02,
 0x80,0xda,0x5b,0x2b,0x28,0x01,0x80,0x7a,0xa5,0x91,0xaa,0x02,0x40,0xea,0xab,
 0x25,0x51,0x01,0x80,0xf5,0xaf,0xa2,0x94,0x02,0x40,0xda,0xd6,0x29,0x55,0x01,
 0x80,0xf2,0xef,0x57,0x55,0x02,0x80,0xfa,0x55,0x97,0x52,0x01,0x40,0x7d,0xd7,
 0x2a,0x54,0x01,0x80,0xfa,0xb7,0xca,0xaa,0x02,0x80,0xfe,0xed,0x35,0x55,0x01,
 0x40,0xbf,0x77,0x57,0x55,0x02,0xc0,0xff,0xdb,0xaa,0xaa,0x02,0xc0,0xff,0x5e,
 0x5f,0x55,0x01,0xc0,0xff,0xff,0xa2,0xaa,0x02,0x40,0xff,0x5d,0x55,0x55,0x01,
 0xc0,0xff,0x7b,0xad,0xaa,0x02,0xc0,0xff,0xf7,0x7f,0x55,0x01,0xc0,0xfe,0xef,
 0x97,0xaa,0x02,0xc0,0xff,0xaf,0x8f,0x57,0x01,0xc0,0xfd,0x57,0xc7,0x6d,0x03,
 0x40,0xbf,0x1f,0x8f,0x5f,0x01,0xc0,0xef,0x8d,0xdf,0x7f,0x01,0xc0,0xff,0xff,
 0xbf,0xff,0x03};
