#define noname_width 48
#define noname_height 48
static char noname_bits[] = {
 0x00,0x00,0x00,0x00,0x00,0x00,0x00,0x00,0x00,0x00,0x00,0x00,0x00,0x00,0x00,
 0x00,0x00,0x00,0x00,0x00,0x00,0x78,0x00,0x00,0x00,0x00,0xf0,0xff,0x00,0x00,
 0x00,0x00,0xf8,0xde,0x01,0x00,0x00,0x00,0xae,0xf7,0x03,0x00,0x00,0x00,0x56,
 0x7f,0x0f,0x00,0x00,0xc0,0x0b,0xed,0x1f,0x00,0x00,0xa0,0x07,0xd8,0x3f,0x00,
 0x00,0xd0,0x12,0xe0,0x3f,0x00,0x00,0xf0,0x01,0x40,0x7d,0x00,0x00,0xb8,0x05,
 0x00,0x70,0x00,0x00,0x70,0x01,0x00,0x50,0x00,0x00,0xf8,0x02,0x00,0x68,0x00,
 0x00,0xfc,0x01,0x00,0xf0,0x00,0x00,0xfc,0x02,0x00,0x70,0x00,0x00,0xfc,0x01,
 0x00,0x30,0x00,0x00,0xfc,0xf4,0x80,0x72,0x00,0x00,0x7c,0xaa,0xa7,0x35,0x00,
 0x00,0x78,0xfd,0xe1,0x1b,0x00,0x00,0xe0,0xa0,0x82,0x37,0x00,0x00,0x34,0x08,
 0x20,0x14,0x00,0x00,0xd0,0x00,0x84,0x20,0x00,0x00,0x18,0x01,0x01,0x10,0x00,
 0x00,0xc0,0x80,0x42,0x08,0x00,0x00,0x28,0x65,0x55,0x00,0x00,0x00,0x40,0x55,
 0xbf,0x0a,0x00,0x00,0x78,0xab,0xd7,0x05,0x00,0x00,0xf0,0x5a,0x5d,0x0a,0x00,
 0x00,0xb0,0xfd,0xbf,0x05,0x00,0x00,0xf0,0xea,0xf6,0x02,0x00,0x00,0xb0,0xad,
 0xea,0x05,0x00,0x00,0x80,0x56,0x95,0x02,0x00,0x00,0xa0,0x9b,0x56,0x01,0x00,
 0x00,0x80,0x5e,0xa8,0x01,0x00,0x00,0xc0,0xb6,0x50,0x01,0x00,0x00,0x40,0x6f,
 0xa5,0x00,0x00,0x00,0xc0,0xfe,0x75,0x00,0x00,0x00,0x82,0xfb,0x5f,0x10,0x00,
 0x00,0x81,0xfd,0xbf,0x90,0x00,0x00,0x08,0xef,0x6f,0x21,0x00,0x00,0x42,0xfa,
 0x6f,0x21,0x00,0x00,0x90,0xf8,0xf7,0x00,0x01,0x00,0x40,0xde,0x7a,0x33,0x00,
 0x00,0x94,0xf4,0xef,0x03,0x01,0x00,0x00,0x6e,0x35,0x33,0x00,0x00,0xb5,0xfd,
 0xaf,0x53,0x01};
