#define noname_width 48
#define noname_height 48
static char noname_bits[] = {
 0x00,0x55,0xa5,0xaa,0xaa,0x00,0x40,0x95,0xaa,0x2a,0x95,0x02,0x80,0xaa,0xfc,
 0x55,0x55,0x01,0x80,0x52,0x6b,0xaf,0xaa,0x02,0x40,0x55,0xfe,0x7d,0x55,0x01,
 0x40,0xaa,0xff,0xef,0xab,0x02,0x80,0xea,0xff,0xff,0x57,0x01,0x40,0xd5,0xff,
 0xff,0x2d,0x01,0x80,0xea,0xef,0xff,0xaf,0x02,0x40,0xf5,0x7f,0xd5,0x5f,0x01,
 0x80,0xfa,0xdf,0x55,0xb7,0x02,0x80,0xfa,0x57,0x00,0x7f,0x01,0x40,0xfd,0x15,
 0x41,0xde,0x02,0x80,0xfe,0x57,0x00,0xbc,0x01,0x40,0xfd,0x2a,0x00,0xfa,0x01,
 0x40,0xff,0x0b,0x00,0x78,0x03,0x80,0xfe,0x16,0x00,0xf4,0x01,0x40,0xff,0x4b,
 0x00,0xf0,0x03,0x80,0xdf,0x16,0x00,0xda,0x03,0x80,0xff,0x4b,0x00,0xf0,0x03,
 0xc0,0xff,0x55,0x40,0xda,0x02,0x00,0xff,0xde,0xd3,0xf2,0x03,0xc0,0xff,0xab,
 0x72,0xf5,0x01,0x00,0xff,0xfa,0xc6,0xf7,0x03,0xc0,0xff,0x15,0x51,0xf0,0x00,
 0x00,0xff,0xaa,0x06,0x69,0x03,0xc0,0xf7,0x05,0x21,0x50,0x01,0x00,0x7f,0x4b,
 0x06,0x48,0x01,0xc0,0xef,0x05,0x11,0x6a,0x01,0x80,0xbe,0x55,0x4f,0xa0,0x02,
 0x80,0xef,0x8b,0x92,0xba,0x02,0x40,0xfe,0x6a,0x55,0x54,0x01,0x80,0xff,0x97,
 0x20,0xbd,0x02,0x40,0xff,0x6a,0x57,0x59,0x01,0x80,0xfe,0xd5,0xaa,0xba,0x02,
 0x40,0x7f,0x2f,0x25,0x5a,0x01,0x80,0xfe,0x55,0x95,0x5e,0x01,0xc0,0xfe,0x5b,
 0x49,0xad,0x02,0x80,0xfa,0xb7,0x52,0x5f,0x01,0x40,0xfd,0x6e,0x49,0xad,0x02,
 0x80,0xfa,0xbb,0xd2,0xab,0x02,0x40,0xc5,0xfe,0x55,0x55,0x01,0x80,0x15,0x6b,
 0xbf,0xaa,0x02,0x40,0x05,0xfa,0x5b,0x55,0x01,0x80,0x02,0x54,0xd7,0xaa,0x02,
 0x40,0x01,0xa8,0x5a,0x54,0x01,0x80,0x01,0x50,0x55,0xa8,0x02,0xc0,0x23,0xa1,
 0xfa,0xeb,0x03};
