/* XPM */
static char *noname_xpm[] = {
/* width height ncolors chars_per_pixel */
"48 48 17 1",
/* colors */
"` c black",
"a c grey33",
"b c grey47",
"c c grey40",
"d c grey87",
"e c grey80",
"f c grey73",
"g c grey27",
"h c grey20",
"i c grey13",
"j c grey67",
"k c grey60",
"l c grey53",
"m c white",
"n c grey93",
"o c grey7",
"p s None c None",
/* pixels */
"ppppppkkllllllllklllkkkkkkkkkkkkkkkkjkjjjjpppppp",
"pppppplllkllklklklkkkkkkkkkkkkkjkjkjkjjjjjpppppp",
"ppppppklkllllllklkkjfeedjfkjkkkkjkjkjjjjjjpppppp",
"ppppppllllllllllkkenmnndddnjjkjkkkjkkjkjjjpppppp",
"ppppppllllllllkkedfkbjlkfedenfjjjkkjjkjjjjpppppp",
"pppppplllllblllkflhhiaaclfeddnnekjkjkjjjjjpppppp",
"pppppplllbllbllcahihghhabbbfendnekjkjjkjjjpppppp",
"pppppplllllllbaiihagghggcackldmnmfjjjjjjjjpppppp",
"pppppplllllllaoohacghacblkbccfmmmmfjjjjjjjpppppp",
"pppppplllllllioigabbljfdndekcjnmmmdjjjjjjjpppppp",
"pppppplllblbc`ohgcljenmmmmmdfdnmmdfjjkjjjjpppppp",
"pppppplblllla`ohaabjfdmmmmmmmmmmmejjjjjkjjpppppp",
"ppppppblbllbh`ohgcljenmmmmmmmmnnmebfkjjkjkpppppp",
"ppppppbblbbbi`oggaljemmmmmmmmmmnnecjkjkjkkpppppp",
"ppppppbbbblb``ohacljdmmmmmmmmmmndfakkkjkkjpppppp",
"ppppppbbbbbc``ohaclkfdmmmmmmmmmdejhbjjkjjkpppppp",
"ppppppblblba``ohabkkfdnmmmmmmmndelibkkkkkkpppppp",
"pppppplblbah``iggbkjenmmmmmmmmndfbibkkkjkkpppppp",
"ppppppbbllhho`hgackjenmmmmmmmmmdfcgjkjkkjkpppppp",
"ppppppbbbbghi`ighgaaabjfenddeeeedcljkkkkkkpppppp",
"pppppplblbhhoohihhhhiiihlkaggcbljcjfkkkkkkpppppp",
"pppppplbbbgihohhhhhihhiibjghoogabkkjkkkkkkpppppp",
"ppppppbbbbghhiiggaccllaofnabbklblkbkkkkklkpppppp",
"ppppppbbbbaghohgclkkkjcgjnajjjjkkkjkklklkkpppppp",
"ppppppbbbbcahoigbljeeflljnfdnndjjkjllklkklpppppp",
"ppppppbbcbbgiohhblfffflcjnedneefjfkkllllllpppppp",
"ppppppbbbbbbg`ihakeefalbfnejdndjfjlllllklkpppppp",
"ppppppbbcbbbgoigabklbghhjekkafejklllllllllpppppp",
"ppppppbbbbbbh`ogabcccgi`iabkcglbblllllllllpppppp",
"ppppppbbbcbhi``hckaihhhgaccahhbcblblllllllpppppp",
"ppppppbccbg`ho`igklciohacaihbbkablllllllllpppppp",
"ppppppcbcco`hi`ohljklbcjjlbkfkcgbblblbllllpppppp",
"ppppppccch``oh``iglklbkkjjjjflhablbbllbllbpppppp",
"ppppppbcco```ho``igckllkklkfbhhbbbbbbbbbblpppppp",
"ppppppcbg```oig```oakfjjjjfkgibbbbbbbbbllbpppppp",
"ppppppbko```oibg```hcffefefcicbbbbbbbbbbblpppppp",
"ppppppecio``ooabo```iclkllcicbbbbbbbbbbbbbpppppp",
"ppppppehhi```oikao```oiiihhkbcbbcbcbcbbbbbpppppp",
"pppppplihho``o`clg```````ikmfbcbcbbcbbbbbbpppppp",
"ppppppliihao``iadkh`````igkmmfbcbcccbbbbbbpppppp",
"ppppppaoohfa`ihhenbhhoihggbfnmjcccbcbcbcbcpppppp",
"ppppppgooikjioihbmfchhihhccldnmkcbcbccbbbbpppppp",
"ppppppgoooifaoihhdelaaghabjkeekaccbcbbcbbcpppppp",
"ppppppgicchbjoihhgiabbbccceddddlccccccbbcbpppppp",
"ppppppahfdkgjaoi```okblbbljnennjccbccbbbbcpppppp",
"pppppplhdmelcei``h``oacbkjjnnejlbcccbcbbbbpppppp",
"ppppppkhajnjcjk`ohgo`ohbjflendggbccbccbbbcpppppp",
"ppppppliiicblhkio`ah``hbllackfilhggggggagapppppp"
};
