/* XPM */
static char *noname_xpm[] = {
/* width height ncolors chars_per_pixel */
"48 48 17 1",
/* colors */
"` c black",
"a c grey33",
"b c grey47",
"c c grey40",
"d c grey87",
"e c grey80",
"f c grey73",
"g c grey27",
"h c grey20",
"i c grey13",
"j c grey67",
"k c grey60",
"l c grey53",
"m c white",
"n c grey93",
"o c grey7",
"p s None c None",
/* pixels */
"ppppppdddddddddddndndndnddnnnnmnmmmmmmmmmmpppppp",
"ppppppddddddddddddndddedeeennnmnmnmmmmmmmmpppppp",
"ppppppddddededdddddddeefjkkeddnnmmnmnmmmmmpppppp",
"ppppppddededdedddddelbbbcbbjfeennnmmmmmmmmpppppp",
"ppppppdddedeededddfagaccgigbjfffnmnmnmnmmmpppppp",
"ppppppddeeedeedeekaaccaghioackkkennmmmmnmmpppppp",
"ppppppdedeeeedekagacbcghioohgcbljdmnmnmnmmpppppp",
"ppppppdeeeeeejahggaaghio``ohggggldnmnmnmnmpppppp",
"ppppppdeeeeejgoiihhghio```ihghhhgjnnmnnmmmpppppp",
"ppppppeeeeefhoooooiiioo```ohhhhhiadnmnmnnnpppppp",
"ppppppedeefco``oooiiio```oohhgghihjnnnnnmmpppppp",
"ppppppeeeeji```oooio``````ohghhiioadnnnnnnpppppp",
"ppppppeeefb````ooio`````o`ooiiooooijnnnmnmpppppp",
"ppppppeeefg````oooooo```o`ooooo`ooocnnnnnnpppppp",
"ppppppeefjo```oooooo```ooooooooo``oiennnnnpppppp",
"ppppppeefl`````o`oooo`oihhiiioo`o``ifnnnnnpppppp",
"ppppppeffc``````oooioihaaghiiooo```ojnnnnnpppppp",
"ppppppfefg```````oiihgccbchioioo``o`lddndnpppppp",
"ppppppefjio`````ooihalklkkaioooo`o`oadnnnnpppppp",
"ppppppffkooo``hcccljeeddeeflcghiooo`addndnpppppp",
"ppppppefl```ickennmmmmmmnndeflcaoo`oiedndnpppppp",
"ppppppffb```bjkjfdmmmmmndefkbccch```obddndpppppp",
"ppppppffc```kkbgaacbbkkccahghhgag``oildddnpppppp",
"ppppppfjl``illccccghgcbghhgcaggggo`oikddndpppppp",
"ppppppffko`ockbgghgaccbaaaahghhhi```heddddpppppp",
"ppppppffja`oallbkbbbbklacblbbghahiooldddddpppppp",
"ppppppfjjlggacbjjkjkbefackkllbccgggcedddddpppppp",
"ppppppfjjjkbcbkdddejlnfcckfefjbcggcfdeddddpppppp",
"ppppppfjjkblcljddjlbfnelbcjeefbbagbeeddeddpppppp",
"ppppppjjjjllclffkbafenelkcgbllccaalededdedpppppp",
"ppppppjjjjjkblbbahaljdfbcaagcbbaaajeeeedeepppppp",
"ppppppjjjjjkbbbaihghhcaiihgghccagledeeeedepppppp",
"ppppppjjjjjjlccgohhiiio`ooiiigcgafeeeeeeeepppppp",
"ppppppjjjjkjkccgohiiiiiiiiooogchbeeeeeedeepppppp",
"ppppppjjkjjjkbacabbcgaagghghhaggjfefeeeeeepppppp",
"ppppppjjjjjkjlaccllkklklbcaaaahaffffffeeeepppppp",
"ppppppjjkjjjkjcacllbbbbbcgaaahhiafeeeeeeeepppppp",
"ppppppjjjkjkjjlgcbllcaggaacaghh`okefefeeeepppppp",
"ppppppjjjjkjkjlaaclkklcccbcghhho`bfeeeeefepppppp",
"ppppppjkjkjkjkaagabkjkkklbghhhgioajefefeeepppppp",
"ppppppjjjjjjjfgcghacbblbcghihgahiabfefeefepppppp",
"ppppppjjjkjfdehbchihhgghhiiihgahhcgbfeeefepppppp",
"ppppppjfenjbndhblahiooooiihhgaahhkagjfeeefpppppp",
"ppppppdfjjbjdjglklahiioiihhgaaaiclcgakeeeepppppp",
"ppppppdfbkljkbgcklbaghhhhggaccaockccagckeepppppp",
"ppppppmnjlljkbgcjklcccagaacbcchiccbakklbbjpppppp",
"ppppppddkcljjlghljklccaacbbbbaigbaabffddeepppppp",
"ppppppefahcbbchigbbcaggaaccagiogcghicbbljjpppppp"
};
