#define noname_width 48
#define noname_height 48
static char noname_bits[] = {
 0x00,0x00,0x00,0x00,0x00,0x00,0x00,0x00,0x00,0x00,0x00,0x00,0x00,0x00,0x00,
 0x00,0x00,0x00,0x00,0x00,0x00,0x00,0x00,0x00,0x00,0x00,0x00,0x00,0x00,0x04,
 0x00,0x00,0x00,0x00,0x40,0x00,0x00,0x00,0x00,0x00,0x00,0x00,0x00,0x08,0x00,
 0x00,0x00,0x00,0x80,0x00,0x00,0x04,0x11,0x01,0x00,0x00,0x02,0x00,0x00,0x00,
 0x00,0x00,0x20,0x20,0x00,0x04,0x20,0x24,0x80,0x96,0x40,0x00,0x00,0x00,0xb4,
 0xff,0x01,0x00,0x00,0x00,0xfe,0xff,0x0f,0x02,0x80,0x80,0xff,0xff,0x07,0x00,
 0x00,0xa4,0xf7,0xff,0x4f,0x00,0x00,0xc0,0xbf,0xef,0x1f,0x02,0x40,0xe0,0x7f,
 0xfd,0x3f,0x00,0x00,0xf4,0x9f,0xfa,0x7f,0x00,0x10,0xe0,0x27,0xfc,0x7e,0x02,
 0x80,0xf0,0x0b,0xe8,0xff,0x00,0x00,0xf0,0x85,0x52,0xff,0x00,0x00,0xfa,0x15,
 0x88,0xfe,0x04,0x90,0xf8,0x03,0x20,0xfd,0x01,0x00,0xf0,0x08,0x81,0xfe,0x00,
 0x00,0xf0,0x56,0xe8,0xfa,0x02,0x20,0xf9,0xbd,0xba,0xf7,0x01,0x00,0xf0,0xc2,
 0x54,0xfc,0x00,0x80,0xf0,0x3a,0xaa,0xfb,0x02,0x10,0xe0,0xae,0xe8,0xf6,0x01,
 0x00,0x79,0x5b,0xaa,0xfd,0x04,0x40,0x60,0x95,0xa4,0xb2,0x00,0x00,0xd4,0x40,
 0x08,0xda,0x00,0x10,0x41,0x15,0x90,0xb4,0x04,0x00,0x50,0xc0,0x06,0x9a,0x00,
 0x80,0xa4,0x4a,0xbd,0xb4,0x04,0x10,0x40,0xa1,0x02,0x29,0x02,0x00,0xa9,0xd4,
 0x7c,0xad,0x00,0x10,0xc0,0x52,0xa1,0x1a,0x02,0x40,0x09,0xad,0x5e,0x8d,0x00,
 0x00,0xa0,0xba,0x68,0x2b,0x02,0x20,0x0a,0xa5,0xaa,0x8d,0x00,0x80,0x40,0xab,
 0xaa,0x06,0x0a,0x28,0x10,0xaa,0xaa,0x55,0x01,0x80,0x42,0x55,0x55,0x07,0x04,
 0x10,0x10,0xae,0xaa,0x25,0x01,0x40,0x0a,0x7d,0xeb,0x86,0x04,0x88,0x40,0xd4,
 0xff,0x5d,0x00};
