#define noname_width 48
#define noname_height 48
static char noname_bits[] = {
 0x00,0x00,0x00,0x00,0x00,0x00,0x00,0x00,0x80,0x7f,0x00,0x00,0x00,0x00,0xf0,
 0xff,0x01,0x00,0x00,0x00,0xac,0xfa,0x03,0x00,0x00,0x00,0xff,0xff,0x07,0x00,
 0x00,0x80,0xff,0xff,0x0f,0x00,0x00,0xc0,0xb6,0xbf,0x0f,0x00,0x00,0xe0,0xdf,
 0xda,0x3e,0x00,0x00,0x60,0x03,0xa5,0x3e,0x00,0x00,0xf0,0x49,0x10,0xdd,0x00,
 0x00,0xf8,0x04,0x80,0xfa,0x00,0x00,0x70,0x01,0x40,0xec,0x00,0x00,0xb8,0x04,
 0x10,0xfb,0x00,0x00,0x78,0x00,0x80,0xf4,0x00,0x00,0x30,0x05,0x40,0xfa,0x00,
 0x00,0xb8,0x00,0x20,0xec,0x00,0x00,0xb0,0x10,0x00,0xeb,0x00,0x00,0x70,0x05,
 0x40,0xf4,0x00,0x00,0xb8,0x00,0x00,0xfd,0x00,0x00,0x7a,0x00,0x48,0x7a,0x00,
 0x00,0x3c,0x7f,0x12,0x7d,0x00,0x00,0x9e,0x3b,0xfd,0xf7,0x01,0x00,0xd0,0x6e,
 0xfc,0xfd,0x01,0x00,0xb4,0x3f,0xee,0xf6,0x00,0x00,0x18,0x42,0xe8,0xbf,0x02,
 0x00,0x24,0x01,0x42,0x6b,0x03,0x00,0x90,0x50,0x34,0xf8,0x00,0x00,0x24,0x00,
 0x01,0x55,0x01,0x00,0x50,0x40,0x04,0x58,0x00,0x00,0x34,0x21,0x0a,0xaa,0x00,
 0x00,0x48,0x50,0x10,0x5d,0x00,0x00,0x30,0x6d,0xad,0x14,0x00,0x00,0xd0,0xf2,
 0x5f,0x2e,0x00,0x00,0x50,0xe5,0x4f,0x15,0x00,0x00,0x60,0x92,0xa5,0x0e,0x00,
 0x00,0xa0,0x49,0x50,0x0b,0x00,0x00,0xe0,0xfc,0x1f,0x05,0x00,0x00,0x20,0x11,
 0xba,0x02,0x00,0x00,0xe0,0xe0,0x05,0x01,0x00,0x00,0x20,0x15,0x92,0x00,0x00,
 0x00,0xc0,0x85,0x40,0x01,0x00,0x00,0xe0,0x02,0xd0,0x01,0x00,0x00,0x60,0x47,
 0x68,0x03,0x00,0x00,0xb0,0x15,0xf4,0x07,0x00,0x00,0xd0,0x2f,0xfd,0x1b,0x00,
 0x00,0xec,0xff,0x6f,0x3f,0x00,0x00,0xec,0xfb,0xff,0x33,0x00,0x00,0x48,0xbf,
 0xff,0x3d,0x00};
