STARTFONT 2.1
FONT big5.5200.16
SIZE 16 72 72
FONTBOUNDINGBOX 16 16 0 -2
STARTPROPERTIES 4
FONT_DESCENT 2
FONT_ASCENT 14
DEFAULT_CHAR 0
COPYRIGHT "Copyright (c) 1992 AT&T - All rights reserved."
ENDPROPERTIES
CHARS 276
STARTCHAR ch-0
ENCODING 0
SWIDTH 1000 0
DWIDTH 16 0
BBX 16 16 0 -2
BITMAP
0002
7fff
0102
0102
0102
0102
0102
0102
0202
0402
0402
0822
1014
2008
0000
0000
ENDCHAR
STARTCHAR ch-1
ENCODING 1
SWIDTH 1000 0
DWIDTH 16 0
BBX 16 16 0 -2
BITMAP
0002
7fff
0002
0012
0022
0042
0082
0102
0202
0402
0802
3022
0014
0008
0000
0000
ENDCHAR
STARTCHAR ch-3
ENCODING 3
SWIDTH 1000 0
DWIDTH 16 0
BBX 16 16 0 -2
BITMAP
0002
3fff
0082
0082
0082
0082
0c82
0682
0102
0102
0202
0422
0814
3008
0000
0000
ENDCHAR
STARTCHAR ch-6
ENCODING 6
SWIDTH 1000 0
DWIDTH 16 0
BBX 16 16 0 -2
BITMAP
0040
0240
0220
0410
0808
1004
2ff7
4212
0210
0210
0410
0410
08a0
1040
0000
0000
ENDCHAR
STARTCHAR ch-7
ENCODING 7
SWIDTH 1000 0
DWIDTH 16 0
BBX 16 16 0 -2
BITMAP
1000
1002
10ff
1022
1f22
7022
1022
1022
1122
1622
3842
0082
0114
0608
0000
0000
ENDCHAR
STARTCHAR ch-8
ENCODING 8
SWIDTH 1000 0
DWIDTH 16 0
BBX 16 16 0 -2
BITMAP
0002
2082
1082
0892
0912
0512
0212
0512
0492
0882
0842
1042
600a
0004
0000
0000
ENDCHAR
STARTCHAR ch-9
ENCODING 9
SWIDTH 1000 0
DWIDTH 16 0
BBX 16 16 0 -2
BITMAP
0801
0841
1fe1
2009
4009
1f89
0089
0109
0209
0409
0801
1021
2025
1fe2
0000
0000
ENDCHAR
STARTCHAR ch-10
ENCODING 10
SWIDTH 1000 0
DWIDTH 16 0
BBX 16 16 0 -2
BITMAP
0082
1fc2
0202
0212
0212
0252
7ff2
0212
0212
0212
0202
0202
020a
0204
0000
0000
ENDCHAR
STARTCHAR ch-12
ENCODING 12
SWIDTH 1000 0
DWIDTH 16 0
BBX 16 16 0 -2
BITMAP
0201
0201
0201
7f91
0211
0211
2211
1211
0a11
0211
0201
0201
0a0a
0404
0000
0000
ENDCHAR
STARTCHAR ch-14
ENCODING 14
SWIDTH 1000 0
DWIDTH 16 0
BBX 16 16 0 -2
BITMAP
0802
0802
1fd2
1552
2552
4552
0952
0a52
1252
2252
0442
0842
128a
0104
0000
0000
ENDCHAR
STARTCHAR ch-16
ENCODING 16
SWIDTH 1000 0
DWIDTH 16 0
BBX 16 16 0 -2
BITMAP
0081
1fc1
1089
1089
1489
1289
7fe9
1089
1089
1081
1081
1081
2285
0102
0000
0000
ENDCHAR
STARTCHAR ch-17
ENCODING 17
SWIDTH 1000 0
DWIDTH 16 0
BBX 16 16 0 -2
BITMAP
0042
3fe2
0882
0892
0892
0892
7ff2
0892
0892
0892
1082
1082
208a
0084
0000
0000
ENDCHAR
STARTCHAR ch-18
ENCODING 18
SWIDTH 1000 0
DWIDTH 16 0
BBX 16 16 0 -2
BITMAP
0a02
0902
0812
09d2
7e12
0812
0892
0912
0612
0412
0a02
1242
214a
00c4
0000
0000
ENDCHAR
STARTCHAR ch-19
ENCODING 19
SWIDTH 1000 0
DWIDTH 16 0
BBX 16 16 0 -2
BITMAP
0101
3f81
0009
0009
0089
7fc9
1209
1209
1209
1209
1221
1221
2225
41e2
0000
0000
ENDCHAR
STARTCHAR ch-22
ENCODING 22
SWIDTH 1000 0
DWIDTH 16 0
BBX 16 16 0 -2
BITMAP
0081
1fc1
1089
1089
1f89
1089
1089
1f89
1089
1089
1081
2081
2285
4102
0000
0000
ENDCHAR
STARTCHAR ch-23
ENCODING 23
SWIDTH 1000 0
DWIDTH 16 0
BBX 16 16 0 -2
BITMAP
0082
3fc2
0802
0812
0f92
1092
1092
2912
4512
0212
0402
0802
100a
2004
0000
0000
ENDCHAR
STARTCHAR ch-28
ENCODING 28
SWIDTH 1000 0
DWIDTH 16 0
BBX 16 16 0 -2
BITMAP
1201
1201
7fc1
1249
1249
7fc9
5209
7fe9
1229
1221
12a1
2241
4205
0202
0000
0000
ENDCHAR
STARTCHAR ch-29
ENCODING 29
SWIDTH 1000 0
DWIDTH 16 0
BBX 16 16 0 -2
BITMAP
0800
0802
02ff
7e22
0422
0822
1a22
2c22
4c22
0a22
0842
0882
0914
0a08
0000
0000
ENDCHAR
STARTCHAR ch-30
ENCODING 30
SWIDTH 1000 0
DWIDTH 16 0
BBX 16 16 0 -2
BITMAP
1f81
1081
1089
1089
1f89
1089
1089
1f89
1089
1081
1081
1089
7fe5
0002
0000
0000
ENDCHAR
STARTCHAR ch-33
ENCODING 33
SWIDTH 1000 0
DWIDTH 16 0
BBX 16 16 0 -2
BITMAP
0001
7f81
4089
4089
7f89
4209
4209
7fc9
4209
4201
4201
4941
50c5
6042
0000
0000
ENDCHAR
STARTCHAR ch-36
ENCODING 36
SWIDTH 1000 0
DWIDTH 16 0
BBX 16 16 0 -2
BITMAP
0202
2222
1a62
0a92
0212
3fd2
0212
0212
7fd2
0212
0412
0802
100a
2004
0000
0000
ENDCHAR
STARTCHAR ch-37
ENCODING 37
SWIDTH 1000 0
DWIDTH 16 0
BBX 16 16 0 -2
BITMAP
0082
1fc2
1092
1092
1f92
1412
0492
0fd2
0892
0892
1092
2082
450a
0204
0000
0000
ENDCHAR
STARTCHAR ch-40
ENCODING 40
SWIDTH 1000 0
DWIDTH 16 0
BBX 16 16 0 -2
BITMAP
1001
1041
1fe9
2049
5e49
1249
1249
1e49
1149
1089
1021
1021
1025
0fe2
0000
0000
ENDCHAR
STARTCHAR ch-41
ENCODING 41
SWIDTH 1000 0
DWIDTH 16 0
BBX 16 16 0 -2
BITMAP
0082
03c2
3e02
0212
0212
7fd2
0612
0712
0ad2
0a52
1212
2202
020a
0204
0000
0000
ENDCHAR
STARTCHAR ch-42
ENCODING 42
SWIDTH 1000 0
DWIDTH 16 0
BBX 16 16 0 -2
BITMAP
3fe2
2522
2522
252a
252a
252a
7ffa
252a
252a
252a
2522
2522
252a
4064
0000
0000
ENDCHAR
STARTCHAR ch-46
ENCODING 46
SWIDTH 1000 0
DWIDTH 16 0
BBX 16 16 0 -2
BITMAP
00c1
3f01
0401
0489
7fc9
0409
0409
0489
3fc9
2089
2089
2081
3f85
2082
0000
0000
ENDCHAR
STARTCHAR ch-48
ENCODING 48
SWIDTH 1000 0
DWIDTH 16 0
BBX 16 16 0 -2
BITMAP
0081
3fc1
0809
1109
2089
3fc9
0449
0409
0409
3f89
0409
07c1
7c05
2002
0000
0000
ENDCHAR
STARTCHAR ch-49
ENCODING 49
SWIDTH 1000 0
DWIDTH 16 0
BBX 16 16 0 -2
BITMAP
0000
123f
1209
7f89
1229
1219
1209
7f89
1209
1209
1211
2221
4242
020c
0000
0000
ENDCHAR
STARTCHAR ch-50
ENCODING 50
SWIDTH 1000 0
DWIDTH 16 0
BBX 16 16 0 -2
BITMAP
0401
0401
3f89
0409
0409
7fc9
0009
0409
0409
3f89
0401
0401
7fc5
0002
0000
0000
ENDCHAR
STARTCHAR ch-51
ENCODING 51
SWIDTH 1000 0
DWIDTH 16 0
BBX 16 16 0 -2
BITMAP
0201
3fe1
0505
0885
1045
2fa5
4015
3fe5
0805
0fc5
0041
0041
0085
0f02
0000
0000
ENDCHAR
STARTCHAR ch-53
ENCODING 53
SWIDTH 1000 0
DWIDTH 16 0
BBX 16 16 0 -2
BITMAP
7fe1
1081
1089
1f89
1089
1089
1f89
1089
1089
7f81
0081
0081
0085
0082
0000
0000
ENDCHAR
STARTCHAR ch-54
ENCODING 54
SWIDTH 1000 0
DWIDTH 16 0
BBX 16 16 0 -2
BITMAP
0201
1201
1fc9
1209
2209
7fe9
0209
1fc9
1249
1241
1341
1281
0205
0202
0000
0000
ENDCHAR
STARTCHAR ch-55
ENCODING 55
SWIDTH 1000 0
DWIDTH 16 0
BBX 16 16 0 -2
BITMAP
0022
1ff2
102a
1fea
110a
110a
1fea
192a
192a
292a
29a2
4942
010a
0104
0000
0000
ENDCHAR
STARTCHAR ch-56
ENCODING 56
SWIDTH 1000 0
DWIDTH 16 0
BBX 16 16 0 -2
BITMAP
0490
02a0
1ffc
0080
0080
3ffe
0220
0410
1ffc
6113
0110
0210
0450
0820
0000
0000
ENDCHAR
STARTCHAR ch-58
ENCODING 58
SWIDTH 1000 0
DWIDTH 16 0
BBX 16 16 0 -2
BITMAP
0401
0481
7fc1
0409
3f89
2489
2489
2589
0e09
1509
24c1
4441
0405
0402
0000
0000
ENDCHAR
STARTCHAR ch-59
ENCODING 59
SWIDTH 1000 0
DWIDTH 16 0
BBX 16 16 0 -2
BITMAP
0401
0241
7fe1
0209
0449
1f89
0909
0249
0c89
3109
0301
0cc1
7045
0002
0000
0000
ENDCHAR
STARTCHAR ch-65
ENCODING 65
SWIDTH 1000 0
DWIDTH 16 0
BBX 16 16 0 -2
BITMAP
1f81
1101
1109
1109
14c9
2409
7fc9
0409
0e09
1589
2481
4401
0405
0402
0000
0000
ENDCHAR
STARTCHAR ch-67
ENCODING 67
SWIDTH 1000 0
DWIDTH 16 0
BBX 16 16 0 -2
BITMAP
1101
0a01
3f89
0489
0489
3f89
2409
2449
3fe9
1449
2441
4541
0485
0402
0000
0000
ENDCHAR
STARTCHAR ch-68
ENCODING 68
SWIDTH 1000 0
DWIDTH 16 0
BBX 16 16 0 -2
BITMAP
7fc1
0001
1241
2489
4909
2489
1249
0009
7fc9
0401
0401
0401
7fc5
0002
0000
0000
ENDCHAR
STARTCHAR ch-70
ENCODING 70
SWIDTH 1000 0
DWIDTH 16 0
BBX 16 16 0 -2
BITMAP
0802
0402
3f92
2092
3f92
2092
3f92
2012
2412
2202
2302
2482
284a
7004
0000
0000
ENDCHAR
STARTCHAR ch-71
ENCODING 71
SWIDTH 1000 0
DWIDTH 16 0
BBX 16 16 0 -2
BITMAP
0081
3fc1
2089
2089
3f89
2089
2089
3f89
2089
2089
3f81
0a01
1105
60c2
0000
0000
ENDCHAR
STARTCHAR ch-73
ENCODING 73
SWIDTH 1000 0
DWIDTH 16 0
BBX 16 16 0 -2
BITMAP
0201
1241
1241
1245
1245
2aa5
4715
0205
0205
3fe5
0201
0201
7ff5
0002
0000
0000
ENDCHAR
STARTCHAR ch-74
ENCODING 74
SWIDTH 1000 0
DWIDTH 16 0
BBX 16 16 0 -2
BITMAP
0401
2481
1509
1609
3f89
2089
2089
3f89
2089
2089
3f81
2081
2285
2102
0000
0000
ENDCHAR
STARTCHAR ch-75
ENCODING 75
SWIDTH 1000 0
DWIDTH 16 0
BBX 16 16 0 -2
BITMAP
0800
0a04
7f04
0824
7f24
4124
4124
7f24
5504
1404
1415
1409
2401
47ff
0000
0000
ENDCHAR
STARTCHAR ch-76
ENCODING 76
SWIDTH 1000 0
DWIDTH 16 0
BBX 16 16 0 -2
BITMAP
0401
0481
7fc1
0409
3f89
2489
3f89
2c89
0e09
1501
1481
2441
4405
0402
0000
0000
ENDCHAR
STARTCHAR ch-77
ENCODING 77
SWIDTH 1000 0
DWIDTH 16 0
BBX 16 16 0 -2
BITMAP
0808
0618
0222
7fff
0000
3f02
2112
3f12
2112
3f12
2112
2102
250a
2204
0000
0000
ENDCHAR
STARTCHAR ch-78
ENCODING 78
SWIDTH 1000 0
DWIDTH 16 0
BBX 16 16 0 -2
BITMAP
3181
0a01
0409
0a09
3189
0509
7fc9
0409
1509
2509
44c1
0401
0405
0402
0000
0000
ENDCHAR
STARTCHAR ch-82
ENCODING 82
SWIDTH 1000 0
DWIDTH 16 0
BBX 16 16 0 -2
BITMAP
1101
1101
7fc9
1109
1109
7fc9
0009
3f89
2089
3f89
2081
2081
3f85
2082
0000
0000
ENDCHAR
STARTCHAR ch-84
ENCODING 84
SWIDTH 1000 0
DWIDTH 16 0
BBX 16 16 0 -2
BITMAP
0081
1fc1
1089
1f89
1089
1f89
0809
1fc9
2a49
4a41
1241
1441
2545
0882
0000
0000
ENDCHAR
STARTCHAR ch-85
ENCODING 85
SWIDTH 1000 0
DWIDTH 16 0
BBX 16 16 0 -2
BITMAP
0901
0901
0909
79e9
0909
0909
79e9
0909
0909
79e9
0909
0901
1105
0102
0000
0000
ENDCHAR
STARTCHAR ch-86
ENCODING 86
SWIDTH 1000 0
DWIDTH 16 0
BBX 16 16 0 -2
BITMAP
0801
0401
3f89
1109
1109
0a09
7fc9
0009
3f89
2089
2081
2081
3f85
2082
0000
0000
ENDCHAR
STARTCHAR ch-90
ENCODING 90
SWIDTH 1000 0
DWIDTH 16 0
BBX 16 16 0 -2
BITMAP
0401
7fc1
0401
3f89
2489
3f89
0409
3f89
0489
7fc9
0489
3f81
0405
0c02
0000
0000
ENDCHAR
STARTCHAR ch-91
ENCODING 91
SWIDTH 1000 0
DWIDTH 16 0
BBX 16 16 0 -2
BITMAP
7fc1
5141
4a49
4449
7fc9
4449
4449
5549
5549
5549
5f41
4041
4145
4082
0000
0000
ENDCHAR
STARTCHAR ch-92
ENCODING 92
SWIDTH 1000 0
DWIDTH 16 0
BBX 16 16 0 -2
BITMAP
0401
0201
3fe1
2025
5045
1de5
2545
3545
49c5
0905
1121
2121
40e5
0002
0000
0000
ENDCHAR
STARTCHAR ch-93
ENCODING 93
SWIDTH 1000 0
DWIDTH 16 0
BBX 16 16 0 -2
BITMAP
0401
0fc1
1889
2509
0249
7fe9
0209
2269
1a89
0709
0a81
1241
6225
0602
0000
0000
ENDCHAR
STARTCHAR ch-94
ENCODING 94
SWIDTH 1000 0
DWIDTH 16 0
BBX 16 16 0 -2
BITMAP
0402
3f82
0412
0a12
1112
7fd2
0092
1e92
1292
1282
1e82
1082
028a
0104
0000
0000
ENDCHAR
STARTCHAR ch-95
ENCODING 95
SWIDTH 1000 0
DWIDTH 16 0
BBX 16 16 0 -2
BITMAP
0001
7df1
4511
28a5
1045
28a5
4515
7df5
4515
28a5
1041
28a1
4515
0002
0000
0000
ENDCHAR
STARTCHAR ch-97
ENCODING 97
SWIDTH 1000 0
DWIDTH 16 0
BBX 16 16 0 -2
BITMAP
2482
1482
1512
0b12
10d2
6452
0412
1492
1512
2402
0b02
10c2
604a
0004
0000
0000
ENDCHAR
STARTCHAR ch-98
ENCODING 98
SWIDTH 1000 0
DWIDTH 16 0
BBX 16 16 0 -2
BITMAP
0081
7fc1
0801
1c09
2209
4549
0989
5109
2389
5549
0929
1501
2105
4602
0000
0000
ENDCHAR
STARTCHAR ch-105
ENCODING 105
SWIDTH 1000 0
DWIDTH 16 0
BBX 16 16 0 -2
BITMAP
01c1
1e01
0201
7fe9
0a89
7ae9
0a89
7ae9
0609
0b09
12c9
6241
0205
0202
0000
0000
ENDCHAR
STARTCHAR ch-106
ENCODING 106
SWIDTH 1000 0
DWIDTH 16 0
BBX 16 16 0 -2
BITMAP
0410
0222
7fff
1f24
1124
1f24
1124
1f24
110c
3ffe
0204
0204
0c14
3008
0000
0000
ENDCHAR
STARTCHAR ch-107
ENCODING 107
SWIDTH 1000 0
DWIDTH 16 0
BBX 16 16 0 -2
BITMAP
0401
0201
3fe1
2509
3fc9
2509
2709
2009
2f89
2889
2501
2201
4505
0882
0000
0000
ENDCHAR
STARTCHAR ch-108
ENCODING 108
SWIDTH 1000 0
DWIDTH 16 0
BBX 16 16 0 -2
BITMAP
0401
4441
4441
7fc9
0009
7fc9
0809
1009
7fc9
4a49
4a41
4a41
4a45
4082
0000
0000
ENDCHAR
STARTCHAR ch-109
ENCODING 109
SWIDTH 1000 0
DWIDTH 16 0
BBX 16 16 0 -2
BITMAP
3fc1
2041
3fc9
2009
2f89
2409
2889
2fc9
2249
2209
2fc1
4201
0205
3fe2
0000
0000
ENDCHAR
STARTCHAR ch-110
ENCODING 110
SWIDTH 1000 0
DWIDTH 16 0
BBX 16 16 0 -2
BITMAP
1f01
1101
1709
1509
1509
7fc9
4049
5f49
5149
5141
5f41
5141
4045
4082
0000
0000
ENDCHAR
STARTCHAR ch-111
ENCODING 111
SWIDTH 1000 0
DWIDTH 16 0
BBX 16 16 0 -2
BITMAP
7fc2
0002
1f12
1112
1f12
0012
3f92
2492
2492
3f82
2482
2482
3f8a
2084
0000
0000
ENDCHAR
STARTCHAR ch-114
ENCODING 114
SWIDTH 1000 0
DWIDTH 16 0
BBX 16 16 0 -2
BITMAP
0201
3ff1
2221
4249
5fc9
0209
1fc9
0209
3fe9
0009
1fc1
1041
1fc5
1042
0000
0000
ENDCHAR
STARTCHAR ch-116
ENCODING 116
SWIDTH 1000 0
DWIDTH 16 0
BBX 16 16 0 -2
BITMAP
2481
2481
3f89
0009
7fc9
0009
3f89
2089
2089
2089
3f81
2081
1105
7fc2
0000
0000
ENDCHAR
STARTCHAR ch-117
ENCODING 117
SWIDTH 1000 0
DWIDTH 16 0
BBX 16 16 0 -2
BITMAP
0f01
1081
2241
5fa9
1089
1f89
1089
1f89
1009
3f89
5089
1081
1085
1f82
0000
0000
ENDCHAR
STARTCHAR ch-119
ENCODING 119
SWIDTH 1000 0
DWIDTH 16 0
BBX 16 16 0 -2
BITMAP
0201
3fe1
0889
0509
3fe9
2509
2509
2fc9
3109
2109
27c1
2101
2103
4fe1
0000
0000
ENDCHAR
STARTCHAR ch-120
ENCODING 120
SWIDTH 1000 0
DWIDTH 16 0
BBX 16 16 0 -2
BITMAP
0401
7fc1
0401
3f89
3e89
2489
3f89
0449
7fc9
0109
7fc9
1101
0905
0302
0000
0000
ENDCHAR
STARTCHAR ch-122
ENCODING 122
SWIDTH 1000 0
DWIDTH 16 0
BBX 16 16 0 -2
BITMAP
0820
3e3f
0822
7f54
1c08
2a14
4923
3fff
2000
27fc
2084
2084
4104
0e0c
0000
0000
ENDCHAR
STARTCHAR ch-123
ENCODING 123
SWIDTH 1000 0
DWIDTH 16 0
BBX 16 16 0 -2
BITMAP
0201
2221
2229
3fe9
0009
3de9
2529
2529
3de9
2529
3de9
2521
2525
4e62
0000
0000
ENDCHAR
STARTCHAR ch-124
ENCODING 124
SWIDTH 1000 0
DWIDTH 16 0
BBX 16 16 0 -2
BITMAP
1000
2081
7f81
1109
2a49
7fc9
0a09
1509
2889
5449
2a09
1401
0805
7002
0000
0000
ENDCHAR
STARTCHAR ch-125
ENCODING 125
SWIDTH 1000 0
DWIDTH 16 0
BBX 16 16 0 -2
BITMAP
7ff1
0505
3fe5
2525
2525
3fe5
0005
0f85
0005
7ff1
0a81
1261
2225
0202
0000
0000
ENDCHAR
STARTCHAR ch-127
ENCODING 127
SWIDTH 1000 0
DWIDTH 16 0
BBX 16 16 0 -2
BITMAP
1241
2489
1249
1fc9
1249
1fc9
1249
1fc9
0209
7ff9
0a89
1241
2225
0202
0000
0000
ENDCHAR
STARTCHAR ch-128
ENCODING 128
SWIDTH 1000 0
DWIDTH 16 0
BBX 16 16 0 -2
BITMAP
3f81
0501
0209
7fc9
1449
2489
0c09
7fc9
4a49
4a49
71c1
4e41
4a45
4e42
0000
0000
ENDCHAR
STARTCHAR ch-129
ENCODING 129
SWIDTH 1000 0
DWIDTH 16 0
BBX 16 16 0 -2
BITMAP
0a01
1fc1
1209
3209
5fc9
1209
1209
1fc9
1209
1209
1fc1
2a41
2525
4522
0000
0000
ENDCHAR
STARTCHAR ch-130
ENCODING 130
SWIDTH 1000 0
DWIDTH 16 0
BBX 16 16 0 -2
BITMAP
3ff9
2001
28a5
2525
3fbd
2255
2a85
2aa5
2fa5
2225
2251
2449
488b
1101
0000
0000
ENDCHAR
STARTCHAR ch-131
ENCODING 131
SWIDTH 1000 0
DWIDTH 16 0
BBX 16 16 0 -2
BITMAP
0401
3f81
7fc9
0489
3f89
3f89
0409
7fc9
3f89
2489
3f89
2481
3f81
7fc7
0000
0000
ENDCHAR
STARTCHAR ch-132
ENCODING 132
SWIDTH 1000 0
DWIDTH 16 0
BBX 16 16 0 -2
BITMAP
2102
39c2
5282
0412
0a12
1112
2092
5f52
0012
3f82
2082
2082
3f8a
2084
0000
0000
ENDCHAR
STARTCHAR ch-135
ENCODING 135
SWIDTH 1000 0
DWIDTH 16 0
BBX 16 16 0 -2
BITMAP
0401
07c1
3fe1
2429
3fc9
2409
2789
3fe9
2409
2f29
3341
2581
5b45
0622
0000
0000
ENDCHAR
STARTCHAR ch-136
ENCODING 136
SWIDTH 1000 0
DWIDTH 16 0
BBX 16 16 0 -2
BITMAP
1f10
11fe
1144
1f28
10ff
1f10
297c
2910
4f10
3ffe
0204
0204
0428
1810
0000
0000
ENDCHAR
STARTCHAR ch-137
ENCODING 137
SWIDTH 1000 0
DWIDTH 16 0
BBX 16 16 0 -2
BITMAP
23c1
4141
4949
7a49
0e09
1109
2089
5f49
0409
3f89
2481
1501
0e05
7fc2
0000
0000
ENDCHAR
STARTCHAR ch-138
ENCODING 138
SWIDTH 1000 0
DWIDTH 16 0
BBX 16 16 0 -2
BITMAP
0e02
1102
6ec2
0012
7fd2
5552
4e52
7fd2
0012
3f92
2082
3f82
208a
3f84
0000
0000
ENDCHAR
STARTCHAR ch-139
ENCODING 139
SWIDTH 1000 0
DWIDTH 16 0
BBX 16 16 0 -2
BITMAP
0f81
0881
0f89
0009
3de9
2529
3de9
0209
7ff9
0a81
1241
2221
0205
0202
0000
0000
ENDCHAR
STARTCHAR ch-140
ENCODING 140
SWIDTH 1000 0
DWIDTH 16 0
BBX 16 16 0 -2
BITMAP
0201
13c1
1201
7ff5
0065
3fe5
2045
3f45
2455
2d65
3541
42a1
0419
180b
0000
0000
ENDCHAR
STARTCHAR ch-141
ENCODING 141
SWIDTH 1000 0
DWIDTH 16 0
BBX 16 16 0 -2
BITMAP
0e02
1102
2082
5f52
0012
3b92
2a92
3b92
0012
1112
1102
2a82
444a
4444
0000
0000
ENDCHAR
STARTCHAR ch-145
ENCODING 145
SWIDTH 1000 0
DWIDTH 16 0
BBX 16 16 0 -2
BITMAP
0400
0201
7fe1
0545
7a85
2aa5
2aa5
4a95
1045
1fc1
1041
1fc1
1045
2042
0000
0000
ENDCHAR
STARTCHAR ch-147
ENCODING 147
SWIDTH 1000 0
DWIDTH 16 0
BBX 16 16 0 -2
BITMAP
0201
1fc1
1941
14c5
1fc5
3fe5
2225
3fe5
2225
3fe5
7fe1
0881
0885
3082
0000
0000
ENDCHAR
STARTCHAR ch-150
ENCODING 150
SWIDTH 1000 0
DWIDTH 16 0
BBX 16 16 0 -2
BITMAP
3f01
4201
7fc1
4049
7fc9
3dc9
2109
3fc9
4209
7fc9
4449
7fc9
1241
63e7
0000
0000
ENDCHAR
STARTCHAR ch-151
ENCODING 151
SWIDTH 1000 0
DWIDTH 16 0
BBX 16 16 0 -2
BITMAP
5281
7bc1
1081
7be9
56a9
1ce9
3fc9
2049
3fc9
2049
3fc9
2041
3fc1
4027
0000
0000
ENDCHAR
STARTCHAR ch-152
ENCODING 152
SWIDTH 1000 0
DWIDTH 16 0
BBX 16 16 0 -2
BITMAP
0201
3fe1
2881
3de9
2889
3dc9
28a9
2509
3de9
2509
3de9
2509
5de1
0907
0000
0000
ENDCHAR
STARTCHAR ch-153
ENCODING 153
SWIDTH 1000 0
DWIDTH 16 0
BBX 16 16 0 -2
BITMAP
0f81
0901
7fe5
1485
2b05
1685
0a45
3625
1045
7df5
5555
7df1
1451
7df7
0000
0000
ENDCHAR
STARTCHAR ch-155
ENCODING 155
SWIDTH 1000 0
DWIDTH 16 0
BBX 16 16 0 -2
BITMAP
0100
0100
0102
7fff
0102
0102
0102
0102
0202
0202
0402
0822
1014
6008
0000
0000
ENDCHAR
STARTCHAR ch-159
ENCODING 159
SWIDTH 1000 0
DWIDTH 16 0
BBX 16 16 0 -2
BITMAP
0040
0440
7e40
0842
0bff
0842
0842
0842
0e82
7882
2082
0122
0214
0408
0000
0000
ENDCHAR
STARTCHAR ch-160
ENCODING 160
SWIDTH 1000 0
DWIDTH 16 0
BBX 16 16 0 -2
BITMAP
0800
0800
0802
093f
7fa2
0922
0922
0922
0922
0922
0922
1122
253e
4222
0000
0000
ENDCHAR
STARTCHAR ch-163
ENCODING 163
SWIDTH 1000 0
DWIDTH 16 0
BBX 16 16 0 -2
BITMAP
0080
088c
0886
119a
0060
0380
0c80
7084
0ffe
0084
0104
0204
0428
1810
0000
0000
ENDCHAR
STARTCHAR ch-166
ENCODING 166
SWIDTH 1000 0
DWIDTH 16 0
BBX 16 16 0 -2
BITMAP
0080
0080
1ffc
0104
0204
0c38
0000
1010
7f7f
1111
1111
2121
4141
0e0e
0000
0000
ENDCHAR
STARTCHAR ch-169
ENCODING 169
SWIDTH 1000 0
DWIDTH 16 0
BBX 16 16 0 -2
BITMAP
0110
1f90
1112
11ff
1f12
1112
1112
1f12
1122
1122
17a2
7842
2094
0108
0000
0000
ENDCHAR
STARTCHAR ch-170
ENCODING 170
SWIDTH 1000 0
DWIDTH 16 0
BBX 16 16 0 -2
BITMAP
0800
7f7e
1142
1224
3218
0c10
0a28
3147
0102
1ffc
0104
0204
0c28
3010
0000
0000
ENDCHAR
STARTCHAR ch-171
ENCODING 171
SWIDTH 1000 0
DWIDTH 16 0
BBX 16 16 0 -2
BITMAP
0410
0410
3f90
0412
047f
0412
7fd2
0812
0a22
1122
3f42
1142
0094
0108
0000
0000
ENDCHAR
STARTCHAR ch-172
ENCODING 172
SWIDTH 1000 0
DWIDTH 16 0
BBX 16 16 0 -2
BITMAP
1010
1110
3f90
4112
217f
3d12
2512
2512
2512
3d22
2122
0142
0a54
0488
0000
0000
ENDCHAR
STARTCHAR ch-173
ENCODING 173
SWIDTH 1000 0
DWIDTH 16 0
BBX 16 16 0 -2
BITMAP
0110
7f90
1112
117f
1512
2212
4012
3f12
2112
2122
2122
3f42
2154
0088
0000
0000
ENDCHAR
STARTCHAR ch-174
ENCODING 174
SWIDTH 1000 0
DWIDTH 16 0
BBX 16 16 0 -2
BITMAP
0408
2408
2408
3f08
247f
4409
0409
7f89
0409
0409
0a09
1111
20a5
4042
0000
0000
ENDCHAR
STARTCHAR ch-187
ENCODING 187
SWIDTH 1000 0
DWIDTH 16 0
BBX 16 16 0 -2
BITMAP
0000
7fc8
4008
5f08
443f
4409
4409
5f09
4409
4409
4409
7f89
4011
7fe2
0000
0000
ENDCHAR
STARTCHAR ch-188
ENCODING 188
SWIDTH 1000 0
DWIDTH 16 0
BBX 16 16 0 -2
BITMAP
0810
0810
7f90
087f
0811
0811
7f11
0011
7f11
4111
4121
4142
7f14
4108
0000
0000
ENDCHAR
STARTCHAR ch-190
ENCODING 190
SWIDTH 1000 0
DWIDTH 16 0
BBX 16 16 0 -2
BITMAP
0810
0490
7fd0
0812
097f
1212
3e12
1412
0922
1222
2622
4942
1154
0088
0000
0000
ENDCHAR
STARTCHAR ch-192
ENCODING 192
SWIDTH 1000 0
DWIDTH 16 0
BBX 16 16 0 -2
BITMAP
0408
0408
7fc8
041f
0409
3f89
2089
2089
3f89
1209
1211
1241
224a
43c4
0000
0000
ENDCHAR
STARTCHAR ch-193
ENCODING 193
SWIDTH 1000 0
DWIDTH 16 0
BBX 16 16 0 -2
BITMAP
0008
7fc8
1248
249f
4909
2489
1249
7fc9
0409
0409
0409
0411
07a1
7c46
0000
0000
ENDCHAR
STARTCHAR ch-194
ENCODING 194
SWIDTH 1000 0
DWIDTH 16 0
BBX 16 16 0 -2
BITMAP
0408
2408
3f88
243f
4409
0409
7fc9
0009
3f89
2089
2091
20a1
3f82
208c
0000
0000
ENDCHAR
STARTCHAR ch-195
ENCODING 195
SWIDTH 1000 0
DWIDTH 16 0
BBX 16 16 0 -2
BITMAP
0410
3f90
0410
0412
3fbf
2092
4012
1f12
0222
0422
3f22
0442
1494
0908
0000
0000
ENDCHAR
STARTCHAR ch-199
ENCODING 199
SWIDTH 1000 0
DWIDTH 16 0
BBX 16 16 0 -2
BITMAP
0ff8
0020
00e0
1ffc
1084
1ffc
1084
1ffc
1084
1084
7ffe
0102
0214
1c08
0000
0000
ENDCHAR
STARTCHAR ch-201
ENCODING 201
SWIDTH 1000 0
DWIDTH 16 0
BBX 16 16 0 -2
BITMAP
0810
1f10
1212
247f
7f92
2492
2492
3f92
0a22
0a42
128a
1205
2201
41ff
0000
0000
ENDCHAR
STARTCHAR ch-205
ENCODING 205
SWIDTH 1000 0
DWIDTH 16 0
BBX 16 16 0 -2
BITMAP
0808
0408
7fc8
003f
3f89
2089
2089
3f89
0409
1509
2489
4451
0402
080c
0000
0000
ENDCHAR
STARTCHAR ch-210
ENCODING 210
SWIDTH 1000 0
DWIDTH 16 0
BBX 16 16 0 -2
BITMAP
1110
7fd0
1110
1112
1f7f
0412
3f92
2492
3fa2
0422
7fe2
0442
048a
0504
0000
0000
ENDCHAR
STARTCHAR ch-211
ENCODING 211
SWIDTH 1000 0
DWIDTH 16 0
BBX 16 16 0 -2
BITMAP
4208
4208
7bc8
421f
4a49
73c9
0809
3f89
2089
3f89
2089
2091
3faa
2084
0000
0000
ENDCHAR
STARTCHAR ch-213
ENCODING 213
SWIDTH 1000 0
DWIDTH 16 0
BBX 16 16 0 -2
BITMAP
0108
3e08
0408
7fdf
0409
3f89
2489
3f89
2489
3f89
0409
3f89
0411
7fc6
0000
0000
ENDCHAR
STARTCHAR ch-214
ENCODING 214
SWIDTH 1000 0
DWIDTH 16 0
BBX 16 16 0 -2
BITMAP
7fc8
4048
5f48
405f
5f49
0009
3f89
2089
3f89
2089
3f91
20a1
3f8a
2084
0000
0000
ENDCHAR
STARTCHAR ch-215
ENCODING 215
SWIDTH 1000 0
DWIDTH 16 0
BBX 16 16 0 -2
BITMAP
1ffc
1004
1ffc
1004
1ffc
1004
0010
3f7f
2111
3f11
2111
3f21
214a
7f84
0000
0000
ENDCHAR
STARTCHAR ch-216
ENCODING 216
SWIDTH 1000 0
DWIDTH 16 0
BBX 16 16 0 -2
BITMAP
1108
7fc8
1108
1f3f
1109
1f09
1109
7fc9
2a09
2a09
2a09
3391
2029
3fc6
0000
0000
ENDCHAR
STARTCHAR ch-217
ENCODING 217
SWIDTH 1000 0
DWIDTH 16 0
BBX 16 16 0 -2
BITMAP
0020
7c42
08ff
3344
1028
7e10
15c7
1010
3010
51fe
1022
1042
1082
331c
0000
0000
ENDCHAR
STARTCHAR ch-219
ENCODING 219
SWIDTH 1000 0
DWIDTH 16 0
BBX 16 16 0 -2
BITMAP
3f88
2088
3f88
003f
3f89
2089
2089
3f89
2089
3f89
2089
3f91
1121
60c6
0000
0000
ENDCHAR
STARTCHAR ch-221
ENCODING 221
SWIDTH 1000 0
DWIDTH 16 0
BBX 16 16 0 -2
BITMAP
7a22
4924
4bff
4820
7bff
4848
4884
4922
7a21
49fe
4822
4842
4892
530c
0000
0000
ENDCHAR
STARTCHAR ch-222
ENCODING 222
SWIDTH 1000 0
DWIDTH 16 0
BBX 16 16 0 -2
BITMAP
0408
24c9
152a
0a14
3122
7fff
4081
4082
1ffc
0084
0104
0204
0448
3830
0000
0000
ENDCHAR
STARTCHAR ch-223
ENCODING 223
SWIDTH 1000 0
DWIDTH 16 0
BBX 16 16 0 -2
BITMAP
0410
7fff
0410
0ff8
0ff8
0808
0ff8
0100
7fff
0410
0908
17fc
220a
0430
0000
0000
ENDCHAR
STARTCHAR ch-226
ENCODING 226
SWIDTH 1000 0
DWIDTH 16 0
BBX 16 16 0 -2
BITMAP
0810
3e10
087c
7f14
2a94
4954
3e25
0845
7f07
0080
3ffe
0102
0202
0c0c
0000
0000
ENDCHAR
STARTCHAR ch-227
ENCODING 227
SWIDTH 1000 0
DWIDTH 16 0
BBX 16 16 0 -2
BITMAP
0408
7fc8
7fdf
0409
7fc9
0009
3f89
2089
3e89
2f89
2089
3f89
2091
4046
0000
0000
ENDCHAR
STARTCHAR ch-228
ENCODING 228
SWIDTH 1000 0
DWIDTH 16 0
BBX 16 16 0 -2
BITMAP
1108
7fc8
1108
1f3f
0409
3f89
2489
3f89
0409
3f89
0409
3f91
0421
7fce
0000
0000
ENDCHAR
STARTCHAR ch-230
ENCODING 230
SWIDTH 1000 0
DWIDTH 16 0
BBX 16 16 0 -2
BITMAP
2488
4908
4908
24bf
3f89
2489
3f89
2489
3f89
0409
7fc9
1511
24a1
4446
0000
0000
ENDCHAR
STARTCHAR ch-233
ENCODING 233
SWIDTH 1000 0
DWIDTH 16 0
BBX 16 16 0 -2
BITMAP
2a08
7f88
2a08
2e7f
2009
3f89
0009
3f09
2109
3d09
3d09
2111
3f2a
4084
0000
0000
ENDCHAR
STARTCHAR ch-235
ENCODING 235
SWIDTH 1000 0
DWIDTH 16 0
BBX 16 16 0 -2
BITMAP
1f08
2488
153f
0e09
7fc9
1509
2489
4449
3f89
2489
3f89
2491
3faa
2084
0000
0000
ENDCHAR
STARTCHAR ch-239
ENCODING 239
SWIDTH 1000 0
DWIDTH 16 0
BBX 16 16 0 -2
BITMAP
0408
7fc8
0008
3fbf
2e89
2a89
2e89
3f89
1f09
1109
1f09
1111
1f21
7fce
0000
0000
ENDCHAR
STARTCHAR ch-240
ENCODING 240
SWIDTH 1000 0
DWIDTH 16 0
BBX 16 16 0 -2
BITMAP
103e
7f2a
112a
113e
252a
422a
003e
2200
7f92
2aa9
2ae9
2ae2
4ca2
111e
0000
0000
ENDCHAR
STARTCHAR ch-241
ENCODING 241
SWIDTH 1000 0
DWIDTH 16 0
BBX 16 16 0 -2
BITMAP
1108
7fc8
1108
3f9f
2489
3f89
2489
3f89
0409
7fc9
4549
5f51
4041
4086
0000
0000
ENDCHAR
STARTCHAR ch-243
ENCODING 243
SWIDTH 1000 0
DWIDTH 16 0
BBX 16 16 0 -2
BITMAP
1f08
0408
3f88
043f
3f89
3589
2e89
3f89
0409
3f89
0409
3f91
2aa2
4a84
0000
0000
ENDCHAR
STARTCHAR ch-244
ENCODING 244
SWIDTH 1000 0
DWIDTH 16 0
BBX 16 16 0 -2
BITMAP
0708
0408
3fc8
2fdf
2409
2709
2f89
2a89
2f89
2a89
2f89
3651
54a1
078f
0000
0000
ENDCHAR
STARTCHAR ch-245
ENCODING 245
SWIDTH 1000 0
DWIDTH 16 0
BBX 16 16 0 -2
BITMAP
7fe8
4488
5fc8
44bf
4fc9
4949
4fc9
4949
4fc9
4109
5fe9
5129
17b1
10e6
0000
0000
ENDCHAR
STARTCHAR ch-247
ENCODING 247
SWIDTH 1000 0
DWIDTH 16 0
BBX 16 16 0 -2
BITMAP
0408
7fc8
7bc8
4a5f
7bc9
1109
7fc9
1109
7fc9
1109
7fc9
6289
2111
32c6
0000
0000
ENDCHAR
STARTCHAR ch-248
ENCODING 248
SWIDTH 1000 0
DWIDTH 16 0
BBX 16 16 0 -2
BITMAP
1108
7fc8
1108
7bdf
4a49
7bc9
2109
7fc9
2109
3fc9
2109
3fc9
2115
3fc2
0000
0000
ENDCHAR
STARTCHAR ch-250
ENCODING 250
SWIDTH 1000 0
DWIDTH 16 0
BBX 16 16 0 -2
BITMAP
0800
0802
1fff
1002
2002
4002
0202
0102
0182
0082
0002
0022
0014
0008
0000
0000
ENDCHAR
STARTCHAR ch-251
ENCODING 251
SWIDTH 1000 0
DWIDTH 16 0
BBX 16 16 0 -2
BITMAP
0400
0402
07ff
0802
1022
27f2
4002
0022
07f2
0002
0002
0022
0014
0008
0000
0000
ENDCHAR
STARTCHAR ch-252
ENCODING 252
SWIDTH 1000 0
DWIDTH 16 0
BBX 16 16 0 -2
BITMAP
1000
1000
1fff
2401
4401
1fc1
0441
0449
0449
0849
1079
2002
0024
0018
0000
0000
ENDCHAR
STARTCHAR ch-254
ENCODING 254
SWIDTH 1000 0
DWIDTH 16 0
BBX 16 16 0 -2
BITMAP
0400
0402
07ff
0802
1102
2202
4202
0442
0822
1fe2
0822
0002
0014
0008
0000
0000
ENDCHAR
STARTCHAR ch-255
ENCODING 255
SWIDTH 1000 0
DWIDTH 16 0
BBX 16 16 0 -2
BITMAP
0800
0800
0802
0fff
1222
2222
4222
0422
0442
0842
1082
2102
0214
0408
0000
0000
ENDCHAR
STARTCHAR ch-261
ENCODING 261
SWIDTH 1000 0
DWIDTH 16 0
BBX 16 16 0 -2
BITMAP
0400
0404
0ffe
0804
1004
2fc4
4844
0844
0fc4
0804
0819
0801
0801
07ff
0000
0000
ENDCHAR
STARTCHAR ch-262
ENCODING 262
SWIDTH 1000 0
DWIDTH 16 0
BBX 16 16 0 -2
BITMAP
0400
0402
0fff
0922
1122
2522
4322
02a2
0462
089a
110a
2202
0414
0008
0000
0000
ENDCHAR
STARTCHAR ch-264
ENCODING 264
SWIDTH 1000 0
DWIDTH 16 0
BBX 16 16 0 -2
BITMAP
0400
0802
0fff
1002
2022
4822
1452
1292
1112
1292
1452
1ff2
1002
000c
0000
0000
ENDCHAR
STARTCHAR ch-265
ENCODING 265
SWIDTH 1000 0
DWIDTH 16 0
BBX 16 16 0 -2
BITMAP
0400
0802
1fff
2002
4fe2
0102
0922
0542
3ffa
0102
0102
0102
0114
0108
0000
0000
ENDCHAR
STARTCHAR ch-266
ENCODING 266
SWIDTH 1000 0
DWIDTH 16 0
BBX 16 16 0 -2
BITMAP
0800
0800
1ffe
2002
4102
0922
0542
1ff2
0102
0542
0922
1112
0104
0118
0000
0000
ENDCHAR
STARTCHAR ch-267
ENCODING 267
SWIDTH 1000 0
DWIDTH 16 0
BBX 16 16 0 -2
BITMAP
0800
0800
1fff
1201
2201
47e1
0901
0101
1ff1
0101
0921
0921
0fe2
000c
0000
0000
ENDCHAR
STARTCHAR ch-269
ENCODING 269
SWIDTH 1000 0
DWIDTH 16 0
BBX 16 16 0 -2
BITMAP
0802
0fff
1142
2122
5ffa
0102
1ff2
1112
1ff2
1112
1ff2
1112
112a
0004
0000
0000
ENDCHAR
STARTCHAR ch-270
ENCODING 270
SWIDTH 1000 0
DWIDTH 16 0
BBX 16 16 0 -2
BITMAP
0800
1fff
2081
4ff9
0221
0491
0ff9
1495
07f1
0491
07f1
0081
00f9
0002
0000
0000
ENDCHAR
STARTCHAR ch-271
ENCODING 271
SWIDTH 1000 0
DWIDTH 16 0
BBX 16 16 0 -2
BITMAP
0840
0844
7f7e
1484
2304
7ef4
0094
7f94
10f4
1e84
0298
0281
1481
087f
0000
0000
ENDCHAR
STARTCHAR ch-272
ENCODING 272
SWIDTH 1000 0
DWIDTH 16 0
BBX 16 16 0 -2
BITMAP
0802
0fff
1002
3ff2
4002
0fe2
0822
0fe2
1ff2
1112
1ff2
1112
1ff2
000c
0000
0000
ENDCHAR
STARTCHAR ch-273
ENCODING 273
SWIDTH 1000 0
DWIDTH 16 0
BBX 16 16 0 -2
BITMAP
1000
1fff
2401
4f79
0909
0f09
0979
0f41
0979
1f09
0309
0509
1931
0206
0000
0000
ENDCHAR
STARTCHAR ch-274
ENCODING 274
SWIDTH 1000 0
DWIDTH 16 0
BBX 16 16 0 -2
BITMAP
1000
1fff
2221
4ff9
0221
03c1
0421
0811
17e9
2005
07e1
0421
07e1
0006
0000
0000
ENDCHAR
STARTCHAR ch-277
ENCODING 277
SWIDTH 1000 0
DWIDTH 16 0
BBX 16 16 0 -2
BITMAP
2000
2000
2020
2020
2040
2080
2100
2200
2400
3800
2002
2002
2002
1ffe
0000
0000
ENDCHAR
STARTCHAR ch-278
ENCODING 278
SWIDTH 1000 0
DWIDTH 16 0
BBX 16 16 0 -2
BITMAP
0440
0440
0840
0840
1840
2846
4878
0840
0840
0840
0841
0841
083f
0800
0000
0000
ENDCHAR
STARTCHAR ch-279
ENCODING 279
SWIDTH 1000 0
DWIDTH 16 0
BBX 16 16 0 -2
BITMAP
0220
0220
0220
0222
3e2c
0230
0220
0220
0220
0220
0221
0221
0e21
701f
0000
0000
ENDCHAR
STARTCHAR ch-281
ENCODING 281
SWIDTH 1000 0
DWIDTH 16 0
BBX 16 16 0 -2
BITMAP
1fa0
1120
1120
1f24
112c
1f30
0020
7fa0
0420
1422
179e
1400
2c00
43ff
0000
0000
ENDCHAR
STARTCHAR ch-282
ENCODING 282
SWIDTH 1000 0
DWIDTH 16 0
BBX 16 16 0 -2
BITMAP
0002
3fff
2000
2000
2000
2000
2000
2000
2000
2000
2000
2002
3fff
2000
0000
0000
ENDCHAR
STARTCHAR ch-284
ENCODING 284
SWIDTH 1000 0
DWIDTH 16 0
BBX 16 16 0 -2
BITMAP
0002
7fff
4040
4440
4440
5ffc
4444
4448
4440
4442
4402
47fe
4000
7fff
0000
0000
ENDCHAR
STARTCHAR ch-285
ENCODING 285
SWIDTH 1000 0
DWIDTH 16 0
BBX 16 16 0 -2
BITMAP
0004
7ffe
2040
2040
2044
2ffe
2444
2444
2444
2454
2448
2040
2042
3fff
0000
0000
ENDCHAR
STARTCHAR ch-287
ENCODING 287
SWIDTH 1000 0
DWIDTH 16 0
BBX 16 16 0 -2
BITMAP
0002
7fff
4100
4084
5ffe
4000
43f0
4210
4210
4212
4412
481e
4000
7fff
0000
0000
ENDCHAR
STARTCHAR ch-288
ENCODING 288
SWIDTH 1000 0
DWIDTH 16 0
BBX 16 16 0 -2
BITMAP
0004
7ffe
4038
47c0
4400
4408
47fc
4420
4420
4420
4820
5020
4022
7fff
0000
0000
ENDCHAR
STARTCHAR ch-289
ENCODING 289
SWIDTH 1000 0
DWIDTH 16 0
BBX 16 16 0 -2
BITMAP
0004
3ffe
2000
2ff8
2080
2080
2080
27f0
2080
2080
2080
2ff8
2000
3fff
0000
0000
ENDCHAR
STARTCHAR ch-290
ENCODING 290
SWIDTH 1000 0
DWIDTH 16 0
BBX 16 16 0 -2
BITMAP
0002
7fff
4400
4400
4ffe
5122
4122
4222
4442
4882
4104
4038
4000
7fff
0000
0000
ENDCHAR
STARTCHAR ch-291
ENCODING 291
SWIDTH 1000 0
DWIDTH 16 0
BBX 16 16 0 -2
BITMAP
0004
7ffe
4000
4ff8
4888
4888
4ff8
4888
4888
4ff8
4080
4080
4082
7fff
0000
0000
ENDCHAR
STARTCHAR ch-298
ENCODING 298
SWIDTH 1000 0
DWIDTH 16 0
BBX 16 16 0 -2
BITMAP
0002
7fff
4120
4120
5f3e
4120
4120
4f3c
4120
4120
5f3e
4220
4422
7fff
0000
0000
ENDCHAR
STARTCHAR ch-301
ENCODING 301
SWIDTH 1000 0
DWIDTH 16 0
BBX 16 16 0 -2
BITMAP
7ffe
4420
5f20
44f8
5f28
5528
5f28
5528
5f2a
442a
5f4e
4400
7ffe
4000
0000
0000
ENDCHAR
STARTCHAR ch-303
ENCODING 303
SWIDTH 1000 0
DWIDTH 16 0
BBX 16 16 0 -2
BITMAP
7fff
5050
4c90
41fe
5090
4cfe
4090
4090
42fe
4490
5890
48fe
4880
7fff
0000
0000
ENDCHAR
STARTCHAR ch-304
ENCODING 304
SWIDTH 1000 0
DWIDTH 16 0
BBX 16 16 0 -2
BITMAP
7fff
4000
4fbe
48a2
4fbe
47fc
4444
47fc
4444
47fc
4040
4ffe
4040
7fff
0000
0000
ENDCHAR
STARTCHAR ch-305
ENCODING 305
SWIDTH 1000 0
DWIDTH 16 0
BBX 16 16 0 -2
BITMAP
7fff
4080
4ff8
4888
4ff8
4080
5ffc
4ff8
4fe8
4fe8
4808
4ff8
5004
7fff
0000
0000
ENDCHAR
STARTCHAR ch-308
ENCODING 308
SWIDTH 1000 0
DWIDTH 16 0
BBX 16 16 0 -2
BITMAP
7fff
4410
4fbf
5244
47f8
4408
47f8
47f8
4408
47f8
4110
5ffe
4410
7fff
0000
0000
ENDCHAR
STARTCHAR ch-311
ENCODING 311
SWIDTH 1000 0
DWIDTH 16 0
BBX 16 16 0 -2
BITMAP
7fff
5ffc
5144
5d74
5d74
5f7c
4420
4ffc
5820
4ffc
4ffc
4820
4ffc
7fff
0000
0000
ENDCHAR
STARTCHAR ch-313
ENCODING 313
SWIDTH 1000 0
DWIDTH 16 0
BBX 16 16 0 -2
BITMAP
0004
7ffe
2220
2220
2220
2220
2220
2220
2220
241e
2800
2002
7fff
2000
0000
0000
ENDCHAR
STARTCHAR ch-316
ENCODING 316
SWIDTH 1000 0
DWIDTH 16 0
BBX 16 16 0 -2
BITMAP
7fff
4040
40a0
4110
4208
45f4
4802
43f8
4208
4208
43f8
4208
4000
7fff
0000
0000
ENDCHAR
STARTCHAR ch-317
ENCODING 317
SWIDTH 1000 0
DWIDTH 16 0
BBX 16 16 0 -2
BITMAP
3fff
2000
27fc
2404
27fc
2404
27fc
2110
2ffe
20a0
2040
27bc
2000
3fff
0000
0000
ENDCHAR
STARTCHAR ch-318
ENCODING 318
SWIDTH 1000 0
DWIDTH 16 0
BBX 16 16 0 -2
BITMAP
7fff
4040
47fc
4404
47fc
4400
47fe
4c92
5492
47fe
4492
4404
4000
7fff
0000
0000
ENDCHAR
STARTCHAR ch-319
ENCODING 319
SWIDTH 1000 0
DWIDTH 16 0
BBX 16 16 0 -2
BITMAP
7ffe
4220
5ffc
4220
4084
5ffe
4100
43f8
4608
4a08
4208
43f8
4000
7ffe
0000
0000
ENDCHAR
STARTCHAR ch-320
ENCODING 320
SWIDTH 1000 0
DWIDTH 16 0
BBX 16 16 0 -2
BITMAP
7fff
4000
47f8
4408
4408
47f8
4000
5f3e
5122
5122
5122
5f3e
4000
7fff
0000
0000
ENDCHAR
STARTCHAR ch-321
ENCODING 321
SWIDTH 1000 0
DWIDTH 16 0
BBX 16 16 0 -2
BITMAP
0080
0080
0080
0080
0082
7fff
0080
0080
0080
0080
0080
0080
0080
0080
0000
0000
ENDCHAR
STARTCHAR ch-323
ENCODING 323
SWIDTH 1000 0
DWIDTH 16 0
BBX 16 16 0 -2
BITMAP
0010
0078
1f80
0080
0080
0082
7fff
0080
0080
0080
0080
0080
0080
0080
0000
0000
ENDCHAR
STARTCHAR ch-324
ENCODING 324
SWIDTH 1000 0
DWIDTH 16 0
BBX 16 16 0 -2
BITMAP
0000
0000
0020
0220
0220
0220
1ffc
0220
0220
0220
0220
0420
0020
0000
0000
0000
ENDCHAR
STARTCHAR ch-325
ENCODING 325
SWIDTH 1000 0
DWIDTH 16 0
BBX 16 16 0 -2
BITMAP
0808
0888
0888
0888
0888
088a
7fff
0888
0888
0888
0888
1088
1008
2008
0000
0000
ENDCHAR
STARTCHAR ch-327
ENCODING 327
SWIDTH 1000 0
DWIDTH 16 0
BBX 16 16 0 -2
BITMAP
0090
03d0
3e10
0210
0210
0212
7fff
0210
0210
0410
0410
0810
1010
0010
0000
0000
ENDCHAR
STARTCHAR ch-328
ENCODING 328
SWIDTH 1000 0
DWIDTH 16 0
BBX 16 16 0 -2
BITMAP
0400
0408
07fc
0880
1080
2080
0082
7fff
0080
0080
0080
0080
0080
0080
0000
0000
ENDCHAR
STARTCHAR ch-329
ENCODING 329
SWIDTH 1000 0
DWIDTH 16 0
BBX 16 16 0 -2
BITMAP
0080
0084
3ffe
0080
0490
0490
0412
7fff
0410
0410
0410
0810
1010
0010
0000
0000
ENDCHAR
STARTCHAR ch-330
ENCODING 330
SWIDTH 1000 0
DWIDTH 16 0
BBX 16 16 0 -2
BITMAP
0080
188c
0490
02a0
1ffc
0080
0080
0082
7fff
0080
0080
0080
0080
0080
0000
0000
ENDCHAR
STARTCHAR ch-332
ENCODING 332
SWIDTH 1000 0
DWIDTH 16 0
BBX 16 16 0 -2
BITMAP
1004
1244
1244
1244
1244
1244
7fff
1244
1244
1244
1244
1244
2244
4244
0000
0000
ENDCHAR
STARTCHAR ch-333
ENCODING 333
SWIDTH 1000 0
DWIDTH 16 0
BBX 16 16 0 -2
BITMAP
0000
7f81
0081
0081
0081
0081
0081
7fff
4080
4080
4080
4080
4080
40ff
0000
0000
ENDCHAR
STARTCHAR ch-337
ENCODING 337
SWIDTH 1000 0
DWIDTH 16 0
BBX 16 16 0 -2
BITMAP
0080
0108
0ffc
0888
0ff8
0888
0908
0ff8
0240
0442
7fff
0040
0040
0040
0000
0000
ENDCHAR
STARTCHAR ch-338
ENCODING 338
SWIDTH 1000 0
DWIDTH 16 0
BBX 16 16 0 -2
BITMAP
0100
0084
3ffe
0410
0410
0a28
1144
0080
0082
7fff
0080
0080
0080
0080
0000
0000
ENDCHAR
STARTCHAR ch-339
ENCODING 339
SWIDTH 1000 0
DWIDTH 16 0
BBX 16 16 0 -2
BITMAP
0084
00fe
0080
0ff8
0808
0ff8
0808
0ff8
0888
0082
7fff
0080
0080
0080
0000
0000
ENDCHAR
STARTCHAR ch-340
ENCODING 340
SWIDTH 1000 0
DWIDTH 16 0
BBX 16 16 0 -2
BITMAP
1020
1020
11fe
1022
7c22
104a
1084
1104
17df
1145
1145
1145
1249
1082
0000
0000
ENDCHAR
STARTCHAR ch-343
ENCODING 343
SWIDTH 1000 0
DWIDTH 16 0
BBX 16 16 0 -2
BITMAP
0080
0082
7fff
0080
3ffe
2412
2222
2ffa
2082
2ffa
2082
2082
208a
2004
0000
0000
ENDCHAR
STARTCHAR ch-346
ENCODING 346
SWIDTH 1000 0
DWIDTH 16 0
BBX 16 16 0 -2
BITMAP
1024
17ff
1020
13fe
7e22
13fe
1222
13fe
1222
17ff
1108
1088
1028
1010
0000
0000
ENDCHAR
STARTCHAR ch-348
ENCODING 348
SWIDTH 1000 0
DWIDTH 16 0
BBX 16 16 0 -2
BITMAP
0100
0100
0100
0100
0140
0130
0118
0108
0100
0100
0100
0100
0100
0100
0000
0000
ENDCHAR
STARTCHAR ch-350
ENCODING 350
SWIDTH 1000 0
DWIDTH 16 0
BBX 16 16 0 -2
BITMAP
0300
0180
0082
7fff
0080
0080
00a0
0090
0088
0088
0080
0080
0080
0080
0000
0000
ENDCHAR
STARTCHAR ch-352
ENCODING 352
SWIDTH 1000 0
DWIDTH 16 0
BBX 16 16 0 -2
BITMAP
0100
0104
01fe
0100
0100
0100
0104
3ffe
2004
2004
2004
2004
3ffc
2004
0000
0000
ENDCHAR
STARTCHAR ch-353
ENCODING 353
SWIDTH 1000 0
DWIDTH 16 0
BBX 16 16 0 -2
BITMAP
0100
0110
01f8
0100
0102
7fff
0100
0100
0140
0130
0118
0108
0100
0100
0000
0000
ENDCHAR
STARTCHAR ch-355
ENCODING 355
SWIDTH 1000 0
DWIDTH 16 0
BBX 16 16 0 -2
BITMAP
0100
0108
01fc
0100
2104
7ffe
2004
3fe4
2044
3fc4
2044
2004
3ffc
2004
0000
0000
ENDCHAR
STARTCHAR ch-358
ENCODING 358
SWIDTH 1000 0
DWIDTH 16 0
BBX 16 16 0 -2
BITMAP
0408
0408
3f88
0408
040c
7fca
0409
3f89
0408
0408
0788
3c08
1008
0008
0000
0000
ENDCHAR
STARTCHAR ch-364
ENCODING 364
SWIDTH 1000 0
DWIDTH 16 0
BBX 16 16 0 -2
BITMAP
0100
067f
7821
2021
2021
2021
2221
2421
2822
302c
2020
0020
0020
0020
0000
0000
ENDCHAR
STARTCHAR ch-366
ENCODING 366
SWIDTH 1000 0
DWIDTH 16 0
BBX 16 16 0 -2
BITMAP
00fc
1f00
1002
1fff
1000
1008
13fc
1208
1248
1228
2210
2201
4201
01ff
0000
0000
ENDCHAR
STARTCHAR ch-367
ENCODING 367
SWIDTH 1000 0
DWIDTH 16 0
BBX 16 16 0 -2
BITMAP
0200
0702
383f
2122
2122
2122
2122
2732
392a
0124
0220
0c20
3020
0020
0000
0000
ENDCHAR
STARTCHAR ch-368
ENCODING 368
SWIDTH 1000 0
DWIDTH 16 0
BBX 16 16 0 -2
BITMAP
0302
7c7f
4042
4042
4242
7f42
4042
4042
4042
4754
7848
0040
0040
0040
0000
0000
ENDCHAR
STARTCHAR ch-369
ENCODING 369
SWIDTH 1000 0
DWIDTH 16 0
BBX 16 16 0 -2
BITMAP
0400
07f0
0820
1044
2ffe
0800
09fc
0908
0908
0928
1111
1101
2101
40ff
0000
0000
ENDCHAR
STARTCHAR ch-370
ENCODING 370
SWIDTH 1000 0
DWIDTH 16 0
BBX 16 16 0 -2
BITMAP
0100
7f7f
1121
1121
1121
1521
2221
0021
7f21
412a
4124
4120
7f20
4120
0000
0000
ENDCHAR
STARTCHAR ch-371
ENCODING 371
SWIDTH 1000 0
DWIDTH 16 0
BBX 16 16 0 -2
BITMAP
0100
7f82
417f
7f42
4142
7f42
4042
4252
424a
4544
5940
6040
0040
0040
0000
0000
ENDCHAR
STARTCHAR ch-373
ENCODING 373
SWIDTH 1000 0
DWIDTH 16 0
BBX 16 16 0 -2
BITMAP
0602
387f
2242
3252
2a4a
2a4a
2242
2e62
7254
0248
0440
0840
3040
0040
0000
0000
ENDCHAR
STARTCHAR ch-375
ENCODING 375
SWIDTH 1000 0
DWIDTH 16 0
BBX 16 16 0 -2
BITMAP
0080
0888
0490
3ffe
0100
7fff
0410
0ff8
1417
6412
0490
0464
0404
03fc
0000
0000
ENDCHAR
STARTCHAR ch-376
ENCODING 376
SWIDTH 1000 0
DWIDTH 16 0
BBX 16 16 0 -2
BITMAP
1000
1102
1fbf
2422
4422
7fa2
0422
1422
1722
1432
17aa
7c24
2020
0020
0000
0000
ENDCHAR
STARTCHAR ch-377
ENCODING 377
SWIDTH 1000 0
DWIDTH 16 0
BBX 16 16 0 -2
BITMAP
0800
083f
1011
2011
7f91
2a91
2a91
2a91
2a91
2a91
2a96
2a90
7fd0
0010
0000
0000
ENDCHAR
STARTCHAR ch-379
ENCODING 379
SWIDTH 1000 0
DWIDTH 16 0
BBX 16 16 0 -2
BITMAP
1402
227f
4122
0022
0822
1422
2222
4122
7f32
412a
4124
4120
7f20
4120
0000
0000
ENDCHAR
STARTCHAR ch-380
ENCODING 380
SWIDTH 1000 0
DWIDTH 16 0
BBX 16 16 0 -2
BITMAP
0020
007c
7e84
2808
28ff
2880
28fe
28a2
28a2
2aac
2aa0
4ea1
0121
023f
0000
0000
ENDCHAR
STARTCHAR ch-383
ENCODING 383
SWIDTH 1000 0
DWIDTH 16 0
BBX 16 16 0 -2
BITMAP
0402
3bdf
2252
2a52
2bd2
2a52
2a52
2bd2
3a12
2a9a
0a54
12d0
2750
4010
0000
0000
ENDCHAR
STARTCHAR ch-386
ENCODING 386
SWIDTH 1000 0
DWIDTH 16 0
BBX 16 16 0 -2
BITMAP
0000
0004
0ffe
0800
0800
0800
0800
0800
0800
1000
1000
2000
4000
0000
0000
0000
ENDCHAR
STARTCHAR ch-388
ENCODING 388
SWIDTH 1000 0
DWIDTH 16 0
BBX 16 16 0 -2
BITMAP
0002
1fff
1000
1008
13fc
1208
1208
1208
1248
1230
1201
1201
2201
41ff
0000
0000
ENDCHAR
STARTCHAR ch-394
ENCODING 394
SWIDTH 1000 0
DWIDTH 16 0
BBX 16 16 0 -2
BITMAP
3fff
2000
2ffc
2410
2410
27fe
2030
2050
2090
2110
2210
2410
4050
0020
0000
0000
ENDCHAR
STARTCHAR ch-398
ENCODING 398
SWIDTH 1000 0
DWIDTH 16 0
BBX 16 16 0 -2
BITMAP
3ffe
2000
2000
27fc
2420
2420
27fe
2410
2410
2410
2490
4509
0605
1cf3
0000
0000
ENDCHAR
STARTCHAR ch-399
ENCODING 399
SWIDTH 1000 0
DWIDTH 16 0
BBX 16 16 0 -2
BITMAP
3fff
2200
2200
27fe
2880
2080
20fc
2080
2080
20fc
2080
4080
0080
0080
0000
0000
ENDCHAR
STARTCHAR ch-402
ENCODING 402
SWIDTH 1000 0
DWIDTH 16 0
BBX 16 16 0 -2
BITMAP
0002
3fff
2000
2200
2200
27fc
2840
2040
2ffe
2040
2444
2444
27fc
4404
0000
0000
ENDCHAR
STARTCHAR ch-404
ENCODING 404
SWIDTH 1000 0
DWIDTH 16 0
BBX 16 16 0 -2
BITMAP
0004
3ffe
2000
2ffe
2080
2100
2204
27fc
2044
2040
27fc
2040
4040
0ffe
0000
0000
ENDCHAR
STARTCHAR ch-406
ENCODING 406
SWIDTH 1000 0
DWIDTH 16 0
BBX 16 16 0 -2
BITMAP
0002
3fff
2400
2484
2f88
2432
2404
2508
2510
2504
2508
2531
2901
41ff
0000
0000
ENDCHAR
STARTCHAR ch-407
ENCODING 407
SWIDTH 1000 0
DWIDTH 16 0
BBX 16 16 0 -2
BITMAP
3fff
2080
2040
2ffe
2208
2110
2ffe
2040
2040
2ffe
2040
4040
0040
0040
0000
0000
ENDCHAR
STARTCHAR ch-408
ENCODING 408
SWIDTH 1000 0
DWIDTH 16 0
BBX 16 16 0 -2
BITMAP
0002
3fff
2000
27fc
2444
27fc
2444
2444
27fc
2040
27fc
2040
4042
0fff
0000
0000
ENDCHAR
STARTCHAR ch-409
ENCODING 409
SWIDTH 1000 0
DWIDTH 16 0
BBX 16 16 0 -2
BITMAP
0002
3fff
2040
2ffe
2040
27fc
2444
27fc
2444
27fc
2040
2ffe
4040
0040
0000
0000
ENDCHAR
STARTCHAR ch-410
ENCODING 410
SWIDTH 1000 0
DWIDTH 16 0
BBX 16 16 0 -2
BITMAP
1ffe
13f8
1208
13f8
1208
13f8
1000
17fc
1010
1062
2fff
2040
4140
0080
0000
0000
ENDCHAR
STARTCHAR ch-412
ENCODING 412
SWIDTH 1000 0
DWIDTH 16 0
BBX 16 16 0 -2
BITMAP
3fff
2004
27f8
2040
2ffe
2040
2248
2ffe
2248
2040
27fc
2040
4040
0ffe
0000
0000
ENDCHAR
STARTCHAR ch-413
ENCODING 413
SWIDTH 1000 0
DWIDTH 16 0
BBX 16 16 0 -2
BITMAP
0004
1ffe
1110
17fe
1110
1fff
1000
13f8
1208
1208
23f8
2208
4208
03f8
0000
0000
ENDCHAR
STARTCHAR ch-414
ENCODING 414
SWIDTH 1000 0
DWIDTH 16 0
BBX 16 16 0 -2
BITMAP
0002
3fff
2090
2090
2f9f
2090
2090
2f9f
2090
2090
2f9f
2090
4090
0110
0000
0000
ENDCHAR
STARTCHAR ch-415
ENCODING 415
SWIDTH 1000 0
DWIDTH 16 0
BBX 16 16 0 -2
BITMAP
0002
1fff
1080
1100
17fc
1404
17fc
1404
17fc
1040
2248
2446
4942
0080
0000
0000
ENDCHAR
STARTCHAR ch-420
ENCODING 420
SWIDTH 1000 0
DWIDTH 16 0
BBX 16 16 0 -2
BITMAP
3ffe
2000
2082
2104
2e38
2208
2fbe
2208
2208
271c
2aaa
2208
2208
4208
0000
0000
ENDCHAR
STARTCHAR ch-421
ENCODING 421
SWIDTH 1000 0
DWIDTH 16 0
BBX 16 16 0 -2
BITMAP
1ffe
1448
1288
1fdf
1111
156a
1548
1548
17c8
1148
2114
2214
4422
0841
0000
0000
ENDCHAR
STARTCHAR ch-423
ENCODING 423
SWIDTH 1000 0
DWIDTH 16 0
BBX 16 16 0 -2
BITMAP
3ffe
2040
27fc
2040
23f8
2208
23f8
2208
23f8
23f8
2208
2ffe
2208
4404
0000
0000
ENDCHAR
STARTCHAR ch-428
ENCODING 428
SWIDTH 1000 0
DWIDTH 16 0
BBX 16 16 0 -2
BITMAP
3fff
2000
27fc
25f4
27fc
2108
23ec
2e4a
2188
2f7e
2000
27fc
4404
07fc
0000
0000
ENDCHAR
STARTCHAR ch-429
ENCODING 429
SWIDTH 1000 0
DWIDTH 16 0
BBX 16 16 0 -2
BITMAP
3fff
2f88
288a
2f88
28be
2f88
2008
2f88
2888
2f88
2894
2f94
48a2
08c1
0000
0000
ENDCHAR
STARTCHAR ch-434
ENCODING 434
SWIDTH 1000 0
DWIDTH 16 0
BBX 16 16 0 -2
BITMAP
3fff
2088
27ff
2088
23fe
2222
23fe
2222
23fe
2020
27ff
2429
45f9
040b
0000
0000
ENDCHAR
STARTCHAR ch-436
ENCODING 436
SWIDTH 1000 0
DWIDTH 16 0
BBX 16 16 0 -2
BITMAP
3ffe
2f14
2914
2f7e
2910
2f28
4944
0b42
1ffe
0842
0ffe
0842
0ffe
0040
0000
0000
ENDCHAR
STARTCHAR ch-441
ENCODING 441
SWIDTH 1000 0
DWIDTH 16 0
BBX 16 16 0 -2
BITMAP
0400
0400
0400
3ff0
0410
0411
0811
1011
621f
0400
0820
1010
7ff8
0004
0000
0000
ENDCHAR
STARTCHAR ch-443
ENCODING 443
SWIDTH 1000 0
DWIDTH 16 0
BBX 16 16 0 -2
BITMAP
0080
0084
3ffe
0080
0080
0082
7fff
0100
0100
0210
0408
0804
3ffe
0002
0000
0000
ENDCHAR
STARTCHAR ch-451
ENCODING 451
SWIDTH 1000 0
DWIDTH 16 0
BBX 16 16 0 -2
BITMAP
0100
0210
0ff8
0808
1212
7f7f
02a0
0c58
1384
6023
07c8
0010
0020
0fc0
0000
0000
ENDCHAR
STARTCHAR ch-456
ENCODING 456
SWIDTH 1000 0
DWIDTH 16 0
BBX 16 16 0 -2
BITMAP
0008
3ffc
0808
0810
0410
0420
0220
0140
0080
0140
0220
0418
1807
6002
0000
0000
ENDCHAR
STARTCHAR ch-457
ENCODING 457
SWIDTH 1000 0
DWIDTH 16 0
BBX 16 16 0 -2
BITMAP
0004
1ffe
0004
0904
0888
0488
0210
0120
00c0
0140
0220
0418
1807
6002
0000
0000
ENDCHAR
STARTCHAR ch-458
ENCODING 458
SWIDTH 1000 0
DWIDTH 16 0
BBX 16 16 0 -2
BITMAP
0010
3ff8
0410
0420
0420
047c
0a04
0908
0888
1050
1060
2098
4307
0c02
0000
0000
ENDCHAR
STARTCHAR ch-459
ENCODING 459
SWIDTH 1000 0
DWIDTH 16 0
BBX 16 16 0 -2
BITMAP
0200
0202
7fff
0200
07f8
0408
0a10
0910
10a0
2040
40a0
0318
0c07
3002
0000
0000
ENDCHAR
STARTCHAR ch-461
ENCODING 461
SWIDTH 1000 0
DWIDTH 16 0
BBX 16 16 0 -2
BITMAP
0008
003c
1fc0
1000
1ffc
1204
1108
1110
10a0
1040
20a0
2118
4207
0c02
0000
0000
ENDCHAR
STARTCHAR ch-468
ENCODING 468
SWIDTH 1000 0
DWIDTH 16 0
BBX 16 16 0 -2
BITMAP
0400
0780
047e
0402
7fc4
0444
0424
1628
1590
24a8
2428
4444
1487
0902
0000
0000
ENDCHAR
STARTCHAR ch-470
ENCODING 470
SWIDTH 1000 0
DWIDTH 16 0
BBX 16 16 0 -2
BITMAP
7fc0
1100
11fe
1f02
1142
1144
1f44
1128
1110
1f28
7124
2147
0182
0100
0000
0000
ENDCHAR
STARTCHAR ch-471
ENCODING 471
SWIDTH 1000 0
DWIDTH 16 0
BBX 16 16 0 -2
BITMAP
003c
1fc0
0908
0490
3fff
2001
4002
0ff8
0410
0220
0140
01c0
0e3e
3004
0000
0000
ENDCHAR
STARTCHAR ch-475
ENCODING 475
SWIDTH 1000 0
DWIDTH 16 0
BBX 16 16 0 -2
BITMAP
080e
49f0
2a80
2c80
3efc
0884
08c4
7ea4
08a8
0890
1128
1124
2247
4482
0000
0000
ENDCHAR
STARTCHAR ch-479
ENCODING 479
SWIDTH 1000 0
DWIDTH 16 0
BBX 16 16 0 -2
BITMAP
0284
1cbe
1084
1ebc
1084
1ffc
0080
3ff8
0410
0220
01c0
0220
0c18
7007
0000
0000
ENDCHAR
STARTCHAR ch-481
ENCODING 481
SWIDTH 1000 0
DWIDTH 16 0
BBX 16 16 0 -2
BITMAP
0400
0780
7fdf
5f51
4a51
1511
2a91
1f11
3191
1f11
110a
1f04
110a
1f31
0000
0000
ENDCHAR
STARTCHAR ch-482
ENCODING 482
SWIDTH 1000 0
DWIDTH 16 0
BBX 16 16 0 -2
BITMAP
1144
7fff
0220
1ffc
0080
1ffc
7fff
1100
1f7c
1144
1f28
1110
7f28
01c7
0000
0000
ENDCHAR
STARTCHAR ch-483
ENCODING 483
SWIDTH 1000 0
DWIDTH 16 0
BBX 16 16 0 -2
BITMAP
0000
0000
0002
3fff
2002
2002
2002
2002
2002
2002
2002
2002
3ffe
2002
0000
0000
ENDCHAR
STARTCHAR ch-484
ENCODING 484
SWIDTH 1000 0
DWIDTH 16 0
BBX 16 16 0 -2
BITMAP
0080
0080
0082
7fff
0080
0080
0088
0ffc
0808
0808
0808
0808
0ff8
0808
0000
0000
ENDCHAR
STARTCHAR ch-485
ENCODING 485
SWIDTH 1000 0
DWIDTH 16 0
BBX 16 16 0 -2
BITMAP
0800
0802
0fff
1002
2022
4ff2
0422
0422
0422
07e2
0422
0002
0014
0008
0000
0000
ENDCHAR
STARTCHAR ch-486
ENCODING 486
SWIDTH 1000 0
DWIDTH 16 0
BBX 16 16 0 -2
BITMAP
0008
0ffc
0808
0808
0ff8
0900
0102
3fff
0102
0202
0202
0422
0814
3008
0000
0000
ENDCHAR
STARTCHAR ch-488
ENCODING 488
SWIDTH 1000 0
DWIDTH 16 0
BBX 16 16 0 -2
BITMAP
0002
04ff
7e22
4422
4422
4422
4422
4422
7c42
4482
0102
0222
0414
0008
0000
0000
ENDCHAR
STARTCHAR ch-489
ENCODING 489
SWIDTH 1000 0
DWIDTH 16 0
BBX 16 16 0 -2
BITMAP
0002
04ff
7e42
4442
4442
4442
4442
4442
7c62
4454
0048
0040
0040
0040
0000
0000
ENDCHAR
STARTCHAR ch-490
ENCODING 490
SWIDTH 1000 0
DWIDTH 16 0
BBX 16 16 0 -2
BITMAP
0004
1ffe
1004
1004
1004
1004
1ffc
1004
0000
0220
0610
080c
1006
2002
0000
0000
ENDCHAR
STARTCHAR ch-491
ENCODING 491
SWIDTH 1000 0
DWIDTH 16 0
BBX 16 16 0 -2
BITMAP
0002
0002
7e42
4242
4242
4242
4242
4242
424e
7e72
42c2
0002
0002
0002
0000
0000
ENDCHAR
STARTCHAR ch-492
ENCODING 492
SWIDTH 1000 0
DWIDTH 16 0
BBX 16 16 0 -2
BITMAP
0004
1ffe
0204
0204
0404
0444
0828
1010
27fc
0404
0404
0404
07fc
0404
0000
0000
ENDCHAR
STARTCHAR ch-493
ENCODING 493
SWIDTH 1000 0
DWIDTH 16 0
BBX 16 16 0 -2
BITMAP
0010
0090
0498
7e90
4490
4490
4490
4490
4490
7d08
450c
0207
0402
0800
0000
0000
ENDCHAR
STARTCHAR ch-494
ENCODING 494
SWIDTH 1000 0
DWIDTH 16 0
BBX 16 16 0 -2
BITMAP
0002
7dff
4410
4410
4410
4410
4410
4410
4410
7c10
4410
0010
0090
0060
0000
0000
ENDCHAR
STARTCHAR ch-495
ENCODING 495
SWIDTH 1000 0
DWIDTH 16 0
BBX 16 16 0 -2
BITMAP
0002
7fff
0004
0004
0fc4
0844
0844
0844
0fc4
0844
0004
0004
0028
0010
0000
0000
ENDCHAR
STARTCHAR ch-496
ENCODING 496
SWIDTH 1000 0
DWIDTH 16 0
BBX 16 16 0 -2
BITMAP
0100
0200
0410
0808
1004
7ffe
0001
0000
1ffc
1004
1004
1004
1ffc
1004
0000
0000
ENDCHAR
STARTCHAR ch-497
ENCODING 497
SWIDTH 1000 0
DWIDTH 16 0
BBX 16 16 0 -2
BITMAP
0080
0480
7e80
4482
4486
4488
4490
44a0
44c0
4580
7c80
4481
0081
007f
0000
0000
ENDCHAR
STARTCHAR ch-498
ENCODING 498
SWIDTH 1000 0
DWIDTH 16 0
BBX 16 16 0 -2
BITMAP
0080
0084
1ffe
1084
1084
1ffc
1084
0480
0280
0100
02c0
0430
180f
6002
0000
0000
ENDCHAR
STARTCHAR ch-499
ENCODING 499
SWIDTH 1000 0
DWIDTH 16 0
BBX 16 16 0 -2
BITMAP
0100
0102
7fff
0200
0200
0400
0404
0ffe
1404
2404
4404
0404
07fc
0404
0000
0000
ENDCHAR
STARTCHAR ch-501
ENCODING 501
SWIDTH 1000 0
DWIDTH 16 0
BBX 16 16 0 -2
BITMAP
0004
3ffe
2000
2010
23f8
2210
2210
2210
2210
23f0
2210
2000
2002
3fff
0000
0000
ENDCHAR
STARTCHAR ch-504
ENCODING 504
SWIDTH 1000 0
DWIDTH 16 0
BBX 16 16 0 -2
BITMAP
7fff
0001
0021
3ff1
0001
0041
1fe1
1041
1041
1041
1fc1
1051
000a
0004
0000
0000
ENDCHAR
STARTCHAR ch-507
ENCODING 507
SWIDTH 1000 0
DWIDTH 16 0
BBX 16 16 0 -2
BITMAP
0020
0420
7e20
4422
45ff
4422
4422
4422
7c42
4482
0082
0102
0214
0408
0000
0000
ENDCHAR
STARTCHAR ch-508
ENCODING 508
SWIDTH 1000 0
DWIDTH 16 0
BBX 16 16 0 -2
BITMAP
0002
7cff
4402
4402
440a
4412
4422
4442
7d82
4502
0002
0022
0014
0008
0000
0000
ENDCHAR
ENDFONT
