STARTFONT 2.1
FONT big5.4e00.16
SIZE 16 72 72
FONTBOUNDINGBOX 16 16 0 -2
STARTPROPERTIES 4
FONT_DESCENT 2
FONT_ASCENT 14
DEFAULT_CHAR 0
COPYRIGHT "Copyright (c) 1992 AT&T - All rights reserved."
ENDPROPERTIES
CHARS 293
STARTCHAR ch-0
ENCODING 0
SWIDTH 1000 0
DWIDTH 16 0
BBX 16 16 0 -2
BITMAP
0000
0000
0000
0000
0000
0000
0002
7fff
0000
0000
0000
0000
0000
0000
0000
0000
ENDCHAR
STARTCHAR ch-1
ENCODING 1
SWIDTH 1000 0
DWIDTH 16 0
BBX 16 16 0 -2
BITMAP
0002
7fff
0080
0080
0080
0080
0080
0080
0080
0080
0080
0080
0280
0100
0000
0000
ENDCHAR
STARTCHAR ch-3
ENCODING 3
SWIDTH 1000 0
DWIDTH 16 0
BBX 16 16 0 -2
BITMAP
0200
0200
0200
0200
0202
7fff
0200
0200
0200
0200
0200
0202
0202
01fe
0000
0000
ENDCHAR
STARTCHAR ch-7
ENCODING 7
SWIDTH 1000 0
DWIDTH 16 0
BBX 16 16 0 -2
BITMAP
0002
7fff
0400
0400
07fc
0404
0404
0404
0804
1004
2004
4008
0090
0060
0000
0000
ENDCHAR
STARTCHAR ch-8
ENCODING 8
SWIDTH 1000 0
DWIDTH 16 0
BBX 16 16 0 -2
BITMAP
0020
0020
0022
7fff
0020
0420
0420
0220
0140
0080
0140
0230
0c0f
7002
0000
0000
ENDCHAR
STARTCHAR ch-9
ENCODING 9
SWIDTH 1000 0
DWIDTH 16 0
BBX 16 16 0 -2
BITMAP
0000
0004
3ffe
0000
0000
0000
0008
1ffc
0000
0000
0000
0002
7fff
0000
0000
0000
ENDCHAR
STARTCHAR ch-10
ENCODING 10
SWIDTH 1000 0
DWIDTH 16 0
BBX 16 16 0 -2
BITMAP
0080
0080
0080
0080
0088
00fc
0080
0080
0080
0080
0080
0080
0082
7fff
0000
0000
ENDCHAR
STARTCHAR ch-11
ENCODING 11
SWIDTH 1000 0
DWIDTH 16 0
BBX 16 16 0 -2
BITMAP
0002
7fff
0100
0100
0140
0120
0118
0108
0100
0100
0100
0100
0100
0100
0000
0000
ENDCHAR
STARTCHAR ch-12
ENCODING 12
SWIDTH 1000 0
DWIDTH 16 0
BBX 16 16 0 -2
BITMAP
0002
7fff
0410
0410
0410
0410
0410
0410
0410
0410
0810
1010
2010
0010
0000
0000
ENDCHAR
STARTCHAR ch-13
ENCODING 13
SWIDTH 1000 0
DWIDTH 16 0
BBX 16 16 0 -2
BITMAP
0002
7fff
0040
0080
0080
01a0
0290
048c
0886
1082
2080
0080
0080
0080
0000
0000
ENDCHAR
STARTCHAR ch-14
ENCODING 14
SWIDTH 1000 0
DWIDTH 16 0
BBX 16 16 0 -2
BITMAP
2000
2000
3ffc
2000
4000
7fff
0001
0001
0021
7ff1
0002
0004
0048
0030
0000
0000
ENDCHAR
STARTCHAR ch-15
ENCODING 15
SWIDTH 1000 0
DWIDTH 16 0
BBX 16 16 0 -2
BITMAP
0002
7fff
0080
0080
10fc
1084
1084
1084
1ffc
0004
0004
0008
0090
0060
0000
0000
ENDCHAR
STARTCHAR ch-16
ENCODING 16
SWIDTH 1000 0
DWIDTH 16 0
BBX 16 16 0 -2
BITMAP
0002
7fff
0080
1088
10fc
1080
1082
1fff
0002
0002
0002
0022
0014
0008
0000
0000
ENDCHAR
STARTCHAR ch-17
ENCODING 17
SWIDTH 1000 0
DWIDTH 16 0
BBX 16 16 0 -2
BITMAP
0008
1ffc
0108
0108
0108
0108
0108
3fff
0208
0208
0208
0208
020a
7fff
0000
0000
ENDCHAR
STARTCHAR ch-20
ENCODING 20
SWIDTH 1000 0
DWIDTH 16 0
BBX 16 16 0 -2
BITMAP
0010
0ff8
0810
0810
0810
0ff0
0810
0810
0ff0
0810
0810
0810
0812
7fff
0000
0000
ENDCHAR
STARTCHAR ch-21
ENCODING 21
SWIDTH 1000 0
DWIDTH 16 0
BBX 16 16 0 -2
BITMAP
0004
3ffe
0040
0080
0180
02b0
0488
0884
1082
2082
0080
0080
0082
7fff
0000
0000
ENDCHAR
STARTCHAR ch-22
ENCODING 22
SWIDTH 1000 0
DWIDTH 16 0
BBX 16 16 0 -2
BITMAP
0088
1088
1088
1088
7fff
1088
1088
1088
1088
10f8
1088
1000
1000
0ffe
0000
0000
ENDCHAR
STARTCHAR ch-24
ENCODING 24
SWIDTH 1000 0
DWIDTH 16 0
BBX 16 16 0 -2
BITMAP
0010
0038
00c0
0f00
0800
0808
0ffc
0820
0820
0820
0820
0820
0822
7fff
0000
0000
ENDCHAR
STARTCHAR ch-25
ENCODING 25
SWIDTH 1000 0
DWIDTH 16 0
BBX 16 16 0 -2
BITMAP
0002
7fff
0080
0080
0082
3fff
2082
20c2
2122
2212
2412
2002
200a
2004
0000
0000
ENDCHAR
STARTCHAR ch-30
ENCODING 30
SWIDTH 1000 0
DWIDTH 16 0
BBX 16 16 0 -2
BITMAP
0010
1ff8
0020
0040
0084
3e8c
02f0
0490
0888
0887
1082
2280
0102
7fff
0000
0000
ENDCHAR
STARTCHAR ch-31
ENCODING 31
SWIDTH 1000 0
DWIDTH 16 0
BBX 16 16 0 -2
BITMAP
0078
1f80
0080
0088
1ffc
0080
0102
7fff
0400
0800
1008
2004
7ffe
2002
0000
0000
ENDCHAR
STARTCHAR ch-38
ENCODING 38
SWIDTH 1000 0
DWIDTH 16 0
BBX 16 16 0 -2
BITMAP
0808
0410
0220
3ffe
0220
0220
0220
1224
0a28
0630
0220
0220
0220
7fff
0000
0000
ENDCHAR
STARTCHAR ch-43
ENCODING 43
SWIDTH 1000 0
DWIDTH 16 0
BBX 16 16 0 -2
BITMAP
1008
0818
0620
0240
0080
0080
0080
0080
0080
0080
0080
0080
0080
0080
0000
0000
ENDCHAR
STARTCHAR ch-45
ENCODING 45
SWIDTH 1000 0
DWIDTH 16 0
BBX 16 16 0 -2
BITMAP
0080
0080
0082
3fff
2082
2082
2082
3ffe
2082
0080
0080
0080
0080
0080
0000
0000
ENDCHAR
STARTCHAR ch-46
ENCODING 46
SWIDTH 1000 0
DWIDTH 16 0
BBX 16 16 0 -2
BITMAP
0004
3ffe
0004
0104
0104
1ff4
0104
0104
0104
1ff4
0105
0105
0103
0101
0000
0000
ENDCHAR
STARTCHAR ch-48
ENCODING 48
SWIDTH 1000 0
DWIDTH 16 0
BBX 16 16 0 -2
BITMAP
0080
00b8
03c0
1c80
0080
0088
1ffc
0080
0082
7fff
0080
0080
0080
0080
0000
0000
ENDCHAR
STARTCHAR ch-49
ENCODING 49
SWIDTH 1000 0
DWIDTH 16 0
BBX 16 16 0 -2
BITMAP
0220
0220
4221
4221
4221
4221
4221
7e3f
0220
0220
0420
0820
1020
2020
0000
0000
ENDCHAR
STARTCHAR ch-50
ENCODING 50
SWIDTH 1000 0
DWIDTH 16 0
BBX 16 16 0 -2
BITMAP
0080
0084
1ffe
1084
1084
1ffc
0080
3fff
2082
2082
3ffe
0080
0080
0080
0000
0000
ENDCHAR
STARTCHAR ch-51
ENCODING 51
SWIDTH 1000 0
DWIDTH 16 0
BBX 16 16 0 -2
BITMAP
0220
0220
1ffc
1224
1224
1ffc
0220
3ffe
2222
2222
3ffe
0420
0820
1020
0000
0000
ENDCHAR
STARTCHAR ch-56
ENCODING 56
SWIDTH 1000 0
DWIDTH 16 0
BBX 16 16 0 -2
BITMAP
0100
0100
0110
3ff8
0110
0110
0110
0290
0250
0251
0411
0411
180f
6000
0000
0000
ENDCHAR
STARTCHAR ch-57
ENCODING 57
SWIDTH 1000 0
DWIDTH 16 0
BBX 16 16 0 -2
BITMAP
0008
0ffc
0808
0908
0888
0888
0808
7fff
0808
0808
0808
0808
1028
2010
0000
0000
ENDCHAR
STARTCHAR ch-59
ENCODING 59
SWIDTH 1000 0
DWIDTH 16 0
BBX 16 16 0 -2
BITMAP
0100
0080
0084
3ffe
0080
0080
0080
0088
1ffc
0080
0080
0080
0082
7fff
0000
0000
ENDCHAR
STARTCHAR ch-60
ENCODING 60
SWIDTH 1000 0
DWIDTH 16 0
BBX 16 16 0 -2
BITMAP
0410
0410
0410
3ffe
0510
0490
0450
0410
7fff
0410
0410
0810
1010
2010
0000
0000
ENDCHAR
STARTCHAR ch-66
ENCODING 66
SWIDTH 1000 0
DWIDTH 16 0
BBX 16 16 0 -2
BITMAP
0004
0004
2004
1004
0808
0410
0220
0140
0080
0140
0220
0410
0808
7007
0000
0000
ENDCHAR
STARTCHAR ch-67
ENCODING 67
SWIDTH 1000 0
DWIDTH 16 0
BBX 16 16 0 -2
BITMAP
0010
3ff8
0410
0420
0442
047f
0402
0402
0802
0802
1002
2044
4028
0010
0000
0000
ENDCHAR
STARTCHAR ch-69
ENCODING 69
SWIDTH 1000 0
DWIDTH 16 0
BBX 16 16 0 -2
BITMAP
0200
0210
03f8
0410
0810
1020
0020
0040
00a0
0110
0210
0408
1807
6002
0000
0000
ENDCHAR
STARTCHAR ch-71
ENCODING 71
SWIDTH 1000 0
DWIDTH 16 0
BBX 16 16 0 -2
BITMAP
0008
01fc
3f00
0100
0100
0104
01fe
7f00
0100
0100
0100
0101
0101
00ff
0000
0000
ENDCHAR
STARTCHAR ch-72
ENCODING 72
SWIDTH 1000 0
DWIDTH 16 0
BBX 16 16 0 -2
BITMAP
0080
0100
0200
0400
0810
1020
6040
0080
0100
0200
0408
0804
7ffe
0001
0000
0000
ENDCHAR
STARTCHAR ch-75
ENCODING 75
SWIDTH 1000 0
DWIDTH 16 0
BBX 16 16 0 -2
BITMAP
0100
0080
0008
3ffc
0010
0020
0040
0080
0100
0600
1800
2400
03ff
0000
0000
0000
ENDCHAR
STARTCHAR ch-77
ENCODING 77
SWIDTH 1000 0
DWIDTH 16 0
BBX 16 16 0 -2
BITMAP
0400
0402
07ff
0900
1108
21fc
4100
0100
0104
01fe
0100
0100
0100
0100
0000
0000
ENDCHAR
STARTCHAR ch-78
ENCODING 78
SWIDTH 1000 0
DWIDTH 16 0
BBX 16 16 0 -2
BITMAP
003c
1fc0
0080
0888
0698
02a0
0082
7fff
0080
0080
0080
0080
0280
0100
0000
0000
ENDCHAR
STARTCHAR ch-79
ENCODING 79
SWIDTH 1000 0
DWIDTH 16 0
BBX 16 16 0 -2
BITMAP
003c
3fc0
0080
0080
0080
1ffc
0008
0030
00c0
0300
0400
1800
2400
03ff
0000
0000
ENDCHAR
STARTCHAR ch-82
ENCODING 82
SWIDTH 1000 0
DWIDTH 16 0
BBX 16 16 0 -2
BITMAP
0018
07e0
0400
0404
07fe
0410
0410
0412
7fff
0000
0100
0300
0400
0800
0000
0000
ENDCHAR
STARTCHAR ch-83
ENCODING 83
SWIDTH 1000 0
DWIDTH 16 0
BBX 16 16 0 -2
BITMAP
0018
07e0
0400
0404
07fe
0410
0410
0412
7fff
0000
0020
0018
000c
0004
0000
0000
ENDCHAR
STARTCHAR ch-86
ENCODING 86
SWIDTH 1000 0
DWIDTH 16 0
BBX 16 16 0 -2
BITMAP
0038
0fc0
0080
0082
7fff
0080
0492
0496
3c98
0491
1c91
648f
0080
0080
0000
0000
ENDCHAR
STARTCHAR ch-88
ENCODING 88
SWIDTH 1000 0
DWIDTH 16 0
BBX 16 16 0 -2
BITMAP
0078
0f80
0082
7fff
02a0
1eac
02b0
06a2
3a9e
01c0
02a0
0490
388e
0080
0000
0000
ENDCHAR
STARTCHAR ch-89
ENCODING 89
SWIDTH 1000 0
DWIDTH 16 0
BBX 16 16 0 -2
BITMAP
0000
3ff8
0010
0020
0040
0080
0100
0200
0400
0800
1000
2002
2002
1ffe
0000
0000
ENDCHAR
STARTCHAR ch-92
ENCODING 92
SWIDTH 1000 0
DWIDTH 16 0
BBX 16 16 0 -2
BITMAP
1000
1000
1000
1000
7ffe
1004
1008
1010
1020
1000
1001
1001
1001
1fff
0000
0000
ENDCHAR
STARTCHAR ch-93
ENCODING 93
SWIDTH 1000 0
DWIDTH 16 0
BBX 16 16 0 -2
BITMAP
0400
0400
0420
7ff0
0420
0420
0420
0420
0420
0420
0820
0821
1021
601f
0000
0000
ENDCHAR
STARTCHAR ch-94
ENCODING 94
SWIDTH 1000 0
DWIDTH 16 0
BBX 16 16 0 -2
BITMAP
0400
0804
0ffe
1000
2010
4ff8
0020
0040
0080
0100
0201
0401
0801
07ff
0000
0000
ENDCHAR
STARTCHAR ch-95
ENCODING 95
SWIDTH 1000 0
DWIDTH 16 0
BBX 16 16 0 -2
BITMAP
0080
0088
089c
08e8
0b88
1c88
6888
0888
0890
0880
0881
0801
0801
07ff
0000
0000
ENDCHAR
STARTCHAR ch-105
ENCODING 105
SWIDTH 1000 0
DWIDTH 16 0
BBX 16 16 0 -2
BITMAP
0820
0820
0920
0fa0
0820
0820
0920
3fa0
2120
2120
2121
2121
3f21
211f
0000
0000
ENDCHAR
STARTCHAR ch-115
ENCODING 115
SWIDTH 1000 0
DWIDTH 16 0
BBX 16 16 0 -2
BITMAP
07a0
7820
24a0
14a0
1120
7fa0
0120
0620
05a0
0e20
7420
0421
1421
081f
0000
0000
ENDCHAR
STARTCHAR ch-126
ENCODING 126
SWIDTH 1000 0
DWIDTH 16 0
BBX 16 16 0 -2
BITMAP
0820
7f42
087f
0880
3e80
237c
3e08
2210
3e20
0820
7f41
0841
083f
0800
0000
0000
ENDCHAR
STARTCHAR ch-127
ENCODING 127
SWIDTH 1000 0
DWIDTH 16 0
BBX 16 16 0 -2
BITMAP
0050
7f90
1510
2490
0810
1090
3f10
0250
3fd0
1510
2490
4451
1411
080f
0000
0000
ENDCHAR
STARTCHAR ch-130
ENCODING 130
SWIDTH 1000 0
DWIDTH 16 0
BBX 16 16 0 -2
BITMAP
0110
3e10
4490
2490
1f10
0e10
7fd0
5150
5f50
5f51
4a51
4451
4a51
51df
0000
0000
ENDCHAR
STARTCHAR ch-131
ENCODING 131
SWIDTH 1000 0
DWIDTH 16 0
BBX 16 16 0 -2
BITMAP
1510
1510
0e10
7fd0
1510
2490
0490
1090
3bd0
4a90
33d0
2091
4091
009f
0000
0000
ENDCHAR
STARTCHAR ch-132
ENCODING 132
SWIDTH 1000 0
DWIDTH 16 0
BBX 16 16 0 -2
BITMAP
0410
7fd0
0410
3f90
0010
7fd0
4050
5f50
0010
3f90
2090
3f91
1111
7fdf
0000
0000
ENDCHAR
STARTCHAR ch-134
ENCODING 134
SWIDTH 1000 0
DWIDTH 16 0
BBX 16 16 0 -2
BITMAP
0002
7fff
0008
0010
0020
00c0
0040
0040
0040
0040
0040
0240
0140
0080
0000
0000
ENDCHAR
STARTCHAR ch-136
ENCODING 136
SWIDTH 1000 0
DWIDTH 16 0
BBX 16 16 0 -2
BITMAP
0010
1ff8
0020
0140
00c2
7fff
0082
0084
0080
0080
0080
0080
0280
0100
0000
0000
ENDCHAR
STARTCHAR ch-139
ENCODING 139
SWIDTH 1000 0
DWIDTH 16 0
BBX 16 16 0 -2
BITMAP
0080
7fff
0080
1ffc
1084
1ffc
0080
1ffc
0084
7fff
0084
1ffc
0080
0380
0000
0000
ENDCHAR
STARTCHAR ch-140
ENCODING 140
SWIDTH 1000 0
DWIDTH 16 0
BBX 16 16 0 -2
BITMAP
0000
0000
0008
1ffc
0000
0000
0000
0000
0000
0000
0000
0002
7fff
0000
0000
0000
ENDCHAR
STARTCHAR ch-141
ENCODING 141
SWIDTH 1000 0
DWIDTH 16 0
BBX 16 16 0 -2
BITMAP
0008
1ffc
0000
0002
7fff
0080
0080
0080
0080
0080
0080
0080
0280
0100
0000
0000
ENDCHAR
STARTCHAR ch-142
ENCODING 142
SWIDTH 1000 0
DWIDTH 16 0
BBX 16 16 0 -2
BITMAP
0008
1ffc
0080
0080
0082
7fff
0080
0080
0080
0080
0080
0080
0280
0100
0000
0000
ENDCHAR
STARTCHAR ch-145
ENCODING 145
SWIDTH 1000 0
DWIDTH 16 0
BBX 16 16 0 -2
BITMAP
0010
0ff8
0000
0000
0002
7fff
0100
0200
0210
0408
0804
3ffe
1001
0001
0000
0000
ENDCHAR
STARTCHAR ch-146
ENCODING 146
SWIDTH 1000 0
DWIDTH 16 0
BBX 16 16 0 -2
BITMAP
0004
3ffe
0400
0400
0410
07f8
0410
0410
0810
1ff0
0820
0040
0042
7fff
0000
0000
ENDCHAR
STARTCHAR ch-147
ENCODING 147
SWIDTH 1000 0
DWIDTH 16 0
BBX 16 16 0 -2
BITMAP
0008
1ffc
0000
0002
7fff
0220
0220
0220
0220
0220
0420
0420
0820
1020
0000
0000
ENDCHAR
STARTCHAR ch-148
ENCODING 148
SWIDTH 1000 0
DWIDTH 16 0
BBX 16 16 0 -2
BITMAP
0004
3ffe
0100
0100
0100
0108
1ffc
0208
0208
0208
0408
0408
0408
7fff
0000
0000
ENDCHAR
STARTCHAR ch-149
ENCODING 149
SWIDTH 1000 0
DWIDTH 16 0
BBX 16 16 0 -2
BITMAP
0410
0410
0410
3ffe
0410
0410
0412
7fff
0410
0410
0810
0810
1010
2010
0000
0000
ENDCHAR
STARTCHAR ch-153
ENCODING 153
SWIDTH 1000 0
DWIDTH 16 0
BBX 16 16 0 -2
BITMAP
0004
3ffe
0200
0200
03fc
0508
0488
0448
0508
0488
0448
0810
0022
7fff
0000
0000
ENDCHAR
STARTCHAR ch-155
ENCODING 155
SWIDTH 1000 0
DWIDTH 16 0
BBX 16 16 0 -2
BITMAP
0220
0220
1220
13a6
1238
1221
13a1
7e1f
2000
0010
0ff8
0000
0004
3ffe
0000
0000
ENDCHAR
STARTCHAR ch-158
ENCODING 158
SWIDTH 1000 0
DWIDTH 16 0
BBX 16 16 0 -2
BITMAP
0004
3ffe
0220
0220
0220
3e3e
2002
2002
2002
3e3e
0220
0220
0220
7fff
0000
0000
ENDCHAR
STARTCHAR ch-159
ENCODING 159
SWIDTH 1000 0
DWIDTH 16 0
BBX 16 16 0 -2
BITMAP
0004
3ffe
0200
0204
07be
0084
1ea4
1294
1288
1eb6
0080
0080
0302
7fff
0000
0000
ENDCHAR
STARTCHAR ch-161
ENCODING 161
SWIDTH 1000 0
DWIDTH 16 0
BBX 16 16 0 -2
BITMAP
0100
0080
0080
0002
7fff
0800
0800
0800
0800
0800
0800
0800
0804
07fe
0000
0000
ENDCHAR
STARTCHAR ch-162
ENCODING 162
SWIDTH 1000 0
DWIDTH 16 0
BBX 16 16 0 -2
BITMAP
0100
0082
7fff
0000
0010
07f8
0410
0410
0410
0410
0811
0811
1011
200f
0000
0000
ENDCHAR
STARTCHAR ch-164
ENCODING 164
SWIDTH 1000 0
DWIDTH 16 0
BBX 16 16 0 -2
BITMAP
0080
0082
7fff
0408
0806
1412
2220
0140
0080
0140
0220
0418
1807
6002
0000
0000
ENDCHAR
STARTCHAR ch-165
ENCODING 165
SWIDTH 1000 0
DWIDTH 16 0
BBX 16 16 0 -2
BITMAP
0100
0082
7fff
0100
0230
0440
0f88
0118
0220
0460
1890
0308
0c06
3002
0000
0000
ENDCHAR
STARTCHAR ch-166
ENCODING 166
SWIDTH 1000 0
DWIDTH 16 0
BBX 16 16 0 -2
BITMAP
0100
0080
0082
7fff
0220
0220
0a28
0a24
1222
2222
0220
0420
08a0
0040
0000
0000
ENDCHAR
STARTCHAR ch-168
ENCODING 168
SWIDTH 1000 0
DWIDTH 16 0
BBX 16 16 0 -2
BITMAP
0100
0084
7ffe
0000
0ff8
0808
0ff8
0000
3ffc
0030
0040
0440
0240
0180
0000
0000
ENDCHAR
STARTCHAR ch-171
ENCODING 171
SWIDTH 1000 0
DWIDTH 16 0
BBX 16 16 0 -2
BITMAP
0080
3ffe
0000
0ff8
0808
0ff8
0000
0ff8
0020
0040
3fff
0040
0240
0180
0000
0000
ENDCHAR
STARTCHAR ch-172
ENCODING 172
SWIDTH 1000 0
DWIDTH 16 0
BBX 16 16 0 -2
BITMAP
0100
0082
7fff
0000
0ff8
0808
0808
0ff8
0080
0490
0c8c
1086
2282
0100
0000
0000
ENDCHAR
STARTCHAR ch-173
ENCODING 173
SWIDTH 1000 0
DWIDTH 16 0
BBX 16 16 0 -2
BITMAP
0100
0084
3ffe
0ff8
0808
0ff8
0000
3fff
2001
4ffa
0080
0080
0280
0100
0000
0000
ENDCHAR
STARTCHAR ch-174
ENCODING 174
SWIDTH 1000 0
DWIDTH 16 0
BBX 16 16 0 -2
BITMAP
0080
3ffe
0000
0ff8
0808
0ff8
0000
3fff
2001
4220
0220
0221
0c21
301f
0000
0000
ENDCHAR
STARTCHAR ch-179
ENCODING 179
SWIDTH 1000 0
DWIDTH 16 0
BBX 16 16 0 -2
BITMAP
0080
7fff
0000
0ff8
0808
0ff8
0000
7fff
4009
4ff1
0080
1ffc
0081
00ff
0000
0000
ENDCHAR
STARTCHAR ch-182
ENCODING 182
SWIDTH 1000 0
DWIDTH 16 0
BBX 16 16 0 -2
BITMAP
0080
7fff
1ffc
13e4
1224
13e4
1ffc
0000
0ff8
0808
0ff8
0ff8
0808
7fff
0000
0000
ENDCHAR
STARTCHAR ch-185
ENCODING 185
SWIDTH 1000 0
DWIDTH 16 0
BBX 16 16 0 -2
BITMAP
0080
7fff
13e0
3a2e
23e2
3bae
22a2
7fff
4001
4ff9
0808
0fe8
0fe8
3ffe
0000
0000
ENDCHAR
STARTCHAR ch-186
ENCODING 186
SWIDTH 1000 0
DWIDTH 16 0
BBX 16 16 0 -2
BITMAP
0080
0080
0080
0080
0080
0080
0140
0140
0220
0220
0410
0808
1007
2002
0000
0000
ENDCHAR
STARTCHAR ch-192
ENCODING 192
SWIDTH 1000 0
DWIDTH 16 0
BBX 16 16 0 -2
BITMAP
0420
0420
0820
0820
1822
2fff
4820
0820
0820
0820
0820
0820
0820
0820
0000
0000
ENDCHAR
STARTCHAR ch-193
ENCODING 193
SWIDTH 1000 0
DWIDTH 16 0
BBX 16 16 0 -2
BITMAP
0400
0404
0bfe
0800
1800
2800
4800
0800
0800
0802
0fff
0800
0800
0800
0000
0000
ENDCHAR
STARTCHAR ch-194
ENCODING 194
SWIDTH 1000 0
DWIDTH 16 0
BBX 16 16 0 -2
BITMAP
0440
0440
0440
0842
0bff
1842
2842
4842
0842
0882
0882
0924
0a14
0c08
0000
0000
ENDCHAR
STARTCHAR ch-195
ENCODING 195
SWIDTH 1000 0
DWIDTH 16 0
BBX 16 16 0 -2
BITMAP
0400
0402
05ff
0810
0810
1810
2810
4810
0810
0810
0810
0890
0850
0820
0000
0000
ENDCHAR
STARTCHAR ch-196
ENCODING 196
SWIDTH 1000 0
DWIDTH 16 0
BBX 16 16 0 -2
BITMAP
0004
1ffe
1000
1040
1040
1040
1040
10a0
1110
1110
2208
2404
4807
1002
0000
0000
ENDCHAR
STARTCHAR ch-198
ENCODING 198
SWIDTH 1000 0
DWIDTH 16 0
BBX 16 16 0 -2
BITMAP
0220
0220
0420
0420
0828
1826
2823
4821
0820
0820
0820
0820
0820
0820
0000
0000
ENDCHAR
STARTCHAR ch-199
ENCODING 199
SWIDTH 1000 0
DWIDTH 16 0
BBX 16 16 0 -2
BITMAP
0480
0480
0888
0bfc
1888
2888
4888
0888
0888
0908
0909
0a09
0c07
0800
0000
0000
ENDCHAR
STARTCHAR ch-200
ENCODING 200
SWIDTH 1000 0
DWIDTH 16 0
BBX 16 16 0 -2
BITMAP
0400
0400
0878
1008
3008
5088
1088
1088
1088
1088
1104
1202
1401
1000
0000
0000
ENDCHAR
STARTCHAR ch-201
ENCODING 201
SWIDTH 1000 0
DWIDTH 16 0
BBX 16 16 0 -2
BITMAP
0400
0408
04fc
0888
1888
2888
4888
0888
0888
0888
0909
0909
0a09
0c07
0000
0000
ENDCHAR
STARTCHAR ch-202
ENCODING 202
SWIDTH 1000 0
DWIDTH 16 0
BBX 16 16 0 -2
BITMAP
0080
0140
0220
0410
0808
13e7
6002
0000
0ff8
0008
0010
0020
0040
0080
0000
0000
ENDCHAR
STARTCHAR ch-203
ENCODING 203
SWIDTH 1000 0
DWIDTH 16 0
BBX 16 16 0 -2
BITMAP
0080
0140
0220
0410
0808
1227
6222
0220
0220
0420
0420
0420
0820
1020
0000
0000
ENDCHAR
STARTCHAR ch-205
ENCODING 205
SWIDTH 1000 0
DWIDTH 16 0
BBX 16 16 0 -2
BITMAP
0800
0804
13fe
1084
3088
5092
109f
1082
1082
1102
1102
1222
1214
1408
0000
0000
ENDCHAR
STARTCHAR ch-212
ENCODING 212
SWIDTH 1000 0
DWIDTH 16 0
BBX 16 16 0 -2
BITMAP
05fe
0404
0808
0810
1820
2822
4fff
0820
0820
0820
0820
0820
08a0
0840
0000
0000
ENDCHAR
STARTCHAR ch-213
ENCODING 213
SWIDTH 1000 0
DWIDTH 16 0
BBX 16 16 0 -2
BITMAP
0420
0420
0820
0822
1fff
2820
4820
0820
0820
0820
0824
0bfe
0800
0800
0000
0000
ENDCHAR
STARTCHAR ch-214
ENCODING 214
SWIDTH 1000 0
DWIDTH 16 0
BBX 16 16 0 -2
BITMAP
0420
0420
0820
0924
193e
29e4
4f24
0924
0928
0920
0921
0901
08ff
0800
0000
0000
ENDCHAR
STARTCHAR ch-215
ENCODING 215
SWIDTH 1000 0
DWIDTH 16 0
BBX 16 16 0 -2
BITMAP
0410
0410
0812
0bff
1810
2890
4890
0850
0850
0820
0830
0848
0887
0b02
0000
0000
ENDCHAR
STARTCHAR ch-216
ENCODING 216
SWIDTH 1000 0
DWIDTH 16 0
BBX 16 16 0 -2
BITMAP
0408
0408
0808
0808
1bff
2808
4808
0888
0848
0848
0808
0808
0828
0810
0000
0000
ENDCHAR
STARTCHAR ch-217
ENCODING 217
SWIDTH 1000 0
DWIDTH 16 0
BBX 16 16 0 -2
BITMAP
0820
0820
1020
1222
3222
5222
1222
1222
1222
1222
1222
13fe
1202
1000
0000
0000
ENDCHAR
STARTCHAR ch-218
ENCODING 218
SWIDTH 1000 0
DWIDTH 16 0
BBX 16 16 0 -2
BITMAP
0080
0140
0220
0410
0808
1084
2082
4081
1084
1084
1084
1084
1ffc
1004
0000
0000
ENDCHAR
STARTCHAR ch-220
ENCODING 220
SWIDTH 1000 0
DWIDTH 16 0
BBX 16 16 0 -2
BITMAP
0400
0400
0804
13fe
6020
1020
1020
1020
1020
1020
1020
1022
17ff
1000
0000
0000
ENDCHAR
STARTCHAR ch-221
ENCODING 221
SWIDTH 1000 0
DWIDTH 16 0
BBX 16 16 0 -2
BITMAP
0080
0140
0220
0410
0808
1007
6012
0ff8
0080
0080
0080
0080
0084
3ffe
0000
0000
ENDCHAR
STARTCHAR ch-222
ENCODING 222
SWIDTH 1000 0
DWIDTH 16 0
BBX 16 16 0 -2
BITMAP
0400
0402
07ff
0822
1822
2922
48a2
08a2
0842
0842
0882
0902
0a14
0c08
0000
0000
ENDCHAR
STARTCHAR ch-223
ENCODING 223
SWIDTH 1000 0
DWIDTH 16 0
BBX 16 16 0 -2
BITMAP
0408
041c
05e0
0820
1820
2822
4fff
0820
0820
0820
0820
0820
0820
0820
0000
0000
ENDCHAR
STARTCHAR ch-225
ENCODING 225
SWIDTH 1000 0
DWIDTH 16 0
BBX 16 16 0 -2
BITMAP
0900
0902
09ff
1200
34fe
5004
1008
1010
1020
1040
1081
1101
1101
10ff
0000
0000
ENDCHAR
STARTCHAR ch-227
ENCODING 227
SWIDTH 1000 0
DWIDTH 16 0
BBX 16 16 0 -2
BITMAP
0440
0450
0448
0848
0842
187f
2fc0
4820
0820
0810
0809
0809
0805
0803
0000
0000
ENDCHAR
STARTCHAR ch-228
ENCODING 228
SWIDTH 1000 0
DWIDTH 16 0
BBX 16 16 0 -2
BITMAP
0080
0140
0220
0410
0808
13e7
6002
0ff8
0008
0010
0220
0140
0080
0040
0000
0000
ENDCHAR
STARTCHAR ch-229
ENCODING 229
SWIDTH 1000 0
DWIDTH 16 0
BBX 16 16 0 -2
BITMAP
0008
1008
1208
1108
1188
1088
1008
1108
1208
1410
1818
3024
60c6
4303
0000
0000
ENDCHAR
STARTCHAR ch-232
ENCODING 232
SWIDTH 1000 0
DWIDTH 16 0
BBX 16 16 0 -2
BITMAP
0400
0404
05fe
0800
1800
2804
49fe
0800
0800
0800
0802
0fff
0800
0800
0000
0000
ENDCHAR
STARTCHAR ch-233
ENCODING 233
SWIDTH 1000 0
DWIDTH 16 0
BBX 16 16 0 -2
BITMAP
0400
0440
0840
1040
3040
5044
107e
1040
1040
1040
1040
1040
1042
17ff
0000
0000
ENDCHAR
STARTCHAR ch-240
ENCODING 240
SWIDTH 1000 0
DWIDTH 16 0
BBX 16 16 0 -2
BITMAP
0440
0482
093f
0a22
1222
3222
5222
1222
12a2
132a
1224
1020
1020
1020
0000
0000
ENDCHAR
STARTCHAR ch-241
ENCODING 241
SWIDTH 1000 0
DWIDTH 16 0
BBX 16 16 0 -2
BITMAP
0820
0850
1088
2104
4202
24f9
2800
2000
23fe
2002
2004
2008
2010
2020
0000
0000
ENDCHAR
STARTCHAR ch-242
ENCODING 242
SWIDTH 1000 0
DWIDTH 16 0
BBX 16 16 0 -2
BITMAP
0420
0420
0822
0bff
1a22
2a22
4a22
0a22
0bfe
0a22
0820
0820
0820
0820
0000
0000
ENDCHAR
STARTCHAR ch-243
ENCODING 243
SWIDTH 1000 0
DWIDTH 16 0
BBX 16 16 0 -2
BITMAP
0410
0510
0910
0911
1912
29dc
4910
0910
0910
0930
0951
0991
090f
0800
0000
0000
ENDCHAR
STARTCHAR ch-244
ENCODING 244
SWIDTH 1000 0
DWIDTH 16 0
BBX 16 16 0 -2
BITMAP
0402
08ff
1082
7082
10fe
1082
1082
10fe
1082
1082
1082
1082
110a
1004
0000
0000
ENDCHAR
STARTCHAR ch-245
ENCODING 245
SWIDTH 1000 0
DWIDTH 16 0
BBX 16 16 0 -2
BITMAP
0480
0484
09fe
0920
1a20
2820
4822
0fff
0820
0820
0820
0820
0820
0820
0000
0000
ENDCHAR
STARTCHAR ch-246
ENCODING 246
SWIDTH 1000 0
DWIDTH 16 0
BBX 16 16 0 -2
BITMAP
0820
0920
1124
11fe
3220
5220
1420
1022
1fff
1020
1020
1020
1020
1020
0000
0000
ENDCHAR
STARTCHAR ch-247
ENCODING 247
SWIDTH 1000 0
DWIDTH 16 0
BBX 16 16 0 -2
BITMAP
0820
1050
2088
4104
2202
2489
2088
2088
2088
2088
2088
2108
2208
2008
0000
0000
ENDCHAR
STARTCHAR ch-251
ENCODING 251
SWIDTH 1000 0
DWIDTH 16 0
BBX 16 16 0 -2
BITMAP
0400
040c
05f0
0820
1820
2822
4fff
0820
0820
0820
0824
0bfe
0800
0800
0000
0000
ENDCHAR
STARTCHAR ch-253
ENCODING 253
SWIDTH 1000 0
DWIDTH 16 0
BBX 16 16 0 -2
BITMAP
0410
0490
0888
0908
1907
2a02
4df8
0888
0888
0888
0908
0908
0a50
0820
0000
0000
ENDCHAR
STARTCHAR ch-255
ENCODING 255
SWIDTH 1000 0
DWIDTH 16 0
BBX 16 16 0 -2
BITMAP
0440
0420
0802
0bff
1840
2844
487e
0844
0844
0844
0884
0884
0928
0a10
0000
0000
ENDCHAR
STARTCHAR ch-256
ENCODING 256
SWIDTH 1000 0
DWIDTH 16 0
BBX 16 16 0 -2
BITMAP
0400
0448
0848
1084
2102
5201
1421
1020
1020
1040
1088
1104
13fe
1001
0000
0000
ENDCHAR
STARTCHAR ch-257
ENCODING 257
SWIDTH 1000 0
DWIDTH 16 0
BBX 16 16 0 -2
BITMAP
0080
0140
0220
0410
0888
1087
6082
0480
04f8
0480
0480
0480
0482
7fff
0000
0000
ENDCHAR
STARTCHAR ch-258
ENCODING 258
SWIDTH 1000 0
DWIDTH 16 0
BBX 16 16 0 -2
BITMAP
0410
0412
09ff
1010
6010
11ff
1111
1111
1111
1115
1112
1010
1010
1010
0000
0000
ENDCHAR
STARTCHAR ch-260
ENCODING 260
SWIDTH 1000 0
DWIDTH 16 0
BBX 16 16 0 -2
BITMAP
0400
09fe
1022
3022
53fe
1220
1220
17ff
1021
1021
102a
1024
1020
1020
0000
0000
ENDCHAR
STARTCHAR ch-261
ENCODING 261
SWIDTH 1000 0
DWIDTH 16 0
BBX 16 16 0 -2
BITMAP
0420
0420
0824
13fe
6020
1222
1222
1222
13fe
1020
1020
1021
1021
103f
0000
0000
ENDCHAR
STARTCHAR ch-264
ENCODING 264
SWIDTH 1000 0
DWIDTH 16 0
BBX 16 16 0 -2
BITMAP
0800
0840
1020
2010
4080
2284
2283
2281
2480
2880
2080
2082
2082
207e
0000
0000
ENDCHAR
STARTCHAR ch-265
ENCODING 265
SWIDTH 1000 0
DWIDTH 16 0
BBX 16 16 0 -2
BITMAP
0440
0422
0bff
0800
1808
28fc
4888
0888
0888
0888
0909
0909
0a09
0c07
0000
0000
ENDCHAR
STARTCHAR ch-266
ENCODING 266
SWIDTH 1000 0
DWIDTH 16 0
BBX 16 16 0 -2
BITMAP
0404
05fe
0444
0844
1fff
2844
4844
09fc
0844
0840
0880
0880
0900
0a00
0000
0000
ENDCHAR
STARTCHAR ch-267
ENCODING 267
SWIDTH 1000 0
DWIDTH 16 0
BBX 16 16 0 -2
BITMAP
0800
13fe
2104
5108
1110
1120
117f
1141
1122
1114
1108
1214
1462
1181
0000
0000
ENDCHAR
STARTCHAR ch-269
ENCODING 269
SWIDTH 1000 0
DWIDTH 16 0
BBX 16 16 0 -2
BITMAP
0800
0804
0bfe
1040
3040
5044
13fe
1084
1084
1104
1104
1104
1fff
1000
0000
0000
ENDCHAR
STARTCHAR ch-270
ENCODING 270
SWIDTH 1000 0
DWIDTH 16 0
BBX 16 16 0 -2
BITMAP
0420
0422
0bff
1820
2820
49fc
0904
0888
0888
0850
0820
0858
0887
0b02
0000
0000
ENDCHAR
STARTCHAR ch-271
ENCODING 271
SWIDTH 1000 0
DWIDTH 16 0
BBX 16 16 0 -2
BITMAP
0428
0424
0824
0820
1fff
2820
4820
0850
0850
0888
0888
0904
0a07
0c02
0000
0000
ENDCHAR
STARTCHAR ch-272
ENCODING 272
SWIDTH 1000 0
DWIDTH 16 0
BBX 16 16 0 -2
BITMAP
0440
0450
0448
0848
187e
2bc0
4844
0828
0830
0820
0850
0889
0b05
0803
0000
0000
ENDCHAR
STARTCHAR ch-273
ENCODING 273
SWIDTH 1000 0
DWIDTH 16 0
BBX 16 16 0 -2
BITMAP
0420
0420
0822
0bff
1820
2870
4870
08a8
08a8
0924
0a23
0c22
0820
0820
0000
0000
ENDCHAR
STARTCHAR ch-274
ENCODING 274
SWIDTH 1000 0
DWIDTH 16 0
BBX 16 16 0 -2
BITMAP
0400
0401
09fe
1080
7082
10ff
1088
1088
1088
1088
1088
1108
1208
1008
0000
0000
ENDCHAR
STARTCHAR ch-275
ENCODING 275
SWIDTH 1000 0
DWIDTH 16 0
BBX 16 16 0 -2
BITMAP
0802
13ff
2008
4010
2020
2040
20a0
2124
2622
2021
2020
2020
2020
2020
0000
0000
ENDCHAR
STARTCHAR ch-276
ENCODING 276
SWIDTH 1000 0
DWIDTH 16 0
BBX 16 16 0 -2
BITMAP
0800
0bfe
1202
2202
5000
1090
1090
1090
1090
1090
1090
1091
1111
121f
0000
0000
ENDCHAR
STARTCHAR ch-277
ENCODING 277
SWIDTH 1000 0
DWIDTH 16 0
BBX 16 16 0 -2
BITMAP
0420
0420
0820
11fc
3020
5020
1020
13fe
1020
1020
1050
1088
1104
1202
0000
0000
ENDCHAR
STARTCHAR ch-280
ENCODING 280
SWIDTH 1000 0
DWIDTH 16 0
BBX 16 16 0 -2
BITMAP
0844
0842
1041
2040
47ff
2040
2050
2050
2050
2090
2110
2211
2411
281f
0000
0000
ENDCHAR
STARTCHAR ch-281
ENCODING 281
SWIDTH 1000 0
DWIDTH 16 0
BBX 16 16 0 -2
BITMAP
0420
0420
0820
0922
1926
2928
4a30
0820
0850
0888
0888
0904
0a07
0c02
0000
0000
ENDCHAR
STARTCHAR ch-285
ENCODING 285
SWIDTH 1000 0
DWIDTH 16 0
BBX 16 16 0 -2
BITMAP
0800
0804
13fe
2000
4000
2002
27ff
2020
2020
2040
2084
2102
27ff
2001
0000
0000
ENDCHAR
STARTCHAR ch-290
ENCODING 290
SWIDTH 1000 0
DWIDTH 16 0
BBX 16 16 0 -2
BITMAP
0404
05fe
0908
1908
290a
49ff
0818
0828
0848
0888
0908
0a08
0828
0810
0000
0000
ENDCHAR
STARTCHAR ch-300
ENCODING 300
SWIDTH 1000 0
DWIDTH 16 0
BBX 16 16 0 -2
BITMAP
0800
0bfe
1202
2202
4202
23fe
2280
2240
2220
2210
2208
2204
2402
2801
0000
0000
ENDCHAR
STARTCHAR ch-301
ENCODING 301
SWIDTH 1000 0
DWIDTH 16 0
BBX 16 16 0 -2
BITMAP
0840
1020
27ff
5000
1040
1084
1108
13f0
1020
1040
1084
1104
17fe
1002
0000
0000
ENDCHAR
STARTCHAR ch-303
ENCODING 303
SWIDTH 1000 0
DWIDTH 16 0
BBX 16 16 0 -2
BITMAP
0420
0442
08ff
0882
1882
2882
4882
08fe
0882
0882
0882
0882
08fe
0882
0000
0000
ENDCHAR
STARTCHAR ch-304
ENCODING 304
SWIDTH 1000 0
DWIDTH 16 0
BBX 16 16 0 -2
BITMAP
0420
0420
0822
0fff
1820
2820
4824
09fe
0904
0904
0904
0904
09fc
0904
0000
0000
ENDCHAR
STARTCHAR ch-307
ENCODING 307
SWIDTH 1000 0
DWIDTH 16 0
BBX 16 16 0 -2
BITMAP
0500
0924
1124
3124
57ff
1124
1124
1124
1124
113c
1100
1100
1100
10ff
0000
0000
ENDCHAR
STARTCHAR ch-308
ENCODING 308
SWIDTH 1000 0
DWIDTH 16 0
BBX 16 16 0 -2
BITMAP
0420
0522
04a4
0820
13fe
1820
2820
4822
0fff
0820
0820
0820
0820
0820
0000
0000
ENDCHAR
STARTCHAR ch-310
ENCODING 310
SWIDTH 1000 0
DWIDTH 16 0
BBX 16 16 0 -2
BITMAP
0420
0450
0850
0888
1904
2af7
4c02
0800
09fc
0804
0808
0850
0820
0810
0000
0000
ENDCHAR
STARTCHAR ch-312
ENCODING 312
SWIDTH 1000 0
DWIDTH 16 0
BBX 16 16 0 -2
BITMAP
0420
0420
0422
0bff
1a22
2a22
4bfe
0a22
0a22
0bfe
0a22
0820
0820
0820
0000
0000
ENDCHAR
STARTCHAR ch-314
ENCODING 314
SWIDTH 1000 0
DWIDTH 16 0
BBX 16 16 0 -2
BITMAP
0402
05ff
0402
0812
1bfa
2802
49f2
0912
0912
0912
09f2
0902
080a
0804
0000
0000
ENDCHAR
STARTCHAR ch-315
ENCODING 315
SWIDTH 1000 0
DWIDTH 16 0
BBX 16 16 0 -2
BITMAP
0402
05ff
0810
1111
3092
5054
1010
13ff
1010
1010
1010
1010
1010
1010
0000
0000
ENDCHAR
STARTCHAR ch-316
ENCODING 316
SWIDTH 1000 0
DWIDTH 16 0
BBX 16 16 0 -2
BITMAP
0800
0804
0a04
1284
1244
3224
5224
1204
1248
1290
1314
1223
1441
1080
0000
0000
ENDCHAR
STARTCHAR ch-317
ENCODING 317
SWIDTH 1000 0
DWIDTH 16 0
BBX 16 16 0 -2
BITMAP
0a00
0a02
121f
1fd2
3252
5252
1252
1252
1252
1252
1452
145e
1952
1080
0000
0000
ENDCHAR
STARTCHAR ch-318
ENCODING 318
SWIDTH 1000 0
DWIDTH 16 0
BBX 16 16 0 -2
BITMAP
0400
0804
13fe
2010
6030
2060
20a0
2128
2224
2422
2022
2020
2020
27ff
0000
0000
ENDCHAR
STARTCHAR ch-319
ENCODING 319
SWIDTH 1000 0
DWIDTH 16 0
BBX 16 16 0 -2
BITMAP
0400
09fe
1102
6102
1102
1102
11fe
1102
1000
1084
1102
1201
1401
1000
0000
0000
ENDCHAR
STARTCHAR ch-321
ENCODING 321
SWIDTH 1000 0
DWIDTH 16 0
BBX 16 16 0 -2
BITMAP
0420
0820
1040
3084
5102
13ff
1001
1000
11fe
1102
1102
1102
11fe
1102
0000
0000
ENDCHAR
STARTCHAR ch-323
ENCODING 323
SWIDTH 1000 0
DWIDTH 16 0
BBX 16 16 0 -2
BITMAP
0802
0bff
0a22
1222
1222
3222
53fe
1222
1222
1222
1222
13fe
1202
1000
0000
0000
ENDCHAR
STARTCHAR ch-326
ENCODING 326
SWIDTH 1000 0
DWIDTH 16 0
BBX 16 16 0 -2
BITMAP
0800
0804
0bfe
1204
3204
53fc
1204
1204
13fc
1204
1000
1002
1fff
1000
0000
0000
ENDCHAR
STARTCHAR ch-327
ENCODING 327
SWIDTH 1000 0
DWIDTH 16 0
BBX 16 16 0 -2
BITMAP
0840
0820
13ff
6401
1401
13fe
1020
1020
1020
1020
1020
1120
10a0
1040
0000
0000
ENDCHAR
STARTCHAR ch-328
ENCODING 328
SWIDTH 1000 0
DWIDTH 16 0
BBX 16 16 0 -2
BITMAP
1040
1040
17ff
2040
40a0
2120
23fe
2622
2a22
2222
222a
2224
2020
2020
0000
0000
ENDCHAR
STARTCHAR ch-329
ENCODING 329
SWIDTH 1000 0
DWIDTH 16 0
BBX 16 16 0 -2
BITMAP
0820
0820
1020
23fe
6020
2020
2020
27ff
2020
2040
2080
2104
27fe
2002
0000
0000
ENDCHAR
STARTCHAR ch-332
ENCODING 332
SWIDTH 1000 0
DWIDTH 16 0
BBX 16 16 0 -2
BITMAP
0910
1110
2110
4110
2110
21df
2110
2510
2510
2510
2510
2511
25d1
2e1f
0000
0000
ENDCHAR
STARTCHAR ch-333
ENCODING 333
SWIDTH 1000 0
DWIDTH 16 0
BBX 16 16 0 -2
BITMAP
0440
0420
0804
0bfe
1800
2904
4904
0888
0888
0850
0812
0fff
0800
0800
0000
0000
ENDCHAR
STARTCHAR ch-334
ENCODING 334
SWIDTH 1000 0
DWIDTH 16 0
BBX 16 16 0 -2
BITMAP
0804
081e
0be0
1220
3220
5222
13ff
1210
1210
1208
1289
1305
1605
12f3
0000
0000
ENDCHAR
STARTCHAR ch-335
ENCODING 335
SWIDTH 1000 0
DWIDTH 16 0
BBX 16 16 0 -2
BITMAP
0440
0420
0422
0bff
1820
2820
4824
0bfe
0820
0820
0820
0822
0fff
0800
0000
0000
ENDCHAR
STARTCHAR ch-336
ENCODING 336
SWIDTH 1000 0
DWIDTH 16 0
BBX 16 16 0 -2
BITMAP
0440
0442
0bff
0840
1840
2880
4884
08fe
0910
0a10
0c10
0812
0bff
0800
0000
0000
ENDCHAR
STARTCHAR ch-337
ENCODING 337
SWIDTH 1000 0
DWIDTH 16 0
BBX 16 16 0 -2
BITMAP
0440
0440
0842
0fff
1880
2880
4904
09fe
0a84
0c84
0884
0884
08fc
0884
0000
0000
ENDCHAR
STARTCHAR ch-338
ENCODING 338
SWIDTH 1000 0
DWIDTH 16 0
BBX 16 16 0 -2
BITMAP
0820
0820
0820
13fe
2222
6222
2222
2fff
2050
2088
2104
2202
2401
2801
0000
0000
ENDCHAR
STARTCHAR ch-339
ENCODING 339
SWIDTH 1000 0
DWIDTH 16 0
BBX 16 16 0 -2
BITMAP
0840
0840
1044
17fe
3150
5150
1248
1248
1444
15f7
1842
1040
1040
1040
0000
0000
ENDCHAR
STARTCHAR ch-340
ENCODING 340
SWIDTH 1000 0
DWIDTH 16 0
BBX 16 16 0 -2
BITMAP
0820
0820
1020
203e
5020
1020
1022
11ff
1102
1102
1102
1102
11fe
1102
0000
0000
ENDCHAR
STARTCHAR ch-341
ENCODING 341
SWIDTH 1000 0
DWIDTH 16 0
BBX 16 16 0 -2
BITMAP
0400
0402
07ff
0804
0804
19e4
2924
4924
0924
09e4
0924
0804
0814
0808
0000
0000
ENDCHAR
STARTCHAR ch-342
ENCODING 342
SWIDTH 1000 0
DWIDTH 16 0
BBX 16 16 0 -2
BITMAP
0400
0840
1022
3092
5282
1284
1288
1292
14a1
10c1
1080
1182
1282
107e
0000
0000
ENDCHAR
STARTCHAR ch-343
ENCODING 343
SWIDTH 1000 0
DWIDTH 16 0
BBX 16 16 0 -2
BITMAP
0420
0422
0bff
0a02
1c84
2880
4884
088c
0890
08a0
08c1
0881
0881
087f
0000
0000
ENDCHAR
STARTCHAR ch-344
ENCODING 344
SWIDTH 1000 0
DWIDTH 16 0
BBX 16 16 0 -2
BITMAP
0080
0140
0220
0418
1807
67f2
0000
3ffe
0080
0490
0c8c
1086
2082
0080
0000
0000
ENDCHAR
STARTCHAR ch-345
ENCODING 345
SWIDTH 1000 0
DWIDTH 16 0
BBX 16 16 0 -2
BITMAP
0080
0140
0220
0410
0808
17f7
6082
0088
1ffc
0490
0c8c
1086
2282
0100
0000
0000
ENDCHAR
STARTCHAR ch-346
ENCODING 346
SWIDTH 1000 0
DWIDTH 16 0
BBX 16 16 0 -2
BITMAP
0420
04a0
08a4
08fe
1920
2a20
4822
0fff
0820
0850
0888
0888
0907
0a02
0000
0000
ENDCHAR
STARTCHAR ch-347
ENCODING 347
SWIDTH 1000 0
DWIDTH 16 0
BBX 16 16 0 -2
BITMAP
0810
0890
17fc
1094
3094
53fc
1290
1292
13ff
1092
111a
1114
1610
1010
0000
0000
ENDCHAR
STARTCHAR ch-348
ENCODING 348
SWIDTH 1000 0
DWIDTH 16 0
BBX 16 16 0 -2
BITMAP
0480
0482
08ff
0940
1940
2a44
4c7e
0840
0840
0842
087f
0840
0840
0840
0000
0000
ENDCHAR
STARTCHAR ch-349
ENCODING 349
SWIDTH 1000 0
DWIDTH 16 0
BBX 16 16 0 -2
BITMAP
0480
0482
09ff
0902
1a12
2dfa
4912
0912
0912
09f2
0912
0802
0814
0808
0000
0000
ENDCHAR
STARTCHAR ch-350
ENCODING 350
SWIDTH 1000 0
DWIDTH 16 0
BBX 16 16 0 -2
BITMAP
05fc
0400
0804
0bfe
1840
2842
4fff
0888
0908
08d0
0820
0850
088c
0b02
0000
0000
ENDCHAR
STARTCHAR ch-351
ENCODING 351
SWIDTH 1000 0
DWIDTH 16 0
BBX 16 16 0 -2
BITMAP
0480
04fc
0908
0a90
1c50
2820
4850
09cf
0e32
0810
08c0
0830
0818
0808
0000
0000
ENDCHAR
STARTCHAR ch-352
ENCODING 352
SWIDTH 1000 0
DWIDTH 16 0
BBX 16 16 0 -2
BITMAP
0880
0882
11ff
1102
3204
5420
1020
10a8
10a4
1126
1222
1020
10a0
1040
0000
0000
ENDCHAR
STARTCHAR ch-353
ENCODING 353
SWIDTH 1000 0
DWIDTH 16 0
BBX 16 16 0 -2
BITMAP
0420
0820
1020
3050
5088
1104
1623
1020
1222
1222
1222
1222
13fe
1202
0000
0000
ENDCHAR
STARTCHAR ch-354
ENCODING 354
SWIDTH 1000 0
DWIDTH 16 0
BBX 16 16 0 -2
BITMAP
0400
05ff
0900
1100
3100
51fe
1102
1102
1102
11fe
1100
1100
1100
11ff
0000
0000
ENDCHAR
STARTCHAR ch-355
ENCODING 355
SWIDTH 1000 0
DWIDTH 16 0
BBX 16 16 0 -2
BITMAP
0802
0bff
0a22
1222
33fe
5222
1222
1222
13fe
1222
1222
1222
142a
1804
0000
0000
ENDCHAR
STARTCHAR ch-356
ENCODING 356
SWIDTH 1000 0
DWIDTH 16 0
BBX 16 16 0 -2
BITMAP
0402
07ff
0880
0888
18fc
2888
4888
08c8
0928
0908
09e9
0b09
0807
0800
0000
0000
ENDCHAR
STARTCHAR ch-359
ENCODING 359
SWIDTH 1000 0
DWIDTH 16 0
BBX 16 16 0 -2
BITMAP
0440
0448
087c
0840
1840
2842
4fff
0840
0860
0850
084c
0844
0840
0840
0000
0000
ENDCHAR
STARTCHAR ch-361
ENCODING 361
SWIDTH 1000 0
DWIDTH 16 0
BBX 16 16 0 -2
BITMAP
0804
0ffe
1404
17fc
3444
5444
15f4
1554
1554
1554
1575
1445
1843
1040
0000
0000
ENDCHAR
STARTCHAR ch-362
ENCODING 362
SWIDTH 1000 0
DWIDTH 16 0
BBX 16 16 0 -2
BITMAP
0800
0800
17ff
2401
4401
24f9
2489
2489
2489
24f9
2401
2401
27ff
2401
0000
0000
ENDCHAR
STARTCHAR ch-363
ENCODING 363
SWIDTH 1000 0
DWIDTH 16 0
BBX 16 16 0 -2
BITMAP
0480
09fc
1288
6450
1020
1050
1088
1707
11fc
1104
1104
1104
11fc
1104
0000
0000
ENDCHAR
STARTCHAR ch-364
ENCODING 364
SWIDTH 1000 0
DWIDTH 16 0
BBX 16 16 0 -2
BITMAP
0440
0442
0bf6
0848
1850
2862
4fff
0880
0b80
0cfc
0880
0880
0880
087e
0000
0000
ENDCHAR
STARTCHAR ch-366
ENCODING 366
SWIDTH 1000 0
DWIDTH 16 0
BBX 16 16 0 -2
BITMAP
0420
0450
0888
1104
2202
54f9
1000
1000
11fc
1104
1104
1104
11fc
1104
0000
0000
ENDCHAR
STARTCHAR ch-367
ENCODING 367
SWIDTH 1000 0
DWIDTH 16 0
BBX 16 16 0 -2
BITMAP
0904
0888
0850
13fe
3020
5020
11fc
1020
1022
17ff
1020
1020
1020
1020
0000
0000
ENDCHAR
STARTCHAR ch-368
ENCODING 368
SWIDTH 1000 0
DWIDTH 16 0
BBX 16 16 0 -2
BITMAP
0400
0402
07ff
0820
0820
1844
29fe
4904
0904
09fc
0904
0904
09fc
0904
0000
0000
ENDCHAR
STARTCHAR ch-371
ENCODING 371
SWIDTH 1000 0
DWIDTH 16 0
BBX 16 16 0 -2
BITMAP
0420
0420
0bfe
0820
1822
2fff
4820
0820
0bfe
0820
0820
0822
0fff
0800
0000
0000
ENDCHAR
STARTCHAR ch-372
ENCODING 372
SWIDTH 1000 0
DWIDTH 16 0
BBX 16 16 0 -2
BITMAP
07ff
0484
0884
08fc
1884
2884
48fc
0884
0884
08bf
0bc4
0804
0804
0804
0000
0000
ENDCHAR
STARTCHAR ch-373
ENCODING 373
SWIDTH 1000 0
DWIDTH 16 0
BBX 16 16 0 -2
BITMAP
0904
0888
1050
23fe
5088
1088
1088
17ff
1088
1088
1088
1108
1208
1408
0000
0000
ENDCHAR
STARTCHAR ch-374
ENCODING 374
SWIDTH 1000 0
DWIDTH 16 0
BBX 16 16 0 -2
BITMAP
0420
0422
0fff
0820
1824
2bfe
4800
0804
09fe
0904
0904
0904
09fc
0904
0000
0000
ENDCHAR
STARTCHAR ch-375
ENCODING 375
SWIDTH 1000 0
DWIDTH 16 0
BBX 16 16 0 -2
BITMAP
0804
09fe
1104
31fc
5104
11fc
1100
1122
1124
1118
1128
1144
1182
1701
0000
0000
ENDCHAR
STARTCHAR ch-376
ENCODING 376
SWIDTH 1000 0
DWIDTH 16 0
BBX 16 16 0 -2
BITMAP
0804
1038
27e0
6020
2020
27ff
2020
2020
23fe
2202
2202
2202
23fe
2202
0000
0000
ENDCHAR
STARTCHAR ch-377
ENCODING 377
SWIDTH 1000 0
DWIDTH 16 0
BBX 16 16 0 -2
BITMAP
0880
11fc
2208
4010
23ff
2200
22fe
2242
2242
225c
2240
2241
2441
207f
0000
0000
ENDCHAR
STARTCHAR ch-378
ENCODING 378
SWIDTH 1000 0
DWIDTH 16 0
BBX 16 16 0 -2
BITMAP
0870
0888
1104
2202
5401
11fc
1020
1020
1028
11fc
1020
1020
1022
17ff
0000
0000
ENDCHAR
STARTCHAR ch-379
ENCODING 379
SWIDTH 1000 0
DWIDTH 16 0
BBX 16 16 0 -2
BITMAP
0490
0490
0892
0896
1a98
2990
4898
0996
0e92
0890
0911
0911
0a0f
0c00
0000
0000
ENDCHAR
STARTCHAR ch-380
ENCODING 380
SWIDTH 1000 0
DWIDTH 16 0
BBX 16 16 0 -2
BITMAP
0440
0422
0bff
0890
1888
2906
4a8a
0888
0850
0820
0850
0888
0907
0e02
0000
0000
ENDCHAR
STARTCHAR ch-381
ENCODING 381
SWIDTH 1000 0
DWIDTH 16 0
BBX 16 16 0 -2
BITMAP
0880
1080
20ff
4091
2e91
2012
2010
2010
2010
2e28
2044
2082
2101
2201
0000
0000
ENDCHAR
STARTCHAR ch-382
ENCODING 382
SWIDTH 1000 0
DWIDTH 16 0
BBX 16 16 0 -2
BITMAP
0400
0490
0908
0a04
1dfb
2908
49c8
0978
0908
0928
09c8
0908
0928
0910
0000
0000
ENDCHAR
STARTCHAR ch-383
ENCODING 383
SWIDTH 1000 0
DWIDTH 16 0
BBX 16 16 0 -2
BITMAP
0820
0822
0fff
1020
33fe
5222
1222
13fe
1122
10c0
1060
1098
1307
1402
0000
0000
ENDCHAR
STARTCHAR ch-384
ENCODING 384
SWIDTH 1000 0
DWIDTH 16 0
BBX 16 16 0 -2
BITMAP
0801
17e1
2241
4245
2245
2245
2ff5
2245
2245
2241
2241
2441
2045
2042
0000
0000
ENDCHAR
STARTCHAR ch-385
ENCODING 385
SWIDTH 1000 0
DWIDTH 16 0
BBX 16 16 0 -2
BITMAP
0820
1224
23fe
4220
2420
2022
27ff
2090
2090
2090
2110
2211
2411
281f
0000
0000
ENDCHAR
STARTCHAR ch-386
ENCODING 386
SWIDTH 1000 0
DWIDTH 16 0
BBX 16 16 0 -2
BITMAP
0810
17ff
2400
4404
2438
25e0
2420
2420
25ff
2420
2420
2421
2821
203f
0000
0000
ENDCHAR
STARTCHAR ch-387
ENCODING 387
SWIDTH 1000 0
DWIDTH 16 0
BBX 16 16 0 -2
BITMAP
0404
05fe
0504
0904
19fc
2800
4924
0924
0924
0924
0925
0a25
0c27
0800
0000
0000
ENDCHAR
STARTCHAR ch-388
ENCODING 388
SWIDTH 1000 0
DWIDTH 16 0
BBX 16 16 0 -2
BITMAP
0400
0404
07fe
0880
1904
2bfe
4822
0820
0824
0bfe
0820
0822
0fff
0800
0000
0000
ENDCHAR
STARTCHAR ch-389
ENCODING 389
SWIDTH 1000 0
DWIDTH 16 0
BBX 16 16 0 -2
BITMAP
0840
1022
27ff
4040
2088
2110
23e4
2048
2090
2130
2248
2084
2102
2601
0000
0000
ENDCHAR
STARTCHAR ch-390
ENCODING 390
SWIDTH 1000 0
DWIDTH 16 0
BBX 16 16 0 -2
BITMAP
0080
0082
7fff
0488
0890
14a8
62c6
0080
02a0
0490
0888
1084
6283
0100
0000
0000
ENDCHAR
STARTCHAR ch-391
ENCODING 391
SWIDTH 1000 0
DWIDTH 16 0
BBX 16 16 0 -2
BITMAP
0840
17fc
2040
43fc
2044
27fc
2440
27ff
2041
20a1
2112
2208
2404
2803
0000
0000
ENDCHAR
STARTCHAR ch-392
ENCODING 392
SWIDTH 1000 0
DWIDTH 16 0
BBX 16 16 0 -2
BITMAP
047e
0484
0988
0850
1820
2848
4888
0b10
083f
0842
09a4
0818
0860
0b80
0000
0000
ENDCHAR
STARTCHAR ch-393
ENCODING 393
SWIDTH 1000 0
DWIDTH 16 0
BBX 16 16 0 -2
BITMAP
0420
0442
0fff
0890
1908
2a77
4c02
09fc
0880
08fc
0804
0848
0828
0810
0000
0000
ENDCHAR
STARTCHAR ch-395
ENCODING 395
SWIDTH 1000 0
DWIDTH 16 0
BBX 16 16 0 -2
BITMAP
0802
0822
0ff2
1102
33ea
522a
142a
1a4a
114a
108a
1102
1202
140a
1004
0000
0000
ENDCHAR
STARTCHAR ch-397
ENCODING 397
SWIDTH 1000 0
DWIDTH 16 0
BBX 16 16 0 -2
BITMAP
0420
0424
0bfe
0820
1822
2fff
4808
0808
0bfe
0888
0848
0808
0828
0810
0000
0000
ENDCHAR
STARTCHAR ch-399
ENCODING 399
SWIDTH 1000 0
DWIDTH 16 0
BBX 16 16 0 -2
BITMAP
0420
0524
09fe
0a20
1c20
2822
4fff
0860
0870
08a8
0924
0a27
0c22
0820
0000
0000
ENDCHAR
STARTCHAR ch-400
ENCODING 400
SWIDTH 1000 0
DWIDTH 16 0
BBX 16 16 0 -2
BITMAP
0400
0840
1080
3102
53ff
1652
1252
1252
1252
1252
1252
1252
17ff
1000
0000
0000
ENDCHAR
STARTCHAR ch-401
ENCODING 401
SWIDTH 1000 0
DWIDTH 16 0
BBX 16 16 0 -2
BITMAP
0440
0442
0bff
0880
1884
29fe
4a84
0c84
08fc
0884
08fc
0884
0894
0888
0000
0000
ENDCHAR
STARTCHAR ch-402
ENCODING 402
SWIDTH 1000 0
DWIDTH 16 0
BBX 16 16 0 -2
BITMAP
0410
09ff
1101
6141
1044
11ff
1044
1044
1044
1028
1010
1028
1044
1183
0000
0000
ENDCHAR
STARTCHAR ch-404
ENCODING 404
SWIDTH 1000 0
DWIDTH 16 0
BBX 16 16 0 -2
BITMAP
0440
0488
0904
0bfe
1922
2920
49fc
0a20
0822
0fff
0820
0820
0820
0820
0000
0000
ENDCHAR
STARTCHAR ch-405
ENCODING 405
SWIDTH 1000 0
DWIDTH 16 0
BBX 16 16 0 -2
BITMAP
0802
0bff
1020
2040
53ff
1249
1249
1249
1249
1249
1249
1249
1201
1202
0000
0000
ENDCHAR
STARTCHAR ch-406
ENCODING 406
SWIDTH 1000 0
DWIDTH 16 0
BBX 16 16 0 -2
BITMAP
03e0
0410
0808
1004
2ffa
4001
0000
1ffc
1224
1224
1ffc
1224
1224
122c
0000
0000
ENDCHAR
STARTCHAR ch-407
ENCODING 407
SWIDTH 1000 0
DWIDTH 16 0
BBX 16 16 0 -2
BITMAP
0402
05ff
0902
09fe
1902
2902
497a
094a
094a
097a
0902
0902
090a
0904
0000
0000
ENDCHAR
STARTCHAR ch-408
ENCODING 408
SWIDTH 1000 0
DWIDTH 16 0
BBX 16 16 0 -2
BITMAP
0840
1020
27ff
4401
240d
2031
23c0
2040
27ff
2040
2040
2041
2041
207f
0000
0000
ENDCHAR
STARTCHAR ch-410
ENCODING 410
SWIDTH 1000 0
DWIDTH 16 0
BBX 16 16 0 -2
BITMAP
0900
1100
21ff
4201
2001
21f1
2111
21f1
2111
21f1
2111
2002
2024
2018
0000
0000
ENDCHAR
STARTCHAR ch-411
ENCODING 411
SWIDTH 1000 0
DWIDTH 16 0
BBX 16 16 0 -2
BITMAP
0908
0908
1108
17fe
3108
5108
1108
1fff
1000
1108
1104
1206
1402
1000
0000
0000
ENDCHAR
STARTCHAR ch-412
ENCODING 412
SWIDTH 1000 0
DWIDTH 16 0
BBX 16 16 0 -2
BITMAP
0880
0884
11fe
2304
4544
2124
2114
27ff
2144
2124
2114
2104
2104
220c
0000
0000
ENDCHAR
STARTCHAR ch-413
ENCODING 413
SWIDTH 1000 0
DWIDTH 16 0
BBX 16 16 0 -2
BITMAP
0440
0420
0422
0bff
1840
28a0
48a4
09a8
0a90
0c90
0888
08a7
08c2
0880
0000
0000
ENDCHAR
STARTCHAR ch-414
ENCODING 414
SWIDTH 1000 0
DWIDTH 16 0
BBX 16 16 0 -2
BITMAP
0800
1440
2440
444f
2fe9
2449
2449
2449
2449
2289
2109
228f
2449
2820
0000
0000
ENDCHAR
STARTCHAR ch-430
ENCODING 430
SWIDTH 1000 0
DWIDTH 16 0
BBX 16 16 0 -2
BITMAP
0480
04fe
0900
0afc
18a4
2894
4894
0fff
08a4
0894
0914
09fe
0804
0808
0000
0000
ENDCHAR
STARTCHAR ch-431
ENCODING 431
SWIDTH 1000 0
DWIDTH 16 0
BBX 16 16 0 -2
BITMAP
05fc
0408
0808
0bfe
1900
2900
49fe
0a20
0820
0fff
0850
0848
0887
0b02
0000
0000
ENDCHAR
STARTCHAR ch-434
ENCODING 434
SWIDTH 1000 0
DWIDTH 16 0
BBX 16 16 0 -2
BITMAP
0bff
1200
2200
62fe
2200
2200
23ff
2240
2249
224a
2248
2254
2462
28c1
0000
0000
ENDCHAR
STARTCHAR ch-435
ENCODING 435
SWIDTH 1000 0
DWIDTH 16 0
BBX 16 16 0 -2
BITMAP
0800
1040
2444
4444
2444
2a4a
3151
2040
2040
27fe
2040
2040
2040
2fff
0000
0000
ENDCHAR
STARTCHAR ch-437
ENCODING 437
SWIDTH 1000 0
DWIDTH 16 0
BBX 16 16 0 -2
BITMAP
05fc
0404
09fe
0804
19fc
2800
4bff
0a01
0cfa
0888
0850
0870
088e
0b04
0000
0000
ENDCHAR
STARTCHAR ch-438
ENCODING 438
SWIDTH 1000 0
DWIDTH 16 0
BBX 16 16 0 -2
BITMAP
0404
05fe
0504
0904
19fc
2810
4820
08c2
0bff
0a02
0a02
0a02
0bfe
0a02
0000
0000
ENDCHAR
STARTCHAR ch-439
ENCODING 439
SWIDTH 1000 0
DWIDTH 16 0
BBX 16 16 0 -2
BITMAP
09fe
0902
0902
11fe
3100
51ff
1101
117d
1145
1145
127d
1401
1012
100c
0000
0000
ENDCHAR
STARTCHAR ch-441
ENCODING 441
SWIDTH 1000 0
DWIDTH 16 0
BBX 16 16 0 -2
BITMAP
0802
17bc
2088
4108
2208
247f
2208
2108
2108
217f
2500
2200
2500
28ff
0000
0000
ENDCHAR
STARTCHAR ch-442
ENCODING 442
SWIDTH 1000 0
DWIDTH 16 0
BBX 16 16 0 -2
BITMAP
0820
1421
27ff
4020
2050
218c
2623
2020
23fe
2004
2008
2010
2020
2040
0000
0000
ENDCHAR
STARTCHAR ch-443
ENCODING 443
SWIDTH 1000 0
DWIDTH 16 0
BBX 16 16 0 -2
BITMAP
0850
0888
1104
2202
45fd
2104
2104
21fc
2090
2090
2090
2110
2211
241f
0000
0000
ENDCHAR
STARTCHAR ch-447
ENCODING 447
SWIDTH 1000 0
DWIDTH 16 0
BBX 16 16 0 -2
BITMAP
0802
0bff
0820
13fe
1222
33fe
5222
13fe
1120
10a0
1040
10b0
110f
1602
0000
0000
ENDCHAR
STARTCHAR ch-448
ENCODING 448
SWIDTH 1000 0
DWIDTH 16 0
BBX 16 16 0 -2
BITMAP
0801
13fe
2242
4124
2000
2088
27ff
2088
2088
2050
2020
2050
2088
2707
0000
0000
ENDCHAR
STARTCHAR ch-449
ENCODING 449
SWIDTH 1000 0
DWIDTH 16 0
BBX 16 16 0 -2
BITMAP
0400
04fe
0882
0a82
1afe
2a00
4bfe
0822
0822
0bff
0830
0848
0884
0b03
0000
0000
ENDCHAR
STARTCHAR ch-450
ENCODING 450
SWIDTH 1000 0
DWIDTH 16 0
BBX 16 16 0 -2
BITMAP
0840
0890
1120
2244
5488
11f0
1020
1042
13fe
1021
10a8
1124
1623
1020
0000
0000
ENDCHAR
STARTCHAR ch-451
ENCODING 451
SWIDTH 1000 0
DWIDTH 16 0
BBX 16 16 0 -2
BITMAP
0404
05fe
0504
0904
19fc
2820
4820
0924
093e
0920
0aa0
0a60
0c3f
0800
0000
0000
ENDCHAR
STARTCHAR ch-452
ENCODING 452
SWIDTH 1000 0
DWIDTH 16 0
BBX 16 16 0 -2
BITMAP
08d4
0b92
1092
37ff
5090
1090
10d2
118c
1688
1098
10a4
1085
1503
1201
0000
0000
ENDCHAR
STARTCHAR ch-453
ENCODING 453
SWIDTH 1000 0
DWIDTH 16 0
BBX 16 16 0 -2
BITMAP
0428
0424
0824
0bff
1820
2a22
4924
0938
08a8
0928
0a27
0822
08a0
0840
0000
0000
ENDCHAR
STARTCHAR ch-455
ENCODING 455
SWIDTH 1000 0
DWIDTH 16 0
BBX 16 16 0 -2
BITMAP
0880
1500
227f
4508
2908
2108
2108
237f
2508
2908
2108
2108
257f
2200
0000
0000
ENDCHAR
STARTCHAR ch-457
ENCODING 457
SWIDTH 1000 0
DWIDTH 16 0
BBX 16 16 0 -2
BITMAP
0bfc
1040
2040
43fc
2044
2044
27ff
2000
23fe
2202
2202
2202
23fe
2202
0000
0000
ENDCHAR
STARTCHAR ch-458
ENCODING 458
SWIDTH 1000 0
DWIDTH 16 0
BBX 16 16 0 -2
BITMAP
0420
0440
0884
09fe
1888
2906
4a82
08f8
0908
0988
0a50
0878
088f
0b02
0000
0000
ENDCHAR
STARTCHAR ch-459
ENCODING 459
SWIDTH 1000 0
DWIDTH 16 0
BBX 16 16 0 -2
BITMAP
0802
0bff
1202
2202
43fe
2000
27ff
2421
2421
27ff
2400
2400
2401
27ff
0000
0000
ENDCHAR
STARTCHAR ch-461
ENCODING 461
SWIDTH 1000 0
DWIDTH 16 0
BBX 16 16 0 -2
BITMAP
0840
0820
13fe
2202
63fe
2202
23fe
2201
2222
2214
2248
2284
2302
2601
0000
0000
ENDCHAR
STARTCHAR ch-462
ENCODING 462
SWIDTH 1000 0
DWIDTH 16 0
BBX 16 16 0 -2
BITMAP
0804
08fe
0884
1484
1484
22fc
4a84
0884
0884
14fc
1484
2284
4084
07ff
0000
0000
ENDCHAR
STARTCHAR ch-463
ENCODING 463
SWIDTH 1000 0
DWIDTH 16 0
BBX 16 16 0 -2
BITMAP
0492
0452
0854
18fe
2882
4882
08fe
0882
0882
08fe
0882
0882
088a
0884
0000
0000
ENDCHAR
STARTCHAR ch-464
ENCODING 464
SWIDTH 1000 0
DWIDTH 16 0
BBX 16 16 0 -2
BITMAP
08e2
0f82
108a
108a
3ffa
508a
118a
11ca
12aa
12aa
1482
1882
108a
1084
0000
0000
ENDCHAR
STARTCHAR ch-465
ENCODING 465
SWIDTH 1000 0
DWIDTH 16 0
BBX 16 16 0 -2
BITMAP
05fc
0408
0850
0822
1bff
2a22
4a22
0bfe
0a22
0a22
0bfe
0a22
0a2a
0a04
0000
0000
ENDCHAR
STARTCHAR ch-467
ENCODING 467
SWIDTH 1000 0
DWIDTH 16 0
BBX 16 16 0 -2
BITMAP
0804
0bfe
1000
2092
6124
2248
2124
2092
2000
23fe
2020
2020
2022
27ff
0000
0000
ENDCHAR
STARTCHAR ch-468
ENCODING 468
SWIDTH 1000 0
DWIDTH 16 0
BBX 16 16 0 -2
BITMAP
05fc
0904
1104
21fc
5104
1104
11fc
1104
1104
11fc
1090
1111
1211
141f
0000
0000
ENDCHAR
STARTCHAR ch-470
ENCODING 470
SWIDTH 1000 0
DWIDTH 16 0
BBX 16 16 0 -2
BITMAP
0802
13ff
2020
6064
20a2
2721
2020
2020
23fe
2202
2202
2202
23fe
2202
0000
0000
ENDCHAR
STARTCHAR ch-471
ENCODING 471
SWIDTH 1000 0
DWIDTH 16 0
BBX 16 16 0 -2
BITMAP
0888
0886
1122
1220
3050
5088
1107
1202
15fc
1104
1104
1104
11fc
1104
0000
0000
ENDCHAR
STARTCHAR ch-472
ENCODING 472
SWIDTH 1000 0
DWIDTH 16 0
BBX 16 16 0 -2
BITMAP
081e
0be0
1004
1124
3128
5000
13f8
1010
1022
17ff
1020
1020
10a0
1040
0000
0000
ENDCHAR
STARTCHAR ch-473
ENCODING 473
SWIDTH 1000 0
DWIDTH 16 0
BBX 16 16 0 -2
BITMAP
0888
1050
2020
4050
2088
2020
27ff
2110
22fe
2492
2092
2096
2010
2010
0000
0000
ENDCHAR
STARTCHAR ch-474
ENCODING 474
SWIDTH 1000 0
DWIDTH 16 0
BBX 16 16 0 -2
BITMAP
0800
0bfe
0a22
1222
33fe
5222
1222
13fe
1020
1020
13fe
1020
1022
17ff
0000
0000
ENDCHAR
STARTCHAR ch-475
ENCODING 475
SWIDTH 1000 0
DWIDTH 16 0
BBX 16 16 0 -2
BITMAP
0880
11fe
2204
4408
23fe
2222
2222
23fe
2090
2090
2110
2211
2411
281f
0000
0000
ENDCHAR
STARTCHAR ch-476
ENCODING 476
SWIDTH 1000 0
DWIDTH 16 0
BBX 16 16 0 -2
BITMAP
0420
05fc
0924
09fc
1924
29fc
4800
0fff
0880
08fc
0804
0844
0828
0810
0000
0000
ENDCHAR
STARTCHAR ch-477
ENCODING 477
SWIDTH 1000 0
DWIDTH 16 0
BBX 16 16 0 -2
BITMAP
0404
05fe
0904
0904
19fc
1820
2822
4fff
0820
0870
08ac
0926
0a22
0820
0000
0000
ENDCHAR
STARTCHAR ch-478
ENCODING 478
SWIDTH 1000 0
DWIDTH 16 0
BBX 16 16 0 -2
BITMAP
01c0
0220
0410
0808
17f7
6002
1f04
1124
1f24
1124
1f24
1124
1104
130c
0000
0000
ENDCHAR
STARTCHAR ch-479
ENCODING 479
SWIDTH 1000 0
DWIDTH 16 0
BBX 16 16 0 -2
BITMAP
0440
0488
0904
0bfe
1882
2880
48fc
0920
0a22
0fff
0850
0848
0887
0b02
0000
0000
ENDCHAR
STARTCHAR ch-480
ENCODING 480
SWIDTH 1000 0
DWIDTH 16 0
BBX 16 16 0 -2
BITMAP
0820
0820
0bfe
1020
3124
5124
1124
12aa
1020
1050
1088
1104
1202
1401
0000
0000
ENDCHAR
STARTCHAR ch-481
ENCODING 481
SWIDTH 1000 0
DWIDTH 16 0
BBX 16 16 0 -2
BITMAP
0440
0422
0bff
1000
31fe
5000
11fe
1000
11fe
1102
1102
1102
11fe
1102
0000
0000
ENDCHAR
STARTCHAR ch-492
ENCODING 492
SWIDTH 1000 0
DWIDTH 16 0
BBX 16 16 0 -2
BITMAP
0840
1788
2108
4108
27c8
2108
2188
2348
2511
2121
217f
2101
2101
2100
0000
0000
ENDCHAR
STARTCHAR ch-494
ENCODING 494
SWIDTH 1000 0
DWIDTH 16 0
BBX 16 16 0 -2
BITMAP
0880
08fc
1088
1550
3620
54d8
1717
1460
1588
1430
1444
1188
1030
10c0
0000
0000
ENDCHAR
STARTCHAR ch-495
ENCODING 495
SWIDTH 1000 0
DWIDTH 16 0
BBX 16 16 0 -2
BITMAP
0840
0822
0bff
1240
3244
5284
12ff
1384
12a4
1294
1294
1484
1894
1088
0000
0000
ENDCHAR
STARTCHAR ch-497
ENCODING 497
SWIDTH 1000 0
DWIDTH 16 0
BBX 16 16 0 -2
BITMAP
0404
05fe
0904
09fc
1904
29fc
4904
09fc
0904
0904
0fff
0888
0986
0a02
0000
0000
ENDCHAR
STARTCHAR ch-499
ENCODING 499
SWIDTH 1000 0
DWIDTH 16 0
BBX 16 16 0 -2
BITMAP
0448
0448
0bcf
0848
1848
2848
49ce
0848
0848
0848
0bcf
0848
0888
0908
0000
0000
ENDCHAR
STARTCHAR ch-500
ENCODING 500
SWIDTH 1000 0
DWIDTH 16 0
BBX 16 16 0 -2
BITMAP
0848
0844
13fe
3040
5028
1011
10ef
1000
1044
13ff
1040
1028
1011
11ef
0000
0000
ENDCHAR
STARTCHAR ch-501
ENCODING 501
SWIDTH 1000 0
DWIDTH 16 0
BBX 16 16 0 -2
BITMAP
0820
0820
13fe
2020
43fe
2020
27ff
2040
2092
2194
2688
2084
20a2
23c1
0000
0000
ENDCHAR
STARTCHAR ch-502
ENCODING 502
SWIDTH 1000 0
DWIDTH 16 0
BBX 16 16 0 -2
BITMAP
0a00
1200
23be
4222
2222
2fa2
2222
2222
2714
2a88
2214
2222
2241
2681
0000
0000
ENDCHAR
STARTCHAR ch-503
ENCODING 503
SWIDTH 1000 0
DWIDTH 16 0
BBX 16 16 0 -2
BITMAP
0800
17df
2455
4455
27d5
2455
245f
27d0
2450
2450
2450
2451
2451
28df
0000
0000
ENDCHAR
STARTCHAR ch-504
ENCODING 504
SWIDTH 1000 0
DWIDTH 16 0
BBX 16 16 0 -2
BITMAP
0820
0bfe
1020
31fc
5040
17ff
1088
1124
12fb
1422
1020
13fe
1020
1020
0000
0000
ENDCHAR
STARTCHAR ch-506
ENCODING 506
SWIDTH 1000 0
DWIDTH 16 0
BBX 16 16 0 -2
BITMAP
0420
0422
0bff
0850
198c
6a23
0dfc
0924
09fc
0924
09fc
0924
0820
083f
0000
0000
ENDCHAR
STARTCHAR ch-510
ENCODING 510
SWIDTH 1000 0
DWIDTH 16 0
BBX 16 16 0 -2
BITMAP
0484
05fe
0924
0924
19fc
2924
4944
09fc
0890
0912
0fff
0810
0810
0810
0000
0000
ENDCHAR
ENDFONT
