STARTFONT 2.1
FONT big5.9c00.16
SIZE 16 72 72
FONTBOUNDINGBOX 16 16 0 -2
STARTPROPERTIES 4
FONT_DESCENT 2
FONT_ASCENT 14
DEFAULT_CHAR 5
COPYRIGHT "Copyright (c) 1992 AT&T - All rights reserved."
ENDPROPERTIES
CHARS 279
STARTCHAR ch-5
ENCODING 5
SWIDTH 1000 0
DWIDTH 16 0
BBX 16 16 0 -2
BITMAP
107e
3e52
447e
0852
7e52
4a7e
4a10
7eff
4a91
4a91
7e95
00bd
5581
5483
0000
0000
ENDCHAR
STARTCHAR ch-6
ENCODING 6
SWIDTH 1000 0
DWIDTH 16 0
BBX 16 16 0 -2
BITMAP
1010
3efe
4410
08fe
7e10
4bff
4a28
7e44
4afe
4b45
7e7c
0044
557c
5544
0000
0000
ENDCHAR
STARTCHAR ch-7
ENCODING 7
SWIDTH 1000 0
DWIDTH 16 0
BBX 16 16 0 -2
BITMAP
107f
1e14
2408
087f
7f29
4948
4918
7f08
497f
4908
7f2a
0049
5508
5508
0000
0000
ENDCHAR
STARTCHAR ch-8
ENCODING 8
SWIDTH 1000 0
DWIDTH 16 0
BBX 16 16 0 -2
BITMAP
1052
3e52
44ff
0852
7e5e
4a40
4a7f
7e08
4aff
4a08
7e1c
002a
5549
5508
0000
0000
ENDCHAR
STARTCHAR ch-9
ENCODING 9
SWIDTH 1000 0
DWIDTH 16 0
BBX 16 16 0 -2
BITMAP
1020
3e7e
44c2
087e
7e42
4a7e
4a00
7e7e
4a08
4a08
7e7e
0008
5508
55ff
0000
0000
ENDCHAR
STARTCHAR ch-11
ENCODING 11
SWIDTH 1000 0
DWIDTH 16 0
BBX 16 16 0 -2
BITMAP
21ff
2100
3d7f
4941
117f
7d41
557f
7d22
55ff
7d24
0118
2924
5543
55ff
0000
0000
ENDCHAR
STARTCHAR ch-13
ENCODING 13
SWIDTH 1000 0
DWIDTH 16 0
BBX 16 16 0 -2
BITMAP
2028
3fc8
4888
1088
7fe9
549a
5488
7c88
55c8
56a8
7c88
0094
54a2
54c1
0000
0000
ENDCHAR
STARTCHAR ch-14
ENCODING 14
SWIDTH 1000 0
DWIDTH 16 0
BBX 16 16 0 -2
BITMAP
1008
3c3e
4b8a
108a
7d3f
578a
54be
7c88
54be
5488
7dbe
0088
2948
543f
0000
0000
ENDCHAR
STARTCHAR ch-18
ENCODING 18
SWIDTH 1000 0
DWIDTH 16 0
BBX 16 16 0 -2
BITMAP
1040
3e7f
4480
087e
7e42
4a7e
4a42
7e7e
4a20
4a7e
7ea4
0024
5518
5567
0000
0000
ENDCHAR
STARTCHAR ch-19
ENCODING 19
SWIDTH 1000 0
DWIDTH 16 0
BBX 16 16 0 -2
BITMAP
2402
3cff
4892
1092
7cfe
5492
5492
7cfe
5400
54a9
7ca9
00a0
2922
541e
0000
0000
ENDCHAR
STARTCHAR ch-20
ENCODING 20
SWIDTH 1000 0
DWIDTH 16 0
BBX 16 16 0 -2
BITMAP
1006
3e05
44ff
0884
7e84
4af4
4a85
7ef5
4ad6
4ad4
7edc
00f5
5683
5501
0000
0000
ENDCHAR
STARTCHAR ch-23
ENCODING 23
SWIDTH 1000 0
DWIDTH 16 0
BBX 16 16 0 -2
BITMAP
104f
3e49
4449
09ff
7e49
4a49
4aef
7ea9
4aa9
4aa9
7ea9
00a9
56e9
550b
0000
0000
ENDCHAR
STARTCHAR ch-28
ENCODING 28
SWIDTH 1000 0
DWIDTH 16 0
BBX 16 16 0 -2
BITMAP
1044
3e28
45ff
0828
7efe
4a2a
4bff
7e2a
4afe
4a28
7e28
006c
56aa
5529
0000
0000
ENDCHAR
STARTCHAR ch-29
ENCODING 29
SWIDTH 1000 0
DWIDTH 16 0
BBX 16 16 0 -2
BITMAP
1010
3eff
4400
083c
7e24
4a3c
4a00
7eff
4a81
4abd
7ea5
00a5
56bd
5581
0000
0000
ENDCHAR
STARTCHAR ch-33
ENCODING 33
SWIDTH 1000 0
DWIDTH 16 0
BBX 16 16 0 -2
BITMAP
1020
3ecf
4485
0885
7ea5
4ab5
4aca
7e00
4a7f
4a49
7e7f
0049
557f
5541
0000
0000
ENDCHAR
STARTCHAR ch-35
ENCODING 35
SWIDTH 1000 0
DWIDTH 16 0
BBX 16 16 0 -2
BITMAP
2008
7c3e
09c8
1148
7d48
557f
55c2
7d42
557f
5542
7d52
01ca
5402
5406
0000
0000
ENDCHAR
STARTCHAR ch-36
ENCODING 36
SWIDTH 1000 0
DWIDTH 16 0
BBX 16 16 0 -2
BITMAP
2080
7c9f
0904
11c4
7d5f
5555
55d5
7d15
55d5
5555
7d55
01c4
2904
5504
0000
0000
ENDCHAR
STARTCHAR ch-37
ENCODING 37
SWIDTH 1000 0
DWIDTH 16 0
BBX 16 16 0 -2
BITMAP
21ff
3d29
4929
11ff
7c10
5511
7c92
5454
7c10
0054
5492
5511
5410
0010
0000
0000
ENDCHAR
STARTCHAR ch-40
ENCODING 40
SWIDTH 1000 0
DWIDTH 16 0
BBX 16 16 0 -2
BITMAP
107e
3e42
447e
0842
7e7e
4a00
4bef
7ea5
4b29
4a21
7e63
00a5
5621
5542
0000
0000
ENDCHAR
STARTCHAR ch-41
ENCODING 41
SWIDTH 1000 0
DWIDTH 16 0
BBX 16 16 0 -2
BITMAP
1008
3e1f
4469
0826
7e1c
4af0
4a20
7e7e
4b88
4a08
7eff
0008
5649
557f
0000
0000
ENDCHAR
STARTCHAR ch-43
ENCODING 43
SWIDTH 1000 0
DWIDTH 16 0
BBX 16 16 0 -2
BITMAP
1010
3e10
45ff
0929
7f45
4a92
4a28
7e44
4b83
4a7c
7e44
0044
557c
5544
0000
0000
ENDCHAR
STARTCHAR ch-44
ENCODING 44
SWIDTH 1000 0
DWIDTH 16 0
BBX 16 16 0 -2
BITMAP
101c
3e10
44ff
0891
7efe
4a90
4a9c
7e88
4aff
4aa4
7ea4
0118
5618
5567
0000
0000
ENDCHAR
STARTCHAR ch-45
ENCODING 45
SWIDTH 1000 0
DWIDTH 16 0
BBX 16 16 0 -2
BITMAP
2010
3dff
4818
11ff
7c30
545e
5490
7d1f
5400
55ff
7d01
01ff
5501
55ff
0000
0000
ENDCHAR
STARTCHAR ch-49
ENCODING 49
SWIDTH 1000 0
DWIDTH 16 0
BBX 16 16 0 -2
BITMAP
2008
227f
3d08
48ff
7c49
547f
5749
7d49
557f
7d08
017f
5708
5488
547f
0000
0000
ENDCHAR
STARTCHAR ch-50
ENCODING 50
SWIDTH 1000 0
DWIDTH 16 0
BBX 16 16 0 -2
BITMAP
0820
7f3f
0844
3ea8
7f10
1228
6647
07e0
0ff8
1888
2ff8
0888
0ff8
2222
0000
0000
ENDCHAR
STARTCHAR ch-51
ENCODING 51
SWIDTH 1000 0
DWIDTH 16 0
BBX 16 16 0 -2
BITMAP
20a4
3df4
48a4
10ef
7c45
55f5
5555
7df5
5445
55f5
7c45
2845
5449
5442
0000
0000
ENDCHAR
STARTCHAR ch-52
ENCODING 52
SWIDTH 1000 0
DWIDTH 16 0
BBX 16 16 0 -2
BITMAP
1088
22a8
43ef
0802
17f2
31e2
5242
13e2
12a2
13e2
12aa
13e4
100a
1551
0000
0000
ENDCHAR
STARTCHAR ch-54
ENCODING 54
SWIDTH 1000 0
DWIDTH 16 0
BBX 16 16 0 -2
BITMAP
2042
3cf4
4999
1266
7d42
5481
557c
7e00
54fe
5454
7c92
2911
5410
5410
0000
0000
ENDCHAR
STARTCHAR ch-55
ENCODING 55
SWIDTH 1000 0
DWIDTH 16 0
BBX 16 16 0 -2
BITMAP
2050
7c9f
0922
1312
7d4c
554c
5553
7d48
557f
5548
7d1c
012a
5549
5508
0000
0000
ENDCHAR
STARTCHAR ch-57
ENCODING 57
SWIDTH 1000 0
DWIDTH 16 0
BBX 16 16 0 -2
BITMAP
21e0
3d4f
49e9
1129
7de9
5546
55e9
7c00
5410
5410
7cfe
0010
5410
55ff
0000
0000
ENDCHAR
STARTCHAR ch-59
ENCODING 59
SWIDTH 1000 0
DWIDTH 16 0
BBX 16 16 0 -2
BITMAP
20fe
2082
3cfe
4882
10fe
7c00
55ff
7d29
55ff
7c7c
0028
5410
5428
54c6
0000
0000
ENDCHAR
STARTCHAR ch-60
ENCODING 60
SWIDTH 1000 0
DWIDTH 16 0
BBX 16 16 0 -2
BITMAP
21ef
7ca5
0929
1063
7ea5
4a21
4ad6
7e00
4a20
4a7e
7e42
007e
5542
557e
0000
0000
ENDCHAR
STARTCHAR ch-61
ENCODING 61
SWIDTH 1000 0
DWIDTH 16 0
BBX 16 16 0 -2
BITMAP
2044
21ff
3c44
49ff
1145
7dff
5545
7dff
5400
7cfe
0082
28fe
5482
54fe
0000
0000
ENDCHAR
STARTCHAR ch-62
ENCODING 62
SWIDTH 1000 0
DWIDTH 16 0
BBX 16 16 0 -2
BITMAP
3cfe
4428
09ff
7d29
5529
55ff
7c00
54fe
5400
7dff
0054
5492
5511
0010
0000
0000
ENDCHAR
STARTCHAR ch-63
ENCODING 63
SWIDTH 1000 0
DWIDTH 16 0
BBX 16 16 0 -2
BITMAP
1010
3efe
4410
08fe
7e10
4bff
4a7e
7e42
4a7e
4a42
7e7e
0042
557e
55c3
0000
0000
ENDCHAR
STARTCHAR ch-64
ENCODING 64
SWIDTH 1000 0
DWIDTH 16 0
BBX 16 16 0 -2
BITMAP
3efc
2290
3afc
3e32
2852
349e
03f0
0420
0ff8
0888
0fe8
0ff8
2222
2222
0000
0000
ENDCHAR
STARTCHAR ch-65
ENCODING 65
SWIDTH 1000 0
DWIDTH 16 0
BBX 16 16 0 -2
BITMAP
2000
3d3f
4884
1038
7dc5
544d
54b6
7d0d
54b4
5484
7c84
008c
2900
56ff
0000
0000
ENDCHAR
STARTCHAR ch-68
ENCODING 68
SWIDTH 1000 0
DWIDTH 16 0
BBX 16 16 0 -2
BITMAP
2010
21ff
3c10
48fe
1092
7cfe
5492
7cfe
5411
7dff
0004
29ff
5444
542c
0000
0000
ENDCHAR
STARTCHAR ch-70
ENCODING 70
SWIDTH 1000 0
DWIDTH 16 0
BBX 16 16 0 -2
BITMAP
1010
3efe
4444
0828
7fff
4afe
4a82
7efe
4a82
4afe
7e10
00fe
5510
5510
0000
0000
ENDCHAR
STARTCHAR ch-72
ENCODING 72
SWIDTH 1000 0
DWIDTH 16 0
BBX 16 16 0 -2
BITMAP
20fe
7c10
0810
11ff
7d55
5539
5555
7c00
5400
54fe
7c02
01ff
2802
54fe
0000
0000
ENDCHAR
STARTCHAR ch-73
ENCODING 73
SWIDTH 1000 0
DWIDTH 16 0
BBX 16 16 0 -2
BITMAP
4920
2a3f
7f52
5d0c
6b13
01f0
0220
0ff8
0888
0ff8
0888
0ff8
1224
2222
0000
0000
ENDCHAR
STARTCHAR ch-74
ENCODING 74
SWIDTH 1000 0
DWIDTH 16 0
BBX 16 16 0 -2
BITMAP
107c
3e08
4450
09ff
7e4a
4a88
4a38
7eff
4aa5
4ae7
7eb9
00a9
56b9
5583
0000
0000
ENDCHAR
STARTCHAR ch-75
ENCODING 75
SWIDTH 1000 0
DWIDTH 16 0
BBX 16 16 0 -2
BITMAP
1010
3e1e
4410
08ff
7e91
4afe
4a90
7e8e
4a80
4a94
7ed5
0177
5614
557f
0000
0000
ENDCHAR
STARTCHAR ch-76
ENCODING 76
SWIDTH 1000 0
DWIDTH 16 0
BBX 16 16 0 -2
BITMAP
1040
3efe
4508
08fe
7e92
4afe
4a30
7ec9
4a1a
4aec
7e1c
00ea
5609
5530
0000
0000
ENDCHAR
STARTCHAR ch-77
ENCODING 77
SWIDTH 1000 0
DWIDTH 16 0
BBX 16 16 0 -2
BITMAP
10f8
3e9a
4465
0842
7e81
4aee
4a2a
7eeb
4a90
4a80
7eef
002a
5524
55db
0000
0000
ENDCHAR
STARTCHAR ch-78
ENCODING 78
SWIDTH 1000 0
DWIDTH 16 0
BBX 16 16 0 -2
BITMAP
1002
3efc
4410
09ff
7e44
4aba
4b29
7e38
4a00
4afe
7eba
00aa
56ba
5586
0000
0000
ENDCHAR
STARTCHAR ch-80
ENCODING 80
SWIDTH 1000 0
DWIDTH 16 0
BBX 16 16 0 -2
BITMAP
2010
3cfe
4812
11ff
7c12
54fe
5555
7dd7
5511
55ff
7d11
29d7
5555
5555
0000
0000
ENDCHAR
STARTCHAR ch-82
ENCODING 82
SWIDTH 1000 0
DWIDTH 16 0
BBX 16 16 0 -2
BITMAP
1044
3e28
45ff
0828
7efe
4aaa
4ac6
7eba
4afe
4a04
7fff
0004
5644
552c
0000
0000
ENDCHAR
STARTCHAR ch-84
ENCODING 84
SWIDTH 1000 0
DWIDTH 16 0
BBX 16 16 0 -2
BITMAP
2044
3dff
4810
11ff
7c10
55ff
5444
7c44
55ff
5444
7dff
0101
5501
55ff
0000
0000
ENDCHAR
STARTCHAR ch-85
ENCODING 85
SWIDTH 1000 0
DWIDTH 16 0
BBX 16 16 0 -2
BITMAP
1002
3efc
4412
0894
7e58
4bff
4a54
7e92
4bff
4a92
7efe
0092
56fe
5582
0000
0000
ENDCHAR
STARTCHAR ch-86
ENCODING 86
SWIDTH 1000 0
DWIDTH 16 0
BBX 16 16 0 -2
BITMAP
0000
23ff
3e00
4b14
12a4
7ff7
5649
7f52
5752
7f52
03f2
5442
5485
5509
0000
0000
ENDCHAR
STARTCHAR ch-87
ENCODING 87
SWIDTH 1000 0
DWIDTH 16 0
BBX 16 16 0 -2
BITMAP
2092
2054
3c38
49ff
7c54
5492
5511
7c42
54ff
5532
7cd2
009f
5502
5402
0000
0000
ENDCHAR
STARTCHAR ch-88
ENCODING 88
SWIDTH 1000 0
DWIDTH 16 0
BBX 16 16 0 -2
BITMAP
10fe
3e02
45ff
0802
7efe
4a00
4aef
7e49
4aef
4a04
7eff
0044
5524
550c
0000
0000
ENDCHAR
STARTCHAR ch-89
ENCODING 89
SWIDTH 1000 0
DWIDTH 16 0
BBX 16 16 0 -2
BITMAP
1008
3e7e
4408
08ff
7e42
4ae7
4a42
7eef
4a00
4aff
7e24
0024
5525
5547
0000
0000
ENDCHAR
STARTCHAR ch-94
ENCODING 94
SWIDTH 1000 0
DWIDTH 16 0
BBX 16 16 0 -2
BITMAP
21ff
3d29
49ff
1000
7dff
5400
54fe
7c82
54fe
5440
7cc9
294a
5444
54e3
0000
0000
ENDCHAR
STARTCHAR ch-95
ENCODING 95
SWIDTH 1000 0
DWIDTH 16 0
BBX 16 16 0 -2
BITMAP
114e
2082
3d5e
2142
3c9e
2142
7fff
47f1
0820
1ffc
17f4
1084
1ffc
2222
0000
0000
ENDCHAR
STARTCHAR ch-96
ENCODING 96
SWIDTH 1000 0
DWIDTH 16 0
BBX 16 16 0 -2
BITMAP
2038
3c44
48ba
1101
7dff
5555
55ff
7c00
54fe
5482
7cfe
2882
54fe
5482
0000
0000
ENDCHAR
STARTCHAR ch-98
ENCODING 98
SWIDTH 1000 0
DWIDTH 16 0
BBX 16 16 0 -2
BITMAP
207c
7c44
087c
1000
7def
5529
55ef
7c10
5410
55ff
7c54
0092
2911
5410
0000
0000
ENDCHAR
STARTCHAR ch-99
ENCODING 99
SWIDTH 1000 0
DWIDTH 16 0
BBX 16 16 0 -2
BITMAP
1010
3fff
44fe
08ba
7eaa
4aba
4afe
7e7c
4a44
4a7c
7e44
007c
5600
55ff
0000
0000
ENDCHAR
STARTCHAR ch-102
ENCODING 102
SWIDTH 1000 0
DWIDTH 16 0
BBX 16 16 0 -2
BITMAP
21ff
7d29
0929
11ef
7c28
55ef
5529
7def
5529
55ef
7c20
0020
2821
543f
0000
0000
ENDCHAR
STARTCHAR ch-103
ENCODING 103
SWIDTH 1000 0
DWIDTH 16 0
BBX 16 16 0 -2
BITMAP
2028
3dff
4529
09ff
7d29
55ff
5400
7dff
5400
54fe
7c82
28fe
5444
55ff
0000
0000
ENDCHAR
STARTCHAR ch-104
ENCODING 104
SWIDTH 1000 0
DWIDTH 16 0
BBX 16 16 0 -2
BITMAP
2092
21ff
3d01
497d
1044
7c7c
5488
7c92
54fe
7cfe
0082
28fe
5482
54fe
0000
0000
ENDCHAR
STARTCHAR ch-109
ENCODING 109
SWIDTH 1000 0
DWIDTH 16 0
BBX 16 16 0 -2
BITMAP
1010
3fff
4428
09d7
7ed4
4b56
4a95
7e82
4afe
4a82
7efe
0082
5682
5582
0000
0000
ENDCHAR
STARTCHAR ch-110
ENCODING 110
SWIDTH 1000 0
DWIDTH 16 0
BBX 16 16 0 -2
BITMAP
1040
3e56
449a
0892
7ed6
4a9a
4ace
7e9a
4aaa
4a92
7e82
01ff
5624
5542
0000
0000
ENDCHAR
STARTCHAR ch-113
ENCODING 113
SWIDTH 1000 0
DWIDTH 16 0
BBX 16 16 0 -2
BITMAP
21ff
7d24
09ff
1124
7d7e
554a
557e
7d4a
557e
5508
7d7f
014b
295f
5641
0000
0000
ENDCHAR
STARTCHAR ch-115
ENCODING 115
SWIDTH 1000 0
DWIDTH 16 0
BBX 16 16 0 -2
BITMAP
2010
7cba
08aa
116d
7dff
54aa
556d
7dff
5410
55ff
7c10
0054
5492
5511
0000
0000
ENDCHAR
STARTCHAR ch-116
ENCODING 116
SWIDTH 1000 0
DWIDTH 16 0
BBX 16 16 0 -2
BITMAP
1024
3eff
4424
08ff
7ea5
4aff
4a0a
7eff
4a88
4a88
7eea
008c
568d
5513
0000
0000
ENDCHAR
STARTCHAR ch-117
ENCODING 117
SWIDTH 1000 0
DWIDTH 16 0
BBX 16 16 0 -2
BITMAP
2108
7def
0a52
1004
7c05
55ff
5504
7d74
5504
5575
7d56
0175
290b
5601
0000
0000
ENDCHAR
STARTCHAR ch-119
ENCODING 119
SWIDTH 1000 0
DWIDTH 16 0
BBX 16 16 0 -2
BITMAP
0000
39ff
4810
11d7
7d55
55d7
5410
7cff
5410
55d7
7d55
01d7
2810
55ff
0000
0000
ENDCHAR
STARTCHAR ch-120
ENCODING 120
SWIDTH 1000 0
DWIDTH 16 0
BBX 16 16 0 -2
BITMAP
2020
203c
3dff
4921
11fc
7d3c
557c
7d54
557c
5554
7d7c
29fe
3aaa
55ff
0000
0000
ENDCHAR
STARTCHAR ch-121
ENCODING 121
SWIDTH 1000 0
DWIDTH 16 0
BBX 16 16 0 -2
BITMAP
2044
21ff
3c44
49ef
1129
7def
5484
7dff
5484
7cff
0084
54ff
5484
54ff
0000
0000
ENDCHAR
STARTCHAR ch-122
ENCODING 122
SWIDTH 1000 0
DWIDTH 16 0
BBX 16 16 0 -2
BITMAP
27ff
279e
3e96
4e96
1420
7fff
5448
7fff
5449
7fff
0508
55ce
5529
55ef
0000
0000
ENDCHAR
STARTCHAR ch-229
ENCODING 229
SWIDTH 1000 0
DWIDTH 16 0
BBX 16 16 0 -2
BITMAP
0800
1ff8
2808
4ff8
0808
0ff8
0800
0fff
0800
0fff
0001
2921
4492
000c
0000
0000
ENDCHAR
STARTCHAR ch-230
ENCODING 230
SWIDTH 1000 0
DWIDTH 16 0
BBX 16 16 0 -2
BITMAP
1000
3f80
2080
3fbf
2081
3f81
2002
3f84
2008
3fd0
0051
5551
2adf
0180
0000
0000
ENDCHAR
STARTCHAR ch-231
ENCODING 231
SWIDTH 1000 0
DWIDTH 16 0
BBX 16 16 0 -2
BITMAP
0400
0ff8
1fe8
2808
0ff8
0ffc
0800
0ffe
2492
424a
07f6
0410
0411
381f
0000
0000
ENDCHAR
STARTCHAR ch-233
ENCODING 233
SWIDTH 1000 0
DWIDTH 16 0
BBX 16 16 0 -2
BITMAP
2040
207e
20c2
207e
7c42
247e
2440
247e
2440
257f
2601
2555
4155
000e
0000
0000
ENDCHAR
STARTCHAR ch-234
ENCODING 234
SWIDTH 1000 0
DWIDTH 16 0
BBX 16 16 0 -2
BITMAP
2040
20fc
2184
20fc
3084
28fc
2480
20fe
2080
20ff
22a9
22a9
2001
200e
0000
0000
ENDCHAR
STARTCHAR ch-237
ENCODING 237
SWIDTH 1000 0
DWIDTH 16 0
BBX 16 16 0 -2
BITMAP
0020
7c7e
24c2
247e
2442
247e
2440
247f
2440
247f
2555
4555
1401
0806
0000
0000
ENDCHAR
STARTCHAR ch-241
ENCODING 241
SWIDTH 1000 0
DWIDTH 16 0
BBX 16 16 0 -2
BITMAP
0020
3e40
08fe
0982
08fe
0882
08fe
7f80
08fe
08ff
0801
0955
0955
080e
0000
0000
ENDCHAR
STARTCHAR ch-242
ENCODING 242
SWIDTH 1000 0
DWIDTH 16 0
BBX 16 16 0 -2
BITMAP
0010
0020
3f7e
21c2
217e
2142
3f7e
2040
207e
207f
2001
20ab
2155
400e
0000
0000
ENDCHAR
STARTCHAR ch-243
ENCODING 243
SWIDTH 1000 0
DWIDTH 16 0
BBX 16 16 0 -2
BITMAP
3ffc
2ff4
2204
27e4
2424
27e4
2424
27e4
27c4
2404
27f4
2ad5
5533
0020
0000
0000
ENDCHAR
STARTCHAR ch-244
ENCODING 244
SWIDTH 1000 0
DWIDTH 16 0
BBX 16 16 0 -2
BITMAP
0100
03f8
0208
7bf8
4a08
4bf8
4a00
4bfc
4bff
7801
4aa9
02a9
04aa
0004
0000
0000
ENDCHAR
STARTCHAR ch-245
ENCODING 245
SWIDTH 1000 0
DWIDTH 16 0
BBX 16 16 0 -2
BITMAP
0020
7c40
147e
14c2
147e
1442
147e
7c40
147e
147f
1401
1555
2555
460e
0000
0000
ENDCHAR
STARTCHAR ch-246
ENCODING 246
SWIDTH 1000 0
DWIDTH 16 0
BBX 16 16 0 -2
BITMAP
0012
3fff
0210
1fe8
1025
1fe2
1fe0
1000
1fe0
1fff
0001
2491
4495
0002
0000
0000
ENDCHAR
STARTCHAR ch-247
ENCODING 247
SWIDTH 1000 0
DWIDTH 16 0
BBX 16 16 0 -2
BITMAP
1080
10fe
7d82
10fe
1082
7cfe
4480
44fe
4480
44ff
2801
1155
2955
440e
0000
0000
ENDCHAR
STARTCHAR ch-249
ENCODING 249
SWIDTH 1000 0
DWIDTH 16 0
BBX 16 16 0 -2
BITMAP
0040
18fe
2582
42fe
5d82
00fe
0080
7efe
0280
04ff
0401
0955
1155
000e
0000
0000
ENDCHAR
STARTCHAR ch-250
ENCODING 250
SWIDTH 1000 0
DWIDTH 16 0
BBX 16 16 0 -2
BITMAP
0820
087e
3ec2
087e
0842
087e
7f40
087e
0840
087f
0801
0955
1555
220e
0000
0000
ENDCHAR
STARTCHAR ch-251
ENCODING 251
SWIDTH 1000 0
DWIDTH 16 0
BBX 16 16 0 -2
BITMAP
0880
15fe
2282
41fe
0082
3efe
1280
12fe
1280
12ff
1201
1355
2355
4c0e
0000
0000
ENDCHAR
STARTCHAR ch-252
ENCODING 252
SWIDTH 1000 0
DWIDTH 16 0
BBX 16 16 0 -2
BITMAP
1040
087e
7ec2
247e
2442
247e
2440
247e
2440
247f
2401
1955
2555
420e
0000
0000
ENDCHAR
STARTCHAR ch-253
ENCODING 253
SWIDTH 1000 0
DWIDTH 16 0
BBX 16 16 0 -2
BITMAP
0040
7e7e
24c2
247e
2442
247e
7e40
247e
2440
247f
2401
2555
2555
440e
0000
0000
ENDCHAR
STARTCHAR ch-255
ENCODING 255
SWIDTH 1000 0
DWIDTH 16 0
BBX 16 16 0 -2
BITMAP
0080
7dfe
1082
10fe
1082
10fe
7c80
10fe
1080
10ff
1401
1955
6155
000e
0000
0000
ENDCHAR
STARTCHAR ch-256
ENCODING 256
SWIDTH 1000 0
DWIDTH 16 0
BBX 16 16 0 -2
BITMAP
0080
7efe
0982
08fe
1082
38fe
5480
12fe
1080
10ff
1001
1155
1155
100e
0000
0000
ENDCHAR
STARTCHAR ch-259
ENCODING 259
SWIDTH 1000 0
DWIDTH 16 0
BBX 16 16 0 -2
BITMAP
2010
7e10
427e
7e12
4212
7e12
40ff
7e10
7f10
5510
2b28
5544
0282
0501
0000
0000
ENDCHAR
STARTCHAR ch-260
ENCODING 260
SWIDTH 1000 0
DWIDTH 16 0
BBX 16 16 0 -2
BITMAP
0080
01fe
7e82
54fe
5482
54fe
5480
54fe
5480
66ff
4001
4155
7f55
000e
0000
0000
ENDCHAR
STARTCHAR ch-261
ENCODING 261
SWIDTH 1000 0
DWIDTH 16 0
BBX 16 16 0 -2
BITMAP
3e20
227e
22c2
2a7e
2a42
2a7e
7f40
227f
2240
227f
2201
2289
2b55
4402
0000
0000
ENDCHAR
STARTCHAR ch-262
ENCODING 262
SWIDTH 1000 0
DWIDTH 16 0
BBX 16 16 0 -2
BITMAP
1020
107e
7fc2
517e
5142
107e
147f
147f
1401
14ab
25ab
4529
0302
0004
0000
0000
ENDCHAR
STARTCHAR ch-263
ENCODING 263
SWIDTH 1000 0
DWIDTH 16 0
BBX 16 16 0 -2
BITMAP
2020
3c7e
20c2
227e
2242
3e7e
0840
087e
0840
7f7f
0801
0955
0955
080e
0000
0000
ENDCHAR
STARTCHAR ch-264
ENCODING 264
SWIDTH 1000 0
DWIDTH 16 0
BBX 16 16 0 -2
BITMAP
3fff
2280
24fe
2d82
34fe
2482
24fe
2480
24fe
2480
24ff
2555
4555
040e
0000
0000
ENDCHAR
STARTCHAR ch-265
ENCODING 265
SWIDTH 1000 0
DWIDTH 16 0
BBX 16 16 0 -2
BITMAP
0040
3efe
2482
24fe
2482
7efe
0480
0cfe
14ff
2401
4555
0555
1402
0804
0000
0000
ENDCHAR
STARTCHAR ch-272
ENCODING 272
SWIDTH 1000 0
DWIDTH 16 0
BBX 16 16 0 -2
BITMAP
0400
3fbe
08a2
133e
0200
07f0
0410
07f0
0410
07f0
0400
07f0
07fe
4922
0000
0000
ENDCHAR
STARTCHAR ch-274
ENCODING 274
SWIDTH 1000 0
DWIDTH 16 0
BBX 16 16 0 -2
BITMAP
0020
0840
08fc
1484
22fc
4184
1cfc
00fc
3eff
0201
0555
1955
0c01
0006
0000
0000
ENDCHAR
STARTCHAR ch-276
ENCODING 276
SWIDTH 1000 0
DWIDTH 16 0
BBX 16 16 0 -2
BITMAP
0420
087e
10c2
297e
4442
007e
7f40
027e
0440
087f
1001
2155
4155
7f06
0000
0000
ENDCHAR
STARTCHAR ch-277
ENCODING 277
SWIDTH 1000 0
DWIDTH 16 0
BBX 16 16 0 -2
BITMAP
1010
2008
7f7f
2141
3f41
2110
3f10
2012
3f14
2018
3f90
55b1
5591
039f
0000
0000
ENDCHAR
STARTCHAR ch-279
ENCODING 279
SWIDTH 1000 0
DWIDTH 16 0
BBX 16 16 0 -2
BITMAP
1040
10fe
1142
7c7e
0042
287e
2840
287e
2840
287f
2801
7d55
0155
0006
0000
0000
ENDCHAR
STARTCHAR ch-280
ENCODING 280
SWIDTH 1000 0
DWIDTH 16 0
BBX 16 16 0 -2
BITMAP
1020
227e
42a2
7e3e
0022
243e
2420
7e3e
2420
243f
2401
2555
2555
4406
0000
0000
ENDCHAR
STARTCHAR ch-281
ENCODING 281
SWIDTH 1000 0
DWIDTH 16 0
BBX 16 16 0 -2
BITMAP
0020
407e
40c2
7e7e
4842
487e
0840
7e7e
0840
087f
0801
1555
2355
4106
0000
0000
ENDCHAR
STARTCHAR ch-283
ENCODING 283
SWIDTH 1000 0
DWIDTH 16 0
BBX 16 16 0 -2
BITMAP
0f7c
1144
2a4c
0442
3bbe
0ff8
0fc8
0ff8
0800
0ff8
0ffe
0002
14a2
24ac
0000
0000
ENDCHAR
STARTCHAR ch-285
ENCODING 285
SWIDTH 1000 0
DWIDTH 16 0
BBX 16 16 0 -2
BITMAP
2020
207e
3f22
213e
4122
013e
3d20
253f
2520
3d3f
2545
01ab
0101
0e0e
0000
0000
ENDCHAR
STARTCHAR ch-286
ENCODING 286
SWIDTH 1000 0
DWIDTH 16 0
BBX 16 16 0 -2
BITMAP
7c40
44fc
4544
7c7c
0044
7e7c
2040
207c
7c40
047f
0401
0555
0555
180e
0000
0000
ENDCHAR
STARTCHAR ch-287
ENCODING 287
SWIDTH 1000 0
DWIDTH 16 0
BBX 16 16 0 -2
BITMAP
0120
7e7e
4842
487e
4842
7f7e
4840
487f
4840
487f
4929
5529
6355
5d02
0000
0000
ENDCHAR
STARTCHAR ch-288
ENCODING 288
SWIDTH 1000 0
DWIDTH 16 0
BBX 16 16 0 -2
BITMAP
0020
3e7f
22c1
227f
2241
3e7f
2240
227f
2240
3e7f
0001
0049
7fb5
0003
0000
0000
ENDCHAR
STARTCHAR ch-290
ENCODING 290
SWIDTH 1000 0
DWIDTH 16 0
BBX 16 16 0 -2
BITMAP
2220
227e
27a2
22be
2aa2
4abe
2aa0
12be
2aa0
7abf
0281
04ab
08ab
1306
0000
0000
ENDCHAR
STARTCHAR ch-291
ENCODING 291
SWIDTH 1000 0
DWIDTH 16 0
BBX 16 16 0 -2
BITMAP
0040
1080
11fc
1104
7dfc
11fc
1100
7dfc
45ff
4401
4555
7d55
4401
0006
0000
0000
ENDCHAR
STARTCHAR ch-293
ENCODING 293
SWIDTH 1000 0
DWIDTH 16 0
BBX 16 16 0 -2
BITMAP
1008
3f88
60bf
3fa1
20a1
3f80
2014
3f94
2014
3fd4
0054
5554
5562
0181
0000
0000
ENDCHAR
STARTCHAR ch-294
ENCODING 294
SWIDTH 1000 0
DWIDTH 16 0
BBX 16 16 0 -2
BITMAP
0080
0ff8
0888
7fff
0c18
33c6
0ff8
0fe8
0ff8
0ff0
0fff
14a1
2252
4254
0000
0000
ENDCHAR
STARTCHAR ch-296
ENCODING 296
SWIDTH 1000 0
DWIDTH 16 0
BBX 16 16 0 -2
BITMAP
0040
7cfe
5582
54fe
7c82
54fe
5480
7cfc
1080
10ff
12a9
1155
1002
100c
0000
0000
ENDCHAR
STARTCHAR ch-297
ENCODING 297
SWIDTH 1000 0
DWIDTH 16 0
BBX 16 16 0 -2
BITMAP
0820
287e
28c2
3e7e
2842
487e
0840
7f7f
0840
087f
0849
1449
22b5
4102
0000
0000
ENDCHAR
STARTCHAR ch-301
ENCODING 301
SWIDTH 1000 0
DWIDTH 16 0
BBX 16 16 0 -2
BITMAP
0810
103e
3e62
623e
2222
223e
3e20
203e
2020
3e3f
2201
22ab
22ab
3e06
0000
0000
ENDCHAR
STARTCHAR ch-302
ENCODING 302
SWIDTH 1000 0
DWIDTH 16 0
BBX 16 16 0 -2
BITMAP
0410
3f3e
1262
213e
40a2
3f3e
0020
7fbf
1020
1e3f
0255
02ab
0201
0c0e
0000
0000
ENDCHAR
STARTCHAR ch-303
ENCODING 303
SWIDTH 1000 0
DWIDTH 16 0
BBX 16 16 0 -2
BITMAP
0010
7f3e
0862
103e
2022
7f3e
5520
553f
5520
553f
5555
55ab
4101
430e
0000
0000
ENDCHAR
STARTCHAR ch-304
ENCODING 304
SWIDTH 1000 0
DWIDTH 16 0
BBX 16 16 0 -2
BITMAP
0110
3e3e
0862
083e
0822
7f3e
0820
083e
0820
3e3f
2201
22ab
22ab
3e06
0000
0000
ENDCHAR
STARTCHAR ch-305
ENCODING 305
SWIDTH 1000 0
DWIDTH 16 0
BBX 16 16 0 -2
BITMAP
1210
123e
7fa2
123e
1222
003e
0220
223e
2220
143f
0801
14ab
22ab
4106
0000
0000
ENDCHAR
STARTCHAR ch-307
ENCODING 307
SWIDTH 1000 0
DWIDTH 16 0
BBX 16 16 0 -2
BITMAP
0410
7fbe
40e2
50be
1222
7fbe
1220
123f
1220
123f
1455
08ab
1401
638e
0000
0000
ENDCHAR
STARTCHAR ch-310
ENCODING 310
SWIDTH 1000 0
DWIDTH 16 0
BBX 16 16 0 -2
BITMAP
0820
087e
7f22
083e
0822
3e3e
0020
3e3f
2220
223f
2255
22ab
3e01
220e
0000
0000
ENDCHAR
STARTCHAR ch-311
ENCODING 311
SWIDTH 1000 0
DWIDTH 16 0
BBX 16 16 0 -2
BITMAP
7f81
1009
3e09
6509
1a03
77f8
07c8
07f8
0400
07fe
0400
07ff
14a1
2256
0000
0000
ENDCHAR
STARTCHAR ch-312
ENCODING 312
SWIDTH 1000 0
DWIDTH 16 0
BBX 16 16 0 -2
BITMAP
0410
243e
3f62
243e
4422
043e
7fa0
043f
0c20
163f
2555
44ab
0401
040e
0000
0000
ENDCHAR
STARTCHAR ch-315
ENCODING 315
SWIDTH 1000 0
DWIDTH 16 0
BBX 16 16 0 -2
BITMAP
0010
4020
307e
0fc2
027e
427e
3240
027e
0fc0
107f
6155
2255
2001
2006
0000
0000
ENDCHAR
STARTCHAR ch-317
ENCODING 317
SWIDTH 1000 0
DWIDTH 16 0
BBX 16 16 0 -2
BITMAP
1100
3fbc
0a24
043c
1b00
07f0
0410
07f0
0410
07f0
07f8
0400
07fc
0aa4
0000
0000
ENDCHAR
STARTCHAR ch-318
ENCODING 318
SWIDTH 1000 0
DWIDTH 16 0
BBX 16 16 0 -2
BITMAP
0810
083e
1162
7f3e
0422
243e
3f20
443f
0420
043f
7fd5
04ab
0401
040e
0000
0000
ENDCHAR
STARTCHAR ch-319
ENCODING 319
SWIDTH 1000 0
DWIDTH 16 0
BBX 16 16 0 -2
BITMAP
0010
0820
14fe
2242
417e
0042
3e7e
0040
3e7e
227f
22ab
22ab
3e01
2206
0000
0000
ENDCHAR
STARTCHAR ch-320
ENCODING 320
SWIDTH 1000 0
DWIDTH 16 0
BBX 16 16 0 -2
BITMAP
08f8
1820
2bfe
0820
09fc
07f0
0c10
07f0
0410
07f0
07f8
0400
07fc
0aa4
0000
0000
ENDCHAR
STARTCHAR ch-321
ENCODING 321
SWIDTH 1000 0
DWIDTH 16 0
BBX 16 16 0 -2
BITMAP
1010
083e
7f62
003e
2222
413e
0420
243f
2420
243f
1455
08ab
1401
630e
0000
0000
ENDCHAR
STARTCHAR ch-322
ENCODING 322
SWIDTH 1000 0
DWIDTH 16 0
BBX 16 16 0 -2
BITMAP
0a10
0a3e
1222
323e
5fa2
123e
1720
1abe
1260
123f
1201
12ab
12ab
1206
0000
0000
ENDCHAR
STARTCHAR ch-323
ENCODING 323
SWIDTH 1000 0
DWIDTH 16 0
BBX 16 16 0 -2
BITMAP
1010
1f3e
3162
593e
1522
113e
7fe0
113f
1120
193f
1555
11ab
1101
230e
0000
0000
ENDCHAR
STARTCHAR ch-325
ENCODING 325
SWIDTH 1000 0
DWIDTH 16 0
BBX 16 16 0 -2
BITMAP
2010
203e
3e62
223e
6222
143e
0820
143e
2220
7f3f
2201
22ab
22ab
3e06
0000
0000
ENDCHAR
STARTCHAR ch-330
ENCODING 330
SWIDTH 1000 0
DWIDTH 16 0
BBX 16 16 0 -2
BITMAP
0420
047e
3fa2
043e
24a2
24be
24a0
557f
0420
043f
0425
0a5b
1101
60ce
0000
0000
ENDCHAR
STARTCHAR ch-331
ENCODING 331
SWIDTH 1000 0
DWIDTH 16 0
BBX 16 16 0 -2
BITMAP
0020
3f7e
0122
213e
3e22
203e
20a0
1fbf
0020
003f
5525
505b
1101
1f07
0000
0000
ENDCHAR
STARTCHAR ch-332
ENCODING 332
SWIDTH 1000 0
DWIDTH 16 0
BBX 16 16 0 -2
BITMAP
2008
3e14
6222
3e41
223e
3e08
2008
3f7f
2008
3f1c
252a
5b49
0108
0e18
0000
0000
ENDCHAR
STARTCHAR ch-335
ENCODING 335
SWIDTH 1000 0
DWIDTH 16 0
BBX 16 16 0 -2
BITMAP
0a20
093e
7f62
083e
7f22
493e
4920
7f3f
4920
493f
7f25
495b
4901
490e
0000
0000
ENDCHAR
STARTCHAR ch-337
ENCODING 337
SWIDTH 1000 0
DWIDTH 16 0
BBX 16 16 0 -2
BITMAP
0010
7f20
417e
41c2
7f7e
0042
7f7e
4140
7f7f
4140
7f7f
41ab
4101
430e
0000
0000
ENDCHAR
STARTCHAR ch-338
ENCODING 338
SWIDTH 1000 0
DWIDTH 16 0
BBX 16 16 0 -2
BITMAP
1220
123e
2162
4cbe
1222
213e
40a0
003f
3f20
213f
2125
215b
3f01
210e
0000
0000
ENDCHAR
STARTCHAR ch-339
ENCODING 339
SWIDTH 1000 0
DWIDTH 16 0
BBX 16 16 0 -2
BITMAP
0420
3f3e
0462
7fbe
40a2
5fbe
0220
043f
3fa0
043f
0425
045b
1401
080e
0000
0000
ENDCHAR
STARTCHAR ch-340
ENCODING 340
SWIDTH 1000 0
DWIDTH 16 0
BBX 16 16 0 -2
BITMAP
2020
3e24
6242
3eff
2224
3e42
20a1
3f3e
2040
3f44
2524
5b18
0118
0e67
0000
0000
ENDCHAR
STARTCHAR ch-342
ENCODING 342
SWIDTH 1000 0
DWIDTH 16 0
BBX 16 16 0 -2
BITMAP
1020
207e
7e42
427e
7e42
427e
7e40
207f
2240
2c7f
7049
21b7
2101
1f0e
0000
0000
ENDCHAR
STARTCHAR ch-343
ENCODING 343
SWIDTH 1000 0
DWIDTH 16 0
BBX 16 16 0 -2
BITMAP
2220
143e
0862
143e
2222
083e
7f20
283f
7f20
293f
2925
2a5b
0801
080e
0000
0000
ENDCHAR
STARTCHAR ch-344
ENCODING 344
SWIDTH 1000 0
DWIDTH 16 0
BBX 16 16 0 -2
BITMAP
3f20
093e
0962
7fbe
0922
3f3e
1020
203f
5f20
113f
1125
115b
1f01
110e
0000
0000
ENDCHAR
STARTCHAR ch-345
ENCODING 345
SWIDTH 1000 0
DWIDTH 16 0
BBX 16 16 0 -2
BITMAP
0080
7cfe
4582
44fe
7c82
44fe
4480
7cff
4480
44ff
7c91
016d
2801
441e
0000
0000
ENDCHAR
STARTCHAR ch-346
ENCODING 346
SWIDTH 1000 0
DWIDTH 16 0
BBX 16 16 0 -2
BITMAP
0110
3e3e
0462
043e
7fa2
163e
2520
44bf
0020
1e3f
1215
122b
2241
43ce
0000
0000
ENDCHAR
STARTCHAR ch-347
ENCODING 347
SWIDTH 1000 0
DWIDTH 16 0
BBX 16 16 0 -2
BITMAP
3fa0
007e
14a2
293e
5222
293e
14a0
003f
0020
3fbf
0425
045b
0401
7fce
0000
0000
ENDCHAR
STARTCHAR ch-348
ENCODING 348
SWIDTH 1000 0
DWIDTH 16 0
BBX 16 16 0 -2
BITMAP
2220
223e
1462
3f3e
0922
7f3e
4820
7fbf
08a0
08bf
18a5
2d5b
4a01
080e
0000
0000
ENDCHAR
STARTCHAR ch-349
ENCODING 349
SWIDTH 1000 0
DWIDTH 16 0
BBX 16 16 0 -2
BITMAP
0a10
7320
12be
1262
7fbe
1222
1a3e
12a0
333e
523f
1615
122b
5281
2186
0000
0000
ENDCHAR
STARTCHAR ch-351
ENCODING 351
SWIDTH 1000 0
DWIDTH 16 0
BBX 16 16 0 -2
BITMAP
2800
10fe
6810
14fe
2410
0afe
37f0
0f90
07f0
07f8
07ff
1491
224a
0004
0000
0000
ENDCHAR
STARTCHAR ch-352
ENCODING 352
SWIDTH 1000 0
DWIDTH 16 0
BBX 16 16 0 -2
BITMAP
0410
2420
247e
3f42
247e
447e
0440
3f7e
007f
3f01
2125
215b
3f01
2106
0000
0000
ENDCHAR
STARTCHAR ch-353
ENCODING 353
SWIDTH 1000 0
DWIDTH 16 0
BBX 16 16 0 -2
BITMAP
0410
0520
3cfe
0482
7efe
0482
14fe
14fe
5c80
54ff
5429
5529
5b55
6106
0000
0000
ENDCHAR
STARTCHAR ch-359
ENCODING 359
SWIDTH 1000 0
DWIDTH 16 0
BBX 16 16 0 -2
BITMAP
2210
227e
1422
3f3e
1222
123e
1220
7fbf
1220
123f
1255
12ab
2201
420e
0000
0000
ENDCHAR
STARTCHAR ch-360
ENCODING 360
SWIDTH 1000 0
DWIDTH 16 0
BBX 16 16 0 -2
BITMAP
0c10
123e
2162
40be
3f22
083e
0820
7fbf
0820
083f
3e25
225b
2201
3e0e
0000
0000
ENDCHAR
STARTCHAR ch-361
ENCODING 361
SWIDTH 1000 0
DWIDTH 16 0
BBX 16 16 0 -2
BITMAP
7790
54be
54e2
54be
76a2
553e
5420
57bf
74a0
54bf
56a5
56db
5501
568e
0000
0000
ENDCHAR
STARTCHAR ch-362
ENCODING 362
SWIDTH 1000 0
DWIDTH 16 0
BBX 16 16 0 -2
BITMAP
0810
0820
7f7e
1442
227e
497e
3e40
2a7e
3e7f
2a01
3e55
08ab
0901
0706
0000
0000
ENDCHAR
STARTCHAR ch-363
ENCODING 363
SWIDTH 1000 0
DWIDTH 16 0
BBX 16 16 0 -2
BITMAP
0810
0e3e
0862
3e3e
2222
3e3e
2220
3e3f
0820
083f
7f25
085b
0801
080e
0000
0000
ENDCHAR
STARTCHAR ch-364
ENCODING 364
SWIDTH 1000 0
DWIDTH 16 0
BBX 16 16 0 -2
BITMAP
0008
3b90
2abe
2aa2
2abe
3bbe
2aa0
2abe
2abf
3b81
2a95
2aab
2a81
4c82
0000
0000
ENDCHAR
STARTCHAR ch-367
ENCODING 367
SWIDTH 1000 0
DWIDTH 16 0
BBX 16 16 0 -2
BITMAP
1010
3fbe
64e2
24be
3fa2
24be
24a0
3fbf
0820
343f
0425
7fdb
0401
040e
0000
0000
ENDCHAR
STARTCHAR ch-368
ENCODING 368
SWIDTH 1000 0
DWIDTH 16 0
BBX 16 16 0 -2
BITMAP
3f90
20be
24e2
24be
2ea2
24be
2ea0
20bf
2ea0
2abf
2aa5
2edb
2081
418e
0000
0000
ENDCHAR
STARTCHAR ch-369
ENCODING 369
SWIDTH 1000 0
DWIDTH 16 0
BBX 16 16 0 -2
BITMAP
0420
047e
3f22
043e
0422
7fbe
1220
113f
64a0
043f
3f25
045b
0401
7f8e
0000
0000
ENDCHAR
STARTCHAR ch-370
ENCODING 370
SWIDTH 1000 0
DWIDTH 16 0
BBX 16 16 0 -2
BITMAP
2420
24fe
7e42
247e
247e
2440
7e7e
007f
7e01
42a9
7e55
4201
7e0a
4204
0000
0000
ENDCHAR
STARTCHAR ch-371
ENCODING 371
SWIDTH 1000 0
DWIDTH 16 0
BBX 16 16 0 -2
BITMAP
0110
3e3e
3f62
213e
3f22
203e
3f20
313f
3f20
313f
3f25
315b
5101
230e
0000
0000
ENDCHAR
STARTCHAR ch-372
ENCODING 372
SWIDTH 1000 0
DWIDTH 16 0
BBX 16 16 0 -2
BITMAP
1020
107e
1fa2
60be
08a2
2abe
1ca0
3ebf
08a0
1cbf
2aa5
08db
0081
031e
0000
0000
ENDCHAR
STARTCHAR ch-373
ENCODING 373
SWIDTH 1000 0
DWIDTH 16 0
BBX 16 16 0 -2
BITMAP
1010
3f3e
4262
043e
7f22
493e
4920
7f3f
2420
243f
2525
245b
2481
438e
0000
0000
ENDCHAR
STARTCHAR ch-375
ENCODING 375
SWIDTH 1000 0
DWIDTH 16 0
BBX 16 16 0 -2
BITMAP
0820
087e
7fa2
40be
40a2
103e
13a0
3abf
2aa0
2abf
6b95
1a2b
1241
61c6
0000
0000
ENDCHAR
STARTCHAR ch-376
ENCODING 376
SWIDTH 1000 0
DWIDTH 16 0
BBX 16 16 0 -2
BITMAP
0810
3f3e
0862
143e
6322
003e
7fa0
013f
3d20
253f
2525
3d5b
0101
030e
0000
0000
ENDCHAR
STARTCHAR ch-377
ENCODING 377
SWIDTH 1000 0
DWIDTH 16 0
BBX 16 16 0 -2
BITMAP
0120
1e3c
0454
1f14
0e24
1558
07f0
07d0
0410
07f0
07f8
07fc
0aa4
0aa8
0000
0000
ENDCHAR
STARTCHAR ch-379
ENCODING 379
SWIDTH 1000 0
DWIDTH 16 0
BBX 16 16 0 -2
BITMAP
1020
3e24
6264
3ebf
2224
3e24
203f
3f24
2024
3f3f
2524
5b24
013f
0e20
0000
0000
ENDCHAR
STARTCHAR ch-381
ENCODING 381
SWIDTH 1000 0
DWIDTH 16 0
BBX 16 16 0 -2
BITMAP
7710
113e
5562
553e
2222
55be
0020
773f
1120
553f
5525
555b
2201
558e
0000
0000
ENDCHAR
STARTCHAR ch-383
ENCODING 383
SWIDTH 1000 0
DWIDTH 16 0
BBX 16 16 0 -2
BITMAP
107e
3e42
627e
3e42
227e
3e14
2064
3f24
2024
3fff
2524
5b24
0124
0244
0000
0000
ENDCHAR
STARTCHAR ch-384
ENCODING 384
SWIDTH 1000 0
DWIDTH 16 0
BBX 16 16 0 -2
BITMAP
2024
3e24
627e
3e24
2224
3e3c
2024
3f24
203c
3f24
2524
5bff
0124
0e42
0000
0000
ENDCHAR
STARTCHAR ch-385
ENCODING 385
SWIDTH 1000 0
DWIDTH 16 0
BBX 16 16 0 -2
BITMAP
0420
7fbe
0062
3f3e
2122
213e
3f20
253f
0420
043f
1625
255b
4481
0c0e
0000
0000
ENDCHAR
STARTCHAR ch-386
ENCODING 386
SWIDTH 1000 0
DWIDTH 16 0
BBX 16 16 0 -2
BITMAP
1010
133e
2162
613e
3b22
213e
2120
3f3f
0a20
0a3f
0a25
0a5b
1281
618e
0000
0000
ENDCHAR
STARTCHAR ch-388
ENCODING 388
SWIDTH 1000 0
DWIDTH 16 0
BBX 16 16 0 -2
BITMAP
0420
3f7e
0422
3f3e
0422
7fbe
0020
3f3f
2120
3f3f
2125
3f5b
2101
430e
0000
0000
ENDCHAR
STARTCHAR ch-389
ENCODING 389
SWIDTH 1000 0
DWIDTH 16 0
BBX 16 16 0 -2
BITMAP
1250
24be
4962
24be
1262
003e
7f20
493f
4920
7f3f
4925
495b
7f01
411e
0000
0000
ENDCHAR
STARTCHAR ch-390
ENCODING 390
SWIDTH 1000 0
DWIDTH 16 0
BBX 16 16 0 -2
BITMAP
0410
3fbe
0462
253e
2522
253e
56a0
043f
0420
0e3f
1515
24ab
4441
040e
0000
0000
ENDCHAR
STARTCHAR ch-391
ENCODING 391
SWIDTH 1000 0
DWIDTH 16 0
BBX 16 16 0 -2
BITMAP
0810
7f3e
0862
7f3e
4922
7f3e
4920
7f3f
0820
0c3f
1a25
295b
4881
080e
0000
0000
ENDCHAR
STARTCHAR ch-392
ENCODING 392
SWIDTH 1000 0
DWIDTH 16 0
BBX 16 16 0 -2
BITMAP
0420
7fbe
0462
3fbe
04a2
7ffe
04a0
3fbf
1220
7fbf
1225
125b
0c01
3386
0000
0000
ENDCHAR
STARTCHAR ch-393
ENCODING 393
SWIDTH 1000 0
DWIDTH 16 0
BBX 16 16 0 -2
BITMAP
1020
1040
7efe
0082
7efe
42fe
7e80
00fe
3e80
08ff
7e01
08a9
2955
1002
0000
0000
ENDCHAR
STARTCHAR ch-394
ENCODING 394
SWIDTH 1000 0
DWIDTH 16 0
BBX 16 16 0 -2
BITMAP
0420
3fbe
2062
243e
3fa2
24be
3fa0
24bf
3fa0
243f
2425
2a5b
5101
20c6
0000
0000
ENDCHAR
STARTCHAR ch-395
ENCODING 395
SWIDTH 1000 0
DWIDTH 16 0
BBX 16 16 0 -2
BITMAP
0010
3f3e
2162
3f3e
2022
243e
3f20
243f
2420
3f3f
3125
315b
5101
1f0e
0000
0000
ENDCHAR
STARTCHAR ch-396
ENCODING 396
SWIDTH 1000 0
DWIDTH 16 0
BBX 16 16 0 -2
BITMAP
3f10
213e
2162
3f3e
2022
243e
3520
353f
3f20
243f
3525
355b
5501
1f1e
0000
0000
ENDCHAR
STARTCHAR ch-400
ENCODING 400
SWIDTH 1000 0
DWIDTH 16 0
BBX 16 16 0 -2
BITMAP
4220
42be
1fe2
023e
6aa2
2abe
2aa0
4abf
2aa0
2abf
32d5
222b
3001
4fce
0000
0000
ENDCHAR
STARTCHAR ch-402
ENCODING 402
SWIDTH 1000 0
DWIDTH 16 0
BBX 16 16 0 -2
BITMAP
1110
7d1e
1132
13de
7d52
555e
5550
7d5f
1150
115f
3955
556b
1241
148e
0000
0000
ENDCHAR
STARTCHAR ch-404
ENCODING 404
SWIDTH 1000 0
DWIDTH 16 0
BBX 16 16 0 -2
BITMAP
1f20
027e
1422
7fbe
0aa2
32be
0e20
043f
0420
7fbf
0e15
152b
2481
040e
0000
0000
ENDCHAR
STARTCHAR ch-406
ENCODING 406
SWIDTH 1000 0
DWIDTH 16 0
BBX 16 16 0 -2
BITMAP
3e49
082a
7f08
1c14
6aa3
0fe0
0fa0
0820
0fe0
0800
0ff8
0ffe
2542
254c
0000
0000
ENDCHAR
STARTCHAR ch-407
ENCODING 407
SWIDTH 1000 0
DWIDTH 16 0
BBX 16 16 0 -2
BITMAP
3e20
227e
3e22
223e
3e22
003e
7fa0
043f
0420
173f
1455
14ab
3c01
478e
0000
0000
ENDCHAR
STARTCHAR ch-408
ENCODING 408
SWIDTH 1000 0
DWIDTH 16 0
BBX 16 16 0 -2
BITMAP
1388
129e
12b2
7e9e
1392
129e
1290
3a9f
2b90
2a9f
2aa5
2adb
3a81
2a8e
0000
0000
ENDCHAR
STARTCHAR ch-409
ENCODING 409
SWIDTH 1000 0
DWIDTH 16 0
BBX 16 16 0 -2
BITMAP
0410
3fbe
1162
0a3e
7fa2
44be
44a0
3f3f
2520
253f
2549
25b5
0401
040e
0000
0000
ENDCHAR
STARTCHAR ch-410
ENCODING 410
SWIDTH 1000 0
DWIDTH 16 0
BBX 16 16 0 -2
BITMAP
0010
3bbe
2ae2
2abe
3ba2
003e
3fa0
003f
7fe0
103f
1f95
00ab
0081
070e
0000
0000
ENDCHAR
STARTCHAR ch-411
ENCODING 411
SWIDTH 1000 0
DWIDTH 16 0
BBX 16 16 0 -2
BITMAP
4420
443e
7762
443e
44a2
77be
0020
103f
2020
7f3f
2145
3fab
2101
3f0e
0000
0000
ENDCHAR
STARTCHAR ch-412
ENCODING 412
SWIDTH 1000 0
DWIDTH 16 0
BBX 16 16 0 -2
BITMAP
1220
7fbe
1262
003e
3f22
023e
1420
7fbf
0520
0c3f
1455
64ab
0401
180e
0000
0000
ENDCHAR
STARTCHAR ch-413
ENCODING 413
SWIDTH 1000 0
DWIDTH 16 0
BBX 16 16 0 -2
BITMAP
0020
7f7e
0022
3e3e
2222
3e3e
0020
7f3f
4920
493f
7f55
49ab
4901
7f0e
0000
0000
ENDCHAR
STARTCHAR ch-414
ENCODING 414
SWIDTH 1000 0
DWIDTH 16 0
BBX 16 16 0 -2
BITMAP
00a0
7f7e
2222
223e
3fa2
223e
2fa0
28bf
2fa0
28bf
2fd5
28ab
4f81
088e
0000
0000
ENDCHAR
STARTCHAR ch-415
ENCODING 415
SWIDTH 1000 0
DWIDTH 16 0
BBX 16 16 0 -2
BITMAP
0810
083e
7fa2
40be
52a2
213e
48a0
0a3f
0820
7f3f
0849
14b5
2201
410e
0000
0000
ENDCHAR
STARTCHAR ch-416
ENCODING 416
SWIDTH 1000 0
DWIDTH 16 0
BBX 16 16 0 -2
BITMAP
7fa0
407e
5f22
513e
5f22
513e
5f20
4a3f
7fa0
4a3f
4a15
442b
5b01
7f8e
0000
0000
ENDCHAR
STARTCHAR ch-417
ENCODING 417
SWIDTH 1000 0
DWIDTH 16 0
BBX 16 16 0 -2
BITMAP
3f20
217e
3f22
213e
3f22
103e
3fa0
40bf
04a0
24bf
2a95
20ab
3c81
070e
0000
0000
ENDCHAR
STARTCHAR ch-418
ENCODING 418
SWIDTH 1000 0
DWIDTH 16 0
BBX 16 16 0 -2
BITMAP
0120
3e7e
1522
24be
7fa2
083e
0820
7fbe
1020
3e3f
5255
12ab
0c01
338f
0000
0000
ENDCHAR
STARTCHAR ch-419
ENCODING 419
SWIDTH 1000 0
DWIDTH 16 0
BBX 16 16 0 -2
BITMAP
00a0
3f3e
2062
3f3e
2122
3f3e
2020
3fbf
2aa0
2abf
3f95
2aab
4a81
0186
0000
0000
ENDCHAR
STARTCHAR ch-420
ENCODING 420
SWIDTH 1000 0
DWIDTH 16 0
BBX 16 16 0 -2
BITMAP
7f90
44be
5ee2
043e
3f22
253e
3f20
253f
3f20
043f
7f49
04b5
0401
040e
0000
0000
ENDCHAR
STARTCHAR ch-422
ENCODING 422
SWIDTH 1000 0
DWIDTH 16 0
BBX 16 16 0 -2
BITMAP
083e
7f22
083e
3e22
223e
3ea2
07f6
07d0
07f0
07f8
0400
07fe
2542
254c
0000
0000
ENDCHAR
STARTCHAR ch-423
ENCODING 423
SWIDTH 1000 0
DWIDTH 16 0
BBX 16 16 0 -2
BITMAP
1120
7ffe
1122
043e
0422
3fbe
24a0
24bf
24a0
7fff
0425
0a5b
1101
60ce
0000
0000
ENDCHAR
STARTCHAR ch-424
ENCODING 424
SWIDTH 1000 0
DWIDTH 16 0
BBX 16 16 0 -2
BITMAP
0820
1fbe
6162
1a3e
0422
7fbe
0420
383f
04a0
3b3f
06a5
3a5b
0201
0c0e
0000
0000
ENDCHAR
STARTCHAR ch-425
ENCODING 425
SWIDTH 1000 0
DWIDTH 16 0
BBX 16 16 0 -2
BITMAP
3f20
043f
7f44
1414
6498
1927
0ff0
0fd0
0ff0
0ffc
0800
0ffe
2542
254c
0000
0000
ENDCHAR
STARTCHAR ch-426
ENCODING 426
SWIDTH 1000 0
DWIDTH 16 0
BBX 16 16 0 -2
BITMAP
3e20
227e
3e22
223e
3e22
223e
3e20
003f
0a20
093f
7f55
08ab
1401
6386
0000
0000
ENDCHAR
STARTCHAR ch-428
ENCODING 428
SWIDTH 1000 0
DWIDTH 16 0
BBX 16 16 0 -2
BITMAP
0410
0a3e
1162
24be
5f62
113e
1f20
113f
1f20
103f
3f55
51ab
1101
1f0e
0000
0000
ENDCHAR
STARTCHAR ch-429
ENCODING 429
SWIDTH 1000 0
DWIDTH 16 0
BBX 16 16 0 -2
BITMAP
1208
3c7f
0910
3f1e
2a22
4946
1ff8
2888
0ff8
0800
0ffc
0ffe
2492
2496
0000
0000
ENDCHAR
STARTCHAR ch-431
ENCODING 431
SWIDTH 1000 0
DWIDTH 16 0
BBX 16 16 0 -2
BITMAP
1554
0e38
0a28
1144
7fff
4201
47f1
0c90
17f0
2400
07e0
07fe
124a
124a
0000
0000
ENDCHAR
STARTCHAR ch-433
ENCODING 433
SWIDTH 1000 0
DWIDTH 16 0
BBX 16 16 0 -2
BITMAP
0080
7fff
4411
5ffd
0410
1ffc
3ffe
0808
1ff4
2882
0ff0
0880
0ffe
2492
0000
0000
ENDCHAR
STARTCHAR ch-434
ENCODING 434
SWIDTH 1000 0
DWIDTH 16 0
BBX 16 16 0 -2
BITMAP
1220
217e
48a2
083e
1222
3f3e
0120
7fbf
08a0
2abf
19a5
2adb
0881
330e
0000
0000
ENDCHAR
STARTCHAR ch-435
ENCODING 435
SWIDTH 1000 0
DWIDTH 16 0
BBX 16 16 0 -2
BITMAP
1080
3c9f
6504
3dc4
255f
3d55
21d5
3d15
21d5
3f55
2b55
57d7
0304
1d04
0000
0000
ENDCHAR
STARTCHAR ch-436
ENCODING 436
SWIDTH 1000 0
DWIDTH 16 0
BBX 16 16 0 -2
BITMAP
0840
7f7e
4942
517e
2442
7f7e
2440
3f7e
2440
3f7f
2455
2455
3f01
2002
0000
0000
ENDCHAR
STARTCHAR ch-437
ENCODING 437
SWIDTH 1000 0
DWIDTH 16 0
BBX 16 16 0 -2
BITMAP
2010
3fbe
40e2
2abe
3ea2
08be
7120
203f
3fa0
40bf
2aa5
3edb
0881
710e
0000
0000
ENDCHAR
STARTCHAR ch-438
ENCODING 438
SWIDTH 1000 0
DWIDTH 16 0
BBX 16 16 0 -2
BITMAP
0220
3ffe
2222
2fbe
22a2
3ffe
22a0
2fbf
2220
223f
2fa5
28db
4881
0f8e
0000
0000
ENDCHAR
STARTCHAR ch-439
ENCODING 439
SWIDTH 1000 0
DWIDTH 16 0
BBX 16 16 0 -2
BITMAP
0820
7f3e
4162
493e
3e22
083e
3e20
083f
7f20
083f
3e55
22ab
2201
3e0e
0000
0000
ENDCHAR
STARTCHAR ch-440
ENCODING 440
SWIDTH 1000 0
DWIDTH 16 0
BBX 16 16 0 -2
BITMAP
0008
3b90
08be
08a2
3bbe
2222
223e
3bbe
08bf
6b81
0895
6bab
0881
3306
0000
0000
ENDCHAR
STARTCHAR ch-441
ENCODING 441
SWIDTH 1000 0
DWIDTH 16 0
BBX 16 16 0 -2
BITMAP
1010
6f3e
4562
453e
5522
753e
4a20
003f
7f20
493f
7f55
49ab
7f01
410e
0000
0000
ENDCHAR
STARTCHAR ch-442
ENCODING 442
SWIDTH 1000 0
DWIDTH 16 0
BBX 16 16 0 -2
BITMAP
0410
35be
0462
35be
0a22
71fe
1f20
113f
1f20
113f
1f55
11ab
1101
210e
0000
0000
ENDCHAR
STARTCHAR ch-443
ENCODING 443
SWIDTH 1000 0
DWIDTH 16 0
BBX 16 16 0 -2
BITMAP
1f20
113e
1762
153e
7fa2
40be
1f20
113f
1f20
113f
1f55
11ab
1101
110e
0000
0000
ENDCHAR
STARTCHAR ch-444
ENCODING 444
SWIDTH 1000 0
DWIDTH 16 0
BBX 16 16 0 -2
BITMAP
1110
0a3e
7fe2
0a3e
3fa2
0abe
7fe0
0abf
3fa0
0a3f
0a25
1b5b
2a81
4a4e
0000
0000
ENDCHAR
STARTCHAR ch-446
ENCODING 446
SWIDTH 1000 0
DWIDTH 16 0
BBX 16 16 0 -2
BITMAP
0818
7f24
0852
08bd
3e64
223c
3e3c
2220
3e3e
0820
083f
7f29
0855
0802
0000
0000
ENDCHAR
STARTCHAR ch-447
ENCODING 447
SWIDTH 1000 0
DWIDTH 16 0
BBX 16 16 0 -2
BITMAP
0410
7fff
1111
3e3e
0909
3f3f
0ff8
1808
0ff8
0ff8
0800
0ff8
0ffe
2492
0000
0000
ENDCHAR
STARTCHAR ch-449
ENCODING 449
SWIDTH 1000 0
DWIDTH 16 0
BBX 16 16 0 -2
BITMAP
0020
20be
1162
003e
3fa2
113e
20a0
407f
3fa0
2abf
2aa5
2adb
2a81
7fce
0000
0000
ENDCHAR
STARTCHAR ch-450
ENCODING 450
SWIDTH 1000 0
DWIDTH 16 0
BBX 16 16 0 -2
BITMAP
0020
1e40
32fe
6a82
14fe
38fe
2880
7efe
08ff
7f01
0855
2aab
2a01
3e0e
0000
0000
ENDCHAR
STARTCHAR ch-451
ENCODING 451
SWIDTH 1000 0
DWIDTH 16 0
BBX 16 16 0 -2
BITMAP
3f10
213e
3f22
213e
3f22
043e
7fa0
40bf
1220
123f
7fa5
125b
0c01
338e
0000
0000
ENDCHAR
STARTCHAR ch-453
ENCODING 453
SWIDTH 1000 0
DWIDTH 16 0
BBX 16 16 0 -2
BITMAP
3fa0
0a7e
0a22
3fbe
2aa2
2abe
3fa0
043f
3fa0
043f
0e25
155b
2481
444e
0000
0000
ENDCHAR
STARTCHAR ch-455
ENCODING 455
SWIDTH 1000 0
DWIDTH 16 0
BBX 16 16 0 -2
BITMAP
0408
7fdf
3fb1
001f
7fd1
5f5f
0810
1f9f
1290
1f9f
1f05
1fc9
5551
55e3
0000
0000
ENDCHAR
STARTCHAR ch-456
ENCODING 456
SWIDTH 1000 0
DWIDTH 16 0
BBX 16 16 0 -2
BITMAP
1001
3e7e
624e
3e48
227f
3e69
207f
3f68
206e
3f60
257c
5bb4
0155
0e27
0000
0000
ENDCHAR
STARTCHAR ch-458
ENCODING 458
SWIDTH 1000 0
DWIDTH 16 0
BBX 16 16 0 -2
BITMAP
7f20
007e
3e22
223e
3e22
003e
7f20
413f
6320
553f
7f55
49ab
4901
410e
0000
0000
ENDCHAR
STARTCHAR ch-459
ENCODING 459
SWIDTH 1000 0
DWIDTH 16 0
BBX 16 16 0 -2
BITMAP
1110
3fbe
1162
043e
0a22
113e
2ea0
447f
1f20
043f
0e55
152b
2481
0c02
0000
0000
ENDCHAR
STARTCHAR ch-460
ENCODING 460
SWIDTH 1000 0
DWIDTH 16 0
BBX 16 16 0 -2
BITMAP
107e
3e48
6248
3e7e
2248
3e7e
2048
3f48
207f
3f25
2525
5b5b
0101
0e0e
0000
0000
ENDCHAR
STARTCHAR ch-461
ENCODING 461
SWIDTH 1000 0
DWIDTH 16 0
BBX 16 16 0 -2
BITMAP
1020
3f3e
6162
3f3e
2122
3f3e
2120
3f3f
0420
7fbf
0c25
165b
6581
040e
0000
0000
ENDCHAR
STARTCHAR ch-462
ENCODING 462
SWIDTH 1000 0
DWIDTH 16 0
BBX 16 16 0 -2
BITMAP
1010
3f3e
5162
1f3e
1122
1f3e
0420
3fbf
0420
0e3f
1515
64eb
1f01
040e
0000
0000
ENDCHAR
STARTCHAR ch-463
ENCODING 463
SWIDTH 1000 0
DWIDTH 16 0
BBX 16 16 0 -2
BITMAP
0820
087e
7fa2
083e
3f22
213e
3f20
3f3f
2120
3f3f
2155
7fab
1201
210e
0000
0000
ENDCHAR
STARTCHAR ch-464
ENCODING 464
SWIDTH 1000 0
DWIDTH 16 0
BBX 16 16 0 -2
BITMAP
1f10
113e
1f62
113e
1f22
3fbe
2020
2f3f
2020
3fbf
2a55
2aab
4901
1cce
0000
0000
ENDCHAR
STARTCHAR ch-465
ENCODING 465
SWIDTH 1000 0
DWIDTH 16 0
BBX 16 16 0 -2
BITMAP
2220
3bbe
5562
003e
1022
083e
0420
3f3f
0020
123f
1255
12ab
0c01
7f8e
0000
0000
ENDCHAR
STARTCHAR ch-466
ENCODING 466
SWIDTH 1000 0
DWIDTH 16 0
BBX 16 16 0 -2
BITMAP
0410
7fde
0432
3f9e
2492
3f9e
3f90
045f
7fd0
011f
7fd5
212b
1101
030e
0000
0000
ENDCHAR
STARTCHAR ch-467
ENCODING 467
SWIDTH 1000 0
DWIDTH 16 0
BBX 16 16 0 -2
BITMAP
0408
0410
3fbe
2022
293e
2922
3fbe
293e
293f
2f01
2915
202b
5541
1546
0000
0000
ENDCHAR
STARTCHAR ch-469
ENCODING 469
SWIDTH 1000 0
DWIDTH 16 0
BBX 16 16 0 -2
BITMAP
0088
7dff
4688
44fe
7cfe
02ff
0ff0
07d0
0410
07f0
07f8
07fe
1542
154c
0000
0000
ENDCHAR
STARTCHAR ch-470
ENCODING 470
SWIDTH 1000 0
DWIDTH 16 0
BBX 16 16 0 -2
BITMAP
7f3c
5025
7e47
483e
7f14
5408
7f77
1ff8
2888
0ff8
0800
0ffc
0ffe
2492
0000
0000
ENDCHAR
STARTCHAR ch-471
ENCODING 471
SWIDTH 1000 0
DWIDTH 16 0
BBX 16 16 0 -2
BITMAP
0008
7fd0
403e
4712
451e
4512
471e
401e
5ddf
5541
5555
5dcb
4015
7fc2
0000
0000
ENDCHAR
STARTCHAR ch-472
ENCODING 472
SWIDTH 1000 0
DWIDTH 16 0
BBX 16 16 0 -2
BITMAP
0420
7fe0
3fbf
24d4
3f88
1514
24a3
1ff8
2888
0ff8
0800
0ffc
0ffe
2492
0000
0000
ENDCHAR
STARTCHAR ch-473
ENCODING 473
SWIDTH 1000 0
DWIDTH 16 0
BBX 16 16 0 -2
BITMAP
0410
3f90
7ffc
1114
3fb4
3fad
0447
1ff8
2888
0ff8
0800
0ffc
0ffe
2492
0000
0000
ENDCHAR
STARTCHAR ch-474
ENCODING 474
SWIDTH 1000 0
DWIDTH 16 0
BBX 16 16 0 -2
BITMAP
3b90
2abe
4ce2
2abe
4ca2
153e
0a20
113f
64e0
043f
1a15
052b
1a01
3c02
0000
0000
ENDCHAR
STARTCHAR ch-475
ENCODING 475
SWIDTH 1000 0
DWIDTH 16 0
BBX 16 16 0 -2
BITMAP
0210
3fde
2232
2fde
3ff2
2fde
2210
3fdf
3250
3fdf
3255
3feb
5241
1242
0000
0000
ENDCHAR
STARTCHAR ch-476
ENCODING 476
SWIDTH 1000 0
DWIDTH 16 0
BBX 16 16 0 -2
BITMAP
0810
3f3e
2962
7fbe
2922
3f3e
7fa0
48bf
7fa0
123f
7f95
122b
0c01
330e
0000
0000
ENDCHAR
STARTCHAR ch-477
ENCODING 477
SWIDTH 1000 0
DWIDTH 16 0
BBX 16 16 0 -2
BITMAP
3fa0
24fe
3fa2
24be
3fa2
153e
7fe0
153f
7fe0
043f
3f95
042b
0401
040e
0000
0000
ENDCHAR
STARTCHAR ch-478
ENCODING 478
SWIDTH 1000 0
DWIDTH 16 0
BBX 16 16 0 -2
BITMAP
0820
7f3e
0862
5d3e
2a22
5d3e
0820
5d3f
2a20
5d3f
0855
142b
2201
41c2
0000
0000
ENDCHAR
STARTCHAR ch-479
ENCODING 479
SWIDTH 1000 0
DWIDTH 16 0
BBX 16 16 0 -2
BITMAP
0840
7f7e
20a0
3e3e
2248
4e7f
0022
1ff8
2888
0ff8
0800
0ffc
0ffe
2492
0000
0000
ENDCHAR
STARTCHAR ch-481
ENCODING 481
SWIDTH 1000 0
DWIDTH 16 0
BBX 16 16 0 -2
BITMAP
1010
203e
7fd2
2a9e
2a92
2a9e
7fd0
2a9f
2a90
2a9f
7fd5
002b
4a81
4a46
0000
0000
ENDCHAR
STARTCHAR ch-482
ENCODING 482
SWIDTH 1000 0
DWIDTH 16 0
BBX 16 16 0 -2
BITMAP
3fff
2520
3fbf
2249
2a88
2f94
4422
1ff8
2888
0ff8
0800
0ffc
0ffe
2492
0000
0000
ENDCHAR
STARTCHAR ch-483
ENCODING 483
SWIDTH 1000 0
DWIDTH 16 0
BBX 16 16 0 -2
BITMAP
7fa0
127e
7fa2
52be
7fa2
003e
3f20
213f
3f20
213f
3f55
082b
7f81
080e
0000
0000
ENDCHAR
STARTCHAR ch-484
ENCODING 484
SWIDTH 1000 0
DWIDTH 16 0
BBX 16 16 0 -2
BITMAP
7710
553e
7762
003e
7f22
493e
7f20
493f
7f20
083f
7f25
085b
0801
080e
0000
0000
ENDCHAR
STARTCHAR ch-485
ENCODING 485
SWIDTH 1000 0
DWIDTH 16 0
BBX 16 16 0 -2
BITMAP
0808
1212
7c7c
0909
7f7f
2aaa
0ff8
0fe8
0ff8
0ff8
0ffe
1522
2512
0004
0000
0000
ENDCHAR
STARTCHAR ch-486
ENCODING 486
SWIDTH 1000 0
DWIDTH 16 0
BBX 16 16 0 -2
BITMAP
0020
247e
2422
7fbe
2422
3f3e
2420
3f3f
2420
3fbf
2025
005b
2a81
2a4e
0000
0000
ENDCHAR
STARTCHAR ch-488
ENCODING 488
SWIDTH 1000 0
DWIDTH 16 0
BBX 16 16 0 -2
BITMAP
1110
7fde
1132
7fde
1512
151e
7fd0
151f
7fd0
041f
3f95
042b
0401
0406
0000
0000
ENDCHAR
STARTCHAR ch-489
ENCODING 489
SWIDTH 1000 0
DWIDTH 16 0
BBX 16 16 0 -2
BITMAP
4920
2a3f
7f52
5d12
6b0c
4933
3ff8
5108
1ff8
1000
1ffc
1ffe
4922
4926
0000
0000
ENDCHAR
STARTCHAR ch-491
ENCODING 491
SWIDTH 1000 0
DWIDTH 16 0
BBX 16 16 0 -2
BITMAP
0410
3f9e
04b2
7fde
0492
3f9e
0410
555f
75d0
445f
7fd5
446b
75c1
554e
0000
0000
ENDCHAR
STARTCHAR ch-492
ENCODING 492
SWIDTH 1000 0
DWIDTH 16 0
BBX 16 16 0 -2
BITMAP
1220
3f7e
1222
1e3e
0022
7fbe
0020
3f3f
2520
3f3f
2525
3f5b
1201
210e
0000
0000
ENDCHAR
STARTCHAR ch-493
ENCODING 493
SWIDTH 1000 0
DWIDTH 16 0
BBX 16 16 0 -2
BITMAP
0088
7f1f
24b1
151f
7fd1
0e1f
1510
249f
4450
7fdf
4445
7fc9
4451
7fe3
0000
0000
ENDCHAR
STARTCHAR ch-494
ENCODING 494
SWIDTH 1000 0
DWIDTH 16 0
BBX 16 16 0 -2
BITMAP
0090
3f3e
0412
7fde
1112
2e9e
4a50
0e10
001f
3f9f
2e95
2aab
2e81
2186
0000
0000
ENDCHAR
STARTCHAR ch-495
ENCODING 495
SWIDTH 1000 0
DWIDTH 16 0
BBX 16 16 0 -2
BITMAP
0420
7fbe
0c62
52be
2122
5fbe
1160
1f3f
1120
1f3f
0455
152b
2481
4c4e
0000
0000
ENDCHAR
STARTCHAR ch-496
ENCODING 496
SWIDTH 1000 0
DWIDTH 16 0
BBX 16 16 0 -2
BITMAP
0410
7fff
0410
17f4
73e7
1224
73e7
0ff8
1888
2ff8
0800
0ff8
0ffe
2492
0000
0000
ENDCHAR
STARTCHAR ch-498
ENCODING 498
SWIDTH 1000 0
DWIDTH 16 0
BBX 16 16 0 -2
BITMAP
080a
7f09
3e7f
2218
3e29
2a49
598f
1ff8
2888
0ff8
0800
0ffc
0ffe
2492
0000
0000
ENDCHAR
STARTCHAR ch-499
ENCODING 499
SWIDTH 1000 0
DWIDTH 16 0
BBX 16 16 0 -2
BITMAP
7bd0
4a7e
7bd2
4a5e
7bd2
405e
4f50
495f
4f50
495f
4f55
496b
4941
5346
0000
0000
ENDCHAR
STARTCHAR ch-500
ENCODING 500
SWIDTH 1000 0
DWIDTH 16 0
BBX 16 16 0 -2
BITMAP
7bd0
4a7e
7bd2
4a5e
7bd2
445e
4450
5f5f
4450
445f
4e55
556b
4441
44c6
0000
0000
ENDCHAR
STARTCHAR ch-501
ENCODING 501
SWIDTH 1000 0
DWIDTH 16 0
BBX 16 16 0 -2
BITMAP
3fa0
20fe
3fa2
24be
3fa2
253e
3fe0
243f
2fa0
28bf
3fa5
28db
4f81
088e
0000
0000
ENDCHAR
STARTCHAR ch-502
ENCODING 502
SWIDTH 1000 0
DWIDTH 16 0
BBX 16 16 0 -2
BITMAP
7fa0
52fe
7fa2
003e
3f22
213e
3f20
213f
3f20
213f
3f25
005b
1201
210e
0000
0000
ENDCHAR
STARTCHAR ch-503
ENCODING 503
SWIDTH 1000 0
DWIDTH 16 0
BBX 16 16 0 -2
BITMAP
2220
7f3e
1462
7f3e
5522
673e
5d20
413f
7f20
043f
7f55
04ab
2401
0c0e
0000
0000
ENDCHAR
STARTCHAR ch-504
ENCODING 504
SWIDTH 1000 0
DWIDTH 16 0
BBX 16 16 0 -2
BITMAP
1f20
027e
1422
7fbe
1522
643e
0c20
7fbf
52a0
52bf
61a5
5cdb
5481
5d8e
0000
0000
ENDCHAR
STARTCHAR ch-505
ENCODING 505
SWIDTH 1000 0
DWIDTH 16 0
BBX 16 16 0 -2
BITMAP
0040
3fff
2248
24fe
2d88
24fe
24fe
2488
25fe
23f8
2648
23f8
43fe
0aa2
0000
0000
ENDCHAR
STARTCHAR ch-506
ENCODING 506
SWIDTH 1000 0
DWIDTH 16 0
BBX 16 16 0 -2
BITMAP
7c7c
4444
7da8
1030
5cce
507c
7c44
047c
0ff0
1890
2ff0
0ff8
0ffe
2492
0000
0000
ENDCHAR
STARTCHAR ch-507
ENCODING 507
SWIDTH 1000 0
DWIDTH 16 0
BBX 16 16 0 -2
BITMAP
1048
3df8
641f
3df2
2512
3df2
200a
3dea
202a
3e4a
2bfa
564a
0244
0ccb
0000
0000
ENDCHAR
STARTCHAR ch-509
ENCODING 509
SWIDTH 1000 0
DWIDTH 16 0
BBX 16 16 0 -2
BITMAP
095c
3084
1d5c
1c9c
1144
7fff
4201
47f1
0fd0
07f0
07f0
07fe
1542
154c
0000
0000
ENDCHAR
STARTCHAR ch-510
ENCODING 510
SWIDTH 1000 0
DWIDTH 16 0
BBX 16 16 0 -2
BITMAP
0408
3f9f
1131
7fdf
0011
3f9f
2090
3f9f
2090
3f9f
0415
22ab
28c1
4f83
0000
0000
ENDCHAR
STARTCHAR ch-511
ENCODING 511
SWIDTH 1000 0
DWIDTH 16 0
BBX 16 16 0 -2
BITMAP
3f88
20be
3f94
207f
3f88
50be
1f88
0800
1ff8
2888
0ff8
0ffc
0ffe
2492
0000
0000
ENDCHAR
ENDFONT
