STARTFONT 2.1
FONT big5.9e00.16
SIZE 16 72 72
FONTBOUNDINGBOX 16 16 0 -2
STARTPROPERTIES 4
FONT_DESCENT 2
FONT_ASCENT 14
DEFAULT_CHAR 0
COPYRIGHT "Copyright (c) 1992 AT&T - All rights reserved."
ENDPROPERTIES
CHARS 218
STARTCHAR ch-0
ENCODING 0
SWIDTH 1000 0
DWIDTH 16 0
BBX 16 16 0 -2
BITMAP
3f90
2abe
2ae2
3fbe
2022
3fbe
48a0
3ebf
2aa0
3ebf
09a9
7fa9
00d5
0302
0000
0000
ENDCHAR
STARTCHAR ch-1
ENCODING 1
SWIDTH 1000 0
DWIDTH 16 0
BBX 16 16 0 -2
BITMAP
0080
7fff
1000
1ffc
0ff8
0808
0ff8
3c8e
25ea
3d6a
25ee
3dea
25fb
4d53
0000
0000
ENDCHAR
STARTCHAR ch-2
ENCODING 2
SWIDTH 1000 0
DWIDTH 16 0
BBX 16 16 0 -2
BITMAP
4090
2f3e
2aa2
0b3e
4422
293e
2e20
043f
08a0
0fbf
2215
4fab
4881
5043
0000
0000
ENDCHAR
STARTCHAR ch-3
ENCODING 3
SWIDTH 1000 0
DWIDTH 16 0
BBX 16 16 0 -2
BITMAP
1044
3e28
62ff
3e10
22fe
3e10
20ff
3e22
20c9
3e48
2bff
56ca
0345
06cb
0000
0000
ENDCHAR
STARTCHAR ch-4
ENCODING 4
SWIDTH 1000 0
DWIDTH 16 0
BBX 16 16 0 -2
BITMAP
2010
7e3f
3e52
3e12
7f8c
210c
4e33
0200
07f0
0fd0
07f0
07f8
07fe
1256
0000
0000
ENDCHAR
STARTCHAR ch-5
ENCODING 5
SWIDTH 1000 0
DWIDTH 16 0
BBX 16 16 0 -2
BITMAP
7fc8
4a5f
7fd1
041f
3f91
041f
7fd0
111f
3f90
041f
7fd5
0415
042b
0402
0000
0000
ENDCHAR
STARTCHAR ch-6
ENCODING 6
SWIDTH 1000 0
DWIDTH 16 0
BBX 16 16 0 -2
BITMAP
0408
079f
3fd1
245f
3f91
271f
2f90
289f
2f90
3f9f
4495
3fd5
112b
2082
0000
0000
ENDCHAR
STARTCHAR ch-7
ENCODING 7
SWIDTH 1000 0
DWIDTH 16 0
BBX 16 16 0 -2
BITMAP
0408
7fdf
3f91
2e9f
2a91
2e9f
3f90
1f1f
1110
1f1f
1101
1f15
002b
7fc3
0000
0000
ENDCHAR
STARTCHAR ch-9
ENCODING 9
SWIDTH 1000 0
DWIDTH 16 0
BBX 16 16 0 -2
BITMAP
083e
0822
7f3e
083e
1cff
2a7f
49a5
0849
1ffb
2888
0ff8
0ffc
0ffe
2492
0000
0000
ENDCHAR
STARTCHAR ch-11
ENCODING 11
SWIDTH 1000 0
DWIDTH 16 0
BBX 16 16 0 -2
BITMAP
0408
7fdf
4071
6cdf
4911
0f1f
0010
3f9f
2a90
7fdf
0005
3f89
0411
1c23
0000
0000
ENDCHAR
STARTCHAR ch-13
ENCODING 13
SWIDTH 1000 0
DWIDTH 16 0
BBX 16 16 0 -2
BITMAP
7fd0
153e
2492
7fde
4452
6ede
5550
6edf
4450
6edf
5555
6eeb
4441
4446
0000
0000
ENDCHAR
STARTCHAR ch-15
ENCODING 15
SWIDTH 1000 0
DWIDTH 16 0
BBX 16 16 0 -2
BITMAP
1108
7bdf
1131
7fdf
4051
1f1f
0010
3fdf
0a90
171f
0b03
1685
2a49
1613
0000
0000
ENDCHAR
STARTCHAR ch-16
ENCODING 16
SWIDTH 1000 0
DWIDTH 16 0
BBX 16 16 0 -2
BITMAP
7bc8
4a5f
2971
4a5f
18d1
121f
3fd0
621f
3fd0
221f
3fc5
2209
3fd1
2003
0000
0000
ENDCHAR
STARTCHAR ch-17
ENCODING 17
SWIDTH 1000 0
DWIDTH 16 0
BBX 16 16 0 -2
BITMAP
2846
13f5
28df
4cc4
15e4
252a
5df1
1ff8
2888
0ff8
0800
0ffc
0ffe
2492
0000
0000
ENDCHAR
STARTCHAR ch-18
ENCODING 18
SWIDTH 1000 0
DWIDTH 16 0
BBX 16 16 0 -2
BITMAP
090c
11c4
1d1c
11c4
1d5c
7fff
180c
6ffb
1888
0ff8
0800
0ffc
0ffe
2492
0000
0000
ENDCHAR
STARTCHAR ch-19
ENCODING 19
SWIDTH 1000 0
DWIDTH 16 0
BBX 16 16 0 -2
BITMAP
3f88
249f
3fb1
249f
3f91
001f
7bd0
5b5f
5b50
5b5f
7bc9
5b51
5b61
7bc3
0000
0000
ENDCHAR
STARTCHAR ch-20
ENCODING 20
SWIDTH 1000 0
DWIDTH 16 0
BBX 16 16 0 -2
BITMAP
20fc
2084
3cfc
4884
10fc
7c48
54fc
7c48
55fe
7c84
0122
2aa9
5470
54a8
0000
0000
ENDCHAR
STARTCHAR ch-21
ENCODING 21
SWIDTH 1000 0
DWIDTH 16 0
BBX 16 16 0 -2
BITMAP
0408
071f
7ff1
443f
5f91
479f
4f90
4a9f
4f90
4a9f
4f85
1fc9
1551
3fe3
0000
0000
ENDCHAR
STARTCHAR ch-23
ENCODING 23
SWIDTH 1000 0
DWIDTH 16 0
BBX 16 16 0 -2
BITMAP
087c
7f40
147c
7f04
3e7d
3e4a
3e55
467f
1ff8
0888
0ff8
0ffc
0ffe
2496
0000
0000
ENDCHAR
STARTCHAR ch-25
ENCODING 25
SWIDTH 1000 0
DWIDTH 16 0
BBX 16 16 0 -2
BITMAP
0810
1420
227e
5d42
007e
7f42
557e
7f40
007e
7f40
557f
7f01
5555
4357
0000
0000
ENDCHAR
STARTCHAR ch-26
ENCODING 26
SWIDTH 1000 0
DWIDTH 16 0
BBX 16 16 0 -2
BITMAP
3de8
253f
3df1
253f
3df1
2531
3dff
2530
4a1f
0890
7fff
0505
0209
1d93
0000
0000
ENDCHAR
STARTCHAR ch-27
ENCODING 27
SWIDTH 1000 0
DWIDTH 16 0
BBX 16 16 0 -2
BITMAP
1208
1210
7fbe
1222
3bbe
2aa2
3bbe
143e
3fbf
5401
1f29
1f55
1429
1f86
0000
0000
ENDCHAR
STARTCHAR ch-29
ENCODING 29
SWIDTH 1000 0
DWIDTH 16 0
BBX 16 16 0 -2
BITMAP
7bc8
003e
7bd2
5ade
6b52
041e
3fd0
3fdf
295f
3fd5
356b
5981
1dc6
0000
0000
0000
ENDCHAR
STARTCHAR ch-30
ENCODING 30
SWIDTH 1000 0
DWIDTH 16 0
BBX 16 16 0 -2
BITMAP
1084
27e9
7bfe
2409
7fff
03e0
5635
57f5
0c90
17f0
0400
07fe
124a
2496
0000
0000
ENDCHAR
STARTCHAR ch-117
ENCODING 117
SWIDTH 1000 0
DWIDTH 16 0
BBX 16 16 0 -2
BITMAP
0100
0108
01fc
0100
2102
3fff
2492
2222
2942
2492
214a
2222
2492
3ffe
0000
0000
ENDCHAR
STARTCHAR ch-121
ENCODING 121
SWIDTH 1000 0
DWIDTH 16 0
BBX 16 16 0 -2
BITMAP
1004
1006
1e05
10ff
7e84
4af4
6a84
5684
6af4
56d5
6ad6
4b75
420b
7e11
0000
0000
ENDCHAR
STARTCHAR ch-122
ENCODING 122
SWIDTH 1000 0
DWIDTH 16 0
BBX 16 16 0 -2
BITMAP
1042
1cff
1010
7f7e
4110
49ff
6320
5522
693f
5548
6348
4109
7fff
4100
0000
0000
ENDCHAR
STARTCHAR ch-124
ENCODING 124
SWIDTH 1000 0
DWIDTH 16 0
BBX 16 16 0 -2
BITMAP
1010
1028
1c44
1082
117d
7e00
4aee
6aaa
56aa
6aaa
56ee
6a44
4aaa
7f11
0000
0000
ENDCHAR
STARTCHAR ch-125
ENCODING 125
SWIDTH 1000 0
DWIDTH 16 0
BBX 16 16 0 -2
BITMAP
0010
7f20
447f
449e
7f10
417f
7f55
446b
4455
7f7f
1ffc
1224
1224
7fff
0000
0000
ENDCHAR
STARTCHAR ch-127
ENCODING 127
SWIDTH 1000 0
DWIDTH 16 0
BBX 16 16 0 -2
BITMAP
0080
0042
1fff
1120
1ffc
1124
1124
1ffc
1420
1420
17be
2420
4521
061f
0000
0000
ENDCHAR
STARTCHAR ch-128
ENCODING 128
SWIDTH 1000 0
DWIDTH 16 0
BBX 16 16 0 -2
BITMAP
0080
3ffe
2220
2ffc
2224
2ffc
2420
27bc
4420
07bc
1004
1ff8
1000
1ffe
0000
0000
ENDCHAR
STARTCHAR ch-130
ENCODING 130
SWIDTH 1000 0
DWIDTH 16 0
BBX 16 16 0 -2
BITMAP
0080
1ffe
1220
1ffc
1224
1ffc
1420
17bc
1422
179e
13f0
2210
4211
0c0f
0000
0000
ENDCHAR
STARTCHAR ch-131
ENCODING 131
SWIDTH 1000 0
DWIDTH 16 0
BBX 16 16 0 -2
BITMAP
0080
3fff
2220
3ffe
2222
3ffe
2820
2f3c
2822
2822
4f3e
0000
2222
2222
0000
0000
ENDCHAR
STARTCHAR ch-134
ENCODING 134
SWIDTH 1000 0
DWIDTH 16 0
BBX 16 16 0 -2
BITMAP
0080
3ffe
2220
2ffc
2224
2ffe
27bc
2420
27bc
27f8
47e8
05f8
0408
3ffe
0000
0000
ENDCHAR
STARTCHAR ch-135
ENCODING 135
SWIDTH 1000 0
DWIDTH 16 0
BBX 16 16 0 -2
BITMAP
0080
3ffe
2220
2ff8
2228
3ffe
2f3c
2820
6fbe
0ff0
0080
7ffe
0888
1084
0000
0000
ENDCHAR
STARTCHAR ch-136
ENCODING 136
SWIDTH 1000 0
DWIDTH 16 0
BBX 16 16 0 -2
BITMAP
0080
3fff
2220
2ffc
2224
3ffe
2820
2f3c
2fbe
2ff8
4080
1ffc
0080
3ffe
0000
0000
ENDCHAR
STARTCHAR ch-137
ENCODING 137
SWIDTH 1000 0
DWIDTH 16 0
BBX 16 16 0 -2
BITMAP
0102
1e3c
0408
3fbf
0488
3fff
2220
2ffe
2222
3ffe
2420
27bc
4421
07bf
0000
0000
ENDCHAR
STARTCHAR ch-138
ENCODING 138
SWIDTH 1000 0
DWIDTH 16 0
BBX 16 16 0 -2
BITMAP
0888
0490
3ffe
0490
0988
3ffe
2220
2ffc
2224
3ffe
2420
27b8
4422
07be
0000
0000
ENDCHAR
STARTCHAR ch-139
ENCODING 139
SWIDTH 1000 0
DWIDTH 16 0
BBX 16 16 0 -2
BITMAP
0080
1ffe
1220
1ffc
1224
1ffc
1420
17bc
1422
179e
1248
2ffe
4248
0c46
0000
0000
ENDCHAR
STARTCHAR ch-140
ENCODING 140
SWIDTH 1000 0
DWIDTH 16 0
BBX 16 16 0 -2
BITMAP
0080
3fff
27fc
2224
2ffc
27bc
2420
47f8
0408
17f8
1ffc
0084
7fff
180c
0000
0000
ENDCHAR
STARTCHAR ch-141
ENCODING 141
SWIDTH 1000 0
DWIDTH 16 0
BBX 16 16 0 -2
BITMAP
0080
3ffe
2220
2ffc
2224
3ffc
27b8
4420
07bc
3ffe
0408
0ff8
0491
389f
0000
0000
ENDCHAR
STARTCHAR ch-142
ENCODING 142
SWIDTH 1000 0
DWIDTH 16 0
BBX 16 16 0 -2
BITMAP
0080
3ffe
27fc
2124
2ffc
27bc
2420
5ffe
1000
1ffc
1ffe
1448
2530
061e
0000
0000
ENDCHAR
STARTCHAR ch-145
ENCODING 145
SWIDTH 1000 0
DWIDTH 16 0
BBX 16 16 0 -2
BITMAP
0080
3fff
2ffc
2224
3ffc
2420
273c
47be
0438
0808
0e38
0ff8
0242
3c7e
0000
0000
ENDCHAR
STARTCHAR ch-146
ENCODING 146
SWIDTH 1000 0
DWIDTH 16 0
BBX 16 16 0 -2
BITMAP
0424
3ffe
2a24
3fbc
2aa4
2aa4
3fbc
2224
2aa4
2f7f
2a00
2fa4
4a43
0081
0000
0000
ENDCHAR
STARTCHAR ch-147
ENCODING 147
SWIDTH 1000 0
DWIDTH 16 0
BBX 16 16 0 -2
BITMAP
0410
7fff
1554
2492
1ffe
1120
1ffc
1124
1ffc
1420
17a4
1439
27a1
441f
0000
0000
ENDCHAR
STARTCHAR ch-148
ENCODING 148
SWIDTH 1000 0
DWIDTH 16 0
BBX 16 16 0 -2
BITMAP
0080
3ffe
2ffc
2224
3ffc
2738
4fbc
1f90
2528
0244
1dfe
0ff8
0808
0ff8
0000
0000
ENDCHAR
STARTCHAR ch-151
ENCODING 151
SWIDTH 1000 0
DWIDTH 16 0
BBX 16 16 0 -2
BITMAP
7f7f
0000
3f7e
2952
25ca
3fff
2220
3ffe
2222
3ffe
2820
2fbe
2820
4fbf
0000
0000
ENDCHAR
STARTCHAR ch-153
ENCODING 153
SWIDTH 1000 0
DWIDTH 16 0
BBX 16 16 0 -2
BITMAP
0040
3fff
2ffe
2ffe
279e
2451
47df
0012
1fff
1010
1f94
1f88
2895
4fa3
0000
0000
ENDCHAR
STARTCHAR ch-154
ENCODING 154
SWIDTH 1000 0
DWIDTH 16 0
BBX 16 16 0 -2
BITMAP
0040
3fff
2ffe
2ffe
279e
4451
07df
3f3e
2102
3f3e
203e
3f14
3f08
2077
0000
0000
ENDCHAR
STARTCHAR ch-155
ENCODING 155
SWIDTH 1000 0
DWIDTH 16 0
BBX 16 16 0 -2
BITMAP
0040
3fff
2ffe
2ffe
279e
2451
47df
3efe
0244
3e7c
207c
3e44
02ff
1c04
0000
0000
ENDCHAR
STARTCHAR ch-156
ENCODING 156
SWIDTH 1000 0
DWIDTH 16 0
BBX 16 16 0 -2
BITMAP
0040
3fff
2220
2ffc
2ffc
279c
27de
3fff
4220
1ffc
1224
1ffc
3fff
0888
0000
0000
ENDCHAR
STARTCHAR ch-157
ENCODING 157
SWIDTH 1000 0
DWIDTH 16 0
BBX 16 16 0 -2
BITMAP
0080
3fff
2220
2ffc
2224
2ffc
2632
279e
2204
27c4
2e7f
27d4
4244
0ccc
0000
0000
ENDCHAR
STARTCHAR ch-159
ENCODING 159
SWIDTH 1000 0
DWIDTH 16 0
BBX 16 16 0 -2
BITMAP
0808
042a
3f88
2a7f
3faa
2a88
3fa4
207f
2a94
2f54
2a2f
2fa4
4a44
0084
0000
0000
ENDCHAR
STARTCHAR ch-160
ENCODING 160
SWIDTH 1000 0
DWIDTH 16 0
BBX 16 16 0 -2
BITMAP
0040
3fff
2210
2ffe
2ffe
27df
2ffe
23f8
43f8
03f8
0ffe
07fc
0444
07fc
0000
0000
ENDCHAR
STARTCHAR ch-161
ENCODING 161
SWIDTH 1000 0
DWIDTH 16 0
BBX 16 16 0 -2
BITMAP
0040
3fff
2ffe
279e
24d1
7fff
0142
1ebc
12a4
2cb2
1004
1ffc
1ffc
2004
0000
0000
ENDCHAR
STARTCHAR ch-164
ENCODING 164
SWIDTH 1000 0
DWIDTH 16 0
BBX 16 16 0 -2
BITMAP
0080
0ffc
0ff8
0ff8
0c20
17bc
07fe
0808
7f7f
7e7e
7e7e
6464
3636
3f3f
0000
0000
ENDCHAR
STARTCHAR ch-165
ENCODING 165
SWIDTH 1000 0
DWIDTH 16 0
BBX 16 16 0 -2
BITMAP
0080
7fff
0888
0888
0888
1494
6363
0618
1884
61fb
0f10
00a0
00c0
1f00
0000
0000
ENDCHAR
STARTCHAR ch-167
ENCODING 167
SWIDTH 1000 0
DWIDTH 16 0
BBX 16 16 0 -2
BITMAP
0400
0408
7fd0
24bf
2480
555e
0a02
1102
2484
4a48
1911
061f
0900
30ff
0000
0000
ENDCHAR
STARTCHAR ch-169
ENCODING 169
SWIDTH 1000 0
DWIDTH 16 0
BBX 16 16 0 -2
BITMAP
0808
0808
7f08
2a3e
2a08
5d08
087f
1408
2214
5d22
3441
0881
1400
63ff
0000
0000
ENDCHAR
STARTCHAR ch-173
ENCODING 173
SWIDTH 1000 0
DWIDTH 16 0
BBX 16 16 0 -2
BITMAP
0820
7f7e
0882
2a7a
2a4a
5d4a
087a
0842
1f44
2241
5241
0c7f
0c00
73ff
0000
0000
ENDCHAR
STARTCHAR ch-174
ENCODING 174
SWIDTH 1000 0
DWIDTH 16 0
BBX 16 16 0 -2
BITMAP
0808
7f08
087f
2a08
2a08
5d7f
0808
2810
3f20
6242
147e
0802
1400
63ff
0000
0000
ENDCHAR
STARTCHAR ch-176
ENCODING 176
SWIDTH 1000 0
DWIDTH 16 0
BBX 16 16 0 -2
BITMAP
0810
7f10
0821
2a41
2aff
5d09
0848
147f
2288
7d08
24ff
5808
1808
27ff
0000
0000
ENDCHAR
STARTCHAR ch-180
ENCODING 180
SWIDTH 1000 0
DWIDTH 16 0
BBX 16 16 0 -2
BITMAP
0840
7f42
087f
2a82
5d26
08aa
1472
23fe
5022
1e72
32aa
4d26
102a
6024
0000
0000
ENDCHAR
STARTCHAR ch-181
ENCODING 181
SWIDTH 1000 0
DWIDTH 16 0
BBX 16 16 0 -2
BITMAP
0800
08fe
7f10
2a20
5dfe
08aa
14ba
63aa
1caa
14ba
14aa
34fe
0800
37ff
0000
0000
ENDCHAR
STARTCHAR ch-182
ENCODING 182
SWIDTH 1000 0
DWIDTH 16 0
BBX 16 16 0 -2
BITMAP
0810
7eff
0866
2a5a
2a5a
5d66
0842
147e
2210
51ff
3e91
5495
08bd
3683
0000
0000
ENDCHAR
STARTCHAR ch-183
ENCODING 183
SWIDTH 1000 0
DWIDTH 16 0
BBX 16 16 0 -2
BITMAP
1155
11ff
7d55
11ff
35ff
5955
35ff
11ff
28fe
5482
3cfe
6444
19ff
67ff
0000
0000
ENDCHAR
STARTCHAR ch-187
ENCODING 187
SWIDTH 1000 0
DWIDTH 16 0
BBX 16 16 0 -2
BITMAP
0100
0084
3ffe
2210
2212
3fff
2210
2738
26b8
2a58
2a58
3297
4210
0210
0000
0000
ENDCHAR
STARTCHAR ch-188
ENCODING 188
SWIDTH 1000 0
DWIDTH 16 0
BBX 16 16 0 -2
BITMAP
0040
1ffe
1108
1ffe
1108
139c
156a
1908
1040
1090
2120
23c8
4084
0ffe
0000
0000
ENDCHAR
STARTCHAR ch-190
ENCODING 190
SWIDTH 1000 0
DWIDTH 16 0
BBX 16 16 0 -2
BITMAP
0080
1fff
1208
1fbe
131c
16ab
1a08
1ffc
1040
13f8
1040
2ffc
4041
003f
0000
0000
ENDCHAR
STARTCHAR ch-192
ENCODING 192
SWIDTH 1000 0
DWIDTH 16 0
BBX 16 16 0 -2
BITMAP
0080
3ffe
2208
2fbe
271c
2aaa
2fde
2492
4792
0492
0794
0488
0fd4
00a2
0000
0000
ENDCHAR
STARTCHAR ch-194
ENCODING 194
SWIDTH 1000 0
DWIDTH 16 0
BBX 16 16 0 -2
BITMAP
0040
3fff
2208
2fbe
2aaa
27fc
2444
3f1f
4404
07f8
07f8
0408
07f8
0804
0000
0000
ENDCHAR
STARTCHAR ch-195
ENCODING 195
SWIDTH 1000 0
DWIDTH 16 0
BBX 16 16 0 -2
BITMAP
0220
1ffc
0220
0222
7fff
0000
0ff8
0888
0ff8
0888
0ff8
0410
0808
100c
0000
0000
ENDCHAR
STARTCHAR ch-200
ENCODING 200
SWIDTH 1000 0
DWIDTH 16 0
BBX 16 16 0 -2
BITMAP
2210
7f08
2200
3e7f
0008
7f08
0008
7f08
497f
7f08
4908
7f08
1408
227f
0000
0000
ENDCHAR
STARTCHAR ch-204
ENCODING 204
SWIDTH 1000 0
DWIDTH 16 0
BBX 16 16 0 -2
BITMAP
114e
2082
3d5e
3c9e
2142
7fff
4221
3ffe
03e0
7fff
0ff8
0be8
0ff8
1004
0000
0000
ENDCHAR
STARTCHAR ch-205
ENCODING 205
SWIDTH 1000 0
DWIDTH 16 0
BBX 16 16 0 -2
BITMAP
0078
1f80
0082
7fff
0498
19c8
06b8
1c97
62a2
01c0
06b0
188c
0284
0100
0000
0000
ENDCHAR
STARTCHAR ch-206
ENCODING 206
SWIDTH 1000 0
DWIDTH 16 0
BBX 16 16 0 -2
BITMAP
3f22
043f
7f52
0492
0e22
154a
2584
0630
188f
6492
02a0
0498
1888
0180
0000
0000
ENDCHAR
STARTCHAR ch-207
ENCODING 207
SWIDTH 1000 0
DWIDTH 16 0
BBX 16 16 0 -2
BITMAP
0310
3c10
0412
7fdf
0e10
1510
2410
0a7e
1542
35c2
0d42
3542
047e
0c42
0000
0000
ENDCHAR
STARTCHAR ch-208
ENCODING 208
SWIDTH 1000 0
DWIDTH 16 0
BBX 16 16 0 -2
BITMAP
0108
3e7f
0800
7f55
1c49
2a55
4941
147f
2208
497f
2a49
1c53
2a5f
5943
0000
0000
ENDCHAR
STARTCHAR ch-209
ENCODING 209
SWIDTH 1000 0
DWIDTH 16 0
BBX 16 16 0 -2
BITMAP
0004
1ffe
1084
16b4
1084
1ffc
0080
3ffe
0080
7fff
0000
1448
1226
2222
0000
0000
ENDCHAR
STARTCHAR ch-211
ENCODING 211
SWIDTH 1000 0
DWIDTH 16 0
BBX 16 16 0 -2
BITMAP
7fca
4449
5548
4e7f
4448
7fc8
0408
3f88
0408
0408
7fc8
0004
4a43
4a41
0000
0000
ENDCHAR
STARTCHAR ch-212
ENCODING 212
SWIDTH 1000 0
DWIDTH 16 0
BBX 16 16 0 -2
BITMAP
0008
3f88
3594
2ea2
24c3
3f9c
0400
3f80
043e
3f82
0002
2a84
2a84
4a48
0000
0000
ENDCHAR
STARTCHAR ch-213
ENCODING 213
SWIDTH 1000 0
DWIDTH 16 0
BBX 16 16 0 -2
BITMAP
7f10
4910
6b7f
5d51
4951
7f55
0814
3e14
0814
7f14
0014
5525
5545
5587
0000
0000
ENDCHAR
STARTCHAR ch-214
ENCODING 214
SWIDTH 1000 0
DWIDTH 16 0
BBX 16 16 0 -2
BITMAP
7f7f
4908
6b28
5d28
4948
7f48
087f
7f0c
080c
7f0c
0014
5524
5545
5587
0000
0000
ENDCHAR
STARTCHAR ch-216
ENCODING 216
SWIDTH 1000 0
DWIDTH 16 0
BBX 16 16 0 -2
BITMAP
3f90
2494
3592
2e90
3fff
0410
3f90
0410
3f90
02a8
2aa8
2a44
4887
0102
0000
0000
ENDCHAR
STARTCHAR ch-218
ENCODING 218
SWIDTH 1000 0
DWIDTH 16 0
BBX 16 16 0 -2
BITMAP
7f22
4922
6b22
5d22
497f
4922
7f22
0822
3e3e
0822
7f22
0022
553e
5522
0000
0000
ENDCHAR
STARTCHAR ch-219
ENCODING 219
SWIDTH 1000 0
DWIDTH 16 0
BBX 16 16 0 -2
BITMAP
0848
187e
2fa0
4819
0807
0ff8
0c98
0aa8
0ff8
1ffc
0080
7fff
1244
2122
0000
0000
ENDCHAR
STARTCHAR ch-220
ENCODING 220
SWIDTH 1000 0
DWIDTH 16 0
BBX 16 16 0 -2
BITMAP
0008
3e08
2a49
3e49
2a49
3e7f
0849
3e08
0808
7f49
0049
5549
557f
5541
0000
0000
ENDCHAR
STARTCHAR ch-221
ENCODING 221
SWIDTH 1000 0
DWIDTH 16 0
BBX 16 16 0 -2
BITMAP
0008
3e48
2a48
3e9f
2be9
3e49
0889
3ea9
09f9
7e19
0009
5511
5515
0022
0000
0000
ENDCHAR
STARTCHAR ch-222
ENCODING 222
SWIDTH 1000 0
DWIDTH 16 0
BBX 16 16 0 -2
BITMAP
0000
7f08
4908
6b08
5d0f
4908
7f08
0808
3e7f
0841
7f41
0041
557f
5541
0000
0000
ENDCHAR
STARTCHAR ch-223
ENCODING 223
SWIDTH 1000 0
DWIDTH 16 0
BBX 16 16 0 -2
BITMAP
3e10
2a10
2a3e
3ee4
2a18
2a30
3ec8
081f
3e21
0852
7f0c
0008
5510
5560
0000
0000
ENDCHAR
STARTCHAR ch-224
ENCODING 224
SWIDTH 1000 0
DWIDTH 16 0
BBX 16 16 0 -2
BITMAP
0210
3f10
2bff
3e10
2a10
3efe
0800
3e7c
0844
7f44
0044
5544
557c
0044
0000
0000
ENDCHAR
STARTCHAR ch-228
ENCODING 228
SWIDTH 1000 0
DWIDTH 16 0
BBX 16 16 0 -2
BITMAP
7f10
6b10
5d7f
4924
7f42
0891
087e
3e52
087e
7f52
007e
5510
5511
550f
0000
0000
ENDCHAR
STARTCHAR ch-229
ENCODING 229
SWIDTH 1000 0
DWIDTH 16 0
BBX 16 16 0 -2
BITMAP
3f10
2a02
2bff
3e00
2a7c
3e44
0844
3e7c
0810
7f54
0093
5511
5550
0020
0000
0000
ENDCHAR
STARTCHAR ch-230
ENCODING 230
SWIDTH 1000 0
DWIDTH 16 0
BBX 16 16 0 -2
BITMAP
7c10
55ff
5d01
7480
5480
7cee
112a
10aa
38aa
106e
7c48
0089
5509
540f
0000
0000
ENDCHAR
STARTCHAR ch-231
ENCODING 231
SWIDTH 1000 0
DWIDTH 16 0
BBX 16 16 0 -2
BITMAP
1f10
041f
7fa9
1509
2492
0ff8
0c98
0aa8
0ff8
1ffc
0080
7fff
1224
2222
0000
0000
ENDCHAR
STARTCHAR ch-232
ENCODING 232
SWIDTH 1000 0
DWIDTH 16 0
BBX 16 16 0 -2
BITMAP
1084
0888
7fff
4001
4ff9
0808
0ff8
1ffc
12a4
1ffc
0ff8
7fff
2222
4111
0000
0000
ENDCHAR
STARTCHAR ch-235
ENCODING 235
SWIDTH 1000 0
DWIDTH 16 0
BBX 16 16 0 -2
BITMAP
7f7f
4914
6b14
5d7f
7f55
0855
3e7f
0800
0808
7f08
007f
5508
5508
557f
0000
0000
ENDCHAR
STARTCHAR ch-237
ENCODING 237
SWIDTH 1000 0
DWIDTH 16 0
BBX 16 16 0 -2
BITMAP
7c10
5428
7c44
54ba
7d01
10fe
7c82
10fe
1000
7c44
01ff
2844
5444
5484
0000
0000
ENDCHAR
STARTCHAR ch-238
ENCODING 238
SWIDTH 1000 0
DWIDTH 16 0
BBX 16 16 0 -2
BITMAP
7c44
55ff
7c44
547c
7c44
107c
7c44
11ff
10a8
7ca8
00a8
28ce
5480
54ff
0000
0000
ENDCHAR
STARTCHAR ch-239
ENCODING 239
SWIDTH 1000 0
DWIDTH 16 0
BBX 16 16 0 -2
BITMAP
3e10
2afe
2a44
3e44
2a28
2bff
3e00
087e
3e42
087e
7f42
5542
557e
5542
0000
0000
ENDCHAR
STARTCHAR ch-240
ENCODING 240
SWIDTH 1000 0
DWIDTH 16 0
BBX 16 16 0 -2
BITMAP
7c10
55ff
5410
7cfe
5482
54fe
7c82
10fe
3882
10fe
7c82
01ff
2844
5482
0000
0000
ENDCHAR
STARTCHAR ch-242
ENCODING 242
SWIDTH 1000 0
DWIDTH 16 0
BBX 16 16 0 -2
BITMAP
7c40
5482
7dfe
5444
54a9
7dff
1028
384c
1092
1125
7c48
0012
2804
55f8
0000
0000
ENDCHAR
STARTCHAR ch-243
ENCODING 243
SWIDTH 1000 0
DWIDTH 16 0
BBX 16 16 0 -2
BITMAP
7fbc
4825
5f47
647c
5f28
4a10
7fef
1ffc
1494
1ffc
0080
1ffc
7fff
4411
0000
0000
ENDCHAR
STARTCHAR ch-244
ENCODING 244
SWIDTH 1000 0
DWIDTH 16 0
BBX 16 16 0 -2
BITMAP
0888
1498
27f8
47ef
0ff4
16b4
35d4
57f4
1084
13e4
1094
17f4
1558
1576
0000
0000
ENDCHAR
STARTCHAR ch-245
ENCODING 245
SWIDTH 1000 0
DWIDTH 16 0
BBX 16 16 0 -2
BITMAP
7c80
54fc
5c08
55ff
7544
7d10
11ff
3900
11fe
7dfe
0100
2afe
5482
54fe
0000
0000
ENDCHAR
STARTCHAR ch-246
ENCODING 246
SWIDTH 1000 0
DWIDTH 16 0
BBX 16 16 0 -2
BITMAP
3fff
2f8a
2e89
2fbf
2f88
2e94
2ba2
31c1
27fc
4554
07fc
07fc
0ffe
1249
0000
0000
ENDCHAR
STARTCHAR ch-247
ENCODING 247
SWIDTH 1000 0
DWIDTH 16 0
BBX 16 16 0 -2
BITMAP
0010
7cfe
5410
5cfe
55ff
7529
7dff
10fe
7cfe
1082
7cfe
0082
54fe
5501
0000
0000
ENDCHAR
STARTCHAR ch-249
ENCODING 249
SWIDTH 1000 0
DWIDTH 16 0
BBX 16 16 0 -2
BITMAP
0220
1224
0a28
7fff
0888
1084
3ffe
2082
21c2
22b2
2492
2082
208a
2084
0000
0000
ENDCHAR
STARTCHAR ch-250
ENCODING 250
SWIDTH 1000 0
DWIDTH 16 0
BBX 16 16 0 -2
BITMAP
141c
5524
3624
1442
7f81
2a00
497e
7f12
4912
6b12
6b12
6b12
4922
4b4e
0000
0000
ENDCHAR
STARTCHAR ch-251
ENCODING 251
SWIDTH 1000 0
DWIDTH 16 0
BBX 16 16 0 -2
BITMAP
2a94
1b12
0a12
7fff
2490
1510
3f9e
24aa
2eaa
35a4
24a4
24ca
2492
21a1
0000
0000
ENDCHAR
STARTCHAR ch-252
ENCODING 252
SWIDTH 1000 0
DWIDTH 16 0
BBX 16 16 0 -2
BITMAP
1410
5514
3612
14ff
7f10
2afe
1c92
3efe
2a92
3efe
2a92
2a92
2a92
2296
0000
0000
ENDCHAR
STARTCHAR ch-253
ENCODING 253
SWIDTH 1000 0
DWIDTH 16 0
BBX 16 16 0 -2
BITMAP
3ffc
2244
2244
3e7c
0240
7e7e
4242
7e7e
4242
7e7e
0200
0201
0201
03ff
0000
0000
ENDCHAR
STARTCHAR ch-255
ENCODING 255
SWIDTH 1000 0
DWIDTH 16 0
BBX 16 16 0 -2
BITMAP
0ff8
7fff
0222
3c1e
1ffc
1f7c
0140
1f7c
1144
1f7c
1144
1f7d
0141
00ff
0000
0000
ENDCHAR
STARTCHAR ch-256
ENCODING 256
SWIDTH 1000 0
DWIDTH 16 0
BBX 16 16 0 -2
BITMAP
0080
0ff8
0080
3ffe
0410
0808
7fff
4221
7e3f
3e3e
322a
2a26
3e3f
03ff
0000
0000
ENDCHAR
STARTCHAR ch-257
ENCODING 257
SWIDTH 1000 0
DWIDTH 16 0
BBX 16 16 0 -2
BITMAP
0080
0ff8
0080
3ffe
0410
0ff8
7fff
4221
7e3f
3e3e
322a
2a26
3e3f
03ff
0000
0000
ENDCHAR
STARTCHAR ch-262
ENCODING 262
SWIDTH 1000 0
DWIDTH 16 0
BBX 16 16 0 -2
BITMAP
7f7f
4155
3e55
2277
3e14
2277
3e55
0877
0855
7f77
0010
1411
2211
411f
0000
0000
ENDCHAR
STARTCHAR ch-263
ENCODING 263
SWIDTH 1000 0
DWIDTH 16 0
BBX 16 16 0 -2
BITMAP
0820
3e3f
7f64
7f10
2228
4647
3ffe
2222
3e3e
3e3e
322a
2a26
3e3f
03ff
0000
0000
ENDCHAR
STARTCHAR ch-265
ENCODING 265
SWIDTH 1000 0
DWIDTH 16 0
BBX 16 16 0 -2
BITMAP
1e3c
1e3c
7fff
0ff8
0ff8
0888
0ff8
1ffc
1224
3e3e
2222
3e3e
3e3e
03ff
0000
0000
ENDCHAR
STARTCHAR ch-266
ENCODING 266
SWIDTH 1000 0
DWIDTH 16 0
BBX 16 16 0 -2
BITMAP
3f08
217f
3f14
3fff
517f
1f08
1ffc
1224
1e3c
3e3e
2222
3e3e
3e3f
03ff
0000
0000
ENDCHAR
STARTCHAR ch-270
ENCODING 270
SWIDTH 1000 0
DWIDTH 16 0
BBX 16 16 0 -2
BITMAP
07f0
0410
07f0
1414
17f4
1414
17f4
1f7c
0140
7f7f
0944
1144
6144
0144
0000
0000
ENDCHAR
STARTCHAR ch-271
ENCODING 271
SWIDTH 1000 0
DWIDTH 16 0
BBX 16 16 0 -2
BITMAP
7fff
4001
4ff9
0808
0ff8
0808
0ff8
0808
2ffa
2222
3e3e
0220
7e3f
4222
0000
0000
ENDCHAR
STARTCHAR ch-272
ENCODING 272
SWIDTH 1000 0
DWIDTH 16 0
BBX 16 16 0 -2
BITMAP
3ffe
1004
17ff
2411
47f7
0410
07f0
0410
17f4
1144
1f7c
0140
7f7e
2144
0000
0000
ENDCHAR
STARTCHAR ch-274
ENCODING 274
SWIDTH 1000 0
DWIDTH 16 0
BBX 16 16 0 -2
BITMAP
0020
1ffc
0060
00a0
0720
03e0
0220
13e4
13e4
1224
1ffc
0220
3e3c
2222
0000
0000
ENDCHAR
STARTCHAR ch-275
ENCODING 275
SWIDTH 1000 0
DWIDTH 16 0
BBX 16 16 0 -2
BITMAP
0810
7f12
08ff
3e10
0010
3efc
2244
2244
3e44
2228
1410
7f28
2047
0182
0000
0000
ENDCHAR
STARTCHAR ch-277
ENCODING 277
SWIDTH 1000 0
DWIDTH 16 0
BBX 16 16 0 -2
BITMAP
0808
7f7f
0808
7f3e
2222
3e14
1408
7fb6
06f8
3c10
03e0
7c9f
0140
0080
0000
0000
ENDCHAR
STARTCHAR ch-278
ENCODING 278
SWIDTH 1000 0
DWIDTH 16 0
BBX 16 16 0 -2
BITMAP
0080
07f0
1084
7fff
140c
3f88
043e
1f08
007e
1f22
1114
1f08
2094
3fe2
0000
0000
ENDCHAR
STARTCHAR ch-280
ENCODING 280
SWIDTH 1000 0
DWIDTH 16 0
BBX 16 16 0 -2
BITMAP
0808
7fbe
3f08
3e3e
2214
3e08
1414
7f23
1144
1f7c
1ffc
1004
1f7c
2144
0000
0000
ENDCHAR
STARTCHAR ch-281
ENCODING 281
SWIDTH 1000 0
DWIDTH 16 0
BBX 16 16 0 -2
BITMAP
0810
3efe
7f10
3e7c
2228
3e10
1428
7f47
1ff8
2be8
4ff8
0480
7fff
0080
0000
0000
ENDCHAR
STARTCHAR ch-282
ENCODING 282
SWIDTH 1000 0
DWIDTH 16 0
BBX 16 16 0 -2
BITMAP
0808
7fbe
3f08
3e3e
2214
3e08
1414
7f23
07f8
07f0
07f0
3ffe
0850
0c3c
0000
0000
ENDCHAR
STARTCHAR ch-283
ENCODING 283
SWIDTH 1000 0
DWIDTH 16 0
BBX 16 16 0 -2
BITMAP
0808
7f7f
3e08
3e3e
3e14
1408
7f77
0fc8
3508
0236
7dff
0ff8
0808
0ff8
0000
0000
ENDCHAR
STARTCHAR ch-284
ENCODING 284
SWIDTH 1000 0
DWIDTH 16 0
BBX 16 16 0 -2
BITMAP
0808
7fbe
3f08
3e3e
3e14
141c
7f23
0ff8
0630
3ebe
07f0
0490
07f4
0ffc
0000
0000
ENDCHAR
STARTCHAR ch-286
ENCODING 286
SWIDTH 1000 0
DWIDTH 16 0
BBX 16 16 0 -2
BITMAP
0808
7f3e
3e08
223e
3e14
1408
7fb7
0490
3ffe
27f2
07f0
0080
1ffc
7fff
0000
0000
ENDCHAR
STARTCHAR ch-288
ENCODING 288
SWIDTH 1000 0
DWIDTH 16 0
BBX 16 16 0 -2
BITMAP
0604
38fe
2004
3e7c
2004
3ffc
2948
2528
2948
2528
2108
39c5
6305
0003
0000
0000
ENDCHAR
STARTCHAR ch-290
ENCODING 290
SWIDTH 1000 0
DWIDTH 16 0
BBX 16 16 0 -2
BITMAP
1008
6e28
4228
6e44
4244
7e83
007c
5424
7c24
5424
7c24
54c4
7c14
5388
0000
0000
ENDCHAR
STARTCHAR ch-291
ENCODING 291
SWIDTH 1000 0
DWIDTH 16 0
BBX 16 16 0 -2
BITMAP
1008
670a
4109
7708
417f
7f08
0008
6d08
5b08
6d14
5b22
4941
4900
6cff
0000
0000
ENDCHAR
STARTCHAR ch-292
ENCODING 292
SWIDTH 1000 0
DWIDTH 16 0
BBX 16 16 0 -2
BITMAP
1010
6710
417e
7704
4104
7f24
0024
6d24
5b18
6d18
5b24
49c3
4900
6cff
0000
0000
ENDCHAR
STARTCHAR ch-293
ENCODING 293
SWIDTH 1000 0
DWIDTH 16 0
BBX 16 16 0 -2
BITMAP
200a
2709
417f
7710
4120
7fc2
0002
4922
6d22
5b14
6d08
5b54
4962
6cc1
0000
0000
ENDCHAR
STARTCHAR ch-296
ENCODING 296
SWIDTH 1000 0
DWIDTH 16 0
BBX 16 16 0 -2
BITMAP
1020
273e
4122
7722
4154
7f08
0014
4922
6d49
5b04
6d10
5b09
4901
6cff
0000
0000
ENDCHAR
STARTCHAR ch-297
ENCODING 297
SWIDTH 1000 0
DWIDTH 16 0
BBX 16 16 0 -2
BITMAP
1020
2720
413f
7721
4141
7f3d
0025
493d
6d01
5b0a
6d04
5b01
4901
6cff
0000
0000
ENDCHAR
STARTCHAR ch-298
ENCODING 298
SWIDTH 1000 0
DWIDTH 16 0
BBX 16 16 0 -2
BITMAP
1008
2728
4128
773e
4148
7f08
003e
4908
6d08
5b7e
6d00
5b01
4901
6cff
0000
0000
ENDCHAR
STARTCHAR ch-299
ENCODING 299
SWIDTH 1000 0
DWIDTH 16 0
BBX 16 16 0 -2
BITMAP
1000
2702
417f
7710
4110
7f3e
0062
4922
6d22
5b3e
6d22
5b01
4901
6cff
0000
0000
ENDCHAR
STARTCHAR ch-300
ENCODING 300
SWIDTH 1000 0
DWIDTH 16 0
BBX 16 16 0 -2
BITMAP
0808
7708
4108
7708
417f
7f49
2a49
3e49
2a7f
3e49
2a49
2ec9
397f
6041
0000
0000
ENDCHAR
STARTCHAR ch-301
ENCODING 301
SWIDTH 1000 0
DWIDTH 16 0
BBX 16 16 0 -2
BITMAP
1010
2010
46ff
4210
7610
427e
7e04
00ff
4a04
7e44
4a24
7e04
4a54
6dc8
0000
0000
ENDCHAR
STARTCHAR ch-302
ENCODING 302
SWIDTH 1000 0
DWIDTH 16 0
BBX 16 16 0 -2
BITMAP
1000
2701
411e
7764
4124
7f3f
0024
4944
6d24
5b3f
6d20
5b5f
4980
6cff
0000
0000
ENDCHAR
STARTCHAR ch-303
ENCODING 303
SWIDTH 1000 0
DWIDTH 16 0
BBX 16 16 0 -2
BITMAP
0804
777e
4120
7720
417c
7f24
2a24
3eff
2a00
3e7e
2a42
3ec2
697e
0042
0000
0000
ENDCHAR
STARTCHAR ch-304
ENCODING 304
SWIDTH 1000 0
DWIDTH 16 0
BBX 16 16 0 -2
BITMAP
107c
2744
4144
777c
4144
7f44
007c
4944
6d44
5b7c
6d29
5b45
4901
6cff
0000
0000
ENDCHAR
STARTCHAR ch-305
ENCODING 305
SWIDTH 1000 0
DWIDTH 16 0
BBX 16 16 0 -2
BITMAP
2008
207e
4608
427e
6e08
42ff
7e00
4a3e
4a22
6e3e
5a22
6e3e
5a22
6da6
0000
0000
ENDCHAR
STARTCHAR ch-306
ENCODING 306
SWIDTH 1000 0
DWIDTH 16 0
BBX 16 16 0 -2
BITMAP
20ff
2089
4689
427e
6e08
427e
7e4a
4a7e
6e4a
5a7e
6e08
5aff
5508
6c88
0000
0000
ENDCHAR
STARTCHAR ch-307
ENCODING 307
SWIDTH 1000 0
DWIDTH 16 0
BBX 16 16 0 -2
BITMAP
107e
2042
477e
4142
777e
4142
7f7e
4908
490a
6d7f
5b08
6d54
5b62
6cc1
0000
0000
ENDCHAR
STARTCHAR ch-308
ENCODING 308
SWIDTH 1000 0
DWIDTH 16 0
BBX 16 16 0 -2
BITMAP
20ff
46be
42a2
66be
42a2
42be
7e94
54ff
7c94
5488
7c94
54ff
5201
79ff
0000
0000
ENDCHAR
STARTCHAR ch-309
ENCODING 309
SWIDTH 1000 0
DWIDTH 16 0
BBX 16 16 0 -2
BITMAP
2010
2010
4eff
42a9
6ec5
4210
7e14
4a12
4a7e
6e10
5a10
6e28
5b44
6d82
0000
0000
ENDCHAR
STARTCHAR ch-310
ENCODING 310
SWIDTH 1000 0
DWIDTH 16 0
BBX 16 16 0 -2
BITMAP
20fe
4e88
428e
6e88
42bf
7ea9
00be
4aa8
6aae
5ea0
6abc
5f54
4a15
6da7
0000
0000
ENDCHAR
STARTCHAR ch-311
ENCODING 311
SWIDTH 1000 0
DWIDTH 16 0
BBX 16 16 0 -2
BITMAP
6ef0
4252
6e54
4228
7e42
00fc
5410
7c24
54fe
7c10
56ff
54a8
7a47
5182
0000
0000
ENDCHAR
STARTCHAR ch-312
ENCODING 312
SWIDTH 1000 0
DWIDTH 16 0
BBX 16 16 0 -2
BITMAP
2048
47ff
4248
76fe
424a
43ff
7e4a
54fe
5448
7ccc
554a
7c49
5201
79ff
0000
0000
ENDCHAR
STARTCHAR ch-315
ENCODING 315
SWIDTH 1000 0
DWIDTH 16 0
BBX 16 16 0 -2
BITMAP
0400
1ffc
1fc4
11fc
1ffc
3ffe
2082
3ffe
2082
3ffe
0410
7fff
0410
0810
0000
0000
ENDCHAR
STARTCHAR ch-317
ENCODING 317
SWIDTH 1000 0
DWIDTH 16 0
BBX 16 16 0 -2
BITMAP
3c40
6440
3c40
3c40
25fc
3c44
7e44
5244
7e44
5244
7e44
2445
7e85
4407
0000
0000
ENDCHAR
STARTCHAR ch-318
ENCODING 318
SWIDTH 1000 0
DWIDTH 16 0
BBX 16 16 0 -2
BITMAP
0800
1f00
197e
1508
1f08
3f88
24ff
3f88
2488
3f88
0008
7fc8
1108
2108
0000
0000
ENDCHAR
STARTCHAR ch-320
ENCODING 320
SWIDTH 1000 0
DWIDTH 16 0
BBX 16 16 0 -2
BITMAP
0800
1f7e
3120
5f20
1f3c
1124
1f34
3fac
3ea4
24a4
3fad
0a35
7fe5
1207
0000
0000
ENDCHAR
STARTCHAR ch-321
ENCODING 321
SWIDTH 1000 0
DWIDTH 16 0
BBX 16 16 0 -2
BITMAP
1e20
3220
1e7f
1e81
1201
1e79
7f49
4949
7f49
4979
7f01
1201
7f01
2206
0000
0000
ENDCHAR
STARTCHAR ch-322
ENCODING 322
SWIDTH 1000 0
DWIDTH 16 0
BBX 16 16 0 -2
BITMAP
2010
7e7e
3a12
3aff
3e12
7f7e
4910
7f12
49f4
7f38
2454
7f92
2411
2430
0000
0000
ENDCHAR
STARTCHAR ch-323
ENCODING 323
SWIDTH 1000 0
DWIDTH 16 0
BBX 16 16 0 -2
BITMAP
207e
7e42
3a7e
3a42
3e7e
7e80
4aff
7f11
4a91
7ea9
2481
7ef9
2401
240e
0000
0000
ENDCHAR
STARTCHAR ch-326
ENCODING 326
SWIDTH 1000 0
DWIDTH 16 0
BBX 16 16 0 -2
BITMAP
3c49
6492
3c49
3c7c
2444
3c7c
7e00
52fe
7e92
5292
7efe
2480
7e81
44ff
0000
0000
ENDCHAR
STARTCHAR ch-327
ENCODING 327
SWIDTH 1000 0
DWIDTH 16 0
BBX 16 16 0 -2
BITMAP
3c10
641c
3dff
3d11
257e
3d10
7f1e
5300
7f7c
5344
7f7c
257c
7e44
44ff
0000
0000
ENDCHAR
STARTCHAR ch-328
ENCODING 328
SWIDTH 1000 0
DWIDTH 16 0
BBX 16 16 0 -2
BITMAP
3c28
65ff
3d29
25ff
3d29
25ff
7fff
5300
7fff
5300
7fff
254a
7f44
446a
0000
0000
ENDCHAR
STARTCHAR ch-329
ENCODING 329
SWIDTH 1000 0
DWIDTH 16 0
BBX 16 16 0 -2
BITMAP
3c10
65ff
3cfe
2492
3cfe
25ff
7fef
52aa
7eee
52fe
7e28
25ff
7eca
2567
0000
0000
ENDCHAR
STARTCHAR ch-330
ENCODING 330
SWIDTH 1000 0
DWIDTH 16 0
BBX 16 16 0 -2
BITMAP
0080
7fff
0224
3d59
0c96
1494
649b
1004
1ffc
1004
1ffc
1004
1004
2004
0000
0000
ENDCHAR
STARTCHAR ch-331
ENCODING 331
SWIDTH 1000 0
DWIDTH 16 0
BBX 16 16 0 -2
BITMAP
0100
0080
7fff
0220
3d5f
1494
2492
5bf1
1004
1ffc
12a4
1494
2084
4084
0000
0000
ENDCHAR
STARTCHAR ch-332
ENCODING 332
SWIDTH 1000 0
DWIDTH 16 0
BBX 16 16 0 -2
BITMAP
0080
7fff
3e3e
1558
2494
589a
1004
1ffc
1004
1ffc
12a4
11c4
2144
4634
0000
0000
ENDCHAR
STARTCHAR ch-333
ENCODING 333
SWIDTH 1000 0
DWIDTH 16 0
BBX 16 16 0 -2
BITMAP
0080
7fff
0142
1ebc
12a4
2cb2
1004
13e4
17f4
1004
17f4
1554
17f4
2004
0000
0000
ENDCHAR
STARTCHAR ch-334
ENCODING 334
SWIDTH 1000 0
DWIDTH 16 0
BBX 16 16 0 -2
BITMAP
0080
7fff
3d4a
1494
2c9b
1004
17f4
1ffc
13e4
1224
13e4
13e4
13e4
2414
0000
0000
ENDCHAR
STARTCHAR ch-335
ENCODING 335
SWIDTH 1000 0
DWIDTH 16 0
BBX 16 16 0 -2
BITMAP
0080
7fff
0152
3ea4
12a4
2cb3
17f4
1ffc
1144
1774
1774
1f7c
1144
2ffc
0000
0000
ENDCHAR
STARTCHAR ch-338
ENCODING 338
SWIDTH 1000 0
DWIDTH 16 0
BBX 16 16 0 -2
BITMAP
0080
0880
08fc
0880
7fff
220a
2412
2a2a
3146
3ffe
2412
2a2a
3146
3ffe
0000
0000
ENDCHAR
STARTCHAR ch-340
ENCODING 340
SWIDTH 1000 0
DWIDTH 16 0
BBX 16 16 0 -2
BITMAP
0800
2f20
2820
7fa1
0022
52a4
52b8
6da0
7fa0
52a0
52a1
6da1
40a1
7f9f
0000
0000
ENDCHAR
STARTCHAR ch-341
ENCODING 341
SWIDTH 1000 0
DWIDTH 16 0
BBX 16 16 0 -2
BITMAP
0420
2720
243f
7fa0
0040
52be
5282
6d84
7f88
5290
52a0
6da1
40a1
7fbf
0000
0000
ENDCHAR
STARTCHAR ch-342
ENCODING 342
SWIDTH 1000 0
DWIDTH 16 0
BBX 16 16 0 -2
BITMAP
0400
243f
2792
2412
7fd2
113f
5142
6ac6
4046
7fca
5152
6ae2
404a
7fc4
0000
0000
ENDCHAR
STARTCHAR ch-343
ENCODING 343
SWIDTH 1000 0
DWIDTH 16 0
BBX 16 16 0 -2
BITMAP
0802
2e04
2878
7f20
0020
553f
5524
6b24
7f24
5524
5544
6b84
4104
7f04
0000
0000
ENDCHAR
STARTCHAR ch-344
ENCODING 344
SWIDTH 1000 0
DWIDTH 16 0
BBX 16 16 0 -2
BITMAP
0800
2e18
2824
7f42
0081
5524
5524
6b24
7f24
5524
5524
6b24
4144
7f04
0000
0000
ENDCHAR
STARTCHAR ch-345
ENCODING 345
SWIDTH 1000 0
DWIDTH 16 0
BBX 16 16 0 -2
BITMAP
0820
2f3f
2821
7f41
003d
5525
5525
6b3d
4121
7f21
5526
5520
6b21
7f1f
0000
0000
ENDCHAR
STARTCHAR ch-347
ENCODING 347
SWIDTH 1000 0
DWIDTH 16 0
BBX 16 16 0 -2
BITMAP
0820
2e2a
282a
7f2a
007f
552a
552a
6b2a
412a
7f2a
552e
5520
6b20
7f3f
0000
0000
ENDCHAR
STARTCHAR ch-348
ENCODING 348
SWIDTH 1000 0
DWIDTH 16 0
BBX 16 16 0 -2
BITMAP
0824
2824
2e24
2824
7f3f
0824
5624
62a4
7ea5
42a5
4aa5
56a5
7ebd
43c7
0000
0000
ENDCHAR
STARTCHAR ch-349
ENCODING 349
SWIDTH 1000 0
DWIDTH 16 0
BBX 16 16 0 -2
BITMAP
0808
2f08
2810
7f20
0042
557f
5501
6b00
417e
7f42
5542
5542
6b42
7f7e
0000
0000
ENDCHAR
STARTCHAR ch-350
ENCODING 350
SWIDTH 1000 0
DWIDTH 16 0
BBX 16 16 0 -2
BITMAP
0800
2f00
287e
7f42
0042
5542
5542
6b7e
4100
7f00
5524
5524
6b42
7f81
0000
0000
ENDCHAR
STARTCHAR ch-351
ENCODING 351
SWIDTH 1000 0
DWIDTH 16 0
BBX 16 16 0 -2
BITMAP
0400
241e
2712
2412
7f92
001e
5292
6d92
4092
7f9e
5292
6d92
4092
7fbf
0000
0000
ENDCHAR
STARTCHAR ch-352
ENCODING 352
SWIDTH 1000 0
DWIDTH 16 0
BBX 16 16 0 -2
BITMAP
0800
2e7f
2811
7f11
0011
5521
5546
6b00
417f
7f41
5541
5541
6b7f
7f41
0000
0000
ENDCHAR
STARTCHAR ch-353
ENCODING 353
SWIDTH 1000 0
DWIDTH 16 0
BBX 16 16 0 -2
BITMAP
0400
240c
2712
2421
7f80
001e
5280
6dbf
4081
7f82
5294
6d88
4084
7f82
0000
0000
ENDCHAR
STARTCHAR ch-355
ENCODING 355
SWIDTH 1000 0
DWIDTH 16 0
BBX 16 16 0 -2
BITMAP
0410
2710
241f
7fa1
0001
52bd
6da5
40a5
7fa5
52bd
6d81
4081
7f81
4086
0000
0000
ENDCHAR
STARTCHAR ch-356
ENCODING 356
SWIDTH 1000 0
DWIDTH 16 0
BBX 16 16 0 -2
BITMAP
0888
0490
1ffc
3ffe
0490
08e8
1484
2ffa
4221
1554
1ffc
1224
1554
1ffc
0000
0000
ENDCHAR
STARTCHAR ch-357
ENCODING 357
SWIDTH 1000 0
DWIDTH 16 0
BBX 16 16 0 -2
BITMAP
0808
2f08
287f
7f49
007f
5549
5549
6b7f
4108
7f09
550a
550d
6b19
7f67
0000
0000
ENDCHAR
STARTCHAR ch-358
ENCODING 358
SWIDTH 1000 0
DWIDTH 16 0
BBX 16 16 0 -2
BITMAP
0802
287f
2e42
2842
7f7e
0042
5542
6b7e
4140
7f62
5554
6b48
4154
7f63
0000
0000
ENDCHAR
STARTCHAR ch-359
ENCODING 359
SWIDTH 1000 0
DWIDTH 16 0
BBX 16 16 0 -2
BITMAP
0400
7fdf
3f89
7fc9
0493
08f8
0880
7fff
0410
4a29
5ffd
4411
4a29
7fff
0000
0000
ENDCHAR
STARTCHAR ch-362
ENCODING 362
SWIDTH 1000 0
DWIDTH 16 0
BBX 16 16 0 -2
BITMAP
043f
2721
2421
7fa1
003f
5284
6d84
4097
7f94
5294
6d94
4094
7fac
40c7
0000
0000
ENDCHAR
STARTCHAR ch-363
ENCODING 363
SWIDTH 1000 0
DWIDTH 16 0
BBX 16 16 0 -2
BITMAP
087f
2f41
2849
7f49
007f
5549
5549
6b5d
415d
7f6b
5549
5549
6b49
7f7f
0000
0000
ENDCHAR
STARTCHAR ch-364
ENCODING 364
SWIDTH 1000 0
DWIDTH 16 0
BBX 16 16 0 -2
BITMAP
08ff
2810
2f10
287e
7f12
1412
55ff
6b00
7f7e
4142
5542
6b42
7f7e
4142
0000
0000
ENDCHAR
STARTCHAR ch-366
ENCODING 366
SWIDTH 1000 0
DWIDTH 16 0
BBX 16 16 0 -2
BITMAP
0808
2e3e
2808
7f08
0014
5522
55ff
6b02
417a
7f4a
554a
557a
6b02
7f06
0000
0000
ENDCHAR
STARTCHAR ch-367
ENCODING 367
SWIDTH 1000 0
DWIDTH 16 0
BBX 16 16 0 -2
BITMAP
0840
2e46
2882
7e82
00ee
5682
5682
6afe
4228
7e28
5628
5628
6a49
7e8f
0000
0000
ENDCHAR
STARTCHAR ch-368
ENCODING 368
SWIDTH 1000 0
DWIDTH 16 0
BBX 16 16 0 -2
BITMAP
0822
2f22
287f
7f22
0022
557f
5500
6b3e
4122
7f22
553e
5522
6b22
7f3e
0000
0000
ENDCHAR
STARTCHAR ch-369
ENCODING 369
SWIDTH 1000 0
DWIDTH 16 0
BBX 16 16 0 -2
BITMAP
09f0
2ea0
28af
7ea1
00e1
56a9
56a9
6ae9
42a9
7ea9
56a9
57f6
6a26
7e29
0000
0000
ENDCHAR
STARTCHAR ch-370
ENCODING 370
SWIDTH 1000 0
DWIDTH 16 0
BBX 16 16 0 -2
BITMAP
0800
287e
2e08
287e
7f4a
004a
557e
6b08
417f
7f49
5549
6b4b
415f
7f41
0000
0000
ENDCHAR
STARTCHAR ch-372
ENCODING 372
SWIDTH 1000 0
DWIDTH 16 0
BBX 16 16 0 -2
BITMAP
0808
2e3f
2812
7f0c
007f
5544
5544
6b48
4152
7f44
5549
5592
6b04
7f18
0000
0000
ENDCHAR
STARTCHAR ch-373
ENCODING 373
SWIDTH 1000 0
DWIDTH 16 0
BBX 16 16 0 -2
BITMAP
083e
2e2a
282a
7f3e
002a
553e
5508
6b7f
4149
7f49
554b
555f
6b41
7f43
0000
0000
ENDCHAR
STARTCHAR ch-374
ENCODING 374
SWIDTH 1000 0
DWIDTH 16 0
BBX 16 16 0 -2
BITMAP
08e7
2ea5
28a5
7ee7
0000
553c
5500
6bff
4120
7f3e
5502
5502
6b02
7f1c
0000
0000
ENDCHAR
STARTCHAR ch-375
ENCODING 375
SWIDTH 1000 0
DWIDTH 16 0
BBX 16 16 0 -2
BITMAP
0800
287f
2e41
287f
7f40
005f
5548
6b51
415f
7f44
555f
6b44
4144
7f5f
0000
0000
ENDCHAR
STARTCHAR ch-376
ENCODING 376
SWIDTH 1000 0
DWIDTH 16 0
BBX 16 16 0 -2
BITMAP
0841
2e22
287f
7f14
0022
5541
6b00
417f
7f55
4155
5555
6b55
4155
7fff
0000
0000
ENDCHAR
STARTCHAR ch-377
ENCODING 377
SWIDTH 1000 0
DWIDTH 16 0
BBX 16 16 0 -2
BITMAP
0220
1ffc
0ff8
3ffe
0bf8
1040
2ffe
04f8
3ffe
1554
1ffc
1224
1554
1ffc
0000
0000
ENDCHAR
STARTCHAR ch-378
ENCODING 378
SWIDTH 1000 0
DWIDTH 16 0
BBX 16 16 0 -2
BITMAP
0840
2e7f
2881
7f55
007d
5511
5576
6b40
417f
7f81
5555
557d
6b11
7f66
0000
0000
ENDCHAR
STARTCHAR ch-379
ENCODING 379
SWIDTH 1000 0
DWIDTH 16 0
BBX 16 16 0 -2
BITMAP
0808
2e7f
2808
7f3e
0022
553e
5522
6b3e
4122
7f3e
5522
55ff
6b22
7f41
0000
0000
ENDCHAR
STARTCHAR ch-382
ENCODING 382
SWIDTH 1000 0
DWIDTH 16 0
BBX 16 16 0 -2
BITMAP
078a
3fc9
247f
2f08
3fc8
3554
3fe2
3241
54f8
3ffe
1554
1ffc
1224
1554
0000
0000
ENDCHAR
STARTCHAR ch-397
ENCODING 397
SWIDTH 1000 0
DWIDTH 16 0
BBX 16 16 0 -2
BITMAP
0840
7f7e
2240
7f7e
0002
7f7e
4140
7f7e
4140
417e
7f40
417e
4541
427f
0000
0000
ENDCHAR
STARTCHAR ch-400
ENCODING 400
SWIDTH 1000 0
DWIDTH 16 0
BBX 16 16 0 -2
BITMAP
0040
1fff
1110
17de
1290
129e
17c2
101e
17de
1450
17de
245e
47d1
04df
0000
0000
ENDCHAR
STARTCHAR ch-401
ENCODING 401
SWIDTH 1000 0
DWIDTH 16 0
BBX 16 16 0 -2
BITMAP
0420
3fbe
113c
7fc4
3fbc
24a4
3fa9
20bf
0ff8
0080
3ffe
0120
0210
3c0e
0000
0000
ENDCHAR
STARTCHAR ch-402
ENCODING 402
SWIDTH 1000 0
DWIDTH 16 0
BBX 16 16 0 -2
BITMAP
087c
7f40
227e
7f02
3e7e
3e7c
227c
3e41
46ff
07f0
0000
1ffc
0490
0888
0000
0000
ENDCHAR
STARTCHAR ch-404
ENCODING 404
SWIDTH 1000 0
DWIDTH 16 0
BBX 16 16 0 -2
BITMAP
0420
3fbe
113c
7fc4
3fbc
20be
3fbe
3fa1
21bf
0808
3ffe
0808
7fff
2002
0000
0000
ENDCHAR
STARTCHAR ch-405
ENCODING 405
SWIDTH 1000 0
DWIDTH 16 0
BBX 16 16 0 -2
BITMAP
03e0
05d0
0be8
7227
03e0
043c
3fa0
113e
7fc2
3fbe
20bc
3ebc
3ebd
20bf
0000
0000
ENDCHAR
STARTCHAR ch-408
ENCODING 408
SWIDTH 1000 0
DWIDTH 16 0
BBX 16 16 0 -2
BITMAP
0878
3f7c
1404
7f7c
3e78
3e7a
2242
267e
1727
7c7c
5757
7fff
7474
7575
0000
0000
ENDCHAR
STARTCHAR ch-412
ENCODING 412
SWIDTH 1000 0
DWIDTH 16 0
BBX 16 16 0 -2
BITMAP
0ff8
1010
3ffc
5244
1e7c
0240
7ffe
0a56
3a4a
0a56
7ffe
0a40
3a01
03ff
0000
0000
ENDCHAR
STARTCHAR ch-416
ENCODING 416
SWIDTH 1000 0
DWIDTH 16 0
BBX 16 16 0 -2
BITMAP
0080
0140
0630
1bec
6003
1ddc
1554
1ddc
0000
1ffc
1224
1ffc
1224
100c
0000
0000
ENDCHAR
STARTCHAR ch-418
ENCODING 418
SWIDTH 1000 0
DWIDTH 16 0
BBX 16 16 0 -2
BITMAP
1c01
223e
4108
3e08
0008
7f7f
5508
7f08
001c
7f2a
5549
7f88
5508
4108
0000
0000
ENDCHAR
STARTCHAR ch-420
ENCODING 420
SWIDTH 1000 0
DWIDTH 16 0
BBX 16 16 0 -2
BITMAP
0844
1444
2277
5d44
0044
7f77
5510
7f7f
0041
7f41
557f
7f41
5541
437f
0000
0000
ENDCHAR
ENDFONT
