STARTFONT 2.1
FONT big5.5600.16
SIZE 16 72 72
FONTBOUNDINGBOX 16 16 0 -2
STARTPROPERTIES 4
FONT_DESCENT 2
FONT_ASCENT 14
DEFAULT_CHAR 0
COPYRIGHT "Copyright (c) 1992 AT&T - All rights reserved."
ENDPROPERTIES
CHARS 297
STARTCHAR ch-0
ENCODING 0
SWIDTH 1000 0
DWIDTH 16 0
BBX 16 16 0 -2
BITMAP
0040
0022
7bff
4888
4850
4bfe
4a22
4bfe
4a22
7afa
4a8a
02fa
0202
0206
0000
0000
ENDCHAR
STARTCHAR ch-1
ENCODING 1
SWIDTH 1000 0
DWIDTH 16 0
BBX 16 16 0 -2
BITMAP
0014
0012
77ff
5490
54f2
5492
57f4
5494
7494
09c8
0aa8
1095
21a5
0043
0000
0000
ENDCHAR
STARTCHAR ch-2
ENCODING 2
SWIDTH 1000 0
DWIDTH 16 0
BBX 16 16 0 -2
BITMAP
0040
3c5e
2552
2552
3d5e
0140
0140
0140
3d5e
2552
25d2
3c5e
0040
0040
0000
0000
ENDCHAR
STARTCHAR ch-4
ENCODING 4
SWIDTH 1000 0
DWIDTH 16 0
BBX 16 16 0 -2
BITMAP
0040
00fe
7dfa
4482
44fe
4480
44fe
4480
44ff
7c11
45ff
0055
0093
0111
0000
0000
ENDCHAR
STARTCHAR ch-6
ENCODING 6
SWIDTH 1000 0
DWIDTH 16 0
BBX 16 16 0 -2
BITMAP
0044
01ff
0044
7c7c
4410
44fe
4492
44fe
4410
44fe
4410
7dff
0028
00c6
0000
0000
ENDCHAR
STARTCHAR ch-8
ENCODING 8
SWIDTH 1000 0
DWIDTH 16 0
BBX 16 16 0 -2
BITMAP
0050
07ff
7850
4bfe
4a52
4bfe
4a52
4bfe
4800
49fc
7904
49fc
0104
01fc
0000
0000
ENDCHAR
STARTCHAR ch-9
ENCODING 9
SWIDTH 1000 0
DWIDTH 16 0
BBX 16 16 0 -2
BITMAP
0080
3ffe
0080
1ffc
1ffc
1004
1ffc
0410
7fff
0410
1000
3f7e
1142
677e
0000
0000
ENDCHAR
STARTCHAR ch-12
ENCODING 12
SWIDTH 1000 0
DWIDTH 16 0
BBX 16 16 0 -2
BITMAP
03ff
0050
7bfe
4a52
4a52
4bfe
4800
49fc
4800
7bff
48a8
0126
0222
0020
0000
0000
ENDCHAR
STARTCHAR ch-13
ENCODING 13
SWIDTH 1000 0
DWIDTH 16 0
BBX 16 16 0 -2
BITMAP
0020
03fe
7a22
4fff
4a22
4bfe
4fff
4c21
4fff
78a8
4fff
0050
0020
07df
0000
0000
ENDCHAR
STARTCHAR ch-14
ENCODING 14
SWIDTH 1000 0
DWIDTH 16 0
BBX 16 16 0 -2
BITMAP
03ff
0040
79fc
49fc
49fc
4904
49fc
4888
78be
47c0
0090
0061
00d9
0707
0000
0000
ENDCHAR
STARTCHAR ch-15
ENCODING 15
SWIDTH 1000 0
DWIDTH 16 0
BBX 16 16 0 -2
BITMAP
1000
13de
7e42
1242
13de
1200
7a00
4bde
4a02
4bd4
7a14
4a08
0217
0262
0000
0000
ENDCHAR
STARTCHAR ch-16
ENCODING 16
SWIDTH 1000 0
DWIDTH 16 0
BBX 16 16 0 -2
BITMAP
01ef
00a5
7c63
44a5
4473
4428
4444
448a
4511
4424
7cc8
4432
0004
0078
0000
0000
ENDCHAR
STARTCHAR ch-18
ENCODING 18
SWIDTH 1000 0
DWIDTH 16 0
BBX 16 16 0 -2
BITMAP
0104
07df
7904
4fdf
4904
4fdf
4904
4800
4bfe
4802
7fff
4802
03fe
0002
0000
0000
ENDCHAR
STARTCHAR ch-19
ENCODING 19
SWIDTH 1000 0
DWIDTH 16 0
BBX 16 16 0 -2
BITMAP
03ff
0205
7a0b
4bff
4a09
4ae9
4aa9
4aeb
4a0d
7be9
4a15
0203
03ff
0201
0000
0000
ENDCHAR
STARTCHAR ch-20
ENCODING 20
SWIDTH 1000 0
DWIDTH 16 0
BBX 16 16 0 -2
BITMAP
03ff
0200
7a7c
4a44
4a44
4a7c
4a00
4bef
4b29
4b29
7b29
4bef
0200
03ff
0000
0000
ENDCHAR
STARTCHAR ch-21
ENCODING 21
SWIDTH 1000 0
DWIDTH 16 0
BBX 16 16 0 -2
BITMAP
07ff
0020
793c
4920
4fff
4900
49fc
4900
49ff
7aa9
4aa9
02a9
0001
0006
0000
0000
ENDCHAR
STARTCHAR ch-22
ENCODING 22
SWIDTH 1000 0
DWIDTH 16 0
BBX 16 16 0 -2
BITMAP
0020
03fe
7c20
45fc
4420
47ff
45fc
4504
7dfc
4504
01fc
0104
01fc
0306
0000
0000
ENDCHAR
STARTCHAR ch-23
ENCODING 23
SWIDTH 1000 0
DWIDTH 16 0
BBX 16 16 0 -2
BITMAP
0888
7fff
4ff9
0808
0ff8
1000
1ff0
1000
1ff8
1ffc
1004
1ffc
1004
1ffc
0000
0000
ENDCHAR
STARTCHAR ch-27
ENCODING 27
SWIDTH 1000 0
DWIDTH 16 0
BBX 16 16 0 -2
BITMAP
0040
0022
77ff
5488
5488
57ff
5488
55dc
55dc
56dc
74ab
4488
1088
0088
0000
0000
ENDCHAR
STARTCHAR ch-28
ENCODING 28
SWIDTH 1000 0
DWIDTH 16 0
BBX 16 16 0 -2
BITMAP
0010
01ff
7c92
4555
4438
4428
4444
44a2
457d
7cc4
4528
0010
0020
01c0
0000
0000
ENDCHAR
STARTCHAR ch-29
ENCODING 29
SWIDTH 1000 0
DWIDTH 16 0
BBX 16 16 0 -2
BITMAP
0102
03c2
008a
7be6
4aa2
4aaa
4be6
4aa2
4aa2
4bff
7a22
4a22
0222
0462
0000
0000
ENDCHAR
STARTCHAR ch-31
ENCODING 31
SWIDTH 1000 0
DWIDTH 16 0
BBX 16 16 0 -2
BITMAP
0100
011f
7fd1
4912
4ff4
4912
4bd2
4e51
7a51
4bda
0254
0250
0250
03d0
0000
0000
ENDCHAR
STARTCHAR ch-39
ENCODING 39
SWIDTH 1000 0
DWIDTH 16 0
BBX 16 16 0 -2
BITMAP
0020
03ff
7a41
4caa
48a8
4a92
4aa5
4cc5
497c
4a10
7d11
4911
0111
01ff
0000
0000
ENDCHAR
STARTCHAR ch-41
ENCODING 41
SWIDTH 1000 0
DWIDTH 16 0
BBX 16 16 0 -2
BITMAP
0088
0088
03fe
7888
4bfe
4924
4fff
4924
4bfe
7820
4bfe
0020
0020
0020
0000
0000
ENDCHAR
STARTCHAR ch-42
ENCODING 42
SWIDTH 1000 0
DWIDTH 16 0
BBX 16 16 0 -2
BITMAP
03ff
0249
0249
7bff
4800
49fe
4902
49fe
4902
49fe
7902
49fe
0084
0102
0000
0000
ENDCHAR
STARTCHAR ch-44
ENCODING 44
SWIDTH 1000 0
DWIDTH 16 0
BBX 16 16 0 -2
BITMAP
00fc
0084
78fc
4884
48fc
4fff
4920
49ff
7931
49ea
0124
03ea
0031
0020
0000
0000
ENDCHAR
STARTCHAR ch-46
ENCODING 46
SWIDTH 1000 0
DWIDTH 16 0
BBX 16 16 0 -2
BITMAP
0084
02b5
79ce
4884
494a
4a31
4bff
4a21
79fe
4822
0042
0082
0314
0008
0000
0000
ENDCHAR
STARTCHAR ch-47
ENCODING 47
SWIDTH 1000 0
DWIDTH 16 0
BBX 16 16 0 -2
BITMAP
0020
01fc
7824
4fff
4824
49fc
4aaa
4bae
4a22
7bfe
4a22
03ae
02aa
04aa
0000
0000
ENDCHAR
STARTCHAR ch-48
ENCODING 48
SWIDTH 1000 0
DWIDTH 16 0
BBX 16 16 0 -2
BITMAP
0082
0104
0249
779e
5104
5249
57df
5024
57ff
7220
5314
0289
0415
0823
0000
0000
ENDCHAR
STARTCHAR ch-50
ENCODING 50
SWIDTH 1000 0
DWIDTH 16 0
BBX 16 16 0 -2
BITMAP
0102
011f
77d2
5112
57de
5452
57d2
5452
57de
7112
4ff2
0112
0122
0146
0000
0000
ENDCHAR
STARTCHAR ch-51
ENCODING 51
SWIDTH 1000 0
DWIDTH 16 0
BBX 16 16 0 -2
BITMAP
0010
00fe
0092
7cfe
4410
45ff
44fe
4482
44fe
4482
7cfe
4482
00fe
0101
0000
0000
ENDCHAR
STARTCHAR ch-52
ENCODING 52
SWIDTH 1000 0
DWIDTH 16 0
BBX 16 16 0 -2
BITMAP
0290
7af3
4a9c
4af1
4f8f
48f8
4910
4bfc
4d24
79fc
4124
01fc
0204
040c
0000
0000
ENDCHAR
STARTCHAR ch-53
ENCODING 53
SWIDTH 1000 0
DWIDTH 16 0
BBX 16 16 0 -2
BITMAP
0010
0010
00fe
7c10
45ff
4444
45ef
4444
45ef
4400
7dff
4448
0089
010f
0000
0000
ENDCHAR
STARTCHAR ch-54
ENCODING 54
SWIDTH 1000 0
DWIDTH 16 0
BBX 16 16 0 -2
BITMAP
0240
7a46
4ff8
4a50
4bd0
4a5f
4bd4
4a54
4a54
7ff4
4814
0254
0424
0004
0000
0000
ENDCHAR
STARTCHAR ch-56
ENCODING 56
SWIDTH 1000 0
DWIDTH 16 0
BBX 16 16 0 -2
BITMAP
0080
01ff
02aa
78aa
48aa
49ff
48aa
48aa
48aa
4bff
7800
4a49
0249
0249
0000
0000
ENDCHAR
STARTCHAR ch-57
ENCODING 57
SWIDTH 1000 0
DWIDTH 16 0
BBX 16 16 0 -2
BITMAP
0020
03ff
7820
4954
4888
49fc
4f07
49fc
4904
79fc
48a8
0124
0222
0060
0000
0000
ENDCHAR
STARTCHAR ch-58
ENCODING 58
SWIDTH 1000 0
DWIDTH 16 0
BBX 16 16 0 -2
BITMAP
0002
00fc
0010
7dff
4428
447c
44c6
457d
45ff
4501
7d7d
4545
017d
0103
0000
0000
ENDCHAR
STARTCHAR ch-59
ENCODING 59
SWIDTH 1000 0
DWIDTH 16 0
BBX 16 16 0 -2
BITMAP
0020
03fe
7820
49fc
4800
49fc
4904
49fc
4888
4fff
7888
4bfe
0202
03fe
0000
0000
ENDCHAR
STARTCHAR ch-61
ENCODING 61
SWIDTH 1000 0
DWIDTH 16 0
BBX 16 16 0 -2
BITMAP
03de
0252
7bde
4800
4bfe
4a22
4bfe
4a22
4bfe
7820
4bfe
0020
0020
0020
0000
0000
ENDCHAR
STARTCHAR ch-62
ENCODING 62
SWIDTH 1000 0
DWIDTH 16 0
BBX 16 16 0 -2
BITMAP
03fe
0050
7bfe
4a52
4bfe
49fc
4904
49fc
4904
79fc
4820
03fe
0020
0020
0000
0000
ENDCHAR
STARTCHAR ch-63
ENCODING 63
SWIDTH 1000 0
DWIDTH 16 0
BBX 16 16 0 -2
BITMAP
01fe
7924
49ac
4974
4924
49fc
4820
49fc
7820
4bfe
0000
0254
0252
0452
0000
0000
ENDCHAR
STARTCHAR ch-64
ENCODING 64
SWIDTH 1000 0
DWIDTH 16 0
BBX 16 16 0 -2
BITMAP
01ef
0129
7def
4508
4529
45ef
4444
45ff
4444
7c44
45ff
0000
0082
0101
0000
0000
ENDCHAR
STARTCHAR ch-65
ENCODING 65
SWIDTH 1000 0
DWIDTH 16 0
BBX 16 16 0 -2
BITMAP
0000
03ff
0048
7848
4bcf
4a01
4bcf
4848
4bff
4800
78a4
4a92
0481
007e
0000
0000
ENDCHAR
STARTCHAR ch-66
ENCODING 66
SWIDTH 1000 0
DWIDTH 16 0
BBX 16 16 0 -2
BITMAP
0088
07ff
7850
4bfe
4a52
4a8a
4a72
4bfe
4804
4fff
7904
4884
0014
0008
0000
0000
ENDCHAR
STARTCHAR ch-69
ENCODING 69
SWIDTH 1000 0
DWIDTH 16 0
BBX 16 16 0 -2
BITMAP
0108
0090
79fc
4844
4848
48fe
4882
4904
7bff
0401
0955
1155
0002
001c
0000
0000
ENDCHAR
STARTCHAR ch-70
ENCODING 70
SWIDTH 1000 0
DWIDTH 16 0
BBX 16 16 0 -2
BITMAP
03ff
014a
7def
44c6
454b
4673
4400
45fe
4502
7d02
45fe
0102
0102
01fe
0000
0000
ENDCHAR
STARTCHAR ch-72
ENCODING 72
SWIDTH 1000 0
DWIDTH 16 0
BBX 16 16 0 -2
BITMAP
0089
0089
03e8
781f
4be8
4a28
4a2a
4bea
488a
7aaa
02aa
008b
0093
0183
0000
0000
ENDCHAR
STARTCHAR ch-73
ENCODING 73
SWIDTH 1000 0
DWIDTH 16 0
BBX 16 16 0 -2
BITMAP
07c8
0108
7908
4fef
4a50
4a41
4bc9
4a49
4bc9
4a4a
7a44
4fca
0051
0040
0000
0000
ENDCHAR
STARTCHAR ch-74
ENCODING 74
SWIDTH 1000 0
DWIDTH 16 0
BBX 16 16 0 -2
BITMAP
00fe
0024
7c18
45ff
4451
4492
4430
45ff
4545
7d87
457d
0145
017d
0103
0000
0000
ENDCHAR
STARTCHAR ch-76
ENCODING 76
SWIDTH 1000 0
DWIDTH 16 0
BBX 16 16 0 -2
BITMAP
0044
0028
01ff
7911
4955
4911
49ff
4800
48fe
4882
78fe
4882
00fe
0082
0000
0000
ENDCHAR
STARTCHAR ch-78
ENCODING 78
SWIDTH 1000 0
DWIDTH 16 0
BBX 16 16 0 -2
BITMAP
0020
03fe
7820
49fc
4bff
4a01
4dfe
4800
49fc
7904
49fc
0088
0052
07ff
0000
0000
ENDCHAR
STARTCHAR ch-83
ENCODING 83
SWIDTH 1000 0
DWIDTH 16 0
BBX 16 16 0 -2
BITMAP
0020
003e
7820
4bff
4a41
4a7d
4bc2
4a7e
4a48
7b4a
4b4a
05ce
0848
03ff
0000
0000
ENDCHAR
STARTCHAR ch-87
ENCODING 87
SWIDTH 1000 0
DWIDTH 16 0
BBX 16 16 0 -2
BITMAP
0154
00d8
7850
4bff
4888
4850
49fc
4820
49fc
7820
4bff
0050
0088
0306
0000
0000
ENDCHAR
STARTCHAR ch-88
ENCODING 88
SWIDTH 1000 0
DWIDTH 16 0
BBX 16 16 0 -2
BITMAP
07fe
7404
5514
54a7
57f9
5442
5554
5554
75f4
4444
0444
088a
1111
0021
0000
0000
ENDCHAR
STARTCHAR ch-89
ENCODING 89
SWIDTH 1000 0
DWIDTH 16 0
BBX 16 16 0 -2
BITMAP
0070
0088
7904
4a22
4dfd
4850
4924
4954
49fc
7820
4bfe
024a
02fa
0206
0000
0000
ENDCHAR
STARTCHAR ch-90
ENCODING 90
SWIDTH 1000 0
DWIDTH 16 0
BBX 16 16 0 -2
BITMAP
01fe
0002
7bff
4802
49fe
4800
4fdf
4911
4fdf
4804
7fff
4904
0014
0008
0000
0000
ENDCHAR
STARTCHAR ch-94
ENCODING 94
SWIDTH 1000 0
DWIDTH 16 0
BBX 16 16 0 -2
BITMAP
0020
0050
0088
0104
7afa
4c01
4bde
4a52
4a52
4bde
7904
4904
028a
0451
0000
0000
ENDCHAR
STARTCHAR ch-96
ENCODING 96
SWIDTH 1000 0
DWIDTH 16 0
BBX 16 16 0 -2
BITMAP
0408
027e
7808
4f7f
4914
4a3e
4c08
4a3e
4908
797f
4908
0208
0500
08ff
0000
0000
ENDCHAR
STARTCHAR ch-98
ENCODING 98
SWIDTH 1000 0
DWIDTH 16 0
BBX 16 16 0 -2
BITMAP
0080
0100
03fe
7afa
4aaa
4a72
4bfe
4a72
4aaa
4a22
7fff
4888
0104
0202
0000
0000
ENDCHAR
STARTCHAR ch-99
ENCODING 99
SWIDTH 1000 0
DWIDTH 16 0
BBX 16 16 0 -2
BITMAP
07ff
0489
7c89
4fff
4900
4bff
4c41
4bf9
4a49
7bf9
4845
07fd
0001
0006
0000
0000
ENDCHAR
STARTCHAR ch-100
ENCODING 100
SWIDTH 1000 0
DWIDTH 16 0
BBX 16 16 0 -2
BITMAP
0088
03ff
7888
49dc
4aaa
4c89
4888
4bfe
4800
7fff
4924
0222
0421
0020
0000
0000
ENDCHAR
STARTCHAR ch-101
ENCODING 101
SWIDTH 1000 0
DWIDTH 16 0
BBX 16 16 0 -2
BITMAP
0050
03fe
7a52
4bfe
4a52
4bfe
4800
4bff
4a00
7afe
4bff
028c
0288
05d7
0000
0000
ENDCHAR
STARTCHAR ch-102
ENCODING 102
SWIDTH 1000 0
DWIDTH 16 0
BBX 16 16 0 -2
BITMAP
0020
013e
7920
4bff
480a
4bff
4a08
4be8
4a88
7baa
4aac
02a8
0455
0183
0000
0000
ENDCHAR
STARTCHAR ch-104
ENCODING 104
SWIDTH 1000 0
DWIDTH 16 0
BBX 16 16 0 -2
BITMAP
1f7c
1144
1144
1f7c
0090
0088
7fff
0140
0630
180c
7f7f
1144
1144
1f7c
0000
0000
ENDCHAR
STARTCHAR ch-105
ENCODING 105
SWIDTH 1000 0
DWIDTH 16 0
BBX 16 16 0 -2
BITMAP
0002
7fff
0080
1ebc
12a4
1ebc
0080
3ffe
0080
1ebc
12a4
1ebc
0082
7fff
0000
0000
ENDCHAR
STARTCHAR ch-106
ENCODING 106
SWIDTH 1000 0
DWIDTH 16 0
BBX 16 16 0 -2
BITMAP
01fc
7904
49fc
4800
4bde
4a52
4bde
4820
4fff
7870
48a8
0127
0222
0020
0000
0000
ENDCHAR
STARTCHAR ch-107
ENCODING 107
SWIDTH 1000 0
DWIDTH 16 0
BBX 16 16 0 -2
BITMAP
0020
03fe
7904
4888
4fff
49fc
4904
49fc
7904
49fc
0222
0291
0485
00fc
0000
0000
ENDCHAR
STARTCHAR ch-108
ENCODING 108
SWIDTH 1000 0
DWIDTH 16 0
BBX 16 16 0 -2
BITMAP
0108
01ef
7a94
4842
4800
4bfe
4820
4924
4924
7924
4aaa
0471
0020
07ff
0000
0000
ENDCHAR
STARTCHAR ch-109
ENCODING 109
SWIDTH 1000 0
DWIDTH 16 0
BBX 16 16 0 -2
BITMAP
0108
03e8
7a2f
4bf0
4a22
4be2
488a
4fea
490a
49ea
792a
4924
022a
0471
0000
0000
ENDCHAR
STARTCHAR ch-110
ENCODING 110
SWIDTH 1000 0
DWIDTH 16 0
BBX 16 16 0 -2
BITMAP
03fe
0252
03fe
7800
4fff
4800
49fc
4904
49fc
4882
7994
4aa8
04c4
0182
0000
0000
ENDCHAR
STARTCHAR ch-111
ENCODING 111
SWIDTH 1000 0
DWIDTH 16 0
BBX 16 16 0 -2
BITMAP
0002
01fc
7911
4892
4bff
4b53
4944
487c
4840
78fe
4928
0210
0028
01c7
0000
0000
ENDCHAR
STARTCHAR ch-112
ENCODING 112
SWIDTH 1000 0
DWIDTH 16 0
BBX 16 16 0 -2
BITMAP
0020
07ff
0000
008a
791f
4a32
4fd2
489f
4912
4a52
4fdf
7852
4892
031f
0000
0000
ENDCHAR
STARTCHAR ch-113
ENCODING 113
SWIDTH 1000 0
DWIDTH 16 0
BBX 16 16 0 -2
BITMAP
0020
003e
7820
4bff
4a21
4afc
4a1c
4bff
7aa4
4d58
04b8
0857
1192
0020
0000
0000
ENDCHAR
STARTCHAR ch-114
ENCODING 114
SWIDTH 1000 0
DWIDTH 16 0
BBX 16 16 0 -2
BITMAP
0020
0050
0088
7974
4a02
4fff
4aaa
4a72
4bfe
49fc
7904
49fc
0104
01fc
0000
0000
ENDCHAR
STARTCHAR ch-115
ENCODING 115
SWIDTH 1000 0
DWIDTH 16 0
BBX 16 16 0 -2
BITMAP
0010
001c
03ff
7a11
4a7e
4a1c
4a7c
4a44
4afc
4a90
7afe
4a12
02ff
0424
0000
0000
ENDCHAR
STARTCHAR ch-116
ENCODING 116
SWIDTH 1000 0
DWIDTH 16 0
BBX 16 16 0 -2
BITMAP
0020
01fc
0020
7884
4bff
4884
49fe
4902
49fe
79fe
4902
01fe
0084
0303
0000
0000
ENDCHAR
STARTCHAR ch-118
ENCODING 118
SWIDTH 1000 0
DWIDTH 16 0
BBX 16 16 0 -2
BITMAP
0088
07ff
79fc
4904
49fc
4904
49fc
4900
49fe
7a22
4d32
014a
01f2
0004
0000
0000
ENDCHAR
STARTCHAR ch-119
ENCODING 119
SWIDTH 1000 0
DWIDTH 16 0
BBX 16 16 0 -2
BITMAP
0088
03e8
780f
4a29
4951
4885
4be5
4804
4be4
4a24
7be4
4a24
03ea
0231
0000
0000
ENDCHAR
STARTCHAR ch-120
ENCODING 120
SWIDTH 1000 0
DWIDTH 16 0
BBX 16 16 0 -2
BITMAP
011f
0104
77c8
511f
5111
555f
5551
555f
57d1
7111
515f
014a
01d1
0021
0000
0000
ENDCHAR
STARTCHAR ch-121
ENCODING 121
SWIDTH 1000 0
DWIDTH 16 0
BBX 16 16 0 -2
BITMAP
0222
0124
7fff
4c01
4dfd
4904
49fc
4800
4bfe
7a22
4bfe
0222
03fe
0202
0000
0000
ENDCHAR
STARTCHAR ch-126
ENCODING 126
SWIDTH 1000 0
DWIDTH 16 0
BBX 16 16 0 -2
BITMAP
0010
01ff
0129
7d4d
4410
45ff
4482
45ff
4400
44fe
7c82
44fe
0082
00fe
0000
0000
ENDCHAR
STARTCHAR ch-127
ENCODING 127
SWIDTH 1000 0
DWIDTH 16 0
BBX 16 16 0 -2
BITMAP
07df
0249
0555
0249
79a6
4bfe
4904
4924
4aaa
4c71
7820
4fff
0020
0020
0000
0000
ENDCHAR
STARTCHAR ch-128
ENCODING 128
SWIDTH 1000 0
DWIDTH 16 0
BBX 16 16 0 -2
BITMAP
0020
03fe
7a02
48a8
4afa
4800
49fc
4954
49fc
7bfe
4820
0020
00a0
0040
0000
0000
ENDCHAR
STARTCHAR ch-129
ENCODING 129
SWIDTH 1000 0
DWIDTH 16 0
BBX 16 16 0 -2
BITMAP
01ef
0129
7ca5
4463
44a5
4448
44ff
4588
44ff
7c88
44ff
0088
00ff
0080
0000
0000
ENDCHAR
STARTCHAR ch-130
ENCODING 130
SWIDTH 1000 0
DWIDTH 16 0
BBX 16 16 0 -2
BITMAP
03e8
0288
03ef
0228
7be8
4a90
4a87
4be0
4800
4bfe
7a52
4a52
0252
07ff
0000
0000
ENDCHAR
STARTCHAR ch-131
ENCODING 131
SWIDTH 1000 0
DWIDTH 16 0
BBX 16 16 0 -2
BITMAP
007f
0255
7955
487f
4808
4b08
492a
4949
4908
492a
7949
4908
0100
02ff
0000
0000
ENDCHAR
STARTCHAR ch-132
ENCODING 132
SWIDTH 1000 0
DWIDTH 16 0
BBX 16 16 0 -2
BITMAP
0044
01ff
0054
7cfe
4588
44fe
4488
44fe
4488
44fe
44fe
7c44
0038
01c7
0000
0000
ENDCHAR
STARTCHAR ch-133
ENCODING 133
SWIDTH 1000 0
DWIDTH 16 0
BBX 16 16 0 -2
BITMAP
03fe
0020
7bff
4a21
4aa5
4868
48a4
4800
4bff
7840
4bfe
0252
0252
0206
0000
0000
ENDCHAR
STARTCHAR ch-134
ENCODING 134
SWIDTH 1000 0
DWIDTH 16 0
BBX 16 16 0 -2
BITMAP
0104
07ff
0124
7bff
4800
49fe
4902
49fe
4bff
4a01
4afd
7a85
02fd
0203
0000
0000
ENDCHAR
STARTCHAR ch-135
ENCODING 135
SWIDTH 1000 0
DWIDTH 16 0
BBX 16 16 0 -2
BITMAP
0104
0104
738e
5104
57df
528a
528a
56db
52aa
728a
528a
0492
0082
0104
0000
0000
ENDCHAR
STARTCHAR ch-140
ENCODING 140
SWIDTH 1000 0
DWIDTH 16 0
BBX 16 16 0 -2
BITMAP
0020
03fe
7852
49ac
48a8
49ac
4a2a
4904
49fc
7904
49fc
0104
0104
0204
0000
0000
ENDCHAR
STARTCHAR ch-141
ENCODING 141
SWIDTH 1000 0
DWIDTH 16 0
BBX 16 16 0 -2
BITMAP
0020
01fc
7824
4bfe
4824
49fc
4820
4bfe
4a52
4800
79fc
4954
0154
07ff
0000
0000
ENDCHAR
STARTCHAR ch-142
ENCODING 142
SWIDTH 1000 0
DWIDTH 16 0
BBX 16 16 0 -2
BITMAP
0020
03fe
7888
48f8
4bff
4a01
4dfa
4840
48a4
7978
4aa7
0162
02a0
0040
0000
0000
ENDCHAR
STARTCHAR ch-143
ENCODING 143
SWIDTH 1000 0
DWIDTH 16 0
BBX 16 16 0 -2
BITMAP
0020
01fc
7820
4bff
4a01
4dfe
4924
49fc
4924
79fc
4bfe
01b8
0260
043f
0000
0000
ENDCHAR
STARTCHAR ch-144
ENCODING 144
SWIDTH 1000 0
DWIDTH 16 0
BBX 16 16 0 -2
BITMAP
0092
0054
01ff
7d7d
4444
447c
4488
4492
44fe
7cfe
4482
00fe
0082
00fe
0000
0000
ENDCHAR
STARTCHAR ch-147
ENCODING 147
SWIDTH 1000 0
DWIDTH 16 0
BBX 16 16 0 -2
BITMAP
0020
03ff
7a81
4cde
4954
4b58
4c88
4bfc
4a03
4dfc
78a8
4926
0222
0020
0000
0000
ENDCHAR
STARTCHAR ch-149
ENCODING 149
SWIDTH 1000 0
DWIDTH 16 0
BBX 16 16 0 -2
BITMAP
00f8
0110
7bfe
4e22
4bfe
4a22
4bfe
494a
7a25
49fc
0104
01fc
0104
01fc
0000
0000
ENDCHAR
STARTCHAR ch-151
ENCODING 151
SWIDTH 1000 0
DWIDTH 16 0
BBX 16 16 0 -2
BITMAP
03fe
0202
03fe
7a02
4bfe
4888
4bfe
4888
4bfe
4924
7a2a
4df1
00a8
0124
0000
0000
ENDCHAR
STARTCHAR ch-152
ENCODING 152
SWIDTH 1000 0
DWIDTH 16 0
BBX 16 16 0 -2
BITMAP
03ff
0020
007c
7c64
444c
47ff
4753
4544
447c
4420
447c
7ca8
0110
006e
0000
0000
ENDCHAR
STARTCHAR ch-153
ENCODING 153
SWIDTH 1000 0
DWIDTH 16 0
BBX 16 16 0 -2
BITMAP
0010
009e
0090
7dff
4444
4545
45ab
4501
45ff
4545
4545
7dab
0101
01ff
0000
0000
ENDCHAR
STARTCHAR ch-154
ENCODING 154
SWIDTH 1000 0
DWIDTH 16 0
BBX 16 16 0 -2
BITMAP
3e3e
2222
3e3e
0ffc
0880
0ff8
0808
0ff8
0880
0ffc
0000
3e3e
2222
3e3e
0000
0000
ENDCHAR
STARTCHAR ch-156
ENCODING 156
SWIDTH 1000 0
DWIDTH 16 0
BBX 16 16 0 -2
BITMAP
03fe
02aa
0272
03fe
7820
49fc
4820
4fff
4aaa
7ca9
4820
03fe
0020
07ff
0000
0000
ENDCHAR
STARTCHAR ch-157
ENCODING 157
SWIDTH 1000 0
DWIDTH 16 0
BBX 16 16 0 -2
BITMAP
0020
03ff
0244
7bff
4a44
4a7c
4bff
4afe
4a92
4afe
7c92
48fe
0084
0102
0000
0000
ENDCHAR
STARTCHAR ch-165
ENCODING 165
SWIDTH 1000 0
DWIDTH 16 0
BBX 16 16 0 -2
BITMAP
0088
07ff
7888
48f8
4904
4974
4f57
4954
4954
7f77
4800
0489
0489
0889
0000
0000
ENDCHAR
STARTCHAR ch-166
ENCODING 166
SWIDTH 1000 0
DWIDTH 16 0
BBX 16 16 0 -2
BITMAP
03ff
7a22
4bdc
4a44
4bff
4ac4
4b6e
4e55
4844
7820
4920
013e
0120
07ff
0000
0000
ENDCHAR
STARTCHAR ch-167
ENCODING 167
SWIDTH 1000 0
DWIDTH 16 0
BBX 16 16 0 -2
BITMAP
0020
003c
03ff
7a21
4afc
4a3c
4a7c
4a54
4a7c
4a54
4a7c
7cfe
00aa
01ff
0000
0000
ENDCHAR
STARTCHAR ch-168
ENCODING 168
SWIDTH 1000 0
DWIDTH 16 0
BBX 16 16 0 -2
BITMAP
0088
03ef
7948
4bef
4801
4bef
4a28
4a2f
4be8
4a2f
7a28
4bef
0229
026f
0000
0000
ENDCHAR
STARTCHAR ch-170
ENCODING 170
SWIDTH 1000 0
DWIDTH 16 0
BBX 16 16 0 -2
BITMAP
07df
0451
07df
0451
7fdf
4c01
4cfd
4d09
4c51
4d9d
7d05
4ddd
0505
05fd
0000
0000
ENDCHAR
STARTCHAR ch-171
ENCODING 171
SWIDTH 1000 0
DWIDTH 16 0
BBX 16 16 0 -2
BITMAP
011f
7fd1
4c51
4a9f
4911
4fd1
491f
4fd1
4911
4b9f
7d4a
492b
010b
0133
0000
0000
ENDCHAR
STARTCHAR ch-172
ENCODING 172
SWIDTH 1000 0
DWIDTH 16 0
BBX 16 16 0 -2
BITMAP
009f
0288
02df
7a91
4ff1
491f
4b11
4d51
795f
4951
0191
011f
020a
0411
0000
0000
ENDCHAR
STARTCHAR ch-173
ENCODING 173
SWIDTH 1000 0
DWIDTH 16 0
BBX 16 16 0 -2
BITMAP
0800
3e7e
0808
7f10
0028
3e2a
224a
3e89
1408
7f7e
1442
3e42
227e
3e42
0000
0000
ENDCHAR
STARTCHAR ch-174
ENCODING 174
SWIDTH 1000 0
DWIDTH 16 0
BBX 16 16 0 -2
BITMAP
1080
27ef
7a29
13ea
2629
7bed
12ca
6b28
1ffc
3004
13e4
1224
13e4
101c
0000
0000
ENDCHAR
STARTCHAR ch-178
ENCODING 178
SWIDTH 1000 0
DWIDTH 16 0
BBX 16 16 0 -2
BITMAP
0877
0855
7f77
0000
3e7f
2249
3e7f
0049
3e7f
0408
7f7f
0808
0808
1808
0000
0000
ENDCHAR
STARTCHAR ch-179
ENCODING 179
SWIDTH 1000 0
DWIDTH 16 0
BBX 16 16 0 -2
BITMAP
055e
3882
3d5e
2142
3c9e
2142
7fff
4881
4ff9
1080
0ffc
07f0
0410
07f0
0000
0000
ENDCHAR
STARTCHAR ch-180
ENCODING 180
SWIDTH 1000 0
DWIDTH 16 0
BBX 16 16 0 -2
BITMAP
3e3e
2222
3e3e
3fff
2f90
221f
3ff4
28a4
2f84
2884
2f94
4888
1fd4
00a3
0000
0000
ENDCHAR
STARTCHAR ch-181
ENCODING 181
SWIDTH 1000 0
DWIDTH 16 0
BBX 16 16 0 -2
BITMAP
01f8
0210
03fe
7a02
4bfe
49ee
4908
49fe
4a10
4bfe
7a22
4bfe
0095
031f
0000
0000
ENDCHAR
STARTCHAR ch-182
ENCODING 182
SWIDTH 1000 0
DWIDTH 16 0
BBX 16 16 0 -2
BITMAP
0000
03de
7a52
4bde
4a52
4bde
4a52
4bde
4a52
4ca9
7bff
4850
0020
01dc
0000
0000
ENDCHAR
STARTCHAR ch-183
ENCODING 183
SWIDTH 1000 0
DWIDTH 16 0
BBX 16 16 0 -2
BITMAP
0020
07ff
7bde
4a52
4bde
4888
4bfe
4888
4bfe
7888
4fff
0112
030c
05c7
0000
0000
ENDCHAR
STARTCHAR ch-188
ENCODING 188
SWIDTH 1000 0
DWIDTH 16 0
BBX 16 16 0 -2
BITMAP
07f8
0124
77fe
5492
57fe
57c4
5444
57ff
5444
57d4
7414
5484
07d4
0008
0000
0000
ENDCHAR
STARTCHAR ch-189
ENCODING 189
SWIDTH 1000 0
DWIDTH 16 0
BBX 16 16 0 -2
BITMAP
0110
07df
0122
7fd4
4b88
4c94
49a2
4bfe
4a02
4bfa
4bfa
7a02
03fe
0401
0000
0000
ENDCHAR
STARTCHAR ch-190
ENCODING 190
SWIDTH 1000 0
DWIDTH 16 0
BBX 16 16 0 -2
BITMAP
0044
01ff
0044
7def
4529
45ef
4484
45ff
4484
44ff
4484
7cff
0084
00ff
0000
0000
ENDCHAR
STARTCHAR ch-192
ENCODING 192
SWIDTH 1000 0
DWIDTH 16 0
BBX 16 16 0 -2
BITMAP
0104
07df
0104
77df
5555
555f
57d5
555f
5545
57df
7102
57df
010a
0106
0000
0000
ENDCHAR
STARTCHAR ch-193
ENCODING 193
SWIDTH 1000 0
DWIDTH 16 0
BBX 16 16 0 -2
BITMAP
01fe
0084
78fc
48fc
4884
4bff
4804
4bff
494a
79ce
49ce
014a
03df
0042
0000
0000
ENDCHAR
STARTCHAR ch-194
ENCODING 194
SWIDTH 1000 0
DWIDTH 16 0
BBX 16 16 0 -2
BITMAP
7e3f
4221
7e3f
1ffc
0100
0ff8
0808
0ff8
0fe8
0ff8
1004
7e3f
4221
7e3f
0000
0000
ENDCHAR
STARTCHAR ch-195
ENCODING 195
SWIDTH 1000 0
DWIDTH 16 0
BBX 16 16 0 -2
BITMAP
0108
0110
07f2
781f
4a52
4a52
4dbf
4912
4fd2
491f
4b92
7d52
0932
011f
0000
0000
ENDCHAR
STARTCHAR ch-197
ENCODING 197
SWIDTH 1000 0
DWIDTH 16 0
BBX 16 16 0 -2
BITMAP
777e
5542
777e
0040
7f52
497f
7f52
497f
7f50
0854
7f55
0856
089a
0911
0000
0000
ENDCHAR
STARTCHAR ch-198
ENCODING 198
SWIDTH 1000 0
DWIDTH 16 0
BBX 16 16 0 -2
BITMAP
0044
01ef
00fe
7892
48fe
48fe
49ff
4915
493d
49ff
4892
78fe
0011
01ff
0000
0000
ENDCHAR
STARTCHAR ch-200
ENCODING 200
SWIDTH 1000 0
DWIDTH 16 0
BBX 16 16 0 -2
BITMAP
0088
07df
0188
7bc8
493e
4fca
4d4a
4ff3
4923
4fc3
7bfe
07ff
0084
01fe
0000
0000
ENDCHAR
STARTCHAR ch-201
ENCODING 201
SWIDTH 1000 0
DWIDTH 16 0
BBX 16 16 0 -2
BITMAP
07ff
0489
0489
77ff
510a
5212
54bf
5712
515f
57d2
7112
555f
0552
011f
0000
0000
ENDCHAR
STARTCHAR ch-202
ENCODING 202
SWIDTH 1000 0
DWIDTH 16 0
BBX 16 16 0 -2
BITMAP
0080
7fff
1ffc
1ffc
7fff
5e3d
1224
1e3c
3ffe
0220
7fff
0c28
1510
2e27
0000
0000
ENDCHAR
STARTCHAR ch-203
ENCODING 203
SWIDTH 1000 0
DWIDTH 16 0
BBX 16 16 0 -2
BITMAP
014a
01ef
0042
79ef
48c6
496b
48fe
4882
48fe
4882
78fe
4882
00fe
0101
0000
0000
ENDCHAR
STARTCHAR ch-204
ENCODING 204
SWIDTH 1000 0
DWIDTH 16 0
BBX 16 16 0 -2
BITMAP
0084
03df
0084
7901
49de
4a44
4be4
4abf
4be4
7aa4
4aae
03f5
0554
0554
0000
0000
ENDCHAR
STARTCHAR ch-205
ENCODING 205
SWIDTH 1000 0
DWIDTH 16 0
BBX 16 16 0 -2
BITMAP
0808
7f7f
0808
3e3e
0000
3e3e
2222
3e3e
1414
7f7f
0000
3e3e
2222
3e3e
0000
0000
ENDCHAR
STARTCHAR ch-209
ENCODING 209
SWIDTH 1000 0
DWIDTH 16 0
BBX 16 16 0 -2
BITMAP
01fe
0102
7dfe
4598
4554
45fe
45aa
45fe
4540
7dff
45f9
01a9
02fb
00ff
0000
0000
ENDCHAR
STARTCHAR ch-211
ENCODING 211
SWIDTH 1000 0
DWIDTH 16 0
BBX 16 16 0 -2
BITMAP
011f
07c9
07c9
7909
4fd1
4926
493e
4fff
4a52
4aaa
4bfe
7a52
02aa
03fe
0000
0000
ENDCHAR
STARTCHAR ch-212
ENCODING 212
SWIDTH 1000 0
DWIDTH 16 0
BBX 16 16 0 -2
BITMAP
0010
01ff
00fe
7892
48fe
49ff
49ef
48aa
48ee
48fe
4828
79ff
48ca
0067
0000
0000
ENDCHAR
STARTCHAR ch-215
ENCODING 215
SWIDTH 1000 0
DWIDTH 16 0
BBX 16 16 0 -2
BITMAP
0002
3fff
2002
2002
2002
2002
2002
2002
2002
2002
2002
2002
3ffe
2002
0000
0000
ENDCHAR
STARTCHAR ch-218
ENCODING 218
SWIDTH 1000 0
DWIDTH 16 0
BBX 16 16 0 -2
BITMAP
0002
3fff
2002
2082
2082
2082
2082
20c2
2122
2212
240a
2002
3ffe
2002
0000
0000
ENDCHAR
STARTCHAR ch-219
ENCODING 219
SWIDTH 1000 0
DWIDTH 16 0
BBX 16 16 0 -2
BITMAP
0000
0002
7fff
2222
2222
2222
2222
2222
241e
2802
2002
3ffe
2002
0000
0000
0000
ENDCHAR
STARTCHAR ch-221
ENCODING 221
SWIDTH 1000 0
DWIDTH 16 0
BBX 16 16 0 -2
BITMAP
0002
7fff
4002
47f2
4022
4042
4082
5ffa
4082
4082
4082
4182
7ffe
4002
0000
0000
ENDCHAR
STARTCHAR ch-222
ENCODING 222
SWIDTH 1000 0
DWIDTH 16 0
BBX 16 16 0 -2
BITMAP
0002
7fff
4002
4002
4ff2
4812
4812
4812
4812
4ff2
4812
4002
7ffe
4002
0000
0000
ENDCHAR
STARTCHAR ch-223
ENCODING 223
SWIDTH 1000 0
DWIDTH 16 0
BBX 16 16 0 -2
BITMAP
0200
0400
0802
7fff
4412
4222
4142
4082
4142
4222
4412
480a
7ffe
4002
0000
0000
ENDCHAR
STARTCHAR ch-224
ENCODING 224
SWIDTH 1000 0
DWIDTH 16 0
BBX 16 16 0 -2
BITMAP
0002
3fff
2082
2082
2ffa
2082
2142
2122
2212
240a
280a
2002
3ffe
2002
0000
0000
ENDCHAR
STARTCHAR ch-225
ENCODING 225
SWIDTH 1000 0
DWIDTH 16 0
BBX 16 16 0 -2
BITMAP
0002
7fff
4202
4202
7ffe
4422
4422
4242
4182
4242
4432
480a
7ffe
4002
0000
0000
ENDCHAR
STARTCHAR ch-228
ENCODING 228
SWIDTH 1000 0
DWIDTH 16 0
BBX 16 16 0 -2
BITMAP
3fff
2082
2ffa
2082
2492
2492
2492
27f2
2082
208a
207a
2002
3ffe
2002
0000
0000
ENDCHAR
STARTCHAR ch-229
ENCODING 229
SWIDTH 1000 0
DWIDTH 16 0
BBX 16 16 0 -2
BITMAP
7fff
4081
4081
5ffd
4001
43e1
4221
4221
4425
4825
503d
4001
7fff
4001
0000
0000
ENDCHAR
STARTCHAR ch-231
ENCODING 231
SWIDTH 1000 0
DWIDTH 16 0
BBX 16 16 0 -2
BITMAP
7fff
4221
4221
4421
4821
503f
4001
47f1
4411
4411
4411
4411
7fff
4001
0000
0000
ENDCHAR
STARTCHAR ch-234
ENCODING 234
SWIDTH 1000 0
DWIDTH 16 0
BBX 16 16 0 -2
BITMAP
0200
0400
0802
1fff
3042
5282
1112
12a2
1442
18a2
111a
1002
1ffe
1002
0000
0000
ENDCHAR
STARTCHAR ch-235
ENCODING 235
SWIDTH 1000 0
DWIDTH 16 0
BBX 16 16 0 -2
BITMAP
0002
3fff
2402
27fa
2a4a
2a4a
324a
244a
248a
288a
312a
2212
3ffe
2002
0000
0000
ENDCHAR
STARTCHAR ch-238
ENCODING 238
SWIDTH 1000 0
DWIDTH 16 0
BBX 16 16 0 -2
BITMAP
7fff
4001
4281
4281
4285
4489
5cf1
4481
4481
4485
44fd
4001
7fff
4001
0000
0000
ENDCHAR
STARTCHAR ch-240
ENCODING 240
SWIDTH 1000 0
DWIDTH 16 0
BBX 16 16 0 -2
BITMAP
0002
3fff
2082
2082
2ffa
2082
2182
21c2
22a2
249a
288a
2082
3ffe
2002
0000
0000
ENDCHAR
STARTCHAR ch-247
ENCODING 247
SWIDTH 1000 0
DWIDTH 16 0
BBX 16 16 0 -2
BITMAP
7fff
4009
4071
4f81
4081
5ffd
4081
41c1
42a1
4491
588d
4001
7fff
4001
0000
0000
ENDCHAR
STARTCHAR ch-249
ENCODING 249
SWIDTH 1000 0
DWIDTH 16 0
BBX 16 16 0 -2
BITMAP
0002
3fff
2082
2142
2222
25d2
280e
37f2
2012
2222
2142
2082
3ffe
2002
0000
0000
ENDCHAR
STARTCHAR ch-250
ENCODING 250
SWIDTH 1000 0
DWIDTH 16 0
BBX 16 16 0 -2
BITMAP
0002
7fff
4102
5ffa
4102
4102
4ff2
4812
4812
4ff2
4812
4002
7ffe
4002
0000
0000
ENDCHAR
STARTCHAR ch-255
ENCODING 255
SWIDTH 1000 0
DWIDTH 16 0
BBX 16 16 0 -2
BITMAP
7fff
4101
5ffd
4201
43f1
4611
4bf1
5211
43f1
4211
4251
4221
7fff
4001
0000
0000
ENDCHAR
STARTCHAR ch-257
ENCODING 257
SWIDTH 1000 0
DWIDTH 16 0
BBX 16 16 0 -2
BITMAP
7ffe
4082
4ffa
4002
47f2
4002
47f2
4002
47f2
4412
47f2
4002
7ffe
4002
0000
0000
ENDCHAR
STARTCHAR ch-258
ENCODING 258
SWIDTH 1000 0
DWIDTH 16 0
BBX 16 16 0 -2
BITMAP
7fff
4001
5ffd
4041
41c5
4249
5cf1
4141
5ee1
4151
5e4d
4181
7fff
4001
0000
0000
ENDCHAR
STARTCHAR ch-259
ENCODING 259
SWIDTH 1000 0
DWIDTH 16 0
BBX 16 16 0 -2
BITMAP
7fff
4081
4091
5ffd
4081
4ff9
4889
4ff9
4889
4ff9
4889
4891
7fff
4001
0000
0000
ENDCHAR
STARTCHAR ch-260
ENCODING 260
SWIDTH 1000 0
DWIDTH 16 0
BBX 16 16 0 -2
BITMAP
7fff
4001
4ff9
4081
4ff9
4111
5ffd
4001
4ff9
4809
4ff9
4001
7fff
4001
0000
0000
ENDCHAR
STARTCHAR ch-263
ENCODING 263
SWIDTH 1000 0
DWIDTH 16 0
BBX 16 16 0 -2
BITMAP
7fff
4081
4141
4221
4be9
5005
4ff9
4949
4ff9
4949
4959
4001
7fff
4001
0000
0000
ENDCHAR
STARTCHAR ch-264
ENCODING 264
SWIDTH 1000 0
DWIDTH 16 0
BBX 16 16 0 -2
BITMAP
7fff
4491
42a1
4ff9
4101
5ffd
4221
47f1
5a2d
42c1
4211
41f1
4001
7fff
0000
0000
ENDCHAR
STARTCHAR ch-265
ENCODING 265
SWIDTH 1000 0
DWIDTH 16 0
BBX 16 16 0 -2
BITMAP
7fff
4081
4ff9
4081
5ffd
4221
4141
47f1
4081
4ff9
4081
4081
7fff
4001
0000
0000
ENDCHAR
STARTCHAR ch-266
ENCODING 266
SWIDTH 1000 0
DWIDTH 16 0
BBX 16 16 0 -2
BITMAP
7fff
4081
5ffd
4ff9
5ffd
4ff9
4809
4ff9
4809
4ff9
4809
5019
7fff
4001
0000
0000
ENDCHAR
STARTCHAR ch-267
ENCODING 267
SWIDTH 1000 0
DWIDTH 16 0
BBX 16 16 0 -2
BITMAP
7fff
4049
4045
5fff
4041
5f41
5145
5145
5f29
4011
5f2b
4045
7fff
4001
0000
0000
ENDCHAR
STARTCHAR ch-268
ENCODING 268
SWIDTH 1000 0
DWIDTH 16 0
BBX 16 16 0 -2
BITMAP
7fff
4081
5085
5ffd
4001
5ffd
4081
5ffd
5245
5245
5245
524d
4001
7fff
0000
0000
ENDCHAR
STARTCHAR ch-269
ENCODING 269
SWIDTH 1000 0
DWIDTH 16 0
BBX 16 16 0 -2
BITMAP
7fff
4101
4ff9
4109
5ffd
4ff9
4809
4ff9
4081
4ff9
4481
5ffd
4081
7fff
0000
0000
ENDCHAR
STARTCHAR ch-274
ENCODING 274
SWIDTH 1000 0
DWIDTH 16 0
BBX 16 16 0 -2
BITMAP
7fff
4081
4ff9
4081
5ffd
4001
4ff9
4809
4ff9
4651
4a21
5251
478d
7fff
0000
0000
ENDCHAR
STARTCHAR ch-275
ENCODING 275
SWIDTH 1000 0
DWIDTH 16 0
BBX 16 16 0 -2
BITMAP
7fff
47f1
4411
47f1
4ff9
4809
4ff9
4809
4ff9
4809
4ff9
4411
4809
7fff
0000
0000
ENDCHAR
STARTCHAR ch-276
ENCODING 276
SWIDTH 1000 0
DWIDTH 16 0
BBX 16 16 0 -2
BITMAP
7fff
4081
4ff9
4081
5ffd
4211
47f9
4005
4ff9
4949
4949
7fff
4001
7fff
0000
0000
ENDCHAR
STARTCHAR ch-278
ENCODING 278
SWIDTH 1000 0
DWIDTH 16 0
BBX 16 16 0 -2
BITMAP
7fff
47f1
4411
47f1
4081
5ffd
4001
5ffd
53e5
5225
53e5
5ffd
4001
7fff
0000
0000
ENDCHAR
STARTCHAR ch-280
ENCODING 280
SWIDTH 1000 0
DWIDTH 16 0
BBX 16 16 0 -2
BITMAP
7fff
4081
7fff
4081
4ff9
4fe9
4889
4ffb
7fff
4009
7fff
4109
4039
7fff
0000
0000
ENDCHAR
STARTCHAR ch-282
ENCODING 282
SWIDTH 1000 0
DWIDTH 16 0
BBX 16 16 0 -2
BITMAP
7fff
4081
4ff9
4889
4ff9
4081
5ffd
47f1
47f1
47f1
4411
47f1
580d
7fff
0000
0000
ENDCHAR
STARTCHAR ch-283
ENCODING 283
SWIDTH 1000 0
DWIDTH 16 0
BBX 16 16 0 -2
BITMAP
7fff
5ffd
5225
5ffd
4081
4ff9
4081
5ffd
4221
4ff9
4081
5ffd
4081
7fff
0000
0000
ENDCHAR
STARTCHAR ch-284
ENCODING 284
SWIDTH 1000 0
DWIDTH 16 0
BBX 16 16 0 -2
BITMAP
3ffe
2002
2ffa
294a
2ffa
2002
3ffe
2412
27f2
22a2
2642
3b3a
2212
3ffe
0000
0000
ENDCHAR
STARTCHAR ch-286
ENCODING 286
SWIDTH 1000 0
DWIDTH 16 0
BBX 16 16 0 -2
BITMAP
7fff
5089
7ff3
53dd
680b
7bdf
43c1
6a6b
6beb
4081
7fff
4491
4889
7fff
0000
0000
ENDCHAR
STARTCHAR ch-287
ENCODING 287
SWIDTH 1000 0
DWIDTH 16 0
BBX 16 16 0 -2
BITMAP
0080
0080
0080
0080
0084
3ffe
0080
0080
0080
0080
0080
0080
0082
7fff
0000
0000
ENDCHAR
STARTCHAR ch-288
ENCODING 288
SWIDTH 1000 0
DWIDTH 16 0
BBX 16 16 0 -2
BITMAP
0020
0820
0820
0820
7f20
0820
0820
0820
0920
0a20
0c21
7821
0021
001f
0000
0000
ENDCHAR
STARTCHAR ch-290
ENCODING 290
SWIDTH 1000 0
DWIDTH 16 0
BBX 16 16 0 -2
BITMAP
0800
087f
0808
7f08
0808
0808
0808
0908
0a08
0c08
7008
0008
0028
0010
0000
0000
ENDCHAR
STARTCHAR ch-291
ENCODING 291
SWIDTH 1000 0
DWIDTH 16 0
BBX 16 16 0 -2
BITMAP
0ff8
0010
0220
0140
0080
0140
0630
788f
0080
1ffc
0080
0080
0080
7fff
0000
0000
ENDCHAR
STARTCHAR ch-296
ENCODING 296
SWIDTH 1000 0
DWIDTH 16 0
BBX 16 16 0 -2
BITMAP
0100
0102
7fff
0200
0220
0420
0424
09fe
1820
2820
4820
0822
0bff
0800
0000
0000
ENDCHAR
STARTCHAR ch-297
ENCODING 297
SWIDTH 1000 0
DWIDTH 16 0
BBX 16 16 0 -2
BITMAP
0800
0804
08fe
0810
7f10
0812
09ff
0810
0f10
7810
2010
0010
0050
0020
0000
0000
ENDCHAR
STARTCHAR ch-298
ENCODING 298
SWIDTH 1000 0
DWIDTH 16 0
BBX 16 16 0 -2
BITMAP
0840
0842
087f
0880
7f00
087e
0804
0808
0f10
7820
2041
0081
0101
00ff
0000
0000
ENDCHAR
STARTCHAR ch-300
ENCODING 300
SWIDTH 1000 0
DWIDTH 16 0
BBX 16 16 0 -2
BITMAP
0804
08fe
0800
7f02
09ff
0840
0840
08fe
0f02
7802
2002
0022
0014
0008
0000
0000
ENDCHAR
STARTCHAR ch-301
ENCODING 301
SWIDTH 1000 0
DWIDTH 16 0
BBX 16 16 0 -2
BITMAP
0080
0088
1ffc
0080
0080
0082
7fff
0080
0088
1ffc
0080
0080
0082
7fff
0000
0000
ENDCHAR
STARTCHAR ch-302
ENCODING 302
SWIDTH 1000 0
DWIDTH 16 0
BBX 16 16 0 -2
BITMAP
0800
0804
09fe
0804
7e04
0804
09fc
0904
0f00
7900
2101
0101
0101
00ff
0000
0000
ENDCHAR
STARTCHAR ch-303
ENCODING 303
SWIDTH 1000 0
DWIDTH 16 0
BBX 16 16 0 -2
BITMAP
0800
0804
09fe
0904
0904
7f04
0904
09fc
0904
0f00
7900
2101
0101
00ff
0000
0000
ENDCHAR
STARTCHAR ch-304
ENCODING 304
SWIDTH 1000 0
DWIDTH 16 0
BBX 16 16 0 -2
BITMAP
0020
1020
1120
1124
113e
7de4
1324
1124
1134
1128
1121
1d01
7101
20ff
0000
0000
ENDCHAR
STARTCHAR ch-307
ENCODING 307
SWIDTH 1000 0
DWIDTH 16 0
BBX 16 16 0 -2
BITMAP
0802
0882
0892
0892
7e92
0892
0892
0892
0e92
7892
2112
0102
0202
0002
0000
0000
ENDCHAR
STARTCHAR ch-308
ENCODING 308
SWIDTH 1000 0
DWIDTH 16 0
BBX 16 16 0 -2
BITMAP
0080
1080
10ff
1081
7d01
1001
1041
1021
1411
1801
7001
0001
0012
000c
0000
0000
ENDCHAR
STARTCHAR ch-315
ENCODING 315
SWIDTH 1000 0
DWIDTH 16 0
BBX 16 16 0 -2
BITMAP
080e
08f0
0880
0880
7f82
08ff
0888
0888
0f88
7888
0108
0108
0208
0408
0000
0000
ENDCHAR
STARTCHAR ch-318
ENCODING 318
SWIDTH 1000 0
DWIDTH 16 0
BBX 16 16 0 -2
BITMAP
0bfe
0884
0888
7e88
089e
08c2
08c4
08a4
0f28
7910
2228
0248
0487
0902
0000
0000
ENDCHAR
STARTCHAR ch-320
ENCODING 320
SWIDTH 1000 0
DWIDTH 16 0
BBX 16 16 0 -2
BITMAP
0810
0810
0810
0890
7f92
089f
0890
0890
0890
0990
0e90
7890
2092
03ff
0000
0000
ENDCHAR
STARTCHAR ch-321
ENCODING 321
SWIDTH 1000 0
DWIDTH 16 0
BBX 16 16 0 -2
BITMAP
1001
13fe
1110
7d10
1110
11ff
1110
1110
1510
1908
7129
0145
0183
0701
0000
0000
ENDCHAR
STARTCHAR ch-325
ENCODING 325
SWIDTH 1000 0
DWIDTH 16 0
BBX 16 16 0 -2
BITMAP
0020
2050
2088
2104
7a02
24f9
2000
2000
2bfe
3004
6008
0010
0020
0040
0000
0000
ENDCHAR
STARTCHAR ch-327
ENCODING 327
SWIDTH 1000 0
DWIDTH 16 0
BBX 16 16 0 -2
BITMAP
0840
0842
087f
0882
7e82
0912
087a
0802
0812
0e7a
7802
2002
0014
0008
0000
0000
ENDCHAR
STARTCHAR ch-329
ENCODING 329
SWIDTH 1000 0
DWIDTH 16 0
BBX 16 16 0 -2
BITMAP
0020
0024
13fe
1020
1124
7d24
1124
1124
11fc
1420
1820
7021
0021
003f
0000
0000
ENDCHAR
STARTCHAR ch-330
ENCODING 330
SWIDTH 1000 0
DWIDTH 16 0
BBX 16 16 0 -2
BITMAP
0840
0820
0802
09ff
7e40
0844
087e
0844
0e44
7844
2084
0084
0128
0210
0000
0000
ENDCHAR
STARTCHAR ch-331
ENCODING 331
SWIDTH 1000 0
DWIDTH 16 0
BBX 16 16 0 -2
BITMAP
0028
0044
1082
1101
1000
7cfe
1022
1022
1022
1422
1842
7082
010a
0004
0000
0000
ENDCHAR
STARTCHAR ch-332
ENCODING 332
SWIDTH 1000 0
DWIDTH 16 0
BBX 16 16 0 -2
BITMAP
00c0
0220
0410
0808
17f7
6212
0450
18a0
0080
0080
1ffc
0080
0082
7fff
0000
0000
ENDCHAR
STARTCHAR ch-333
ENCODING 333
SWIDTH 1000 0
DWIDTH 16 0
BBX 16 16 0 -2
BITMAP
1004
11fe
1104
1144
7d24
1124
1104
17ff
1104
1d04
7104
2204
0214
0408
0000
0000
ENDCHAR
STARTCHAR ch-334
ENCODING 334
SWIDTH 1000 0
DWIDTH 16 0
BBX 16 16 0 -2
BITMAP
0840
0840
087e
7e82
0884
0920
0820
0820
0850
0e50
7088
2104
0207
0402
0000
0000
ENDCHAR
STARTCHAR ch-335
ENCODING 335
SWIDTH 1000 0
DWIDTH 16 0
BBX 16 16 0 -2
BITMAP
0002
17ff
1010
1020
7c40
10a0
1124
1622
1021
1420
1820
6020
0020
0020
0000
0000
ENDCHAR
STARTCHAR ch-336
ENCODING 336
SWIDTH 1000 0
DWIDTH 16 0
BBX 16 16 0 -2
BITMAP
0080
0888
0888
0888
1494
1292
22a2
40c0
0088
1ffc
0080
0080
0082
7fff
0000
0000
ENDCHAR
STARTCHAR ch-337
ENCODING 337
SWIDTH 1000 0
DWIDTH 16 0
BBX 16 16 0 -2
BITMAP
0840
0822
0bff
7e00
0808
08fc
0888
0888
0e88
7888
2088
0109
0109
0207
0000
0000
ENDCHAR
STARTCHAR ch-338
ENCODING 338
SWIDTH 1000 0
DWIDTH 16 0
BBX 16 16 0 -2
BITMAP
2040
2040
2040
3f7f
2040
2141
2241
7c7f
0080
0080
1ffc
0080
0080
7fff
0000
0000
ENDCHAR
STARTCHAR ch-353
ENCODING 353
SWIDTH 1000 0
DWIDTH 16 0
BBX 16 16 0 -2
BITMAP
0810
0810
09ff
7f11
0912
0910
09fe
0942
0f24
7128
2110
0228
0447
0982
0000
0000
ENDCHAR
STARTCHAR ch-354
ENCODING 354
SWIDTH 1000 0
DWIDTH 16 0
BBX 16 16 0 -2
BITMAP
0010
1092
1092
1092
7c54
1010
11ff
1010
1410
19ff
7010
0010
0010
0010
0000
0000
ENDCHAR
STARTCHAR ch-356
ENCODING 356
SWIDTH 1000 0
DWIDTH 16 0
BBX 16 16 0 -2
BITMAP
1020
1020
1022
13ff
7e22
1222
13fe
1222
1e22
73fe
2222
0020
0020
0020
0000
0000
ENDCHAR
STARTCHAR ch-358
ENCODING 358
SWIDTH 1000 0
DWIDTH 16 0
BBX 16 16 0 -2
BITMAP
1000
1004
11fe
1104
7d04
1104
11fc
1104
1104
1dfc
7104
2000
0000
07ff
0000
0000
ENDCHAR
STARTCHAR ch-360
ENCODING 360
SWIDTH 1000 0
DWIDTH 16 0
BBX 16 16 0 -2
BITMAP
0820
0810
09ff
0901
7e02
0800
0888
0898
08a0
0ec0
7880
2081
0081
007f
0000
0000
ENDCHAR
STARTCHAR ch-361
ENCODING 361
SWIDTH 1000 0
DWIDTH 16 0
BBX 16 16 0 -2
BITMAP
0884
0884
0884
0bff
7e84
0884
0884
08fc
0e84
7884
2084
0084
00fc
0084
0000
0000
ENDCHAR
STARTCHAR ch-362
ENCODING 362
SWIDTH 1000 0
DWIDTH 16 0
BBX 16 16 0 -2
BITMAP
0804
0bfe
0820
0924
7ea4
08a8
08a8
0822
0fff
0e20
7020
2020
0020
0020
0000
0000
ENDCHAR
STARTCHAR ch-363
ENCODING 363
SWIDTH 1000 0
DWIDTH 16 0
BBX 16 16 0 -2
BITMAP
0820
0822
083f
0820
7f20
0820
0824
09fe
0904
0f04
7904
2104
01fc
0104
0000
0000
ENDCHAR
STARTCHAR ch-365
ENCODING 365
SWIDTH 1000 0
DWIDTH 16 0
BBX 16 16 0 -2
BITMAP
1004
11fe
1104
1104
7dfc
1100
1140
1140
1d7e
7140
2241
0241
043f
0800
0000
0000
ENDCHAR
STARTCHAR ch-367
ENCODING 367
SWIDTH 1000 0
DWIDTH 16 0
BBX 16 16 0 -2
BITMAP
0800
0802
09ff
0808
7e10
0834
0852
0891
0911
0e10
7810
2010
0012
03ff
0000
0000
ENDCHAR
STARTCHAR ch-368
ENCODING 368
SWIDTH 1000 0
DWIDTH 16 0
BBX 16 16 0 -2
BITMAP
11ff
1101
1101
7d01
117d
1145
1145
1145
157d
1945
7101
0109
0105
0102
0000
0000
ENDCHAR
STARTCHAR ch-369
ENCODING 369
SWIDTH 1000 0
DWIDTH 16 0
BBX 16 16 0 -2
BITMAP
0010
1010
1010
10fe
7c92
1092
1092
13ff
1410
1828
7044
0082
0101
0201
0000
0000
ENDCHAR
STARTCHAR ch-370
ENCODING 370
SWIDTH 1000 0
DWIDTH 16 0
BBX 16 16 0 -2
BITMAP
0090
2090
27fe
2092
7892
27fe
2490
2490
27ff
2891
3091
6116
0210
0010
0000
0000
ENDCHAR
STARTCHAR ch-371
ENCODING 371
SWIDTH 1000 0
DWIDTH 16 0
BBX 16 16 0 -2
BITMAP
1010
1090
1112
113f
7e52
13d2
1112
1252
13d2
1c52
7022
2022
004a
0084
0000
0000
ENDCHAR
STARTCHAR ch-372
ENCODING 372
SWIDTH 1000 0
DWIDTH 16 0
BBX 16 16 0 -2
BITMAP
0080
0080
3ffe
0080
0080
7fff
0808
1088
2088
4087
0ff8
0080
0080
7fff
0000
0000
ENDCHAR
STARTCHAR ch-373
ENCODING 373
SWIDTH 1000 0
DWIDTH 16 0
BBX 16 16 0 -2
BITMAP
0008
0810
0820
0842
3eff
0844
0844
0844
0844
0e44
7044
0044
0044
03ff
0000
0000
ENDCHAR
STARTCHAR ch-374
ENCODING 374
SWIDTH 1000 0
DWIDTH 16 0
BBX 16 16 0 -2
BITMAP
0804
08fe
0884
08a4
7e94
0884
0bff
08a4
0e94
7914
21fe
0004
0024
0018
0000
0000
ENDCHAR
STARTCHAR ch-375
ENCODING 375
SWIDTH 1000 0
DWIDTH 16 0
BBX 16 16 0 -2
BITMAP
0802
0bff
0802
08f2
7e92
0892
0892
0892
08f2
0e82
7802
2002
000a
0004
0000
0000
ENDCHAR
STARTCHAR ch-379
ENCODING 379
SWIDTH 1000 0
DWIDTH 16 0
BBX 16 16 0 -2
BITMAP
000f
13f8
1210
1210
7e10
13ff
1210
1210
1e10
7251
0289
0305
0efb
0001
0000
0000
ENDCHAR
STARTCHAR ch-380
ENCODING 380
SWIDTH 1000 0
DWIDTH 16 0
BBX 16 16 0 -2
BITMAP
080e
08f0
0880
0880
7e82
08ff
0888
0888
0e8c
788a
2109
0108
0208
0008
0000
0000
ENDCHAR
STARTCHAR ch-381
ENCODING 381
SWIDTH 1000 0
DWIDTH 16 0
BBX 16 16 0 -2
BITMAP
0010
1028
1044
1082
7d01
1078
1000
1000
14fe
1802
7004
0028
0010
0008
0000
0000
ENDCHAR
STARTCHAR ch-384
ENCODING 384
SWIDTH 1000 0
DWIDTH 16 0
BBX 16 16 0 -2
BITMAP
1006
10f8
1010
7c92
1054
1010
11ff
1410
1810
7010
0010
0090
0050
0020
0000
0000
ENDCHAR
STARTCHAR ch-386
ENCODING 386
SWIDTH 1000 0
DWIDTH 16 0
BBX 16 16 0 -2
BITMAP
003c
1fc0
0080
0084
3ffe
0490
0490
7fff
0490
0490
3ffe
0080
0080
7fff
0000
0000
ENDCHAR
STARTCHAR ch-387
ENCODING 387
SWIDTH 1000 0
DWIDTH 16 0
BBX 16 16 0 -2
BITMAP
0840
0820
0824
09fe
0800
7e84
0884
0848
0848
0850
0e10
7020
0022
03ff
0000
0000
ENDCHAR
STARTCHAR ch-395
ENCODING 395
SWIDTH 1000 0
DWIDTH 16 0
BBX 16 16 0 -2
BITMAP
0002
3fc2
0912
0912
7fd2
0912
0902
118a
2084
0080
3ffe
0080
0082
7fff
0000
0000
ENDCHAR
STARTCHAR ch-396
ENCODING 396
SWIDTH 1000 0
DWIDTH 16 0
BBX 16 16 0 -2
BITMAP
0802
09ff
0902
097a
7f02
0902
097a
094a
0f4a
797a
2102
0102
010a
0104
0000
0000
ENDCHAR
STARTCHAR ch-399
ENCODING 399
SWIDTH 1000 0
DWIDTH 16 0
BBX 16 16 0 -2
BITMAP
0010
1010
107e
1012
7dff
1012
107e
1010
14fe
1810
71ff
0010
0010
0010
0000
0000
ENDCHAR
STARTCHAR ch-403
ENCODING 403
SWIDTH 1000 0
DWIDTH 16 0
BBX 16 16 0 -2
BITMAP
0840
0822
0bff
0840
7e48
09f0
0894
0824
0e48
7888
2310
006c
0183
0601
0000
0000
ENDCHAR
STARTCHAR ch-404
ENCODING 404
SWIDTH 1000 0
DWIDTH 16 0
BBX 16 16 0 -2
BITMAP
0002
7fff
0220
0220
3ffe
2222
2222
3ffe
0080
0088
1ffc
0080
0082
7fff
0000
0000
ENDCHAR
STARTCHAR ch-405
ENCODING 405
SWIDTH 1000 0
DWIDTH 16 0
BBX 16 16 0 -2
BITMAP
0002
3ffe
1000
1ffc
1000
17fc
1404
1404
27fc
4040
0ffe
0040
0040
1fff
0000
0000
ENDCHAR
STARTCHAR ch-407
ENCODING 407
SWIDTH 1000 0
DWIDTH 16 0
BBX 16 16 0 -2
BITMAP
2090
2090
2092
7a94
2198
2090
2198
2294
2892
3090
6110
0211
0411
081f
0000
0000
ENDCHAR
STARTCHAR ch-408
ENCODING 408
SWIDTH 1000 0
DWIDTH 16 0
BBX 16 16 0 -2
BITMAP
2048
208a
2109
2208
797f
2108
2108
2108
2908
3108
6114
0122
0141
0100
0000
0000
ENDCHAR
STARTCHAR ch-409
ENCODING 409
SWIDTH 1000 0
DWIDTH 16 0
BBX 16 16 0 -2
BITMAP
1010
1111
1111
1092
7c10
11ff
1048
1048
1448
1848
7049
0089
0109
060f
0000
0000
ENDCHAR
STARTCHAR ch-410
ENCODING 410
SWIDTH 1000 0
DWIDTH 16 0
BBX 16 16 0 -2
BITMAP
0080
0080
0ff8
0080
0080
3ffe
0000
0808
0808
3e3e
0808
0808
0808
7f7f
0000
0000
ENDCHAR
STARTCHAR ch-411
ENCODING 411
SWIDTH 1000 0
DWIDTH 16 0
BBX 16 16 0 -2
BITMAP
0808
08fc
0888
7e88
0888
0b26
0fff
0860
0e70
78a8
2124
0223
0422
0020
0000
0000
ENDCHAR
STARTCHAR ch-413
ENCODING 413
SWIDTH 1000 0
DWIDTH 16 0
BBX 16 16 0 -2
BITMAP
2100
23fc
2408
2010
7bff
2200
23fe
2242
2242
2a5c
3240
6241
0441
007f
0000
0000
ENDCHAR
STARTCHAR ch-414
ENCODING 414
SWIDTH 1000 0
DWIDTH 16 0
BBX 16 16 0 -2
BITMAP
0020
27ff
2401
200c
7838
23e0
2040
2040
27fe
2840
3040
6041
0041
007f
0000
0000
ENDCHAR
STARTCHAR ch-415
ENCODING 415
SWIDTH 1000 0
DWIDTH 16 0
BBX 16 16 0 -2
BITMAP
0044
1028
10fe
1010
7c10
10fe
1010
1010
17ff
1810
7010
0010
0010
0010
0000
0000
ENDCHAR
STARTCHAR ch-416
ENCODING 416
SWIDTH 1000 0
DWIDTH 16 0
BBX 16 16 0 -2
BITMAP
0804
09fe
0904
09fc
7f04
09fc
0940
0942
0f24
7918
2108
0124
0142
0381
0000
0000
ENDCHAR
STARTCHAR ch-418
ENCODING 418
SWIDTH 1000 0
DWIDTH 16 0
BBX 16 16 0 -2
BITMAP
0806
09f8
0900
7f02
09ff
0900
0902
097f
0b42
0d42
7142
2242
047e
0042
0000
0000
ENDCHAR
STARTCHAR ch-419
ENCODING 419
SWIDTH 1000 0
DWIDTH 16 0
BBX 16 16 0 -2
BITMAP
1002
13ff
1000
1000
7dfe
1104
1104
11fc
1104
1104
1dfc
7104
2000
07ff
0000
0000
ENDCHAR
STARTCHAR ch-420
ENCODING 420
SWIDTH 1000 0
DWIDTH 16 0
BBX 16 16 0 -2
BITMAP
0804
0bfe
0820
0848
7e84
09fe
0802
0820
09fe
0e20
7820
2022
07ff
0000
0000
0000
ENDCHAR
STARTCHAR ch-421
ENCODING 421
SWIDTH 1000 0
DWIDTH 16 0
BBX 16 16 0 -2
BITMAP
0010
1028
1044
1082
7d01
10fe
1000
1000
10fe
1482
1882
7082
00fe
0082
0000
0000
ENDCHAR
STARTCHAR ch-430
ENCODING 430
SWIDTH 1000 0
DWIDTH 16 0
BBX 16 16 0 -2
BITMAP
1020
17ff
1020
1050
7c88
1304
1cfb
1000
13fe
1c80
71fc
0004
0088
0070
0000
0000
ENDCHAR
STARTCHAR ch-437
ENCODING 437
SWIDTH 1000 0
DWIDTH 16 0
BBX 16 16 0 -2
BITMAP
0010
11ff
1101
1101
7c40
1044
11ff
1044
1444
1828
7010
0028
0044
0383
0000
0000
ENDCHAR
STARTCHAR ch-438
ENCODING 438
SWIDTH 1000 0
DWIDTH 16 0
BBX 16 16 0 -2
BITMAP
0020
1010
11fe
1084
7c48
1030
13ff
1010
1410
19fe
7010
0010
0010
0010
0000
0000
ENDCHAR
STARTCHAR ch-440
ENCODING 440
SWIDTH 1000 0
DWIDTH 16 0
BBX 16 16 0 -2
BITMAP
0840
0820
09ff
0901
0a02
7ef8
0800
0bff
0e50
7850
2091
0091
0111
060f
0000
0000
ENDCHAR
STARTCHAR ch-441
ENCODING 441
SWIDTH 1000 0
DWIDTH 16 0
BBX 16 16 0 -2
BITMAP
2100
213f
27d1
2112
7914
27d2
2111
2111
27d1
2919
3116
6110
0210
0410
0000
0000
ENDCHAR
STARTCHAR ch-442
ENCODING 442
SWIDTH 1000 0
DWIDTH 16 0
BBX 16 16 0 -2
BITMAP
0001
11fe
1010
1111
7c92
11fe
1004
1018
15ff
1810
6010
0010
0050
0020
0000
0000
ENDCHAR
STARTCHAR ch-444
ENCODING 444
SWIDTH 1000 0
DWIDTH 16 0
BBX 16 16 0 -2
BITMAP
087c
7045
0587
0800
707c
1028
1010
10ee
0000
0080
1ffc
0080
0080
7fff
0000
0000
ENDCHAR
STARTCHAR ch-445
ENCODING 445
SWIDTH 1000 0
DWIDTH 16 0
BBX 16 16 0 -2
BITMAP
2004
19f8
4100
33fe
0510
7910
1110
1210
1090
0080
1ffc
0080
0080
7fff
0000
0000
ENDCHAR
STARTCHAR ch-447
ENCODING 447
SWIDTH 1000 0
DWIDTH 16 0
BBX 16 16 0 -2
BITMAP
0010
23ff
2200
7afe
2204
2238
2208
23ff
2a12
3210
6210
0410
0050
0020
0000
0000
ENDCHAR
STARTCHAR ch-449
ENCODING 449
SWIDTH 1000 0
DWIDTH 16 0
BBX 16 16 0 -2
BITMAP
0020
0222
2222
23fe
2020
7850
2088
2104
2673
2000
29fc
3008
6010
0060
0000
0000
ENDCHAR
STARTCHAR ch-450
ENCODING 450
SWIDTH 1000 0
DWIDTH 16 0
BBX 16 16 0 -2
BITMAP
1002
17ff
1020
1024
7dfe
1124
11fc
1124
1dfc
7020
20a0
0060
019f
0e02
0000
0000
ENDCHAR
STARTCHAR ch-451
ENCODING 451
SWIDTH 1000 0
DWIDTH 16 0
BBX 16 16 0 -2
BITMAP
1020
1048
1084
11fe
7c02
1080
10fc
1120
1022
13ff
1c20
7050
008f
0302
0000
0000
ENDCHAR
STARTCHAR ch-454
ENCODING 454
SWIDTH 1000 0
DWIDTH 16 0
BBX 16 16 0 -2
BITMAP
0040
10fe
1104
1008
7dff
1111
11ff
1111
1511
19ff
7101
0101
0105
0102
0000
0000
ENDCHAR
STARTCHAR ch-455
ENCODING 455
SWIDTH 1000 0
DWIDTH 16 0
BBX 16 16 0 -2
BITMAP
01fc
2008
2050
2020
7bfe
2222
23fe
2222
23fe
2a22
3222
6222
022a
0404
0000
0000
ENDCHAR
STARTCHAR ch-459
ENCODING 459
SWIDTH 1000 0
DWIDTH 16 0
BBX 16 16 0 -2
BITMAP
1004
11fe
1124
1124
7dfc
1124
1124
11fc
1020
1c20
73fe
2020
0020
07ff
0000
0000
ENDCHAR
STARTCHAR ch-460
ENCODING 460
SWIDTH 1000 0
DWIDTH 16 0
BBX 16 16 0 -2
BITMAP
0040
0020
11fe
1102
11fe
7d02
11fe
1100
1502
1924
7118
0148
0184
0303
0000
0000
ENDCHAR
STARTCHAR ch-462
ENCODING 462
SWIDTH 1000 0
DWIDTH 16 0
BBX 16 16 0 -2
BITMAP
1010
1014
13ff
7e10
1210
13d2
1252
1254
1e48
7248
2298
0429
0445
0803
0000
0000
ENDCHAR
STARTCHAR ch-463
ENCODING 463
SWIDTH 1000 0
DWIDTH 16 0
BBX 16 16 0 -2
BITMAP
1006
17b8
1088
1108
7d28
122e
17a8
14a8
12a8
1d28
713e
2280
0440
083f
0000
0000
ENDCHAR
STARTCHAR ch-464
ENCODING 464
SWIDTH 1000 0
DWIDTH 16 0
BBX 16 16 0 -2
BITMAP
01fc
2004
23ff
2004
79fc
2000
27ff
2401
22fa
2850
3020
6050
0088
0707
0000
0000
ENDCHAR
STARTCHAR ch-466
ENCODING 466
SWIDTH 1000 0
DWIDTH 16 0
BBX 16 16 0 -2
BITMAP
0804
081e
0be0
0822
0912
7e94
0808
0bff
0888
0e48
7808
2008
0028
0010
0000
0000
ENDCHAR
STARTCHAR ch-468
ENCODING 468
SWIDTH 1000 0
DWIDTH 16 0
BBX 16 16 0 -2
BITMAP
1028
1024
17ff
7c20
13fe
1222
1222
13fe
1222
1e22
73fe
2222
022a
0224
0000
0000
ENDCHAR
STARTCHAR ch-469
ENCODING 469
SWIDTH 1000 0
DWIDTH 16 0
BBX 16 16 0 -2
BITMAP
0802
08ff
0882
0882
7efe
0882
0800
09ff
0810
0e10
78fe
2010
0010
03ff
0000
0000
ENDCHAR
STARTCHAR ch-476
ENCODING 476
SWIDTH 1000 0
DWIDTH 16 0
BBX 16 16 0 -2
BITMAP
0808
0808
7f7f
0808
1c1c
2a2a
4949
0888
0080
1ffc
0080
0080
0082
7fff
0000
0000
ENDCHAR
STARTCHAR ch-479
ENCODING 479
SWIDTH 1000 0
DWIDTH 16 0
BBX 16 16 0 -2
BITMAP
1014
1012
13ff
7c10
1010
13d2
1252
1254
1fc8
7008
21d9
0625
0045
0083
0000
0000
ENDCHAR
STARTCHAR ch-480
ENCODING 480
SWIDTH 1000 0
DWIDTH 16 0
BBX 16 16 0 -2
BITMAP
1084
11fe
1104
7dfc
1100
11fc
1104
11fc
1120
1c22
73ff
2020
0020
0020
0000
0000
ENDCHAR
STARTCHAR ch-481
ENCODING 481
SWIDTH 1000 0
DWIDTH 16 0
BBX 16 16 0 -2
BITMAP
0002
11ff
1044
1044
7c44
11c7
1101
1101
1101
15c7
1844
7044
0044
01ff
0000
0000
ENDCHAR
STARTCHAR ch-482
ENCODING 482
SWIDTH 1000 0
DWIDTH 16 0
BBX 16 16 0 -2
BITMAP
0092
1054
1038
11ff
7c10
11ff
1044
1482
197d
7044
0044
0049
0041
007f
0000
0000
ENDCHAR
STARTCHAR ch-483
ENCODING 483
SWIDTH 1000 0
DWIDTH 16 0
BBX 16 16 0 -2
BITMAP
2020
27ff
2000
2104
7904
228a
2451
2020
27ff
2820
3020
6020
0020
0020
0000
0000
ENDCHAR
STARTCHAR ch-484
ENCODING 484
SWIDTH 1000 0
DWIDTH 16 0
BBX 16 16 0 -2
BITMAP
1020
11fe
1112
1112
7dfe
1122
1122
11fe
1050
1c90
73ff
2010
0010
0010
0000
0000
ENDCHAR
STARTCHAR ch-485
ENCODING 485
SWIDTH 1000 0
DWIDTH 16 0
BBX 16 16 0 -2
BITMAP
2020
27ff
2020
23fe
7820
27ff
2000
23fe
2a02
33fe
6202
03fe
0202
0406
0000
0000
ENDCHAR
STARTCHAR ch-487
ENCODING 487
SWIDTH 1000 0
DWIDTH 16 0
BBX 16 16 0 -2
BITMAP
0000
21fc
2104
21fc
7904
21fc
2104
21fc
2904
3104
67ff
0104
0202
0401
0000
0000
ENDCHAR
STARTCHAR ch-489
ENCODING 489
SWIDTH 1000 0
DWIDTH 16 0
BBX 16 16 0 -2
BITMAP
0001
27fe
2124
2222
7c21
23fe
2022
27ff
2022
2bfe
3020
6020
00a0
0040
0000
0000
ENDCHAR
STARTCHAR ch-492
ENCODING 492
SWIDTH 1000 0
DWIDTH 16 0
BBX 16 16 0 -2
BITMAP
2020
27ff
2020
7bfe
2222
23fe
2222
23fe
28a8
3124
6222
0421
0020
0020
0000
0000
ENDCHAR
STARTCHAR ch-493
ENCODING 493
SWIDTH 1000 0
DWIDTH 16 0
BBX 16 16 0 -2
BITMAP
1020
1020
11fc
7c24
13ff
1024
11fc
1120
1ca4
7068
21a8
0627
0022
0060
0000
0000
ENDCHAR
STARTCHAR ch-494
ENCODING 494
SWIDTH 1000 0
DWIDTH 16 0
BBX 16 16 0 -2
BITMAP
1010
1092
1054
7c10
1028
1044
1193
1092
1054
1428
1844
7082
0101
0101
0000
0000
ENDCHAR
STARTCHAR ch-496
ENCODING 496
SWIDTH 1000 0
DWIDTH 16 0
BBX 16 16 0 -2
BITMAP
0002
11fc
1111
1092
7c54
1010
11ff
1010
1438
1854
7092
0111
0010
0010
0000
0000
ENDCHAR
STARTCHAR ch-497
ENCODING 497
SWIDTH 1000 0
DWIDTH 16 0
BBX 16 16 0 -2
BITMAP
2100
211f
21d1
2111
7911
27d1
2111
2391
2551
292a
2904
310a
6111
0321
0000
0000
ENDCHAR
STARTCHAR ch-498
ENCODING 498
SWIDTH 1000 0
DWIDTH 16 0
BBX 16 16 0 -2
BITMAP
2040
23fe
2040
23fe
7840
27ff
2124
2222
25fd
2820
37ff
6020
0020
0020
0000
0000
ENDCHAR
STARTCHAR ch-499
ENCODING 499
SWIDTH 1000 0
DWIDTH 16 0
BBX 16 16 0 -2
BITMAP
2040
20ff
2102
2204
7808
2090
2100
220f
2201
2bdf
3201
6201
03ff
0201
0000
0000
ENDCHAR
STARTCHAR ch-500
ENCODING 500
SWIDTH 1000 0
DWIDTH 16 0
BBX 16 16 0 -2
BITMAP
0020
1024
13fe
1020
7dfc
1104
11fc
1104
11fc
1d04
71fc
2104
0104
07ff
0000
0000
ENDCHAR
STARTCHAR ch-501
ENCODING 501
SWIDTH 1000 0
DWIDTH 16 0
BBX 16 16 0 -2
BITMAP
03fc
2020
2020
27ff
7924
2124
27ff
2124
2124
2924
37ff
6020
0020
07ff
0000
0000
ENDCHAR
STARTCHAR ch-502
ENCODING 502
SWIDTH 1000 0
DWIDTH 16 0
BBX 16 16 0 -2
BITMAP
0410
0410
3f90
043c
0414
7fd4
1114
2134
44dc
0414
3f14
0425
0445
7f87
0000
0000
ENDCHAR
STARTCHAR ch-503
ENCODING 503
SWIDTH 1000 0
DWIDTH 16 0
BBX 16 16 0 -2
BITMAP
0410
0410
3f92
043f
7fd2
1112
0a32
7fda
0412
0412
3f92
0422
0442
0403
0000
0000
ENDCHAR
STARTCHAR ch-504
ENCODING 504
SWIDTH 1000 0
DWIDTH 16 0
BBX 16 16 0 -2
BITMAP
11fc
1104
11fc
1104
7dfc
1080
1082
11ff
1252
1c92
70a2
2122
024a
0084
0000
0000
ENDCHAR
STARTCHAR ch-505
ENCODING 505
SWIDTH 1000 0
DWIDTH 16 0
BBX 16 16 0 -2
BITMAP
1040
1024
13fe
1088
7c50
1022
17ff
1000
1004
11fe
1d04
7104
21fc
0104
0000
0000
ENDCHAR
STARTCHAR ch-506
ENCODING 506
SWIDTH 1000 0
DWIDTH 16 0
BBX 16 16 0 -2
BITMAP
0410
3ffe
0410
07f0
0410
07f0
0412
7fff
0498
1887
67f2
0080
0088
1ffc
0000
0000
ENDCHAR
STARTCHAR ch-507
ENCODING 507
SWIDTH 1000 0
DWIDTH 16 0
BBX 16 16 0 -2
BITMAP
0010
11ff
1000
10fe
7c82
10fe
1000
147c
1808
71ff
0010
0010
0050
0020
0000
0000
ENDCHAR
STARTCHAR ch-508
ENCODING 508
SWIDTH 1000 0
DWIDTH 16 0
BBX 16 16 0 -2
BITMAP
0020
27ff
2050
2088
7904
27ff
2004
23e4
2224
2a24
33e4
6004
0014
0008
0000
0000
ENDCHAR
STARTCHAR ch-509
ENCODING 509
SWIDTH 1000 0
DWIDTH 16 0
BBX 16 16 0 -2
BITMAP
1004
11fe
1004
10fc
1004
7dfc
13ff
1221
15fe
1d24
7124
012c
0020
0020
0000
0000
ENDCHAR
ENDFONT
