STARTFONT 2.1
FONT big5.9a00.16
SIZE 16 72 72
FONTBOUNDINGBOX 16 16 0 -2
STARTPROPERTIES 4
FONT_DESCENT 2
FONT_ASCENT 14
DEFAULT_CHAR 1
COPYRIGHT "Copyright (c) 1992 AT&T - All rights reserved."
ENDPROPERTIES
CHARS 288
STARTCHAR ch-1
ENCODING 1
SWIDTH 1000 0
DWIDTH 16 0
BBX 16 16 0 -2
BITMAP
0008
3f08
247f
3f49
247f
3f49
247f
3f00
017f
2510
253f
5b01
0101
061e
0000
0000
ENDCHAR
STARTCHAR ch-2
ENCODING 2
SWIDTH 1000 0
DWIDTH 16 0
BBX 16 16 0 -2
BITMAP
7e08
4808
487f
7e00
4822
7e22
4814
48ff
7f08
2508
257f
5b08
0108
0e08
0000
0000
ENDCHAR
STARTCHAR ch-3
ENCODING 3
SWIDTH 1000 0
DWIDTH 16 0
BBX 16 16 0 -2
BITMAP
7e08
4810
4820
7e42
48ff
7e20
483e
4848
7f08
257f
2508
5b14
0122
0e41
0000
0000
ENDCHAR
STARTCHAR ch-4
ENCODING 4
SWIDTH 1000 0
DWIDTH 16 0
BBX 16 16 0 -2
BITMAP
7e10
483e
48c2
7e14
4808
7fff
4810
4892
7f54
2538
2538
5b54
0192
0e31
0000
0000
ENDCHAR
STARTCHAR ch-5
ENCODING 5
SWIDTH 1000 0
DWIDTH 16 0
BBX 16 16 0 -2
BITMAP
7e28
4844
49c0
7e7e
4848
7e48
487e
4848
7f48
257e
2548
5b48
017e
0e40
0000
0000
ENDCHAR
STARTCHAR ch-6
ENCODING 6
SWIDTH 1000 0
DWIDTH 16 0
BBX 16 16 0 -2
BITMAP
7e7f
4841
4849
7e5d
4849
7e7f
4841
485d
7f55
2555
255d
5b41
0143
0f81
0000
0000
ENDCHAR
STARTCHAR ch-7
ENCODING 7
SWIDTH 1000 0
DWIDTH 16 0
BBX 16 16 0 -2
BITMAP
7e10
4828
4844
7e82
497d
7e10
4810
48fe
7f10
257c
2544
5b44
0144
0e7c
0000
0000
ENDCHAR
STARTCHAR ch-9
ENCODING 9
SWIDTH 1000 0
DWIDTH 16 0
BBX 16 16 0 -2
BITMAP
7e7e
4842
487e
7e42
487e
7e00
4844
4844
7f45
2576
2544
5b45
0145
0f73
0000
0000
ENDCHAR
STARTCHAR ch-10
ENCODING 10
SWIDTH 1000 0
DWIDTH 16 0
BBX 16 16 0 -2
BITMAP
7e40
4840
487f
7e81
4821
7e7d
4891
4811
7f7d
2511
2555
5b7d
0101
0e0e
0000
0000
ENDCHAR
STARTCHAR ch-11
ENCODING 11
SWIDTH 1000 0
DWIDTH 16 0
BBX 16 16 0 -2
BITMAP
7e10
4810
48fe
7e10
4854
7e54
4854
48ba
7f10
2538
2554
5b92
0111
0e10
0000
0000
ENDCHAR
STARTCHAR ch-13
ENCODING 13
SWIDTH 1000 0
DWIDTH 16 0
BBX 16 16 0 -2
BITMAP
7efe
4892
48fe
7e92
48fe
7e10
4810
48fe
7f10
2538
2554
5b92
0111
0e10
0000
0000
ENDCHAR
STARTCHAR ch-14
ENCODING 14
SWIDTH 1000 0
DWIDTH 16 0
BBX 16 16 0 -2
BITMAP
7e10
48fe
7c10
4828
7c44
49ff
4802
7f7a
014a
254a
5b7a
0102
0a0a
0404
0000
0000
ENDCHAR
STARTCHAR ch-15
ENCODING 15
SWIDTH 1000 0
DWIDTH 16 0
BBX 16 16 0 -2
BITMAP
7e24
4824
487e
7e24
483c
7e24
483c
4824
7f24
25ff
2500
5b24
0142
0e81
0000
0000
ENDCHAR
STARTCHAR ch-17
ENCODING 17
SWIDTH 1000 0
DWIDTH 16 0
BBX 16 16 0 -2
BITMAP
7e14
4814
4814
7e77
4814
7e14
4877
4814
7f14
2577
2514
5b14
0114
0e24
0000
0000
ENDCHAR
STARTCHAR ch-20
ENCODING 20
SWIDTH 1000 0
DWIDTH 16 0
BBX 16 16 0 -2
BITMAP
7c7e
4842
487e
7c42
487e
7c80
48ff
4909
7e89
2a95
2aa3
5681
02f9
1c0e
0000
0000
ENDCHAR
STARTCHAR ch-21
ENCODING 21
SWIDTH 1000 0
DWIDTH 16 0
BBX 16 16 0 -2
BITMAP
7dff
4828
49ff
7d29
4929
7dff
4820
4824
7eff
2a24
2a24
5618
0218
1ce7
0000
0000
ENDCHAR
STARTCHAR ch-22
ENCODING 22
SWIDTH 1000 0
DWIDTH 16 0
BBX 16 16 0 -2
BITMAP
3e40
0440
1c7e
7fa8
2910
482e
1ff8
1ff0
1ff0
1100
1ffe
2522
2522
000c
0000
0000
ENDCHAR
STARTCHAR ch-25
ENCODING 25
SWIDTH 1000 0
DWIDTH 16 0
BBX 16 16 0 -2
BITMAP
0002
7efc
4880
7cff
4881
7cff
4880
7eff
02d5
2ad5
2aff
56d5
02d5
0d41
0000
0000
ENDCHAR
STARTCHAR ch-26
ENCODING 26
SWIDTH 1000 0
DWIDTH 16 0
BBX 16 16 0 -2
BITMAP
7c44
4828
49ff
7c00
48f1
7c95
4895
48f5
7e95
2af5
2a91
5691
0293
0d31
0000
0000
ENDCHAR
STARTCHAR ch-27
ENCODING 27
SWIDTH 1000 0
DWIDTH 16 0
BBX 16 16 0 -2
BITMAP
7cfc
4815
4836
7dd5
4855
7c53
49fd
4856
7e55
2a54
2a55
5693
0311
1c10
0000
0000
ENDCHAR
STARTCHAR ch-28
ENCODING 28
SWIDTH 1000 0
DWIDTH 16 0
BBX 16 16 0 -2
BITMAP
7c40
48fe
4942
7c7e
4842
7c7e
4800
48ff
7e08
2a08
2a7e
5608
0208
1cff
0000
0000
ENDCHAR
STARTCHAR ch-29
ENCODING 29
SWIDTH 1000 0
DWIDTH 16 0
BBX 16 16 0 -2
BITMAP
7c08
483e
498a
7cbf
488a
7c8a
493e
4888
7ebe
2a88
2abe
5788
0280
1d7f
0000
0000
ENDCHAR
STARTCHAR ch-30
ENCODING 30
SWIDTH 1000 0
DWIDTH 16 0
BBX 16 16 0 -2
BITMAP
7c12
48fc
4810
7cfe
4810
7dff
4810
49ff
7e20
2a40
2afe
5742
0242
1c7e
0000
0000
ENDCHAR
STARTCHAR ch-32
ENCODING 32
SWIDTH 1000 0
DWIDTH 16 0
BBX 16 16 0 -2
BITMAP
7c7c
4844
487c
7c44
487c
7c00
49ff
4810
7e10
2a5e
2a50
5650
02b0
1d1f
0000
0000
ENDCHAR
STARTCHAR ch-34
ENCODING 34
SWIDTH 1000 0
DWIDTH 16 0
BBX 16 16 0 -2
BITMAP
7c00
48ef
48a1
7ca1
48e6
7c80
488f
48e1
7e89
2a89
2aea
5684
028a
1c91
0000
0000
ENDCHAR
STARTCHAR ch-35
ENCODING 35
SWIDTH 1000 0
DWIDTH 16 0
BBX 16 16 0 -2
BITMAP
7c44
48aa
4892
7caa
4882
7cfe
4844
48a2
7f21
2a7e
2aa4
5618
0218
1ce7
0000
0000
ENDCHAR
STARTCHAR ch-36
ENCODING 36
SWIDTH 1000 0
DWIDTH 16 0
BBX 16 16 0 -2
BITMAP
7ce9
4a2a
4945
7c82
4901
7c7c
4810
4810
7efe
2a10
2a10
5628
0244
1c83
0000
0000
ENDCHAR
STARTCHAR ch-37
ENCODING 37
SWIDTH 1000 0
DWIDTH 16 0
BBX 16 16 0 -2
BITMAP
7c7c
5004
5028
7dff
5049
7c8a
5030
5000
7e10
2bff
2a54
5692
0311
0c10
0000
0000
ENDCHAR
STARTCHAR ch-39
ENCODING 39
SWIDTH 1000 0
DWIDTH 16 0
BBX 16 16 0 -2
BITMAP
7c7e
4842
485e
7c52
4852
7cff
4881
48bd
7ea5
2aa5
2aa5
56bd
0281
1c83
0000
0000
ENDCHAR
STARTCHAR ch-41
ENCODING 41
SWIDTH 1000 0
DWIDTH 16 0
BBX 16 16 0 -2
BITMAP
7e20
4840
48fe
7e92
4892
7efe
4892
4892
7efe
2a48
2a4a
564f
0289
0d07
0000
0000
ENDCHAR
STARTCHAR ch-42
ENCODING 42
SWIDTH 1000 0
DWIDTH 16 0
BBX 16 16 0 -2
BITMAP
7e00
4856
4891
7e91
48d7
7e91
48d7
4810
7e7e
2a04
2a68
5610
0228
0cc7
0000
0000
ENDCHAR
STARTCHAR ch-43
ENCODING 43
SWIDTH 1000 0
DWIDTH 16 0
BBX 16 16 0 -2
BITMAP
0080
7fff
4411
5ffd
1ffc
3ffe
0808
1ff4
2882
4ff1
0ff0
0880
0ffe
2492
0000
0000
ENDCHAR
STARTCHAR ch-44
ENCODING 44
SWIDTH 1000 0
DWIDTH 16 0
BBX 16 16 0 -2
BITMAP
7e02
48fc
4810
7eff
4854
7ed6
4854
48d7
7e10
2a38
2a54
5692
0211
0c10
0000
0000
ENDCHAR
STARTCHAR ch-45
ENCODING 45
SWIDTH 1000 0
DWIDTH 16 0
BBX 16 16 0 -2
BITMAP
7e10
245e
2850
24ff
3292
2c14
21f8
0ff8
0840
0ff8
0ff8
0fff
2491
4496
0000
0000
ENDCHAR
STARTCHAR ch-46
ENCODING 46
SWIDTH 1000 0
DWIDTH 16 0
BBX 16 16 0 -2
BITMAP
7e20
48cf
7e85
4885
48a9
7ec2
4800
48fe
7e92
2a92
2afe
5692
0292
0cfe
0000
0000
ENDCHAR
STARTCHAR ch-48
ENCODING 48
SWIDTH 1000 0
DWIDTH 16 0
BBX 16 16 0 -2
BITMAP
0124
78a8
4bfe
4820
4fff
7888
49fc
4b22
4dfd
79fc
4920
49ff
4aa9
5aab
0000
0000
ENDCHAR
STARTCHAR ch-49
ENCODING 49
SWIDTH 1000 0
DWIDTH 16 0
BBX 16 16 0 -2
BITMAP
7e01
48fe
4854
7e92
4921
7e48
487c
4810
7e24
2afe
2a10
57ff
0228
0cc6
0000
0000
ENDCHAR
STARTCHAR ch-50
ENCODING 50
SWIDTH 1000 0
DWIDTH 16 0
BBX 16 16 0 -2
BITMAP
7e24
48ff
4824
7e00
487e
7e42
487e
4842
7e7e
2a08
2aff
5608
0208
0c08
0000
0000
ENDCHAR
STARTCHAR ch-52
ENCODING 52
SWIDTH 1000 0
DWIDTH 16 0
BBX 16 16 0 -2
BITMAP
7e7e
4842
487e
7e42
487e
7e08
48ff
4891
7f91
2524
25ff
5b24
0118
0e26
0000
0000
ENDCHAR
STARTCHAR ch-53
ENCODING 53
SWIDTH 1000 0
DWIDTH 16 0
BBX 16 16 0 -2
BITMAP
7eff
4888
7c90
48be
7ca2
48be
7ea2
02be
2a88
2aaa
56a9
02c9
1508
0810
0000
0000
ENDCHAR
STARTCHAR ch-54
ENCODING 54
SWIDTH 1000 0
DWIDTH 16 0
BBX 16 16 0 -2
BITMAP
7e40
487f
7e91
4855
487d
7e11
4866
4800
7e40
2a7f
2ad5
567d
0211
0c66
0000
0000
ENDCHAR
STARTCHAR ch-55
ENCODING 55
SWIDTH 1000 0
DWIDTH 16 0
BBX 16 16 0 -2
BITMAP
7efe
4802
7c54
4828
7c10
4828
7ed6
0210
56fe
2a92
56fe
0211
15ff
0801
0000
0000
ENDCHAR
STARTCHAR ch-56
ENCODING 56
SWIDTH 1000 0
DWIDTH 16 0
BBX 16 16 0 -2
BITMAP
7e01
48fe
4880
7efe
4882
7efe
4880
48f7
7e91
2ab3
2ad5
56b3
02d5
0d11
0000
0000
ENDCHAR
STARTCHAR ch-57
ENCODING 57
SWIDTH 1000 0
DWIDTH 16 0
BBX 16 16 0 -2
BITMAP
7c44
49ff
4844
7c7c
4810
7cfe
4892
7efe
0210
2afe
2a10
56fe
0210
1dff
0000
0000
ENDCHAR
STARTCHAR ch-58
ENCODING 58
SWIDTH 1000 0
DWIDTH 16 0
BBX 16 16 0 -2
BITMAP
0410
3fbc
7fd4
1134
7fdd
3f15
0423
1ff8
1080
1ff8
1ff8
1ffe
0aa2
12ae
0000
0000
ENDCHAR
STARTCHAR ch-61
ENCODING 61
SWIDTH 1000 0
DWIDTH 16 0
BBX 16 16 0 -2
BITMAP
7def
4821
49ed
7c21
49ed
7c21
48c6
4800
7e40
2afe
2b82
56fe
0282
1cfe
0000
0000
ENDCHAR
STARTCHAR ch-62
ENCODING 62
SWIDTH 1000 0
DWIDTH 16 0
BBX 16 16 0 -2
BITMAP
7f7f
4849
7e7f
4849
7e7f
4810
7f22
017c
5509
2b7f
552a
0149
0a08
0408
0000
0000
ENDCHAR
STARTCHAR ch-63
ENCODING 63
SWIDTH 1000 0
DWIDTH 16 0
BBX 16 16 0 -2
BITMAP
7c10
49ff
4844
7c44
49ff
7cfe
4882
7efe
0282
2afe
2a10
57ff
0210
1c10
0000
0000
ENDCHAR
STARTCHAR ch-64
ENCODING 64
SWIDTH 1000 0
DWIDTH 16 0
BBX 16 16 0 -2
BITMAP
0410
7fff
0ff8
0888
0ff8
7fff
0410
0ff8
1884
2ff2
4881
0ffe
2492
249e
0000
0000
ENDCHAR
STARTCHAR ch-65
ENCODING 65
SWIDTH 1000 0
DWIDTH 16 0
BBX 16 16 0 -2
BITMAP
0410
7f9f
3f64
7f94
3f08
4137
0300
1ff8
1080
1ff8
1ff8
1ffe
0aa2
12ae
0000
0000
ENDCHAR
STARTCHAR ch-66
ENCODING 66
SWIDTH 1000 0
DWIDTH 16 0
BBX 16 16 0 -2
BITMAP
7c20
4828
487c
7c44
48aa
7dff
4810
4828
7e44
2a92
2b69
5612
0264
1c38
0000
0000
ENDCHAR
STARTCHAR ch-67
ENCODING 67
SWIDTH 1000 0
DWIDTH 16 0
BBX 16 16 0 -2
BITMAP
0002
7dff
4828
7dff
4929
7dff
4800
7cfe
0400
55ff
2c54
5492
0511
1810
0000
0000
ENDCHAR
STARTCHAR ch-68
ENCODING 68
SWIDTH 1000 0
DWIDTH 16 0
BBX 16 16 0 -2
BITMAP
7c40
48fe
496a
7c56
486a
7c56
4862
4842
7e7e
2a10
2aaa
56a1
02a2
1c1e
0000
0000
ENDCHAR
STARTCHAR ch-69
ENCODING 69
SWIDTH 1000 0
DWIDTH 16 0
BBX 16 16 0 -2
BITMAP
7dff
4900
7d3e
4922
7d3e
4900
7d77
0555
5555
2d77
5500
0500
29ff
1100
0000
0000
ENDCHAR
STARTCHAR ch-70
ENCODING 70
SWIDTH 1000 0
DWIDTH 16 0
BBX 16 16 0 -2
BITMAP
7cfe
4892
48fe
7c92
48fe
7c54
49ff
4854
7e54
2bff
2a10
56fe
0210
1c10
0000
0000
ENDCHAR
STARTCHAR ch-72
ENCODING 72
SWIDTH 1000 0
DWIDTH 16 0
BBX 16 16 0 -2
BITMAP
7c7e
4804
4828
7dff
4829
7cc8
4818
48ff
7ea5
2ae7
2abd
56a5
02bd
1c83
0000
0000
ENDCHAR
STARTCHAR ch-73
ENCODING 73
SWIDTH 1000 0
DWIDTH 16 0
BBX 16 16 0 -2
BITMAP
7c10
481e
4810
7cff
4891
7cfe
4890
489e
7e80
2a94
2b55
5677
0214
1c7f
0000
0000
ENDCHAR
STARTCHAR ch-74
ENCODING 74
SWIDTH 1000 0
DWIDTH 16 0
BBX 16 16 0 -2
BITMAP
7c44
49ff
4844
7dff
4854
7dff
4854
4854
7fff
2a10
2afe
5610
0210
1c10
0000
0000
ENDCHAR
STARTCHAR ch-76
ENCODING 76
SWIDTH 1000 0
DWIDTH 16 0
BBX 16 16 0 -2
BITMAP
7c10
48fe
4812
7dff
48fe
7c10
4955
4955
7fd7
2b11
2bff
5711
03d7
1d55
0000
0000
ENDCHAR
STARTCHAR ch-77
ENCODING 77
SWIDTH 1000 0
DWIDTH 16 0
BBX 16 16 0 -2
BITMAP
7c10
48fe
7c10
49ff
7c44
49ff
7c44
05ff
5400
2dff
5448
0449
2849
1387
0000
0000
ENDCHAR
STARTCHAR ch-78
ENCODING 78
SWIDTH 1000 0
DWIDTH 16 0
BBX 16 16 0 -2
BITMAP
7c92
4854
4838
7dff
4854
7c92
4800
4842
7eef
2b2a
2aaa
566a
024f
1c82
0000
0000
ENDCHAR
STARTCHAR ch-79
ENCODING 79
SWIDTH 1000 0
DWIDTH 16 0
BBX 16 16 0 -2
BITMAP
7cfe
4882
48fe
7cbe
4888
7cff
4888
4898
7e80
2af7
2aa2
56ff
0322
1c66
0000
0000
ENDCHAR
STARTCHAR ch-80
ENCODING 80
SWIDTH 1000 0
DWIDTH 16 0
BBX 16 16 0 -2
BITMAP
7c48
4bf8
480f
7dea
4932
7dea
480a
49fa
7e2a
2a4a
2bfa
5644
024a
1cd1
0000
0000
ENDCHAR
STARTCHAR ch-82
ENCODING 82
SWIDTH 1000 0
DWIDTH 16 0
BBX 16 16 0 -2
BITMAP
7cee
48aa
48ee
7c00
48fe
7c92
48fe
4892
7efe
2a10
2afe
5610
0210
1c10
0000
0000
ENDCHAR
STARTCHAR ch-83
ENCODING 83
SWIDTH 1000 0
DWIDTH 16 0
BBX 16 16 0 -2
BITMAP
7c82
4844
49ff
7d11
4955
7d39
49ff
4800
7efe
2a82
2afe
5682
02fe
1c82
0000
0000
ENDCHAR
STARTCHAR ch-84
ENCODING 84
SWIDTH 1000 0
DWIDTH 16 0
BBX 16 16 0 -2
BITMAP
7dff
4828
49ff
7d29
49ff
7cfe
4882
48fe
7e82
2afe
2a10
57ff
0210
1c10
0000
0000
ENDCHAR
STARTCHAR ch-85
ENCODING 85
SWIDTH 1000 0
DWIDTH 16 0
BBX 16 16 0 -2
BITMAP
7c7c
5010
79ff
5044
78fe
5145
7c7c
0400
55ff
2d01
557d
0545
057d
1902
0000
0000
ENDCHAR
STARTCHAR ch-86
ENCODING 86
SWIDTH 1000 0
DWIDTH 16 0
BBX 16 16 0 -2
BITMAP
7c44
49f5
4844
7dff
4804
7df4
4914
49f5
7e05
2bf6
2a4c
57f5
0243
1df9
0000
0000
ENDCHAR
STARTCHAR ch-87
ENCODING 87
SWIDTH 1000 0
DWIDTH 16 0
BBX 16 16 0 -2
BITMAP
0000
7e10
4828
7c44
48ba
7d01
48ee
7eaa
02aa
56ee
2a44
5644
0244
0caa
0000
0000
ENDCHAR
STARTCHAR ch-89
ENCODING 89
SWIDTH 1000 0
DWIDTH 16 0
BBX 16 16 0 -2
BITMAP
7e10
49ff
48fe
7cba
48aa
7cba
48fe
7e7c
0244
2a7c
2a44
567c
0200
1dff
0000
0000
ENDCHAR
STARTCHAR ch-90
ENCODING 90
SWIDTH 1000 0
DWIDTH 16 0
BBX 16 16 0 -2
BITMAP
2220
773f
7fe8
7c90
24a8
3d47
0ffe
0820
0ffe
0820
0ffe
0820
0fff
2449
0000
0000
ENDCHAR
STARTCHAR ch-91
ENCODING 91
SWIDTH 1000 0
DWIDTH 16 0
BBX 16 16 0 -2
BITMAP
0000
7dff
4929
7dff
4810
7cfe
4810
49ff
7c44
04fe
5410
2dff
5410
1810
0000
0000
ENDCHAR
STARTCHAR ch-94
ENCODING 94
SWIDTH 1000 0
DWIDTH 16 0
BBX 16 16 0 -2
BITMAP
7e10
49ff
4901
7f7d
4858
7e90
49fc
4844
7e7c
0244
2a7c
5644
027c
0e82
0000
0000
ENDCHAR
STARTCHAR ch-95
ENCODING 95
SWIDTH 1000 0
DWIDTH 16 0
BBX 16 16 0 -2
BITMAP
7fe0
493f
49e1
7f2a
49e4
492a
7fe1
48b4
48f8
7f58
0194
5532
5551
0e20
0000
0000
ENDCHAR
STARTCHAR ch-96
ENCODING 96
SWIDTH 1000 0
DWIDTH 16 0
BBX 16 16 0 -2
BITMAP
7c44
4844
49ff
7c44
487c
7c82
48ba
49ab
7eaa
2aaa
2bbb
5600
02a9
1d29
0000
0000
ENDCHAR
STARTCHAR ch-98
ENCODING 98
SWIDTH 1000 0
DWIDTH 16 0
BBX 16 16 0 -2
BITMAP
0010
7c1e
48ff
7c91
48bd
7c9c
48be
7eaa
02be
2aaa
56be
2aff
02d5
0d7f
0000
0000
ENDCHAR
STARTCHAR ch-100
ENCODING 100
SWIDTH 1000 0
DWIDTH 16 0
BBX 16 16 0 -2
BITMAP
7e10
49ff
49ef
7f29
49ef
4844
7fff
4844
49ff
7e44
0bff
138a
2284
46cb
0000
0000
ENDCHAR
STARTCHAR ch-101
ENCODING 101
SWIDTH 1000 0
DWIDTH 16 0
BBX 16 16 0 -2
BITMAP
7c28
49ef
7c28
49ef
7cfe
4892
7efe
02fe
5644
2afe
5644
03ff
0c44
0082
0000
0000
ENDCHAR
STARTCHAR ch-102
ENCODING 102
SWIDTH 1000 0
DWIDTH 16 0
BBX 16 16 0 -2
BITMAP
7cfe
4810
49ff
7d93
4955
7c92
484f
7ff9
2acf
2b69
565f
02c9
1c4f
0000
0000
0000
ENDCHAR
STARTCHAR ch-103
ENCODING 103
SWIDTH 1000 0
DWIDTH 16 0
BBX 16 16 0 -2
BITMAP
7d48
53e8
514f
7d51
51eb
7c9d
53e9
7ebf
2ff9
2cad
548b
07e1
188e
0000
0000
0000
ENDCHAR
STARTCHAR ch-104
ENCODING 104
SWIDTH 1000 0
DWIDTH 16 0
BBX 16 16 0 -2
BITMAP
7c91
48ff
4848
7cff
4988
7cfe
48fe
7eff
2aff
2aa5
56fb
02a9
1cbb
0000
0000
0000
ENDCHAR
STARTCHAR ch-105
ENCODING 105
SWIDTH 1000 0
DWIDTH 16 0
BBX 16 16 0 -2
BITMAP
7e44
49ff
4844
7fef
4929
49ef
7e84
49ff
4884
7eff
0684
0aff
1284
2eff
0000
0000
ENDCHAR
STARTCHAR ch-106
ENCODING 106
SWIDTH 1000 0
DWIDTH 16 0
BBX 16 16 0 -2
BITMAP
7def
5000
51ef
7dad
517b
7dff
5124
51ff
7d25
05ff
5544
2d77
5644
0c77
0000
0000
ENDCHAR
STARTCHAR ch-107
ENCODING 107
SWIDTH 1000 0
DWIDTH 16 0
BBX 16 16 0 -2
BITMAP
0ffc
0840
0ffc
0ffc
0840
0ffe
124a
3e3e
2828
3e3e
3e3e
2828
3f3f
5555
0000
0000
ENDCHAR
STARTCHAR ch-168
ENCODING 168
SWIDTH 1000 0
DWIDTH 16 0
BBX 16 16 0 -2
BITMAP
0ff8
0808
09f8
0908
7fff
4001
4ffa
0808
0ff8
0808
0ff8
0808
0808
1018
0000
0000
ENDCHAR
STARTCHAR ch-171
ENCODING 171
SWIDTH 1000 0
DWIDTH 16 0
BBX 16 16 0 -2
BITMAP
3e20
2220
2e20
2a7c
7f24
4124
3e34
222c
3e24
2224
3e24
2225
2225
4647
0000
0000
ENDCHAR
STARTCHAR ch-173
ENCODING 173
SWIDTH 1000 0
DWIDTH 16 0
BBX 16 16 0 -2
BITMAP
3e3e
2208
2e08
2a08
7f08
417f
3e08
2208
3e08
2208
3e08
2208
2208
4608
0000
0000
ENDCHAR
STARTCHAR ch-175
ENCODING 175
SWIDTH 1000 0
DWIDTH 16 0
BBX 16 16 0 -2
BITMAP
0220
3f10
220a
2eff
2a00
7f3c
4124
3e24
2224
3e24
2224
3e25
2245
4283
0000
0000
ENDCHAR
STARTCHAR ch-176
ENCODING 176
SWIDTH 1000 0
DWIDTH 16 0
BBX 16 16 0 -2
BITMAP
0204
3f3e
2224
2e24
2a25
7f46
4100
3e7e
2242
3e42
2224
3e18
2218
46e7
0000
0000
ENDCHAR
STARTCHAR ch-177
ENCODING 177
SWIDTH 1000 0
DWIDTH 16 0
BBX 16 16 0 -2
BITMAP
1f10
1128
1d28
1544
3f83
20a4
5f24
1124
1f24
1124
1f24
1124
1544
1284
0000
0000
ENDCHAR
STARTCHAR ch-179
ENCODING 179
SWIDTH 1000 0
DWIDTH 16 0
BBX 16 16 0 -2
BITMAP
3e08
2208
2e7f
2a49
7f48
4148
3e7e
2242
3e62
2254
3e88
2214
2222
4641
0000
0000
ENDCHAR
STARTCHAR ch-180
ENCODING 180
SWIDTH 1000 0
DWIDTH 16 0
BBX 16 16 0 -2
BITMAP
3e00
2224
2e24
2a24
7f24
413c
3e67
2264
3e64
2264
3e6c
2275
2265
46c7
0000
0000
ENDCHAR
STARTCHAR ch-183
ENCODING 183
SWIDTH 1000 0
DWIDTH 16 0
BBX 16 16 0 -2
BITMAP
1f90
1110
1d12
157f
3f90
2090
5f12
117f
1f42
1142
1f42
1142
157e
1242
0000
0000
ENDCHAR
STARTCHAR ch-184
ENCODING 184
SWIDTH 1000 0
DWIDTH 16 0
BBX 16 16 0 -2
BITMAP
3f10
2202
3bff
2a10
7f24
417e
3e08
2210
3e22
22c4
3e08
2214
2a63
2581
0000
0000
ENDCHAR
STARTCHAR ch-185
ENCODING 185
SWIDTH 1000 0
DWIDTH 16 0
BBX 16 16 0 -2
BITMAP
3e10
2208
2eff
2a00
7f24
4142
3e85
2224
3e24
2224
3e18
2218
2224
46c3
0000
0000
ENDCHAR
STARTCHAR ch-187
ENCODING 187
SWIDTH 1000 0
DWIDTH 16 0
BBX 16 16 0 -2
BITMAP
3e10
22fe
2e10
2a28
7f44
4183
3e7c
2200
3efe
2220
3e7e
2202
2202
461c
0000
0000
ENDCHAR
STARTCHAR ch-188
ENCODING 188
SWIDTH 1000 0
DWIDTH 16 0
BBX 16 16 0 -2
BITMAP
3f24
223e
3a44
2a44
7fa8
4110
3e28
2247
3f82
227c
3e44
2244
2a7c
2444
0000
0000
ENDCHAR
STARTCHAR ch-190
ENCODING 190
SWIDTH 1000 0
DWIDTH 16 0
BBX 16 16 0 -2
BITMAP
3e7f
2208
2e7f
2a49
7f7f
4149
3e7f
2249
3e08
2228
3e18
2208
2214
46e3
0000
0000
ENDCHAR
STARTCHAR ch-191
ENCODING 191
SWIDTH 1000 0
DWIDTH 16 0
BBX 16 16 0 -2
BITMAP
3e44
2244
2e28
2a7e
7f24
4124
3e24
22ff
3e24
2224
3e24
2224
2244
4684
0000
0000
ENDCHAR
STARTCHAR ch-192
ENCODING 192
SWIDTH 1000 0
DWIDTH 16 0
BBX 16 16 0 -2
BITMAP
3e42
22ff
3a92
2a92
7ffe
4192
3ea2
22fe
3e50
2292
3fff
2210
2210
2410
0000
0000
ENDCHAR
STARTCHAR ch-193
ENCODING 193
SWIDTH 1000 0
DWIDTH 16 0
BBX 16 16 0 -2
BITMAP
3eff
2292
3a92
2afe
7f92
4192
3efe
2210
3fff
2230
3e78
22d7
2b12
2410
0000
0000
ENDCHAR
STARTCHAR ch-194
ENCODING 194
SWIDTH 1000 0
DWIDTH 16 0
BBX 16 16 0 -2
BITMAP
3e10
22ff
3aa1
2a3c
7f44
41a8
3e10
2228
3ec7
227c
3e44
2244
2a7c
2444
0000
0000
ENDCHAR
STARTCHAR ch-198
ENCODING 198
SWIDTH 1000 0
DWIDTH 16 0
BBX 16 16 0 -2
BITMAP
3e12
22ff
2e10
2afe
7f92
41fe
3e92
22fe
3e92
2204
3eff
2244
2224
460c
0000
0000
ENDCHAR
STARTCHAR ch-199
ENCODING 199
SWIDTH 1000 0
DWIDTH 16 0
BBX 16 16 0 -2
BITMAP
3e08
22ff
2e00
2a3c
7f24
413c
3e00
22ff
3e81
22bd
3ea5
22bd
2281
4683
0000
0000
ENDCHAR
STARTCHAR ch-202
ENCODING 202
SWIDTH 1000 0
DWIDTH 16 0
BBX 16 16 0 -2
BITMAP
3e22
2214
2e7f
2a08
7f7f
4108
3eff
2220
3e7e
2288
3f08
2208
2208
46ff
0000
0000
ENDCHAR
STARTCHAR ch-205
ENCODING 205
SWIDTH 1000 0
DWIDTH 16 0
BBX 16 16 0 -2
BITMAP
3e08
22ff
2e80
2a92
7f92
41ff
1e92
12be
1eb7
12b7
1edb
1292
1312
2212
0000
0000
ENDCHAR
STARTCHAR ch-207
ENCODING 207
SWIDTH 1000 0
DWIDTH 16 0
BBX 16 16 0 -2
BITMAP
3c10
24fe
2c92
35ff
7efe
4210
3cfe
2492
3cfe
2454
3dff
2428
2410
4def
0000
0000
ENDCHAR
STARTCHAR ch-208
ENCODING 208
SWIDTH 1000 0
DWIDTH 16 0
BBX 16 16 0 -2
BITMAP
3e10
22fe
2e10
2afe
7f44
41ef
3e44
22ee
3e00
23ff
3e48
2248
2289
470f
0000
0000
ENDCHAR
STARTCHAR ch-209
ENCODING 209
SWIDTH 1000 0
DWIDTH 16 0
BBX 16 16 0 -2
BITMAP
3eff
22aa
3aaa
2afe
7f40
417e
3ea2
23fa
3eaa
22aa
3efa
2222
22fa
2404
0000
0000
ENDCHAR
STARTCHAR ch-210
ENCODING 210
SWIDTH 1000 0
DWIDTH 16 0
BBX 16 16 0 -2
BITMAP
3c44
25ff
2c44
35ff
2448
7ef9
435a
3c2c
2448
3d8f
2442
3dff
2442
4c82
0000
0000
ENDCHAR
STARTCHAR ch-211
ENCODING 211
SWIDTH 1000 0
DWIDTH 16 0
BBX 16 16 0 -2
BITMAP
0010
3e7f
3a3e
2a48
2abe
7f00
41be
3ea2
22be
3ea2
22be
3ea2
22e6
273f
0000
0000
ENDCHAR
STARTCHAR ch-212
ENCODING 212
SWIDTH 1000 0
DWIDTH 16 0
BBX 16 16 0 -2
BITMAP
3c28
25ff
2d29
35ff
7f29
43ff
3c00
25ff
3c00
24fe
3c82
24fe
2444
4dff
0000
0000
ENDCHAR
STARTCHAR ch-213
ENCODING 213
SWIDTH 1000 0
DWIDTH 16 0
BBX 16 16 0 -2
BITMAP
3c10
25ff
2d01
357d
7e58
4290
3dfc
2444
3c7c
2444
3c7c
2444
247c
4c82
0000
0000
ENDCHAR
STARTCHAR ch-214
ENCODING 214
SWIDTH 1000 0
DWIDTH 16 0
BBX 16 16 0 -2
BITMAP
0020
3dff
2551
34fc
2c50
7efc
4284
3cfc
2484
3cfc
2484
3cfd
2453
2c9f
0000
0000
ENDCHAR
STARTCHAR ch-216
ENCODING 216
SWIDTH 1000 0
DWIDTH 16 0
BBX 16 16 0 -2
BITMAP
0100
0082
7fff
0000
0ff8
0808
0ff8
0000
3ffe
2002
27f2
2412
27f2
2006
0000
0000
ENDCHAR
STARTCHAR ch-220
ENCODING 220
SWIDTH 1000 0
DWIDTH 16 0
BBX 16 16 0 -2
BITMAP
087e
7f42
007e
3e42
227e
3e10
00e2
7f22
41ff
5d22
5522
5d22
4122
4142
0000
0000
ENDCHAR
STARTCHAR ch-223
ENCODING 223
SWIDTH 1000 0
DWIDTH 16 0
BBX 16 16 0 -2
BITMAP
1f82
1002
1004
1f04
1008
1012
1f22
1004
1109
7f91
0802
1104
3f88
0090
0000
0000
ENDCHAR
STARTCHAR ch-225
ENCODING 225
SWIDTH 1000 0
DWIDTH 16 0
BBX 16 16 0 -2
BITMAP
1fc4
1008
1f92
1024
1f88
1012
7fc4
0908
1f90
7fff
0220
0221
0c21
301f
0000
0000
ENDCHAR
STARTCHAR ch-227
ENCODING 227
SWIDTH 1000 0
DWIDTH 16 0
BBX 16 16 0 -2
BITMAP
3f01
3e3e
3e01
203e
7f01
123e
7f00
0080
7fff
0400
07fc
1804
2004
0038
0000
0000
ENDCHAR
STARTCHAR ch-230
ENCODING 230
SWIDTH 1000 0
DWIDTH 16 0
BBX 16 16 0 -2
BITMAP
1f82
1004
1f19
1f06
7f99
1106
3f98
0060
0780
0ff8
0080
3ffc
0081
007f
0000
0000
ENDCHAR
STARTCHAR ch-231
ENCODING 231
SWIDTH 1000 0
DWIDTH 16 0
BBX 16 16 0 -2
BITMAP
3f01
3e3e
3e01
203e
7f01
113e
7f80
0000
0100
7fff
4101
0220
0421
183f
0000
0000
ENDCHAR
STARTCHAR ch-235
ENCODING 235
SWIDTH 1000 0
DWIDTH 16 0
BBX 16 16 0 -2
BITMAP
3f01
3e3e
3e01
7fbe
1201
7f3e
0000
7ffe
0402
387c
0000
3ffe
2002
3ffe
0000
0000
ENDCHAR
STARTCHAR ch-236
ENCODING 236
SWIDTH 1000 0
DWIDTH 16 0
BBX 16 16 0 -2
BITMAP
3f01
3e3e
3e01
7fbe
1201
7f3e
0000
7fff
0090
0188
0284
7c83
0080
7fff
0000
0000
ENDCHAR
STARTCHAR ch-237
ENCODING 237
SWIDTH 1000 0
DWIDTH 16 0
BBX 16 16 0 -2
BITMAP
7f81
201e
3f00
3f01
201e
7f81
111e
7f80
0420
2423
27bc
2420
2421
7f9f
0000
0000
ENDCHAR
STARTCHAR ch-238
ENCODING 238
SWIDTH 1000 0
DWIDTH 16 0
BBX 16 16 0 -2
BITMAP
3f02
3f1c
3f02
7f9c
1202
3f1c
0083
7fff
0200
0510
0910
30e0
0110
0e0e
0000
0000
ENDCHAR
STARTCHAR ch-239
ENCODING 239
SWIDTH 1000 0
DWIDTH 16 0
BBX 16 16 0 -2
BITMAP
3f02
3f1c
3f02
7f9c
1202
3f1c
0080
1ffc
1084
1ffc
1084
7fff
1004
100c
0000
0000
ENDCHAR
STARTCHAR ch-241
ENCODING 241
SWIDTH 1000 0
DWIDTH 16 0
BBX 16 16 0 -2
BITMAP
3f88
2430
2904
7fb8
1102
3f3c
0800
1ffc
2004
1fe4
1024
1fe4
1019
1fff
0000
0000
ENDCHAR
STARTCHAR ch-242
ENCODING 242
SWIDTH 1000 0
DWIDTH 16 0
BBX 16 16 0 -2
BITMAP
3f01
3e3e
3e01
7fbe
1101
3f3e
0080
1ffc
1084
13e0
1220
1140
2080
0f78
0000
0000
ENDCHAR
STARTCHAR ch-243
ENCODING 243
SWIDTH 1000 0
DWIDTH 16 0
BBX 16 16 0 -2
BITMAP
3f01
3e3e
3e01
7fbe
1201
7f3e
0000
0ff8
0010
01e0
7fff
0222
3c20
00e0
0000
0000
ENDCHAR
STARTCHAR ch-246
ENCODING 246
SWIDTH 1000 0
DWIDTH 16 0
BBX 16 16 0 -2
BITMAP
3f89
2412
2924
7f89
1102
7f3c
3ffe
1004
1ffc
1004
1ffc
1004
7fff
0004
0000
0000
ENDCHAR
STARTCHAR ch-247
ENCODING 247
SWIDTH 1000 0
DWIDTH 16 0
BBX 16 16 0 -2
BITMAP
3f02
3e04
3e3a
7f04
123a
3f04
0138
0000
0220
3ffe
2222
3ffe
2222
3ffe
0000
0000
ENDCHAR
STARTCHAR ch-249
ENCODING 249
SWIDTH 1000 0
DWIDTH 16 0
BBX 16 16 0 -2
BITMAP
3f02
3e04
3e3a
7f84
123a
3f04
0138
0410
0810
19ff
6838
0854
0893
0810
0000
0000
ENDCHAR
STARTCHAR ch-250
ENCODING 250
SWIDTH 1000 0
DWIDTH 16 0
BBX 16 16 0 -2
BITMAP
3f89
2412
2924
7f89
1102
7f3c
0008
1ff0
0080
7fff
0080
1ffc
1004
1ffc
0000
0000
ENDCHAR
STARTCHAR ch-251
ENCODING 251
SWIDTH 1000 0
DWIDTH 16 0
BBX 16 16 0 -2
BITMAP
3f82
3f3c
3f02
7fbc
1102
3f3c
0080
3ffe
0080
1ffc
0000
0ff8
0808
0ff8
0000
0000
ENDCHAR
STARTCHAR ch-252
ENCODING 252
SWIDTH 1000 0
DWIDTH 16 0
BBX 16 16 0 -2
BITMAP
3f94
2a29
7f92
1124
7f18
07f0
0a20
01c0
02a0
07f0
388e
07f0
0ff8
0080
0000
0000
ENDCHAR
STARTCHAR ch-253
ENCODING 253
SWIDTH 1000 0
DWIDTH 16 0
BBX 16 16 0 -2
BITMAP
3f08
3e32
3e04
7f39
2202
7f3c
0080
0888
0888
1494
22a2
1ffc
0080
7fff
0000
0000
ENDCHAR
STARTCHAR ch-254
ENCODING 254
SWIDTH 1000 0
DWIDTH 16 0
BBX 16 16 0 -2
BITMAP
3f89
2412
2924
7f89
1102
7f3c
1084
0888
1ffc
1ffc
1004
1ffc
1004
200c
0000
0000
ENDCHAR
STARTCHAR ch-257
ENCODING 257
SWIDTH 1000 0
DWIDTH 16 0
BBX 16 16 0 -2
BITMAP
3f08
3e32
3e04
7f39
2202
7f3c
0000
1e02
0412
3f92
0e12
1502
2482
0406
0000
0000
ENDCHAR
STARTCHAR ch-259
ENCODING 259
SWIDTH 1000 0
DWIDTH 16 0
BBX 16 16 0 -2
BITMAP
3f88
2412
2924
7f89
1102
7f3c
0080
7fff
4001
0ff8
0000
1ffc
0888
1084
0000
0000
ENDCHAR
STARTCHAR ch-260
ENCODING 260
SWIDTH 1000 0
DWIDTH 16 0
BBX 16 16 0 -2
BITMAP
3f89
2412
2924
7f89
1102
7f3c
1ffc
1004
1ffc
1ffc
0800
1ffe
2222
044c
0000
0000
ENDCHAR
STARTCHAR ch-261
ENCODING 261
SWIDTH 1000 0
DWIDTH 16 0
BBX 16 16 0 -2
BITMAP
3f89
2412
2924
7f89
1102
7f3c
0000
3f7e
2142
3f7e
2142
3f7e
2142
4386
0000
0000
ENDCHAR
STARTCHAR ch-262
ENCODING 262
SWIDTH 1000 0
DWIDTH 16 0
BBX 16 16 0 -2
BITMAP
3f02
3e3c
3e02
203c
7f02
123c
3f00
0824
7f42
1c91
2a10
4924
087e
0802
0000
0000
ENDCHAR
STARTCHAR ch-264
ENCODING 264
SWIDTH 1000 0
DWIDTH 16 0
BBX 16 16 0 -2
BITMAP
3f89
2412
2924
7f89
1102
7f3c
0888
3ffe
0080
7fff
0ff8
1414
0462
07fe
0000
0000
ENDCHAR
STARTCHAR ch-266
ENCODING 266
SWIDTH 1000 0
DWIDTH 16 0
BBX 16 16 0 -2
BITMAP
3f89
3f12
3f24
7f89
1102
7f3c
0080
3ffe
3ffe
7fff
0808
1ffc
2fea
0ff8
0000
0000
ENDCHAR
STARTCHAR ch-267
ENCODING 267
SWIDTH 1000 0
DWIDTH 16 0
BBX 16 16 0 -2
BITMAP
3f89
3f12
3f24
7f89
1102
7f3c
0410
7fff
3f02
2122
3f22
2122
3f22
430e
0000
0000
ENDCHAR
STARTCHAR ch-268
ENCODING 268
SWIDTH 1000 0
DWIDTH 16 0
BBX 16 16 0 -2
BITMAP
3f8a
3f14
3f09
7f82
3f3c
0400
3ffe
0bfc
1040
2ffe
07fc
07f4
07f4
040c
0000
0000
ENDCHAR
STARTCHAR ch-269
ENCODING 269
SWIDTH 1000 0
DWIDTH 16 0
BBX 16 16 0 -2
BITMAP
3f82
3f3c
2002
3f3c
7f82
113c
7f80
043e
3fa2
043e
3fa2
20be
3fa2
20a4
0000
0000
ENDCHAR
STARTCHAR ch-270
ENCODING 270
SWIDTH 1000 0
DWIDTH 16 0
BBX 16 16 0 -2
BITMAP
3f04
3e3a
3e04
7f3a
1204
7f38
0202
3fe2
0202
1fca
124a
1fca
0a82
3266
0000
0000
ENDCHAR
STARTCHAR ch-272
ENCODING 272
SWIDTH 1000 0
DWIDTH 16 0
BBX 16 16 0 -2
BITMAP
3f89
3f12
3f05
7f82
3f3c
0080
1ffc
3ffe
05f0
09fc
17f8
0408
07e8
07f8
0000
0000
ENDCHAR
STARTCHAR ch-273
ENCODING 273
SWIDTH 1000 0
DWIDTH 16 0
BBX 16 16 0 -2
BITMAP
3f89
3f12
3f24
7f89
1102
7f3c
0808
7fff
0220
1ffc
7fff
1ffc
0a28
1224
0000
0000
ENDCHAR
STARTCHAR ch-274
ENCODING 274
SWIDTH 1000 0
DWIDTH 16 0
BBX 16 16 0 -2
BITMAP
3f89
3f12
3f24
7f89
1102
7fbc
0080
7fff
0ff8
0fe8
0fe8
0fe8
7fff
1004
0000
0000
ENDCHAR
STARTCHAR ch-277
ENCODING 277
SWIDTH 1000 0
DWIDTH 16 0
BBX 16 16 0 -2
BITMAP
3f08
3e32
3e05
7fba
223c
7e08
3f7e
0410
07f0
05d0
07f0
7fff
0220
3c1e
0000
0000
ENDCHAR
STARTCHAR ch-278
ENCODING 278
SWIDTH 1000 0
DWIDTH 16 0
BBX 16 16 0 -2
BITMAP
3f89
3f12
3f24
7f89
1102
7f3c
0410
0ff0
1122
3f7e
03c0
0560
0ab0
1548
0000
0000
ENDCHAR
STARTCHAR ch-279
ENCODING 279
SWIDTH 1000 0
DWIDTH 16 0
BBX 16 16 0 -2
BITMAP
3f89
3f12
3f24
7f89
1102
7f3c
0410
7fff
0410
07f0
3ffe
2492
269a
29a6
0000
0000
ENDCHAR
STARTCHAR ch-280
ENCODING 280
SWIDTH 1000 0
DWIDTH 16 0
BBX 16 16 0 -2
BITMAP
3f89
3f12
3f24
7f89
3f3c
07f0
0490
07f0
1ffc
1224
1ffc
07f0
01c0
1e3c
0000
0000
ENDCHAR
STARTCHAR ch-281
ENCODING 281
SWIDTH 1000 0
DWIDTH 16 0
BBX 16 16 0 -2
BITMAP
3f89
2412
2924
7f89
1102
7f3c
0410
7fff
4889
7fff
1ffc
1004
1ffc
1ffc
0000
0000
ENDCHAR
STARTCHAR ch-282
ENCODING 282
SWIDTH 1000 0
DWIDTH 16 0
BBX 16 16 0 -2
BITMAP
3f89
2412
2924
7f89
1102
7f3c
09ff
1040
28fe
10fe
20fe
0882
10fe
2183
0000
0000
ENDCHAR
STARTCHAR ch-286
ENCODING 286
SWIDTH 1000 0
DWIDTH 16 0
BBX 16 16 0 -2
BITMAP
3f89
3f12
3f24
7f89
1102
7f3c
1ffc
1ffc
1224
1ffc
0ffc
0ff0
1428
271f
0000
0000
ENDCHAR
STARTCHAR ch-287
ENCODING 287
SWIDTH 1000 0
DWIDTH 16 0
BBX 16 16 0 -2
BITMAP
3f89
3f12
3f24
7f89
3f3c
3ffe
2222
3ffe
7fff
0ff8
0808
0ffc
0c28
171f
0000
0000
ENDCHAR
STARTCHAR ch-288
ENCODING 288
SWIDTH 1000 0
DWIDTH 16 0
BBX 16 16 0 -2
BITMAP
3f89
3f12
3f24
7f89
1102
7fbc
0140
03e0
07f0
0aa8
1ffc
27f2
07d0
07f0
0000
0000
ENDCHAR
STARTCHAR ch-290
ENCODING 290
SWIDTH 1000 0
DWIDTH 16 0
BBX 16 16 0 -2
BITMAP
3f01
3e3e
3e01
7fbe
1101
3fbe
7fff
4ff9
1890
7ffc
0fe4
0ffc
0408
0804
0000
0000
ENDCHAR
STARTCHAR ch-291
ENCODING 291
SWIDTH 1000 0
DWIDTH 16 0
BBX 16 16 0 -2
BITMAP
3f89
2412
2924
7f89
1102
7f3c
0888
1110
3ffc
2144
3ffc
3ba0
3b92
3fc6
0000
0000
ENDCHAR
STARTCHAR ch-292
ENCODING 292
SWIDTH 1000 0
DWIDTH 16 0
BBX 16 16 0 -2
BITMAP
3f8a
2914
7fa9
1102
7fbc
3ffe
1e3c
1224
1e3c
0410
1ffc
1ffc
7fff
0c28
0000
0000
ENDCHAR
STARTCHAR ch-293
ENCODING 293
SWIDTH 1000 0
DWIDTH 16 0
BBX 16 16 0 -2
BITMAP
3f3f
2409
3f3f
2409
3f3f
2001
2001
2001
2001
2001
2001
2001
2009
2006
0000
0000
ENDCHAR
STARTCHAR ch-295
ENCODING 295
SWIDTH 1000 0
DWIDTH 16 0
BBX 16 16 0 -2
BITMAP
7e3f
4809
7e3f
4809
7e3f
4081
47f1
4081
47f1
4491
44b1
4491
4085
4002
0000
0000
ENDCHAR
STARTCHAR ch-296
ENCODING 296
SWIDTH 1000 0
DWIDTH 16 0
BBX 16 16 0 -2
BITMAP
7e3f
4809
7e3f
4809
7e3f
4221
47f1
4221
4221
4ff9
4221
4411
4809
4002
0000
0000
ENDCHAR
STARTCHAR ch-297
ENCODING 297
SWIDTH 1000 0
DWIDTH 16 0
BBX 16 16 0 -2
BITMAP
7e3f
4809
7e3f
4809
7e3f
4201
4419
4c09
47b9
4409
47f9
4121
4225
4c3f
0000
0000
ENDCHAR
STARTCHAR ch-299
ENCODING 299
SWIDTH 1000 0
DWIDTH 16 0
BBX 16 16 0 -2
BITMAP
7e3f
4809
7e3f
4809
7e3f
47a1
4121
4fe1
44bd
47c9
4789
44a9
4f91
40ab
0000
0000
ENDCHAR
STARTCHAR ch-302
ENCODING 302
SWIDTH 1000 0
DWIDTH 16 0
BBX 16 16 0 -2
BITMAP
7f7f
4809
7f7f
4809
7f7f
47f1
4821
4ff9
4949
5f79
455d
4d65
5ffd
4541
0000
0000
ENDCHAR
STARTCHAR ch-303
ENCODING 303
SWIDTH 1000 0
DWIDTH 16 0
BBX 16 16 0 -2
BITMAP
0490
0220
1144
1494
1144
12a4
1ffc
1404
0430
04c0
0702
0402
0402
03fe
0000
0000
ENDCHAR
STARTCHAR ch-305
ENCODING 305
SWIDTH 1000 0
DWIDTH 16 0
BBX 16 16 0 -2
BITMAP
1104
7fff
1484
3bee
56b5
13e4
7fff
6a85
7589
2a94
3faa
2014
3ea8
3f90
0000
0000
ENDCHAR
STARTCHAR ch-306
ENCODING 306
SWIDTH 1000 0
DWIDTH 16 0
BBX 16 16 0 -2
BITMAP
0002
7fff
0000
0ff8
0808
0ff8
0002
3fff
2222
2142
2ffa
2082
208a
2004
0000
0000
ENDCHAR
STARTCHAR ch-307
ENCODING 307
SWIDTH 1000 0
DWIDTH 16 0
BBX 16 16 0 -2
BITMAP
0080
00f8
3fff
2101
27f2
21f0
27fc
23f8
2208
23f8
2ffe
4912
0bfa
0842
0000
0000
ENDCHAR
STARTCHAR ch-309
ENCODING 309
SWIDTH 1000 0
DWIDTH 16 0
BBX 16 16 0 -2
BITMAP
7e7e
4848
7f7f
0c18
376f
0000
7fff
0ff8
0808
0ff8
3ffe
2412
2ffa
209e
0000
0000
ENDCHAR
STARTCHAR ch-311
ENCODING 311
SWIDTH 1000 0
DWIDTH 16 0
BBX 16 16 0 -2
BITMAP
7f55
0049
3e55
2241
3e7f
0014
7fe7
4140
637f
55a2
7f14
4908
4914
4b63
0000
0000
ENDCHAR
STARTCHAR ch-314
ENCODING 314
SWIDTH 1000 0
DWIDTH 16 0
BBX 16 16 0 -2
BITMAP
7f40
007f
3e80
223e
2222
3e3e
003e
7f7f
5520
493f
7f55
4925
4949
4212
0000
0000
ENDCHAR
STARTCHAR ch-315
ENCODING 315
SWIDTH 1000 0
DWIDTH 16 0
BBX 16 16 0 -2
BITMAP
3c9e
06a2
3c9e
23f0
3c9e
06a2
188c
7fff
0410
07f0
1ffc
1224
17f4
108c
0000
0000
ENDCHAR
STARTCHAR ch-316
ENCODING 316
SWIDTH 1000 0
DWIDTH 16 0
BBX 16 16 0 -2
BITMAP
0100
0204
1ffe
1084
1ffc
1084
1ffc
10c0
0148
0150
0254
047d
1845
603f
0000
0000
ENDCHAR
STARTCHAR ch-318
ENCODING 318
SWIDTH 1000 0
DWIDTH 16 0
BBX 16 16 0 -2
BITMAP
1008
3f88
64ff
2488
3f88
24be
24a2
3f94
1248
12b4
13e3
2220
4201
01ff
0000
0000
ENDCHAR
STARTCHAR ch-319
ENCODING 319
SWIDTH 1000 0
DWIDTH 16 0
BBX 16 16 0 -2
BITMAP
1001
107e
3fa0
64a0
24bf
3fa2
24a2
24a2
3fa2
1242
12a2
13e0
2201
41ff
0000
0000
ENDCHAR
STARTCHAR ch-321
ENCODING 321
SWIDTH 1000 0
DWIDTH 16 0
BBX 16 16 0 -2
BITMAP
0400
0804
3fa4
2494
3fa4
2494
3f87
24fc
0604
0a84
0aa4
13e4
2221
41ff
0000
0000
ENDCHAR
STARTCHAR ch-322
ENCODING 322
SWIDTH 1000 0
DWIDTH 16 0
BBX 16 16 0 -2
BITMAP
0040
3dfe
0124
0124
7ffc
1124
1124
11fc
2464
7ea4
22aa
012e
0221
041f
0000
0000
ENDCHAR
STARTCHAR ch-323
ENCODING 323
SWIDTH 1000 0
DWIDTH 16 0
BBX 16 16 0 -2
BITMAP
2024
7c20
54ff
5420
7c22
5442
5452
7c92
2814
2a08
2a94
2fe2
2881
4fff
0000
0000
ENDCHAR
STARTCHAR ch-324
ENCODING 324
SWIDTH 1000 0
DWIDTH 16 0
BBX 16 16 0 -2
BITMAP
1020
21fc
7924
4924
49fc
4924
7944
49fc
4868
48aa
78be
4120
0221
0c1f
0000
0000
ENDCHAR
STARTCHAR ch-325
ENCODING 325
SWIDTH 1000 0
DWIDTH 16 0
BBX 16 16 0 -2
BITMAP
0408
0808
7f3e
4908
7f08
497f
7f1c
14aa
1489
1548
17e8
1401
6201
01ff
0000
0000
ENDCHAR
STARTCHAR ch-326
ENCODING 326
SWIDTH 1000 0
DWIDTH 16 0
BBX 16 16 0 -2
BITMAP
100a
3e09
6a7f
3e48
2a48
3e4a
144c
1648
1458
1545
1763
2441
4401
07ff
0000
0000
ENDCHAR
STARTCHAR ch-328
ENCODING 328
SWIDTH 1000 0
DWIDTH 16 0
BBX 16 16 0 -2
BITMAP
1049
3e2a
2a08
2a3e
3e22
2a3e
2a22
3e3e
0d22
1522
1562
17c6
2440
43fe
0000
0000
ENDCHAR
STARTCHAR ch-330
ENCODING 330
SWIDTH 1000 0
DWIDTH 16 0
BBX 16 16 0 -2
BITMAP
100c
3e0a
6bfe
3e08
2ae8
2aa8
3eaa
14ec
1608
1515
17e3
1500
2401
47ff
0000
0000
ENDCHAR
STARTCHAR ch-331
ENCODING 331
SWIDTH 1000 0
DWIDTH 16 0
BBX 16 16 0 -2
BITMAP
1014
1024
3e7f
6aa4
3e24
2a3f
3e24
1524
153f
16a4
17a4
143f
2400
43ff
0000
0000
ENDCHAR
STARTCHAR ch-332
ENCODING 332
SWIDTH 1000 0
DWIDTH 16 0
BBX 16 16 0 -2
BITMAP
1022
2022
7e7f
2a22
3e3e
2a22
3e3e
1522
157f
1680
17a2
1441
2401
47ff
0000
0000
ENDCHAR
STARTCHAR ch-333
ENCODING 333
SWIDTH 1000 0
DWIDTH 16 0
BBX 16 16 0 -2
BITMAP
1000
3eff
6a81
2aa5
3e99
2aff
2a91
3efd
16a1
14bd
1581
2782
4401
07ff
0000
0000
ENDCHAR
STARTCHAR ch-334
ENCODING 334
SWIDTH 1000 0
DWIDTH 16 0
BBX 16 16 0 -2
BITMAP
1004
20fe
7c10
5410
55ff
7d11
5555
5555
7dbb
2911
2b15
2f12
2800
47ff
0000
0000
ENDCHAR
STARTCHAR ch-335
ENCODING 335
SWIDTH 1000 0
DWIDTH 16 0
BBX 16 16 0 -2
BITMAP
0320
3c42
08ff
7f92
1cfe
2a92
08fe
7f20
1230
2254
145a
089f
1511
220f
0000
0000
ENDCHAR
STARTCHAR ch-337
ENCODING 337
SWIDTH 1000 0
DWIDTH 16 0
BBX 16 16 0 -2
BITMAP
0810
11ff
7caa
5492
7caa
54fe
7c10
28ff
2891
2a95
2fbd
2881
4800
07ff
0000
0000
ENDCHAR
STARTCHAR ch-338
ENCODING 338
SWIDTH 1000 0
DWIDTH 16 0
BBX 16 16 0 -2
BITMAP
10ff
3e24
6aff
3ea5
2aff
2a00
3efe
1600
15ff
1738
1454
1493
2400
47ff
0000
0000
ENDCHAR
STARTCHAR ch-340
ENCODING 340
SWIDTH 1000 0
DWIDTH 16 0
BBX 16 16 0 -2
BITMAP
0040
3fff
2208
2fbe
271c
2aaa
27fc
27fc
2444
27fc
2154
427c
0441
187f
0000
0000
ENDCHAR
STARTCHAR ch-341
ENCODING 341
SWIDTH 1000 0
DWIDTH 16 0
BBX 16 16 0 -2
BITMAP
104a
3ead
6aef
2a4a
3ead
2aef
2a0a
3eff
1408
1428
155a
1785
244b
43d1
0000
0000
ENDCHAR
STARTCHAR ch-342
ENCODING 342
SWIDTH 1000 0
DWIDTH 16 0
BBX 16 16 0 -2
BITMAP
1010
3e1c
6a10
3fff
2b11
2b7e
3f10
153e
17a5
15e7
1724
27ff
4401
07ff
0000
0000
ENDCHAR
STARTCHAR ch-344
ENCODING 344
SWIDTH 1000 0
DWIDTH 16 0
BBX 16 16 0 -2
BITMAP
3fff
2f8a
2a89
2fbe
2f94
2aa2
48c1
1ffc
3084
17f4
1ffc
041e
0811
701f
0000
0000
ENDCHAR
STARTCHAR ch-345
ENCODING 345
SWIDTH 1000 0
DWIDTH 16 0
BBX 16 16 0 -2
BITMAP
2081
17fe
43e8
22af
03ea
13ea
67f2
2482
0ff8
0fe8
0ff8
01a4
02bd
3cff
0000
0000
ENDCHAR
STARTCHAR ch-346
ENCODING 346
SWIDTH 1000 0
DWIDTH 16 0
BBX 16 16 0 -2
BITMAP
0400
0ff8
1020
2040
5ffc
1084
1084
1ffc
1084
1ffc
0000
1244
2122
4091
0000
0000
ENDCHAR
STARTCHAR ch-347
ENCODING 347
SWIDTH 1000 0
DWIDTH 16 0
BBX 16 16 0 -2
BITMAP
1000
3f7f
4211
0411
0811
7f11
4911
7f11
4911
7f11
0011
5521
5545
5502
0000
0000
ENDCHAR
STARTCHAR ch-351
ENCODING 351
SWIDTH 1000 0
DWIDTH 16 0
BBX 16 16 0 -2
BITMAP
1000
2000
7f00
027f
7f08
4908
4908
7f08
4908
4908
7f08
0008
557f
5500
0000
0000
ENDCHAR
STARTCHAR ch-352
ENCODING 352
SWIDTH 1000 0
DWIDTH 16 0
BBX 16 16 0 -2
BITMAP
2001
7f7f
0210
7f10
4910
4910
7f7f
4910
4910
7f10
0010
5511
5511
551f
0000
0000
ENDCHAR
STARTCHAR ch-353
ENCODING 353
SWIDTH 1000 0
DWIDTH 16 0
BBX 16 16 0 -2
BITMAP
1000
2020
7f20
023f
7f21
4941
4901
7f11
4909
4905
7f01
0001
5501
550e
0000
0000
ENDCHAR
STARTCHAR ch-356
ENCODING 356
SWIDTH 1000 0
DWIDTH 16 0
BBX 16 16 0 -2
BITMAP
2030
3e50
44d0
0850
7f50
4950
4950
7f5f
4950
4950
7f50
0051
5551
555f
0000
0000
ENDCHAR
STARTCHAR ch-358
ENCODING 358
SWIDTH 1000 0
DWIDTH 16 0
BBX 16 16 0 -2
BITMAP
2008
7f08
0208
042a
7f49
4949
4908
7f08
490a
490a
7f02
0004
5508
5570
0000
0000
ENDCHAR
STARTCHAR ch-359
ENCODING 359
SWIDTH 1000 0
DWIDTH 16 0
BBX 16 16 0 -2
BITMAP
2010
7f08
0200
047e
7f00
493c
4924
7f24
4924
4924
7f24
0025
5525
5547
0000
0000
ENDCHAR
STARTCHAR ch-360
ENCODING 360
SWIDTH 1000 0
DWIDTH 16 0
BBX 16 16 0 -2
BITMAP
1008
3f08
027f
0408
7f08
4949
4949
7f49
497f
4908
7f08
0009
5509
550f
0000
0000
ENDCHAR
STARTCHAR ch-364
ENCODING 364
SWIDTH 1000 0
DWIDTH 16 0
BBX 16 16 0 -2
BITMAP
2001
3efe
4440
0840
7f5e
4952
4952
7f52
4952
4952
7f4c
008c
5512
5521
0000
0000
ENDCHAR
STARTCHAR ch-367
ENCODING 367
SWIDTH 1000 0
DWIDTH 16 0
BBX 16 16 0 -2
BITMAP
0400
0ff8
1010
3ffc
1084
1ffc
1084
5ffd
4411
1ffc
1004
1ffc
1004
1ffc
0000
0000
ENDCHAR
STARTCHAR ch-368
ENCODING 368
SWIDTH 1000 0
DWIDTH 16 0
BBX 16 16 0 -2
BITMAP
1000
3f08
0208
047f
7f22
4922
4922
7f22
4922
4922
7f14
0008
5514
5563
0000
0000
ENDCHAR
STARTCHAR ch-369
ENCODING 369
SWIDTH 1000 0
DWIDTH 16 0
BBX 16 16 0 -2
BITMAP
107f
1e10
2410
0810
7f3e
4922
4922
7f22
4922
497e
7f02
0004
5508
557f
0000
0000
ENDCHAR
STARTCHAR ch-372
ENCODING 372
SWIDTH 1000 0
DWIDTH 16 0
BBX 16 16 0 -2
BITMAP
2008
7f08
027f
0410
7f10
4910
491f
7f11
4911
4921
7f41
0001
5501
550e
0000
0000
ENDCHAR
STARTCHAR ch-373
ENCODING 373
SWIDTH 1000 0
DWIDTH 16 0
BBX 16 16 0 -2
BITMAP
1000
3f18
0224
0442
7f81
497e
4912
7f12
4912
4912
7f12
0022
5542
551c
0000
0000
ENDCHAR
STARTCHAR ch-374
ENCODING 374
SWIDTH 1000 0
DWIDTH 16 0
BBX 16 16 0 -2
BITMAP
2008
7f08
0208
047f
7f49
4949
4949
7f49
4955
4963
7f41
0041
5541
5543
0000
0000
ENDCHAR
STARTCHAR ch-375
ENCODING 375
SWIDTH 1000 0
DWIDTH 16 0
BBX 16 16 0 -2
BITMAP
1024
3e22
0420
09ff
3e20
2a20
3e30
2a30
3e30
2230
0050
5591
5511
548f
0000
0000
ENDCHAR
STARTCHAR ch-378
ENCODING 378
SWIDTH 1000 0
DWIDTH 16 0
BBX 16 16 0 -2
BITMAP
1000
3eff
4402
0802
7f7a
494a
494a
7f4a
497a
494a
7f02
0002
5502
5506
0000
0000
ENDCHAR
STARTCHAR ch-379
ENCODING 379
SWIDTH 1000 0
DWIDTH 16 0
BBX 16 16 0 -2
BITMAP
1000
3e7f
4449
0849
7f7f
4949
4949
7f7f
4908
4908
7f08
0008
5508
5488
0000
0000
ENDCHAR
STARTCHAR ch-380
ENCODING 380
SWIDTH 1000 0
DWIDTH 16 0
BBX 16 16 0 -2
BITMAP
1008
3e08
443e
0808
7f08
4908
497f
7f08
4908
4910
7f22
0042
557f
5501
0000
0000
ENDCHAR
STARTCHAR ch-381
ENCODING 381
SWIDTH 1000 0
DWIDTH 16 0
BBX 16 16 0 -2
BITMAP
1000
3e24
4424
08ff
7f24
4924
4924
7f24
493c
4924
7f24
0024
5524
553c
0000
0000
ENDCHAR
STARTCHAR ch-382
ENCODING 382
SWIDTH 1000 0
DWIDTH 16 0
BBX 16 16 0 -2
BITMAP
1000
3eff
4404
0808
7f18
4934
49d2
7f11
4910
4910
7f10
0010
55ff
5500
0000
0000
ENDCHAR
STARTCHAR ch-384
ENCODING 384
SWIDTH 1000 0
DWIDTH 16 0
BBX 16 16 0 -2
BITMAP
1008
3e08
447f
0841
7f41
4910
4912
7f14
4918
4910
7f10
0010
5511
550f
0000
0000
ENDCHAR
STARTCHAR ch-386
ENCODING 386
SWIDTH 1000 0
DWIDTH 16 0
BBX 16 16 0 -2
BITMAP
1000
3e7f
4441
0841
7f49
4949
4949
7f49
4955
4963
7f41
0041
5541
557f
0000
0000
ENDCHAR
STARTCHAR ch-389
ENCODING 389
SWIDTH 1000 0
DWIDTH 16 0
BBX 16 16 0 -2
BITMAP
1000
3e08
4426
0820
7ea2
4aa2
4aa4
7ea9
4ab1
4a22
7ee0
0020
5521
551f
0000
0000
ENDCHAR
STARTCHAR ch-390
ENCODING 390
SWIDTH 1000 0
DWIDTH 16 0
BBX 16 16 0 -2
BITMAP
0840
2e7c
2842
7f3e
0000
0100
0ff8
0020
0ff8
0888
0ff8
0888
0ff8
124c
0000
0000
ENDCHAR
STARTCHAR ch-391
ENCODING 391
SWIDTH 1000 0
DWIDTH 16 0
BBX 16 16 0 -2
BITMAP
1008
3e08
443e
0808
7f08
497f
4908
7f08
491c
492a
7f49
0008
5508
5508
0000
0000
ENDCHAR
STARTCHAR ch-392
ENCODING 392
SWIDTH 1000 0
DWIDTH 16 0
BBX 16 16 0 -2
BITMAP
1040
3e40
447f
0841
7f81
493d
4925
7f25
493d
4925
7f01
0001
5501
550e
0000
0000
ENDCHAR
STARTCHAR ch-400
ENCODING 400
SWIDTH 1000 0
DWIDTH 16 0
BBX 16 16 0 -2
BITMAP
1008
3e08
4410
0820
7f42
49ff
4901
7f7e
4942
4942
7f42
0042
557e
5542
0000
0000
ENDCHAR
STARTCHAR ch-401
ENCODING 401
SWIDTH 1000 0
DWIDTH 16 0
BBX 16 16 0 -2
BITMAP
3c40
447f
0881
7f01
4979
4949
7f49
4979
4942
7f40
0040
5541
5541
553f
0000
0000
ENDCHAR
STARTCHAR ch-402
ENCODING 402
SWIDTH 1000 0
DWIDTH 16 0
BBX 16 16 0 -2
BITMAP
1000
3e22
4422
0842
7fdf
4942
4942
7f52
494a
4942
7f42
0042
5546
5542
0000
0000
ENDCHAR
STARTCHAR ch-403
ENCODING 403
SWIDTH 1000 0
DWIDTH 16 0
BBX 16 16 0 -2
BITMAP
1020
3e20
447f
0890
7f10
491e
4910
7f10
4910
4910
7f1e
0010
5510
5510
0000
0000
ENDCHAR
STARTCHAR ch-405
ENCODING 405
SWIDTH 1000 0
DWIDTH 16 0
BBX 16 16 0 -2
BITMAP
1008
3e08
4408
087f
7f08
4908
4908
7f7f
4941
4941
7f41
0041
557f
5541
0000
0000
ENDCHAR
STARTCHAR ch-410
ENCODING 410
SWIDTH 1000 0
DWIDTH 16 0
BBX 16 16 0 -2
BITMAP
1008
3e08
447f
0808
7f08
4908
493e
7f00
493e
4922
7f22
0022
553e
5522
0000
0000
ENDCHAR
STARTCHAR ch-411
ENCODING 411
SWIDTH 1000 0
DWIDTH 16 0
BBX 16 16 0 -2
BITMAP
1008
3e08
440e
0808
7f08
497f
4908
7f1c
492a
4949
7f08
0008
5528
5510
0000
0000
ENDCHAR
STARTCHAR ch-414
ENCODING 414
SWIDTH 1000 0
DWIDTH 16 0
BBX 16 16 0 -2
BITMAP
1000
3e7f
4408
0810
7f20
497f
4955
7f55
4955
4955
7f55
0055
5541
5543
0000
0000
ENDCHAR
STARTCHAR ch-416
ENCODING 416
SWIDTH 1000 0
DWIDTH 16 0
BBX 16 16 0 -2
BITMAP
1010
3e3c
4444
0808
7f7f
4940
495e
7f52
4952
4954
7f50
0051
5551
558f
0000
0000
ENDCHAR
STARTCHAR ch-417
ENCODING 417
SWIDTH 1000 0
DWIDTH 16 0
BBX 16 16 0 -2
BITMAP
1008
3e28
4428
08aa
7e6a
4a6c
4a28
7e6c
4aaa
4a28
7e28
0029
5549
5587
0000
0000
ENDCHAR
STARTCHAR ch-418
ENCODING 418
SWIDTH 1000 0
DWIDTH 16 0
BBX 16 16 0 -2
BITMAP
1050
3e50
447e
0890
7e10
4bff
4a10
7e38
4a54
4a92
7f13
0010
5510
5510
0000
0000
ENDCHAR
STARTCHAR ch-420
ENCODING 420
SWIDTH 1000 0
DWIDTH 16 0
BBX 16 16 0 -2
BITMAP
3f82
0402
0f12
1212
2c12
0912
71e6
0242
0ff8
0888
0ff8
0888
0ff8
124c
0000
0000
ENDCHAR
STARTCHAR ch-421
ENCODING 421
SWIDTH 1000 0
DWIDTH 16 0
BBX 16 16 0 -2
BITMAP
1020
3e20
443f
0844
7ea4
4a24
4a18
7e24
4ac3
4a00
7e3e
0022
5522
553e
0000
0000
ENDCHAR
STARTCHAR ch-422
ENCODING 422
SWIDTH 1000 0
DWIDTH 16 0
BBX 16 16 0 -2
BITMAP
107f
3e41
4441
085d
7f41
495d
4955
7f55
495d
4941
7f41
0041
5541
5543
0000
0000
ENDCHAR
STARTCHAR ch-424
ENCODING 424
SWIDTH 1000 0
DWIDTH 16 0
BBX 16 16 0 -2
BITMAP
1020
3e20
443e
0820
7f21
491f
4900
7f3f
4921
4921
7f3f
0021
5521
553f
0000
0000
ENDCHAR
STARTCHAR ch-426
ENCODING 426
SWIDTH 1000 0
DWIDTH 16 0
BBX 16 16 0 -2
BITMAP
3e10
2210
44ff
7f10
4920
497f
7fa1
493f
4921
7f3f
0021
5521
5525
5522
0000
0000
ENDCHAR
STARTCHAR ch-427
ENCODING 427
SWIDTH 1000 0
DWIDTH 16 0
BBX 16 16 0 -2
BITMAP
0800
1020
7c10
09ff
7e44
5282
5305
7e04
5244
5244
7e44
0028
2410
5aef
0000
0000
ENDCHAR
STARTCHAR ch-429
ENCODING 429
SWIDTH 1000 0
DWIDTH 16 0
BBX 16 16 0 -2
BITMAP
1000
2008
3f08
423e
7f08
4908
497f
7f08
4908
493e
7f08
0008
5508
557f
0000
0000
ENDCHAR
STARTCHAR ch-430
ENCODING 430
SWIDTH 1000 0
DWIDTH 16 0
BBX 16 16 0 -2
BITMAP
0800
1041
3f22
4214
047f
7f08
4908
7f7f
4908
7f08
007f
5508
5508
5508
0000
0000
ENDCHAR
STARTCHAR ch-431
ENCODING 431
SWIDTH 1000 0
DWIDTH 16 0
BBX 16 16 0 -2
BITMAP
1018
3e24
44c3
0800
7f7e
4900
4900
7f7e
4942
4942
7f42
0042
557e
5542
0000
0000
ENDCHAR
STARTCHAR ch-437
ENCODING 437
SWIDTH 1000 0
DWIDTH 16 0
BBX 16 16 0 -2
BITMAP
1044
3e82
4501
087c
7e44
4a44
4a44
7e7c
4a28
4a28
7e48
0048
5689
550f
0000
0000
ENDCHAR
STARTCHAR ch-438
ENCODING 438
SWIDTH 1000 0
DWIDTH 16 0
BBX 16 16 0 -2
BITMAP
10fe
3e22
4422
09ff
7e22
4afe
4a20
7e40
4aff
4b41
7e41
0041
557f
5541
0000
0000
ENDCHAR
STARTCHAR ch-440
ENCODING 440
SWIDTH 1000 0
DWIDTH 16 0
BBX 16 16 0 -2
BITMAP
1020
3e7e
4484
0808
7efe
4a92
4a92
7efe
4a48
4a48
7e48
0048
5689
550f
0000
0000
ENDCHAR
STARTCHAR ch-441
ENCODING 441
SWIDTH 1000 0
DWIDTH 16 0
BBX 16 16 0 -2
BITMAP
1010
3e92
4454
0838
7efe
4a82
4a82
7efe
4a82
4a82
7efe
0082
5682
5506
0000
0000
ENDCHAR
STARTCHAR ch-445
ENCODING 445
SWIDTH 1000 0
DWIDTH 16 0
BBX 16 16 0 -2
BITMAP
1010
3e28
4444
0882
7f01
4a7c
4a10
7efe
4a10
4a38
7e54
0092
5511
5510
0000
0000
ENDCHAR
STARTCHAR ch-447
ENCODING 447
SWIDTH 1000 0
DWIDTH 16 0
BBX 16 16 0 -2
BITMAP
11f4
3ea4
44a4
08e4
7ea4
4aa4
4ae4
7ea4
4aa4
4aa4
7ffc
0025
5525
5527
0000
0000
ENDCHAR
STARTCHAR ch-448
ENCODING 448
SWIDTH 1000 0
DWIDTH 16 0
BBX 16 16 0 -2
BITMAP
1010
1024
1f48
2210
0422
7f7c
4908
7f11
497f
7f08
001c
552a
5549
5508
0000
0000
ENDCHAR
STARTCHAR ch-449
ENCODING 449
SWIDTH 1000 0
DWIDTH 16 0
BBX 16 16 0 -2
BITMAP
107f
3e08
447f
0849
7f7f
4949
7f7f
4908
4908
7f28
0018
5518
5524
5543
0000
0000
ENDCHAR
STARTCHAR ch-451
ENCODING 451
SWIDTH 1000 0
DWIDTH 16 0
BBX 16 16 0 -2
BITMAP
10ff
3e10
4410
087e
7e12
4a12
4aff
7e00
4a7e
4a42
7e42
0042
557e
5542
0000
0000
ENDCHAR
STARTCHAR ch-452
ENCODING 452
SWIDTH 1000 0
DWIDTH 16 0
BBX 16 16 0 -2
BITMAP
1012
3e11
45ff
0810
7e10
4a92
4a54
7e38
4a54
4a94
7f12
0011
5530
5510
0000
0000
ENDCHAR
STARTCHAR ch-454
ENCODING 454
SWIDTH 1000 0
DWIDTH 16 0
BBX 16 16 0 -2
BITMAP
100a
3e09
447f
0808
7e7f
4a49
4a49
7e7f
4a49
4a49
7e7f
0049
5549
5543
0000
0000
ENDCHAR
STARTCHAR ch-455
ENCODING 455
SWIDTH 1000 0
DWIDTH 16 0
BBX 16 16 0 -2
BITMAP
1020
3e10
44ff
0881
7e00
4a7e
4a00
7eff
4a28
4a28
7e28
0028
5549
5587
0000
0000
ENDCHAR
STARTCHAR ch-456
ENCODING 456
SWIDTH 1000 0
DWIDTH 16 0
BBX 16 16 0 -2
BITMAP
09fc
1288
2450
6020
2850
28a8
297c
2b92
29fc
2924
29fc
2124
21fc
2252
0000
0000
ENDCHAR
STARTCHAR ch-457
ENCODING 457
SWIDTH 1000 0
DWIDTH 16 0
BBX 16 16 0 -2
BITMAP
1000
3c7e
4452
0852
7f7e
4952
4952
7f7e
4910
4910
7f7e
0010
5510
55ff
0000
0000
ENDCHAR
STARTCHAR ch-458
ENCODING 458
SWIDTH 1000 0
DWIDTH 16 0
BBX 16 16 0 -2
BITMAP
2020
10a4
492a
2229
1010
63e0
0400
07e0
0ff8
1888
2ff8
0888
0ff8
2222
0000
0000
ENDCHAR
STARTCHAR ch-467
ENCODING 467
SWIDTH 1000 0
DWIDTH 16 0
BBX 16 16 0 -2
BITMAP
1020
3e7c
44c4
0844
7e7c
4a44
4a7c
7e45
4a46
4afc
7e14
0024
5544
550c
0000
0000
ENDCHAR
STARTCHAR ch-468
ENCODING 468
SWIDTH 1000 0
DWIDTH 16 0
BBX 16 16 0 -2
BITMAP
1049
3e92
4524
0924
7e92
4a49
4a00
7efe
4a92
4a92
7efe
0092
5692
55fe
0000
0000
ENDCHAR
STARTCHAR ch-469
ENCODING 469
SWIDTH 1000 0
DWIDTH 16 0
BBX 16 16 0 -2
BITMAP
1022
3e22
447f
0822
7e22
4a3e
4a22
7e22
4a3e
4a22
7e22
007f
5522
5541
0000
0000
ENDCHAR
STARTCHAR ch-470
ENCODING 470
SWIDTH 1000 0
DWIDTH 16 0
BBX 16 16 0 -2
BITMAP
0810
1e10
227e
0410
7f7e
4910
49ff
7f7e
4942
497e
7f42
007e
5542
5544
0000
0000
ENDCHAR
STARTCHAR ch-471
ENCODING 471
SWIDTH 1000 0
DWIDTH 16 0
BBX 16 16 0 -2
BITMAP
0410
1ffc
3ffc
0080
7fff
1104
23f2
4421
0ff8
0888
0ff8
0888
0ff8
2122
0000
0000
ENDCHAR
STARTCHAR ch-473
ENCODING 473
SWIDTH 1000 0
DWIDTH 16 0
BBX 16 16 0 -2
BITMAP
2008
3e7f
4400
083e
7f22
493e
4900
7f3e
4904
4908
7f7f
0008
5508
5518
0000
0000
ENDCHAR
STARTCHAR ch-474
ENCODING 474
SWIDTH 1000 0
DWIDTH 16 0
BBX 16 16 0 -2
BITMAP
1002
3efc
4410
0810
7eff
4a52
4a91
7e7c
4a08
4a10
7eff
0010
5510
5530
0000
0000
ENDCHAR
STARTCHAR ch-475
ENCODING 475
SWIDTH 1000 0
DWIDTH 16 0
BBX 16 16 0 -2
BITMAP
107f
1e49
2249
7f7f
4949
4949
7f7f
4941
495d
7f55
0055
555d
5541
5542
0000
0000
ENDCHAR
STARTCHAR ch-476
ENCODING 476
SWIDTH 1000 0
DWIDTH 16 0
BBX 16 16 0 -2
BITMAP
1010
3e10
44fe
0844
7e28
4bff
4a40
7e44
4bff
4a44
7e44
0028
5510
556e
0000
0000
ENDCHAR
STARTCHAR ch-478
ENCODING 478
SWIDTH 1000 0
DWIDTH 16 0
BBX 16 16 0 -2
BITMAP
107c
3e04
44ff
0804
7e7c
4a00
4aff
7e91
4a7e
4a52
7e52
0052
5556
5510
0000
0000
ENDCHAR
STARTCHAR ch-480
ENCODING 480
SWIDTH 1000 0
DWIDTH 16 0
BBX 16 16 0 -2
BITMAP
1010
3eff
4410
0852
7e52
4a52
7eb5
4a10
4a10
4a38
7e54
0092
5511
5510
0000
0000
ENDCHAR
STARTCHAR ch-481
ENCODING 481
SWIDTH 1000 0
DWIDTH 16 0
BBX 16 16 0 -2
BITMAP
1024
3e24
4424
08e7
7e24
4a24
4ae7
7e24
4a24
4ae7
7e24
0024
5424
5444
0000
0000
ENDCHAR
STARTCHAR ch-482
ENCODING 482
SWIDTH 1000 0
DWIDTH 16 0
BBX 16 16 0 -2
BITMAP
1040
3e40
448e
0982
7eee
4a82
4a82
7efe
4a28
4a28
7e29
0029
5549
5587
0000
0000
ENDCHAR
STARTCHAR ch-484
ENCODING 484
SWIDTH 1000 0
DWIDTH 16 0
BBX 16 16 0 -2
BITMAP
1000
3e7e
4442
087e
7e42
4a42
4a7e
7e00
4a44
4a77
7e44
0044
5555
5533
0000
0000
ENDCHAR
STARTCHAR ch-485
ENCODING 485
SWIDTH 1000 0
DWIDTH 16 0
BBX 16 16 0 -2
BITMAP
1010
3e10
44fe
0810
7e10
4bff
4a44
7e44
4b93
4a10
7e7e
0010
5510
55ff
0000
0000
ENDCHAR
STARTCHAR ch-486
ENCODING 486
SWIDTH 1000 0
DWIDTH 16 0
BBX 16 16 0 -2
BITMAP
1040
3e42
447a
0892
7e12
4a95
4a60
7f9f
4a00
4a7e
7e42
0042
5542
557e
0000
0000
ENDCHAR
STARTCHAR ch-487
ENCODING 487
SWIDTH 1000 0
DWIDTH 16 0
BBX 16 16 0 -2
BITMAP
2000
7e7e
0842
7e7e
5242
527e
7e00
52ff
5281
7eff
2481
2481
2aff
5181
0000
0000
ENDCHAR
STARTCHAR ch-488
ENCODING 488
SWIDTH 1000 0
DWIDTH 16 0
BBX 16 16 0 -2
BITMAP
1e08
2208
047f
7f00
493e
4922
7f22
493e
4908
7f2a
0049
5508
5528
5510
0000
0000
ENDCHAR
STARTCHAR ch-490
ENCODING 490
SWIDTH 1000 0
DWIDTH 16 0
BBX 16 16 0 -2
BITMAP
1010
3e10
44fe
0810
7fff
4a44
7ea3
4a7e
4a84
4a24
7e24
0018
5518
5567
0000
0000
ENDCHAR
STARTCHAR ch-491
ENCODING 491
SWIDTH 1000 0
DWIDTH 16 0
BBX 16 16 0 -2
BITMAP
1000
3ef0
44ae
08a2
7eea
4aaa
7eaa
4aea
4aaa
4aaa
7eaa
00e4
552a
5531
0000
0000
ENDCHAR
STARTCHAR ch-492
ENCODING 492
SWIDTH 1000 0
DWIDTH 16 0
BBX 16 16 0 -2
BITMAP
0220
3c20
083f
7f49
2a11
4903
03f0
0420
0ff8
0888
0ff8
0888
0ff8
4211
0000
0000
ENDCHAR
STARTCHAR ch-496
ENCODING 496
SWIDTH 1000 0
DWIDTH 16 0
BBX 16 16 0 -2
BITMAP
1010
3e28
4444
0882
7f39
4a00
4a7e
7e04
4a08
4a10
7eaa
00a9
55a2
551f
0000
0000
ENDCHAR
STARTCHAR ch-503
ENCODING 503
SWIDTH 1000 0
DWIDTH 16 0
BBX 16 16 0 -2
BITMAP
107e
3e42
447e
0842
7e7e
4a00
4aff
7e08
4a48
4a4e
7e48
0048
5568
559f
0000
0000
ENDCHAR
STARTCHAR ch-504
ENCODING 504
SWIDTH 1000 0
DWIDTH 16 0
BBX 16 16 0 -2
BITMAP
105e
3e42
4482
09bf
7e80
4a90
4a9f
7ea4
4a84
4a84
7ebf
0084
568a
5591
0000
0000
ENDCHAR
STARTCHAR ch-509
ENCODING 509
SWIDTH 1000 0
DWIDTH 16 0
BBX 16 16 0 -2
BITMAP
1000
21ef
7d29
0929
7de9
5529
5529
7de9
5529
550d
7d4a
0148
29a8
5508
0000
0000
ENDCHAR
ENDFONT
