STARTFONT 2.1
FONT jis.jis5c00.24
SIZE 24 72 72
FONTBOUNDINGBOX 24 24 0 -3
STARTPROPERTIES 4
FONT_DESCENT 3
FONT_ASCENT 21
DEFAULT_CHAR 1
COPYRIGHT "Copyright (c) 1992 AT&T - All rights reserved."
ENDPROPERTIES
CHARS 154
STARTCHAR ch-1
ENCODING 1
SWIDTH 1000 0
DWIDTH 24 0
BBX 24 24 0 -3
BITMAP
03801c
030018
030018
033018
7ff818
03001a
0307ff
030018
031818
fffc18
000018
038218
030118
030198
033198
7ff998
030018
030018
030018
033018
07c018
fe0018
7000f8
400030
ENDCHAR
STARTCHAR ch-2
ENCODING 2
SWIDTH 1000 0
DWIDTH 24 0
BBX 24 24 0 -3
BITMAP
001c00
001800
00180c
7ffffe
001800
081830
0ffff8
0c1830
0c1830
0ffff0
0c1830
0c1830
0ffff0
0c0030
000180
000186
ffffff
000180
060180
018180
00c180
00c180
000f80
000300
ENDCHAR
STARTCHAR ch-4
ENCODING 4
SWIDTH 1000 0
DWIDTH 24 0
BBX 24 24 0 -3
BITMAP
040038
070030
266030
3ff030
306030
306030
3fe036
306fff
306030
306030
3fe430
306230
306330
306330
ffe330
79e030
436030
036030
066030
0c6030
186030
306030
c1e1f0
00c060
ENDCHAR
STARTCHAR ch-5
ENCODING 5
SWIDTH 1000 0
DWIDTH 24 0
BBX 24 24 0 -3
BITMAP
07001c
060018
060018
063018
fff81a
0607ff
060018
466018
7ff218
606118
606198
6060d8
6060d8
7fe018
198018
198018
198018
1980fa
318032
318002
218003
61ffff
40fffe
800000
ENDCHAR
STARTCHAR ch-6
ENCODING 6
SWIDTH 1000 0
DWIDTH 24 0
BBX 24 24 0 -3
BITMAP
07001c
0601fe
067f80
060004
860407
664206
36230c
363188
061990
061800
060038
060030
0e0032
16ffff
360030
e62030
661830
460c30
060630
060630
060030
060030
0601f0
060060
ENDCHAR
STARTCHAR ch-7
ENCODING 7
SWIDTH 1000 0
DWIDTH 24 0
BBX 24 24 0 -3
BITMAP
038200
730380
630718
6307fc
630c18
631b30
633130
634c60
7f04c0
630180
030338
030c30
033030
ff0036
337fff
330030
331030
330c30
230630
630630
430030
430030
8301f0
030060
ENDCHAR
STARTCHAR ch-8
ENCODING 8
SWIDTH 1000 0
DWIDTH 24 0
BBX 24 24 0 -3
BITMAP
001c00
00180c
7ffffe
001800
081830
0ffff8
0c1830
0c1830
0ffff0
0c1830
0c1830
0ffff0
001880
001860
3ffff8
0fe018
000180
000186
ffffff
020180
018180
00c180
00cf80
000300
ENDCHAR
STARTCHAR ch-9
ENCODING 9
SWIDTH 1000 0
DWIDTH 24 0
BBX 24 24 0 -3
BITMAP
20181c
3ffc18
301818
301818
301818
3ff81a
3007ff
300018
303018
37fa18
300118
300198
3018d8
3ffcd8
20c018
24c018
26d018
66c818
64cc18
4ccc18
48cc18
90c018
07c0f8
018030
ENDCHAR
STARTCHAR ch-10
ENCODING 10
SWIDTH 1000 0
DWIDTH 24 0
BBX 24 24 0 -3
BITMAP
020100
0181c0
00c180
00c20c
7ffffe
006600
086630
0ffff8
0c4630
0c8630
0f03f0
0c0030
0ffff0
0c0030
0c0030
0ffff0
000180
000186
ffffff
020180
018180
00c180
00cf80
000300
ENDCHAR
STARTCHAR ch-11
ENCODING 11
SWIDTH 1000 0
DWIDTH 24 0
BBX 24 24 0 -3
BITMAP
000060
07fff0
000060
000060
07ffe0
000060
000060
07ffe0
000000
00c40c
7fe7fe
06060c
06060c
06e60c
7f07fc
300060
000066
ffffff
020060
018060
00c060
00c060
0003e0
0000c0
ENDCHAR
STARTCHAR ch-13
ENCODING 13
SWIDTH 1000 0
DWIDTH 24 0
BBX 24 24 0 -3
BITMAP
0cc01c
8cc818
4cce18
6ccc18
6cc818
0cd018
fffc1a
2043ff
107018
186018
184218
009918
fffd98
030198
030198
033018
7ff818
030018
030018
030018
03f818
ff8018
7800f8
400030
ENDCHAR
STARTCHAR ch-14
ENCODING 14
SWIDTH 1000 0
DWIDTH 24 0
BBX 24 24 0 -3
BITMAP
002040
601060
1818c6
0dffff
0c0600
000400
007ff8
0c4008
fe7ff8
0c4008
0c7ff8
0c4008
0c7ff8
1a0000
f1ffff
607ffe
4000c0
0000c6
ffffff
0400c0
0300c0
0180c0
0187c0
000180
ENDCHAR
STARTCHAR ch-15
ENCODING 15
SWIDTH 1000 0
DWIDTH 24 0
BBX 24 24 0 -3
BITMAP
001c00
001800
001800
001800
001800
001800
001800
041880
071840
061820
061810
0c1818
0c180c
181806
181806
301803
201803
401803
801800
001800
001800
001800
00f800
003000
ENDCHAR
STARTCHAR ch-17
ENCODING 17
SWIDTH 1000 0
DWIDTH 24 0
BBX 24 24 0 -3
BITMAP
001c00
001800
001800
001800
041800
071860
061818
0e180e
0c1807
181803
101843
201870
4018e0
80f8c0
0031c0
000380
000700
000e00
001c00
003000
00e000
038000
1c0000
e00000
ENDCHAR
STARTCHAR ch-19
ENCODING 19
SWIDTH 1000 0
DWIDTH 24 0
BBX 24 24 0 -3
BITMAP
020000
038000
030000
070000
060000
060018
0ffffc
0c0000
180000
101c00
201800
401800
021800
039880
031840
071820
061830
0c1818
08181c
10180c
20180c
001800
00f800
003000
ENDCHAR
STARTCHAR ch-22
ENCODING 22
SWIDTH 1000 0
DWIDTH 24 0
BBX 24 24 0 -3
BITMAP
001c00
001800
021800
0398c0
071830
061818
0c180c
18180e
301806
c0f800
003000
000000
003800
003000
003006
ffffff
006400
00c200
00c300
018180
0300e0
06007f
18001e
e00006
ENDCHAR
STARTCHAR ch-26
ENCODING 26
SWIDTH 1000 0
DWIDTH 24 0
BBX 24 24 0 -3
BITMAP
001c10
10181c
0c1838
061830
031860
031840
001880
20180c
3ffffe
30000c
30000c
31018c
31ffcc
31818c
31818c
31818c
31818c
31ff8c
31818c
30000c
30000c
30000c
30007c
300018
ENDCHAR
STARTCHAR ch-32
ENCODING 32
SWIDTH 1000 0
DWIDTH 24 0
BBX 24 24 0 -3
BITMAP
1c7070
186060
186860
fffc60
186060
186268
1fe364
186366
186263
1fe263
186460
186068
18686e
fffdec
6660cc
666018
646018
6c7c30
683c30
700060
600040
7ffc80
600100
600600
ENDCHAR
STARTCHAR ch-34
ENCODING 34
SWIDTH 1000 0
DWIDTH 24 0
BBX 24 24 0 -3
BITMAP
007000
006000
006000
006000
006000
006000
006006
ffffff
00cc00
00cc00
00cc00
00cc00
00cc00
018c00
018c00
018c00
030c00
030c00
060c02
060c02
0c0c02
180c03
300fff
c007fe
ENDCHAR
STARTCHAR ch-36
ENCODING 36
SWIDTH 1000 0
DWIDTH 24 0
BBX 24 24 0 -3
BITMAP
007000
006200
006180
0060c0
0060c0
006000
006006
ffffff
00c000
00c000
00ce00
00cc00
00cc00
018c00
018c00
018c00
030c00
030c00
060c02
060c02
0c0c02
180c03
300fff
c007fe
ENDCHAR
STARTCHAR ch-40
ENCODING 40
SWIDTH 1000 0
DWIDTH 24 0
BBX 24 24 0 -3
BITMAP
0e0010
0c801c
0c6038
0c2070
0c00e0
0c6180
fff308
0d8c0e
0d801c
0d8038
0d8060
1d80c4
198307
198c0e
19801c
198038
318060
3180c0
318302
218c02
618002
418003
81ffff
00fffe
ENDCHAR
STARTCHAR ch-45
ENCODING 45
SWIDTH 1000 0
DWIDTH 24 0
BBX 24 24 0 -3
BITMAP
001c00
001800
001818
3ffffc
001800
001800
0398e0
0300c0
0300c6
ffffff
0300c0
0300c0
0300c0
000000
00000c
7ffffe
008300
00e300
00c302
01c302
038302
070303
1c03ff
e001fe
ENDCHAR
STARTCHAR ch-49
ENCODING 49
SWIDTH 1000 0
DWIDTH 24 0
BBX 24 24 0 -3
BITMAP
0381c0
030190
03018c
031986
fffd86
000180
000186
1fefff
186180
186180
1861f0
1861e0
1861e0
1fe160
030160
230360
3b8360
336360
333262
633662
430462
830c63
1f187f
06603e
ENDCHAR
STARTCHAR ch-56
ENCODING 56
SWIDTH 1000 0
DWIDTH 24 0
BBX 24 24 0 -3
BITMAP
000000
08000c
0ffffe
0c000c
0c000c
0c000c
0c000c
0c000c
0ffffc
0c000c
0c0000
0c0000
0c0000
0c0000
0c0000
180000
180000
180000
100000
300000
200000
600000
400000
800000
ENDCHAR
STARTCHAR ch-57
ENCODING 57
SWIDTH 1000 0
DWIDTH 24 0
BBX 24 24 0 -3
BITMAP
000000
000030
1ffff8
001830
001830
001830
001830
001836
ffffff
001830
001830
001830
001830
001830
1ffff0
001830
001800
003000
003000
006000
00c000
018000
060000
180000
ENDCHAR
STARTCHAR ch-58
ENCODING 58
SWIDTH 1000 0
DWIDTH 24 0
BBX 24 24 0 -3
BITMAP
000000
040030
07fff8
060030
060030
060030
060030
060030
060030
07fff0
061030
061000
060800
060800
060400
060600
0e0300
0c0380
0c01c0
0800e0
180078
10003f
20001e
c00004
ENDCHAR
STARTCHAR ch-59
ENCODING 59
SWIDTH 1000 0
DWIDTH 24 0
BBX 24 24 0 -3
BITMAP
100018
1ffffc
180018
180018
180018
180018
1ffff8
180018
183800
183000
183000
1830c0
1bffe0
1830c0
1830c0
1030c0
3060c0
3060c0
2060c0
60c0c2
40c0c2
8180c3
0300ff
0c007e
ENDCHAR
STARTCHAR ch-60
ENCODING 60
SWIDTH 1000 0
DWIDTH 24 0
BBX 24 24 0 -3
BITMAP
10000c
1ffffe
18000c
18000c
18000c
18000c
1ffffc
18000c
180000
187000
186000
186030
186078
1861e0
186700
187800
306000
306000
306002
206002
606002
406003
807fff
003ffe
ENDCHAR
STARTCHAR ch-61
ENCODING 61
SWIDTH 1000 0
DWIDTH 24 0
BBX 24 24 0 -3
BITMAP
040030
07fff8
060030
060030
060030
060030
07fff0
060130
060100
0c0080
0c4080
0c3040
081860
180c30
100e38
30061f
20000e
400006
818000
007000
001c00
000700
000380
000180
ENDCHAR
STARTCHAR ch-62
ENCODING 62
SWIDTH 1000 0
DWIDTH 24 0
BBX 24 24 0 -3
BITMAP
10000c
1ffffe
18000c
18000c
18000c
1ffffc
18000c
1800c0
180fe0
19fc00
180c00
180c00
180c30
1bfff8
180c00
300c00
300c18
37fffc
200c00
600c02
400c02
800c03
000fff
0007fe
ENDCHAR
STARTCHAR ch-63
ENCODING 63
SWIDTH 1000 0
DWIDTH 24 0
BBX 24 24 0 -3
BITMAP
10000c
1ffffe
18000c
18000c
18000c
18000c
1ffffc
18000c
180700
180600
180608
18660e
1bf61c
186730
186740
10c680
30c640
318660
210638
62061f
44060e
880606
003e00
000c00
ENDCHAR
STARTCHAR ch-64
ENCODING 64
SWIDTH 1000 0
DWIDTH 24 0
BBX 24 24 0 -3
BITMAP
100030
1ffff8
180030
180030
180030
180030
1ffff0
180000
180000
18000c
1ffffe
18000c
18000c
19030c
19ff8c
31830c
31830c
31830c
21ff0c
61830c
40001c
800018
0000f8
000030
ENDCHAR
STARTCHAR ch-65
ENCODING 65
SWIDTH 1000 0
DWIDTH 24 0
BBX 24 24 0 -3
BITMAP
10000c
1ffffe
18000c
18000c
18000c
1ffffc
18000c
180000
19c1c0
198180
198188
19818e
19999c
19fd98
1981b0
3181c0
318180
318180
218180
618182
419982
8fe183
0701ff
0400fe
ENDCHAR
STARTCHAR ch-69
ENCODING 69
SWIDTH 1000 0
DWIDTH 24 0
BBX 24 24 0 -3
BITMAP
100018
1ffffc
180018
180018
180018
180018
1ffff8
180018
180e00
180c00
180c06
1fffff
180c00
180c00
180c00
320c18
33fffc
330018
230018
630018
430018
830018
03fff8
030018
ENDCHAR
STARTCHAR ch-70
ENCODING 70
SWIDTH 1000 0
DWIDTH 24 0
BBX 24 24 0 -3
BITMAP
10000c
1ffffe
18000c
18000c
18000c
1ffffc
18000c
180700
180600
1b8607
1b0666
1b7ff6
1b0606
1b0606
1b0606
330606
330606
330666
237ff6
630006
430006
830006
03fffe
030006
ENDCHAR
STARTCHAR ch-72
ENCODING 72
SWIDTH 1000 0
DWIDTH 24 0
BBX 24 24 0 -3
BITMAP
10000c
1ffffe
18000c
18000c
18000c
1ffffc
18000c
180000
180700
19c61c
198618
198618
198618
19fff8
198618
300600
300600
33860e
23060c
63060c
43060c
83fffc
03000c
03000c
ENDCHAR
STARTCHAR ch-74
ENCODING 74
SWIDTH 1000 0
DWIDTH 24 0
BBX 24 24 0 -3
BITMAP
10000c
1ffffe
18000c
18000c
18000c
18000c
1ffffc
18000c
180700
180600
180600
1a060c
1bfffe
1b060c
1b060c
33060c
33fffc
33060c
23060c
63060c
43060c
83fffc
03000c
03000c
ENDCHAR
STARTCHAR ch-75
ENCODING 75
SWIDTH 1000 0
DWIDTH 24 0
BBX 24 24 0 -3
BITMAP
10000c
1ffffe
18000c
18000c
18000c
1ffffc
180000
18000c
1bfffe
181800
181840
181030
1821d8
19fe0c
18f00c
308700
300600
300618
23fffc
600600
400600
800606
0fffff
000000
ENDCHAR
STARTCHAR ch-77
ENCODING 77
SWIDTH 1000 0
DWIDTH 24 0
BBX 24 24 0 -3
BITMAP
10000c
1ffffe
18000c
18000c
18000c
1ffffc
18000c
180000
180006
1fffff
18c000
18c1c0
18cd88
18ff8e
198d9c
310db0
3299c0
34d980
203180
606182
40c182
818183
0601ff
1800fe
ENDCHAR
STARTCHAR ch-78
ENCODING 78
SWIDTH 1000 0
DWIDTH 24 0
BBX 24 24 0 -3
BITMAP
10000c
1ffffe
18000c
18000c
18000c
1ffffc
18000c
180700
190620
18c638
186670
186640
18068c
1bfffe
181e80
301e80
303640
303660
206630
60c61c
41860f
860606
000600
000600
ENDCHAR
STARTCHAR ch-79
ENCODING 79
SWIDTH 1000 0
DWIDTH 24 0
BBX 24 24 0 -3
BITMAP
10000c
1ffffe
18000c
18000c
18000c
1ffffc
188020
186038
183070
183040
18008c
19fffe
183060
183060
183060
303066
33ffff
303060
203060
606060
406060
80c060
018060
060060
ENDCHAR
STARTCHAR ch-80
ENCODING 80
SWIDTH 1000 0
DWIDTH 24 0
BBX 24 24 0 -3
BITMAP
10000c
1ffffe
18000c
18000c
18000c
1ffffc
180000
1880e0
18e0c0
19c0c6
199fff
1b00c0
1c80c0
18e0cc
19cffe
31820c
338218
358118
2181b0
6180e0
4180f0
8181bf
01861e
019806
ENDCHAR
STARTCHAR ch-81
ENCODING 81
SWIDTH 1000 0
DWIDTH 24 0
BBX 24 24 0 -3
BITMAP
10000c
1ffffe
18000c
18000c
18000c
1ffffc
18000c
190720
18c638
186630
186620
180640
18fff8
18c018
18c018
18fff8
30c018
30c018
30fff8
20c018
60c018
40c018
80c0f8
00c030
ENDCHAR
STARTCHAR ch-83
ENCODING 83
SWIDTH 1000 0
DWIDTH 24 0
BBX 24 24 0 -3
BITMAP
10000c
1ffffe
18000c
18000c
18000c
1ffffc
180000
180000
19000c
19fffe
19800c
19800c
19fffc
19800c
19800c
31fffc
31800c
31800c
21fffc
604000
407060
80e01c
01800e
060006
ENDCHAR
STARTCHAR ch-85
ENCODING 85
SWIDTH 1000 0
DWIDTH 24 0
BBX 24 24 0 -3
BITMAP
20000c
3ffffe
30000c
30000c
30000c
3ffffc
30000c
3071c0
306180
306198
37fffc
306180
306180
306186
3fffff
30c410
20c41c
20c218
60c320
40c1c0
40ccf0
9ff07f
0f001e
080006
ENDCHAR
STARTCHAR ch-94
ENCODING 94
SWIDTH 1000 0
DWIDTH 24 0
BBX 24 24 0 -3
BITMAP
10000c
1ffffe
18000c
18000c
1ffffc
180000
180030
1807f8
1bfe00
180400
19fff0
190410
190410
19fff0
180400
140406
37ffff
360486
260446
66ffe6
467866
864006
06003e
06000c
ENDCHAR
STARTCHAR ch-96
ENCODING 96
SWIDTH 1000 0
DWIDTH 24 0
BBX 24 24 0 -3
BITMAP
20000c
3ffffe
30000c
30000c
30000c
3ffffc
300020
301c38
301870
33ffe0
3018c0
301986
37ffff
300c00
301800
307ff0
30e030
236030
2c7ff0
606030
406030
806030
007ff0
006030
ENDCHAR
STARTCHAR ch-97
ENCODING 97
SWIDTH 1000 0
DWIDTH 24 0
BBX 24 24 0 -3
BITMAP
10000c
1ffffe
18000c
18000c
1ffffc
180010
188718
186630
182640
1bfffe
181e80
183660
186638
19861f
1e1c06
301800
37ffff
303060
2060c0
60d980
400700
800cf0
00703c
03800c
ENDCHAR
STARTCHAR ch-100
ENCODING 100
SWIDTH 1000 0
DWIDTH 24 0
BBX 24 24 0 -3
BITMAP
10000c
1ffffe
18000c
18000c
1ffffc
18406c
182040
19308c
19fffe
19820c
19820c
19fffc
19820c
19820c
19fffc
100000
30fff8
30c018
20c018
60fff8
40c018
80c018
00fff8
00c018
ENDCHAR
STARTCHAR ch-101
ENCODING 101
SWIDTH 1000 0
DWIDTH 24 0
BBX 24 24 0 -3
BITMAP
20000c
3ffffe
30000c
30000c
3ffffc
308800
30cc0c
318ffe
311800
321ff0
34a810
38cff0
318810
310810
330ff0
370200
3b0630
3307f8
330c30
231a60
6361c0
430370
830c1f
037006
ENDCHAR
STARTCHAR ch-108
ENCODING 108
SWIDTH 1000 0
DWIDTH 24 0
BBX 24 24 0 -3
BITMAP
10000c
1ffffe
18000c
1ffffc
180000
19e678
180600
19e678
180000
19fffc
190884
190884
19fffc
183000
187ffe
30c806
31ffc6
368846
208846
60ffc6
40080e
80088c
03fffc
01e0d8
ENDCHAR
STARTCHAR ch-110
ENCODING 110
SWIDTH 1000 0
DWIDTH 24 0
BBX 24 24 0 -3
BITMAP
001c00
001800
001800
001800
38180e
30180c
30180c
30180c
30180c
30180c
30180c
30180c
30180c
30180c
3ffffc
30180c
30180c
003000
003000
006000
00c000
018000
060000
180000
ENDCHAR
STARTCHAR ch-111
ENCODING 111
SWIDTH 1000 0
DWIDTH 24 0
BBX 24 24 0 -3
BITMAP
003800
003000
00300c
0030fe
003fc0
fff000
003000
003000
1c3070
183060
183060
183060
183060
183060
183060
1fffe0
183060
183060
183002
003002
003002
003003
003fff
001ffe
ENDCHAR
STARTCHAR ch-113
ENCODING 113
SWIDTH 1000 0
DWIDTH 24 0
BBX 24 24 0 -3
BITMAP
001c00
001800
001800
001800
001800
001800
38180e
30180c
30180c
30180c
30180c
30180c
30180c
30180c
30180c
30180c
30180c
30180c
30180c
30180c
30180c
3ffffc
30000c
30000c
ENDCHAR
STARTCHAR ch-118
ENCODING 118
SWIDTH 1000 0
DWIDTH 24 0
BBX 24 24 0 -3
BITMAP
001c00
38180e
30180c
30180c
30180c
30180c
3ffffc
30000c
000000
000000
00000c
7ffffe
00300c
00300c
00300c
00600c
00600c
00c00c
00c01c
018018
030018
060038
1801f0
e00060
ENDCHAR
STARTCHAR ch-121
ENCODING 121
SWIDTH 1000 0
DWIDTH 24 0
BBX 24 24 0 -3
BITMAP
000400
0e0700
0c0600
0c0600
0c0606
4c8fff
4c8c00
4c8800
4c9800
4c9018
4cbffc
4cc070
4c80e0
4c81c0
4c8380
4c8700
4c8e00
7f8c02
409802
401802
001802
001e07
000fff
0003fe
ENDCHAR
STARTCHAR ch-140
ENCODING 140
SWIDTH 1000 0
DWIDTH 24 0
BBX 24 24 0 -3
BITMAP
001c00
38180e
30180c
30180c
30180c
3ffffc
30000c
000000
000300
3fff80
00c300
00c300
00c330
01a7f8
01a630
019060
031860
030cc0
060780
0c0300
1807c0
301cff
c0703e
03800e
ENDCHAR
STARTCHAR ch-144
ENCODING 144
SWIDTH 1000 0
DWIDTH 24 0
BBX 24 24 0 -3
BITMAP
0700e0
0600c0
0600c0
0600c0
7660c6
667fff
6660c0
6660c0
6660c0
6660cc
667ffe
66640c
66641c
666218
666218
666330
7fe130
6061e0
6060c0
6001e0
000338
000e1f
00180e
00e006
ENDCHAR
STARTCHAR ch-145
ENCODING 145
SWIDTH 1000 0
DWIDTH 24 0
BBX 24 24 0 -3
BITMAP
001c00
38180e
30180c
30180c
30180c
3ffffc
30180c
003800
007400
00e200
01c180
0380c0
060070
0cff3f
30001e
c000c6
07ffe0
0000c0
000180
000180
000300
000300
000600
000600
ENDCHAR
STARTCHAR ch-148
ENCODING 148
SWIDTH 1000 0
DWIDTH 24 0
BBX 24 24 0 -3
BITMAP
008200
00e100
01c180
0180c0
030070
06003f
0fffde
3060c6
c060c0
00c0c0
00c1c0
018180
030f80
0c0300
700000
001c00
1c181c
181818
181818
181818
181818
181818
1ffff8
180018
ENDCHAR
STARTCHAR ch-161
ENCODING 161
SWIDTH 1000 0
DWIDTH 24 0
BBX 24 24 0 -3
BITMAP
400006
7fffff
600106
6201c6
618186
60c306
60c206
6004c6
67ffe6
601806
601806
6398e6
6318c6
6318c6
6318c6
6318c6
6318c6
63ffc6
6300c6
6300c6
600006
600006
60003e
60000c
ENDCHAR
STARTCHAR ch-168
ENCODING 168
SWIDTH 1000 0
DWIDTH 24 0
BBX 24 24 0 -3
BITMAP
070418
0607fc
060618
060618
060618
767618
666618
666618
6667f8
666618
666618
666618
666618
666618
666618
6667f8
666618
666618
7fe618
606618
600618
00061a
00ffff
000000
ENDCHAR
STARTCHAR ch-169
ENCODING 169
SWIDTH 1000 0
DWIDTH 24 0
BBX 24 24 0 -3
BITMAP
001c00
1c181c
181818
181818
181818
181818
1ffff8
180018
000000
000006
ffffff
018000
018000
030000
030018
07fffc
0f0018
1b0018
330018
c30018
030018
03fff8
030018
030018
ENDCHAR
STARTCHAR ch-171
ENCODING 171
SWIDTH 1000 0
DWIDTH 24 0
BBX 24 24 0 -3
BITMAP
0000e0
0e00c0
0c00c0
0c00c0
0c00c0
4c90c6
4c9fff
4c98c6
4c98c6
4c98c6
4c98c6
4c98c6
4c98c6
4c98c6
4c9ffe
4c98c6
4c98c6
7f98c6
4098c6
4018c6
0018c6
0018c6
001ffe
001806
ENDCHAR
STARTCHAR ch-172
ENCODING 172
SWIDTH 1000 0
DWIDTH 24 0
BBX 24 24 0 -3
BITMAP
0e1006
0c1fff
0c18c6
0c18c6
0c18c6
4c98c6
4c98c6
4c98c6
4c9ffe
4c98c6
4c98c6
4c98c6
4c98c6
4c98c6
4c98c6
4c9ffe
7f98c6
4098c6
4080c0
4000c0
0000c0
0000c0
0000c0
0000c0
ENDCHAR
STARTCHAR ch-177
ENCODING 177
SWIDTH 1000 0
DWIDTH 24 0
BBX 24 24 0 -3
BITMAP
041c80
071860
0e1820
0c180c
180ffe
39fc00
580600
980700
180382
1801c2
1800f3
18003f
18000e
001c00
001800
1c181c
181818
181818
181818
181818
181818
1ffff8
180018
180018
ENDCHAR
STARTCHAR ch-179
ENCODING 179
SWIDTH 1000 0
DWIDTH 24 0
BBX 24 24 0 -3
BITMAP
0001c0
041fe0
07f000
060000
060000
060018
07fffc
060300
060300
060300
060300
060306
ffffff
000000
001c00
001800
1c181c
181818
181818
181818
181818
181818
1ffff8
180018
ENDCHAR
STARTCHAR ch-182
ENCODING 182
SWIDTH 1000 0
DWIDTH 24 0
BBX 24 24 0 -3
BITMAP
000100
0e01c0
0c0180
0c0180
0c0100
4c9206
4c9fff
4c9806
4c9806
4c9806
4c9806
4c9806
4c9806
4c9ffe
4c9806
4c9806
4c9806
7f9806
409806
401806
001806
001ffe
001806
001806
ENDCHAR
STARTCHAR ch-183
ENCODING 183
SWIDTH 1000 0
DWIDTH 24 0
BBX 24 24 0 -3
BITMAP
0e100c
0c1ffe
0c180c
0c180c
4c980c
4c980c
4c980c
4c9ffc
4c98cc
4c98c0
4c98c0
4c98c6
4c9fff
4c98c0
4c98c0
4c98c0
7f9860
409860
401862
001832
0019ba
00fe1f
00700f
004006
ENDCHAR
STARTCHAR ch-184
ENCODING 184
SWIDTH 1000 0
DWIDTH 24 0
BBX 24 24 0 -3
BITMAP
001c00
1c181c
181818
181818
181818
1ffff8
000000
10000c
1ffffe
180000
180000
180018
19fffc
180600
180600
180600
180606
37ffff
300600
200600
600600
400600
800600
000600
ENDCHAR
STARTCHAR ch-187
ENCODING 187
SWIDTH 1000 0
DWIDTH 24 0
BBX 24 24 0 -3
BITMAP
000018
0e11fc
0c1fc0
0c18c0
4c98c0
4c98c0
4c98c0
4c98c0
4c98cc
4c9ffe
4c98c0
4c98c0
4c98c0
4c98c0
4c98e0
4c9860
7f9860
409f72
407c32
003032
00201a
00031f
00ff8f
000006
ENDCHAR
STARTCHAR ch-188
ENCODING 188
SWIDTH 1000 0
DWIDTH 24 0
BBX 24 24 0 -3
BITMAP
000000
0e000c
0c3ffe
0c0180
4c8180
4c8188
4c818e
4ca18c
4c918c
4c9998
4c9990
4c99a0
4c8180
4c8186
4cffff
4c8180
7f8180
408180
400180
000180
000180
000180
000180
000180
ENDCHAR
STARTCHAR ch-190
ENCODING 190
SWIDTH 1000 0
DWIDTH 24 0
BBX 24 24 0 -3
BITMAP
0700e0
0600c0
0600c0
0600c0
0600c0
6660c0
6660c6
6660ff
6660c0
6660c0
6660c0
6660c0
6660c0
6668c6
666fff
666c06
7fec06
606c06
600c06
000c06
000c06
000ffe
000c06
000c06
ENDCHAR
STARTCHAR ch-197
ENCODING 197
SWIDTH 1000 0
DWIDTH 24 0
BBX 24 24 0 -3
BITMAP
000200
0e0380
0c0310
0c0608
4c840c
4c887e
4cbfc6
4c9e06
4c9000
4c8630
4c8630
4c8630
4c8636
4cffff
4c8630
4c8630
4c8630
7f8c30
408c30
400830
001830
001030
002030
004030
ENDCHAR
STARTCHAR ch-199
ENCODING 199
SWIDTH 1000 0
DWIDTH 24 0
BBX 24 24 0 -3
BITMAP
001c00
38180e
30180c
30180c
30180c
3ffffc
30180c
003800
007400
00e200
01c180
0380c0
060670
0cff3f
30001e
c00006
040060
07fff0
060060
060060
060060
060060
07ffe0
060060
ENDCHAR
STARTCHAR ch-217
ENCODING 217
SWIDTH 1000 0
DWIDTH 24 0
BBX 24 24 0 -3
BITMAP
0001c0
0e0180
0c0180
0c018c
0c3ffe
4c8180
4c8180
4c8180
4c8186
4cffff
4c8000
4c8030
4c8032
4cffff
4c8030
4c9030
7f8c30
408630
400630
000030
000030
000030
0001f0
000060
ENDCHAR
STARTCHAR ch-224
ENCODING 224
SWIDTH 1000 0
DWIDTH 24 0
BBX 24 24 0 -3
BITMAP
0701c0
060180
060180
060198
7671fc
666180
666180
666180
666186
667fff
666000
666000
666006
667fff
666180
666180
7fe1e0
60619c
60618e
600186
000180
000180
000180
000180
ENDCHAR
STARTCHAR ch-225
ENCODING 225
SWIDTH 1000 0
DWIDTH 24 0
BBX 24 24 0 -3
BITMAP
0e01c0
0c0180
0c0180
0c018c
0c3ffe
4c8180
4ca188
4c918e
4c998c
4c9998
4c9990
4c81a0
4c8186
4cffff
4c8340
4c8340
4c8640
7f8620
408c20
408c30
001818
00301f
00600e
018006
ENDCHAR
STARTCHAR ch-232
ENCODING 232
SWIDTH 1000 0
DWIDTH 24 0
BBX 24 24 0 -3
BITMAP
000ce0
1c1ec8
1838c4
1878c6
1998c6
1818c0
9918c0
9918c6
99ffff
9918c0
9918c4
991847
991846
991b64
99fc6c
997828
995838
ff1812
81183a
81182a
00184e
001886
00fb07
003003
ENDCHAR
STARTCHAR ch-233
ENCODING 233
SWIDTH 1000 0
DWIDTH 24 0
BBX 24 24 0 -3
BITMAP
001c00
38180e
30180c
30180c
30180c
3ffffc
30000c
006040
01f730
0f8618
730618
030606
ffffff
030300
030308
03018e
03619c
0f80f8
ff00e2
7301f2
43033a
030c1e
1f300f
060003
ENDCHAR
STARTCHAR ch-234
ENCODING 234
SWIDTH 1000 0
DWIDTH 24 0
BBX 24 24 0 -3
BITMAP
000800
0e0e20
0c0c18
0c0c0c
0c180e
4c9186
4ca180
4c8340
4c8340
4c8620
4c8630
4c8c18
4c881c
4c900f
4ca006
4c8ff8
4c8c18
7f8c18
408c18
400c18
000c18
000c18
000ff8
000c18
ENDCHAR
STARTCHAR ch-237
ENCODING 237
SWIDTH 1000 0
DWIDTH 24 0
BBX 24 24 0 -3
BITMAP
0001c4
0e4187
0c3186
0c198c
0c1988
4c9990
4c8180
4c918c
4c9ffe
4c980c
4c980c
4c980c
4c9ffc
4c980c
4c980c
4c980c
4c9ffc
7f980c
40980c
40180c
00180c
00180c
00187c
001818
ENDCHAR
STARTCHAR ch-239
ENCODING 239
SWIDTH 1000 0
DWIDTH 24 0
BBX 24 24 0 -3
BITMAP
001c00
1c181c
181818
181818
1ffff8
184018
00e0c0
01ffe0
030380
0cce00
303c00
006780
0380ff
1c181e
e7ffe0
001800
001800
07ffe0
001800
00180c
7ffffe
001800
001800
001800
ENDCHAR
STARTCHAR ch-240
ENCODING 240
SWIDTH 1000 0
DWIDTH 24 0
BBX 24 24 0 -3
BITMAP
000400
0c0700
080630
080ff8
490830
491460
4922c0
490180
4903c0
490670
490c3f
49318e
49c180
491ff8
490180
490180
7f1ff8
410180
410186
007fff
000180
000180
000180
000180
ENDCHAR
STARTCHAR ch-246
ENCODING 246
SWIDTH 1000 0
DWIDTH 24 0
BBX 24 24 0 -3
BITMAP
008000
00e000
08c0c0
0fffe0
0c00c0
0c00c0
0fffc0
0c00c0
0c00c0
0fffc0
0c0000
0c000c
0ffffe
0c0000
0c0006
0fffff
00c006
38c386
30c306
30c306
30c30e
3fff0c
30007c
000018
ENDCHAR
STARTCHAR ch-250
ENCODING 250
SWIDTH 1000 0
DWIDTH 24 0
BBX 24 24 0 -3
BITMAP
0e0006
0c7fff
0c0180
0c0180
4ca18c
4cbffe
4cb18c
4cb18c
4cb18c
4cbffc
4cb18c
4cb18c
4cb18c
4cbffc
4cb18c
4c8980
7f8980
408500
400300
000380
0006e0
000c7f
00301e
00c006
ENDCHAR
STARTCHAR ch-251
ENCODING 251
SWIDTH 1000 0
DWIDTH 24 0
BBX 24 24 0 -3
BITMAP
000400
0c0700
080620
080418
08080c
497ff6
493e06
492870
490e60
490c60
49187e
49343e
49c700
490618
490ffc
491830
493460
49c2c0
7f0380
4106c0
400c70
00183f
00601e
018006
ENDCHAR
STARTCHAR ch-253
ENCODING 253
SWIDTH 1000 0
DWIDTH 24 0
BBX 24 24 0 -3
BITMAP
0001c0
0e0180
0c0180
0c0186
0c7fff
4c8180
4c9188
4c998c
4c998c
4c9188
4cb198
4cad94
4ca5a6
4cc3c2
4c8340
4c8340
7f8620
408620
400430
000c18
00081c
00100f
00200e
00c006
ENDCHAR
STARTCHAR ch-263
ENCODING 263
SWIDTH 1000 0
DWIDTH 24 0
BBX 24 24 0 -3
BITMAP
001c00
1c181c
181818
181818
181818
1ffff8
180018
001c00
101806
1fffff
300006
600008
67ffe0
000000
000006
ffffff
001800
041800
0718c0
0e1830
1c181c
30180e
c0f806
003000
ENDCHAR
STARTCHAR ch-267
ENCODING 267
SWIDTH 1000 0
DWIDTH 24 0
BBX 24 24 0 -3
BITMAP
001c00
38180e
30180c
30180c
3ffffc
30000c
000000
000018
3ffffc
061860
061860
061866
ffffff
061860
061860
061868
3ffffc
001800
001800
00180c
7ffffe
001800
001800
001800
ENDCHAR
STARTCHAR ch-270
ENCODING 270
SWIDTH 1000 0
DWIDTH 24 0
BBX 24 24 0 -3
BITMAP
0001c0
0e0180
0c0186
0c7fff
0c0180
0c0340
4c8330
4c8618
4c9818
4c8006
4cffff
4c800c
4c800c
4c90cc
4c9fcc
4c98cc
7f98cc
4098cc
401fcc
0018cc
00000c
00000c
00007c
000018
ENDCHAR
STARTCHAR ch-273
ENCODING 273
SWIDTH 1000 0
DWIDTH 24 0
BBX 24 24 0 -3
BITMAP
001c00
38180e
30180c
30180c
3ffffc
30000c
000000
0ffff0
0c0030
0c0030
0ffff0
0c0030
0c0030
0ffff0
000000
0e0710
0c661c
0ff638
0c0660
0c0782
0c6602
ff8603
7c07ff
4003fe
ENDCHAR
STARTCHAR ch-276
ENCODING 276
SWIDTH 1000 0
DWIDTH 24 0
BBX 24 24 0 -3
BITMAP
001c00
38180e
30180c
30180c
30180c
3ffffc
320400
038700
070600
060818
0ffffc
0c0c00
1c0c00
2c0c30
cffff8
0c0c00
0c0c00
0c0c30
0ffff8
0c0c00
0c0c00
0c0c06
0fffff
0c0000
ENDCHAR
STARTCHAR ch-277
ENCODING 277
SWIDTH 1000 0
DWIDTH 24 0
BBX 24 24 0 -3
BITMAP
004006
1c7fff
186000
1860e0
9960c0
9960cc
996ffe
9960c0
9960c0
9960c6
997fff
996000
996000
9960e0
9960c0
ff60cc
804ffe
80c0c0
00c0c0
0080c0
0180c0
0100c6
023fff
000000
ENDCHAR
STARTCHAR ch-278
ENCODING 278
SWIDTH 1000 0
DWIDTH 24 0
BBX 24 24 0 -3
BITMAP
001c00
1c181c
181818
181818
1ffff8
000000
20000c
3ffffe
300000
300e00
300c30
33fff8
300c00
300c0c
37fffe
300000
300e00
300c30
23fff8
200c00
600c00
400c06
5fffff
800000
ENDCHAR
STARTCHAR ch-279
ENCODING 279
SWIDTH 1000 0
DWIDTH 24 0
BBX 24 24 0 -3
BITMAP
001c00
38180e
30180c
30180c
3ffffc
30000c
000000
400006
7fffff
620106
6181c6
60c186
60c206
67ffe6
601806
601806
6318c6
6318c6
6318c6
6318c6
63ffc6
6300c6
60003e
60000c
ENDCHAR
STARTCHAR ch-280
ENCODING 280
SWIDTH 1000 0
DWIDTH 24 0
BBX 24 24 0 -3
BITMAP
000180
0e0180
0c0340
0c0340
4c8620
4c8430
4c881c
4c900f
4caff6
4cc000
4c8000
4ca00c
4cbffe
4cb24c
4cb24c
4cb24c
7fbffc
40b24c
40324c
00324c
00324c
00324c
00327c
003018
ENDCHAR
STARTCHAR ch-281
ENCODING 281
SWIDTH 1000 0
DWIDTH 24 0
BBX 24 24 0 -3
BITMAP
001c00
38180e
30180c
30180c
3ffffc
30180c
003800
007400
00e300
01c1c0
0700f8
1cff3f
e0000e
000000
1ffff8
184218
184218
184218
1ffff8
184218
184218
184218
184278
184230
ENDCHAR
STARTCHAR ch-282
ENCODING 282
SWIDTH 1000 0
DWIDTH 24 0
BBX 24 24 0 -3
BITMAP
0001c0
0e0180
0c0184
0c3ffe
0c0180
4c8182
4cffff
4c8630
4c8630
4c8c30
4c8a3f
4c939f
4ca300
4c8618
4c87fc
4c8c18
7f9430
40a230
400360
0001c0
000370
00063f
00181e
006006
ENDCHAR
STARTCHAR ch-283
ENCODING 283
SWIDTH 1000 0
DWIDTH 24 0
BBX 24 24 0 -3
BITMAP
002006
0e3fff
0c3006
0c3006
4cb006
4cbffe
4cb006
4cb0e0
4cb0c0
4cb4c7
4cb4c6
4cb4c6
4cb4c6
4cb7fe
4cb4c6
7fb0c0
4060c0
406ec7
004cc6
00ccc6
008cc6
010ffe
020c06
000c06
ENDCHAR
STARTCHAR ch-287
ENCODING 287
SWIDTH 1000 0
DWIDTH 24 0
BBX 24 24 0 -3
BITMAP
001c00
38180e
30180c
30180c
30180c
3ffffc
30180c
003800
007400
00e200
01c180
0380c0
060070
0dffbf
30181e
c01806
07ffe0
001880
0418e0
0318c0
019880
01990c
7ffffe
000000
ENDCHAR
STARTCHAR ch-290
ENCODING 290
SWIDTH 1000 0
DWIDTH 24 0
BBX 24 24 0 -3
BITMAP
000018
0e00fc
0c1fc0
0c0204
4ca187
4c988e
4c8808
4c8010
4c9ffc
4c818c
4c818c
4c818c
4cffff
4c818c
4c818c
4c818c
7f9ffc
408180
400180
000180
000180
000180
000f80
000300
ENDCHAR
STARTCHAR ch-297
ENCODING 297
SWIDTH 1000 0
DWIDTH 24 0
BBX 24 24 0 -3
BITMAP
001c00
1c181c
181818
181818
181818
1ffff8
000000
000000
1fe3fc
18630c
18630c
18630c
1fe3fc
18630c
18630c
18630c
1fe3fc
18630c
18630c
10620c
30660c
23e40c
40c87c
801018
ENDCHAR
STARTCHAR ch-331
ENCODING 331
SWIDTH 1000 0
DWIDTH 24 0
BBX 24 24 0 -3
BITMAP
004006
1c7fff
186186
186186
996186
996186
997ffe
996006
996000
996806
996fff
996c06
996c06
996c06
996ffe
ff6c06
804c06
80cc06
00cffe
008c06
018c06
010c06
020ffe
000c06
ENDCHAR
STARTCHAR ch-332
ENCODING 332
SWIDTH 1000 0
DWIDTH 24 0
BBX 24 24 0 -3
BITMAP
001c00
38180e
30180c
30180c
30180c
3ffffc
30000c
000200
38e380
30c300
30c606
ffffff
30c406
30c9c4
30d188
30c180
3fc180
30c340
30c340
30c220
30c638
3fc41f
30c80e
303006
ENDCHAR
STARTCHAR ch-334
ENCODING 334
SWIDTH 1000 0
DWIDTH 24 0
BBX 24 24 0 -3
BITMAP
00100c
0e1ffe
0c188c
0c188c
4c988c
4c9ffc
4c988c
4c988c
4c988c
4c9ffc
4c988c
4c8080
4ca086
4cbfff
4cb086
4cb0a6
7fb0b6
40b0f6
403f96
003606
003006
003006
00303e
00300c
ENDCHAR
STARTCHAR ch-336
ENCODING 336
SWIDTH 1000 0
DWIDTH 24 0
BBX 24 24 0 -3
BITMAP
001c00
1c181c
181818
181818
1ffff8
000000
100030
1ffff8
180230
181f30
19f030
181030
19ff30
191130
191130
191130
19ff30
181012
181212
10111a
301f8a
27f0ce
4380c7
820003
ENDCHAR
STARTCHAR ch-338
ENCODING 338
SWIDTH 1000 0
DWIDTH 24 0
BBX 24 24 0 -3
BITMAP
0200c0
03ffe0
0300c0
0300c0
0300c0
03ffc0
0300c0
000000
40c206
7fe3ff
60c306
60c306
60c306
7fc3fe
60c306
000000
001c00
38180e
30180c
30180c
30180c
30180c
3ffffc
30000c
ENDCHAR
STARTCHAR ch-348
ENCODING 348
SWIDTH 1000 0
DWIDTH 24 0
BBX 24 24 0 -3
BITMAP
001c00
38180e
30180c
30180c
3ffffc
30000c
001c00
001818
3ffffc
020080
0181c0
00c106
ffffff
000030
080c30
0ffe30
0c0c30
0c0c30
0c0c30
0ffc30
0c0c30
000030
0001f0
000060
ENDCHAR
STARTCHAR ch-361
ENCODING 361
SWIDTH 1000 0
DWIDTH 24 0
BBX 24 24 0 -3
BITMAP
001c00
1c181c
181818
181818
1ffff8
180018
001c00
001806
ffffff
000000
03ffc0
0300c0
0300c0
03ffc0
20000c
3ffffe
30000c
31ff8c
31818c
31818c
31ff8c
30000c
30007c
300018
ENDCHAR
STARTCHAR ch-364
ENCODING 364
SWIDTH 1000 0
DWIDTH 24 0
BBX 24 24 0 -3
BITMAP
001c00
38180e
30180c
30180c
3ffffc
30100c
001c00
081800
082030
0ffff8
0c1830
0c1830
0ffff0
0c1830
0c1830
0ffff0
0c0cc0
008c80
00ec92
01cdfa
038c8a
070c03
1c0fff
6007fe
ENDCHAR
STARTCHAR ch-367
ENCODING 367
SWIDTH 1000 0
DWIDTH 24 0
BBX 24 24 0 -3
BITMAP
001010
0e0c1c
0c0618
0c0620
0c3ffe
4c8180
4c8180
4c8198
4c9ffc
4c8180
4c8180
4c8186
4cffff
4c8600
4c8600
4c8c00
7f880c
409ffe
4030c0
0060c0
00c0c0
0300c0
0000c6
003fff
ENDCHAR
STARTCHAR ch-371
ENCODING 371
SWIDTH 1000 0
DWIDTH 24 0
BBX 24 24 0 -3
BITMAP
001c00
38180e
30180c
30180c
3ffffc
32008c
0180c0
00c180
00c218
3ffffc
001800
001800
0ffff0
001800
001806
ffffff
040000
0c0018
0bfffc
100c00
200c00
c00c06
1fffff
000000
ENDCHAR
STARTCHAR ch-374
ENCODING 374
SWIDTH 1000 0
DWIDTH 24 0
BBX 24 24 0 -3
BITMAP
000606
18ff7f
100606
100606
100606
924646
927e7e
926060
926060
926666
927f7f
920606
924646
923636
921616
920e0e
923636
fee6e6
824646
800606
000e0e
000c0c
007c7c
001818
ENDCHAR
STARTCHAR ch-386
ENCODING 386
SWIDTH 1000 0
DWIDTH 24 0
BBX 24 24 0 -3
BITMAP
0001c0
0e0180
0c018c
0c3ffe
0c0820
4c8430
4c8620
4c8246
4cffff
4c8000
4c9ff8
4c9818
4c9818
4c9ff8
4c9818
4c9818
7f9ff8
408180
400186
00ffff
000180
000180
000180
000180
ENDCHAR
STARTCHAR ch-388
ENCODING 388
SWIDTH 1000 0
DWIDTH 24 0
BBX 24 24 0 -3
BITMAP
001c00
38180e
30180c
30180c
3ffffc
000000
07000c
06623e
fff3f0
060300
060300
7fe306
6663ff
666318
7fe318
666318
666318
7fe318
060618
062618
fff418
060c18
060818
061018
ENDCHAR
STARTCHAR ch-391
ENCODING 391
SWIDTH 1000 0
DWIDTH 24 0
BBX 24 24 0 -3
BITMAP
00400c
1c7ffe
186000
186000
1863f0
996210
996210
996210
996210
9963f0
996000
996000
996f3c
996924
996924
996924
ff6924
816924
806f3c
006000
006000
006006
007fff
006000
ENDCHAR
STARTCHAR ch-395
ENCODING 395
SWIDTH 1000 0
DWIDTH 24 0
BBX 24 24 0 -3
BITMAP
000100
0e0180
0c1318
0c1ffc
4c9818
4c9818
4c9ff8
4c9818
4c9818
4c9ff8
4c9800
4c9806
4c9fff
4c9800
4c9806
4c9fff
7f9806
400026
404936
004996
00cc86
018c0c
01807c
000018
ENDCHAR
STARTCHAR ch-396
ENCODING 396
SWIDTH 1000 0
DWIDTH 24 0
BBX 24 24 0 -3
BITMAP
001c00
38180e
30180c
30180c
3ffffc
30180c
0430c0
07ffe0
0600c0
07ffc0
0600c0
0600c0
07ffc0
060018
07fffc
060000
06000c
07fffe
10020c
12218c
23189c
630818
6000f8
000030
ENDCHAR
STARTCHAR ch-400
ENCODING 400
SWIDTH 1000 0
DWIDTH 24 0
BBX 24 24 0 -3
BITMAP
001c00
38180e
30180c
30180c
3ffffc
30000c
430e00
7f8c30
631ff8
661860
6434c0
68c300
640780
620cf0
63303f
63e38e
633300
6f3ff8
666300
609ff8
600300
600306
61ffff
600000
ENDCHAR
STARTCHAR ch-413
ENCODING 413
SWIDTH 1000 0
DWIDTH 24 0
BBX 24 24 0 -3
BITMAP
000188
0e3f8c
0c0358
0c0362
4ca643
4c9626
4c9c28
4c8810
4c9bdc
4c900f
4ca006
4ccff8
4c8c18
4c8c18
4c8c18
7f8ff8
408000
400820
000438
000630
000620
000046
007fff
000000
ENDCHAR
STARTCHAR ch-418
ENCODING 418
SWIDTH 1000 0
DWIDTH 24 0
BBX 24 24 0 -3
BITMAP
0001c0
0c0188
083ffc
080180
490184
497ffe
490000
490c18
490810
497f7e
490810
490810
490f12
497c7f
492000
490000
7f7ffe
410c60
400c60
001862
001862
003063
00607f
01803e
ENDCHAR
STARTCHAR ch-428
ENCODING 428
SWIDTH 1000 0
DWIDTH 24 0
BBX 24 24 0 -3
BITMAP
000830
0e0620
0c0244
0c3ffe
0c0180
4c8180
4c9ffc
4c8180
4c8182
4cffff
4c8000
4c8268
4c8f66
4cbc62
4c8c60
4cffff
4c8c64
7f8c26
408f2c
407c18
002c3a
000c6e
007d87
001803
ENDCHAR
STARTCHAR ch-430
ENCODING 430
SWIDTH 1000 0
DWIDTH 24 0
BBX 24 24 0 -3
BITMAP
000300
0e0300
0c0680
0c0640
0c0c30
4c981f
4cb04e
4ccfe6
4c8000
4c8000
4ca64c
4cbf7e
4ca64c
4ca64c
4ca64c
4cbe7c
7f8000
409020
401c38
001830
003630
00236c
004346
008086
ENDCHAR
STARTCHAR ch-439
ENCODING 439
SWIDTH 1000 0
DWIDTH 24 0
BBX 24 24 0 -3
BITMAP
001c00
38180e
30180c
30180c
3ffffc
000000
30c00c
33effe
3e000c
304218
3061a0
1fe0c6
201fff
3080c6
7fc0c4
4608c8
864ec2
7fecff
0c0cc0
1b1ac0
1999c0
31b0f0
60607f
81801e
ENDCHAR
STARTCHAR ch-442
ENCODING 442
SWIDTH 1000 0
DWIDTH 24 0
BBX 24 24 0 -3
BITMAP
001c00
1c181c
181818
181818
1ffff8
000000
060006
063fff
0d0180
18c100
306ffc
606c0c
9f8c0c
000ffc
00cc0c
ffec0c
18cffc
18cc0c
18cc0c
18cffc
1bc300
19879c
181c07
186003
ENDCHAR
STARTCHAR ch-444
ENCODING 444
SWIDTH 1000 0
DWIDTH 24 0
BBX 24 24 0 -3
BITMAP
000200
0e070c
0c2c3e
0c310c
0c31ec
4cb10c
4cb10c
4cbd3c
4cb1cc
4cb04c
4cb24c
4cb24c
4cbe7c
4cb24c
4cb24c
4cb24c
4cb24c
7fffff
408800
400e20
001c18
00180c
00300e
004006
ENDCHAR
STARTCHAR ch-445
ENCODING 445
SWIDTH 1000 0
DWIDTH 24 0
BBX 24 24 0 -3
BITMAP
001c00
38180e
30180c
30180c
3ffffc
30000c
040000
86f870
4e0068
2dfc66
380062
100060
38f866
4803ff
8c0060
1cf850
3c0050
2c0050
4cf8c8
8c88c8
0c888c
188986
f8f907
300202
ENDCHAR
STARTCHAR ch-457
ENCODING 457
SWIDTH 1000 0
DWIDTH 24 0
BBX 24 24 0 -3
BITMAP
000400
000630
0e0ff8
0c1820
0c6040
4cbffc
4ca004
4ca004
4cbffc
4c9040
4c9e78
4c9042
4cfe43
4cb07f
4c8000
4cbff8
7fa108
40a108
403ff8
000090
00088a
001c83
0030ff
00c07e
ENDCHAR
STARTCHAR ch-460
ENCODING 460
SWIDTH 1000 0
DWIDTH 24 0
BBX 24 24 0 -3
BITMAP
001c00
1c181c
181818
181818
1ffff8
0420c0
0318e0
21110c
3ffffe
300100
37f9c0
308180
3ffd06
3211ff
321318
33f218
321510
221110
23f0b0
6210a0
421060
5ff0ff
8e119e
081606
ENDCHAR
STARTCHAR ch-461
ENCODING 461
SWIDTH 1000 0
DWIDTH 24 0
BBX 24 24 0 -3
BITMAP
001c00
38180e
30180c
30180c
3ffffc
000100
00c1c0
07e984
7e0ffe
060884
ffe884
0e0ffc
1f8884
36e884
c66ffc
0c0048
0c0448
fff758
188652
11867e
3b0442
0e0c43
1bc87f
e0d03e
ENDCHAR
STARTCHAR ch-466
ENCODING 466
SWIDTH 1000 0
DWIDTH 24 0
BBX 24 24 0 -3
BITMAP
080008
0c7e0c
580058
64ff64
260026
0c7e0c
180018
227e22
ff00ff
690069
087e08
2a424c
39426b
694249
887e88
080008
001c00
1c181c
181818
181818
181818
181818
1ffff8
180018
ENDCHAR
STARTCHAR ch-467
ENCODING 467
SWIDTH 1000 0
DWIDTH 24 0
BBX 24 24 0 -3
BITMAP
001c00
38180e
30180c
30180c
3ffffc
000000
070006
066fff
7ff0c0
060080
3fc7fc
20460c
3fc60c
2047fc
3fc60c
20460c
2047fc
3fc60c
00360c
fffffc
100200
198318
30c60e
c0d806
ENDCHAR
STARTCHAR ch-470
ENCODING 470
SWIDTH 1000 0
DWIDTH 24 0
BBX 24 24 0 -3
BITMAP
001c00
1c181c
181818
1ffff8
000000
0fc3f0
084210
0fc3f0
20000c
3ffffe
300100
37f1c0
308186
3fffff
321318
33f218
321518
221110
23f0b0
6210a0
421060
5ff0ff
8e119e
081606
ENDCHAR
STARTCHAR ch-475
ENCODING 475
SWIDTH 1000 0
DWIDTH 24 0
BBX 24 24 0 -3
BITMAP
000000
020408
03870e
03060c
070e1c
060c18
0c1830
0c1830
183060
102040
204080
408100
204080
102040
183060
081020
0c1830
0c1830
060c18
060c18
070e1c
03060c
03060c
000000
ENDCHAR
STARTCHAR ch-477
ENCODING 477
SWIDTH 1000 0
DWIDTH 24 0
BBX 24 24 0 -3
BITMAP
0e001c
0c0018
0c1c18
0c1818
0c1818
0c1818
0c1818
0c1818
0c1818
0c1818
0c1818
0c1818
0c1818
0c1818
0c1818
0c1818
181818
181818
181818
101818
300018
200018
400018
800018
ENDCHAR
STARTCHAR ch-478
ENCODING 478
SWIDTH 1000 0
DWIDTH 24 0
BBX 24 24 0 -3
BITMAP
07000e
060e0c
060c0c
060c0c
060c0c
060c0c
060c0c
268d0c
264c8c
264ccc
666cec
666c6c
c66c6c
c60c0c
060c0c
060c0c
060c0c
0c0c0c
0c0c0c
080c0c
180c0c
100c0c
20000c
c0000c
ENDCHAR
STARTCHAR ch-481
ENCODING 481
SWIDTH 1000 0
DWIDTH 24 0
BBX 24 24 0 -3
BITMAP
002108
4039ce
30318c
18318c
0c6318
0c6318
004630
00c420
008840
011080
0c8840
fec420
0c4610
0c6318
0c630c
0c318c
0c3186
0c3186
0c3186
0c0000
1a0000
f1ffff
607ffe
400000
ENDCHAR
STARTCHAR ch-483
ENCODING 483
SWIDTH 1000 0
DWIDTH 24 0
BBX 24 24 0 -3
BITMAP
002040
081070
061860
0318c0
031880
080130
0ffff8
0c1830
0c1830
0ffff0
0c1830
0c1830
0c1830
0ffff0
001800
001806
ffffff
00da00
01d980
0398e0
07187f
1c181e
e01806
001800
ENDCHAR
STARTCHAR ch-485
ENCODING 485
SWIDTH 1000 0
DWIDTH 24 0
BBX 24 24 0 -3
BITMAP
000000
000000
000018
3ffffc
001800
001800
001800
001800
001800
001800
001800
001800
001800
001800
001800
001800
001800
001800
001800
001800
001806
ffffff
000000
000000
ENDCHAR
STARTCHAR ch-486
ENCODING 486
SWIDTH 1000 0
DWIDTH 24 0
BBX 24 24 0 -3
BITMAP
008000
00e000
00c000
00c000
00c006
ffffff
018000
018000
018000
018000
030000
030030
03fff8
060c00
040c00
0c0c00
080c00
100c00
200c00
400c00
800c00
000c0c
0ffffe
000000
ENDCHAR
STARTCHAR ch-487
ENCODING 487
SWIDTH 1000 0
DWIDTH 24 0
BBX 24 24 0 -3
BITMAP
000000
000006
003fff
018300
ffc300
0c0300
0c0300
0c0600
0c0600
0c0606
0c07ff
0c0c06
0c0c06
0c0c06
0cc006
0f0006
fc000e
70000c
40000c
00001c
000018
000038
0003f0
0000e0
ENDCHAR
STARTCHAR ch-488
ENCODING 488
SWIDTH 1000 0
DWIDTH 24 0
BBX 24 24 0 -3
BITMAP
200018
3ffffc
300000
300000
300000
300000
300060
3ffff0
300060
300060
300060
300060
300060
300060
3fffe0
300060
300000
300000
300000
300000
300000
30000c
3ffffe
300000
ENDCHAR
STARTCHAR ch-491
ENCODING 491
SWIDTH 1000 0
DWIDTH 24 0
BBX 24 24 0 -3
BITMAP
000000
000018
3ffffc
001800
001800
001800
081820
0e1838
0c1830
0c1830
0c1860
1a1850
1918c8
31988c
20d906
40da06
801800
001800
001800
001800
001800
001806
ffffff
000000
ENDCHAR
STARTCHAR ch-494
ENCODING 494
SWIDTH 1000 0
DWIDTH 24 0
BBX 24 24 0 -3
BITMAP
020100
0181c0
00c180
00c218
3ffffc
001800
001800
001860
0ffff0
001800
001800
001806
ffffff
030000
030000
060030
07fff8
0c0c00
080c00
100c00
200c00
c00c06
1fffff
000000
ENDCHAR
STARTCHAR ch-497
ENCODING 497
SWIDTH 1000 0
DWIDTH 24 0
BBX 24 24 0 -3
BITMAP
000000
000018
3ffffc
000018
000018
000018
000018
000018
200018
3ffff8
300018
300018
300000
300000
300000
300000
300000
300002
300002
300002
300002
380007
3fffff
1ffffe
ENDCHAR
STARTCHAR ch-498
ENCODING 498
SWIDTH 1000 0
DWIDTH 24 0
BBX 24 24 0 -3
BITMAP
000000
000018
3ffffc
000018
000018
000018
380018
300018
300018
3ffff8
300018
300018
300000
300000
300000
300000
300000
300002
300002
300002
300002
380007
3fffff
1ffffe
ENDCHAR
STARTCHAR ch-499
ENCODING 499
SWIDTH 1000 0
DWIDTH 24 0
BBX 24 24 0 -3
BITMAP
000000
100030
1ffff8
180030
180030
180030
180030
180030
180030
180030
1ffff0
180030
180030
180000
180000
180000
180000
180002
180002
180002
180003
1fffff
0ffffe
000000
ENDCHAR
STARTCHAR ch-500
ENCODING 500
SWIDTH 1000 0
DWIDTH 24 0
BBX 24 24 0 -3
BITMAP
000000
200018
3ffffc
303018
303018
303018
303018
303018
303018
303018
3ffff8
300018
300018
300000
300000
300000
300000
300002
300002
300002
300003
3fffff
1ffffe
000000
ENDCHAR
STARTCHAR ch-501
ENCODING 501
SWIDTH 1000 0
DWIDTH 24 0
BBX 24 24 0 -3
BITMAP
000070
0003f8
103f80
1fe000
180000
180006
1fffff
180000
180000
190018
19fffc
198618
198618
198618
198618
31fff8
318018
318000
218002
618002
418002
818003
01ffff
00fffe
ENDCHAR
STARTCHAR ch-503
ENCODING 503
SWIDTH 1000 0
DWIDTH 24 0
BBX 24 24 0 -3
BITMAP
00e380
00c300
00c300
00c318
3ffffc
00c300
00c300
00c300
00c306
ffffff
018100
038080
0300c0
07ff70
0c033f
18031e
310306
c1ff00
018300
018040
018040
018060
01ffe0
00ffc0
ENDCHAR
STARTCHAR ch-507
ENCODING 507
SWIDTH 1000 0
DWIDTH 24 0
BBX 24 24 0 -3
BITMAP
003800
103080
0c30e0
0630c0
063080
003118
3ffffc
006400
006400
00c206
ffffff
018180
0300c0
030060
06ff38
0c031f
18030e
310306
c1ff00
018010
018010
018018
01fff8
00fff0
ENDCHAR
STARTCHAR ch-509
ENCODING 509
SWIDTH 1000 0
DWIDTH 24 0
BBX 24 24 0 -3
BITMAP
00c018
7feffc
00c018
00c018
3fc7f8
300600
302604
303606
3ff7fe
1fe3fc
000000
01c1c0
018180
018198
3ffffc
018180
018180
018186
ffffff
010000
03c180
070078
1c001c
60000c
ENDCHAR
STARTCHAR ch-510
ENCODING 510
SWIDTH 1000 0
DWIDTH 24 0
BBX 24 24 0 -3
BITMAP
001c00
001800
001800
001800
20180c
3ffffe
30180c
30180c
30180c
30180c
30180c
30180c
30180c
30180c
30180c
30180c
30180c
30180c
30187c
301818
001800
001800
001800
001800
ENDCHAR
ENDFONT
