STARTFONT 2.1
FONT jis.jis7c00.16
SIZE 16 72 72
FONTBOUNDINGBOX 16 16 0 -2
STARTPROPERTIES 4
FONT_DESCENT 2
FONT_ASCENT 14
DEFAULT_CHAR 0
COPYRIGHT "Copyright (c) 1992 AT&T - All rights reserved."
ENDPROPERTIES
CHARS 191
STARTCHAR ch-0
ENCODING 0
SWIDTH 1000 0
DWIDTH 16 0
BBX 16 16 0 -2
BITMAP
2040
7eff
c890
0508
3ffc
0100
1ff8
0100
ffff
1008
1ff8
1008
1ff8
1008
1ff8
700e
ENDCHAR
STARTCHAR ch-7
ENCODING 7
SWIDTH 1000 0
DWIDTH 16 0
BBX 16 16 0 -2
BITMAP
1040
1040
3eff
6990
c408
1080
10fe
fe80
2140
3c7e
2490
2410
25ff
6428
446c
ddc7
ENDCHAR
STARTCHAR ch-13
ENCODING 13
SWIDTH 1000 0
DWIDTH 16 0
BBX 16 16 0 -2
BITMAP
2040
7eff
c890
0508
3ffc
2104
ffff
2104
3ffc
1108
1ff8
0200
ffff
1810
07e0
781e
ENDCHAR
STARTCHAR ch-17
ENCODING 17
SWIDTH 1000 0
DWIDTH 16 0
BBX 16 16 0 -2
BITMAP
2040
2040
7eff
c890
0508
7ffe
0000
1ff8
1008
ffff
1008
1ffa
0446
1864
ef38
180f
ENDCHAR
STARTCHAR ch-18
ENCODING 18
SWIDTH 1000 0
DWIDTH 16 0
BBX 16 16 0 -2
BITMAP
2040
7e7f
8890
1ff8
1008
1ff8
1008
1ff8
1008
1ff8
0200
ffff
0810
348c
c913
33e8
ENDCHAR
STARTCHAR ch-19
ENCODING 19
SWIDTH 1000 0
DWIDTH 16 0
BBX 16 16 0 -2
BITMAP
1040
1040
3eff
6990
c408
3f82
2486
2e8c
24ba
2e86
208c
2eb9
2a83
6a86
4e8c
c1b8
ENDCHAR
STARTCHAR ch-20
ENCODING 20
SWIDTH 1000 0
DWIDTH 16 0
BBX 16 16 0 -2
BITMAP
2040
2040
7eff
c890
0508
7ffe
0000
3ffc
0810
ffff
0810
3ffc
0442
1864
ef38
180f
ENDCHAR
STARTCHAR ch-23
ENCODING 23
SWIDTH 1000 0
DWIDTH 16 0
BBX 16 16 0 -2
BITMAP
2040
7eff
c988
0404
61f8
3048
c2ca
5489
3188
6338
c000
0100
ffff
0540
1938
f10f
ENDCHAR
STARTCHAR ch-31
ENCODING 31
SWIDTH 1000 0
DWIDTH 16 0
BBX 16 16 0 -2
BITMAP
2040
7eff
c990
0408
ffff
0440
3ffc
2444
3ffc
1008
1ff8
1008
1ff8
0100
ffff
0100
ENDCHAR
STARTCHAR ch-33
ENCODING 33
SWIDTH 1000 0
DWIDTH 16 0
BBX 16 16 0 -2
BITMAP
2040
3e7f
4890
8408
7e7e
4242
7e7e
4242
7e7e
4002
47e2
4422
47e2
4422
47e2
400e
ENDCHAR
STARTCHAR ch-35
ENCODING 35
SWIDTH 1000 0
DWIDTH 16 0
BBX 16 16 0 -2
BITMAP
2040
7eff
c890
0508
3ffc
2104
3ffc
0100
ffff
1008
1ff8
1008
1ff8
1008
1ff8
700e
ENDCHAR
STARTCHAR ch-39
ENCODING 39
SWIDTH 1000 0
DWIDTH 16 0
BBX 16 16 0 -2
BITMAP
2040
2040
7eff
c990
0420
3ffc
0420
ffff
0100
1ff8
1108
1ff8
1108
1ff8
0810
700e
ENDCHAR
STARTCHAR ch-42
ENCODING 42
SWIDTH 1000 0
DWIDTH 16 0
BBX 16 16 0 -2
BITMAP
2040
7eff
c990
0408
7efe
2448
2448
feff
0d18
1629
6447
1ff8
1008
1ff8
1008
1ff8
ENDCHAR
STARTCHAR ch-43
ENCODING 43
SWIDTH 1000 0
DWIDTH 16 0
BBX 16 16 0 -2
BITMAP
2040
7eff
c890
0508
3ffc
0104
ffff
0104
3ffc
0920
2544
2ff4
2384
6544
5934
c104
ENDCHAR
STARTCHAR ch-55
ENCODING 55
SWIDTH 1000 0
DWIDTH 16 0
BBX 16 16 0 -2
BITMAP
2040
7eff
d110
0fe8
1840
7ffe
2408
39ee
2000
3ffe
2000
27f8
6000
4ffc
c804
0ffc
ENDCHAR
STARTCHAR ch-56
ENCODING 56
SWIDTH 1000 0
DWIDTH 16 0
BBX 16 16 0 -2
BITMAP
2040
2040
7eff
d1a0
0008
2408
ffff
2489
3c88
24fe
3ca2
24b6
ff9c
2888
6d14
c663
ENDCHAR
STARTCHAR ch-61
ENCODING 61
SWIDTH 1000 0
DWIDTH 16 0
BBX 16 16 0 -2
BITMAP
2040
2040
7eff
d090
0908
0380
06e0
1c38
f7ef
0000
3e7c
2244
3e7c
1008
2814
c663
ENDCHAR
STARTCHAR ch-62
ENCODING 62
SWIDTH 1000 0
DWIDTH 16 0
BBX 16 16 0 -2
BITMAP
2040
7f7f
c890
0080
7fff
4210
5ffe
4120
4ffc
4124
7fff
4124
4ffc
c528
8d2c
3927
ENDCHAR
STARTCHAR ch-63
ENCODING 63
SWIDTH 1000 0
DWIDTH 16 0
BBX 16 16 0 -2
BITMAP
2040
2040
7eff
d190
0822
67ff
3020
13fe
c222
63fe
2222
0bfe
1804
37ff
6104
c09c
ENDCHAR
STARTCHAR ch-64
ENCODING 64
SWIDTH 1000 0
DWIDTH 16 0
BBX 16 16 0 -2
BITMAP
2040
2040
7eff
c910
24c0
23be
220a
fa8a
23da
2636
3000
e1fc
2124
21fc
2124
61fc
ENDCHAR
STARTCHAR ch-67
ENCODING 67
SWIDTH 1000 0
DWIDTH 16 0
BBX 16 16 0 -2
BITMAP
2040
7eff
c9a0
0410
7f10
483f
7e60
4200
7e3e
4800
7f00
0000
3ffc
2444
2444
ffff
ENDCHAR
STARTCHAR ch-76
ENCODING 76
SWIDTH 1000 0
DWIDTH 16 0
BBX 16 16 0 -2
BITMAP
2040
7eff
c910
7ffe
0100
3ffc
0000
ffff
0101
3ffc
0000
ffff
0004
7dff
4444
7c2c
ENDCHAR
STARTCHAR ch-77
ENCODING 77
SWIDTH 1000 0
DWIDTH 16 0
BBX 16 16 0 -2
BITMAP
2020
3f7f
4890
8408
1044
7dff
1044
7c44
11ff
fe00
10fe
3882
34fe
5282
9082
10fe
ENDCHAR
STARTCHAR ch-79
ENCODING 79
SWIDTH 1000 0
DWIDTH 16 0
BBX 16 16 0 -2
BITMAP
2040
7eff
c990
0408
1100
13ff
fe44
21ff
2044
3c7c
2444
247c
2444
65ff
4444
dd83
ENDCHAR
STARTCHAR ch-80
ENCODING 80
SWIDTH 1000 0
DWIDTH 16 0
BBX 16 16 0 -2
BITMAP
2040
7eff
c990
0408
0122
78a4
49fe
4850
7bff
4888
4924
7aab
4870
48ac
cb23
9860
ENDCHAR
STARTCHAR ch-84
ENCODING 84
SWIDTH 1000 0
DWIDTH 16 0
BBX 16 16 0 -2
BITMAP
2040
7eff
c990
0408
4910
2a1f
ffb4
1c64
2a14
c994
101c
ff88
221c
7414
1c36
e363
ENDCHAR
STARTCHAR ch-86
ENCODING 86
SWIDTH 1000 0
DWIDTH 16 0
BBX 16 16 0 -2
BITMAP
2040
7eff
c9a0
0414
7fd6
0412
ffff
1210
7392
1216
7394
121c
7388
121d
1fb5
f063
ENDCHAR
STARTCHAR ch-88
ENCODING 88
SWIDTH 1000 0
DWIDTH 16 0
BBX 16 16 0 -2
BITMAP
2040
7eff
c990
0408
0122
78a4
49fe
4848
7bff
4884
4b23
7848
4832
49fd
c8a4
9b23
ENDCHAR
STARTCHAR ch-95
ENCODING 95
SWIDTH 1000 0
DWIDTH 16 0
BBX 16 16 0 -2
BITMAP
2040
7eff
c990
0408
1000
feff
1010
fe7e
9242
927e
fe42
307e
7842
547e
9224
10c3
ENDCHAR
STARTCHAR ch-96
ENCODING 96
SWIDTH 1000 0
DWIDTH 16 0
BBX 16 16 0 -2
BITMAP
2040
7eff
d1a0
083e
7f20
223e
ff82
003e
3e20
223e
3e20
223e
3e20
223e
2221
261f
ENDCHAR
STARTCHAR ch-100
ENCODING 100
SWIDTH 1000 0
DWIDTH 16 0
BBX 16 16 0 -2
BITMAP
2040
7eff
d1a0
0814
2116
5292
ffff
1210
7392
1216
7394
121c
7388
121d
1fb5
f063
ENDCHAR
STARTCHAR ch-101
ENCODING 101
SWIDTH 1000 0
DWIDTH 16 0
BBX 16 16 0 -2
BITMAP
2040
7eff
c908
07c4
1c78
f38f
0000
7bde
4a52
7bde
0000
3ffc
2444
3ffc
2444
244c
ENDCHAR
STARTCHAR ch-108
ENCODING 108
SWIDTH 1000 0
DWIDTH 16 0
BBX 16 16 0 -2
BITMAP
2040
7eff
c990
0408
0812
ff94
143f
4964
5524
413e
7f24
0824
ffbe
92a4
bea4
81bf
ENDCHAR
STARTCHAR ch-115
ENCODING 115
SWIDTH 1000 0
DWIDTH 16 0
BBX 16 16 0 -2
BITMAP
0100
2104
310c
1918
0910
0100
ffff
0540
0d60
0930
1918
310c
6106
c103
0100
0100
ENDCHAR
STARTCHAR ch-117
ENCODING 117
SWIDTH 1000 0
DWIDTH 16 0
BBX 16 16 0 -2
BITMAP
1010
9210
d610
5410
1010
fe10
11ff
1010
3810
3410
5210
5010
9010
1010
1010
1010
ENDCHAR
STARTCHAR ch-126
ENCODING 126
SWIDTH 1000 0
DWIDTH 16 0
BBX 16 16 0 -2
BITMAP
1000
95fe
d422
5422
1022
fe22
10a2
10a2
38e2
3442
5442
50e2
90a6
10a4
1184
131c
ENDCHAR
STARTCHAR ch-129
ENCODING 129
SWIDTH 1000 0
DWIDTH 16 0
BBX 16 16 0 -2
BITMAP
1006
921c
d6f0
5410
1010
fc10
1010
11ff
3810
3410
5210
5010
9010
1010
1010
1010
ENDCHAR
STARTCHAR ch-130
ENCODING 130
SWIDTH 1000 0
DWIDTH 16 0
BBX 16 16 0 -2
BITMAP
0200
07e0
1c40
70c0
0360
0e30
381c
e107
1108
0910
ffff
0540
0d70
391c
e107
0100
ENDCHAR
STARTCHAR ch-131
ENCODING 131
SWIDTH 1000 0
DWIDTH 16 0
BBX 16 16 0 -2
BITMAP
2110
a910
a910
2112
2116
f9dc
2110
2110
7110
6910
a910
a110
2110
2111
21d3
230e
ENDCHAR
STARTCHAR ch-137
ENCODING 137
SWIDTH 1000 0
DWIDTH 16 0
BBX 16 16 0 -2
BITMAP
1048
9448
d448
54cc
1084
fd86
1303
10fc
3824
3424
5424
5064
9044
10cc
1188
1338
ENDCHAR
STARTCHAR ch-139
ENCODING 139
SWIDTH 1000 0
DWIDTH 16 0
BBX 16 16 0 -2
BITMAP
1020
9220
d6fc
5424
1064
fe45
10c5
1183
3810
3410
55ff
5010
9010
1010
1010
1010
ENDCHAR
STARTCHAR ch-141
ENCODING 141
SWIDTH 1000 0
DWIDTH 16 0
BBX 16 16 0 -2
BITMAP
100c
9238
d6e0
5420
1020
fe20
11fe
1020
3820
3420
55fe
5020
9020
1021
1033
101e
ENDCHAR
STARTCHAR ch-144
ENCODING 144
SWIDTH 1000 0
DWIDTH 16 0
BBX 16 16 0 -2
BITMAP
1000
95ff
d400
5400
10fe
fc82
1082
1082
38fe
3480
5480
5080
9080
1180
1100
1300
ENDCHAR
STARTCHAR ch-146
ENCODING 146
SWIDTH 1000 0
DWIDTH 16 0
BBX 16 16 0 -2
BITMAP
1020
9420
d420
55fe
1000
fe84
1084
3884
34cc
5448
5048
9048
1048
1008
13ff
1000
ENDCHAR
STARTCHAR ch-149
ENCODING 149
SWIDTH 1000 0
DWIDTH 16 0
BBX 16 16 0 -2
BITMAP
1010
9230
d620
55fe
1102
fd02
1102
1102
39fe
3502
5502
5102
9102
1102
11fe
1000
ENDCHAR
STARTCHAR ch-151
ENCODING 151
SWIDTH 1000 0
DWIDTH 16 0
BBX 16 16 0 -2
BITMAP
1000
92fc
d684
5484
1084
fefc
1084
1084
3884
34fc
5484
5084
9084
1084
13ff
1000
ENDCHAR
STARTCHAR ch-152
ENCODING 152
SWIDTH 1000 0
DWIDTH 16 0
BBX 16 16 0 -2
BITMAP
1010
9210
d610
5410
101f
fe10
1010
1010
3810
34fe
5282
5082
9082
1082
1082
10fe
ENDCHAR
STARTCHAR ch-155
ENCODING 155
SWIDTH 1000 0
DWIDTH 16 0
BBX 16 16 0 -2
BITMAP
0100
3ffc
0104
ffff
0104
3ffc
0100
2914
2524
2ff4
2104
2384
2544
6934
4104
c104
ENDCHAR
STARTCHAR ch-159
ENCODING 159
SWIDTH 1000 0
DWIDTH 16 0
BBX 16 16 0 -2
BITMAP
0000
ffff
0440
7ffe
4442
4442
7ffe
1108
1918
0910
ffff
0520
0d30
391c
e107
0100
ENDCHAR
STARTCHAR ch-161
ENCODING 161
SWIDTH 1000 0
DWIDTH 16 0
BBX 16 16 0 -2
BITMAP
2000
abfe
aa02
2202
22fa
fa02
2202
22fa
728a
6a8a
aa8a
a2fa
2202
2202
2202
220e
ENDCHAR
STARTCHAR ch-162
ENCODING 162
SWIDTH 1000 0
DWIDTH 16 0
BBX 16 16 0 -2
BITMAP
0100
6100
33fe
1642
0044
10e0
31b0
631c
c607
1110
0920
ffff
0540
0d60
3938
e10f
ENDCHAR
STARTCHAR ch-164
ENCODING 164
SWIDTH 1000 0
DWIDTH 16 0
BBX 16 16 0 -2
BITMAP
0100
0200
3ffc
2924
2544
2ff4
2384
2544
2924
3ffc
0000
ffff
0400
07f8
0008
0038
ENDCHAR
STARTCHAR ch-165
ENCODING 165
SWIDTH 1000 0
DWIDTH 16 0
BBX 16 16 0 -2
BITMAP
0000
f11e
1542
1542
1542
f11e
8ff0
8110
f39e
1382
1542
1542
1922
3106
2104
e01c
ENDCHAR
STARTCHAR ch-167
ENCODING 167
SWIDTH 1000 0
DWIDTH 16 0
BBX 16 16 0 -2
BITMAP
2020
a820
a820
abff
2200
fa10
2210
2210
72fe
6a10
a210
a210
2610
2410
2dff
2000
ENDCHAR
STARTCHAR ch-168
ENCODING 168
SWIDTH 1000 0
DWIDTH 16 0
BBX 16 16 0 -2
BITMAP
1000
93ff
d420
5460
1040
fdfe
1102
1102
3902
3502
55fe
5102
9102
1102
1102
11fe
ENDCHAR
STARTCHAR ch-171
ENCODING 171
SWIDTH 1000 0
DWIDTH 16 0
BBX 16 16 0 -2
BITMAP
1000
93ff
d420
5460
1040
fdfe
1152
1152
3952
3552
5552
5152
9152
1152
1152
1156
ENDCHAR
STARTCHAR ch-173
ENCODING 173
SWIDTH 1000 0
DWIDTH 16 0
BBX 16 16 0 -2
BITMAP
2020
a870
a850
20d8
218c
fb06
26fb
2000
7000
6800
a9fc
a104
2104
2104
2104
21fc
ENDCHAR
STARTCHAR ch-174
ENCODING 174
SWIDTH 1000 0
DWIDTH 16 0
BBX 16 16 0 -2
BITMAP
1020
9420
d5fc
5504
1104
fdfc
1104
1104
39fc
3521
5533
5116
9118
110c
11e6
1703
ENDCHAR
STARTCHAR ch-177
ENCODING 177
SWIDTH 1000 0
DWIDTH 16 0
BBX 16 16 0 -2
BITMAP
3000
1bf8
c048
624a
16cb
3489
6188
c338
1110
0920
ffff
0540
0d60
3938
e10f
0100
ENDCHAR
STARTCHAR ch-178
ENCODING 178
SWIDTH 1000 0
DWIDTH 16 0
BBX 16 16 0 -2
BITMAP
0800
0f00
287e
7f84
c148
2630
185c
e107
1110
0920
ffff
0540
0d60
3938
e10f
0100
ENDCHAR
STARTCHAR ch-179
ENCODING 179
SWIDTH 1000 0
DWIDTH 16 0
BBX 16 16 0 -2
BITMAP
1000
93ff
d420
55fe
1122
fd22
11fe
1122
3922
35fe
5420
50a0
9060
1070
10dc
1387
ENDCHAR
STARTCHAR ch-185
ENCODING 185
SWIDTH 1000 0
DWIDTH 16 0
BBX 16 16 0 -2
BITMAP
2020
a820
abfe
2000
2088
f888
21dc
2356
7000
6820
a7ff
a020
2020
2020
2020
2020
ENDCHAR
STARTCHAR ch-189
ENCODING 189
SWIDTH 1000 0
DWIDTH 16 0
BBX 16 16 0 -2
BITMAP
2020
a820
abfe
2202
2202
f9fc
2000
2000
73fe
6820
a924
a124
2326
2623
2020
20e0
ENDCHAR
STARTCHAR ch-190
ENCODING 190
SWIDTH 1000 0
DWIDTH 16 0
BBX 16 16 0 -2
BITMAP
1020
1420
97fe
d420
51fc
1020
ffff
1000
39fc
3504
55fc
5104
91fc
1104
1104
111c
ENDCHAR
STARTCHAR ch-192
ENCODING 192
SWIDTH 1000 0
DWIDTH 16 0
BBX 16 16 0 -2
BITMAP
2088
a888
abff
2088
2088
f850
20d0
2093
7196
6b9c
a690
a090
2090
2091
2093
208e
ENDCHAR
STARTCHAR ch-194
ENCODING 194
SWIDTH 1000 0
DWIDTH 16 0
BBX 16 16 0 -2
BITMAP
2084
a884
abff
2084
20fc
f884
20fc
3084
6884
67ff
a148
a148
218e
2100
2100
21ff
ENDCHAR
STARTCHAR ch-197
ENCODING 197
SWIDTH 1000 0
DWIDTH 16 0
BBX 16 16 0 -2
BITMAP
2000
a9fe
a804
2058
2020
fbff
2052
2094
7330
6820
a7ff
a0a8
21ac
2326
2623
2020
ENDCHAR
STARTCHAR ch-202
ENCODING 202
SWIDTH 1000 0
DWIDTH 16 0
BBX 16 16 0 -2
BITMAP
2100
a91f
a911
a911
27d1
211f
f911
2111
27d1
745f
6c51
a451
a451
2451
27d1
2023
ENDCHAR
STARTCHAR ch-206
ENCODING 206
SWIDTH 1000 0
DWIDTH 16 0
BBX 16 16 0 -2
BITMAP
2000
abff
aa00
aafe
2292
fa92
22fe
2292
7292
6afe
a210
a210
26fe
2410
2c10
21ff
ENDCHAR
STARTCHAR ch-210
ENCODING 210
SWIDTH 1000 0
DWIDTH 16 0
BBX 16 16 0 -2
BITMAP
2088
a888
abff
2088
2088
fbff
2200
22fe
7292
6afe
aa92
a292
22fe
2292
2492
2096
ENDCHAR
STARTCHAR ch-214
ENCODING 214
SWIDTH 1000 0
DWIDTH 16 0
BBX 16 16 0 -2
BITMAP
2020
a820
abff
aa10
22fe
fa12
23ff
2212
7212
6afe
a200
a2fe
2682
2482
2c82
20fe
ENDCHAR
STARTCHAR ch-216
ENCODING 216
SWIDTH 1000 0
DWIDTH 16 0
BBX 16 16 0 -2
BITMAP
2020
a820
abfe
2202
2000
f9fc
2040
20a2
7326
6854
a890
a338
2054
2096
2313
2060
ENDCHAR
STARTCHAR ch-220
ENCODING 220
SWIDTH 1000 0
DWIDTH 16 0
BBX 16 16 0 -2
BITMAP
0080
0080
7fff
4208
5fbf
460c
4b1a
52a9
4000
4444
4248
5fff
4150
4358
864c
1c47
ENDCHAR
STARTCHAR ch-222
ENCODING 222
SWIDTH 1000 0
DWIDTH 16 0
BBX 16 16 0 -2
BITMAP
2104
1108
ffff
0520
0910
3ffc
d10b
1ff8
1108
1ff8
0420
7ffe
0420
ffff
1008
6006
ENDCHAR
STARTCHAR ch-223
ENCODING 223
SWIDTH 1000 0
DWIDTH 16 0
BBX 16 16 0 -2
BITMAP
2048
a848
abff
a848
23ff
fa49
23ff
2249
73ff
6800
a9fe
a102
21fe
2102
2102
21fe
ENDCHAR
STARTCHAR ch-224
ENCODING 224
SWIDTH 1000 0
DWIDTH 16 0
BBX 16 16 0 -2
BITMAP
2010
2010
abff
aa10
aafe
2212
fbff
2212
22fe
7210
6a92
a254
a638
2454
2d93
2030
ENDCHAR
STARTCHAR ch-226
ENCODING 226
SWIDTH 1000 0
DWIDTH 16 0
BBX 16 16 0 -2
BITMAP
1048
9448
d7ff
5448
1048
fdfe
1102
11fe
3902
35fe
5420
53ff
9048
10cc
1186
1303
ENDCHAR
STARTCHAR ch-231
ENCODING 231
SWIDTH 1000 0
DWIDTH 16 0
BBX 16 16 0 -2
BITMAP
21fc
a904
a9fc
a904
27ff
f800
21fc
2124
71fc
6924
a924
a1fc
2020
23fe
2020
27ff
ENDCHAR
STARTCHAR ch-239
ENCODING 239
SWIDTH 1000 0
DWIDTH 16 0
BBX 16 16 0 -2
BITMAP
2000
abfe
a820
27ff
2421
fdad
2421
31ac
6800
67ff
a040
a3fe
2292
2292
2292
2296
ENDCHAR
STARTCHAR ch-242
ENCODING 242
SWIDTH 1000 0
DWIDTH 16 0
BBX 16 16 0 -2
BITMAP
2000
abff
aa44
23ff
2244
fafe
2292
22fe
7292
6afe
aa10
a2ff
2295
229d
24b5
2083
ENDCHAR
STARTCHAR ch-244
ENCODING 244
SWIDTH 1000 0
DWIDTH 16 0
BBX 16 16 0 -2
BITMAP
0000
71ef
1021
11ef
3821
6def
c624
1048
54ff
1190
fefe
1090
38fe
5490
9290
10ff
ENDCHAR
STARTCHAR ch-246
ENCODING 246
SWIDTH 1000 0
DWIDTH 16 0
BBX 16 16 0 -2
BITMAP
1000
55ef
7c21
11ef
5421
55ef
7c24
0048
54ff
1190
fefe
1090
38fe
5490
9290
10ff
ENDCHAR
STARTCHAR ch-248
ENCODING 248
SWIDTH 1000 0
DWIDTH 16 0
BBX 16 16 0 -2
BITMAP
0100
0300
0610
0c30
3060
18c4
0d86
0302
ffff
0101
0100
1108
310c
6106
c103
0100
ENDCHAR
STARTCHAR ch-250
ENCODING 250
SWIDTH 1000 0
DWIDTH 16 0
BBX 16 16 0 -2
BITMAP
1040
3040
6040
c440
6c40
1840
3040
6440
fe40
1240
1040
5440
5640
d241
9063
103e
ENDCHAR
STARTCHAR ch-251
ENCODING 251
SWIDTH 1000 0
DWIDTH 16 0
BBX 16 16 0 -2
BITMAP
000c
00f8
7f80
0200
0620
0c60
18c0
0d8c
0306
ffff
0101
0910
1918
310c
e107
0100
ENDCHAR
STARTCHAR ch-254
ENCODING 254
SWIDTH 1000 0
DWIDTH 16 0
BBX 16 16 0 -2
BITMAP
1004
3044
6044
c444
6c44
1844
3044
6444
fe44
1247
107c
55c4
5604
d204
9004
1004
ENDCHAR
STARTCHAR ch-256
ENCODING 256
SWIDTH 1000 0
DWIDTH 16 0
BBX 16 16 0 -2
BITMAP
1000
30fe
6002
c402
6c02
1802
30fe
6480
fe80
1280
1080
5480
5681
d2c3
907e
1000
ENDCHAR
STARTCHAR ch-258
ENCODING 258
SWIDTH 1000 0
DWIDTH 16 0
BBX 16 16 0 -2
BITMAP
1004
3004
6004
c404
6cff
1804
3004
6444
fe64
1224
1004
5404
5604
d204
9004
101c
ENDCHAR
STARTCHAR ch-260
ENCODING 260
SWIDTH 1000 0
DWIDTH 16 0
BBX 16 16 0 -2
BITMAP
1040
3040
6040
c4fe
6c82
1982
3002
6462
fe32
1212
1002
5402
5602
d206
9004
101c
ENDCHAR
STARTCHAR ch-261
ENCODING 261
SWIDTH 1000 0
DWIDTH 16 0
BBX 16 16 0 -2
BITMAP
1000
3000
60fe
c410
6c10
1810
3010
6410
fe10
1210
1010
5410
5610
d210
91ff
1000
ENDCHAR
STARTCHAR ch-262
ENCODING 262
SWIDTH 1000 0
DWIDTH 16 0
BBX 16 16 0 -2
BITMAP
1000
30fe
6010
c410
6c10
1810
3010
65ff
fe10
1210
1010
5410
5610
d210
9010
1070
ENDCHAR
STARTCHAR ch-266
ENCODING 266
SWIDTH 1000 0
DWIDTH 16 0
BBX 16 16 0 -2
BITMAP
0100
0100
ffff
0810
0660
03c0
1e78
f10f
0620
18c0
0502
ffff
0101
0910
391c
e107
ENDCHAR
STARTCHAR ch-267
ENCODING 267
SWIDTH 1000 0
DWIDTH 16 0
BBX 16 16 0 -2
BITMAP
1010
3010
6010
c5ff
6c44
1844
3044
646c
fe28
1238
1010
5438
5628
d26c
90c6
1183
ENDCHAR
STARTCHAR ch-269
ENCODING 269
SWIDTH 1000 0
DWIDTH 16 0
BBX 16 16 0 -2
BITMAP
1010
3010
6010
c5ff
6d11
1911
3139
6529
fd29
156d
1145
5901
5501
d501
9101
1107
ENDCHAR
STARTCHAR ch-272
ENCODING 272
SWIDTH 1000 0
DWIDTH 16 0
BBX 16 16 0 -2
BITMAP
1000
31fc
6044
c444
6c44
1844
3044
65ff
fe44
1244
1044
5444
5644
d244
91ff
1000
ENDCHAR
STARTCHAR ch-276
ENCODING 276
SWIDTH 1000 0
DWIDTH 16 0
BBX 16 16 0 -2
BITMAP
1010
3013
601e
c5f0
6c10
1892
3092
6492
fe92
1292
10fe
5410
5610
d211
9013
100e
ENDCHAR
STARTCHAR ch-277
ENCODING 277
SWIDTH 1000 0
DWIDTH 16 0
BBX 16 16 0 -2
BITMAP
1110
3110
6110
c512
6d16
19dc
3110
6510
fd10
1510
1110
5510
5510
d511
91d3
130e
ENDCHAR
STARTCHAR ch-279
ENCODING 279
SWIDTH 1000 0
DWIDTH 16 0
BBX 16 16 0 -2
BITMAP
1010
3010
6010
c454
6c56
18d3
3190
6412
fe12
1276
1004
540c
5618
d230
9060
11c0
ENDCHAR
STARTCHAR ch-280
ENCODING 280
SWIDTH 1000 0
DWIDTH 16 0
BBX 16 16 0 -2
BITMAP
1020
3020
6020
c5ff
6c20
1820
3020
6468
fe48
1258
10d0
5492
55b2
d022
907f
10c1
ENDCHAR
STARTCHAR ch-281
ENCODING 281
SWIDTH 1000 0
DWIDTH 16 0
BBX 16 16 0 -2
BITMAP
1002
300e
60f8
c488
6c88
1888
3088
64ff
fe88
1288
1088
548c
5684
d285
90e7
1382
ENDCHAR
STARTCHAR ch-282
ENCODING 282
SWIDTH 1000 0
DWIDTH 16 0
BBX 16 16 0 -2
BITMAP
1000
31fc
6044
c44c
6c48
185e
3042
64e2
fea6
12b4
109c
5988
551c
d334
9066
10c3
ENDCHAR
STARTCHAR ch-283
ENCODING 283
SWIDTH 1000 0
DWIDTH 16 0
BBX 16 16 0 -2
BITMAP
1048
3048
6048
c4cc
6c84
1986
3303
64fc
fe24
1224
1024
5464
5444
d4cc
9188
1338
ENDCHAR
STARTCHAR ch-284
ENCODING 284
SWIDTH 1000 0
DWIDTH 16 0
BBX 16 16 0 -2
BITMAP
1000
30fe
6000
c400
6c00
1800
31ff
6420
fe20
1220
1064
5444
5646
d242
905e
10f3
ENDCHAR
STARTCHAR ch-288
ENCODING 288
SWIDTH 1000 0
DWIDTH 16 0
BBX 16 16 0 -2
BITMAP
0100
7ffe
0100
3ffc
0100
ffff
0100
0610
1860
0584
7ffe
0102
0910
391c
e107
0100
ENDCHAR
STARTCHAR ch-289
ENCODING 289
SWIDTH 1000 0
DWIDTH 16 0
BBX 16 16 0 -2
BITMAP
1010
3010
6010
c5ff
6c20
1820
3020
643e
fe22
1222
1022
5462
5646
d244
90c4
119c
ENDCHAR
STARTCHAR ch-290
ENCODING 290
SWIDTH 1000 0
DWIDTH 16 0
BBX 16 16 0 -2
BITMAP
0100
0100
ffff
0100
0100
7ffe
4202
4442
1c88
0304
7ffe
0102
0910
391c
e107
0100
ENDCHAR
STARTCHAR ch-299
ENCODING 299
SWIDTH 1000 0
DWIDTH 16 0
BBX 16 16 0 -2
BITMAP
0840
4846
4f7c
4840
4841
4f63
783e
c100
0610
1860
0582
ffff
0101
0910
391c
e107
ENDCHAR
STARTCHAR ch-300
ENCODING 300
SWIDTH 1000 0
DWIDTH 16 0
BBX 16 16 0 -2
BITMAP
1010
3010
6010
c410
6dff
1911
3111
6511
fd11
15ff
1111
5511
5511
d511
91ff
1000
ENDCHAR
STARTCHAR ch-302
ENCODING 302
SWIDTH 1000 0
DWIDTH 16 0
BBX 16 16 0 -2
BITMAP
0820
0820
ff20
2820
2c20
6a21
c833
091e
0620
18c0
0502
ffff
0101
0910
391c
e107
ENDCHAR
STARTCHAR ch-303
ENCODING 303
SWIDTH 1000 0
DWIDTH 16 0
BBX 16 16 0 -2
BITMAP
0000
3ffc
2104
3ffc
2104
2104
3ffc
0220
0c42
0282
ffff
0101
0910
391c
e107
0100
ENDCHAR
STARTCHAR ch-304
ENCODING 304
SWIDTH 1000 0
DWIDTH 16 0
BBX 16 16 0 -2
BITMAP
1000
30fe
6092
c492
6c92
1892
3092
64fe
fe92
1292
1092
5492
5692
d292
90fe
1000
ENDCHAR
STARTCHAR ch-306
ENCODING 306
SWIDTH 1000 0
DWIDTH 16 0
BBX 16 16 0 -2
BITMAP
1094
3094
6094
c494
6dff
1894
3094
6494
fe94
1294
109c
5480
5680
d280
90ff
1000
ENDCHAR
STARTCHAR ch-307
ENCODING 307
SWIDTH 1000 0
DWIDTH 16 0
BBX 16 16 0 -2
BITMAP
1010
3010
6010
c4ff
6c91
1891
3091
64ff
fe91
1291
1091
54ff
5610
d210
9010
1010
ENDCHAR
STARTCHAR ch-309
ENCODING 309
SWIDTH 1000 0
DWIDTH 16 0
BBX 16 16 0 -2
BITMAP
1010
3010
61ff
c501
6d01
1800
31ff
6410
fe10
1210
1010
5410
5610
d210
9010
1070
ENDCHAR
STARTCHAR ch-313
ENCODING 313
SWIDTH 1000 0
DWIDTH 16 0
BBX 16 16 0 -2
BITMAP
1000
31fe
6022
c422
6c62
1846
30c4
659c
fe00
12fe
1082
5482
5682
d282
9082
10fe
ENDCHAR
STARTCHAR ch-314
ENCODING 314
SWIDTH 1000 0
DWIDTH 16 0
BBX 16 16 0 -2
BITMAP
1044
3044
6044
c5ff
6c44
1844
3044
6444
fe44
127c
1044
5444
5644
d244
9044
107c
ENDCHAR
STARTCHAR ch-319
ENCODING 319
SWIDTH 1000 0
DWIDTH 16 0
BBX 16 16 0 -2
BITMAP
1020
3020
6060
c442
6cc2
189f
31f1
6400
fe00
12fe
1082
5482
5682
d282
9082
10fe
ENDCHAR
STARTCHAR ch-322
ENCODING 322
SWIDTH 1000 0
DWIDTH 16 0
BBX 16 16 0 -2
BITMAP
1040
3040
60fc
c484
6d8c
1b58
3030
6478
fccc
1387
1070
5418
5600
d2e0
9038
100c
ENDCHAR
STARTCHAR ch-323
ENCODING 323
SWIDTH 1000 0
DWIDTH 16 0
BBX 16 16 0 -2
BITMAP
1010
3010
6010
c5ff
6c10
1830
3060
64c4
fe6c
1238
1010
5430
5662
d242
90df
11f1
ENDCHAR
STARTCHAR ch-324
ENCODING 324
SWIDTH 1000 0
DWIDTH 16 0
BBX 16 16 0 -2
BITMAP
1000
30fc
6084
c484
6c84
18fc
3084
6484
fe84
12fc
1084
5484
5484
d484
93ff
1000
ENDCHAR
STARTCHAR ch-325
ENCODING 325
SWIDTH 1000 0
DWIDTH 16 0
BBX 16 16 0 -2
BITMAP
1000
31fe
6102
c502
6d02
197a
314a
654a
fd4a
154a
117a
5502
5502
d502
9102
110e
ENDCHAR
STARTCHAR ch-326
ENCODING 326
SWIDTH 1000 0
DWIDTH 16 0
BBX 16 16 0 -2
BITMAP
1010
3092
60d6
c454
6c10
18fe
3010
6410
fc10
15ff
1010
5410
5610
d210
9010
1010
ENDCHAR
STARTCHAR ch-331
ENCODING 331
SWIDTH 1000 0
DWIDTH 16 0
BBX 16 16 0 -2
BITMAP
1010
3010
6010
c5ff
6d00
1900
3110
6510
fd10
1530
1120
5524
5566
d542
925f
10f1
ENDCHAR
STARTCHAR ch-332
ENCODING 332
SWIDTH 1000 0
DWIDTH 16 0
BBX 16 16 0 -2
BITMAP
1000
31fe
6082
c4c6
6c6c
1838
306c
65c7
fe10
1210
10fe
5410
5410
d410
91ff
1000
ENDCHAR
STARTCHAR ch-334
ENCODING 334
SWIDTH 1000 0
DWIDTH 16 0
BBX 16 16 0 -2
BITMAP
1040
30de
2080
c980
5b00
3040
20ff
4884
f984
2b84
2084
a884
a884
a884
2084
209c
ENDCHAR
STARTCHAR ch-335
ENCODING 335
SWIDTH 1000 0
DWIDTH 16 0
BBX 16 16 0 -2
BITMAP
1020
3020
61fe
c522
6d22
19fe
3122
6522
fdfe
1421
1033
5416
561c
d239
90ed
1387
ENDCHAR
STARTCHAR ch-336
ENCODING 336
SWIDTH 1000 0
DWIDTH 16 0
BBX 16 16 0 -2
BITMAP
1010
3010
6010
c5ff
6c10
1810
3010
64fe
fe00
1200
10fe
5482
5682
d282
9082
10fe
ENDCHAR
STARTCHAR ch-342
ENCODING 342
SWIDTH 1000 0
DWIDTH 16 0
BBX 16 16 0 -2
BITMAP
1020
3122
61a6
c4a4
6ca4
1820
3020
65ff
fe48
1248
1048
5448
5648
d2c9
9089
1187
ENDCHAR
STARTCHAR ch-347
ENCODING 347
SWIDTH 1000 0
DWIDTH 16 0
BBX 16 16 0 -2
BITMAP
0880
0880
19ff
1308
30d8
2870
69dc
af07
2840
2990
28a2
2bff
2821
28a8
21ac
2727
ENDCHAR
STARTCHAR ch-350
ENCODING 350
SWIDTH 1000 0
DWIDTH 16 0
BBX 16 16 0 -2
BITMAP
1010
3010
6010
c5ff
6c44
18c6
3183
6444
fe44
126c
1038
5410
5638
d26c
90c6
1183
ENDCHAR
STARTCHAR ch-353
ENCODING 353
SWIDTH 1000 0
DWIDTH 16 0
BBX 16 16 0 -2
BITMAP
1020
3020
607e
c4c6
6dac
1818
3030
646c
fdc7
1400
10fe
5482
5682
d282
9082
10fe
ENDCHAR
STARTCHAR ch-354
ENCODING 354
SWIDTH 1000 0
DWIDTH 16 0
BBX 16 16 0 -2
BITMAP
1040
3040
60ff
c481
6d81
1879
3049
6449
fe79
1249
1049
5479
5601
d203
9002
100e
ENDCHAR
STARTCHAR ch-355
ENCODING 355
SWIDTH 1000 0
DWIDTH 16 0
BBX 16 16 0 -2
BITMAP
1082
30c6
6044
c5ff
6c44
1844
3044
6444
fdff
1444
1044
5444
5644
d2c4
9084
1184
ENDCHAR
STARTCHAR ch-358
ENCODING 358
SWIDTH 1000 0
DWIDTH 16 0
BBX 16 16 0 -2
BITMAP
1010
3038
6028
c46c
6cc6
1983
3000
647c
fe00
1200
10fe
5482
5682
d282
9082
10fe
ENDCHAR
STARTCHAR ch-360
ENCODING 360
SWIDTH 1000 0
DWIDTH 16 0
BBX 16 16 0 -2
BITMAP
100a
300b
6009
c408
6dff
1808
3048
6448
fdf9
144b
104a
54ce
5484
d58d
9317
1062
ENDCHAR
STARTCHAR ch-366
ENCODING 366
SWIDTH 1000 0
DWIDTH 16 0
BBX 16 16 0 -2
BITMAP
1000
107e
ff42
2142
4342
7642
0c7e
3a80
e110
0620
0142
ffff
0101
0910
391c
e107
ENDCHAR
STARTCHAR ch-369
ENCODING 369
SWIDTH 1000 0
DWIDTH 16 0
BBX 16 16 0 -2
BITMAP
1020
3020
63ff
c440
6cc4
1884
31fe
644b
fe48
1248
1048
5448
56c8
d289
9189
1307
ENDCHAR
STARTCHAR ch-370
ENCODING 370
SWIDTH 1000 0
DWIDTH 16 0
BBX 16 16 0 -2
BITMAP
1010
3030
6060
c4c2
6c66
182c
3018
6432
feff
1211
1010
5452
5652
d2d3
9091
1010
ENDCHAR
STARTCHAR ch-371
ENCODING 371
SWIDTH 1000 0
DWIDTH 16 0
BBX 16 16 0 -2
BITMAP
1040
3040
60fe
c582
6c44
1838
306c
65c7
fe08
12fe
1048
5448
55ff
d408
9008
1008
ENDCHAR
STARTCHAR ch-373
ENCODING 373
SWIDTH 1000 0
DWIDTH 16 0
BBX 16 16 0 -2
BITMAP
1020
3070
6058
c4cc
6d86
1b03
30fc
6400
fc00
15fe
1040
5440
54c4
d484
90be
11e2
ENDCHAR
STARTCHAR ch-374
ENCODING 374
SWIDTH 1000 0
DWIDTH 16 0
BBX 16 16 0 -2
BITMAP
1040
307c
6044
c4cc
6d88
18fe
3092
6492
fe92
12fe
1080
5480
5680
d281
90c3
107e
ENDCHAR
STARTCHAR ch-377
ENCODING 377
SWIDTH 1000 0
DWIDTH 16 0
BBX 16 16 0 -2
BITMAP
1000
30fe
6082
c482
6cfe
1800
30fe
6482
fe82
12fe
1082
5482
56fe
d282
9082
108e
ENDCHAR
STARTCHAR ch-381
ENCODING 381
SWIDTH 1000 0
DWIDTH 16 0
BBX 16 16 0 -2
BITMAP
1000
30fe
6082
c482
6c82
1882
30fe
6410
fe30
1220
10fe
5482
5682
d282
9082
10fe
ENDCHAR
STARTCHAR ch-393
ENCODING 393
SWIDTH 1000 0
DWIDTH 16 0
BBX 16 16 0 -2
BITMAP
1006
301c
60f0
c410
6dff
1854
30d6
6593
fe00
12fc
1024
5427
5661
d241
90c1
1187
ENDCHAR
STARTCHAR ch-399
ENCODING 399
SWIDTH 1000 0
DWIDTH 16 0
BBX 16 16 0 -2
BITMAP
1006
301c
61f0
c421
6d33
1996
30a4
6420
fdff
1444
10c4
548c
55e8
d43c
9066
11c3
ENDCHAR
STARTCHAR ch-403
ENCODING 403
SWIDTH 1000 0
DWIDTH 16 0
BBX 16 16 0 -2
BITMAP
1000
33fe
2000
c924
5924
3248
2248
4924
f924
2800
23fe
a820
a820
a020
27ff
2000
ENDCHAR
STARTCHAR ch-409
ENCODING 409
SWIDTH 1000 0
DWIDTH 16 0
BBX 16 16 0 -2
BITMAP
1108
3149
612a
c52a
6d08
197f
3108
651c
fd1c
152a
112a
5549
5508
d500
91ff
1000
ENDCHAR
STARTCHAR ch-410
ENCODING 410
SWIDTH 1000 0
DWIDTH 16 0
BBX 16 16 0 -2
BITMAP
1010
3010
61ff
c410
6c10
18fe
3000
65ff
fd01
1549
1048
5448
5648
d2c9
9089
1187
ENDCHAR
STARTCHAR ch-411
ENCODING 411
SWIDTH 1000 0
DWIDTH 16 0
BBX 16 16 0 -2
BITMAP
1000
31fe
6012
c4d2
6c72
1822
3076
64d4
fd8c
1400
1010
5458
554a
d543
9345
123c
ENDCHAR
STARTCHAR ch-412
ENCODING 412
SWIDTH 1000 0
DWIDTH 16 0
BBX 16 16 0 -2
BITMAP
1010
3010
61ff
c501
6d01
18fe
3000
6400
fdff
1410
1010
5492
5492
d593
9111
1070
ENDCHAR
STARTCHAR ch-415
ENCODING 415
SWIDTH 1000 0
DWIDTH 16 0
BBX 16 16 0 -2
BITMAP
1000
33ff
2000
c9fe
5902
3102
21fe
4910
f910
29ff
2110
a938
ab28
aa6c
26c6
2183
ENDCHAR
STARTCHAR ch-418
ENCODING 418
SWIDTH 1000 0
DWIDTH 16 0
BBX 16 16 0 -2
BITMAP
1000
31ff
6101
c511
6d7d
1911
3111
657d
fd01
157d
1145
5545
557d
d501
9101
1207
ENDCHAR
STARTCHAR ch-419
ENCODING 419
SWIDTH 1000 0
DWIDTH 16 0
BBX 16 16 0 -2
BITMAP
1122
31a6
60a4
c5fe
6c50
1850
33ff
6488
fc84
15fe
130b
5408
54f8
d482
9086
107c
ENDCHAR
STARTCHAR ch-427
ENCODING 427
SWIDTH 1000 0
DWIDTH 16 0
BBX 16 16 0 -2
BITMAP
1048
3044
607e
c5e0
6c36
1818
306d
6587
fe08
1244
107e
55e0
5636
d218
906d
1187
ENDCHAR
STARTCHAR ch-428
ENCODING 428
SWIDTH 1000 0
DWIDTH 16 0
BBX 16 16 0 -2
BITMAP
1006
301c
61f1
c492
6c4a
19ff
3101
6501
fefe
1242
1066
542c
5638
d26c
90c6
1183
ENDCHAR
STARTCHAR ch-429
ENCODING 429
SWIDTH 1000 0
DWIDTH 16 0
BBX 16 16 0 -2
BITMAP
1040
3044
60cc
c488
6dff
1a88
3088
64fe
fe88
1288
1088
54fe
5688
d288
9088
10ff
ENDCHAR
STARTCHAR ch-430
ENCODING 430
SWIDTH 1000 0
DWIDTH 16 0
BBX 16 16 0 -2
BITMAP
0020
7f20
007f
3ec4
222c
2228
3e1c
6036
4063
c100
0a20
0442
ffff
0101
1918
710e
ENDCHAR
STARTCHAR ch-431
ENCODING 431
SWIDTH 1000 0
DWIDTH 16 0
BBX 16 16 0 -2
BITMAP
1080
3080
61ff
c501
6f41
1879
30a1
6421
fdfd
1421
10a9
54a9
56a9
d2fb
9002
100e
ENDCHAR
STARTCHAR ch-432
ENCODING 432
SWIDTH 1000 0
DWIDTH 16 0
BBX 16 16 0 -2
BITMAP
1010
3010
61ff
c501
6d01
187c
3044
6444
fe7c
1240
1040
547e
5642
d242
9042
107e
ENDCHAR
STARTCHAR ch-433
ENCODING 433
SWIDTH 1000 0
DWIDTH 16 0
BBX 16 16 0 -2
BITMAP
1000
31ff
6101
c545
6d29
1901
317d
6511
fd11
1555
1155
5555
557d
d501
9101
1107
ENDCHAR
STARTCHAR ch-434
ENCODING 434
SWIDTH 1000 0
DWIDTH 16 0
BBX 16 16 0 -2
BITMAP
1000
31ff
6101
c545
6d29
19ff
3111
6511
fdff
1521
1121
5521
553d
d501
9101
1107
ENDCHAR
STARTCHAR ch-436
ENCODING 436
SWIDTH 1000 0
DWIDTH 16 0
BBX 16 16 0 -2
BITMAP
1000
33de
2042
cb5a
5884
314a
2211
4800
fbde
2842
2242
a994
a894
a948
2254
2423
ENDCHAR
STARTCHAR ch-437
ENCODING 437
SWIDTH 1000 0
DWIDTH 16 0
BBX 16 16 0 -2
BITMAP
1006
301c
61f0
c421
6d33
1992
3080
6410
fc10
15ff
1054
5454
54d6
d492
9193
1010
ENDCHAR
STARTCHAR ch-440
ENCODING 440
SWIDTH 1000 0
DWIDTH 16 0
BBX 16 16 0 -2
BITMAP
1020
3070
60d8
c58c
6f07
18f8
3000
6400
fdfe
1552
1152
55fe
5552
d552
9152
1156
ENDCHAR
STARTCHAR ch-442
ENCODING 442
SWIDTH 1000 0
DWIDTH 16 0
BBX 16 16 0 -2
BITMAP
1010
3010
60fe
c428
6c6c
18c6
3000
65ff
fe02
12f2
1092
5492
5692
d2f2
9002
100e
ENDCHAR
STARTCHAR ch-443
ENCODING 443
SWIDTH 1000 0
DWIDTH 16 0
BBX 16 16 0 -2
BITMAP
1010
3010
61ff
c501
6d01
18fe
3010
6410
fe90
129e
1090
5490
5490
d4d0
91b0
131f
ENDCHAR
STARTCHAR ch-445
ENCODING 445
SWIDTH 1000 0
DWIDTH 16 0
BBX 16 16 0 -2
BITMAP
1010
3010
601f
c410
6cfe
1882
3082
64fe
fe82
1282
10fe
5410
57ff
d210
9010
1010
ENDCHAR
STARTCHAR ch-446
ENCODING 446
SWIDTH 1000 0
DWIDTH 16 0
BBX 16 16 0 -2
BITMAP
1020
3020
61fe
c420
6fff
1848
30c8
658f
fe40
127c
10c4
558c
5658
d230
90ec
1387
ENDCHAR
STARTCHAR ch-447
ENCODING 447
SWIDTH 1000 0
DWIDTH 16 0
BBX 16 16 0 -2
BITMAP
1010
3020
60fe
c482
6cfe
1882
3082
64fe
fc10
15ff
1111
5511
5511
d517
9010
1010
ENDCHAR
STARTCHAR ch-455
ENCODING 455
SWIDTH 1000 0
DWIDTH 16 0
BBX 16 16 0 -2
BITMAP
1092
3092
6124
c524
6c92
1892
3000
64fe
fe92
1292
1092
54fe
5692
d292
9092
10fe
ENDCHAR
STARTCHAR ch-458
ENCODING 458
SWIDTH 1000 0
DWIDTH 16 0
BBX 16 16 0 -2
BITMAP
0000
7f7e
4802
7e26
4214
7e08
4814
7f63
0100
0a20
0444
7ffe
0102
0910
391c
e107
ENDCHAR
STARTCHAR ch-459
ENCODING 459
SWIDTH 1000 0
DWIDTH 16 0
BBX 16 16 0 -2
BITMAP
1048
3048
6048
c5cf
6c48
1848
3048
65cf
fc48
1448
10c8
554f
5448
d4c8
9088
1188
ENDCHAR
STARTCHAR ch-463
ENCODING 463
SWIDTH 1000 0
DWIDTH 16 0
BBX 16 16 0 -2
BITMAP
1044
3044
60c6
c5a3
6c20
1864
3044
647e
fdc3
1410
1018
5428
54a2
d4a3
91a5
111c
ENDCHAR
STARTCHAR ch-465
ENCODING 465
SWIDTH 1000 0
DWIDTH 16 0
BBX 16 16 0 -2
BITMAP
1000
30fc
6004
c4fc
6c04
1804
31ff
6410
fd92
14d6
1014
5438
545c
d4d6
9193
1030
ENDCHAR
STARTCHAR ch-466
ENCODING 466
SWIDTH 1000 0
DWIDTH 16 0
BBX 16 16 0 -2
BITMAP
1020
3022
60fe
c424
6c24
1828
31ff
6410
fc20
147e
11c2
5442
567e
d242
9042
107e
ENDCHAR
STARTCHAR ch-469
ENCODING 469
SWIDTH 1000 0
DWIDTH 16 0
BBX 16 16 0 -2
BITMAP
1020
3020
63ff
c484
6ccc
1878
30cc
6787
fc84
14fc
1084
54fc
5484
d584
9104
1304
ENDCHAR
STARTCHAR ch-472
ENCODING 472
SWIDTH 1000 0
DWIDTH 16 0
BBX 16 16 0 -2
BITMAP
100a
3009
2008
cbff
5a08
32e8
2209
4ae9
faab
2aaa
22ae
aae4
aa05
aa0d
2217
2462
ENDCHAR
STARTCHAR ch-474
ENCODING 474
SWIDTH 1000 0
DWIDTH 16 0
BBX 16 16 0 -2
BITMAP
1010
3020
60fe
c482
6cfe
1882
3082
64fe
fc11
15d3
105a
545c
54d4
d496
9193
1030
ENDCHAR
STARTCHAR ch-476
ENCODING 476
SWIDTH 1000 0
DWIDTH 16 0
BBX 16 16 0 -2
BITMAP
0807
107c
7e10
4230
4264
7e2c
4218
4232
7e7f
1009
ff08
912a
912a
916b
9349
1008
ENDCHAR
STARTCHAR ch-477
ENCODING 477
SWIDTH 1000 0
DWIDTH 16 0
BBX 16 16 0 -2
BITMAP
1000
30fc
6084
c484
6cfc
1800
33ff
6484
fefc
1284
10fc
5484
5487
d4fc
9384
1004
ENDCHAR
STARTCHAR ch-478
ENCODING 478
SWIDTH 1000 0
DWIDTH 16 0
BBX 16 16 0 -2
BITMAP
10c0
33bc
2224
ca24
5ba4
3247
2200
4b80
fa7e
2a22
2236
ab9c
ae08
aa1c
2236
2263
ENDCHAR
STARTCHAR ch-480
ENCODING 480
SWIDTH 1000 0
DWIDTH 16 0
BBX 16 16 0 -2
BITMAP
1010
3010
61ff
c444
6c6c
1828
31ff
6511
fd11
14fe
1092
5492
5692
d296
9010
1010
ENDCHAR
STARTCHAR ch-481
ENCODING 481
SWIDTH 1000 0
DWIDTH 16 0
BBX 16 16 0 -2
BITMAP
1000
30fe
6082
c4fe
6c88
18ff
3088
648d
fce7
1582
1000
54fe
5682
d2fe
9082
10fe
ENDCHAR
STARTCHAR ch-484
ENCODING 484
SWIDTH 1000 0
DWIDTH 16 0
BBX 16 16 0 -2
BITMAP
1124
3124
27ff
c924
5924
313c
2100
49fe
f820
2fff
20a8
a8a8
a9ac
a926
2323
2020
ENDCHAR
STARTCHAR ch-488
ENCODING 488
SWIDTH 1000 0
DWIDTH 16 0
BBX 16 16 0 -2
BITMAP
1000
31ff
6000
c4fe
6c82
1882
30fe
6480
fefe
12aa
10aa
55fe
55aa
d2aa
90aa
1086
ENDCHAR
STARTCHAR ch-489
ENCODING 489
SWIDTH 1000 0
DWIDTH 16 0
BBX 16 16 0 -2
BITMAP
1006
303c
23e2
c926
5894
33ff
2040
4bff
fc40
147c
1044
58ec
55a8
d038
906c
11c7
ENDCHAR
STARTCHAR ch-492
ENCODING 492
SWIDTH 1000 0
DWIDTH 16 0
BBX 16 16 0 -2
BITMAP
1000
33ff
6020
c440
6dfe
194a
314a
657a
fd4a
154a
117a
554a
554a
d54a
91fe
1000
ENDCHAR
STARTCHAR ch-495
ENCODING 495
SWIDTH 1000 0
DWIDTH 16 0
BBX 16 16 0 -2
BITMAP
1020
30fc
6044
c444
6dff
1800
30fe
6482
fefe
1208
10fe
5448
5448
d5ff
9008
1008
ENDCHAR
STARTCHAR ch-498
ENCODING 498
SWIDTH 1000 0
DWIDTH 16 0
BBX 16 16 0 -2
BITMAP
1008
3388
2288
caaa
5baa
32ab
22c9
4a88
fb8a
2a9a
2286
aa84
ab8c
a818
2030
2060
ENDCHAR
STARTCHAR ch-500
ENCODING 500
SWIDTH 1000 0
DWIDTH 16 0
BBX 16 16 0 -2
BITMAP
1010
3010
61ff
c410
6cfe
1892
30fe
6492
fe92
12fe
1054
5454
56d6
d292
9193
1010
ENDCHAR
STARTCHAR ch-507
ENCODING 507
SWIDTH 1000 0
DWIDTH 16 0
BBX 16 16 0 -2
BITMAP
1010
37d0
2210
ca1f
5ab2
32a2
27d6
4854
f914
291c
2388
a908
a91c
a9d4
2736
2063
ENDCHAR
ENDFONT
