STARTFONT 2.1
FONT jis.hiragana.16
SIZE 16 72 72
FONTBOUNDINGBOX 16 16 0 -2
STARTPROPERTIES 4
FONT_DESCENT 2
FONT_ASCENT 14
DEFAULT_CHAR 0
COPYRIGHT "Copyright (c) 1992 AT&T - All rights reserved."
ENDPROPERTIES
CHARS 87
STARTCHAR ch-0
ENCODING 0
SWIDTH 1000 0
DWIDTH 16 0
BBX 16 16 0 -2
BITMAP
0000
0000
0000
0000
0100
0100
1ff8
0240
03f0
0658
0a4c
1284
1284
110c
0e18
0060
ENDCHAR
STARTCHAR ch-1
ENCODING 1
SWIDTH 1000 0
DWIDTH 16 0
BBX 16 16 0 -2
BITMAP
0200
0200
3ff8
0400
0440
07f0
1c5c
3444
2446
6482
4482
4506
4604
381c
0070
0000
ENDCHAR
STARTCHAR ch-2
ENCODING 2
SWIDTH 1000 0
DWIDTH 16 0
BBX 16 16 0 -2
BITMAP
0000
0000
0000
0000
0000
0000
1000
1030
1018
1008
100c
1804
0a04
0e00
0400
0000
ENDCHAR
STARTCHAR ch-3
ENCODING 3
SWIDTH 1000 0
DWIDTH 16 0
BBX 16 16 0 -2
BITMAP
0000
0000
2000
2010
2018
200c
2004
2006
2002
2002
3202
1600
1c00
0800
0000
0000
ENDCHAR
STARTCHAR ch-4
ENCODING 4
SWIDTH 1000 0
DWIDTH 16 0
BBX 16 16 0 -2
BITMAP
0000
0000
0000
0000
0600
0380
00e0
0000
0fe0
0010
0010
0010
0030
0060
01c0
0700
ENDCHAR
STARTCHAR ch-5
ENCODING 5
SWIDTH 1000 0
DWIDTH 16 0
BBX 16 16 0 -2
BITMAP
0600
0380
00e0
0000
0000
1ff0
0018
0008
0008
0008
0018
0030
0060
01c0
0f00
0000
ENDCHAR
STARTCHAR ch-6
ENCODING 6
SWIDTH 1000 0
DWIDTH 16 0
BBX 16 16 0 -2
BITMAP
0000
0000
0000
0000
0600
0380
00e0
0000
0fe0
0040
0080
0100
0780
0c80
1880
0078
ENDCHAR
STARTCHAR ch-7
ENCODING 7
SWIDTH 1000 0
DWIDTH 16 0
BBX 16 16 0 -2
BITMAP
0600
0380
00e0
0000
1ff0
0020
0040
0080
0100
03c0
0640
0c40
1840
3060
003e
0000
ENDCHAR
STARTCHAR ch-8
ENCODING 8
SWIDTH 1000 0
DWIDTH 16 0
BBX 16 16 0 -2
BITMAP
0000
0000
0000
0000
0200
0210
03d8
1e08
0200
03e0
0610
0a08
1208
1218
0c70
0000
ENDCHAR
STARTCHAR ch-9
ENCODING 9
SWIDTH 1000 0
DWIDTH 16 0
BBX 16 16 0 -2
BITMAP
0400
0400
040c
07c6
7c02
0400
0400
05f8
070c
1c06
3402
6402
4406
4c0c
3838
0000
ENDCHAR
STARTCHAR ch-10
ENCODING 10
SWIDTH 1000 0
DWIDTH 16 0
BBX 16 16 0 -2
BITMAP
0400
0400
0408
040c
7f86
0442
0443
0c41
0841
0840
1840
1040
30c0
6080
0380
0000
ENDCHAR
STARTCHAR ch-11
ENCODING 11
SWIDTH 1000 0
DWIDTH 16 0
BBX 16 16 0 -2
BITMAP
0405
0405
0410
0418
7f8c
0444
0446
0c42
0842
0840
1840
1040
30c0
6080
0380
0000
ENDCHAR
STARTCHAR ch-12
ENCODING 12
SWIDTH 1000 0
DWIDTH 16 0
BBX 16 16 0 -2
BITMAP
0200
0200
3ff8
0100
0100
3ffc
0080
0040
0ff0
1018
2000
2000
3000
1c00
07f0
0000
ENDCHAR
STARTCHAR ch-13
ENCODING 13
SWIDTH 1000 0
DWIDTH 16 0
BBX 16 16 0 -2
BITMAP
0205
0205
3ff0
0100
0100
3ff8
0080
0040
0ff0
1018
2000
2000
3000
1c00
07f0
0000
ENDCHAR
STARTCHAR ch-14
ENCODING 14
SWIDTH 1000 0
DWIDTH 16 0
BBX 16 16 0 -2
BITMAP
0010
0030
0060
00c0
0180
0300
0c00
1800
0c00
0600
0300
0180
00c0
0060
0030
0010
ENDCHAR
STARTCHAR ch-15
ENCODING 15
SWIDTH 1000 0
DWIDTH 16 0
BBX 16 16 0 -2
BITMAP
0010
0035
0065
00c0
0180
0300
0c00
1800
0c00
0600
0300
0180
00c0
0060
0030
0010
ENDCHAR
STARTCHAR ch-16
ENCODING 16
SWIDTH 1000 0
DWIDTH 16 0
BBX 16 16 0 -2
BITMAP
0010
2010
2010
6010
47ff
4010
4010
4010
4010
4010
5010
6030
2020
0060
00c0
0000
ENDCHAR
STARTCHAR ch-17
ENCODING 17
SWIDTH 1000 0
DWIDTH 16 0
BBX 16 16 0 -2
BITMAP
0025
2025
2020
6020
47fe
4020
4020
4020
4020
4020
5020
6060
2040
00c0
0180
0000
ENDCHAR
STARTCHAR ch-18
ENCODING 18
SWIDTH 1000 0
DWIDTH 16 0
BBX 16 16 0 -2
BITMAP
0000
0000
1ff8
0000
0000
0000
0000
0000
0000
0000
2000
3000
1c00
07fc
0000
0000
ENDCHAR
STARTCHAR ch-19
ENCODING 19
SWIDTH 1000 0
DWIDTH 16 0
BBX 16 16 0 -2
BITMAP
0005
0005
1ff0
0000
0000
0000
0000
0000
0000
0000
2000
3000
1c00
07fc
0000
0000
ENDCHAR
STARTCHAR ch-20
ENCODING 20
SWIDTH 1000 0
DWIDTH 16 0
BBX 16 16 0 -2
BITMAP
0400
0600
0200
7ffc
0100
0180
00c0
0060
0ff8
100c
2000
2000
3000
1c00
07f0
0000
ENDCHAR
STARTCHAR ch-21
ENCODING 21
SWIDTH 1000 0
DWIDTH 16 0
BBX 16 16 0 -2
BITMAP
0405
0605
0200
7ffc
0100
0180
00c0
0060
0ff8
100c
2000
2000
3000
1c00
07f0
0000
ENDCHAR
STARTCHAR ch-22
ENCODING 22
SWIDTH 1000 0
DWIDTH 16 0
BBX 16 16 0 -2
BITMAP
0000
0800
0800
0800
0800
0800
0800
0800
0800
0800
0804
080c
0818
0470
03c0
0000
ENDCHAR
STARTCHAR ch-23
ENCODING 23
SWIDTH 1000 0
DWIDTH 16 0
BBX 16 16 0 -2
BITMAP
0000
0800
0850
0850
0800
0800
0800
0800
0800
0800
0804
080c
0818
0470
03c0
0000
ENDCHAR
STARTCHAR ch-24
ENCODING 24
SWIDTH 1000 0
DWIDTH 16 0
BBX 16 16 0 -2
BITMAP
0080
0080
0080
ffff
0080
0080
0780
0cc0
0840
0840
0c40
07c0
0080
0180
0300
0e00
ENDCHAR
STARTCHAR ch-25
ENCODING 25
SWIDTH 1000 0
DWIDTH 16 0
BBX 16 16 0 -2
BITMAP
0085
0085
0080
ffff
0080
0080
0780
0cc0
0840
0840
0c40
07c0
0080
0180
0300
0e00
ENDCHAR
STARTCHAR ch-26
ENCODING 26
SWIDTH 1000 0
DWIDTH 16 0
BBX 16 16 0 -2
BITMAP
0000
0810
0810
0810
0810
ffff
0810
0810
0810
0810
0860
0800
0800
0400
03fc
0000
ENDCHAR
STARTCHAR ch-27
ENCODING 27
SWIDTH 1000 0
DWIDTH 16 0
BBX 16 16 0 -2
BITMAP
0005
0825
0820
0820
0820
ffff
0820
0820
0820
0820
08c0
0800
0800
0400
03fc
0000
ENDCHAR
STARTCHAR ch-28
ENCODING 28
SWIDTH 1000 0
DWIDTH 16 0
BBX 16 16 0 -2
BITMAP
0000
1ff8
0030
00c0
0180
0300
0c00
7ffe
0180
0300
0600
0400
0400
0600
0380
00f0
ENDCHAR
STARTCHAR ch-29
ENCODING 29
SWIDTH 1000 0
DWIDTH 16 0
BBX 16 16 0 -2
BITMAP
0000
1ff0
0065
00c5
0180
0300
0c00
7ffe
0180
0300
0600
0400
0400
0600
0380
00f0
ENDCHAR
STARTCHAR ch-30
ENCODING 30
SWIDTH 1000 0
DWIDTH 16 0
BBX 16 16 0 -2
BITMAP
0400
0400
0400
7f80
0800
087c
0800
1800
1000
1000
3000
2000
2080
60c0
407e
0000
ENDCHAR
STARTCHAR ch-31
ENCODING 31
SWIDTH 1000 0
DWIDTH 16 0
BBX 16 16 0 -2
BITMAP
040a
040a
0400
7f80
0800
087c
0800
1800
1000
1000
3000
2000
2080
60c0
407e
0000
ENDCHAR
STARTCHAR ch-32
ENCODING 32
SWIDTH 1000 0
DWIDTH 16 0
BBX 16 16 0 -2
BITMAP
0100
0100
0100
7ffc
0200
0600
0400
0ff0
1808
3004
0004
0004
000c
0038
07e0
0000
ENDCHAR
STARTCHAR ch-33
ENCODING 33
SWIDTH 1000 0
DWIDTH 16 0
BBX 16 16 0 -2
BITMAP
0105
0105
0100
7ffc
0200
0600
0400
0ff0
1808
3004
0004
0004
000c
0038
07e0
0000
ENDCHAR
STARTCHAR ch-34
ENCODING 34
SWIDTH 1000 0
DWIDTH 16 0
BBX 16 16 0 -2
BITMAP
0000
0000
0000
0000
0000
0000
0000
01e0
0710
1c08
0008
0008
0018
0030
00e0
0000
ENDCHAR
STARTCHAR ch-35
ENCODING 35
SWIDTH 1000 0
DWIDTH 16 0
BBX 16 16 0 -2
BITMAP
0000
0000
0000
03f8
1e04
7002
0002
0002
0002
0006
000c
0038
00e0
0000
0000
0000
ENDCHAR
STARTCHAR ch-36
ENCODING 36
SWIDTH 1000 0
DWIDTH 16 0
BBX 16 16 0 -2
BITMAP
0005
0005
0000
03f8
1e04
7002
0002
0002
0002
0006
000c
0038
00e0
0000
0000
0000
ENDCHAR
STARTCHAR ch-37
ENCODING 37
SWIDTH 1000 0
DWIDTH 16 0
BBX 16 16 0 -2
BITMAP
0000
0000
7ffe
0060
00c0
0180
0100
0300
0200
0200
0200
0300
0180
00e0
0038
0000
ENDCHAR
STARTCHAR ch-38
ENCODING 38
SWIDTH 1000 0
DWIDTH 16 0
BBX 16 16 0 -2
BITMAP
0000
0000
7ffc
0060
00c5
0185
0100
0300
0200
0200
0200
0300
0180
00e0
0038
0000
ENDCHAR
STARTCHAR ch-39
ENCODING 39
SWIDTH 1000 0
DWIDTH 16 0
BBX 16 16 0 -2
BITMAP
0000
1000
1800
0800
0c0c
0438
06e0
0380
0600
0c00
1800
1000
1000
1800
0ffc
0000
ENDCHAR
STARTCHAR ch-40
ENCODING 40
SWIDTH 1000 0
DWIDTH 16 0
BBX 16 16 0 -2
BITMAP
0005
1005
1800
0800
0c0c
0438
06e0
0380
0600
0c00
1800
1000
1000
1800
0ffc
0000
ENDCHAR
STARTCHAR ch-41
ENCODING 41
SWIDTH 1000 0
DWIDTH 16 0
BBX 16 16 0 -2
BITMAP
0800
0800
0818
7f0c
0806
1800
1020
1020
3020
2020
6020
03e0
0438
046c
03c0
0000
ENDCHAR
STARTCHAR ch-42
ENCODING 42
SWIDTH 1000 0
DWIDTH 16 0
BBX 16 16 0 -2
BITMAP
0000
1000
1000
31fc
2000
2000
2000
2000
2000
2000
2200
2200
2b00
31fe
1000
0000
ENDCHAR
STARTCHAR ch-43
ENCODING 43
SWIDTH 1000 0
DWIDTH 16 0
BBX 16 16 0 -2
BITMAP
0080
0080
2080
2080
37f0
1c9c
1084
3986
2902
6d02
4702
423a
4744
4d4e
383b
0000
ENDCHAR
STARTCHAR ch-44
ENCODING 44
SWIDTH 1000 0
DWIDTH 16 0
BBX 16 16 0 -2
BITMAP
0800
0800
0800
08f8
798c
0b06
0e02
0c02
0802
1802
383a
6844
084e
083b
0800
0000
ENDCHAR
STARTCHAR ch-45
ENCODING 45
SWIDTH 1000 0
DWIDTH 16 0
BBX 16 16 0 -2
BITMAP
0000
0000
03e0
0eb8
188c
3084
2186
6102
4302
4202
4606
4c04
381c
0070
0000
0000
ENDCHAR
STARTCHAR ch-46
ENCODING 46
SWIDTH 1000 0
DWIDTH 16 0
BBX 16 16 0 -2
BITMAP
0000
2020
2020
6020
47fe
4020
4020
4020
4020
4020
43e0
4438
542c
6466
23c0
0000
ENDCHAR
STARTCHAR ch-47
ENCODING 47
SWIDTH 1000 0
DWIDTH 16 0
BBX 16 16 0 -2
BITMAP
0005
2025
2020
6020
47fe
4020
4020
4020
4020
4020
43e0
4438
542c
6466
23c0
0000
ENDCHAR
STARTCHAR ch-48
ENCODING 48
SWIDTH 1000 0
DWIDTH 16 0
BBX 16 16 0 -2
BITMAP
0000
2040
2046
6049
47f9
4046
4040
4040
4040
4040
43c0
4470
5458
64cc
2380
0000
ENDCHAR
STARTCHAR ch-49
ENCODING 49
SWIDTH 1000 0
DWIDTH 16 0
BBX 16 16 0 -2
BITMAP
0000
0210
7e10
0418
0c1c
1816
1013
3010
2010
2010
2010
2030
3020
18e0
0f80
0000
ENDCHAR
STARTCHAR ch-50
ENCODING 50
SWIDTH 1000 0
DWIDTH 16 0
BBX 16 16 0 -2
BITMAP
0005
0215
7e10
0418
0c1c
1816
1013
3010
2010
2010
2010
2030
3020
18e0
0f80
0000
ENDCHAR
STARTCHAR ch-51
ENCODING 51
SWIDTH 1000 0
DWIDTH 16 0
BBX 16 16 0 -2
BITMAP
0000
0840
f846
1049
3069
2076
2058
6040
4040
4040
4040
4040
60c0
3180
1f00
0000
ENDCHAR
STARTCHAR ch-52
ENCODING 52
SWIDTH 1000 0
DWIDTH 16 0
BBX 16 16 0 -2
BITMAP
0000
0400
0600
0380
00c0
0000
0600
0300
018c
4086
40c2
5843
7041
20c0
0380
0000
ENDCHAR
STARTCHAR ch-53
ENCODING 53
SWIDTH 1000 0
DWIDTH 16 0
BBX 16 16 0 -2
BITMAP
0000
040a
060a
0380
00c0
0000
0600
0300
018c
4086
40c2
5843
7041
20c0
0380
0000
ENDCHAR
STARTCHAR ch-54
ENCODING 54
SWIDTH 1000 0
DWIDTH 16 0
BBX 16 16 0 -2
BITMAP
0000
0400
060c
0392
00d2
000c
0600
0300
018c
4086
40c2
5843
7041
20c0
0380
0000
ENDCHAR
STARTCHAR ch-55
ENCODING 55
SWIDTH 1000 0
DWIDTH 16 0
BBX 16 16 0 -2
BITMAP
0000
0000
0000
0600
0900
1980
1080
30c0
6060
0030
0018
000c
0006
0000
0000
0000
ENDCHAR
STARTCHAR ch-56
ENCODING 56
SWIDTH 1000 0
DWIDTH 16 0
BBX 16 16 0 -2
BITMAP
0000
0028
0028
0600
0900
1980
1080
30c0
6060
0030
0018
000c
0006
0000
0000
0000
ENDCHAR
STARTCHAR ch-57
ENCODING 57
SWIDTH 1000 0
DWIDTH 16 0
BBX 16 16 0 -2
BITMAP
0000
0000
0000
0618
0924
19a4
1098
30c0
6060
0030
0018
000c
0006
0000
0000
0000
ENDCHAR
STARTCHAR ch-58
ENCODING 58
SWIDTH 1000 0
DWIDTH 16 0
BBX 16 16 0 -2
BITMAP
0000
2000
27fe
6020
4020
4020
47fe
4020
4020
4020
43e0
4438
542c
6466
23c0
0000
ENDCHAR
STARTCHAR ch-59
ENCODING 59
SWIDTH 1000 0
DWIDTH 16 0
BBX 16 16 0 -2
BITMAP
0005
2005
27f8
6020
4020
4020
47fc
4020
4020
4020
43e0
4438
542c
6466
23c0
0000
ENDCHAR
STARTCHAR ch-60
ENCODING 60
SWIDTH 1000 0
DWIDTH 16 0
BBX 16 16 0 -2
BITMAP
0000
2000
27f6
6049
4049
4046
47f8
4040
4040
4040
43c0
4470
5458
64cc
2380
0000
ENDCHAR
STARTCHAR ch-61
ENCODING 61
SWIDTH 1000 0
DWIDTH 16 0
BBX 16 16 0 -2
BITMAP
0080
0080
0080
3ffc
0080
0080
3ffc
0080
0080
0080
1f80
20e0
20b8
218c
1f00
0000
ENDCHAR
STARTCHAR ch-62
ENCODING 62
SWIDTH 1000 0
DWIDTH 16 0
BBX 16 16 0 -2
BITMAP
0000
0000
1f00
0100
0108
0108
0108
1ff8
320e
660b
4418
4c10
5830
3060
00c0
0000
ENDCHAR
STARTCHAR ch-63
ENCODING 63
SWIDTH 1000 0
DWIDTH 16 0
BBX 16 16 0 -2
BITMAP
0800
0800
0800
7f18
080c
0806
0802
3800
4800
4800
4800
4808
3808
0c18
07f0
0000
ENDCHAR
STARTCHAR ch-64
ENCODING 64
SWIDTH 1000 0
DWIDTH 16 0
BBX 16 16 0 -2
BITMAP
0040
0040
2040
2040
37f0
1c9c
1084
3886
2d82
6502
4702
4206
4f04
391c
0070
0000
ENDCHAR
STARTCHAR ch-65
ENCODING 65
SWIDTH 1000 0
DWIDTH 16 0
BBX 16 16 0 -2
BITMAP
0200
0200
0200
3fe0
0200
0200
3fe0
0400
0400
0404
0404
0404
060c
0318
01f0
0000
ENDCHAR
STARTCHAR ch-66
ENCODING 66
SWIDTH 1000 0
DWIDTH 16 0
BBX 16 16 0 -2
BITMAP
0000
0000
0000
0000
00c0
0860
0c20
04f8
0784
1e04
3304
0118
0100
0180
0080
0080
ENDCHAR
STARTCHAR ch-67
ENCODING 67
SWIDTH 1000 0
DWIDTH 16 0
BBX 16 16 0 -2
BITMAP
0000
10c0
1860
0820
0cfc
0782
3c02
e606
021c
0200
0300
0100
0100
0180
0080
0080
ENDCHAR
STARTCHAR ch-68
ENCODING 68
SWIDTH 1000 0
DWIDTH 16 0
BBX 16 16 0 -2
BITMAP
0000
0000
0000
0000
0040
0840
09f0
1248
1444
1444
1844
0a48
09f0
0040
00c0
0180
ENDCHAR
STARTCHAR ch-69
ENCODING 69
SWIDTH 1000 0
DWIDTH 16 0
BBX 16 16 0 -2
BITMAP
0000
0040
2040
23f8
664c
4c46
4842
5042
5042
6046
264c
23f8
0040
00c0
0180
0000
ENDCHAR
STARTCHAR ch-70
ENCODING 70
SWIDTH 1000 0
DWIDTH 16 0
BBX 16 16 0 -2
BITMAP
0000
0000
0000
0000
0100
0100
0100
01f0
0100
0100
0100
0100
0f00
11e0
1130
0e00
ENDCHAR
STARTCHAR ch-71
ENCODING 71
SWIDTH 1000 0
DWIDTH 16 0
BBX 16 16 0 -2
BITMAP
0080
0080
0080
0080
00fc
0080
0080
0080
0080
0080
1f80
20e0
20b8
218c
1f00
0000
ENDCHAR
STARTCHAR ch-72
ENCODING 72
SWIDTH 1000 0
DWIDTH 16 0
BBX 16 16 0 -2
BITMAP
0180
00c0
0860
0800
1800
1000
1000
13f8
1e0c
3004
0004
0004
000c
0038
01e0
0000
ENDCHAR
STARTCHAR ch-73
ENCODING 73
SWIDTH 1000 0
DWIDTH 16 0
BBX 16 16 0 -2
BITMAP
0000
0808
0808
0808
0808
0808
0808
0a08
0c08
0808
0018
0010
0030
0060
01c0
0000
ENDCHAR
STARTCHAR ch-74
ENCODING 74
SWIDTH 1000 0
DWIDTH 16 0
BBX 16 16 0 -2
BITMAP
0000
1ff0
0060
00c0
0180
0300
07f0
0c18
180c
3004
0704
0984
088c
0c98
07f0
0000
ENDCHAR
STARTCHAR ch-75
ENCODING 75
SWIDTH 1000 0
DWIDTH 16 0
BBX 16 16 0 -2
BITMAP
0800
0800
0800
08e0
7990
0b10
0e10
0c10
0810
1810
3810
6811
0813
080e
0800
0000
ENDCHAR
STARTCHAR ch-76
ENCODING 76
SWIDTH 1000 0
DWIDTH 16 0
BBX 16 16 0 -2
BITMAP
0000
1ff0
0060
00c0
0180
0300
07f0
0c18
180c
3004
0004
000c
0018
0070
03c0
0000
ENDCHAR
STARTCHAR ch-77
ENCODING 77
SWIDTH 1000 0
DWIDTH 16 0
BBX 16 16 0 -2
BITMAP
0000
0000
0000
0000
0400
0400
0400
3c70
0588
0604
0404
0c04
1c04
3408
0430
0400
ENDCHAR
STARTCHAR ch-78
ENCODING 78
SWIDTH 1000 0
DWIDTH 16 0
BBX 16 16 0 -2
BITMAP
0800
0800
0800
08f8
798c
0b06
0e02
0c02
0802
1802
3802
6806
080c
0838
0800
0000
ENDCHAR
STARTCHAR ch-79
ENCODING 79
SWIDTH 1000 0
DWIDTH 16 0
BBX 16 16 0 -2
BITMAP
0000
0f80
0080
0080
0080
03f8
0d0c
1906
3302
2602
6462
4cb2
5896
30cc
0078
0000
ENDCHAR
STARTCHAR ch-80
ENCODING 80
SWIDTH 1000 0
DWIDTH 16 0
BBX 16 16 0 -2
BITMAP
0000
1ff0
00c0
0300
0ff0
3818
0008
0e08
1318
1930
0fe0
0800
3e7c
63c6
c083
0000
ENDCHAR
STARTCHAR ch-81
ENCODING 81
SWIDTH 1000 0
DWIDTH 16 0
BBX 16 16 0 -2
BITMAP
0200
0200
03e0
3e00
0400
0406
0f9c
1870
31c0
0340
0640
0c40
0800
0c00
07fc
0000
ENDCHAR
STARTCHAR ch-82
ENCODING 82
SWIDTH 1000 0
DWIDTH 16 0
BBX 16 16 0 -2
BITMAP
0200
0200
0600
0400
0c00
0800
0800
1b80
1440
1840
3040
2042
2046
604c
4038
0000
ENDCHAR
STARTCHAR ch-90
ENCODING 90
SWIDTH 1000 0
DWIDTH 16 0
BBX 16 16 0 -2
BITMAP
5000
5000
0000
0000
0000
0000
0000
0000
0000
0000
0000
0000
0000
0000
0000
0000
ENDCHAR
STARTCHAR ch-91
ENCODING 91
SWIDTH 1000 0
DWIDTH 16 0
BBX 16 16 0 -2
BITMAP
0000
0000
6000
9000
9000
6000
0000
0000
0000
0000
0000
0000
0000
0000
0000
0000
ENDCHAR
STARTCHAR ch-92
ENCODING 92
SWIDTH 1000 0
DWIDTH 16 0
BBX 16 16 0 -2
BITMAP
0000
0000
0000
0800
0c00
0600
0300
01c0
0060
0030
0060
01c0
0300
0000
0000
0000
ENDCHAR
STARTCHAR ch-93
ENCODING 93
SWIDTH 1000 0
DWIDTH 16 0
BBX 16 16 0 -2
BITMAP
0000
0000
0000
0828
0c28
0600
0300
01c0
0060
0030
0060
01c0
0300
0000
0000
0000
ENDCHAR
ENDFONT
