STARTFONT 2.1
FONT jis.jis7000.16
SIZE 16 72 72
FONTBOUNDINGBOX 16 16 0 -2
STARTPROPERTIES 4
FONT_DESCENT 2
FONT_ASCENT 14
DEFAULT_CHAR 1
COPYRIGHT "Copyright (c) 1992 AT&T - All rights reserved."
ENDPROPERTIES
CHARS 108
STARTCHAR ch-1
ENCODING 1
SWIDTH 1000 0
DWIDTH 16 0
BBX 16 16 0 -2
BITMAP
0208
6110
37fe
1040
03fc
c040
6fff
2248
07fc
2a0b
23f8
2208
63fa
4224
43b8
ce0f
ENDCHAR
STARTCHAR ch-9
ENCODING 9
SWIDTH 1000 0
DWIDTH 16 0
BBX 16 16 0 -2
BITMAP
0020
67ff
3401
14c1
039e
c202
63de
2202
03fe
1100
13ff
3601
2c09
62a5
42a3
c40e
ENDCHAR
STARTCHAR ch-11
ENCODING 11
SWIDTH 1000 0
DWIDTH 16 0
BBX 16 16 0 -2
BITMAP
0020
67ff
3401
141d
03f0
c124
60a8
27ff
00a8
1124
17ff
3222
23fe
6222
4222
c3fe
ENDCHAR
STARTCHAR ch-15
ENCODING 15
SWIDTH 1000 0
DWIDTH 16 0
BBX 16 16 0 -2
BITMAP
0201
4cf5
6855
2a55
0e95
8935
c285
4445
0ba5
2105
27c5
2101
6921
4541
41e1
cf07
ENDCHAR
STARTCHAR ch-17
ENCODING 17
SWIDTH 1000 0
DWIDTH 16 0
BBX 16 16 0 -2
BITMAP
01fc
6104
31fc
1104
01fc
c088
63fe
2088
07ff
1088
1124
36ab
2070
61ac
4326
c060
ENDCHAR
STARTCHAR ch-21
ENCODING 21
SWIDTH 1000 0
DWIDTH 16 0
BBX 16 16 0 -2
BITMAP
0200
427f
6b88
2a3e
0a22
8a22
dfbe
4222
0aa2
0a7e
52a2
46a2
413e
c314
8636
8c63
ENDCHAR
STARTCHAR ch-24
ENCODING 24
SWIDTH 1000 0
DWIDTH 16 0
BBX 16 16 0 -2
BITMAP
0040
607c
3040
17fe
0442
c5f8
6442
25fe
0524
15fc
1524
35fc
2400
6bfe
4292
cfff
ENDCHAR
STARTCHAR ch-26
ENCODING 26
SWIDTH 1000 0
DWIDTH 16 0
BBX 16 16 0 -2
BITMAP
0408
441c
7f94
2436
0f63
8900
c97e
4f12
095a
2936
2f12
2412
7fb6
445a
4412
c436
ENDCHAR
STARTCHAR ch-27
ENCODING 27
SWIDTH 1000 0
DWIDTH 16 0
BBX 16 16 0 -2
BITMAP
4040
6ffe
2400
07fc
8000
c7fc
4404
07fc
2000
2e8e
2bea
2eaa
6aae
4eca
4a6a
d293
ENDCHAR
STARTCHAR ch-29
ENCODING 29
SWIDTH 1000 0
DWIDTH 16 0
BBX 16 16 0 -2
BITMAP
0000
67ff
3488
1488
07fe
c488
65dc
26aa
0488
1420
1520
353e
2520
6920
4120
c7ff
ENDCHAR
STARTCHAR ch-30
ENCODING 30
SWIDTH 1000 0
DWIDTH 16 0
BBX 16 16 0 -2
BITMAP
0210
421e
6fb2
2264
0fbe
820a
dfca
403f
0f8a
288a
2fbe
2888
6f88
4888
4888
c998
ENDCHAR
STARTCHAR ch-31
ENCODING 31
SWIDTH 1000 0
DWIDTH 16 0
BBX 16 16 0 -2
BITMAP
0088
67ff
3088
1020
03fe
c022
67ff
2022
03fe
1020
12aa
3222
23fe
6272
46aa
cc22
ENDCHAR
STARTCHAR ch-38
ENCODING 38
SWIDTH 1000 0
DWIDTH 16 0
BBX 16 16 0 -2
BITMAP
4009
7fc9
243f
040a
0a4a
928c
c77f
4a08
1210
023e
2652
2b12
329e
6252
4612
cc1e
ENDCHAR
STARTCHAR ch-39
ENCODING 39
SWIDTH 1000 0
DWIDTH 16 0
BBX 16 16 0 -2
BITMAP
4210
6210
3fdf
0890
051f
9fc1
c01f
4f90
089f
2f90
289f
2f90
689f
4890
4891
c98f
ENDCHAR
STARTCHAR ch-44
ENCODING 44
SWIDTH 1000 0
DWIDTH 16 0
BBX 16 16 0 -2
BITMAP
0200
427f
6f88
223e
0fa2
8aa2
cabe
4aa2
0fa2
223e
2622
2722
6abe
4a94
5236
c263
ENDCHAR
STARTCHAR ch-48
ENCODING 48
SWIDTH 1000 0
DWIDTH 16 0
BBX 16 16 0 -2
BITMAP
4000
7dff
2454
0492
9dff
d111
51bb
1155
1dbb
2511
2511
25bb
6555
4dbb
4911
d913
ENDCHAR
STARTCHAR ch-50
ENCODING 50
SWIDTH 1000 0
DWIDTH 16 0
BBX 16 16 0 -2
BITMAP
4108
6388
26c8
0c6f
839a
c012
4eea
0aaa
0aae
2ee4
2004
2444
644e
4eaa
4aab
d111
ENDCHAR
STARTCHAR ch-62
ENCODING 62
SWIDTH 1000 0
DWIDTH 16 0
BBX 16 16 0 -2
BITMAP
4fbe
68a2
2fbe
08a2
8fbe
c842
4bfa
0842
0bfa
2a4a
2bfa
2a4a
6bfa
4952
4a4a
c846
ENDCHAR
STARTCHAR ch-76
ENCODING 76
SWIDTH 1000 0
DWIDTH 16 0
BBX 16 16 0 -2
BITMAP
0088
67ff
3088
13de
0252
c3de
6088
2110
03fe
1620
13fc
3220
23fc
6220
4220
c3ff
ENDCHAR
STARTCHAR ch-81
ENCODING 81
SWIDTH 1000 0
DWIDTH 16 0
BBX 16 16 0 -2
BITMAP
5fbf
6000
2fbe
08a2
8aaa
c040
4fff
0890
0ffe
2892
2ffe
2a10
6bde
4a10
53d1
c60f
ENDCHAR
STARTCHAR ch-88
ENCODING 88
SWIDTH 1000 0
DWIDTH 16 0
BBX 16 16 0 -2
BITMAP
0512
4516
7fd4
253f
0064
8fa4
caa4
4abf
0fa4
2224
2fa4
223f
7fe4
4524
4da4
d8bf
ENDCHAR
STARTCHAR ch-99
ENCODING 99
SWIDTH 1000 0
DWIDTH 16 0
BBX 16 16 0 -2
BITMAP
4444
69f8
2a0a
04e4
8a09
deef
44a4
16ed
1405
07fc
2004
27fc
6400
47fe
4002
c00e
ENDCHAR
STARTCHAR ch-107
ENCODING 107
SWIDTH 1000 0
DWIDTH 16 0
BBX 16 16 0 -2
BITMAP
0100
0100
0102
1106
1104
110c
3118
2110
6380
0280
06c0
0460
0c30
1818
300c
e007
ENDCHAR
STARTCHAR ch-111
ENCODING 111
SWIDTH 1000 0
DWIDTH 16 0
BBX 16 16 0 -2
BITMAP
1000
1000
12ff
1208
5608
5408
d008
9008
1008
1008
3808
2808
2c08
6408
4608
c038
ENDCHAR
STARTCHAR ch-112
ENCODING 112
SWIDTH 1000 0
DWIDTH 16 0
BBX 16 16 0 -2
BITMAP
0000
3ffe
2000
2080
2082
2486
248c
2c88
2880
21c0
6140
4360
4230
c618
0c0c
3807
ENDCHAR
STARTCHAR ch-120
ENCODING 120
SWIDTH 1000 0
DWIDTH 16 0
BBX 16 16 0 -2
BITMAP
0400
0fe0
1860
70c0
01e0
0730
1c1c
f007
0100
1104
310c
6398
06c0
0c60
3838
e00f
ENDCHAR
STARTCHAR ch-124
ENCODING 124
SWIDTH 1000 0
DWIDTH 16 0
BBX 16 16 0 -2
BITMAP
1040
1040
1040
127e
56c2
5482
5182
d062
9032
1012
3802
2802
2c02
6606
4204
c01c
ENDCHAR
STARTCHAR ch-125
ENCODING 125
SWIDTH 1000 0
DWIDTH 16 0
BBX 16 16 0 -2
BITMAP
0842
18c6
318c
6318
4210
318c
18c6
0842
0100
1104
310c
6398
06c0
0c70
381c
e007
ENDCHAR
STARTCHAR ch-137
ENCODING 137
SWIDTH 1000 0
DWIDTH 16 0
BBX 16 16 0 -2
BITMAP
1000
11ff
1000
1200
56fe
5482
d082
90fe
1080
1080
3880
2880
2c80
6580
4100
c300
ENDCHAR
STARTCHAR ch-138
ENCODING 138
SWIDTH 1000 0
DWIDTH 16 0
BBX 16 16 0 -2
BITMAP
1040
1040
1040
527f
56c1
5493
d192
9010
1010
1038
3828
2828
2c6c
6644
40c6
c183
ENDCHAR
STARTCHAR ch-142
ENCODING 142
SWIDTH 1000 0
DWIDTH 16 0
BBX 16 16 0 -2
BITMAP
0100
1104
110c
3398
22c0
0660
1c38
710e
0104
110c
3398
62c0
0660
0c30
381c
e007
ENDCHAR
STARTCHAR ch-146
ENCODING 146
SWIDTH 1000 0
DWIDTH 16 0
BBX 16 16 0 -2
BITMAP
1010
1010
1010
1254
5654
54d6
d092
9193
1010
1012
3876
2804
2c0c
6418
4070
c1c0
ENDCHAR
STARTCHAR ch-153
ENCODING 153
SWIDTH 1000 0
DWIDTH 16 0
BBX 16 16 0 -2
BITMAP
0100
03fc
0e18
7930
04e0
0380
1e00
f000
0104
110c
1398
3280
26c0
0c60
3838
e00f
ENDCHAR
STARTCHAR ch-172
ENCODING 172
SWIDTH 1000 0
DWIDTH 16 0
BBX 16 16 0 -2
BITMAP
1000
10ff
1080
1280
5680
54fe
d082
9082
1082
10fe
3880
2880
2c80
6480
40ff
c000
ENDCHAR
STARTCHAR ch-173
ENCODING 173
SWIDTH 1000 0
DWIDTH 16 0
BBX 16 16 0 -2
BITMAP
0080
2082
2082
3ffe
0000
3fff
2000
2080
2484
248c
2c98
29c0
6160
4330
c61c
1c07
ENDCHAR
STARTCHAR ch-174
ENCODING 174
SWIDTH 1000 0
DWIDTH 16 0
BBX 16 16 0 -2
BITMAP
1080
1080
10fe
1582
5502
59f2
d212
9012
1012
11f6
3904
291c
2d00
6501
4183
c0fe
ENDCHAR
STARTCHAR ch-175
ENCODING 175
SWIDTH 1000 0
DWIDTH 16 0
BBX 16 16 0 -2
BITMAP
1000
11fe
1102
1502
5502
557a
d14a
914a
114a
114a
397a
2902
2d02
6502
4102
c10e
ENDCHAR
STARTCHAR ch-179
ENCODING 179
SWIDTH 1000 0
DWIDTH 16 0
BBX 16 16 0 -2
BITMAP
1000
13ff
1020
1420
55fe
5522
d122
9172
1152
115a
398a
2902
2d02
6502
4102
c10e
ENDCHAR
STARTCHAR ch-184
ENCODING 184
SWIDTH 1000 0
DWIDTH 16 0
BBX 16 16 0 -2
BITMAP
1080
1080
1080
14ff
55a0
5520
d320
903e
1020
1020
3820
283e
2c20
6420
4020
c020
ENDCHAR
STARTCHAR ch-185
ENCODING 185
SWIDTH 1000 0
DWIDTH 16 0
BBX 16 16 0 -2
BITMAP
0100
0100
0100
01fe
0100
0100
3ffc
2004
2004
2004
2004
3ffc
0000
2444
6666
c223
ENDCHAR
STARTCHAR ch-186
ENCODING 186
SWIDTH 1000 0
DWIDTH 16 0
BBX 16 16 0 -2
BITMAP
2200
3200
1200
7ff8
0408
0410
0ffe
0802
1804
3fff
6001
c011
1489
124b
2242
000e
ENDCHAR
STARTCHAR ch-200
ENCODING 200
SWIDTH 1000 0
DWIDTH 16 0
BBX 16 16 0 -2
BITMAP
0002
7f92
0812
0812
1f12
1112
3312
6a12
0602
0c02
1802
700e
0000
2444
6666
c223
ENDCHAR
STARTCHAR ch-203
ENCODING 203
SWIDTH 1000 0
DWIDTH 16 0
BBX 16 16 0 -2
BITMAP
1040
1040
3040
2ffe
6150
a150
2358
2248
264c
2c46
2040
0000
0000
2440
6666
c223
ENDCHAR
STARTCHAR ch-207
ENCODING 207
SWIDTH 1000 0
DWIDTH 16 0
BBX 16 16 0 -2
BITMAP
0080
0100
1ff8
1008
1008
1008
1ff8
1000
1fff
1000
1ffe
0022
2932
6d96
4484
001c
ENDCHAR
STARTCHAR ch-217
ENCODING 217
SWIDTH 1000 0
DWIDTH 16 0
BBX 16 16 0 -2
BITMAP
1020
1020
107e
14c6
55ac
5418
d030
906c
11c7
1000
38fe
2882
2c82
6482
4082
c0fe
ENDCHAR
STARTCHAR ch-221
ENCODING 221
SWIDTH 1000 0
DWIDTH 16 0
BBX 16 16 0 -2
BITMAP
0000
3ff8
0060
0186
7d0c
0598
0d40
1930
311c
e707
0000
ffff
0000
2444
6666
c223
ENDCHAR
STARTCHAR ch-223
ENCODING 223
SWIDTH 1000 0
DWIDTH 16 0
BBX 16 16 0 -2
BITMAP
1000
11ff
1101
1511
5511
557d
d111
9111
1139
1129
3929
2945
2d01
6501
41ff
c000
ENDCHAR
STARTCHAR ch-241
ENCODING 241
SWIDTH 1000 0
DWIDTH 16 0
BBX 16 16 0 -2
BITMAP
1000
11fe
1152
1552
5552
555e
d182
9102
117a
114a
394a
294a
2d7a
6502
4102
c10e
ENDCHAR
STARTCHAR ch-249
ENCODING 249
SWIDTH 1000 0
DWIDTH 16 0
BBX 16 16 0 -2
BITMAP
0100
0100
ffff
0000
1ff8
1008
1ff8
0000
7ffc
0030
01c0
0100
0300
2444
6666
c223
ENDCHAR
STARTCHAR ch-253
ENCODING 253
SWIDTH 1000 0
DWIDTH 16 0
BBX 16 16 0 -2
BITMAP
1020
103e
1062
14c6
55ac
5438
d06c
91c7
1010
10fe
3810
28fe
2c10
65ff
4010
c010
ENDCHAR
STARTCHAR ch-265
ENCODING 265
SWIDTH 1000 0
DWIDTH 16 0
BBX 16 16 0 -2
BITMAP
0000
7ffe
0100
1100
11fc
1100
1100
ffff
1000
1ffc
1000
1fff
4001
4921
cdb3
8496
ENDCHAR
STARTCHAR ch-276
ENCODING 276
SWIDTH 1000 0
DWIDTH 16 0
BBX 16 16 0 -2
BITMAP
1020
1020
107e
1242
56c6
558c
5008
d13f
9121
1121
3921
293f
2d21
6521
4121
c13f
ENDCHAR
STARTCHAR ch-281
ENCODING 281
SWIDTH 1000 0
DWIDTH 16 0
BBX 16 16 0 -2
BITMAP
1020
1020
11fe
1484
54cc
5448
d048
93ff
1000
1000
38fc
2884
2c84
6484
4084
c0fc
ENDCHAR
STARTCHAR ch-282
ENCODING 282
SWIDTH 1000 0
DWIDTH 16 0
BBX 16 16 0 -2
BITMAP
0810
0810
feff
0810
1c38
2a54
6896
c813
0100
1104
310c
6398
06c0
0c60
3838
e00f
ENDCHAR
STARTCHAR ch-284
ENCODING 284
SWIDTH 1000 0
DWIDTH 16 0
BBX 16 16 0 -2
BITMAP
1000
11fc
1104
1504
55fc
5504
d104
91fc
1000
1110
3916
29dc
2d10
6511
41d3
c30e
ENDCHAR
STARTCHAR ch-289
ENCODING 289
SWIDTH 1000 0
DWIDTH 16 0
BBX 16 16 0 -2
BITMAP
1000
1000
3ffe
7248
d248
1248
ffff
1248
1248
1248
ffff
0000
0000
2444
6666
c223
ENDCHAR
STARTCHAR ch-294
ENCODING 294
SWIDTH 1000 0
DWIDTH 16 0
BBX 16 16 0 -2
BITMAP
0840
1080
3ffe
6080
a080
3ffc
2080
2080
3ffc
2080
2080
3fff
0000
2444
6666
c223
ENDCHAR
STARTCHAR ch-310
ENCODING 310
SWIDTH 1000 0
DWIDTH 16 0
BBX 16 16 0 -2
BITMAP
0828
082c
1f24
1120
33ff
6a28
c628
2c6c
1844
30c6
e183
0000
2444
6446
4662
c223
ENDCHAR
STARTCHAR ch-316
ENCODING 316
SWIDTH 1000 0
DWIDTH 16 0
BBX 16 16 0 -2
BITMAP
1010
1010
10fe
1410
5492
5482
55ff
d082
9082
1000
39ff
2848
2c48
64c9
4189
c307
ENDCHAR
STARTCHAR ch-329
ENCODING 329
SWIDTH 1000 0
DWIDTH 16 0
BBX 16 16 0 -2
BITMAP
1020
1020
13ff
1420
55fe
5922
d1fe
9122
1122
11fe
10a8
38a8
2cac
25a6
6323
c020
ENDCHAR
STARTCHAR ch-332
ENCODING 332
SWIDTH 1000 0
DWIDTH 16 0
BBX 16 16 0 -2
BITMAP
1020
1040
11fc
1504
55fc
5504
d104
91fc
1000
13fe
3820
2dfc
2420
6020
47ff
c000
ENDCHAR
STARTCHAR ch-334
ENCODING 334
SWIDTH 1000 0
DWIDTH 16 0
BBX 16 16 0 -2
BITMAP
0810
0420
ffff
0000
3e04
2224
3e24
2224
3e24
2204
2204
261c
0000
2444
6666
c223
ENDCHAR
STARTCHAR ch-341
ENCODING 341
SWIDTH 1000 0
DWIDTH 16 0
BBX 16 16 0 -2
BITMAP
0000
7f7e
4442
5442
5742
5142
517e
5740
5440
4441
4463
7f3e
0000
2444
6666
c223
ENDCHAR
STARTCHAR ch-342
ENCODING 342
SWIDTH 1000 0
DWIDTH 16 0
BBX 16 16 0 -2
BITMAP
100e
13f8
1122
15b6
5494
55fe
d020
93ff
1040
10fc
3984
2b0c
2cd8
6470
40dc
c387
ENDCHAR
STARTCHAR ch-345
ENCODING 345
SWIDTH 1000 0
DWIDTH 16 0
BBX 16 16 0 -2
BITMAP
1000
13ff
1050
1450
55fe
5552
5152
d152
91fe
1020
3820
29fe
2c20
6420
43ff
c000
ENDCHAR
STARTCHAR ch-354
ENCODING 354
SWIDTH 1000 0
DWIDTH 16 0
BBX 16 16 0 -2
BITMAP
0810
2952
2a54
1428
2244
0000
7ffe
4002
4002
3ff8
0208
0208
3fe8
0209
0209
0207
ENDCHAR
STARTCHAR ch-356
ENCODING 356
SWIDTH 1000 0
DWIDTH 16 0
BBX 16 16 0 -2
BITMAP
1044
1044
11ff
1444
547c
5444
d044
907c
1010
11ff
3854
2854
2cd6
6492
4193
c010
ENDCHAR
STARTCHAR ch-357
ENCODING 357
SWIDTH 1000 0
DWIDTH 16 0
BBX 16 16 0 -2
BITMAP
1040
1078
10c8
1590
54fe
54aa
d0aa
90aa
10ce
1082
3892
29ff
2c28
646c
40c6
c183
ENDCHAR
STARTCHAR ch-358
ENCODING 358
SWIDTH 1000 0
DWIDTH 16 0
BBX 16 16 0 -2
BITMAP
0100
7900
4bfe
4a02
4e02
79f2
4912
4912
49f2
7806
0004
001c
0000
2444
6666
c223
ENDCHAR
STARTCHAR ch-359
ENCODING 359
SWIDTH 1000 0
DWIDTH 16 0
BBX 16 16 0 -2
BITMAP
0000
7dfe
4422
4462
44c2
7d8e
4400
44fe
4482
4482
7c82
00fe
0000
2444
6666
c223
ENDCHAR
STARTCHAR ch-361
ENCODING 361
SWIDTH 1000 0
DWIDTH 16 0
BBX 16 16 0 -2
BITMAP
1000
11ff
1010
12fe
5682
5482
d0fe
9082
1082
10fe
3882
2882
2cfe
6444
46c6
c183
ENDCHAR
STARTCHAR ch-364
ENCODING 364
SWIDTH 1000 0
DWIDTH 16 0
BBX 16 16 0 -2
BITMAP
1000
10fc
1084
14fc
5484
5484
d0fc
9000
13ff
1080
39ff
2b29
2c49
6593
4022
c0ce
ENDCHAR
STARTCHAR ch-366
ENCODING 366
SWIDTH 1000 0
DWIDTH 16 0
BBX 16 16 0 -2
BITMAP
0102
0106
3ffc
0118
0160
ffff
0200
1ff8
f008
1ff8
1008
1ff8
0000
2444
6666
c223
ENDCHAR
STARTCHAR ch-381
ENCODING 381
SWIDTH 1000 0
DWIDTH 16 0
BBX 16 16 0 -2
BITMAP
2000
27ff
2000
abfe
aa02
aa02
abfe
2200
23ef
2221
7329
5aa5
4e63
c4a5
8d29
0063
ENDCHAR
STARTCHAR ch-388
ENCODING 388
SWIDTH 1000 0
DWIDTH 16 0
BBX 16 16 0 -2
BITMAP
1020
1040
11fe
1502
55fe
5502
d1fe
9102
1102
11fe
3820
2830
2c52
6543
4145
c23c
ENDCHAR
STARTCHAR ch-392
ENCODING 392
SWIDTH 1000 0
DWIDTH 16 0
BBX 16 16 0 -2
BITMAP
0000
4fbe
4a22
4a22
4fa2
48a2
48be
4fa0
4a20
ca21
8a33
8f9e
0000
2444
6666
c223
ENDCHAR
STARTCHAR ch-394
ENCODING 394
SWIDTH 1000 0
DWIDTH 16 0
BBX 16 16 0 -2
BITMAP
2040
4246
ff7c
0140
7e41
423f
7e00
4246
7e7c
4240
4241
463f
0000
2444
6666
c223
ENDCHAR
STARTCHAR ch-399
ENCODING 399
SWIDTH 1000 0
DWIDTH 16 0
BBX 16 16 0 -2
BITMAP
0070
1fc0
0100
ffff
0100
1ff8
1108
1ff8
1108
1ff8
0100
3ffc
0100
ffff
2444
4222
ENDCHAR
STARTCHAR ch-404
ENCODING 404
SWIDTH 1000 0
DWIDTH 16 0
BBX 16 16 0 -2
BITMAP
1010
1010
11ff
1501
5545
58c6
d193
9038
106c
11c7
1000
38fe
2882
2c82
6482
c0fe
ENDCHAR
STARTCHAR ch-405
ENCODING 405
SWIDTH 1000 0
DWIDTH 16 0
BBX 16 16 0 -2
BITMAP
1000
10fe
1010
1410
55ff
5400
d0fe
9082
10fe
1082
38fe
2882
2cfe
6444
40c6
c183
ENDCHAR
STARTCHAR ch-415
ENCODING 415
SWIDTH 1000 0
DWIDTH 16 0
BBX 16 16 0 -2
BITMAP
0820
ff20
0020
7efc
4224
7e24
00a4
7e64
0434
ff55
0887
3802
0000
2444
6666
c223
ENDCHAR
STARTCHAR ch-424
ENCODING 424
SWIDTH 1000 0
DWIDTH 16 0
BBX 16 16 0 -2
BITMAP
0004
7f04
4104
7f7f
4004
5f44
4064
5f24
c404
951c
2c80
010c
3398
66c0
1c70
f01f
ENDCHAR
STARTCHAR ch-428
ENCODING 428
SWIDTH 1000 0
DWIDTH 16 0
BBX 16 16 0 -2
BITMAP
0810
0810
7f1f
0832
ffa2
0866
7f14
101c
1f08
311c
6136
c763
0000
2444
6666
c223
ENDCHAR
STARTCHAR ch-433
ENCODING 433
SWIDTH 1000 0
DWIDTH 16 0
BBX 16 16 0 -2
BITMAP
0810
0810
7f10
087c
ff94
2214
4b94
be74
0824
1f75
f0d3
0000
0000
2444
6666
c223
ENDCHAR
STARTCHAR ch-441
ENCODING 441
SWIDTH 1000 0
DWIDTH 16 0
BBX 16 16 0 -2
BITMAP
0100
7ffe
0100
1ff8
0000
1ff8
1008
1ff8
0420
ffff
0000
1ff8
1008
1ff8
2444
c223
ENDCHAR
STARTCHAR ch-446
ENCODING 446
SWIDTH 1000 0
DWIDTH 16 0
BBX 16 16 0 -2
BITMAP
2088
208a
23eb
2809
aa28
b148
a7ff
a008
23ea
222a
222e
73e4
5224
5a25
cbef
801a
ENDCHAR
STARTCHAR ch-451
ENCODING 451
SWIDTH 1000 0
DWIDTH 16 0
BBX 16 16 0 -2
BITMAP
220a
2209
2bc8
aa7f
b548
a4c8
aa9c
2194
2336
2663
2000
7000
5a92
4a92
c6db
8449
ENDCHAR
STARTCHAR ch-456
ENCODING 456
SWIDTH 1000 0
DWIDTH 16 0
BBX 16 16 0 -2
BITMAP
21e4
2228
2171
28da
a98c
ab76
a603
a1fc
2104
2104
71fc
5088
58d8
4850
c7ff
8000
ENDCHAR
STARTCHAR ch-457
ENCODING 457
SWIDTH 1000 0
DWIDTH 16 0
BBX 16 16 0 -2
BITMAP
2108
2108
27c8
281f
b7d2
a46a
a7ca
a00a
27ce
2084
2104
71ce
570a
590a
c91b
8311
ENDCHAR
STARTCHAR ch-462
ENCODING 462
SWIDTH 1000 0
DWIDTH 16 0
BBX 16 16 0 -2
BITMAP
1020
1020
13ff
1448
554a
5484
d1fe
9285
10fc
1084
38fc
2820
2ca4
65a6
4323
c0e0
ENDCHAR
STARTCHAR ch-464
ENCODING 464
SWIDTH 1000 0
DWIDTH 16 0
BBX 16 16 0 -2
BITMAP
2222
2124
2820
abfe
a8a8
b1ac
a326
2623
21c4
217e
2254
6554
50bf
4984
c304
8604
ENDCHAR
STARTCHAR ch-466
ENCODING 466
SWIDTH 1000 0
DWIDTH 16 0
BBX 16 16 0 -2
BITMAP
2020
21fc
2020
2bfe
a800
b104
a7df
a104
21c4
271f
2000
77ff
5088
5889
c989
8307
ENDCHAR
STARTCHAR ch-468
ENCODING 468
SWIDTH 1000 0
DWIDTH 16 0
BBX 16 16 0 -2
BITMAP
100c
1038
13e0
1524
54a8
5bff
d0a8
91ac
1326
1603
39fc
2924
2dfc
6524
4124
c1fc
ENDCHAR
STARTCHAR ch-469
ENCODING 469
SWIDTH 1000 0
DWIDTH 16 0
BBX 16 16 0 -2
BITMAP
0420
0420
ffff
0420
07e0
1009
f3ca
124c
1248
1249
73c9
d00f
0000
2444
6666
c223
ENDCHAR
STARTCHAR ch-471
ENCODING 471
SWIDTH 1000 0
DWIDTH 16 0
BBX 16 16 0 -2
BITMAP
2000
27df
2451
2fdf
b451
a7df
a401
a4f9
2489
2489
24f9
7489
5489
4cf9
c401
8407
ENDCHAR
STARTCHAR ch-479
ENCODING 479
SWIDTH 1000 0
DWIDTH 16 0
BBX 16 16 0 -2
BITMAP
0810
2952
2a54
1428
2244
ffff
8001
9ff9
1008
1008
1ff8
0100
3ffc
2004
2004
3ffc
ENDCHAR
STARTCHAR ch-480
ENCODING 480
SWIDTH 1000 0
DWIDTH 16 0
BBX 16 16 0 -2
BITMAP
2020
2040
23fe
2a02
aaaa
aa22
a2fa
a272
22aa
2222
2242
77ff
5050
58d8
c98c
8307
ENDCHAR
STARTCHAR ch-485
ENCODING 485
SWIDTH 1000 0
DWIDTH 16 0
BBX 16 16 0 -2
BITMAP
10f8
1088
1488
54f8
5400
53de
d252
9252
13de
1020
3bff
2ca8
25ac
6326
4623
c020
ENDCHAR
STARTCHAR ch-486
ENCODING 486
SWIDTH 1000 0
DWIDTH 16 0
BBX 16 16 0 -2
BITMAP
2100
21de
2102
2bd4
b248
a554
a0a3
2300
2d24
20a8
27ff
70a8
59ac
4b26
c623
8020
ENDCHAR
STARTCHAR ch-487
ENCODING 487
SWIDTH 1000 0
DWIDTH 16 0
BBX 16 16 0 -2
BITMAP
2042
2466
2624
22ff
a820
a851
b093
a02a
2e48
229c
222a
7249
5288
4a30
c700
8cff
ENDCHAR
STARTCHAR ch-492
ENCODING 492
SWIDTH 1000 0
DWIDTH 16 0
BBX 16 16 0 -2
BITMAP
2200
26dc
2454
2454
aed4
b467
a440
a7fe
2112
2116
27d4
711c
5908
49dc
c736
8063
ENDCHAR
STARTCHAR ch-493
ENCODING 493
SWIDTH 1000 0
DWIDTH 16 0
BBX 16 16 0 -2
BITMAP
1000
11ff
1149
1549
55ff
5480
d1ff
9321
11fd
1125
39fd
2821
2c29
647b
41ca
c006
ENDCHAR
STARTCHAR ch-494
ENCODING 494
SWIDTH 1000 0
DWIDTH 16 0
BBX 16 16 0 -2
BITMAP
23c4
2004
aff5
a005
abd5
2814
23c4
700e
53ca
524a
dbdb
0000
7ff8
0810
07e0
fc3f
ENDCHAR
STARTCHAR ch-501
ENCODING 501
SWIDTH 1000 0
DWIDTH 16 0
BBX 16 16 0 -2
BITMAP
2010
2410
26fe
2210
a9ff
a844
b028
a0fe
2e10
22fe
2210
73ff
5210
4a10
c700
8cff
ENDCHAR
STARTCHAR ch-505
ENCODING 505
SWIDTH 1000 0
DWIDTH 16 0
BBX 16 16 0 -2
BITMAP
0000
fe7f
1008
2211
d46a
2814
dc6e
2a15
c864
391c
0100
138c
32d8
2660
1c38
f00f
ENDCHAR
STARTCHAR ch-507
ENCODING 507
SWIDTH 1000 0
DWIDTH 16 0
BBX 16 16 0 -2
BITMAP
101c
11f0
1420
17ff
5820
51fc
d124
91fc
1124
11fc
3820
2bfe
2820
67ff
4292
c449
ENDCHAR
STARTCHAR ch-508
ENCODING 508
SWIDTH 1000 0
DWIDTH 16 0
BBX 16 16 0 -2
BITMAP
1010
10fe
1012
15ff
5412
54fe
d010
91ff
10aa
1129
3800
28fe
2caa
64aa
40aa
c1ff
ENDCHAR
STARTCHAR ch-511
ENCODING 511
SWIDTH 1000 0
DWIDTH 16 0
BBX 16 16 0 -2
BITMAP
2000
23de
2042
2bde
a842
abde
a088
a110
23ff
2510
21fe
7110
51fe
5910
c910
81ff
ENDCHAR
ENDFONT
