STARTFONT 2.1
FONT jis.jis5200.16
SIZE 16 72 72
FONTBOUNDINGBOX 16 16 0 -2
STARTPROPERTIES 4
FONT_DESCENT 2
FONT_ASCENT 14
DEFAULT_CHAR 0
COPYRIGHT "Copyright (c) 1992 AT&T - All rights reserved."
ENDPROPERTIES
CHARS 216
STARTCHAR ch-0
ENCODING 0
SWIDTH 1000 0
DWIDTH 16 0
BBX 16 16 0 -2
BITMAP
0000
0000
7ffe
0202
0202
0202
0202
0602
0402
0402
0c02
0806
1804
3004
e03c
0000
ENDCHAR
STARTCHAR ch-3
ENCODING 3
SWIDTH 1000 0
DWIDTH 16 0
BBX 16 16 0 -2
BITMAP
0000
0000
7ffe
0102
0102
1902
0d02
0702
0202
0702
0582
0c86
1804
3004
e03c
0000
ENDCHAR
STARTCHAR ch-4
ENCODING 4
SWIDTH 1000 0
DWIDTH 16 0
BBX 16 16 0 -2
BITMAP
0000
7ffc
0104
0104
2104
3304
1a04
0e04
070c
0588
0ce8
0838
181f
3030
6020
c0e0
ENDCHAR
STARTCHAR ch-6
ENCODING 6
SWIDTH 1000 0
DWIDTH 16 0
BBX 16 16 0 -2
BITMAP
0420
0420
0c30
0810
1818
300c
6006
dffb
0208
0208
0208
0608
0408
0c18
1810
7070
ENDCHAR
STARTCHAR ch-7
ENCODING 7
SWIDTH 1000 0
DWIDTH 16 0
BBX 16 16 0 -2
BITMAP
2000
23fe
2042
2042
2642
3c42
e042
2042
2042
20c2
2282
2682
1d86
0104
0304
061c
ENDCHAR
STARTCHAR ch-8
ENCODING 8
SWIDTH 1000 0
DWIDTH 16 0
BBX 16 16 0 -2
BITMAP
0102
0112
0112
0112
6312
3212
1a12
0e12
0412
0e12
0b12
1902
1182
3082
6002
c00e
ENDCHAR
STARTCHAR ch-10
ENCODING 10
SWIDTH 1000 0
DWIDTH 16 0
BBX 16 16 0 -2
BITMAP
0002
7f22
0822
0822
0822
0822
ffa2
0822
0822
0822
0822
0802
0802
0802
0802
080e
ENDCHAR
STARTCHAR ch-11
ENCODING 11
SWIDTH 1000 0
DWIDTH 16 0
BBX 16 16 0 -2
BITMAP
0182
0f22
f822
0822
0822
0822
ffa2
0822
0822
0822
0822
1802
1002
3002
6002
c00e
ENDCHAR
STARTCHAR ch-14
ENCODING 14
SWIDTH 1000 0
DWIDTH 16 0
BBX 16 16 0 -2
BITMAP
2002
2012
3f92
2a92
6a92
4a92
da92
1292
3692
2492
6c92
c892
1982
3102
6102
070e
ENDCHAR
STARTCHAR ch-17
ENCODING 17
SWIDTH 1000 0
DWIDTH 16 0
BBX 16 16 0 -2
BITMAP
0002
ffa2
2222
2222
2222
2222
ffa2
2222
2222
2222
2222
2202
2202
6202
4202
c20e
ENDCHAR
STARTCHAR ch-20
ENCODING 20
SWIDTH 1000 0
DWIDTH 16 0
BBX 16 16 0 -2
BITMAP
0802
0812
0812
7f12
0912
0912
0912
0912
ffd2
1412
1412
1602
3202
2302
6182
c00e
ENDCHAR
STARTCHAR ch-23
ENCODING 23
SWIDTH 1000 0
DWIDTH 16 0
BBX 16 16 0 -2
BITMAP
0002
7fd2
0812
0812
0812
0f92
1892
1092
3992
6d12
0712
0202
0602
0c02
3802
e00e
ENDCHAR
STARTCHAR ch-29
ENCODING 29
SWIDTH 1000 0
DWIDTH 16 0
BBX 16 16 0 -2
BITMAP
1000
1000
11fe
fc22
0422
0c22
1822
1222
3622
7c62
d642
1242
10c6
1084
1184
131c
ENDCHAR
STARTCHAR ch-36
ENCODING 36
SWIDTH 1000 0
DWIDTH 16 0
BBX 16 16 0 -2
BITMAP
0802
88a2
c9a2
4922
0822
ffa2
0822
0822
0822
ffa2
0822
0822
0802
0802
0802
080e
ENDCHAR
STARTCHAR ch-37
ENCODING 37
SWIDTH 1000 0
DWIDTH 16 0
BBX 16 16 0 -2
BITMAP
0002
7f22
4122
4122
4122
7f22
1022
1022
1f22
1122
1122
1102
3102
2302
6202
ce0e
ENDCHAR
STARTCHAR ch-39
ENCODING 39
SWIDTH 1000 0
DWIDTH 16 0
BBX 16 16 0 -2
BITMAP
0800
087e
0812
7f12
0812
0812
0812
ff92
1012
1012
1212
3232
2226
2f24
7964
00dc
ENDCHAR
STARTCHAR ch-41
ENCODING 41
SWIDTH 1000 0
DWIDTH 16 0
BBX 16 16 0 -2
BITMAP
0302
0e02
f822
0822
0822
ff22
0822
1c22
1a22
2922
6822
c802
0802
0802
0802
080e
ENDCHAR
STARTCHAR ch-42
ENCODING 42
SWIDTH 1000 0
DWIDTH 16 0
BBX 16 16 0 -2
BITMAP
0002
7f12
5512
5512
5512
5512
5512
ff92
5512
5512
5512
5502
5502
5502
5502
430e
ENDCHAR
STARTCHAR ch-46
ENCODING 46
SWIDTH 1000 0
DWIDTH 16 0
BBX 16 16 0 -2
BITMAP
0302
0e12
7812
0812
0812
0812
ff92
0812
0812
0812
7f12
4102
4102
4102
4102
7f0e
ENDCHAR
STARTCHAR ch-48
ENCODING 48
SWIDTH 1000 0
DWIDTH 16 0
BBX 16 16 0 -2
BITMAP
0002
ffa2
2022
2122
6122
4fa2
f8a2
0822
0822
7f22
0822
0802
0802
0f82
3802
e00e
ENDCHAR
STARTCHAR ch-51
ENCODING 51
SWIDTH 1000 0
DWIDTH 16 0
BBX 16 16 0 -2
BITMAP
0802
0812
ff92
1412
2212
c192
0012
3e12
0012
ff92
1012
3f02
0102
0102
0302
0e0e
ENDCHAR
STARTCHAR ch-54
ENCODING 54
SWIDTH 1000 0
DWIDTH 16 0
BBX 16 16 0 -2
BITMAP
0402
2412
2412
7fd2
c412
0412
fff2
0412
0412
7fd2
4452
4452
4442
4442
44c2
040e
ENDCHAR
STARTCHAR ch-55
ENCODING 55
SWIDTH 1000 0
DWIDTH 16 0
BBX 16 16 0 -2
BITMAP
0002
7f92
4092
4092
7f92
4412
4412
5f92
5492
5492
5492
5482
d482
9582
8402
040e
ENDCHAR
STARTCHAR ch-56
ENCODING 56
SWIDTH 1000 0
DWIDTH 16 0
BBX 16 16 0 -2
BITMAP
1108
1918
0910
3ffc
0280
0240
ffff
0c30
1818
3ffc
e217
0610
0410
0c30
1820
70e0
ENDCHAR
STARTCHAR ch-57
ENCODING 57
SWIDTH 1000 0
DWIDTH 16 0
BBX 16 16 0 -2
BITMAP
0202
4622
2c22
1822
3422
e322
0822
0822
ff22
0822
1c22
3a02
6902
c802
0802
080e
ENDCHAR
STARTCHAR ch-58
ENCODING 58
SWIDTH 1000 0
DWIDTH 16 0
BBX 16 16 0 -2
BITMAP
0802
0812
ff92
0812
0812
ff92
8892
8892
8992
1c12
1a12
2b02
6982
c802
0802
080e
ENDCHAR
STARTCHAR ch-59
ENCODING 59
SWIDTH 1000 0
DWIDTH 16 0
BBX 16 16 0 -2
BITMAP
0802
0802
0822
ffa2
1022
3022
6222
c622
6c22
1922
3322
6602
cc02
1b02
3182
e08e
ENDCHAR
STARTCHAR ch-67
ENCODING 67
SWIDTH 1000 0
DWIDTH 16 0
BBX 16 16 0 -2
BITMAP
4102
2212
ff92
0892
0892
7f92
4812
4812
7fd2
0852
1852
18c2
2882
6b82
c802
080e
ENDCHAR
STARTCHAR ch-68
ENCODING 68
SWIDTH 1000 0
DWIDTH 16 0
BBX 16 16 0 -2
BITMAP
0002
ffd2
0012
2492
4912
9212
4912
2492
0012
7f92
0812
0802
0802
0b82
3e02
e00e
ENDCHAR
STARTCHAR ch-71
ENCODING 71
SWIDTH 1000 0
DWIDTH 16 0
BBX 16 16 0 -2
BITMAP
0002
7e22
4222
4222
7e22
4222
4222
4222
7e22
4222
4222
4202
7e02
2402
6602
c30e
ENDCHAR
STARTCHAR ch-74
ENCODING 74
SWIDTH 1000 0
DWIDTH 16 0
BBX 16 16 0 -2
BITMAP
8882
c9a2
4922
0822
7f22
4122
4122
7f22
4122
4122
7f22
4102
4102
4102
4102
470e
ENDCHAR
STARTCHAR ch-75
ENCODING 75
SWIDTH 1000 0
DWIDTH 16 0
BBX 16 16 0 -2
BITMAP
0804
0824
ffa4
0824
0824
7f24
4124
4124
4124
7f24
1404
1404
341c
2401
6603
c3fe
ENDCHAR
STARTCHAR ch-76
ENCODING 76
SWIDTH 1000 0
DWIDTH 16 0
BBX 16 16 0 -2
BITMAP
0802
0812
ff92
0812
7f12
4912
4912
4912
7f12
0812
1812
1c02
2a02
6902
c802
080e
ENDCHAR
STARTCHAR ch-77
ENCODING 77
SWIDTH 1000 0
DWIDTH 16 0
BBX 16 16 0 -2
BITMAP
0810
0c30
0420
ffff
0000
3e04
2244
2244
3e44
2244
2244
3e44
2244
2204
2204
261c
ENDCHAR
STARTCHAR ch-79
ENCODING 79
SWIDTH 1000 0
DWIDTH 16 0
BBX 16 16 0 -2
BITMAP
4200
66fe
2412
ff12
2412
2452
2452
ff72
2426
2424
2434
242c
2467
644c
44c8
c5b8
ENDCHAR
STARTCHAR ch-84
ENCODING 84
SWIDTH 1000 0
DWIDTH 16 0
BBX 16 16 0 -2
BITMAP
0002
7f12
4112
7f12
4112
4112
7f12
2012
3f92
6a92
d292
1482
2482
4982
1102
070e
ENDCHAR
STARTCHAR ch-86
ENCODING 86
SWIDTH 1000 0
DWIDTH 16 0
BBX 16 16 0 -2
BITMAP
0802
0812
7f92
2112
3312
1212
1212
ffd2
0012
0012
3f12
2102
2102
2102
2102
3f0e
ENDCHAR
STARTCHAR ch-91
ENCODING 91
SWIDTH 1000 0
DWIDTH 16 0
BBX 16 16 0 -2
BITMAP
0002
ff92
8092
a292
9492
8092
be92
8892
8892
aa92
aa92
aa82
be82
8082
8082
838e
ENDCHAR
STARTCHAR ch-94
ENCODING 94
SWIDTH 1000 0
DWIDTH 16 0
BBX 16 16 0 -2
BITMAP
0802
0812
ff92
1412
2212
4112
0012
ffd2
0112
7912
4912
4902
7902
0102
0102
070e
ENDCHAR
STARTCHAR ch-99
ENCODING 99
SWIDTH 1000 0
DWIDTH 16 0
BBX 16 16 0 -2
BITMAP
0402
0e12
1b12
3192
60d2
df12
0412
7fd2
4452
4452
7fd2
0402
0e02
1b02
3182
e0ce
ENDCHAR
STARTCHAR ch-100
ENCODING 100
SWIDTH 1000 0
DWIDTH 16 0
BBX 16 16 0 -2
BITMAP
0402
0412
fff2
2092
1b12
0e12
3b92
e0f2
2092
3f92
2092
3f82
2082
6082
4082
c08e
ENDCHAR
STARTCHAR ch-101
ENCODING 101
SWIDTH 1000 0
DWIDTH 16 0
BBX 16 16 0 -2
BITMAP
0002
7e12
0212
7e12
0212
0212
ff92
0812
4912
6b12
2a12
1c02
2a02
6b02
c982
380e
ENDCHAR
STARTCHAR ch-105
ENCODING 105
SWIDTH 1000 0
DWIDTH 16 0
BBX 16 16 0 -2
BITMAP
0302
7e12
0812
ff92
0812
2a92
eb12
2a12
6a92
a992
1812
1c02
2a02
6902
c802
080e
ENDCHAR
STARTCHAR ch-106
ENCODING 106
SWIDTH 1000 0
DWIDTH 16 0
BBX 16 16 0 -2
BITMAP
0810
0420
ffff
0000
3e44
2244
3e44
2244
3e44
2204
261c
0000
fffe
0202
0c06
f01c
ENDCHAR
STARTCHAR ch-111
ENCODING 111
SWIDTH 1000 0
DWIDTH 16 0
BBX 16 16 0 -2
BITMAP
0002
ffd2
0012
3f12
2112
2112
3f12
0012
0012
7f92
4892
4882
7f82
4882
4882
7f8e
ENDCHAR
STARTCHAR ch-112
ENCODING 112
SWIDTH 1000 0
DWIDTH 16 0
BBX 16 16 0 -2
BITMAP
0382
3e12
0412
7fd2
2492
2492
fff2
2492
2492
7fd2
1412
1712
3582
64c2
c402
040e
ENDCHAR
STARTCHAR ch-113
ENCODING 113
SWIDTH 1000 0
DWIDTH 16 0
BBX 16 16 0 -2
BITMAP
0800
1c7e
3612
e392
3e12
0812
7f52
4932
4912
491a
7f16
1413
3412
2636
6224
c36c
ENDCHAR
STARTCHAR ch-114
ENCODING 114
SWIDTH 1000 0
DWIDTH 16 0
BBX 16 16 0 -2
BITMAP
0802
0812
ff92
8092
8892
7f12
0812
7f12
0812
ff92
0012
7f02
4102
4102
4102
7f0e
ENDCHAR
STARTCHAR ch-115
ENCODING 115
SWIDTH 1000 0
DWIDTH 16 0
BBX 16 16 0 -2
BITMAP
2202
2212
ff92
2212
0812
1c12
3612
e392
0012
3e12
0012
7f02
4102
4102
4102
7f0e
ENDCHAR
STARTCHAR ch-116
ENCODING 116
SWIDTH 1000 0
DWIDTH 16 0
BBX 16 16 0 -2
BITMAP
0802
4912
4912
7f12
0012
ff92
0012
7f12
4112
4112
7f12
2202
3202
1782
3c02
e00e
ENDCHAR
STARTCHAR ch-117
ENCODING 117
SWIDTH 1000 0
DWIDTH 16 0
BBX 16 16 0 -2
BITMAP
0402
0e12
1b12
3192
6ed2
c012
3f92
2092
3f92
2092
3f92
2012
7f82
5082
d082
1f8e
ENDCHAR
STARTCHAR ch-125
ENCODING 125
SWIDTH 1000 0
DWIDTH 16 0
BBX 16 16 0 -2
BITMAP
0002
ffea
120a
7fca
524a
524a
7fca
000a
7fca
000a
ffea
0402
2482
64c2
c462
1c0e
ENDCHAR
STARTCHAR ch-127
ENCODING 127
SWIDTH 1000 0
DWIDTH 16 0
BBX 16 16 0 -2
BITMAP
4882
6d92
2512
7f92
4892
7f92
4892
4892
7f92
0812
ffd2
2a12
2b02
6982
c8c2
080e
ENDCHAR
STARTCHAR ch-131
ENCODING 131
SWIDTH 1000 0
DWIDTH 16 0
BBX 16 16 0 -2
BITMAP
0802
7f92
0892
ffd2
0892
7f92
0812
7f92
0812
ffd2
4892
7f82
4882
7f82
0002
ffce
ENDCHAR
STARTCHAR ch-135
ENCODING 135
SWIDTH 1000 0
DWIDTH 16 0
BBX 16 16 0 -2
BITMAP
0802
0f92
0812
7f92
4892
4e12
7892
4f92
4012
7f92
4812
5482
6b02
d682
8a42
360e
ENDCHAR
STARTCHAR ch-136
ENCODING 136
SWIDTH 1000 0
DWIDTH 16 0
BBX 16 16 0 -2
BITMAP
0008
3e08
227f
2222
3e14
207f
7e08
527f
d208
1e08
0000
fffe
0202
0602
1c06
f01c
ENDCHAR
STARTCHAR ch-137
ENCODING 137
SWIDTH 1000 0
DWIDTH 16 0
BBX 16 16 0 -2
BITMAP
1002
6782
4292
5292
7492
c992
1c12
3612
e392
3e12
0812
ff82
0902
4a02
2f82
f80e
ENDCHAR
STARTCHAR ch-141
ENCODING 141
SWIDTH 1000 0
DWIDTH 16 0
BBX 16 16 0 -2
BITMAP
0402
0e12
1b12
3192
e0f2
1f12
0012
7bd2
4a52
4a52
7bd2
0002
2082
2082
71c2
db66
ENDCHAR
STARTCHAR ch-145
ENCODING 145
SWIDTH 1000 0
DWIDTH 16 0
BBX 16 16 0 -2
BITMAP
0401
0409
ffe9
0a09
f5e9
5549
5549
b5a9
0009
2089
3f89
2081
3f81
6081
4081
c087
ENDCHAR
STARTCHAR ch-146
ENCODING 146
SWIDTH 1000 0
DWIDTH 16 0
BBX 16 16 0 -2
BITMAP
0800
1c7f
3609
6309
c189
3e09
0029
7719
550d
5509
7709
0019
2213
2212
7732
d56e
ENDCHAR
STARTCHAR ch-148
ENCODING 148
SWIDTH 1000 0
DWIDTH 16 0
BBX 16 16 0 -2
BITMAP
0800
1c7e
3612
6312
c192
3e12
0052
7732
5512
551a
7716
0013
2212
2236
7724
d56c
ENDCHAR
STARTCHAR ch-155
ENCODING 155
SWIDTH 1000 0
DWIDTH 16 0
BBX 16 16 0 -2
BITMAP
0100
0100
0100
0100
7ffe
0102
0102
0102
0302
0202
0202
0602
0406
0c04
1804
703c
ENDCHAR
STARTCHAR ch-159
ENCODING 159
SWIDTH 1000 0
DWIDTH 16 0
BBX 16 16 0 -2
BITMAP
0040
0040
0040
fc40
13fe
1042
1042
1042
1042
10c2
1c82
7082
c186
0104
0304
061c
ENDCHAR
STARTCHAR ch-160
ENCODING 160
SWIDTH 1000 0
DWIDTH 16 0
BBX 16 16 0 -2
BITMAP
1000
1000
103e
1022
ff22
1122
1122
1122
1122
1122
3122
2122
2322
6222
423e
c600
ENDCHAR
STARTCHAR ch-163
ENCODING 163
SWIDTH 1000 0
DWIDTH 16 0
BBX 16 16 0 -2
BITMAP
0100
0910
1918
310c
e127
0760
01c0
0f00
f800
0100
7ffc
0204
0604
0c0c
3808
e038
ENDCHAR
STARTCHAR ch-169
ENCODING 169
SWIDTH 1000 0
DWIDTH 16 0
BBX 16 16 0 -2
BITMAP
0020
7c20
4420
4420
45fe
7c22
4422
4422
4422
7c62
4442
4442
44c6
7e84
c184
031c
ENDCHAR
STARTCHAR ch-170
ENCODING 170
SWIDTH 1000 0
DWIDTH 16 0
BBX 16 16 0 -2
BITMAP
0800
0800
fffe
1142
3366
222c
7e18
0b6c
3007
c100
3ffc
0104
0304
060c
1c08
7038
ENDCHAR
STARTCHAR ch-171
ENCODING 171
SWIDTH 1000 0
DWIDTH 16 0
BBX 16 16 0 -2
BITMAP
0810
0810
0810
7f10
087f
0811
0811
0811
ff91
1011
1011
3231
2223
2f22
7962
c0ce
ENDCHAR
STARTCHAR ch-172
ENCODING 172
SWIDTH 1000 0
DWIDTH 16 0
BBX 16 16 0 -2
BITMAP
2010
2010
2010
7f10
41ff
c111
7911
4911
4911
4911
4911
7931
0121
0323
0262
0ece
ENDCHAR
STARTCHAR ch-173
ENCODING 173
SWIDTH 1000 0
DWIDTH 16 0
BBX 16 16 0 -2
BITMAP
0010
ff10
1110
1110
317f
2311
6211
ce11
0011
7e11
4211
4231
4221
4223
4262
7ece
ENDCHAR
STARTCHAR ch-177
ENCODING 177
SWIDTH 1000 0
DWIDTH 16 0
BBX 16 16 0 -2
BITMAP
0010
7f90
4010
4010
7f7e
4812
4812
4f12
4912
4912
4912
4932
c926
9b24
9264
36cc
ENDCHAR
STARTCHAR ch-180
ENCODING 180
SWIDTH 1000 0
DWIDTH 16 0
BBX 16 16 0 -2
BITMAP
2102
3186
108c
0008
7ffe
4002
4102
0100
3ffc
0104
0304
0204
0604
0c0c
1808
7038
ENDCHAR
STARTCHAR ch-181
ENCODING 181
SWIDTH 1000 0
DWIDTH 16 0
BBX 16 16 0 -2
BITMAP
1108
1918
0910
7ffe
0240
0420
ffff
0810
310c
e107
1ff8
0208
0608
0c18
1810
7070
ENDCHAR
STARTCHAR ch-185
ENCODING 185
SWIDTH 1000 0
DWIDTH 16 0
BBX 16 16 0 -2
BITMAP
0810
0810
0810
ff90
227f
6311
c191
2211
3611
1411
1c31
0821
1c23
3662
6242
c0ce
ENDCHAR
STARTCHAR ch-188
ENCODING 188
SWIDTH 1000 0
DWIDTH 16 0
BBX 16 16 0 -2
BITMAP
1010
1010
1010
ff10
10ff
1011
1011
7e11
0011
0011
7e11
4231
4221
4223
4262
7ece
ENDCHAR
STARTCHAR ch-190
ENCODING 190
SWIDTH 1000 0
DWIDTH 16 0
BBX 16 16 0 -2
BITMAP
0810
0810
0810
ff90
107f
3011
6211
3611
0c11
1911
3311
c631
0c23
1a22
3162
c0ce
ENDCHAR
STARTCHAR ch-193
ENCODING 193
SWIDTH 1000 0
DWIDTH 16 0
BBX 16 16 0 -2
BITMAP
0010
ff10
0010
4910
497f
9211
9211
4911
4911
0011
ff11
1031
1021
1723
3c62
e0ce
ENDCHAR
STARTCHAR ch-195
ENCODING 195
SWIDTH 1000 0
DWIDTH 16 0
BBX 16 16 0 -2
BITMAP
0810
0810
ff90
0810
087e
ff92
8092
be92
0212
0432
0fa2
f822
0866
0844
08c4
399c
ENDCHAR
STARTCHAR ch-197
ENCODING 197
SWIDTH 1000 0
DWIDTH 16 0
BBX 16 16 0 -2
BITMAP
0810
0810
ff90
0810
7f7f
4911
4911
4911
7f11
1811
1c11
2a31
2921
4863
88c2
098e
ENDCHAR
STARTCHAR ch-199
ENCODING 199
SWIDTH 1000 0
DWIDTH 16 0
BBX 16 16 0 -2
BITMAP
3ff8
0430
02c0
3ffc
2104
2104
3ffc
2104
2104
3ffc
0100
fffe
0202
0602
1c06
701c
ENDCHAR
STARTCHAR ch-201
ENCODING 201
SWIDTH 1000 0
DWIDTH 16 0
BBX 16 16 0 -2
BITMAP
2010
3e10
2210
66fe
4412
ff12
4932
4922
4922
7f66
1444
14c4
359c
2401
6603
c3fe
ENDCHAR
STARTCHAR ch-205
ENCODING 205
SWIDTH 1000 0
DWIDTH 16 0
BBX 16 16 0 -2
BITMAP
0810
0810
0810
ff90
007f
7f11
4111
4111
4111
7f11
0811
2a31
6b21
c9a3
0862
38ce
ENDCHAR
STARTCHAR ch-210
ENCODING 210
SWIDTH 1000 0
DWIDTH 16 0
BBX 16 16 0 -2
BITMAP
2210
2210
ff90
2210
227f
3e11
0811
7f11
4911
4911
7f31
0821
ffa3
0862
0842
08ce
ENDCHAR
STARTCHAR ch-213
ENCODING 213
SWIDTH 1000 0
DWIDTH 16 0
BBX 16 16 0 -2
BITMAP
0710
7c10
0810
ff90
087f
7f11
4911
7f11
4911
7f11
0811
7f31
0821
0f63
38c2
e18e
ENDCHAR
STARTCHAR ch-215
ENCODING 215
SWIDTH 1000 0
DWIDTH 16 0
BBX 16 16 0 -2
BITMAP
1ff8
1008
1ff8
1008
1ff8
0000
0010
7e10
42ff
7e11
4211
7e31
4221
7f63
c0c2
018e
ENDCHAR
STARTCHAR ch-216
ENCODING 216
SWIDTH 1000 0
DWIDTH 16 0
BBX 16 16 0 -2
BITMAP
2210
2210
ff90
2210
3e7f
2211
3e11
2211
ff91
5411
5431
5721
6023
4062
7f42
00ce
ENDCHAR
STARTCHAR ch-217
ENCODING 217
SWIDTH 1000 0
DWIDTH 16 0
BBX 16 16 0 -2
BITMAP
0040
fe40
04ff
2884
314c
1058
fe30
126c
1587
3020
31fe
5022
5062
9046
10c4
739c
ENDCHAR
STARTCHAR ch-221
ENCODING 221
SWIDTH 1000 0
DWIDTH 16 0
BBX 16 16 0 -2
BITMAP
0040
7a44
4948
4840
4bfe
7890
4890
4fff
490c
7b46
4e43
49fc
4844
48c4
c984
9b1c
ENDCHAR
STARTCHAR ch-222
ENCODING 222
SWIDTH 1000 0
DWIDTH 16 0
BBX 16 16 0 -2
BITMAP
0810
2952
4a54
1c38
366c
62c6
0000
ffff
8101
8101
3ffc
0204
0604
0c0c
3808
e038
ENDCHAR
STARTCHAR ch-223
ENCODING 223
SWIDTH 1000 0
DWIDTH 16 0
BBX 16 16 0 -2
BITMAP
0420
ffff
0420
1ff8
1008
1ff8
1008
1ff8
0200
ffff
0810
310c
dffb
0208
0e08
7838
ENDCHAR
STARTCHAR ch-224
ENCODING 224
SWIDTH 1000 0
DWIDTH 16 0
BBX 16 16 0 -2
BITMAP
0008
f788
1088
9488
52bf
9489
0889
1409
2209
c989
1209
6489
1919
6213
0c32
706e
ENDCHAR
STARTCHAR ch-226
ENCODING 226
SWIDTH 1000 0
DWIDTH 16 0
BBX 16 16 0 -2
BITMAP
0810
7f10
0810
fffc
2214
4b94
8874
7f24
0835
0f55
f803
0100
7ffe
0202
0c06
f01c
ENDCHAR
STARTCHAR ch-227
ENCODING 227
SWIDTH 1000 0
DWIDTH 16 0
BBX 16 16 0 -2
BITMAP
0810
7f10
0810
7f10
087f
ff91
0011
7f11
4111
7f11
4111
7f11
4133
7f22
2222
c16e
ENDCHAR
STARTCHAR ch-228
ENCODING 228
SWIDTH 1000 0
DWIDTH 16 0
BBX 16 16 0 -2
BITMAP
2210
2210
ff90
2210
00ff
7f11
4911
4911
7f11
0811
7f31
0821
7f23
0862
0f42
f8ce
ENDCHAR
STARTCHAR ch-230
ENCODING 230
SWIDTH 1000 0
DWIDTH 16 0
BBX 16 16 0 -2
BITMAP
9110
db10
4a10
7f10
497f
7f11
4911
4911
7f11
0811
ff91
1c11
2a31
6923
c862
08ce
ENDCHAR
STARTCHAR ch-231
ENCODING 231
SWIDTH 1000 0
DWIDTH 16 0
BBX 16 16 0 -2
BITMAP
2010
2010
7f90
4810
887f
7f91
1211
2411
7f91
a431
3f21
2421
3f63
2442
3fc2
008e
ENDCHAR
STARTCHAR ch-242
ENCODING 242
SWIDTH 1000 0
DWIDTH 16 0
BBX 16 16 0 -2
BITMAP
0310
7e10
0810
ff90
087f
7f11
4911
7f11
4911
7f31
0823
7f22
0866
ff80
4422
8211
ENDCHAR
STARTCHAR ch-243
ENCODING 243
SWIDTH 1000 0
DWIDTH 16 0
BBX 16 16 0 -2
BITMAP
0310
7e10
0810
ff90
087f
7f11
4911
7f11
4911
7f11
0811
7f11
0831
ffa3
5562
94ce
ENDCHAR
STARTCHAR ch-245
ENCODING 245
SWIDTH 1000 0
DWIDTH 16 0
BBX 16 16 0 -2
BITMAP
0008
7fc8
4908
7fc8
493f
5f89
5489
5f89
5489
5f89
4409
ffc9
a549
a749
2d51
20d3
ENDCHAR
STARTCHAR ch-248
ENCODING 248
SWIDTH 1000 0
DWIDTH 16 0
BBX 16 16 0 -2
BITMAP
2210
ff90
2210
7710
557f
7711
0011
2411
7f11
c811
7f11
4811
7f31
4823
7f62
00ce
ENDCHAR
STARTCHAR ch-249
ENCODING 249
SWIDTH 1000 0
DWIDTH 16 0
BBX 16 16 0 -2
BITMAP
1000
1000
1ffe
3002
2002
6002
c002
0002
0002
0002
0006
0004
0004
000c
0008
0038
ENDCHAR
STARTCHAR ch-250
ENCODING 250
SWIDTH 1000 0
DWIDTH 16 0
BBX 16 16 0 -2
BITMAP
0800
0800
0800
1ffe
1002
3002
6002
ce02
0302
0182
0082
0002
0006
0004
000c
0078
ENDCHAR
STARTCHAR ch-254
ENCODING 254
SWIDTH 1000 0
DWIDTH 16 0
BBX 16 16 0 -2
BITMAP
0800
0800
0800
1ffe
1002
3202
6202
c602
0442
0462
0c22
09f2
1f16
0004
000c
0038
ENDCHAR
STARTCHAR ch-255
ENCODING 255
SWIDTH 1000 0
DWIDTH 16 0
BBX 16 16 0 -2
BITMAP
1000
1000
1ffe
1222
3222
2222
6662
c442
0c42
18c2
3082
6182
0306
0604
1c0c
0038
ENDCHAR
STARTCHAR ch-257
ENCODING 257
SWIDTH 1000 0
DWIDTH 16 0
BBX 16 16 0 -2
BITMAP
1000
1000
1ffc
1084
3884
2884
6d84
c504
0704
020c
0788
0ce8
1838
301f
e010
00f0
ENDCHAR
STARTCHAR ch-258
ENCODING 258
SWIDTH 1000 0
DWIDTH 16 0
BBX 16 16 0 -2
BITMAP
1000
1000
1ffe
3002
2002
6802
c862
09c2
0f02
0802
0802
0812
0c32
07e6
0004
001c
ENDCHAR
STARTCHAR ch-261
ENCODING 261
SWIDTH 1000 0
DWIDTH 16 0
BBX 16 16 0 -2
BITMAP
1000
1000
1ffc
3004
2004
7fc4
c044
0044
0044
3fcc
2008
2038
2000
2001
3003
1ffe
ENDCHAR
STARTCHAR ch-262
ENCODING 262
SWIDTH 1000 0
DWIDTH 16 0
BBX 16 16 0 -2
BITMAP
1000
1000
1ffe
3222
2222
6622
c462
1c42
0e42
1bc2
3086
61c4
0364
0e0c
3808
0038
ENDCHAR
STARTCHAR ch-264
ENCODING 264
SWIDTH 1000 0
DWIDTH 16 0
BBX 16 16 0 -2
BITMAP
1000
1000
1ffe
3002
2042
66c2
d392
1112
1392
16d2
1452
1012
1ff6
0004
000c
0038
ENDCHAR
STARTCHAR ch-269
ENCODING 269
SWIDTH 1000 0
DWIDTH 16 0
BBX 16 16 0 -2
BITMAP
1000
1000
3fff
6041
c221
7ff9
0201
3ff1
2211
3ff1
2211
3ff1
2211
2213
2212
2276
ENDCHAR
STARTCHAR ch-271
ENCODING 271
SWIDTH 1000 0
DWIDTH 16 0
BBX 16 16 0 -2
BITMAP
1020
1020
ff3f
2861
4441
82f9
7c09
0009
ff09
207b
7e42
0246
0240
0641
0463
1c3e
ENDCHAR
STARTCHAR ch-272
ENCODING 272
SWIDTH 1000 0
DWIDTH 16 0
BBX 16 16 0 -2
BITMAP
1000
1000
3fff
2001
7ff1
c001
1fe1
1021
1fe1
0001
3ff1
2211
3ff1
2213
3ff2
000e
ENDCHAR
STARTCHAR ch-277
ENCODING 277
SWIDTH 1000 0
DWIDTH 16 0
BBX 16 16 0 -2
BITMAP
1000
1000
1000
100c
1018
1030
10e0
1380
1e00
f000
1000
1002
1002
1006
1804
0ffc
ENDCHAR
STARTCHAR ch-278
ENCODING 278
SWIDTH 1000 0
DWIDTH 16 0
BBX 16 16 0 -2
BITMAP
0440
0440
0c40
0842
1846
105c
3070
7040
d040
1040
1040
1041
1041
1043
1062
103e
ENDCHAR
STARTCHAR ch-279
ENCODING 279
SWIDTH 1000 0
DWIDTH 16 0
BBX 16 16 0 -2
BITMAP
0440
0440
0440
0446
fc5c
0470
0440
0440
0440
0440
0440
1c40
7441
c463
043e
0400
ENDCHAR
STARTCHAR ch-281
ENCODING 281
SWIDTH 1000 0
DWIDTH 16 0
BBX 16 16 0 -2
BITMAP
0020
7f20
4120
7f20
4123
7f3e
0020
ffa0
0820
2820
2f21
2833
281e
7800
4e00
c3ff
ENDCHAR
STARTCHAR ch-282
ENCODING 282
SWIDTH 1000 0
DWIDTH 16 0
BBX 16 16 0 -2
BITMAP
0000
7ffe
4000
4000
4000
4000
4000
4000
4000
4000
4000
4000
4000
4000
7ffe
0000
ENDCHAR
STARTCHAR ch-285
ENCODING 285
SWIDTH 1000 0
DWIDTH 16 0
BBX 16 16 0 -2
BITMAP
0000
7ffe
4000
4080
4080
4ff8
4888
4888
4888
4888
48b8
4080
4080
4000
7ffe
0000
ENDCHAR
STARTCHAR ch-288
ENCODING 288
SWIDTH 1000 0
DWIDTH 16 0
BBX 16 16 0 -2
BITMAP
0000
7ffe
4000
4038
47e0
4400
47fe
4420
4420
4c20
4820
5820
4020
4000
7ffe
0000
ENDCHAR
STARTCHAR ch-289
ENCODING 289
SWIDTH 1000 0
DWIDTH 16 0
BBX 16 16 0 -2
BITMAP
0000
7ffe
4000
4000
4ff8
4080
4080
47f0
4080
4080
4080
5ffc
4000
4000
7ffe
0000
ENDCHAR
STARTCHAR ch-291
ENCODING 291
SWIDTH 1000 0
DWIDTH 16 0
BBX 16 16 0 -2
BITMAP
0000
7ffe
4000
4ff8
4888
4888
4ff8
4888
4888
4ff8
4080
4080
4080
4000
7ffe
0000
ENDCHAR
STARTCHAR ch-298
ENCODING 298
SWIDTH 1000 0
DWIDTH 16 0
BBX 16 16 0 -2
BITMAP
0000
7ffe
4000
4220
5e3c
4220
5e20
423c
4620
5a20
423c
4420
5820
4000
7ffe
0000
ENDCHAR
STARTCHAR ch-303
ENCODING 303
SWIDTH 1000 0
DWIDTH 16 0
BBX 16 16 0 -2
BITMAP
0000
7ffe
4000
4848
4490
41fc
5320
49fc
4120
45fc
4920
4920
51fc
4000
7ffe
0000
ENDCHAR
STARTCHAR ch-305
ENCODING 305
SWIDTH 1000 0
DWIDTH 16 0
BBX 16 16 0 -2
BITMAP
0000
7ffe
4080
47f8
4488
47f8
4080
5ffe
4210
43f0
4210
43f0
4210
43f0
4618
7ffe
ENDCHAR
STARTCHAR ch-307
ENCODING 307
SWIDTH 1000 0
DWIDTH 16 0
BBX 16 16 0 -2
BITMAP
0000
7ffe
4080
4140
4630
59cc
4000
4f78
4948
4f78
4410
4e38
5b6c
4000
7ffe
0000
ENDCHAR
STARTCHAR ch-312
ENCODING 312
SWIDTH 1000 0
DWIDTH 16 0
BBX 16 16 0 -2
BITMAP
0000
ffff
2000
2000
2000
2000
2000
2000
2000
2000
2000
2000
2000
3000
1fff
0000
ENDCHAR
STARTCHAR ch-313
ENCODING 313
SWIDTH 1000 0
DWIDTH 16 0
BBX 16 16 0 -2
BITMAP
0000
7ffe
4220
4220
4220
4220
4220
4620
4422
4c26
581c
4000
4000
4000
7ffe
0000
ENDCHAR
STARTCHAR ch-314
ENCODING 314
SWIDTH 1000 0
DWIDTH 16 0
BBX 16 16 0 -2
BITMAP
0000
7ffe
4000
4008
4c18
4610
4330
41e0
40c0
41e0
4330
4618
5c08
4000
7ffe
0000
ENDCHAR
STARTCHAR ch-315
ENCODING 315
SWIDTH 1000 0
DWIDTH 16 0
BBX 16 16 0 -2
BITMAP
0000
7ffe
4400
4400
4ff8
5880
4080
5ffc
4140
4360
4220
4630
4c18
4000
7ffe
0000
ENDCHAR
STARTCHAR ch-319
ENCODING 319
SWIDTH 1000 0
DWIDTH 16 0
BBX 16 16 0 -2
BITMAP
0000
7ffe
4000
4210
4ffc
4210
4100
5ffe
4200
47f8
4a08
4208
43f8
4000
7ffe
0000
ENDCHAR
STARTCHAR ch-320
ENCODING 320
SWIDTH 1000 0
DWIDTH 16 0
BBX 16 16 0 -2
BITMAP
0000
7ffe
4000
47f0
4410
4410
47f0
4000
5f7c
5144
5144
5144
5f7c
4000
7ffe
0000
ENDCHAR
STARTCHAR ch-321
ENCODING 321
SWIDTH 1000 0
DWIDTH 16 0
BBX 16 16 0 -2
BITMAP
0100
0100
0100
0100
0100
0100
ffff
0100
0100
0100
0100
0100
0100
0100
0100
0100
ENDCHAR
STARTCHAR ch-323
ENCODING 323
SWIDTH 1000 0
DWIDTH 16 0
BBX 16 16 0 -2
BITMAP
0018
00f0
3f80
0100
0100
0100
0100
ffff
0100
0100
0100
0100
0100
0100
0100
0100
ENDCHAR
STARTCHAR ch-325
ENCODING 325
SWIDTH 1000 0
DWIDTH 16 0
BBX 16 16 0 -2
BITMAP
1108
1108
1108
1108
1108
1108
ffff
1108
1108
1108
1108
1108
3108
2108
6108
c108
ENDCHAR
STARTCHAR ch-326
ENCODING 326
SWIDTH 1000 0
DWIDTH 16 0
BBX 16 16 0 -2
BITMAP
0200
0200
7fe0
0220
0620
0420
0c21
1833
711e
0100
ffff
0100
0100
0100
0100
0100
ENDCHAR
STARTCHAR ch-327
ENCODING 327
SWIDTH 1000 0
DWIDTH 16 0
BBX 16 16 0 -2
BITMAP
0010
0190
0710
7c10
0410
0410
0410
ffff
0410
0410
0410
0c10
0810
1810
3010
e010
ENDCHAR
STARTCHAR ch-328
ENCODING 328
SWIDTH 1000 0
DWIDTH 16 0
BBX 16 16 0 -2
BITMAP
0800
0800
1ffc
1100
3100
6100
0100
0100
ffff
0100
0100
0100
0100
0100
0100
0100
ENDCHAR
STARTCHAR ch-329
ENCODING 329
SWIDTH 1000 0
DWIDTH 16 0
BBX 16 16 0 -2
BITMAP
0100
0100
3ffc
0100
0100
0910
0810
0810
ffff
0810
0810
0810
1810
1010
3010
e010
ENDCHAR
STARTCHAR ch-330
ENCODING 330
SWIDTH 1000 0
DWIDTH 16 0
BBX 16 16 0 -2
BITMAP
0100
2104
310c
1108
0100
7ffe
0100
0100
0100
ffff
0100
0100
0100
0100
0100
0100
ENDCHAR
STARTCHAR ch-333
ENCODING 333
SWIDTH 1000 0
DWIDTH 16 0
BBX 16 16 0 -2
BITMAP
0002
ff02
0102
0102
0102
0102
0102
7ffe
4100
4100
4100
4100
4100
4100
41ff
4000
ENDCHAR
STARTCHAR ch-337
ENCODING 337
SWIDTH 1000 0
DWIDTH 16 0
BBX 16 16 0 -2
BITMAP
0100
0200
3ffc
2104
2104
3ffc
2104
2104
3ffc
0840
1040
ffff
0040
0040
0040
0040
ENDCHAR
STARTCHAR ch-338
ENCODING 338
SWIDTH 1000 0
DWIDTH 16 0
BBX 16 16 0 -2
BITMAP
0100
0100
7ffe
0000
0810
0810
1c38
366c
6006
0100
ffff
0100
0100
0100
0100
0100
ENDCHAR
STARTCHAR ch-339
ENCODING 339
SWIDTH 1000 0
DWIDTH 16 0
BBX 16 16 0 -2
BITMAP
0100
0100
01fc
0100
1ff8
1008
1008
1ff8
1008
1008
1ff8
0100
ffff
0100
0100
0100
ENDCHAR
STARTCHAR ch-340
ENCODING 340
SWIDTH 1000 0
DWIDTH 16 0
BBX 16 16 0 -2
BITMAP
2040
2040
23fc
2044
20c4
f98c
2318
2000
2208
2fff
2249
2249
2249
2659
24d3
2db6
ENDCHAR
STARTCHAR ch-343
ENCODING 343
SWIDTH 1000 0
DWIDTH 16 0
BBX 16 16 0 -2
BITMAP
0100
0100
ffff
0100
0100
7ffe
4422
4242
4ff2
4102
4102
5ffa
4102
4102
4102
410e
ENDCHAR
STARTCHAR ch-344
ENCODING 344
SWIDTH 1000 0
DWIDTH 16 0
BBX 16 16 0 -2
BITMAP
2204
330c
1108
3ffc
2104
2104
3ffc
2104
2104
3ffc
0100
0100
ffff
0100
0100
0100
ENDCHAR
STARTCHAR ch-346
ENCODING 346
SWIDTH 1000 0
DWIDTH 16 0
BBX 16 16 0 -2
BITMAP
2024
2022
27ff
2020
23fe
fa22
23fe
2222
23fe
2004
27ff
2104
2184
2084
2004
201c
ENDCHAR
STARTCHAR ch-348
ENCODING 348
SWIDTH 1000 0
DWIDTH 16 0
BBX 16 16 0 -2
BITMAP
0200
0200
0200
0200
0200
0380
02c0
0270
0218
020c
0200
0200
0200
0200
0200
0200
ENDCHAR
STARTCHAR ch-350
ENCODING 350
SWIDTH 1000 0
DWIDTH 16 0
BBX 16 16 0 -2
BITMAP
0100
0100
ffff
0100
0100
0100
01c0
0170
0118
010c
0100
0100
0100
0100
0100
0100
ENDCHAR
STARTCHAR ch-352
ENCODING 352
SWIDTH 1000 0
DWIDTH 16 0
BBX 16 16 0 -2
BITMAP
0100
0100
0100
0100
01ff
0100
0100
0100
0100
3ffc
2004
2004
2004
2004
2004
3ffc
ENDCHAR
STARTCHAR ch-358
ENCODING 358
SWIDTH 1000 0
DWIDTH 16 0
BBX 16 16 0 -2
BITMAP
0810
0810
7f10
0810
0810
0810
ff9c
0016
0813
0810
7f10
0810
0810
0b90
3e10
e010
ENDCHAR
STARTCHAR ch-361
ENCODING 361
SWIDTH 1000 0
DWIDTH 16 0
BBX 16 16 0 -2
BITMAP
0000
0ff0
0810
0810
0810
0810
0810
0810
0810
0810
0810
08f0
0800
0800
0800
0800
ENDCHAR
STARTCHAR ch-366
ENCODING 366
SWIDTH 1000 0
DWIDTH 16 0
BBX 16 16 0 -2
BITMAP
000c
0078
3fc0
2000
2000
3fff
2000
27fc
2404
2404
2404
241c
6400
4401
c603
03fe
ENDCHAR
STARTCHAR ch-367
ENCODING 367
SWIDTH 1000 0
DWIDTH 16 0
BBX 16 16 0 -2
BITMAP
0300
0e00
787e
4242
4242
4242
4242
4242
4242
4242
4242
7e42
c44e
0c40
1840
7040
ENDCHAR
STARTCHAR ch-368
ENCODING 368
SWIDTH 1000 0
DWIDTH 16 0
BBX 16 16 0 -2
BITMAP
0300
0e00
78fe
4082
4082
4082
4082
7e82
4082
4082
4082
4082
4082
7e9e
0080
0080
ENDCHAR
STARTCHAR ch-369
ENCODING 369
SWIDTH 1000 0
DWIDTH 16 0
BBX 16 16 0 -2
BITMAP
0800
0ff0
1820
2040
ffff
2000
2000
27f8
2408
2408
2408
2438
6400
4402
c606
03fc
ENDCHAR
STARTCHAR ch-371
ENCODING 371
SWIDTH 1000 0
DWIDTH 16 0
BBX 16 16 0 -2
BITMAP
0000
7e7e
4242
4242
7e42
4242
4242
4242
7e42
4042
4242
4242
4f5e
7940
c040
0040
ENDCHAR
STARTCHAR ch-372
ENCODING 372
SWIDTH 1000 0
DWIDTH 16 0
BBX 16 16 0 -2
BITMAP
0800
083e
7f22
0822
0822
0822
0822
ffa2
1022
3222
2322
6122
4fae
f8a0
0020
0020
ENDCHAR
STARTCHAR ch-373
ENCODING 373
SWIDTH 1000 0
DWIDTH 16 0
BBX 16 16 0 -2
BITMAP
0300
0e00
787e
4242
4242
5242
5a52
4a5a
424a
4242
4242
7e42
c44e
0c40
1840
7040
ENDCHAR
STARTCHAR ch-375
ENCODING 375
SWIDTH 1000 0
DWIDTH 16 0
BBX 16 16 0 -2
BITMAP
1108
1918
0910
7ffe
0240
0420
ffff
0810
1008
2ff4
c813
0810
0870
0804
0c0c
07f8
ENDCHAR
STARTCHAR ch-376
ENCODING 376
SWIDTH 1000 0
DWIDTH 16 0
BBX 16 16 0 -2
BITMAP
2000
207e
7f42
4842
8842
0842
ff42
0842
4842
4f42
4842
4842
4f4e
7840
c040
0040
ENDCHAR
STARTCHAR ch-379
ENCODING 379
SWIDTH 1000 0
DWIDTH 16 0
BBX 16 16 0 -2
BITMAP
0000
223e
6322
c1a2
0822
1c22
3622
6322
c1a2
0022
7f22
4122
412e
4120
7f20
0020
ENDCHAR
STARTCHAR ch-383
ENCODING 383
SWIDTH 1000 0
DWIDTH 16 0
BBX 16 16 0 -2
BITMAP
1800
73ef
4229
4a29
4be9
4a29
4a29
4be9
4a09
4a09
7a09
ca49
1a49
33eb
6628
c008
ENDCHAR
STARTCHAR ch-386
ENCODING 386
SWIDTH 1000 0
DWIDTH 16 0
BBX 16 16 0 -2
BITMAP
0000
3fff
2000
2000
2000
2000
2000
2000
2000
2000
2000
2000
6000
4000
c000
0000
ENDCHAR
STARTCHAR ch-388
ENCODING 388
SWIDTH 1000 0
DWIDTH 16 0
BBX 16 16 0 -2
BITMAP
0000
3fff
2000
2000
27f8
2408
2408
2408
2408
2408
2438
2400
6400
4401
c603
03fe
ENDCHAR
STARTCHAR ch-406
ENCODING 406
SWIDTH 1000 0
DWIDTH 16 0
BBX 16 16 0 -2
BITMAP
0000
7fff
4000
4504
448c
4418
5fb2
4406
440c
4439
4e03
4a06
ca0c
9a39
9303
31fe
ENDCHAR
STARTCHAR ch-408
ENCODING 408
SWIDTH 1000 0
DWIDTH 16 0
BBX 16 16 0 -2
BITMAP
0000
3fff
2000
27fc
2444
2444
27fc
2444
2444
27fc
2040
2040
67fc
4040
c040
1fff
ENDCHAR
STARTCHAR ch-410
ENCODING 410
SWIDTH 1000 0
DWIDTH 16 0
BBX 16 16 0 -2
BITMAP
0000
3fff
2000
27fc
2404
27fc
2404
27fc
2000
27fc
2018
2060
6fff
4040
c040
01c0
ENDCHAR
STARTCHAR ch-415
ENCODING 415
SWIDTH 1000 0
DWIDTH 16 0
BBX 16 16 0 -2
BITMAP
0000
3fff
2040
2080
27fc
2404
2404
27fc
2404
2404
27fc
2040
6248
464c
dc47
01c0
ENDCHAR
STARTCHAR ch-416
ENCODING 416
SWIDTH 1000 0
DWIDTH 16 0
BBX 16 16 0 -2
BITMAP
0000
7fff
4000
4f82
4892
4892
4f92
4892
4892
4f92
4892
4892
cf82
8502
8d82
18ce
ENDCHAR
STARTCHAR ch-421
ENCODING 421
SWIDTH 1000 0
DWIDTH 16 0
BBX 16 16 0 -2
BITMAP
0000
7fff
5110
5b10
4a10
7fbf
4421
556a
5508
5508
551c
5f14
c414
8c36
9822
3063
ENDCHAR
STARTCHAR ch-422
ENCODING 422
SWIDTH 1000 0
DWIDTH 16 0
BBX 16 16 0 -2
BITMAP
7fff
4000
5fff
4040
47fc
4404
47fc
4404
47fc
4404
47fc
4100
c7fc
9d18
80e0
1f1f
ENDCHAR
STARTCHAR ch-424
ENCODING 424
SWIDTH 1000 0
DWIDTH 16 0
BBX 16 16 0 -2
BITMAP
0000
7fff
4000
4004
5f84
4004
4f7f
4904
4924
4934
4f14
4004
c904
8904
8784
1c1c
ENDCHAR
STARTCHAR ch-425
ENCODING 425
SWIDTH 1000 0
DWIDTH 16 0
BBX 16 16 0 -2
BITMAP
0000
7fff
4000
5f7e
5128
5128
5f28
5128
517f
5f08
5018
5218
d238
9f29
b169
00c7
ENDCHAR
STARTCHAR ch-429
ENCODING 429
SWIDTH 1000 0
DWIDTH 16 0
BBX 16 16 0 -2
BITMAP
0000
7fff
4000
5f0a
5109
5f08
517f
5f08
4008
5f1c
5114
5f14
d114
9f36
9122
1363
ENDCHAR
STARTCHAR ch-430
ENCODING 430
SWIDTH 1000 0
DWIDTH 16 0
BBX 16 16 0 -2
BITMAP
0000
7fff
4000
4906
5fbc
4920
4f20
493f
4924
4f24
4924
4924
dfa4
8924
99a4
30c4
ENDCHAR
STARTCHAR ch-432
ENCODING 432
SWIDTH 1000 0
DWIDTH 16 0
BBX 16 16 0 -2
BITMAP
0000
7fff
4000
5248
5ac8
4a88
421f
5fd2
5072
574a
554e
5544
d744
904e
904a
10db
ENDCHAR
STARTCHAR ch-435
ENCODING 435
SWIDTH 1000 0
DWIDTH 16 0
BBX 16 16 0 -2
BITMAP
2102
1084
7fff
4000
5f10
4410
7fbf
5124
5f64
5114
5f1c
5108
d11c
9f14
b136
0163
ENDCHAR
STARTCHAR ch-438
ENCODING 438
SWIDTH 1000 0
DWIDTH 16 0
BBX 16 16 0 -2
BITMAP
0200
0200
0200
0600
0400
0400
0c00
0800
0800
1810
1018
100c
3004
20fe
3f83
e001
ENDCHAR
STARTCHAR ch-443
ENCODING 443
SWIDTH 1000 0
DWIDTH 16 0
BBX 16 16 0 -2
BITMAP
0100
0100
0100
3ffc
0100
0100
0100
0100
ffff
0200
0610
0418
0c08
08fc
1f84
7006
ENDCHAR
STARTCHAR ch-450
ENCODING 450
SWIDTH 1000 0
DWIDTH 16 0
BBX 16 16 0 -2
BITMAP
0400
0c10
0818
1fe8
0200
ffff
0420
0c30
399c
e307
0e60
38c0
078c
3c38
01e0
3f00
ENDCHAR
STARTCHAR ch-451
ENCODING 451
SWIDTH 1000 0
DWIDTH 16 0
BBX 16 16 0 -2
BITMAP
0410
0808
3ffc
0004
2010
4922
fbbd
0ee0
3838
e10f
0620
38cc
0318
1c70
01c0
3f00
ENDCHAR
STARTCHAR ch-456
ENCODING 456
SWIDTH 1000 0
DWIDTH 16 0
BBX 16 16 0 -2
BITMAP
0000
7ffc
0804
0804
0c0c
0408
0418
0610
0230
0360
01c0
0360
0630
0c18
380c
e007
ENDCHAR
STARTCHAR ch-457
ENCODING 457
SWIDTH 1000 0
DWIDTH 16 0
BBX 16 16 0 -2
BITMAP
0000
7ffc
1004
1b0c
0988
0c98
0410
0630
0360
01c0
01c0
0360
0630
0c18
380c
e007
ENDCHAR
STARTCHAR ch-458
ENCODING 458
SWIDTH 1000 0
DWIDTH 16 0
BBX 16 16 0 -2
BITMAP
0000
7ff0
0410
0430
0420
0e7c
0a04
0b0c
0908
1998
10f0
1060
30f0
2198
630c
ce07
ENDCHAR
STARTCHAR ch-459
ENCODING 459
SWIDTH 1000 0
DWIDTH 16 0
BBX 16 16 0 -2
BITMAP
0200
0200
0200
ffff
0200
0200
07f0
0410
0e30
0a20
1b60
31c0
60e0
c1b0
071c
1c07
ENDCHAR
STARTCHAR ch-460
ENCODING 460
SWIDTH 1000 0
DWIDTH 16 0
BBX 16 16 0 -2
BITMAP
0000
7efe
0242
0242
0246
0644
6464
342c
1c28
0838
1c10
1638
3268
20cc
6186
c703
ENDCHAR
STARTCHAR ch-461
ENCODING 461
SWIDTH 1000 0
DWIDTH 16 0
BBX 16 16 0 -2
BITMAP
0000
3ffe
2000
2000
2000
3ffc
2404
260c
2218
2330
21e0
60c0
41e0
c330
0e1c
3807
ENDCHAR
STARTCHAR ch-462
ENCODING 462
SWIDTH 1000 0
DWIDTH 16 0
BBX 16 16 0 -2
BITMAP
0800
0800
4bfe
4882
4886
4884
48cc
4848
4858
4870
4820
7870
c858
08cc
0986
0b03
ENDCHAR
STARTCHAR ch-468
ENCODING 468
SWIDTH 1000 0
DWIDTH 16 0
BBX 16 16 0 -2
BITMAP
0800
08fe
0842
0f42
0846
0864
0824
ffac
0828
2a38
2a10
6b38
4928
c86c
08c6
3983
ENDCHAR
STARTCHAR ch-470
ENCODING 470
SWIDTH 1000 0
DWIDTH 16 0
BBX 16 16 0 -2
BITMAP
0000
ff00
22fe
2242
2242
3e46
2264
222c
2228
3e38
2210
2238
2228
3e6c
e246
02c3
ENDCHAR
STARTCHAR ch-471
ENCODING 471
SWIDTH 1000 0
DWIDTH 16 0
BBX 16 16 0 -2
BITMAP
000c
0078
7fc4
220c
1108
ffff
8001
8001
3ff8
0818
0c30
0660
03c0
0660
1c38
f00f
ENDCHAR
STARTCHAR ch-473
ENCODING 473
SWIDTH 1000 0
DWIDTH 16 0
BBX 16 16 0 -2
BITMAP
0800
1cfe
1642
3342
2146
7e64
c82c
0828
ff38
0810
2a10
2a38
6b28
496c
c846
18c3
ENDCHAR
STARTCHAR ch-475
ENCODING 475
SWIDTH 1000 0
DWIDTH 16 0
BBX 16 16 0 -2
BITMAP
1000
92ff
d680
5480
1080
fefe
10a2
10a2
1eb6
f094
109c
1088
319c
2114
6336
c063
ENDCHAR
STARTCHAR ch-479
ENCODING 479
SWIDTH 1000 0
DWIDTH 16 0
BBX 16 16 0 -2
BITMAP
0100
0d00
393c
2104
2104
393c
2104
2104
3ffc
0100
7ffc
0818
0670
03c0
1e78
f00f
ENDCHAR
STARTCHAR ch-481
ENCODING 481
SWIDTH 1000 0
DWIDTH 16 0
BBX 16 16 0 -2
BITMAP
0800
0f7e
0822
ffa2
80a2
1c36
4114
9c94
221c
7f08
c188
7f1c
4114
7f36
4122
7f63
ENDCHAR
STARTCHAR ch-482
ENCODING 482
SWIDTH 1000 0
DWIDTH 16 0
BBX 16 16 0 -2
BITMAP
2244
1248
ffff
0810
7ffe
0100
3ffc
0100
ffff
2200
3efc
2244
3e28
2210
fe2c
02c3
ENDCHAR
STARTCHAR ch-483
ENCODING 483
SWIDTH 1000 0
DWIDTH 16 0
BBX 16 16 0 -2
BITMAP
0000
0000
3ffc
2004
2004
2004
2004
2004
2004
2004
2004
2004
2004
3ffc
0000
0000
ENDCHAR
STARTCHAR ch-484
ENCODING 484
SWIDTH 1000 0
DWIDTH 16 0
BBX 16 16 0 -2
BITMAP
0100
0100
0100
ffff
0100
0100
0100
0100
1ff8
1008
1008
1008
1008
1008
1ff8
0000
ENDCHAR
STARTCHAR ch-485
ENCODING 485
SWIDTH 1000 0
DWIDTH 16 0
BBX 16 16 0 -2
BITMAP
0400
0c00
0800
1ffe
3002
6002
cfc2
0842
0842
0842
0842
0fc2
0002
0006
0004
001c
ENDCHAR
STARTCHAR ch-488
ENCODING 488
SWIDTH 1000 0
DWIDTH 16 0
BBX 16 16 0 -2
BITMAP
0000
03ff
f821
8821
8821
8821
8821
8821
8861
8841
8843
f8c2
0082
0186
0304
0e1c
ENDCHAR
STARTCHAR ch-489
ENCODING 489
SWIDTH 1000 0
DWIDTH 16 0
BBX 16 16 0 -2
BITMAP
0000
7e7e
4242
4242
4242
4242
4242
4242
4242
4242
4242
4242
7e4e
0040
0040
0040
ENDCHAR
STARTCHAR ch-490
ENCODING 490
SWIDTH 1000 0
DWIDTH 16 0
BBX 16 16 0 -2
BITMAP
0000
1ff8
1008
1008
1008
1008
1008
1008
1008
1ff8
0000
0000
0810
1818
300c
6006
ENDCHAR
STARTCHAR ch-491
ENCODING 491
SWIDTH 1000 0
DWIDTH 16 0
BBX 16 16 0 -2
BITMAP
0004
0004
7c44
4444
4444
4444
4444
4444
4444
4444
4447
7c7c
01c4
0004
0004
0004
ENDCHAR
STARTCHAR ch-492
ENCODING 492
SWIDTH 1000 0
DWIDTH 16 0
BBX 16 16 0 -2
BITMAP
0000
7ffe
0102
0102
0302
0606
0c04
381c
e000
1ffc
1004
1004
1004
1004
1004
1ffc
ENDCHAR
STARTCHAR ch-493
ENCODING 493
SWIDTH 1000 0
DWIDTH 16 0
BBX 16 16 0 -2
BITMAP
0088
0088
f888
8888
8888
8888
8888
8888
8888
8888
898c
f904
0104
0306
0202
0603
ENDCHAR
STARTCHAR ch-494
ENCODING 494
SWIDTH 1000 0
DWIDTH 16 0
BBX 16 16 0 -2
BITMAP
0000
03ff
f810
8810
8810
8810
8810
8810
8810
8810
8810
f810
0010
0010
0010
0070
ENDCHAR
STARTCHAR ch-495
ENCODING 495
SWIDTH 1000 0
DWIDTH 16 0
BBX 16 16 0 -2
BITMAP
0000
ffff
0008
0008
1f88
1088
1088
1088
1088
1088
1f88
0008
0008
0008
0008
0038
ENDCHAR
STARTCHAR ch-496
ENCODING 496
SWIDTH 1000 0
DWIDTH 16 0
BBX 16 16 0 -2
BITMAP
0400
0400
0c08
080c
1804
11fe
ff03
0001
0000
3ffc
2004
2004
2004
2004
2004
3ffc
ENDCHAR
STARTCHAR ch-497
ENCODING 497
SWIDTH 1000 0
DWIDTH 16 0
BBX 16 16 0 -2
BITMAP
0080
0080
f880
8882
8886
888c
88b8
88e0
8b80
8880
8880
8880
f880
0081
00c3
007e
ENDCHAR
STARTCHAR ch-498
ENCODING 498
SWIDTH 1000 0
DWIDTH 16 0
BBX 16 16 0 -2
BITMAP
0100
0100
0100
7ffe
4102
4102
4102
4102
7ffe
0100
3300
1a00
0700
0dc0
3878
e00f
ENDCHAR
STARTCHAR ch-499
ENCODING 499
SWIDTH 1000 0
DWIDTH 16 0
BBX 16 16 0 -2
BITMAP
0200
0200
0200
ffff
0400
0400
0c00
0800
1ffc
3804
6804
c804
0804
0804
0ffc
0000
ENDCHAR
STARTCHAR ch-502
ENCODING 502
SWIDTH 1000 0
DWIDTH 16 0
BBX 16 16 0 -2
BITMAP
0020
0020
f820
8820
8820
8820
8bff
8820
8820
8820
8820
f820
0020
0020
0020
0020
ENDCHAR
STARTCHAR ch-503
ENCODING 503
SWIDTH 1000 0
DWIDTH 16 0
BBX 16 16 0 -2
BITMAP
0000
1ff8
1008
1008
1008
1ff8
0000
ffff
0400
0800
1ff8
0008
0008
0018
0010
00f0
ENDCHAR
STARTCHAR ch-504
ENCODING 504
SWIDTH 1000 0
DWIDTH 16 0
BBX 16 16 0 -2
BITMAP
0000
fffe
0002
0002
3fe2
0002
0002
1fc2
1042
1042
1042
1fc2
0002
0002
0002
000e
ENDCHAR
STARTCHAR ch-506
ENCODING 506
SWIDTH 1000 0
DWIDTH 16 0
BBX 16 16 0 -2
BITMAP
0000
01e0
f820
8820
8820
8820
8820
8870
8850
8850
88d8
f888
018c
0104
0306
0603
ENDCHAR
ENDFONT
