STARTFONT 2.1
FONT jis.jis9a00.16
SIZE 16 72 72
FONTBOUNDINGBOX 16 16 0 -2
STARTPROPERTIES 4
FONT_DESCENT 2
FONT_ASCENT 14
DEFAULT_CHAR 1
COPYRIGHT "Copyright (c) 1992 AT&T - All rights reserved."
ENDPROPERTIES
CHARS 120
STARTCHAR ch-1
ENCODING 1
SWIDTH 1000 0
DWIDTH 16 0
BBX 16 16 0 -2
BITMAP
0010
7f10
487e
4852
7e7e
4852
4852
7e7e
4800
487f
7f90
00be
aa82
aa82
8186
031c
ENDCHAR
STARTCHAR ch-5
ENCODING 5
SWIDTH 1000 0
DWIDTH 16 0
BBX 16 16 0 -2
BITMAP
0012
7f96
4814
483f
7f24
4864
4824
7f3e
4824
4824
7fa4
00be
aaa4
aaa4
81a4
033f
ENDCHAR
STARTCHAR ch-14
ENCODING 14
SWIDTH 1000 0
DWIDTH 16 0
BBX 16 16 0 -2
BITMAP
0010
7f10
48ff
4810
7e28
4844
4800
7eff
4802
483a
7faa
00aa
aaba
aa82
8182
030e
ENDCHAR
STARTCHAR ch-15
ENCODING 15
SWIDTH 1000 0
DWIDTH 16 0
BBX 16 16 0 -2
BITMAP
0012
7f92
483f
4812
7f12
481e
4812
7f12
481e
4812
7f92
00bf
aa80
aa92
81b3
0321
ENDCHAR
STARTCHAR ch-18
ENCODING 18
SWIDTH 1000 0
DWIDTH 16 0
BBX 16 16 0 -2
BITMAP
0000
7f7e
4422
4414
7f08
4414
446b
7f08
443e
442a
7faa
00be
aa88
aa8a
819f
0371
ENDCHAR
STARTCHAR ch-19
ENCODING 19
SWIDTH 1000 0
DWIDTH 16 0
BBX 16 16 0 -2
BITMAP
0008
7f9c
4436
4463
7f3e
4408
447f
7f49
4449
4449
7fff
0088
aa9c
aa94
81b6
0363
ENDCHAR
STARTCHAR ch-25
ENCODING 25
SWIDTH 1000 0
DWIDTH 16 0
BBX 16 16 0 -2
BITMAP
0000
7eff
4800
487e
7e42
4842
487e
7e40
487f
4855
7ed5
02ff
ab55
aa55
8655
0c43
ENDCHAR
STARTCHAR ch-40
ENCODING 40
SWIDTH 1000 0
DWIDTH 16 0
BBX 16 16 0 -2
BITMAP
0091
7fdb
444a
447f
7f49
4449
447f
7f49
4449
447f
7f88
0088
aaff
aa88
8188
0308
ENDCHAR
STARTCHAR ch-43
ENCODING 43
SWIDTH 1000 0
DWIDTH 16 0
BBX 16 16 0 -2
BITMAP
0100
7ffe
4422
1ff8
0420
1ff8
0420
ffff
0890
3ffc
c883
0ff8
0880
2ffe
6922
4496
ENDCHAR
STARTCHAR ch-48
ENCODING 48
SWIDTH 1000 0
DWIDTH 16 0
BBX 16 16 0 -2
BITMAP
0124
78a8
49fe
4848
4bff
7884
49fe
4a91
48fe
7890
48fe
4890
48ff
4955
cb55
9a03
ENDCHAR
STARTCHAR ch-55
ENCODING 55
SWIDTH 1000 0
DWIDTH 16 0
BBX 16 16 0 -2
BITMAP
0000
7f7f
4829
4822
7e94
4848
4814
7e63
4808
483e
7faa
00be
aa88
aa8a
819f
0371
ENDCHAR
STARTCHAR ch-62
ENCODING 62
SWIDTH 1000 0
DWIDTH 16 0
BBX 16 16 0 -2
BITMAP
0000
7f7f
4849
487f
7f49
487f
4810
7f64
4828
4812
7fff
0089
aaaa
aaaa
81a9
0308
ENDCHAR
STARTCHAR ch-64
ENCODING 64
SWIDTH 1000 0
DWIDTH 16 0
BBX 16 16 0 -2
BITMAP
0420
7ffe
0420
1ff8
1008
1ff8
1008
ffff
0890
3ffc
c883
0ff8
0880
2ffe
6922
4496
ENDCHAR
STARTCHAR ch-66
ENCODING 66
SWIDTH 1000 0
DWIDTH 16 0
BBX 16 16 0 -2
BITMAP
0010
7fb2
4823
487d
7f08
487f
4814
7f36
4863
4808
7f92
00a4
aa89
aa92
8184
0318
ENDCHAR
STARTCHAR ch-67
ENCODING 67
SWIDTH 1000 0
DWIDTH 16 0
BBX 16 16 0 -2
BITMAP
0000
7f7f
4814
487f
7f55
4855
487f
7f00
483e
4800
7fff
0088
aaaa
aaab
81a9
0318
ENDCHAR
STARTCHAR ch-69
ENCODING 69
SWIDTH 1000 0
DWIDTH 16 0
BBX 16 16 0 -2
BITMAP
0000
7eff
4880
489c
7e94
4894
489c
7e80
48be
48aa
7eaa
02aa
aabe
aa80
86ff
0c00
ENDCHAR
STARTCHAR ch-77
ENCODING 77
SWIDTH 1000 0
DWIDTH 16 0
BBX 16 16 0 -2
BITMAP
0010
7e7c
4810
48fe
7e00
4884
49ef
7e84
48e4
498f
7e00
03ff
aa48
aa49
86c9
0d87
ENDCHAR
STARTCHAR ch-85
ENCODING 85
SWIDTH 1000 0
DWIDTH 16 0
BBX 16 16 0 -2
BITMAP
0006
7e1c
48f0
4810
7eff
4824
487e
7ea5
483c
4800
7eff
0281
aabd
aaa5
86bd
0c83
ENDCHAR
STARTCHAR ch-87
ENCODING 87
SWIDTH 1000 0
DWIDTH 16 0
BBX 16 16 0 -2
BITMAP
0008
7f9c
4836
4863
7f00
483e
4800
7f77
4855
4855
7ff7
0080
aaa2
aaa2
81b7
0355
ENDCHAR
STARTCHAR ch-90
ENCODING 90
SWIDTH 1000 0
DWIDTH 16 0
BBX 16 16 0 -2
BITMAP
2420
ffbf
2424
7f54
4108
bd14
2523
3ff8
1080
1ff8
1080
1ff8
1080
5ffe
c922
8496
ENDCHAR
STARTCHAR ch-91
ENCODING 91
SWIDTH 1000 0
DWIDTH 16 0
BBX 16 16 0 -2
BITMAP
0000
7f7f
4855
487f
7f08
483e
4808
7f7f
4822
4814
7fff
0088
aabe
aa88
8188
0308
ENDCHAR
STARTCHAR ch-95
ENCODING 95
SWIDTH 1000 0
DWIDTH 16 0
BBX 16 16 0 -2
BITMAP
0000
7ff0
48ae
48e2
7eaa
48e4
48a4
7eea
49a1
4808
7e52
0294
aa18
aa54
8693
0c10
ENDCHAR
STARTCHAR ch-98
ENCODING 98
SWIDTH 1000 0
DWIDTH 16 0
BBX 16 16 0 -2
BITMAP
0020
7e3c
4820
49fe
7d22
49f8
4922
7d7e
4954
497c
7f54
027c
aa00
aafe
86aa
0dff
ENDCHAR
STARTCHAR ch-100
ENCODING 100
SWIDTH 1000 0
DWIDTH 16 0
BBX 16 16 0 -2
BITMAP
0008
7f88
487f
4822
7f55
483e
4814
7f3e
4814
487f
7f94
00b5
aae5
aaa6
81ba
0363
ENDCHAR
STARTCHAR ch-101
ENCODING 101
SWIDTH 1000 0
DWIDTH 16 0
BBX 16 16 0 -2
BITMAP
0015
7f76
4815
4877
7f00
483e
482a
7f3e
482a
483e
7f94
00be
aa94
aaff
8194
0322
ENDCHAR
STARTCHAR ch-105
ENCODING 105
SWIDTH 1000 0
DWIDTH 16 0
BBX 16 16 0 -2
BITMAP
0022
7f7f
4822
4877
7f55
4877
4800
7f12
483f
4864
7fbe
00a4
aabe
aaa4
81a4
033f
ENDCHAR
STARTCHAR ch-106
ENCODING 106
SWIDTH 1000 0
DWIDTH 16 0
BBX 16 16 0 -2
BITMAP
0000
7eef
4800
48ef
7ea9
4810
48ff
7ea8
48ff
48a9
7eff
02a4
aab7
ab24
8635
0c63
ENDCHAR
STARTCHAR ch-107
ENCODING 107
SWIDTH 1000 0
DWIDTH 16 0
BBX 16 16 0 -2
BITMAP
0ff8
0880
0ff0
0880
0ff8
1008
2558
0000
7f7f
4848
7e7e
4848
7f7f
0101
5555
8303
ENDCHAR
STARTCHAR ch-168
ENCODING 168
SWIDTH 1000 0
DWIDTH 16 0
BBX 16 16 0 -2
BITMAP
1ff8
1008
11f8
1108
1108
ffff
8001
9ff9
1008
1ff8
1008
1ff8
1008
1008
1008
1038
ENDCHAR
STARTCHAR ch-173
ENCODING 173
SWIDTH 1000 0
DWIDTH 16 0
BBX 16 16 0 -2
BITMAP
0000
7e3e
4208
5e08
5208
5208
ff08
817f
7e08
4208
7e08
4208
7e08
4208
4208
4608
ENDCHAR
STARTCHAR ch-176
ENCODING 176
SWIDTH 1000 0
DWIDTH 16 0
BBX 16 16 0 -2
BITMAP
0000
7e3c
4224
5e24
5224
5227
ff40
8100
7e7e
4222
7e36
421c
7e08
421c
4236
4663
ENDCHAR
STARTCHAR ch-184
ENCODING 184
SWIDTH 1000 0
DWIDTH 16 0
BBX 16 16 0 -2
BITMAP
0010
7e10
4210
5eff
5210
5230
ff64
812c
7e18
4232
7e66
42cc
7e18
4234
4266
46c3
ENDCHAR
STARTCHAR ch-188
ENCODING 188
SWIDTH 1000 0
DWIDTH 16 0
BBX 16 16 0 -2
BITMAP
0020
7e20
427e
5e42
52c6
522c
ff18
813c
7e66
42c3
7e00
427e
7e42
4242
4242
467e
ENDCHAR
STARTCHAR ch-192
ENCODING 192
SWIDTH 1000 0
DWIDTH 16 0
BBX 16 16 0 -2
BITMAP
0010
7c20
44fe
5c92
5492
54fe
fe92
8292
7cfe
4428
7c48
45ff
7c08
4408
4408
4c08
ENDCHAR
STARTCHAR ch-196
ENCODING 196
SWIDTH 1000 0
DWIDTH 16 0
BBX 16 16 0 -2
BITMAP
7c10
4510
5dff
5490
543e
fe22
8262
7dbe
44a2
7ca2
44be
7ca2
44a2
44a6
45c0
4d3f
ENDCHAR
STARTCHAR ch-207
ENCODING 207
SWIDTH 1000 0
DWIDTH 16 0
BBX 16 16 0 -2
BITMAP
0010
7cfe
4492
5dff
5492
54fe
fe10
82fe
7c92
44fe
7c20
45ff
7c44
44e8
443c
4ce6
ENDCHAR
STARTCHAR ch-209
ENCODING 209
SWIDTH 1000 0
DWIDTH 16 0
BBX 16 16 0 -2
BITMAP
0000
7dfe
4552
5d52
55fe
5440
feff
82a1
7df9
44a9
7ca9
44f9
7c29
447b
44ca
4c06
ENDCHAR
STARTCHAR ch-211
ENCODING 211
SWIDTH 1000 0
DWIDTH 16 0
BBX 16 16 0 -2
BITMAP
7c10
457f
5d90
54be
5464
fe1f
8200
7dbe
44a2
7cbe
44a2
7cbe
44a2
44a6
45c0
4d3f
ENDCHAR
STARTCHAR ch-212
ENCODING 212
SWIDTH 1000 0
DWIDTH 16 0
BBX 16 16 0 -2
BITMAP
7c28
44fe
5caa
54fe
54aa
fefe
8200
7dff
4400
7cfe
4482
7cfe
4444
446c
4428
4dff
ENDCHAR
STARTCHAR ch-216
ENCODING 216
SWIDTH 1000 0
DWIDTH 16 0
BBX 16 16 0 -2
BITMAP
0100
0100
ffff
0000
0ff0
0810
0ff0
0000
7ffe
4002
4ff2
4812
4812
4ff2
4002
400e
ENDCHAR
STARTCHAR ch-222
ENCODING 222
SWIDTH 1000 0
DWIDTH 16 0
BBX 16 16 0 -2
BITMAP
107c
1044
fe44
007c
7c00
44ee
7caa
00aa
feee
8210
bbff
aa54
aa54
bad6
8393
8610
ENDCHAR
STARTCHAR ch-223
ENCODING 223
SWIDTH 1000 0
DWIDTH 16 0
BBX 16 16 0 -2
BITMAP
0004
3f0c
2008
3e18
2032
2066
3e04
200c
2018
ffb1
2063
2202
6206
4f0c
f918
0070
ENDCHAR
STARTCHAR ch-226
ENCODING 226
SWIDTH 1000 0
DWIDTH 16 0
BBX 16 16 0 -2
BITMAP
3f04
2018
3e62
200c
3e31
2002
ff8c
2230
7d00
0040
087c
0fc4
f84c
0801
0c03
07fe
ENDCHAR
STARTCHAR ch-227
ENCODING 227
SWIDTH 1000 0
DWIDTH 16 0
BBX 16 16 0 -2
BITMAP
3f04
2018
3e62
200c
3e31
2002
ff8c
2230
7d00
0100
ffff
0200
03fc
0604
1c0c
7038
ENDCHAR
STARTCHAR ch-230
ENCODING 230
SWIDTH 1000 0
DWIDTH 16 0
BBX 16 16 0 -2
BITMAP
3f04
2018
3e62
200c
ffb1
2206
7d38
0000
0070
1fc0
0100
3ff8
0100
7ffd
0103
00fe
ENDCHAR
STARTCHAR ch-234
ENCODING 234
SWIDTH 1000 0
DWIDTH 16 0
BBX 16 16 0 -2
BITMAP
3f04
2018
3e60
2002
3e0c
2030
ff81
2206
7d38
0200
ffff
0400
0ffc
3a08
e1f0
0f1f
ENDCHAR
STARTCHAR ch-235
ENCODING 235
SWIDTH 1000 0
DWIDTH 16 0
BBX 16 16 0 -2
BITMAP
3f04
2018
3e62
200c
ffb1
2206
7d38
0000
7ffe
0102
0e0e
f800
1ffc
1004
1004
1ffc
ENDCHAR
STARTCHAR ch-237
ENCODING 237
SWIDTH 1000 0
DWIDTH 16 0
BBX 16 16 0 -2
BITMAP
3f04
2018
3e62
200c
3e31
2002
ff8c
2230
7d00
0840
4846
4f7c
4840
4841
7f63
c03e
ENDCHAR
STARTCHAR ch-238
ENCODING 238
SWIDTH 1000 0
DWIDTH 16 0
BBX 16 16 0 -2
BITMAP
3f04
2018
3ee2
200c
3e71
2006
ff98
2260
7d08
0204
ffff
0400
0e18
3b30
e1e0
0f3f
ENDCHAR
STARTCHAR ch-239
ENCODING 239
SWIDTH 1000 0
DWIDTH 16 0
BBX 16 16 0 -2
BITMAP
3f04
2018
3e62
200c
ffb1
2206
7d38
0000
0100
1ff8
1108
1ff8
1108
ffff
1008
1038
ENDCHAR
STARTCHAR ch-241
ENCODING 241
SWIDTH 1000 0
DWIDTH 16 0
BBX 16 16 0 -2
BITMAP
3f04
2018
3e62
200c
ffb1
2206
7d38
0800
1ffc
3004
ffc4
0044
1fdc
1001
1803
0ffe
ENDCHAR
STARTCHAR ch-244
ENCODING 244
SWIDTH 1000 0
DWIDTH 16 0
BBX 16 16 0 -2
BITMAP
3f04
2018
3e62
200c
ffb1
2206
7d38
0240
7ffc
0244
3ffc
2240
3ffe
0442
0c4e
3840
ENDCHAR
STARTCHAR ch-247
ENCODING 247
SWIDTH 1000 0
DWIDTH 16 0
BBX 16 16 0 -2
BITMAP
3f04
2018
3e62
200c
3e31
2002
ff8c
2230
7d00
0000
0440
3ffc
2444
3ffc
2444
3ffc
ENDCHAR
STARTCHAR ch-251
ENCODING 251
SWIDTH 1000 0
DWIDTH 16 0
BBX 16 16 0 -2
BITMAP
3f04
2018
3e62
200c
ffb1
2206
7d38
0000
0100
ffff
0100
3ffc
0000
1ff8
1008
1ff8
ENDCHAR
STARTCHAR ch-262
ENCODING 262
SWIDTH 1000 0
DWIDTH 16 0
BBX 16 16 0 -2
BITMAP
3f04
2018
3e62
200c
3e31
2002
ff8c
2230
7d00
0844
fec6
2983
2c20
6a64
c84e
08fb
ENDCHAR
STARTCHAR ch-280
ENCODING 280
SWIDTH 1000 0
DWIDTH 16 0
BBX 16 16 0 -2
BITMAP
3f04
2018
3e62
200c
ffb1
2206
7ff8
0810
0ff0
0810
3ffc
2444
7ffc
0810
07e0
7c3e
ENDCHAR
STARTCHAR ch-282
ENCODING 282
SWIDTH 1000 0
DWIDTH 16 0
BBX 16 16 0 -2
BITMAP
3f04
2018
3e62
200c
ffb1
2206
7d38
0000
09ff
1010
64fe
0882
32fe
0482
18fe
6183
ENDCHAR
STARTCHAR ch-287
ENCODING 287
SWIDTH 1000 0
DWIDTH 16 0
BBX 16 16 0 -2
BITMAP
3f04
2018
3e62
200c
ffb1
2206
7ff8
1248
1ff8
0000
ffff
1008
1ff8
0490
7860
0e1e
ENDCHAR
STARTCHAR ch-290
ENCODING 290
SWIDTH 1000 0
DWIDTH 16 0
BBX 16 16 0 -2
BITMAP
3f04
2018
3e62
200c
ffb1
2106
7e98
0100
7ffe
524a
2ff4
1810
eff0
0810
0ff0
381c
ENDCHAR
STARTCHAR ch-291
ENCODING 291
SWIDTH 1000 0
DWIDTH 16 0
BBX 16 16 0 -2
BITMAP
3e0c
20f0
3c06
2078
ff03
243c
7e08
0910
7ffe
4922
7ffe
2108
3de8
210d
3de5
e307
ENDCHAR
STARTCHAR ch-293
ENCODING 293
SWIDTH 1000 0
DWIDTH 16 0
BBX 16 16 0 -2
BITMAP
5e7a
4422
5e7a
4422
5e7a
4002
4002
4002
4002
4002
4002
4002
4002
4002
4002
400e
ENDCHAR
STARTCHAR ch-295
ENCODING 295
SWIDTH 1000 0
DWIDTH 16 0
BBX 16 16 0 -2
BITMAP
5e7a
4422
5e7a
4422
5e7a
4002
4102
5ffa
4102
4ff2
4912
4912
4912
4932
4102
400e
ENDCHAR
STARTCHAR ch-296
ENCODING 296
SWIDTH 1000 0
DWIDTH 16 0
BBX 16 16 0 -2
BITMAP
5e7a
4422
5e7a
4422
5e7a
4002
4242
4ff2
4242
4242
5ffa
4242
4662
4c32
4002
400e
ENDCHAR
STARTCHAR ch-297
ENCODING 297
SWIDTH 1000 0
DWIDTH 16 0
BBX 16 16 0 -2
BITMAP
5e7a
4422
5e7a
4422
5e7a
4002
4302
4e72
4812
4e72
4812
4ff2
4242
464a
5c3a
4006
ENDCHAR
STARTCHAR ch-298
ENCODING 298
SWIDTH 1000 0
DWIDTH 16 0
BBX 16 16 0 -2
BITMAP
be7d
8811
be7d
8811
be7d
8001
9f09
8009
9f7d
9109
9f49
8069
9229
9a09
8f09
981b
ENDCHAR
STARTCHAR ch-302
ENCODING 302
SWIDTH 1000 0
DWIDTH 16 0
BBX 16 16 0 -2
BITMAP
be7d
8811
be7d
8811
be7d
87c1
8881
bff1
8a91
bff9
8aa9
bed9
8aa9
bff9
8a05
bbfd
ENDCHAR
STARTCHAR ch-303
ENCODING 303
SWIDTH 1000 0
DWIDTH 16 0
BBX 16 16 0 -2
BITMAP
0100
2084
2424
3244
2994
224c
2c24
2104
2084
3ffc
1000
1038
1fe0
1002
1806
0ffc
ENDCHAR
STARTCHAR ch-305
ENCODING 305
SWIDTH 1000 0
DWIDTH 16 0
BBX 16 16 0 -2
BITMAP
1208
17e8
f91f
57aa
5d3a
97e9
1008
ffff
9401
490c
5570
7f06
2078
3c03
210c
1f70
ENDCHAR
STARTCHAR ch-306
ENCODING 306
SWIDTH 1000 0
DWIDTH 16 0
BBX 16 16 0 -2
BITMAP
0000
ffff
0000
1ff8
1008
1ff8
0000
7ffe
4442
4442
487a
5002
4ff2
4102
4102
410e
ENDCHAR
STARTCHAR ch-315
ENCODING 315
SWIDTH 1000 0
DWIDTH 16 0
BBX 16 16 0 -2
BITMAP
f55e
1102
77ee
4108
738e
1542
3106
ffff
1008
1ff8
0000
7ffe
4422
583a
47c2
410e
ENDCHAR
STARTCHAR ch-316
ENCODING 316
SWIDTH 1000 0
DWIDTH 16 0
BBX 16 16 0 -2
BITMAP
0100
0200
3ffc
2104
2104
3ffc
2104
2104
3ffc
0490
0494
0ca6
08ba
1881
30c3
e07e
ENDCHAR
STARTCHAR ch-321
ENCODING 321
SWIDTH 1000 0
DWIDTH 16 0
BBX 16 16 0 -2
BITMAP
0804
1064
7f34
4914
4904
7f64
4934
4914
7f07
247c
2504
2544
27c4
6405
4603
c3fe
ENDCHAR
STARTCHAR ch-322
ENCODING 322
SWIDTH 1000 0
DWIDTH 16 0
BBX 16 16 0 -2
BITMAP
0020
0040
7bfe
0222
0222
03fe
fe22
2222
23fe
2090
6894
4895
7d9f
c510
0311
0e0f
ENDCHAR
STARTCHAR ch-323
ENCODING 323
SWIDTH 1000 0
DWIDTH 16 0
BBX 16 16 0 -2
BITMAP
0814
1016
7f12
49ff
4910
7f32
4922
4926
7f74
28dc
2a08
2a1c
2ab6
6f81
4803
c7fe
ENDCHAR
STARTCHAR ch-324
ENCODING 324
SWIDTH 1000 0
DWIDTH 16 0
BBX 16 16 0 -2
BITMAP
1020
3040
23fe
7a22
4a22
4bfe
4a22
7a22
4bfe
4890
4894
4895
799f
0110
0311
060f
ENDCHAR
STARTCHAR ch-325
ENCODING 325
SWIDTH 1000 0
DWIDTH 16 0
BBX 16 16 0 -2
BITMAP
0808
1008
7f08
493e
4908
7f08
497f
4908
7f1c
281c
292a
2a49
2a88
6b89
4c03
c7fe
ENDCHAR
STARTCHAR ch-333
ENCODING 333
SWIDTH 1000 0
DWIDTH 16 0
BBX 16 16 0 -2
BITMAP
1000
20fe
fe82
92aa
92aa
fefe
9292
9292
fefe
50a2
54a2
55ba
5f82
5086
d801
8fff
ENDCHAR
STARTCHAR ch-334
ENCODING 334
SWIDTH 1000 0
DWIDTH 16 0
BBX 16 16 0 -2
BITMAP
1000
21ff
fc10
a410
a5ff
fd11
a5dd
a555
fd55
51bb
5511
5511
5d13
5000
d801
8fff
ENDCHAR
STARTCHAR ch-335
ENCODING 335
SWIDTH 1000 0
DWIDTH 16 0
BBX 16 16 0 -2
BITMAP
0420
1c40
f1fe
1122
ff22
55fe
5522
9322
11fe
2050
ff54
2455
445f
78d0
2c91
c58f
ENDCHAR
STARTCHAR ch-337
ENCODING 337
SWIDTH 1000 0
DWIDTH 16 0
BBX 16 16 0 -2
BITMAP
1010
21ff
fc00
a4aa
a492
fcaa
a482
a4fe
fc20
51ff
5521
5549
5d75
5103
d801
8fff
ENDCHAR
STARTCHAR ch-340
ENCODING 340
SWIDTH 1000 0
DWIDTH 16 0
BBX 16 16 0 -2
BITMAP
0080
7fff
4208
5fbf
460c
4b1a
5249
4ffc
4884
4ffc
4884
4ffc
c24a
864e
8c61
383f
ENDCHAR
STARTCHAR ch-344
ENCODING 344
SWIDTH 1000 0
DWIDTH 16 0
BBX 16 16 0 -2
BITMAP
7fff
5114
5f12
51ff
5f28
516c
5fc6
5103
4ff8
4888
4ff8
4888
cffa
824e
8641
3c3f
ENDCHAR
STARTCHAR ch-346
ENCODING 346
SWIDTH 1000 0
DWIDTH 16 0
BBX 16 16 0 -2
BITMAP
0400
0400
0ff0
1820
3040
fffc
2104
2104
3ffc
2104
2104
3ffc
0000
2444
6666
c223
ENDCHAR
STARTCHAR ch-367
ENCODING 367
SWIDTH 1000 0
DWIDTH 16 0
BBX 16 16 0 -2
BITMAP
0800
1fc0
2080
fffc
2104
3ffc
2104
3ffc
2444
6666
c223
3ffc
2004
3ffc
2004
3ffc
ENDCHAR
STARTCHAR ch-372
ENCODING 372
SWIDTH 1000 0
DWIDTH 16 0
BBX 16 16 0 -2
BITMAP
2010
3e10
6210
44ff
ff10
4910
491e
7f12
4912
4932
7f22
0022
5566
5544
d4c4
819c
ENDCHAR
STARTCHAR ch-387
ENCODING 387
SWIDTH 1000 0
DWIDTH 16 0
BBX 16 16 0 -2
BITMAP
2000
3cfe
6410
4892
fed6
5254
5254
7e10
53ff
5210
7e10
0010
aa10
aa10
a810
8010
ENDCHAR
STARTCHAR ch-398
ENCODING 398
SWIDTH 1000 0
DWIDTH 16 0
BBX 16 16 0 -2
BITMAP
2010
3e10
6210
4410
ff1f
4910
4910
7f10
4910
497e
7f42
0042
5542
5542
d442
807e
ENDCHAR
STARTCHAR ch-401
ENCODING 401
SWIDTH 1000 0
DWIDTH 16 0
BBX 16 16 0 -2
BITMAP
2040
3c40
647e
48c2
fe82
53fa
520a
7e0a
52fa
5286
7e84
009c
aa80
aa81
a8c3
807e
ENDCHAR
STARTCHAR ch-402
ENCODING 402
SWIDTH 1000 0
DWIDTH 16 0
BBX 16 16 0 -2
BITMAP
2044
3c44
64c4
4884
fcbf
5584
55a4
7eb4
5494
5494
7c84
0084
aa84
aa84
a884
809c
ENDCHAR
STARTCHAR ch-403
ENCODING 403
SWIDTH 1000 0
DWIDTH 16 0
BBX 16 16 0 -2
BITMAP
2020
3e20
6220
447f
ff50
49d0
4910
7f1e
4910
4910
7f10
001e
5510
5510
d410
8010
ENDCHAR
STARTCHAR ch-406
ENCODING 406
SWIDTH 1000 0
DWIDTH 16 0
BBX 16 16 0 -2
BITMAP
2000
3dff
6420
4820
fe20
5260
5240
7e7e
52c2
52c2
7f42
0042
aa42
aa42
a842
807e
ENDCHAR
STARTCHAR ch-407
ENCODING 407
SWIDTH 1000 0
DWIDTH 16 0
BBX 16 16 0 -2
BITMAP
2020
3c20
647e
4842
fec6
522c
5218
7e3c
5266
52c3
7e38
000c
aa00
aa30
a81c
8004
ENDCHAR
STARTCHAR ch-415
ENCODING 415
SWIDTH 1000 0
DWIDTH 16 0
BBX 16 16 0 -2
BITMAP
2010
3c10
64fe
4882
fea2
5220
53ff
7e24
5264
524c
7e48
00e8
aa38
aa2c
a866
80c2
ENDCHAR
STARTCHAR ch-416
ENCODING 416
SWIDTH 1000 0
DWIDTH 16 0
BBX 16 16 0 -2
BITMAP
2040
3c7e
64c4
4988
feff
5280
5280
7ebe
52a2
52a2
7ea2
00a6
aaa0
aaa1
a933
801e
ENDCHAR
STARTCHAR ch-424
ENCODING 424
SWIDTH 1000 0
DWIDTH 16 0
BBX 16 16 0 -2
BITMAP
2040
3c46
647c
4840
fe41
5263
523e
7e00
5200
527e
7e42
0042
aa7e
aa42
a842
807e
ENDCHAR
STARTCHAR ch-426
ENCODING 426
SWIDTH 1000 0
DWIDTH 16 0
BBX 16 16 0 -2
BITMAP
2010
3c10
65ff
4820
fe20
527e
52c2
7f42
527e
5242
7e42
007e
aa42
aa42
a842
804e
ENDCHAR
STARTCHAR ch-427
ENCODING 427
SWIDTH 1000 0
DWIDTH 16 0
BBX 16 16 0 -2
BITMAP
2010
3c10
6410
49ff
fc44
54c6
5583
7c44
5444
546c
7c38
0010
aa38
aa6c
a8c6
8183
ENDCHAR
STARTCHAR ch-429
ENCODING 429
SWIDTH 1000 0
DWIDTH 16 0
BBX 16 16 0 -2
BITMAP
2010
3c10
64fe
4810
fe10
5210
53ff
7e00
5210
5210
7efe
0010
5510
5510
d410
81ff
ENDCHAR
STARTCHAR ch-430
ENCODING 430
SWIDTH 1000 0
DWIDTH 16 0
BBX 16 16 0 -2
BITMAP
2041
3e63
6222
447f
ff08
4908
493e
7f08
4908
4908
7f7f
0008
5508
5588
d488
8008
ENDCHAR
STARTCHAR ch-436
ENCODING 436
SWIDTH 1000 0
DWIDTH 16 0
BBX 16 16 0 -2
BITMAP
2048
3c48
64c8
4888
fdff
5688
5488
7c9c
549c
54aa
7caa
00c9
aa88
aa88
a888
8088
ENDCHAR
STARTCHAR ch-441
ENCODING 441
SWIDTH 1000 0
DWIDTH 16 0
BBX 16 16 0 -2
BITMAP
2010
3d11
6593
4892
fe10
52fe
5282
7e82
52fe
5282
7e82
00fe
aa82
aa82
a882
808e
ENDCHAR
STARTCHAR ch-448
ENCODING 448
SWIDTH 1000 0
DWIDTH 16 0
BBX 16 16 0 -2
BITMAP
2006
3cfc
6420
4864
fecc
5278
5210
7e22
52ff
5211
7e10
0054
aa54
aad6
a993
8010
ENDCHAR
STARTCHAR ch-454
ENCODING 454
SWIDTH 1000 0
DWIDTH 16 0
BBX 16 16 0 -2
BITMAP
2014
3c12
65ff
4810
fe10
52fe
5292
7e92
52fe
5292
7e92
00fe
aa92
aa92
a892
8096
ENDCHAR
STARTCHAR ch-457
ENCODING 457
SWIDTH 1000 0
DWIDTH 16 0
BBX 16 16 0 -2
BITMAP
2000
3efe
6292
4492
fefe
5292
5292
7e92
52fe
5210
7e10
00fe
5510
5510
d410
81ff
ENDCHAR
STARTCHAR ch-458
ENCODING 458
SWIDTH 1000 0
DWIDTH 16 0
BBX 16 16 0 -2
BITMAP
3020
18a8
c1ae
6363
181c
73f0
c000
0fc0
1080
7ff8
1108
1ff8
1108
1ff8
2444
c223
ENDCHAR
STARTCHAR ch-463
ENCODING 463
SWIDTH 1000 0
DWIDTH 16 0
BBX 16 16 0 -2
BITMAP
2012
3c72
65ca
484a
fc4a
55fa
544a
7c4a
54ea
54da
7d4a
004a
aa42
aa42
a842
8046
ENDCHAR
STARTCHAR ch-465
ENCODING 465
SWIDTH 1000 0
DWIDTH 16 0
BBX 16 16 0 -2
BITMAP
2004
3cc8
6430
48cc
fe20
53ff
5240
7e50
52fe
5392
7e92
0092
aa92
aa96
a810
8010
ENDCHAR
STARTCHAR ch-466
ENCODING 466
SWIDTH 1000 0
DWIDTH 16 0
BBX 16 16 0 -2
BITMAP
2000
3cfe
6404
4868
fe10
52fe
5292
7e92
52fe
5292
7e92
00fe
aa92
aa92
a892
8096
ENDCHAR
STARTCHAR ch-468
ENCODING 468
SWIDTH 1000 0
DWIDTH 16 0
BBX 16 16 0 -2
BITMAP
2092
3c92
6524
4924
fc92
5492
5400
7cfe
5492
5492
7c92
00fe
aa92
aa92
a892
80fe
ENDCHAR
STARTCHAR ch-470
ENCODING 470
SWIDTH 1000 0
DWIDTH 16 0
BBX 16 16 0 -2
BITMAP
2010
3c10
65ff
4810
fefe
5210
53ff
7e00
52fe
5282
7efe
0082
00fe
aa82
aa82
808e
ENDCHAR
STARTCHAR ch-475
ENCODING 475
SWIDTH 1000 0
DWIDTH 16 0
BBX 16 16 0 -2
BITMAP
2000
3c7f
6441
4849
fe5d
5249
5249
7e5d
5241
525d
7e55
0055
555d
5541
d441
8083
ENDCHAR
STARTCHAR ch-481
ENCODING 481
SWIDTH 1000 0
DWIDTH 16 0
BBX 16 16 0 -2
BITMAP
2024
3c24
6424
48e7
fe24
5224
5224
7ee7
5224
5224
7e64
00a7
aa24
aa64
a844
80c4
ENDCHAR
STARTCHAR ch-482
ENCODING 482
SWIDTH 1000 0
DWIDTH 16 0
BBX 16 16 0 -2
BITMAP
2060
3cce
6482
4882
fcee
5482
5482
7c82
54fe
5448
7c48
0048
aa48
aac9
a889
8187
ENDCHAR
STARTCHAR ch-483
ENCODING 483
SWIDTH 1000 0
DWIDTH 16 0
BBX 16 16 0 -2
BITMAP
2000
3cfc
6484
4884
fcfc
5484
5484
7cfc
5440
54ff
7d95
0025
aa49
aa93
a822
804e
ENDCHAR
STARTCHAR ch-484
ENCODING 484
SWIDTH 1000 0
DWIDTH 16 0
BBX 16 16 0 -2
BITMAP
2000
3cfe
6482
4882
fcfe
5482
5482
7cfe
5400
5488
7c8b
00ee
aa88
aa89
a8e9
8187
ENDCHAR
STARTCHAR ch-488
ENCODING 488
SWIDTH 1000 0
DWIDTH 16 0
BBX 16 16 0 -2
BITMAP
2010
3c10
64ff
4800
fe7e
5242
5242
7e42
527e
5210
7e10
0054
0256
aad2
a893
8030
ENDCHAR
STARTCHAR ch-496
ENCODING 496
SWIDTH 1000 0
DWIDTH 16 0
BBX 16 16 0 -2
BITMAP
2010
3c38
646c
48c6
fdbb
5400
54fe
7c04
5408
5410
7c18
0028
aaa2
aaa3
a8a5
811c
ENDCHAR
STARTCHAR ch-497
ENCODING 497
SWIDTH 1000 0
DWIDTH 16 0
BBX 16 16 0 -2
BITMAP
2010
3c1e
6410
48ff
fe91
529c
52f0
7e91
528f
5280
7e94
0094
aa94
aab5
a925
8063
ENDCHAR
STARTCHAR ch-498
ENCODING 498
SWIDTH 1000 0
DWIDTH 16 0
BBX 16 16 0 -2
BITMAP
2084
3c84
648e
4bea
fc8a
549b
5491
7ce0
54ac
54a6
7ca2
00a0
55a0
552c
d526
8362
ENDCHAR
STARTCHAR ch-501
ENCODING 501
SWIDTH 1000 0
DWIDTH 16 0
BBX 16 16 0 -2
BITMAP
2020
3c64
6446
48fa
fe10
53ff
5228
7e44
5393
5220
7ec4
0018
5561
5506
d418
80e0
ENDCHAR
ENDFONT
