STARTFONT 2.1
FONT jis.jis6800.16
SIZE 16 72 72
FONTBOUNDINGBOX 16 16 0 -2
STARTPROPERTIES 4
FONT_DESCENT 2
FONT_ASCENT 14
DEFAULT_CHAR 2
COPYRIGHT "Copyright (c) 1992 AT&T - All rights reserved."
ENDPROPERTIES
CHARS 184
STARTCHAR ch-2
ENCODING 2
SWIDTH 1000 0
DWIDTH 16 0
BBX 16 16 0 -2
BITMAP
1000
11fe
1102
fd22
1132
1112
3902
37ff
3202
5242
5262
9222
1202
13ff
1004
101c
ENDCHAR
STARTCHAR ch-3
ENCODING 3
SWIDTH 1000 0
DWIDTH 16 0
BBX 16 16 0 -2
BITMAP
1006
103c
11e0
fd00
11ff
1120
3920
353e
3522
5122
5122
9362
1246
1644
10c4
119c
ENDCHAR
STARTCHAR ch-4
ENCODING 4
SWIDTH 1000 0
DWIDTH 16 0
BBX 16 16 0 -2
BITMAP
0604
630c
3118
1010
7ffe
4002
4102
0100
ffff
0540
0d60
0930
1918
310c
e107
0100
ENDCHAR
STARTCHAR ch-19
ENCODING 19
SWIDTH 1000 0
DWIDTH 16 0
BBX 16 16 0 -2
BITMAP
1020
1070
10d8
fd8c
1306
1603
31fc
3820
3420
5420
51fc
9020
1020
1020
17ff
1000
ENDCHAR
STARTCHAR ch-22
ENCODING 22
SWIDTH 1000 0
DWIDTH 16 0
BBX 16 16 0 -2
BITMAP
1000
13ff
1048
fc48
13ff
1249
3a49
3649
3249
5289
5307
9201
1201
1201
13ff
1000
ENDCHAR
STARTCHAR ch-23
ENCODING 23
SWIDTH 1000 0
DWIDTH 16 0
BBX 16 16 0 -2
BITMAP
0000
ffff
0440
0440
7ffe
4442
4442
7ffe
0100
ffff
0520
0d30
1918
310c
e107
0100
ENDCHAR
STARTCHAR ch-30
ENCODING 30
SWIDTH 1000 0
DWIDTH 16 0
BBX 16 16 0 -2
BITMAP
0000
7c3e
1008
1008
fe7f
1008
1008
1108
0100
ffff
0540
0d60
1930
311c
e107
0100
ENDCHAR
STARTCHAR ch-33
ENCODING 33
SWIDTH 1000 0
DWIDTH 16 0
BBX 16 16 0 -2
BITMAP
1010
1010
1010
fdff
1044
10c6
3983
3444
3444
506c
5038
9010
1038
106c
10c6
1183
ENDCHAR
STARTCHAR ch-34
ENCODING 34
SWIDTH 1000 0
DWIDTH 16 0
BBX 16 16 0 -2
BITMAP
1000
13ff
1010
fc30
1020
11fe
3902
3502
3502
5102
51fe
9102
1102
1102
1102
11fe
ENDCHAR
STARTCHAR ch-41
ENCODING 41
SWIDTH 1000 0
DWIDTH 16 0
BBX 16 16 0 -2
BITMAP
2000
23de
2042
f842
2252
235a
714a
6842
a8c6
a14a
235a
2672
2042
2042
2042
21ce
ENDCHAR
STARTCHAR ch-42
ENCODING 42
SWIDTH 1000 0
DWIDTH 16 0
BBX 16 16 0 -2
BITMAP
1020
1120
1120
fd20
13fe
1a20
3420
3020
37ff
50a8
50a8
91ac
1124
1326
1623
1020
ENDCHAR
STARTCHAR ch-43
ENCODING 43
SWIDTH 1000 0
DWIDTH 16 0
BBX 16 16 0 -2
BITMAP
1040
1040
13ff
fc40
10c0
18be
3582
3104
3308
557f
5108
9108
1108
1108
1108
1138
ENDCHAR
STARTCHAR ch-50
ENCODING 50
SWIDTH 1000 0
DWIDTH 16 0
BBX 16 16 0 -2
BITMAP
1020
1022
11fe
fc24
1028
13ff
3820
347e
31c0
5640
507e
9002
1002
1006
1004
101c
ENDCHAR
STARTCHAR ch-52
ENCODING 52
SWIDTH 1000 0
DWIDTH 16 0
BBX 16 16 0 -2
BITMAP
1080
1080
11ff
fd00
1200
10fe
3092
3892
3492
5492
51ff
9082
1082
1082
1082
108e
ENDCHAR
STARTCHAR ch-56
ENCODING 56
SWIDTH 1000 0
DWIDTH 16 0
BBX 16 16 0 -2
BITMAP
1020
1020
1020
ffff
1040
10c0
3188
38d8
3430
5064
50cc
9398
1030
106c
10c6
1383
ENDCHAR
STARTCHAR ch-57
ENCODING 57
SWIDTH 1000 0
DWIDTH 16 0
BBX 16 16 0 -2
BITMAP
1000
11fc
1104
fd04
11fc
1104
3904
35fc
3521
5133
5116
9118
1108
110c
11e6
1703
ENDCHAR
STARTCHAR ch-60
ENCODING 60
SWIDTH 1000 0
DWIDTH 16 0
BBX 16 16 0 -2
BITMAP
1040
1040
10fc
fc84
11cc
1358
3830
3478
30cc
5387
50fc
9084
1084
1084
1084
10fc
ENDCHAR
STARTCHAR ch-61
ENCODING 61
SWIDTH 1000 0
DWIDTH 16 0
BBX 16 16 0 -2
BITMAP
0820
0824
7f26
0822
0820
ffff
0020
0822
0832
ff96
1814
1e1c
2b09
681d
c877
09c2
ENDCHAR
STARTCHAR ch-64
ENCODING 64
SWIDTH 1000 0
DWIDTH 16 0
BBX 16 16 0 -2
BITMAP
1008
1008
3efe
6248
c648
2c48
19ff
3008
e108
0100
ffff
0540
0d60
3938
e10f
0100
ENDCHAR
STARTCHAR ch-65
ENCODING 65
SWIDTH 1000 0
DWIDTH 16 0
BBX 16 16 0 -2
BITMAP
1080
109e
1180
fd00
1300
1280
38bf
3584
3104
5304
5104
9104
1104
1104
1104
111c
ENDCHAR
STARTCHAR ch-66
ENCODING 66
SWIDTH 1000 0
DWIDTH 16 0
BBX 16 16 0 -2
BITMAP
1020
1020
11fe
fc20
1020
1020
3bff
3400
3420
5020
51fe
9020
1020
1020
13ff
1000
ENDCHAR
STARTCHAR ch-67
ENCODING 67
SWIDTH 1000 0
DWIDTH 16 0
BBX 16 16 0 -2
BITMAP
1048
1048
1249
ff4b
114e
1048
3848
3448
344e
51cb
5349
9048
10c8
1089
1189
1307
ENDCHAR
STARTCHAR ch-70
ENCODING 70
SWIDTH 1000 0
DWIDTH 16 0
BBX 16 16 0 -2
BITMAP
1000
13ff
1200
fefe
1210
1210
3a10
367c
3210
5210
5210
9210
12fe
1200
13ff
1000
ENDCHAR
STARTCHAR ch-72
ENCODING 72
SWIDTH 1000 0
DWIDTH 16 0
BBX 16 16 0 -2
BITMAP
0100
7ffe
4002
0200
ffff
0810
1e30
03e0
0e38
780c
0100
ffff
0520
1d38
f10f
0100
ENDCHAR
STARTCHAR ch-77
ENCODING 77
SWIDTH 1000 0
DWIDTH 16 0
BBX 16 16 0 -2
BITMAP
1020
1020
13ff
fc48
10cc
1186
337b
3800
35fe
5420
5040
90fe
1002
1002
1006
101c
ENDCHAR
STARTCHAR ch-78
ENCODING 78
SWIDTH 1000 0
DWIDTH 16 0
BBX 16 16 0 -2
BITMAP
1000
13fe
1040
fcc8
1088
10bc
3be6
3400
3420
5020
51fc
9020
1020
1020
17ff
1000
ENDCHAR
STARTCHAR ch-80
ENCODING 80
SWIDTH 1000 0
DWIDTH 16 0
BBX 16 16 0 -2
BITMAP
1000
13fe
1202
fe02
12fa
1202
3a02
36fa
328a
528a
528a
92fa
1202
1202
1202
120e
ENDCHAR
STARTCHAR ch-81
ENCODING 81
SWIDTH 1000 0
DWIDTH 16 0
BBX 16 16 0 -2
BITMAP
1ff0
0460
0380
1c78
0000
7e7e
2424
1818
e667
0100
ffff
0520
0d30
391c
e107
0100
ENDCHAR
STARTCHAR ch-83
ENCODING 83
SWIDTH 1000 0
DWIDTH 16 0
BBX 16 16 0 -2
BITMAP
1000
13fe
1000
fc00
11fc
1104
3904
35fc
3504
5104
5104
91fc
1000
1000
17ff
1000
ENDCHAR
STARTCHAR ch-84
ENCODING 84
SWIDTH 1000 0
DWIDTH 16 0
BBX 16 16 0 -2
BITMAP
1010
1010
1010
fdff
1010
1010
3810
34fe
3400
5000
50fe
9082
1082
1082
1082
10fe
ENDCHAR
STARTCHAR ch-89
ENCODING 89
SWIDTH 1000 0
DWIDTH 16 0
BBX 16 16 0 -2
BITMAP
1080
1084
1184
fd3e
13e3
1000
38a0
34a0
31fe
5320
5020
97ff
1020
1020
1020
1020
ENDCHAR
STARTCHAR ch-92
ENCODING 92
SWIDTH 1000 0
DWIDTH 16 0
BBX 16 16 0 -2
BITMAP
1041
1263
1322
fd26
1104
1000
3840
3440
33ff
5084
5184
910c
11e8
103c
10e6
1383
ENDCHAR
STARTCHAR ch-93
ENCODING 93
SWIDTH 1000 0
DWIDTH 16 0
BBX 16 16 0 -2
BITMAP
2204
2204
2204
fbc4
227f
2254
6754
75d4
a894
a094
21bf
2104
2304
2204
2604
2c04
ENDCHAR
STARTCHAR ch-95
ENCODING 95
SWIDTH 1000 0
DWIDTH 16 0
BBX 16 16 0 -2
BITMAP
1024
1026
1022
fdff
1020
11fe
3820
35ff
3420
5032
5016
901c
1038
10ed
1387
1002
ENDCHAR
STARTCHAR ch-99
ENCODING 99
SWIDTH 1000 0
DWIDTH 16 0
BBX 16 16 0 -2
BITMAP
1020
1222
1326
fd24
1124
1020
39fe
3402
3402
5002
51fe
9002
1002
1002
11fe
1000
ENDCHAR
STARTCHAR ch-103
ENCODING 103
SWIDTH 1000 0
DWIDTH 16 0
BBX 16 16 0 -2
BITMAP
1020
1070
1058
fccc
1186
1303
38fc
3400
3000
53ff
5040
9048
10cc
1084
10fe
1382
ENDCHAR
STARTCHAR ch-116
ENCODING 116
SWIDTH 1000 0
DWIDTH 16 0
BBX 16 16 0 -2
BITMAP
1006
101c
13f1
fd23
11b6
1094
39fe
3404
3408
5010
53ff
9010
1010
1010
1010
1070
ENDCHAR
STARTCHAR ch-118
ENCODING 118
SWIDTH 1000 0
DWIDTH 16 0
BBX 16 16 0 -2
BITMAP
1000
13fe
1004
fcc8
1030
13fe
3a22
3622
53fe
5222
9222
13fe
1222
1222
1222
1226
ENDCHAR
STARTCHAR ch-119
ENCODING 119
SWIDTH 1000 0
DWIDTH 16 0
BBX 16 16 0 -2
BITMAP
1080
10f8
1188
fd10
13fe
1122
3922
35fe
3522
5122
51fe
9102
1102
1302
1202
160e
ENDCHAR
STARTCHAR ch-126
ENCODING 126
SWIDTH 1000 0
DWIDTH 16 0
BBX 16 16 0 -2
BITMAP
1000
11fc
1044
fc44
13ff
1044
3844
35fc
3480
5080
51fe
9382
1682
1082
1082
10fe
ENDCHAR
STARTCHAR ch-127
ENCODING 127
SWIDTH 1000 0
DWIDTH 16 0
BBX 16 16 0 -2
BITMAP
1000
11fe
1102
fdfe
1102
1102
39fe
3400
35fe
5020
5020
93ff
1020
1020
1020
1020
ENDCHAR
STARTCHAR ch-129
ENCODING 129
SWIDTH 1000 0
DWIDTH 16 0
BBX 16 16 0 -2
BITMAP
0000
67f8
3048
c24a
66cb
1489
3188
6338
c000
0100
ffff
0520
0d30
391c
e107
0100
ENDCHAR
STARTCHAR ch-131
ENCODING 131
SWIDTH 1000 0
DWIDTH 16 0
BBX 16 16 0 -2
BITMAP
2002
278e
20b8
f908
2208
2788
70ff
6888
a088
a488
2688
2388
213e
2380
26e0
2c3f
ENDCHAR
STARTCHAR ch-133
ENCODING 133
SWIDTH 1000 0
DWIDTH 16 0
BBX 16 16 0 -2
BITMAP
1080
1080
11ff
fd00
1300
10fe
3892
3492
3092
53ff
5122
9122
1122
11ff
1004
101c
ENDCHAR
STARTCHAR ch-141
ENCODING 141
SWIDTH 1000 0
DWIDTH 16 0
BBX 16 16 0 -2
BITMAP
1020
1040
11fc
fd04
1104
11fc
3904
3504
35fc
5000
5040
97fe
1040
1041
1063
103e
ENDCHAR
STARTCHAR ch-143
ENCODING 143
SWIDTH 1000 0
DWIDTH 16 0
BBX 16 16 0 -2
BITMAP
1010
1090
1090
fcfe
1190
1110
3810
35ff
3400
5000
50fe
9082
1082
1082
1082
10fe
ENDCHAR
STARTCHAR ch-147
ENCODING 147
SWIDTH 1000 0
DWIDTH 16 0
BBX 16 16 0 -2
BITMAP
1020
1020
13fe
fc00
1104
118c
3888
37ff
3420
5020
5020
93fe
1020
1020
1020
1020
ENDCHAR
STARTCHAR ch-148
ENCODING 148
SWIDTH 1000 0
DWIDTH 16 0
BBX 16 16 0 -2
BITMAP
1006
101c
11f0
fd00
11ff
1100
397e
3552
3552
5152
517e
9140
1340
1241
1663
103e
ENDCHAR
STARTCHAR ch-151
ENCODING 151
SWIDTH 1000 0
DWIDTH 16 0
BBX 16 16 0 -2
BITMAP
1000
13ff
1020
fdfe
1122
1122
39fe
3522
3522
51fe
5020
91a0
10e0
1070
10dc
1387
ENDCHAR
STARTCHAR ch-155
ENCODING 155
SWIDTH 1000 0
DWIDTH 16 0
BBX 16 16 0 -2
BITMAP
2000
27ef
2129
f929
2129
27ea
712a
692a
a129
a7e9
2129
2129
2329
226b
2648
2dc8
ENDCHAR
STARTCHAR ch-157
ENCODING 157
SWIDTH 1000 0
DWIDTH 16 0
BBX 16 16 0 -2
BITMAP
0880
0880
19ff
1308
3688
28d8
6870
a9dc
2f27
2820
2fff
28a8
29ac
2326
2623
2020
ENDCHAR
STARTCHAR ch-159
ENCODING 159
SWIDTH 1000 0
DWIDTH 16 0
BBX 16 16 0 -2
BITMAP
0100
3ff8
2008
3ff8
2008
3ff8
2000
3fff
2000
3ffe
0002
010c
ffff
0520
1d38
f10f
ENDCHAR
STARTCHAR ch-160
ENCODING 160
SWIDTH 1000 0
DWIDTH 16 0
BBX 16 16 0 -2
BITMAP
1000
11fc
1104
fd04
1104
1104
39fc
3420
3460
5040
53fe
9202
1202
1202
1202
13fe
ENDCHAR
STARTCHAR ch-162
ENCODING 162
SWIDTH 1000 0
DWIDTH 16 0
BBX 16 16 0 -2
BITMAP
1020
1122
11a6
fca4
1020
11fe
3902
3502
35fe
5102
5102
91fe
1102
1102
1102
110e
ENDCHAR
STARTCHAR ch-166
ENCODING 166
SWIDTH 1000 0
DWIDTH 16 0
BBX 16 16 0 -2
BITMAP
0810
0810
feff
2854
2e54
6bd6
c893
0200
07f8
0c18
1e30
7360
01c0
0380
0e00
7800
ENDCHAR
STARTCHAR ch-167
ENCODING 167
SWIDTH 1000 0
DWIDTH 16 0
BBX 16 16 0 -2
BITMAP
1000
13ff
1020
fc20
11fc
1044
3844
3444
33ff
5000
51fe
9102
1102
1102
1102
11fe
ENDCHAR
STARTCHAR ch-168
ENCODING 168
SWIDTH 1000 0
DWIDTH 16 0
BBX 16 16 0 -2
BITMAP
0604
7c24
0824
ff24
0824
1c24
2a04
c804
081c
0100
ffff
0540
0d60
3938
e10f
0100
ENDCHAR
STARTCHAR ch-173
ENCODING 173
SWIDTH 1000 0
DWIDTH 16 0
BBX 16 16 0 -2
BITMAP
1040
10c4
1084
fdfe
1092
1890
359f
3340
307c
50c4
518c
9358
1030
1078
10cc
1387
ENDCHAR
STARTCHAR ch-175
ENCODING 175
SWIDTH 1000 0
DWIDTH 16 0
BBX 16 16 0 -2
BITMAP
1104
1088
13fe
fc22
1022
13fe
3a20
3620
33ff
5061
5061
90a3
11a2
132e
1620
1020
ENDCHAR
STARTCHAR ch-176
ENCODING 176
SWIDTH 1000 0
DWIDTH 16 0
BBX 16 16 0 -2
BITMAP
1014
1012
1010
fdff
1010
1150
3952
3552
33f6
5154
515c
9148
115d
1235
1067
11c2
ENDCHAR
STARTCHAR ch-177
ENCODING 177
SWIDTH 1000 0
DWIDTH 16 0
BBX 16 16 0 -2
BITMAP
1000
13fe
1202
fe22
1222
12fa
3a22
3672
3272
52aa
52aa
9222
1222
1202
13fe
1000
ENDCHAR
STARTCHAR ch-179
ENCODING 179
SWIDTH 1000 0
DWIDTH 16 0
BBX 16 16 0 -2
BITMAP
1020
1020
13ff
fc40
1044
109e
39f2
3400
34a4
50a4
50a4
90a4
10a4
11a5
1125
1303
ENDCHAR
STARTCHAR ch-181
ENCODING 181
SWIDTH 1000 0
DWIDTH 16 0
BBX 16 16 0 -2
BITMAP
0810
0810
feff
2854
2e54
6bd6
c893
0810
0000
1ff0
1010
1310
1190
3091
6013
c00e
ENDCHAR
STARTCHAR ch-182
ENCODING 182
SWIDTH 1000 0
DWIDTH 16 0
BBX 16 16 0 -2
BITMAP
1000
13fe
1202
fe02
13fe
1200
3a1c
36f0
3220
53fe
5220
93ff
1220
1221
1433
101e
ENDCHAR
STARTCHAR ch-185
ENCODING 185
SWIDTH 1000 0
DWIDTH 16 0
BBX 16 16 0 -2
BITMAP
100c
1038
11e0
fd00
11fe
1108
3908
3508
3108
5108
57ff
9000
1088
118c
1306
1603
ENDCHAR
STARTCHAR ch-186
ENCODING 186
SWIDTH 1000 0
DWIDTH 16 0
BBX 16 16 0 -2
BITMAP
0810
0810
feff
2854
2e54
6bd6
c893
0810
0000
ffff
0100
01e0
0138
010c
0100
0100
ENDCHAR
STARTCHAR ch-188
ENCODING 188
SWIDTH 1000 0
DWIDTH 16 0
BBX 16 16 0 -2
BITMAP
1020
1020
13ff
fc20
11fe
1020
3bff
3440
3044
53ff
5084
91a4
1134
1314
1604
101c
ENDCHAR
STARTCHAR ch-196
ENCODING 196
SWIDTH 1000 0
DWIDTH 16 0
BBX 16 16 0 -2
BITMAP
0100
ffff
0410
0808
3ff4
0000
1108
ffff
1108
1ff8
0100
ffff
0520
1d38
f10f
0100
ENDCHAR
STARTCHAR ch-198
ENCODING 198
SWIDTH 1000 0
DWIDTH 16 0
BBX 16 16 0 -2
BITMAP
1020
1070
10d8
fd8c
1307
10f8
3800
3400
33fe
5292
5292
93fe
1292
1292
1292
1296
ENDCHAR
STARTCHAR ch-201
ENCODING 201
SWIDTH 1000 0
DWIDTH 16 0
BBX 16 16 0 -2
BITMAP
1010
1020
10fe
fc82
10fe
1082
3882
34fe
3410
51ff
5111
9111
1111
1117
1010
1010
ENDCHAR
STARTCHAR ch-202
ENCODING 202
SWIDTH 1000 0
DWIDTH 16 0
BBX 16 16 0 -2
BITMAP
0810
7ffe
0810
0ff0
0810
0ff0
0810
ffff
0810
1108
3ffc
c523
0d30
1918
710e
0100
ENDCHAR
STARTCHAR ch-203
ENCODING 203
SWIDTH 1000 0
DWIDTH 16 0
BBX 16 16 0 -2
BITMAP
1084
1084
13ff
fc84
1084
10fc
3884
3484
34fc
5084
5084
93ff
1000
1084
1186
1303
ENDCHAR
STARTCHAR ch-205
ENCODING 205
SWIDTH 1000 0
DWIDTH 16 0
BBX 16 16 0 -2
BITMAP
1000
11fc
1104
fd04
11fc
1104
3904
35fc
3400
5110
5116
91dc
1110
1111
11d3
170e
ENDCHAR
STARTCHAR ch-210
ENCODING 210
SWIDTH 1000 0
DWIDTH 16 0
BBX 16 16 0 -2
BITMAP
1020
1020
13fe
fc20
11fc
1050
3bff
3488
3124
5623
51fc
9020
13fe
1020
1020
1020
ENDCHAR
STARTCHAR ch-212
ENCODING 212
SWIDTH 1000 0
DWIDTH 16 0
BBX 16 16 0 -2
BITMAP
100e
11f8
1110
fd10
11ff
1908
3508
31c5
3303
51fe
5102
9102
11fe
1102
1102
11fe
ENDCHAR
STARTCHAR ch-213
ENCODING 213
SWIDTH 1000 0
DWIDTH 16 0
BBX 16 16 0 -2
BITMAP
1020
1020
13fe
fe02
1202
11fc
3800
3400
33fe
5020
5124
9124
1326
1623
1020
10e0
ENDCHAR
STARTCHAR ch-215
ENCODING 215
SWIDTH 1000 0
DWIDTH 16 0
BBX 16 16 0 -2
BITMAP
0100
7ffe
0100
3ffc
2384
254c
1930
600e
0100
ffff
0100
3ffc
2384
254c
1930
e10f
ENDCHAR
STARTCHAR ch-216
ENCODING 216
SWIDTH 1000 0
DWIDTH 16 0
BBX 16 16 0 -2
BITMAP
1010
1010
feff
1010
1010
7efe
5292
5292
5696
3038
3838
5454
52d6
9193
1010
1010
ENDCHAR
STARTCHAR ch-218
ENCODING 218
SWIDTH 1000 0
DWIDTH 16 0
BBX 16 16 0 -2
BITMAP
2000
279e
2492
fc92
2492
279e
7492
6c92
6492
a79e
a492
2492
2492
2492
2492
29a6
ENDCHAR
STARTCHAR ch-223
ENCODING 223
SWIDTH 1000 0
DWIDTH 16 0
BBX 16 16 0 -2
BITMAP
1020
1020
13ff
fc20
11fe
1122
39fe
3522
3522
51fe
50a8
90a8
11ac
1326
1623
1020
ENDCHAR
STARTCHAR ch-224
ENCODING 224
SWIDTH 1000 0
DWIDTH 16 0
BBX 16 16 0 -2
BITMAP
1108
1918
0910
7ffe
4002
4ff2
0810
0810
0ff0
0100
ffff
0540
0d60
3938
e10f
0100
ENDCHAR
STARTCHAR ch-225
ENCODING 225
SWIDTH 1000 0
DWIDTH 16 0
BBX 16 16 0 -2
BITMAP
2000
23fe
2202
fa8a
2252
2202
72fa
6a22
aa22
a2aa
22aa
22aa
22fa
2202
2202
220e
ENDCHAR
STARTCHAR ch-227
ENCODING 227
SWIDTH 1000 0
DWIDTH 16 0
BBX 16 16 0 -2
BITMAP
1020
1020
11fe
fc22
13ff
1022
39fe
3420
3122
51b6
50b4
9028
10ac
11a6
1323
1060
ENDCHAR
STARTCHAR ch-231
ENCODING 231
SWIDTH 1000 0
DWIDTH 16 0
BBX 16 16 0 -2
BITMAP
1048
1044
107e
fde0
1036
1018
386d
3587
3448
5044
507e
93e0
1036
1018
106d
1387
ENDCHAR
STARTCHAR ch-238
ENCODING 238
SWIDTH 1000 0
DWIDTH 16 0
BBX 16 16 0 -2
BITMAP
0100
0100
3ffc
0520
0d30
1918
710e
0810
0810
feff
0810
1e38
2b54
68d6
c993
0810
ENDCHAR
STARTCHAR ch-239
ENCODING 239
SWIDTH 1000 0
DWIDTH 16 0
BBX 16 16 0 -2
BITMAP
1020
1070
10d8
fd8c
1307
10f8
3800
35fe
3404
5008
5020
9030
1152
1143
1345
123c
ENDCHAR
STARTCHAR ch-242
ENCODING 242
SWIDTH 1000 0
DWIDTH 16 0
BBX 16 16 0 -2
BITMAP
1020
1020
13ff
fc20
11fe
1022
33ff
3822
35fe
5020
53ff
9044
108c
11f8
102e
13c3
ENDCHAR
STARTCHAR ch-249
ENCODING 249
SWIDTH 1000 0
DWIDTH 16 0
BBX 16 16 0 -2
BITMAP
1020
1020
103e
fc20
11fc
1104
3904
35fc
3504
5104
51fc
9020
17ff
1020
1020
1020
ENDCHAR
STARTCHAR ch-250
ENCODING 250
SWIDTH 1000 0
DWIDTH 16 0
BBX 16 16 0 -2
BITMAP
1020
1020
13ff
fe01
1201
10fc
3884
3484
34fc
5080
5080
90fe
1082
1082
1082
10fe
ENDCHAR
STARTCHAR ch-256
ENCODING 256
SWIDTH 1000 0
DWIDTH 16 0
BBX 16 16 0 -2
BITMAP
1020
1020
13fe
fe02
1202
1100
39de
3552
3352
5252
57d2
9096
1190
1111
1313
160e
ENDCHAR
STARTCHAR ch-257
ENCODING 257
SWIDTH 1000 0
DWIDTH 16 0
BBX 16 16 0 -2
BITMAP
1020
1020
13ff
fc00
10fc
1084
38fc
3400
35fe
500c
5010
93ff
1010
1010
1010
1070
ENDCHAR
STARTCHAR ch-260
ENCODING 260
SWIDTH 1000 0
DWIDTH 16 0
BBX 16 16 0 -2
BITMAP
1020
1020
11fe
fc84
10cc
1048
3bff
3400
3040
53ff
5044
908c
11e8
1038
10ee
1383
ENDCHAR
STARTCHAR ch-261
ENCODING 261
SWIDTH 1000 0
DWIDTH 16 0
BBX 16 16 0 -2
BITMAP
1020
1020
13fe
fc50
10d8
118c
3800
37ff
3404
51e4
5124
9124
11e4
1004
1004
101c
ENDCHAR
STARTCHAR ch-264
ENCODING 264
SWIDTH 1000 0
DWIDTH 16 0
BBX 16 16 0 -2
BITMAP
1100
1100
13fe
fe02
1042
124a
3152
3bfa
3442
50e2
50d2
914a
1342
1646
1044
101c
ENDCHAR
STARTCHAR ch-267
ENCODING 267
SWIDTH 1000 0
DWIDTH 16 0
BBX 16 16 0 -2
BITMAP
1010
1010
1010
fdff
1000
10fe
3882
3482
3482
50fe
5010
9092
1092
1193
1111
1070
ENDCHAR
STARTCHAR ch-268
ENCODING 268
SWIDTH 1000 0
DWIDTH 16 0
BBX 16 16 0 -2
BITMAP
1020
1020
13fe
fe92
1292
1190
3b1e
3400
3000
53fe
5020
9020
1020
1020
17ff
1000
ENDCHAR
STARTCHAR ch-269
ENCODING 269
SWIDTH 1000 0
DWIDTH 16 0
BBX 16 16 0 -2
BITMAP
1010
1010
11ff
fc10
107e
1142
3942
357e
3542
5142
517e
9142
1142
117e
1100
11ff
ENDCHAR
STARTCHAR ch-270
ENCODING 270
SWIDTH 1000 0
DWIDTH 16 0
BBX 16 16 0 -2
BITMAP
1044
104c
1088
fcff
1188
1288
3888
34fe
3488
5088
5088
90fe
1088
1088
1088
10ff
ENDCHAR
STARTCHAR ch-271
ENCODING 271
SWIDTH 1000 0
DWIDTH 16 0
BBX 16 16 0 -2
BITMAP
1000
13ff
1048
fc48
1048
11ce
3902
3502
3502
51ce
5048
9048
1048
1048
13ff
1000
ENDCHAR
STARTCHAR ch-274
ENCODING 274
SWIDTH 1000 0
DWIDTH 16 0
BBX 16 16 0 -2
BITMAP
2100
211f
21c9
f909
2109
210b
77ea
690a
a10e
a544
2544
256e
2d2a
290a
211b
2311
ENDCHAR
STARTCHAR ch-281
ENCODING 281
SWIDTH 1000 0
DWIDTH 16 0
BBX 16 16 0 -2
BITMAP
1000
10fc
1084
fc84
10fc
1084
3884
34fc
3400
51fe
5102
9102
11fe
1102
1102
11fe
ENDCHAR
STARTCHAR ch-282
ENCODING 282
SWIDTH 1000 0
DWIDTH 16 0
BBX 16 16 0 -2
BITMAP
2000
23de
2252
fbde
2252
23de
7202
6a02
aa02
a202
2202
2202
2202
2202
2202
220e
ENDCHAR
STARTCHAR ch-283
ENCODING 283
SWIDTH 1000 0
DWIDTH 16 0
BBX 16 16 0 -2
BITMAP
1088
1088
13ff
fc88
1088
1050
38d0
3493
3196
539c
5690
9090
1090
1091
1093
108e
ENDCHAR
STARTCHAR ch-284
ENCODING 284
SWIDTH 1000 0
DWIDTH 16 0
BBX 16 16 0 -2
BITMAP
1020
1070
10d8
f98c
1707
11fc
3020
3bfe
3622
5222
5222
93fe
1050
10d8
118c
1707
ENDCHAR
STARTCHAR ch-289
ENCODING 289
SWIDTH 1000 0
DWIDTH 16 0
BBX 16 16 0 -2
BITMAP
2002
2fe2
220a
fa4a
224a
27ea
712a
690a
a10a
a7ca
210a
2102
2102
21e2
2f02
200e
ENDCHAR
STARTCHAR ch-290
ENCODING 290
SWIDTH 1000 0
DWIDTH 16 0
BBX 16 16 0 -2
BITMAP
2000
27fe
2402
fdfa
2442
2442
7442
6dfa
a442
a452
244a
2442
25fa
2402
27fe
2000
ENDCHAR
STARTCHAR ch-291
ENCODING 291
SWIDTH 1000 0
DWIDTH 16 0
BBX 16 16 0 -2
BITMAP
2090
2090
2090
fbfe
2292
2292
7292
6bfe
aa92
a292
2292
27ff
2000
2104
2306
2603
ENDCHAR
STARTCHAR ch-293
ENCODING 293
SWIDTH 1000 0
DWIDTH 16 0
BBX 16 16 0 -2
BITMAP
2200
2200
221f
fbd1
2511
2111
7111
6ff1
a111
a111
2111
2391
2291
22d1
265f
2c00
ENDCHAR
STARTCHAR ch-294
ENCODING 294
SWIDTH 1000 0
DWIDTH 16 0
BBX 16 16 0 -2
BITMAP
1124
10a8
1020
fdfe
1048
1048
3bff
3484
31a6
5323
50fc
9024
1064
1044
10c4
119c
ENDCHAR
STARTCHAR ch-296
ENCODING 296
SWIDTH 1000 0
DWIDTH 16 0
BBX 16 16 0 -2
BITMAP
2020
2020
27ff
fc00
2444
2444
74ff
6c84
a5a4
a6b4
2494
2484
2484
2484
2884
209c
ENDCHAR
STARTCHAR ch-298
ENCODING 298
SWIDTH 1000 0
DWIDTH 16 0
BBX 16 16 0 -2
BITMAP
1084
10cc
1048
fc00
11fe
1848
3448
3048
3249
534b
514a
914a
1048
1048
13ff
1000
ENDCHAR
STARTCHAR ch-304
ENCODING 304
SWIDTH 1000 0
DWIDTH 16 0
BBX 16 16 0 -2
BITMAP
2000
27ef
2249
fa49
23c9
224a
724a
6a4a
abc9
a249
2249
2249
23c9
264b
2048
2048
ENDCHAR
STARTCHAR ch-308
ENCODING 308
SWIDTH 1000 0
DWIDTH 16 0
BBX 16 16 0 -2
BITMAP
2080
21bc
2724
fc24
2424
2724
7447
6c00
a77e
a422
2436
241c
2708
2c1c
2436
2463
ENDCHAR
STARTCHAR ch-310
ENCODING 310
SWIDTH 1000 0
DWIDTH 16 0
BBX 16 16 0 -2
BITMAP
1102
114a
1132
fd4a
1102
11fe
3888
3588
3347
50fc
5184
934c
1058
1030
10ec
1387
ENDCHAR
STARTCHAR ch-313
ENCODING 313
SWIDTH 1000 0
DWIDTH 16 0
BBX 16 16 0 -2
BITMAP
1084
1084
13ff
fc84
10fc
1084
38fc
3484
3484
53ff
5148
9148
118f
1100
1100
11ff
ENDCHAR
STARTCHAR ch-317
ENCODING 317
SWIDTH 1000 0
DWIDTH 16 0
BBX 16 16 0 -2
BITMAP
1000
11fc
1004
fdfc
1004
13ff
3840
34a2
3336
5054
5090
9338
1054
1096
1313
1060
ENDCHAR
STARTCHAR ch-319
ENCODING 319
SWIDTH 1000 0
DWIDTH 16 0
BBX 16 16 0 -2
BITMAP
1020
1020
13fe
fc20
11fc
1050
3bff
3488
3104
53fe
5505
9104
11fc
1104
1104
11fc
ENDCHAR
STARTCHAR ch-330
ENCODING 330
SWIDTH 1000 0
DWIDTH 16 0
BBX 16 16 0 -2
BITMAP
1000
10fc
1084
fcfc
1084
1084
38fc
3400
33ff
5080
51ff
9329
1049
1193
1022
10ce
ENDCHAR
STARTCHAR ch-339
ENCODING 339
SWIDTH 1000 0
DWIDTH 16 0
BBX 16 16 0 -2
BITMAP
2000
27fc
2404
fc34
25e4
2444
75f4
6d54
a554
a5f4
2444
2444
2454
2475
25d5
2803
ENDCHAR
STARTCHAR ch-340
ENCODING 340
SWIDTH 1000 0
DWIDTH 16 0
BBX 16 16 0 -2
BITMAP
2100
27de
210a
f90a
27ca
210a
711a
69d2
a736
a000
2040
2fff
2090
2198
230c
2e07
ENDCHAR
STARTCHAR ch-341
ENCODING 341
SWIDTH 1000 0
DWIDTH 16 0
BBX 16 16 0 -2
BITMAP
1040
1040
13ff
fc80
11fe
1310
38ff
3400
35fe
5102
51fe
9102
11fe
1102
1102
110e
ENDCHAR
STARTCHAR ch-345
ENCODING 345
SWIDTH 1000 0
DWIDTH 16 0
BBX 16 16 0 -2
BITMAP
2004
27e4
2024
fa5f
2184
2084
77ee
68ae
a995
a195
2284
2284
2484
2884
2084
2384
ENDCHAR
STARTCHAR ch-346
ENCODING 346
SWIDTH 1000 0
DWIDTH 16 0
BBX 16 16 0 -2
BITMAP
0810
0810
feff
2854
2c54
6ad6
c993
0810
0000
7ffe
0102
1100
11fc
3900
6f00
c1ff
ENDCHAR
STARTCHAR ch-348
ENCODING 348
SWIDTH 1000 0
DWIDTH 16 0
BBX 16 16 0 -2
BITMAP
2100
211e
2112
f912
27d2
211e
7112
6912
a7d2
a45e
2452
2452
2452
27d2
2012
2026
ENDCHAR
STARTCHAR ch-349
ENCODING 349
SWIDTH 1000 0
DWIDTH 16 0
BBX 16 16 0 -2
BITMAP
2020
2020
27ff
f820
23fe
2222
7326
6aaa
aa22
a3fe
20a8
20a8
21ac
2326
2623
2020
ENDCHAR
STARTCHAR ch-350
ENCODING 350
SWIDTH 1000 0
DWIDTH 16 0
BBX 16 16 0 -2
BITMAP
1000
13ff
1249
fe49
13ff
1820
3420
33ff
3040
5040
507e
9042
10c2
1086
1184
131c
ENDCHAR
STARTCHAR ch-352
ENCODING 352
SWIDTH 1000 0
DWIDTH 16 0
BBX 16 16 0 -2
BITMAP
2020
2020
27ff
f820
2020
23fe
728a
6a52
aafa
a222
2222
22fa
2222
2222
2222
2226
ENDCHAR
STARTCHAR ch-353
ENCODING 353
SWIDTH 1000 0
DWIDTH 16 0
BBX 16 16 0 -2
BITMAP
2020
2070
20d8
f98c
2777
2000
73c2
6a52
aa52
a3d2
2252
2252
23c2
2242
2242
22ce
ENDCHAR
STARTCHAR ch-354
ENCODING 354
SWIDTH 1000 0
DWIDTH 16 0
BBX 16 16 0 -2
BITMAP
1102
1186
1084
13ff
fc48
1048
13ff
3a49
3649
538f
5201
93ff
1201
1201
13ff
1000
ENDCHAR
STARTCHAR ch-362
ENCODING 362
SWIDTH 1000 0
DWIDTH 16 0
BBX 16 16 0 -2
BITMAP
2124
2124
27ff
f924
2124
213c
7100
69fe
a820
a7ff
20a8
20a8
21ac
2326
2623
2020
ENDCHAR
STARTCHAR ch-363
ENCODING 363
SWIDTH 1000 0
DWIDTH 16 0
BBX 16 16 0 -2
BITMAP
1000
11fe
1102
fd02
11fe
1000
3bff
3502
35fe
5102
51fe
9102
1103
11fe
1302
1002
ENDCHAR
STARTCHAR ch-365
ENCODING 365
SWIDTH 1000 0
DWIDTH 16 0
BBX 16 16 0 -2
BITMAP
2244
324c
1248
ffff
0810
0420
7ffe
0100
3ffc
0100
ffff
0520
0d30
391c
e107
0100
ENDCHAR
STARTCHAR ch-366
ENCODING 366
SWIDTH 1000 0
DWIDTH 16 0
BBX 16 16 0 -2
BITMAP
1020
1021
11ff
fc22
1024
1028
3bff
3420
3440
50fe
5382
9082
10fe
1082
1082
10fe
ENDCHAR
STARTCHAR ch-367
ENCODING 367
SWIDTH 1000 0
DWIDTH 16 0
BBX 16 16 0 -2
BITMAP
1006
103c
11e0
fd10
11ff
1110
397e
3542
3542
517e
5142
9342
127e
1642
1042
107e
ENDCHAR
STARTCHAR ch-371
ENCODING 371
SWIDTH 1000 0
DWIDTH 16 0
BBX 16 16 0 -2
BITMAP
1084
1084
13ff
fc84
10fc
1084
3884
34fc
3420
53ff
50a8
90ac
11a4
1126
1323
1020
ENDCHAR
STARTCHAR ch-372
ENCODING 372
SWIDTH 1000 0
DWIDTH 16 0
BBX 16 16 0 -2
BITMAP
1020
1020
13ff
fc84
10cc
1048
3bff
3621
3221
51fe
5122
9122
1122
112e
1020
1020
ENDCHAR
STARTCHAR ch-373
ENCODING 373
SWIDTH 1000 0
DWIDTH 16 0
BBX 16 16 0 -2
BITMAP
2000
27fe
2080
f880
21e0
2020
373e
6d22
652a
a524
a76a
2051
21c0
2000
2fff
2000
ENDCHAR
STARTCHAR ch-375
ENCODING 375
SWIDTH 1000 0
DWIDTH 16 0
BBX 16 16 0 -2
BITMAP
1110
1113
11de
fd10
1110
1111
31cf
3b10
3420
51fe
5102
9102
11fe
1102
1102
11fe
ENDCHAR
STARTCHAR ch-376
ENCODING 376
SWIDTH 1000 0
DWIDTH 16 0
BBX 16 16 0 -2
BITMAP
2048
21c8
2709
f929
212b
27ea
712a
6908
ab88
a35c
2354
2514
2514
2936
2122
2163
ENDCHAR
STARTCHAR ch-377
ENCODING 377
SWIDTH 1000 0
DWIDTH 16 0
BBX 16 16 0 -2
BITMAP
1000
13f8
1108
fd08
11ee
1922
35a2
3342
36ae
5000
53fe
9292
1292
1292
17ff
1000
ENDCHAR
STARTCHAR ch-380
ENCODING 380
SWIDTH 1000 0
DWIDTH 16 0
BBX 16 16 0 -2
BITMAP
1111
1092
1010
fdff
1054
1054
38d6
3593
3400
5020
51ff
9044
108c
10f8
102e
11c3
ENDCHAR
STARTCHAR ch-381
ENCODING 381
SWIDTH 1000 0
DWIDTH 16 0
BBX 16 16 0 -2
BITMAP
0080
6106
37ec
0420
0420
07e0
0420
342c
67e6
0100
ffff
0540
0d60
3938
e10f
0100
ENDCHAR
STARTCHAR ch-382
ENCODING 382
SWIDTH 1000 0
DWIDTH 16 0
BBX 16 16 0 -2
BITMAP
1010
1020
11fc
fd04
11fc
1104
3904
35fc
3422
53a6
50b4
91a8
112c
1326
1623
10e0
ENDCHAR
STARTCHAR ch-385
ENCODING 385
SWIDTH 1000 0
DWIDTH 16 0
BBX 16 16 0 -2
BITMAP
1020
1020
13fe
fe02
1202
11fc
3840
3488
35fc
5024
5020
91fc
1020
1020
17ff
1000
ENDCHAR
STARTCHAR ch-386
ENCODING 386
SWIDTH 1000 0
DWIDTH 16 0
BBX 16 16 0 -2
BITMAP
2000
27be
2494
2494
ff94
2494
2494
77bf
6c04
6404
a48c
248c
24d4
2755
2c25
2043
ENDCHAR
STARTCHAR ch-394
ENCODING 394
SWIDTH 1000 0
DWIDTH 16 0
BBX 16 16 0 -2
BITMAP
1104
1104
1104
ffdf
1055
10d5
3895
359f
3155
5355
5515
911f
1104
1104
1104
1104
ENDCHAR
STARTCHAR ch-398
ENCODING 398
SWIDTH 1000 0
DWIDTH 16 0
BBX 16 16 0 -2
BITMAP
1000
13ff
1020
fdfe
1102
11fe
3902
35fe
3502
51fe
5040
90fe
1386
10cc
1078
13cf
ENDCHAR
STARTCHAR ch-401
ENCODING 401
SWIDTH 1000 0
DWIDTH 16 0
BBX 16 16 0 -2
BITMAP
2024
2022
27ff
f820
23fe
2222
73fe
6a22
abfe
a004
27ff
2104
2184
2084
2004
201c
ENDCHAR
STARTCHAR ch-404
ENCODING 404
SWIDTH 1000 0
DWIDTH 16 0
BBX 16 16 0 -2
BITMAP
2100
211f
27d1
fc53
2452
27d6
7454
6c52
a7d1
a411
2491
2491
25d7
2750
2c10
2010
ENDCHAR
STARTCHAR ch-405
ENCODING 405
SWIDTH 1000 0
DWIDTH 16 0
BBX 16 16 0 -2
BITMAP
1020
1020
13fe
fe02
128a
118c
3326
3870
34d8
518c
5707
91fc
1104
1104
1104
11fc
ENDCHAR
STARTCHAR ch-411
ENCODING 411
SWIDTH 1000 0
DWIDTH 16 0
BBX 16 16 0 -2
BITMAP
1020
13fe
1020
fdfc
1050
1bff
3488
3134
36e3
5020
53fe
90a8
11ac
1326
1623
1020
ENDCHAR
STARTCHAR ch-412
ENCODING 412
SWIDTH 1000 0
DWIDTH 16 0
BBX 16 16 0 -2
BITMAP
2020
2020
27ff
f904
2088
23fe
7202
6a42
a840
a7ff
2080
20fc
2084
2184
2304
261c
ENDCHAR
STARTCHAR ch-416
ENCODING 416
SWIDTH 1000 0
DWIDTH 16 0
BBX 16 16 0 -2
BITMAP
1000
13fe
1202
fefa
1088
1088
38f8
3488
3488
50f8
5020
97ff
1000
1088
118c
1306
ENDCHAR
STARTCHAR ch-423
ENCODING 423
SWIDTH 1000 0
DWIDTH 16 0
BBX 16 16 0 -2
BITMAP
2000
27ff
2400
fc48
25ce
2448
75c8
6c4e
a448
a5c8
244e
24c8
2588
2400
27ff
2000
ENDCHAR
STARTCHAR ch-430
ENCODING 430
SWIDTH 1000 0
DWIDTH 16 0
BBX 16 16 0 -2
BITMAP
0810
2952
2a54
1428
2244
0000
7ffe
4002
4102
0100
ffff
0520
0d30
391c
e107
0100
ENDCHAR
STARTCHAR ch-433
ENCODING 433
SWIDTH 1000 0
DWIDTH 16 0
BBX 16 16 0 -2
BITMAP
1020
1020
13ff
fc00
10fc
1084
3bff
3484
34fc
5051
50d3
939a
1088
108c
10e6
1383
ENDCHAR
STARTCHAR ch-434
ENCODING 434
SWIDTH 1000 0
DWIDTH 16 0
BBX 16 16 0 -2
BITMAP
1000
11fc
1104
fd04
11fc
1104
3904
35fc
3400
53fe
5292
9292
1292
1292
17ff
1000
ENDCHAR
STARTCHAR ch-436
ENCODING 436
SWIDTH 1000 0
DWIDTH 16 0
BBX 16 16 0 -2
BITMAP
10c0
13bf
1209
fe09
1259
1251
3bf7
3620
3000
51fe
5122
9122
11fe
1122
1122
11fe
ENDCHAR
STARTCHAR ch-443
ENCODING 443
SWIDTH 1000 0
DWIDTH 16 0
BBX 16 16 0 -2
BITMAP
2000
21fc
2104
f9fc
2104
21fc
7000
6bde
a842
a35a
214a
20c6
214a
2252
2042
21ce
ENDCHAR
STARTCHAR ch-446
ENCODING 446
SWIDTH 1000 0
DWIDTH 16 0
BBX 16 16 0 -2
BITMAP
2000
21fc
2104
f93c
2124
2124
67ff
7401
a9fc
a104
21fc
2104
21fc
2104
2104
210c
ENDCHAR
STARTCHAR ch-447
ENCODING 447
SWIDTH 1000 0
DWIDTH 16 0
BBX 16 16 0 -2
BITMAP
2020
2222
2222
fbfe
2000
23fe
7000
69fc
a904
a104
21fc
2088
20d8
2050
27ff
2000
ENDCHAR
STARTCHAR ch-449
ENCODING 449
SWIDTH 1000 0
DWIDTH 16 0
BBX 16 16 0 -2
BITMAP
1020
1020
13ff
fc00
10fc
1084
38fc
3400
35fe
5102
517a
914a
114a
117a
1102
1106
ENDCHAR
STARTCHAR ch-451
ENCODING 451
SWIDTH 1000 0
DWIDTH 16 0
BBX 16 16 0 -2
BITMAP
0800
3e7c
2244
2a47
ff80
227e
2a24
6a18
c667
0100
ffff
0540
0d60
3938
e10f
0100
ENDCHAR
STARTCHAR ch-455
ENCODING 455
SWIDTH 1000 0
DWIDTH 16 0
BBX 16 16 0 -2
BITMAP
1086
10fc
1081
fc7f
1000
117e
3942
357e
3542
517e
5142
917e
1100
11ff
1044
1183
ENDCHAR
STARTCHAR ch-458
ENCODING 458
SWIDTH 1000 0
DWIDTH 16 0
BBX 16 16 0 -2
BITMAP
2200
143e
ffa2
083e
4922
493e
7f22
0822
1046
2100
ffff
0540
0d60
3938
e10f
0100
ENDCHAR
STARTCHAR ch-459
ENCODING 459
SWIDTH 1000 0
DWIDTH 16 0
BBX 16 16 0 -2
BITMAP
1048
1048
13ff
fc48
11fe
1048
33ff
3820
35fe
5122
51fe
9122
13ff
1102
1102
110e
ENDCHAR
STARTCHAR ch-460
ENCODING 460
SWIDTH 1000 0
DWIDTH 16 0
BBX 16 16 0 -2
BITMAP
2008
2610
237e
f942
2042
2042
307e
6f40
6940
a17e
a142
2142
2142
237e
2680
2c7f
ENDCHAR
STARTCHAR ch-461
ENCODING 461
SWIDTH 1000 0
DWIDTH 16 0
BBX 16 16 0 -2
BITMAP
1020
1070
10d8
fd8c
1377
1000
39fc
3504
35fc
5104
51fc
9100
13fe
1282
1682
10fe
ENDCHAR
STARTCHAR ch-462
ENCODING 462
SWIDTH 1000 0
DWIDTH 16 0
BBX 16 16 0 -2
BITMAP
1104
1088
13fe
fc20
1020
11fc
3820
3420
33fe
5040
5080
91fe
1610
1010
1010
11ff
ENDCHAR
STARTCHAR ch-464
ENCODING 464
SWIDTH 1000 0
DWIDTH 16 0
BBX 16 16 0 -2
BITMAP
1020
1040
13fe
fe22
1222
13fe
3a22
3622
33fe
5090
5094
9095
119f
1110
1311
160f
ENDCHAR
STARTCHAR ch-467
ENCODING 467
SWIDTH 1000 0
DWIDTH 16 0
BBX 16 16 0 -2
BITMAP
1000
11fe
1020
fc20
13ff
1000
39fe
3502
35fe
5102
51fe
9102
11fe
1084
1186
1303
ENDCHAR
STARTCHAR ch-472
ENCODING 472
SWIDTH 1000 0
DWIDTH 16 0
BBX 16 16 0 -2
BITMAP
1104
1088
13fe
fc20
11fc
1020
3820
37ff
3020
5323
51b6
9038
10ec
13a6
1623
10e0
ENDCHAR
STARTCHAR ch-473
ENCODING 473
SWIDTH 1000 0
DWIDTH 16 0
BBX 16 16 0 -2
BITMAP
1010
1010
11ff
fc10
10fe
1082
38fe
3482
34fe
5082
50fe
9000
11ff
1044
10c6
1183
ENDCHAR
STARTCHAR ch-477
ENCODING 477
SWIDTH 1000 0
DWIDTH 16 0
BBX 16 16 0 -2
BITMAP
1020
1040
11fc
fd04
11fc
1104
39fc
3500
35ff
5100
51fe
9082
1492
1492
17f6
100c
ENDCHAR
STARTCHAR ch-478
ENCODING 478
SWIDTH 1000 0
DWIDTH 16 0
BBX 16 16 0 -2
BITMAP
1020
1020
11fe
fc84
1048
13ff
3800
35fe
3522
5122
51fe
9122
1122
11fe
1021
101f
ENDCHAR
STARTCHAR ch-487
ENCODING 487
SWIDTH 1000 0
DWIDTH 16 0
BBX 16 16 0 -2
BITMAP
0802
ff8e
0838
7f20
493f
7f24
4924
7f24
0824
ffa4
0844
0100
ffff
0540
1938
f10f
ENDCHAR
STARTCHAR ch-488
ENCODING 488
SWIDTH 1000 0
DWIDTH 16 0
BBX 16 16 0 -2
BITMAP
2100
211f
2ff1
f013
27d2
2456
77d4
6812
a7d1
a091
2111
21d1
2f11
2117
2110
2710
ENDCHAR
STARTCHAR ch-491
ENCODING 491
SWIDTH 1000 0
DWIDTH 16 0
BBX 16 16 0 -2
BITMAP
2020
2020
27ff
f820
23fe
2222
73fe
6a22
abfe
a024
20fe
2783
2004
27ff
2104
209c
ENDCHAR
STARTCHAR ch-493
ENCODING 493
SWIDTH 1000 0
DWIDTH 16 0
BBX 16 16 0 -2
BITMAP
200a
2009
2008
fbff
2208
2248
7269
6a49
abfb
a24a
224e
22e4
2354
264d
24d5
2c23
ENDCHAR
STARTCHAR ch-498
ENCODING 498
SWIDTH 1000 0
DWIDTH 16 0
BBX 16 16 0 -2
BITMAP
2202
23c2
2652
f49a
2fca
2542
7552
6fda
a54a
a542
27c3
244e
245a
2442
2442
28c2
ENDCHAR
STARTCHAR ch-505
ENCODING 505
SWIDTH 1000 0
DWIDTH 16 0
BBX 16 16 0 -2
BITMAP
1020
1040
11fc
fd04
11fc
1904
35fc
3000
33ae
5020
53ae
9020
17ff
1020
1020
1020
ENDCHAR
STARTCHAR ch-507
ENCODING 507
SWIDTH 1000 0
DWIDTH 16 0
BBX 16 16 0 -2
BITMAP
2100
213e
27e2
f922
213e
2122
77e2
693e
a922
a3a2
22be
22d4
2654
2435
2c25
2063
ENDCHAR
STARTCHAR ch-509
ENCODING 509
SWIDTH 1000 0
DWIDTH 16 0
BBX 16 16 0 -2
BITMAP
1048
1048
13ff
fc48
13ff
1249
3bff
3649
33ff
5000
51fe
9102
11fe
1102
1102
11fe
ENDCHAR
STARTCHAR ch-511
ENCODING 511
SWIDTH 1000 0
DWIDTH 16 0
BBX 16 16 0 -2
BITMAP
1088
1088
13ff
fc88
1000
11fe
3922
3522
35fe
5020
51fe
9020
11fe
1020
1020
13ff
ENDCHAR
ENDFONT
