STARTFONT 2.1
FONT jis.jis6200.16
SIZE 16 72 72
FONTBOUNDINGBOX 16 16 0 -2
STARTPROPERTIES 4
FONT_DESCENT 2
FONT_ASCENT 14
DEFAULT_CHAR 0
COPYRIGHT "Copyright (c) 1992 AT&T - All rights reserved."
ENDPROPERTIES
CHARS 192
STARTCHAR ch-0
ENCODING 0
SWIDTH 1000 0
DWIDTH 16 0
BBX 16 16 0 -2
BITMAP
23c4
4008
d7ea
2004
4bc9
f81f
2bc5
a014
b3d6
aa55
23c4
0000
2586
24cb
6619
c3f0
ENDCHAR
STARTCHAR ch-8
ENCODING 8
SWIDTH 1000 0
DWIDTH 16 0
BBX 16 16 0 -2
BITMAP
0118
010c
0104
0100
ffff
0100
0104
018c
0098
00b0
00e0
0040
00e0
03b1
0e1b
780e
ENDCHAR
STARTCHAR ch-9
ENCODING 9
SWIDTH 1000 0
DWIDTH 16 0
BBX 16 16 0 -2
BITMAP
0088
008c
0084
3fff
2080
2080
2084
20cc
2048
2058
2070
2620
3c71
e0db
038e
1e04
ENDCHAR
STARTCHAR ch-10
ENCODING 10
SWIDTH 1000 0
DWIDTH 16 0
BBX 16 16 0 -2
BITMAP
0048
004c
0044
3fff
2040
2040
2042
2066
2024
202c
2038
2010
2078
61cd
4707
c002
ENDCHAR
STARTCHAR ch-12
ENCODING 12
SWIDTH 1000 0
DWIDTH 16 0
BBX 16 16 0 -2
BITMAP
0048
004c
0044
3fff
2040
2040
2042
2066
2f24
202c
2038
2010
2039
606b
41ce
c704
ENDCHAR
STARTCHAR ch-13
ENCODING 13
SWIDTH 1000 0
DWIDTH 16 0
BBX 16 16 0 -2
BITMAP
0048
004c
0044
3fff
2040
2040
2042
2c66
2624
222c
2038
2010
2039
606b
41ce
c704
ENDCHAR
STARTCHAR ch-14
ENCODING 14
SWIDTH 1000 0
DWIDTH 16 0
BBX 16 16 0 -2
BITMAP
0048
004c
0044
ffff
0040
1040
1042
1066
ff24
102c
1038
3010
2038
606d
c1c7
0702
ENDCHAR
STARTCHAR ch-16
ENCODING 16
SWIDTH 1000 0
DWIDTH 16 0
BBX 16 16 0 -2
BITMAP
0048
004c
0044
3ffe
2040
2040
3e42
2266
2224
222c
2238
2210
2639
646b
4cce
c184
ENDCHAR
STARTCHAR ch-17
ENCODING 17
SWIDTH 1000 0
DWIDTH 16 0
BBX 16 16 0 -2
BITMAP
0340
0e4c
7846
0842
0840
ffff
0840
0842
0866
0f2c
f838
0810
0839
086d
08c7
3b82
ENDCHAR
STARTCHAR ch-18
ENCODING 18
SWIDTH 1000 0
DWIDTH 16 0
BBX 16 16 0 -2
BITMAP
004c
0046
0042
ffff
0040
1240
1262
1226
7fac
1238
1210
3238
2269
62cd
c187
0702
ENDCHAR
STARTCHAR ch-20
ENCODING 20
SWIDTH 1000 0
DWIDTH 16 0
BBX 16 16 0 -2
BITMAP
0480
0440
fffe
0210
0120
00c2
0736
780c
0440
0420
ffff
0210
0120
00c1
0733
780e
ENDCHAR
STARTCHAR ch-22
ENCODING 22
SWIDTH 1000 0
DWIDTH 16 0
BBX 16 16 0 -2
BITMAP
0048
004c
0044
ffff
0040
0040
7e42
4266
4224
422c
7e38
0010
0739
3c6d
e1c7
0702
ENDCHAR
STARTCHAR ch-26
ENCODING 26
SWIDTH 1000 0
DWIDTH 16 0
BBX 16 16 0 -2
BITMAP
0024
0026
0022
7fff
4020
4420
47a2
4432
7fd6
4214
4a9c
4a88
5ac8
d25d
8637
8062
ENDCHAR
STARTCHAR ch-27
ENCODING 27
SWIDTH 1000 0
DWIDTH 16 0
BBX 16 16 0 -2
BITMAP
0000
ffff
0100
1ff8
1008
1ff8
1008
1ff8
1008
1ff8
0204
ffff
0120
00c1
0733
780e
ENDCHAR
STARTCHAR ch-29
ENCODING 29
SWIDTH 1000 0
DWIDTH 16 0
BBX 16 16 0 -2
BITMAP
0024
7c26
4422
4420
7c3f
45e0
4422
4432
7c16
4414
441c
4408
7c1c
2835
6c67
c4c2
ENDCHAR
STARTCHAR ch-30
ENCODING 30
SWIDTH 1000 0
DWIDTH 16 0
BBX 16 16 0 -2
BITMAP
ffff
0100
1ff8
1008
1ff8
1008
1ff8
1008
ffff
8041
8221
3ffc
0210
0162
07c6
7c3c
ENDCHAR
STARTCHAR ch-31
ENCODING 31
SWIDTH 1000 0
DWIDTH 16 0
BBX 16 16 0 -2
BITMAP
0814
0816
ff92
0810
7f1f
41f0
4110
7f12
4112
4116
7f1c
0808
ff9d
0835
0867
09c2
ENDCHAR
STARTCHAR ch-33
ENCODING 33
SWIDTH 1000 0
DWIDTH 16 0
BBX 16 16 0 -2
BITMAP
2214
2216
ff92
2210
3e1f
22f0
3e12
2212
2216
ff94
541c
5408
671c
4035
7f67
00c2
ENDCHAR
STARTCHAR ch-38
ENCODING 38
SWIDTH 1000 0
DWIDTH 16 0
BBX 16 16 0 -2
BITMAP
9094
d996
4912
7f10
491f
49f0
7f12
4912
4916
7f14
081c
0808
ff9c
0835
0867
09c2
ENDCHAR
STARTCHAR ch-42
ENCODING 42
SWIDTH 1000 0
DWIDTH 16 0
BBX 16 16 0 -2
BITMAP
0414
0416
7fd2
0410
0410
ffff
1110
2212
7f96
a414
3f9c
2408
3f9c
2415
3fb7
0062
ENDCHAR
STARTCHAR ch-46
ENCODING 46
SWIDTH 1000 0
DWIDTH 16 0
BBX 16 16 0 -2
BITMAP
0014
f796
1092
9490
529f
94f0
0892
1412
2216
c994
101c
6408
191c
6235
0c67
71c2
ENDCHAR
STARTCHAR ch-47
ENCODING 47
SWIDTH 1000 0
DWIDTH 16 0
BBX 16 16 0 -2
BITMAP
0814
0f12
0810
7f93
489e
4e70
7892
4f92
4016
4a14
6a9c
5b08
4a1c
4a15
8fb7
3862
ENDCHAR
STARTCHAR ch-48
ENCODING 48
SWIDTH 1000 0
DWIDTH 16 0
BBX 16 16 0 -2
BITMAP
f794
9496
f792
0010
7f1f
49f0
4912
7f12
4916
4914
7f1c
0808
ff9c
0835
0867
09c2
ENDCHAR
STARTCHAR ch-50
ENCODING 50
SWIDTH 1000 0
DWIDTH 16 0
BBX 16 16 0 -2
BITMAP
0814
0f96
0812
7f90
489f
7f70
4892
4792
4016
7f94
401c
5f08
511c
5f15
8a37
3fa2
ENDCHAR
STARTCHAR ch-51
ENCODING 51
SWIDTH 1000 0
DWIDTH 16 0
BBX 16 16 0 -2
BITMAP
0014
f796
1092
f790
109f
f7f0
2212
2412
7f96
c814
7f1c
4808
7f1c
4815
7fb7
0062
ENDCHAR
STARTCHAR ch-52
ENCODING 52
SWIDTH 1000 0
DWIDTH 16 0
BBX 16 16 0 -2
BITMAP
0412
3f91
0410
ffff
0010
3f92
2492
3f96
2494
3f94
111c
7fc8
1108
ffdd
1117
60b2
ENDCHAR
STARTCHAR ch-56
ENCODING 56
SWIDTH 1000 0
DWIDTH 16 0
BBX 16 16 0 -2
BITMAP
0000
ffff
0000
0000
3ffc
2004
2004
2004
3ffc
2000
2000
2000
2000
6000
4000
c000
ENDCHAR
STARTCHAR ch-59
ENCODING 59
SWIDTH 1000 0
DWIDTH 16 0
BBX 16 16 0 -2
BITMAP
0000
ffff
0000
3ffc
2004
2004
3ffc
2080
2080
3fff
2080
21c0
6160
4330
c61c
1c07
ENDCHAR
STARTCHAR ch-63
ENCODING 63
SWIDTH 1000 0
DWIDTH 16 0
BBX 16 16 0 -2
BITMAP
0000
ffff
0000
3ffc
2004
2004
3ffc
2080
2080
3fff
2100
21fc
6104
4304
c604
1c1c
ENDCHAR
STARTCHAR ch-64
ENCODING 64
SWIDTH 1000 0
DWIDTH 16 0
BBX 16 16 0 -2
BITMAP
0006
7f1c
0070
0040
3e40
227f
2244
2244
3e44
2044
2044
20c4
6084
4184
c304
0004
ENDCHAR
STARTCHAR ch-65
ENCODING 65
SWIDTH 1000 0
DWIDTH 16 0
BBX 16 16 0 -2
BITMAP
0000
ffff
0000
3ffc
2004
2004
3ffc
2000
2ffc
2924
2924
6ffc
4924
c924
0924
092c
ENDCHAR
STARTCHAR ch-71
ENCODING 71
SWIDTH 1000 0
DWIDTH 16 0
BBX 16 16 0 -2
BITMAP
0000
7fff
0000
3ffe
2002
2002
3ffe
2000
2fbe
2082
28a2
2492
638e
4e9a
d8b2
0186
ENDCHAR
STARTCHAR ch-72
ENCODING 72
SWIDTH 1000 0
DWIDTH 16 0
BBX 16 16 0 -2
BITMAP
ffff
0000
3ffe
2002
3ffe
2000
27f8
2408
27f8
2000
2ffc
2884
6ffc
4801
cc03
07fe
ENDCHAR
STARTCHAR ch-73
ENCODING 73
SWIDTH 1000 0
DWIDTH 16 0
BBX 16 16 0 -2
BITMAP
0000
ffff
0000
3ffe
2002
3ffe
2000
2120
2f3e
2120
2f3e
2120
6720
593f
c320
0620
ENDCHAR
STARTCHAR ch-75
ENCODING 75
SWIDTH 1000 0
DWIDTH 16 0
BBX 16 16 0 -2
BITMAP
0018
01f0
3f00
0100
0100
7ffe
0100
0100
0100
ffff
0100
0100
0100
0100
0100
0700
ENDCHAR
STARTCHAR ch-77
ENCODING 77
SWIDTH 1000 0
DWIDTH 16 0
BBX 16 16 0 -2
BITMAP
0040
0040
0040
0040
ffff
0040
0048
0058
0070
0040
01c0
0740
1c40
f040
0040
01c0
ENDCHAR
STARTCHAR ch-78
ENCODING 78
SWIDTH 1000 0
DWIDTH 16 0
BBX 16 16 0 -2
BITMAP
1040
1040
1040
1040
fe40
1040
1040
1040
1e40
f040
1040
1040
1040
1041
1063
703e
ENDCHAR
STARTCHAR ch-83
ENCODING 83
SWIDTH 1000 0
DWIDTH 16 0
BBX 16 16 0 -2
BITMAP
1000
1000
13ff
1008
fc08
1008
1008
1008
1c08
f008
1008
1008
1008
1008
1008
7038
ENDCHAR
STARTCHAR ch-85
ENCODING 85
SWIDTH 1000 0
DWIDTH 16 0
BBX 16 16 0 -2
BITMAP
1040
1040
1040
1040
fcc0
1080
1080
1080
1c80
f084
1184
1106
1102
113e
13e3
7601
ENDCHAR
STARTCHAR ch-88
ENCODING 88
SWIDTH 1000 0
DWIDTH 16 0
BBX 16 16 0 -2
BITMAP
1006
103c
11e0
1020
fc20
1020
1020
13ff
1c20
f020
1020
1020
1020
1021
1033
701e
ENDCHAR
STARTCHAR ch-91
ENCODING 91
SWIDTH 1000 0
DWIDTH 16 0
BBX 16 16 0 -2
BITMAP
1000
1000
11fe
1020
fc20
1020
1020
1020
1c20
f020
1020
1020
1020
13ff
1000
7000
ENDCHAR
STARTCHAR ch-94
ENCODING 94
SWIDTH 1000 0
DWIDTH 16 0
BBX 16 16 0 -2
BITMAP
1000
10fe
1010
1010
fc10
1010
1010
11ff
1c10
f010
1010
1010
1010
1010
1010
7010
ENDCHAR
STARTCHAR ch-96
ENCODING 96
SWIDTH 1000 0
DWIDTH 16 0
BBX 16 16 0 -2
BITMAP
1000
17fc
1104
1144
fd24
11ac
1088
10d8
1c50
f070
1020
1070
10d8
118c
1306
7603
ENDCHAR
STARTCHAR ch-99
ENCODING 99
SWIDTH 1000 0
DWIDTH 16 0
BBX 16 16 0 -2
BITMAP
1000
11fe
1102
1102
fd02
1102
1102
1102
1d02
f102
1102
1102
1102
1102
11fe
7000
ENDCHAR
STARTCHAR ch-104
ENCODING 104
SWIDTH 1000 0
DWIDTH 16 0
BBX 16 16 0 -2
BITMAP
2000
23fc
2044
2044
f844
2244
2344
21c4
38c4
e0e4
20b4
209c
218e
210b
2308
6638
ENDCHAR
STARTCHAR ch-110
ENCODING 110
SWIDTH 1000 0
DWIDTH 16 0
BBX 16 16 0 -2
BITMAP
2088
2088
2088
218c
f904
2306
2603
21fc
3844
e044
2044
20c4
2084
218c
2308
6638
ENDCHAR
STARTCHAR ch-113
ENCODING 113
SWIDTH 1000 0
DWIDTH 16 0
BBX 16 16 0 -2
BITMAP
2000
27f8
2108
2118
f910
2110
23bc
2284
22c4
3a4c
e268
2238
2610
2438
246c
6dc7
ENDCHAR
STARTCHAR ch-118
ENCODING 118
SWIDTH 1000 0
DWIDTH 16 0
BBX 16 16 0 -2
BITMAP
2020
2020
2020
23fe
f820
2020
2020
2020
3bff
e050
2050
20d8
2088
218c
2306
6603
ENDCHAR
STARTCHAR ch-121
ENCODING 121
SWIDTH 1000 0
DWIDTH 16 0
BBX 16 16 0 -2
BITMAP
2220
2220
2220
2222
fa26
23bc
2220
2220
3a20
e220
2220
2220
2220
2221
23b3
6e1e
ENDCHAR
STARTCHAR ch-124
ENCODING 124
SWIDTH 1000 0
DWIDTH 16 0
BBX 16 16 0 -2
BITMAP
2000
23ff
2200
2200
fa7c
2244
2244
2244
3a44
e244
224c
2240
2640
2441
2c63
603e
ENDCHAR
STARTCHAR ch-126
ENCODING 126
SWIDTH 1000 0
DWIDTH 16 0
BBX 16 16 0 -2
BITMAP
1024
1026
1022
1020
fdff
1020
1022
1026
1c2c
f038
1010
1038
1068
10cd
1387
7002
ENDCHAR
STARTCHAR ch-127
ENCODING 127
SWIDTH 1000 0
DWIDTH 16 0
BBX 16 16 0 -2
BITMAP
0000
7ffc
0018
0060
0191
f113
17d6
111c
1110
17d8
1108
310c
27c4
6106
c103
0700
ENDCHAR
STARTCHAR ch-128
ENCODING 128
SWIDTH 1000 0
DWIDTH 16 0
BBX 16 16 0 -2
BITMAP
2020
2020
2020
27ff
f820
2020
23fc
2104
398c
e0d8
2070
2020
2070
20d8
218c
6707
ENDCHAR
STARTCHAR ch-130
ENCODING 130
SWIDTH 1000 0
DWIDTH 16 0
BBX 16 16 0 -2
BITMAP
1000
13fe
1020
1020
fc20
1020
1020
11fc
1c20
f020
1020
1020
1020
1020
17ff
7000
ENDCHAR
STARTCHAR ch-131
ENCODING 131
SWIDTH 1000 0
DWIDTH 16 0
BBX 16 16 0 -2
BITMAP
1020
1020
13ff
1020
fc20
1020
1038
102c
1c26
f020
1020
1020
1020
1020
1020
7020
ENDCHAR
STARTCHAR ch-132
ENCODING 132
SWIDTH 1000 0
DWIDTH 16 0
BBX 16 16 0 -2
BITMAP
2020
2020
2020
2124
f924
2326
2222
2623
2024
38e4
e00c
2008
2018
2030
2060
61c0
ENDCHAR
STARTCHAR ch-137
ENCODING 137
SWIDTH 1000 0
DWIDTH 16 0
BBX 16 16 0 -2
BITMAP
2040
2040
2040
23fc
f844
2044
2044
2844
37ff
60a0
a0b0
2190
2118
230c
2606
6c03
ENDCHAR
STARTCHAR ch-138
ENCODING 138
SWIDTH 1000 0
DWIDTH 16 0
BBX 16 16 0 -2
BITMAP
2000
23fe
2222
2222
fa22
2222
2222
23fe
3a00
e200
2200
2200
2201
2303
21fe
6000
ENDCHAR
STARTCHAR ch-145
ENCODING 145
SWIDTH 1000 0
DWIDTH 16 0
BBX 16 16 0 -2
BITMAP
2040
21c0
273e
2422
fc22
2422
2422
2422
3c22
e422
2422
27a2
2c2e
2020
2020
6020
ENDCHAR
STARTCHAR ch-146
ENCODING 146
SWIDTH 1000 0
DWIDTH 16 0
BBX 16 16 0 -2
BITMAP
1000
11fc
1004
10c8
fc70
1020
13ff
1021
1c22
f024
1020
1020
1020
1020
1020
70e0
ENDCHAR
STARTCHAR ch-147
ENCODING 147
SWIDTH 1000 0
DWIDTH 16 0
BBX 16 16 0 -2
BITMAP
200c
2078
23c8
2208
fa48
2248
2248
2248
3a48
e24c
2244
2244
2244
2646
2442
6c03
ENDCHAR
STARTCHAR ch-148
ENCODING 148
SWIDTH 1000 0
DWIDTH 16 0
BBX 16 16 0 -2
BITMAP
2000
27fe
2020
2020
f860
2040
20c8
20cc
39c4
e346
2643
2040
2040
2040
2040
6040
ENDCHAR
STARTCHAR ch-149
ENCODING 149
SWIDTH 1000 0
DWIDTH 16 0
BBX 16 16 0 -2
BITMAP
2000
21f8
2108
2108
f908
230f
2600
2000
3bfc
e104
218c
20d8
2070
20d8
218c
6707
ENDCHAR
STARTCHAR ch-150
ENCODING 150
SWIDTH 1000 0
DWIDTH 16 0
BBX 16 16 0 -2
BITMAP
1004
10c4
1064
1024
fe04
1004
10c4
1064
1e24
f004
1007
103c
11e4
1004
1004
7004
ENDCHAR
STARTCHAR ch-151
ENCODING 151
SWIDTH 1000 0
DWIDTH 16 0
BBX 16 16 0 -2
BITMAP
1020
1020
1020
13ff
fc00
1000
10f8
1088
1c88
f088
1088
1088
1188
1109
1309
7607
ENDCHAR
STARTCHAR ch-152
ENCODING 152
SWIDTH 1000 0
DWIDTH 16 0
BBX 16 16 0 -2
BITMAP
2006
201c
21f0
2100
f900
21ff
2108
2108
3908
e108
2108
2108
2308
2208
2608
6008
ENDCHAR
STARTCHAR ch-155
ENCODING 155
SWIDTH 1000 0
DWIDTH 16 0
BBX 16 16 0 -2
BITMAP
2110
2110
2110
27d0
f93e
2112
2112
2112
3912
e112
23b2
22a2
22ee
2681
24c3
6c7e
ENDCHAR
STARTCHAR ch-156
ENCODING 156
SWIDTH 1000 0
DWIDTH 16 0
BBX 16 16 0 -2
BITMAP
2040
2040
2040
27ff
f840
2040
20fc
2084
3884
e1cc
2148
2378
2630
2078
20cc
6387
ENDCHAR
STARTCHAR ch-158
ENCODING 158
SWIDTH 1000 0
DWIDTH 16 0
BBX 16 16 0 -2
BITMAP
2000
21fe
2102
2102
f902
2102
21fe
2110
3910
e110
2118
2108
230c
2204
2606
6c03
ENDCHAR
STARTCHAR ch-171
ENCODING 171
SWIDTH 1000 0
DWIDTH 16 0
BBX 16 16 0 -2
BITMAP
2020
2020
2020
23ff
fa21
2222
2220
23fe
3a82
e286
22cc
2658
2430
2c78
20cc
6387
ENDCHAR
STARTCHAR ch-172
ENCODING 172
SWIDTH 1000 0
DWIDTH 16 0
BBX 16 16 0 -2
BITMAP
1040
1040
10c0
1084
fd84
113e
13e3
1000
1c00
f000
11fe
1102
1102
1102
1102
71fe
ENDCHAR
STARTCHAR ch-177
ENCODING 177
SWIDTH 1000 0
DWIDTH 16 0
BBX 16 16 0 -2
BITMAP
2100
2100
21fe
2302
fa02
23f2
2612
2012
3812
e3f6
2204
221c
2200
2201
2303
61fe
ENDCHAR
STARTCHAR ch-181
ENCODING 181
SWIDTH 1000 0
DWIDTH 16 0
BBX 16 16 0 -2
BITMAP
2006
201c
21f0
2110
f910
2110
21ff
2110
3910
e118
2108
21c8
270c
2005
27f7
6002
ENDCHAR
STARTCHAR ch-185
ENCODING 185
SWIDTH 1000 0
DWIDTH 16 0
BBX 16 16 0 -2
BITMAP
2020
2020
2020
27ff
f820
2020
2020
23fe
38a8
e0a8
20a8
21ac
2124
2326
2623
6020
ENDCHAR
STARTCHAR ch-187
ENCODING 187
SWIDTH 1000 0
DWIDTH 16 0
BBX 16 16 0 -2
BITMAP
2020
2020
2020
23fe
fa22
2222
2222
23fe
3a22
e222
2222
23fe
2020
2020
2020
6020
ENDCHAR
STARTCHAR ch-188
ENCODING 188
SWIDTH 1000 0
DWIDTH 16 0
BBX 16 16 0 -2
BITMAP
2000
23fe
2222
2222
fa22
23fe
2222
2222
2222
3a22
e3fe
2020
2020
2020
2020
6020
ENDCHAR
STARTCHAR ch-189
ENCODING 189
SWIDTH 1000 0
DWIDTH 16 0
BBX 16 16 0 -2
BITMAP
2020
2020
2020
2020
fbfe
2222
2222
2222
3a22
e3fe
2222
2222
2222
2222
23fe
6000
ENDCHAR
STARTCHAR ch-194
ENCODING 194
SWIDTH 1000 0
DWIDTH 16 0
BBX 16 16 0 -2
BITMAP
2090
2090
27fe
2092
f892
27fe
2490
2490
37ff
e091
2091
2093
2192
2116
2310
6610
ENDCHAR
STARTCHAR ch-197
ENCODING 197
SWIDTH 1000 0
DWIDTH 16 0
BBX 16 16 0 -2
BITMAP
2000
21fc
2104
2104
f904
2104
21fc
2104
3904
e104
2104
21fc
2000
2000
27ff
6000
ENDCHAR
STARTCHAR ch-198
ENCODING 198
SWIDTH 1000 0
DWIDTH 16 0
BBX 16 16 0 -2
BITMAP
2006
201c
21f0
2100
f900
21ff
2110
2110
3970
e11e
2113
2110
2310
2210
2610
6010
ENDCHAR
STARTCHAR ch-199
ENCODING 199
SWIDTH 1000 0
DWIDTH 16 0
BBX 16 16 0 -2
BITMAP
2000
21fc
2104
2144
f964
2124
2104
2fff
2204
3a44
e264
2224
2204
23ff
2008
6038
ENDCHAR
STARTCHAR ch-200
ENCODING 200
SWIDTH 1000 0
DWIDTH 16 0
BBX 16 16 0 -2
BITMAP
1020
1020
1020
1020
fe3f
1020
1020
1020
1c20
f1fe
1102
1102
1102
1102
1102
71fe
ENDCHAR
STARTCHAR ch-201
ENCODING 201
SWIDTH 1000 0
DWIDTH 16 0
BBX 16 16 0 -2
BITMAP
2020
2020
2020
23fe
f800
2000
2104
2104
398c
e088
2088
2098
2010
2010
27ff
6000
ENDCHAR
STARTCHAR ch-202
ENCODING 202
SWIDTH 1000 0
DWIDTH 16 0
BBX 16 16 0 -2
BITMAP
2084
2084
2084
2184
f97f
2304
2504
2124
3934
e114
2104
2104
2104
2104
2104
611c
ENDCHAR
STARTCHAR ch-204
ENCODING 204
SWIDTH 1000 0
DWIDTH 16 0
BBX 16 16 0 -2
BITMAP
2020
2222
2326
2124
f820
23fe
2020
2020
3820
e7ff
2020
2020
2020
2020
2020
6020
ENDCHAR
STARTCHAR ch-205
ENCODING 205
SWIDTH 1000 0
DWIDTH 16 0
BBX 16 16 0 -2
BITMAP
1010
1030
1020
11fe
fd02
1102
1102
1102
1dfe
f102
1102
1102
1102
1102
11fe
7000
ENDCHAR
STARTCHAR ch-207
ENCODING 207
SWIDTH 1000 0
DWIDTH 16 0
BBX 16 16 0 -2
BITMAP
0800
0800
ff7e
1122
2234
7e18
0b6c
3007
c0e0
0f80
0100
3ffc
0100
ffff
0100
0700
ENDCHAR
STARTCHAR ch-208
ENCODING 208
SWIDTH 1000 0
DWIDTH 16 0
BBX 16 16 0 -2
BITMAP
2000
21fc
2104
2104
f904
21fc
2000
2000
3bfe
e042
2042
20c2
2082
2186
2304
661c
ENDCHAR
STARTCHAR ch-209
ENCODING 209
SWIDTH 1000 0
DWIDTH 16 0
BBX 16 16 0 -2
BITMAP
2084
2084
2084
23ff
f884
2084
2084
2084
3884
e0fc
2084
2084
2084
2084
2084
60fc
ENDCHAR
STARTCHAR ch-210
ENCODING 210
SWIDTH 1000 0
DWIDTH 16 0
BBX 16 16 0 -2
BITMAP
1000
11ff
1100
1100
fd00
11fe
1102
1102
1d02
f1fe
1100
1100
1100
1100
11ff
7000
ENDCHAR
STARTCHAR ch-211
ENCODING 211
SWIDTH 1000 0
DWIDTH 16 0
BBX 16 16 0 -2
BITMAP
2000
27ff
2040
2040
f840
20c0
2080
20fe
3982
e382
2682
2082
2082
2082
2082
60fe
ENDCHAR
STARTCHAR ch-212
ENCODING 212
SWIDTH 1000 0
DWIDTH 16 0
BBX 16 16 0 -2
BITMAP
2048
204c
2044
23ff
f840
2040
2044
2044
38ec
e0a8
21b8
2110
2338
266c
20c6
6183
ENDCHAR
STARTCHAR ch-215
ENCODING 215
SWIDTH 1000 0
DWIDTH 16 0
BBX 16 16 0 -2
BITMAP
2108
2108
2308
2208
f63f
2489
2689
2389
3909
e109
2319
2251
2253
27f2
2c22
606e
ENDCHAR
STARTCHAR ch-216
ENCODING 216
SWIDTH 1000 0
DWIDTH 16 0
BBX 16 16 0 -2
BITMAP
2100
2100
2100
23fe
fa02
2602
21f2
2112
2112
3912
e112
21f2
2002
2006
2004
601c
ENDCHAR
STARTCHAR ch-217
ENCODING 217
SWIDTH 1000 0
DWIDTH 16 0
BBX 16 16 0 -2
BITMAP
2020
2020
2222
2222
fa22
2222
23fe
2020
3820
e020
2222
2222
2222
2222
23fe
6000
ENDCHAR
STARTCHAR ch-219
ENCODING 219
SWIDTH 1000 0
DWIDTH 16 0
BBX 16 16 0 -2
BITMAP
2000
23fe
2042
2042
f8c2
2086
2184
231c
3800
e1fe
2102
2102
2102
2102
2102
61fe
ENDCHAR
STARTCHAR ch-220
ENCODING 220
SWIDTH 1000 0
DWIDTH 16 0
BBX 16 16 0 -2
BITMAP
0400
1dff
f010
1010
10fe
fc10
1010
10fe
1c10
7010
d010
11ff
3010
2010
6010
c010
ENDCHAR
STARTCHAR ch-221
ENCODING 221
SWIDTH 1000 0
DWIDTH 16 0
BBX 16 16 0 -2
BITMAP
2000
27ff
2020
2020
fbfe
2020
2020
23fe
3820
e020
2020
27ff
2020
2020
2020
6020
ENDCHAR
STARTCHAR ch-224
ENCODING 224
SWIDTH 1000 0
DWIDTH 16 0
BBX 16 16 0 -2
BITMAP
2400
243c
27a4
24a4
f4a4
2ca4
29a4
2524
2524
3724
e225
2225
2743
2580
2ce0
683f
ENDCHAR
STARTCHAR ch-225
ENCODING 225
SWIDTH 1000 0
DWIDTH 16 0
BBX 16 16 0 -2
BITMAP
2020
2020
2020
23ff
fa00
2220
2220
2220
3a60
e244
2244
2246
22c2
2682
249f
6df1
ENDCHAR
STARTCHAR ch-236
ENCODING 236
SWIDTH 1000 0
DWIDTH 16 0
BBX 16 16 0 -2
BITMAP
1006
101c
11f0
1010
fc10
1010
11ff
1010
1c10
f010
10fe
1082
1082
1082
1082
70fe
ENDCHAR
STARTCHAR ch-237
ENCODING 237
SWIDTH 1000 0
DWIDTH 16 0
BBX 16 16 0 -2
BITMAP
2010
2014
2016
2012
fbff
2010
2010
27d0
3918
e108
2108
2108
21cc
2705
2007
6002
ENDCHAR
STARTCHAR ch-238
ENCODING 238
SWIDTH 1000 0
DWIDTH 16 0
BBX 16 16 0 -2
BITMAP
1020
1020
1020
13ff
fc20
1020
1020
11fe
1c00
f000
11fe
1102
1102
1102
1102
71fe
ENDCHAR
STARTCHAR ch-239
ENCODING 239
SWIDTH 1000 0
DWIDTH 16 0
BBX 16 16 0 -2
BITMAP
2000
23fc
2008
2010
f820
23a2
20b6
20b4
39a8
e12c
2326
2623
20e0
2000
27ff
6000
ENDCHAR
STARTCHAR ch-241
ENCODING 241
SWIDTH 1000 0
DWIDTH 16 0
BBX 16 16 0 -2
BITMAP
2088
2088
2088
2088
fbfe
2088
2088
2088
3888
e088
27ff
2000
2088
218c
2306
6603
ENDCHAR
STARTCHAR ch-243
ENCODING 243
SWIDTH 1000 0
DWIDTH 16 0
BBX 16 16 0 -2
BITMAP
1108
1918
0910
7ffe
0240
ffff
0420
08f0
3f9c
e107
1ff8
0100
ffff
0100
0100
0700
ENDCHAR
STARTCHAR ch-245
ENCODING 245
SWIDTH 1000 0
DWIDTH 16 0
BBX 16 16 0 -2
BITMAP
2040
2040
2040
27ff
f880
2080
21be
2104
3b08
e508
217f
2108
2108
2108
2108
6138
ENDCHAR
STARTCHAR ch-246
ENCODING 246
SWIDTH 1000 0
DWIDTH 16 0
BBX 16 16 0 -2
BITMAP
2111
2333
2222
2666
fb33
2111
2040
207e
38c2
e186
2344
202c
2018
2030
20e0
6380
ENDCHAR
STARTCHAR ch-247
ENCODING 247
SWIDTH 1000 0
DWIDTH 16 0
BBX 16 16 0 -2
BITMAP
2042
2042
23fc
2044
f848
27ff
2020
2040
39fe
e680
2080
20fe
2002
2002
2006
603c
ENDCHAR
STARTCHAR ch-254
ENCODING 254
SWIDTH 1000 0
DWIDTH 16 0
BBX 16 16 0 -2
BITMAP
2020
2070
2050
20d8
f98c
2306
26fb
2000
3800
e1fc
2104
2104
2104
2104
2104
61fc
ENDCHAR
STARTCHAR ch-255
ENCODING 255
SWIDTH 1000 0
DWIDTH 16 0
BBX 16 16 0 -2
BITMAP
0100
02c0
0c30
3bdc
e007
1ff8
1008
1ff8
0000
0ff0
0100
3ffc
0100
ffff
0100
0700
ENDCHAR
STARTCHAR ch-257
ENCODING 257
SWIDTH 1000 0
DWIDTH 16 0
BBX 16 16 0 -2
BITMAP
1020
1020
11fe
1020
fc20
1020
13ff
1004
1c04
f3ff
1004
1184
10c4
1044
1004
701c
ENDCHAR
STARTCHAR ch-258
ENCODING 258
SWIDTH 1000 0
DWIDTH 16 0
BBX 16 16 0 -2
BITMAP
2020
2020
21fc
f820
2020
2020
23fe
2000
3820
e020
21fc
2020
2020
2020
27ff
6000
ENDCHAR
STARTCHAR ch-263
ENCODING 263
SWIDTH 1000 0
DWIDTH 16 0
BBX 16 16 0 -2
BITMAP
1100
110e
11f8
1100
fd01
1183
10fe
1000
1c00
f1fe
1102
1102
11fe
1102
1102
71fe
ENDCHAR
STARTCHAR ch-264
ENCODING 264
SWIDTH 1000 0
DWIDTH 16 0
BBX 16 16 0 -2
BITMAP
0800
0f7e
f812
0f12
7832
0822
0f62
f80e
00c0
0f80
0100
3ffc
0100
ffff
0100
0700
ENDCHAR
STARTCHAR ch-265
ENCODING 265
SWIDTH 1000 0
DWIDTH 16 0
BBX 16 16 0 -2
BITMAP
2040
2040
27fe
2402
fc82
2080
2080
2fff
3904
e30c
2208
27d8
2070
20d8
218c
6706
ENDCHAR
STARTCHAR ch-268
ENCODING 268
SWIDTH 1000 0
DWIDTH 16 0
BBX 16 16 0 -2
BITMAP
2080
2080
21fc
2104
fb8c
26d8
2070
20d8
398c
e707
21fc
2104
2104
2104
2104
61fc
ENDCHAR
STARTCHAR ch-273
ENCODING 273
SWIDTH 1000 0
DWIDTH 16 0
BBX 16 16 0 -2
BITMAP
2090
2090
2492
2696
fa9c
2290
2090
2090
389c
e396
2e92
2090
2190
2111
2313
660e
ENDCHAR
STARTCHAR ch-281
ENCODING 281
SWIDTH 1000 0
DWIDTH 16 0
BBX 16 16 0 -2
BITMAP
2204
330c
1108
ffff
0420
0c30
381c
e0e7
0f80
0100
3ffc
0100
ffff
0100
0100
0700
ENDCHAR
STARTCHAR ch-287
ENCODING 287
SWIDTH 1000 0
DWIDTH 16 0
BBX 16 16 0 -2
BITMAP
2020
2020
23fe
2020
fa22
2326
2124
2124
3820
e7ff
2050
20d8
2088
218c
2306
6603
ENDCHAR
STARTCHAR ch-295
ENCODING 295
SWIDTH 1000 0
DWIDTH 16 0
BBX 16 16 0 -2
BITMAP
2000
2fbe
2082
2492
fe9a
228a
2082
2082
3986
e28a
269a
2cb2
2082
2082
2082
638e
ENDCHAR
STARTCHAR ch-296
ENCODING 296
SWIDTH 1000 0
DWIDTH 16 0
BBX 16 16 0 -2
BITMAP
2080
2084
2184
f93e
27e3
2100
2100
23fe
3620
e020
27ff
2050
20d8
218c
2306
6603
ENDCHAR
STARTCHAR ch-299
ENCODING 299
SWIDTH 1000 0
DWIDTH 16 0
BBX 16 16 0 -2
BITMAP
2020
2124
2124
2124
f924
22aa
22aa
2471
2020
3820
e3fe
2020
2020
2020
27ff
6000
ENDCHAR
STARTCHAR ch-303
ENCODING 303
SWIDTH 1000 0
DWIDTH 16 0
BBX 16 16 0 -2
BITMAP
2000
23ff
2200
2200
fafe
2200
2200
23ff
3a48
e249
224b
224a
264c
2444
2c76
61c3
ENDCHAR
STARTCHAR ch-314
ENCODING 314
SWIDTH 1000 0
DWIDTH 16 0
BBX 16 16 0 -2
BITMAP
2003
2f8e
2178
2108
fb08
2208
27ff
2088
3888
e588
2508
2708
227f
2700
25c0
6c7f
ENDCHAR
STARTCHAR ch-317
ENCODING 317
SWIDTH 1000 0
DWIDTH 16 0
BBX 16 16 0 -2
BITMAP
2080
20fc
2188
fb18
2610
23fe
2222
2222
3a22
e3fe
2090
2090
2190
2111
2313
6e0e
ENDCHAR
STARTCHAR ch-318
ENCODING 318
SWIDTH 1000 0
DWIDTH 16 0
BBX 16 16 0 -2
BITMAP
2020
2020
27ff
2020
f924
2124
2124
22aa
3aaa
e471
2050
20d8
2088
218c
2306
6603
ENDCHAR
STARTCHAR ch-319
ENCODING 319
SWIDTH 1000 0
DWIDTH 16 0
BBX 16 16 0 -2
BITMAP
2006
203c
23e0
f820
27ff
2020
23fe
2222
3a22
e3fe
2222
2222
23fe
2020
2020
6020
ENDCHAR
STARTCHAR ch-329
ENCODING 329
SWIDTH 1000 0
DWIDTH 16 0
BBX 16 16 0 -2
BITMAP
2000
23fe
2202
2202
fa02
2202
23fe
2020
3820
e120
213e
2120
2320
22a0
2670
6c1f
ENDCHAR
STARTCHAR ch-332
ENCODING 332
SWIDTH 1000 0
DWIDTH 16 0
BBX 16 16 0 -2
BITMAP
2001
27e9
2429
2429
fc29
27e9
2109
2109
21e9
3929
e129
2321
2221
2261
2641
6cc7
ENDCHAR
STARTCHAR ch-333
ENCODING 333
SWIDTH 1000 0
DWIDTH 16 0
BBX 16 16 0 -2
BITMAP
2000
21fc
2104
21fc
f904
2104
21fc
2000
3bfe
e020
2020
27ff
2020
2020
2020
6020
ENDCHAR
STARTCHAR ch-335
ENCODING 335
SWIDTH 1000 0
DWIDTH 16 0
BBX 16 16 0 -2
BITMAP
2000
21fc
2104
2104
f9fc
2104
2104
21fc
3800
e020
23fe
2020
2020
2020
27ff
6000
ENDCHAR
STARTCHAR ch-336
ENCODING 336
SWIDTH 1000 0
DWIDTH 16 0
BBX 16 16 0 -2
BITMAP
1000
11fe
1102
1102
fdfe
1000
11fe
1102
1d02
f1fe
1102
1102
11fe
1102
1102
710e
ENDCHAR
STARTCHAR ch-341
ENCODING 341
SWIDTH 1000 0
DWIDTH 16 0
BBX 16 16 0 -2
BITMAP
2024
2022
27ff
2020
f820
23fe
2222
2222
3bfe
e222
2222
23fe
2222
2222
2222
6226
ENDCHAR
STARTCHAR ch-343
ENCODING 343
SWIDTH 1000 0
DWIDTH 16 0
BBX 16 16 0 -2
BITMAP
2020
2120
213e
2120
f920
27ff
2020
2124
3b26
e623
2024
20ec
2018
2030
20e0
6380
ENDCHAR
STARTCHAR ch-348
ENCODING 348
SWIDTH 1000 0
DWIDTH 16 0
BBX 16 16 0 -2
BITMAP
2020
2020
23fe
2222
fa22
23fe
2222
2222
3bfe
e020
27fe
2104
2098
2070
21dc
6707
ENDCHAR
STARTCHAR ch-359
ENCODING 359
SWIDTH 1000 0
DWIDTH 16 0
BBX 16 16 0 -2
BITMAP
2020
2020
23fe
2020
f9fc
2050
27ff
2088
3924
e623
21fc
2020
23fe
2020
2020
6020
ENDCHAR
STARTCHAR ch-360
ENCODING 360
SWIDTH 1000 0
DWIDTH 16 0
BBX 16 16 0 -2
BITMAP
2020
2070
20d8
f98c
2727
2020
21fc
2020
3820
e7ff
2000
21fc
2104
2104
2104
61fc
ENDCHAR
STARTCHAR ch-361
ENCODING 361
SWIDTH 1000 0
DWIDTH 16 0
BBX 16 16 0 -2
BITMAP
2000
27ff
2000
23fe
fa02
2202
23fe
2220
3a20
e3ff
2220
2670
2450
2cd8
218c
6707
ENDCHAR
STARTCHAR ch-363
ENCODING 363
SWIDTH 1000 0
DWIDTH 16 0
BBX 16 16 0 -2
BITMAP
2000
27df
2451
27df
fc51
27df
2401
2401
3c01
e401
2401
2401
2401
2401
2401
6407
ENDCHAR
STARTCHAR ch-366
ENCODING 366
SWIDTH 1000 0
DWIDTH 16 0
BBX 16 16 0 -2
BITMAP
2000
23fe
2202
2202
fbfe
2210
2210
23ff
3a10
e210
22fe
2282
2682
2482
2c82
60fe
ENDCHAR
STARTCHAR ch-370
ENCODING 370
SWIDTH 1000 0
DWIDTH 16 0
BBX 16 16 0 -2
BITMAP
2222
2326
2124
23fe
f850
2050
27ff
2088
3904
e3fe
260b
2008
21f8
2102
2106
60fc
ENDCHAR
STARTCHAR ch-374
ENCODING 374
SWIDTH 1000 0
DWIDTH 16 0
BBX 16 16 0 -2
BITMAP
200c
2038
23e0
2020
fbfe
2124
2124
27ff
3924
e124
2124
23fe
2020
2020
27ff
6000
ENDCHAR
STARTCHAR ch-375
ENCODING 375
SWIDTH 1000 0
DWIDTH 16 0
BBX 16 16 0 -2
BITMAP
2020
2020
27ff
2020
fbfe
2022
27ff
2022
3bfe
e020
2120
213e
2120
23a0
26e0
6c3f
ENDCHAR
STARTCHAR ch-378
ENCODING 378
SWIDTH 1000 0
DWIDTH 16 0
BBX 16 16 0 -2
BITMAP
2020
2020
27ff
2050
f8d8
218c
2707
20f8
3800
e000
27ff
2020
2124
2326
2623
60e0
ENDCHAR
STARTCHAR ch-379
ENCODING 379
SWIDTH 1000 0
DWIDTH 16 0
BBX 16 16 0 -2
BITMAP
2020
2070
20d8
f98c
2707
20f8
2000
23fe
3804
e00c
2068
2030
2296
2283
26c5
647c
ENDCHAR
STARTCHAR ch-384
ENCODING 384
SWIDTH 1000 0
DWIDTH 16 0
BBX 16 16 0 -2
BITMAP
2090
2190
2710
241f
fc31
27ea
2488
2488
3c88
e488
249c
2494
2494
2496
28b2
60a3
ENDCHAR
STARTCHAR ch-387
ENCODING 387
SWIDTH 1000 0
DWIDTH 16 0
BBX 16 16 0 -2
BITMAP
2000
21fc
2004
21fc
f804
21fc
2000
27ff
3c21
e421
23fe
2222
2222
2222
2226
6020
ENDCHAR
STARTCHAR ch-392
ENCODING 392
SWIDTH 1000 0
DWIDTH 16 0
BBX 16 16 0 -2
BITMAP
2006
203c
23e2
2122
f894
27ff
2401
2401
21fc
3884
e0cc
2058
2070
20d8
218c
6707
ENDCHAR
STARTCHAR ch-393
ENCODING 393
SWIDTH 1000 0
DWIDTH 16 0
BBX 16 16 0 -2
BITMAP
2020
2020
203e
2020
f9fc
2104
2104
21fc
3904
e104
21fc
2020
27ff
2020
2020
6020
ENDCHAR
STARTCHAR ch-396
ENCODING 396
SWIDTH 1000 0
DWIDTH 16 0
BBX 16 16 0 -2
BITMAP
2108
3118
1110
ffff
8001
9ff9
1008
1ff8
0000
1ff0
0100
3ffc
0100
ffff
0100
0700
ENDCHAR
STARTCHAR ch-398
ENCODING 398
SWIDTH 1000 0
DWIDTH 16 0
BBX 16 16 0 -2
BITMAP
2020
2020
23fe
2050
f8d8
218c
2000
27ff
3804
e1e4
2124
2124
2124
21e4
2004
601c
ENDCHAR
STARTCHAR ch-399
ENCODING 399
SWIDTH 1000 0
DWIDTH 16 0
BBX 16 16 0 -2
BITMAP
2100
2100
23ff
2601
f901
21f9
2341
2041
37fd
e041
2249
2249
2249
23fb
2002
600e
ENDCHAR
STARTCHAR ch-402
ENCODING 402
SWIDTH 1000 0
DWIDTH 16 0
BBX 16 16 0 -2
BITMAP
2048
2048
2048
23cf
f848
2048
2048
23cf
3848
e048
21c8
274f
2048
20c8
2188
6308
ENDCHAR
STARTCHAR ch-406
ENCODING 406
SWIDTH 1000 0
DWIDTH 16 0
BBX 16 16 0 -2
BITMAP
2020
2020
27ff
2090
f890
209e
2192
2132
3b2a
e566
2114
211c
2108
211c
2136
6163
ENDCHAR
STARTCHAR ch-408
ENCODING 408
SWIDTH 1000 0
DWIDTH 16 0
BBX 16 16 0 -2
BITMAP
2000
23fe
2202
2202
fbfe
2200
2210
2292
3a92
e2fe
2210
2210
2692
2492
2c92
60fe
ENDCHAR
STARTCHAR ch-411
ENCODING 411
SWIDTH 1000 0
DWIDTH 16 0
BBX 16 16 0 -2
BITMAP
2084
2084
23e4
2084
f884
27f4
2006
2085
3885
e3e4
2084
2084
2084
20f4
2784
6004
ENDCHAR
STARTCHAR ch-415
ENCODING 415
SWIDTH 1000 0
DWIDTH 16 0
BBX 16 16 0 -2
BITMAP
2020
2020
23fe
2202
fa02
21fc
2020
2020
3920
e13e
2120
2120
2120
23a0
22e0
663f
ENDCHAR
STARTCHAR ch-416
ENCODING 416
SWIDTH 1000 0
DWIDTH 16 0
BBX 16 16 0 -2
BITMAP
2020
2020
2020
27ff
f800
21fc
2104
2104
39fc
e020
2124
2124
2326
2623
2020
60e0
ENDCHAR
STARTCHAR ch-417
ENCODING 417
SWIDTH 1000 0
DWIDTH 16 0
BBX 16 16 0 -2
BITMAP
2006
203c
23e0
2042
fa66
2324
2100
2020
3820
e7ff
20a8
20a8
21ac
2326
2623
6020
ENDCHAR
STARTCHAR ch-418
ENCODING 418
SWIDTH 1000 0
DWIDTH 16 0
BBX 16 16 0 -2
BITMAP
2000
27fe
2492
2492
f990
231f
2600
2020
3820
e7ff
20a8
20a8
21ac
2326
2623
6020
ENDCHAR
STARTCHAR ch-419
ENCODING 419
SWIDTH 1000 0
DWIDTH 16 0
BBX 16 16 0 -2
BITMAP
2802
3f12
4812
ff92
0812
7f92
4882
4982
406e
0fc0
0080
3ffc
0080
ffff
0080
0380
ENDCHAR
STARTCHAR ch-421
ENCODING 421
SWIDTH 1000 0
DWIDTH 16 0
BBX 16 16 0 -2
BITMAP
2020
2020
23fe
2104
f98c
2088
27ff
2040
3840
e7ff
2084
210c
23d8
2070
21ce
6703
ENDCHAR
STARTCHAR ch-423
ENCODING 423
SWIDTH 1000 0
DWIDTH 16 0
BBX 16 16 0 -2
BITMAP
2020
2020
23fe
2292
fa92
2190
231e
2000
3800
e3fe
2020
2020
2020
2020
27ff
6000
ENDCHAR
STARTCHAR ch-424
ENCODING 424
SWIDTH 1000 0
DWIDTH 16 0
BBX 16 16 0 -2
BITMAP
2044
20cc
2088
21ff
fb10
2510
2110
21fe
3910
e110
2110
21fe
2110
2110
2110
61ff
ENDCHAR
STARTCHAR ch-425
ENCODING 425
SWIDTH 1000 0
DWIDTH 16 0
BBX 16 16 0 -2
BITMAP
2080
2080
2fff
2108
f948
2244
27fe
2a45
2244
3bfc
e244
2244
23fc
2041
2063
603e
ENDCHAR
STARTCHAR ch-426
ENCODING 426
SWIDTH 1000 0
DWIDTH 16 0
BBX 16 16 0 -2
BITMAP
2088
2088
23fe
2088
f888
2088
27ff
2000
3800
e1fc
2104
2104
21fc
2104
2104
61fc
ENDCHAR
STARTCHAR ch-427
ENCODING 427
SWIDTH 1000 0
DWIDTH 16 0
BBX 16 16 0 -2
BITMAP
2000
27fe
2240
2240
fa7e
23d2
2252
2256
3a54
e3dc
2248
2248
225c
23d4
2666
6043
ENDCHAR
STARTCHAR ch-428
ENCODING 428
SWIDTH 1000 0
DWIDTH 16 0
BBX 16 16 0 -2
BITMAP
2100
2100
2100
23ff
fa01
2441
2249
2151
37fd
e0c1
21f1
2159
2349
2643
2042
600e
ENDCHAR
STARTCHAR ch-434
ENCODING 434
SWIDTH 1000 0
DWIDTH 16 0
BBX 16 16 0 -2
BITMAP
21fc
2104
2104
21fc
f904
2104
21fc
2080
39ff
e301
2e31
23e1
2201
2213
21f2
600e
ENDCHAR
STARTCHAR ch-436
ENCODING 436
SWIDTH 1000 0
DWIDTH 16 0
BBX 16 16 0 -2
BITMAP
2000
27fe
2402
25fa
fc42
2442
2442
25fa
3c42
e452
244a
2442
25fa
2402
27fe
6000
ENDCHAR
STARTCHAR ch-437
ENCODING 437
SWIDTH 1000 0
DWIDTH 16 0
BBX 16 16 0 -2
BITMAP
2020
2070
20d8
218c
fb06
26fb
2000
2000
3bde
e252
2252
2252
2252
23d6
2010
6010
ENDCHAR
STARTCHAR ch-443
ENCODING 443
SWIDTH 1000 0
DWIDTH 16 0
BBX 16 16 0 -2
BITMAP
2000
27fe
2104
2088
f870
21dc
2707
2020
3bfe
e222
2222
23fe
2020
2022
20ff
6781
ENDCHAR
STARTCHAR ch-446
ENCODING 446
SWIDTH 1000 0
DWIDTH 16 0
BBX 16 16 0 -2
BITMAP
2000
21f8
2008
21f8
f808
27ff
2080
2142
3646
e0ac
2120
2670
20a8
2124
2623
60c0
ENDCHAR
STARTCHAR ch-448
ENCODING 448
SWIDTH 1000 0
DWIDTH 16 0
BBX 16 16 0 -2
BITMAP
2020
2020
27ff
2020
fbfe
2222
23fe
2222
3a22
e3fe
20a8
20a8
21ac
2326
2623
6020
ENDCHAR
STARTCHAR ch-451
ENCODING 451
SWIDTH 1000 0
DWIDTH 16 0
BBX 16 16 0 -2
BITMAP
2104
218c
2088
27ff
f800
23c2
2252
2252
3bd2
e252
2252
23d2
2242
2242
2242
62ce
ENDCHAR
STARTCHAR ch-452
ENCODING 452
SWIDTH 1000 0
DWIDTH 16 0
BBX 16 16 0 -2
BITMAP
2020
2070
20d8
f98c
2777
2000
23c2
2252
3a52
e3d2
2252
2252
23c2
2242
2242
62ce
ENDCHAR
STARTCHAR ch-454
ENCODING 454
SWIDTH 1000 0
DWIDTH 16 0
BBX 16 16 0 -2
BITMAP
2002
23f4
2451
22da
f98c
2306
2603
21fc
3820
e020
27ff
2050
2050
20d8
218c
6707
ENDCHAR
STARTCHAR ch-457
ENCODING 457
SWIDTH 1000 0
DWIDTH 16 0
BBX 16 16 0 -2
BITMAP
2000
23fe
2084
2048
fbff
2052
20d4
2190
3b10
e020
27ff
20a8
21ac
2326
2623
6020
ENDCHAR
STARTCHAR ch-463
ENCODING 463
SWIDTH 1000 0
DWIDTH 16 0
BBX 16 16 0 -2
BITMAP
2088
2088
27ff
2088
f888
2000
2000
23fe
3a22
e222
2222
23fe
2222
2222
2222
63fe
ENDCHAR
STARTCHAR ch-464
ENCODING 464
SWIDTH 1000 0
DWIDTH 16 0
BBX 16 16 0 -2
BITMAP
2000
21fc
2104
21fc
f904
2104
21fc
2000
27ff
3820
e120
213e
2120
23a0
26e0
6c3f
ENDCHAR
STARTCHAR ch-466
ENCODING 466
SWIDTH 1000 0
DWIDTH 16 0
BBX 16 16 0 -2
BITMAP
2006
203c
23e0
2020
f820
27ff
2020
21a0
3b2e
e222
2222
23ae
2222
2222
23fe
6000
ENDCHAR
STARTCHAR ch-470
ENCODING 470
SWIDTH 1000 0
DWIDTH 16 0
BBX 16 16 0 -2
BITMAP
2000
21fc
2104
2104
f9fc
2000
27ff
2104
39fc
e104
21fc
2107
21fc
2704
2004
6004
ENDCHAR
STARTCHAR ch-474
ENCODING 474
SWIDTH 1000 0
DWIDTH 16 0
BBX 16 16 0 -2
BITMAP
2000
21f8
2108
21f8
f908
2108
21f8
2000
37ff
e100
23fe
2652
2092
2326
2044
619c
ENDCHAR
STARTCHAR ch-475
ENCODING 475
SWIDTH 1000 0
DWIDTH 16 0
BBX 16 16 0 -2
BITMAP
2100
21f8
2308
fa10
27fe
2252
2252
2252
3a9e
e302
2222
27ff
2050
20d8
218c
6707
ENDCHAR
STARTCHAR ch-481
ENCODING 481
SWIDTH 1000 0
DWIDTH 16 0
BBX 16 16 0 -2
BITMAP
2000
23fe
2202
2202
fbfe
2200
22fe
2220
2244
3afe
e212
2210
26fe
2410
2c10
61ff
ENDCHAR
STARTCHAR ch-483
ENCODING 483
SWIDTH 1000 0
DWIDTH 16 0
BBX 16 16 0 -2
BITMAP
2020
2222
2222
2222
fbfe
2000
27ff
2020
3840
e3fe
2292
2292
2292
2292
2292
6296
ENDCHAR
STARTCHAR ch-489
ENCODING 489
SWIDTH 1000 0
DWIDTH 16 0
BBX 16 16 0 -2
BITMAP
2210
2213
23de
2210
fa10
2211
23cf
2620
3040
e3fe
2202
2202
23fe
2202
2202
63fe
ENDCHAR
STARTCHAR ch-494
ENCODING 494
SWIDTH 1000 0
DWIDTH 16 0
BBX 16 16 0 -2
BITMAP
2000
27ff
2401
2421
fbfe
2020
23fe
2222
3bfe
e222
2222
23fe
2020
27ff
2020
6020
ENDCHAR
STARTCHAR ch-500
ENCODING 500
SWIDTH 1000 0
DWIDTH 16 0
BBX 16 16 0 -2
BITMAP
200e
27f8
2242
fb66
2124
23fe
2080
27ff
3880
e0fc
2184
230c
26d8
2070
21dc
6707
ENDCHAR
STARTCHAR ch-502
ENCODING 502
SWIDTH 1000 0
DWIDTH 16 0
BBX 16 16 0 -2
BITMAP
2000
2fdf
2491
2493
f792
2496
2494
2492
3791
e491
2491
2491
2797
2c90
2090
6090
ENDCHAR
STARTCHAR ch-506
ENCODING 506
SWIDTH 1000 0
DWIDTH 16 0
BBX 16 16 0 -2
BITMAP
2006
203c
27e2
2246
f924
2000
23fe
2020
3820
e7ff
2020
2020
2222
2222
2222
63fe
ENDCHAR
ENDFONT
