STARTFONT 2.1
FONT jis.jis7000.24
SIZE 24 72 72
FONTBOUNDINGBOX 24 24 0 -3
STARTPROPERTIES 4
FONT_DESCENT 3
FONT_ASCENT 21
DEFAULT_CHAR 1
COPYRIGHT "Copyright (c) 1992 AT&T - All rights reserved."
ENDPROPERTIES
CHARS 108
STARTCHAR ch-1
ENCODING 1
SWIDTH 1000 0
DWIDTH 24 0
BBX 24 24 0 -3
BITMAP
202020
181830
0c0840
0cfffe
000300
007ffc
800300
400300
61ffff
641820
043310
0c3ff8
08703f
08bff6
1b3030
183030
303ff4
f0310e
703098
3030c0
303070
31ff3f
38f01e
188006
ENDCHAR
STARTCHAR ch-9
ENCODING 9
SWIDTH 1000 0
DWIDTH 24 0
BBX 24 24 0 -3
BITMAP
200380
184300
0c4306
0cffff
00c006
018e04
81bc78
603018
303018
323c78
023018
043018
043ff8
0c0e00
080c06
181fff
383006
f06046
718236
304996
304c86
30cc0c
38c07c
180018
ENDCHAR
STARTCHAR ch-11
ENCODING 11
SWIDTH 1000 0
DWIDTH 24 0
BBX 24 24 0 -3
BITMAP
204380
184306
0cffff
0cc006
018034
0183f8
807f20
602330
321320
321346
07ffff
040f40
0c1b20
083330
18631c
18c00f
337ffe
f06218
706218
307ff8
306218
306218
387ff8
186018
ENDCHAR
STARTCHAR ch-15
ENCODING 15
SWIDTH 1000 0
DWIDTH 24 0
BBX 24 24 0 -3
BITMAP
202007
197006
0d8fa6
0d04a6
0104a6
0144a6
8168a6
63a3a6
3119a6
301826
043426
042326
0841a6
08fda6
1b1026
181026
31ff26
f01206
711306
30d206
305406
33ff86
39f03e
19000c
ENDCHAR
STARTCHAR ch-17
ENCODING 17
SWIDTH 1000 0
DWIDTH 24 0
BBX 24 24 0 -3
BITMAP
104018
0c7ffc
066018
066018
007ff8
006018
806018
607ff8
320840
320848
047ffc
040840
0c0842
09ffff
181820
183310
30631c
f0db6f
730b46
300300
301b70
31e31c
38cf0c
180600
ENDCHAR
STARTCHAR ch-21
ENCODING 21
SWIDTH 1000 0
DWIDTH 24 0
BBX 24 24 0 -3
BITMAP
203006
1023ff
19a030
192820
013d46
0121ff
852186
452586
67ff86
6821fe
082186
092986
19a586
1927fe
132186
32e986
344d86
f01986
7011fe
302080
3040e8
3081c6
3b0303
180c03
ENDCHAR
STARTCHAR ch-24
ENCODING 24
SWIDTH 1000 0
DWIDTH 24 0
BBX 24 24 0 -3
BITMAP
200700
180630
0c07f8
0d0602
01ffff
018806
818fc4
41f810
618818
6587f8
058000
0d9ff8
099108
099108
199ff8
199108
319108
f11ff8
710000
337ffc
324444
344444
384444
19ffff
ENDCHAR
STARTCHAR ch-26
ENCODING 26
SWIDTH 1000 0
DWIDTH 24 0
BBX 24 24 0 -3
BITMAP
207060
106060
186450
1ffed0
0060c8
00608c
81f986
410907
610a02
610800
09fbde
090842
090a52
19094a
11f94a
106042
3060c6
f0614a
77ff5a
306252
306042
306042
3863de
1860c6
ENDCHAR
STARTCHAR ch-27
ENCODING 27
SWIDTH 1000 0
DWIDTH 24 0
BBX 24 24 0 -3
BITMAP
200700
100606
1bffff
186000
006000
007ffc
800000
407ff8
644008
644008
047ff8
0c0000
09e47c
092444
192444
19ffc4
312964
f12954
71eb54
312e44
312345
332585
32e887
345103
ENDCHAR
STARTCHAR ch-29
ENCODING 29
SWIDTH 1000 0
DWIDTH 24 0
BBX 24 24 0 -3
BITMAP
200000
190006
0dffff
0d8000
018c30
018926
81ffff
618820
319870
319e70
05aaa8
05c8ac
098927
098826
198000
1981c0
311d80
f11998
7319fc
321980
321980
341986
39ffff
180000
ENDCHAR
STARTCHAR ch-30
ENCODING 30
SWIDTH 1000 0
DWIDTH 24 0
BBX 24 24 0 -3
BITMAP
207080
1060cc
1bfcfe
18608c
006188
03fd18
806210
406020
67fdfe
680032
090832
09fc32
190bff
110832
11f832
310832
3109fe
f1f830
710830
310830
310830
310830
3939f0
191860
ENDCHAR
STARTCHAR ch-31
ENCODING 31
SWIDTH 1000 0
DWIDTH 24 0
BBX 24 24 0 -3
BITMAP
103870
0c3066
07ffff
063060
000200
007ff8
800218
63ffff
300218
300218
047ff8
040200
0cd24e
08ca6c
18ca8c
18c20c
30dfec
f0c20c
70c70c
30c6cc
308a6c
31926c
39220c
1a020c
ENDCHAR
STARTCHAR ch-38
ENCODING 38
SWIDTH 1000 0
DWIDTH 24 0
BBX 24 24 0 -3
BITMAP
2000e0
180cc4
0ffec7
0c30d6
0023fc
0060cc
8040c8
6080d2
3147ff
346860
046cc0
04b180
08a306
0925ff
1a6186
107186
30a986
f0adfe
712d86
322d86
302186
302186
39e1fe
18c186
ENDCHAR
STARTCHAR ch-39
ENCODING 39
SWIDTH 1000 0
DWIDTH 24 0
BBX 24 24 0 -3
BITMAP
2070e0
1060c0
1864c6
1bfeff
0088c0
00ccc0
8448fe
441006
67ff06
6400fe
0800c0
09fcc0
098cfe
198cc0
11fcc0
118cfe
318cc0
f18cc0
71fcfe
318cc0
318cc2
318cc3
39bcff
19987e
ENDCHAR
STARTCHAR ch-44
ENCODING 44
SWIDTH 1000 0
DWIDTH 24 0
BBX 24 24 0 -3
BITMAP
207006
1861ff
0c6030
0c6420
03fea6
0060ff
8264c6
43fcc6
6264c6
6a64fe
0a64c6
0a64c6
0a64c6
13fcfe
1264c6
1060c6
30f0c6
f0e8c6
71ecfe
316c00
326048
346066
3860c3
186303
ENDCHAR
STARTCHAR ch-48
ENCODING 48
SWIDTH 1000 0
DWIDTH 24 0
BBX 24 24 0 -3
BITMAP
408006
27ffff
308880
308c88
009886
009083
84a083
479ffe
641082
641082
041aaa
141492
149aaa
179082
309082
209082
609aaa
e09492
609aaa
609082
609082
609082
77909e
319086
ENDCHAR
STARTCHAR ch-50
ENCODING 50
SWIDTH 1000 0
DWIDTH 24 0
BBX 24 24 0 -3
BITMAP
206040
106070
18d060
18c860
008c60
018646
8106ff
42f888
64008e
68014c
03de4c
12524c
125228
125228
33de38
300010
200010
e18c38
610828
618828
615c6c
63564f
722686
344106
ENDCHAR
STARTCHAR ch-62
ENCODING 62
SWIDTH 1000 0
DWIDTH 24 0
BBX 24 24 0 -3
BITMAP
421886
33fcff
1b0886
1b0886
03f8fe
030886
830886
43f8fe
630206
6b7ff6
0b0206
0b3fe6
0b2226
1b3fe6
1b2226
132226
333fe6
f30606
730f06
330ac6
331266
336266
3b021e
1b000c
ENDCHAR
STARTCHAR ch-76
ENCODING 76
SWIDTH 1000 0
DWIDTH 24 0
BBX 24 24 0 -3
BITMAP
201c38
181830
0dffff
0c1830
001830
00fefe
80c6c6
60c6c6
30fefe
342040
043860
043084
087ffe
086180
18e188
18fffc
316180
f26188
707ffc
306180
306180
306186
387fff
186000
ENDCHAR
STARTCHAR ch-81
ENCODING 81
SWIDTH 1000 0
DWIDTH 24 0
BBX 24 24 0 -3
BITMAP
200c06
19feff
0c0000
0cfc7e
008442
00a452
80a552
400100
64fffe
64c440
04c440
0cfffc
08c444
08c444
18fffc
18c000
30cc60
f0c844
70cf4e
308870
318842
317f43
3a3c7f
18203e
ENDCHAR
STARTCHAR ch-88
ENCODING 88
SWIDTH 1000 0
DWIDTH 24 0
BBX 24 24 0 -3
BITMAP
20cc40
108874
188866
1bfe64
008848
0088fe
800090
41fc90
652590
652694
0524fe
09fc90
082090
082090
19fc90
102094
3020fe
f3fe90
706090
305090
30cc90
308696
3906ff
1a0080
ENDCHAR
STARTCHAR ch-99
ENCODING 99
SWIDTH 1000 0
DWIDTH 24 0
BBX 24 24 0 -3
BITMAP
204008
10678c
194028
198ff0
00a014
007786
804008
409792
63f07f
6957a9
084488
0954aa
1957a9
1a4049
100000
31fff8
300018
f07ff8
706000
30fffc
30c00c
300018
3800f8
180030
ENDCHAR
STARTCHAR ch-107
ENCODING 107
SWIDTH 1000 0
DWIDTH 24 0
BBX 24 24 0 -3
BITMAP
001c00
001800
001800
001800
001800
001808
04180e
04181c
041818
0c1830
081840
183400
383400
303400
006200
006200
00c100
00c180
0180c0
0300e0
060078
0c003f
30001e
c00006
ENDCHAR
STARTCHAR ch-111
ENCODING 111
SWIDTH 1000 0
DWIDTH 24 0
BBX 24 24 0 -3
BITMAP
0e0000
0c0006
0c7fff
0c00c0
0c00c0
0c80c0
2ce0c0
2cc0c0
2d80c0
6e00c0
6c00c0
cc00c0
cc00c0
0c00c0
0c00c0
1a00c0
1900c0
1980c0
10c0c0
30c0c0
20c0c0
6000c0
4007c0
800180
ENDCHAR
STARTCHAR ch-112
ENCODING 112
SWIDTH 1000 0
DWIDTH 24 0
BBX 24 24 0 -3
BITMAP
100006
1fffff
180000
180000
180700
180600
180608
18460e
18461c
184618
18c630
18c620
198640
198600
180d00
180d00
300c80
301880
301840
203060
606038
40c01f
83000e
0c0006
ENDCHAR
STARTCHAR ch-120
ENCODING 120
SWIDTH 1000 0
DWIDTH 24 0
BBX 24 24 0 -3
BITMAP
010000
01c000
038300
03ff80
060700
0c0e00
181d00
6030c0
00e070
01803f
061c1e
181806
e01820
021838
021870
0434c0
1c3500
186200
006300
00c180
0180e0
07007f
1c001e
e00006
ENDCHAR
STARTCHAR ch-124
ENCODING 124
SWIDTH 1000 0
DWIDTH 24 0
BBX 24 24 0 -3
BITMAP
0e0400
0c0700
0c0600
0c0600
0c8c06
2cefff
2cc806
2d9806
6e1006
6c3406
4c2306
cc4186
cc01c6
0c00c6
0c00c6
0c0006
1a0006
198006
18c00c
10e00c
30600c
200018
4000f8
800030
ENDCHAR
STARTCHAR ch-125
ENCODING 125
SWIDTH 1000 0
DWIDTH 24 0
BBX 24 24 0 -3
BITMAP
081020
0e1c38
0c1830
183060
102040
204080
183060
0c1830
060c18
060c18
000000
001c00
001810
04181c
043438
083460
386280
306300
00c180
0180e0
030078
06003f
18001e
e00006
ENDCHAR
STARTCHAR ch-137
ENCODING 137
SWIDTH 1000 0
DWIDTH 24 0
BBX 24 24 0 -3
BITMAP
0e0006
0c7fff
0c0000
0c0000
0c100c
0d1ffe
2dd80c
2d980c
6d180c
6e180c
cc180c
cc1ffc
0c180c
0c180c
0c1800
0a1800
191800
19b000
19b000
102000
306000
204000
408000
810000
ENDCHAR
STARTCHAR ch-138
ENCODING 138
SWIDTH 1000 0
DWIDTH 24 0
BBX 24 24 0 -3
BITMAP
0e0400
0c0700
0c0600
0c0600
0c8600
2cec06
2ccfff
2d8806
6d1804
6e1388
cc2310
cc4300
0c0300
0c0300
0c0680
0c0680
1a0440
198c40
18c820
10d830
301018
20201f
40400e
818006
ENDCHAR
STARTCHAR ch-142
ENCODING 142
SWIDTH 1000 0
DWIDTH 24 0
BBX 24 24 0 -3
BITMAP
001c00
001820
021838
021870
0418c0
1c1900
183600
003180
0060e0
00c038
01801c
061c0e
781806
001820
021838
023470
043580
1c3200
186300
006180
00c0e0
01807f
0e003e
f0000c
ENDCHAR
STARTCHAR ch-146
ENCODING 146
SWIDTH 1000 0
DWIDTH 24 0
BBX 24 24 0 -3
BITMAP
0e00e0
0c00c0
0c00c0
0c00c0
0c00c0
0c88d8
2ceecc
2cccc6
2d8cc7
6e0cc3
6c18c0
cc18c8
cc30ce
0c00cc
0c00dc
1a07d8
190198
198030
10c030
30c060
20c0c0
600180
400300
801c00
ENDCHAR
STARTCHAR ch-153
ENCODING 153
SWIDTH 1000 0
DWIDTH 24 0
BBX 24 24 0 -3
BITMAP
002000
003800
007018
00fffc
03a070
0e30e0
7b1380
010e00
007800
07c000
f80000
001c00
001810
04181c
041c38
0c3430
183660
387200
306300
00e180
01c0e0
070078
1c003f
e0000e
ENDCHAR
STARTCHAR ch-172
ENCODING 172
SWIDTH 1000 0
DWIDTH 24 0
BBX 24 24 0 -3
BITMAP
0e1006
0c1fff
0c1800
0c1800
0c1800
0c9800
2cf80c
2cdffe
2d980c
6e180c
6c180c
cc180c
cc180c
0c180c
0c1ffc
1a180c
191800
199800
10d800
30d800
20d800
601806
401fff
801800
ENDCHAR
STARTCHAR ch-173
ENCODING 173
SWIDTH 1000 0
DWIDTH 24 0
BBX 24 24 0 -3
BITMAP
001c00
0e181c
0c1818
0c1818
0c1818
0ffff8
000000
100006
1fffff
180000
180e00
180c10
188c1c
188c38
198c60
198c80
1b1a00
131900
103180
3030c0
206070
40c03f
83001e
1c0006
ENDCHAR
STARTCHAR ch-174
ENCODING 174
SWIDTH 1000 0
DWIDTH 24 0
BBX 24 24 0 -3
BITMAP
0e0800
0c0e00
0c0c00
0c0c0c
0c0ffe
0d180c
2dd80c
2d900c
2d3fcc
6e20cc
6c40cc
cc00cc
cc10cc
0c1fcc
0c181c
1a1818
1918f8
199830
10d802
30d802
20d802
601803
401fff
800ffe
ENDCHAR
STARTCHAR ch-175
ENCODING 175
SWIDTH 1000 0
DWIDTH 24 0
BBX 24 24 0 -3
BITMAP
0e2006
0c3fff
0c3006
0c3006
0c3006
0d3006
2df226
2db3f6
2d3226
6e3226
6c3226
cc3226
cc3226
0c3226
0c3226
1a33e6
193226
193006
11b006
31b006
21b006
603006
40303e
80300c
ENDCHAR
STARTCHAR ch-179
ENCODING 179
SWIDTH 1000 0
DWIDTH 24 0
BBX 24 24 0 -3
BITMAP
0e0006
0c7fff
0c0180
0c0180
0c0180
0d0180
2dc186
2dbfff
2d3186
6e3186
6c3186
cc3146
cc3326
0c3236
0c3436
1a3836
193006
193006
11b006
31b006
21b006
603006
40303e
80300c
ENDCHAR
STARTCHAR ch-184
ENCODING 184
SWIDTH 1000 0
DWIDTH 24 0
BBX 24 24 0 -3
BITMAP
0e0400
0c0700
0c0600
0c0600
0c8c06
0cefff
2cdb00
2d9300
2e2300
6c430c
6c03fe
cc0300
cc0300
0c0300
0c0300
1a0306
1903ff
198300
10c300
30c300
20c300
600300
400300
800300
ENDCHAR
STARTCHAR ch-185
ENCODING 185
SWIDTH 1000 0
DWIDTH 24 0
BBX 24 24 0 -3
BITMAP
001c00
001800
001800
00180c
001ffe
001800
001800
001800
081830
0ffff8
0c0030
0c0030
0c0030
0c0030
0c0030
0c0030
0ffff0
0c0030
000000
084210
10410c
30c186
e0c187
c0c183
ENDCHAR
STARTCHAR ch-186
ENCODING 186
SWIDTH 1000 0
DWIDTH 24 0
BBX 24 24 0 -3
BITMAP
081000
061c00
031800
031800
003000
003060
3ffff0
006060
006060
00c0c8
00fffc
018018
030018
060032
0fffff
180006
300086
c88846
0c4466
0c6666
0c660e
08000c
0000fc
000038
ENDCHAR
STARTCHAR ch-200
ENCODING 200
SWIDTH 1000 0
DWIDTH 24 0
BBX 24 24 0 -3
BITMAP
00000e
00180c
fffdcc
06018c
06018c
0c318c
0ff98c
18318c
10618c
28618c
46c18c
83818c
01018c
02000c
04000c
08000c
10007c
600018
000000
084210
10410c
30c186
e0c183
c0c183
ENDCHAR
STARTCHAR ch-203
ENCODING 203
SWIDTH 1000 0
DWIDTH 24 0
BBX 24 24 0 -3
BITMAP
040380
070300
060300
0e030c
0dfffe
1c0f40
180f40
381b60
781b20
d83330
183318
18631f
18c30e
1b0306
180300
180300
180300
000000
000000
084210
10410c
30c186
e0c187
c0c183
ENDCHAR
STARTCHAR ch-207
ENCODING 207
SWIDTH 1000 0
DWIDTH 24 0
BBX 24 24 0 -3
BITMAP
004000
007000
0860c0
0fffe0
0c00c0
0c00c0
0c00c0
0c00c0
0fffc0
0c0000
0c000c
0ffffe
0c0000
0c0000
0c0006
0fffff
0c0006
000106
1210c6
110866
218c6c
e18c0c
c0007c
000018
ENDCHAR
STARTCHAR ch-217
ENCODING 217
SWIDTH 1000 0
DWIDTH 24 0
BBX 24 24 0 -3
BITMAP
0e0400
0c0700
0c0618
0c07fc
0c8c18
0cec30
2cda30
2d9360
2d21c0
6e01c0
6c0370
cc063f
cc0c1e
0c1806
0c6000
1a1ffc
19180c
19180c
11980c
31980c
21980c
601ffc
40180c
80180c
ENDCHAR
STARTCHAR ch-221
ENCODING 221
SWIDTH 1000 0
DWIDTH 24 0
BBX 24 24 0 -3
BITMAP
0000c0
0fffe0
000180
000300
000208
01940e
7fd80c
031c18
031a10
061920
0618c0
0c1860
181838
30f81f
c03006
000000
00000c
7ffffe
000000
084210
10410c
30c186
e0c187
c0c183
ENDCHAR
STARTCHAR ch-223
ENCODING 223
SWIDTH 1000 0
DWIDTH 24 0
BBX 24 24 0 -3
BITMAP
0e2006
0c3fff
0c3006
0c31c6
0c3186
0d3186
2df186
2db1b6
2d3ffe
6e3186
6c3186
cc3186
cc3186
0c3146
0c3366
1a3326
1b3226
193636
11b436
31b836
21b006
603006
403ffe
803006
ENDCHAR
STARTCHAR ch-241
ENCODING 241
SWIDTH 1000 0
DWIDTH 24 0
BBX 24 24 0 -3
BITMAP
0e2006
0c3fff
0c3246
0c3246
0c3246
0d3246
2df67e
2db43e
2d3806
6e3006
6c3226
cc33f6
cc3226
0c3226
0c3226
1a3226
193226
1933e6
11b226
31b006
21b006
603006
40303e
80300c
ENDCHAR
STARTCHAR ch-249
ENCODING 249
SWIDTH 1000 0
DWIDTH 24 0
BBX 24 24 0 -3
BITMAP
001c00
001800
001806
ffffff
000000
03ffc0
0300c0
0300c0
03ffc0
000000
000060
3ffff0
0000c0
001300
001c00
001800
001800
00f800
003000
084210
10410c
30c186
e0c183
c0c183
ENDCHAR
STARTCHAR ch-253
ENCODING 253
SWIDTH 1000 0
DWIDTH 24 0
BBX 24 24 0 -3
BITMAP
0e0400
0c0700
0c0630
0c0ff8
0d0830
0dd460
2da2c0
2d0180
2e03c0
6c0670
6c0c3f
cc318e
ccc180
0c1ff8
0c0180
1c0180
1a1ff8
190180
118186
31ffff
218180
600180
400180
800180
ENDCHAR
STARTCHAR ch-265
ENCODING 265
SWIDTH 1000 0
DWIDTH 24 0
BBX 24 24 0 -3
BITMAP
000000
000018
3ffffc
001800
001800
071830
061ff8
061800
061800
061806
ffffff
030000
030030
07fff8
060000
06000c
07fffe
10020c
12210c
22118c
63199c
c31818
c300f8
000030
ENDCHAR
STARTCHAR ch-276
ENCODING 276
SWIDTH 1000 0
DWIDTH 24 0
BBX 24 24 0 -3
BITMAP
0e0200
0c0380
0c030c
0c03fe
0c860c
0ce618
2ccc18
2d8830
2e1020
4c2040
cc0080
cc3a06
0c33ff
0c3306
0c3306
0c3306
1a3306
1933fe
19b306
11b306
31b306
203306
4033fe
803306
ENDCHAR
STARTCHAR ch-281
ENCODING 281
SWIDTH 1000 0
DWIDTH 24 0
BBX 24 24 0 -3
BITMAP
0e01c0
0c0180
0c0180
0c018c
0c3ffe
0c8010
2ce81c
2cc418
2d8630
6e0620
6c0046
cc7fff
cc0000
0c0000
0c100c
1a1ffe
19180c
19980c
10d80c
30d80c
20d80c
601ffc
40180c
80180c
ENDCHAR
STARTCHAR ch-282
ENCODING 282
SWIDTH 1000 0
DWIDTH 24 0
BBX 24 24 0 -3
BITMAP
0381c0
030180
033186
ffffff
030180
0783c0
0f67a0
0b25b0
13099c
23118f
c36186
030180
003800
043010
043038
0c3060
183080
386800
306400
00c300
0181c0
0300fe
0c003c
70000c
ENDCHAR
STARTCHAR ch-284
ENCODING 284
SWIDTH 1000 0
DWIDTH 24 0
BBX 24 24 0 -3
BITMAP
0e1018
0c1ffc
0c1818
0c1818
0c1818
0c9ff8
2cf818
2cd818
2d9818
6e1ff8
6c1818
cc0000
cc1ce0
0c18c8
0c18ce
1a18cc
191fd8
1998e0
10d8c0
30d8c2
2018c2
607fc3
4038ff
80207e
ENDCHAR
STARTCHAR ch-289
ENCODING 289
SWIDTH 1000 0
DWIDTH 24 0
BBX 24 24 0 -3
BITMAP
040000
070000
060000
0c000c
0ffffe
166660
266660
466660
066660
066666
ffffff
066660
066660
066660
066660
066666
ffffff
000000
000000
044420
084218
18c30c
70c306
60c306
ENDCHAR
STARTCHAR ch-294
ENCODING 294
SWIDTH 1000 0
DWIDTH 24 0
BBX 24 24 0 -3
BITMAP
010200
01c380
038300
030200
060418
0ffffc
1c0c00
2c0c00
cc0c30
0ffff8
0c0c00
0c0c00
0c0c30
0ffff8
0c0c00
0c0c00
0c0c0c
0ffffe
000000
084210
10410c
70c186
e0c187
c0c183
ENDCHAR
STARTCHAR ch-310
ENCODING 310
SWIDTH 1000 0
DWIDTH 24 0
BBX 24 24 0 -3
BITMAP
0801c0
0e0190
0c0188
0c618c
1ff18c
186180
106186
34ffff
26c180
418180
918340
1b0340
020620
040630
080c1c
10180f
206006
c00000
084420
084218
10c30c
30c186
e0c187
c00003
ENDCHAR
STARTCHAR ch-316
ENCODING 316
SWIDTH 1000 0
DWIDTH 24 0
BBX 24 24 0 -3
BITMAP
0e01c0
0c0180
0c018c
0c3ffe
0c8180
0cc180
2c9998
2d1818
2e1818
6cffff
6c1818
cc1818
cc1818
0c0000
0c7ffe
0c0c60
1a0c60
198c60
18cc60
10d862
301862
203063
40607f
81803e
ENDCHAR
STARTCHAR ch-329
ENCODING 329
SWIDTH 1000 0
DWIDTH 24 0
BBX 24 24 0 -3
BITMAP
0e01c0
0c0180
0c0186
0c7fff
0c8180
0cc180
2dbffc
2d318c
2e318c
6c318c
6c3ffc
cc318c
cc318c
0c318c
0c3ffc
0c07c0
1a0da0
190da0
119990
31b198
20618f
40c18e
830186
000180
ENDCHAR
STARTCHAR ch-332
ENCODING 332
SWIDTH 1000 0
DWIDTH 24 0
BBX 24 24 0 -3
BITMAP
0e0100
0c01c0
0c118c
0c1ffe
0c180c
0c980c
2cfffc
2cd80c
2d980c
6e180c
6c1ffc
cc0000
cc000c
0c3ffe
0c0180
1a0180
190198
199ffc
10c180
30c180
20c180
600186
407fff
800000
ENDCHAR
STARTCHAR ch-334
ENCODING 334
SWIDTH 1000 0
DWIDTH 24 0
BBX 24 24 0 -3
BITMAP
020100
0181c0
00c180
00c206
ffffff
000000
10601c
1ff398
186318
186318
1fe318
186318
186318
1fe318
186318
186018
19e0f8
18c030
000000
084210
10410c
30c186
e0c187
c0c183
ENDCHAR
STARTCHAR ch-341
ENCODING 341
SWIDTH 1000 0
DWIDTH 24 0
BBX 24 24 0 -3
BITMAP
40320c
7ffbfe
61830c
61830c
65b30c
65fb0c
64330c
64330c
6433fc
65330c
65f300
65b300
618302
618302
619303
7ffbff
6001fe
000000
000000
084210
10410c
30c186
e0c187
c0c183
ENDCHAR
STARTCHAR ch-342
ENCODING 342
SWIDTH 1000 0
DWIDTH 24 0
BBX 24 24 0 -3
BITMAP
0e001c
0c01fe
0c3f88
0c020e
0c210c
0d1988
2dc890
2dbffe
2d0300
6e0300
6c0306
cc7fff
cc0600
0c0600
0c0418
1a0ffc
190a18
199b30
1191e0
3020c0
2041f0
61833f
400c1e
807006
ENDCHAR
STARTCHAR ch-345
ENCODING 345
SWIDTH 1000 0
DWIDTH 24 0
BBX 24 24 0 -3
BITMAP
0e0006
0cffff
0c0240
0c0240
0c224c
0cbffe
2cf24c
2db24c
2d324c
4e324c
cc324c
cc324c
0c3ffc
0c300c
0c01c0
0c0180
1a018c
193ffe
198180
118180
318180
200186
40ffff
800000
ENDCHAR
STARTCHAR ch-354
ENCODING 354
SWIDTH 1000 0
DWIDTH 24 0
BBX 24 24 0 -3
BITMAP
0180c0
012088
09349c
0964b0
1b0d80
128940
066330
242210
280406
7fffff
600006
c00064
cffff0
000060
007060
006060
006360
0fffe0
006060
006062
006062
006063
00607f
00603e
ENDCHAR
STARTCHAR ch-356
ENCODING 356
SWIDTH 1000 0
DWIDTH 24 0
BBX 24 24 0 -3
BITMAP
0e0e38
0c0c30
0c0c32
0c7fff
0c0c30
0d0c30
2dcc30
2d8ff0
2d0c30
6e0c30
6c0c30
cc0ff0
cc0180
0c0186
0cffff
0c0380
1a07c0
1905a0
198db0
119998
30319f
20618e
418186
800180
ENDCHAR
STARTCHAR ch-357
ENCODING 357
SWIDTH 1000 0
DWIDTH 24 0
BBX 24 24 0 -3
BITMAP
0e0400
0c0660
0c0ff0
0c0c60
0c1840
0d308c
2dfffe
2db24c
2d324c
6e324c
6c324c
cc367c
cc343c
0c380c
0c31cc
1a318c
19318c
19ffff
118340
318620
200630
600c1f
40180e
80e006
ENDCHAR
STARTCHAR ch-358
ENCODING 358
SWIDTH 1000 0
DWIDTH 24 0
BBX 24 24 0 -3
BITMAP
001000
001c00
431806
7f9fff
633006
632006
6350c6
639fe6
7f18c6
6318c6
6318c6
6318c6
631fc6
7f18c6
63000e
60000c
00007c
000018
000000
084210
10410c
30c186
e0c187
c0c183
ENDCHAR
STARTCHAR ch-359
ENCODING 359
SWIDTH 1000 0
DWIDTH 24 0
BBX 24 24 0 -3
BITMAP
000006
41bfff
7fc306
618306
618206
618606
61840c
61887c
7f9018
61e000
61880c
618ffe
618c0c
618c0c
618c0c
7f8c0c
618ffc
000c0c
000000
084210
10410c
70c186
e0c187
c0c183
ENDCHAR
STARTCHAR ch-361
ENCODING 361
SWIDTH 1000 0
DWIDTH 24 0
BBX 24 24 0 -3
BITMAP
0e0006
0c7fff
0c0180
0c0100
0c120c
0d1ffe
0dd80c
2d980c
2d180c
6e1ffc
4c180c
cc180c
cc180c
0c1ffc
0c180c
0c180c
0a180c
19180c
199ffc
10c800
30ce18
201c06
403003
80c003
ENDCHAR
STARTCHAR ch-364
ENCODING 364
SWIDTH 1000 0
DWIDTH 24 0
BBX 24 24 0 -3
BITMAP
0e1030
0c1ff8
0c1830
0c1830
0c1830
0c9ff0
2cf830
2cd830
2d9830
6e1ff0
6c0000
cc0006
ccffff
0c1800
0c100c
0c3ffe
1a244c
194ccc
19888c
11910c
30221c
204418
4018f8
800030
ENDCHAR
STARTCHAR ch-366
ENCODING 366
SWIDTH 1000 0
DWIDTH 24 0
BBX 24 24 0 -3
BITMAP
007040
006070
0066e0
1fffc0
006180
006300
006606
ffffff
001800
007000
01ffe0
018060
078060
19ffe0
e18060
018060
018060
01ffe0
000000
084210
10410c
30c186
e0c187
c0c183
ENDCHAR
STARTCHAR ch-381
ENCODING 381
SWIDTH 1000 0
DWIDTH 24 0
BBX 24 24 0 -3
BITMAP
1c0006
19ffff
180000
18400c
187ffe
1a600c
5be00c
5b600c
5a7ffc
5c6000
d86306
d87fff
986306
187346
186b36
146b16
164306
36c30e
36c736
209be6
21f346
612306
420f1e
80060c
ENDCHAR
STARTCHAR ch-388
ENCODING 388
SWIDTH 1000 0
DWIDTH 24 0
BBX 24 24 0 -3
BITMAP
0e0200
0c0380
0c130c
0c1ffe
0c180c
0d180c
2ddffc
2d980c
2d180c
6e1ffc
6c180c
cc180c
cc180c
0c1ffc
0c180c
1a0100
1906c0
198668
119664
319606
203613
60661b
4067f8
8003f0
ENDCHAR
STARTCHAR ch-392
ENCODING 392
SWIDTH 1000 0
DWIDTH 24 0
BBX 24 24 0 -3
BITMAP
3a0c8c
33fefe
3330cc
3330cc
3330cc
33fccc
330ccc
330ccc
330cfc
330ccc
33fcc0
3330c0
2330c2
6330c2
6334c3
43feff
83007e
000000
000000
084210
10410c
30c186
e0c187
c0c183
ENDCHAR
STARTCHAR ch-394
ENCODING 394
SWIDTH 1000 0
DWIDTH 24 0
BBX 24 24 0 -3
BITMAP
080700
0e0608
0c461c
102670
fff784
783604
400606
3fe7fe
3063fc
306000
3fe708
30661c
306670
3fe784
306604
306606
31e7fe
30c3fc
000000
088410
10430c
306186
e06187
c06183
ENDCHAR
STARTCHAR ch-399
ENCODING 399
SWIDTH 1000 0
DWIDTH 24 0
BBX 24 24 0 -3
BITMAP
0000e0
001ff0
0ff800
001800
00180c
7ffffe
001800
0ffff0
0c1830
0c1830
0ffff0
0c1830
0c1830
0ffff0
001800
001818
3ffffc
001800
001806
ffffff
000000
084218
70c30e
60c306
ENDCHAR
STARTCHAR ch-404
ENCODING 404
SWIDTH 1000 0
DWIDTH 24 0
BBX 24 24 0 -3
BITMAP
0e01c0
0c2180
0c2186
0c3fff
0c6006
0d6804
2d8c48
2d9830
2d1318
6e230c
4c468c
cc0640
cc0c60
0c0830
0c101c
0c200f
0cdff6
1a1830
191830
119830
319830
219830
401ff0
801830
ENDCHAR
STARTCHAR ch-405
ENCODING 405
SWIDTH 1000 0
DWIDTH 24 0
BBX 24 24 0 -3
BITMAP
0e0000
0c000c
0c3ffe
0c0180
0c0180
0c8186
2cffff
2cc000
2d8000
6e1ffc
6c180c
cc180c
cc1ffc
0c180c
0c180c
1a1ffc
19180c
19980c
10dffc
30c800
20ce10
600c0c
401806
806006
ENDCHAR
STARTCHAR ch-415
ENCODING 415
SWIDTH 1000 0
DWIDTH 24 0
BBX 24 24 0 -3
BITMAP
0701c0
060180
063180
fff980
000198
1fcffc
104198
104198
1fc518
000318
7fe19a
00c39a
0282ca
ffe6ce
730406
430807
0f1003
060000
000000
084210
10410c
30c186
e0c187
c0c183
ENDCHAR
STARTCHAR ch-424
ENCODING 424
SWIDTH 1000 0
DWIDTH 24 0
BBX 24 24 0 -3
BITMAP
20181c
3ffc18
301818
301818
3ff81a
301bff
300018
37fa18
300198
2ffcd8
20c0d8
68d018
4ccc18
9bccf8
218030
003800
003020
043038
0c7870
3864c0
30e300
01c1f0
0f007f
f0001e
ENDCHAR
STARTCHAR ch-428
ENCODING 428
SWIDTH 1000 0
DWIDTH 24 0
BBX 24 24 0 -3
BITMAP
070100
0601c0
7fe180
060186
0603ff
fff310
06061c
060518
fff930
0c00b0
0c60e0
0ff040
1860e0
1860b8
30e11f
20c20e
47cc06
818000
000000
084210
10410c
30c186
e0c187
c0c183
ENDCHAR
STARTCHAR ch-433
ENCODING 433
SWIDTH 1000 0
DWIDTH 24 0
BBX 24 24 0 -3
BITMAP
0381c0
032180
3ff180
030180
030998
fffffc
0c8118
188918
307918
c30518
030318
3ff398
0302d9
0306d9
03e41f
ff080e
781000
400000
000000
084210
10410c
30c186
e0c187
c0c183
ENDCHAR
STARTCHAR ch-441
ENCODING 441
SWIDTH 1000 0
DWIDTH 24 0
BBX 24 24 0 -3
BITMAP
001c00
00180c
7ffffe
001800
001830
1ffff8
000000
07ffe0
060060
060060
07ffe0
010080
008106
ffffff
000000
07ffe0
060060
060060
07ffe0
000000
104208
204106
e0c183
c0c183
ENDCHAR
STARTCHAR ch-446
ENCODING 446
SWIDTH 1000 0
DWIDTH 24 0
BBX 24 24 0 -3
BITMAP
1c1c70
181860
181868
18ffe6
180263
1a4363
5ba260
5b2260
5a0466
5cffff
d80060
d80060
d87e64
184267
184266
18422c
187e2c
344238
324212
33423a
237e6a
6300ce
400307
800c03
ENDCHAR
STARTCHAR ch-451
ENCODING 451
SWIDTH 1000 0
DWIDTH 24 0
BBX 24 24 0 -3
BITMAP
1c4070
187060
186068
186664
1a7f66
1b4666
5ac660
5cb666
5897ff
598c60
d96c60
da28d0
d818d0
181098
18318c
18210f
14420e
328c06
330000
334488
204444
608c66
438c63
830c63
ENDCHAR
STARTCHAR ch-456
ENCODING 456
SWIDTH 1000 0
DWIDTH 24 0
BBX 24 24 0 -3
BITMAP
0e0308
0cff0c
0c0698
0c06a2
0c4c43
0d2c46
2db828
2d9030
2d2fdc
6e400f
6c8006
cd3ff8
cc3018
0c3018
0c3018
1a3ff8
190000
199040
118870
318c60
200c40
600086
41ffff
800000
ENDCHAR
STARTCHAR ch-457
ENCODING 457
SWIDTH 1000 0
DWIDTH 24 0
BBX 24 24 0 -3
BITMAP
1c1c40
181870
181860
18ff60
180060
1a0066
5b7e7f
5b42c8
5a42ce
5c7e8c
d8010c
d8064c
d8ff4c
180628
180428
181838
141810
16fe10
327838
335828
23186c
60184f
407886
803106
ENDCHAR
STARTCHAR ch-462
ENCODING 462
SWIDTH 1000 0
DWIDTH 24 0
BBX 24 24 0 -3
BITMAP
0e01c0
0c0180
0c0186
0c7fff
0c0344
0c4246
2d3628
2d9430
2d8818
6d1ffc
6e281f
cc4816
cc0ff0
0c0810
0c0810
1a0ff0
190180
199190
119d88
31998c
203186
602186
404780
800300
ENDCHAR
STARTCHAR ch-464
ENCODING 464
SWIDTH 1000 0
DWIDTH 24 0
BBX 24 24 0 -3
BITMAP
0e21c8
0c118e
0c198c
0c1988
0c8192
0cffff
2cc7a0
2d8d90
2e0998
6c118f
6c2186
ccc180
cc2018
0c3c1a
0c67ff
0c4498
1ab498
1b1c98
19889a
119bff
319018
202018
404018
818018
ENDCHAR
STARTCHAR ch-466
ENCODING 466
SWIDTH 1000 0
DWIDTH 24 0
BBX 24 24 0 -3
BITMAP
0e01c0
0c0188
0c3ffc
0c0180
0d0184
0dfffe
2d8000
2d1818
2e1010
6cfefe
6c1010
cc1010
cc1c12
0cf1ff
0c4000
1a0000
197ffe
198c60
118c60
318c62
201862
601863
40307f
80c03e
ENDCHAR
STARTCHAR ch-468
ENCODING 468
SWIDTH 1000 0
DWIDTH 24 0
BBX 24 24 0 -3
BITMAP
0e0038
0c01fc
0c3f90
0c1198
0c0990
0c89a0
2cc186
2cffff
2d87a0
6e0d90
6c0d98
cc198c
cc318f
0cc186
0c0000
1a1ffc
19188c
19188c
119ffc
31988c
21988c
60188c
401ffc
80180c
ENDCHAR
STARTCHAR ch-469
ENCODING 469
SWIDTH 1000 0
DWIDTH 24 0
BBX 24 24 0 -3
BITMAP
00e380
00c300
00c306
ffffff
00c300
00c300
00ff00
070070
060064
067e67
fe666e
066670
066660
0e6662
f66662
667e63
46007f
06003e
000000
088410
10820c
30c306
e0c187
c0c183
ENDCHAR
STARTCHAR ch-471
ENCODING 471
SWIDTH 1000 0
DWIDTH 24 0
BBX 24 24 0 -3
BITMAP
1c4646
187f7f
186246
186246
187e7e
1a6246
5be246
5b6246
5a7e7e
5c6006
d86006
d867e6
d86426
186426
186426
1467e6
126426
126426
336426
2367e6
236006
606006
40603e
80600c
ENDCHAR
STARTCHAR ch-479
ENCODING 479
SWIDTH 1000 0
DWIDTH 24 0
BBX 24 24 0 -3
BITMAP
0180c0
052488
0574bc
0d0d80
0a8940
026230
142410
100006
3fffff
300006
6200c4
63ffe8
0300c0
0300c0
03ffc0
0330c0
002000
084030
0ffff8
0c0030
0c0030
0c0030
0ffff0
0c0030
ENDCHAR
STARTCHAR ch-480
ENCODING 480
SWIDTH 1000 0
DWIDTH 24 0
BBX 24 24 0 -3
BITMAP
0e0200
0c0380
0c2306
0c3fff
0c3006
0d3086
2df496
2db2a6
2d3086
6e37f6
6c3086
cc31c6
cc32b6
0c3496
0c3086
1a3006
193186
19ffff
118340
318620
200630
600c1c
40180f
806006
ENDCHAR
STARTCHAR ch-485
ENCODING 485
SWIDTH 1000 0
DWIDTH 24 0
BBX 24 24 0 -3
BITMAP
0e0830
0c0ff8
0c0c30
0c0c30
0c8c30
2ccff0
2d8000
2d0000
2e3e7c
6c2244
6c2244
cc2244
cc3e7c
0c0180
0c0186
0cffff
1a0380
1907c0
1985a0
118db0
30199c
20618f
418186
800180
ENDCHAR
STARTCHAR ch-486
ENCODING 486
SWIDTH 1000 0
DWIDTH 24 0
BBX 24 24 0 -3
BITMAP
1c0e00
180c86
180fff
180c06
1a2c46
1b3f2c
5b6318
5a461c
5cac36
591863
d83183
d86008
9991ce
18198c
181990
180186
18ffff
3407a0
320d90
330d98
23198c
60318f
40c186
800180
ENDCHAR
STARTCHAR ch-487
ENCODING 487
SWIDTH 1000 0
DWIDTH 24 0
BBX 24 24 0 -3
BITMAP
0e0208
0c410e
0c218c
0c3188
0c3012
0d37ff
2dc060
2d80c0
2d0080
6e0142
6c3663
ccf0e6
cc30b4
0c3138
0c3674
1a3076
1930b3
193133
11b630
31b0f0
203060
61e800
40c7ff
8081fe
ENDCHAR
STARTCHAR ch-492
ENCODING 492
SWIDTH 1000 0
DWIDTH 24 0
BBX 24 24 0 -3
BITMAP
1c304c
18e47e
189e4c
18844c
18844c
1adc4c
5b844c
5a84cf
5a8487
5c8500
d8fc00
d83006
d831ff
183046
19fe46
18304c
34302c
323028
333038
233010
203638
61f86f
40e08e
808306
ENDCHAR
STARTCHAR ch-493
ENCODING 493
SWIDTH 1000 0
DWIDTH 24 0
BBX 24 24 0 -3
BITMAP
0e200c
0c3ffe
0c324c
0c324c
0d324c
0db24c
2dbffc
2d0600
2e0600
6c0c06
6c1fff
cc3206
cc6206
0dbfe6
0c2226
0c2226
0a3fe6
190206
198286
118266
307fa6
203c0c
40207c
800018
ENDCHAR
STARTCHAR ch-494
ENCODING 494
SWIDTH 1000 0
DWIDTH 24 0
BBX 24 24 0 -3
BITMAP
0e0038
0c3c30
0c0032
0d7e33
2d80b6
2d3cb4
6e01b8
cc3d30
cc0030
1a7e68
1b4264
334246
207e83
400103
800060
1ffff0
0201c0
018380
00ee00
003800
006f00
01c3f0
0e00ff
f0001e
ENDCHAR
STARTCHAR ch-501
ENCODING 501
SWIDTH 1000 0
DWIDTH 24 0
BBX 24 24 0 -3
BITMAP
0e0070
0c4060
0c2060
0c37fe
0c3060
0c8060
2ccfff
2d8108
2e008c
6c0088
6c3010
cdfbfe
cc3060
0c3060
0c33fe
1a3060
193060
1937ff
11b060
31b060
203060
61e800
40c7ff
8081fe
ENDCHAR
STARTCHAR ch-505
ENCODING 505
SWIDTH 1000 0
DWIDTH 24 0
BBX 24 24 0 -3
BITMAP
006006
fff7ff
060060
0c40c4
186186
34c34c
c68c68
0b00b0
33c338
c56c56
096093
310313
cf0cf0
060060
001c00
001810
02181c
063c38
1c3660
187300
00e1c0
0380f8
0e003f
f0000e
ENDCHAR
STARTCHAR ch-507
ENCODING 507
SWIDTH 1000 0
DWIDTH 24 0
BBX 24 24 0 -3
BITMAP
0e0018
0c01fc
0c3f80
0c0180
0c018c
0d7ffe
2d8180
2d9ff8
2d1188
6e1188
6c1ff8
cc1188
cc1188
0c1ff8
0c0180
1c0188
1a3ffc
190180
118182
31ffff
218000
60124c
407666
806666
ENDCHAR
STARTCHAR ch-508
ENCODING 508
SWIDTH 1000 0
DWIDTH 24 0
BBX 24 24 0 -3
BITMAP
0e01c0
0c018c
0c3ffe
0c018c
0d018c
0dffff
2d818c
2d018c
2e3ffc
6c0180
6c0180
ccffff
cc0000
0c244c
0c6666
1a6666
1a0000
1b3ffc
13324c
33324c
20324c
60324c
40ffff
800000
ENDCHAR
STARTCHAR ch-511
ENCODING 511
SWIDTH 1000 0
DWIDTH 24 0
BBX 24 24 0 -3
BITMAP
0e0306
0c3f7f
0c0306
0c0306
0d3f7e
0d8306
2d8306
2d0306
2e3f7e
6c0306
6c0840
cc0e70
cc0c64
0c1ffe
0c1840
1a3844
195ffe
199840
119844
319ffe
201840
601842
401fff
801800
ENDCHAR
ENDFONT
