STARTFONT 2.1
FONT jis.jis7e00.24
SIZE 24 72 72
FONTBOUNDINGBOX 24 24 0 -3
STARTPROPERTIES 4
FONT_DESCENT 3
FONT_ASCENT 21
DEFAULT_CHAR 1
COPYRIGHT "Copyright (c) 1992 AT&T - All rights reserved."
ENDPROPERTIES
CHARS 131
STARTCHAR ch-1
ENCODING 1
SWIDTH 1000 0
DWIDTH 24 0
BBX 24 24 0 -3
BITMAP
080030
0e1ff8
0c0030
080030
920ff0
638030
330030
360032
0c7fff
090380
108704
ffcd87
7cd986
4c23cc
0c06d0
4d0ce0
7cb1e0
6cc3d0
6cc6d8
4c0ccf
4c30ce
8cc0c6
0c07c0
0c0180
ENDCHAR
STARTCHAR ch-4
ENCODING 4
SWIDTH 1000 0
DWIDTH 24 0
BBX 24 24 0 -3
BITMAP
081008
0e1ffc
0c1108
081108
921ff8
639108
331108
361108
041ff8
0a0100
112104
ffbffe
7da104
4c2104
0c2104
4c3ffc
7e2104
6d2104
6da104
4dbffc
4c2102
8c0103
0c01ff
0c00fe
ENDCHAR
STARTCHAR ch-5
ENCODING 5
SWIDTH 1000 0
DWIDTH 24 0
BBX 24 24 0 -3
BITMAP
080074
0e0066
0c0066
080060
904066
647fff
376060
366060
0c6060
0a7fe4
116467
ff6466
7d6466
4c7fec
0e652c
4d6938
7d6910
6d6f3a
6c422a
4c456a
4cd94e
8c8086
0c8107
0d0603
ENDCHAR
STARTCHAR ch-9
ENCODING 9
SWIDTH 1000 0
DWIDTH 24 0
BBX 24 24 0 -3
BITMAP
080000
0e000c
0c3ffe
080810
920c18
638810
330810
361224
0c1122
0a7ffe
113162
ff8000
7cffff
4c8000
0c0000
4e1ffc
7d180c
6d980c
6d9ffc
4d980c
4c180c
8c180c
0c1ffc
0c180c
ENDCHAR
STARTCHAR ch-10
ENCODING 10
SWIDTH 1000 0
DWIDTH 24 0
BBX 24 24 0 -3
BITMAP
080010
0e201c
0c1838
080c30
920c20
63804c
337ffe
360820
0c0e20
0a0c10
110c18
ff980c
7d900f
4c2006
0c5ff8
4e1248
7d1248
6d9248
6d9248
4c1248
4c1248
8c124a
0cffff
0c0000
ENDCHAR
STARTCHAR ch-11
ENCODING 11
SWIDTH 1000 0
DWIDTH 24 0
BBX 24 24 0 -3
BITMAP
080040
0e4070
0c2264
0833fe
90330c
64330c
37030c
36030c
0c03fc
0a0300
113300
fffb0c
7cb3fe
4c330c
0c330c
4e330c
7d330c
6db3fc
6db30c
4c3000
4c3000
8defff
0cc3fe
0c8000
ENDCHAR
STARTCHAR ch-18
ENCODING 18
SWIDTH 1000 0
DWIDTH 24 0
BBX 24 24 0 -3
BITMAP
081010
0e0c1c
0c0618
080620
923ffe
638180
330180
360198
0c1ffc
090180
108180
ffc186
7cffff
4cc300
0c0300
4d0600
7c840c
6ccffe
6cd8c0
4c30c0
4c60c0
8c00c0
0c00c6
0c3fff
ENDCHAR
STARTCHAR ch-27
ENCODING 27
SWIDTH 1000 0
DWIDTH 24 0
BBX 24 24 0 -3
BITMAP
0801d0
0e0198
0c018a
087fff
920180
638180
331ffc
361184
041184
091ffc
109184
ffd184
7cdffc
4c0000
0c0038
4c0032
7e7fff
6d8830
6cc430
4cc630
4c0630
8c0030
0c01f0
0c0060
ENDCHAR
STARTCHAR ch-30
ENCODING 30
SWIDTH 1000 0
DWIDTH 24 0
BBX 24 24 0 -3
BITMAP
0800e0
0e00c0
0c00c6
083fff
920000
638000
3307f8
360618
040618
0907f8
108000
ffd006
7cdfff
4cd806
0c1806
4c19e6
7e1926
6d9926
6cd926
4cd9e6
4c1806
8c1806
0c181e
0c180c
ENDCHAR
STARTCHAR ch-31
ENCODING 31
SWIDTH 1000 0
DWIDTH 24 0
BBX 24 24 0 -3
BITMAP
081006
0e1fff
0c1800
081804
921bfe
639800
331802
361fff
0c1922
091926
119914
ff9118
7cb1cc
4c270f
0c4206
4d0018
7c8018
6cffff
6cc818
4cc618
4c0318
8c0318
0c0078
0c0030
ENDCHAR
STARTCHAR ch-33
ENCODING 33
SWIDTH 1000 0
DWIDTH 24 0
BBX 24 24 0 -3
BITMAP
0801c0
0e1180
0c1186
083fff
906006
6461c4
370180
363ffc
0c0820
090438
108630
ffc620
7cc046
4cffff
0c0180
4c0180
7d018c
6cbffe
6cc180
4cc180
4c0180
8c0180
0c0180
0c0180
ENDCHAR
STARTCHAR ch-34
ENCODING 34
SWIDTH 1000 0
DWIDTH 24 0
BBX 24 24 0 -3
BITMAP
2321c8
3f998c
331988
330190
333ffc
330340
330222
3f7fff
330430
33091c
33118f
332b06
334440
3f06e0
330188
330204
337ffe
333f86
330180
231190
631d88
43198c
4f3186
864186
ENDCHAR
STARTCHAR ch-35
ENCODING 35
SWIDTH 1000 0
DWIDTH 24 0
BBX 24 24 0 -3
BITMAP
084038
0fe1fc
684f80
6840e0
6fc0c0
684080
684920
6fc638
684330
684360
6840c8
6fc104
600ffe
6067c6
7ff4c6
0600c0
2684d0
3e47c8
3666cc
666cc6
4608c6
8610c6
0600c0
0600c0
ENDCHAR
STARTCHAR ch-38
ENCODING 38
SWIDTH 1000 0
DWIDTH 24 0
BBX 24 24 0 -3
BITMAP
081004
0e1d07
0c1886
083084
9020cc
6440c8
371008
361c12
0c1bff
0a1830
113030
ffb030
7cb3b0
4c7336
0cb33f
4c3330
7e3330
6d3330
6db330
4db330
4c32b0
8c3270
0c323f
0c340e
ENDCHAR
STARTCHAR ch-43
ENCODING 43
SWIDTH 1000 0
DWIDTH 24 0
BBX 24 24 0 -3
BITMAP
100200
1c8318
1843fc
106218
a46630
4705e0
660878
6c108e
080107
140663
221bfc
ff0060
7b3060
48fbfc
083060
4c3060
7a37ff
6b3060
6b3060
483060
486800
89c7ff
08c1fe
088000
ENDCHAR
STARTCHAR ch-46
ENCODING 46
SWIDTH 1000 0
DWIDTH 24 0
BBX 24 24 0 -3
BITMAP
0801c0
0e2180
0c2186
087fff
90c00c
64d010
371c02
361bff
0c1860
0a1060
113246
ffb3ff
7cb306
4c7306
0c7306
4cb306
7e33fe
6d3306
6db306
4cb306
4c3306
8c33fe
0c3306
0c3306
ENDCHAR
STARTCHAR ch-49
ENCODING 49
SWIDTH 1000 0
DWIDTH 24 0
BBX 24 24 0 -3
BITMAP
081108
0e1dce
0c198c
08198c
9031d8
642154
374332
360223
0c1443
0a1800
111838
ffb030
7cb3b0
4c7336
0cb33f
4c3330
7e3330
6d3330
6db330
4db330
4c32b0
8c3270
0c323f
0c340e
ENDCHAR
STARTCHAR ch-50
ENCODING 50
SWIDTH 1000 0
DWIDTH 24 0
BBX 24 24 0 -3
BITMAP
08100c
0e1ffe
0c188c
08188c
921ffc
63988c
33188c
36188c
0c1ffc
090100
1081a0
ffc930
7cc660
4cc248
0c0084
4c3ffe
7d1f86
6c8180
6cc990
4ccd88
4cd98c
8c1186
0c2186
0c0180
ENDCHAR
STARTCHAR ch-53
ENCODING 53
SWIDTH 1000 0
DWIDTH 24 0
BBX 24 24 0 -3
BITMAP
08080c
0e0ffe
0c0c0c
080c0c
920ffc
638c0c
330c0c
360ffc
0c0000
091ffe
109926
ffd926
7cd926
4cdffe
0c0000
4c000c
7d1ffe
6c840c
6cc218
4cc130
4cc0e0
8c01b8
0c061f
0c3806
ENDCHAR
STARTCHAR ch-55
ENCODING 55
SWIDTH 1000 0
DWIDTH 24 0
BBX 24 24 0 -3
BITMAP
0800e0
0e00c0
0c0ffc
0808c4
9208c4
63bfff
3308c4
3608c4
0c0ffc
0900c0
109ffe
ffd0c2
7cd0c2
4cdffe
0c0300
4c0306
7d3fff
6c8618
6cc618
4ccfb0
4ccc60
8c00d8
0c030e
0c1c06
ENDCHAR
STARTCHAR ch-57
ENCODING 57
SWIDTH 1000 0
DWIDTH 24 0
BBX 24 24 0 -3
BITMAP
080006
0e3fff
0c0120
080120
921126
639fff
331926
361926
0c1926
091ffe
109806
ffc000
7ccffc
4cc000
0c0006
4c3fff
7d00c0
6c88c0
6ccec8
4cccc4
4cc8c6
8c10c6
0c23c6
0c0180
ENDCHAR
STARTCHAR ch-58
ENCODING 58
SWIDTH 1000 0
DWIDTH 24 0
BBX 24 24 0 -3
BITMAP
080070
0e4066
0c27ff
083060
901860
641bfc
370264
360264
0c0264
0a03fc
111a64
fffa64
7d9a64
4c1bfc
0c1860
4e1866
7d1fff
6d9860
6d9860
4c1860
4c1800
8cf7ff
0c61fe
0c4000
ENDCHAR
STARTCHAR ch-59
ENCODING 59
SWIDTH 1000 0
DWIDTH 24 0
BBX 24 24 0 -3
BITMAP
001c00
001800
201806
3fffff
300000
306030
304824
37fdfe
30c070
31f8e8
3159ac
324227
340802
300c80
3199c0
30e310
30640c
37fffe
33fe06
208600
60e660
41c61c
83060e
0c0606
ENDCHAR
STARTCHAR ch-61
ENCODING 61
SWIDTH 1000 0
DWIDTH 24 0
BBX 24 24 0 -3
BITMAP
080400
0e0700
0c260c
183ffe
92310c
63b1ec
33352c
36326c
04354c
0a308c
11314c
ffb26c
7db42c
4c300c
0c3ffc
4e300c
7d0100
6d8688
6d96c6
4c16d3
4c3613
8c6618
0c67f8
0c03f0
ENDCHAR
STARTCHAR ch-62
ENCODING 62
SWIDTH 1000 0
DWIDTH 24 0
BBX 24 24 0 -3
BITMAP
0801c0
0e0184
0c3ffe
080180
920188
639ffc
330180
360182
047fff
090000
108ff8
ffcc18
7ccc18
4ccff8
0c0c18
4c0c18
7e0ff8
6d8c18
6ccc18
4ccff8
4c0400
8c0e38
0c180e
0c6006
ENDCHAR
STARTCHAR ch-65
ENCODING 65
SWIDTH 1000 0
DWIDTH 24 0
BBX 24 24 0 -3
BITMAP
100100
1c01c0
183180
3ff906
6003ff
9fe218
122518
122110
fff8b0
244060
2441b8
3ff61f
01a006
003a00
043390
03430c
018406
ffffff
7ff803
421800
0398c0
071838
0c180e
701806
ENDCHAR
STARTCHAR ch-67
ENCODING 67
SWIDTH 1000 0
DWIDTH 24 0
BBX 24 24 0 -3
BITMAP
0801c0
0e3987
0c3186
083186
903186
643ffe
370000
360000
0c3e3e
0a2222
112222
ffa222
7cbe3e
4c2222
0c2222
4e2222
7d3e3e
6da222
6da222
4c2222
4c2222
8c6262
0c4e4e
0c8484
ENDCHAR
STARTCHAR ch-70
ENCODING 70
SWIDTH 1000 0
DWIDTH 24 0
BBX 24 24 0 -3
BITMAP
080204
0e7ffe
0c2244
083264
921224
63820c
330614
361a74
047224
092184
108180
ffc340
7cc630
4c0c9f
0c19ce
4c6326
7d0670
6c98e4
6cc18e
4cc61c
4c1838
8c00e0
0c0380
0c1c00
ENDCHAR
STARTCHAR ch-74
ENCODING 74
SWIDTH 1000 0
DWIDTH 24 0
BBX 24 24 0 -3
BITMAP
081c70
0e1860
0c1868
081a66
90ff63
641863
371860
361866
0cffff
0a1460
111464
ff9467
7d9566
4c55a6
0c55a4
4e552c
7d5628
6d5438
6d1492
4c173a
4dfc6a
8cf0ce
0c8187
0c0603
ENDCHAR
STARTCHAR ch-75
ENCODING 75
SWIDTH 1000 0
DWIDTH 24 0
BBX 24 24 0 -3
BITMAP
020230
0203f8
fffb30
020330
3fe33f
22261f
3fe800
2227fc
22210c
3fe118
0200b0
fff860
0241b8
02761f
006206
048380
030710
018c0c
7ffff6
3ff806
2218c0
079838
0e181c
70180c
ENDCHAR
STARTCHAR ch-77
ENCODING 77
SWIDTH 1000 0
DWIDTH 24 0
BBX 24 24 0 -3
BITMAP
0800c0
0e0084
0c1ffe
080084
920084
63bfff
330084
360084
041ffc
0a0080
113887
ffb496
7db6b6
4c32a6
0c3086
4e3ffe
7d3186
6db1c6
6db2a6
4c22b6
4c2496
8c6896
0c4086
0c8006
ENDCHAR
STARTCHAR ch-84
ENCODING 84
SWIDTH 1000 0
DWIDTH 24 0
BBX 24 24 0 -3
BITMAP
081c70
0e1860
0c1968
08ffe4
920266
634366
332660
362460
040866
0affff
110060
ffa264
7dbf67
4c2266
0c222c
4e2228
7d3e38
6da212
6da23a
4da22a
4c3e6e
8c20c6
0c0187
0c0603
ENDCHAR
STARTCHAR ch-85
ENCODING 85
SWIDTH 1000 0
DWIDTH 24 0
BBX 24 24 0 -3
BITMAP
081020
0e0c38
0c0630
080644
923ffe
638180
330188
361ffc
040180
0a0184
113ffe
ff9198
7d8990
4c0da2
0cffff
4c0000
7e1018
6d9ffc
6cd818
4cd818
4c1818
8c1818
0c1ff8
0c1818
ENDCHAR
STARTCHAR ch-86
ENCODING 86
SWIDTH 1000 0
DWIDTH 24 0
BBX 24 24 0 -3
BITMAP
083640
0e2470
0c2460
08ff60
902460
642466
37247f
36ff48
0c004e
0800cc
127eac
ff432c
7d422c
4c7e28
0c4238
4e4218
7d4210
6d7e10
6d4238
4c4228
4c422c
8c426f
0c4e46
0c4686
ENDCHAR
STARTCHAR ch-89
ENCODING 89
SWIDTH 1000 0
DWIDTH 24 0
BBX 24 24 0 -3
BITMAP
080030
0e01f8
0c1f80
080188
92218c
639988
330992
367fff
0c07a0
0a0590
110d98
ff898c
7c918f
4c2186
0c4000
4c1ffc
7d188c
6c988c
6cdffc
4cd88c
4cd88c
8c188c
0c1ffc
0c180c
ENDCHAR
STARTCHAR ch-90
ENCODING 90
SWIDTH 1000 0
DWIDTH 24 0
BBX 24 24 0 -3
BITMAP
080380
0e0300
0c0306
087fff
900640
644644
372426
362c28
0c0810
0a1ff8
11181c
ffa817
7ccff2
4c0810
0c0810
4e0ff0
7d0180
6d9190
6d9d88
4d998c
4c3186
8c2186
0c4f86
0c0300
ENDCHAR
STARTCHAR ch-93
ENCODING 93
SWIDTH 1000 0
DWIDTH 24 0
BBX 24 24 0 -3
BITMAP
084246
0e7f7f
0c6246
086246
907e7e
646246
376246
367e7e
0c6006
086006
126426
ff67f6
7d6426
4c6426
0c67e6
4e6426
7d6426
6d6426
6d67e6
4c6426
4c6006
8c6006
0c603e
0c600c
ENDCHAR
STARTCHAR ch-94
ENCODING 94
SWIDTH 1000 0
DWIDTH 24 0
BBX 24 24 0 -3
BITMAP
0801c0
0e0188
0c1ffc
080180
920184
63bffe
330000
360c18
0c0810
0a3f7e
110810
ff8810
7c8e12
4c78ff
0c2000
4c0000
7d3ffe
6c8660
6cc660
4cc662
4c0c62
8c0c63
0c187f
0c603e
ENDCHAR
STARTCHAR ch-102
ENCODING 102
SWIDTH 1000 0
DWIDTH 24 0
BBX 24 24 0 -3
BITMAP
080880
0efce0
0c08c0
0808cc
900886
644bff
3779f3
364930
0c4030
084132
1241ff
ff4932
7d7d32
4c4932
0c0932
4e09fe
7d0932
6d8830
6d8830
4c0832
4c1832
8c1bff
0cf9e3
0c3103
ENDCHAR
STARTCHAR ch-103
ENCODING 103
SWIDTH 1000 0
DWIDTH 24 0
BBX 24 24 0 -3
BITMAP
08000c
0e3ffe
0c0180
082186
903fff
646186
376184
361db8
0c0180
0a0180
113dbc
ff8180
7c8000
4c0030
0c1ff8
4e0000
7d0006
6dffff
6d8600
4c0420
4c0818
8c7fec
0c3e06
0c2006
ENDCHAR
STARTCHAR ch-105
ENCODING 105
SWIDTH 1000 0
DWIDTH 24 0
BBX 24 24 0 -3
BITMAP
082004
0e3ffe
0c2244
082244
902244
643e7c
372244
360240
0c0240
0a3e7c
112244
ffa244
7ca244
4c3e7c
0c2244
4e2244
7d2244
6da244
6dbe7c
4c2242
4c2202
8c0203
0c03ff
0c01fe
ENDCHAR
STARTCHAR ch-106
ENCODING 106
SWIDTH 1000 0
DWIDTH 24 0
BBX 24 24 0 -3
BITMAP
080180
0e0180
0c0340
080620
920c18
639bef
336006
360000
0c1ffc
091084
109494
ffd2a4
7cd084
4cdffc
0c0000
4c0818
7d0ffc
6c8c18
6ccc18
4ccff8
4ccc18
8c0c18
0c0ff8
0c0c18
ENDCHAR
STARTCHAR ch-109
ENCODING 109
SWIDTH 1000 0
DWIDTH 24 0
BBX 24 24 0 -3
BITMAP
00e380
00c306
ffffff
00c300
00c300
400006
7fffff
621006
631086
629086
6cd7f6
649496
611496
625496
7fd496
6e57f6
621086
6210a6
6a9096
6a57f6
6a5316
725206
62103e
60000c
ENDCHAR
STARTCHAR ch-112
ENCODING 112
SWIDTH 1000 0
DWIDTH 24 0
BBX 24 24 0 -3
BITMAP
080830
0e0ff8
0c0c30
080c30
920c30
638ff0
330000
360000
043e7c
0a2244
112244
ffa244
7dbe7c
4c0180
0c0186
4effff
7d07a0
6d85a0
6d8d90
4c0d98
4c198f
8c318e
0cc186
0c0180
ENDCHAR
STARTCHAR ch-121
ENCODING 121
SWIDTH 1000 0
DWIDTH 24 0
BBX 24 24 0 -3
BITMAP
081006
0e1fff
0c1926
081926
921926
639ffe
3300c0
3600c4
0c1ffe
0900c0
1080c2
ffffff
7cc408
4cc208
0c0212
4c3fff
7d00c0
6c80c0
6cc0c4
4cdffe
4cc0c0
8c00c0
0c00c0
0c00c0
ENDCHAR
STARTCHAR ch-123
ENCODING 123
SWIDTH 1000 0
DWIDTH 24 0
BBX 24 24 0 -3
BITMAP
08000c
0e3ffe
0c0180
082186
903fff
646186
376184
361db8
0c0180
0a3dbc
110180
ff8006
7cffff
4c0180
0c2106
4e3fff
7d3246
6db246
6db246
4c3246
4c3246
8c3246
0c325e
0c300c
ENDCHAR
STARTCHAR ch-124
ENCODING 124
SWIDTH 1000 0
DWIDTH 24 0
BBX 24 24 0 -3
BITMAP
087104
0e6186
0c6a28
086410
906514
646208
376492
366fff
0c6451
086000
127fff
ff6000
7d6104
4c6186
0c6a28
4e6410
7d6514
6d6208
6d6492
4c6fff
4c6451
8c6000
0c7fff
0c6000
ENDCHAR
STARTCHAR ch-125
ENCODING 125
SWIDTH 1000 0
DWIDTH 24 0
BBX 24 24 0 -3
BITMAP
0821c0
0e2186
0c7fff
08c006
90dff4
640900
371d4c
3661e6
0c0706
0a7800
111ff8
ff9818
7c9818
4c1ff8
0c1818
4e1818
7d1ff8
6d9818
6d9818
4c1ff8
4c0800
8c0e38
0c1c0e
0c6006
ENDCHAR
STARTCHAR ch-127
ENCODING 127
SWIDTH 1000 0
DWIDTH 24 0
BBX 24 24 0 -3
BITMAP
084020
0e7fb8
0c6430
086430
907f26
64617f
376140
366180
0c7f00
0a6406
11647f
ff6400
7d7f80
4c6000
0c0000
4e3ffc
7d324c
6db24c
6db24c
4c324c
4c324c
8c324c
0cffff
0c0000
ENDCHAR
STARTCHAR ch-130
ENCODING 130
SWIDTH 1000 0
DWIDTH 24 0
BBX 24 24 0 -3
BITMAP
080200
0c630c
1ff7fe
190c40
319060
67fff0
840010
07fff0
040010
07fff0
040010
07fff0
00c006
ffffff
032080
063460
0d6638
308c9f
c0d066
1fffb0
0c1830
0399c0
07183c
78180c
ENDCHAR
STARTCHAR ch-131
ENCODING 131
SWIDTH 1000 0
DWIDTH 24 0
BBX 24 24 0 -3
BITMAP
0801c0
0e0180
0c0186
087fff
900240
640166
377d5c
361494
0c1494
0a3496
11249a
ffccb3
7c8082
4c180c
0c180c
4e1ffc
7d180c
6d980c
6d9ffc
4c180c
4c100c
8c300c
0c200c
0c400c
ENDCHAR
STARTCHAR ch-136
ENCODING 136
SWIDTH 1000 0
DWIDTH 24 0
BBX 24 24 0 -3
BITMAP
083806
0e33ff
0c3030
083030
91fe20
643126
3731ff
363186
0c3186
08fd86
1201fe
ff0186
7d0186
4c7986
0c49fe
4e4986
7d4986
6d4986
6d49fe
4c4800
4c7888
8c00e6
0c01c3
0c0703
ENDCHAR
STARTCHAR ch-137
ENCODING 137
SWIDTH 1000 0
DWIDTH 24 0
BBX 24 24 0 -3
BITMAP
080618
0e0410
0c1f7e
080410
920410
63bfff
330a28
361b24
0c1147
092002
108ffc
ffcc0c
7ccc0c
4ccffc
0c0c0c
4c0c0c
7d0ffc
6c8c0c
6ccc0c
4ccffc
4cc200
8c0738
0c0c0e
0c3006
ENDCHAR
STARTCHAR ch-140
ENCODING 140
SWIDTH 1000 0
DWIDTH 24 0
BBX 24 24 0 -3
BITMAP
0800e0
0e00c6
0c3fff
0800c0
921ffe
638000
331ffe
361322
0c1e3e
091002
109ffe
ffc000
7cc804
4c0ffe
0c0804
4d0ffc
7c8804
6ccffc
6cc804
4ccffc
4c0400
8c0738
0c0e0e
0c3006
ENDCHAR
STARTCHAR ch-142
ENCODING 142
SWIDTH 1000 0
DWIDTH 24 0
BBX 24 24 0 -3
BITMAP
081c70
0e1860
0c1868
081b66
90ffe3
641863
371860
361866
0dffff
081460
121464
ff7767
7d1466
4c1426
0c7724
4e142c
7d1428
6d7738
6d1412
4c143a
4cff6a
8c78ce
0c4187
0c0603
ENDCHAR
STARTCHAR ch-143
ENCODING 143
SWIDTH 1000 0
DWIDTH 24 0
BBX 24 24 0 -3
BITMAP
0801c0
0e2186
0c3fff
082000
9227fc
63a444
332444
3627fc
042444
0a2444
1127fc
ffa040
7da7fc
4c2040
0e3fff
4d2110
7da210
6dac4e
6c6040
4c4ffe
4c4040
8c8040
0c1fff
0c0000
ENDCHAR
STARTCHAR ch-144
ENCODING 144
SWIDTH 1000 0
DWIDTH 24 0
BBX 24 24 0 -3
BITMAP
081c06
0e19ff
0c1830
081830
90ff20
6400a6
3748ff
3664c6
0c46c6
0886c6
1200fe
ff08c6
7d4cc6
4c28c6
0c38fe
4e10c6
7d18c6
6d14c6
6d34fe
4c2600
4c664c
8c4066
0c80c3
0c0303
ENDCHAR
STARTCHAR ch-146
ENCODING 146
SWIDTH 1000 0
DWIDTH 24 0
BBX 24 24 0 -3
BITMAP
084006
0e7fff
0c6000
0867fc
906444
646444
3767fc
366444
0c6444
0867fc
126040
ff67fc
7d6040
4c7fff
0c6408
4e6526
7d6922
6d4000
6c40c0
4ccffc
4c80c0
8d00c0
0c3fff
0c0000
ENDCHAR
STARTCHAR ch-147
ENCODING 147
SWIDTH 1000 0
DWIDTH 24 0
BBX 24 24 0 -3
BITMAP
082244
0e3f7e
0c2244
082244
903e7c
642244
372244
363e7c
0c2244
0a2244
113e7c
ff9428
7cb264
4c62c4
0c0000
4e0606
7d7fff
6d8c30
6d9830
4c3f60
4c31c0
8c0378
0c0c1e
0c7006
ENDCHAR
STARTCHAR ch-148
ENCODING 148
SWIDTH 1000 0
DWIDTH 24 0
BBX 24 24 0 -3
BITMAP
080400
0e0630
0c07f8
080c20
921040
63bffc
331004
361004
0c1ffc
0a0840
110f78
ff8842
7dbf43
4c187f
0c0000
4c1ff8
7d1108
6c9108
6cdff8
4cc090
4c048a
8c0e83
0c18ff
0c607e
ENDCHAR
STARTCHAR ch-150
ENCODING 150
SWIDTH 1000 0
DWIDTH 24 0
BBX 24 24 0 -3
BITMAP
082270
0e3360
0c2268
086666
905563
605563
368960
360066
0cffff
081460
121464
ff7767
7d1466
4c1426
0c7724
4e142c
7d1428
6d7738
6d1412
4c143a
4cff6a
8c78ce
0c4187
0c0603
ENDCHAR
STARTCHAR ch-155
ENCODING 155
SWIDTH 1000 0
DWIDTH 24 0
BBX 24 24 0 -3
BITMAP
001800
1ffff8
001800
0ffff0
001800
ffffff
000000
07fff0
041010
ffffff
081020
0ffffc
0001c0
0fe01c
4827fe
4fe090
482318
4fe130
482044
7ffffe
130662
1b616c
333366
433466
ENDCHAR
STARTCHAR ch-156
ENCODING 156
SWIDTH 1000 0
DWIDTH 24 0
BBX 24 24 0 -3
BITMAP
084620
0e7f38
0c4830
084826
907e7f
644240
374280
367e0c
0c487e
0a4800
117f00
ff8000
7d9ff8
4c1008
0c1ff8
4e1008
7d1ff8
6d9008
6d9ff8
4c0662
4c0662
8c0c63
0c187f
0c603e
ENDCHAR
STARTCHAR ch-310
ENCODING 310
SWIDTH 1000 0
DWIDTH 24 0
BBX 24 24 0 -3
BITMAP
040000
070000
060000
060030
0ffff8
0c1800
181800
301800
401800
001800
001806
ffffff
001800
001800
1c181c
181818
181818
181818
181818
181818
181818
1ffff8
180018
180018
ENDCHAR
STARTCHAR ch-312
ENCODING 312
SWIDTH 1000 0
DWIDTH 24 0
BBX 24 24 0 -3
BITMAP
200000
38000c
300ffe
3060c0
3ff0c0
6600c0
4600c0
8600c0
0600c0
0630c0
fff8c0
0600c0
0600c0
0600c0
7670c0
6660c0
6660c0
6660c0
6660c0
6660c0
7fe0c0
6060c6
601fff
000000
ENDCHAR
STARTCHAR ch-314
ENCODING 314
SWIDTH 1000 0
DWIDTH 24 0
BBX 24 24 0 -3
BITMAP
2001c0
380180
300180
30c180
3fe180
66018c
460ffe
86018c
06018c
06618c
fff18c
06018c
06018c
061fff
7661a0
6661a0
666120
666310
666310
7fe218
60661c
60040f
00080e
003006
ENDCHAR
STARTCHAR ch-325
ENCODING 325
SWIDTH 1000 0
DWIDTH 24 0
BBX 24 24 0 -3
BITMAP
2001c0
38018c
3001fe
210180
7fa182
483fff
883006
083104
08b1e0
ffff08
08310c
0831fc
083000
49307c
4937e0
493066
493264
492168
7f2fff
416060
404060
004060
0083e0
0000c0
ENDCHAR
STARTCHAR ch-332
ENCODING 332
SWIDTH 1000 0
DWIDTH 24 0
BBX 24 24 0 -3
BITMAP
20c20c
3fe3fe
30c30c
30c30c
3fc3fc
30c30c
30c30c
3fc3fc
30c30c
30c30c
3fc3fc
100080
18e1cc
326306
630406
87fff0
041800
081806
ffffff
001800
1c181c
181818
1ffff8
180018
ENDCHAR
STARTCHAR ch-333
ENCODING 333
SWIDTH 1000 0
DWIDTH 24 0
BBX 24 24 0 -3
BITMAP
000000
07fff0
040810
07fff0
040810
07fff0
000000
7fe7fe
442442
7fe7fe
442442
7fe7fe
040000
060030
0ffff8
081800
101806
ffffff
001800
1c181c
181818
181818
1ffff8
180018
ENDCHAR
STARTCHAR ch-334
ENCODING 334
SWIDTH 1000 0
DWIDTH 24 0
BBX 24 24 0 -3
BITMAP
200000
380ff8
300808
310ff8
3f8808
680ff8
480000
881ffc
080080
089082
ffdfff
083082
0836b4
490080
490eb8
490000
491ffc
490000
497fff
7f0610
410408
403ffc
001f06
001006
ENDCHAR
STARTCHAR ch-336
ENCODING 336
SWIDTH 1000 0
DWIDTH 24 0
BBX 24 24 0 -3
BITMAP
200e38
380c32
307fff
310c30
3f8c30
683e7c
482244
882244
083e7c
088820
ffce70
080c44
081ffe
491840
493848
495ffc
491840
491848
491ffc
7f1840
411840
401842
001fff
001800
ENDCHAR
STARTCHAR ch-337
ENCODING 337
SWIDTH 1000 0
DWIDTH 24 0
BBX 24 24 0 -3
BITMAP
400006
7fffff
60c186
60c186
60c186
60c186
60c186
64c986
62c586
61c386
60c186
60c1c6
60e366
61b376
61b336
610206
630606
620406
640c06
680806
601006
602006
60003e
60000c
ENDCHAR
STARTCHAR ch-340
ENCODING 340
SWIDTH 1000 0
DWIDTH 24 0
BBX 24 24 0 -3
BITMAP
400006
7fffff
600106
6101c6
60c186
606306
606206
6004c6
67ffe6
601806
601806
6018c6
67ffe6
60c006
60c006
60c006
60c006
60c006
60ffc6
607fc6
600006
600006
60003e
60000c
ENDCHAR
STARTCHAR ch-341
ENCODING 341
SWIDTH 1000 0
DWIDTH 24 0
BBX 24 24 0 -3
BITMAP
100000
100006
1fffff
300306
308306
60e304
61c308
038300
0703ff
1c01ff
e00000
000060
0ffff0
001800
001800
001806
ffffff
001800
001800
001800
001800
001800
001800
001800
ENDCHAR
STARTCHAR ch-344
ENCODING 344
SWIDTH 1000 0
DWIDTH 24 0
BBX 24 24 0 -3
BITMAP
20000c
3ffffe
30c30c
30c30c
30c30c
30c30c
3ffffc
30000c
000000
000006
ffffff
000800
000e00
001c00
001800
003980
007860
00d838
03981c
0e180e
701806
001800
001800
001800
ENDCHAR
STARTCHAR ch-351
ENCODING 351
SWIDTH 1000 0
DWIDTH 24 0
BBX 24 24 0 -3
BITMAP
20000c
3ffffe
30c30c
30c30c
30c30c
30c30c
3ffffc
30000c
001c00
001800
001806
ffffff
001800
001800
001800
081830
0ffff8
0c0030
0c0030
0c0030
0c0030
0c0030
0ffff0
0c0030
ENDCHAR
STARTCHAR ch-352
ENCODING 352
SWIDTH 1000 0
DWIDTH 24 0
BBX 24 24 0 -3
BITMAP
20000c
3ffffe
30c30c
30c30c
30c30c
3ffffc
000000
100018
1ffffc
180018
180018
180018
1ffff8
181800
18180c
1ffffe
180c00
180600
180702
180382
1879c2
ffc0f3
7c003f
60000e
ENDCHAR
STARTCHAR ch-359
ENCODING 359
SWIDTH 1000 0
DWIDTH 24 0
BBX 24 24 0 -3
BITMAP
20000c
3ffffe
30c30c
30c30c
30c30c
30c30c
3ffffc
30000c
0700e0
0600c0
0600c0
06c0c6
ffefff
0e01e0
0f01e0
1ec3d0
1662d8
3666cc
2604cf
4608c6
8610c6
0600c0
0600c0
0600c0
ENDCHAR
STARTCHAR ch-360
ENCODING 360
SWIDTH 1000 0
DWIDTH 24 0
BBX 24 24 0 -3
BITMAP
20000c
3ffffe
30c30c
30c30c
30c30c
3ffffc
30200c
003800
007006
ffffff
00c200
019900
0318c0
07fff0
0e187f
36186e
c7ffe0
061860
061860
07ffe4
061804
001806
001ffe
000ffc
ENDCHAR
STARTCHAR ch-361
ENCODING 361
SWIDTH 1000 0
DWIDTH 24 0
BBX 24 24 0 -3
BITMAP
20000c
3ffffe
30c30c
30c30c
30c30c
3ffffc
301c00
001818
001ffc
001800
081830
0ffff8
0c0030
0c0030
0ffff0
0c0030
0c0030
0ffff0
0c1830
001806
ffffff
001800
001800
001800
ENDCHAR
STARTCHAR ch-362
ENCODING 362
SWIDTH 1000 0
DWIDTH 24 0
BBX 24 24 0 -3
BITMAP
20000c
3ffffe
30c30c
30c30c
30c30c
30c30c
3ffffc
30000c
00e380
00c30c
7fc3fe
00c300
00c300
3fc30c
00c3fe
00c300
03c300
fcc306
70c3ff
418300
018300
030300
060300
380300
ENDCHAR
STARTCHAR ch-363
ENCODING 363
SWIDTH 1000 0
DWIDTH 24 0
BBX 24 24 0 -3
BITMAP
20000c
3ffffe
30c30c
30c30c
30c30c
30c30c
3ffffc
30000c
01c070
018860
3ffc60
018060
018260
ffff70
00006c
01c066
018463
7ffe63
018060
018060
019e60
ffe060
7c0060
400060
ENDCHAR
STARTCHAR ch-366
ENCODING 366
SWIDTH 1000 0
DWIDTH 24 0
BBX 24 24 0 -3
BITMAP
20000c
3ffffe
30c30c
30c30c
3ffffc
001800
001806
ffffff
001800
011860
01fff0
018060
398060
31ffe0
318060
318060
31ffe0
318060
318060
31ffe0
300000
300006
3fffff
300000
ENDCHAR
STARTCHAR ch-368
ENCODING 368
SWIDTH 1000 0
DWIDTH 24 0
BBX 24 24 0 -3
BITMAP
20000c
3ffffe
30c30c
30c30c
30c30c
3ffffc
000000
000000
3fe00e
0001cc
fff98c
00018c
00018c
3fe18c
00018c
3fe18c
00018c
20618c
3ff18c
30600c
30600c
30600c
3fe07c
306018
ENDCHAR
STARTCHAR ch-370
ENCODING 370
SWIDTH 1000 0
DWIDTH 24 0
BBX 24 24 0 -3
BITMAP
20000c
3ffffe
30c30c
30c30c
30c30c
3ffffc
300020
007038
006270
3fffe0
006180
006606
ffffff
003000
00c030
07fff8
1e0030
e60030
07fff0
060030
060030
060030
07fff0
060030
ENDCHAR
STARTCHAR ch-373
ENCODING 373
SWIDTH 1000 0
DWIDTH 24 0
BBX 24 24 0 -3
BITMAP
20000c
3ffffe
30c30c
30c30c
30c30c
3ffffc
000000
080010
0ffff8
0c1800
0c1820
0ffff0
0c1800
0c1820
0ffff0
0c1800
0c180c
0ffffe
20000c
22230c
63319c
c33198
c11078
000030
ENDCHAR
STARTCHAR ch-375
ENCODING 375
SWIDTH 1000 0
DWIDTH 24 0
BBX 24 24 0 -3
BITMAP
20000c
3ffffe
30c30c
30c30c
30c30c
3ffffc
080000
0e0380
0c4310
083338
ffdbc2
781b02
400303
3fe3ff
3061fe
306000
3fe380
306310
306338
3fe3c2
306302
306303
31e3ff
30c1fe
ENDCHAR
STARTCHAR ch-376
ENCODING 376
SWIDTH 1000 0
DWIDTH 24 0
BBX 24 24 0 -3
BITMAP
20000c
3ffffe
30c30c
30c30c
30c30c
3ffffc
000000
018038
3fc030
000030
fff036
000fff
3fc030
000030
000430
3fc230
000330
20c330
3fe030
30c030
30c030
30c030
3fc1f0
30c060
ENDCHAR
STARTCHAR ch-377
ENCODING 377
SWIDTH 1000 0
DWIDTH 24 0
BBX 24 24 0 -3
BITMAP
20000c
3ffffe
30c30c
30c30c
30c30c
3ffffc
000800
0e0e40
0c0c60
0c1884
0c1ffe
2e3080
2d7080
6db088
6dbffc
cc3080
cc3080
0c3088
0c3ffc
0c3080
0c3080
0c3082
0c3fff
0c3000
ENDCHAR
STARTCHAR ch-386
ENCODING 386
SWIDTH 1000 0
DWIDTH 24 0
BBX 24 24 0 -3
BITMAP
20000c
3ffffe
30c30c
30c30c
30c30c
3ffffc
000000
040000
0e0ffe
980c06
610c06
338ffe
370000
0c0ffe
108c06
ffcc06
7ccffe
0c0c06
4e0c06
7d8ffe
6ccc06
4ccc06
8c0c3e
0c0c0c
ENDCHAR
STARTCHAR ch-387
ENCODING 387
SWIDTH 1000 0
DWIDTH 24 0
BBX 24 24 0 -3
BITMAP
20000c
3ffffe
30c30c
30c30c
3ffffc
000000
018186
ffffff
018180
07ffe0
040020
07ffe0
040020
07ffe0
004006
ffffff
0180c0
061830
1fffff
e61836
061830
0619f0
061860
001800
ENDCHAR
STARTCHAR ch-389
ENCODING 389
SWIDTH 1000 0
DWIDTH 24 0
BBX 24 24 0 -3
BITMAP
20000c
3ffffe
30c30c
30c30c
30c30c
3ffffc
080200
0c0320
490630
31c444
1b8ffe
1a1c40
04ac40
084c44
ffeffe
7e6c40
460c40
270c44
3ecffe
366c40
666c40
460c42
860fff
060c00
ENDCHAR
STARTCHAR ch-390
ENCODING 390
SWIDTH 1000 0
DWIDTH 24 0
BBX 24 24 0 -3
BITMAP
20000c
3ffffe
30c30c
30c30c
3ffffc
080000
0c8388
18633c
fff3c0
703304
000306
3fe1fe
202000
3fe388
20233c
3fe3c0
202304
21e306
2061fe
000000
104218
204106
e0c187
c0c183
ENDCHAR
STARTCHAR ch-391
ENCODING 391
SWIDTH 1000 0
DWIDTH 24 0
BBX 24 24 0 -3
BITMAP
20000c
3ffffe
30c30c
30c30c
30c30c
3ffffc
000000
1100e0
1100c4
ffeffe
1100c0
1100a0
1f0118
04020a
7fdfff
44400c
4447cc
7fc44c
04044c
04044c
ffe7cc
04000c
04007c
040018
ENDCHAR
STARTCHAR ch-392
ENCODING 392
SWIDTH 1000 0
DWIDTH 24 0
BBX 24 24 0 -3
BITMAP
20000c
3ffffe
30c30c
30c30c
30c30c
3ffffc
000000
110804
110ffe
ffec40
110c48
110ffc
1f0c40
040c48
7fcffc
444c40
444c46
7fcfff
040006
040ab6
fffa96
04328c
04303c
040018
ENDCHAR
STARTCHAR ch-394
ENCODING 394
SWIDTH 1000 0
DWIDTH 24 0
BBX 24 24 0 -3
BITMAP
020100
0181c0
00c180
00c100
00020c
7ffffe
001800
001800
001800
001830
1ffff8
001800
001800
001800
001800
001806
ffffff
001800
001800
001800
001800
001800
001800
001800
ENDCHAR
STARTCHAR ch-396
ENCODING 396
SWIDTH 1000 0
DWIDTH 24 0
BBX 24 24 0 -3
BITMAP
020100
0181c0
00c180
00c218
3ffffc
001800
001800
001860
0ffff0
001800
001800
001806
ffffff
00c300
00c300
00c300
00c300
018300
018302
030302
060302
0c0303
3003ff
c001fe
ENDCHAR
STARTCHAR ch-398
ENCODING 398
SWIDTH 1000 0
DWIDTH 24 0
BBX 24 24 0 -3
BITMAP
020100
0181c0
00c180
00c218
3ffffc
001800
001800
001830
1ffff8
001800
001800
001818
3ffffc
000000
003800
003006
ffffff
003400
006200
00c180
0180e0
07007f
1c003e
e0000e
ENDCHAR
STARTCHAR ch-404
ENCODING 404
SWIDTH 1000 0
DWIDTH 24 0
BBX 24 24 0 -3
BITMAP
040080
0300e0
0180c0
018080
000118
3ffffc
001800
001800
001800
001860
0ffff0
001800
001800
001800
001806
ffffff
000000
000000
000000
084210
10410c
30c106
e0c187
c0c183
ENDCHAR
STARTCHAR ch-410
ENCODING 410
SWIDTH 1000 0
DWIDTH 24 0
BBX 24 24 0 -3
BITMAP
010180
41c180
218340
330340
320220
04c630
ffe418
0c081c
0c10cf
0ca7e6
7fc000
0c0000
0c000c
0cdffe
0f030c
fc030c
7c030c
4c030c
0c030c
08037c
180318
100300
200300
400300
ENDCHAR
STARTCHAR ch-413
ENCODING 413
SWIDTH 1000 0
DWIDTH 24 0
BBX 24 24 0 -3
BITMAP
010008
41c03c
2190f0
331fc0
3218c0
04d8c0
fff8c0
0c18c0
0c18c0
0c98c6
7fdfff
0c1860
0c1860
0cd860
0f1860
fc1830
7c1830
4c1f32
0cfc1a
08701a
18400e
10018e
207fc7
400003
ENDCHAR
STARTCHAR ch-414
ENCODING 414
SWIDTH 1000 0
DWIDTH 24 0
BBX 24 24 0 -3
BITMAP
020100
0181c0
00c180
00c218
3ffffc
001800
001800
0ffff0
001800
001800
001806
ffffff
030000
030060
06fff0
061860
0c1860
081864
13fffe
201860
c01860
001866
1fffff
000000
ENDCHAR
STARTCHAR ch-419
ENCODING 419
SWIDTH 1000 0
DWIDTH 24 0
BBX 24 24 0 -3
BITMAP
000020
0ffff0
002026
ffffff
004020
004020
0fffe0
018000
03fff8
06c018
0cc018
30fff8
c20080
0180c0
008100
3ffffc
001800
1ffff8
001800
001800
ffffff
001800
001800
001800
ENDCHAR
STARTCHAR ch-420
ENCODING 420
SWIDTH 1000 0
DWIDTH 24 0
BBX 24 24 0 -3
BITMAP
006408
7ff30e
0c618c
0c6188
0c6812
ffffff
0c6060
0c6060
0c6060
7fe064
0c67fe
0c0060
0c0060
186060
1ff060
1c6062
3c6fff
2c6060
4c6060
8c6060
0c6060
0fe060
0c6060
0c0060
ENDCHAR
STARTCHAR ch-424
ENCODING 424
SWIDTH 1000 0
DWIDTH 24 0
BBX 24 24 0 -3
BITMAP
010200
008380
00c318
3ffffc
001800
001800
0ffff0
001800
001806
ffffff
001000
101c00
0c180c
443ffe
302618
124620
048d00
090d00
181880
f018c0
303070
30603f
38c01e
1b0006
ENDCHAR
STARTCHAR ch-425
ENCODING 425
SWIDTH 1000 0
DWIDTH 24 0
BBX 24 24 0 -3
BITMAP
010180
00c1c0
00c20c
7ffffe
001800
001800
1ffff8
001800
001806
ffffff
000000
0063a0
03f318
3d8318
018306
ffffff
018318
01f19c
ff81b0
7980c2
4181e2
01873a
1f981f
070007
ENDCHAR
STARTCHAR ch-430
ENCODING 430
SWIDTH 1000 0
DWIDTH 24 0
BBX 24 24 0 -3
BITMAP
010180
00c1c0
00c20c
7ffffe
001800
1ffff8
001800
001806
ffffff
084210
10c30c
70c306
600006
0ffff0
001800
1ffff8
001800
001806
ffffff
003400
006300
01c1e0
07007e
78001c
ENDCHAR
STARTCHAR ch-431
ENCODING 431
SWIDTH 1000 0
DWIDTH 24 0
BBX 24 24 0 -3
BITMAP
01080c
41cffe
218c0c
330c0c
320ffc
04cc0c
ffec0c
0c0c0c
0c0ffc
0c8300
7fc300
0c0606
0c07ff
0ccc06
0f0e46
fc1ce6
7c2d86
4c4e06
0c0c46
080c66
180fec
1007cc
20003c
400018
ENDCHAR
STARTCHAR ch-434
ENCODING 434
SWIDTH 1000 0
DWIDTH 24 0
BBX 24 24 0 -3
BITMAP
010180
00c1c0
00c20c
7ffffe
001800
1ffff8
001800
001806
ffffff
00c020
03e398
3f0308
030306
ffffff
0f4300
1b3990
33199c
dfe0b8
0800e0
1ff042
3060e2
00e3ba
07cc1f
018007
ENDCHAR
STARTCHAR ch-438
ENCODING 438
SWIDTH 1000 0
DWIDTH 24 0
BBX 24 24 0 -3
BITMAP
0201c0
438186
237fff
320000
321ffc
049004
ffd3e4
0c1224
0c1224
0d13e4
7f9004
0c1ffc
0c0000
0d8ff8
0e0c18
fc0c18
7c0ff8
4c0c18
0c0c18
080ff8
180c18
100002
207fff
400000
ENDCHAR
STARTCHAR ch-440
ENCODING 440
SWIDTH 1000 0
DWIDTH 24 0
BBX 24 24 0 -3
BITMAP
001c00
001806
ffffff
180000
180000
1ffff8
000000
0ffff0
0c0030
0c0030
0ffff0
000000
3e85f8
224918
22fd18
3e3118
223198
22fd58
3e315a
22311a
22fd1a
62331a
4e321f
86340f
ENDCHAR
STARTCHAR ch-441
ENCODING 441
SWIDTH 1000 0
DWIDTH 24 0
BBX 24 24 0 -3
BITMAP
010180
00c1c0
00c20c
7ffffe
001800
1ffff8
001800
ffffff
088410
10c60c
724286
6181c6
008100
3ffffc
001800
1ffff8
001800
ffffff
001800
3ffffc
003400
00e380
0380fe
7c003c
ENDCHAR
STARTCHAR ch-445
ENCODING 445
SWIDTH 1000 0
DWIDTH 24 0
BBX 24 24 0 -3
BITMAP
000000
006006
fff7ff
006006
006006
406406
306306
186186
0c60c6
0c60c6
006006
006006
00e00e
016016
066066
0c60c6
386386
f06f06
606606
406406
006006
006006
03e03e
00c00c
ENDCHAR
STARTCHAR ch-449
ENCODING 449
SWIDTH 1000 0
DWIDTH 24 0
BBX 24 24 0 -3
BITMAP
020080
038080
030040
072060
063838
0c301f
18610e
2040c6
c08760
0ff830
078030
040000
00600c
fff7fe
10620c
0c618c
0c618c
00e01c
0760ec
7c6f8c
38670c
20640c
07e0fc
01c038
ENDCHAR
STARTCHAR ch-453
ENCODING 453
SWIDTH 1000 0
DWIDTH 24 0
BBX 24 24 0 -3
BITMAP
0e0306
0c3fff
0c0306
0c0306
0da346
ffd326
0c1b36
0c1b36
0c0306
0d8306
ffc70e
218b16
21bb76
119326
131326
1b0306
0a0306
0e0306
041f3e
0f060c
09c000
10ffff
203ffe
c00000
ENDCHAR
STARTCHAR ch-454
ENCODING 454
SWIDTH 1000 0
DWIDTH 24 0
BBX 24 24 0 -3
BITMAP
00c00c
7fe7fe
10c20c
0cc18c
04c08c
01c03c
0ec7cc
78c30c
30300c
003180
1fffc0
006184
00e184
01c186
0701fe
781cfc
001800
001806
ffffff
001800
001800
001800
001800
001800
ENDCHAR
STARTCHAR ch-458
ENCODING 458
SWIDTH 1000 0
DWIDTH 24 0
BBX 24 24 0 -3
BITMAP
000000
1c0306
187fff
180306
180306
1b2346
ff9326
001326
001b36
041b36
870306
460306
460306
66070e
660b16
641b36
0473e6
043366
072346
fc0306
700306
400306
001f3e
00060c
ENDCHAR
STARTCHAR ch-460
ENCODING 460
SWIDTH 1000 0
DWIDTH 24 0
BBX 24 24 0 -3
BITMAP
00600c
7ff7fe
00600c
20640c
1c638c
0c618c
00e03c
076fcc
7c670c
30640c
200000
001c00
001800
001818
3ffffc
000100
0201c0
010180
018180
00c300
00c200
000406
ffffff
000000
ENDCHAR
STARTCHAR ch-466
ENCODING 466
SWIDTH 1000 0
DWIDTH 24 0
BBX 24 24 0 -3
BITMAP
006006
fff7ff
006006
206206
1c61c6
0c60c6
006016
016066
0667c6
7c6306
300206
202000
003800
083030
0ffff8
0c0030
0c0030
0c0030
0ffff0
0c0030
0c0030
0c0030
0ffff0
0c0030
ENDCHAR
STARTCHAR ch-468
ENCODING 468
SWIDTH 1000 0
DWIDTH 24 0
BBX 24 24 0 -3
BITMAP
010000
41c306
21bfff
330306
320306
042346
ffd326
0c1326
0c1b36
0c1b36
7f8306
0c0306
0c0306
0d870e
0e0b16
fc1b36
7c73e6
4c3366
0c2346
180306
180306
100306
201f3e
40060c
ENDCHAR
STARTCHAR ch-469
ENCODING 469
SWIDTH 1000 0
DWIDTH 24 0
BBX 24 24 0 -3
BITMAP
001800
003800
007400
00e200
01c180
037ee0
060078
18001f
e3ffc6
0300c0
0300c0
03ffc0
000000
006018
7ffffc
106418
0c6318
046118
01e038
0e61d8
786f18
206418
03e0f8
00c030
ENDCHAR
STARTCHAR ch-480
ENCODING 480
SWIDTH 1000 0
DWIDTH 24 0
BBX 24 24 0 -3
BITMAP
00600c
fffffe
20640c
1c638c
0c618c
00e01c
07606c
7c67cc
30630c
201a00
001818
3ffffc
0300c0
060180
050140
08c230
305c10
001806
ffffff
001800
001800
001800
001800
001800
ENDCHAR
STARTCHAR ch-481
ENCODING 481
SWIDTH 1000 0
DWIDTH 24 0
BBX 24 24 0 -3
BITMAP
00e380
00c30c
7fc3fe
00c300
00c308
3fc3fc
00c300
00c300
ff8306
7983ff
430300
060300
180300
006018
7ffffc
106418
0c6318
046118
01e038
0e61d8
786f18
206418
03e0f8
00c030
ENDCHAR
STARTCHAR ch-486
ENCODING 486
SWIDTH 1000 0
DWIDTH 24 0
BBX 24 24 0 -3
BITMAP
020180
0181c0
018206
ffffff
000000
1fe39c
102318
1fe318
102318
1fe318
102018
11e0f8
106030
000000
7fe7fc
10620c
0c618c
04608c
01e03c
0e61cc
786f0c
20640c
03e07c
00c018
ENDCHAR
STARTCHAR ch-489
ENCODING 489
SWIDTH 1000 0
DWIDTH 24 0
BBX 24 24 0 -3
BITMAP
006000
fff186
000fff
000186
7fe186
606186
6069a6
606db6
7fe596
600596
600186
7fe186
552186
55238e
552596
553df6
5fe9a6
552186
552186
552186
952186
152186
10e79e
10630c
ENDCHAR
STARTCHAR ch-491
ENCODING 491
SWIDTH 1000 0
DWIDTH 24 0
BBX 24 24 0 -3
BITMAP
0c1800
fffc0c
0c1bfe
8d1800
6cd800
2c5800
0c1800
3c7800
edd806
4c9fff
0c1998
020198
038198
233198
3ff998
303198
303198
303198
3ff198
30311a
30311a
30331b
3ff21f
300c0e
ENDCHAR
STARTCHAR ch-496
ENCODING 496
SWIDTH 1000 0
DWIDTH 24 0
BBX 24 24 0 -3
BITMAP
0e0180
0c0180
0cc340
ffe320
0c0638
4d8c1f
7f980e
61e006
618000
61bf7e
7f8306
61a346
619326
619b36
7f9b36
6d8306
0c070e
0ccb16
fffbf6
0c3366
0c2346
0c0306
0c1f3e
0c060c
ENDCHAR
STARTCHAR ch-499
ENCODING 499
SWIDTH 1000 0
DWIDTH 24 0
BBX 24 24 0 -3
BITMAP
403218
7ffbfc
600318
640318
67e21f
69020f
610400
7ff3fc
628118
6460b0
682060
7ff998
60060f
000006
7fe7fc
10620c
0c618c
04608c
01e03c
0e61cc
786f0c
20640c
03e07c
00c018
ENDCHAR
STARTCHAR ch-505
ENCODING 505
SWIDTH 1000 0
DWIDTH 24 0
BBX 24 24 0 -3
BITMAP
0e0000
0c0306
7fbfff
0c0306
0c0306
ffd326
001b36
211b36
210306
f7c306
21070e
210b16
313b76
e7d326
400306
000306
ffc306
331f3e
33060c
330000
230002
630003
43ffff
81fffe
ENDCHAR
STARTCHAR ch-507
ENCODING 507
SWIDTH 1000 0
DWIDTH 24 0
BBX 24 24 0 -3
BITMAP
018106
07dfff
7c0106
048106
44c106
349146
150926
ffed36
0c0d36
1f0106
14c106
246106
44630e
800516
3f8d36
24b9e6
249146
248106
3f8106
248106
248106
248106
3f9f3e
20860c
ENDCHAR
STARTCHAR ch-508
ENCODING 508
SWIDTH 1000 0
DWIDTH 24 0
BBX 24 24 0 -3
BITMAP
006006
fff7ff
106106
0c60c6
01e01e
7e67e6
306306
000000
0ffff0
0c1830
0c1830
0ffff0
0c1830
0c1830
0ffff0
00c300
3ffffc
00c300
00c306
ffffff
018000
03c0e0
0e001e
700006
ENDCHAR
ENDFONT
