STARTFONT 2.1
FONT jis.jis8e00.16
SIZE 16 72 72
FONTBOUNDINGBOX 16 16 0 -2
STARTPROPERTIES 4
FONT_DESCENT 2
FONT_ASCENT 14
DEFAULT_CHAR 8
COPYRIGHT "Copyright (c) 1992 AT&T - All rights reserved."
ENDPROPERTIES
CHARS 146
STARTCHAR ch-8
ENCODING 8
SWIDTH 1000 0
DWIDTH 16 0
BBX 16 16 0 -2
BITMAP
0010
7c10
45ff
4410
44fe
4492
7c92
1092
50fe
5c54
5054
5054
50d6
5c92
7193
c010
ENDCHAR
STARTCHAR ch-9
ENCODING 9
SWIDTH 1000 0
DWIDTH 16 0
BBX 16 16 0 -2
BITMAP
0020
7c20
45fc
4504
4504
45fc
7d04
1104
51fd
5d13
5116
5118
5108
5d0c
71e6
c303
ENDCHAR
STARTCHAR ch-10
ENCODING 10
SWIDTH 1000 0
DWIDTH 16 0
BBX 16 16 0 -2
BITMAP
0000
7dfe
4404
4468
4410
7dff
1111
5111
51ff
5d11
5111
51ff
5111
5d11
7111
c113
ENDCHAR
STARTCHAR ch-15
ENCODING 15
SWIDTH 1000 0
DWIDTH 16 0
BBX 16 16 0 -2
BITMAP
0010
7c12
45d6
4458
445c
44d6
7d93
1030
5000
5cfe
5082
5082
50fe
5c82
7082
c0fe
ENDCHAR
STARTCHAR ch-16
ENCODING 16
SWIDTH 1000 0
DWIDTH 16 0
BBX 16 16 0 -2
BITMAP
0048
7c44
447e
45e0
4436
4418
7c6d
1187
5048
5c44
507e
53e0
5036
5c18
706d
c387
ENDCHAR
STARTCHAR ch-29
ENCODING 29
SWIDTH 1000 0
DWIDTH 16 0
BBX 16 16 0 -2
BITMAP
0000
7cfe
4492
4492
44fe
4492
7c92
10fe
5010
5dff
5054
5054
50d6
5c92
7193
c010
ENDCHAR
STARTCHAR ch-30
ENCODING 30
SWIDTH 1000 0
DWIDTH 16 0
BBX 16 16 0 -2
BITMAP
0000
7cfe
4482
4482
44fe
4488
7c88
10ff
5088
5c88
50be
50a2
51a2
5d22
7322
c03e
ENDCHAR
STARTCHAR ch-31
ENCODING 31
SWIDTH 1000 0
DWIDTH 16 0
BBX 16 16 0 -2
BITMAP
0100
7900
4900
4bef
4a89
4889
7889
13e9
5089
5c89
5089
51c9
5149
5d6f
7330
c600
ENDCHAR
STARTCHAR ch-42
ENCODING 42
SWIDTH 1000 0
DWIDTH 16 0
BBX 16 16 0 -2
BITMAP
0010
7c10
45ff
4501
4501
44fe
7c00
1000
51ff
5c10
5054
5054
50d6
5c92
7193
c030
ENDCHAR
STARTCHAR ch-48
ENCODING 48
SWIDTH 1000 0
DWIDTH 16 0
BBX 16 16 0 -2
BITMAP
0020
7c70
44d8
458c
4777
4400
7de2
112a
512a
5dea
512a
512a
51e2
5d22
7122
c166
ENDCHAR
STARTCHAR ch-52
ENCODING 52
SWIDTH 1000 0
DWIDTH 16 0
BBX 16 16 0 -2
BITMAP
0000
7cfe
4404
4428
44fe
4492
7cfe
1092
5092
5cfe
5010
51ff
5021
5c61
70c3
c38e
ENDCHAR
STARTCHAR ch-53
ENCODING 53
SWIDTH 1000 0
DWIDTH 16 0
BBX 16 16 0 -2
BITMAP
0006
7c1c
44f0
4410
45ff
4410
7cfe
1092
50fe
5c92
50fe
5010
50fe
5c10
7010
c1ff
ENDCHAR
STARTCHAR ch-66
ENCODING 66
SWIDTH 1000 0
DWIDTH 16 0
BBX 16 16 0 -2
BITMAP
0000
7cfe
4444
4428
45ff
4452
7cd4
1190
5000
5c10
51ff
5054
5054
5cd6
7193
c010
ENDCHAR
STARTCHAR ch-68
ENCODING 68
SWIDTH 1000 0
DWIDTH 16 0
BBX 16 16 0 -2
BITMAP
0010
7c10
45ff
4444
446c
4428
7dff
1111
5111
5cfe
5092
5092
5092
5c96
7010
c010
ENDCHAR
STARTCHAR ch-71
ENCODING 71
SWIDTH 1000 0
DWIDTH 16 0
BBX 16 16 0 -2
BITMAP
0100
7ffe
4422
5ffa
0420
1ff8
0420
ffff
0810
3ffc
e817
0ff0
0480
0efc
3b80
e0ff
ENDCHAR
STARTCHAR ch-72
ENCODING 72
SWIDTH 1000 0
DWIDTH 16 0
BBX 16 16 0 -2
BITMAP
0006
7c3c
45e0
4421
4533
4596
7c84
1060
51ce
5d02
5102
51ce
5102
5d02
7102
c1fe
ENDCHAR
STARTCHAR ch-73
ENCODING 73
SWIDTH 1000 0
DWIDTH 16 0
BBX 16 16 0 -2
BITMAP
0084
7c48
45fe
4420
4420
44fc
7c20
1020
51fe
5c20
5040
50fe
5190
5c10
7010
c1ff
ENDCHAR
STARTCHAR ch-74
ENCODING 74
SWIDTH 1000 0
DWIDTH 16 0
BBX 16 16 0 -2
BITMAP
0006
7c1c
44f1
451b
458a
44a0
7c48
1090
5064
5c3e
51e3
5010
51ff
5c28
7044
c183
ENDCHAR
STARTCHAR ch-76
ENCODING 76
SWIDTH 1000 0
DWIDTH 16 0
BBX 16 16 0 -2
BITMAP
0020
7c70
44d8
458c
4777
4400
7cfc
1084
50fc
5c84
50fc
5080
51fe
5d42
7342
c07e
ENDCHAR
STARTCHAR ch-80
ENCODING 80
SWIDTH 1000 0
DWIDTH 16 0
BBX 16 16 0 -2
BITMAP
0010
7c10
45d7
4410
45bb
4428
7c6c
1044
50fe
5d45
507c
5044
507c
5c44
7044
c04c
ENDCHAR
STARTCHAR ch-85
ENCODING 85
SWIDTH 1000 0
DWIDTH 16 0
BBX 16 16 0 -2
BITMAP
0000
7dfe
4522
45fe
4522
4522
7dfe
10a4
53ff
5ca4
50a4
51fe
5020
5dfe
7020
c020
ENDCHAR
STARTCHAR ch-89
ENCODING 89
SWIDTH 1000 0
DWIDTH 16 0
BBX 16 16 0 -2
BITMAP
0048
0044
3ffe
2420
2732
2414
7f98
452d
d487
3ffa
1008
1ff8
0480
0efc
3b80
e0ff
ENDCHAR
STARTCHAR ch-95
ENCODING 95
SWIDTH 1000 0
DWIDTH 16 0
BBX 16 16 0 -2
BITMAP
0010
7dff
4410
44fe
4410
45ff
7c00
10fe
5082
5cfe
5082
50fe
5082
5cfe
7044
c183
ENDCHAR
STARTCHAR ch-96
ENCODING 96
SWIDTH 1000 0
DWIDTH 16 0
BBX 16 16 0 -2
BITMAP
0010
7c10
45ff
4500
4524
4524
7dff
1124
5124
5d24
513c
5100
5200
58aa
71ab
c101
ENDCHAR
STARTCHAR ch-99
ENCODING 99
SWIDTH 1000 0
DWIDTH 16 0
BBX 16 16 0 -2
BITMAP
0044
7c44
45ff
4444
4444
447c
7c10
11ff
5111
5ddd
5155
5155
51bb
5d11
7111
c113
ENDCHAR
STARTCHAR ch-100
ENCODING 100
SWIDTH 1000 0
DWIDTH 16 0
BBX 16 16 0 -2
BITMAP
00a2
78b6
4994
4900
4b7f
4888
7888
1188
5128
5b2e
5128
5128
5128
5928
7158
c14f
ENDCHAR
STARTCHAR ch-114
ENCODING 114
SWIDTH 1000 0
DWIDTH 16 0
BBX 16 16 0 -2
BITMAP
0082
7c44
45ff
4428
44fe
44aa
7cce
1082
50fe
5c82
50fe
5004
51ff
5c44
7024
c00c
ENDCHAR
STARTCHAR ch-116
ENCODING 116
SWIDTH 1000 0
DWIDTH 16 0
BBX 16 16 0 -2
BITMAP
010a
790b
4909
4fc8
483f
4b88
7a88
1288
129c
5b94
5114
5394
5354
5535
7925
c363
ENDCHAR
STARTCHAR ch-118
ENCODING 118
SWIDTH 1000 0
DWIDTH 16 0
BBX 16 16 0 -2
BITMAP
0000
f7ff
9400
9628
9548
97ef
f499
2495
a5a4
b5a4
a5e4
a48e
a48a
b58a
e91b
8311
ENDCHAR
STARTCHAR ch-124
ENCODING 124
SWIDTH 1000 0
DWIDTH 16 0
BBX 16 16 0 -2
BITMAP
0028
7d29
44aa
4428
45ff
4482
7c44
10fe
5010
5cfe
5010
51ff
5028
5c6c
70c6
c183
ENDCHAR
STARTCHAR ch-129
ENCODING 129
SWIDTH 1000 0
DWIDTH 16 0
BBX 16 16 0 -2
BITMAP
007c
7c44
4444
447c
4400
7def
1129
5129
5def
5010
51ff
5054
5c54
70d6
c193
0010
ENDCHAR
STARTCHAR ch-132
ENCODING 132
SWIDTH 1000 0
DWIDTH 16 0
BBX 16 16 0 -2
BITMAP
0008
3f7f
2122
3f14
207f
7f08
513e
df08
0000
1ff8
1008
1ff8
0480
0efc
3b80
e0ff
ENDCHAR
STARTCHAR ch-133
ENCODING 133
SWIDTH 1000 0
DWIDTH 16 0
BBX 16 16 0 -2
BITMAP
0000
7dfe
4552
4552
45fe
4440
7cff
11a1
50f9
5ca9
50a9
50f9
5029
5c7b
71ca
c006
ENDCHAR
STARTCHAR ch-135
ENCODING 135
SWIDTH 1000 0
DWIDTH 16 0
BBX 16 16 0 -2
BITMAP
0048
7c48
45ff
4448
4422
44fe
7c24
1028
51ff
5c10
507e
51c2
507e
5c42
7042
c07e
ENDCHAR
STARTCHAR ch-138
ENCODING 138
SWIDTH 1000 0
DWIDTH 16 0
BBX 16 16 0 -2
BITMAP
0020
7dfe
4420
44fc
4400
47ff
7c01
10fd
5020
5dfe
5000
53ff
5002
5dff
7152
c1c6
ENDCHAR
STARTCHAR ch-139
ENCODING 139
SWIDTH 1000 0
DWIDTH 16 0
BBX 16 16 0 -2
BITMAP
0010
7c10
45ff
4428
47d3
4556
7d55
1255
5000
5c82
50fe
5082
50fe
5c82
7182
c302
ENDCHAR
STARTCHAR ch-141
ENCODING 141
SWIDTH 1000 0
DWIDTH 16 0
BBX 16 16 0 -2
BITMAP
0000
7def
4421
45ef
4421
7def
1088
1110
53ff
5d10
51fe
5110
51fe
5d10
7110
c1ff
ENDCHAR
STARTCHAR ch-145
ENCODING 145
SWIDTH 1000 0
DWIDTH 16 0
BBX 16 16 0 -2
BITMAP
0410
f227
9ffd
9145
97f5
9555
f676
2416
a7f5
b415
a7f5
a085
affd
b147
e364
8634
ENDCHAR
STARTCHAR ch-147
ENCODING 147
SWIDTH 1000 0
DWIDTH 16 0
BBX 16 16 0 -2
BITMAP
0063
7dce
4508
45ef
454a
4652
7c00
10fe
5082
5cfe
5082
50fe
5082
5cfe
7044
c183
ENDCHAR
STARTCHAR ch-148
ENCODING 148
SWIDTH 1000 0
DWIDTH 16 0
BBX 16 16 0 -2
BITMAP
0010
7bff
4a00
4afe
4a92
4afe
7a92
12fe
5210
5bff
5248
538f
5210
5afe
7410
c1ff
ENDCHAR
STARTCHAR ch-153
ENCODING 153
SWIDTH 1000 0
DWIDTH 16 0
BBX 16 16 0 -2
BITMAP
0000
7bcf
4a49
4bcf
4a49
4bcf
7a01
1251
527d
5ad1
5279
5251
5279
5a51
727d
c203
ENDCHAR
STARTCHAR ch-161
ENCODING 161
SWIDTH 1000 0
DWIDTH 16 0
BBX 16 16 0 -2
BITMAP
01fe
7c48
4478
4448
4478
444e
7df8
1008
53ff
5d4a
51ce
514a
51ce
5d4a
73de
c042
ENDCHAR
STARTCHAR ch-170
ENCODING 170
SWIDTH 1000 0
DWIDTH 16 0
BBX 16 16 0 -2
BITMAP
0084
7bff
4884
4bcf
4a49
4bcf
7a49
13cf
5251
5a7d
52d1
5279
5251
5a79
7251
c27d
ENDCHAR
STARTCHAR ch-171
ENCODING 171
SWIDTH 1000 0
DWIDTH 16 0
BBX 16 16 0 -2
BITMAP
0080
0100
0ff8
0808
0808
0ff8
0808
0809
0ffb
080e
080c
7ff8
0068
01c8
0f08
7838
ENDCHAR
STARTCHAR ch-172
ENCODING 172
SWIDTH 1000 0
DWIDTH 16 0
BBX 16 16 0 -2
BITMAP
0400
08fe
3e02
2202
2202
3e7e
2240
2240
3e40
227f
2201
fe01
0a03
3202
e206
0e1c
ENDCHAR
STARTCHAR ch-175
ENCODING 175
SWIDTH 1000 0
DWIDTH 16 0
BBX 16 16 0 -2
BITMAP
0800
10ff
7e80
4280
42a2
7eb6
4294
429c
7e88
4288
429c
fe94
0ab6
12a2
2280
ceff
ENDCHAR
STARTCHAR ch-176
ENCODING 176
SWIDTH 1000 0
DWIDTH 16 0
BBX 16 16 0 -2
BITMAP
0810
1010
3c10
2410
25ff
3c54
2454
2454
3c54
24d6
2492
fd93
147c
2410
c410
0c10
ENDCHAR
STARTCHAR ch-177
ENCODING 177
SWIDTH 1000 0
DWIDTH 16 0
BBX 16 16 0 -2
BITMAP
0800
11f8
3c48
2448
244e
3cc2
2482
2596
3c10
25ff
2454
fc54
14d6
2492
c593
0c10
ENDCHAR
STARTCHAR ch-190
ENCODING 190
SWIDTH 1000 0
DWIDTH 16 0
BBX 16 16 0 -2
BITMAP
0844
1028
3cfe
2410
2410
3cfe
2410
2410
3dff
2400
2410
fdff
1428
246c
c4c6
0d83
ENDCHAR
STARTCHAR ch-197
ENCODING 197
SWIDTH 1000 0
DWIDTH 16 0
BBX 16 16 0 -2
BITMAP
1000
23ff
7a40
4a52
4a94
7abf
4ba4
4ae4
7abe
4aa4
4aa4
fabe
2aa4
4ca4
88a4
18bf
ENDCHAR
STARTCHAR ch-198
ENCODING 198
SWIDTH 1000 0
DWIDTH 16 0
BBX 16 16 0 -2
BITMAP
0828
1028
3cfe
24aa
24fe
3caa
24fe
2400
3dff
2400
24fe
fc82
14fe
2444
c428
0dff
ENDCHAR
STARTCHAR ch-200
ENCODING 200
SWIDTH 1000 0
DWIDTH 16 0
BBX 16 16 0 -2
BITMAP
1010
23ff
7a40
4ad4
4abf
7be4
4abe
4aa4
7abe
4aa4
4cbf
f810
285a
494b
8945
1a3c
ENDCHAR
STARTCHAR ch-202
ENCODING 202
SWIDTH 1000 0
DWIDTH 16 0
BBX 16 16 0 -2
BITMAP
0100
0100
7ffe
0100
1ff8
1108
1108
1ff8
1108
1108
1ff8
0100
ffff
0100
0100
0100
ENDCHAR
STARTCHAR ch-203
ENCODING 203
SWIDTH 1000 0
DWIDTH 16 0
BBX 16 16 0 -2
BITMAP
0820
0820
ffa0
0820
7f20
4920
4920
7f20
4920
4920
7f20
0820
ffa0
0821
0833
081e
ENDCHAR
STARTCHAR ch-204
ENCODING 204
SWIDTH 1000 0
DWIDTH 16 0
BBX 16 16 0 -2
BITMAP
0820
0820
ffa0
0820
7ffc
4924
4924
7f24
4924
4924
7f24
0824
ffa4
0865
0845
08c3
ENDCHAR
STARTCHAR ch-205
ENCODING 205
SWIDTH 1000 0
DWIDTH 16 0
BBX 16 16 0 -2
BITMAP
0000
7ffe
4002
4102
3ffc
0100
3ffc
2104
3ffc
2104
2104
3ffc
0100
ffff
0100
0100
ENDCHAR
STARTCHAR ch-210
ENCODING 210
SWIDTH 1000 0
DWIDTH 16 0
BBX 16 16 0 -2
BITMAP
0800
087f
ff88
0808
7f08
4908
4908
7f7f
4908
4908
7f08
0808
ff88
0808
0808
0808
ENDCHAR
STARTCHAR ch-219
ENCODING 219
SWIDTH 1000 0
DWIDTH 16 0
BBX 16 16 0 -2
BITMAP
1000
10ff
fe80
1080
7cbe
54a2
54a2
7ca2
54a2
54a2
7ca6
10a0
fea0
10a1
1133
101e
ENDCHAR
STARTCHAR ch-223
ENCODING 223
SWIDTH 1000 0
DWIDTH 16 0
BBX 16 16 0 -2
BITMAP
1040
1040
fe40
107f
fe41
92d3
9392
fe10
9210
9238
fe28
1028
fe6c
1044
10c6
1183
ENDCHAR
STARTCHAR ch-226
ENCODING 226
SWIDTH 1000 0
DWIDTH 16 0
BBX 16 16 0 -2
BITMAP
0800
083e
ff80
0800
7f00
4900
497f
7f10
4910
4910
7f10
0832
ffa2
0822
082f
0879
ENDCHAR
STARTCHAR ch-227
ENCODING 227
SWIDTH 1000 0
DWIDTH 16 0
BBX 16 16 0 -2
BITMAP
0100
7ffe
0100
1ff8
1108
1ff8
1108
1ff8
0100
ffff
0100
381c
0e70
0000
1e78
f00f
ENDCHAR
STARTCHAR ch-235
ENCODING 235
SWIDTH 1000 0
DWIDTH 16 0
BBX 16 16 0 -2
BITMAP
1010
1038
fe28
106c
7cc6
5593
5430
7c64
54cc
5418
7c31
10e3
fe06
100c
1038
10e0
ENDCHAR
STARTCHAR ch-248
ENCODING 248
SWIDTH 1000 0
DWIDTH 16 0
BBX 16 16 0 -2
BITMAP
0808
0808
ff88
0808
7f7f
4949
4949
7f49
4949
497f
7f49
0849
ffc9
0849
087f
0800
ENDCHAR
STARTCHAR ch-251
ENCODING 251
SWIDTH 1000 0
DWIDTH 16 0
BBX 16 16 0 -2
BITMAP
1000
11ff
fe04
1004
7cf4
5494
5494
7c94
5494
5494
7cf4
1004
fe04
1004
1004
101c
ENDCHAR
STARTCHAR ch-252
ENCODING 252
SWIDTH 1000 0
DWIDTH 16 0
BBX 16 16 0 -2
BITMAP
1010
1090
fe90
10fe
7d90
5510
5410
7dff
5410
5410
7c38
1028
fe6c
1044
10c6
1183
ENDCHAR
STARTCHAR ch-253
ENCODING 253
SWIDTH 1000 0
DWIDTH 16 0
BBX 16 16 0 -2
BITMAP
1000
11fe
fe42
1066
7c2c
5438
546c
7dc7
5410
5410
7cfe
1010
fe10
1010
11ff
1000
ENDCHAR
STARTCHAR ch-254
ENCODING 254
SWIDTH 1000 0
DWIDTH 16 0
BBX 16 16 0 -2
BITMAP
100a
100b
fe09
1008
7dff
5408
5408
7df8
5448
5448
7c48
104c
fe74
11c5
1007
1002
ENDCHAR
STARTCHAR ch-259
ENCODING 259
SWIDTH 1000 0
DWIDTH 16 0
BBX 16 16 0 -2
BITMAP
1010
1010
fe10
11ff
7c44
54c6
5583
7c44
546c
5428
7c38
1010
fe38
106c
10c6
1183
ENDCHAR
STARTCHAR ch-261
ENCODING 261
SWIDTH 1000 0
DWIDTH 16 0
BBX 16 16 0 -2
BITMAP
1020
1020
fe7e
10c6
7dac
5418
5430
7c6c
55c7
5400
7cfe
1082
fe82
1082
1082
10fe
ENDCHAR
STARTCHAR ch-265
ENCODING 265
SWIDTH 1000 0
DWIDTH 16 0
BBX 16 16 0 -2
BITMAP
0824
0826
7f22
0820
ffff
0820
ffa2
0832
7f16
4914
7f1c
4908
7f1d
0815
ffb7
0862
ENDCHAR
STARTCHAR ch-266
ENCODING 266
SWIDTH 1000 0
DWIDTH 16 0
BBX 16 16 0 -2
BITMAP
1000
10fe
fe20
1064
7c44
545e
54f2
7c00
5410
5410
7cfe
1010
fe10
1010
11ff
1000
ENDCHAR
STARTCHAR ch-268
ENCODING 268
SWIDTH 1000 0
DWIDTH 16 0
BBX 16 16 0 -2
BITMAP
1000
11ff
fe10
1010
7dff
5511
5511
7d55
5555
5555
7d55
1155
ff7d
1101
1101
1103
ENDCHAR
STARTCHAR ch-274
ENCODING 274
SWIDTH 1000 0
DWIDTH 16 0
BBX 16 16 0 -2
BITMAP
2000
27ff
f948
2148
f9c8
a948
a948
f948
a9c8
a948
f948
2148
f9c8
2749
2049
2047
ENDCHAR
STARTCHAR ch-275
ENCODING 275
SWIDTH 1000 0
DWIDTH 16 0
BBX 16 16 0 -2
BITMAP
1040
107c
fe44
10cc
7d88
54fe
5492
7c92
5492
54fe
7c48
1048
fec8
1089
1189
1307
ENDCHAR
STARTCHAR ch-276
ENCODING 276
SWIDTH 1000 0
DWIDTH 16 0
BBX 16 16 0 -2
BITMAP
1014
1012
feff
1010
fe10
92fe
9292
fe92
92fe
9292
fe92
10fe
fe92
1092
1092
1096
ENDCHAR
STARTCHAR ch-277
ENCODING 277
SWIDTH 1000 0
DWIDTH 16 0
BBX 16 16 0 -2
BITMAP
1000
11ff
fe00
1092
7c92
5524
5524
7c92
5492
5400
7cfe
1010
fe10
1010
11ff
1000
ENDCHAR
STARTCHAR ch-281
ENCODING 281
SWIDTH 1000 0
DWIDTH 16 0
BBX 16 16 0 -2
BITMAP
2000
27ff
f940
2140
f9fe
a952
a952
f956
a9d4
a95c
f948
2148
f9dc
2756
2073
2040
ENDCHAR
STARTCHAR ch-283
ENCODING 283
SWIDTH 1000 0
DWIDTH 16 0
BBX 16 16 0 -2
BITMAP
2000
27ff
f820
2020
fbfe
aa22
aa22
fbba
aaaa
aaaa
faaa
2376
fa22
2222
2222
2226
ENDCHAR
STARTCHAR ch-284
ENCODING 284
SWIDTH 1000 0
DWIDTH 16 0
BBX 16 16 0 -2
BITMAP
1092
1092
ff24
1124
7c92
5492
5400
7cfe
5492
5492
7c92
10fe
fe92
1092
1092
10fe
ENDCHAR
STARTCHAR ch-285
ENCODING 285
SWIDTH 1000 0
DWIDTH 16 0
BBX 16 16 0 -2
BITMAP
1000
11ff
9501
d511
54fe
1010
10fe
fe92
28fe
2892
2892
2afe
6c10
49ff
c010
0010
ENDCHAR
STARTCHAR ch-287
ENCODING 287
SWIDTH 1000 0
DWIDTH 16 0
BBX 16 16 0 -2
BITMAP
2000
23de
f842
235a
f884
a94a
aa11
f800
abde
a842
fa42
2194
f894
2148
2254
2423
ENDCHAR
STARTCHAR ch-294
ENCODING 294
SWIDTH 1000 0
DWIDTH 16 0
BBX 16 16 0 -2
BITMAP
1008
7c3e
1008
fe7f
2814
c523
3ffc
0100
1ff8
1108
1ff8
1108
1ff8
0100
ffff
0100
ENDCHAR
STARTCHAR ch-297
ENCODING 297
SWIDTH 1000 0
DWIDTH 16 0
BBX 16 16 0 -2
BITMAP
0420
fc3f
0420
7c3e
0420
fc3f
0820
1100
ffff
2104
3ffc
2104
3ffc
0100
ffff
0100
ENDCHAR
STARTCHAR ch-298
ENCODING 298
SWIDTH 1000 0
DWIDTH 16 0
BBX 16 16 0 -2
BITMAP
2020
2070
f8d8
218c
fb07
a8f8
a800
fbfe
aa92
aa92
fbfe
2292
fa92
2292
2292
2296
ENDCHAR
STARTCHAR ch-303
ENCODING 303
SWIDTH 1000 0
DWIDTH 16 0
BBX 16 16 0 -2
BITMAP
107c
1044
fe7c
1000
7dff
5444
5444
7c7c
5444
5444
7c7c
1044
fe47
107c
11c4
1004
ENDCHAR
STARTCHAR ch-307
ENCODING 307
SWIDTH 1000 0
DWIDTH 16 0
BBX 16 16 0 -2
BITMAP
1020
11fe
fe20
10fc
7c48
57ff
5484
7d86
577b
5420
7c20
11fe
fe48
10cc
1186
1303
ENDCHAR
STARTCHAR ch-312
ENCODING 312
SWIDTH 1000 0
DWIDTH 16 0
BBX 16 16 0 -2
BITMAP
2020
2070
f8d8
218c
fb77
a800
abc2
fa52
aa52
abd2
fa52
2252
fbc2
2242
2242
22ce
ENDCHAR
STARTCHAR ch-313
ENCODING 313
SWIDTH 1000 0
DWIDTH 16 0
BBX 16 16 0 -2
BITMAP
1040
1040
feff
1180
7c7e
5442
547e
7c42
547e
5420
7c7c
10c4
fe2c
1038
106c
11c7
ENDCHAR
STARTCHAR ch-315
ENCODING 315
SWIDTH 1000 0
DWIDTH 16 0
BBX 16 16 0 -2
BITMAP
1000
10ff
fe00
107e
7c42
5442
547e
7c00
5400
54ff
7c91
1091
feff
1091
1091
10ff
ENDCHAR
STARTCHAR ch-318
ENCODING 318
SWIDTH 1000 0
DWIDTH 16 0
BBX 16 16 0 -2
BITMAP
1000
11fe
ff02
1102
7dfe
5500
5524
7dff
5524
5524
7dff
1149
ff4a
114c
1276
10c3
ENDCHAR
STARTCHAR ch-319
ENCODING 319
SWIDTH 1000 0
DWIDTH 16 0
BBX 16 16 0 -2
BITMAP
1800
711e
47e2
4102
77ee
4522
47e2
4522
77ee
4102
47e2
4102
ffff
0810
381c
e007
ENDCHAR
STARTCHAR ch-322
ENCODING 322
SWIDTH 1000 0
DWIDTH 16 0
BBX 16 16 0 -2
BITMAP
0800
ff9c
0814
7f14
0014
ffa7
8080
083e
ff92
0816
7f14
491c
7f08
491c
ffb6
0863
ENDCHAR
STARTCHAR ch-324
ENCODING 324
SWIDTH 1000 0
DWIDTH 16 0
BBX 16 16 0 -2
BITMAP
1010
1010
ffff
1101
7d11
54fe
5410
7cfe
5410
55ff
7c00
10fe
fe82
1082
1082
10fe
ENDCHAR
STARTCHAR ch-325
ENCODING 325
SWIDTH 1000 0
DWIDTH 16 0
BBX 16 16 0 -2
BITMAP
1010
1010
fefe
1010
7dff
5400
54fe
7c82
5482
54fe
7c29
106b
fece
1144
1076
10c3
ENDCHAR
STARTCHAR ch-326
ENCODING 326
SWIDTH 1000 0
DWIDTH 16 0
BBX 16 16 0 -2
BITMAP
1010
1010
fdff
1148
7d48
55ff
5549
7d49
55ff
5500
7d4b
117e
fd48
1148
1279
10c7
ENDCHAR
STARTCHAR ch-329
ENCODING 329
SWIDTH 1000 0
DWIDTH 16 0
BBX 16 16 0 -2
BITMAP
1010
1010
feff
1010
7cfe
5492
54fe
7c92
54fe
5414
7c3e
10e3
fe04
11ff
1044
102c
ENDCHAR
STARTCHAR ch-332
ENCODING 332
SWIDTH 1000 0
DWIDTH 16 0
BBX 16 16 0 -2
BITMAP
1000
10fe
fe10
11ff
7d11
55dd
5511
7ccc
5400
54fe
7c02
1002
fefe
1002
1002
10fe
ENDCHAR
STARTCHAR ch-333
ENCODING 333
SWIDTH 1000 0
DWIDTH 16 0
BBX 16 16 0 -2
BITMAP
2108
2108
ffe8
210f
f95a
aa62
abaa
f80a
abca
aa4e
fbc4
2244
fbce
224a
224a
22db
ENDCHAR
STARTCHAR ch-334
ENCODING 334
SWIDTH 1000 0
DWIDTH 16 0
BBX 16 16 0 -2
BITMAP
101c
10f0
fe20
11ff
7c48
54fc
554b
7c78
5400
54fe
7c82
10ba
feaa
10ba
1082
1086
ENDCHAR
STARTCHAR ch-343
ENCODING 343
SWIDTH 1000 0
DWIDTH 16 0
BBX 16 16 0 -2
BITMAP
2014
2012
fbff
2210
fafa
aa0a
aaee
faa4
aaed
ac17
f802
2020
f8b2
2293
2285
247c
ENDCHAR
STARTCHAR ch-348
ENCODING 348
SWIDTH 1000 0
DWIDTH 16 0
BBX 16 16 0 -2
BITMAP
1000
10fe
fe10
11ff
7d11
55dd
5511
7ccc
5400
55ff
7c10
11ff
ff49
1149
1149
114b
ENDCHAR
STARTCHAR ch-351
ENCODING 351
SWIDTH 1000 0
DWIDTH 16 0
BBX 16 16 0 -2
BITMAP
0100
3ffc
0100
0ff0
0910
0ff0
0910
7ffe
0100
1010
feff
5452
7c7e
5452
feff
1010
ENDCHAR
STARTCHAR ch-353
ENCODING 353
SWIDTH 1000 0
DWIDTH 16 0
BBX 16 16 0 -2
BITMAP
2104
47c8
9112
67cc
5549
f7df
2544
b7cd
a915
a7c5
2104
0000
3ffc
2004
2004
3ffc
ENDCHAR
STARTCHAR ch-354
ENCODING 354
SWIDTH 1000 0
DWIDTH 16 0
BBX 16 16 0 -2
BITMAP
1008
1111
ffbb
10aa
7c28
5438
54aa
7dab
5539
5410
7dff
1054
fe54
10d6
1193
1010
ENDCHAR
STARTCHAR ch-355
ENCODING 355
SWIDTH 1000 0
DWIDTH 16 0
BBX 16 16 0 -2
BITMAP
2000
23ff
fa44
2244
fbff
aa44
aaee
fb55
aa44
aa10
fa90
229e
fa90
2490
23ff
2000
ENDCHAR
STARTCHAR ch-356
ENCODING 356
SWIDTH 1000 0
DWIDTH 16 0
BBX 16 16 0 -2
BITMAP
1010
101e
fe10
11ff
7d11
557c
5511
7d7f
5552
557e
7d52
117e
fd00
12fe
10aa
11ff
ENDCHAR
STARTCHAR ch-411
ENCODING 411
SWIDTH 1000 0
DWIDTH 16 0
BBX 16 16 0 -2
BITMAP
0100
0100
7ffe
0810
0c30
0420
0420
ffff
0100
0100
0100
7ffe
0100
0100
0100
0100
ENDCHAR
STARTCHAR ch-412
ENCODING 412
SWIDTH 1000 0
DWIDTH 16 0
BBX 16 16 0 -2
BITMAP
0100
0100
7ffe
0100
1ff8
1008
1ff8
0100
3ffc
0810
0420
ffff
0100
3ffc
0100
0100
ENDCHAR
STARTCHAR ch-414
ENCODING 414
SWIDTH 1000 0
DWIDTH 16 0
BBX 16 16 0 -2
BITMAP
0610
1c10
f1ff
1082
10c6
1044
fe44
11ff
1010
1010
7dff
4410
4410
4410
4410
7c10
ENDCHAR
STARTCHAR ch-415
ENCODING 415
SWIDTH 1000 0
DWIDTH 16 0
BBX 16 16 0 -2
BITMAP
0010
3e10
22fe
2244
226c
3e28
2028
21ff
2010
7e10
52fe
d210
1210
1210
1e10
0010
ENDCHAR
STARTCHAR ch-419
ENCODING 419
SWIDTH 1000 0
DWIDTH 16 0
BBX 16 16 0 -2
BITMAP
1010
1010
ffff
4410
6cfe
2892
fe92
1092
10fe
1e54
f054
1054
30d6
2092
6193
c010
ENDCHAR
STARTCHAR ch-423
ENCODING 423
SWIDTH 1000 0
DWIDTH 16 0
BBX 16 16 0 -2
BITMAP
2004
27c4
fa5f
524a
524a
524a
fa5f
2244
2244
fa5f
2244
2244
2244
6644
4444
ccc4
ENDCHAR
STARTCHAR ch-424
ENCODING 424
SWIDTH 1000 0
DWIDTH 16 0
BBX 16 16 0 -2
BITMAP
1048
1248
fe7f
4a52
6a56
2a54
fe7f
1248
1248
fe7f
1248
1048
30c8
2088
6188
c308
ENDCHAR
STARTCHAR ch-429
ENCODING 429
SWIDTH 1000 0
DWIDTH 16 0
BBX 16 16 0 -2
BITMAP
0708
fc08
517f
2a22
ff36
2214
1414
ff7f
9108
a508
bb7f
8108
fd08
a508
9908
a508
ENDCHAR
STARTCHAR ch-430
ENCODING 430
SWIDTH 1000 0
DWIDTH 16 0
BBX 16 16 0 -2
BITMAP
2084
2184
f91f
564a
52ca
518a
f91f
2244
27e4
f93f
2104
2544
2d64
6924
4104
c104
ENDCHAR
STARTCHAR ch-431
ENCODING 431
SWIDTH 1000 0
DWIDTH 16 0
BBX 16 16 0 -2
BITMAP
2004
23c4
f81f
57ea
500a
53ca
f81f
23c4
2004
f81f
23c4
2244
2244
6244
43c4
c004
ENDCHAR
STARTCHAR ch-432
ENCODING 432
SWIDTH 1000 0
DWIDTH 16 0
BBX 16 16 0 -2
BITMAP
0000
3fff
2000
2000
27fc
2000
2000
3fff
2440
2442
2466
242c
6430
4418
c78c
1c07
ENDCHAR
STARTCHAR ch-433
ENCODING 433
SWIDTH 1000 0
DWIDTH 16 0
BBX 16 16 0 -2
BITMAP
0000
3ffe
2000
2ffc
2000
3ffe
2444
646c
47b8
dc0f
0010
ffff
0810
0c10
0410
0070
ENDCHAR
STARTCHAR ch-434
ENCODING 434
SWIDTH 1000 0
DWIDTH 16 0
BBX 16 16 0 -2
BITMAP
0240
1ffc
1244
1ffc
1244
1ffc
0000
3ffe
2000
2ffc
2000
3fff
2444
646c
c738
1c0f
ENDCHAR
STARTCHAR ch-439
ENCODING 439
SWIDTH 1000 0
DWIDTH 16 0
BBX 16 16 0 -2
BITMAP
0000
6000
3000
1000
0000
0000
07ff
f000
1000
1000
1000
1000
1000
3000
6800
c7ff
ENDCHAR
STARTCHAR ch-442
ENCODING 442
SWIDTH 1000 0
DWIDTH 16 0
BBX 16 16 0 -2
BITMAP
0000
6000
37fe
1042
0042
0042
0042
f042
10c2
1082
1186
1304
161c
3000
6800
c7ff
ENDCHAR
STARTCHAR ch-443
ENCODING 443
SWIDTH 1000 0
DWIDTH 16 0
BBX 16 16 0 -2
BITMAP
0020
6020
3020
1020
0020
0020
07ff
f020
1020
1020
1020
1020
1020
3020
6800
c7ff
ENDCHAR
STARTCHAR ch-444
ENCODING 444
SWIDTH 1000 0
DWIDTH 16 0
BBX 16 16 0 -2
BITMAP
0000
63e0
3020
1020
0020
0020
0070
f050
10d8
1088
118c
1306
1603
3000
6800
c7ff
ENDCHAR
STARTCHAR ch-447
ENCODING 447
SWIDTH 1000 0
DWIDTH 16 0
BBX 16 16 0 -2
BITMAP
0020
6020
3020
1222
0222
0222
0222
f222
1222
1222
1222
1222
13fe
3000
6800
c7ff
ENDCHAR
STARTCHAR ch-450
ENCODING 450
SWIDTH 1000 0
DWIDTH 16 0
BBX 16 16 0 -2
BITMAP
0000
63fe
3020
1020
0020
0020
07ff
f020
1020
1020
1020
1020
1020
30e0
6800
c7ff
ENDCHAR
STARTCHAR ch-452
ENCODING 452
SWIDTH 1000 0
DWIDTH 16 0
BBX 16 16 0 -2
BITMAP
0100
6100
33ff
1600
0c00
03fc
0030
f060
10c0
1180
1300
1202
1306
31fc
6800
c7ff
ENDCHAR
STARTCHAR ch-453
ENCODING 453
SWIDTH 1000 0
DWIDTH 16 0
BBX 16 16 0 -2
BITMAP
0000
67f8
3008
1088
0088
0088
0088
f7f8
1088
1088
108c
1085
1087
3082
6800
c7ff
ENDCHAR
STARTCHAR ch-462
ENCODING 462
SWIDTH 1000 0
DWIDTH 16 0
BBX 16 16 0 -2
BITMAP
0040
60c0
33be
1222
0222
0222
0222
f222
1222
1222
13a2
1626
1020
3020
6800
c7ff
ENDCHAR
STARTCHAR ch-465
ENCODING 465
SWIDTH 1000 0
DWIDTH 16 0
BBX 16 16 0 -2
BITMAP
000c
6038
31e0
1100
0100
01ff
0108
f108
1108
1108
1308
1208
1608
3008
6800
c7ff
ENDCHAR
STARTCHAR ch-468
ENCODING 468
SWIDTH 1000 0
DWIDTH 16 0
BBX 16 16 0 -2
BITMAP
0000
63fe
3200
1200
0200
03fc
0284
f28c
12c8
1658
1430
1c78
10cc
3387
6800
c7ff
ENDCHAR
STARTCHAR ch-474
ENCODING 474
SWIDTH 1000 0
DWIDTH 16 0
BBX 16 16 0 -2
BITMAP
0020
6020
3020
13fe
0222
0222
0222
f222
13fe
1020
1020
1020
1020
3020
6800
c7ff
ENDCHAR
STARTCHAR ch-482
ENCODING 482
SWIDTH 1000 0
DWIDTH 16 0
BBX 16 16 0 -2
BITMAP
0000
63fe
3042
1042
00c6
0184
031c
f000
11fc
1104
1104
1104
1104
31fc
6800
c7ff
ENDCHAR
STARTCHAR ch-485
ENCODING 485
SWIDTH 1000 0
DWIDTH 16 0
BBX 16 16 0 -2
BITMAP
0000
63fe
3202
1202
02fa
028a
028a
f28a
128a
12fa
1202
1202
1202
320e
6800
c7ff
ENDCHAR
STARTCHAR ch-486
ENCODING 486
SWIDTH 1000 0
DWIDTH 16 0
BBX 16 16 0 -2
BITMAP
0200
c200
621e
2fd2
0252
0252
0252
e252
2252
2652
2452
24d2
2c9e
6180
5000
cfff
ENDCHAR
STARTCHAR ch-489
ENCODING 489
SWIDTH 1000 0
DWIDTH 16 0
BBX 16 16 0 -2
BITMAP
0100
6100
33ff
1220
0620
0c20
0124
f124
1124
1326
1222
1623
1020
30e0
6800
c7ff
ENDCHAR
STARTCHAR ch-490
ENCODING 490
SWIDTH 1000 0
DWIDTH 16 0
BBX 16 16 0 -2
BITMAP
0020
6020
3020
1020
03fe
0222
0222
f222
13fe
1222
1222
1222
1222
33fe
6800
c7ff
ENDCHAR
STARTCHAR ch-491
ENCODING 491
SWIDTH 1000 0
DWIDTH 16 0
BBX 16 16 0 -2
BITMAP
0020
6060
3040
13fe
0202
0202
0202
f3fe
1202
1202
1202
1202
13fe
3000
6800
c7ff
ENDCHAR
STARTCHAR ch-493
ENCODING 493
SWIDTH 1000 0
DWIDTH 16 0
BBX 16 16 0 -2
BITMAP
0020
6120
3120
11fe
0320
0220
0020
f7ff
1020
1070
1050
10d8
118c
3306
6800
c7ff
ENDCHAR
STARTCHAR ch-495
ENCODING 495
SWIDTH 1000 0
DWIDTH 16 0
BBX 16 16 0 -2
BITMAP
0208
6208
33c8
1248
0648
0548
0d4e
f0cb
1088
1188
1108
1308
1608
3008
6800
c7ff
ENDCHAR
STARTCHAR ch-496
ENCODING 496
SWIDTH 1000 0
DWIDTH 16 0
BBX 16 16 0 -2
BITMAP
0024
6026
3022
1020
07ff
0020
0020
f124
1124
1326
1222
1623
1020
3020
6800
c7ff
ENDCHAR
STARTCHAR ch-500
ENCODING 500
SWIDTH 1000 0
DWIDTH 16 0
BBX 16 16 0 -2
BITMAP
0000
63fc
3204
1204
02f4
0294
0294
f294
1294
12f4
1204
1204
13fc
3000
6800
c7ff
ENDCHAR
STARTCHAR ch-503
ENCODING 503
SWIDTH 1000 0
DWIDTH 16 0
BBX 16 16 0 -2
BITMAP
0020
6222
3326
1124
0020
07ff
00a8
f0a8
11ac
1124
1326
1623
1020
3020
6800
c7ff
ENDCHAR
STARTCHAR ch-504
ENCODING 504
SWIDTH 1000 0
DWIDTH 16 0
BBX 16 16 0 -2
BITMAP
0104
618c
3088
13fe
0088
0088
0088
f7ff
1088
1088
1088
1188
1108
3308
6800
c7ff
ENDCHAR
STARTCHAR ch-505
ENCODING 505
SWIDTH 1000 0
DWIDTH 16 0
BBX 16 16 0 -2
BITMAP
0040
6040
3040
17fe
0090
0090
0294
f294
1296
1692
1493
1190
1110
3330
6800
c7ff
ENDCHAR
STARTCHAR ch-506
ENCODING 506
SWIDTH 1000 0
DWIDTH 16 0
BBX 16 16 0 -2
BITMAP
0000
6fff
3090
1090
0090
07fe
0492
f492
1592
171e
1402
1402
17fe
3000
6800
c7ff
ENDCHAR
STARTCHAR ch-509
ENCODING 509
SWIDTH 1000 0
DWIDTH 16 0
BBX 16 16 0 -2
BITMAP
0020
6040
33fc
1204
0204
0204
03fc
f200
1200
13fc
1204
1204
1204
33fc
6800
c7ff
ENDCHAR
ENDFONT
