STARTFONT 2.1
FONT jis.jis5e00.16
SIZE 16 72 72
FONTBOUNDINGBOX 16 16 0 -2
STARTPROPERTIES 4
FONT_DESCENT 2
FONT_ASCENT 14
DEFAULT_CHAR 2
COPYRIGHT "Copyright (c) 1992 AT&T - All rights reserved."
ENDPROPERTIES
CHARS 211
STARTCHAR ch-2
ENCODING 2
SWIDTH 1000 0
DWIDTH 16 0
BBX 16 16 0 -2
BITMAP
0100
0100
0100
ffff
0100
0100
3ffc
2104
2104
2104
2104
2104
211c
0100
0100
0100
ENDCHAR
STARTCHAR ch-3
ENCODING 3
SWIDTH 1000 0
DWIDTH 16 0
BBX 16 16 0 -2
BITMAP
0200
0200
0200
ffff
0400
0c40
0840
1ffe
3842
6842
c842
0842
0842
084e
0040
0040
ENDCHAR
STARTCHAR ch-6
ENCODING 6
SWIDTH 1000 0
DWIDTH 16 0
BBX 16 16 0 -2
BITMAP
2000
20fc
2084
fc84
a484
a4a4
a4b4
a494
a494
a484
ac84
2084
2084
2185
2105
2303
ENDCHAR
STARTCHAR ch-11
ENCODING 11
SWIDTH 1000 0
DWIDTH 16 0
BBX 16 16 0 -2
BITMAP
000c
00f8
3f80
2080
3fff
2040
2061
3e3b
e10e
0100
3ffc
2104
2104
2104
211c
0100
ENDCHAR
STARTCHAR ch-12
ENCODING 12
SWIDTH 1000 0
DWIDTH 16 0
BBX 16 16 0 -2
BITMAP
1c0c
0738
01e0
0f38
7a0c
0200
ffff
0440
0840
1ffe
2842
c842
0842
0842
084e
0040
ENDCHAR
STARTCHAR ch-17
ENCODING 17
SWIDTH 1000 0
DWIDTH 16 0
BBX 16 16 0 -2
BITMAP
0800
0800
fffe
1142
3366
222c
7e18
0b6c
3007
c100
3ffc
2104
2104
2104
211c
0100
ENDCHAR
STARTCHAR ch-22
ENCODING 22
SWIDTH 1000 0
DWIDTH 16 0
BBX 16 16 0 -2
BITMAP
2020
2020
2020
fc20
a43f
a420
a420
a420
a420
a5fe
ad02
2102
2102
2102
2102
21fe
ENDCHAR
STARTCHAR ch-25
ENCODING 25
SWIDTH 1000 0
DWIDTH 16 0
BBX 16 16 0 -2
BITMAP
2010
2090
2090
fcfe
a590
a510
a410
a5ff
a410
a410
ac38
2028
206c
2044
20c6
2183
ENDCHAR
STARTCHAR ch-26
ENCODING 26
SWIDTH 1000 0
DWIDTH 16 0
BBX 16 16 0 -2
BITMAP
0000
1ff8
0008
1ff8
0008
1ff8
0000
7ffe
4102
4102
3ffc
2104
2104
2104
211c
0100
ENDCHAR
STARTCHAR ch-27
ENCODING 27
SWIDTH 1000 0
DWIDTH 16 0
BBX 16 16 0 -2
BITMAP
0100
0200
1ff8
1008
1ff8
1008
1008
1ff8
0100
3ffc
2104
2104
2104
2104
211c
0100
ENDCHAR
STARTCHAR ch-29
ENCODING 29
SWIDTH 1000 0
DWIDTH 16 0
BBX 16 16 0 -2
BITMAP
0100
0100
7ffe
0810
0c30
0420
ffff
8101
8101
3ffc
2104
2104
2104
2104
211c
0100
ENDCHAR
STARTCHAR ch-37
ENCODING 37
SWIDTH 1000 0
DWIDTH 16 0
BBX 16 16 0 -2
BITMAP
0810
1010
7c10
44ff
4491
4491
7c91
4091
4091
7c91
4491
4491
4493
4410
7c10
0010
ENDCHAR
STARTCHAR ch-43
ENCODING 43
SWIDTH 1000 0
DWIDTH 16 0
BBX 16 16 0 -2
BITMAP
0800
11ff
7c10
4410
44fe
4492
7c92
4092
4092
7c92
4492
4492
4492
4496
7c10
0010
ENDCHAR
STARTCHAR ch-45
ENCODING 45
SWIDTH 1000 0
DWIDTH 16 0
BBX 16 16 0 -2
BITMAP
0080
0080
3fff
2000
2208
2ffe
2208
2208
23f8
2040
2ffe
2842
6842
4842
c84e
0040
ENDCHAR
STARTCHAR ch-47
ENCODING 47
SWIDTH 1000 0
DWIDTH 16 0
BBX 16 16 0 -2
BITMAP
1108
1108
ffff
1108
1108
1ff8
0000
7ffe
4102
4102
3ffc
2104
2104
2104
211c
0100
ENDCHAR
STARTCHAR ch-48
ENCODING 48
SWIDTH 1000 0
DWIDTH 16 0
BBX 16 16 0 -2
BITMAP
1000
11fc
5004
51fc
5004
51fc
5000
57ff
5421
5421
13fe
1222
3222
2222
6226
c020
ENDCHAR
STARTCHAR ch-51
ENCODING 51
SWIDTH 1000 0
DWIDTH 16 0
BBX 16 16 0 -2
BITMAP
2000
20fe
2080
fcfc
a480
a4fc
a480
a480
a7ff
a492
ac96
209c
2088
208c
20e6
2383
ENDCHAR
STARTCHAR ch-54
ENCODING 54
SWIDTH 1000 0
DWIDTH 16 0
BBX 16 16 0 -2
BITMAP
1248
1248
ffff
1248
3248
63ce
0000
7ffe
4102
4102
3ffc
2104
2104
2104
211c
0100
ENDCHAR
STARTCHAR ch-55
ENCODING 55
SWIDTH 1000 0
DWIDTH 16 0
BBX 16 16 0 -2
BITMAP
2024
206c
2048
fcff
a590
a690
a490
a4fe
a490
a490
ac90
20fe
2090
2090
2090
20ff
ENDCHAR
STARTCHAR ch-56
ENCODING 56
SWIDTH 1000 0
DWIDTH 16 0
BBX 16 16 0 -2
BITMAP
2104
310c
1108
7ffe
4002
4ff2
4812
0810
0ff0
0100
3ffc
2104
2104
2104
211c
0100
ENDCHAR
STARTCHAR ch-61
ENCODING 61
SWIDTH 1000 0
DWIDTH 16 0
BBX 16 16 0 -2
BITMAP
2000
21ff
2101
fdff
a501
a5ff
a400
a4fe
a482
a4fe
ac82
2082
20fe
2082
2082
20fe
ENDCHAR
STARTCHAR ch-64
ENCODING 64
SWIDTH 1000 0
DWIDTH 16 0
BBX 16 16 0 -2
BITMAP
2020
2020
203f
fc20
a5fe
a502
a502
a5fe
a502
a502
adfe
2102
2102
21fe
2084
2303
ENDCHAR
STARTCHAR ch-67
ENCODING 67
SWIDTH 1000 0
DWIDTH 16 0
BBX 16 16 0 -2
BITMAP
2020
21fc
2044
fc44
a7ff
a400
a4fc
a484
a4fc
a408
adfe
2088
2088
23ff
2008
2008
ENDCHAR
STARTCHAR ch-68
ENCODING 68
SWIDTH 1000 0
DWIDTH 16 0
BBX 16 16 0 -2
BITMAP
2000
23fe
2202
fa02
abfe
aa00
aafe
aa20
aa44
aafe
ba12
2210
26fe
2410
2c10
21ff
ENDCHAR
STARTCHAR ch-69
ENCODING 69
SWIDTH 1000 0
DWIDTH 16 0
BBX 16 16 0 -2
BITMAP
2000
21ff
2000
fcfe
a482
a482
a4fe
a400
a400
a5ff
ad11
2111
21ff
2111
2111
21ff
ENDCHAR
STARTCHAR ch-71
ENCODING 71
SWIDTH 1000 0
DWIDTH 16 0
BBX 16 16 0 -2
BITMAP
0804
7f04
087f
ff84
0824
7f34
0814
0f84
f81c
0000
0100
3ffc
2104
2104
211c
0100
ENDCHAR
STARTCHAR ch-76
ENCODING 76
SWIDTH 1000 0
DWIDTH 16 0
BBX 16 16 0 -2
BITMAP
2000
21fc
2104
f9fc
a904
a9fc
aa22
ab26
a924
afff
b888
2088
2088
2189
2309
2607
ENDCHAR
STARTCHAR ch-78
ENCODING 78
SWIDTH 1000 0
DWIDTH 16 0
BBX 16 16 0 -2
BITMAP
2000
23fe
2202
fafa
a888
a888
a8f8
a888
a888
a8f8
b820
27ff
2000
2088
218c
2306
ENDCHAR
STARTCHAR ch-84
ENCODING 84
SWIDTH 1000 0
DWIDTH 16 0
BBX 16 16 0 -2
BITMAP
20fc
2084
20fc
f884
a8fc
a800
abff
aa49
abff
a800
bbfe
2084
2048
2030
20ec
2387
ENDCHAR
STARTCHAR ch-85
ENCODING 85
SWIDTH 1000 0
DWIDTH 16 0
BBX 16 16 0 -2
BITMAP
0420
ffff
0420
1ff8
1008
1ff8
1008
1ff8
0200
ffff
0910
3ffc
d10b
1108
1138
0100
ENDCHAR
STARTCHAR ch-87
ENCODING 87
SWIDTH 1000 0
DWIDTH 16 0
BBX 16 16 0 -2
BITMAP
2000
23ff
2211
fa15
abff
aa09
aae9
aaab
aaed
aa09
baeb
2217
2265
2201
23ff
2000
ENDCHAR
STARTCHAR ch-95
ENCODING 95
SWIDTH 1000 0
DWIDTH 16 0
BBX 16 16 0 -2
BITMAP
2088
208a
23eb
f809
aa28
a948
afff
a808
abe9
aa29
ba2a
23ee
2224
2225
23eb
2012
ENDCHAR
STARTCHAR ch-97
ENCODING 97
SWIDTH 1000 0
DWIDTH 16 0
BBX 16 16 0 -2
BITMAP
200c
2038
23e0
f924
a8a8
afff
a8a8
a9ac
ab26
ae03
a9fc
2124
21fc
2124
2124
21fc
ENDCHAR
STARTCHAR ch-98
ENCODING 98
SWIDTH 1000 0
DWIDTH 16 0
BBX 16 16 0 -2
BITMAP
2020
2020
23fe
f904
a888
afff
a800
a9fc
a924
a9fc
b924
21fc
2020
23fe
2020
27ff
ENDCHAR
STARTCHAR ch-99
ENCODING 99
SWIDTH 1000 0
DWIDTH 16 0
BBX 16 16 0 -2
BITMAP
4920
6b20
2a7f
7f44
49ec
5d38
6b10
493c
4b67
0000
0100
3ffc
2104
2104
211c
0100
ENDCHAR
STARTCHAR ch-100
ENCODING 100
SWIDTH 1000 0
DWIDTH 16 0
BBX 16 16 0 -2
BITMAP
4920
6b20
2a7f
7f44
41ec
5d38
5510
5d3c
4367
0000
0100
3ffc
2104
2104
211c
0100
ENDCHAR
STARTCHAR ch-114
ENCODING 114
SWIDTH 1000 0
DWIDTH 16 0
BBX 16 16 0 -2
BITMAP
0000
7ffc
0100
0100
0100
0100
0100
ffff
0100
0100
0100
0100
0100
0100
0100
0100
ENDCHAR
STARTCHAR ch-115
ENCODING 115
SWIDTH 1000 0
DWIDTH 16 0
BBX 16 16 0 -2
BITMAP
0000
7ffe
0100
2104
310c
1918
0910
0100
ffff
0100
0100
0100
0100
0100
0100
0100
ENDCHAR
STARTCHAR ch-116
ENCODING 116
SWIDTH 1000 0
DWIDTH 16 0
BBX 16 16 0 -2
BITMAP
0800
0800
1ffe
3080
6080
c080
1ffc
1080
1080
1080
1080
ffff
0080
0080
0080
0080
ENDCHAR
STARTCHAR ch-117
ENCODING 117
SWIDTH 1000 0
DWIDTH 16 0
BBX 16 16 0 -2
BITMAP
0000
7c3e
1008
1008
1008
1008
1008
fe7f
1008
1008
1008
1008
1008
1008
1008
1008
ENDCHAR
STARTCHAR ch-118
ENCODING 118
SWIDTH 1000 0
DWIDTH 16 0
BBX 16 16 0 -2
BITMAP
1008
1818
0810
7ffe
0420
0420
0420
0420
ffff
0420
0420
0c20
0820
1820
3020
6020
ENDCHAR
STARTCHAR ch-120
ENCODING 120
SWIDTH 1000 0
DWIDTH 16 0
BBX 16 16 0 -2
BITMAP
0100
0100
3ffc
0100
0100
ffff
0810
0c30
0420
7ffe
0100
0100
3ffc
0100
0100
0100
ENDCHAR
STARTCHAR ch-121
ENCODING 121
SWIDTH 1000 0
DWIDTH 16 0
BBX 16 16 0 -2
BITMAP
1010
1038
fe28
106c
7cc6
4583
447c
7c10
4410
4410
7dff
1010
fe10
1010
1010
1010
ENDCHAR
STARTCHAR ch-122
ENCODING 122
SWIDTH 1000 0
DWIDTH 16 0
BBX 16 16 0 -2
BITMAP
0100
0300
0200
0600
0c10
1830
3060
18c0
0c80
0580
0308
060c
0c04
187e
3fc2
e003
ENDCHAR
STARTCHAR ch-123
ENCODING 123
SWIDTH 1000 0
DWIDTH 16 0
BBX 16 16 0 -2
BITMAP
0800
18fe
3002
2002
6002
c202
6602
3402
0c02
1802
1202
3302
2106
7f84
c084
001c
ENDCHAR
STARTCHAR ch-124
ENCODING 124
SWIDTH 1000 0
DWIDTH 16 0
BBX 16 16 0 -2
BITMAP
0820
1820
1020
3020
24fe
6422
cc22
6822
3822
1022
3222
2262
2f42
7946
c0c4
019c
ENDCHAR
STARTCHAR ch-125
ENCODING 125
SWIDTH 1000 0
DWIDTH 16 0
BBX 16 16 0 -2
BITMAP
0100
4912
4912
5122
5122
654a
552a
4912
4912
5122
552a
5d3e
7566
4102
4102
7ffe
ENDCHAR
STARTCHAR ch-126
ENCODING 126
SWIDTH 1000 0
DWIDTH 16 0
BBX 16 16 0 -2
BITMAP
1088
3098
64b2
2894
1088
1492
3ebf
6289
0084
3fff
2040
3864
2c28
6431
40db
c30e
ENDCHAR
STARTCHAR ch-127
ENCODING 127
SWIDTH 1000 0
DWIDTH 16 0
BBX 16 16 0 -2
BITMAP
0080
0080
3fff
2000
2000
2000
2000
2000
2000
2000
2000
2000
6000
4000
c000
0000
ENDCHAR
STARTCHAR ch-129
ENCODING 129
SWIDTH 1000 0
DWIDTH 16 0
BBX 16 16 0 -2
BITMAP
0080
0080
0080
3fff
2000
2000
2fff
2020
2020
2020
2020
2020
6020
4020
c020
00e0
ENDCHAR
STARTCHAR ch-131
ENCODING 131
SWIDTH 1000 0
DWIDTH 16 0
BBX 16 16 0 -2
BITMAP
0080
0080
0080
3fff
2000
2000
2100
2100
2310
2218
2208
260c
6404
447e
cfc2
1803
ENDCHAR
STARTCHAR ch-132
ENCODING 132
SWIDTH 1000 0
DWIDTH 16 0
BBX 16 16 0 -2
BITMAP
0080
0080
0080
3fff
2000
2040
2040
2040
2ffe
2040
2040
2040
6040
4040
c040
1fff
ENDCHAR
STARTCHAR ch-135
ENCODING 135
SWIDTH 1000 0
DWIDTH 16 0
BBX 16 16 0 -2
BITMAP
0080
0080
7fff
4000
4820
4820
4822
482e
4f38
4820
4820
4820
c820
8821
8f33
381e
ENDCHAR
STARTCHAR ch-138
ENCODING 138
SWIDTH 1000 0
DWIDTH 16 0
BBX 16 16 0 -2
BITMAP
0080
0080
3fff
2000
2040
2040
3fff
2150
2150
2358
2248
264c
6c46
5843
c040
0040
ENDCHAR
STARTCHAR ch-143
ENCODING 143
SWIDTH 1000 0
DWIDTH 16 0
BBX 16 16 0 -2
BITMAP
0080
0080
3fff
2000
27fc
2008
2110
20a0
3fff
2042
2046
2044
6040
4040
c040
01c0
ENDCHAR
STARTCHAR ch-149
ENCODING 149
SWIDTH 1000 0
DWIDTH 16 0
BBX 16 16 0 -2
BITMAP
0040
0040
3fff
2000
200c
27f8
2420
2420
27ff
2410
2410
2798
2c08
600d
4fe7
c002
ENDCHAR
STARTCHAR ch-150
ENCODING 150
SWIDTH 1000 0
DWIDTH 16 0
BBX 16 16 0 -2
BITMAP
0080
0080
3fff
2200
2200
27fc
2404
2fe4
3824
2024
27e4
241c
6400
4401
c603
03fe
ENDCHAR
STARTCHAR ch-151
ENCODING 151
SWIDTH 1000 0
DWIDTH 16 0
BBX 16 16 0 -2
BITMAP
0080
0080
3fff
2000
2040
2040
207f
2040
2040
2040
27fc
6404
4404
c404
0404
07fc
ENDCHAR
STARTCHAR ch-154
ENCODING 154
SWIDTH 1000 0
DWIDTH 16 0
BBX 16 16 0 -2
BITMAP
0080
0080
3fff
2080
2ffc
2084
2084
3fff
2084
2084
2ffc
2140
6360
4630
cc1c
3807
ENDCHAR
STARTCHAR ch-156
ENCODING 156
SWIDTH 1000 0
DWIDTH 16 0
BBX 16 16 0 -2
BITMAP
0080
0080
3fff
2000
2208
2208
27ff
2408
2c88
34c8
2448
2408
6408
4408
c408
0438
ENDCHAR
STARTCHAR ch-160
ENCODING 160
SWIDTH 1000 0
DWIDTH 16 0
BBX 16 16 0 -2
BITMAP
0080
0080
3fff
2000
2208
2110
2ffe
2040
2040
27fc
2040
2040
6fff
4040
c040
0040
ENDCHAR
STARTCHAR ch-166
ENCODING 166
SWIDTH 1000 0
DWIDTH 16 0
BBX 16 16 0 -2
BITMAP
0080
0080
3fff
2000
2110
2ffe
2110
21f0
2000
2ff8
2208
2318
61b0
40e0
c3b8
1e0f
ENDCHAR
STARTCHAR ch-167
ENCODING 167
SWIDTH 1000 0
DWIDTH 16 0
BBX 16 16 0 -2
BITMAP
0080
0080
3fff
2000
2248
2248
2248
2554
2554
28e2
2040
6ffe
4040
c040
1fff
0000
ENDCHAR
STARTCHAR ch-171
ENCODING 171
SWIDTH 1000 0
DWIDTH 16 0
BBX 16 16 0 -2
BITMAP
0080
0080
3fff
2000
2040
2ffe
2040
27fc
2444
27fc
2444
27fc
6040
5fff
c040
0040
ENDCHAR
STARTCHAR ch-173
ENCODING 173
SWIDTH 1000 0
DWIDTH 16 0
BBX 16 16 0 -2
BITMAP
0040
0040
3fff
2000
2006
3efc
2410
2810
2fff
2210
2a10
2a10
64fe
4400
cb00
10ff
ENDCHAR
STARTCHAR ch-181
ENCODING 181
SWIDTH 1000 0
DWIDTH 16 0
BBX 16 16 0 -2
BITMAP
0080
0080
7fff
4100
5ffe
4220
4490
4ffc
788b
4888
4ff8
4888
c888
8ff9
8083
007e
ENDCHAR
STARTCHAR ch-182
ENCODING 182
SWIDTH 1000 0
DWIDTH 16 0
BBX 16 16 0 -2
BITMAP
0080
0080
3fff
2000
2210
2210
3fff
2210
2210
2210
23f0
6000
4000
c924
19b6
3093
ENDCHAR
STARTCHAR ch-183
ENCODING 183
SWIDTH 1000 0
DWIDTH 16 0
BBX 16 16 0 -2
BITMAP
0080
0080
3fff
2080
2ffc
2084
3fff
2084
2ffc
2080
2c86
26cc
61b0
469c
d887
0380
ENDCHAR
STARTCHAR ch-184
ENCODING 184
SWIDTH 1000 0
DWIDTH 16 0
BBX 16 16 0 -2
BITMAP
0080
3fff
2040
27fc
2044
3fff
2044
27fc
2040
27fc
2444
27fc
6444
47fc
c444
044c
ENDCHAR
STARTCHAR ch-193
ENCODING 193
SWIDTH 1000 0
DWIDTH 16 0
BBX 16 16 0 -2
BITMAP
0080
0080
7fff
4000
4f82
4892
4892
4f92
4892
4892
4f92
4892
c882
8f82
8502
18ce
ENDCHAR
STARTCHAR ch-194
ENCODING 194
SWIDTH 1000 0
DWIDTH 16 0
BBX 16 16 0 -2
BITMAP
0080
0080
7fff
4000
4400
447e
5f42
4442
447e
4e42
4d42
557e
d442
8442
847e
0400
ENDCHAR
STARTCHAR ch-195
ENCODING 195
SWIDTH 1000 0
DWIDTH 16 0
BBX 16 16 0 -2
BITMAP
0080
0080
3fff
2000
2fc4
20a9
2912
260c
3bfb
2110
2110
2ffe
6110
4311
c613
1c0e
ENDCHAR
STARTCHAR ch-200
ENCODING 200
SWIDTH 1000 0
DWIDTH 16 0
BBX 16 16 0 -2
BITMAP
0080
7fff
4000
5ffe
4080
47f8
4408
47f8
4408
47f8
4408
47f8
c208
9d10
80e0
1f1f
ENDCHAR
STARTCHAR ch-201
ENCODING 201
SWIDTH 1000 0
DWIDTH 16 0
BBX 16 16 0 -2
BITMAP
0080
7fff
4408
4210
5ffe
4120
4ffc
4124
5fff
4124
4ffc
4528
cd2c
9926
b123
0120
ENDCHAR
STARTCHAR ch-202
ENCODING 202
SWIDTH 1000 0
DWIDTH 16 0
BBX 16 16 0 -2
BITMAP
0080
0080
3fff
2000
2200
2fbe
28a2
2fa6
28ac
2fa8
2824
2922
6922
4fae
d8a0
0020
ENDCHAR
STARTCHAR ch-207
ENCODING 207
SWIDTH 1000 0
DWIDTH 16 0
BBX 16 16 0 -2
BITMAP
0080
0080
7fff
4000
5f3c
5124
5f24
5127
5140
5f00
507e
5222
d214
9308
9d14
3063
ENDCHAR
STARTCHAR ch-208
ENCODING 208
SWIDTH 1000 0
DWIDTH 16 0
BBX 16 16 0 -2
BITMAP
0080
0080
7fff
4000
5f7e
5124
5f24
5124
5124
5f7f
5008
5208
d21c
9315
9d35
3063
ENDCHAR
STARTCHAR ch-211
ENCODING 211
SWIDTH 1000 0
DWIDTH 16 0
BBX 16 16 0 -2
BITMAP
0080
0080
7fff
4200
5fde
4012
4f92
4894
4f94
4012
5f92
4112
c3d2
9e16
8210
0e10
ENDCHAR
STARTCHAR ch-214
ENCODING 214
SWIDTH 1000 0
DWIDTH 16 0
BBX 16 16 0 -2
BITMAP
0080
0080
7fff
4000
5f3e
4912
470e
4952
40a2
4318
5c47
4190
c662
818c
8070
0780
ENDCHAR
STARTCHAR ch-218
ENCODING 218
SWIDTH 1000 0
DWIDTH 16 0
BBX 16 16 0 -2
BITMAP
0080
0080
7fff
4400
7f84
4404
5f7f
4004
5f24
5134
5f14
4004
d104
9904
8f84
381c
ENDCHAR
STARTCHAR ch-219
ENCODING 219
SWIDTH 1000 0
DWIDTH 16 0
BBX 16 16 0 -2
BITMAP
0080
0080
3fff
2000
27fc
2444
27fc
2444
27fc
2040
2ffe
2208
6447
5bf8
c040
1fff
ENDCHAR
STARTCHAR ch-221
ENCODING 221
SWIDTH 1000 0
DWIDTH 16 0
BBX 16 16 0 -2
BITMAP
0080
0080
7fff
4000
4906
5fbc
4920
4f3f
4924
4f24
4924
4924
dfa4
8924
99a4
30c4
ENDCHAR
STARTCHAR ch-223
ENCODING 223
SWIDTH 1000 0
DWIDTH 16 0
BBX 16 16 0 -2
BITMAP
0080
0080
7fff
4000
443e
5fa2
4422
5fbe
50a2
5fa2
50be
5fa2
c422
9fa2
8422
0446
ENDCHAR
STARTCHAR ch-224
ENCODING 224
SWIDTH 1000 0
DWIDTH 16 0
BBX 16 16 0 -2
BITMAP
0080
0080
7fff
4208
5248
4a88
421f
5fd2
506a
574a
554e
5544
d744
904e
904a
10db
ENDCHAR
STARTCHAR ch-225
ENCODING 225
SWIDTH 1000 0
DWIDTH 16 0
BBX 16 16 0 -2
BITMAP
0080
0080
7fff
4400
4800
5ffe
6924
4924
7fff
4924
4924
5ffe
c000
8924
99b6
3093
ENDCHAR
STARTCHAR ch-226
ENCODING 226
SWIDTH 1000 0
DWIDTH 16 0
BBX 16 16 0 -2
BITMAP
0080
0080
7fff
4000
4fc8
5232
4c0c
7e7b
4248
5e8f
5000
5efe
c242
8224
8618
1ce7
ENDCHAR
STARTCHAR ch-227
ENCODING 227
SWIDTH 1000 0
DWIDTH 16 0
BBX 16 16 0 -2
BITMAP
0080
0080
3fff
2110
2ffe
2110
3fff
2040
27fc
2444
27fc
2444
6444
47fc
c208
0c06
ENDCHAR
STARTCHAR ch-232
ENCODING 232
SWIDTH 1000 0
DWIDTH 16 0
BBX 16 16 0 -2
BITMAP
0080
0080
7fff
4800
4f7e
5112
6212
5fa6
5480
5fa8
54be
5fc8
d088
90ff
9088
2388
ENDCHAR
STARTCHAR ch-233
ENCODING 233
SWIDTH 1000 0
DWIDTH 16 0
BBX 16 16 0 -2
BITMAP
0080
7fff
4040
5fff
4404
45f4
4514
45f4
4404
47fc
4006
4ffc
c040
9fff
8248
1c47
ENDCHAR
STARTCHAR ch-236
ENCODING 236
SWIDTH 1000 0
DWIDTH 16 0
BBX 16 16 0 -2
BITMAP
0080
7fff
4080
40fe
4080
5fff
5081
5ff8
5082
53fe
5244
53fc
d244
97fe
a492
1fff
ENDCHAR
STARTCHAR ch-240
ENCODING 240
SWIDTH 1000 0
DWIDTH 16 0
BBX 16 16 0 -2
BITMAP
0080
0080
7fff
4000
7f10
52fe
5210
5efe
52aa
52aa
5efe
5210
d22a
9ea1
b2a4
029c
ENDCHAR
STARTCHAR ch-241
ENCODING 241
SWIDTH 1000 0
DWIDTH 16 0
BBX 16 16 0 -2
BITMAP
0080
7fff
5240
6492
5254
403f
4f64
4924
4f3f
4024
5fa4
54bf
dfa4
9024
90a4
0fbf
ENDCHAR
STARTCHAR ch-243
ENCODING 243
SWIDTH 1000 0
DWIDTH 16 0
BBX 16 16 0 -2
BITMAP
0080
7fff
4000
7f88
517f
5f08
517f
5f55
517f
7f00
417f
5d08
c915
9d51
8952
1d4e
ENDCHAR
STARTCHAR ch-244
ENCODING 244
SWIDTH 1000 0
DWIDTH 16 0
BBX 16 16 0 -2
BITMAP
0000
fc00
0800
1000
2000
7800
0800
4800
5800
5000
7000
2000
2000
7000
5c00
c7ff
ENDCHAR
STARTCHAR ch-246
ENCODING 246
SWIDTH 1000 0
DWIDTH 16 0
BBX 16 16 0 -2
BITMAP
0006
fc1c
09f0
1010
2010
7890
089e
0890
4890
6890
2890
3890
13ff
3800
6e00
c3ff
ENDCHAR
STARTCHAR ch-247
ENCODING 247
SWIDTH 1000 0
DWIDTH 16 0
BBX 16 16 0 -2
BITMAP
000c
fc38
09e0
1020
2020
7820
0fff
0820
5820
5020
5020
7020
23fe
7000
5c00
c7ff
ENDCHAR
STARTCHAR ch-248
ENCODING 248
SWIDTH 1000 0
DWIDTH 16 0
BBX 16 16 0 -2
BITMAP
0020
fc20
0820
13fe
2222
7a22
0a22
4bfe
5a22
5222
7222
2222
23fe
7000
5c00
c7ff
ENDCHAR
STARTCHAR ch-250
ENCODING 250
SWIDTH 1000 0
DWIDTH 16 0
BBX 16 16 0 -2
BITMAP
0020
fdfc
0824
1024
23ff
7824
0824
09fc
5820
51fe
5020
73ff
2020
7020
5c00
c7ff
ENDCHAR
STARTCHAR ch-251
ENCODING 251
SWIDTH 1000 0
DWIDTH 16 0
BBX 16 16 0 -2
BITMAP
0000
fdfe
0902
1102
217a
794a
094a
094a
494a
697a
2902
3902
11fe
3800
6e00
c3ff
ENDCHAR
STARTCHAR ch-252
ENCODING 252
SWIDTH 1000 0
DWIDTH 16 0
BBX 16 16 0 -2
BITMAP
0000
fbff
0850
1050
21fe
7952
0952
0952
495e
6982
3902
1102
39fe
2c00
6700
c1ff
ENDCHAR
STARTCHAR ch-254
ENCODING 254
SWIDTH 1000 0
DWIDTH 16 0
BBX 16 16 0 -2
BITMAP
0810
0810
0810
0810
0810
0810
ffff
0810
0810
0810
0810
1810
1010
3010
6010
c010
ENDCHAR
STARTCHAR ch-255
ENCODING 255
SWIDTH 1000 0
DWIDTH 16 0
BBX 16 16 0 -2
BITMAP
0810
0810
0810
0810
ffff
0810
0810
0810
0810
0810
0810
0810
0810
0810
0810
0ff0
ENDCHAR
STARTCHAR ch-257
ENCODING 257
SWIDTH 1000 0
DWIDTH 16 0
BBX 16 16 0 -2
BITMAP
0400
0410
0c10
08f8
1f8c
7006
0420
0420
ffff
0420
0420
0c20
0820
1820
3020
6020
ENDCHAR
STARTCHAR ch-259
ENCODING 259
SWIDTH 1000 0
DWIDTH 16 0
BBX 16 16 0 -2
BITMAP
0100
0100
ffff
0400
0c10
09f8
3f2c
0420
0420
ffff
0420
0420
0c20
0820
1820
7020
ENDCHAR
STARTCHAR ch-260
ENCODING 260
SWIDTH 1000 0
DWIDTH 16 0
BBX 16 16 0 -2
BITMAP
0000
3ffc
0100
0100
1ff8
0100
0100
7ffe
0810
0810
ffff
0810
1810
1010
3010
6010
ENDCHAR
STARTCHAR ch-265
ENCODING 265
SWIDTH 1000 0
DWIDTH 16 0
BBX 16 16 0 -2
BITMAP
0820
4820
6820
2fff
0820
3820
e820
0bfe
0800
0410
ffff
0410
0410
0c10
1810
7010
ENDCHAR
STARTCHAR ch-266
ENCODING 266
SWIDTH 1000 0
DWIDTH 16 0
BBX 16 16 0 -2
BITMAP
4920
6b20
2a7f
7f44
49ec
5d38
6b10
493c
4b67
0000
0420
ffff
0420
0c20
1820
7020
ENDCHAR
STARTCHAR ch-267
ENCODING 267
SWIDTH 1000 0
DWIDTH 16 0
BBX 16 16 0 -2
BITMAP
0110
0118
0108
0100
ffff
0100
0100
0180
0080
0080
00c0
0040
0060
0031
001b
000e
ENDCHAR
STARTCHAR ch-268
ENCODING 268
SWIDTH 1000 0
DWIDTH 16 0
BBX 16 16 0 -2
BITMAP
004c
0046
0042
0040
ffff
0040
0040
0040
0060
0020
0020
ff30
0011
001b
000e
0004
ENDCHAR
STARTCHAR ch-269
ENCODING 269
SWIDTH 1000 0
DWIDTH 16 0
BBX 16 16 0 -2
BITMAP
004c
0046
0042
ffff
0040
0040
0040
7f40
0060
0020
0020
0030
0011
ff9b
000e
0004
ENDCHAR
STARTCHAR ch-271
ENCODING 271
SWIDTH 1000 0
DWIDTH 16 0
BBX 16 16 0 -2
BITMAP
0024
0026
0022
0020
ffff
0020
0020
7f20
0830
0810
0810
0818
0b88
3e0d
e007
0002
ENDCHAR
STARTCHAR ch-272
ENCODING 272
SWIDTH 1000 0
DWIDTH 16 0
BBX 16 16 0 -2
BITMAP
004c
3e46
0042
0040
ffff
0020
0020
0020
7f30
0010
0010
0018
0388
3e0d
e007
0002
ENDCHAR
STARTCHAR ch-273
ENCODING 273
SWIDTH 1000 0
DWIDTH 16 0
BBX 16 16 0 -2
BITMAP
040a
440b
2809
1008
2bff
4408
9008
13e8
fc88
1088
3888
348c
50e4
9385
1007
1002
ENDCHAR
STARTCHAR ch-275
ENCODING 275
SWIDTH 1000 0
DWIDTH 16 0
BBX 16 16 0 -2
BITMAP
0000
7ffc
0004
0004
0004
3ffc
2000
2000
2000
3ffe
0002
0002
0006
0004
000c
0078
ENDCHAR
STARTCHAR ch-276
ENCODING 276
SWIDTH 1000 0
DWIDTH 16 0
BBX 16 16 0 -2
BITMAP
0000
fffc
0104
0104
0104
7ffc
4100
4100
4100
7ffe
0102
0102
0106
0104
011c
0100
ENDCHAR
STARTCHAR ch-277
ENCODING 277
SWIDTH 1000 0
DWIDTH 16 0
BBX 16 16 0 -2
BITMAP
0004
ff04
0104
0104
0104
7f04
4004
4004
4004
7f04
0104
0104
0304
0204
0604
3c04
ENDCHAR
STARTCHAR ch-278
ENCODING 278
SWIDTH 1000 0
DWIDTH 16 0
BBX 16 16 0 -2
BITMAP
0000
7ff8
0008
0008
3ff8
2000
2000
3ffc
0004
000c
0008
0018
00f0
0000
ffff
0000
ENDCHAR
STARTCHAR ch-279
ENCODING 279
SWIDTH 1000 0
DWIDTH 16 0
BBX 16 16 0 -2
BITMAP
0420
0420
fffe
0422
0422
7ffe
4420
4420
7fff
0421
0421
0c23
0822
182e
3020
e020
ENDCHAR
STARTCHAR ch-280
ENCODING 280
SWIDTH 1000 0
DWIDTH 16 0
BBX 16 16 0 -2
BITMAP
0010
fe10
0210
0210
0230
7e20
4020
4020
4060
7e44
0244
0246
06c2
0482
0c9f
79f1
ENDCHAR
STARTCHAR ch-283
ENCODING 283
SWIDTH 1000 0
DWIDTH 16 0
BBX 16 16 0 -2
BITMAP
0020
f920
0920
0926
093a
7962
41a2
4722
4122
7922
0926
0920
0900
1901
1183
70fe
ENDCHAR
STARTCHAR ch-287
ENCODING 287
SWIDTH 1000 0
DWIDTH 16 0
BBX 16 16 0 -2
BITMAP
1010
0820
fffc
0104
0104
3ffc
2100
2100
3ffe
0302
0502
0d02
1906
3104
e11c
0100
ENDCHAR
STARTCHAR ch-293
ENCODING 293
SWIDTH 1000 0
DWIDTH 16 0
BBX 16 16 0 -2
BITMAP
0080
f880
0880
09ff
0910
7b10
4010
4010
4092
7892
0892
0993
0911
1810
1010
7070
ENDCHAR
STARTCHAR ch-294
ENCODING 294
SWIDTH 1000 0
DWIDTH 16 0
BBX 16 16 0 -2
BITMAP
0020
f820
0820
0bff
0820
7860
40c4
418c
40c8
7858
0830
0864
0846
18c2
119f
73f1
ENDCHAR
STARTCHAR ch-295
ENCODING 295
SWIDTH 1000 0
DWIDTH 16 0
BBX 16 16 0 -2
BITMAP
0006
f03c
13e4
1204
1244
f244
8244
8244
8244
f244
1244
1254
1256
167a
35ca
ec03
ENDCHAR
STARTCHAR ch-297
ENCODING 297
SWIDTH 1000 0
DWIDTH 16 0
BBX 16 16 0 -2
BITMAP
0800
0800
ff7e
1122
2314
7e08
0b14
3123
dff8
0008
1ff8
1000
1ffc
0004
000c
0038
ENDCHAR
STARTCHAR ch-301
ENCODING 301
SWIDTH 1000 0
DWIDTH 16 0
BBX 16 16 0 -2
BITMAP
0000
fbff
0884
0884
08fc
7884
4084
4084
40fc
7884
0884
0884
08fc
0b84
1804
7004
ENDCHAR
STARTCHAR ch-303
ENCODING 303
SWIDTH 1000 0
DWIDTH 16 0
BBX 16 16 0 -2
BITMAP
0100
0100
ffff
0420
2424
6426
c823
0000
7ff8
0008
3ff8
2000
3ffc
0004
000c
0038
ENDCHAR
STARTCHAR ch-305
ENCODING 305
SWIDTH 1000 0
DWIDTH 16 0
BBX 16 16 0 -2
BITMAP
0000
fefe
0202
0202
7e7e
4040
4040
7e7e
0202
6262
3232
0e0e
3232
c6c6
0404
1c1c
ENDCHAR
STARTCHAR ch-309
ENCODING 309
SWIDTH 1000 0
DWIDTH 16 0
BBX 16 16 0 -2
BITMAP
0000
f9fe
0900
09fc
0900
79fc
4100
4100
47ff
7922
0936
0914
0918
190c
11e6
7703
ENDCHAR
STARTCHAR ch-311
ENCODING 311
SWIDTH 1000 0
DWIDTH 16 0
BBX 16 16 0 -2
BITMAP
0080
f884
0984
093e
0be3
7820
43fe
4222
4222
7a22
0bfe
0820
0822
1822
10ff
7781
ENDCHAR
STARTCHAR ch-312
ENCODING 312
SWIDTH 1000 0
DWIDTH 16 0
BBX 16 16 0 -2
BITMAP
0000
fbde
0a52
0a52
0a52
7bde
4252
4252
4252
7bde
0a52
0a52
0a52
1a52
12d2
7426
ENDCHAR
STARTCHAR ch-316
ENCODING 316
SWIDTH 1000 0
DWIDTH 16 0
BBX 16 16 0 -2
BITMAP
0000
f7de
1102
1102
17c2
744e
4448
4448
4448
77ce
1442
1442
1442
3446
27c4
e01c
ENDCHAR
STARTCHAR ch-318
ENCODING 318
SWIDTH 1000 0
DWIDTH 16 0
BBX 16 16 0 -2
BITMAP
0242
fb66
0924
0bfe
0a22
7a22
43fe
4222
4222
7bfe
0820
0820
0fff
1820
1020
7020
ENDCHAR
STARTCHAR ch-321
ENCODING 321
SWIDTH 1000 0
DWIDTH 16 0
BBX 16 16 0 -2
BITMAP
0000
fbff
0804
09e4
0924
7924
41e4
400c
4000
7bff
0804
09e4
0924
0924
19e4
700c
ENDCHAR
STARTCHAR ch-328
ENCODING 328
SWIDTH 1000 0
DWIDTH 16 0
BBX 16 16 0 -2
BITMAP
03de
fa52
0bde
0800
09fc
7924
4124
41fc
4124
7924
09fc
0820
0fff
0820
1820
7020
ENDCHAR
STARTCHAR ch-330
ENCODING 330
SWIDTH 1000 0
DWIDTH 16 0
BBX 16 16 0 -2
BITMAP
0000
f7ff
1000
13fe
1222
73fe
4222
47ff
4000
73fe
1222
13fe
1222
33fe
2000
e7ff
ENDCHAR
STARTCHAR ch-332
ENCODING 332
SWIDTH 1000 0
DWIDTH 16 0
BBX 16 16 0 -2
BITMAP
0000
f7ff
1124
1222
17ff
7222
4376
42aa
4376
7222
1376
12aa
1376
3222
2222
e226
ENDCHAR
STARTCHAR ch-334
ENCODING 334
SWIDTH 1000 0
DWIDTH 16 0
BBX 16 16 0 -2
BITMAP
2104
47e8
d01a
23c4
4809
fbdf
2244
abd5
a815
1ff8
0008
3ff8
2000
3ffc
0004
003c
ENDCHAR
STARTCHAR ch-337
ENCODING 337
SWIDTH 1000 0
DWIDTH 16 0
BBX 16 16 0 -2
BITMAP
0400
0400
0400
0400
0ff8
0808
0818
0810
1810
1010
1ff0
0020
0020
0020
ffff
0000
ENDCHAR
STARTCHAR ch-339
ENCODING 339
SWIDTH 1000 0
DWIDTH 16 0
BBX 16 16 0 -2
BITMAP
0100
2104
310c
1918
0910
0100
3ffc
0004
0004
0004
3ffc
0004
0004
0004
3ffc
0000
ENDCHAR
STARTCHAR ch-342
ENCODING 342
SWIDTH 1000 0
DWIDTH 16 0
BBX 16 16 0 -2
BITMAP
0400
0ff0
0810
1ff0
0020
ffff
0200
0d06
718c
0698
1cc0
71e0
06b0
1c9c
f187
0700
ENDCHAR
STARTCHAR ch-343
ENCODING 343
SWIDTH 1000 0
DWIDTH 16 0
BBX 16 16 0 -2
BITMAP
1008
1008
fe7f
1008
7c3e
1008
1e7f
f008
1008
0000
3ffc
0004
3ffc
0004
0004
3ffc
ENDCHAR
STARTCHAR ch-345
ENCODING 345
SWIDTH 1000 0
DWIDTH 16 0
BBX 16 16 0 -2
BITMAP
0400
0ff0
0810
1ff0
0020
ffff
0000
7ffe
510a
5ffa
1108
1ff8
0100
ffff
0d30
f10f
ENDCHAR
STARTCHAR ch-348
ENCODING 348
SWIDTH 1000 0
DWIDTH 16 0
BBX 16 16 0 -2
BITMAP
0400
0ff8
0810
1ff0
0020
ffff
1024
5442
febd
3814
5424
92cc
0420
ffff
0820
3020
ENDCHAR
STARTCHAR ch-349
ENCODING 349
SWIDTH 1000 0
DWIDTH 16 0
BBX 16 16 0 -2
BITMAP
0400
0ff8
0810
1ff0
0020
ffff
1010
5464
fe19
39ff
5454
9292
0420
ffff
0820
3020
ENDCHAR
STARTCHAR ch-353
ENCODING 353
SWIDTH 1000 0
DWIDTH 16 0
BBX 16 16 0 -2
BITMAP
0010
0030
00e0
0380
1e00
0010
0030
00e0
0380
1e00
0008
0018
0030
00e0
0380
1e00
ENDCHAR
STARTCHAR ch-354
ENCODING 354
SWIDTH 1000 0
DWIDTH 16 0
BBX 16 16 0 -2
BITMAP
0002
ff86
220c
2218
2230
2202
ff86
220c
2218
2230
2201
2203
6206
420c
4218
c270
ENDCHAR
STARTCHAR ch-358
ENCODING 358
SWIDTH 1000 0
DWIDTH 16 0
BBX 16 16 0 -2
BITMAP
0080
0080
7fff
0410
0220
3ffe
2000
2030
20e0
2f8c
2038
21e0
6f06
401c
c0f0
0f80
ENDCHAR
STARTCHAR ch-361
ENCODING 361
SWIDTH 1000 0
DWIDTH 16 0
BBX 16 16 0 -2
BITMAP
0304
0e0c
f818
1130
9b60
ca02
4006
080c
ff18
0870
1801
1e03
2b06
680c
c818
0870
ENDCHAR
STARTCHAR ch-362
ENCODING 362
SWIDTH 1000 0
DWIDTH 16 0
BBX 16 16 0 -2
BITMAP
0804
0f0c
0818
7fb0
4882
4f06
780c
4918
4731
4003
5206
520c
5238
d201
9303
21fe
ENDCHAR
STARTCHAR ch-363
ENCODING 363
SWIDTH 1000 0
DWIDTH 16 0
BBX 16 16 0 -2
BITMAP
0002
7fc6
4044
444c
5f59
4443
4442
5f46
404c
5f58
5141
5143
5f42
4046
c04c
81d8
ENDCHAR
STARTCHAR ch-364
ENCODING 364
SWIDTH 1000 0
DWIDTH 16 0
BBX 16 16 0 -2
BITMAP
2104
210c
2108
ffd8
2132
2106
7384
6b4c
a518
a531
2103
2102
2106
210c
2118
2130
ENDCHAR
STARTCHAR ch-365
ENCODING 365
SWIDTH 1000 0
DWIDTH 16 0
BBX 16 16 0 -2
BITMAP
0804
080c
7f18
0830
0862
ff86
0004
7f0c
4118
4131
7f03
2202
3206
178c
3c18
e070
ENDCHAR
STARTCHAR ch-368
ENCODING 368
SWIDTH 1000 0
DWIDTH 16 0
BBX 16 16 0 -2
BITMAP
0804
080c
ff88
4118
2232
ff86
0004
7f0c
4118
7f31
4103
7f02
0806
ff8c
0818
0870
ENDCHAR
STARTCHAR ch-369
ENCODING 369
SWIDTH 1000 0
DWIDTH 16 0
BBX 16 16 0 -2
BITMAP
0002
7f06
410c
7f18
4130
7f02
0806
ff8c
0018
7f30
4101
7f03
0806
490c
8898
1830
ENDCHAR
STARTCHAR ch-371
ENCODING 371
SWIDTH 1000 0
DWIDTH 16 0
BBX 16 16 0 -2
BITMAP
0020
0060
00c0
0180
0310
0e30
3860
00c0
0380
0f00
3900
0100
0100
0100
0100
0100
ENDCHAR
STARTCHAR ch-375
ENCODING 375
SWIDTH 1000 0
DWIDTH 16 0
BBX 16 16 0 -2
BITMAP
0820
1820
3020
67ff
c080
0880
1880
30fe
6082
e082
2082
2082
2182
2106
2304
261c
ENDCHAR
STARTCHAR ch-377
ENCODING 377
SWIDTH 1000 0
DWIDTH 16 0
BBX 16 16 0 -2
BITMAP
0800
19f8
3108
6108
c908
1b0f
3600
6000
e3fc
2104
218c
20d8
2070
20d8
218c
2707
ENDCHAR
STARTCHAR ch-380
ENCODING 380
SWIDTH 1000 0
DWIDTH 16 0
BBX 16 16 0 -2
BITMAP
0820
1820
3020
63ff
ca21
1a22
3220
63fe
e282
22c6
224c
2678
2430
2c78
20cc
2387
ENDCHAR
STARTCHAR ch-383
ENCODING 383
SWIDTH 1000 0
DWIDTH 16 0
BBX 16 16 0 -2
BITMAP
1090
3090
27fe
6092
c092
17fe
3490
2490
67ff
e091
2091
2093
2192
2116
2310
2610
ENDCHAR
STARTCHAR ch-384
ENCODING 384
SWIDTH 1000 0
DWIDTH 16 0
BBX 16 16 0 -2
BITMAP
08c0
1860
3020
63fe
c820
1820
3020
6020
e3fe
2020
2020
2020
2020
2020
27ff
2000
ENDCHAR
STARTCHAR ch-385
ENCODING 385
SWIDTH 1000 0
DWIDTH 16 0
BBX 16 16 0 -2
BITMAP
0800
1bfe
1020
3020
6020
c920
1920
113e
3120
7120
d120
1120
1120
1120
17ff
1000
ENDCHAR
STARTCHAR ch-386
ENCODING 386
SWIDTH 1000 0
DWIDTH 16 0
BBX 16 16 0 -2
BITMAP
0800
19fc
3104
6104
c904
19fc
3104
6104
e104
21fc
2104
2104
2104
2104
27ff
2000
ENDCHAR
STARTCHAR ch-387
ENCODING 387
SWIDTH 1000 0
DWIDTH 16 0
BBX 16 16 0 -2
BITMAP
1020
3120
2120
6120
c3fe
1220
3620
2020
6020
e1fc
2020
2020
2020
2020
27ff
2000
ENDCHAR
STARTCHAR ch-388
ENCODING 388
SWIDTH 1000 0
DWIDTH 16 0
BBX 16 16 0 -2
BITMAP
1000
37fc
6104
c18c
00d8
1070
31dc
6707
e020
2020
23fe
2020
2020
2020
27ff
2000
ENDCHAR
STARTCHAR ch-389
ENCODING 389
SWIDTH 1000 0
DWIDTH 16 0
BBX 16 16 0 -2
BITMAP
1020
3020
23fe
6020
c020
1020
37ff
2004
6004
e7ff
2104
2184
2084
2004
2004
201c
ENDCHAR
STARTCHAR ch-391
ENCODING 391
SWIDTH 1000 0
DWIDTH 16 0
BBX 16 16 0 -2
BITMAP
1100
3100
21fe
6302
c202
17f2
3112
2112
61f2
e112
2112
2112
21f2
2006
2004
201c
ENDCHAR
STARTCHAR ch-392
ENCODING 392
SWIDTH 1000 0
DWIDTH 16 0
BBX 16 16 0 -2
BITMAP
0800
1bfc
3204
6204
cbfc
1a04
3204
63fc
e221
2223
2236
2210
2218
220c
23c6
2e03
ENDCHAR
STARTCHAR ch-394
ENCODING 394
SWIDTH 1000 0
DWIDTH 16 0
BBX 16 16 0 -2
BITMAP
1000
37fe
2402
6402
c4f2
1492
3492
2492
6492
e492
24f2
2402
2402
2402
27fe
2000
ENDCHAR
STARTCHAR ch-395
ENCODING 395
SWIDTH 1000 0
DWIDTH 16 0
BBX 16 16 0 -2
BITMAP
1020
33fe
2022
6022
c7ff
1022
3022
23fe
6020
e020
23fe
2020
2020
27ff
2020
2020
ENDCHAR
STARTCHAR ch-396
ENCODING 396
SWIDTH 1000 0
DWIDTH 16 0
BBX 16 16 0 -2
BITMAP
0840
18c0
3188
6318
c9b0
1864
30c2
67ff
e081
21fc
2304
268c
20d8
2070
21dc
2707
ENDCHAR
STARTCHAR ch-400
ENCODING 400
SWIDTH 1000 0
DWIDTH 16 0
BBX 16 16 0 -2
BITMAP
1040
30e0
20a0
61b0
c318
160c
3df7
2040
6040
e7fc
2040
2248
2248
264c
2c46
21c0
ENDCHAR
STARTCHAR ch-401
ENCODING 401
SWIDTH 1000 0
DWIDTH 16 0
BBX 16 16 0 -2
BITMAP
1000
33fe
2000
6124
c124
1248
3248
2124
6124
e000
23fe
2020
2020
2020
27ff
2000
ENDCHAR
STARTCHAR ch-402
ENCODING 402
SWIDTH 1000 0
DWIDTH 16 0
BBX 16 16 0 -2
BITMAP
1020
3020
23fe
6020
c020
1020
37ff
2020
6020
e120
213e
2120
23a0
22a0
2660
2c3f
ENDCHAR
STARTCHAR ch-403
ENCODING 403
SWIDTH 1000 0
DWIDTH 16 0
BBX 16 16 0 -2
BITMAP
1104
318c
2088
6088
c7ff
1020
3020
2120
613e
e120
2120
2120
23a0
22e0
2638
2c0f
ENDCHAR
STARTCHAR ch-407
ENCODING 407
SWIDTH 1000 0
DWIDTH 16 0
BBX 16 16 0 -2
BITMAP
0800
19fc
3104
61fc
c904
1904
31fc
6000
e7ff
2008
27ff
2108
2188
2088
2008
2038
ENDCHAR
STARTCHAR ch-408
ENCODING 408
SWIDTH 1000 0
DWIDTH 16 0
BBX 16 16 0 -2
BITMAP
1090
3090
2090
679f
c090
1090
3090
279e
6090
e090
2390
2e9f
2090
2190
2310
2610
ENDCHAR
STARTCHAR ch-409
ENCODING 409
SWIDTH 1000 0
DWIDTH 16 0
BBX 16 16 0 -2
BITMAP
0820
1920
313e
6120
c920
1920
37ff
6020
e020
2120
213e
2120
23a0
22a0
2660
2c3f
ENDCHAR
STARTCHAR ch-414
ENCODING 414
SWIDTH 1000 0
DWIDTH 16 0
BBX 16 16 0 -2
BITMAP
1104
3104
2104
638e
c28a
16db
3000
2020
6120
e120
213e
2120
23a0
22e0
2638
2c0f
ENDCHAR
STARTCHAR ch-416
ENCODING 416
SWIDTH 1000 0
DWIDTH 16 0
BBX 16 16 0 -2
BITMAP
1020
3020
27ff
6020
c124
1124
3124
23ae
62aa
e673
2070
20a8
21ac
2326
2623
2020
ENDCHAR
STARTCHAR ch-417
ENCODING 417
SWIDTH 1000 0
DWIDTH 16 0
BBX 16 16 0 -2
BITMAP
1200
320f
23e9
6489
c489
1089
37e9
2089
6089
e4e9
2489
2489
24eb
2788
2c08
2008
ENDCHAR
STARTCHAR ch-424
ENCODING 424
SWIDTH 1000 0
DWIDTH 16 0
BBX 16 16 0 -2
BITMAP
0820
1840
31fc
6104
c9fc
1904
3104
61fc
e000
23fe
2020
21fc
2020
2020
27ff
2000
ENDCHAR
STARTCHAR ch-425
ENCODING 425
SWIDTH 1000 0
DWIDTH 16 0
BBX 16 16 0 -2
BITMAP
1100
3100
23ff
6600
c1fc
1104
31fc
2104
61fc
e080
21f8
2308
26d8
2070
21dc
2707
ENDCHAR
STARTCHAR ch-426
ENCODING 426
SWIDTH 1000 0
DWIDTH 16 0
BBX 16 16 0 -2
BITMAP
1006
303c
23e0
6210
c3ff
1210
32fe
2282
6282
e2fe
2282
2682
24fe
2c82
2082
20fe
ENDCHAR
STARTCHAR ch-429
ENCODING 429
SWIDTH 1000 0
DWIDTH 16 0
BBX 16 16 0 -2
BITMAP
0840
187c
30c4
61ac
cb58
1830
30c0
6700
e1fe
2220
2020
27ff
2020
2222
2222
23fe
ENDCHAR
STARTCHAR ch-430
ENCODING 430
SWIDTH 1000 0
DWIDTH 16 0
BBX 16 16 0 -2
BITMAP
1108
3548
2548
654f
c7da
1012
300a
2fea
628a
e28e
2284
22a4
26ce
248a
2c1b
2011
ENDCHAR
STARTCHAR ch-435
ENCODING 435
SWIDTH 1000 0
DWIDTH 16 0
BBX 16 16 0 -2
BITMAP
1040
3040
2fff
6040
c7fe
1492
3492
2492
67fe
e000
20c0
2166
2523
2505
2d8c
28f8
ENDCHAR
STARTCHAR ch-436
ENCODING 436
SWIDTH 1000 0
DWIDTH 16 0
BBX 16 16 0 -2
BITMAP
1108
3548
2548
655f
c7d2
1032
300a
27ca
610a
e10e
27c4
2104
210e
21ca
271b
2011
ENDCHAR
STARTCHAR ch-441
ENCODING 441
SWIDTH 1000 0
DWIDTH 16 0
BBX 16 16 0 -2
BITMAP
1108
3108
2fe8
620f
c29a
14d2
374a
200a
67ca
e44e
27c4
2444
27ce
244a
244a
24db
ENDCHAR
STARTCHAR ch-444
ENCODING 444
SWIDTH 1000 0
DWIDTH 16 0
BBX 16 16 0 -2
BITMAP
1108
3208
27c8
645f
c7d2
1472
37ca
210a
6fea
e20e
23c4
2244
224e
264a
245b
2dd1
ENDCHAR
STARTCHAR ch-445
ENCODING 445
SWIDTH 1000 0
DWIDTH 16 0
BBX 16 16 0 -2
BITMAP
1108
3548
2548
655f
c7d2
1132
320a
268a
610e
e244
27c4
2104
254e
254a
295b
2111
ENDCHAR
STARTCHAR ch-451
ENCODING 451
SWIDTH 1000 0
DWIDTH 16 0
BBX 16 16 0 -2
BITMAP
0000
0300
0180
00c0
0440
0400
0400
240c
2406
2402
640b
4409
c418
0610
03f0
0000
ENDCHAR
STARTCHAR ch-453
ENCODING 453
SWIDTH 1000 0
DWIDTH 16 0
BBX 16 16 0 -2
BITMAP
0300
0188
0088
0418
0410
0430
2424
2466
2442
64c3
4581
c704
040c
1e08
f3f8
0000
ENDCHAR
STARTCHAR ch-460
ENCODING 460
SWIDTH 1000 0
DWIDTH 16 0
BBX 16 16 0 -2
BITMAP
0000
3ff8
0008
0008
3ff8
2000
2002
3006
1ffc
0000
0180
24c6
2443
6409
4618
c3f0
ENDCHAR
STARTCHAR ch-461
ENCODING 461
SWIDTH 1000 0
DWIDTH 16 0
BBX 16 16 0 -2
BITMAP
0000
7ffe
0082
1882
0d82
0302
0706
1d84
709c
0000
0180
04c0
2446
240b
6619
c3f0
ENDCHAR
STARTCHAR ch-470
ENCODING 470
SWIDTH 1000 0
DWIDTH 16 0
BBX 16 16 0 -2
BITMAP
1008
1008
1008
53ff
5808
5408
d408
9188
10c8
1048
1008
1008
1008
1008
1008
1038
ENDCHAR
STARTCHAR ch-471
ENCODING 471
SWIDTH 1000 0
DWIDTH 16 0
BBX 16 16 0 -2
BITMAP
0100
0100
0100
ffff
0100
0100
0100
7ffe
0000
0180
04c0
2446
2403
6409
c618
03f0
ENDCHAR
STARTCHAR ch-472
ENCODING 472
SWIDTH 1000 0
DWIDTH 16 0
BBX 16 16 0 -2
BITMAP
0100
0100
0100
ffff
1000
1000
1000
1800
0ffc
0000
0180
04c0
2446
240b
6619
c3f0
ENDCHAR
STARTCHAR ch-473
ENCODING 473
SWIDTH 1000 0
DWIDTH 16 0
BBX 16 16 0 -2
BITMAP
1020
1020
1020
53ff
5880
5480
d480
9080
1080
1080
1080
1080
1080
10c0
107e
1000
ENDCHAR
STARTCHAR ch-476
ENCODING 476
SWIDTH 1000 0
DWIDTH 16 0
BBX 16 16 0 -2
BITMAP
0080
0080
3fff
2000
20c0
2060
2130
2110
2500
2504
2506
2d03
6901
4904
c18c
00f8
ENDCHAR
STARTCHAR ch-477
ENCODING 477
SWIDTH 1000 0
DWIDTH 16 0
BBX 16 16 0 -2
BITMAP
0018
00f0
3f80
0200
0200
ffff
0420
0c30
3a1c
e207
0200
1248
126c
3236
6212
0e00
ENDCHAR
STARTCHAR ch-480
ENCODING 480
SWIDTH 1000 0
DWIDTH 16 0
BBX 16 16 0 -2
BITMAP
0100
0100
3ffc
2104
2104
2104
2104
3ffc
0100
0100
0000
2586
24c3
6445
460c
c3f8
ENDCHAR
STARTCHAR ch-484
ENCODING 484
SWIDTH 1000 0
DWIDTH 16 0
BBX 16 16 0 -2
BITMAP
1100
1100
11fe
5320
5a20
5420
d020
97ff
1020
1020
1020
1020
1020
1020
1020
1020
ENDCHAR
STARTCHAR ch-491
ENCODING 491
SWIDTH 1000 0
DWIDTH 16 0
BBX 16 16 0 -2
BITMAP
1040
1040
1040
13fc
5844
5444
5444
d044
97ff
10a0
10a0
10b0
1190
1118
130c
1607
ENDCHAR
STARTCHAR ch-496
ENCODING 496
SWIDTH 1000 0
DWIDTH 16 0
BBX 16 16 0 -2
BITMAP
1040
1040
13f8
5048
58c8
5489
d189
9307
1020
1020
17ff
1020
1020
1020
1020
1020
ENDCHAR
STARTCHAR ch-497
ENCODING 497
SWIDTH 1000 0
DWIDTH 16 0
BBX 16 16 0 -2
BITMAP
1020
1020
1020
53ff
5221
5a21
d420
9020
1020
1070
1050
1050
10d0
1091
1193
130e
ENDCHAR
STARTCHAR ch-501
ENCODING 501
SWIDTH 1000 0
DWIDTH 16 0
BBX 16 16 0 -2
BITMAP
0100
0380
06c0
0c70
381c
e7e7
0000
1ff8
0010
0030
0020
0580
24c6
244b
6619
c3f0
ENDCHAR
STARTCHAR ch-504
ENCODING 504
SWIDTH 1000 0
DWIDTH 16 0
BBX 16 16 0 -2
BITMAP
1000
11fc
1044
5044
5844
5444
d444
93ff
1044
1044
1044
1044
1044
1044
13ff
1000
ENDCHAR
STARTCHAR ch-507
ENCODING 507
SWIDTH 1000 0
DWIDTH 16 0
BBX 16 16 0 -2
BITMAP
1006
101c
11f0
5100
5900
55ff
d508
9108
1108
1108
1108
1108
1308
1208
1608
1008
ENDCHAR
STARTCHAR ch-509
ENCODING 509
SWIDTH 1000 0
DWIDTH 16 0
BBX 16 16 0 -2
BITMAP
0400
0400
0ffe
1922
7322
0662
1cc2
7186
0704
3c1c
0180
00c6
2443
2409
6618
c3f0
ENDCHAR
STARTCHAR ch-511
ENCODING 511
SWIDTH 1000 0
DWIDTH 16 0
BBX 16 16 0 -2
BITMAP
0420
0c30
1818
300c
ffff
0208
0608
0c18
1810
7070
0000
0580
24c6
244b
6619
c3f0
ENDCHAR
ENDFONT
