STARTFONT 2.1
FONT jis.jis7400.16
SIZE 16 72 72
FONTBOUNDINGBOX 16 16 0 -2
STARTPROPERTIES 4
FONT_DESCENT 2
FONT_ASCENT 14
DEFAULT_CHAR 3
COPYRIGHT "Copyright (c) 1992 AT&T - All rights reserved."
ENDPROPERTIES
CHARS 164
STARTCHAR ch-3
ENCODING 3
SWIDTH 1000 0
DWIDTH 16 0
BBX 16 16 0 -2
BITMAP
0024
0026
f822
27ff
2020
2222
2326
f92c
2020
2030
20b8
21ac
3b26
e623
0020
00e0
ENDCHAR
STARTCHAR ch-5
ENCODING 5
SWIDTH 1000 0
DWIDTH 16 0
BBX 16 16 0 -2
BITMAP
0020
0020
f9fc
2104
2104
21fc
2104
f904
21fd
2113
2116
2118
3908
e10c
01e6
0703
ENDCHAR
STARTCHAR ch-6
ENCODING 6
SWIDTH 1000 0
DWIDTH 16 0
BBX 16 16 0 -2
BITMAP
0000
03fe
fa22
2222
23fe
2222
fa22
23fe
2020
2020
23fe
3820
e020
0020
07ff
0000
ENDCHAR
STARTCHAR ch-9
ENCODING 9
SWIDTH 1000 0
DWIDTH 16 0
BBX 16 16 0 -2
BITMAP
0020
f820
27ff
2080
2084
213e
fbe2
2000
2124
2124
2124
3924
e124
0125
0325
0603
ENDCHAR
STARTCHAR ch-34
ENCODING 34
SWIDTH 1000 0
DWIDTH 16 0
BBX 16 16 0 -2
BITMAP
0000
fbff
2040
20c0
21a2
2326
f874
20d0
2190
2338
2058
38d4
e196
0313
0630
00e0
ENDCHAR
STARTCHAR ch-37
ENCODING 37
SWIDTH 1000 0
DWIDTH 16 0
BBX 16 16 0 -2
BITMAP
0020
003e
f820
23ff
2201
2222
fa38
22e0
2222
221e
2200
3a48
e648
0449
0cc9
0187
ENDCHAR
STARTCHAR ch-50
ENCODING 50
SWIDTH 1000 0
DWIDTH 16 0
BBX 16 16 0 -2
BITMAP
0048
0048
f848
23cf
2048
2048
f848
23cf
2048
2048
2048
39cf
e748
0048
00c8
0188
ENDCHAR
STARTCHAR ch-51
ENCODING 51
SWIDTH 1000 0
DWIDTH 16 0
BBX 16 16 0 -2
BITMAP
0108
f908
2108
27bf
2108
2108
fb9c
235c
252a
252a
2949
2108
3908
e108
0108
0108
ENDCHAR
STARTCHAR ch-52
ENCODING 52
SWIDTH 1000 0
DWIDTH 16 0
BBX 16 16 0 -2
BITMAP
0000
fe7f
1008
7c3e
1008
1e08
f17f
0380
0ee0
3838
e7cf
0000
1ff8
0030
0060
00c0
ENDCHAR
STARTCHAR ch-53
ENCODING 53
SWIDTH 1000 0
DWIDTH 16 0
BBX 16 16 0 -2
BITMAP
0000
fe7f
1008
1008
7c3e
1008
1008
1e7f
f000
2040
2046
3e7c
2040
2041
3e63
e03e
ENDCHAR
STARTCHAR ch-54
ENCODING 54
SWIDTH 1000 0
DWIDTH 16 0
BBX 16 16 0 -2
BITMAP
0000
fe7f
1008
7c3e
1008
fe7f
0000
3ffc
2104
2104
2104
3ffc
2000
2001
3003
1ffe
ENDCHAR
STARTCHAR ch-58
ENCODING 58
SWIDTH 1000 0
DWIDTH 16 0
BBX 16 16 0 -2
BITMAP
0210
0310
f910
207e
2410
2610
2210
f8ff
2020
2120
2120
2160
3b44
e244
025e
06f3
ENDCHAR
STARTCHAR ch-63
ENCODING 63
SWIDTH 1000 0
DWIDTH 16 0
BBX 16 16 0 -2
BITMAP
0000
07ff
fc01
2421
23fe
2020
21fc
f924
21fc
2124
2124
21fc
3820
e7ff
0020
0020
ENDCHAR
STARTCHAR ch-65
ENCODING 65
SWIDTH 1000 0
DWIDTH 16 0
BBX 16 16 0 -2
BITMAP
0000
03ff
fa01
22fd
2201
22fd
fa01
2000
21fe
2102
21fe
3902
e1fe
0102
0102
01fe
ENDCHAR
STARTCHAR ch-85
ENCODING 85
SWIDTH 1000 0
DWIDTH 16 0
BBX 16 16 0 -2
BITMAP
0000
07be
fc82
2482
2482
27be
fc00
247e
27a2
2436
2414
3c1c
e788
041c
0436
0463
ENDCHAR
STARTCHAR ch-89
ENCODING 89
SWIDTH 1000 0
DWIDTH 16 0
BBX 16 16 0 -2
BITMAP
0092
f924
2248
2124
2092
2000
f840
23fe
2202
228a
2252
3a22
e252
028a
0202
03fe
ENDCHAR
STARTCHAR ch-90
ENCODING 90
SWIDTH 1000 0
DWIDTH 16 0
BBX 16 16 0 -2
BITMAP
0100
011f
f911
2111
2ff1
211f
2111
f911
2111
27df
2451
2451
3c51
6451
c7d1
0027
ENDCHAR
STARTCHAR ch-91
ENCODING 91
SWIDTH 1000 0
DWIDTH 16 0
BBX 16 16 0 -2
BITMAP
0088
f888
27ff
2088
2088
2020
fbfe
2222
2222
2222
27ff
2050
38d8
e18c
0306
0603
ENDCHAR
STARTCHAR ch-92
ENCODING 92
SWIDTH 1000 0
DWIDTH 16 0
BBX 16 16 0 -2
BITMAP
0020
0070
f8d8
218c
2777
2000
23c2
fa52
2252
23d2
2252
2252
3bc2
e242
0242
02ce
ENDCHAR
STARTCHAR ch-94
ENCODING 94
SWIDTH 1000 0
DWIDTH 16 0
BBX 16 16 0 -2
BITMAP
0020
0222
fa22
2222
23fe
2000
27ff
f820
2040
23fe
2292
2292
3a92
e292
0292
0296
ENDCHAR
STARTCHAR ch-95
ENCODING 95
SWIDTH 1000 0
DWIDTH 16 0
BBX 16 16 0 -2
BITMAP
0000
fe7f
1008
1008
7c3e
1008
1008
1e7f
f000
0300
01a0
2466
24c3
6589
c618
3bf0
ENDCHAR
STARTCHAR ch-96
ENCODING 96
SWIDTH 1000 0
DWIDTH 16 0
BBX 16 16 0 -2
BITMAP
00c0
fbbf
2209
2209
2289
22d9
fb53
2636
2000
23fe
2222
2222
3bfe
e222
0222
03fe
ENDCHAR
STARTCHAR ch-99
ENCODING 99
SWIDTH 1000 0
DWIDTH 16 0
BBX 16 16 0 -2
BITMAP
0222
fb26
2124
2020
23fe
2202
fa02
23fe
2202
2202
23fe
3a02
e202
03fe
0104
0603
ENDCHAR
STARTCHAR ch-100
ENCODING 100
SWIDTH 1000 0
DWIDTH 16 0
BBX 16 16 0 -2
BITMAP
0020
007c
f8c4
23ac
2058
2030
f8e0
2380
20fe
2120
2020
3bff
e020
0122
0122
01fe
ENDCHAR
STARTCHAR ch-105
ENCODING 105
SWIDTH 1000 0
DWIDTH 16 0
BBX 16 16 0 -2
BITMAP
0810
2952
2a54
1428
2244
0000
7ffe
4002
4002
3ffc
0100
1ff8
0110
0108
ffff
0000
ENDCHAR
STARTCHAR ch-106
ENCODING 106
SWIDTH 1000 0
DWIDTH 16 0
BBX 16 16 0 -2
BITMAP
0000
03fe
fa20
2220
23fc
2220
2220
fbfc
2220
2220
23ff
2001
3aa9
e2a9
0403
0006
ENDCHAR
STARTCHAR ch-111
ENCODING 111
SWIDTH 1000 0
DWIDTH 16 0
BBX 16 16 0 -2
BITMAP
0100
f91f
27d1
2453
2452
27d6
fc54
2456
27d3
2411
2491
3c91
e4d1
0757
0c50
0010
ENDCHAR
STARTCHAR ch-112
ENCODING 112
SWIDTH 1000 0
DWIDTH 16 0
BBX 16 16 0 -2
BITMAP
0020
0040
fbfe
2222
2222
23fe
2222
fa22
23fe
2090
2094
2095
399f
e110
0311
060f
ENDCHAR
STARTCHAR ch-115
ENCODING 115
SWIDTH 1000 0
DWIDTH 16 0
BBX 16 16 0 -2
BITMAP
0104
0088
fbfe
2020
2020
21fc
f820
2020
23fe
2040
2080
39fe
e310
0c10
0010
01ff
ENDCHAR
STARTCHAR ch-118
ENCODING 118
SWIDTH 1000 0
DWIDTH 16 0
BBX 16 16 0 -2
BITMAP
0006
003c
fbe2
2046
2224
2100
23fe
f820
2020
27ff
2020
2020
3a22
e222
0222
03fe
ENDCHAR
STARTCHAR ch-126
ENCODING 126
SWIDTH 1000 0
DWIDTH 16 0
BBX 16 16 0 -2
BITMAP
0088
f888
27ff
2088
2000
23fe
fa22
2222
23fe
2020
23fe
3820
e3fe
0020
07ff
0000
ENDCHAR
STARTCHAR ch-131
ENCODING 131
SWIDTH 1000 0
DWIDTH 16 0
BBX 16 16 0 -2
BITMAP
0020
0020
fbff
2000
214a
2132
f94a
2102
21fe
2020
23ff
3a41
e249
02f5
0201
0203
ENDCHAR
STARTCHAR ch-139
ENCODING 139
SWIDTH 1000 0
DWIDTH 16 0
BBX 16 16 0 -2
BITMAP
0020
0020
fbfe
2104
2088
27ff
f800
21fc
2104
21fc
2104
39fc
e020
07ff
0020
0020
ENDCHAR
STARTCHAR ch-158
ENCODING 158
SWIDTH 1000 0
DWIDTH 16 0
BBX 16 16 0 -2
BITMAP
0050
0252
f954
2050
23fe
2088
f850
23fe
2020
21fc
3820
67ff
c050
00d8
018c
0707
ENDCHAR
STARTCHAR ch-162
ENCODING 162
SWIDTH 1000 0
DWIDTH 16 0
BBX 16 16 0 -2
BITMAP
0000
07ff
f850
23de
2252
2252
fa52
23de
2050
23fe
2222
3a22
e3fe
0222
0222
03fe
ENDCHAR
STARTCHAR ch-167
ENCODING 167
SWIDTH 1000 0
DWIDTH 16 0
BBX 16 16 0 -2
BITMAP
0008
3f7f
2122
3f14
207f
7f08
517f
d108
1f08
0000
7ffe
0100
3ffc
0110
0108
ffff
ENDCHAR
STARTCHAR ch-176
ENCODING 176
SWIDTH 1000 0
DWIDTH 16 0
BBX 16 16 0 -2
BITMAP
0000
03fe
fa92
2292
23fe
2000
27ff
f800
23fe
2202
23fe
2061
38b2
e12c
0623
0020
ENDCHAR
STARTCHAR ch-189
ENCODING 189
SWIDTH 1000 0
DWIDTH 16 0
BBX 16 16 0 -2
BITMAP
ffff
2104
7ffe
d52b
4912
552a
4102
552a
4912
552a
0000
7ffe
0100
3ffc
0110
ffff
ENDCHAR
STARTCHAR ch-202
ENCODING 202
SWIDTH 1000 0
DWIDTH 16 0
BBX 16 16 0 -2
BITMAP
0080
00f8
f910
27fe
2222
2252
f9fc
2104
21fc
2104
21fc
3880
e1fe
068c
0070
078f
ENDCHAR
STARTCHAR ch-207
ENCODING 207
SWIDTH 1000 0
DWIDTH 16 0
BBX 16 16 0 -2
BITMAP
0108
f108
2fef
2448
228f
2fe1
f00f
27c8
244f
27c8
244f
27c8
744f
c448
0449
04c7
ENDCHAR
STARTCHAR ch-212
ENCODING 212
SWIDTH 1000 0
DWIDTH 16 0
BBX 16 16 0 -2
BITMAP
0000
03de
fa52
23de
2252
23de
fa52
23de
2154
2222
3880
67ff
c104
03c8
007c
03c6
ENDCHAR
STARTCHAR ch-220
ENCODING 220
SWIDTH 1000 0
DWIDTH 16 0
BBX 16 16 0 -2
BITMAP
000c
0078
3fc8
2008
2108
2108
2108
2108
2108
210c
2104
2124
2124
61f6
4f12
c003
ENDCHAR
STARTCHAR ch-224
ENCODING 224
SWIDTH 1000 0
DWIDTH 16 0
BBX 16 16 0 -2
BITMAP
1006
101c
fef4
2884
2ca4
66a4
c3a4
3ca4
00a4
ffa4
20a4
7ea4
02a6
02aa
06ba
1d6b
ENDCHAR
STARTCHAR ch-226
ENCODING 226
SWIDTH 1000 0
DWIDTH 16 0
BBX 16 16 0 -2
BITMAP
0006
fe1c
2874
fe54
aa54
aa54
fe54
0054
7c54
0054
fe54
1054
5454
54dd
92b7
3182
ENDCHAR
STARTCHAR ch-227
ENCODING 227
SWIDTH 1000 0
DWIDTH 16 0
BBX 16 16 0 -2
BITMAP
2034
27e4
fc3f
552a
552a
552a
fd3f
2524
2524
fd3f
2524
2524
2524
6d24
4954
dbd4
ENDCHAR
STARTCHAR ch-230
ENCODING 230
SWIDTH 1000 0
DWIDTH 16 0
BBX 16 16 0 -2
BITMAP
0000
ffff
0400
0400
0400
0fe0
0820
0820
0a20
0b20
1920
1020
1020
13a1
3e33
e01e
ENDCHAR
STARTCHAR ch-231
ENCODING 231
SWIDTH 1000 0
DWIDTH 16 0
BBX 16 16 0 -2
BITMAP
0010
fe10
4010
4010
4010
7c10
45ff
4410
6410
5410
5410
4410
4410
5c11
7603
c3fe
ENDCHAR
STARTCHAR ch-233
ENCODING 233
SWIDTH 1000 0
DWIDTH 16 0
BBX 16 16 0 -2
BITMAP
0006
fe1c
40f0
4010
4010
7c10
45ff
4410
6410
5410
5410
4410
4410
5c11
7603
c3fe
ENDCHAR
STARTCHAR ch-238
ENCODING 238
SWIDTH 1000 0
DWIDTH 16 0
BBX 16 16 0 -2
BITMAP
0420
0c30
1918
330c
e627
04f0
1f98
0000
ffff
0800
0ff0
0a10
1b10
1111
1ff3
f00e
ENDCHAR
STARTCHAR ch-240
ENCODING 240
SWIDTH 1000 0
DWIDTH 16 0
BBX 16 16 0 -2
BITMAP
0048
fe48
40cc
4084
7d86
4703
44fc
6424
5424
5464
4444
44c4
459c
5c01
7603
c3fe
ENDCHAR
STARTCHAR ch-241
ENCODING 241
SWIDTH 1000 0
DWIDTH 16 0
BBX 16 16 0 -2
BITMAP
000c
fe38
40e0
4020
4020
7cfc
4420
4420
65fe
5420
5421
4423
441e
5c01
7603
c3fe
ENDCHAR
STARTCHAR ch-242
ENCODING 242
SWIDTH 1000 0
DWIDTH 16 0
BBX 16 16 0 -2
BITMAP
0020
fe26
403c
41e0
4020
7ca4
44a4
44a4
64a4
54fc
5422
4426
441c
5c01
7603
c3fe
ENDCHAR
STARTCHAR ch-246
ENCODING 246
SWIDTH 1000 0
DWIDTH 16 0
BBX 16 16 0 -2
BITMAP
4200
66ff
2440
ff40
2440
247c
2444
ff44
2464
2454
2454
2444
2444
6445
4475
c4c3
ENDCHAR
STARTCHAR ch-247
ENCODING 247
SWIDTH 1000 0
DWIDTH 16 0
BBX 16 16 0 -2
BITMAP
0080
78fe
01a2
0324
1870
70d8
c18c
0707
0000
ffff
0800
0ff0
1a10
1111
1ff3
f00e
ENDCHAR
STARTCHAR ch-248
ENCODING 248
SWIDTH 1000 0
DWIDTH 16 0
BBX 16 16 0 -2
BITMAP
0000
fdff
4010
4020
40fe
7c82
4482
4482
64fe
5482
5482
4482
44fe
5c01
7603
c3fe
ENDCHAR
STARTCHAR ch-259
ENCODING 259
SWIDTH 1000 0
DWIDTH 16 0
BBX 16 16 0 -2
BITMAP
0610
7c12
0856
fed4
28b8
2c2c
6a66
c8c3
0800
ffff
0800
0ff0
1a10
1111
1ff3
f00e
ENDCHAR
STARTCHAR ch-260
ENCODING 260
SWIDTH 1000 0
DWIDTH 16 0
BBX 16 16 0 -2
BITMAP
0000
ffff
1440
1440
7f40
557c
5544
7f44
0064
0854
7f54
0844
0844
0f45
387d
e1c3
ENDCHAR
STARTCHAR ch-261
ENCODING 261
SWIDTH 1000 0
DWIDTH 16 0
BBX 16 16 0 -2
BITMAP
0000
fdfe
4100
417c
4154
7d7c
4554
457c
6510
557c
5510
4610
44fe
5c01
7603
c3fe
ENDCHAR
STARTCHAR ch-268
ENCODING 268
SWIDTH 1000 0
DWIDTH 16 0
BBX 16 16 0 -2
BITMAP
0000
ffff
8040
9c40
9440
947c
9c44
8044
be64
aa54
aa54
aa44
be44
8045
ff7d
00c3
ENDCHAR
STARTCHAR ch-269
ENCODING 269
SWIDTH 1000 0
DWIDTH 16 0
BBX 16 16 0 -2
BITMAP
0420
ffff
0420
3ffc
2244
3ffc
0000
ffff
8001
bffd
0800
0ff0
1910
1091
1ff3
f00e
ENDCHAR
STARTCHAR ch-270
ENCODING 270
SWIDTH 1000 0
DWIDTH 16 0
BBX 16 16 0 -2
BITMAP
0800
ffff
0820
7f20
4920
7f3c
4924
7f24
0a34
3f2c
e1a4
0224
ffa4
2225
323d
16e3
ENDCHAR
STARTCHAR ch-273
ENCODING 273
SWIDTH 1000 0
DWIDTH 16 0
BBX 16 16 0 -2
BITMAP
4200
24ff
ff20
9120
9120
ff3c
9124
9124
ff34
002c
7e24
4224
7e24
4225
4235
7ee3
ENDCHAR
STARTCHAR ch-275
ENCODING 275
SWIDTH 1000 0
DWIDTH 16 0
BBX 16 16 0 -2
BITMAP
0008
3f7f
2122
3f14
207f
7f08
517f
d108
1f08
0000
7ffe
0800
0ff0
0911
1ff3
700e
ENDCHAR
STARTCHAR ch-277
ENCODING 277
SWIDTH 1000 0
DWIDTH 16 0
BBX 16 16 0 -2
BITMAP
0100
ffff
2088
4890
d9ff
7310
25fe
fd10
09ff
3000
ffff
0800
1ff0
1110
3ff1
e00f
ENDCHAR
STARTCHAR ch-280
ENCODING 280
SWIDTH 1000 0
DWIDTH 16 0
BBX 16 16 0 -2
BITMAP
0810
0810
0810
0810
ffff
0810
0810
0810
0810
0ff0
0810
0810
0810
0810
0810
0ff0
ENDCHAR
STARTCHAR ch-282
ENCODING 282
SWIDTH 1000 0
DWIDTH 16 0
BBX 16 16 0 -2
BITMAP
0810
7ffe
0810
0810
0ff0
0810
0810
0ff0
0810
0810
ffff
2220
2420
383e
2000
3ffe
ENDCHAR
STARTCHAR ch-284
ENCODING 284
SWIDTH 1000 0
DWIDTH 16 0
BBX 16 16 0 -2
BITMAP
0644
1c44
f044
1044
11ff
1044
fe44
1044
1044
107c
7c44
4444
4444
4444
4444
7c7c
ENDCHAR
STARTCHAR ch-286
ENCODING 286
SWIDTH 1000 0
DWIDTH 16 0
BBX 16 16 0 -2
BITMAP
2108
3118
1110
7ffe
4002
4ff2
0810
0ff0
0000
0810
ffff
0810
0ff0
0810
0810
0ff0
ENDCHAR
STARTCHAR ch-287
ENCODING 287
SWIDTH 1000 0
DWIDTH 16 0
BBX 16 16 0 -2
BITMAP
0100
1100
1100
1100
3ffe
2100
6100
c100
0100
3ffc
0100
0100
0100
0100
ffff
0000
ENDCHAR
STARTCHAR ch-291
ENCODING 291
SWIDTH 1000 0
DWIDTH 16 0
BBX 16 16 0 -2
BITMAP
0080
0080
7fff
0410
0630
0220
3fff
2000
2440
27fc
2840
2040
67fc
4040
c040
1fff
ENDCHAR
STARTCHAR ch-293
ENCODING 293
SWIDTH 1000 0
DWIDTH 16 0
BBX 16 16 0 -2
BITMAP
1000
11fe
5122
5122
7dfe
d122
9122
11fe
7c20
13ff
1021
1061
1c41
70c3
c182
070e
ENDCHAR
STARTCHAR ch-294
ENCODING 294
SWIDTH 1000 0
DWIDTH 16 0
BBX 16 16 0 -2
BITMAP
0008
ffa8
0828
7f7f
4948
4908
7f08
493e
4908
7f08
0808
2808
307f
1800
2e00
c3ff
ENDCHAR
STARTCHAR ch-296
ENCODING 296
SWIDTH 1000 0
DWIDTH 16 0
BBX 16 16 0 -2
BITMAP
0000
3ffe
2082
2082
2082
3ffe
2082
2082
2082
3ffe
2082
2082
2082
6082
4082
c08e
ENDCHAR
STARTCHAR ch-299
ENCODING 299
SWIDTH 1000 0
DWIDTH 16 0
BBX 16 16 0 -2
BITMAP
0110
0108
ffff
0100
0100
3ffc
2104
2104
3ffc
2104
2104
3ffc
2104
2104
2104
211c
ENDCHAR
STARTCHAR ch-300
ENCODING 300
SWIDTH 1000 0
DWIDTH 16 0
BBX 16 16 0 -2
BITMAP
0000
3ff8
0030
06c0
0100
3ffc
2104
2104
3ffc
2104
2104
3ffc
2104
2104
2104
211c
ENDCHAR
STARTCHAR ch-304
ENCODING 304
SWIDTH 1000 0
DWIDTH 16 0
BBX 16 16 0 -2
BITMAP
0000
7ffe
4102
4102
4102
4102
4102
7ffe
4102
4102
4102
4102
4102
4102
7ffe
0000
ENDCHAR
STARTCHAR ch-305
ENCODING 305
SWIDTH 1000 0
DWIDTH 16 0
BBX 16 16 0 -2
BITMAP
0100
0100
0100
0100
3ffc
2104
2104
2104
2104
3ffc
2104
2104
2104
2104
3ffc
0000
ENDCHAR
STARTCHAR ch-306
ENCODING 306
SWIDTH 1000 0
DWIDTH 16 0
BBX 16 16 0 -2
BITMAP
0000
7ffe
4102
4102
4102
7ffe
4102
4102
4102
7ffe
0100
0100
0100
0100
0100
0100
ENDCHAR
STARTCHAR ch-307
ENCODING 307
SWIDTH 1000 0
DWIDTH 16 0
BBX 16 16 0 -2
BITMAP
0100
0100
0100
7ffe
4102
4102
4102
7ffe
4102
4102
4102
7ffe
0100
0100
0100
0100
ENDCHAR
STARTCHAR ch-311
ENCODING 311
SWIDTH 1000 0
DWIDTH 16 0
BBX 16 16 0 -2
BITMAP
0000
3ffc
2104
2104
3ffc
2104
2104
3ffc
0000
0100
7ffe
0102
0302
0606
1c04
701c
ENDCHAR
STARTCHAR ch-312
ENCODING 312
SWIDTH 1000 0
DWIDTH 16 0
BBX 16 16 0 -2
BITMAP
1000
1000
3ffe
2002
7ff2
d112
1112
1112
1ff2
1112
1112
1112
1ff6
0004
000c
0038
ENDCHAR
STARTCHAR ch-314
ENCODING 314
SWIDTH 1000 0
DWIDTH 16 0
BBX 16 16 0 -2
BITMAP
0000
7f00
49ff
4908
4908
4908
7f08
4908
4908
4908
4908
4908
7f08
0008
0008
0038
ENDCHAR
STARTCHAR ch-315
ENCODING 315
SWIDTH 1000 0
DWIDTH 16 0
BBX 16 16 0 -2
BITMAP
0000
ffff
0100
0100
4ff2
4912
4912
4912
4ff2
4912
4912
4912
4ff2
4002
7ffe
0000
ENDCHAR
STARTCHAR ch-316
ENCODING 316
SWIDTH 1000 0
DWIDTH 16 0
BBX 16 16 0 -2
BITMAP
0000
3ffc
2104
2104
3ffc
2104
2104
3ffc
0000
0000
ffff
0100
0100
0100
0100
0700
ENDCHAR
STARTCHAR ch-324
ENCODING 324
SWIDTH 1000 0
DWIDTH 16 0
BBX 16 16 0 -2
BITMAP
0000
0602
6306
318c
1898
0810
0000
3ffc
2104
2104
2104
3ffc
2104
2104
2104
3ffc
ENDCHAR
STARTCHAR ch-326
ENCODING 326
SWIDTH 1000 0
DWIDTH 16 0
BBX 16 16 0 -2
BITMAP
0808
0808
0808
ff88
0008
0018
7f10
4910
4910
4910
7f10
4932
4922
4922
7f2f
0079
ENDCHAR
STARTCHAR ch-329
ENCODING 329
SWIDTH 1000 0
DWIDTH 16 0
BBX 16 16 0 -2
BITMAP
0020
0020
f820
abfe
a820
a820
a820
ffff
a820
a870
a850
a8d8
f888
018c
0306
0603
ENDCHAR
STARTCHAR ch-330
ENCODING 330
SWIDTH 1000 0
DWIDTH 16 0
BBX 16 16 0 -2
BITMAP
0088
f888
a888
abfe
a888
a888
f888
a888
a888
afff
a888
f888
0188
0108
0308
0608
ENDCHAR
STARTCHAR ch-331
ENCODING 331
SWIDTH 1000 0
DWIDTH 16 0
BBX 16 16 0 -2
BITMAP
0080
0080
f880
a8ff
a984
a904
ab8c
f888
a8d8
a870
a820
a870
f858
00cc
0186
0703
ENDCHAR
STARTCHAR ch-332
ENCODING 332
SWIDTH 1000 0
DWIDTH 16 0
BBX 16 16 0 -2
BITMAP
0000
3ffc
2104
2104
3ffc
2104
2104
3ffc
0420
0c30
381c
e817
0810
0810
1810
3010
ENDCHAR
STARTCHAR ch-333
ENCODING 333
SWIDTH 1000 0
DWIDTH 16 0
BBX 16 16 0 -2
BITMAP
0020
0070
f850
a8d8
a98c
af8f
f888
a888
a888
a888
a888
f888
0188
0108
0308
0608
ENDCHAR
STARTCHAR ch-335
ENCODING 335
SWIDTH 1000 0
DWIDTH 16 0
BBX 16 16 0 -2
BITMAP
0000
3ffc
2104
2104
3ffc
2104
2104
3ffc
0000
ffff
1084
10cc
1068
1730
1c1c
7007
ENDCHAR
STARTCHAR ch-337
ENCODING 337
SWIDTH 1000 0
DWIDTH 16 0
BBX 16 16 0 -2
BITMAP
1000
10fe
1292
5292
5692
5492
d492
90fe
1092
1092
3892
2892
2c92
6692
40fe
c000
ENDCHAR
STARTCHAR ch-340
ENCODING 340
SWIDTH 1000 0
DWIDTH 16 0
BBX 16 16 0 -2
BITMAP
0020
fa22
ab26
a924
a820
abfe
f820
a820
a820
afff
a820
a820
f820
0020
0020
0020
ENDCHAR
STARTCHAR ch-345
ENCODING 345
SWIDTH 1000 0
DWIDTH 16 0
BBX 16 16 0 -2
BITMAP
0e00
78ff
4011
4011
4431
4423
7e62
c2ce
0000
3ffc
2104
2104
3ffc
2104
2104
3ffc
ENDCHAR
STARTCHAR ch-346
ENCODING 346
SWIDTH 1000 0
DWIDTH 16 0
BBX 16 16 0 -2
BITMAP
0400
0c10
1818
3fec
0200
ffff
0420
0810
300c
dffb
1108
1108
1ff8
1108
1108
1ff8
ENDCHAR
STARTCHAR ch-347
ENCODING 347
SWIDTH 1000 0
DWIDTH 16 0
BBX 16 16 0 -2
BITMAP
0020
0070
f858
a8cc
a986
ab13
a830
f864
a9cc
a818
a871
a9c3
f806
001c
0070
01c0
ENDCHAR
STARTCHAR ch-348
ENCODING 348
SWIDTH 1000 0
DWIDTH 16 0
BBX 16 16 0 -2
BITMAP
0100
0100
ffff
0200
0420
3844
0c82
03ff
fe01
0000
3ffc
2104
3ffc
2104
2104
3ffc
ENDCHAR
STARTCHAR ch-349
ENCODING 349
SWIDTH 1000 0
DWIDTH 16 0
BBX 16 16 0 -2
BITMAP
0820
0820
083c
ffa4
0064
7f44
49cc
4908
4908
7f08
491c
4914
4934
7f26
0062
00c3
ENDCHAR
STARTCHAR ch-352
ENCODING 352
SWIDTH 1000 0
DWIDTH 16 0
BBX 16 16 0 -2
BITMAP
0080
0100
1ff8
1008
1ff8
1008
1008
1ff8
0000
7ffe
4102
4102
7ffe
4102
4102
7ffe
ENDCHAR
STARTCHAR ch-354
ENCODING 354
SWIDTH 1000 0
DWIDTH 16 0
BBX 16 16 0 -2
BITMAP
0000
3ffc
2104
3ffc
2104
3ffc
1108
1108
ffff
1108
1108
7ffe
0100
3ffc
0100
0100
ENDCHAR
STARTCHAR ch-356
ENCODING 356
SWIDTH 1000 0
DWIDTH 16 0
BBX 16 16 0 -2
BITMAP
0020
0020
f9fe
a820
a820
a820
abff
f804
a804
abff
a804
a984
f8c4
0044
0004
001c
ENDCHAR
STARTCHAR ch-357
ENCODING 357
SWIDTH 1000 0
DWIDTH 16 0
BBX 16 16 0 -2
BITMAP
0040
0040
f8fc
a984
ab0c
a8d8
a870
f9dc
af07
a800
a9fc
a904
f904
0104
0104
01fc
ENDCHAR
STARTCHAR ch-358
ENCODING 358
SWIDTH 1000 0
DWIDTH 16 0
BBX 16 16 0 -2
BITMAP
0020
0020
f9fe
a820
a820
a820
fbff
a800
a820
a820
a9fe
f820
0020
0020
03ff
0000
ENDCHAR
STARTCHAR ch-359
ENCODING 359
SWIDTH 1000 0
DWIDTH 16 0
BBX 16 16 0 -2
BITMAP
3ffc
2104
3ffc
2104
3ffc
0400
0ff0
1830
7660
03c0
1e78
f00f
1ff8
1008
1008
1ff8
ENDCHAR
STARTCHAR ch-361
ENCODING 361
SWIDTH 1000 0
DWIDTH 16 0
BBX 16 16 0 -2
BITMAP
0020
0020
f820
afff
a840
a840
a8e2
f8a6
a9ac
ab38
ad10
a918
f908
016c
01c6
0703
ENDCHAR
STARTCHAR ch-362
ENCODING 362
SWIDTH 1000 0
DWIDTH 16 0
BBX 16 16 0 -2
BITMAP
0018
01f0
3f00
1108
0910
ffff
0520
0d30
391c
e007
1ff8
1108
1ff8
1108
1108
1ff8
ENDCHAR
STARTCHAR ch-363
ENCODING 363
SWIDTH 1000 0
DWIDTH 16 0
BBX 16 16 0 -2
BITMAP
0100
3ffc
0104
ffff
0104
3ffc
0100
3ffc
0100
ffff
1108
1ff8
1108
1ff8
0000
ffff
ENDCHAR
STARTCHAR ch-365
ENCODING 365
SWIDTH 1000 0
DWIDTH 16 0
BBX 16 16 0 -2
BITMAP
0020
0070
f850
a8d8
a98c
ab06
fefb
a820
a820
abfe
a820
f924
0124
0326
0623
00e0
ENDCHAR
STARTCHAR ch-368
ENCODING 368
SWIDTH 1000 0
DWIDTH 16 0
BBX 16 16 0 -2
BITMAP
0000
3ffc
2104
2104
3ffc
2104
2104
3ffc
0420
7ffe
0420
0420
ffff
0810
381c
e007
ENDCHAR
STARTCHAR ch-371
ENCODING 371
SWIDTH 1000 0
DWIDTH 16 0
BBX 16 16 0 -2
BITMAP
0000
3ffc
2104
3ffc
2104
3ffc
0000
ffff
8001
9ff9
1008
1ff8
1008
1ff8
1008
ffff
ENDCHAR
STARTCHAR ch-372
ENCODING 372
SWIDTH 1000 0
DWIDTH 16 0
BBX 16 16 0 -2
BITMAP
0040
f840
afff
a840
abfe
a840
ffff
a880
a884
afff
a904
fb44
0264
0624
0c04
001c
ENDCHAR
STARTCHAR ch-374
ENCODING 374
SWIDTH 1000 0
DWIDTH 16 0
BBX 16 16 0 -2
BITMAP
1108
1918
0910
7ffe
4002
4ff2
0810
0810
0ff0
0000
3ffc
2104
3ffc
2104
2104
3ffc
ENDCHAR
STARTCHAR ch-375
ENCODING 375
SWIDTH 1000 0
DWIDTH 16 0
BBX 16 16 0 -2
BITMAP
0000
03de
f842
a94a
a884
a94a
aa11
f800
a800
affe
a852
aa92
f914
0188
0294
0c23
ENDCHAR
STARTCHAR ch-376
ENCODING 376
SWIDTH 1000 0
DWIDTH 16 0
BBX 16 16 0 -2
BITMAP
0020
0020
fbfe
a850
a8d8
a98c
a800
ffff
a804
a9e4
a924
a924
f924
01e4
0004
001c
ENDCHAR
STARTCHAR ch-383
ENCODING 383
SWIDTH 1000 0
DWIDTH 16 0
BBX 16 16 0 -2
BITMAP
1088
3098
64b2
2894
1088
2492
7ebf
0289
ffff
0040
7f62
4924
7f28
4911
7f2d
00c7
ENDCHAR
STARTCHAR ch-386
ENCODING 386
SWIDTH 1000 0
DWIDTH 16 0
BBX 16 16 0 -2
BITMAP
1ff8
1108
1ff8
1108
1ff8
700e
0e70
700e
0000
7ffe
4812
4ff2
0810
0ff0
0810
ffff
ENDCHAR
STARTCHAR ch-390
ENCODING 390
SWIDTH 1000 0
DWIDTH 16 0
BBX 16 16 0 -2
BITMAP
0000
fbff
0800
09fc
f924
81fc
8124
fbff
0800
49fc
e924
49fc
6924
d9fc
1000
73ff
ENDCHAR
STARTCHAR ch-391
ENCODING 391
SWIDTH 1000 0
DWIDTH 16 0
BBX 16 16 0 -2
BITMAP
0020
03fe
f820
a9fc
a800
afff
a801
f9fd
a820
abfe
a800
afff
f802
07bf
0492
0786
ENDCHAR
STARTCHAR ch-393
ENCODING 393
SWIDTH 1000 0
DWIDTH 16 0
BBX 16 16 0 -2
BITMAP
0ff0
0910
0ff0
0910
7ffe
5452
7c7e
5452
7d7e
0100
7ffe
4402
0ff0
1a10
0120
ffff
ENDCHAR
STARTCHAR ch-394
ENCODING 394
SWIDTH 1000 0
DWIDTH 16 0
BBX 16 16 0 -2
BITMAP
0ff0
0910
0ff0
0910
7ffe
5252
7e7e
5252
ffff
8811
8ff1
0810
0ff0
0810
0810
ffff
ENDCHAR
STARTCHAR ch-395
ENCODING 395
SWIDTH 1000 0
DWIDTH 16 0
BBX 16 16 0 -2
BITMAP
0000
7ffe
0082
0084
0080
1080
1080
10fc
1080
1080
1080
3880
2c80
2680
6380
c0ff
ENDCHAR
STARTCHAR ch-398
ENCODING 398
SWIDTH 1000 0
DWIDTH 16 0
BBX 16 16 0 -2
BITMAP
0010
fe10
03ff
0410
08fe
4892
4892
4e92
48fe
4854
4854
4854
4ed6
7892
c193
0010
ENDCHAR
STARTCHAR ch-399
ENCODING 399
SWIDTH 1000 0
DWIDTH 16 0
BBX 16 16 0 -2
BITMAP
0010
ff10
02ff
0420
0860
4842
48ff
4e01
4844
4854
4854
4854
4854
4ed5
7895
c183
ENDCHAR
STARTCHAR ch-401
ENCODING 401
SWIDTH 1000 0
DWIDTH 16 0
BBX 16 16 0 -2
BITMAP
4000
4efe
7804
4028
4210
3eff
2012
3e14
4850
885e
7f50
0850
1cd0
36b0
619c
c307
ENDCHAR
STARTCHAR ch-404
ENCODING 404
SWIDTH 1000 0
DWIDTH 16 0
BBX 16 16 0 -2
BITMAP
0040
0040
1fff
9000
d000
5000
17ff
1020
7020
d020
1020
3020
2020
6020
c020
00e0
ENDCHAR
STARTCHAR ch-410
ENCODING 410
SWIDTH 1000 0
DWIDTH 16 0
BBX 16 16 0 -2
BITMAP
0080
0080
3fff
a100
6100
23f0
2210
2630
6c20
a060
2040
60e0
41b0
c318
060c
1c07
ENDCHAR
STARTCHAR ch-413
ENCODING 413
SWIDTH 1000 0
DWIDTH 16 0
BBX 16 16 0 -2
BITMAP
0040
0040
1fff
9000
d000
5020
1020
1020
7222
d222
1222
3222
2222
6222
c222
03fe
ENDCHAR
STARTCHAR ch-419
ENCODING 419
SWIDTH 1000 0
DWIDTH 16 0
BBX 16 16 0 -2
BITMAP
0080
0080
3fff
a000
6088
208c
2084
2fff
6080
a080
21c0
6140
4140
c341
0663
1c3e
ENDCHAR
STARTCHAR ch-421
ENCODING 421
SWIDTH 1000 0
DWIDTH 16 0
BBX 16 16 0 -2
BITMAP
0080
0080
3fff
a000
6040
20e0
21b0
231c
6f0f
a108
2108
6108
4308
c208
0608
0c08
ENDCHAR
STARTCHAR ch-427
ENCODING 427
SWIDTH 1000 0
DWIDTH 16 0
BBX 16 16 0 -2
BITMAP
0080
0080
3fff
a000
63f0
2210
2610
2c1f
2000
6ffc
a20c
2318
61b0
40e0
c3b8
1e0f
ENDCHAR
STARTCHAR ch-433
ENCODING 433
SWIDTH 1000 0
DWIDTH 16 0
BBX 16 16 0 -2
BITMAP
0080
0080
3fff
a200
6200
27fc
2404
2fe4
7824
a024
27ec
6408
4418
c401
0603
03fe
ENDCHAR
STARTCHAR ch-434
ENCODING 434
SWIDTH 1000 0
DWIDTH 16 0
BBX 16 16 0 -2
BITMAP
0080
0080
3fff
a040
6040
27fe
2442
2444
67f8
a508
2598
24b0
6c60
48f0
d99c
0707
ENDCHAR
STARTCHAR ch-435
ENCODING 435
SWIDTH 1000 0
DWIDTH 16 0
BBX 16 16 0 -2
BITMAP
0080
0080
3fff
a000
6208
2208
3fff
2208
6208
a208
23f8
6208
4208
c208
0208
03f8
ENDCHAR
STARTCHAR ch-437
ENCODING 437
SWIDTH 1000 0
DWIDTH 16 0
BBX 16 16 0 -2
BITMAP
0080
0080
3fff
a000
6110
2110
2910
2916
69dc
a910
2910
6910
4910
c9d1
0f13
180e
ENDCHAR
STARTCHAR ch-440
ENCODING 440
SWIDTH 1000 0
DWIDTH 16 0
BBX 16 16 0 -2
BITMAP
0080
0080
3fff
a000
6000
23f8
2208
2208
63f8
a208
2208
6208
43f8
c000
0000
1fff
ENDCHAR
STARTCHAR ch-441
ENCODING 441
SWIDTH 1000 0
DWIDTH 16 0
BBX 16 16 0 -2
BITMAP
0080
0080
3fff
2040
a0e0
61b0
231c
2e27
20e0
6788
a038
20e2
6786
401c
c0f0
0f80
ENDCHAR
STARTCHAR ch-444
ENCODING 444
SWIDTH 1000 0
DWIDTH 16 0
BBX 16 16 0 -2
BITMAP
0080
0080
3fff
a100
63f8
2618
2d30
20e0
61b0
a71c
3dc7
6070
4010
c3c0
0070
0018
ENDCHAR
STARTCHAR ch-445
ENCODING 445
SWIDTH 1000 0
DWIDTH 16 0
BBX 16 16 0 -2
BITMAP
0080
0080
3fff
a000
6000
23f8
2208
2208
63f8
a208
2208
63f8
4208
c208
0208
1fff
ENDCHAR
STARTCHAR ch-446
ENCODING 446
SWIDTH 1000 0
DWIDTH 16 0
BBX 16 16 0 -2
BITMAP
0080
0080
3fff
a200
6200
27fe
2440
2c40
6040
bfff
20a0
21b0
6110
4318
c60c
1c07
ENDCHAR
STARTCHAR ch-450
ENCODING 450
SWIDTH 1000 0
DWIDTH 16 0
BBX 16 16 0 -2
BITMAP
0080
0080
3fff
a000
6400
2400
3f9e
2492
6492
a492
2492
6c92
4892
c992
191e
3300
ENDCHAR
STARTCHAR ch-451
ENCODING 451
SWIDTH 1000 0
DWIDTH 16 0
BBX 16 16 0 -2
BITMAP
0080
0080
3fff
a040
6040
2ffe
2080
2180
6310
a630
2360
61c0
4184
c304
027e
1fc3
ENDCHAR
STARTCHAR ch-453
ENCODING 453
SWIDTH 1000 0
DWIDTH 16 0
BBX 16 16 0 -2
BITMAP
0080
0080
3fff
a000
6000
2ffe
2040
2040
6ffe
a842
28e2
29b2
6b1a
4802
c802
080e
ENDCHAR
STARTCHAR ch-455
ENCODING 455
SWIDTH 1000 0
DWIDTH 16 0
BBX 16 16 0 -2
BITMAP
0080
0080
3fff
2000
a000
6ffe
2040
2040
6240
a27c
2240
2240
6240
4240
c240
1fff
ENDCHAR
STARTCHAR ch-458
ENCODING 458
SWIDTH 1000 0
DWIDTH 16 0
BBX 16 16 0 -2
BITMAP
0080
0080
3fff
a040
60e0
21b0
271c
3c07
67fc
a040
2040
67fc
4040
c040
0040
1fff
ENDCHAR
STARTCHAR ch-461
ENCODING 461
SWIDTH 1000 0
DWIDTH 16 0
BBX 16 16 0 -2
BITMAP
0080
0080
3fff
a080
7ffe
2080
2ffc
2084
6ffc
a880
2ffe
6142
4366
c630
0c1c
3807
ENDCHAR
STARTCHAR ch-466
ENCODING 466
SWIDTH 1000 0
DWIDTH 16 0
BBX 16 16 0 -2
BITMAP
0080
0080
3fff
a208
6318
2110
2ffe
2040
6040
a7fc
2040
6040
5fff
c040
0040
0040
ENDCHAR
STARTCHAR ch-468
ENCODING 468
SWIDTH 1000 0
DWIDTH 16 0
BBX 16 16 0 -2
BITMAP
0080
0080
3fff
2040
a7fc
6040
2040
2fff
2008
6008
afff
2208
6308
4108
c008
0038
ENDCHAR
STARTCHAR ch-469
ENCODING 469
SWIDTH 1000 0
DWIDTH 16 0
BBX 16 16 0 -2
BITMAP
0040
0040
3fff
2000
a7fc
6404
2404
27fc
6404
a404
27fd
2443
6466
4430
c79c
1c07
ENDCHAR
STARTCHAR ch-472
ENCODING 472
SWIDTH 1000 0
DWIDTH 16 0
BBX 16 16 0 -2
BITMAP
0080
0080
3fff
a000
6ffe
2000
27fc
2404
6404
a404
27fc
2208
6318
4110
dfff
0000
ENDCHAR
STARTCHAR ch-473
ENCODING 473
SWIDTH 1000 0
DWIDTH 16 0
BBX 16 16 0 -2
BITMAP
0080
0080
3fff
a000
6ffe
2244
2488
2910
6488
a244
2000
67fc
4040
c040
0040
1fff
ENDCHAR
STARTCHAR ch-475
ENCODING 475
SWIDTH 1000 0
DWIDTH 16 0
BBX 16 16 0 -2
BITMAP
0040
0040
3fff
a000
67fc
2108
2090
27fe
2442
67fe
a442
2442
67fe
4442
c442
0446
ENDCHAR
STARTCHAR ch-478
ENCODING 478
SWIDTH 1000 0
DWIDTH 16 0
BBX 16 16 0 -2
BITMAP
0080
0080
3fff
a000
6ffe
20c0
21d0
2358
664c
bc47
2000
67fc
4404
c404
0404
07fc
ENDCHAR
STARTCHAR ch-482
ENCODING 482
SWIDTH 1000 0
DWIDTH 16 0
BBX 16 16 0 -2
BITMAP
0040
0040
3fff
a000
6182
2f12
2212
3fd2
2212
6212
a712
2692
6a82
5202
c202
020e
ENDCHAR
STARTCHAR ch-483
ENCODING 483
SWIDTH 1000 0
DWIDTH 16 0
BBX 16 16 0 -2
BITMAP
0080
0080
3fff
a040
6040
2ffe
2040
2040
67fc
a000
2040
6160
4522
c50b
0d19
18f0
ENDCHAR
STARTCHAR ch-489
ENCODING 489
SWIDTH 1000 0
DWIDTH 16 0
BBX 16 16 0 -2
BITMAP
0080
0080
3fff
2040
a7fc
6444
27fc
2444
27fc
6040
affc
2208
6110
40e0
c3b8
1e0f
ENDCHAR
STARTCHAR ch-496
ENCODING 496
SWIDTH 1000 0
DWIDTH 16 0
BBX 16 16 0 -2
BITMAP
0080
0080
3fff
a000
6044
224c
26e8
25b0
6318
ae0e
2040
6246
46ec
c5b0
031c
0e07
ENDCHAR
STARTCHAR ch-498
ENCODING 498
SWIDTH 1000 0
DWIDTH 16 0
BBX 16 16 0 -2
BITMAP
0080
0080
3fff
a000
6208
2208
3fbf
2208
6aaa
aaaa
2aaa
6aaa
4aaa
ca2b
1248
0208
ENDCHAR
STARTCHAR ch-499
ENCODING 499
SWIDTH 1000 0
DWIDTH 16 0
BBX 16 16 0 -2
BITMAP
0080
0080
3fff
a000
6208
2208
3fbf
2208
6208
a71c
269c
6aaa
4a2a
d249
0208
0208
ENDCHAR
STARTCHAR ch-500
ENCODING 500
SWIDTH 1000 0
DWIDTH 16 0
BBX 16 16 0 -2
BITMAP
0080
0080
3fff
2000
a400
67be
2a22
2222
2222
7fe2
a222
2722
6522
45a2
ccbe
1800
ENDCHAR
STARTCHAR ch-506
ENCODING 506
SWIDTH 1000 0
DWIDTH 16 0
BBX 16 16 0 -2
BITMAP
0080
0080
3fff
a040
6080
27fc
2444
27fc
6444
a7fc
2220
6420
5fff
c020
0020
0020
ENDCHAR
STARTCHAR ch-508
ENCODING 508
SWIDTH 1000 0
DWIDTH 16 0
BBX 16 16 0 -2
BITMAP
0080
0080
3fff
a000
6ffe
2802
2842
2bfa
6842
a842
29f2
6912
4912
c9f2
0802
0ffe
ENDCHAR
STARTCHAR ch-510
ENCODING 510
SWIDTH 1000 0
DWIDTH 16 0
BBX 16 16 0 -2
BITMAP
0080
0080
3fff
a000
6f7f
2904
2904
2a74
6a54
a954
2954
6974
4b04
c804
0804
081c
ENDCHAR
STARTCHAR ch-511
ENCODING 511
SWIDTH 1000 0
DWIDTH 16 0
BBX 16 16 0 -2
BITMAP
0080
0080
3fff
a000
67fc
2040
2ffe
2150
6248
ac46
2080
6ffe
4208
c790
00f8
0f8e
ENDCHAR
ENDFONT
