STARTFONT 2.1
FONT jis.jis5a00.24
SIZE 24 72 72
FONTBOUNDINGBOX 24 24 0 -3
STARTPROPERTIES 4
FONT_DESCENT 3
FONT_ASCENT 21
DEFAULT_CHAR 1
COPYRIGHT "Copyright (c) 1992 AT&T - All rights reserved."
ENDPROPERTIES
CHARS 149
STARTCHAR ch-1
ENCODING 1
SWIDTH 1000 0
DWIDTH 24 0
BBX 24 24 0 -3
BITMAP
000740
000630
000630
200606
3fffff
300600
302600
37f600
300600
310310
31c31c
318b18
3fff18
333198
3231b0
3620b0
2660e0
2d4042
2ce0e2
60b1b2
41b33a
43061f
86180f
186006
ENDCHAR
STARTCHAR ch-3
ENCODING 3
SWIDTH 1000 0
DWIDTH 24 0
BBX 24 24 0 -3
BITMAP
0e00e0
0c00c0
0c00c0
0c00cc
0c0ffe
0cc0c0
ffe0c0
18c0c0
18c0c6
18dfff
18c000
198000
3180e0
3180c0
3100cc
330ffe
6a00c0
6600c0
0700c0
0d80c0
08c0c0
10c0c6
203fff
c00000
ENDCHAR
STARTCHAR ch-9
ENCODING 9
SWIDTH 1000 0
DWIDTH 24 0
BBX 24 24 0 -3
BITMAP
1c01c0
180180
18218c
183ffe
18318c
19b18c
ffb18c
19bffc
19b18c
19b18c
19b18c
31bffc
330000
330006
337fff
320600
6a060c
660ffe
070c0c
0d801c
098018
100038
2003f0
c000e0
ENDCHAR
STARTCHAR ch-17
ENCODING 17
SWIDTH 1000 0
DWIDTH 24 0
BBX 24 24 0 -3
BITMAP
1001c0
0c0180
061190
861d8c
601986
303187
322183
044190
0c879c
180338
f00070
3001c0
300f00
38f000
184000
006006
ffffff
0180c0
030180
0ef300
0c0e00
0039e0
01e07c
7e001c
ENDCHAR
STARTCHAR ch-24
ENCODING 24
SWIDTH 1000 0
DWIDTH 24 0
BBX 24 24 0 -3
BITMAP
1c01c0
180180
180180
18118c
181ffe
19980c
ffd80c
31980c
319ffc
31980c
33180c
63180c
631ffc
621884
661887
d41886
cc184c
0e1850
1b1860
131830
301b38
20fc1f
40700e
804006
ENDCHAR
STARTCHAR ch-26
ENCODING 26
SWIDTH 1000 0
DWIDTH 24 0
BBX 24 24 0 -3
BITMAP
1c1006
181fff
1818c6
1818c6
1818c6
199ffe
ffd8c6
1998c6
1998c6
199ffe
199806
3181c0
330180
330186
333fff
320186
6a0186
660386
070306
0d8706
09860e
100c0c
20187c
c06018
ENDCHAR
STARTCHAR ch-28
ENCODING 28
SWIDTH 1000 0
DWIDTH 24 0
BBX 24 24 0 -3
BITMAP
380646
30ff7f
302666
302666
302666
322664
ff2664
32fe64
322668
322668
322664
622664
622664
66fe66
642666
642666
d42666
cc2666
0e2666
0b667e
1b466c
104660
209e60
c10c60
ENDCHAR
STARTCHAR ch-31
ENCODING 31
SWIDTH 1000 0
DWIDTH 24 0
BBX 24 24 0 -3
BITMAP
0e0806
0c0fff
0c0c06
0c0c06
0c0c06
0ccffe
ffec06
18c000
18c806
18cfff
18cc06
18cc06
318c06
318ffe
318c06
330c06
6b0c06
660ffe
070c06
0d8c06
08cc06
10cc06
200c3e
c00c0c
ENDCHAR
STARTCHAR ch-32
ENCODING 32
SWIDTH 1000 0
DWIDTH 24 0
BBX 24 24 0 -3
BITMAP
1c200c
183ffe
183000
183000
183018
1b37fc
ffb000
333000
333000
333006
333fff
633320
663324
663327
663326
d43324
cc2328
0e2330
0b6310
1b4318
13431c
209fcf
410e0e
800806
ENDCHAR
STARTCHAR ch-37
ENCODING 37
SWIDTH 1000 0
DWIDTH 24 0
BBX 24 24 0 -3
BITMAP
1c04e0
180ec8
181cc4
186cc6
180cc6
198cc0
ffccc0
198cc6
19ffff
198cc0
198cc8
318cce
330ccc
330ecc
337c48
323c58
6a2c50
660c70
070c22
0d8c72
098c52
100c9b
207d0f
c01806
ENDCHAR
STARTCHAR ch-41
ENCODING 41
SWIDTH 1000 0
DWIDTH 24 0
BBX 24 24 0 -3
BITMAP
0e0400
0c0700
0c0630
0c07f8
0c0c60
0d8840
ffd08c
19bffe
19988c
19988c
19988c
31988c
33188c
331ffc
33186c
6a0460
660760
070660
058660
0ccc62
08cc62
101863
20307f
c0c03e
ENDCHAR
STARTCHAR ch-47
ENCODING 47
SWIDTH 1000 0
DWIDTH 24 0
BBX 24 24 0 -3
BITMAP
380218
3003fc
300318
300318
303b18
333318
ffb318
3333f8
333318
333000
333000
633ff8
633018
663018
660018
66001a
d4ffff
cc0000
0e0420
0b0718
1b0e0c
131c06
203007
c0c003
ENDCHAR
STARTCHAR ch-53
ENCODING 53
SWIDTH 1000 0
DWIDTH 24 0
BBX 24 24 0 -3
BITMAP
1c000c
18fffe
182600
182600
18260c
19a7fe
ffbe8c
19a68c
19a68c
19a68c
19a658
31a658
333e58
332650
332630
322620
6a2620
662670
04fe50
0e7658
0b46cf
11868e
218706
c00600
ENDCHAR
STARTCHAR ch-54
ENCODING 54
SWIDTH 1000 0
DWIDTH 24 0
BBX 24 24 0 -3
BITMAP
001800
fffc00
18600c
186ffe
1fe20c
186118
186198
1fe0f0
186060
1860f0
18619c
ffe30f
786c06
406000
003800
007006
ffffff
01c0c0
038180
077300
060e00
0039e0
01c078
3e0018
ENDCHAR
STARTCHAR ch-60
ENCODING 60
SWIDTH 1000 0
DWIDTH 24 0
BBX 24 24 0 -3
BITMAP
1c0818
180ffc
180c18
180c18
180c18
198ff8
ffcc18
318c18
318c18
318ff8
318c18
330000
632006
633fff
633006
663006
d63006
cc3ffe
0e3006
0b3006
1bb006
11b006
21bffe
c03006
ENDCHAR
STARTCHAR ch-64
ENCODING 64
SWIDTH 1000 0
DWIDTH 24 0
BBX 24 24 0 -3
BITMAP
384606
307fff
30660c
30660c
30640c
32640c
ff640c
3269ec
32692c
32652c
32652c
62652c
62652c
66652c
6465ec
64640c
d4640c
cc7c0c
0e6c0c
0b600c
1b600c
10600c
20607c
c06018
ENDCHAR
STARTCHAR ch-65
ENCODING 65
SWIDTH 1000 0
DWIDTH 24 0
BBX 24 24 0 -3
BITMAP
001c00
041860
07fff0
061860
061866
ffffff
061860
061860
07ffe0
001800
0ffff0
0c1830
0c1830
0ffff0
003000
006006
ffffff
00c180
018300
037600
060d80
0038f0
01e038
3e0018
ENDCHAR
STARTCHAR ch-70
ENCODING 70
SWIDTH 1000 0
DWIDTH 24 0
BBX 24 24 0 -3
BITMAP
1001c0
0c0180
064186
867fff
606186
306184
326198
047ffc
0c6418
186230
f0c160
30c0c0
318378
3a1c1f
186006
006000
ffffff
0180c0
030180
0ef300
0c0e00
0039e0
01e07c
7e001c
ENDCHAR
STARTCHAR ch-73
ENCODING 73
SWIDTH 1000 0
DWIDTH 24 0
BBX 24 24 0 -3
BITMAP
1c01c0
180180
182180
182186
183fff
186006
ffe004
199c00
19988c
1998fe
199ecc
3192cc
3332cc
332acc
332acc
3246cc
6a04dc
660ccc
0708c0
0d98c2
0990c2
1020c3
2040ff
c0807e
ENDCHAR
STARTCHAR ch-90
ENCODING 90
SWIDTH 1000 0
DWIDTH 24 0
BBX 24 24 0 -3
BITMAP
0e000c
0c087e
0c0fe0
0c0c60
0c0c60
0d8c66
ffcfff
198c60
198c60
198c32
198cb2
19bf1b
319c0f
331006
330000
330ffc
6a0c0c
660c0c
070ffc
0d8c0c
098c0c
118c0c
200ffc
c00c0c
ENDCHAR
STARTCHAR ch-98
ENCODING 98
SWIDTH 1000 0
DWIDTH 24 0
BBX 24 24 0 -3
BITMAP
1c0100
1801c0
180180
18120c
181ffe
19988c
ffd88c
19988c
199ffc
19988c
19988c
31988c
331ffc
330400
330670
320460
6a0866
667fff
070060
0d8060
098060
100060
200060
c00060
ENDCHAR
STARTCHAR ch-102
ENCODING 102
SWIDTH 1000 0
DWIDTH 24 0
BBX 24 24 0 -3
BITMAP
0e0018
0c0ffc
0c0018
0c0018
0c07f8
0d8018
ffc018
198ff8
199000
199006
199fff
31b006
3331c4
330180
33118c
6a1ffe
66198c
07198c
05998c
0d998c
0999bc
101998
200180
c00180
ENDCHAR
STARTCHAR ch-106
ENCODING 106
SWIDTH 1000 0
DWIDTH 24 0
BBX 24 24 0 -3
BITMAP
0380e0
0300c0
0330cc
7ffffe
0300c0
0701e0
07c1d0
0f33d8
1b16cc
330ccf
c330c6
0300c0
004000
007000
006006
ffffff
01c0c0
0381c0
070380
0ef700
0c0e00
0039e0
01c078
3e0018
ENDCHAR
STARTCHAR ch-108
ENCODING 108
SWIDTH 1000 0
DWIDTH 24 0
BBX 24 24 0 -3
BITMAP
1c0038
1801fc
181fc0
180204
182187
1998c6
ffcccc
198c08
198000
198038
1981fc
319fc0
330180
330180
330180
320186
6a7fff
660180
070180
0d8180
098180
10018c
203ffe
c00000
ENDCHAR
STARTCHAR ch-127
ENCODING 127
SWIDTH 1000 0
DWIDTH 24 0
BBX 24 24 0 -3
BITMAP
1c0006
187fff
1800c4
1808c8
180ec0
1b0cfe
ff8cc0
330ac0
3319c0
33107f
33200e
634000
661ffc
66180c
64180c
dc1ffc
ce180c
0b180c
199ffc
11980c
30180c
20180c
40187c
801818
ENDCHAR
STARTCHAR ch-146
ENCODING 146
SWIDTH 1000 0
DWIDTH 24 0
BBX 24 24 0 -3
BITMAP
0e0e38
0c0c30
0c0c36
0c7fff
0c0c30
0d8c30
ffcc30
198ff0
198c30
198c30
198c30
318ff0
330180
330180
330186
6affff
6607a0
070da0
058d90
0d9998
08318f
10618e
218186
c00180
ENDCHAR
STARTCHAR ch-154
ENCODING 154
SWIDTH 1000 0
DWIDTH 24 0
BBX 24 24 0 -3
BITMAP
1c1006
181fff
1818c6
1818c6
1818c6
1998c6
ffdffe
199800
199800
199a06
199bff
319b06
331b06
331b06
331bfe
321b06
6a1306
661306
0733fe
0da306
09a306
104306
2083fe
c00306
ENDCHAR
STARTCHAR ch-155
ENCODING 155
SWIDTH 1000 0
DWIDTH 24 0
BBX 24 24 0 -3
BITMAP
1c001c
1801fe
187f88
18020e
18210c
1b1198
ff9990
331820
337ffe
330600
330600
630606
66ffff
660c00
660c30
d40ff8
cc1a30
0e1230
0b3160
1b21c0
104370
20863f
41181e
826006
ENDCHAR
STARTCHAR ch-188
ENCODING 188
SWIDTH 1000 0
DWIDTH 24 0
BBX 24 24 0 -3
BITMAP
1c0000
181018
181ffc
181818
181818
199818
ffdff8
199818
199818
199818
199ff8
319818
330000
33200c
333ffe
32324c
6a324c
66324c
07324c
0db24c
09b24c
10324c
20ffff
c00000
ENDCHAR
STARTCHAR ch-189
ENCODING 189
SWIDTH 1000 0
DWIDTH 24 0
BBX 24 24 0 -3
BITMAP
1c0000
18100c
181ffe
1818c0
1818c0
1998c8
ffdffc
1998c0
1998c0
1998c8
199ffc
3198c0
3318c0
3318c6
331fff
321806
6a0046
661136
071496
0db2c6
09b24e
10620c
20607c
c00018
ENDCHAR
STARTCHAR ch-190
ENCODING 190
SWIDTH 1000 0
DWIDTH 24 0
BBX 24 24 0 -3
BITMAP
1c0738
180630
180630
187fff
180630
198630
ffbffe
198630
198630
19ffff
198080
31908c
331ffe
33188c
33188c
321ffc
6a188c
66188c
077fff
0d980c
09980c
10180c
20187c
c01818
ENDCHAR
STARTCHAR ch-193
ENCODING 193
SWIDTH 1000 0
DWIDTH 24 0
BBX 24 24 0 -3
BITMAP
1c01c0
181180
181186
181fff
183004
19b008
ff8004
31bffe
318300
330608
330d0e
63199c
6363b0
6606c0
660cc0
d418e0
cc61e0
0e03d0
1b06d8
130ccf
3030ce
21c0c6
400fc0
800380
ENDCHAR
STARTCHAR ch-194
ENCODING 194
SWIDTH 1000 0
DWIDTH 24 0
BBX 24 24 0 -3
BITMAP
1c01c0
180180
18218c
183ffe
18318c
19b18c
fff18c
19bffc
19b18c
19b18c
19b18c
31bffc
330180
33018c
337ffe
32080c
6a0818
660430
070360
0d81c0
098370
10063f
20181e
c0e006
ENDCHAR
STARTCHAR ch-201
ENCODING 201
SWIDTH 1000 0
DWIDTH 24 0
BBX 24 24 0 -3
BITMAP
3800e0
3000c0
3000c0
3010c6
301fff
fe1000
329200
325380
32730c
3273fe
3212c0
6214c0
6670c0
65d0c6
649fff
d430c0
c821a0
0c21a0
166110
164310
208218
41040f
82180e
006006
ENDCHAR
STARTCHAR ch-203
ENCODING 203
SWIDTH 1000 0
DWIDTH 24 0
BBX 24 24 0 -3
BITMAP
1c0606
18ff7f
180606
180606
180606
184646
ff7e7e
336060
336060
336666
337f7f
630606
664646
663636
661616
640e0e
d43636
cce6e6
0e4646
1b0606
130e0e
200c0c
407c7c
801818
ENDCHAR
STARTCHAR ch-204
ENCODING 204
SWIDTH 1000 0
DWIDTH 24 0
BBX 24 24 0 -3
BITMAP
1c2020
181838
180c30
180c40
18fffe
180480
ff048c
337ffe
33048c
33048c
33ffff
33048c
33048c
667ffc
66048c
660cc0
740cc0
0c1ca0
0a14b0
1b3498
13249f
20448e
418486
800480
ENDCHAR
STARTCHAR ch-208
ENCODING 208
SWIDTH 1000 0
DWIDTH 24 0
BBX 24 24 0 -3
BITMAP
388238
30ff30
309230
309230
309230
30fe36
fe93ff
329264
329264
329264
32fe64
622064
662064
6426cc
65fec8
6426c8
d426a8
cc2618
0e661c
0b4614
1b4c36
108c22
20bc43
c11983
ENDCHAR
STARTCHAR ch-214
ENCODING 214
SWIDTH 1000 0
DWIDTH 24 0
BBX 24 24 0 -3
BITMAP
1c0006
183fff
180120
180120
181126
199fff
ffd926
199926
199926
199926
199ffe
319806
330000
330ffc
330000
320006
6a3fff
6600c0
0710c0
0d9cc8
0998c6
1030c3
2047c3
c00180
ENDCHAR
STARTCHAR ch-215
ENCODING 215
SWIDTH 1000 0
DWIDTH 24 0
BBX 24 24 0 -3
BITMAP
1c2006
183fff
183000
183108
1831fc
19b108
ffb108
19b108
19b1f8
19b108
19b000
31b000
333492
3337df
333492
323492
6a3492
663492
07379e
0db492
09b000
103006
203fff
c03000
ENDCHAR
STARTCHAR ch-225
ENCODING 225
SWIDTH 1000 0
DWIDTH 24 0
BBX 24 24 0 -3
BITMAP
1c01c0
180180
180186
18ffff
180820
1b0438
ff8630
330620
334046
337fff
336006
326186
626186
666ff6
666186
646186
d467e6
cc6426
0e6426
1b6426
1367e6
236006
40601e
80600c
ENDCHAR
STARTCHAR ch-227
ENCODING 227
SWIDTH 1000 0
DWIDTH 24 0
BBX 24 24 0 -3
BITMAP
1c000c
183ffe
180180
180180
181d98
1999fc
ffd980
199980
199986
19ffff
199800
319818
331ffc
331800
331806
321fff
6a1806
660046
071136
0d9496
09b28e
10620c
20607c
c00018
ENDCHAR
STARTCHAR ch-230
ENCODING 230
SWIDTH 1000 0
DWIDTH 24 0
BBX 24 24 0 -3
BITMAP
1c10e8
180cce
1806cc
1806c8
1810d2
199fff
fff006
19b004
1987f8
198618
198618
318618
3307f8
3300c0
3310c6
321fff
6a18c6
6618c6
0718c6
0d98c6
0998de
1018cc
2000c0
c000c0
ENDCHAR
STARTCHAR ch-233
ENCODING 233
SWIDTH 1000 0
DWIDTH 24 0
BBX 24 24 0 -3
BITMAP
381840
301070
301060
301360
31ffe0
301066
fe927f
32fe4c
3292cc
32928c
32934c
62924c
62924c
66fe28
649228
641038
d43810
cc3410
0e7638
0b5328
1bd36c
10904f
211086
c01306
ENDCHAR
STARTCHAR ch-250
ENCODING 250
SWIDTH 1000 0
DWIDTH 24 0
BBX 24 24 0 -3
BITMAP
384246
307f7f
306246
306246
307e7e
336246
ffe246
337e7e
336006
336006
336426
6367f6
666426
666426
666426
6467e6
d46426
cc6426
0e6426
0b67e6
1b6426
106006
20603e
c0600c
ENDCHAR
STARTCHAR ch-251
ENCODING 251
SWIDTH 1000 0
DWIDTH 24 0
BBX 24 24 0 -3
BITMAP
384246
307f7f
306246
306246
307e7e
336246
ffe246
337e7e
336006
3361c6
336186
636186
666ff6
666186
666386
6463c6
d463a6
cc65b6
0e6596
0b6996
1b6186
106186
20603e
c0600c
ENDCHAR
STARTCHAR ch-265
ENCODING 265
SWIDTH 1000 0
DWIDTH 24 0
BBX 24 24 0 -3
BITMAP
1c01c0
180180
180186
187fff
180180
198180
ffbffe
318000
318000
319ffc
31980c
33180c
631ffc
630830
630630
660642
d67fff
cc0000
0e0000
0b1ffc
1b980c
11980c
219ffc
c0180c
ENDCHAR
STARTCHAR ch-267
ENCODING 267
SWIDTH 1000 0
DWIDTH 24 0
BBX 24 24 0 -3
BITMAP
1c1326
181fbf
181326
181326
181326
199f3e
ffc000
199006
199fff
1998c6
1998c6
319ffe
3318c6
3318c6
331ffe
3218c6
6a00c0
6600c6
073fff
0d80c0
0980c0
1000c0
2000c0
c000c0
ENDCHAR
STARTCHAR ch-268
ENCODING 268
SWIDTH 1000 0
DWIDTH 24 0
BBX 24 24 0 -3
BITMAP
1c0038
1801fc
181f80
180180
180106
19bfff
ffc620
198c10
198ffc
19942f
19a426
31c7e0
330000
332006
333fff
323006
6a3006
6633e6
073226
0db226
09b3e6
103006
20303e
c0300c
ENDCHAR
STARTCHAR ch-278
ENCODING 278
SWIDTH 1000 0
DWIDTH 24 0
BBX 24 24 0 -3
BITMAP
1060e0
1ff0c4
186ffe
186210
186318
1fe110
180024
180ffe
1fe0c0
3c60c4
2c6ffe
2c60c0
4fe0c0
8c60c0
003800
007006
ffffff
01c0c0
038180
077300
060e00
0039e0
01c078
3e0018
ENDCHAR
STARTCHAR ch-290
ENCODING 290
SWIDTH 1000 0
DWIDTH 24 0
BBX 24 24 0 -3
BITMAP
1c01c0
180180
18018c
187ffe
180800
1b0e60
ff9c1c
33300e
33c446
333ff8
330440
630440
663ff8
660440
660446
d4ffff
ce0c88
0b188c
1b3858
106860
3189b0
267e1f
40380e
802006
ENDCHAR
STARTCHAR ch-298
ENCODING 298
SWIDTH 1000 0
DWIDTH 24 0
BBX 24 24 0 -3
BITMAP
1c01c0
182186
183fff
186006
186ff4
198180
ffcdac
1999f6
19a3c6
198e00
19bffc
31980c
33180c
331ffc
33180c
32180c
6a1ffc
66180c
07180c
0d9ffc
098400
100f38
201c0e
c06006
ENDCHAR
STARTCHAR ch-300
ENCODING 300
SWIDTH 1000 0
DWIDTH 24 0
BBX 24 24 0 -3
BITMAP
38000c
303ffe
300180
302186
303fff
336186
ff6184
331db8
330180
333dbc
330180
330006
627fff
660600
66240c
663ffe
d4324c
cc324c
0e324c
1b324c
13324c
23324c
40327c
803258
ENDCHAR
STARTCHAR ch-304
ENCODING 304
SWIDTH 1000 0
DWIDTH 24 0
BBX 24 24 0 -3
BITMAP
10c218
1fe3fc
18c318
18c318
1fc3f8
18c318
18c318
1fc3f8
18c318
18c318
1fc3f8
088120
0c6198
18630c
600c0c
006002
ffffff
00c180
038300
076600
061c00
0073c0
03c0f8
3c0018
ENDCHAR
STARTCHAR ch-306
ENCODING 306
SWIDTH 1000 0
DWIDTH 24 0
BBX 24 24 0 -3
BITMAP
413882
7fb0ff
493092
493092
493092
7f36fe
49ff92
493292
493292
493292
7f32fe
103220
106620
136426
ffe5ff
136426
131c26
130826
331c66
231446
26364c
46268c
5e40bc
8c8118
ENDCHAR
STARTCHAR ch-310
ENCODING 310
SWIDTH 1000 0
DWIDTH 24 0
BBX 24 24 0 -3
BITMAP
1c0100
180998
180ffc
180808
180ff8
198808
ffcff8
198808
198ff8
198000
199ffc
319084
331084
331ffc
331084
321084
6a1ffc
660630
077fff
0d8630
098630
100c30
201830
c06030
ENDCHAR
STARTCHAR ch-318
ENCODING 318
SWIDTH 1000 0
DWIDTH 24 0
BBX 24 24 0 -3
BITMAP
381806
3011ff
301030
301230
31ff20
3010fe
fe92c6
32fec6
3292c6
3292fe
3292c6
6292c6
6292c6
66fefe
6492c6
6410c6
d438c6
cc34c6
0e76fe
0b5600
1bd048
109066
2110c3
c01103
ENDCHAR
STARTCHAR ch-320
ENCODING 320
SWIDTH 1000 0
DWIDTH 24 0
BBX 24 24 0 -3
BITMAP
1c0018
181ffc
180180
182186
183fff
186186
ffe184
199db8
198180
19bdbc
198180
318c00
330842
33087f
337f42
321842
6a1c7e
661a42
073b42
0da97e
09e842
104842
20887e
c00842
ENDCHAR
STARTCHAR ch-323
ENCODING 323
SWIDTH 1000 0
DWIDTH 24 0
BBX 24 24 0 -3
BITMAP
1c01c0
180186
18ffff
180000
183e7c
1b2244
ffa244
333e7c
330420
333ffc
330420
630420
663ffc
660420
660426
d4ffff
ce0c88
0b188c
1b3858
106860
3189b0
207e1f
40380e
802006
ENDCHAR
STARTCHAR ch-325
ENCODING 325
SWIDTH 1000 0
DWIDTH 24 0
BBX 24 24 0 -3
BITMAP
384470
306660
306668
30cc66
30ab62
311160
ff0066
33ffff
332460
332460
332460
32e764
622467
662466
66e726
64242c
dc242c
c8e738
1c2412
16243a
36272a
21fc4e
40e087
808103
ENDCHAR
STARTCHAR ch-336
ENCODING 336
SWIDTH 1000 0
DWIDTH 24 0
BBX 24 24 0 -3
BITMAP
000000
000030
1ffff8
000070
0000e0
000180
000300
001400
001800
001800
001806
ffffff
001800
001800
001800
001800
001800
001800
001800
001800
001800
001800
00f800
003000
ENDCHAR
STARTCHAR ch-337
ENCODING 337
SWIDTH 1000 0
DWIDTH 24 0
BBX 24 24 0 -3
BITMAP
000000
000060
0ffff0
0000c0
000180
000100
000200
001400
001800
001800
00180c
0018f0
001fc0
007e00
03f800
7f9800
3c1800
201800
001800
001800
001800
001800
00f800
003000
ENDCHAR
STARTCHAR ch-340
ENCODING 340
SWIDTH 1000 0
DWIDTH 24 0
BBX 24 24 0 -3
BITMAP
000380
003300
fffb00
003300
006300
008300
050300
060300
060300
060300
066300
0f8300
fe0300
760300
460300
060300
060300
060300
060302
060302
060302
060303
3e03ff
0c01fe
ENDCHAR
STARTCHAR ch-341
ENCODING 341
SWIDTH 1000 0
DWIDTH 24 0
BBX 24 24 0 -3
BITMAP
0000c0
3fffe0
0180c0
018180
018186
0303ff
030306
060006
060006
0c018e
1bffcc
3001bc
c00318
000200
001400
001806
ffffff
001800
001800
001800
001800
001800
00f800
003000
ENDCHAR
STARTCHAR ch-343
ENCODING 343
SWIDTH 1000 0
DWIDTH 24 0
BBX 24 24 0 -3
BITMAP
001c00
001800
101800
101806
3fffff
300006
600004
6000c8
07ffe0
0000c0
000180
001200
001c00
001806
ffffff
001800
001800
001800
001800
001800
001800
001800
00f800
003000
ENDCHAR
STARTCHAR ch-344
ENCODING 344
SWIDTH 1000 0
DWIDTH 24 0
BBX 24 24 0 -3
BITMAP
004000
007000
006000
006006
ffffff
00c000
00c000
018030
01bff8
030060
060040
060280
0e0300
160300
260306
c6ffff
060300
060300
060300
060300
060300
060300
061f00
060600
ENDCHAR
STARTCHAR ch-346
ENCODING 346
SWIDTH 1000 0
DWIDTH 24 0
BBX 24 24 0 -3
BITMAP
0001c0
041fe0
07f800
0e1020
0c0818
180c0c
100c06
200006
4000c0
07ffe0
000180
000300
000200
001400
001806
ffffff
001800
001800
001800
001800
001800
001800
00f800
003000
ENDCHAR
STARTCHAR ch-347
ENCODING 347
SWIDTH 1000 0
DWIDTH 24 0
BBX 24 24 0 -3
BITMAP
001c00
001800
00180c
7ffffe
001800
101800
101806
3fffff
300006
6000c4
67ffe8
000180
000300
001400
001800
001806
ffffff
001800
001800
001800
001800
001800
00f800
003000
ENDCHAR
STARTCHAR ch-348
ENCODING 348
SWIDTH 1000 0
DWIDTH 24 0
BBX 24 24 0 -3
BITMAP
00c200
ffe380
00c300
018300
010600
0a0606
0c07ff
0c0c20
0c0838
0c9830
0f1430
1c2430
fc0260
6c0260
4c0140
0c01c0
0c0080
0c01c0
0c0160
0c0330
0c063c
0c0c1f
7c300e
18c006
ENDCHAR
STARTCHAR ch-349
ENCODING 349
SWIDTH 1000 0
DWIDTH 24 0
BBX 24 24 0 -3
BITMAP
003800
003000
003020
003338
1ffff0
0030e0
0031c0
003386
ffffff
001c00
003800
00e0c0
0fffe0
030180
1c1300
e01c00
00180c
7ffffe
001800
001800
001800
001800
00f800
003000
ENDCHAR
STARTCHAR ch-351
ENCODING 351
SWIDTH 1000 0
DWIDTH 24 0
BBX 24 24 0 -3
BITMAP
0000c0
0fffe0
000180
000300
001400
001800
001806
ffffff
001800
001800
001800
001800
00f800
003000
100030
1ffff8
18c630
18c630
18c630
18c630
18c630
18c636
ffffff
000000
ENDCHAR
STARTCHAR ch-355
ENCODING 355
SWIDTH 1000 0
DWIDTH 24 0
BBX 24 24 0 -3
BITMAP
0000e0
000ff0
1ffe00
001800
001806
ffffff
00fa00
01d980
0398e0
06187f
18181e
e000c6
0fffe0
0001c0
001300
001c00
001806
ffffff
001800
001800
001800
001800
00f800
003000
ENDCHAR
STARTCHAR ch-356
ENCODING 356
SWIDTH 1000 0
DWIDTH 24 0
BBX 24 24 0 -3
BITMAP
030018
ffa0fc
033fc0
033020
023320
143320
183320
183320
183320
183320
1b3320
1c3320
f83330
783310
583310
183310
186318
186318
186358
18434c
18c3ec
18be6f
f91866
320006
ENDCHAR
STARTCHAR ch-357
ENCODING 357
SWIDTH 1000 0
DWIDTH 24 0
BBX 24 24 0 -3
BITMAP
070000
06000c
0637fe
fffa0c
0c3218
186130
386160
37c0c0
01f1e0
03333f
06061e
181806
6000c0
07ffe0
000180
000200
001406
ffffff
001800
001800
001800
001800
00f800
003000
ENDCHAR
STARTCHAR ch-358
ENCODING 358
SWIDTH 1000 0
DWIDTH 24 0
BBX 24 24 0 -3
BITMAP
004020
083038
061870
2318c0
230106
7fffff
600006
c00004
c000c8
0fffe0
000180
000300
001400
001800
001806
ffffff
001800
001800
001800
001800
001800
001800
00f800
003000
ENDCHAR
STARTCHAR ch-361
ENCODING 361
SWIDTH 1000 0
DWIDTH 24 0
BBX 24 24 0 -3
BITMAP
00c1c0
ffe180
00c180
018186
017fff
0a0200
0c0380
0c0300
0c1220
0c0c38
0f8670
1e0660
fc00c8
6c018e
4c031c
0c0618
0c0c30
0c1860
0c60c0
0c01b0
0c030c
0c0606
7c1807
186003
ENDCHAR
STARTCHAR ch-363
ENCODING 363
SWIDTH 1000 0
DWIDTH 24 0
BBX 24 24 0 -3
BITMAP
000018
01807c
ffc3e0
01be00
010380
0a0300
0c0220
0c2438
0c1870
0ccc60
0f0cc8
fc0104
7c0206
4cfffb
0c7f83
0c4183
0c11a0
0c1d90
0c1988
0c318c
0c2186
0c4186
7c8180
180180
ENDCHAR
STARTCHAR ch-368
ENCODING 368
SWIDTH 1000 0
DWIDTH 24 0
BBX 24 24 0 -3
BITMAP
0381c0
030180
031980
fffd80
000180
000198
3fe7fc
306198
306198
3fe198
000198
006598
7ff398
00c118
028118
030398
033298
0fc2d8
ff02da
73061a
43041a
030c1b
1f081f
06100e
ENDCHAR
STARTCHAR ch-369
ENCODING 369
SWIDTH 1000 0
DWIDTH 24 0
BBX 24 24 0 -3
BITMAP
10000c
1ffffe
18000c
18000c
1ffffc
18000c
180000
187fe0
1800c0
180300
19fffc
180300
180300
181f00
180600
37f9fe
30300c
304008
20f830
6fc3ff
46c030
80c030
03c0f0
018060
ENDCHAR
STARTCHAR ch-371
ENCODING 371
SWIDTH 1000 0
DWIDTH 24 0
BBX 24 24 0 -3
BITMAP
020100
0181c0
00c180
00c206
ffffff
020080
0300c0
264990
18e638
098260
024090
042108
7ffffc
38330c
000000
0fffe0
000380
001600
001806
ffffff
001800
001800
00f800
003000
ENDCHAR
STARTCHAR ch-373
ENCODING 373
SWIDTH 1000 0
DWIDTH 24 0
BBX 24 24 0 -3
BITMAP
04000c
0e883e
58fdf0
70c842
4cca23
4cc933
4cc9b6
4cc984
6ce802
5cdbff
5cd806
4cc804
4cc828
4cc830
4cc832
4ccbff
7cc830
ecc830
4cf830
08d830
18c030
10c030
20c1f0
40c060
ENDCHAR
STARTCHAR ch-376
ENCODING 376
SWIDTH 1000 0
DWIDTH 24 0
BBX 24 24 0 -3
BITMAP
00c000
13e018
1e01fc
182418
181818
1f24f8
180018
182418
1f18f8
182418
58001a
7fffff
400006
c000c4
cfffe8
000180
000300
001406
ffffff
001800
001800
001800
00f800
003000
ENDCHAR
STARTCHAR ch-378
ENCODING 378
SWIDTH 1000 0
DWIDTH 24 0
BBX 24 24 0 -3
BITMAP
03000c
ffbffe
030300
034306
027fff
14c306
18c304
181b30
180300
183b38
180300
1a0006
1cffff
f80300
78420c
587ffe
18648c
18648c
18648c
18648c
18648c
18648c
f864bc
306498
ENDCHAR
STARTCHAR ch-384
ENCODING 384
SWIDTH 1000 0
DWIDTH 24 0
BBX 24 24 0 -3
BITMAP
000000
000000
000000
000000
000000
001c00
001800
001800
201800
201806
7fffff
600006
c00004
c00008
000000
000000
000000
000000
000000
000000
000000
000000
000000
000000
ENDCHAR
STARTCHAR ch-387
ENCODING 387
SWIDTH 1000 0
DWIDTH 24 0
BBX 24 24 0 -3
BITMAP
001c00
001800
201800
201806
7fffff
600006
c00004
c00008
038000
030000
030180
0303c0
030f00
033800
03c000
030000
030000
030000
030000
030010
030010
030018
03fff8
01fff0
ENDCHAR
STARTCHAR ch-389
ENCODING 389
SWIDTH 1000 0
DWIDTH 24 0
BBX 24 24 0 -3
BITMAP
001c00
001800
101800
101806
3fffff
300006
600184
600fc8
007c00
07e000
786000
006000
006000
006006
ffffff
006000
006000
006000
006000
006008
006008
00600c
007ffc
003ff8
ENDCHAR
STARTCHAR ch-391
ENCODING 391
SWIDTH 1000 0
DWIDTH 24 0
BBX 24 24 0 -3
BITMAP
001c00
101800
101806
3fffff
300006
600004
600008
000060
0ffff0
001800
001800
001800
001806
ffffff
001800
001800
001800
001800
001800
001800
001800
001800
00f800
003000
ENDCHAR
STARTCHAR ch-392
ENCODING 392
SWIDTH 1000 0
DWIDTH 24 0
BBX 24 24 0 -3
BITMAP
000e00
100c00
100c06
3fffff
300006
600004
6001c8
000180
000180
000186
ffffff
000180
000180
040180
030180
018180
01c180
00c180
000180
000180
000180
000180
000f80
000300
ENDCHAR
STARTCHAR ch-393
ENCODING 393
SWIDTH 1000 0
DWIDTH 24 0
BBX 24 24 0 -3
BITMAP
001c00
101800
101806
3fffff
30000c
602008
603810
003000
006000
006000
00c006
ffffff
00c0c0
0180c0
018180
030180
06c300
0e3600
0c0c00
001b80
0070e0
00c038
07001c
78000c
ENDCHAR
STARTCHAR ch-395
ENCODING 395
SWIDTH 1000 0
DWIDTH 24 0
BBX 24 24 0 -3
BITMAP
001c00
001800
101800
101806
3fffff
300006
600004
601c08
001800
001800
001806
ffffff
007a00
00d900
00d900
019880
0318c0
061860
0c1838
18181f
30180e
c01806
001800
001800
ENDCHAR
STARTCHAR ch-396
ENCODING 396
SWIDTH 1000 0
DWIDTH 24 0
BBX 24 24 0 -3
BITMAP
001c00
001800
201800
201806
7fffff
600006
c00004
c00008
000060
1ffff0
000000
000000
000006
ffffff
00c600
00c600
00c600
00c600
018602
018602
030602
060603
1807ff
e003fe
ENDCHAR
STARTCHAR ch-397
ENCODING 397
SWIDTH 1000 0
DWIDTH 24 0
BBX 24 24 0 -3
BITMAP
001c00
001800
101800
101806
1fffff
300006
30000c
601c08
601810
001800
001800
001806
ffffff
000000
000000
020000
038180
030060
070030
060018
0c000c
18000e
300006
c00006
ENDCHAR
STARTCHAR ch-399
ENCODING 399
SWIDTH 1000 0
DWIDTH 24 0
BBX 24 24 0 -3
BITMAP
001c00
001800
101800
101806
3fffff
300006
602004
603808
003000
003006
ffffff
006000
00c400
00c700
018600
018600
030c00
060c40
041820
081030
102018
63fffc
01f80c
01000c
ENDCHAR
STARTCHAR ch-405
ENCODING 405
SWIDTH 1000 0
DWIDTH 24 0
BBX 24 24 0 -3
BITMAP
001c00
101800
101806
3fffff
300006
600004
600008
000000
ffffff
00c000
00c000
018000
018000
030030
03fff8
070030
0b0030
330030
c30030
030030
030030
03fff0
030030
030030
ENDCHAR
STARTCHAR ch-407
ENCODING 407
SWIDTH 1000 0
DWIDTH 24 0
BBX 24 24 0 -3
BITMAP
001c00
001800
101800
101806
3fffff
300006
600004
6000c8
07ffe0
000000
000000
000006
ffffff
001800
001800
041800
071840
0e1830
0c1818
18180c
30180e
c01806
00f800
003000
ENDCHAR
STARTCHAR ch-408
ENCODING 408
SWIDTH 1000 0
DWIDTH 24 0
BBX 24 24 0 -3
BITMAP
001c00
201800
201806
7fffff
600006
c00004
c400c8
07ffe0
0600c0
0600c0
0600c0
0600c0
07ffc0
0600c0
060000
060060
07fff0
060060
060060
060060
060060
060060
07ffe0
060060
ENDCHAR
STARTCHAR ch-409
ENCODING 409
SWIDTH 1000 0
DWIDTH 24 0
BBX 24 24 0 -3
BITMAP
001c00
001800
101800
101806
3fffff
300006
600004
601c08
001800
001800
081830
0ffff8
0c1830
0c1830
0c1830
0c1830
0ffff0
0c1830
0c1830
0c1830
0c1830
0ffff0
0c0030
0c0030
ENDCHAR
STARTCHAR ch-410
ENCODING 410
SWIDTH 1000 0
DWIDTH 24 0
BBX 24 24 0 -3
BITMAP
001c00
001800
101800
101806
3fffff
300006
600004
600008
000000
3ffffc
001800
001800
041800
071800
061830
061ff8
061800
061800
0d1800
0c9800
187800
103e00
200fff
c001fe
ENDCHAR
STARTCHAR ch-411
ENCODING 411
SWIDTH 1000 0
DWIDTH 24 0
BBX 24 24 0 -3
BITMAP
001c00
201800
201806
3fffff
600006
640004
c70008
c60000
066418
0ff7fc
0c6618
186618
306618
68c618
86c618
06c618
018618
0186fa
030632
060602
0c0607
1807ff
3003fe
c00000
ENDCHAR
STARTCHAR ch-412
ENCODING 412
SWIDTH 1000 0
DWIDTH 24 0
BBX 24 24 0 -3
BITMAP
001c00
201800
201806
3fffff
600006
600004
c200c8
c3ffe0
0300c0
0300c0
0300c0
0300c0
03ffc0
0300c0
0300c0
0300c0
0300c0
03ffc0
0300c0
0300c0
0300c0
0300c6
ffffff
000000
ENDCHAR
STARTCHAR ch-413
ENCODING 413
SWIDTH 1000 0
DWIDTH 24 0
BBX 24 24 0 -3
BITMAP
001c00
001800
101800
101806
3fffff
300006
600004
600008
000060
0ffff0
001800
001800
001800
001860
0ffff0
001800
001a00
001980
0018c0
0018c0
001800
00180c
7ffffe
000000
ENDCHAR
STARTCHAR ch-415
ENCODING 415
SWIDTH 1000 0
DWIDTH 24 0
BBX 24 24 0 -3
BITMAP
001c00
101800
101806
3fffff
300006
601c04
601808
001830
1ffff8
001800
001800
1ffff8
001800
001800
001806
ffffff
003400
006200
006300
00c1c0
0180f0
06007f
18001e
e00006
ENDCHAR
STARTCHAR ch-418
ENCODING 418
SWIDTH 1000 0
DWIDTH 24 0
BBX 24 24 0 -3
BITMAP
001c00
101800
101806
3fffff
308006
60e004
60c188
01ffc0
030380
068700
0c4e00
307c00
003800
006c00
01c780
0301ff
0e007e
3bffce
c300c0
0300c0
0300c0
0300c0
03ffc0
0300c0
ENDCHAR
STARTCHAR ch-419
ENCODING 419
SWIDTH 1000 0
DWIDTH 24 0
BBX 24 24 0 -3
BITMAP
001c00
101800
101806
3fffff
300006
600004
6000c8
07ffe0
000000
000000
040060
07fff0
060060
060060
07ffe0
060060
060060
060060
07ffe0
060060
000000
000006
ffffff
000000
ENDCHAR
STARTCHAR ch-420
ENCODING 420
SWIDTH 1000 0
DWIDTH 24 0
BBX 24 24 0 -3
BITMAP
001c00
101800
101806
3fffff
300006
600004
600068
0ffff0
006000
004180
004060
0083b0
3ffc18
1f8018
101c00
001800
001818
3ffffc
001800
001800
001800
001806
ffffff
000000
ENDCHAR
STARTCHAR ch-421
ENCODING 421
SWIDTH 1000 0
DWIDTH 24 0
BBX 24 24 0 -3
BITMAP
001c00
101800
101806
3fffff
300006
607004
606008
006000
ffffff
00c000
00c000
018030
01fff8
038030
078030
0dfff0
198030
618030
01fff0
018030
018030
018030
0181f0
018060
ENDCHAR
STARTCHAR ch-422
ENCODING 422
SWIDTH 1000 0
DWIDTH 24 0
BBX 24 24 0 -3
BITMAP
001c00
201800
201806
7fffff
600006
c00004
c80030
0ffff8
0c1800
0c1800
0c1800
0c1830
0ffff8
0c0030
0c0030
0c0030
0c0030
0ffff0
0c1830
0c1800
0c1800
0c1818
0ffffc
0c0000
ENDCHAR
STARTCHAR ch-430
ENCODING 430
SWIDTH 1000 0
DWIDTH 24 0
BBX 24 24 0 -3
BITMAP
001c00
201800
201806
7fffff
600006
c00008
c40060
07fff0
060060
060060
060060
060060
07ffe0
061860
001000
102018
1ffffc
180018
180018
180018
180018
180018
1ffff8
180018
ENDCHAR
STARTCHAR ch-432
ENCODING 432
SWIDTH 1000 0
DWIDTH 24 0
BBX 24 24 0 -3
BITMAP
001c00
101800
101806
3fffff
300006
601c04
601808
1ffffc
020100
0181c0
00c180
00c100
000206
ffffff
001800
001800
001818
3ffffc
001800
001800
001800
001800
001800
001800
ENDCHAR
STARTCHAR ch-435
ENCODING 435
SWIDTH 1000 0
DWIDTH 24 0
BBX 24 24 0 -3
BITMAP
001c00
201800
201806
7fffff
600006
c01c08
c01830
1ffff8
001800
001800
1ffff8
001800
001806
ffffff
000000
040060
07fff0
060060
060060
060060
060060
07ffe0
060060
060060
ENDCHAR
STARTCHAR ch-436
ENCODING 436
SWIDTH 1000 0
DWIDTH 24 0
BBX 24 24 0 -3
BITMAP
001c00
101800
101806
3fffff
300006
6200c4
63ffe8
0300c0
0300c0
03ffc0
0300c0
0300c0
03ffc0
0340c0
007000
00e006
ffffff
0181c0
038380
077600
060fc0
0038f8
01e03c
7e000c
ENDCHAR
STARTCHAR ch-437
ENCODING 437
SWIDTH 1000 0
DWIDTH 24 0
BBX 24 24 0 -3
BITMAP
001c00
101800
101806
1fffff
300006
341c84
6318e8
6198c0
019880
001900
041860
07fff0
060060
060060
07ffe0
060060
060060
07ffe0
060060
060060
060060
060060
0603e0
0600c0
ENDCHAR
STARTCHAR ch-438
ENCODING 438
SWIDTH 1000 0
DWIDTH 24 0
BBX 24 24 0 -3
BITMAP
001c00
201800
201806
7fffff
600006
c00004
c000c8
1fffe0
006000
00d008
03980e
0e3c1c
706430
00c640
018f00
061e80
3836c0
007660
00e638
03861f
0e060e
f00c06
00fc00
003800
ENDCHAR
STARTCHAR ch-440
ENCODING 440
SWIDTH 1000 0
DWIDTH 24 0
BBX 24 24 0 -3
BITMAP
001c00
101800
101806
3fffff
300006
600004
680030
0ffff8
0c0000
0c0000
0cfff0
0c0000
0c000c
0ffffe
18c420
18c438
18c260
10c280
30c100
20c180
40cce0
8ff07e
07803c
04000c
ENDCHAR
STARTCHAR ch-441
ENCODING 441
SWIDTH 1000 0
DWIDTH 24 0
BBX 24 24 0 -3
BITMAP
001c00
101800
101806
3fffff
300006
610004
61c188
038060
061830
0c3818
183418
206200
00c180
0180c0
030070
0c003f
33ffde
c300c6
0300c0
0300c0
0300c0
0300c0
03ffc0
0300c0
ENDCHAR
STARTCHAR ch-447
ENCODING 447
SWIDTH 1000 0
DWIDTH 24 0
BBX 24 24 0 -3
BITMAP
001c00
101800
101806
3fffff
30000c
640010
670006
06ffff
060180
0c0100
0c220c
1c3ffe
1c300c
3c300c
2c300c
4c300c
8c3ffc
0c300c
0c300c
0c300c
0c300c
0c3ffc
0c300c
0c300c
ENDCHAR
STARTCHAR ch-450
ENCODING 450
SWIDTH 1000 0
DWIDTH 24 0
BBX 24 24 0 -3
BITMAP
001c00
101800
101806
3fffff
300006
638004
630000
03300c
03fffe
03020c
03020c
033218
7ff918
030110
030130
2340a0
3b30e0
331840
330ce0
630cb0
430198
83031f
1f060e
061806
ENDCHAR
STARTCHAR ch-451
ENCODING 451
SWIDTH 1000 0
DWIDTH 24 0
BBX 24 24 0 -3
BITMAP
001c00
101800
101806
3fffff
300006
606004
60ff88
018300
030600
060c30
1ffff8
6c1830
0c1830
0c1830
0ffff0
0c0630
008600
00e640
01c638
01861a
030602
060603
1807ff
e003fe
ENDCHAR
STARTCHAR ch-452
ENCODING 452
SWIDTH 1000 0
DWIDTH 24 0
BBX 24 24 0 -3
BITMAP
201c00
201806
7fffff
600006
c03804
c030c8
0fffe0
003000
006c00
00c380
0181c0
0600c0
000006
ffffff
000060
083060
0ff860
0c3060
0c3060
0c3060
0ff060
0c3060
0c07e0
0001c0
ENDCHAR
STARTCHAR ch-453
ENCODING 453
SWIDTH 1000 0
DWIDTH 24 0
BBX 24 24 0 -3
BITMAP
001c00
101800
101806
3fffff
300006
600004
67ffe8
001800
001800
081830
0ffff8
0c1830
0c1830
0c1830
0ffff0
0c1830
0c1830
0c1830
0ffff0
010000
03c1c0
070038
1c001c
60000c
ENDCHAR
STARTCHAR ch-454
ENCODING 454
SWIDTH 1000 0
DWIDTH 24 0
BBX 24 24 0 -3
BITMAP
001c00
101800
101806
3fffff
300006
606104
6019c8
019b80
098730
098c0c
119886
71a0c7
61ffc3
03ff80
1c0000
e01c00
0e1838
0c1830
0c1830
0c1830
0c1830
0ffff0
0c0030
0c0030
ENDCHAR
STARTCHAR ch-455
ENCODING 455
SWIDTH 1000 0
DWIDTH 24 0
BBX 24 24 0 -3
BITMAP
001c00
101800
101806
3fffff
300006
6001c4
60c180
1fe198
0001fc
000180
003180
7ffffc
0cc018
0cc618
0cc1b0
0cc0e0
0cc0e0
0cc1b0
18c31a
18cc1a
10c003
30ffff
207ffe
c00000
ENDCHAR
STARTCHAR ch-457
ENCODING 457
SWIDTH 1000 0
DWIDTH 24 0
BBX 24 24 0 -3
BITMAP
001c00
101800
101806
3fffff
300006
610004
61c208
038380
030300
060418
07fffc
0e0c00
1e0c00
360c30
c7fff8
060c00
060c00
060c30
07fff8
060c00
060c00
060c0c
07fffe
060000
ENDCHAR
STARTCHAR ch-460
ENCODING 460
SWIDTH 1000 0
DWIDTH 24 0
BBX 24 24 0 -3
BITMAP
001c00
101800
101806
3fffff
300006
600004
67ffe8
000000
000000
03ffc0
0300c0
0300c0
03ffc0
000000
100018
1ffffc
181818
181818
1ffff8
181818
181818
181818
1ffff8
180018
ENDCHAR
STARTCHAR ch-464
ENCODING 464
SWIDTH 1000 0
DWIDTH 24 0
BBX 24 24 0 -3
BITMAP
001c00
101800
101806
3fffff
300006
600004
670388
060300
060318
467ffc
260300
360300
36030c
06fffe
060740
060f40
1e0b20
f61b30
661318
46231c
06430f
078306
061f00
060600
ENDCHAR
STARTCHAR ch-466
ENCODING 466
SWIDTH 1000 0
DWIDTH 24 0
BBX 24 24 0 -3
BITMAP
001c00
101800
101806
3fffff
30000c
60e390
60c300
1ffff8
00c300
00c300
1ffff8
00c300
00c306
ffffff
01c100
018080
0338c0
060e70
0c063f
30001e
c1c006
003e00
000780
000180
ENDCHAR
STARTCHAR ch-467
ENCODING 467
SWIDTH 1000 0
DWIDTH 24 0
BBX 24 24 0 -3
BITMAP
001c00
101800
101806
3fffff
300006
600004
67ffe8
061860
061860
07ffe0
061860
061860
07ffe0
001800
20180c
3ffffe
30180c
30190c
30188c
37ffcc
33e0cc
3200cc
30003c
300018
ENDCHAR
STARTCHAR ch-468
ENCODING 468
SWIDTH 1000 0
DWIDTH 24 0
BBX 24 24 0 -3
BITMAP
001c00
101800
101806
3fffff
300006
600004
63ffc8
0300c0
0300c0
03ffc0
0300c0
0300c0
03ffc0
000000
000006
ffffff
001800
041818
071ffc
0e1800
0d1800
18f800
303fff
c007fe
ENDCHAR
STARTCHAR ch-475
ENCODING 475
SWIDTH 1000 0
DWIDTH 24 0
BBX 24 24 0 -3
BITMAP
201c00
201806
7fffff
600006
c0e388
c0c300
3ffffe
00c300
00c300
07ffe0
060060
060060
07ffe0
060060
060060
07ffe0
060060
060060
07ffe0
00c602
01c602
038603
0e07ff
f003fe
ENDCHAR
STARTCHAR ch-477
ENCODING 477
SWIDTH 1000 0
DWIDTH 24 0
BBX 24 24 0 -3
BITMAP
001c00
101800
101806
3fffff
600006
600004
071ff0
060010
461ff0
260010
361ff0
360000
064006
067fff
06c006
06c064
0e3ff0
f60860
6604c0
460380
0606c0
060c78
06301f
06c006
ENDCHAR
STARTCHAR ch-478
ENCODING 478
SWIDTH 1000 0
DWIDTH 24 0
BBX 24 24 0 -3
BITMAP
001c00
101800
101806
3fffff
300006
60e384
60c330
1ffff8
00c300
00c300
07ffe0
060060
060060
07ffe0
060060
060060
07ffe0
003006
ffffff
006400
00c300
0381e0
0e007e
70001c
ENDCHAR
STARTCHAR ch-479
ENCODING 479
SWIDTH 1000 0
DWIDTH 24 0
BBX 24 24 0 -3
BITMAP
001c00
201800
201806
7fffff
620004
c31818
c7fffc
0c3418
1a6210
32c120
4980c0
0b0060
06ff38
0c001f
300006
cffff0
001800
041800
0718c0
0e1830
1c181c
30180e
c0f806
003000
ENDCHAR
STARTCHAR ch-481
ENCODING 481
SWIDTH 1000 0
DWIDTH 24 0
BBX 24 24 0 -3
BITMAP
201c00
201806
3fffff
600006
600004
cffff0
c03000
002000
07ffe0
060060
07ffe0
060060
07ffe0
060066
ffffff
018100
030080
07ffe0
0c61bf
30619e
c0c186
018300
061f00
180600
ENDCHAR
STARTCHAR ch-482
ENCODING 482
SWIDTH 1000 0
DWIDTH 24 0
BBX 24 24 0 -3
BITMAP
001c00
101800
101806
3fffff
600006
600004
039ff0
330010
331ff0
330010
331ff0
3f0000
332006
033fff
036006
ff6004
331ff0
330830
330460
2306c0
630380
4306f0
83183f
03600e
ENDCHAR
STARTCHAR ch-484
ENCODING 484
SWIDTH 1000 0
DWIDTH 24 0
BBX 24 24 0 -3
BITMAP
001c00
101800
101806
3fffff
300006
600004
670018
067ffc
060600
460630
263ff8
360c30
360c30
060c36
06ffff
060000
1e2018
f63ffc
663018
463018
063018
063018
063ff8
063018
ENDCHAR
STARTCHAR ch-485
ENCODING 485
SWIDTH 1000 0
DWIDTH 24 0
BBX 24 24 0 -3
BITMAP
001c00
101800
101806
3fffff
300006
60c034
7fe7f8
08c230
0cc330
04e130
03c0f0
1ec7b0
08da30
003800
007400
00c300
03a0f0
1e343f
e0ce4e
0f18e0
006180
038600
003800
07c000
ENDCHAR
STARTCHAR ch-486
ENCODING 486
SWIDTH 1000 0
DWIDTH 24 0
BBX 24 24 0 -3
BITMAP
001c00
101806
1fffff
300006
600004
67ffe8
041026
ffffff
041020
041020
07ffe0
000000
0ffff0
0c0030
0ffff0
0c0030
0c0030
0ffff0
0c0030
0c0030
0ffff0
018000
07c1fc
38001c
ENDCHAR
STARTCHAR ch-487
ENCODING 487
SWIDTH 1000 0
DWIDTH 24 0
BBX 24 24 0 -3
BITMAP
001c00
201800
201806
7fffff
601006
c1cc24
c98498
1180cc
71ffcc
60ff80
000000
000000
1ffff8
184218
184218
1ffff8
000000
000006
ffffff
001800
001800
001800
00f800
003000
ENDCHAR
STARTCHAR ch-488
ENCODING 488
SWIDTH 1000 0
DWIDTH 24 0
BBX 24 24 0 -3
BITMAP
001c00
101800
101806
3fffff
300006
60c304
6ffff0
00c300
00c300
0ffff0
00c300
00c306
ffffff
018100
030080
061c60
0c1838
33ffdf
c07a06
00d900
0198c0
06187c
381818
001800
ENDCHAR
STARTCHAR ch-489
ENCODING 489
SWIDTH 1000 0
DWIDTH 24 0
BBX 24 24 0 -3
BITMAP
101c00
101806
3fffff
300006
6001c4
601fe8
0ff880
0218c0
011880
011906
ffffff
00da00
019900
0318c0
061878
18001f
e7ffe6
061860
061860
07ffe0
061860
061860
07ffe0
060060
ENDCHAR
STARTCHAR ch-491
ENCODING 491
SWIDTH 1000 0
DWIDTH 24 0
BBX 24 24 0 -3
BITMAP
001c00
101800
101806
3fffff
300006
606004
64f068
0707f0
060060
064060
07e7e0
060060
060060
07ffe0
010000
01800c
03fffe
06000c
0c020c
30918c
044c9c
0c6418
1860f8
180030
ENDCHAR
STARTCHAR ch-494
ENCODING 494
SWIDTH 1000 0
DWIDTH 24 0
BBX 24 24 0 -3
BITMAP
001c00
101800
101806
3fffff
60400c
607010
006000
ffffff
00c200
198118
0b0090
07ffe0
0a0078
32005f
c3ffc6
020040
020040
03ffc0
041800
0718c0
0e1838
18181c
60f80c
003000
ENDCHAR
STARTCHAR ch-496
ENCODING 496
SWIDTH 1000 0
DWIDTH 24 0
BBX 24 24 0 -3
BITMAP
001c00
101800
101806
3fffff
300006
600004
67ffe8
064460
064460
07ffe0
000000
000006
ffffff
000000
03ffc0
020040
020040
03ffd0
01c438
038260
0d8180
71fce0
07e07e
03001c
ENDCHAR
STARTCHAR ch-499
ENCODING 499
SWIDTH 1000 0
DWIDTH 24 0
BBX 24 24 0 -3
BITMAP
001c00
101806
1fffff
300806
600e04
7fcc18
061ffc
061080
3fa890
060c8c
061886
7fa386
300180
0ffff0
080010
0ffff0
080010
0ffff0
080010
0ffff0
010000
03c0f8
0f001e
700006
ENDCHAR
STARTCHAR ch-501
ENCODING 501
SWIDTH 1000 0
DWIDTH 24 0
BBX 24 24 0 -3
BITMAP
201c00
201806
7fffff
c00004
c70388
062302
7ff3ff
108300
08830c
0913fe
fff80c
00020c
2063fc
3ff30c
306300
3063fc
3fe300
3063fc
306300
3fe3fa
306302
306303
31e3ff
30c1fe
ENDCHAR
STARTCHAR ch-502
ENCODING 502
SWIDTH 1000 0
DWIDTH 24 0
BBX 24 24 0 -3
BITMAP
001c00
101806
1fffff
300606
600404
7fcff8
061880
060080
3fdffe
060888
060888
7fcff8
300000
0ffff0
080010
0ffff0
080010
0ffff0
080010
0ffff0
010000
03c0f8
0f001e
700006
ENDCHAR
STARTCHAR ch-504
ENCODING 504
SWIDTH 1000 0
DWIDTH 24 0
BBX 24 24 0 -3
BITMAP
0001c0
000180
000180
000180
000180
000186
ffffff
000180
000180
000180
040180
030180
018180
01c180
00c180
00c180
000180
000180
000180
000180
000180
000180
000f80
000300
ENDCHAR
STARTCHAR ch-506
ENCODING 506
SWIDTH 1000 0
DWIDTH 24 0
BBX 24 24 0 -3
BITMAP
001c00
001800
001800
001830
1ffff8
001800
001800
001800
001806
ffffff
000000
0000c0
0000cc
7ffffe
0000c0
0400c0
0300c0
0180c0
00c0c0
00c0c0
0000c0
0000c0
0007c0
000180
ENDCHAR
STARTCHAR ch-510
ENCODING 510
SWIDTH 1000 0
DWIDTH 24 0
BBX 24 24 0 -3
BITMAP
070038
060030
060030
060030
060030
063036
ffffff
008030
00e030
20c030
10c830
098430
0d8630
070330
020330
070330
058030
0cc030
18c030
10c030
200030
400030
8001f0
000060
ENDCHAR
STARTCHAR ch-511
ENCODING 511
SWIDTH 1000 0
DWIDTH 24 0
BBX 24 24 0 -3
BITMAP
00e000
00c000
00c00c
7ffffe
00c000
00c030
1ffff8
00c000
00c006
ffffff
00c000
00c070
00c066
ffffff
018060
018060
032060
031860
060c60
0c0c60
180060
300060
c003e0
0000c0
ENDCHAR
ENDFONT
