STARTFONT 2.1
FONT jis.jis9a00.24
SIZE 24 72 72
FONTBOUNDINGBOX 24 24 0 -3
STARTPROPERTIES 4
FONT_DESCENT 3
FONT_ASCENT 21
DEFAULT_CHAR 1
COPYRIGHT "Copyright (c) 1992 AT&T - All rights reserved."
ENDPROPERTIES
CHARS 120
STARTCHAR ch-1
ENCODING 1
SWIDTH 1000 0
DWIDTH 24 0
BBX 24 24 0 -3
BITMAP
40c0e0
7fe0c0
620ffc
6208c4
6208c4
7fc8c4
620ffc
6208c4
6208c4
7fc8c4
620ffc
620000
626006
7fffff
606300
00630c
5567fe
55660c
50600c
c0601c
c0e018
00c038
07c1f0
018060
ENDCHAR
STARTCHAR ch-5
ENCODING 5
SWIDTH 1000 0
DWIDTH 24 0
BBX 24 24 0 -3
BITMAP
406200
7ff390
620318
620330
620626
7fe7ff
620e20
620e20
621620
7fe624
6207fe
620620
626620
7ff620
606620
006624
5567fe
556620
506620
c06620
c0e620
00c626
07c7ff
018600
ENDCHAR
STARTCHAR ch-14
ENCODING 14
SWIDTH 1000 0
DWIDTH 24 0
BBX 24 24 0 -3
BITMAP
4060e0
7ff0c0
6600c6
661fff
6640c0
7fe1a0
660198
66030c
664c0c
7fe000
661fff
66000c
66646c
7ff7ec
60666c
00666c
55666c
55666c
5567ec
d0666c
c0e00c
00c00c
07c07c
018018
ENDCHAR
STARTCHAR ch-15
ENCODING 15
SWIDTH 1000 0
DWIDTH 24 0
BBX 24 24 0 -3
BITMAP
40639c
7ff318
620318
62031a
620fff
7fe318
620318
620318
6203f8
7fe318
620318
620318
6263f8
7ff318
606318
006318
55631a
556fff
506000
c06210
c0e308
00c60c
07cc06
019006
ENDCHAR
STARTCHAR ch-18
ENCODING 18
SWIDTH 1000 0
DWIDTH 24 0
BBX 24 24 0 -3
BITMAP
40c00c
7feffe
62020c
620118
620118
7fc0b0
620060
6200f0
62019f
7fc60e
6218c6
6200c0
62cffc
7fe8c4
6048c4
0048c4
5548c4
554ffc
5040c0
c0c0c8
c0c0c4
019ffe
0f8f03
030803
ENDCHAR
STARTCHAR ch-19
ENCODING 19
SWIDTH 1000 0
DWIDTH 24 0
BBX 24 24 0 -3
BITMAP
4060c0
7ff0c0
6301a0
6301a0
630310
7fe61c
630c0f
6333f6
6300c0
7fe8cc
630ffe
630ccc
636ccc
7feccc
606ccc
006ffc
556ccc
5560c0
5561a0
d061b0
c0e318
00c61f
07cc0e
01b006
ENDCHAR
STARTCHAR ch-25
ENCODING 25
SWIDTH 1000 0
DWIDTH 24 0
BBX 24 24 0 -3
BITMAP
418006
7fdfff
640000
640000
640ffc
7f8c0c
640c0c
640c0c
640ffc
7f8c00
640c00
640ffe
658c92
7fcc92
618c92
019c92
5597fe
559492
519492
c1a492
c38492
030492
1f040e
060406
ENDCHAR
STARTCHAR ch-40
ENCODING 40
SWIDTH 1000 0
DWIDTH 24 0
BBX 24 24 0 -3
BITMAP
40c104
7fe887
6204c6
6206c4
620608
7fc000
620ffc
6208c4
6208c4
7fc8c4
620ffc
6208c4
6248c4
7fe8c4
604ffc
0040c0
5540c0
5540c6
505fff
c0c0c0
c0c0c0
0180c0
0f80c0
0300c0
ENDCHAR
STARTCHAR ch-43
ENCODING 43
SWIDTH 1000 0
DWIDTH 24 0
BBX 24 24 0 -3
BITMAP
201c00
201806
3fffff
600006
608104
0ffff0
008100
0ffff0
008100
ffffff
030080
060060
0ffff8
32081f
c3ffc6
020800
03ffc0
02080c
03fffe
08020c
12218c
719998
619878
000030
ENDCHAR
STARTCHAR ch-48
ENCODING 48
SWIDTH 1000 0
DWIDTH 24 0
BBX 24 24 0 -3
BITMAP
230210
3fa39c
331b18
330b20
337ffe
330640
330440
3fffff
330c20
331810
331ffc
33310f
335fe6
3f9100
331fe0
331100
331106
331fff
330006
232546
632546
63640c
4f607c
860018
ENDCHAR
STARTCHAR ch-55
ENCODING 55
SWIDTH 1000 0
DWIDTH 24 0
BBX 24 24 0 -3
BITMAP
40c00c
7feffe
62048c
62024c
620218
7fc918
6204b0
620460
6200b0
7fc11c
62060f
6218c6
62c0c0
7feffc
6048c4
0048c4
5548c4
554ffc
5040c0
c0c0c8
c0c0c4
019ffe
0f8f03
030803
ENDCHAR
STARTCHAR ch-62
ENCODING 62
SWIDTH 1000 0
DWIDTH 24 0
BBX 24 24 0 -3
BITMAP
40c806
7fefff
620c46
620c46
620c46
7fcffe
620c46
620c46
620c46
7fcffe
620100
6201a0
62c930
7fe624
604242
007fff
555fc3
5540c0
5044d0
c0c6c8
c0cccc
0188c6
0f90c6
0300c0
ENDCHAR
STARTCHAR ch-64
ENCODING 64
SWIDTH 1000 0
DWIDTH 24 0
BBX 24 24 0 -3
BITMAP
01c1c0
01818c
7ffffe
018180
07ffe0
040020
07ffe0
040020
07ffe0
006006
ffffff
018080
030060
0ffff8
3a081f
c3ffc6
020800
03ffc0
02080c
03fffc
08040c
122318
719978
608830
ENDCHAR
STARTCHAR ch-66
ENCODING 66
SWIDTH 1000 0
DWIDTH 24 0
BBX 24 24 0 -3
BITMAP
40c100
7fe1c0
620190
62020c
621ff6
7fce06
6209c0
620180
623fff
7fc310
620608
62048c
62c8c7
7fd182
604320
004630
554864
5540c6
50418c
c0c618
c0c030
018060
0f8180
030e00
ENDCHAR
STARTCHAR ch-67
ENCODING 67
SWIDTH 1000 0
DWIDTH 24 0
BBX 24 24 0 -3
BITMAP
406006
7fffff
620120
620120
620120
7fcffc
620924
620924
620924
7fcffc
620000
620000
62cffc
7fe000
604000
007fff
5540c0
5544d0
5046c8
c0cccc
c0c8c6
0190c6
0f87c0
030180
ENDCHAR
STARTCHAR ch-69
ENCODING 69
SWIDTH 1000 0
DWIDTH 24 0
BBX 24 24 0 -3
BITMAP
40c80c
7feffe
620c00
620c00
620cf8
7fcc88
620c88
620c88
620c88
7fccf8
620c00
620c00
62cdfc
7fed24
604d24
004d24
554d24
554d24
504dfc
c0cc00
c0cc00
018c06
0f8fff
030c00
ENDCHAR
STARTCHAR ch-77
ENCODING 77
SWIDTH 1000 0
DWIDTH 24 0
BBX 24 24 0 -3
BITMAP
40c0e0
7fe0c4
620ffe
6200c0
6200c2
7fdfff
620000
620408
620408
7fdf3e
620408
620408
62c708
7ffc7f
605000
004000
557fff
554630
504630
c0c632
c0c432
018c33
0f883f
03301e
ENDCHAR
STARTCHAR ch-85
ENCODING 85
SWIDTH 1000 0
DWIDTH 24 0
BBX 24 24 0 -3
BITMAP
418018
7fc0fc
641fc0
640180
640186
7fbfff
640320
640610
6407fc
7f8a2f
643226
6403e0
658000
7fd00c
619ffe
01980c
55980c
559bec
519a2c
c19a2c
c39bec
03180c
1f183c
061818
ENDCHAR
STARTCHAR ch-87
ENCODING 87
SWIDTH 1000 0
DWIDTH 24 0
BBX 24 24 0 -3
BITMAP
40c0c0
7fe1c0
6201a0
620310
62021c
7fc40f
620806
6213f0
620000
7fc000
620f3c
620924
62c924
7fe924
604924
004f3c
554000
554410
50471c
c0c618
c0cdb4
0188a2
0f9043
032083
ENDCHAR
STARTCHAR ch-90
ENCODING 90
SWIDTH 1000 0
DWIDTH 24 0
BBX 24 24 0 -3
BITMAP
0ee100
0cc1c0
7ff986
0cc1ff
20030c
3ff28c
303498
2f3050
693020
4f3058
80618f
03e606
00c000
07fff0
060800
07ffe0
060800
07ffe0
06080c
17fffe
10040c
24430c
e3337c
c33018
ENDCHAR
STARTCHAR ch-91
ENCODING 91
SWIDTH 1000 0
DWIDTH 24 0
BBX 24 24 0 -3
BITMAP
40d006
7fffff
621926
621926
621926
7fdffe
6200c0
6200c4
620ffe
7fc0c0
6200c2
621fff
62c408
7fe208
604212
005fff
5540c0
5540c0
5040c4
c0cffe
c0c0c0
0180c0
0f80c0
0300c0
ENDCHAR
STARTCHAR ch-95
ENCODING 95
SWIDTH 1000 0
DWIDTH 24 0
BBX 24 24 0 -3
BITMAP
418080
7fffc6
64113f
641106
641f04
7f916c
641118
641f1c
641126
7f9143
647f03
643108
65813c
7fc9e0
618d82
019983
55a1c6
5589a8
518db0
c19998
c3919c
03218f
1f4186
060180
ENDCHAR
STARTCHAR ch-98
ENCODING 98
SWIDTH 1000 0
DWIDTH 24 0
BBX 24 24 0 -3
BITMAP
4180e0
7fc0c4
6400fe
6410c0
641fff
7f9906
6419e4
641f08
6418f8
7f9800
641bfc
641a44
659a44
7fdbfc
619a44
019a44
5593fc
559000
51b7fe
c1a492
c32492
034492
0f0fff
060000
ENDCHAR
STARTCHAR ch-100
ENCODING 100
SWIDTH 1000 0
DWIDTH 24 0
BBX 24 24 0 -3
BITMAP
40c0e0
7fe0c0
6200c6
621fff
620200
7fc71c
620c07
621113
6207fc
7fc110
620110
6207fc
62c110
7fc110
605fff
004340
554642
554e27
505a2c
c0e230
c0c218
0183df
0f9f0e
030c06
ENDCHAR
STARTCHAR ch-101
ENCODING 101
SWIDTH 1000 0
DWIDTH 24 0
BBX 24 24 0 -3
BITMAP
40c330
7fe226
621e3c
620222
620223
7fbe3f
621a1e
620000
620ffc
7fc884
620ffc
620884
62c884
7feffc
604210
005ffe
554210
554210
507fff
c0c000
c0c410
01860c
0f8c06
033006
ENDCHAR
STARTCHAR ch-105
ENCODING 105
SWIDTH 1000 0
DWIDTH 24 0
BBX 24 24 0 -3
BITMAP
40c318
7fe212
621fff
620210
620210
7fcf3c
620924
620924
620f3c
7fc200
620330
620624
62c7fe
7fcc20
605420
0067fc
554420
554420
5047fc
c0c420
c0c420
018422
0f87ff
030400
ENDCHAR
STARTCHAR ch-106
ENCODING 106
SWIDTH 1000 0
DWIDTH 24 0
BBX 24 24 0 -3
BITMAP
418186
7fffff
640000
641f3e
641122
7f952a
64152a
6400c0
6410c2
7f9fff
641110
641110
651ffe
7f9112
611112
011ffe
551000
551422
5137a7
c32438
c32422
0647a3
1e1e3f
0c081e
ENDCHAR
STARTCHAR ch-107
ENCODING 107
SWIDTH 1000 0
DWIDTH 24 0
BBX 24 24 0 -3
BITMAP
0100c0
01ffe0
010800
01ffc0
010800
01ffc0
010818
05fffc
0c0018
18db18
184978
000030
000000
3fe3fe
220220
3fc3fc
220220
3fc3fc
220220
3ff3ff
001001
553553
d4ed4e
804804
ENDCHAR
STARTCHAR ch-168
ENCODING 168
SWIDTH 1000 0
DWIDTH 24 0
BBX 24 24 0 -3
BITMAP
0200c0
03ffe0
0300c0
0310c0
031fc0
0318c0
2318c0
2318c6
7fffff
600006
c00004
c200c8
03ffe0
0300c0
0300c0
03ffc0
0300c0
0300c0
03ffc0
0300c0
0300c0
0300c0
0307c0
030180
ENDCHAR
STARTCHAR ch-173
ENCODING 173
SWIDTH 1000 0
DWIDTH 24 0
BBX 24 24 0 -3
BITMAP
10600c
1ff3fe
186060
186060
1be060
1a6060
1a6060
5a6860
7ffc60
c01866
c017ff
1fe060
186060
186060
1fe060
186060
186060
186060
1fe060
186060
186060
186060
19e060
18c060
ENDCHAR
STARTCHAR ch-176
ENCODING 176
SWIDTH 1000 0
DWIDTH 24 0
BBX 24 24 0 -3
BITMAP
10c118
1fe1fc
18c198
18c198
1bc198
1ac198
1ac198
5ad11f
7ffb0f
c03200
c02400
1fc00c
18c7fe
18c10c
1fc10c
18c098
18c098
18c0f0
1fc060
18c0f0
18c098
18c11f
1bc20e
198c06
ENDCHAR
STARTCHAR ch-184
ENCODING 184
SWIDTH 1000 0
DWIDTH 24 0
BBX 24 24 0 -3
BITMAP
10c0e0
1fe0c0
18c0c0
18c0c6
1bdfff
1ac080
1ac0e0
5ad0c0
7ff090
40351c
c02218
dfc330
18c330
18c060
1fc0c8
18c18e
18c31c
1fc618
18d830
18c068
18c0c4
18c186
1bc603
199803
ENDCHAR
STARTCHAR ch-188
ENCODING 188
SWIDTH 1000 0
DWIDTH 24 0
BBX 24 24 0 -3
BITMAP
10c200
1fe380
18c300
18c318
1bc3fc
1ac618
1ac430
5aca30
7ff160
c030c0
c021e0
1fc338
18cc1f
18f006
1fc000
18c418
18c7fc
18c618
1fc618
18c618
18c618
18c618
1bc7f8
198618
ENDCHAR
STARTCHAR ch-192
ENCODING 192
SWIDTH 1000 0
DWIDTH 24 0
BBX 24 24 0 -3
BITMAP
10c040
1fe060
18c040
18c486
1bc7ff
1ac646
1ac646
5ad646
7ffffe
c01646
c02646
1fc646
18c7fe
18c200
1fc338
18c230
18c432
18dfff
1fc030
18c030
18c030
18c030
1bc030
198030
ENDCHAR
STARTCHAR ch-196
ENCODING 196
SWIDTH 1000 0
DWIDTH 24 0
BBX 24 24 0 -3
BITMAP
108070
1fc060
109060
108866
178fff
148c40
148cc0
54a084
7ff1fe
c02284
c04084
1f8cfc
10be84
108c84
1f8cfc
108c84
108c84
108c84
1f8c9c
108c8c
108c00
10bbff
1398fe
119000
ENDCHAR
STARTCHAR ch-207
ENCODING 207
SWIDTH 1000 0
DWIDTH 24 0
BBX 24 24 0 -3
BITMAP
10c060
1fe040
18c7fc
18c444
1bc444
1adfff
1ac444
5ad444
7ffffc
c01040
c027fc
1fc444
18c444
18c7fc
1fc080
18c182
18dfff
18c308
1fc618
18c5b0
18c0e0
18c1b8
1bc30e
198c06
ENDCHAR
STARTCHAR ch-209
ENCODING 209
SWIDTH 1000 0
DWIDTH 24 0
BBX 24 24 0 -3
BITMAP
108804
1fcffe
108924
108924
178924
148ffc
148300
54a300
7ff606
c027ff
c04906
1f9106
10afe6
108926
1f8926
108926
108fe6
108106
1f8146
108166
109fae
108e0c
13887c
118018
ENDCHAR
STARTCHAR ch-211
ENCODING 211
SWIDTH 1000 0
DWIDTH 24 0
BBX 24 24 0 -3
BITMAP
108030
1fc020
1093fe
108840
178cfc
148c90
148110
54a2fe
7ff000
c020fc
c04084
1f8c84
10befc
108c84
1f8c84
108cfc
108c84
108c84
1f8c9c
108c8c
108c00
10bbff
1398fe
119000
ENDCHAR
STARTCHAR ch-212
ENCODING 212
SWIDTH 1000 0
DWIDTH 24 0
BBX 24 24 0 -3
BITMAP
10c0d8
1fe492
18c7ff
18c492
1bc492
1ac7fe
1ac492
5ad492
7ffffe
c01000
c02fff
1fc000
18c204
18c3fe
1fc204
18c204
18c3fc
18c000
1fc208
18c18c
18c088
18c010
1bcfff
198000
ENDCHAR
STARTCHAR ch-216
ENCODING 216
SWIDTH 1000 0
DWIDTH 24 0
BBX 24 24 0 -3
BITMAP
001c00
001800
001806
ffffff
000000
000000
03ffc0
0300c0
0300c0
0300c0
03ffc0
000000
20000c
3ffffe
30000c
30000c
31ff8c
31818c
31818c
31818c
31ff8c
30000c
30007c
300018
ENDCHAR
STARTCHAR ch-222
ENCODING 222
SWIDTH 1000 0
DWIDTH 24 0
BBX 24 24 0 -3
BITMAP
070210
0603f8
063210
fffa10
000210
0003f0
1f8000
108000
108f3c
1f8924
000924
406924
7fef3c
6060c0
6060c2
6f7fff
6961d0
6961d0
6962c8
6f62cc
6064c7
6068c6
61e0c0
60c0c0
ENDCHAR
STARTCHAR ch-223
ENCODING 223
SWIDTH 1000 0
DWIDTH 24 0
BBX 24 24 0 -3
BITMAP
106010
1ff01c
180038
180070
18c0c0
1fe180
180604
180007
18c00e
1fe01c
180038
180060
1800c0
183300
fff800
1c0004
180007
18800e
10401c
306038
21f060
fe30c0
700300
400c00
ENDCHAR
STARTCHAR ch-226
ENCODING 226
SWIDTH 1000 0
DWIDTH 24 0
BBX 24 24 0 -3
BITMAP
106030
1ff078
1001c0
1fe60c
10001e
1fe030
1000c0
fffb06
0c800f
086038
ffb0e0
783300
400000
001c30
0718f8
061f30
07f830
7e1830
0619f0
061864
060004
060006
07fffe
03fffc
ENDCHAR
STARTCHAR ch-227
ENCODING 227
SWIDTH 1000 0
DWIDTH 24 0
BBX 24 24 0 -3
BITMAP
103018
1ff83c
1000e0
1fe30c
10001e
1fe070
100186
fffc0f
0c4038
0838e0
ffdb00
700000
001c00
001806
ffffff
006000
006030
00fff8
00c030
018030
030070
060060
1803e0
e000c0
ENDCHAR
STARTCHAR ch-230
ENCODING 230
SWIDTH 1000 0
DWIDTH 24 0
BBX 24 24 0 -3
BITMAP
103018
1ff83c
1000e0
1fe30c
10001e
1fe070
100186
fffc0f
0c4038
0830e0
ffdb00
701800
000380
1fffc0
006000
006000
3fffe0
006000
006000
fffffa
006002
006003
007fff
003ffe
ENDCHAR
STARTCHAR ch-234
ENCODING 234
SWIDTH 1000 0
DWIDTH 24 0
BBX 24 24 0 -3
BITMAP
103018
1ff83c
1000e0
1fe30c
10001e
1fe070
100186
fffc0f
0c4038
0830e0
ffdb00
701800
006006
ffffff
00c000
018180
03ffc0
064300
0c2600
301c00
c03780
00c1fe
07007c
78000c
ENDCHAR
STARTCHAR ch-235
ENCODING 235
SWIDTH 1000 0
DWIDTH 24 0
BBX 24 24 0 -3
BITMAP
103018
1ff83c
1000e0
1fe30c
10001e
1fe070
100186
fffc0f
0c4038
0838e0
ffdb00
600018
1ffffc
006018
01c038
0701f0
780060
000000
0ffff0
0c0030
0c0030
0c0030
0ffff0
0c0030
ENDCHAR
STARTCHAR ch-237
ENCODING 237
SWIDTH 1000 0
DWIDTH 24 0
BBX 24 24 0 -3
BITMAP
106030
1ff078
1001c0
1fe60c
10001e
1fe030
1000c0
fffb06
0c800f
086038
ffb0e0
783300
400000
01c380
01830c
39931e
31fb70
318380
318300
318302
31f302
ff8303
7803ff
4001fe
ENDCHAR
STARTCHAR ch-238
ENCODING 238
SWIDTH 1000 0
DWIDTH 24 0
BBX 24 24 0 -3
BITMAP
103018
1ff83c
1000e0
1fe30c
10001e
1fe070
100186
fffc0f
0c4038
0830e0
ffdb00
701880
006060
006026
ffffff
018080
0301c0
064300
0c2600
301c00
c03780
00c1fe
07007c
78000c
ENDCHAR
STARTCHAR ch-239
ENCODING 239
SWIDTH 1000 0
DWIDTH 24 0
BBX 24 24 0 -3
BITMAP
106030
1ff078
1001c0
1fe60c
10001e
1fe030
1000c0
fffb06
0c800f
087038
ffb0e0
780300
401800
0ffff0
0c1830
0c1830
0ffff0
0c1830
0c1836
ffffff
0c0030
0c0030
0c01f0
0c0060
ENDCHAR
STARTCHAR ch-241
ENCODING 241
SWIDTH 1000 0
DWIDTH 24 0
BBX 24 24 0 -3
BITMAP
103018
1ff83c
1000e0
1fe30c
10001e
1fe070
100186
fffc0f
0c4038
0830e0
ffdb00
711800
01c000
038030
07fff8
080030
3ffc30
c00c60
000de4
07fcc4
060004
060006
07fffe
03fffc
ENDCHAR
STARTCHAR ch-244
ENCODING 244
SWIDTH 1000 0
DWIDTH 24 0
BBX 24 24 0 -3
BITMAP
103018
1ff83c
1000e0
1fe30c
10001e
1fe070
100186
fffc0f
0c4038
0830e0
ffdb00
701800
00c610
7ffff8
00c610
10c610
1ffff0
118600
11860c
1ffffe
03060c
06061c
1806f8
600630
ENDCHAR
STARTCHAR ch-247
ENCODING 247
SWIDTH 1000 0
DWIDTH 24 0
BBX 24 24 0 -3
BITMAP
103008
1ff81c
100030
1fe0c4
10030e
1fe018
100060
fffd82
0c4007
08301c
11d870
fe1b80
700000
004200
104218
1ffffc
184218
184218
1ffff8
184218
184218
184218
1ffff8
180018
ENDCHAR
STARTCHAR ch-251
ENCODING 251
SWIDTH 1000 0
DWIDTH 24 0
BBX 24 24 0 -3
BITMAP
106030
1ff078
1001c0
1fe60c
10001e
1fe030
1000c0
fffb06
0c800f
087038
ffb0e0
700300
001800
001806
ffffff
001800
001800
3ffffc
000000
0ffff0
0c0030
0c0030
0ffff0
0c0030
ENDCHAR
STARTCHAR ch-262
ENCODING 262
SWIDTH 1000 0
DWIDTH 24 0
BBX 24 24 0 -3
BITMAP
103018
1ff83c
1000e0
1fe30c
10001e
1fe070
100186
fffc0f
0c4038
0820e0
fff300
703020
070420
060610
064618
ffec0c
0e090f
1f1186
16c100
264310
460208
861ffc
060f06
060806
ENDCHAR
STARTCHAR ch-280
ENCODING 280
SWIDTH 1000 0
DWIDTH 24 0
BBX 24 24 0 -3
BITMAP
103030
1ff878
1001c0
1fe60c
10001e
1fe070
100386
fffc0f
104070
ffffc0
620040
03ffc0
020040
03ffc0
000000
3ffffc
208104
3ffffc
000000
07fff0
0100c0
00c300
007ffe
7fc07c
ENDCHAR
STARTCHAR ch-282
ENCODING 282
SWIDTH 1000 0
DWIDTH 24 0
BBX 24 24 0 -3
BITMAP
103018
1ff83c
1000e0
1fe30c
10001e
1fe070
100186
fffc0f
0c4038
0838e0
ffdb00
700006
023fff
070080
1c0ffc
610804
038ffc
0e0804
708ffc
01c804
070ffc
1c0400
e00e1e
003006
ENDCHAR
STARTCHAR ch-287
ENCODING 287
SWIDTH 1000 0
DWIDTH 24 0
BBX 24 24 0 -3
BITMAP
103018
1ff83c
1000e0
1fe30c
10001e
1fe070
100186
fffc0f
102078
fff380
601000
0ffff0
084210
0ffff0
000006
ffffff
000000
07ffe0
040020
07ffe8
01c41c
1f0390
e1f8ff
07001e
ENDCHAR
STARTCHAR ch-290
ENCODING 290
SWIDTH 1000 0
DWIDTH 24 0
BBX 24 24 0 -3
BITMAP
103018
1ff87c
1003c0
1fe00c
10003e
fffde0
188006
10603f
ffa1e0
601c00
201806
3fffff
621006
671664
183c18
07ffe8
7c0020
07ffe0
040020
07ffe0
040020
07ffe0
0300c0
3c003c
ENDCHAR
STARTCHAR ch-291
ENCODING 291
SWIDTH 1000 0
DWIDTH 24 0
BBX 24 24 0 -3
BITMAP
103018
1ff87c
1003c0
1fe00c
10003e
fffde0
188006
10603f
ffa5e0
710c30
0630c0
031860
3ffffc
30c30c
303c0c
30c30c
3ffffc
181830
1f9fb0
181832
1f9f92
18181b
ffffcf
383806
ENDCHAR
STARTCHAR ch-293
ENCODING 293
SWIDTH 1000 0
DWIDTH 24 0
BBX 24 24 0 -3
BITMAP
700007
6fe7f6
610086
610086
6fe7f6
610086
610086
6fe7f6
600006
600006
600006
600006
600006
600006
600006
600006
600006
600006
600006
600006
600006
600006
60003e
60000c
ENDCHAR
STARTCHAR ch-295
ENCODING 295
SWIDTH 1000 0
DWIDTH 24 0
BBX 24 24 0 -3
BITMAP
700007
6fe7f6
610086
610086
6fe7f6
610086
610086
6fe7f6
600006
601c06
601866
6ffff6
601806
6218c6
63ffe6
6318c6
6318c6
6318c6
6318c6
631bc6
631986
601806
60183e
60000c
ENDCHAR
STARTCHAR ch-296
ENCODING 296
SWIDTH 1000 0
DWIDTH 24 0
BBX 24 24 0 -3
BITMAP
700007
6fe7f6
610086
610086
6fe7f6
610086
610086
6fe7f6
600006
60c306
60c306
67ffe6
60c306
60c306
60c306
6ffff6
600006
608406
60e306
60c186
6180c6
6600c6
60001e
60000c
ENDCHAR
STARTCHAR ch-297
ENCODING 297
SWIDTH 1000 0
DWIDTH 24 0
BBX 24 24 0 -3
BITMAP
700007
6fe7f6
610086
610086
6fe7f6
610086
610086
6fe7f6
600006
607006
63c786
620086
620086
63c786
620086
620086
63ff86
608c06
60cc46
618c66
630fe6
6c07c6
60001e
60000c
ENDCHAR
STARTCHAR ch-298
ENCODING 298
SWIDTH 1000 0
DWIDTH 24 0
BBX 24 24 0 -3
BITMAP
700007
6fe7f6
610086
6fe7f6
610086
610086
6fe7f6
600006
600006
6ff066
600046
600046
67eff6
642046
642046
67e446
600346
642146
622046
624046
607046
6f83c6
66019e
60000c
ENDCHAR
STARTCHAR ch-302
ENCODING 302
SWIDTH 1000 0
DWIDTH 24 0
BBX 24 24 0 -3
BITMAP
700007
6fe7f6
610086
6fe7f6
610086
6fe7f6
600006
607c06
608806
63ffc6
622446
67e7c6
612406
6fffc6
612446
6726c6
602546
6726c6
612456
6fffd6
612016
671ff6
60001e
60000c
ENDCHAR
STARTCHAR ch-303
ENCODING 303
SWIDTH 1000 0
DWIDTH 24 0
BBX 24 24 0 -3
BITMAP
004200
38339c
331718
30c618
386d18
3638d8
323c58
306718
318398
362198
301818
300818
3ffff8
300018
000000
0700c0
0603e0
061f00
07e002
060002
060002
060003
07ffff
03fffe
ENDCHAR
STARTCHAR ch-305
ENCODING 305
SWIDTH 1000 0
DWIDTH 24 0
BBX 24 24 0 -3
BITMAP
0c2018
082010
087f12
ff88ff
187f10
3e083c
6b4937
884952
087f10
200006
3fffff
600006
e66044
d188e8
166b80
100808
1ff81c
000070
1c8380
19c004
1e100e
181818
1ff860
0ff380
ENDCHAR
STARTCHAR ch-306
ENCODING 306
SWIDTH 1000 0
DWIDTH 24 0
BBX 24 24 0 -3
BITMAP
000006
ffffff
000000
000000
07ffe0
060060
060060
07ffe0
000000
20000c
3ffffe
30c60c
30c60c
3087ec
3103ec
36000c
30000c
33ffcc
30180c
30180c
30180c
30180c
30187c
300018
ENDCHAR
STARTCHAR ch-315
ENCODING 315
SWIDTH 1000 0
DWIDTH 24 0
BBX 24 24 0 -3
BITMAP
009a00
fe537e
025202
7e147e
41ff40
7e307e
067806
065606
0c930c
7d117c
180018
ffffff
000000
07ffe0
040020
07ffe0
20000c
3ffffe
30c60c
3187ec
36000c
30ff0c
30187c
301818
ENDCHAR
STARTCHAR ch-316
ENCODING 316
SWIDTH 1000 0
DWIDTH 24 0
BBX 24 24 0 -3
BITMAP
004000
007000
006000
108018
1ffffc
181818
181818
181818
1ffff8
181818
181818
181818
1ffff8
188c40
00ec70
00cc60
01cc50
018c88
038ffc
030dcc
060d02
0c0c03
300fff
c007fe
ENDCHAR
STARTCHAR ch-321
ENCODING 321
SWIDTH 1000 0
DWIDTH 24 0
BBX 24 24 0 -3
BITMAP
08001c
0e0218
4c3118
7ff998
623198
623018
623018
7ff218
623118
623198
623198
7ff01a
03001f
132078
1b3398
1b3018
1b2418
137e18
33321a
330002
238003
63ffff
41fffe
800000
ENDCHAR
STARTCHAR ch-322
ENCODING 322
SWIDTH 1000 0
DWIDTH 24 0
BBX 24 24 0 -3
BITMAP
000200
000380
03230c
7fbffe
00310c
00310c
00310c
01bffc
fff10c
10310c
1c310c
183ffc
180190
12119c
111d98
219990
ff99a2
71b1ff
4031b3
006180
00c182
018183
0301ff
0c00fe
ENDCHAR
STARTCHAR ch-323
ENCODING 323
SWIDTH 1000 0
DWIDTH 24 0
BBX 24 24 0 -3
BITMAP
0401d0
07018c
060184
484180
7fe186
445fff
444180
444190
7fc11c
444318
444318
4442b0
7fc2b0
020460
124470
1a68dc
1a408f
129106
13fa00
328802
220003
23ffff
41fffe
800000
ENDCHAR
STARTCHAR ch-324
ENCODING 324
SWIDTH 1000 0
DWIDTH 24 0
BBX 24 24 0 -3
BITMAP
080200
0e0380
0c0300
08240c
533ffe
7fb10c
63310c
63310c
633ffc
63310c
63310c
7f310c
633ffc
6300c8
6308cc
630ec8
630cd2
7f0cd3
630cfd
6018d0
0018c2
0030c3
0060ff
01807e
ENDCHAR
STARTCHAR ch-325
ENCODING 325
SWIDTH 1000 0
DWIDTH 24 0
BBX 24 24 0 -3
BITMAP
0400e0
0700c0
0600c0
4840cc
7feffe
4440c0
4440c0
4440c6
7fdfff
4440c0
4441e0
4441e0
7fc2d0
0202d8
1244cc
1a68cf
1a40c6
1290c0
13f8c2
328802
220003
23ffff
41fffe
800000
ENDCHAR
STARTCHAR ch-333
ENCODING 333
SWIDTH 1000 0
DWIDTH 24 0
BBX 24 24 0 -3
BITMAP
08100c
0c1ffe
08180c
509a2c
7fd92c
48994c
48980c
489ffc
7f988c
48988c
489bec
48990c
7f990c
04190c
2499ec
3498ec
35180c
25580c
27d83c
25581a
640003
47ffff
43fffe
800000
ENDCHAR
STARTCHAR ch-334
ENCODING 334
SWIDTH 1000 0
DWIDTH 24 0
BBX 24 24 0 -3
BITMAP
080006
0c3fff
080080
508080
7fd084
489ffe
489084
489084
7f9ef4
489294
489294
4896b4
7f95ac
0419cc
249084
349084
351084
255084
27d09c
25508a
640003
47ffff
43fffe
800000
ENDCHAR
STARTCHAR ch-335
ENCODING 335
SWIDTH 1000 0
DWIDTH 24 0
BBX 24 24 0 -3
BITMAP
018100
07c1c0
7e0180
06120c
065ffe
fff88c
0e188c
1f188c
16dffc
26588c
46188c
86188c
181ffc
1980c8
ffc8cc
318ec8
318cd2
230cd3
630cfd
7e08d0
0718c2
0990c3
31a0ff
c0407e
ENDCHAR
STARTCHAR ch-337
ENCODING 337
SWIDTH 1000 0
DWIDTH 24 0
BBX 24 24 0 -3
BITMAP
0801c0
0c018c
083ffe
508000
7fca28
488948
488888
488968
7f8a28
488ff8
488180
488100
7f9ffc
041104
249244
349264
3517a4
255224
27d01c
25500a
640003
47ffff
43fffe
800000
ENDCHAR
STARTCHAR ch-340
ENCODING 340
SWIDTH 1000 0
DWIDTH 24 0
BBX 24 24 0 -3
BITMAP
001c00
20180c
3ffffe
30c0c0
308884
3ffffe
31c1a0
32b290
34949c
38888f
300c06
31fff0
310410
310410
31fff0
310410
210410
61fff0
604640
407652
40e6fa
81c603
0707ff
3803fe
ENDCHAR
STARTCHAR ch-344
ENCODING 344
SWIDTH 1000 0
DWIDTH 24 0
BBX 24 24 0 -3
BITMAP
200006
3fffff
320800
33f8ec
3208c4
33f8c0
3007fe
33f8a0
3209a0
33f910
320a1c
33fc0f
320806
31ffe0
310820
31ffe0
310820
310828
21fff8
600314
40233e
407303
81c3ff
0e01fe
ENDCHAR
STARTCHAR ch-346
ENCODING 346
SWIDTH 1000 0
DWIDTH 24 0
BBX 24 24 0 -3
BITMAP
010000
01c000
018600
03ff00
030600
060400
0c0830
1ffff8
2c1830
cc1830
0c1830
0c1830
0ffff0
0c1830
0c1830
0c1830
0c1830
0ffff0
000000
088430
10430c
306186
e06187
c06183
ENDCHAR
STARTCHAR ch-367
ENCODING 367
SWIDTH 1000 0
DWIDTH 24 0
BBX 24 24 0 -3
BITMAP
010000
018300
03ff80
060400
0c0830
37fff8
c40810
040810
07fff0
040810
040810
07fff0
104208
20c306
e0c303
c00003
07ffe0
060060
060060
07ffe0
060060
060060
07ffe0
060060
ENDCHAR
STARTCHAR ch-372
ENCODING 372
SWIDTH 1000 0
DWIDTH 24 0
BBX 24 24 0 -3
BITMAP
1000e0
1c00c0
1800c0
1980c0
1fc0c6
119fff
310180
220180
3fe180
72618c
b261fe
32618c
3fe18c
32618c
32618c
32618c
3fe30c
00430c
00230c
25320c
25361c
650418
c008f8
c01030
ENDCHAR
STARTCHAR ch-387
ENCODING 387
SWIDTH 1000 0
DWIDTH 24 0
BBX 24 24 0 -3
BITMAP
100000
1c000c
180ffe
1980c0
1fc0c0
1188c8
3104ce
2204cc
3fe6c8
7266d0
b260c0
3260c6
3fffff
3260c0
3260c0
3260c0
3fe0c0
0000c0
0040c0
2520c0
2530c0
6530c0
c000c0
c000c0
ENDCHAR
STARTCHAR ch-398
ENCODING 398
SWIDTH 1000 0
DWIDTH 24 0
BBX 24 24 0 -3
BITMAP
0800e0
0e00c0
0c00c0
0cc0c0
1fe0c0
18c0c6
3080ff
2100c0
7fe0c0
b260c0
3260c0
3260c0
3fe4cc
3267fe
32660c
32660c
3fe60c
00060c
00260c
29360c
24b60c
64960c
c487fc
c0060c
ENDCHAR
STARTCHAR ch-401
ENCODING 401
SWIDTH 1000 0
DWIDTH 24 0
BBX 24 24 0 -3
BITMAP
100400
1c0700
180600
19860c
1fc7fe
11840c
310c0c
2208cc
3fefec
7270cc
b260cc
3260cc
3fe4cc
3267cc
32661c
326618
3fe678
000630
004602
252602
253602
653603
c007ff
c003fe
ENDCHAR
STARTCHAR ch-402
ENCODING 402
SWIDTH 1000 0
DWIDTH 24 0
BBX 24 24 0 -3
BITMAP
10041c
1c0718
180618
198618
1fc618
118c18
310c1a
220dff
7f9c18
a49c18
24ad18
24cc98
3f8c98
248cd8
248cd8
248c18
3f8c18
000c18
008c18
2acc18
2acc18
6a4c18
ca0cf8
c00c30
ENDCHAR
STARTCHAR ch-403
ENCODING 403
SWIDTH 1000 0
DWIDTH 24 0
BBX 24 24 0 -3
BITMAP
100200
1c0380
180300
198300
1fc306
1187ff
3106c0
2204c0
3fecc0
7268cc
b270fe
3260c0
3fe0c0
3260c0
3260c0
3260c6
3fe0ff
0000c0
0040c0
2520c0
2530c0
6530c0
c000c0
c000c0
ENDCHAR
STARTCHAR ch-406
ENCODING 406
SWIDTH 1000 0
DWIDTH 24 0
BBX 24 24 0 -3
BITMAP
100000
1c0006
181fff
198180
1fc180
118180
310300
220300
3fe300
726200
b2660c
3267fe
3feb0c
326b0c
32730c
32630c
3fe30c
00030c
00430c
25630c
25230c
6503fc
c0030c
c0030c
ENDCHAR
STARTCHAR ch-407
ENCODING 407
SWIDTH 1000 0
DWIDTH 24 0
BBX 24 24 0 -3
BITMAP
100200
1c0380
180300
198618
1fc7fc
118c18
310a30
221230
3fe160
7260c0
b261e0
326330
3fe61c
326d0f
3270c6
326060
3fe060
000000
004200
252180
2530c0
653060
c00070
c00030
ENDCHAR
STARTCHAR ch-415
ENCODING 415
SWIDTH 1000 0
DWIDTH 24 0
BBX 24 24 0 -3
BITMAP
1000e0
1c00c0
1808c0
1988c6
1fcfff
118806
311804
2219c8
3fe180
726180
b26306
327fff
3fe318
326318
326618
326618
3fe630
000db0
004ce0
252070
2530d8
65319c
c0030e
c00c06
ENDCHAR
STARTCHAR ch-416
ENCODING 416
SWIDTH 1000 0
DWIDTH 24 0
BBX 24 24 0 -3
BITMAP
100400
1c0700
180630
1987f8
1fcc30
118860
311040
222086
3f9fff
649800
a49800
24990c
3f99fe
24998c
24998c
24998c
3f998c
0019bc
009998
2ad182
2a5182
6a2183
c041ff
c000fe
ENDCHAR
STARTCHAR ch-424
ENCODING 424
SWIDTH 1000 0
DWIDTH 24 0
BBX 24 24 0 -3
BITMAP
100700
1c060c
18061e
198670
1fc7c0
118602
310602
220603
3fe7ff
7263fe
b26000
326000
3fe20c
3263fe
32630c
32630c
3fe30c
0003fc
00430c
25230c
25330c
65330c
c003fc
c0030c
ENDCHAR
STARTCHAR ch-426
ENCODING 426
SWIDTH 1000 0
DWIDTH 24 0
BBX 24 24 0 -3
BITMAP
1001c0
1c0180
180180
198180
1fc186
11bfff
310300
220300
3f820c
6487fe
a4860c
248e0c
3f8e0c
2497fc
24a60c
24860c
3f860c
0007fc
00860c
2ac60c
6ac60c
ca460c
c0067c
000618
ENDCHAR
STARTCHAR ch-427
ENCODING 427
SWIDTH 1000 0
DWIDTH 24 0
BBX 24 24 0 -3
BITMAP
1000e0
1c00c0
1800c0
1980c6
1fdfff
118000
310420
220718
3f860c
648c06
a48806
249020
3f8238
248230
248230
248160
3f8160
0000c0
0080c0
2ac1a0
2ac338
6a461f
600c0e
003006
ENDCHAR
STARTCHAR ch-429
ENCODING 429
SWIDTH 1000 0
DWIDTH 24 0
BBX 24 24 0 -3
BITMAP
1000e0
1c00c0
1800c0
1980cc
1fcffe
1180c0
3100c0
2200c0
7fe0c0
b260c6
327fff
326000
3fe000
3260e0
3260c0
3260cc
3feffe
0000c0
0080c0
2a40c0
2a60c0
6a60c6
c81fff
c00000
ENDCHAR
STARTCHAR ch-430
ENCODING 430
SWIDTH 1000 0
DWIDTH 24 0
BBX 24 24 0 -3
BITMAP
100808
1c060e
18030c
198318
1fc310
118026
311fff
2200c0
7fe0c0
b260c0
3260cc
326ffe
3fe0c0
3260c0
3260c0
3260c0
3fe0c6
001fff
0040c0
2520c0
2530c0
6530c0
c500c0
c000c0
ENDCHAR
STARTCHAR ch-436
ENCODING 436
SWIDTH 1000 0
DWIDTH 24 0
BBX 24 24 0 -3
BITMAP
100c70
1c0e60
180c60
198c60
1fcc60
119866
311fff
221860
7fb860
a4b860
24d8f0
2498f0
3f98f0
2498e8
2499e8
24996c
3f996c
001b67
001a66
2a9c66
2ad860
6a5860
c01860
c01860
ENDCHAR
STARTCHAR ch-441
ENCODING 441
SWIDTH 1000 0
DWIDTH 24 0
BBX 24 24 0 -3
BITMAP
1000e0
1c10c4
1808c7
198cc6
1fc6cc
1186c8
3100c0
2204cc
3fe7fe
72660c
b2660c
32660c
3fe7fc
32660c
32660c
32660c
3fe7fc
00060c
00460c
25260c
25360c
65360c
c0067c
c00618
ENDCHAR
STARTCHAR ch-448
ENCODING 448
SWIDTH 1000 0
DWIDTH 24 0
BBX 24 24 0 -3
BITMAP
10001c
1c00fe
180fc0
198080
1fc0e0
1180c0
310990
22051c
3fe618
726330
b26320
326048
3fe084
326ffe
3267e3
326463
3fe060
000268
004364
256366
252663
650463
c00860
c00060
ENDCHAR
STARTCHAR ch-454
ENCODING 454
SWIDTH 1000 0
DWIDTH 24 0
BBX 24 24 0 -3
BITMAP
1000e8
1c00c6
1800c2
1980c0
1fdfff
1180c0
3100c0
2208c2
3fefff
7268c2
b268c2
3268c2
3feffe
3268c2
3268c2
3268c2
3feffe
0008c2
0048c2
2568c2
2528c2
6508c2
c008ce
c008c6
ENDCHAR
STARTCHAR ch-457
ENCODING 457
SWIDTH 1000 0
DWIDTH 24 0
BBX 24 24 0 -3
BITMAP
101006
1c1fff
1818c6
1998c6
1fd8c6
1198c6
311ffe
2218c6
7f98c6
a498c6
2498c6
249ffe
3f98c6
2480c0
2480c0
2480cc
3f9ffe
0000c0
0080c0
2ac0c0
2ac0c0
6a40c6
603fff
000000
ENDCHAR
STARTCHAR ch-458
ENCODING 458
SWIDTH 1000 0
DWIDTH 24 0
BBX 24 24 0 -3
BITMAP
100380
0e2300
863b30
70330e
306307
024333
048f78
1803e0
f00f00
63f000
618300
33ff80
060200
0ffff0
3c1830
cc1830
0ffff0
0c1830
0c1830
0ffff0
000000
0c4238
78618e
606186
ENDCHAR
STARTCHAR ch-463
ENCODING 463
SWIDTH 1000 0
DWIDTH 24 0
BBX 24 24 0 -3
BITMAP
100307
1c0f86
183c36
198426
1fc426
118426
310426
223fa6
7f8426
a48426
248426
248e26
3f8d26
248da6
249da6
249426
3f9426
002426
000406
2a8406
2ac406
6ac406
c0043e
c0040c
ENDCHAR
STARTCHAR ch-465
ENCODING 465
SWIDTH 1000 0
DWIDTH 24 0
BBX 24 24 0 -3
BITMAP
100008
1c061c
1801b8
1980f0
1fc19c
118e0c
3101c0
220186
3fffff
726300
b26270
326660
3fe462
326fff
327462
326462
3fe462
000462
004462
25246e
253466
653060
c00060
c00060
ENDCHAR
STARTCHAR ch-466
ENCODING 466
SWIDTH 1000 0
DWIDTH 24 0
BBX 24 24 0 -3
BITMAP
100006
1c0fff
18000c
198108
1fc0d0
118060
310462
2207ff
3fe462
726462
b26462
3267fe
3fe462
326462
326462
326462
3fe7fe
000462
004462
252462
253462
653462
c0046e
c00466
ENDCHAR
STARTCHAR ch-468
ENCODING 468
SWIDTH 1000 0
DWIDTH 24 0
BBX 24 24 0 -3
BITMAP
100442
1c0663
180cc6
19888c
1fd110
118888
310cc4
220446
3fe663
726663
b26000
326000
3feffe
326c46
326c46
326c46
3fec46
000ffe
004c46
256c46
252c46
650c46
c00ffe
c00c06
ENDCHAR
STARTCHAR ch-470
ENCODING 470
SWIDTH 1000 0
DWIDTH 24 0
BBX 24 24 0 -3
BITMAP
1000e0
1c00c0
1800c4
199ffe
1fc0c0
1180c8
310ffc
2200c0
3f80c2
64bfff
a48000
24880c
3f8ffe
248c0c
248c0c
248ffc
3f8c0c
000c0c
008ffc
2acc0c
2acc0c
6a4c0c
6a0c7c
000c18
ENDCHAR
STARTCHAR ch-475
ENCODING 475
SWIDTH 1000 0
DWIDTH 24 0
BBX 24 24 0 -3
BITMAP
101006
1c1fff
181806
1998c6
1fd886
119886
311bf6
221886
3f9886
649886
a49ffe
249806
3f9806
2499e6
249926
249926
3f9926
001926
009926
2a91e6
2a3006
682006
c0403e
c1800c
ENDCHAR
STARTCHAR ch-481
ENCODING 481
SWIDTH 1000 0
DWIDTH 24 0
BBX 24 24 0 -3
BITMAP
1003b8
1c0330
180330
198330
1fc332
119f3f
310330
220330
3fe330
726332
b27f3f
326330
3fe330
326330
326330
326732
3ffb3f
001330
004330
256230
252630
650430
c00830
c03030
ENDCHAR
STARTCHAR ch-482
ENCODING 482
SWIDTH 1000 0
DWIDTH 24 0
BBX 24 24 0 -3
BITMAP
100080
1c01c0
180b0c
198c3e
1fcc0c
118c0c
310c0c
220f3c
3fec0c
726c0c
b26c0c
326c0c
3feffc
326030
326230
3263b0
3fe330
000330
004332
256632
252632
650c33
c0183f
c0601e
ENDCHAR
STARTCHAR ch-483
ENCODING 483
SWIDTH 1000 0
DWIDTH 24 0
BBX 24 24 0 -3
BITMAP
100818
1c0ffc
180c18
198c18
1fcc18
118ff8
310c18
220c18
3fec18
726ff8
b26300
326200
3fe406
3267ff
3269b6
327126
3fe366
000246
0044c6
252886
25310e
65320c
c0007c
c00018
ENDCHAR
STARTCHAR ch-484
ENCODING 484
SWIDTH 1000 0
DWIDTH 24 0
BBX 24 24 0 -3
BITMAP
10040c
1c07fe
18060c
19860c
1fc60c
1187fc
31060c
22060c
3fe60c
7267fc
b26000
326000
3fe738
326632
326633
326636
3fe7b8
000630
004630
256632
252632
6507b3
c01e3f
c0081e
ENDCHAR
STARTCHAR ch-488
ENCODING 488
SWIDTH 1000 0
DWIDTH 24 0
BBX 24 24 0 -3
BITMAP
1000e0
1c00c0
1800c0
1980c6
1fdfff
118000
310418
2207fc
7f8618
a48618
248618
248618
3f8618
2487f8
2480c0
2480c0
3f88d0
000ec8
008ccc
2accc6
2ad8c6
6a10c6
c027c0
c00180
ENDCHAR
STARTCHAR ch-496
ENCODING 496
SWIDTH 1000 0
DWIDTH 24 0
BBX 24 24 0 -3
BITMAP
100180
1c0180
180140
198340
1fc220
118630
31041c
220bef
3ff006
726018
b267fc
326018
3fe018
326030
326030
326080
3fe060
000328
004b06
256b03
252b13
651b18
c01bf8
c001f0
ENDCHAR
STARTCHAR ch-497
ENCODING 497
SWIDTH 1000 0
DWIDTH 24 0
BBX 24 24 0 -3
BITMAP
1000e0
1c00c4
1800fe
1980c0
1fc8c2
118fff
310806
220884
3fe880
7268f0
b26f84
326886
3fe8fe
32687c
326800
326900
3fe9dc
000998
004998
25599a
25511a
65131b
c0221f
c00c0e
ENDCHAR
STARTCHAR ch-498
ENCODING 498
SWIDTH 1000 0
DWIDTH 24 0
BBX 24 24 0 -3
BITMAP
100e30
1c0c30
180c30
198c38
1f8ca8
117fe8
31104c
221044
3f90c6
649287
a49f02
249240
3f9230
249218
249218
249200
3f9200
001240
00b220
2aa230
2aa618
6a661c
c05c0c
c08c0c
ENDCHAR
STARTCHAR ch-501
ENCODING 501
SWIDTH 1000 0
DWIDTH 24 0
BBX 24 24 0 -3
BITMAP
100100
1c01c0
180190
198308
1fc20c
119ff6
310e06
220180
7f8186
a4bfff
248320
248610
3f841c
24888f
24b1c6
248300
3f8c20
000070
0080c4
2ac70e
2ac01c
6a4070
ca01c0
c01e00
ENDCHAR
ENDFONT
