STARTFONT 2.1
FONT jis.jis5000.16
SIZE 16 72 72
FONTBOUNDINGBOX 16 16 0 -2
STARTPROPERTIES 4
FONT_DESCENT 2
FONT_ASCENT 14
DEFAULT_CHAR 5
COPYRIGHT "Copyright (c) 1992 AT&T - All rights reserved."
ENDPROPERTIES
CHARS 193
STARTCHAR ch-5
ENCODING 5
SWIDTH 1000 0
DWIDTH 16 0
BBX 16 16 0 -2
BITMAP
0820
0820
1fff
1000
3104
2104
628a
a451
2000
2020
27ff
2020
2020
2020
2020
2020
ENDCHAR
STARTCHAR ch-6
ENCODING 6
SWIDTH 1000 0
DWIDTH 16 0
BBX 16 16 0 -2
BITMAP
1000
1fff
1020
3020
27ff
6421
6421
a7bd
24a5
2529
25ad
2673
2421
2421
2421
2427
ENDCHAR
STARTCHAR ch-9
ENCODING 9
SWIDTH 1000 0
DWIDTH 16 0
BBX 16 16 0 -2
BITMAP
0100
0380
06e0
1c38
f3cf
0000
1ff8
1008
1ff8
1008
1ff8
3000
2ffc
6804
c804
0ffc
ENDCHAR
STARTCHAR ch-11
ENCODING 11
SWIDTH 1000 0
DWIDTH 16 0
BBX 16 16 0 -2
BITMAP
1000
17fe
3402
2442
2442
65fa
6442
a442
24f2
2492
2492
2492
24f2
2402
27fe
2000
ENDCHAR
STARTCHAR ch-13
ENCODING 13
SWIDTH 1000 0
DWIDTH 16 0
BBX 16 16 0 -2
BITMAP
0840
0840
1ffe
1204
330c
2108
6108
afff
2000
2000
23fc
2204
2204
2204
2204
23fc
ENDCHAR
STARTCHAR ch-15
ENCODING 15
SWIDTH 1000 0
DWIDTH 16 0
BBX 16 16 0 -2
BITMAP
0880
08fc
1984
130c
30d8
2870
69dc
af07
2828
2824
2820
2fff
2850
20d8
218c
2707
ENDCHAR
STARTCHAR ch-17
ENCODING 17
SWIDTH 1000 0
DWIDTH 16 0
BBX 16 16 0 -2
BITMAP
1000
17df
1451
37df
2451
6451
67df
a401
2401
2401
2401
2401
2401
2401
2401
2407
ENDCHAR
STARTCHAR ch-18
ENCODING 18
SWIDTH 1000 0
DWIDTH 16 0
BBX 16 16 0 -2
BITMAP
1002
1fe2
120a
324a
244a
25ea
6f2a
a10a
210a
2fea
210a
2102
2102
21e2
2f02
200e
ENDCHAR
STARTCHAR ch-20
ENCODING 20
SWIDTH 1000 0
DWIDTH 16 0
BBX 16 16 0 -2
BITMAP
0800
0bfe
1a02
1202
33fe
2200
6210
a292
2292
22fe
2210
2610
2492
2c92
2092
20fe
ENDCHAR
STARTCHAR ch-22
ENCODING 22
SWIDTH 1000 0
DWIDTH 16 0
BBX 16 16 0 -2
BITMAP
0820
0820
1bfe
1020
3020
27ff
6104
a18c
2088
27ff
2020
2020
23fe
2020
2020
2020
ENDCHAR
STARTCHAR ch-25
ENCODING 25
SWIDTH 1000 0
DWIDTH 16 0
BBX 16 16 0 -2
BITMAP
1000
11fc
3004
2804
2bff
6880
6880
a9fe
2b20
2820
2fff
2850
2858
28cc
2186
2303
ENDCHAR
STARTCHAR ch-26
ENCODING 26
SWIDTH 1000 0
DWIDTH 16 0
BBX 16 16 0 -2
BITMAP
0820
0820
1bfe
1050
3088
2306
6000
a7ff
2004
23e4
2224
2224
23e4
2004
2004
201c
ENDCHAR
STARTCHAR ch-31
ENCODING 31
SWIDTH 1000 0
DWIDTH 16 0
BBX 16 16 0 -2
BITMAP
0888
0888
1888
13fe
3088
2088
6088
a7ff
2000
21fc
2104
2104
21fc
2104
2104
21fc
ENDCHAR
STARTCHAR ch-33
ENCODING 33
SWIDTH 1000 0
DWIDTH 16 0
BBX 16 16 0 -2
BITMAP
0800
09fe
1902
1102
31fe
2102
6102
a1fe
2000
23ff
2201
2201
23ff
2201
2201
23ff
ENDCHAR
STARTCHAR ch-35
ENCODING 35
SWIDTH 1000 0
DWIDTH 16 0
BBX 16 16 0 -2
BITMAP
1210
1210
1210
3fdf
2412
6432
67a2
a496
2494
249c
2488
2488
249c
2494
24b6
29a3
ENDCHAR
STARTCHAR ch-36
ENCODING 36
SWIDTH 1000 0
DWIDTH 16 0
BBX 16 16 0 -2
BITMAP
0820
0820
1fff
1020
31fc
2504
6504
a5fc
2504
2504
25fc
2504
2504
25fc
2400
27ff
ENDCHAR
STARTCHAR ch-37
ENCODING 37
SWIDTH 1000 0
DWIDTH 16 0
BBX 16 16 0 -2
BITMAP
0820
0820
1fff
1489
3489
2188
630f
a600
2000
23fe
2020
2020
2020
2020
27ff
2000
ENDCHAR
STARTCHAR ch-38
ENCODING 38
SWIDTH 1000 0
DWIDTH 16 0
BBX 16 16 0 -2
BITMAP
0a44
0b4c
1948
17fe
3090
2090
6fff
a108
220c
27f6
2c13
2010
23f0
2202
2206
21fc
ENDCHAR
STARTCHAR ch-40
ENCODING 40
SWIDTH 1000 0
DWIDTH 16 0
BBX 16 16 0 -2
BITMAP
0800
0bfe
1a02
1202
33fe
2210
6210
a3ff
2210
2210
22fe
2682
2482
2c82
2082
20fe
ENDCHAR
STARTCHAR ch-41
ENCODING 41
SWIDTH 1000 0
DWIDTH 16 0
BBX 16 16 0 -2
BITMAP
0820
0820
1bfe
1020
31fc
2020
67ff
a000
21fc
2104
21fc
2104
21fc
2104
2104
211c
ENDCHAR
STARTCHAR ch-42
ENCODING 42
SWIDTH 1000 0
DWIDTH 16 0
BBX 16 16 0 -2
BITMAP
0840
08c0
1b9e
1202
3202
23de
6202
a202
23fe
2090
2090
2090
2190
2111
2313
260e
ENDCHAR
STARTCHAR ch-43
ENCODING 43
SWIDTH 1000 0
DWIDTH 16 0
BBX 16 16 0 -2
BITMAP
0840
08e0
19b0
1318
360c
2df7
6000
a000
27fe
2492
2492
27fe
2492
2492
2492
2496
ENDCHAR
STARTCHAR ch-44
ENCODING 44
SWIDTH 1000 0
DWIDTH 16 0
BBX 16 16 0 -2
BITMAP
0820
0820
183f
1020
33fe
2202
6202
a3fe
2202
2202
23fe
2020
27ff
2020
2020
2020
ENDCHAR
STARTCHAR ch-45
ENCODING 45
SWIDTH 1000 0
DWIDTH 16 0
BBX 16 16 0 -2
BITMAP
080c
0838
1be0
1020
37ff
20a8
61ac
a727
2040
2040
27ff
2084
2108
23f0
205c
2786
ENDCHAR
STARTCHAR ch-54
ENCODING 54
SWIDTH 1000 0
DWIDTH 16 0
BBX 16 16 0 -2
BITMAP
0800
0bfc
1a04
1204
33fc
2204
6204
a3fc
2204
2204
23fc
2000
2fff
2108
230c
2606
ENDCHAR
STARTCHAR ch-57
ENCODING 57
SWIDTH 1000 0
DWIDTH 16 0
BBX 16 16 0 -2
BITMAP
0820
0870
18d8
118c
3707
21fc
6020
a3fe
2222
2222
2222
23fe
2050
20d8
218c
2707
ENDCHAR
STARTCHAR ch-67
ENCODING 67
SWIDTH 1000 0
DWIDTH 16 0
BBX 16 16 0 -2
BITMAP
1000
17ff
1400
34fc
2484
64fc
6484
a4fc
2420
27ff
24c4
2438
25ce
2400
27ff
2000
ENDCHAR
STARTCHAR ch-71
ENCODING 71
SWIDTH 1000 0
DWIDTH 16 0
BBX 16 16 0 -2
BITMAP
1000
17be
1482
3482
2482
67be
6400
a47e
27a2
2436
2414
279c
2408
241c
2436
2463
ENDCHAR
STARTCHAR ch-72
ENCODING 72
SWIDTH 1000 0
DWIDTH 16 0
BBX 16 16 0 -2
BITMAP
0800
0bfc
1a04
13fc
3204
2204
63fc
a080
21ff
2301
2e31
23e1
2201
2213
21f2
200e
ENDCHAR
STARTCHAR ch-73
ENCODING 73
SWIDTH 1000 0
DWIDTH 16 0
BBX 16 16 0 -2
BITMAP
0840
0bfc
1884
1084
37ff
2000
63fc
a204
23fc
2010
27fe
2110
2110
2fff
2010
2010
ENDCHAR
STARTCHAR ch-79
ENCODING 79
SWIDTH 1000 0
DWIDTH 16 0
BBX 16 16 0 -2
BITMAP
1000
1fff
1000
37fc
2404
6404
67fc
a400
27fe
2492
2c92
2ffe
3492
2492
2492
2496
ENDCHAR
STARTCHAR ch-80
ENCODING 80
SWIDTH 1000 0
DWIDTH 16 0
BBX 16 16 0 -2
BITMAP
0820
0820
1fff
1104
3088
27ff
6400
a418
2470
25c6
241c
2470
2dc3
280e
3838
21e0
ENDCHAR
STARTCHAR ch-85
ENCODING 85
SWIDTH 1000 0
DWIDTH 16 0
BBX 16 16 0 -2
BITMAP
0a10
0a13
1bde
1210
3210
2211
638f
a620
2040
23fe
2202
2202
23fe
2202
2202
23fe
ENDCHAR
STARTCHAR ch-86
ENCODING 86
SWIDTH 1000 0
DWIDTH 16 0
BBX 16 16 0 -2
BITMAP
0842
0842
1bfe
1044
304c
2048
67ff
a020
2040
21fc
2304
2d04
21fc
2104
2104
21fc
ENDCHAR
STARTCHAR ch-90
ENCODING 90
SWIDTH 1000 0
DWIDTH 16 0
BBX 16 16 0 -2
BITMAP
1220
1220
1220
3fff
2224
6264
6254
a214
2f94
289c
2888
2888
289c
2f94
2036
2063
ENDCHAR
STARTCHAR ch-92
ENCODING 92
SWIDTH 1000 0
DWIDTH 16 0
BBX 16 16 0 -2
BITMAP
0820
0820
1fff
1000
31fc
2104
61fc
a000
27ff
2401
25fd
2020
2020
2020
2020
20e0
ENDCHAR
STARTCHAR ch-101
ENCODING 101
SWIDTH 1000 0
DWIDTH 16 0
BBX 16 16 0 -2
BITMAP
1010
1f7e
3112
2212
24ff
6f12
6112
a17e
2510
257e
2710
22ff
2210
2610
2500
2cff
ENDCHAR
STARTCHAR ch-108
ENCODING 108
SWIDTH 1000 0
DWIDTH 16 0
BBX 16 16 0 -2
BITMAP
0900
0900
19fe
1352
3252
25d2
60e2
a136
2244
209c
2000
2020
22b2
2293
26c5
247c
ENDCHAR
STARTCHAR ch-114
ENCODING 114
SWIDTH 1000 0
DWIDTH 16 0
BBX 16 16 0 -2
BITMAP
0800
0bfe
1a22
1222
33fe
2222
6222
a222
23fe
2000
20a0
22b2
2293
2685
248c
2078
ENDCHAR
STARTCHAR ch-116
ENCODING 116
SWIDTH 1000 0
DWIDTH 16 0
BBX 16 16 0 -2
BITMAP
1002
17d2
3452
2452
27d2
6452
6452
a452
27d2
2452
2452
2452
27c2
2282
26c2
2c6e
ENDCHAR
STARTCHAR ch-117
ENCODING 117
SWIDTH 1000 0
DWIDTH 16 0
BBX 16 16 0 -2
BITMAP
0820
0820
183f
1020
33fe
2202
6202
a3fe
2202
2202
23fe
2202
2202
23fe
2104
2603
ENDCHAR
STARTCHAR ch-118
ENCODING 118
SWIDTH 1000 0
DWIDTH 16 0
BBX 16 16 0 -2
BITMAP
0800
0bfe
1a22
1222
33fe
2222
6222
a3fe
2020
27ff
2421
2429
243d
25e5
2401
2407
ENDCHAR
STARTCHAR ch-120
ENCODING 120
SWIDTH 1000 0
DWIDTH 16 0
BBX 16 16 0 -2
BITMAP
0840
08e0
19b0
131c
3e07
21f8
6000
a7c2
2452
27d2
2452
27d2
2452
2442
2442
24ce
ENDCHAR
STARTCHAR ch-125
ENCODING 125
SWIDTH 1000 0
DWIDTH 16 0
BBX 16 16 0 -2
BITMAP
0a20
0920
1820
17fc
3044
2048
60fe
a182
2104
23ff
2601
2c09
22a5
22a3
2402
200e
ENDCHAR
STARTCHAR ch-128
ENCODING 128
SWIDTH 1000 0
DWIDTH 16 0
BBX 16 16 0 -2
BITMAP
0820
0840
1bfe
1222
3222
23fe
6222
a222
23fe
2090
2094
2095
219f
2110
2311
260f
ENDCHAR
STARTCHAR ch-133
ENCODING 133
SWIDTH 1000 0
DWIDTH 16 0
BBX 16 16 0 -2
BITMAP
0824
0822
1fff
1020
33fe
2222
63fe
a222
23fe
2004
27ff
2104
2184
2084
2004
201c
ENDCHAR
STARTCHAR ch-141
ENCODING 141
SWIDTH 1000 0
DWIDTH 16 0
BBX 16 16 0 -2
BITMAP
0820
0820
1fff
1104
3088
27ff
6401
a421
2020
27ff
2080
20fe
2082
2182
2302
260e
ENDCHAR
STARTCHAR ch-145
ENCODING 145
SWIDTH 1000 0
DWIDTH 16 0
BBX 16 16 0 -2
BITMAP
1204
13c4
127f
3754
25d4
2094
61bf
a304
2604
2020
27ff
20a8
21ac
2326
2623
2020
ENDCHAR
STARTCHAR ch-152
ENCODING 152
SWIDTH 1000 0
DWIDTH 16 0
BBX 16 16 0 -2
BITMAP
0100
0380
06c0
1c78
f10f
1110
2928
4546
1110
2928
4546
0100
ffff
0100
0100
0100
ENDCHAR
STARTCHAR ch-153
ENCODING 153
SWIDTH 1000 0
DWIDTH 16 0
BBX 16 16 0 -2
BITMAP
1108
1108
1fff
3108
2108
27ff
6400
a5fe
2522
25fe
2522
2522
25fe
2522
2922
2126
ENDCHAR
STARTCHAR ch-154
ENCODING 154
SWIDTH 1000 0
DWIDTH 16 0
BBX 16 16 0 -2
BITMAP
1210
1210
1210
3fdf
2012
6532
6da2
a896
2514
251c
2708
2208
221c
2714
2536
2da3
ENDCHAR
STARTCHAR ch-172
ENCODING 172
SWIDTH 1000 0
DWIDTH 16 0
BBX 16 16 0 -2
BITMAP
0820
0a22
1a22
13fe
3110
2120
63fe
a220
2620
2bfe
2220
2220
23fe
2220
2220
23ff
ENDCHAR
STARTCHAR ch-173
ENCODING 173
SWIDTH 1000 0
DWIDTH 16 0
BBX 16 16 0 -2
BITMAP
1020
17ff
3420
25fe
6422
67ff
a422
25fe
2420
25fe
2522
2dfe
2922
39fe
2122
2126
ENDCHAR
STARTCHAR ch-178
ENCODING 178
SWIDTH 1000 0
DWIDTH 16 0
BBX 16 16 0 -2
BITMAP
1108
1108
17c8
310f
210a
6ffa
6112
a10a
2fea
220e
23c4
2244
224e
264a
244a
2ddb
ENDCHAR
STARTCHAR ch-179
ENCODING 179
SWIDTH 1000 0
DWIDTH 16 0
BBX 16 16 0 -2
BITMAP
0820
0820
1fff
1020
33fe
2222
63fe
a222
23fe
2024
20fe
2783
2004
27ff
2104
209c
ENDCHAR
STARTCHAR ch-180
ENCODING 180
SWIDTH 1000 0
DWIDTH 16 0
BBX 16 16 0 -2
BITMAP
0800
0bff
1a00
127c
3244
2244
627c
a200
22ee
22aa
22aa
22aa
22ee
2200
23ff
2000
ENDCHAR
STARTCHAR ch-181
ENCODING 181
SWIDTH 1000 0
DWIDTH 16 0
BBX 16 16 0 -2
BITMAP
0820
0bfe
1820
11fc
3020
27ff
6000
a1fc
2104
21fc
2104
21fc
2104
21fc
2088
2306
ENDCHAR
STARTCHAR ch-183
ENCODING 183
SWIDTH 1000 0
DWIDTH 16 0
BBX 16 16 0 -2
BITMAP
1200
17fe
3400
2bf8
2208
63f8
6208
a3f8
2000
2fff
2200
27fe
2c92
2122
2646
219c
ENDCHAR
STARTCHAR ch-190
ENCODING 190
SWIDTH 1000 0
DWIDTH 16 0
BBX 16 16 0 -2
BITMAP
1000
11ff
3010
2820
28fe
6a82
6c82
a8fe
2882
2882
2afe
2a82
2682
20fe
2044
2183
ENDCHAR
STARTCHAR ch-194
ENCODING 194
SWIDTH 1000 0
DWIDTH 16 0
BBX 16 16 0 -2
BITMAP
0820
0bfe
1a22
17ff
3222
23fe
6020
a3fe
2222
23fe
2040
27ff
2084
21c8
207c
27c7
ENDCHAR
STARTCHAR ch-197
ENCODING 197
SWIDTH 1000 0
DWIDTH 16 0
BBX 16 16 0 -2
BITMAP
1088
1088
37ff
2088
2000
63fe
6222
a222
23fe
2020
23fe
2020
23fe
2020
2020
27ff
ENDCHAR
STARTCHAR ch-201
ENCODING 201
SWIDTH 1000 0
DWIDTH 16 0
BBX 16 16 0 -2
BITMAP
0100
0380
06c0
0c70
381c
e7e7
0000
3e7c
2244
2244
3e7c
0000
0810
1c38
366c
e0c7
ENDCHAR
STARTCHAR ch-202
ENCODING 202
SWIDTH 1000 0
DWIDTH 16 0
BBX 16 16 0 -2
BITMAP
1000
1fff
1090
37fe
2492
6492
67fe
a080
2fff
2108
23fc
2c0b
23f8
2202
2306
21fc
ENDCHAR
STARTCHAR ch-205
ENCODING 205
SWIDTH 1000 0
DWIDTH 16 0
BBX 16 16 0 -2
BITMAP
10c8
1788
1108
3fe8
211f
6fe9
6929
afe9
2929
2fe9
2109
2fe9
2119
23d3
2e32
2066
ENDCHAR
STARTCHAR ch-207
ENCODING 207
SWIDTH 1000 0
DWIDTH 16 0
BBX 16 16 0 -2
BITMAP
0880
09f8
1b10
1620
33fe
2222
6222
a3fe
2041
21a3
2656
21b0
2658
2194
2633
20e0
ENDCHAR
STARTCHAR ch-209
ENCODING 209
SWIDTH 1000 0
DWIDTH 16 0
BBX 16 16 0 -2
BITMAP
101c
13f0
3040
2fff
2108
63fc
6d0b
a1f8
2000
27fe
2402
25fa
250a
25fa
2402
240e
ENDCHAR
STARTCHAR ch-213
ENCODING 213
SWIDTH 1000 0
DWIDTH 16 0
BBX 16 16 0 -2
BITMAP
1090
1492
3294
2090
67fe
6108
a090
27fe
2040
23fc
2040
2fff
2090
2198
230c
2e07
ENDCHAR
STARTCHAR ch-214
ENCODING 214
SWIDTH 1000 0
DWIDTH 16 0
BBX 16 16 0 -2
BITMAP
0820
0fff
1820
13fe
3000
23fe
6202
a3fe
2104
2088
27ff
2000
23fe
2202
2202
23fe
ENDCHAR
STARTCHAR ch-218
ENCODING 218
SWIDTH 1000 0
DWIDTH 16 0
BBX 16 16 0 -2
BITMAP
0840
0840
1fff
1088
328a
2104
63fe
a505
21fc
2104
21fc
2020
2124
2326
2623
20e0
ENDCHAR
STARTCHAR ch-222
ENCODING 222
SWIDTH 1000 0
DWIDTH 16 0
BBX 16 16 0 -2
BITMAP
0818
09f2
1a46
1124
33fc
2204
6204
a3fe
2202
2202
23ff
2601
2415
2d55
2343
220e
ENDCHAR
STARTCHAR ch-227
ENCODING 227
SWIDTH 1000 0
DWIDTH 16 0
BBX 16 16 0 -2
BITMAP
1104
1104
17df
3104
2104
67df
628a
a252
2401
23fe
2202
2202
23fe
2202
2202
23fe
ENDCHAR
STARTCHAR ch-229
ENCODING 229
SWIDTH 1000 0
DWIDTH 16 0
BBX 16 16 0 -2
BITMAP
0820
09fc
1820
13fe
3000
2104
67df
a104
21c4
271f
2000
27ff
2088
2089
2189
2707
ENDCHAR
STARTCHAR ch-231
ENCODING 231
SWIDTH 1000 0
DWIDTH 16 0
BBX 16 16 0 -2
BITMAP
0904
0888
1fff
1421
3421
27ff
6421
a421
27ff
2000
23fe
2202
23fe
2202
2202
23fe
ENDCHAR
STARTCHAR ch-237
ENCODING 237
SWIDTH 1000 0
DWIDTH 16 0
BBX 16 16 0 -2
BITMAP
1104
1fbe
1514
3514
2fbf
630c
6595
a927
2000
23fc
2204
2204
23fc
2204
2204
23fc
ENDCHAR
STARTCHAR ch-238
ENCODING 238
SWIDTH 1000 0
DWIDTH 16 0
BBX 16 16 0 -2
BITMAP
0820
0820
1bfe
1104
3088
27ff
6000
a1fc
2124
21fc
2124
21fc
2020
23fe
2020
27ff
ENDCHAR
STARTCHAR ch-245
ENCODING 245
SWIDTH 1000 0
DWIDTH 16 0
BBX 16 16 0 -2
BITMAP
0800
0fff
1800
11fc
3124
21fc
6124
a7ff
2000
21fc
2124
21fc
2124
21fc
2000
27ff
ENDCHAR
STARTCHAR ch-249
ENCODING 249
SWIDTH 1000 0
DWIDTH 16 0
BBX 16 16 0 -2
BITMAP
0800
0fff
1890
17ff
3491
27ff
6000
a3fe
2202
23fe
2202
23fe
2202
23fe
2104
2603
ENDCHAR
STARTCHAR ch-251
ENCODING 251
SWIDTH 1000 0
DWIDTH 16 0
BBX 16 16 0 -2
BITMAP
1008
1788
14be
3480
24a2
64b6
6794
a47f
2408
2788
2cbe
2c88
3488
2488
2788
2008
ENDCHAR
STARTCHAR ch-256
ENCODING 256
SWIDTH 1000 0
DWIDTH 16 0
BBX 16 16 0 -2
BITMAP
1208
1110
37fe
2040
23fc
6040
6fff
a004
2792
2110
2fff
2112
2194
2f09
2115
2763
ENDCHAR
STARTCHAR ch-257
ENCODING 257
SWIDTH 1000 0
DWIDTH 16 0
BBX 16 16 0 -2
BITMAP
0910
0920
1bff
1220
37fe
2a20
63fe
a220
23ff
2000
279e
2492
2492
24f2
2402
240e
ENDCHAR
STARTCHAR ch-258
ENCODING 258
SWIDTH 1000 0
DWIDTH 16 0
BBX 16 16 0 -2
BITMAP
0890
0bfe
1a92
13fe
3292
23fe
6000
a7ff
2400
25fe
2400
27ff
2490
248a
28e4
2383
ENDCHAR
STARTCHAR ch-260
ENCODING 260
SWIDTH 1000 0
DWIDTH 16 0
BBX 16 16 0 -2
BITMAP
1040
1040
37fe
2108
2090
6fff
6000
a3fc
2204
23fc
2204
23fc
2040
2522
2509
28f8
ENDCHAR
STARTCHAR ch-265
ENCODING 265
SWIDTH 1000 0
DWIDTH 16 0
BBX 16 16 0 -2
BITMAP
0820
0870
18d8
118c
3707
20f8
6000
a3de
2252
2252
23de
2000
2104
2104
238e
26db
ENDCHAR
STARTCHAR ch-274
ENCODING 274
SWIDTH 1000 0
DWIDTH 16 0
BBX 16 16 0 -2
BITMAP
1000
13fe
3020
27ff
2421
65ad
6421
a1ac
2000
27ff
2020
27ff
2491
2491
2491
2493
ENDCHAR
STARTCHAR ch-276
ENCODING 276
SWIDTH 1000 0
DWIDTH 16 0
BBX 16 16 0 -2
BITMAP
0820
0bfe
1820
11fc
3000
27ff
6001
a1fd
2020
23fe
2000
27ff
2002
27bf
2492
2786
ENDCHAR
STARTCHAR ch-277
ENCODING 277
SWIDTH 1000 0
DWIDTH 16 0
BBX 16 16 0 -2
BITMAP
0820
0820
1fff
1050
37af
22aa
62aa
a5ad
2000
2202
23fe
2202
23fe
2202
2602
2c02
ENDCHAR
STARTCHAR ch-278
ENCODING 278
SWIDTH 1000 0
DWIDTH 16 0
BBX 16 16 0 -2
BITMAP
1008
17c8
1508
351f
27d0
6470
67c0
a50f
2500
27c0
2000
27fe
2492
2492
2492
2fff
ENDCHAR
STARTCHAR ch-280
ENCODING 280
SWIDTH 1000 0
DWIDTH 16 0
BBX 16 16 0 -2
BITMAP
0820
09fc
1824
17ff
3024
21fc
6020
a7ff
2292
2449
2000
23fe
2292
2292
27ff
2000
ENDCHAR
STARTCHAR ch-282
ENCODING 282
SWIDTH 1000 0
DWIDTH 16 0
BBX 16 16 0 -2
BITMAP
0888
0888
1fff
1088
33fe
2252
63fe
a000
27ff
2441
24fd
2184
236c
2018
2070
23c0
ENDCHAR
STARTCHAR ch-287
ENCODING 287
SWIDTH 1000 0
DWIDTH 16 0
BBX 16 16 0 -2
BITMAP
1222
1124
37ff
2401
25fd
6104
61fc
a000
23fe
2202
23fe
2202
23fe
2202
23fe
2603
ENDCHAR
STARTCHAR ch-289
ENCODING 289
SWIDTH 1000 0
DWIDTH 16 0
BBX 16 16 0 -2
BITMAP
0800
09fc
1924
1124
31fc
2124
6124
a1fc
2000
27df
2555
2555
27df
2555
2555
27df
ENDCHAR
STARTCHAR ch-298
ENCODING 298
SWIDTH 1000 0
DWIDTH 16 0
BBX 16 16 0 -2
BITMAP
17ff
1020
31fc
2104
61fc
6104
a7ff
2421
2292
2285
247c
2080
21fc
2684
2078
2787
ENDCHAR
STARTCHAR ch-306
ENCODING 306
SWIDTH 1000 0
DWIDTH 16 0
BBX 16 16 0 -2
BITMAP
2012
2f12
207e
3f94
6014
4f18
407f
c010
4f20
407e
40a2
4f22
493e
4922
4922
4f3e
ENDCHAR
STARTCHAR ch-311
ENCODING 311
SWIDTH 1000 0
DWIDTH 16 0
BBX 16 16 0 -2
BITMAP
17df
1000
17df
3451
2555
6020
67ff
a490
27fe
2492
27fe
2510
25de
2510
29d1
230f
ENDCHAR
STARTCHAR ch-314
ENCODING 314
SWIDTH 1000 0
DWIDTH 16 0
BBX 16 16 0 -2
BITMAP
1512
1fd2
1514
303f
2fa4
6ae4
6aa4
afbf
2224
2fa4
2224
2fbf
2224
2724
2524
2dbf
ENDCHAR
STARTCHAR ch-315
ENCODING 315
SWIDTH 1000 0
DWIDTH 16 0
BBX 16 16 0 -2
BITMAP
1222
1124
17ff
3505
25fd
6000
63fe
a222
23fe
2222
23fe
2020
27ff
2000
2292
2449
ENDCHAR
STARTCHAR ch-316
ENCODING 316
SWIDTH 1000 0
DWIDTH 16 0
BBX 16 16 0 -2
BITMAP
179e
1492
179e
3000
2fff
6808
6bc8
a90f
2ffa
2a52
2bca
2a4e
2bc4
2a4e
33ca
265b
ENDCHAR
STARTCHAR ch-319
ENCODING 319
SWIDTH 1000 0
DWIDTH 16 0
BBX 16 16 0 -2
BITMAP
0420
0420
0420
0420
0420
0420
0420
0420
0420
0420
0420
0c20
0820
1821
3033
e01e
ENDCHAR
STARTCHAR ch-320
ENCODING 320
SWIDTH 1000 0
DWIDTH 16 0
BBX 16 16 0 -2
BITMAP
0000
ffff
0420
0420
0420
0420
0420
0420
0420
0420
0420
0c20
0820
1821
3033
e01e
ENDCHAR
STARTCHAR ch-321
ENCODING 321
SWIDTH 1000 0
DWIDTH 16 0
BBX 16 16 0 -2
BITMAP
0400
0400
0c10
0818
180c
11fe
7f22
0420
0420
0420
0420
0c20
0821
1821
3033
e01e
ENDCHAR
STARTCHAR ch-323
ENCODING 323
SWIDTH 1000 0
DWIDTH 16 0
BBX 16 16 0 -2
BITMAP
0000
3ffc
0000
0000
0000
0000
ffff
0420
0420
0420
0420
0c20
0820
1821
3033
e01e
ENDCHAR
STARTCHAR ch-324
ENCODING 324
SWIDTH 1000 0
DWIDTH 16 0
BBX 16 16 0 -2
BITMAP
0000
3ff8
2008
2008
2008
2008
2008
2008
3ff8
0440
0440
0c40
0840
1841
3063
e03e
ENDCHAR
STARTCHAR ch-325
ENCODING 325
SWIDTH 1000 0
DWIDTH 16 0
BBX 16 16 0 -2
BITMAP
0100
0100
ffff
0400
0410
0c10
09f8
3f4c
0440
0440
0440
0c40
0840
1841
3063
e03e
ENDCHAR
STARTCHAR ch-326
ENCODING 326
SWIDTH 1000 0
DWIDTH 16 0
BBX 16 16 0 -2
BITMAP
0440
0440
0444
644c
3458
1470
0440
0440
1c70
745c
c447
0c40
0840
1841
3063
e03e
ENDCHAR
STARTCHAR ch-327
ENCODING 327
SWIDTH 1000 0
DWIDTH 16 0
BBX 16 16 0 -2
BITMAP
0010
2c34
2664
2344
21c4
2364
2634
2c14
2004
3ffc
0420
0420
0c20
1821
3033
e01e
ENDCHAR
STARTCHAR ch-328
ENCODING 328
SWIDTH 1000 0
DWIDTH 16 0
BBX 16 16 0 -2
BITMAP
0100
1100
1100
1ffc
3100
6100
0100
ffff
0440
0440
0440
0c40
0840
1841
3063
e03e
ENDCHAR
STARTCHAR ch-329
ENCODING 329
SWIDTH 1000 0
DWIDTH 16 0
BBX 16 16 0 -2
BITMAP
0100
4104
610c
3118
1930
0920
0100
ffff
0440
0440
0440
0c40
0840
1841
3063
e03e
ENDCHAR
STARTCHAR ch-331
ENCODING 331
SWIDTH 1000 0
DWIDTH 16 0
BBX 16 16 0 -2
BITMAP
0100
0100
ffff
0100
0100
3ffc
2004
2004
2004
3ffc
0440
0440
0c40
1841
3063
e03e
ENDCHAR
STARTCHAR ch-332
ENCODING 332
SWIDTH 1000 0
DWIDTH 16 0
BBX 16 16 0 -2
BITMAP
1808
0c18
0430
0020
1ff8
1008
1008
1008
1008
1ff8
0420
0420
0c20
1821
3033
e01e
ENDCHAR
STARTCHAR ch-333
ENCODING 333
SWIDTH 1000 0
DWIDTH 16 0
BBX 16 16 0 -2
BITMAP
0400
07f0
0c20
1840
7080
3ffc
2104
2104
2104
3ffc
0440
0440
0c40
1841
3063
e03e
ENDCHAR
STARTCHAR ch-334
ENCODING 334
SWIDTH 1000 0
DWIDTH 16 0
BBX 16 16 0 -2
BITMAP
000c
0078
3fc0
0100
0100
7ffe
4102
4102
4102
7ffe
0448
044c
0c44
1841
3063
e03e
ENDCHAR
STARTCHAR ch-336
ENCODING 336
SWIDTH 1000 0
DWIDTH 16 0
BBX 16 16 0 -2
BITMAP
0000
23fc
2204
2204
2204
23fc
2204
2204
2204
23fc
2000
0440
0440
0c41
3863
e03e
ENDCHAR
STARTCHAR ch-338
ENCODING 338
SWIDTH 1000 0
DWIDTH 16 0
BBX 16 16 0 -2
BITMAP
0300
0e00
387c
2004
2004
3e7c
2004
2004
2004
3ffc
0440
0440
0c40
1841
3063
e03e
ENDCHAR
STARTCHAR ch-340
ENCODING 340
SWIDTH 1000 0
DWIDTH 16 0
BBX 16 16 0 -2
BITMAP
0400
07f0
0c20
1840
3080
fffc
2104
2104
2104
3ffc
0440
0458
0c4c
1841
3063
e03e
ENDCHAR
STARTCHAR ch-346
ENCODING 346
SWIDTH 1000 0
DWIDTH 16 0
BBX 16 16 0 -2
BITMAP
2104
310c
1108
ffff
8001
9ff9
9009
1008
1008
1ff8
0440
0440
0c40
1841
3063
e03e
ENDCHAR
STARTCHAR ch-348
ENCODING 348
SWIDTH 1000 0
DWIDTH 16 0
BBX 16 16 0 -2
BITMAP
0880
190e
77e2
4422
4422
47e2
4422
4422
77ee
0000
0440
0440
0c40
1841
3063
e03e
ENDCHAR
STARTCHAR ch-354
ENCODING 354
SWIDTH 1000 0
DWIDTH 16 0
BBX 16 16 0 -2
BITMAP
1010
1010
feff
1010
1010
7e7e
4242
4242
4242
7e7e
2828
2828
2868
6a49
4cc9
c987
ENDCHAR
STARTCHAR ch-357
ENCODING 357
SWIDTH 1000 0
DWIDTH 16 0
BBX 16 16 0 -2
BITMAP
0000
1f00
0100
0100
0100
0100
0100
0380
0280
02c0
0640
0460
0c30
1818
300c
e007
ENDCHAR
STARTCHAR ch-360
ENCODING 360
SWIDTH 1000 0
DWIDTH 16 0
BBX 16 16 0 -2
BITMAP
0100
0380
06c0
0c70
381c
e007
1ff8
0100
0100
0100
1ff8
0100
0100
0100
7ffe
0000
ENDCHAR
STARTCHAR ch-361
ENCODING 361
SWIDTH 1000 0
DWIDTH 16 0
BBX 16 16 0 -2
BITMAP
0000
ffff
0100
0100
7ffe
4102
4102
7972
4912
4912
5d3a
552a
6346
4102
4102
410e
ENDCHAR
STARTCHAR ch-362
ENCODING 362
SWIDTH 1000 0
DWIDTH 16 0
BBX 16 16 0 -2
BITMAP
0100
0380
06c0
0c70
381c
eff7
0000
7e22
4226
5264
4a4c
42d8
524c
4a64
4226
4e22
ENDCHAR
STARTCHAR ch-363
ENCODING 363
SWIDTH 1000 0
DWIDTH 16 0
BBX 16 16 0 -2
BITMAP
0000
0420
0420
0420
0420
0420
0420
0c30
0810
0810
1818
1008
300c
6006
c003
0000
ENDCHAR
STARTCHAR ch-364
ENCODING 364
SWIDTH 1000 0
DWIDTH 16 0
BBX 16 16 0 -2
BITMAP
0420
0420
0c30
0810
1818
100c
3206
6203
c200
0620
0430
0418
0c08
08fc
1f86
7002
ENDCHAR
STARTCHAR ch-365
ENCODING 365
SWIDTH 1000 0
DWIDTH 16 0
BBX 16 16 0 -2
BITMAP
0100
0100
0100
0100
ffff
0000
0000
0000
0810
0810
1818
1008
300c
2004
6006
c003
ENDCHAR
STARTCHAR ch-366
ENCODING 366
SWIDTH 1000 0
DWIDTH 16 0
BBX 16 16 0 -2
BITMAP
0420
0c30
0810
1818
3ffc
6206
c603
0400
0ff8
0008
0008
0008
0018
0010
0030
01e0
ENDCHAR
STARTCHAR ch-369
ENCODING 369
SWIDTH 1000 0
DWIDTH 16 0
BBX 16 16 0 -2
BITMAP
0810
0810
0810
0810
7ffe
0810
0810
0810
0810
0810
ffff
0000
0810
1818
300c
e007
ENDCHAR
STARTCHAR ch-373
ENCODING 373
SWIDTH 1000 0
DWIDTH 16 0
BBX 16 16 0 -2
BITMAP
0030
01e0
0f00
0800
0ffc
0820
0820
0820
0820
0820
ffff
0000
0810
1818
300c
6006
ENDCHAR
STARTCHAR ch-374
ENCODING 374
SWIDTH 1000 0
DWIDTH 16 0
BBX 16 16 0 -2
BITMAP
0810
0810
ffff
0810
0810
0ff0
0810
0810
0ff0
0810
0810
ffff
0000
0810
381c
e007
ENDCHAR
STARTCHAR ch-375
ENCODING 375
SWIDTH 1000 0
DWIDTH 16 0
BBX 16 16 0 -2
BITMAP
0000
1ff8
1008
1008
1ff8
1008
1008
1ff8
1008
1008
1ff8
0000
ffff
0810
1818
700e
ENDCHAR
STARTCHAR ch-376
ENCODING 376
SWIDTH 1000 0
DWIDTH 16 0
BBX 16 16 0 -2
BITMAP
0440
0440
0440
3ffc
2444
2444
2444
3ffc
2444
2444
2444
ffff
0000
0810
381c
e007
ENDCHAR
STARTCHAR ch-380
ENCODING 380
SWIDTH 1000 0
DWIDTH 16 0
BBX 16 16 0 -2
BITMAP
1008
0810
7ffe
0240
3ffc
0244
0244
ffff
0244
0244
3ffc
0a50
1a58
324c
e247
0240
ENDCHAR
STARTCHAR ch-384
ENCODING 384
SWIDTH 1000 0
DWIDTH 16 0
BBX 16 16 0 -2
BITMAP
0440
fc7e
0441
fc3f
0400
3ffc
2104
3ffc
2104
3ffc
0810
7ffe
0810
ffff
1008
6006
ENDCHAR
STARTCHAR ch-386
ENCODING 386
SWIDTH 1000 0
DWIDTH 16 0
BBX 16 16 0 -2
BITMAP
0000
7ffe
4002
4002
4002
4002
4002
4002
4002
4002
4002
4002
4002
4002
4002
400e
ENDCHAR
STARTCHAR ch-389
ENCODING 389
SWIDTH 1000 0
DWIDTH 16 0
BBX 16 16 0 -2
BITMAP
0100
0100
0100
7ffe
4102
4102
4382
42c2
4662
4c32
581a
4002
4002
4002
4002
400e
ENDCHAR
STARTCHAR ch-390
ENCODING 390
SWIDTH 1000 0
DWIDTH 16 0
BBX 16 16 0 -2
BITMAP
0000
7ffe
4102
4102
4102
4102
4102
4102
7ffe
4002
4002
4002
4002
4002
400e
0000
ENDCHAR
STARTCHAR ch-393
ENCODING 393
SWIDTH 1000 0
DWIDTH 16 0
BBX 16 16 0 -2
BITMAP
0100
0100
0100
3ffc
2104
2104
3ffc
2104
2104
2104
ffff
2004
2004
2004
2004
201c
ENDCHAR
STARTCHAR ch-394
ENCODING 394
SWIDTH 1000 0
DWIDTH 16 0
BBX 16 16 0 -2
BITMAP
0000
3ffc
2444
2444
2444
2444
2444
ffff
2444
2444
2444
2444
2444
2444
2444
244c
ENDCHAR
STARTCHAR ch-396
ENCODING 396
SWIDTH 1000 0
DWIDTH 16 0
BBX 16 16 0 -2
BITMAP
0000
3e7c
2244
2244
2244
2244
2244
ffff
2244
2244
2244
2244
2244
62c4
4e84
c19c
ENDCHAR
STARTCHAR ch-397
ENCODING 397
SWIDTH 1000 0
DWIDTH 16 0
BBX 16 16 0 -2
BITMAP
0000
ffff
0100
0100
3ffc
2104
2104
3ffc
2104
2104
ffff
2004
2004
2004
2004
201c
ENDCHAR
STARTCHAR ch-399
ENCODING 399
SWIDTH 1000 0
DWIDTH 16 0
BBX 16 16 0 -2
BITMAP
0000
7ffe
4442
4442
4442
4c7a
5802
4002
47e2
4422
4422
4422
47e2
4002
4002
400e
ENDCHAR
STARTCHAR ch-400
ENCODING 400
SWIDTH 1000 0
DWIDTH 16 0
BBX 16 16 0 -2
BITMAP
0000
7ffe
4002
5ffa
4002
5ffa
0000
0000
1ff8
1008
1ff8
1008
1ff8
1008
1008
1038
ENDCHAR
STARTCHAR ch-401
ENCODING 401
SWIDTH 1000 0
DWIDTH 16 0
BBX 16 16 0 -2
BITMAP
0100
0100
7ffe
4102
7ffe
4102
7ffe
0000
3ffc
2004
2ff4
2004
2ff4
2004
2004
201c
ENDCHAR
STARTCHAR ch-402
ENCODING 402
SWIDTH 1000 0
DWIDTH 16 0
BBX 16 16 0 -2
BITMAP
0000
7ffe
4002
7ffe
4002
7ffe
0000
1ff8
1008
1ff8
1008
1008
1ff8
1008
1008
1ff8
ENDCHAR
STARTCHAR ch-403
ENCODING 403
SWIDTH 1000 0
DWIDTH 16 0
BBX 16 16 0 -2
BITMAP
0420
0420
7ffe
0420
3ffc
0420
ffff
0100
1ff8
1108
1ff8
1108
ffff
1008
1008
1038
ENDCHAR
STARTCHAR ch-405
ENCODING 405
SWIDTH 1000 0
DWIDTH 16 0
BBX 16 16 0 -2
BITMAP
3ffc
2004
2ff4
2004
2ff4
0400
0fe0
3040
fffc
2104
2104
3ffc
0440
0c41
3863
e03e
ENDCHAR
STARTCHAR ch-406
ENCODING 406
SWIDTH 1000 0
DWIDTH 16 0
BBX 16 16 0 -2
BITMAP
0000
0000
0000
0000
0000
0000
7ffe
4002
4002
4002
0000
0000
0000
0000
0000
0000
ENDCHAR
STARTCHAR ch-407
ENCODING 407
SWIDTH 1000 0
DWIDTH 16 0
BBX 16 16 0 -2
BITMAP
0000
7ffe
4002
4002
47e2
0420
0420
0420
0420
0420
0420
0c20
0820
1821
3033
e01e
ENDCHAR
STARTCHAR ch-409
ENCODING 409
SWIDTH 1000 0
DWIDTH 16 0
BBX 16 16 0 -2
BITMAP
0000
7ffe
4002
4402
47f2
0400
0400
07e0
0020
0020
ffff
0020
0020
0060
0040
03c0
ENDCHAR
STARTCHAR ch-416
ENCODING 416
SWIDTH 1000 0
DWIDTH 16 0
BBX 16 16 0 -2
BITMAP
0000
7ffe
4002
4002
7e04
0004
00ff
ff04
2444
2464
2424
2404
2404
641d
4603
c3fe
ENDCHAR
STARTCHAR ch-418
ENCODING 418
SWIDTH 1000 0
DWIDTH 16 0
BBX 16 16 0 -2
BITMAP
0000
7ffe
4002
4002
1ff8
0100
0200
0d04
710c
0298
0cc0
71e0
06b0
1c9c
f187
0700
ENDCHAR
STARTCHAR ch-420
ENCODING 420
SWIDTH 1000 0
DWIDTH 16 0
BBX 16 16 0 -2
BITMAP
0000
7ffe
4402
4ff2
1820
3040
fffc
2104
2104
3ffc
0440
0458
0c4c
1841
3063
e03e
ENDCHAR
STARTCHAR ch-421
ENCODING 421
SWIDTH 1000 0
DWIDTH 16 0
BBX 16 16 0 -2
BITMAP
0000
7ffe
4002
4ff2
0810
0810
0ff0
0810
0810
0ff0
0100
ffff
0000
0420
1c38
700e
ENDCHAR
STARTCHAR ch-422
ENCODING 422
SWIDTH 1000 0
DWIDTH 16 0
BBX 16 16 0 -2
BITMAP
0000
ffff
8001
8011
7e1e
0010
00fc
ff44
246c
2428
2438
246c
24c6
6401
4603
c3fe
ENDCHAR
STARTCHAR ch-424
ENCODING 424
SWIDTH 1000 0
DWIDTH 16 0
BBX 16 16 0 -2
BITMAP
0000
7ffe
4002
5ffa
0000
0ff0
0810
0ff0
0000
3ffc
2104
2104
3ffc
2104
2104
3ffc
ENDCHAR
STARTCHAR ch-425
ENCODING 425
SWIDTH 1000 0
DWIDTH 16 0
BBX 16 16 0 -2
BITMAP
0000
7ffe
4002
4702
1c78
1008
1e78
1008
1ff8
0800
1ffe
3022
e492
1256
1244
201c
ENDCHAR
STARTCHAR ch-426
ENCODING 426
SWIDTH 1000 0
DWIDTH 16 0
BBX 16 16 0 -2
BITMAP
ffff
8421
bffd
0420
1ff8
1008
1ff8
1008
1ff8
0200
ffff
0910
3ffc
e107
211c
0100
ENDCHAR
STARTCHAR ch-427
ENCODING 427
SWIDTH 1000 0
DWIDTH 16 0
BBX 16 16 0 -2
BITMAP
0000
0600
0300
0180
0080
0000
0000
0020
0060
0040
00c0
0180
0100
0300
0600
0000
ENDCHAR
STARTCHAR ch-428
ENCODING 428
SWIDTH 1000 0
DWIDTH 16 0
BBX 16 16 0 -2
BITMAP
0200
0200
07f0
0c10
1830
7660
0380
06c0
0c70
381c
e387
00e0
0000
0f00
01e0
0030
ENDCHAR
STARTCHAR ch-432
ENCODING 432
SWIDTH 1000 0
DWIDTH 16 0
BBX 16 16 0 -2
BITMAP
0040
6040
3040
1042
0f46
016c
0168
0150
1350
1258
3248
264c
6446
4c43
c040
01c0
ENDCHAR
STARTCHAR ch-433
ENCODING 433
SWIDTH 1000 0
DWIDTH 16 0
BBX 16 16 0 -2
BITMAP
0000
67fe
3080
1080
0080
01f8
0108
0108
1308
1208
33f8
2010
6010
4010
cfff
0000
ENDCHAR
STARTCHAR ch-434
ENCODING 434
SWIDTH 1000 0
DWIDTH 16 0
BBX 16 16 0 -2
BITMAP
0020
6020
3020
1020
07ff
0421
0421
0421
1421
17ff
3020
2020
6020
4020
c020
0020
ENDCHAR
STARTCHAR ch-435
ENCODING 435
SWIDTH 1000 0
DWIDTH 16 0
BBX 16 16 0 -2
BITMAP
0040
6040
3040
13fc
0044
0044
0044
0044
17ff
10a0
30b0
2190
6118
430c
c606
0c03
ENDCHAR
STARTCHAR ch-436
ENCODING 436
SWIDTH 1000 0
DWIDTH 16 0
BBX 16 16 0 -2
BITMAP
0000
63fe
3088
1088
0088
0088
0088
03ff
0828
1868
1048
30c8
2188
6308
ce08
0038
ENDCHAR
STARTCHAR ch-437
ENCODING 437
SWIDTH 1000 0
DWIDTH 16 0
BBX 16 16 0 -2
BITMAP
0000
63fc
3204
1204
0204
0204
0204
03fc
1090
1090
3090
2090
6190
4111
c313
0e0e
ENDCHAR
STARTCHAR ch-438
ENCODING 438
SWIDTH 1000 0
DWIDTH 16 0
BBX 16 16 0 -2
BITMAP
0040
0040
60c4
3086
1182
013f
07e1
0000
1000
11fe
3102
2102
6102
4102
c102
01fe
ENDCHAR
STARTCHAR ch-439
ENCODING 439
SWIDTH 1000 0
DWIDTH 16 0
BBX 16 16 0 -2
BITMAP
0020
6070
30d8
118c
0306
06fb
0000
0000
13fe
1042
3042
2042
6042
404e
c040
0040
ENDCHAR
STARTCHAR ch-445
ENCODING 445
SWIDTH 1000 0
DWIDTH 16 0
BBX 16 16 0 -2
BITMAP
0001
cfc9
6209
2209
0209
03c9
0249
0649
2549
2dc9
2089
6181
4101
4301
c601
0c07
ENDCHAR
STARTCHAR ch-452
ENCODING 452
SWIDTH 1000 0
DWIDTH 16 0
BBX 16 16 0 -2
BITMAP
0040
0040
cfff
6040
27fe
0042
0fff
0042
27fe
2080
2fff
6104
4208
47f0
c05e
0f83
ENDCHAR
STARTCHAR ch-453
ENCODING 453
SWIDTH 1000 0
DWIDTH 16 0
BBX 16 16 0 -2
BITMAP
0000
67ff
3401
1421
05fd
0421
0421
04f9
1489
1489
3489
24f9
6401
4401
c7ff
0000
ENDCHAR
STARTCHAR ch-454
ENCODING 454
SWIDTH 1000 0
DWIDTH 16 0
BBX 16 16 0 -2
BITMAP
0088
6198
3110
13ff
0610
0a10
0210
03fe
1210
1210
3210
23fe
6210
4210
c210
03ff
ENDCHAR
STARTCHAR ch-457
ENCODING 457
SWIDTH 1000 0
DWIDTH 16 0
BBX 16 16 0 -2
BITMAP
0020
6020
3020
17ff
0000
01fc
0104
0104
1104
11fc
3020
2124
6124
4326
c623
00e0
ENDCHAR
STARTCHAR ch-459
ENCODING 459
SWIDTH 1000 0
DWIDTH 16 0
BBX 16 16 0 -2
BITMAP
0000
63fe
3202
1222
02fa
0222
0222
02fa
1202
12fa
328a
228a
66fa
4402
cc02
180e
ENDCHAR
STARTCHAR ch-460
ENCODING 460
SWIDTH 1000 0
DWIDTH 16 0
BBX 16 16 0 -2
BITMAP
0020
6020
33fe
1020
07ff
0088
0188
030f
1040
107c
30c4
218c
6358
4070
c0dc
0787
ENDCHAR
STARTCHAR ch-461
ENCODING 461
SWIDTH 1000 0
DWIDTH 16 0
BBX 16 16 0 -2
BITMAP
0040
0040
6fff
3040
17fe
0442
07fe
0442
0442
17fe
3150
2158
634c
4646
cc43
0040
ENDCHAR
STARTCHAR ch-470
ENCODING 470
SWIDTH 1000 0
DWIDTH 16 0
BBX 16 16 0 -2
BITMAP
0088
6110
33fe
0620
0bfc
0220
13fc
3220
6220
c3fe
0000
0100
ffff
0100
0100
0100
ENDCHAR
STARTCHAR ch-475
ENCODING 475
SWIDTH 1000 0
DWIDTH 16 0
BBX 16 16 0 -2
BITMAP
0020
67ff
3000
13fe
0202
02fa
028a
02fa
1202
13fe
3000
23fe
6000
47ff
c124
0663
ENDCHAR
STARTCHAR ch-477
ENCODING 477
SWIDTH 1000 0
DWIDTH 16 0
BBX 16 16 0 -2
BITMAP
0800
09be
cf02
6824
2898
0788
087f
0f89
2a0a
3228
2fae
6228
4528
44b8
c86c
10c7
ENDCHAR
STARTCHAR ch-480
ENCODING 480
SWIDTH 1000 0
DWIDTH 16 0
BBX 16 16 0 -2
BITMAP
0000
0fe0
0820
0820
0820
0820
0820
0820
0820
0820
0820
1820
1020
3021
6033
c01e
ENDCHAR
STARTCHAR ch-481
ENCODING 481
SWIDTH 1000 0
DWIDTH 16 0
BBX 16 16 0 -2
BITMAP
0000
0fe0
0820
0820
0820
0b20
09a0
08a0
0820
0820
0820
0820
1820
1021
3033
e01e
ENDCHAR
STARTCHAR ch-486
ENCODING 486
SWIDTH 1000 0
DWIDTH 16 0
BBX 16 16 0 -2
BITMAP
2000
207c
2044
3e44
2244
2244
6644
5444
d444
1c44
08c5
1c85
1583
3600
6300
c1ff
ENDCHAR
STARTCHAR ch-487
ENCODING 487
SWIDTH 1000 0
DWIDTH 16 0
BBX 16 16 0 -2
BITMAP
0000
3ff8
2008
2108
2108
2fe8
2928
2928
2928
2928
2928
2928
296c
6105
4107
c002
ENDCHAR
STARTCHAR ch-489
ENCODING 489
SWIDTH 1000 0
DWIDTH 16 0
BBX 16 16 0 -2
BITMAP
0000
3ff8
2008
2108
2108
2fe8
2108
2108
2388
2388
2548
2548
292c
6105
4107
c002
ENDCHAR
STARTCHAR ch-490
ENCODING 490
SWIDTH 1000 0
DWIDTH 16 0
BBX 16 16 0 -2
BITMAP
0000
3ff8
2008
2088
2088
2088
2488
24e8
2488
2488
2488
2488
248c
6485
5ff7
c002
ENDCHAR
STARTCHAR ch-493
ENCODING 493
SWIDTH 1000 0
DWIDTH 16 0
BBX 16 16 0 -2
BITMAP
080c
1838
31e0
6020
e7ff
2020
2020
23fe
2000
0000
0fe0
0820
0820
1821
3033
e01e
ENDCHAR
STARTCHAR ch-496
ENCODING 496
SWIDTH 1000 0
DWIDTH 16 0
BBX 16 16 0 -2
BITMAP
0000
3ffc
2104
2204
2ff4
2814
2ff4
2814
2ff4
2004
2ff4
2104
27e4
6105
5ff7
c002
ENDCHAR
STARTCHAR ch-497
ENCODING 497
SWIDTH 1000 0
DWIDTH 16 0
BBX 16 16 0 -2
BITMAP
0800
493c
4924
7f24
0024
ffa4
0024
7f24
4124
4124
7f24
2224
2224
17a5
3c65
e0c3
ENDCHAR
STARTCHAR ch-501
ENCODING 501
SWIDTH 1000 0
DWIDTH 16 0
BBX 16 16 0 -2
BITMAP
4002
4002
4002
4002
4002
4002
4002
4002
4002
4002
4002
4002
4002
4002
7ffe
0000
ENDCHAR
STARTCHAR ch-502
ENCODING 502
SWIDTH 1000 0
DWIDTH 16 0
BBX 16 16 0 -2
BITMAP
0000
0008
581a
4c12
4632
4362
41c2
41c2
4362
4632
4c1a
580a
4002
4002
7ffe
0000
ENDCHAR
STARTCHAR ch-504
ENCODING 504
SWIDTH 1000 0
DWIDTH 16 0
BBX 16 16 0 -2
BITMAP
0000
07e0
0420
0420
0420
0420
0420
7c3e
4002
4002
4002
4002
4002
4002
7ffe
0000
ENDCHAR
STARTCHAR ch-505
ENCODING 505
SWIDTH 1000 0
DWIDTH 16 0
BBX 16 16 0 -2
BITMAP
0000
7c3e
4422
4422
4422
4422
4422
4422
47e2
4002
4002
4002
4002
4002
7ffe
0000
ENDCHAR
STARTCHAR ch-506
ENCODING 506
SWIDTH 1000 0
DWIDTH 16 0
BBX 16 16 0 -2
BITMAP
0100
0100
2104
2104
2104
2104
3ffc
0100
0100
0100
4102
4102
4102
4102
7ffe
0000
ENDCHAR
STARTCHAR ch-509
ENCODING 509
SWIDTH 1000 0
DWIDTH 16 0
BBX 16 16 0 -2
BITMAP
0000
ffff
0200
0200
4382
4892
4cb2
44a2
4082
46e2
4cb2
589a
4382
4002
7ffe
0000
ENDCHAR
STARTCHAR ch-510
ENCODING 510
SWIDTH 1000 0
DWIDTH 16 0
BBX 16 16 0 -2
BITMAP
0000
3ff8
0030
00c0
0100
4102
5dfa
554a
554a
5552
5522
5d32
415a
4702
4002
7ffe
ENDCHAR
ENDFONT
