STARTFONT 2.1
FONT jis.jis5400.16
SIZE 16 72 72
FONTBOUNDINGBOX 16 16 0 -2
STARTPROPERTIES 4
FONT_DESCENT 2
FONT_ASCENT 14
DEFAULT_CHAR 1
COPYRIGHT "Copyright (c) 1992 AT&T - All rights reserved."
ENDPROPERTIES
CHARS 156
STARTCHAR ch-1
ENCODING 1
SWIDTH 1000 0
DWIDTH 16 0
BBX 16 16 0 -2
BITMAP
0000
03fe
f820
8820
8820
8820
8820
8fff
8820
8820
f820
0020
0020
0020
0020
00e0
ENDCHAR
STARTCHAR ch-3
ENCODING 3
SWIDTH 1000 0
DWIDTH 16 0
BBX 16 16 0 -2
BITMAP
0100
0100
f100
93ff
9200
9600
9dfc
9018
9030
9060
90c0
9180
f300
0201
0303
01fe
ENDCHAR
STARTCHAR ch-4
ENCODING 4
SWIDTH 1000 0
DWIDTH 16 0
BBX 16 16 0 -2
BITMAP
0400
0400
0ff0
1810
3c30
e660
03c0
0660
1c38
f00f
1ff8
1008
1008
1008
1008
1ff8
ENDCHAR
STARTCHAR ch-8
ENCODING 8
SWIDTH 1000 0
DWIDTH 16 0
BBX 16 16 0 -2
BITMAP
0100
0380
06c0
0c70
381c
e007
0ff0
0000
0000
1ff8
1008
1008
1008
1008
1008
1ff8
ENDCHAR
STARTCHAR ch-9
ENCODING 9
SWIDTH 1000 0
DWIDTH 16 0
BBX 16 16 0 -2
BITMAP
0100
0100
0100
ffff
0100
0100
0100
7ffe
0000
0000
1ff8
1008
1008
1008
1008
1ff8
ENDCHAR
STARTCHAR ch-10
ENCODING 10
SWIDTH 1000 0
DWIDTH 16 0
BBX 16 16 0 -2
BITMAP
0000
1ff8
1008
1008
1008
1008
1ff8
0100
7ffe
4102
4102
4102
4102
410e
0100
0100
ENDCHAR
STARTCHAR ch-11
ENCODING 11
SWIDTH 1000 0
DWIDTH 16 0
BBX 16 16 0 -2
BITMAP
0008
7c08
4408
4408
47ff
4408
4408
4588
44c8
4448
4408
7c08
0008
0008
0008
0038
ENDCHAR
STARTCHAR ch-12
ENCODING 12
SWIDTH 1000 0
DWIDTH 16 0
BBX 16 16 0 -2
BITMAP
0000
7ffe
4002
4002
4ff2
4002
4002
47e2
4422
4422
4422
47e2
4002
4002
4002
400e
ENDCHAR
STARTCHAR ch-13
ENCODING 13
SWIDTH 1000 0
DWIDTH 16 0
BBX 16 16 0 -2
BITMAP
0200
0200
07f8
0c08
1818
3630
e360
00c0
0180
07fe
1c02
f402
0402
0402
0402
07fe
ENDCHAR
STARTCHAR ch-14
ENCODING 14
SWIDTH 1000 0
DWIDTH 16 0
BBX 16 16 0 -2
BITMAP
000c
00f8
3f80
2000
2000
3fff
2000
2000
27fc
2404
2404
2404
6404
4404
c404
07fc
ENDCHAR
STARTCHAR ch-15
ENCODING 15
SWIDTH 1000 0
DWIDTH 16 0
BBX 16 16 0 -2
BITMAP
0100
0100
ffff
0100
3ffc
2104
2104
2104
3ffc
0100
1300
0a00
0700
0dc0
3878
e00f
ENDCHAR
STARTCHAR ch-16
ENCODING 16
SWIDTH 1000 0
DWIDTH 16 0
BBX 16 16 0 -2
BITMAP
0020
0020
f820
8820
8820
8820
8bfe
8820
8820
8820
8820
f820
0020
0020
07ff
0000
ENDCHAR
STARTCHAR ch-17
ENCODING 17
SWIDTH 1000 0
DWIDTH 16 0
BBX 16 16 0 -2
BITMAP
0100
0300
0200
7ffe
4002
4002
47e2
4422
4422
4422
4422
47e2
4002
4002
4002
400e
ENDCHAR
STARTCHAR ch-27
ENCODING 27
SWIDTH 1000 0
DWIDTH 16 0
BBX 16 16 0 -2
BITMAP
0000
3ffc
0204
0204
ffff
0204
0204
3ffc
0400
0800
1ffe
2802
c802
0802
0802
0ffe
ENDCHAR
STARTCHAR ch-29
ENCODING 29
SWIDTH 1000 0
DWIDTH 16 0
BBX 16 16 0 -2
BITMAP
0100
0100
ffff
0810
0c30
0660
03c0
1e78
f00f
0000
3ffc
2004
2004
2004
2004
3ffc
ENDCHAR
STARTCHAR ch-31
ENCODING 31
SWIDTH 1000 0
DWIDTH 16 0
BBX 16 16 0 -2
BITMAP
0020
0070
f850
88d8
898c
8b06
8efb
8800
8800
89fc
8804
f80c
0008
0018
0010
0030
ENDCHAR
STARTCHAR ch-32
ENCODING 32
SWIDTH 1000 0
DWIDTH 16 0
BBX 16 16 0 -2
BITMAP
0020
002c
7c26
4422
4420
47ff
4420
4420
4470
4450
4450
7cd8
0088
018c
0306
0603
ENDCHAR
STARTCHAR ch-38
ENCODING 38
SWIDTH 1000 0
DWIDTH 16 0
BBX 16 16 0 -2
BITMAP
0000
ffff
0100
0300
0760
0d30
391c
e107
0100
0000
3ffc
2004
2004
2004
2004
3ffc
ENDCHAR
STARTCHAR ch-41
ENCODING 41
SWIDTH 1000 0
DWIDTH 16 0
BBX 16 16 0 -2
BITMAP
0088
0088
f98c
8904
8b06
8e03
89fc
8844
8844
8844
88c4
f884
018c
0108
0308
0638
ENDCHAR
STARTCHAR ch-43
ENCODING 43
SWIDTH 1000 0
DWIDTH 16 0
BBX 16 16 0 -2
BITMAP
0100
0380
06c0
0c70
381c
e7e7
0000
1ff8
0010
0020
0040
1ff8
1008
1008
1008
1ff8
ENDCHAR
STARTCHAR ch-44
ENCODING 44
SWIDTH 1000 0
DWIDTH 16 0
BBX 16 16 0 -2
BITMAP
0006
001c
f9f0
8900
8900
89ff
8908
8908
8908
8908
8908
fb08
0208
0608
0c08
0008
ENDCHAR
STARTCHAR ch-45
ENCODING 45
SWIDTH 1000 0
DWIDTH 16 0
BBX 16 16 0 -2
BITMAP
0020
0020
f820
8fff
8800
8800
88f8
8888
8888
8888
8888
f888
0188
0109
0309
0607
ENDCHAR
STARTCHAR ch-46
ENCODING 46
SWIDTH 1000 0
DWIDTH 16 0
BBX 16 16 0 -2
BITMAP
0040
00c0
f884
8984
893e
8feb
8888
8888
8888
8888
8888
f888
0188
0109
0309
0607
ENDCHAR
STARTCHAR ch-54
ENCODING 54
SWIDTH 1000 0
DWIDTH 16 0
BBX 16 16 0 -2
BITMAP
0020
0020
f020
93fe
9222
9222
9222
9272
9252
92da
928a
f202
0202
0202
0202
020e
ENDCHAR
STARTCHAR ch-56
ENCODING 56
SWIDTH 1000 0
DWIDTH 16 0
BBX 16 16 0 -2
BITMAP
0000
03fc
f884
888c
8888
889e
8882
89c6
8944
896c
8b38
fa10
0638
0c6c
18c6
0383
ENDCHAR
STARTCHAR ch-57
ENCODING 57
SWIDTH 1000 0
DWIDTH 16 0
BBX 16 16 0 -2
BITMAP
0080
0080
f880
89ff
8901
8b23
8e22
8820
8820
8870
8850
f8d8
0088
018c
0306
0603
ENDCHAR
STARTCHAR ch-59
ENCODING 59
SWIDTH 1000 0
DWIDTH 16 0
BBX 16 16 0 -2
BITMAP
0100
0100
f900
89ff
8949
8b49
8a49
8e49
88c9
8899
8991
fb31
0621
0063
00c2
000e
ENDCHAR
STARTCHAR ch-60
ENCODING 60
SWIDTH 1000 0
DWIDTH 16 0
BBX 16 16 0 -2
BITMAP
0008
07c8
f048
9088
9108
9108
9168
9188
9308
9d08
9108
f108
0108
0109
0109
0707
ENDCHAR
STARTCHAR ch-61
ENCODING 61
SWIDTH 1000 0
DWIDTH 16 0
BBX 16 16 0 -2
BITMAP
0020
0120
f920
8920
8bfe
8a20
8e20
8820
8820
8fff
8820
f820
0020
0020
0020
0020
ENDCHAR
STARTCHAR ch-62
ENCODING 62
SWIDTH 1000 0
DWIDTH 16 0
BBX 16 16 0 -2
BITMAP
0000
7ffe
0200
0200
3ff8
0408
0c08
0808
ffff
0000
1ff8
1008
1008
1008
1008
1ff8
ENDCHAR
STARTCHAR ch-64
ENCODING 64
SWIDTH 1000 0
DWIDTH 16 0
BBX 16 16 0 -2
BITMAP
0000
03fe
f888
8888
8888
8888
8888
8fff
8828
8868
f848
00c8
0188
0308
0608
0038
ENDCHAR
STARTCHAR ch-66
ENCODING 66
SWIDTH 1000 0
DWIDTH 16 0
BBX 16 16 0 -2
BITMAP
0000
1ff8
1008
1008
1008
1008
1ff8
0100
0300
0200
3ffc
2004
2004
2004
2004
3ffc
ENDCHAR
STARTCHAR ch-70
ENCODING 70
SWIDTH 1000 0
DWIDTH 16 0
BBX 16 16 0 -2
BITMAP
0000
1ff8
1008
1008
1008
1008
1ff8
0100
0100
ffff
0520
0d30
1918
310c
e107
0100
ENDCHAR
STARTCHAR ch-72
ENCODING 72
SWIDTH 1000 0
DWIDTH 16 0
BBX 16 16 0 -2
BITMAP
0000
1ff8
1008
1008
1008
1ff8
0000
0000
3ffc
0100
0100
1ff8
0100
0100
ffff
0000
ENDCHAR
STARTCHAR ch-73
ENCODING 73
SWIDTH 1000 0
DWIDTH 16 0
BBX 16 16 0 -2
BITMAP
0000
07f0
2410
2410
2410
27f0
2000
2000
3ff8
0008
0008
ffff
0000
0810
1818
700e
ENDCHAR
STARTCHAR ch-74
ENCODING 74
SWIDTH 1000 0
DWIDTH 16 0
BBX 16 16 0 -2
BITMAP
0100
1100
1100
3ffc
2100
6100
0100
ffff
0000
0000
1ff8
1008
1008
1008
1008
1ff8
ENDCHAR
STARTCHAR ch-78
ENCODING 78
SWIDTH 1000 0
DWIDTH 16 0
BBX 16 16 0 -2
BITMAP
0000
01fe
f902
8902
8902
8902
89fe
8910
8910
8910
f918
0108
030c
0204
0606
0c03
ENDCHAR
STARTCHAR ch-81
ENCODING 81
SWIDTH 1000 0
DWIDTH 16 0
BBX 16 16 0 -2
BITMAP
0018
00f0
3f80
0200
0200
ffff
0420
0c30
1818
300c
ffff
1008
1008
1008
1008
1ff8
ENDCHAR
STARTCHAR ch-95
ENCODING 95
SWIDTH 1000 0
DWIDTH 16 0
BBX 16 16 0 -2
BITMAP
0020
0020
f820
8fff
8840
88c0
8988
8b18
8990
88b0
8860
f840
00c4
0184
013e
07e3
ENDCHAR
STARTCHAR ch-104
ENCODING 104
SWIDTH 1000 0
DWIDTH 16 0
BBX 16 16 0 -2
BITMAP
0000
3ffe
2002
2082
27f2
2082
2082
2ffa
2002
27f2
2412
2412
2412
67f2
4002
c00e
ENDCHAR
STARTCHAR ch-106
ENCODING 106
SWIDTH 1000 0
DWIDTH 16 0
BBX 16 16 0 -2
BITMAP
0000
01fe
f902
8902
8902
8902
8902
89fe
8848
8848
f848
00c8
0088
0189
0309
0e07
ENDCHAR
STARTCHAR ch-112
ENCODING 112
SWIDTH 1000 0
DWIDTH 16 0
BBX 16 16 0 -2
BITMAP
0840
0842
484e
4f78
4840
4840
4841
4f63
783e
c000
1ff8
1008
1008
1008
1008
1ff8
ENDCHAR
STARTCHAR ch-113
ENCODING 113
SWIDTH 1000 0
DWIDTH 16 0
BBX 16 16 0 -2
BITMAP
000c
0078
f3c8
9208
9248
9248
9248
9248
9248
9248
924c
f244
0644
0456
0c7a
19cb
ENDCHAR
STARTCHAR ch-115
ENCODING 115
SWIDTH 1000 0
DWIDTH 16 0
BBX 16 16 0 -2
BITMAP
0020
0020
f820
8bfe
8820
8820
8820
8fff
88a8
88a8
89ac
f924
0326
0623
0020
0020
ENDCHAR
STARTCHAR ch-117
ENCODING 117
SWIDTH 1000 0
DWIDTH 16 0
BBX 16 16 0 -2
BITMAP
0000
f7ff
9004
9004
91e4
9124
9124
9124
9124
9124
91e4
f004
0004
0004
0004
001c
ENDCHAR
STARTCHAR ch-118
ENCODING 118
SWIDTH 1000 0
DWIDTH 16 0
BBX 16 16 0 -2
BITMAP
0200
023e
f212
9fd2
9252
9252
9256
9654
94d4
9c9c
9688
f388
011c
0394
06b6
0c63
ENDCHAR
STARTCHAR ch-119
ENCODING 119
SWIDTH 1000 0
DWIDTH 16 0
BBX 16 16 0 -2
BITMAP
0000
03fe
f222
9222
9222
93fe
9222
9222
9222
9222
f3fe
0020
0020
0020
0020
0020
ENDCHAR
STARTCHAR ch-123
ENCODING 123
SWIDTH 1000 0
DWIDTH 16 0
BBX 16 16 0 -2
BITMAP
0020
0020
f3fe
9222
9222
9222
93fe
9222
9222
9222
f222
03fe
0020
0020
0020
0020
ENDCHAR
STARTCHAR ch-124
ENCODING 124
SWIDTH 1000 0
DWIDTH 16 0
BBX 16 16 0 -2
BITMAP
0006
003c
fbe0
8822
8a26
8b24
8924
8820
8fff
8820
8820
f820
0020
0020
0020
00e0
ENDCHAR
STARTCHAR ch-125
ENCODING 125
SWIDTH 1000 0
DWIDTH 16 0
BBX 16 16 0 -2
BITMAP
0100
0380
06c0
0c70
381c
e7e7
0000
0000
3e7c
2244
2244
2244
2244
3e5c
0040
0040
ENDCHAR
STARTCHAR ch-128
ENCODING 128
SWIDTH 1000 0
DWIDTH 16 0
BBX 16 16 0 -2
BITMAP
0000
01fc
f904
8904
8904
89fc
8904
8904
8904
89fc
f904
0104
0104
0104
07ff
0000
ENDCHAR
STARTCHAR ch-132
ENCODING 132
SWIDTH 1000 0
DWIDTH 16 0
BBX 16 16 0 -2
BITMAP
0020
0222
f222
9222
9222
9222
93fe
9020
9020
9222
9222
f222
0222
0222
03fe
0000
ENDCHAR
STARTCHAR ch-134
ENCODING 134
SWIDTH 1000 0
DWIDTH 16 0
BBX 16 16 0 -2
BITMAP
0100
0100
f1fe
9302
9602
91f2
9012
9012
9012
91f6
9104
f11c
0100
0101
0183
00fe
ENDCHAR
STARTCHAR ch-139
ENCODING 139
SWIDTH 1000 0
DWIDTH 16 0
BBX 16 16 0 -2
BITMAP
0080
0080
f880
89ff
8920
8b20
8e20
883e
8820
8820
8820
f83e
0020
0020
0020
0020
ENDCHAR
STARTCHAR ch-140
ENCODING 140
SWIDTH 1000 0
DWIDTH 16 0
BBX 16 16 0 -2
BITMAP
0300
0e00
f87e
0842
0842
ff42
0842
1c42
1a42
2942
6842
c842
0842
087e
0800
0800
ENDCHAR
STARTCHAR ch-142
ENCODING 142
SWIDTH 1000 0
DWIDTH 16 0
BBX 16 16 0 -2
BITMAP
2010
3e10
2210
6638
c42c
2c66
18c3
3600
63c0
c07f
0000
3ffc
2004
2004
2004
3ffc
ENDCHAR
STARTCHAR ch-143
ENCODING 143
SWIDTH 1000 0
DWIDTH 16 0
BBX 16 16 0 -2
BITMAP
00c0
0060
0020
f000
93e0
9022
9026
97a4
90b0
91b0
9128
f32c
0626
0c23
0020
00e0
ENDCHAR
STARTCHAR ch-144
ENCODING 144
SWIDTH 1000 0
DWIDTH 16 0
BBX 16 16 0 -2
BITMAP
0104
0104
f104
9304
92ff
9204
9604
9a64
9234
9214
9204
f204
0204
0204
0204
021c
ENDCHAR
STARTCHAR ch-146
ENCODING 146
SWIDTH 1000 0
DWIDTH 16 0
BBX 16 16 0 -2
BITMAP
0000
7e7e
4242
4242
4242
7e7e
0000
0fe0
0820
0820
0820
0820
1820
1021
3033
e01e
ENDCHAR
STARTCHAR ch-162
ENCODING 162
SWIDTH 1000 0
DWIDTH 16 0
BBX 16 16 0 -2
BITMAP
0000
7e7e
4242
4242
7e7e
0000
3ffc
0000
ffff
0200
0400
0ff8
0008
0018
0030
00e0
ENDCHAR
STARTCHAR ch-164
ENCODING 164
SWIDTH 1000 0
DWIDTH 16 0
BBX 16 16 0 -2
BITMAP
0020
0020
f7ff
9401
940d
9078
93c0
9040
9040
97ff
9040
f040
0040
0041
0063
003e
ENDCHAR
STARTCHAR ch-165
ENCODING 165
SWIDTH 1000 0
DWIDTH 16 0
BBX 16 16 0 -2
BITMAP
0000
07ff
f880
8884
8984
893e
8be3
8800
8820
8820
fbfe
0020
0020
0020
07ff
0000
ENDCHAR
STARTCHAR ch-168
ENCODING 168
SWIDTH 1000 0
DWIDTH 16 0
BBX 16 16 0 -2
BITMAP
0100
6100
33fe
1242
06e4
00b0
1998
730c
c607
0000
1ff8
1008
1008
1008
1008
1ff8
ENDCHAR
STARTCHAR ch-171
ENCODING 171
SWIDTH 1000 0
DWIDTH 16 0
BBX 16 16 0 -2
BITMAP
0000
7e7e
4242
4242
4242
4242
4242
7e7e
4800
4824
4c24
4466
46c3
4300
c1c0
807f
ENDCHAR
STARTCHAR ch-172
ENCODING 172
SWIDTH 1000 0
DWIDTH 16 0
BBX 16 16 0 -2
BITMAP
0020
0020
f020
97ff
9088
918c
9306
9088
9088
90d8
9070
f020
0070
00d8
018c
0707
ENDCHAR
STARTCHAR ch-175
ENCODING 175
SWIDTH 1000 0
DWIDTH 16 0
BBX 16 16 0 -2
BITMAP
0080
0080
79fc
4904
4b8c
4ed8
4870
49dc
4f07
4800
49fc
7904
0104
0104
0104
01fc
ENDCHAR
STARTCHAR ch-178
ENCODING 178
SWIDTH 1000 0
DWIDTH 16 0
BBX 16 16 0 -2
BITMAP
0202
0306
018c
f888
8bfe
8820
8820
8820
8fff
8850
8850
f8d8
0088
018c
0306
0603
ENDCHAR
STARTCHAR ch-179
ENCODING 179
SWIDTH 1000 0
DWIDTH 16 0
BBX 16 16 0 -2
BITMAP
0020
0020
f820
8fff
8840
88c8
8998
8b12
89b6
8864
88cc
f998
0730
006c
01c6
0f03
ENDCHAR
STARTCHAR ch-184
ENCODING 184
SWIDTH 1000 0
DWIDTH 16 0
BBX 16 16 0 -2
BITMAP
0024
0026
0022
3fff
2020
2020
2fa2
2032
2016
2f94
289c
2888
2f9c
6035
4067
c0c2
ENDCHAR
STARTCHAR ch-188
ENCODING 188
SWIDTH 1000 0
DWIDTH 16 0
BBX 16 16 0 -2
BITMAP
0000
1ff8
1008
11f8
1108
1108
1108
7ffe
4002
47e2
4422
4422
4422
47e2
4002
400e
ENDCHAR
STARTCHAR ch-189
ENCODING 189
SWIDTH 1000 0
DWIDTH 16 0
BBX 16 16 0 -2
BITMAP
0000
03fe
f202
9222
9222
92fa
9222
9222
9272
9252
f252
028a
0202
0202
03fe
0000
ENDCHAR
STARTCHAR ch-190
ENCODING 190
SWIDTH 1000 0
DWIDTH 16 0
BBX 16 16 0 -2
BITMAP
0042
0042
fbfe
8844
884c
8848
8fff
8820
8860
88c6
89fc
fb40
0640
0041
0063
003e
ENDCHAR
STARTCHAR ch-192
ENCODING 192
SWIDTH 1000 0
DWIDTH 16 0
BBX 16 16 0 -2
BITMAP
0100
0100
ffff
0000
1ff8
1008
1008
1008
1ff8
0642
0c66
382c
e830
0818
0f8c
7807
ENDCHAR
STARTCHAR ch-193
ENCODING 193
SWIDTH 1000 0
DWIDTH 16 0
BBX 16 16 0 -2
BITMAP
0000
0ff0
0810
0810
0810
0810
0ff0
0000
7e7e
4242
4242
4242
4242
4242
7e7e
0000
ENDCHAR
STARTCHAR ch-194
ENCODING 194
SWIDTH 1000 0
DWIDTH 16 0
BBX 16 16 0 -2
BITMAP
0000
0fff
f090
9090
9090
97fe
9492
9492
9492
9592
971e
f402
0402
0402
07fe
0000
ENDCHAR
STARTCHAR ch-196
ENCODING 196
SWIDTH 1000 0
DWIDTH 16 0
BBX 16 16 0 -2
BITMAP
0088
0088
f888
8bfe
8888
8888
8888
8888
8888
8fff
8800
f800
0088
018c
0306
0603
ENDCHAR
STARTCHAR ch-199
ENCODING 199
SWIDTH 1000 0
DWIDTH 16 0
BBX 16 16 0 -2
BITMAP
0020
0020
f9fc
8820
8820
8820
8bfe
8800
8820
8820
fbfe
0020
0020
0020
07ff
0000
ENDCHAR
STARTCHAR ch-200
ENCODING 200
SWIDTH 1000 0
DWIDTH 16 0
BBX 16 16 0 -2
BITMAP
0020
0070
f850
88d8
898c
8f07
8800
89fc
8800
8800
89fc
f904
0104
0104
0104
01fc
ENDCHAR
STARTCHAR ch-201
ENCODING 201
SWIDTH 1000 0
DWIDTH 16 0
BBX 16 16 0 -2
BITMAP
0820
0824
7f26
0822
0820
ffff
0020
0022
7f32
4116
4114
411c
4108
7f1d
0077
03c2
ENDCHAR
STARTCHAR ch-216
ENCODING 216
SWIDTH 1000 0
DWIDTH 16 0
BBX 16 16 0 -2
BITMAP
0080
009e
f100
9200
9480
9080
913f
9304
9504
9104
9104
f104
0104
0104
0104
011c
ENDCHAR
STARTCHAR ch-225
ENCODING 225
SWIDTH 1000 0
DWIDTH 16 0
BBX 16 16 0 -2
BITMAP
0000
1ff8
1008
1008
1ff8
0000
3ffc
2004
3ffc
2004
3ffc
2004
3ffc
0000
1818
700e
ENDCHAR
STARTCHAR ch-226
ENCODING 226
SWIDTH 1000 0
DWIDTH 16 0
BBX 16 16 0 -2
BITMAP
0000
03fe
f020
91fc
9020
9020
97ff
9000
9088
9088
97ff
f088
0188
0108
0308
0608
ENDCHAR
STARTCHAR ch-229
ENCODING 229
SWIDTH 1000 0
DWIDTH 16 0
BBX 16 16 0 -2
BITMAP
0000
ffff
0008
1f88
1088
1088
1fb8
0000
ffff
0008
1f88
1088
1088
1f88
0008
0038
ENDCHAR
STARTCHAR ch-230
ENCODING 230
SWIDTH 1000 0
DWIDTH 16 0
BBX 16 16 0 -2
BITMAP
0054
01d6
f712
9110
9110
9fff
9110
9112
9112
91d6
9714
f11c
0108
011d
0137
0762
ENDCHAR
STARTCHAR ch-232
ENCODING 232
SWIDTH 1000 0
DWIDTH 16 0
BBX 16 16 0 -2
BITMAP
0222
0326
f124
9124
9020
93fe
9202
9202
93fe
9202
9202
f3fe
0202
0202
0202
020e
ENDCHAR
STARTCHAR ch-233
ENCODING 233
SWIDTH 1000 0
DWIDTH 16 0
BBX 16 16 0 -2
BITMAP
0000
03fe
fa22
8a22
8bfe
8a22
8a22
8bfe
8820
8820
fbfe
0020
0020
0020
07ff
0000
ENDCHAR
STARTCHAR ch-237
ENCODING 237
SWIDTH 1000 0
DWIDTH 16 0
BBX 16 16 0 -2
BITMAP
0000
7e7e
4242
4242
4242
4242
7e7e
0000
0108
0104
ffff
0240
0660
0c30
381c
e007
ENDCHAR
STARTCHAR ch-238
ENCODING 238
SWIDTH 1000 0
DWIDTH 16 0
BBX 16 16 0 -2
BITMAP
0042
0042
f3fe
9044
9048
97ff
9020
93fc
9088
9310
9c20
f3ff
0020
0020
0020
00e0
ENDCHAR
STARTCHAR ch-242
ENCODING 242
SWIDTH 1000 0
DWIDTH 16 0
BBX 16 16 0 -2
BITMAP
1006
10fc
fe80
1080
10ff
1c88
f088
1188
1308
3008
0000
3ffc
2004
2004
2004
3ffc
ENDCHAR
STARTCHAR ch-250
ENCODING 250
SWIDTH 1000 0
DWIDTH 16 0
BBX 16 16 0 -2
BITMAP
0024
0022
f7ff
9020
9020
93fe
9222
9222
93fe
9222
9222
f3fe
0222
0222
0222
0226
ENDCHAR
STARTCHAR ch-253
ENCODING 253
SWIDTH 1000 0
DWIDTH 16 0
BBX 16 16 0 -2
BITMAP
0000
07ff
f020
93fe
9222
9222
93fe
9222
9222
93fe
f020
0260
0140
00e0
01b8
070f
ENDCHAR
STARTCHAR ch-260
ENCODING 260
SWIDTH 1000 0
DWIDTH 16 0
BBX 16 16 0 -2
BITMAP
0000
01fe
f902
8902
89fe
8902
8902
8902
89fe
8902
8902
f902
01fe
0084
0186
0303
ENDCHAR
STARTCHAR ch-262
ENCODING 262
SWIDTH 1000 0
DWIDTH 16 0
BBX 16 16 0 -2
BITMAP
0080
0184
f104
93fe
9092
9190
931f
9680
90fc
9184
f30c
06d8
0070
00d8
018c
0707
ENDCHAR
STARTCHAR ch-263
ENCODING 263
SWIDTH 1000 0
DWIDTH 16 0
BBX 16 16 0 -2
BITMAP
0000
3ffe
2000
2ffc
2000
3fff
2444
2468
6430
479c
dc07
0000
3ffc
2004
2004
3ffc
ENDCHAR
STARTCHAR ch-271
ENCODING 271
SWIDTH 1000 0
DWIDTH 16 0
BBX 16 16 0 -2
BITMAP
0304
01cc
f078
91cc
9706
9040
9fff
9080
9120
93fe
9e22
f222
0222
0222
0226
0020
ENDCHAR
STARTCHAR ch-272
ENCODING 272
SWIDTH 1000 0
DWIDTH 16 0
BBX 16 16 0 -2
BITMAP
0080
0080
3fff
2040
27fc
2044
3fff
2044
2044
27fc
2000
27fc
6404
4404
c404
07fc
ENDCHAR
STARTCHAR ch-276
ENCODING 276
SWIDTH 1000 0
DWIDTH 16 0
BBX 16 16 0 -2
BITMAP
0000
03fe
f840
8840
8bfc
8884
8884
8884
8fff
8800
89fe
f902
0102
0102
0102
01fe
ENDCHAR
STARTCHAR ch-278
ENCODING 278
SWIDTH 1000 0
DWIDTH 16 0
BBX 16 16 0 -2
BITMAP
0000
0fff
f090
9090
9090
97fe
9492
9492
9492
97fe
9090
f090
0090
0090
0fff
0000
ENDCHAR
STARTCHAR ch-302
ENCODING 302
SWIDTH 1000 0
DWIDTH 16 0
BBX 16 16 0 -2
BITMAP
0820
1040
3ffe
6080
bffc
2080
3ffc
2080
2080
3fff
0000
1ff8
1008
1008
1008
1ff8
ENDCHAR
STARTCHAR ch-303
ENCODING 303
SWIDTH 1000 0
DWIDTH 16 0
BBX 16 16 0 -2
BITMAP
0044
00cc
7888
49ff
4b10
4d10
4910
49fe
4910
4910
4910
79fe
0110
0110
0110
01ff
ENDCHAR
STARTCHAR ch-305
ENCODING 305
SWIDTH 1000 0
DWIDTH 16 0
BBX 16 16 0 -2
BITMAP
0000
01fe
f902
8902
89fe
8902
8902
89fe
8800
8bff
fa01
0201
03ff
0201
0201
03ff
ENDCHAR
STARTCHAR ch-307
ENCODING 307
SWIDTH 1000 0
DWIDTH 16 0
BBX 16 16 0 -2
BITMAP
0000
07ff
f000
93fe
9202
9202
93fe
9220
9220
93ff
9220
f670
0450
0cd8
018c
0707
ENDCHAR
STARTCHAR ch-312
ENCODING 312
SWIDTH 1000 0
DWIDTH 16 0
BBX 16 16 0 -2
BITMAP
0020
0070
f8d8
898c
8f07
88f8
8800
8bfe
8804
8808
f820
0030
0292
0283
0685
047c
ENDCHAR
STARTCHAR ch-313
ENCODING 313
SWIDTH 1000 0
DWIDTH 16 0
BBX 16 16 0 -2
BITMAP
0208
0208
f21c
9fd4
9236
9222
93e3
9240
9258
924c
9244
f640
04d8
048c
0c86
1982
ENDCHAR
STARTCHAR ch-318
ENCODING 318
SWIDTH 1000 0
DWIDTH 16 0
BBX 16 16 0 -2
BITMAP
000c
0038
f3e0
9020
93fe
9124
9124
9124
97ff
9124
9124
f124
03fe
0020
0020
07ff
ENDCHAR
STARTCHAR ch-320
ENCODING 320
SWIDTH 1000 0
DWIDTH 16 0
BBX 16 16 0 -2
BITMAP
0000
03ff
f200
9210
92fe
9210
9210
93ff
9200
9210
f210
06fe
0410
0c10
1810
01ff
ENDCHAR
STARTCHAR ch-324
ENCODING 324
SWIDTH 1000 0
DWIDTH 16 0
BBX 16 16 0 -2
BITMAP
0000
0fff
f080
9180
9342
9e46
90ec
91a8
9330
9e70
f0b8
01a8
032c
0626
1c63
01c0
ENDCHAR
STARTCHAR ch-325
ENCODING 325
SWIDTH 1000 0
DWIDTH 16 0
BBX 16 16 0 -2
BITMAP
0020
0020
783e
4820
49fc
4904
4904
49fc
4904
4904
49fc
7820
07ff
0020
0020
0020
ENDCHAR
STARTCHAR ch-326
ENCODING 326
SWIDTH 1000 0
DWIDTH 16 0
BBX 16 16 0 -2
BITMAP
0100
0100
ffff
0810
0420
7ffe
4442
4442
487e
7002
47e2
4422
4422
47e2
4002
400e
ENDCHAR
STARTCHAR ch-332
ENCODING 332
SWIDTH 1000 0
DWIDTH 16 0
BBX 16 16 0 -2
BITMAP
0040
0040
f7fe
9492
9492
9090
9190
931e
9000
9000
f3fc
0040
0040
0040
07fe
0000
ENDCHAR
STARTCHAR ch-335
ENCODING 335
SWIDTH 1000 0
DWIDTH 16 0
BBX 16 16 0 -2
BITMAP
0000
7e7e
4242
7e7e
4242
7e7e
4002
4002
47e2
4422
4422
4422
47e2
4002
4002
400e
ENDCHAR
STARTCHAR ch-339
ENCODING 339
SWIDTH 1000 0
DWIDTH 16 0
BBX 16 16 0 -2
BITMAP
0020
ff20
007f
7e44
42cc
4228
7e38
406c
40c6
c003
9ff8
1008
1008
1008
1008
1ff8
ENDCHAR
STARTCHAR ch-342
ENCODING 342
SWIDTH 1000 0
DWIDTH 16 0
BBX 16 16 0 -2
BITMAP
0020
0122
7926
4b74
4a50
48d8
498c
4b07
4820
4922
4926
7b74
0250
00d8
018c
0707
ENDCHAR
STARTCHAR ch-343
ENCODING 343
SWIDTH 1000 0
DWIDTH 16 0
BBX 16 16 0 -2
BITMAP
0080
00fc
f184
910c
9308
9638
9000
90c0
939e
9202
9202
f3de
0202
0202
0202
03fe
ENDCHAR
STARTCHAR ch-348
ENCODING 348
SWIDTH 1000 0
DWIDTH 16 0
BBX 16 16 0 -2
BITMAP
0000
07be
f082
9294
9108
9294
9422
9000
97be
9082
9492
f314
0108
0288
0494
0823
ENDCHAR
STARTCHAR ch-349
ENCODING 349
SWIDTH 1000 0
DWIDTH 16 0
BBX 16 16 0 -2
BITMAP
0040
01c0
f71f
9111
9111
9ff1
9111
9111
9391
9351
9751
f511
0d11
191f
0100
0100
ENDCHAR
STARTCHAR ch-355
ENCODING 355
SWIDTH 1000 0
DWIDTH 16 0
BBX 16 16 0 -2
BITMAP
0200
021f
f7f1
9d11
9111
9ff1
9111
9111
95d1
9511
9511
f511
05d7
0710
0c10
0010
ENDCHAR
STARTCHAR ch-379
ENCODING 379
SWIDTH 1000 0
DWIDTH 16 0
BBX 16 16 0 -2
BITMAP
0100
0100
7ffe
0810
0420
7ffe
4102
5ffa
1108
1108
1118
0100
1ff8
1008
1008
1ff8
ENDCHAR
STARTCHAR ch-380
ENCODING 380
SWIDTH 1000 0
DWIDTH 16 0
BBX 16 16 0 -2
BITMAP
0020
0020
f7ff
9104
918c
9088
97ff
9421
9421
93fe
9222
f222
0222
0226
0020
0020
ENDCHAR
STARTCHAR ch-382
ENCODING 382
SWIDTH 1000 0
DWIDTH 16 0
BBX 16 16 0 -2
BITMAP
0048
01c8
f709
9129
912b
97ea
912a
9108
9388
935c
f314
0514
0514
0936
0122
0163
ENDCHAR
STARTCHAR ch-384
ENCODING 384
SWIDTH 1000 0
DWIDTH 16 0
BBX 16 16 0 -2
BITMAP
0020
0020
7bfe
4a02
4a82
48fc
4984
4b58
4870
49dc
4f07
79fc
0104
0104
0104
01fc
ENDCHAR
STARTCHAR ch-387
ENCODING 387
SWIDTH 1000 0
DWIDTH 16 0
BBX 16 16 0 -2
BITMAP
0020
0020
07ff
7820
4820
4bfe
4a8a
4a52
4afa
4a22
4a22
7afa
0222
0222
0222
0226
ENDCHAR
STARTCHAR ch-388
ENCODING 388
SWIDTH 1000 0
DWIDTH 16 0
BBX 16 16 0 -2
BITMAP
0810
0420
7ffe
0100
3ffc
0100
7ffe
1108
0910
ffff
0000
1ff8
1008
1008
1008
1ff8
ENDCHAR
STARTCHAR ch-391
ENCODING 391
SWIDTH 1000 0
DWIDTH 16 0
BBX 16 16 0 -2
BITMAP
0102
f112
9ff2
9112
97d2
9552
9552
9552
97d2
9112
9312
f382
0542
0d22
1902
010e
ENDCHAR
STARTCHAR ch-393
ENCODING 393
SWIDTH 1000 0
DWIDTH 16 0
BBX 16 16 0 -2
BITMAP
0200
02fc
f204
9204
95ff
9400
9c80
94fe
9510
9410
95ff
f428
046c
0444
04c6
0583
ENDCHAR
STARTCHAR ch-394
ENCODING 394
SWIDTH 1000 0
DWIDTH 16 0
BBX 16 16 0 -2
BITMAP
0014
0012
f012
97ff
9410
95d2
9412
95d6
9554
955c
9548
f5c8
041d
0c35
0867
18c2
ENDCHAR
STARTCHAR ch-395
ENCODING 395
SWIDTH 1000 0
DWIDTH 16 0
BBX 16 16 0 -2
BITMAP
0124
0124
f7ff
9124
9124
913c
9100
91fe
9020
97ff
f0a8
00a8
01ac
0326
0623
0020
ENDCHAR
STARTCHAR ch-408
ENCODING 408
SWIDTH 1000 0
DWIDTH 16 0
BBX 16 16 0 -2
BITMAP
0020
0222
7a22
4a22
4bfe
4800
4fff
4820
4840
4bfe
4a92
7a92
0292
0292
0292
0296
ENDCHAR
STARTCHAR ch-409
ENCODING 409
SWIDTH 1000 0
DWIDTH 16 0
BBX 16 16 0 -2
BITMAP
0000
03f8
f008
93f8
9008
9fff
9080
9142
9666
90ac
9130
f668
00ac
0326
0c23
00c0
ENDCHAR
STARTCHAR ch-410
ENCODING 410
SWIDTH 1000 0
DWIDTH 16 0
BBX 16 16 0 -2
BITMAP
0100
01f8
f308
9210
97fe
9252
9252
9252
929e
9302
9222
f7ff
0050
00d8
018c
0707
ENDCHAR
STARTCHAR ch-412
ENCODING 412
SWIDTH 1000 0
DWIDTH 16 0
BBX 16 16 0 -2
BITMAP
0100
7ffe
0100
3ffc
0000
1ff8
1008
1ff8
0810
0420
ffff
0000
1ff8
1008
1008
1ff8
ENDCHAR
STARTCHAR ch-413
ENCODING 413
SWIDTH 1000 0
DWIDTH 16 0
BBX 16 16 0 -2
BITMAP
03fc
0204
f204
93fc
9204
9204
93fc
9100
91ff
9301
f631
0fe1
0201
0213
01f2
000e
ENDCHAR
STARTCHAR ch-414
ENCODING 414
SWIDTH 1000 0
DWIDTH 16 0
BBX 16 16 0 -2
BITMAP
0000
07df
f451
9451
97d1
9451
9451
9451
97d1
9411
9411
f491
0497
05d0
0750
0c10
ENDCHAR
STARTCHAR ch-415
ENCODING 415
SWIDTH 1000 0
DWIDTH 16 0
BBX 16 16 0 -2
BITMAP
0000
03ff
fa21
8bff
8a21
8a21
8bff
8800
89fe
8902
f9fe
0102
01fe
0102
0102
010e
ENDCHAR
STARTCHAR ch-423
ENCODING 423
SWIDTH 1000 0
DWIDTH 16 0
BBX 16 16 0 -2
BITMAP
0020
0020
f7ff
9401
9401
91fc
9000
91fc
9104
9104
91fc
f104
0104
01fc
0000
07ff
ENDCHAR
STARTCHAR ch-424
ENCODING 424
SWIDTH 1000 0
DWIDTH 16 0
BBX 16 16 0 -2
BITMAP
0020
0020
f7ff
9000
91fc
9104
91fc
9000
97ff
9401
9489
f088
0088
0189
0309
0e07
ENDCHAR
STARTCHAR ch-425
ENCODING 425
SWIDTH 1000 0
DWIDTH 16 0
BBX 16 16 0 -2
BITMAP
0020
0070
78d8
498c
4f77
4800
4bc2
4a52
4a52
4bd2
4a52
7a52
03c2
0242
0242
02ce
ENDCHAR
STARTCHAR ch-426
ENCODING 426
SWIDTH 1000 0
DWIDTH 16 0
BBX 16 16 0 -2
BITMAP
0100
0100
ffff
0100
7d7c
4544
4544
7d7c
0100
ffff
1084
10cc
1058
1060
1e38
700f
ENDCHAR
STARTCHAR ch-427
ENCODING 427
SWIDTH 1000 0
DWIDTH 16 0
BBX 16 16 0 -2
BITMAP
0200
0fbe
e212
a212
af92
a212
a232
a3a2
ae6e
a000
e080
1fff
0110
0318
060c
1c07
ENDCHAR
STARTCHAR ch-428
ENCODING 428
SWIDTH 1000 0
DWIDTH 16 0
BBX 16 16 0 -2
BITMAP
0078
3fc0
0200
ffff
0420
0ff0
342c
c7e3
0000
7ffe
4002
4ff2
4812
4ff2
4002
400e
ENDCHAR
STARTCHAR ch-430
ENCODING 430
SWIDTH 1000 0
DWIDTH 16 0
BBX 16 16 0 -2
BITMAP
3e7c
2244
3e7c
0000
1ff8
1108
1108
1ff8
1108
1108
1ff8
0100
ffff
0100
0100
0100
ENDCHAR
STARTCHAR ch-432
ENCODING 432
SWIDTH 1000 0
DWIDTH 16 0
BBX 16 16 0 -2
BITMAP
0020
0070
f8d8
898c
8f27
89fc
8904
89fc
8904
89fd
8923
f936
0118
010c
01e6
0703
ENDCHAR
STARTCHAR ch-438
ENCODING 438
SWIDTH 1000 0
DWIDTH 16 0
BBX 16 16 0 -2
BITMAP
2204
330c
1108
ffff
8001
9ff9
1008
1008
1ff8
0100
0200
3ffc
2004
2004
2004
3ffc
ENDCHAR
STARTCHAR ch-452
ENCODING 452
SWIDTH 1000 0
DWIDTH 16 0
BBX 16 16 0 -2
BITMAP
0000
0fff
f040
93fc
9204
93fc
9204
93fc
9204
93fc
f100
03fc
0e08
0110
00e0
0f1f
ENDCHAR
STARTCHAR ch-453
ENCODING 453
SWIDTH 1000 0
DWIDTH 16 0
BBX 16 16 0 -2
BITMAP
0020
0040
79fc
4904
49fc
4904
49fc
4904
49fc
4820
7820
07ff
0050
00d8
018c
0707
ENDCHAR
STARTCHAR ch-455
ENCODING 455
SWIDTH 1000 0
DWIDTH 16 0
BBX 16 16 0 -2
BITMAP
0100
0100
7ffe
1108
391c
6d36
0100
ffff
0000
3ffc
2004
27e4
2424
27e4
2004
3ffc
ENDCHAR
STARTCHAR ch-468
ENCODING 468
SWIDTH 1000 0
DWIDTH 16 0
BBX 16 16 0 -2
BITMAP
0020
0020
07ff
7820
49fc
4904
49fc
4904
49fc
4904
79fc
0000
07ff
0088
018c
0707
ENDCHAR
STARTCHAR ch-474
ENCODING 474
SWIDTH 1000 0
DWIDTH 16 0
BBX 16 16 0 -2
BITMAP
0010
0020
79fc
4904
4904
4904
49fc
4900
49ff
4900
79fe
0002
0552
0d52
0806
000c
ENDCHAR
STARTCHAR ch-476
ENCODING 476
SWIDTH 1000 0
DWIDTH 16 0
BBX 16 16 0 -2
BITMAP
0042
0046
fbfc
8848
8fff
8860
8986
8efc
8881
88ff
f800
01fe
0102
01fe
0102
01fe
ENDCHAR
STARTCHAR ch-479
ENCODING 479
SWIDTH 1000 0
DWIDTH 16 0
BBX 16 16 0 -2
BITMAP
0104
0088
7bfe
4820
4820
49fc
4820
4820
4bfe
4840
7880
01fe
0310
0c10
0010
01ff
ENDCHAR
STARTCHAR ch-483
ENCODING 483
SWIDTH 1000 0
DWIDTH 16 0
BBX 16 16 0 -2
BITMAP
0000
7efe
4202
4202
7e7a
0002
ff02
a97a
a94a
a94a
ff4a
a97a
a902
a902
a902
ab0e
ENDCHAR
STARTCHAR ch-484
ENCODING 484
SWIDTH 1000 0
DWIDTH 16 0
BBX 16 16 0 -2
BITMAP
0020
0222
7a22
4bfe
4840
4880
4fff
4820
4bfe
4a22
7a22
03fe
0020
0022
00ff
0781
ENDCHAR
STARTCHAR ch-503
ENCODING 503
SWIDTH 1000 0
DWIDTH 16 0
BBX 16 16 0 -2
BITMAP
0108
0108
f7c8
910f
911a
97d2
9132
910a
9fea
920e
93c4
f244
024e
064a
045b
0dd1
ENDCHAR
STARTCHAR ch-505
ENCODING 505
SWIDTH 1000 0
DWIDTH 16 0
BBX 16 16 0 -2
BITMAP
0010
0410
f7ff
9210
90fe
9092
9092
9efe
9292
9292
92fe
f210
03ff
0610
0510
0cff
ENDCHAR
STARTCHAR ch-509
ENCODING 509
SWIDTH 1000 0
DWIDTH 16 0
BBX 16 16 0 -2
BITMAP
0210
0210
ffd0
a21f
af91
aaaa
aa88
aa88
af88
a208
a71c
e694
0a94
1236
0222
0263
ENDCHAR
STARTCHAR ch-510
ENCODING 510
SWIDTH 1000 0
DWIDTH 16 0
BBX 16 16 0 -2
BITMAP
0210
0210
f210
9fbf
9460
9410
979e
94a8
9488
94ff
9488
f488
049c
0c94
08b6
1ba3
ENDCHAR
ENDFONT
