STARTFONT 2.1
FONT jis.jis8c00.16
SIZE 16 72 72
FONTBOUNDINGBOX 16 16 0 -2
STARTPROPERTIES 4
FONT_DESCENT 2
FONT_ASCENT 14
DEFAULT_CHAR 55
COPYRIGHT "Copyright (c) 1992 AT&T - All rights reserved."
ENDPROPERTIES
CHARS 132
STARTCHAR ch-55
ENCODING 55
SWIDTH 1000 0
DWIDTH 16 0
BBX 16 16 0 -2
BITMAP
0420
0c30
1818
710e
0380
06c0
0c70
381c
e007
0000
1ff8
1008
1008
1008
1008
1ff8
ENDCHAR
STARTCHAR ch-58
ENCODING 58
SWIDTH 1000 0
DWIDTH 16 0
BBX 16 16 0 -2
BITMAP
2400
247e
6624
c324
1024
3824
2c24
66ff
c314
0014
7e34
4224
4264
42c4
4204
7e1c
ENDCHAR
STARTCHAR ch-63
ENCODING 63
SWIDTH 1000 0
DWIDTH 16 0
BBX 16 16 0 -2
BITMAP
0624
7c24
9166
4ac3
0010
2038
442c
2866
12c3
ff00
017e
1042
ff42
1442
3642
e37e
ENDCHAR
STARTCHAR ch-65
ENCODING 65
SWIDTH 1000 0
DWIDTH 16 0
BBX 16 16 0 -2
BITMAP
1024
1024
ff66
81c3
9110
7e38
102c
7e66
10c3
ff00
007e
7e42
4242
4242
4242
7e7e
ENDCHAR
STARTCHAR ch-70
ENCODING 70
SWIDTH 1000 0
DWIDTH 16 0
BBX 16 16 0 -2
BITMAP
0000
7ffe
0000
0000
1ff8
1008
1008
1008
1ff8
0000
0810
0c10
0430
0020
ffff
0000
ENDCHAR
STARTCHAR ch-72
ENCODING 72
SWIDTH 1000 0
DWIDTH 16 0
BBX 16 16 0 -2
BITMAP
0100
2104
2104
3ffc
0000
ffff
0000
1ff8
1008
1008
1ff8
0810
0c30
0420
ffff
0000
ENDCHAR
STARTCHAR ch-74
ENCODING 74
SWIDTH 1000 0
DWIDTH 16 0
BBX 16 16 0 -2
BITMAP
0440
3ffc
2444
3ffc
2444
3ffc
0000
ffff
0000
1ff8
1008
1ff8
0810
0420
ffff
0000
ENDCHAR
STARTCHAR ch-76
ENCODING 76
SWIDTH 1000 0
DWIDTH 16 0
BBX 16 16 0 -2
BITMAP
0010
fe10
01ff
7d01
4501
4480
44ef
7ca9
01a9
4529
44eb
6c48
28c8
3c89
e189
0307
ENDCHAR
STARTCHAR ch-78
ENCODING 78
SWIDTH 1000 0
DWIDTH 16 0
BBX 16 16 0 -2
BITMAP
7f7e
4822
7e36
4214
7e1c
4836
7f63
0000
7ffe
0000
1ff8
1008
1ff8
0810
0420
ffff
ENDCHAR
STARTCHAR ch-80
ENCODING 80
SWIDTH 1000 0
DWIDTH 16 0
BBX 16 16 0 -2
BITMAP
0920
5d7a
4922
5d7a
4922
5d7a
4922
7ffe
0000
7ffe
0000
1ff8
1008
1ff8
0810
ffff
ENDCHAR
STARTCHAR ch-85
ENCODING 85
SWIDTH 1000 0
DWIDTH 16 0
BBX 16 16 0 -2
BITMAP
0000
ffff
0100
0300
0604
0c0c
3a18
e330
0580
1880
e1c0
02e0
0cb0
389c
e187
0700
ENDCHAR
STARTCHAR ch-90
ENCODING 90
SWIDTH 1000 0
DWIDTH 16 0
BBX 16 16 0 -2
BITMAP
0000
7bff
4840
48c0
49a2
7b26
4874
48d0
4990
7b38
4858
48d4
4996
4b13
c830
98e0
ENDCHAR
STARTCHAR ch-97
ENCODING 97
SWIDTH 1000 0
DWIDTH 16 0
BBX 16 16 0 -2
BITMAP
0400
0ff0
1820
3040
fffc
2104
2104
3ffc
0202
0d06
728c
0cc0
71b0
0e9c
f887
0380
ENDCHAR
STARTCHAR ch-98
ENCODING 98
SWIDTH 1000 0
DWIDTH 16 0
BBX 16 16 0 -2
BITMAP
1108
0910
3ffc
0240
ffff
0420
0810
3ffc
e207
0d18
33b0
0cc0
31a0
0698
7886
0380
ENDCHAR
STARTCHAR ch-106
ENCODING 106
SWIDTH 1000 0
DWIDTH 16 0
BBX 16 16 0 -2
BITMAP
0100
ffff
0000
0ff0
0810
0ff0
0000
7ffe
4002
5ffa
0600
3986
06ec
39b0
069c
7987
ENDCHAR
STARTCHAR ch-107
ENCODING 107
SWIDTH 1000 0
DWIDTH 16 0
BBX 16 16 0 -2
BITMAP
0080
f8f8
0988
5310
21fe
2122
fd22
25fe
2840
20a2
2356
20b4
2358
2094
2313
6070
ENDCHAR
STARTCHAR ch-108
ENCODING 108
SWIDTH 1000 0
DWIDTH 16 0
BBX 16 16 0 -2
BITMAP
0022
fe22
10fe
3224
662c
d428
39ff
6810
cc20
1a7e
38c2
6942
c87e
0842
1842
707e
ENDCHAR
STARTCHAR ch-120
ENCODING 120
SWIDTH 1000 0
DWIDTH 16 0
BBX 16 16 0 -2
BITMAP
0020
00e0
1f84
04dc
0670
03c0
3e40
00e0
01a0
0770
3cd0
0190
0710
3c30
0020
01e0
ENDCHAR
STARTCHAR ch-121
ENCODING 121
SWIDTH 1000 0
DWIDTH 16 0
BBX 16 16 0 -2
BITMAP
0840
3040
ca40
247e
08c2
3082
c982
0862
1432
2412
cc02
1402
2402
c406
0c04
381c
ENDCHAR
STARTCHAR ch-122
ENCODING 122
SWIDTH 1000 0
DWIDTH 16 0
BBX 16 16 0 -2
BITMAP
0808
3008
ca08
2408
09ff
3028
c828
0828
1468
2448
cc48
14c8
2588
c408
0c08
3838
ENDCHAR
STARTCHAR ch-124
ENCODING 124
SWIDTH 1000 0
DWIDTH 16 0
BBX 16 16 0 -2
BITMAP
0888
3088
ca88
2488
088b
30ee
c888
0888
1488
2488
cc88
1488
2488
c489
0ce9
3b87
ENDCHAR
STARTCHAR ch-130
ENCODING 130
SWIDTH 1000 0
DWIDTH 16 0
BBX 16 16 0 -2
BITMAP
0800
30fe
ca22
2422
0862
3046
c8c4
098c
1400
24fe
cc82
1482
2482
c482
0c82
38fe
ENDCHAR
STARTCHAR ch-133
ENCODING 133
SWIDTH 1000 0
DWIDTH 16 0
BBX 16 16 0 -2
BITMAP
0848
3048
cac8
2488
08ff
3188
ca88
089c
149c
24aa
ccaa
14c9
2488
c488
0c88
3888
ENDCHAR
STARTCHAR ch-137
ENCODING 137
SWIDTH 1000 0
DWIDTH 16 0
BBX 16 16 0 -2
BITMAP
0820
3020
ca7e
24c2
09a6
302c
c818
083c
1466
25c3
cc00
147e
2442
c442
0c42
387e
ENDCHAR
STARTCHAR ch-138
ENCODING 138
SWIDTH 1000 0
DWIDTH 16 0
BBX 16 16 0 -2
BITMAP
0800
31ff
ca10
2430
0820
30fe
c882
0882
1482
2482
ccfe
1482
2482
c482
0c82
38fe
ENDCHAR
STARTCHAR ch-140
ENCODING 140
SWIDTH 1000 0
DWIDTH 16 0
BBX 16 16 0 -2
BITMAP
0810
1020
2afe
c482
2882
10fe
2882
c882
14fe
2448
cc48
1448
2448
c449
0cc9
3987
ENDCHAR
STARTCHAR ch-141
ENCODING 141
SWIDTH 1000 0
DWIDTH 16 0
BBX 16 16 0 -2
BITMAP
0800
30fe
ca92
2492
08fe
3092
c892
0892
14fe
2410
cc10
14fe
2410
c410
0c10
39ff
ENDCHAR
STARTCHAR ch-142
ENCODING 142
SWIDTH 1000 0
DWIDTH 16 0
BBX 16 16 0 -2
BITMAP
0860
10ce
2a82
c482
28ee
1082
2882
c882
14fe
2428
cc28
1428
2468
c449
0cc9
3987
ENDCHAR
STARTCHAR ch-148
ENCODING 148
SWIDTH 1000 0
DWIDTH 16 0
BBX 16 16 0 -2
BITMAP
0810
3020
cafe
2482
08aa
3092
c8aa
0882
14fe
2400
cc88
14eb
248e
c488
0ce9
3987
ENDCHAR
STARTCHAR ch-152
ENCODING 152
SWIDTH 1000 0
DWIDTH 16 0
BBX 16 16 0 -2
BITMAP
1088
2088
57ff
8888
5088
21fc
d104
11fc
2904
c9fc
1820
2fff
c850
08d8
198c
7306
ENDCHAR
STARTCHAR ch-157
ENCODING 157
SWIDTH 1000 0
DWIDTH 16 0
BBX 16 16 0 -2
BITMAP
0000
1ff8
1008
1008
1ff8
1008
1008
1008
1ff8
1008
1008
1008
1ff8
0810
1818
700e
ENDCHAR
STARTCHAR ch-158
ENCODING 158
SWIDTH 1000 0
DWIDTH 16 0
BBX 16 16 0 -2
BITMAP
0100
0100
01fc
0100
1ff8
1008
1008
1ff8
1008
1008
1ff8
1008
1008
1ff8
0810
700e
ENDCHAR
STARTCHAR ch-160
ENCODING 160
SWIDTH 1000 0
DWIDTH 16 0
BBX 16 16 0 -2
BITMAP
0400
0ff0
1820
7040
1ff8
1008
1008
1ff8
1008
1008
1ff8
1008
1008
1ff8
0810
700e
ENDCHAR
STARTCHAR ch-161
ENCODING 161
SWIDTH 1000 0
DWIDTH 16 0
BBX 16 16 0 -2
BITMAP
0008
7c08
4408
4408
7dff
4418
4418
4438
7c28
4468
44c8
4588
7c08
2808
6c08
c438
ENDCHAR
STARTCHAR ch-162
ENCODING 162
SWIDTH 1000 0
DWIDTH 16 0
BBX 16 16 0 -2
BITMAP
0000
3ffc
0100
0100
ffff
0000
1ff8
1008
1ff8
1008
1ff8
1008
1ff8
0810
1818
700e
ENDCHAR
STARTCHAR ch-167
ENCODING 167
SWIDTH 1000 0
DWIDTH 16 0
BBX 16 16 0 -2
BITMAP
0420
0810
3ffc
e217
0410
1870
7000
1ff8
1008
1ff8
1008
1ff8
1008
1ff8
0810
700e
ENDCHAR
STARTCHAR ch-168
ENCODING 168
SWIDTH 1000 0
DWIDTH 16 0
BBX 16 16 0 -2
BITMAP
0440
0c46
387c
e840
0842
083e
0000
1ff8
1008
1ff8
1008
1ff8
1008
1ff8
0810
700e
ENDCHAR
STARTCHAR ch-169
ENCODING 169
SWIDTH 1000 0
DWIDTH 16 0
BBX 16 16 0 -2
BITMAP
0000
7cff
4480
4480
7c80
44fe
44a2
44a2
7cb6
4494
449c
4488
7c9c
2994
6d36
c663
ENDCHAR
STARTCHAR ch-170
ENCODING 170
SWIDTH 1000 0
DWIDTH 16 0
BBX 16 16 0 -2
BITMAP
0100
06c0
1838
e7c7
0000
1ff0
0020
1ff8
1008
1ff8
1008
1ff8
1008
1ff8
0810
700e
ENDCHAR
STARTCHAR ch-171
ENCODING 171
SWIDTH 1000 0
DWIDTH 16 0
BBX 16 16 0 -2
BITMAP
0000
1ff8
1108
ffff
1108
1ff8
0000
1ff8
1008
1ff8
1008
1ff8
1008
1ff8
0810
700e
ENDCHAR
STARTCHAR ch-172
ENCODING 172
SWIDTH 1000 0
DWIDTH 16 0
BBX 16 16 0 -2
BITMAP
0100
3ffc
0100
1ff8
0100
ffff
0000
1ff8
1008
1ff8
1008
1ff8
1008
1ff8
0810
700e
ENDCHAR
STARTCHAR ch-173
ENCODING 173
SWIDTH 1000 0
DWIDTH 16 0
BBX 16 16 0 -2
BITMAP
000c
00f8
3f80
2040
3fff
2040
27fc
2404
27fc
2404
27fc
6404
47fc
c208
060c
0c06
ENDCHAR
STARTCHAR ch-174
ENCODING 174
SWIDTH 1000 0
DWIDTH 16 0
BBX 16 16 0 -2
BITMAP
0014
3f92
0010
ffff
0010
0010
3f90
2090
3f90
2098
3f88
2088
3f8c
1105
3187
60c2
ENDCHAR
STARTCHAR ch-175
ENCODING 175
SWIDTH 1000 0
DWIDTH 16 0
BBX 16 16 0 -2
BITMAP
0010
7c10
45ff
4501
7d01
4400
45ff
4410
7c10
4410
4410
4410
7c10
2810
6c10
c670
ENDCHAR
STARTCHAR ch-176
ENCODING 176
SWIDTH 1000 0
DWIDTH 16 0
BBX 16 16 0 -2
BITMAP
1108
ffff
1108
11f8
1000
1ffc
0000
1ff8
1008
1ff8
1008
1ff8
1008
1ff8
0810
700e
ENDCHAR
STARTCHAR ch-178
ENCODING 178
SWIDTH 1000 0
DWIDTH 16 0
BBX 16 16 0 -2
BITMAP
0840
2846
2f7c
2841
2843
3f3e
e000
1ff8
1008
1ff8
1008
1ff8
1008
1ff8
0810
700e
ENDCHAR
STARTCHAR ch-179
ENCODING 179
SWIDTH 1000 0
DWIDTH 16 0
BBX 16 16 0 -2
BITMAP
0014
0012
ffff
0010
3f90
0010
fff0
0010
3f90
2098
3f88
2088
3f8c
2085
3f87
60c2
ENDCHAR
STARTCHAR ch-180
ENCODING 180
SWIDTH 1000 0
DWIDTH 16 0
BBX 16 16 0 -2
BITMAP
0100
1ff8
1108
1ff8
0100
ffff
0000
1ff8
1008
1ff8
1008
1ff8
1008
1ff8
0810
700e
ENDCHAR
STARTCHAR ch-182
ENCODING 182
SWIDTH 1000 0
DWIDTH 16 0
BBX 16 16 0 -2
BITMAP
0006
7c1c
44f0
4400
7c10
4410
44fe
4402
7c06
4404
440c
4418
7c30
2860
6df8
c40f
ENDCHAR
STARTCHAR ch-183
ENCODING 183
SWIDTH 1000 0
DWIDTH 16 0
BBX 16 16 0 -2
BITMAP
0000
7ffe
4442
4442
7ffe
0000
3ffc
2004
3ffc
2004
3ffc
2004
3ffc
0810
381c
e007
ENDCHAR
STARTCHAR ch-184
ENCODING 184
SWIDTH 1000 0
DWIDTH 16 0
BBX 16 16 0 -2
BITMAP
0848
1844
37ff
7020
d030
1019
000f
1ff8
1008
1ff8
1008
1ff8
1008
1ff8
0810
700e
ENDCHAR
STARTCHAR ch-187
ENCODING 187
SWIDTH 1000 0
DWIDTH 16 0
BBX 16 16 0 -2
BITMAP
0420
fffe
0422
7ffe
4420
7fff
0821
1ffb
f008
1ff8
1008
1ff8
1008
1ff8
0810
700e
ENDCHAR
STARTCHAR ch-188
ENCODING 188
SWIDTH 1000 0
DWIDTH 16 0
BBX 16 16 0 -2
BITMAP
0010
7e10
4210
4210
7e1f
4210
4210
4210
7e10
42fe
4282
4282
7e82
2482
6682
c2fe
ENDCHAR
STARTCHAR ch-189
ENCODING 189
SWIDTH 1000 0
DWIDTH 16 0
BBX 16 16 0 -2
BITMAP
0020
7c20
4460
4442
7cc2
449f
45f1
4400
7c00
44fe
4482
4482
7c82
2882
6c82
c4fe
ENDCHAR
STARTCHAR ch-191
ENCODING 191
SWIDTH 1000 0
DWIDTH 16 0
BBX 16 16 0 -2
BITMAP
0600
7cfe
4022
4422
4662
7ace
c000
1ff8
1008
1ff8
1008
1ff8
1008
1ff8
0810
700e
ENDCHAR
STARTCHAR ch-192
ENCODING 192
SWIDTH 1000 0
DWIDTH 16 0
BBX 16 16 0 -2
BITMAP
1000
107e
ff42
1142
3142
677e
c000
1ff8
1008
1ff8
1008
1ff8
1008
1ff8
0810
700e
ENDCHAR
STARTCHAR ch-193
ENCODING 193
SWIDTH 1000 0
DWIDTH 16 0
BBX 16 16 0 -2
BITMAP
0100
1ff8
0100
0810
ffff
0810
0000
1ff8
1008
1ff8
1008
1ff8
1008
1ff8
0810
700e
ENDCHAR
STARTCHAR ch-194
ENCODING 194
SWIDTH 1000 0
DWIDTH 16 0
BBX 16 16 0 -2
BITMAP
0040
7c40
447c
44c4
7d8c
4468
4438
446c
7dc7
4400
44fe
4482
7c82
2882
6c82
c6fe
ENDCHAR
STARTCHAR ch-195
ENCODING 195
SWIDTH 1000 0
DWIDTH 16 0
BBX 16 16 0 -2
BITMAP
081c
19f0
3020
e7ff
2020
23fe
2000
1ff8
1008
1ff8
1008
1ff8
1008
1ff8
0810
700e
ENDCHAR
STARTCHAR ch-196
ENCODING 196
SWIDTH 1000 0
DWIDTH 16 0
BBX 16 16 0 -2
BITMAP
0020
7c20
45ff
4420
7c20
447e
4442
44c2
7d7e
4442
4442
447e
7c42
2842
6c42
c64e
ENDCHAR
STARTCHAR ch-199
ENCODING 199
SWIDTH 1000 0
DWIDTH 16 0
BBX 16 16 0 -2
BITMAP
6080
39fe
0322
0074
18d8
738c
c007
1ff8
1008
1ff8
1008
1ff8
1008
1ff8
0810
700e
ENDCHAR
STARTCHAR ch-200
ENCODING 200
SWIDTH 1000 0
DWIDTH 16 0
BBX 16 16 0 -2
BITMAP
ffff
0440
7ffe
4442
4442
7ffe
0000
3ffc
2004
3ffc
2004
3ffc
2004
3ffc
1008
6006
ENDCHAR
STARTCHAR ch-202
ENCODING 202
SWIDTH 1000 0
DWIDTH 16 0
BBX 16 16 0 -2
BITMAP
000a
7c0b
4409
4408
7dff
4408
4448
4449
7df9
444b
444a
444e
7c4c
281d
6c37
c6e2
ENDCHAR
STARTCHAR ch-205
ENCODING 205
SWIDTH 1000 0
DWIDTH 16 0
BBX 16 16 0 -2
BITMAP
0008
7c08
4408
44ff
7c80
4488
4488
4488
7cbe
4488
4488
4488
7c88
2908
6c08
c47f
ENDCHAR
STARTCHAR ch-206
ENCODING 206
SWIDTH 1000 0
DWIDTH 16 0
BBX 16 16 0 -2
BITMAP
0028
7c24
4420
45fe
7c20
45fe
4420
45ff
7c20
4432
4416
441c
7c08
283d
6de7
c402
ENDCHAR
STARTCHAR ch-209
ENCODING 209
SWIDTH 1000 0
DWIDTH 16 0
BBX 16 16 0 -2
BITMAP
0000
7dff
4500
4500
7d7e
4500
4500
45ff
7d48
4549
454b
454a
7d4c
2944
6d76
c6c3
ENDCHAR
STARTCHAR ch-211
ENCODING 211
SWIDTH 1000 0
DWIDTH 16 0
BBX 16 16 0 -2
BITMAP
0100
7ffe
4002
5ffa
0910
714e
0380
1ff8
f008
1ff8
1008
1ff8
1008
1ff8
0810
700e
ENDCHAR
STARTCHAR ch-218
ENCODING 218
SWIDTH 1000 0
DWIDTH 16 0
BBX 16 16 0 -2
BITMAP
0100
ffff
1108
391c
6b96
0540
0920
3ffc
d00b
1ff8
1008
1ff8
1008
1ff8
0810
700e
ENDCHAR
STARTCHAR ch-219
ENCODING 219
SWIDTH 1000 0
DWIDTH 16 0
BBX 16 16 0 -2
BITMAP
0810
7e7e
0810
feff
1428
2244
c003
1ff8
1008
1ff8
1008
1ff8
1008
1ff8
0810
700e
ENDCHAR
STARTCHAR ch-220
ENCODING 220
SWIDTH 1000 0
DWIDTH 16 0
BBX 16 16 0 -2
BITMAP
0000
7cfc
4484
4484
7cfc
4484
4484
44fc
7c40
44ff
4729
4449
7d91
2823
6cc2
c40e
ENDCHAR
STARTCHAR ch-222
ENCODING 222
SWIDTH 1000 0
DWIDTH 16 0
BBX 16 16 0 -2
BITMAP
2104
1108
7ffe
4002
4ff2
0810
0ff0
0000
1ff8
1008
1ff8
1008
1ff8
1008
1ff8
700e
ENDCHAR
STARTCHAR ch-224
ENCODING 224
SWIDTH 1000 0
DWIDTH 16 0
BBX 16 16 0 -2
BITMAP
0020
7c20
45fe
4484
7ccc
4448
4448
47ff
7c00
4400
44fc
4484
7c84
2884
6c84
c4fc
ENDCHAR
STARTCHAR ch-226
ENCODING 226
SWIDTH 1000 0
DWIDTH 16 0
BBX 16 16 0 -2
BITMAP
7f7e
4822
7e36
4214
7e1c
4836
7f63
0000
1ff8
1008
1ff8
1008
1ff8
1008
1ff8
700e
ENDCHAR
STARTCHAR ch-227
ENCODING 227
SWIDTH 1000 0
DWIDTH 16 0
BBX 16 16 0 -2
BITMAP
0100
ffff
0100
3ffc
0000
7ffe
4442
7ffe
1008
1ff8
1008
1ff8
1008
1ff8
0810
700e
ENDCHAR
STARTCHAR ch-228
ENCODING 228
SWIDTH 1000 0
DWIDTH 16 0
BBX 16 16 0 -2
BITMAP
0048
7c44
447e
45e0
7c36
4418
446d
4587
7c48
4444
447e
47e0
7c36
2818
6c6d
c587
ENDCHAR
STARTCHAR ch-230
ENCODING 230
SWIDTH 1000 0
DWIDTH 16 0
BBX 16 16 0 -2
BITMAP
000a
79e9
4809
4808
7bff
4848
4848
4948
7978
4948
494c
4944
7944
29f5
6f07
c402
ENDCHAR
STARTCHAR ch-234
ENCODING 234
SWIDTH 1000 0
DWIDTH 16 0
BBX 16 16 0 -2
BITMAP
0306
3e7c
2040
3f7f
2448
6488
c000
1ff8
1008
1ff8
1008
1ff8
1008
1ff8
0810
700e
ENDCHAR
STARTCHAR ch-237
ENCODING 237
SWIDTH 1000 0
DWIDTH 16 0
BBX 16 16 0 -2
BITMAP
0022
7c22
44fe
4424
7c2c
4428
45ff
4410
7c20
447e
45c2
4442
7c7e
2842
6c42
c47e
ENDCHAR
STARTCHAR ch-250
ENCODING 250
SWIDTH 1000 0
DWIDTH 16 0
BBX 16 16 0 -2
BITMAP
0104
7c88
47ff
4450
7dfe
4452
4452
47ff
7c52
4452
45fe
4458
7cd4
2956
6e53
c450
ENDCHAR
STARTCHAR ch-251
ENCODING 251
SWIDTH 1000 0
DWIDTH 16 0
BBX 16 16 0 -2
BITMAP
0024
7c22
47ff
4420
7dfe
4522
45fe
4522
7dfe
4404
47ff
4484
7cc4
2844
6c04
c41c
ENDCHAR
STARTCHAR ch-252
ENCODING 252
SWIDTH 1000 0
DWIDTH 16 0
BBX 16 16 0 -2
BITMAP
0048
7848
4bff
4848
79fe
4848
4bff
4820
79fe
4922
49fe
4922
7bff
2902
6d02
c50e
ENDCHAR
STARTCHAR ch-253
ENCODING 253
SWIDTH 1000 0
DWIDTH 16 0
BBX 16 16 0 -2
BITMAP
0100
7ffe
4422
5ffa
0420
1ff8
0420
ffff
0810
1ff8
e817
0ff0
0810
0ff0
0420
381c
ENDCHAR
STARTCHAR ch-260
ENCODING 260
SWIDTH 1000 0
DWIDTH 16 0
BBX 16 16 0 -2
BITMAP
0810
7f10
087c
ff94
2254
7f34
0825
7f53
0800
1ff8
1008
1ff8
1008
1ff8
0810
700e
ENDCHAR
STARTCHAR ch-261
ENCODING 261
SWIDTH 1000 0
DWIDTH 16 0
BBX 16 16 0 -2
BITMAP
0810
7f10
083f
ffe2
1036
1f1c
3134
6766
c003
1ff8
1008
1ff8
1008
1ff8
0810
700e
ENDCHAR
STARTCHAR ch-263
ENCODING 263
SWIDTH 1000 0
DWIDTH 16 0
BBX 16 16 0 -2
BITMAP
106a
1008
feff
4428
6cbc
38a5
6df7
c602
0000
1ff8
1008
1ff8
1008
1ff8
0810
700e
ENDCHAR
STARTCHAR ch-264
ENCODING 264
SWIDTH 1000 0
DWIDTH 16 0
BBX 16 16 0 -2
BITMAP
0082
7c44
45ff
4511
7d11
45ff
4511
4511
7dff
4400
44fe
4482
7cfe
2882
6c82
c6fe
ENDCHAR
STARTCHAR ch-266
ENCODING 266
SWIDTH 1000 0
DWIDTH 16 0
BBX 16 16 0 -2
BITMAP
2850
3e7e
4890
ffff
1424
3525
e647
1ff8
1008
1ff8
1008
1ff8
1008
1ff8
0810
700e
ENDCHAR
STARTCHAR ch-267
ENCODING 267
SWIDTH 1000 0
DWIDTH 16 0
BBX 16 16 0 -2
BITMAP
7fff
4488
49ff
5b10
6dfe
4910
49fe
4910
47ff
4404
47fc
4404
47fc
c404
87fc
1c07
ENDCHAR
STARTCHAR ch-269
ENCODING 269
SWIDTH 1000 0
DWIDTH 16 0
BBX 16 16 0 -2
BITMAP
00f8
7d10
47ff
4524
7dc7
453c
4500
45ff
7d00
453c
4500
453c
7d00
2a7e
6c42
c47e
ENDCHAR
STARTCHAR ch-271
ENCODING 271
SWIDTH 1000 0
DWIDTH 16 0
BBX 16 16 0 -2
BITMAP
0100
ffff
1000
1ffc
0000
1ff8
1008
1ff8
0000
7bde
4a52
7bda
4a56
7bd2
4992
9a53
ENDCHAR
STARTCHAR ch-272
ENCODING 272
SWIDTH 1000 0
DWIDTH 16 0
BBX 16 16 0 -2
BITMAP
0020
79fe
4822
4bff
7822
49fe
4820
4bff
794a
4a49
4800
49fe
7952
2952
6552
c3ff
ENDCHAR
STARTCHAR ch-275
ENCODING 275
SWIDTH 1000 0
DWIDTH 16 0
BBX 16 16 0 -2
BITMAP
000a
7009
5008
53ff
7208
5be8
5688
53e9
7229
522b
57ea
5a8e
73e4
020d
5417
8862
ENDCHAR
STARTCHAR ch-276
ENCODING 276
SWIDTH 1000 0
DWIDTH 16 0
BBX 16 16 0 -2
BITMAP
0ff0
0810
0ff0
0810
0ff0
0810
0ff0
1818
7e7e
4242
7e7e
4242
7e7e
4242
7e7e
c3c3
ENDCHAR
STARTCHAR ch-278
ENCODING 278
SWIDTH 1000 0
DWIDTH 16 0
BBX 16 16 0 -2
BITMAP
0010
7dff
4410
44fe
7c00
45ff
4549
45ff
7c82
44fe
4482
44fe
7c82
28fe
6c44
c583
ENDCHAR
STARTCHAR ch-356
ENCODING 356
SWIDTH 1000 0
DWIDTH 16 0
BBX 16 16 0 -2
BITMAP
0100
0100
3ffc
0100
0100
0100
ffff
0420
2424
2426
6422
4423
cc21
0820
1820
30e0
ENDCHAR
STARTCHAR ch-358
ENCODING 358
SWIDTH 1000 0
DWIDTH 16 0
BBX 16 16 0 -2
BITMAP
0820
0820
7f20
087f
0844
08c4
ffa4
242c
2428
6638
a510
2410
2438
642c
4466
ccc3
ENDCHAR
STARTCHAR ch-359
ENCODING 359
SWIDTH 1000 0
DWIDTH 16 0
BBX 16 16 0 -2
BITMAP
0800
087e
7f42
0842
0842
087e
ffc0
1440
147e
5452
5656
d55c
9448
345c
2476
6c43
ENDCHAR
STARTCHAR ch-363
ENCODING 363
SWIDTH 1000 0
DWIDTH 16 0
BBX 16 16 0 -2
BITMAP
0810
0810
7efe
0810
0810
0810
ffff
1428
562a
556a
d4ab
9429
1428
3468
2448
6cd8
ENDCHAR
STARTCHAR ch-365
ENCODING 365
SWIDTH 1000 0
DWIDTH 16 0
BBX 16 16 0 -2
BITMAP
1022
1022
7cfe
1024
102c
1028
feff
2820
2840
28fe
6d42
aa42
287e
6842
4842
d87e
ENDCHAR
STARTCHAR ch-368
ENCODING 368
SWIDTH 1000 0
DWIDTH 16 0
BBX 16 16 0 -2
BITMAP
0100
0100
3ffc
0100
0100
0100
ffff
0100
0100
1100
11fc
1100
3900
2d00
6700
c1ff
ENDCHAR
STARTCHAR ch-369
ENCODING 369
SWIDTH 1000 0
DWIDTH 16 0
BBX 16 16 0 -2
BITMAP
0100
0100
3ffc
0100
0100
0100
ffff
0008
1818
0c30
0460
01c0
0700
3c00
e780
00ff
ENDCHAR
STARTCHAR ch-371
ENCODING 371
SWIDTH 1000 0
DWIDTH 16 0
BBX 16 16 0 -2
BITMAP
0804
0804
7e24
0824
0824
0824
ff24
0824
4824
4e27
483c
48e4
4804
6804
dc00
87ff
ENDCHAR
STARTCHAR ch-372
ENCODING 372
SWIDTH 1000 0
DWIDTH 16 0
BBX 16 16 0 -2
BITMAP
0810
0810
7f10
0810
0810
0818
ff9c
0816
0813
2f10
2810
2810
2810
7810
4e00
c3ff
ENDCHAR
STARTCHAR ch-375
ENCODING 375
SWIDTH 1000 0
DWIDTH 16 0
BBX 16 16 0 -2
BITMAP
0800
087e
7f02
0802
0802
0802
ff7e
0840
4840
4f40
4841
4863
683e
5800
ce00
83ff
ENDCHAR
STARTCHAR ch-385
ENCODING 385
SWIDTH 1000 0
DWIDTH 16 0
BBX 16 16 0 -2
BITMAP
0810
0838
7e28
086c
08c6
081b
ff30
0866
480c
4e38
4863
4806
481c
6870
dc00
87ff
ENDCHAR
STARTCHAR ch-389
ENCODING 389
SWIDTH 1000 0
DWIDTH 16 0
BBX 16 16 0 -2
BITMAP
0800
08fe
7e22
0822
0862
0842
fece
0800
487e
4e42
4842
4842
4842
687e
dc00
87ff
ENDCHAR
STARTCHAR ch-394
ENCODING 394
SWIDTH 1000 0
DWIDTH 16 0
BBX 16 16 0 -2
BITMAP
1014
1012
7c10
11ff
1110
ff12
1112
1116
5114
5d1c
51c8
531d
5037
7062
dc00
87ff
ENDCHAR
STARTCHAR ch-409
ENCODING 409
SWIDTH 1000 0
DWIDTH 16 0
BBX 16 16 0 -2
BITMAP
0892
08d6
7e54
0810
087e
0842
ff42
087e
4842
4e42
487e
4842
4842
6846
dc00
87ff
ENDCHAR
STARTCHAR ch-419
ENCODING 419
SWIDTH 1000 0
DWIDTH 16 0
BBX 16 16 0 -2
BITMAP
1000
13ff
7d20
112e
11e2
fd22
112a
11ee
5124
5d26
51ea
5333
5021
7020
dc00
87ff
ENDCHAR
STARTCHAR ch-424
ENCODING 424
SWIDTH 1000 0
DWIDTH 16 0
BBX 16 16 0 -2
BITMAP
1080
10fe
7d22
10aa
10fa
fe26
104c
1080
50fe
5d22
50aa
50fa
5026
70cc
dc00
87ff
ENDCHAR
STARTCHAR ch-435
ENCODING 435
SWIDTH 1000 0
DWIDTH 16 0
BBX 16 16 0 -2
BITMAP
0000
1ff8
1008
1008
1008
1008
1ff8
0100
0100
1100
11fc
1100
3900
2d00
6700
c1ff
ENDCHAR
STARTCHAR ch-442
ENCODING 442
SWIDTH 1000 0
DWIDTH 16 0
BBX 16 16 0 -2
BITMAP
0010
7c10
4410
44fe
4410
4410
7c10
1010
51ff
5c10
5038
5028
506c
5c44
70c6
c183
ENDCHAR
STARTCHAR ch-446
ENCODING 446
SWIDTH 1000 0
DWIDTH 16 0
BBX 16 16 0 -2
BITMAP
0010
7c10
4410
4410
4490
4490
7c9e
1090
5090
5c90
5090
5090
5090
5c90
7090
c3ff
ENDCHAR
STARTCHAR ch-450
ENCODING 450
SWIDTH 1000 0
DWIDTH 16 0
BBX 16 16 0 -2
BITMAP
0010
7e10
4210
43ff
4210
4210
7efe
0842
4846
4e6c
4838
4810
4838
4e6c
78c6
c183
ENDCHAR
STARTCHAR ch-459
ENCODING 459
SWIDTH 1000 0
DWIDTH 16 0
BBX 16 16 0 -2
BITMAP
0048
7c4c
4444
47ff
4440
4440
7c44
10e4
50ac
5da8
5138
5310
5038
5c6c
70c6
c183
ENDCHAR
STARTCHAR ch-460
ENCODING 460
SWIDTH 1000 0
DWIDTH 16 0
BBX 16 16 0 -2
BITMAP
0010
7c90
4490
44fe
4590
4510
7c10
11ff
5010
5c10
5038
5028
506c
5c44
70c6
c183
ENDCHAR
STARTCHAR ch-463
ENCODING 463
SWIDTH 1000 0
DWIDTH 16 0
BBX 16 16 0 -2
BITMAP
0080
7c80
4480
448f
47e9
44a9
7ca9
10a9
50a9
5ca9
50a9
51a9
5129
5d69
734f
c6c0
ENDCHAR
STARTCHAR ch-470
ENCODING 470
SWIDTH 1000 0
DWIDTH 16 0
BBX 16 16 0 -2
BITMAP
0000
7dff
4420
4420
4420
4460
7c40
107e
50c2
5cc2
5142
5042
5042
5c42
7042
c07e
ENDCHAR
STARTCHAR ch-474
ENCODING 474
SWIDTH 1000 0
DWIDTH 16 0
BBX 16 16 0 -2
BITMAP
0000
7cfe
44aa
44aa
44aa
44aa
7caa
11ff
50aa
5caa
50aa
50aa
50aa
5caa
70aa
c086
ENDCHAR
STARTCHAR ch-475
ENCODING 475
SWIDTH 1000 0
DWIDTH 16 0
BBX 16 16 0 -2
BITMAP
0010
7c10
4410
45ff
4511
4512
7d10
11fe
5142
5d46
5164
512c
5118
5d34
7266
c0c3
ENDCHAR
STARTCHAR ch-477
ENCODING 477
SWIDTH 1000 0
DWIDTH 16 0
BBX 16 16 0 -2
BITMAP
0000
7cff
4480
4480
4480
44fe
7c82
1082
5082
5cfe
5080
5080
5080
5c80
70ff
c000
ENDCHAR
STARTCHAR ch-479
ENCODING 479
SWIDTH 1000 0
DWIDTH 16 0
BBX 16 16 0 -2
BITMAP
0000
7cfe
4482
4482
44fe
4482
7c82
10fe
5091
5c93
5096
5098
5088
5c8c
70f6
c383
ENDCHAR
STARTCHAR ch-481
ENCODING 481
SWIDTH 1000 0
DWIDTH 16 0
BBX 16 16 0 -2
BITMAP
0020
7c20
4420
47ff
4448
4448
7c48
114a
514a
5f4b
5249
5048
50c8
5c88
7188
c338
ENDCHAR
STARTCHAR ch-483
ENCODING 483
SWIDTH 1000 0
DWIDTH 16 0
BBX 16 16 0 -2
BITMAP
0010
7c90
4490
45fe
4510
4410
7c10
13ff
5048
5c48
5048
5048
50c8
5c89
7189
c307
ENDCHAR
STARTCHAR ch-488
ENCODING 488
SWIDTH 1000 0
DWIDTH 16 0
BBX 16 16 0 -2
BITMAP
0010
7c10
45ff
4428
4444
4583
7c7c
1000
51ff
5c20
5040
50fe
5002
5c02
7006
c01c
ENDCHAR
STARTCHAR ch-490
ENCODING 490
SWIDTH 1000 0
DWIDTH 16 0
BBX 16 16 0 -2
BITMAP
0080
7cfc
4588
4510
47ff
4500
7d00
117c
5144
5d44
5144
514c
5140
5d41
7263
c03e
ENDCHAR
STARTCHAR ch-491
ENCODING 491
SWIDTH 1000 0
DWIDTH 16 0
BBX 16 16 0 -2
BITMAP
0000
7cfc
1084
10a4
10b4
1c95
f103
0000
1ff8
1008
1008
1ff8
0880
18fc
3480
e3ff
ENDCHAR
STARTCHAR ch-495
ENCODING 495
SWIDTH 1000 0
DWIDTH 16 0
BBX 16 16 0 -2
BITMAP
0040
7c40
447c
44c4
458c
7c68
1038
106c
51c7
5c00
50fe
5082
5082
5c82
7082
c0fe
ENDCHAR
STARTCHAR ch-499
ENCODING 499
SWIDTH 1000 0
DWIDTH 16 0
BBX 16 16 0 -2
BITMAP
0048
7c48
4449
474b
45ce
4448
7c48
1048
504e
5dcb
5349
5048
50c8
5c89
7189
c307
ENDCHAR
STARTCHAR ch-501
ENCODING 501
SWIDTH 1000 0
DWIDTH 16 0
BBX 16 16 0 -2
BITMAP
0028
7c24
4420
45fe
4420
45fe
7c20
11ff
5020
5c32
5016
501c
5008
5c1d
7077
c1c2
ENDCHAR
STARTCHAR ch-508
ENCODING 508
SWIDTH 1000 0
DWIDTH 16 0
BBX 16 16 0 -2
BITMAP
0000
7dfe
4502
4502
45fe
4500
7d00
11ff
5101
5d79
5149
5149
5149
5d7b
7202
c00e
ENDCHAR
STARTCHAR ch-511
ENCODING 511
SWIDTH 1000 0
DWIDTH 16 0
BBX 16 16 0 -2
BITMAP
0010
7c10
44fe
4410
4410
4410
7dff
1010
5010
5c90
509e
5090
5090
5dd0
7170
c31f
ENDCHAR
ENDFONT
