STARTFONT 2.1
FONT jis.jis6600.16
SIZE 16 72 72
FONTBOUNDINGBOX 16 16 0 -2
STARTPROPERTIES 4
FONT_DESCENT 2
FONT_ASCENT 14
DEFAULT_CHAR 2
COPYRIGHT "Copyright (c) 1992 AT&T - All rights reserved."
ENDPROPERTIES
CHARS 204
STARTCHAR ch-2
ENCODING 2
SWIDTH 1000 0
DWIDTH 16 0
BBX 16 16 0 -2
BITMAP
0000
3ffc
2004
3ffc
2004
3ffc
0000
0e00
78fe
4082
4082
4082
7c82
c08e
0080
0080
ENDCHAR
STARTCHAR ch-3
ENCODING 3
SWIDTH 1000 0
DWIDTH 16 0
BBX 16 16 0 -2
BITMAP
0000
0ffc
0804
0ffc
0804
0ffc
0000
3fff
2000
2040
2040
20e0
61b0
4318
c60c
1c07
ENDCHAR
STARTCHAR ch-6
ENCODING 6
SWIDTH 1000 0
DWIDTH 16 0
BBX 16 16 0 -2
BITMAP
0000
3ffc
2004
2004
3ffc
2004
2004
3ffc
0000
2040
2046
3e7c
2040
2041
3e63
e03e
ENDCHAR
STARTCHAR ch-7
ENCODING 7
SWIDTH 1000 0
DWIDTH 16 0
BBX 16 16 0 -2
BITMAP
0000
1ff8
1008
1ff8
1008
1ff8
0000
0720
3c20
0420
ffff
0420
0420
0c20
1820
7020
ENDCHAR
STARTCHAR ch-10
ENCODING 10
SWIDTH 1000 0
DWIDTH 16 0
BBX 16 16 0 -2
BITMAP
0000
1ff8
1008
1ff8
1008
1008
1ff8
0000
ffff
0100
0100
7ffe
0240
0660
1c38
f00f
ENDCHAR
STARTCHAR ch-12
ENCODING 12
SWIDTH 1000 0
DWIDTH 16 0
BBX 16 16 0 -2
BITMAP
0000
1ff8
1008
1008
1ff8
1008
1008
1ff8
0000
7ffe
4002
4002
7ffe
4002
4002
7ffe
ENDCHAR
STARTCHAR ch-14
ENCODING 14
SWIDTH 1000 0
DWIDTH 16 0
BBX 16 16 0 -2
BITMAP
0000
00fe
fc82
8482
8482
84fe
fc82
8482
8482
84fe
8482
fc82
0182
0102
0302
0e0e
ENDCHAR
STARTCHAR ch-15
ENCODING 15
SWIDTH 1000 0
DWIDTH 16 0
BBX 16 16 0 -2
BITMAP
0018
00f0
3f80
2080
3ffe
2040
2061
3c33
e00e
1ff8
1008
1008
1ff8
1008
1008
1ff8
ENDCHAR
STARTCHAR ch-19
ENCODING 19
SWIDTH 1000 0
DWIDTH 16 0
BBX 16 16 0 -2
BITMAP
0000
1ff8
1008
1008
1ff8
1008
1008
1ff8
0800
1ffe
3222
e662
0c42
38c6
0384
001c
ENDCHAR
STARTCHAR ch-20
ENCODING 20
SWIDTH 1000 0
DWIDTH 16 0
BBX 16 16 0 -2
BITMAP
0420
0420
7ffe
0420
0420
0420
ffff
0000
0000
1ff8
1008
1008
1ff8
1008
1008
1ff8
ENDCHAR
STARTCHAR ch-28
ENCODING 28
SWIDTH 1000 0
DWIDTH 16 0
BBX 16 16 0 -2
BITMAP
0000
1ff8
1008
1ff8
1008
1008
1ff8
0000
ffff
0800
1ffe
3222
e662
0c46
38c4
039c
ENDCHAR
STARTCHAR ch-31
ENCODING 31
SWIDTH 1000 0
DWIDTH 16 0
BBX 16 16 0 -2
BITMAP
0000
1ff8
1008
1ff8
1008
1008
1ff8
0100
1100
1ffc
3100
6100
1ff8
0100
0100
ffff
ENDCHAR
STARTCHAR ch-32
ENCODING 32
SWIDTH 1000 0
DWIDTH 16 0
BBX 16 16 0 -2
BITMAP
0020
0020
f820
8bfe
8a22
8a22
8a22
fa22
8a22
8fff
8850
88d8
f888
018c
0306
0603
ENDCHAR
STARTCHAR ch-37
ENCODING 37
SWIDTH 1000 0
DWIDTH 16 0
BBX 16 16 0 -2
BITMAP
0100
0100
7ffe
0100
3ffc
0240
ffff
0420
0810
3ffc
e817
0810
0ff0
0810
0810
0ff0
ENDCHAR
STARTCHAR ch-39
ENCODING 39
SWIDTH 1000 0
DWIDTH 16 0
BBX 16 16 0 -2
BITMAP
0020
0020
f820
8bfe
8820
8820
8820
ffff
88a8
88a8
88a8
89ac
f924
0326
0623
0020
ENDCHAR
STARTCHAR ch-40
ENCODING 40
SWIDTH 1000 0
DWIDTH 16 0
BBX 16 16 0 -2
BITMAP
0080
0080
f880
89ff
8920
8b20
8e20
f83e
8820
8820
8820
883e
f820
0020
0020
0020
ENDCHAR
STARTCHAR ch-45
ENCODING 45
SWIDTH 1000 0
DWIDTH 16 0
BBX 16 16 0 -2
BITMAP
0000
03fe
f842
8842
88c2
8886
8984
fb1c
8800
89fe
8902
8902
f902
0102
0102
01fe
ENDCHAR
STARTCHAR ch-47
ENCODING 47
SWIDTH 1000 0
DWIDTH 16 0
BBX 16 16 0 -2
BITMAP
1ff8
1008
1008
1ff8
1008
1008
1ff8
0000
ffff
0100
1100
11fc
3900
2d00
6700
c1ff
ENDCHAR
STARTCHAR ch-52
ENCODING 52
SWIDTH 1000 0
DWIDTH 16 0
BBX 16 16 0 -2
BITMAP
0000
1ff8
1008
1ff8
1008
1ff8
0200
0e00
787e
4242
4242
4242
7e42
c44e
0c40
3840
ENDCHAR
STARTCHAR ch-53
ENCODING 53
SWIDTH 1000 0
DWIDTH 16 0
BBX 16 16 0 -2
BITMAP
0000
03fe
f202
9202
9202
93fe
9200
f240
9242
924e
9278
9240
f640
0441
0c63
003e
ENDCHAR
STARTCHAR ch-54
ENCODING 54
SWIDTH 1000 0
DWIDTH 16 0
BBX 16 16 0 -2
BITMAP
0000
fe00
007e
0042
7842
0942
0b7e
ea42
2c42
2c42
2a42
6b7e
4980
c8e0
083f
3800
ENDCHAR
STARTCHAR ch-60
ENCODING 60
SWIDTH 1000 0
DWIDTH 16 0
BBX 16 16 0 -2
BITMAP
0000
1ff8
1008
1008
1ff8
1010
3008
2ffc
6816
cff3
0810
0810
0ff0
0000
ffff
0000
ENDCHAR
STARTCHAR ch-63
ENCODING 63
SWIDTH 1000 0
DWIDTH 16 0
BBX 16 16 0 -2
BITMAP
0020
0020
f020
93ff
9200
9200
9220
f220
9220
9260
9240
9244
f2c6
0682
049f
0df1
ENDCHAR
STARTCHAR ch-65
ENCODING 65
SWIDTH 1000 0
DWIDTH 16 0
BBX 16 16 0 -2
BITMAP
0000
3ffc
2004
3ffc
2004
3ffc
0000
2244
324c
1248
0270
364c
e446
0c41
3863
e03e
ENDCHAR
STARTCHAR ch-66
ENCODING 66
SWIDTH 1000 0
DWIDTH 16 0
BBX 16 16 0 -2
BITMAP
0020
0020
f9fe
8820
8820
8820
fbff
8804
8804
8bff
8804
f984
00c4
0044
0004
001c
ENDCHAR
STARTCHAR ch-67
ENCODING 67
SWIDTH 1000 0
DWIDTH 16 0
BBX 16 16 0 -2
BITMAP
0000
3ffc
2004
3ffc
2004
3ffc
1108
1918
0910
ffff
0440
0440
0c40
1841
3063
e03e
ENDCHAR
STARTCHAR ch-68
ENCODING 68
SWIDTH 1000 0
DWIDTH 16 0
BBX 16 16 0 -2
BITMAP
0020
0222
fb26
8924
8924
8820
8820
ffff
8888
8888
8888
8888
f988
0109
0309
0607
ENDCHAR
STARTCHAR ch-73
ENCODING 73
SWIDTH 1000 0
DWIDTH 16 0
BBX 16 16 0 -2
BITMAP
0000
7ffe
0820
1a68
134c
3d74
0000
ffff
0000
1ff8
1008
1008
1ff8
1008
1008
1ff8
ENDCHAR
STARTCHAR ch-75
ENCODING 75
SWIDTH 1000 0
DWIDTH 16 0
BBX 16 16 0 -2
BITMAP
0000
7ffe
0240
2244
324c
1248
0240
ffff
0000
1ff8
1008
1008
1ff8
1008
1008
1ff8
ENDCHAR
STARTCHAR ch-79
ENCODING 79
SWIDTH 1000 0
DWIDTH 16 0
BBX 16 16 0 -2
BITMAP
0000
1ff8
1008
1ff8
1008
1ff8
0100
7ffe
4002
4202
ffff
0410
0820
1e40
03f0
7e1e
ENDCHAR
STARTCHAR ch-82
ENCODING 82
SWIDTH 1000 0
DWIDTH 16 0
BBX 16 16 0 -2
BITMAP
0000
07ff
f050
9050
9050
93fe
9252
f252
9252
9252
929e
9302
f202
0202
0202
03fe
ENDCHAR
STARTCHAR ch-93
ENCODING 93
SWIDTH 1000 0
DWIDTH 16 0
BBX 16 16 0 -2
BITMAP
0100
3ffc
0104
ffff
0104
3ffc
0100
3ffc
0100
ffff
1008
1ff8
1008
1ff8
0000
ffff
ENDCHAR
STARTCHAR ch-94
ENCODING 94
SWIDTH 1000 0
DWIDTH 16 0
BBX 16 16 0 -2
BITMAP
0184
00ec
f038
90ec
9386
9040
97ff
f080
9120
93fe
9522
9122
f122
0122
012e
0020
ENDCHAR
STARTCHAR ch-95
ENCODING 95
SWIDTH 1000 0
DWIDTH 16 0
BBX 16 16 0 -2
BITMAP
0000
1ffc
1004
1ffc
1004
1ffc
0090
0088
3ffe
2040
3e64
222c
2238
6671
5cdb
c38e
ENDCHAR
STARTCHAR ch-98
ENCODING 98
SWIDTH 1000 0
DWIDTH 16 0
BBX 16 16 0 -2
BITMAP
1006
10fc
fe80
1080
10ff
1c88
f188
1108
3308
0000
1ff8
1008
1ff8
1008
1008
1ff8
ENDCHAR
STARTCHAR ch-100
ENCODING 100
SWIDTH 1000 0
DWIDTH 16 0
BBX 16 16 0 -2
BITMAP
0000
03ff
f820
8820
89fc
8844
8844
f844
8bff
8800
89fe
8902
f902
0102
0102
01fe
ENDCHAR
STARTCHAR ch-102
ENCODING 102
SWIDTH 1000 0
DWIDTH 16 0
BBX 16 16 0 -2
BITMAP
0100
0100
7bfe
4a00
4c00
49fc
4924
7924
4924
4fff
4a44
4a44
7a44
03ff
0008
0038
ENDCHAR
STARTCHAR ch-103
ENCODING 103
SWIDTH 1000 0
DWIDTH 16 0
BBX 16 16 0 -2
BITMAP
0020
0120
f920
8bfe
8a20
8c20
8820
ffff
8800
8800
89fc
8904
f904
0104
0104
01fc
ENDCHAR
STARTCHAR ch-104
ENCODING 104
SWIDTH 1000 0
DWIDTH 16 0
BBX 16 16 0 -2
BITMAP
0000
1ff8
1008
1ff8
1008
1ff8
0000
3ffe
2000
2ffc
2000
3fff
6442
4424
c798
1c07
ENDCHAR
STARTCHAR ch-105
ENCODING 105
SWIDTH 1000 0
DWIDTH 16 0
BBX 16 16 0 -2
BITMAP
0080
00fc
f188
9318
9610
93fe
9222
f222
9222
93fe
9090
9090
f190
0111
0313
0e0e
ENDCHAR
STARTCHAR ch-110
ENCODING 110
SWIDTH 1000 0
DWIDTH 16 0
BBX 16 16 0 -2
BITMAP
0810
0c30
0420
7ffe
0420
2424
342c
1428
ffff
0000
1ff8
1008
1ff8
1008
1008
1ff8
ENDCHAR
STARTCHAR ch-111
ENCODING 111
SWIDTH 1000 0
DWIDTH 16 0
BBX 16 16 0 -2
BITMAP
1ff8
1008
1ff8
1008
1ff8
0100
ffff
0000
1ff8
1008
1008
1ff8
0100
0910
1918
770e
ENDCHAR
STARTCHAR ch-112
ENCODING 112
SWIDTH 1000 0
DWIDTH 16 0
BBX 16 16 0 -2
BITMAP
0202
020e
f238
9fa0
9220
923f
9324
f6a4
96a4
9a24
9224
9224
f264
0244
02c4
0204
ENDCHAR
STARTCHAR ch-116
ENCODING 116
SWIDTH 1000 0
DWIDTH 16 0
BBX 16 16 0 -2
BITMAP
0020
0020
f3fe
9020
91fc
9020
f7ff
9000
91fc
9104
91fc
f104
01fc
0104
0104
011c
ENDCHAR
STARTCHAR ch-118
ENCODING 118
SWIDTH 1000 0
DWIDTH 16 0
BBX 16 16 0 -2
BITMAP
0000
0ff0
0810
0810
0ff0
0810
0810
0ff0
0000
7e7e
4242
4242
7e7e
4242
4242
7e7e
ENDCHAR
STARTCHAR ch-122
ENCODING 122
SWIDTH 1000 0
DWIDTH 16 0
BBX 16 16 0 -2
BITMAP
2000
3f7e
4842
0842
ffc2
0842
1e42
337e
e000
1ff8
1008
1008
1ff8
1008
1008
1ff8
ENDCHAR
STARTCHAR ch-129
ENCODING 129
SWIDTH 1000 0
DWIDTH 16 0
BBX 16 16 0 -2
BITMAP
0020
0020
f3fe
9020
9124
9104
97ff
f104
9104
9000
93fe
9088
f088
0189
0309
0e07
ENDCHAR
STARTCHAR ch-131
ENCODING 131
SWIDTH 1000 0
DWIDTH 16 0
BBX 16 16 0 -2
BITMAP
0000
1ff8
1008
1ff8
1008
1ff8
0000
0420
7c3e
0420
7c3e
0420
3c3f
e420
0c20
3820
ENDCHAR
STARTCHAR ch-132
ENCODING 132
SWIDTH 1000 0
DWIDTH 16 0
BBX 16 16 0 -2
BITMAP
0020
0020
f7ff
9401
95fd
9000
91fc
f104
9104
91fc
9104
9104
f1fc
0000
07ff
0000
ENDCHAR
STARTCHAR ch-135
ENCODING 135
SWIDTH 1000 0
DWIDTH 16 0
BBX 16 16 0 -2
BITMAP
0000
07be
f482
9482
9482
97be
9400
f47e
97a2
9436
9414
941c
f788
041c
0436
0463
ENDCHAR
STARTCHAR ch-136
ENCODING 136
SWIDTH 1000 0
DWIDTH 16 0
BBX 16 16 0 -2
BITMAP
1ff8
1008
1ff8
1008
ffff
8101
bffd
0100
1ff8
1108
1ff8
1108
1ff8
0100
ffff
0100
ENDCHAR
STARTCHAR ch-137
ENCODING 137
SWIDTH 1000 0
DWIDTH 16 0
BBX 16 16 0 -2
BITMAP
0000
07fe
f402
9442
93fc
9040
93fc
f244
93fc
9244
9244
93fc
f040
0fff
0040
0040
ENDCHAR
STARTCHAR ch-142
ENCODING 142
SWIDTH 1000 0
DWIDTH 16 0
BBX 16 16 0 -2
BITMAP
0088
0088
f7ff
9088
9088
9020
93fe
f222
9222
9222
97ff
9050
f0d8
018c
0306
0603
ENDCHAR
STARTCHAR ch-145
ENCODING 145
SWIDTH 1000 0
DWIDTH 16 0
BBX 16 16 0 -2
BITMAP
1ff8
1008
1ff8
1009
1ffb
0106
3ffc
0110
ffff
0080
0ffc
f804
0ffc
0804
0804
0ffc
ENDCHAR
STARTCHAR ch-150
ENCODING 150
SWIDTH 1000 0
DWIDTH 16 0
BBX 16 16 0 -2
BITMAP
000c
0078
f7c2
9246
9124
97fe
9080
f7ff
9080
90fc
9184
9148
f358
0630
0c6c
01c7
ENDCHAR
STARTCHAR ch-151
ENCODING 151
SWIDTH 1000 0
DWIDTH 16 0
BBX 16 16 0 -2
BITMAP
0020
0020
fbfe
8904
898c
8888
8fff
f800
8800
89fc
8904
8904
f9fc
0104
0104
01fc
ENDCHAR
STARTCHAR ch-152
ENCODING 152
SWIDTH 1000 0
DWIDTH 16 0
BBX 16 16 0 -2
BITMAP
0000
01f8
f108
91f8
9108
9108
91f8
f000
9fff
9100
93fe
9652
f092
0326
0044
019c
ENDCHAR
STARTCHAR ch-157
ENCODING 157
SWIDTH 1000 0
DWIDTH 16 0
BBX 16 16 0 -2
BITMAP
0000
07ff
f401
95fd
9104
9104
91fc
f104
9104
91fc
9020
97ff
f000
0088
018c
0707
ENDCHAR
STARTCHAR ch-162
ENCODING 162
SWIDTH 1000 0
DWIDTH 16 0
BBX 16 16 0 -2
BITMAP
2000
20fc
2084
f8fc
a884
a884
a8fc
f800
abff
a880
a9ff
fa49
2099
2333
2062
218e
ENDCHAR
STARTCHAR ch-166
ENCODING 166
SWIDTH 1000 0
DWIDTH 16 0
BBX 16 16 0 -2
BITMAP
0000
7fff
4208
4208
5fbf
4208
471c
5aab
4208
4000
4ffe
4802
cffe
8802
8802
0ffe
ENDCHAR
STARTCHAR ch-171
ENCODING 171
SWIDTH 1000 0
DWIDTH 16 0
BBX 16 16 0 -2
BITMAP
0802
ff8e
0838
7f20
493f
7f24
4924
7f64
0844
ff84
0804
1ff8
1008
1ff8
1008
1ff8
ENDCHAR
STARTCHAR ch-174
ENCODING 174
SWIDTH 1000 0
DWIDTH 16 0
BBX 16 16 0 -2
BITMAP
0420
ffff
0420
1ff8
1008
1ff8
1008
1ff8
0200
ffff
0810
3ffc
d00b
1ff8
1008
1ff8
ENDCHAR
STARTCHAR ch-180
ENCODING 180
SWIDTH 1000 0
DWIDTH 16 0
BBX 16 16 0 -2
BITMAP
1ff8
1008
1ff8
1008
1ff8
0420
3ffc
0420
ffff
0810
310c
cd33
07c0
1d70
711c
0700
ENDCHAR
STARTCHAR ch-184
ENCODING 184
SWIDTH 1000 0
DWIDTH 16 0
BBX 16 16 0 -2
BITMAP
0040
0040
f7ff
9088
928a
9104
93fe
f505
91fc
9104
91fc
9020
f124
0326
0623
00e0
ENDCHAR
STARTCHAR ch-185
ENCODING 185
SWIDTH 1000 0
DWIDTH 16 0
BBX 16 16 0 -2
BITMAP
0000
63fc
3204
13fc
0204
03fc
0110
f3fe
1620
1bfc
1220
13fc
1220
33fe
6800
c7ff
ENDCHAR
STARTCHAR ch-188
ENCODING 188
SWIDTH 1000 0
DWIDTH 16 0
BBX 16 16 0 -2
BITMAP
4920
2a20
083f
7f64
49c4
5d28
6b10
492c
4b43
0000
1ff8
1008
1ff8
1008
1008
1ff8
ENDCHAR
STARTCHAR ch-190
ENCODING 190
SWIDTH 1000 0
DWIDTH 16 0
BBX 16 16 0 -2
BITMAP
0108
0108
ffe8
901f
97d2
9472
97d6
f014
97d4
909c
9108
91c8
f71c
0114
0136
0763
ENDCHAR
STARTCHAR ch-193
ENCODING 193
SWIDTH 1000 0
DWIDTH 16 0
BBX 16 16 0 -2
BITMAP
7efe
4248
7e48
42ff
7e18
4428
7ec9
c207
1ff8
1008
1ff8
1008
1ff8
0000
ffff
0000
ENDCHAR
STARTCHAR ch-196
ENCODING 196
SWIDTH 1000 0
DWIDTH 16 0
BBX 16 16 0 -2
BITMAP
0088
0088
f7ff
9088
93fe
9124
9124
f7ff
9124
9124
93fe
9020
f020
07ff
0020
0020
ENDCHAR
STARTCHAR ch-199
ENCODING 199
SWIDTH 1000 0
DWIDTH 16 0
BBX 16 16 0 -2
BITMAP
1ff8
1008
1ff8
1008
7ffe
0100
ffff
8101
bd7d
0000
3ffc
0000
ffff
0808
11fc
7f06
ENDCHAR
STARTCHAR ch-201
ENCODING 201
SWIDTH 1000 0
DWIDTH 16 0
BBX 16 16 0 -2
BITMAP
0020
01fc
f020
93fe
9000
9104
f7df
9104
91c4
971f
9000
f7ff
0088
0189
0309
0e07
ENDCHAR
STARTCHAR ch-214
ENCODING 214
SWIDTH 1000 0
DWIDTH 16 0
BBX 16 16 0 -2
BITMAP
000e
07f8
f242
9124
97ff
9421
f292
9285
947c
9080
91fc
f304
0698
0070
01dc
0707
ENDCHAR
STARTCHAR ch-217
ENCODING 217
SWIDTH 1000 0
DWIDTH 16 0
BBX 16 16 0 -2
BITMAP
07fe
0492
f492
97fe
9041
93fe
9044
f048
97ff
9020
91fe
9f02
f1fe
0102
0102
01fe
ENDCHAR
STARTCHAR ch-218
ENCODING 218
SWIDTH 1000 0
DWIDTH 16 0
BBX 16 16 0 -2
BITMAP
0108
0fff
f108
97fe
9402
95fa
9000
ffff
9080
9146
96ac
9130
f668
01a4
0e23
00e0
ENDCHAR
STARTCHAR ch-220
ENCODING 220
SWIDTH 1000 0
DWIDTH 16 0
BBX 16 16 0 -2
BITMAP
0000
07df
f041
97df
9041
97df
9108
f210
97ff
9a20
93fe
9220
f3fe
0220
0220
03ff
ENDCHAR
STARTCHAR ch-221
ENCODING 221
SWIDTH 1000 0
DWIDTH 16 0
BBX 16 16 0 -2
BITMAP
01fc
f104
91fc
9104
91fc
9088
f3fe
9088
97ff
9088
9124
96ab
f070
01ac
0727
0060
ENDCHAR
STARTCHAR ch-224
ENCODING 224
SWIDTH 1000 0
DWIDTH 16 0
BBX 16 16 0 -2
BITMAP
0020
0020
f7ff
9448
95fe
9448
f7ff
9420
95fe
9522
95fe
f522
0d22
09fe
1884
0303
ENDCHAR
STARTCHAR ch-230
ENCODING 230
SWIDTH 1000 0
DWIDTH 16 0
BBX 16 16 0 -2
BITMAP
0104
0088
f3fe
9020
91fc
9020
97ff
f004
93d2
9090
97ff
9092
f0d4
0789
0095
01a3
ENDCHAR
STARTCHAR ch-233
ENCODING 233
SWIDTH 1000 0
DWIDTH 16 0
BBX 16 16 0 -2
BITMAP
1ff8
1008
1ff8
1008
1ff8
0100
ffff
1428
3ffc
c423
1ff8
0420
ffff
0c90
7060
1f1e
ENDCHAR
STARTCHAR ch-240
ENCODING 240
SWIDTH 1000 0
DWIDTH 16 0
BBX 16 16 0 -2
BITMAP
0000
7ffe
4002
4002
4002
4002
4002
7ff2
4002
4002
4002
4002
4002
4002
7ffe
0000
ENDCHAR
STARTCHAR ch-242
ENCODING 242
SWIDTH 1000 0
DWIDTH 16 0
BBX 16 16 0 -2
BITMAP
0440
0440
0440
0440
7ffe
4442
4442
4442
4442
7ffe
4442
4442
4442
4442
7ffe
0000
ENDCHAR
STARTCHAR ch-243
ENCODING 243
SWIDTH 1000 0
DWIDTH 16 0
BBX 16 16 0 -2
BITMAP
0100
0100
7ffe
4102
4102
7ffe
4102
4102
4102
7ffe
0108
0198
00b1
01e1
0f39
f80f
ENDCHAR
STARTCHAR ch-244
ENCODING 244
SWIDTH 1000 0
DWIDTH 16 0
BBX 16 16 0 -2
BITMAP
0000
ffff
0100
3ffc
2104
2104
3ffc
2104
2104
3ffc
1100
0b00
0600
0d80
38f0
e01f
ENDCHAR
STARTCHAR ch-245
ENCODING 245
SWIDTH 1000 0
DWIDTH 16 0
BBX 16 16 0 -2
BITMAP
0110
0118
0108
7ffe
4102
4102
7ff2
4102
4102
7ffe
0108
0198
00b1
01e1
0f39
f80f
ENDCHAR
STARTCHAR ch-247
ENCODING 247
SWIDTH 1000 0
DWIDTH 16 0
BBX 16 16 0 -2
BITMAP
0000
1ff8
1008
1ff8
1008
1008
1ff8
0800
1ffe
3002
d1c2
1f02
1022
1866
0fc4
001c
ENDCHAR
STARTCHAR ch-248
ENCODING 248
SWIDTH 1000 0
DWIDTH 16 0
BBX 16 16 0 -2
BITMAP
0100
3ffc
0104
ffff
0104
3ffc
0100
3ffc
0100
ffff
0000
3ffc
2004
3ffc
2004
3ffc
ENDCHAR
STARTCHAR ch-249
ENCODING 249
SWIDTH 1000 0
DWIDTH 16 0
BBX 16 16 0 -2
BITMAP
0440
0440
ffff
0440
7ffe
4442
7ffe
4442
7ffe
0000
1ff8
1008
1ff8
1008
1008
1ff8
ENDCHAR
STARTCHAR ch-252
ENCODING 252
SWIDTH 1000 0
DWIDTH 16 0
BBX 16 16 0 -2
BITMAP
0ff0
0810
0ff0
0810
0ff0
0000
7ffe
4442
7ffe
0000
7ffc
0818
0670
03c0
1e78
f00f
ENDCHAR
STARTCHAR ch-253
ENCODING 253
SWIDTH 1000 0
DWIDTH 16 0
BBX 16 16 0 -2
BITMAP
1008
0810
7ffe
4102
4102
7ffe
4102
4102
7ffe
0000
3ffc
2004
3ffc
2004
2004
3ffc
ENDCHAR
STARTCHAR ch-254
ENCODING 254
SWIDTH 1000 0
DWIDTH 16 0
BBX 16 16 0 -2
BITMAP
0810
1818
300c
ffff
2104
2914
2524
2104
3ffc
0000
1ff8
1008
1ff8
1008
1008
1ff8
ENDCHAR
STARTCHAR ch-255
ENCODING 255
SWIDTH 1000 0
DWIDTH 16 0
BBX 16 16 0 -2
BITMAP
0810
0810
7efe
0810
0810
feff
1428
324c
6006
dffb
1008
1008
1ff8
1008
1008
1ff8
ENDCHAR
STARTCHAR ch-256
ENCODING 256
SWIDTH 1000 0
DWIDTH 16 0
BBX 16 16 0 -2
BITMAP
1ff8
1008
1ff8
1008
1ff8
0000
ffff
2200
3efe
2242
3e66
222c
2218
3e3c
e2e7
0200
ENDCHAR
STARTCHAR ch-259
ENCODING 259
SWIDTH 1000 0
DWIDTH 16 0
BBX 16 16 0 -2
BITMAP
0100
0380
0ee0
3838
e7cf
0000
3ffc
2914
2524
3ffc
0000
1ff8
1008
1ff8
1008
1ff8
ENDCHAR
STARTCHAR ch-264
ENCODING 264
SWIDTH 1000 0
DWIDTH 16 0
BBX 16 16 0 -2
BITMAP
0000
1ff8
1008
1008
1008
1ff8
1008
1008
1008
1ff8
1008
1008
3008
2008
6008
c038
ENDCHAR
STARTCHAR ch-265
ENCODING 265
SWIDTH 1000 0
DWIDTH 16 0
BBX 16 16 0 -2
BITMAP
0200
0200
ffff
0200
0600
07fc
0c04
1c04
37fc
6404
c404
07fc
0404
0404
0404
041c
ENDCHAR
STARTCHAR ch-267
ENCODING 267
SWIDTH 1000 0
DWIDTH 16 0
BBX 16 16 0 -2
BITMAP
0000
3e3e
2222
2222
2222
3e3e
2222
2222
2222
3e3e
2222
2222
2222
6262
4242
cece
ENDCHAR
STARTCHAR ch-269
ENCODING 269
SWIDTH 1000 0
DWIDTH 16 0
BBX 16 16 0 -2
BITMAP
0000
7cfe
4482
4482
4486
7c80
4480
44fe
44a2
7cb6
4494
449c
4488
449c
c496
8cb3
ENDCHAR
STARTCHAR ch-271
ENCODING 271
SWIDTH 1000 0
DWIDTH 16 0
BBX 16 16 0 -2
BITMAP
0020
7c20
4522
4522
4522
7d22
45fe
4420
4420
7c20
4522
4522
4522
4522
c522
9dfe
ENDCHAR
STARTCHAR ch-276
ENCODING 276
SWIDTH 1000 0
DWIDTH 16 0
BBX 16 16 0 -2
BITMAP
4100
633e
2222
ffa2
0822
083e
4922
4922
4922
493e
7f22
0822
1862
1042
30c2
618e
ENDCHAR
STARTCHAR ch-277
ENCODING 277
SWIDTH 1000 0
DWIDTH 16 0
BBX 16 16 0 -2
BITMAP
0082
7cc6
444c
4408
44fe
7c10
4410
4410
45ff
7c10
4438
4428
446c
4444
c4c6
8d83
ENDCHAR
STARTCHAR ch-278
ENCODING 278
SWIDTH 1000 0
DWIDTH 16 0
BBX 16 16 0 -2
BITMAP
0010
7c10
44fe
4482
4482
7cfe
4482
4482
44fe
7c91
4493
449a
4488
448c
c4f6
9d83
ENDCHAR
STARTCHAR ch-279
ENCODING 279
SWIDTH 1000 0
DWIDTH 16 0
BBX 16 16 0 -2
BITMAP
1000
107e
7e42
4242
4242
7e7e
4242
4242
7e42
407e
4042
4442
4442
5ec2
7282
c18e
ENDCHAR
STARTCHAR ch-283
ENCODING 283
SWIDTH 1000 0
DWIDTH 16 0
BBX 16 16 0 -2
BITMAP
1000
107c
ff44
207c
2044
207c
2044
1ec4
018c
0000
7ffe
0100
3ffc
0100
ffff
0000
ENDCHAR
STARTCHAR ch-285
ENCODING 285
SWIDTH 1000 0
DWIDTH 16 0
BBX 16 16 0 -2
BITMAP
0800
083e
ffa2
0822
7f22
413e
4122
7f22
4122
413e
7f22
0822
ffa2
0862
0842
08c6
ENDCHAR
STARTCHAR ch-286
ENCODING 286
SWIDTH 1000 0
DWIDTH 16 0
BBX 16 16 0 -2
BITMAP
0810
7ffe
0810
0ff0
0810
0ff0
0810
ffff
1008
2ff4
c813
0ff0
0810
0ff0
1810
3070
ENDCHAR
STARTCHAR ch-287
ENCODING 287
SWIDTH 1000 0
DWIDTH 16 0
BBX 16 16 0 -2
BITMAP
2200
223e
ffa2
2222
2222
3e3e
2222
2222
3e22
223e
2222
ffa2
0022
2662
6342
c0ce
ENDCHAR
STARTCHAR ch-294
ENCODING 294
SWIDTH 1000 0
DWIDTH 16 0
BBX 16 16 0 -2
BITMAP
0048
7bff
4848
49fe
4902
797a
4800
4bff
4840
78a3
4b56
4890
4b38
48d4
cb13
9870
ENDCHAR
STARTCHAR ch-295
ENCODING 295
SWIDTH 1000 0
DWIDTH 16 0
BBX 16 16 0 -2
BITMAP
0088
7888
4fff
4a28
494f
7ff1
480f
4be8
4a2f
7be8
4a2f
4be8
4a2f
4a28
ca29
9a67
ENDCHAR
STARTCHAR ch-296
ENCODING 296
SWIDTH 1000 0
DWIDTH 16 0
BBX 16 16 0 -2
BITMAP
0100
0100
0100
0100
ffff
0540
0560
0d20
0930
1910
1118
310c
6106
c103
0100
0100
ENDCHAR
STARTCHAR ch-298
ENCODING 298
SWIDTH 1000 0
DWIDTH 16 0
BBX 16 16 0 -2
BITMAP
0100
0100
0100
3ffc
0100
0100
0100
ffff
0520
0d30
0910
1918
310c
6106
c103
0100
ENDCHAR
STARTCHAR ch-299
ENCODING 299
SWIDTH 1000 0
DWIDTH 16 0
BBX 16 16 0 -2
BITMAP
0100
0100
0100
ffff
0100
0100
0100
7ffe
0520
0d30
0910
1918
310c
6106
c103
0100
ENDCHAR
STARTCHAR ch-300
ENCODING 300
SWIDTH 1000 0
DWIDTH 16 0
BBX 16 16 0 -2
BITMAP
0100
0100
0100
0100
ffff
0540
0560
0d20
0930
1918
310c
6106
cfe3
0100
0100
0100
ENDCHAR
STARTCHAR ch-301
ENCODING 301
SWIDTH 1000 0
DWIDTH 16 0
BBX 16 16 0 -2
BITMAP
1040
1040
1040
fe40
1040
1040
3840
3440
3240
5040
5040
9040
1040
1041
1063
103e
ENDCHAR
STARTCHAR ch-302
ENCODING 302
SWIDTH 1000 0
DWIDTH 16 0
BBX 16 16 0 -2
BITMAP
0110
0118
0108
ffff
0100
0100
1110
1110
1110
1110
1110
3110
2111
611b
c10e
0100
ENDCHAR
STARTCHAR ch-305
ENCODING 305
SWIDTH 1000 0
DWIDTH 16 0
BBX 16 16 0 -2
BITMAP
0100
1100
1100
3ffc
2100
6100
0100
ffff
0540
0d60
0920
1930
3118
610c
c107
0100
ENDCHAR
STARTCHAR ch-308
ENCODING 308
SWIDTH 1000 0
DWIDTH 16 0
BBX 16 16 0 -2
BITMAP
1020
1020
1020
fe20
1020
1030
3838
342c
3226
5023
5020
9020
1020
1020
1020
1020
ENDCHAR
STARTCHAR ch-310
ENCODING 310
SWIDTH 1000 0
DWIDTH 16 0
BBX 16 16 0 -2
BITMAP
0000
7ff0
0410
0420
0c7e
1802
3006
e11c
0100
ffff
0540
0d60
1930
311c
e107
0100
ENDCHAR
STARTCHAR ch-311
ENCODING 311
SWIDTH 1000 0
DWIDTH 16 0
BBX 16 16 0 -2
BITMAP
1000
13fe
1042
fc42
1042
1042
3842
3442
3442
50c2
5082
9082
1186
1104
1304
161c
ENDCHAR
STARTCHAR ch-312
ENCODING 312
SWIDTH 1000 0
DWIDTH 16 0
BBX 16 16 0 -2
BITMAP
1020
1020
1020
fc20
11fe
1022
3822
3422
3422
5062
5042
9042
10c6
1084
1184
131c
ENDCHAR
STARTCHAR ch-314
ENCODING 314
SWIDTH 1000 0
DWIDTH 16 0
BBX 16 16 0 -2
BITMAP
1000
10f8
1088
fe88
1088
1088
3888
3488
3488
5088
5088
9088
1188
1109
1309
1607
ENDCHAR
STARTCHAR ch-317
ENCODING 317
SWIDTH 1000 0
DWIDTH 16 0
BBX 16 16 0 -2
BITMAP
1000
13ff
1020
fc20
1060
1040
38fe
3402
3402
5002
5002
9006
1004
1004
100c
1038
ENDCHAR
STARTCHAR ch-319
ENCODING 319
SWIDTH 1000 0
DWIDTH 16 0
BBX 16 16 0 -2
BITMAP
0100
0100
ffff
0100
0100
3ffc
2104
2104
2384
23dc
0560
0d30
1918
310c
e107
0100
ENDCHAR
STARTCHAR ch-321
ENCODING 321
SWIDTH 1000 0
DWIDTH 16 0
BBX 16 16 0 -2
BITMAP
1000
11e0
1020
fe20
1020
1020
3820
3420
3270
5050
5050
90d8
1088
118c
1306
1603
ENDCHAR
STARTCHAR ch-326
ENCODING 326
SWIDTH 1000 0
DWIDTH 16 0
BBX 16 16 0 -2
BITMAP
1000
10fe
1010
fc10
1010
1010
3010
39ff
3410
5410
5010
9010
1010
1010
1010
1010
ENDCHAR
STARTCHAR ch-329
ENCODING 329
SWIDTH 1000 0
DWIDTH 16 0
BBX 16 16 0 -2
BITMAP
1004
100c
1018
fe30
10e2
1006
380c
3418
3230
50e1
5003
9006
100c
1018
1070
11c0
ENDCHAR
STARTCHAR ch-334
ENCODING 334
SWIDTH 1000 0
DWIDTH 16 0
BBX 16 16 0 -2
BITMAP
0100
0100
ffff
0520
0d30
391c
e107
0000
1ff0
0060
0180
ffff
0100
0100
0100
0700
ENDCHAR
STARTCHAR ch-335
ENCODING 335
SWIDTH 1000 0
DWIDTH 16 0
BBX 16 16 0 -2
BITMAP
0100
0100
0100
ffff
0540
0d60
1930
311c
e107
0000
3ffc
2004
2004
2004
2004
3ffc
ENDCHAR
STARTCHAR ch-336
ENCODING 336
SWIDTH 1000 0
DWIDTH 16 0
BBX 16 16 0 -2
BITMAP
1008
1008
1008
fdff
1018
1018
3838
3428
3268
5048
50c8
9188
1308
1008
1008
1038
ENDCHAR
STARTCHAR ch-337
ENCODING 337
SWIDTH 1000 0
DWIDTH 16 0
BBX 16 16 0 -2
BITMAP
1004
1004
1004
fdff
1004
1004
3804
34c4
3264
5024
5004
9004
1004
1004
1004
101c
ENDCHAR
STARTCHAR ch-339
ENCODING 339
SWIDTH 1000 0
DWIDTH 16 0
BBX 16 16 0 -2
BITMAP
1080
1080
1080
fcfe
1182
1102
3302
38c2
3462
5422
5002
9002
1002
1006
1004
101c
ENDCHAR
STARTCHAR ch-342
ENCODING 342
SWIDTH 1000 0
DWIDTH 16 0
BBX 16 16 0 -2
BITMAP
1010
1010
1010
fdff
1010
1010
3090
38d0
3450
5470
5020
9070
1058
10cc
1186
1303
ENDCHAR
STARTCHAR ch-345
ENCODING 345
SWIDTH 1000 0
DWIDTH 16 0
BBX 16 16 0 -2
BITMAP
1024
1026
1022
fc20
13ff
1020
3820
3420
3430
5010
5010
9018
1008
100d
1007
1002
ENDCHAR
STARTCHAR ch-348
ENCODING 348
SWIDTH 1000 0
DWIDTH 16 0
BBX 16 16 0 -2
BITMAP
1010
1010
1010
fe10
1010
10fe
3810
3410
3210
5010
5010
9010
1010
1010
11ff
1000
ENDCHAR
STARTCHAR ch-350
ENCODING 350
SWIDTH 1000 0
DWIDTH 16 0
BBX 16 16 0 -2
BITMAP
1000
11fe
1002
fc02
1002
1002
39fe
3500
3500
5100
5100
9100
1101
1183
10fe
1000
ENDCHAR
STARTCHAR ch-351
ENCODING 351
SWIDTH 1000 0
DWIDTH 16 0
BBX 16 16 0 -2
BITMAP
0100
0100
ffff
0100
0100
3ffc
2104
2104
2104
3ffc
0520
0d30
1918
310c
e107
0100
ENDCHAR
STARTCHAR ch-352
ENCODING 352
SWIDTH 1000 0
DWIDTH 16 0
BBX 16 16 0 -2
BITMAP
1000
1000
13fe
fc20
1020
1020
3820
3420
3420
5020
5020
9020
1020
17ff
1000
1000
ENDCHAR
STARTCHAR ch-353
ENCODING 353
SWIDTH 1000 0
DWIDTH 16 0
BBX 16 16 0 -2
BITMAP
0200
07f0
0c10
1820
76c0
0380
1ef0
f01f
0100
0100
ffff
0520
0d30
391c
e107
0100
ENDCHAR
STARTCHAR ch-354
ENCODING 354
SWIDTH 1000 0
DWIDTH 16 0
BBX 16 16 0 -2
BITMAP
0100
0100
ffff
0520
0d30
1918
310c
e107
0100
0000
3ffc
0100
0100
0100
ffff
0000
ENDCHAR
STARTCHAR ch-355
ENCODING 355
SWIDTH 1000 0
DWIDTH 16 0
BBX 16 16 0 -2
BITMAP
1010
1010
1010
fc10
1010
1111
3911
3511
3511
5111
5111
9111
1111
1111
11ff
1000
ENDCHAR
STARTCHAR ch-356
ENCODING 356
SWIDTH 1000 0
DWIDTH 16 0
BBX 16 16 0 -2
BITMAP
1000
13ff
1040
fc40
1040
1040
387e
3442
3442
5042
5042
90c2
1086
1084
1184
131c
ENDCHAR
STARTCHAR ch-357
ENCODING 357
SWIDTH 1000 0
DWIDTH 16 0
BBX 16 16 0 -2
BITMAP
0100
0100
7ffe
1108
1918
0910
0910
ffff
0540
0560
0d20
0930
1918
310c
e107
0100
ENDCHAR
STARTCHAR ch-362
ENCODING 362
SWIDTH 1000 0
DWIDTH 16 0
BBX 16 16 0 -2
BITMAP
1020
1020
1020
fca8
10ac
11a6
3323
3820
3422
5426
50e4
900c
1018
1030
1060
11c0
ENDCHAR
STARTCHAR ch-365
ENCODING 365
SWIDTH 1000 0
DWIDTH 16 0
BBX 16 16 0 -2
BITMAP
1020
1020
1020
ffff
1000
1000
38f8
3488
3488
5088
5088
9088
1188
1109
1309
1607
ENDCHAR
STARTCHAR ch-367
ENCODING 367
SWIDTH 1000 0
DWIDTH 16 0
BBX 16 16 0 -2
BITMAP
1000
13ff
1010
fc10
1030
1020
3868
346c
34e4
51a6
5323
9020
1020
1020
1020
1020
ENDCHAR
STARTCHAR ch-368
ENCODING 368
SWIDTH 1000 0
DWIDTH 16 0
BBX 16 16 0 -2
BITMAP
0100
0100
0100
ffff
0520
0d30
1918
310c
e107
0100
0100
0000
2444
2444
6666
c223
ENDCHAR
STARTCHAR ch-369
ENCODING 369
SWIDTH 1000 0
DWIDTH 16 0
BBX 16 16 0 -2
BITMAP
0100
0100
ffff
0100
3ffc
2104
3ffc
2104
2104
3ffc
0540
0d60
1930
311c
e107
0100
ENDCHAR
STARTCHAR ch-370
ENCODING 370
SWIDTH 1000 0
DWIDTH 16 0
BBX 16 16 0 -2
BITMAP
0000
1ff8
1008
1008
1ff8
1008
1008
1ff8
0100
ffff
0520
0d30
1918
310c
e107
0100
ENDCHAR
STARTCHAR ch-371
ENCODING 371
SWIDTH 1000 0
DWIDTH 16 0
BBX 16 16 0 -2
BITMAP
0100
0100
ffff
0520
0d30
1918
310c
e107
0000
1ff8
1008
1008
1ff8
1008
1008
1ff8
ENDCHAR
STARTCHAR ch-373
ENCODING 373
SWIDTH 1000 0
DWIDTH 16 0
BBX 16 16 0 -2
BITMAP
1040
1040
1040
fcfe
1090
1190
3810
3410
35ff
5010
5010
9010
1010
1010
1010
1010
ENDCHAR
STARTCHAR ch-375
ENCODING 375
SWIDTH 1000 0
DWIDTH 16 0
BBX 16 16 0 -2
BITMAP
1000
11fe
1122
fd22
1122
1122
3922
35fe
3500
5100
5100
9100
1101
1183
10fe
1000
ENDCHAR
STARTCHAR ch-380
ENCODING 380
SWIDTH 1000 0
DWIDTH 16 0
BBX 16 16 0 -2
BITMAP
1000
11fe
1002
fc44
1028
1010
33ff
3811
3412
5410
5010
9010
1010
1010
1010
1070
ENDCHAR
STARTCHAR ch-382
ENCODING 382
SWIDTH 1000 0
DWIDTH 16 0
BBX 16 16 0 -2
BITMAP
1088
1088
108c
fd84
1106
1102
3343
3840
3440
5440
50c4
9084
1084
109e
10f2
1383
ENDCHAR
STARTCHAR ch-383
ENCODING 383
SWIDTH 1000 0
DWIDTH 16 0
BBX 16 16 0 -2
BITMAP
1000
11ff
1100
fd00
1100
11fe
3942
3546
3564
512c
5138
9110
1338
122c
1666
10c3
ENDCHAR
STARTCHAR ch-389
ENCODING 389
SWIDTH 1000 0
DWIDTH 16 0
BBX 16 16 0 -2
BITMAP
1000
13ff
1084
fc84
1084
1084
33ff
3884
3484
5484
5084
9084
1184
1104
1304
1604
ENDCHAR
STARTCHAR ch-391
ENCODING 391
SWIDTH 1000 0
DWIDTH 16 0
BBX 16 16 0 -2
BITMAP
1110
1110
1110
fd12
1116
11dc
3910
3510
3510
5110
5110
9110
1110
1111
11d3
170e
ENDCHAR
STARTCHAR ch-393
ENCODING 393
SWIDTH 1000 0
DWIDTH 16 0
BBX 16 16 0 -2
BITMAP
1000
13fe
1020
fc20
1020
1020
3820
35fc
3420
5020
5020
9020
1020
1020
17ff
1000
ENDCHAR
STARTCHAR ch-395
ENCODING 395
SWIDTH 1000 0
DWIDTH 16 0
BBX 16 16 0 -2
BITMAP
1020
1020
1020
fdff
1040
1040
3840
347e
3442
5042
5042
9042
10c2
1086
1184
131c
ENDCHAR
STARTCHAR ch-396
ENCODING 396
SWIDTH 1000 0
DWIDTH 16 0
BBX 16 16 0 -2
BITMAP
1088
1088
118c
fd04
1306
1603
31fc
3844
3444
5444
5044
9044
10c4
108c
1188
1338
ENDCHAR
STARTCHAR ch-400
ENCODING 400
SWIDTH 1000 0
DWIDTH 16 0
BBX 16 16 0 -2
BITMAP
1006
101c
11f0
fd00
1100
11ff
3908
3508
3508
5108
5108
9108
1308
1208
1608
1008
ENDCHAR
STARTCHAR ch-405
ENCODING 405
SWIDTH 1000 0
DWIDTH 16 0
BBX 16 16 0 -2
BITMAP
1020
1020
1020
fdfe
1122
1122
3820
3420
3470
5050
5050
9050
10d0
1091
1193
130e
ENDCHAR
STARTCHAR ch-407
ENCODING 407
SWIDTH 1000 0
DWIDTH 16 0
BBX 16 16 0 -2
BITMAP
1010
1010
1010
fdff
1010
1010
3838
3438
3254
5054
5092
9111
1010
1010
1010
1010
ENDCHAR
STARTCHAR ch-410
ENCODING 410
SWIDTH 1000 0
DWIDTH 16 0
BBX 16 16 0 -2
BITMAP
1080
1080
1080
fdff
1104
1304
388c
3488
34d8
5050
5070
9020
1070
10d8
118c
1307
ENDCHAR
STARTCHAR ch-412
ENCODING 412
SWIDTH 1000 0
DWIDTH 16 0
BBX 16 16 0 -2
BITMAP
0000
3ffc
2104
2104
3ffc
2104
2104
3ffc
0100
ffff
0520
0d30
1918
310c
e107
0100
ENDCHAR
STARTCHAR ch-413
ENCODING 413
SWIDTH 1000 0
DWIDTH 16 0
BBX 16 16 0 -2
BITMAP
1010
1010
1010
fdff
1010
1010
39fe
3482
34c6
506c
5038
9010
1038
106c
10c6
1183
ENDCHAR
STARTCHAR ch-416
ENCODING 416
SWIDTH 1000 0
DWIDTH 16 0
BBX 16 16 0 -2
BITMAP
1040
1040
11f8
fc48
10c8
1889
3589
3307
3020
5020
53ff
9020
1020
1020
1020
1020
ENDCHAR
STARTCHAR ch-417
ENCODING 417
SWIDTH 1000 0
DWIDTH 16 0
BBX 16 16 0 -2
BITMAP
1024
10e4
1384
fc84
1084
1084
33ff
3884
3484
5484
5084
9084
1184
1104
1304
1604
ENDCHAR
STARTCHAR ch-418
ENCODING 418
SWIDTH 1000 0
DWIDTH 16 0
BBX 16 16 0 -2
BITMAP
1000
11ff
1100
fd00
1102
1166
3934
351c
3508
511c
5136
9162
1100
1100
11ff
1000
ENDCHAR
STARTCHAR ch-422
ENCODING 422
SWIDTH 1000 0
DWIDTH 16 0
BBX 16 16 0 -2
BITMAP
1000
13ff
1000
fc00
11fe
1102
3902
3502
35fe
5100
5100
9100
1100
1300
1200
1600
ENDCHAR
STARTCHAR ch-425
ENCODING 425
SWIDTH 1000 0
DWIDTH 16 0
BBX 16 16 0 -2
BITMAP
0100
0100
ffff
0520
0d30
391c
e107
0100
0420
0c30
381c
e407
0410
0c18
09ec
7f06
ENDCHAR
STARTCHAR ch-431
ENCODING 431
SWIDTH 1000 0
DWIDTH 16 0
BBX 16 16 0 -2
BITMAP
1010
1010
1010
fe10
11ff
1010
3810
3410
34fe
5082
5082
9082
1082
1082
10fe
1000
ENDCHAR
STARTCHAR ch-435
ENCODING 435
SWIDTH 1000 0
DWIDTH 16 0
BBX 16 16 0 -2
BITMAP
1000
11fe
1102
fd02
1102
1102
3902
3502
3502
51fe
5000
9000
1084
1084
1186
1303
ENDCHAR
STARTCHAR ch-436
ENCODING 436
SWIDTH 1000 0
DWIDTH 16 0
BBX 16 16 0 -2
BITMAP
1000
11fc
1104
fd04
1104
11fc
3800
3400
33fe
5042
5042
90c2
1082
1186
1304
161c
ENDCHAR
STARTCHAR ch-438
ENCODING 438
SWIDTH 1000 0
DWIDTH 16 0
BBX 16 16 0 -2
BITMAP
1000
103e
ff22
1122
1122
3122
2122
673e
c000
0100
ffff
0520
0d30
391c
e107
0100
ENDCHAR
STARTCHAR ch-439
ENCODING 439
SWIDTH 1000 0
DWIDTH 16 0
BBX 16 16 0 -2
BITMAP
2100
2100
2100
f90f
27e9
2129
7129
6929
a929
a129
2329
2229
2269
2649
244f
2dc0
ENDCHAR
STARTCHAR ch-440
ENCODING 440
SWIDTH 1000 0
DWIDTH 16 0
BBX 16 16 0 -2
BITMAP
1100
1100
1100
fffe
1202
1602
31f2
3912
3512
5512
5112
91f2
1002
1006
1004
101c
ENDCHAR
STARTCHAR ch-441
ENCODING 441
SWIDTH 1000 0
DWIDTH 16 0
BBX 16 16 0 -2
BITMAP
1080
1080
10fe
fd82
1102
13f2
3012
3812
3412
55f6
5104
911c
1100
1101
1183
10fe
ENDCHAR
STARTCHAR ch-449
ENCODING 449
SWIDTH 1000 0
DWIDTH 16 0
BBX 16 16 0 -2
BITMAP
1010
1010
1010
fdff
1101
1101
3840
3446
345c
5070
5040
9040
1040
1041
1063
103e
ENDCHAR
STARTCHAR ch-452
ENCODING 452
SWIDTH 1000 0
DWIDTH 16 0
BBX 16 16 0 -2
BITMAP
1000
17ff
1020
fc20
13fe
1222
3a22
3672
3252
52da
528a
9202
1202
1202
1202
120e
ENDCHAR
STARTCHAR ch-454
ENCODING 454
SWIDTH 1000 0
DWIDTH 16 0
BBX 16 16 0 -2
BITMAP
1020
1020
1020
fdfe
1000
1084
3884
3484
34cc
5048
5048
9048
1008
1008
13ff
1000
ENDCHAR
STARTCHAR ch-458
ENCODING 458
SWIDTH 1000 0
DWIDTH 16 0
BBX 16 16 0 -2
BITMAP
1080
1080
10f8
fd88
1318
10b0
3860
34f0
319c
5707
50e0
9030
1000
11c0
1070
1018
ENDCHAR
STARTCHAR ch-462
ENCODING 462
SWIDTH 1000 0
DWIDTH 16 0
BBX 16 16 0 -2
BITMAP
1084
1084
1084
fd84
117f
1104
3b04
3524
3134
5114
5104
9104
1104
1104
1104
111c
ENDCHAR
STARTCHAR ch-463
ENCODING 463
SWIDTH 1000 0
DWIDTH 16 0
BBX 16 16 0 -2
BITMAP
1010
1030
1020
fdfe
1102
1102
3902
3502
35fe
5102
5102
9102
1102
1102
11fe
1000
ENDCHAR
STARTCHAR ch-464
ENCODING 464
SWIDTH 1000 0
DWIDTH 16 0
BBX 16 16 0 -2
BITMAP
0420
0420
7ffe
0420
0420
07e0
0420
0420
07e0
0100
ffff
0520
0d30
391c
e107
0100
ENDCHAR
STARTCHAR ch-465
ENCODING 465
SWIDTH 1000 0
DWIDTH 16 0
BBX 16 16 0 -2
BITMAP
1084
1084
1084
fc84
13ff
1084
3884
3484
3484
50fc
5084
9084
1084
1084
1084
10fc
ENDCHAR
STARTCHAR ch-467
ENCODING 467
SWIDTH 1000 0
DWIDTH 16 0
BBX 16 16 0 -2
BITMAP
0080
3080
1bf8
c088
6088
0188
1909
7309
c607
0100
ffff
0540
0d60
3938
e10f
0100
ENDCHAR
STARTCHAR ch-468
ENCODING 468
SWIDTH 1000 0
DWIDTH 16 0
BBX 16 16 0 -2
BITMAP
0000
3ff8
0430
0240
7ffe
0284
0688
1c80
7080
0100
ffff
0520
0d30
391c
e107
0100
ENDCHAR
STARTCHAR ch-472
ENCODING 472
SWIDTH 1000 0
DWIDTH 16 0
BBX 16 16 0 -2
BITMAP
1000
13ff
1020
fc20
1060
1040
3840
34fe
3182
5382
5082
9082
1082
1082
10fe
1000
ENDCHAR
STARTCHAR ch-474
ENCODING 474
SWIDTH 1000 0
DWIDTH 16 0
BBX 16 16 0 -2
BITMAP
1010
1010
1010
fc10
11ff
1111
3911
3511
3511
51ff
5111
9111
1111
1111
1111
11ff
ENDCHAR
STARTCHAR ch-477
ENCODING 477
SWIDTH 1000 0
DWIDTH 16 0
BBX 16 16 0 -2
BITMAP
1006
101c
11f0
fd00
1100
11ff
3910
3510
3570
511c
5116
9113
1310
1210
1610
1010
ENDCHAR
STARTCHAR ch-478
ENCODING 478
SWIDTH 1000 0
DWIDTH 16 0
BBX 16 16 0 -2
BITMAP
1080
1080
1080
fdff
1120
1320
3820
343e
3420
5020
5020
903e
1020
1020
1020
1020
ENDCHAR
STARTCHAR ch-482
ENCODING 482
SWIDTH 1000 0
DWIDTH 16 0
BBX 16 16 0 -2
BITMAP
1006
101c
11f0
fd10
1110
1110
39ff
3510
3510
5118
5108
91c8
170c
1005
17f7
1002
ENDCHAR
STARTCHAR ch-484
ENCODING 484
SWIDTH 1000 0
DWIDTH 16 0
BBX 16 16 0 -2
BITMAP
1000
10fc
1084
fc84
1084
10fc
3884
3484
3484
50fc
5084
9084
1084
1084
13ff
1000
ENDCHAR
STARTCHAR ch-487
ENCODING 487
SWIDTH 1000 0
DWIDTH 16 0
BBX 16 16 0 -2
BITMAP
1006
103c
11e4
fd04
1124
1124
3924
3524
3524
5124
5124
9124
1126
132a
12fa
160b
ENDCHAR
STARTCHAR ch-489
ENCODING 489
SWIDTH 1000 0
DWIDTH 16 0
BBX 16 16 0 -2
BITMAP
1000
13ff
1220
fe20
1278
1248
3ac8
3618
3210
5238
522c
9266
12c3
1200
13ff
1000
ENDCHAR
STARTCHAR ch-492
ENCODING 492
SWIDTH 1000 0
DWIDTH 16 0
BBX 16 16 0 -2
BITMAP
0100
0100
ffff
0100
3ffc
2104
2914
2524
2104
3ffc
0540
0d60
1930
311c
e107
0100
ENDCHAR
STARTCHAR ch-494
ENCODING 494
SWIDTH 1000 0
DWIDTH 16 0
BBX 16 16 0 -2
BITMAP
1020
1020
1122
fd22
1122
1122
39fe
3420
3420
5020
5122
9122
1122
1122
1122
11fe
ENDCHAR
STARTCHAR ch-495
ENCODING 495
SWIDTH 1000 0
DWIDTH 16 0
BBX 16 16 0 -2
BITMAP
1000
13ff
1004
fc04
11e4
1124
3924
3524
3524
5124
51e4
9004
1004
1004
1004
101c
ENDCHAR
STARTCHAR ch-497
ENCODING 497
SWIDTH 1000 0
DWIDTH 16 0
BBX 16 16 0 -2
BITMAP
10c0
1060
1020
fc00
13fe
1020
3820
3420
3020
53fe
5020
9020
1020
1020
17ff
1000
ENDCHAR
STARTCHAR ch-499
ENCODING 499
SWIDTH 1000 0
DWIDTH 16 0
BBX 16 16 0 -2
BITMAP
2040
20c0
238f
fa49
2249
2249
7249
6a49
aa49
a249
2249
23c9
264f
2048
20c8
2188
ENDCHAR
STARTCHAR ch-500
ENCODING 500
SWIDTH 1000 0
DWIDTH 16 0
BBX 16 16 0 -2
BITMAP
0840
4846
4f7c
4840
4841
4f63
783e
c100
0100
ffff
0540
0d60
1930
311c
e107
0100
ENDCHAR
STARTCHAR ch-501
ENCODING 501
SWIDTH 1000 0
DWIDTH 16 0
BBX 16 16 0 -2
BITMAP
2000
27fe
2492
fc92
2492
2492
7492
6fff
6492
a492
a492
2492
2492
2492
2492
2496
ENDCHAR
STARTCHAR ch-507
ENCODING 507
SWIDTH 1000 0
DWIDTH 16 0
BBX 16 16 0 -2
BITMAP
0100
0100
ffff
0540
0d60
1930
311c
e007
1ff8
1008
1ff8
1008
1ff8
1008
ffff
0000
ENDCHAR
STARTCHAR ch-510
ENCODING 510
SWIDTH 1000 0
DWIDTH 16 0
BBX 16 16 0 -2
BITMAP
1000
11fe
1010
fc10
1010
1090
3890
349e
3490
5090
5090
9090
1090
1090
13ff
1000
ENDCHAR
STARTCHAR ch-511
ENCODING 511
SWIDTH 1000 0
DWIDTH 16 0
BBX 16 16 0 -2
BITMAP
1020
1020
1020
ffff
1020
1020
33fe
3a22
3622
5222
5222
9222
122e
1020
1020
1020
ENDCHAR
ENDFONT
