STARTFONT 2.1
FONT jis.jis7a00.24
SIZE 24 72 72
FONTBOUNDINGBOX 24 24 0 -3
STARTPROPERTIES 4
FONT_DESCENT 3
FONT_ASCENT 21
DEFAULT_CHAR 0
COPYRIGHT "Copyright (c) 1992 AT&T - All rights reserved."
ENDPROPERTIES
CHARS 179
STARTCHAR ch-0
ENCODING 0
SWIDTH 1000 0
DWIDTH 24 0
BBX 24 24 0 -3
BITMAP
018010
0fcc1c
fc03b8
0c00e0
0c03b8
0c3e18
0d8380
ffc306
0c7fff
0c0600
1e06e0
1d8cc0
1cc8c6
3cdfff
2c38c6
2cd8c6
6c18c6
4c18c6
8c18c6
0c18c6
0c18de
0c18cc
0c00c0
0c00c0
ENDCHAR
STARTCHAR ch-8
ENCODING 8
SWIDTH 1000 0
DWIDTH 24 0
BBX 24 24 0 -3
BITMAP
019018
0fdffc
fc1818
0c1818
0c1ff8
0c1818
0d9818
ffd818
0c1ff8
1c1818
1c0000
1e000c
1d3ffe
3d8180
2d8180
2c0180
6c0186
4c7fff
8c0180
0c0180
0c0180
0c0180
0c0180
0c0180
ENDCHAR
STARTCHAR ch-11
ENCODING 11
SWIDTH 1000 0
DWIDTH 24 0
BBX 24 24 0 -3
BITMAP
018000
0fd00c
fc1ffe
0c180c
0c180c
0c180c
0cd80c
fff80c
0c1ffc
0c0000
1c0000
1e000c
1dbffe
3cc180
2cc180
6c0180
4c0198
8c1ffc
0c0180
0c0180
0c0180
0c0186
0c7fff
0c0000
ENDCHAR
STARTCHAR ch-13
ENCODING 13
SWIDTH 1000 0
DWIDTH 24 0
BBX 24 24 0 -3
BITMAP
0180e4
0fd0c7
fc08c6
0c0ccc
0c06c8
0c06d0
0d80c0
ffd0c6
0c1fff
1c1806
1c1806
1e1806
1d1ffe
3d9806
2d9806
2c1806
6c1ffe
4c1806
8c1806
0c1806
0c1806
0c1806
0c183e
0c180c
ENDCHAR
STARTCHAR ch-14
ENCODING 14
SWIDTH 1000 0
DWIDTH 24 0
BBX 24 24 0 -3
BITMAP
019008
0fcc0e
fc060c
0c0618
0c0610
0c0020
0d9ffc
ffd80c
0c180c
0c180c
0c180c
1e180c
1d9ffc
1cc060
3cc460
2c0760
6c0660
4c0660
8c0662
0c0c62
0c0c62
0c1863
0c307f
0cc03e
ENDCHAR
STARTCHAR ch-20
ENCODING 20
SWIDTH 1000 0
DWIDTH 24 0
BBX 24 24 0 -3
BITMAP
018300
0fc300
fc0680
0c0680
0c0c40
0c0860
0d9830
fff01c
0c2fcf
0c4006
1c8060
1e3ff0
1d8060
3cc060
2cc0c0
2c04c0
6c0300
4c1988
8c5986
0c5823
0cd823
0d9830
0d9ff0
0c0fe0
ENDCHAR
STARTCHAR ch-23
ENCODING 23
SWIDTH 1000 0
DWIDTH 24 0
BBX 24 24 0 -3
BITMAP
018100
0fc1c0
fc0180
0c120c
0c1ffe
0c188c
0d988c
ffd88c
0c1ffc
0c188c
1e188c
1d188c
1d9ffc
3d8400
2c0670
6c0460
4c0866
8cffff
0c0060
0c0060
0c0060
0c0060
0c0060
0c0060
ENDCHAR
STARTCHAR ch-24
ENCODING 24
SWIDTH 1000 0
DWIDTH 24 0
BBX 24 24 0 -3
BITMAP
018e38
0fcc30
fc0c30
0c0c36
0c7fff
0c0c30
0d8c30
ffcc30
0c0ff0
1c0c30
1c0c30
1e0c30
1d0ff0
3d8c30
2d8c30
2c0c36
6c7fff
4c0000
8c0800
0c0e20
0c0c18
0c180c
0c300e
0c4006
ENDCHAR
STARTCHAR ch-25
ENCODING 25
SWIDTH 1000 0
DWIDTH 24 0
BBX 24 24 0 -3
BITMAP
0180e0
0fc0c0
fc00c6
0c3fff
0c00c0
0c00c0
0d84cc
ffc7fe
0c060c
1c360c
1c37fc
1e360c
1d360c
3db60c
2db7fc
2c360c
6c360c
4c360c
8c37fc
0c360c
0c3000
0c3006
0c3fff
0c3000
ENDCHAR
STARTCHAR ch-26
ENCODING 26
SWIDTH 1000 0
DWIDTH 24 0
BBX 24 24 0 -3
BITMAP
018400
0fc720
fc0638
0c0630
0c0c20
0c0846
0d9fff
ffd8c0
0c38c0
0c58c0
1c98cc
1e1ffe
1d98c0
3cd8c0
2cd8c0
2c18cc
6c1ffe
4c18c0
8c18c0
0c18c0
0c18c0
0c18c6
0c1fff
0c1800
ENDCHAR
STARTCHAR ch-28
ENCODING 28
SWIDTH 1000 0
DWIDTH 24 0
BBX 24 24 0 -3
BITMAP
0181c0
0fc180
fc018c
0c3ffe
0c0180
0c0180
0cc186
ffffff
0c0830
0c0e30
1c0c3f
1e181f
1d6400
3d8618
2d87fc
6c0c18
4c0a30
8c1230
0c6160
0c01c0
0c0370
0c063f
0c181e
0ce006
ENDCHAR
STARTCHAR ch-31
ENCODING 31
SWIDTH 1000 0
DWIDTH 24 0
BBX 24 24 0 -3
BITMAP
001c00
00180c
7ffffe
000000
0ffff0
0c0030
0c7e30
0c4230
0c4230
0c7e30
0c0030
0ffff0
000000
0001c0
003ff0
1ff800
001806
ffffff
007a00
00d980
0398f0
0e183f
f0180e
001800
ENDCHAR
STARTCHAR ch-32
ENCODING 32
SWIDTH 1000 0
DWIDTH 24 0
BBX 24 24 0 -3
BITMAP
034006
1fffff
f86006
1861c6
186186
186186
1b6ff6
ffe186
186186
186186
386ff6
3c6006
3a6006
3b67e6
7b6426
586426
586426
984426
18c7e6
18c006
188006
198006
19003e
1a000c
ENDCHAR
STARTCHAR ch-46
ENCODING 46
SWIDTH 1000 0
DWIDTH 24 0
BBX 24 24 0 -3
BITMAP
018018
0fc1fc
fc3f80
0c0180
0c0186
0c7fff
0d8180
ffc180
0c3ffc
0c318c
1e318c
1d3ffc
1db18c
3db18c
2c318c
2c3ffc
6c0180
4c018c
8c7ffe
0c0180
0c0180
0c0186
0cffff
0c0000
ENDCHAR
STARTCHAR ch-49
ENCODING 49
SWIDTH 1000 0
DWIDTH 24 0
BBX 24 24 0 -3
BITMAP
01801c
0fc1fe
fc3fc0
0c0204
0c2187
0c18c6
0d8ccc
ffcc08
0c0190
1c0180
1c1ffc
1e198c
1d198c
3d9ffc
3d998c
2c198c
6c198c
4c7fff
8c180c
0c180c
0c180c
0c180c
0c187c
0c1818
ENDCHAR
STARTCHAR ch-50
ENCODING 50
SWIDTH 1000 0
DWIDTH 24 0
BBX 24 24 0 -3
BITMAP
01801c
0fc1fe
fc3fc0
0c0104
0c1087
0c08c6
0d8cc6
ffcccc
0c0c08
1c0010
1c3a06
1f33ff
1db306
3db306
3db306
2c3306
6c33fe
4c3306
8c3306
0c3306
0c3306
0c3306
0c33fe
0c3306
ENDCHAR
STARTCHAR ch-55
ENCODING 55
SWIDTH 1000 0
DWIDTH 24 0
BBX 24 24 0 -3
BITMAP
01900c
0fdffe
fc188c
0c188c
0c1ffc
0c188c
0d988c
ffd88c
0c1ffc
0c0660
1c0c60
1e087f
1d143f
1da700
3d8618
2c0ffc
6c0818
4c1430
8c6360
0c01c0
0c0370
0c063f
0c180e
0c6006
ENDCHAR
STARTCHAR ch-59
ENCODING 59
SWIDTH 1000 0
DWIDTH 24 0
BBX 24 24 0 -3
BITMAP
01801c
0fc1fe
fc3fc0
0c0204
0c2107
0c1186
0d9986
ffd98c
0c1808
1c0010
1c0100
1e2786
1d3c3f
3db006
3db006
2c3006
6c3e3e
4c3006
8c3006
0c3006
0c3006
0c3006
0c3ffe
0c3006
ENDCHAR
STARTCHAR ch-60
ENCODING 60
SWIDTH 1000 0
DWIDTH 24 0
BBX 24 24 0 -3
BITMAP
0181c0
0fd180
fc1186
0c1fff
0c3004
0c3008
0d8004
ffdffe
0c0300
1c0608
1c0d0e
1e199c
1d63b0
3d86c0
2d8cc0
2c18e0
6c61e0
4c03d0
8c06d8
0c0ccf
0c30ce
0dc0c6
0c0fc0
0c0380
ENDCHAR
STARTCHAR ch-61
ENCODING 61
SWIDTH 1000 0
DWIDTH 24 0
BBX 24 24 0 -3
BITMAP
0183a0
0fc318
fc0308
0c0306
0c7fff
0c0660
0c8660
ffcc7f
0c183f
0c6c00
0c0ff8
1e0c00
1d8c00
1cc7fc
3cc000
2c100c
2c1ffe
6c180c
4c180c
8c1ffc
0c180c
0c180c
0c1ffc
0c180c
ENDCHAR
STARTCHAR ch-62
ENCODING 62
SWIDTH 1000 0
DWIDTH 24 0
BBX 24 24 0 -3
BITMAP
001c00
00180c
7ffffe
000000
03ffc0
020040
03ffc0
20000c
3ffffe
30000c
31ff8c
31008c
31ff8c
30003c
300398
003fc0
0ff800
001806
ffffff
007a00
01d9e0
0f187f
f0180e
001800
ENDCHAR
STARTCHAR ch-63
ENCODING 63
SWIDTH 1000 0
DWIDTH 24 0
BBX 24 24 0 -3
BITMAP
0181c0
0fc180
fc0186
0c7fff
0c0000
0c0818
0d8ffc
ffcc18
0c0c18
0c0ff8
1c0000
1e2006
1d3fff
3db006
2db006
2c33e6
6c3226
4c3226
8c3226
0c33e6
0c3006
0c3006
0c303e
0c300c
ENDCHAR
STARTCHAR ch-64
ENCODING 64
SWIDTH 1000 0
DWIDTH 24 0
BBX 24 24 0 -3
BITMAP
038218
0313fc
7ffb18
030318
030318
3ff318
400318
403218
7ffe1f
c0240f
c0c800
03e00c
3f0ffe
03020c
03320c
fff918
070198
0f80f0
0b6060
1b30f0
3331b8
63031f
83060e
031806
ENDCHAR
STARTCHAR ch-66
ENCODING 66
SWIDTH 1000 0
DWIDTH 24 0
BBX 24 24 0 -3
BITMAP
0181c0
0fc180
fc0186
0c7fff
0c0180
0c0180
0dbffc
fff18c
0c318c
0c318c
1c3ffc
1e318c
1d318c
3db18c
2dbffc
2c0200
6c0180
4c0cc8
8c4cc6
0c4c03
0ccc13
0d8c18
0d8ff8
0c07f0
ENDCHAR
STARTCHAR ch-67
ENCODING 67
SWIDTH 1000 0
DWIDTH 24 0
BBX 24 24 0 -3
BITMAP
0301c0
0fa180
fc2186
0c3fff
0c6006
0c6804
0d8c48
ffd830
0c1318
0c230c
1c468c
1e0640
1d0c60
3d8830
3d901c
2c200f
6cdff6
4c1830
8c1830
0c1830
0c1830
0c1830
0c1ff0
0c1830
ENDCHAR
STARTCHAR ch-70
ENCODING 70
SWIDTH 1000 0
DWIDTH 24 0
BBX 24 24 0 -3
BITMAP
018200
0fc380
fc130c
0c1ffe
0c180c
0c180c
0d9ffc
ffd80c
0c180c
0c1ffc
1e0180
1d899c
1d9d87
3c31b3
2cc1f8
2c03c0
6c1e10
4de038
8c00e0
0c0782
0c380f
0c007c
0c07c0
0cf800
ENDCHAR
STARTCHAR ch-73
ENCODING 73
SWIDTH 1000 0
DWIDTH 24 0
BBX 24 24 0 -3
BITMAP
034006
1fffff
f86006
186006
186006
187ffe
1b6006
ffe0c0
186edc
1860c0
186edc
3c60c0
3a6000
3b68e0
3b6ccc
784ffe
5848c0
58d0c0
9880c6
18bfff
1900c0
1a00c0
1800c0
1800c0
ENDCHAR
STARTCHAR ch-77
ENCODING 77
SWIDTH 1000 0
DWIDTH 24 0
BBX 24 24 0 -3
BITMAP
0181c0
0fc184
fc3ffe
0c0180
0c0188
0d9ffc
ffc180
0c0182
0c7fff
1c0000
1e1ff8
1d9818
3cd818
2cdff8
2c1818
6c1818
4c1ff8
8c1818
0c1818
0c1ff8
0c0400
0c0e38
0c180e
0c6006
ENDCHAR
STARTCHAR ch-78
ENCODING 78
SWIDTH 1000 0
DWIDTH 24 0
BBX 24 24 0 -3
BITMAP
380006
30cfff
33e060
3c0040
304486
3067ff
3fe606
1fc606
000606
00c7fe
07e606
7e0606
060606
0627fe
fff606
060606
0f0606
0ec606
1e67fe
366200
660398
860706
060c07
063003
ENDCHAR
STARTCHAR ch-79
ENCODING 79
SWIDTH 1000 0
DWIDTH 24 0
BBX 24 24 0 -3
BITMAP
01801c
0fc1fe
fc3fc8
0c020e
0c210c
0c1998
0d9990
ffc02c
0c3ffe
1c000c
1c000c
1e1ffc
1d000c
3d800c
3dbffc
2c000c
6c0100
4c0e88
8c2cc6
0c2cd3
0c6c13
0ccc18
0ccff8
0c07f0
ENDCHAR
STARTCHAR ch-80
ENCODING 80
SWIDTH 1000 0
DWIDTH 24 0
BBX 24 24 0 -3
BITMAP
018800
0fcc60
fc0ff0
0c1860
0c3040
0cfff8
0c2308
ffa308
0c3ff8
0c2308
1f2308
1dbff8
1d8300
3c7ffc
2c4304
2c4304
6c7ffc
4c4304
8c4304
0c7ffc
0c0302
0c0303
0c03ff
0c01fe
ENDCHAR
STARTCHAR ch-87
ENCODING 87
SWIDTH 1000 0
DWIDTH 24 0
BBX 24 24 0 -3
BITMAP
0181c0
0fc186
fc3fff
0c0180
0c1ffc
0c198c
0d998c
ffdffc
0c198c
1c198c
1c1ffc
1e0188
1d0184
3dbffe
3d9f06
2c0080
6c0640
4c1668
8c1666
0c3603
0c3613
0c6618
0c67f8
0c03f0
ENDCHAR
STARTCHAR ch-97
ENCODING 97
SWIDTH 1000 0
DWIDTH 24 0
BBX 24 24 0 -3
BITMAP
0301c0
0f818c
fc7ffe
0c0180
0c1188
0c1d8e
0d198c
ffb198
0c2d96
0c45a2
0c0180
1cffff
1e0000
1d200c
3dbffe
2db00c
6c33cc
4c324c
8c324c
0c324c
0c33cc
0c300c
0c3ffc
0c300c
ENDCHAR
STARTCHAR ch-98
ENCODING 98
SWIDTH 1000 0
DWIDTH 24 0
BBX 24 24 0 -3
BITMAP
0301c0
1f8180
f81d88
1819fc
181980
181982
1b7fff
ff8060
180066
184062
187fff
3c6060
3a6060
3b6fa2
3b6023
786232
586ab6
586a54
987298
18411a
18462a
18d86e
1880c7
190303
ENDCHAR
STARTCHAR ch-99
ENCODING 99
SWIDTH 1000 0
DWIDTH 24 0
BBX 24 24 0 -3
BITMAP
0181c0
0fc180
fc018c
0c7ffe
0c0800
0c0e30
0d0c0c
ff9a46
0c6246
0c1ff8
1e0240
1d8240
1cdff8
3cc240
2c0246
2c7fff
6c0644
4c0c46
8c1c2c
0c6430
0d84d8
0c3f1c
0c1c0f
0c1006
ENDCHAR
STARTCHAR ch-105
ENCODING 105
SWIDTH 1000 0
DWIDTH 24 0
BBX 24 24 0 -3
BITMAP
018038
0fc1fc
fc1f88
0c220e
0c199c
0c0890
0d9ffc
ffc080
0c0080
1c3ffe
1c0000
1e1ffc
1d000c
3d9ffc
3d800c
2c000c
6c1ffc
4c0100
8c06c8
0c1646
0c3613
0c661b
0c67f8
0c03f0
ENDCHAR
STARTCHAR ch-107
ENCODING 107
SWIDTH 1000 0
DWIDTH 24 0
BBX 24 24 0 -3
BITMAP
030738
1f8632
fc7fff
0c0630
0c1040
0c1864
0d1ffe
ffb840
0c3ffc
0c5840
1c9ffc
1e1840
1d1842
3d9fff
2d9800
2c000c
6c7ffe
4c081c
8c0438
0c0670
0c01c0
0c03f0
0c0e7f
0cf00e
ENDCHAR
STARTCHAR ch-112
ENCODING 112
SWIDTH 1000 0
DWIDTH 24 0
BBX 24 24 0 -3
BITMAP
0181c0
0fc186
fc7fff
0c0000
0c3e7c
0c2244
0da244
fffe7c
0c0420
0c3ffc
1e0420
1d0420
1dbffc
3d8420
2c0426
2cffff
6c0c88
4c188c
8c3858
0c6860
0d89b0
0c7e1f
0c380e
0c2006
ENDCHAR
STARTCHAR ch-116
ENCODING 116
SWIDTH 1000 0
DWIDTH 24 0
BBX 24 24 0 -3
BITMAP
001c00
001800
001800
101800
101806
1fffff
300006
300004
600008
600000
010100
01c100
018100
018080
038080
0300c0
030040
060060
060030
0c0038
08001c
10001f
20000e
c00004
ENDCHAR
STARTCHAR ch-118
ENCODING 118
SWIDTH 1000 0
DWIDTH 24 0
BBX 24 24 0 -3
BITMAP
001c00
101800
10180c
3ffffe
30c30c
60c308
618310
018300
0303fe
0601fe
387000
006000
006000
0060c0
7fffe0
0060c0
0060c0
00c0c0
00c0c0
0180c2
0300c2
0600c3
1800ff
e0007e
ENDCHAR
STARTCHAR ch-121
ENCODING 121
SWIDTH 1000 0
DWIDTH 24 0
BBX 24 24 0 -3
BITMAP
001c00
101800
10180c
3ffffe
30c30c
60c308
618300
0303fe
0c01fe
700000
000060
1ffff0
000060
080060
0fffe0
0c0000
0c0018
0ffffc
0c0018
000038
000030
000070
0003e0
0000c0
ENDCHAR
STARTCHAR ch-122
ENCODING 122
SWIDTH 1000 0
DWIDTH 24 0
BBX 24 24 0 -3
BITMAP
001c00
101800
10180c
3ffffe
30000c
610388
61c310
018300
038300
030300
0603fe
0c01fe
700000
000000
000030
1ffff8
001800
001800
001800
001800
001800
001806
ffffff
000000
ENDCHAR
STARTCHAR ch-125
ENCODING 125
SWIDTH 1000 0
DWIDTH 24 0
BBX 24 24 0 -3
BITMAP
001c00
101800
10180c
3ffffe
30c30c
60c308
618300
0303fe
0c01fe
700000
01c1c0
018180
018198
3ffffc
018180
018180
018186
ffffff
018180
030180
030180
060180
0c0180
300180
ENDCHAR
STARTCHAR ch-127
ENCODING 127
SWIDTH 1000 0
DWIDTH 24 0
BBX 24 24 0 -3
BITMAP
001c00
101800
101806
3fffff
31060c
61c610
638600
0707fe
1c03fe
e00000
000018
3ffffc
030180
030180
030180
030186
ffffff
003980
007180
00e180
038180
0e0180
700f80
000300
ENDCHAR
STARTCHAR ch-129
ENCODING 129
SWIDTH 1000 0
DWIDTH 24 0
BBX 24 24 0 -3
BITMAP
001c00
101800
101806
3fffff
30c30c
60c310
618302
030303
0603ff
1801fe
601c00
001800
001800
001806
ffffff
003400
003400
006200
006300
00c180
0180e0
07007f
1c001e
e00006
ENDCHAR
STARTCHAR ch-131
ENCODING 131
SWIDTH 1000 0
DWIDTH 24 0
BBX 24 24 0 -3
BITMAP
001c00
101800
101806
3fffff
31060c
61c610
638600
0707fe
0c03fe
300000
c00000
1c000c
183ffe
18830c
19c30c
1e030c
38030c
d8860c
18860c
18c41c
1fcc18
0f8838
0011f0
006060
ENDCHAR
STARTCHAR ch-132
ENCODING 132
SWIDTH 1000 0
DWIDTH 24 0
BBX 24 24 0 -3
BITMAP
001c00
101800
101806
1fffff
30830c
30e308
61c310
638300
0603fe
1881fe
60e000
01c000
018006
03ffff
063000
0c3010
303ff8
c03000
003004
003ffe
003000
003000
003000
003000
ENDCHAR
STARTCHAR ch-136
ENCODING 136
SWIDTH 1000 0
DWIDTH 24 0
BBX 24 24 0 -3
BITMAP
001c00
101800
10180c
3ffffe
30c30c
60c308
618300
0303fe
0c01fe
700000
020380
030300
46030c
281ffe
31030c
19830c
1b030c
02030c
04430c
08620c
11e61c
fe6418
7008f8
403030
ENDCHAR
STARTCHAR ch-146
ENCODING 146
SWIDTH 1000 0
DWIDTH 24 0
BBX 24 24 0 -3
BITMAP
101c00
10180c
3ffffe
310608
61c610
638600
0607fe
1803fe
600000
00000c
7ffffe
00c080
008060
0107b0
1ff818
0f0018
081c00
001830
1ffff8
001800
001800
001806
ffffff
000000
ENDCHAR
STARTCHAR ch-147
ENCODING 147
SWIDTH 1000 0
DWIDTH 24 0
BBX 24 24 0 -3
BITMAP
001c00
101800
101806
3fffff
310606
61c604
618608
0307fe
0643fe
187000
606000
004040
008030
3fffd8
1f8018
101000
000c20
08e618
08c60c
10c046
30c047
e0c063
c0ffe0
007fc0
ENDCHAR
STARTCHAR ch-149
ENCODING 149
SWIDTH 1000 0
DWIDTH 24 0
BBX 24 24 0 -3
BITMAP
001c00
101800
10180c
3ffffe
30c30c
60c308
618300
0303fe
0c01fe
700000
00e700
20c610
18c61c
0cc638
0cc660
00c700
00c6c0
07c670
fcc638
71861a
418602
030603
0e07ff
7003fe
ENDCHAR
STARTCHAR ch-150
ENCODING 150
SWIDTH 1000 0
DWIDTH 24 0
BBX 24 24 0 -3
BITMAP
001c00
101800
10180c
3ffffe
30c30c
60c308
618300
0303fe
0c1dfe
739800
031830
07fff8
0c1800
301800
001806
ffffff
000000
040060
07fff0
060060
060060
060060
07ffe0
060060
ENDCHAR
STARTCHAR ch-151
ENCODING 151
SWIDTH 1000 0
DWIDTH 24 0
BBX 24 24 0 -3
BITMAP
101c00
10180c
3ffffe
30c30c
60c308
618300
0323fe
0c39fe
703000
004000
1ffff8
181018
181918
189f98
185118
182318
185a18
198e18
181b18
183198
18c098
180018
1ffff8
180018
ENDCHAR
STARTCHAR ch-152
ENCODING 152
SWIDTH 1000 0
DWIDTH 24 0
BBX 24 24 0 -3
BITMAP
101c00
10180c
3ffffe
30c30c
60c308
618300
0303fe
0c01fe
700000
0fffe0
003060
003066
ffffff
006060
00c060
0fffe0
018000
030030
07fff8
1b0030
630030
030030
03fff0
030030
ENDCHAR
STARTCHAR ch-159
ENCODING 159
SWIDTH 1000 0
DWIDTH 24 0
BBX 24 24 0 -3
BITMAP
101c00
10180c
3ffffe
310608
61c610
638600
0707fe
0c03fe
380000
cffff8
0c0018
0c0018
0ffff8
0c0000
0c0700
0cc630
0cc630
18fff0
18c630
100600
33060c
23060c
c3fffc
03000c
ENDCHAR
STARTCHAR ch-169
ENCODING 169
SWIDTH 1000 0
DWIDTH 24 0
BBX 24 24 0 -3
BITMAP
001c00
101800
10180c
3ffffe
30c30c
60c308
6183fe
0301fe
0e0000
73ffc0
0300c0
031fc0
0310c0
2310cc
3ffffe
30000c
30000c
31ff8c
31818c
31818c
31ff8c
30000c
30007c
300018
ENDCHAR
STARTCHAR ch-170
ENCODING 170
SWIDTH 1000 0
DWIDTH 24 0
BBX 24 24 0 -3
BITMAP
101c00
101806
3fffff
30830c
60e310
61c300
0703fe
7801fe
000000
180380
0e0308
067ffc
c00300
700302
31ffff
040000
040380
080304
18fffe
f00300
700300
300302
3bffff
180000
ENDCHAR
STARTCHAR ch-174
ENCODING 174
SWIDTH 1000 0
DWIDTH 24 0
BBX 24 24 0 -3
BITMAP
101c00
10180c
3ffffe
30c308
60c310
618300
0303fe
0dc1fe
718000
1ff7fc
18300c
1ff20c
1833fc
183300
1ff30c
1833fe
18360c
fff60c
01b00c
03300c
0e301c
383018
c1f0f8
006030
ENDCHAR
STARTCHAR ch-175
ENCODING 175
SWIDTH 1000 0
DWIDTH 24 0
BBX 24 24 0 -3
BITMAP
001c00
101800
101806
3fffff
30c308
60c310
618300
0303fe
0c01fe
710200
008300
00c618
3ffffc
001800
001800
1ffff8
001800
001806
ffffff
000000
084210
10410c
70c186
60c186
ENDCHAR
STARTCHAR ch-176
ENCODING 176
SWIDTH 1000 0
DWIDTH 24 0
BBX 24 24 0 -3
BITMAP
101c00
10180c
3ffffe
30c30c
60c308
618300
0303fe
0c41fe
70e000
01ffc0
074380
3a2e00
017800
03c000
7e0060
07fff0
041800
081806
ffffff
001800
0e1838
0c1830
0ffff0
0c0030
ENDCHAR
STARTCHAR ch-182
ENCODING 182
SWIDTH 1000 0
DWIDTH 24 0
BBX 24 24 0 -3
BITMAP
101c00
10180c
3ffffe
30c30c
618308
6303fe
0c01fe
301800
07ffe0
041826
ffffff
041820
07ffe0
001800
0ffff0
081810
0ffff0
00c006
ffffff
0301c0
06c300
003fc0
00f0f0
1f0030
ENDCHAR
STARTCHAR ch-186
ENCODING 186
SWIDTH 1000 0
DWIDTH 24 0
BBX 24 24 0 -3
BITMAP
001c00
101800
10180c
3ffffe
61c308
638310
0703fe
1c01fe
e70000
0607fc
06660c
7ff60c
0607fc
06060c
06360c
fffffc
06060c
06060c
0d87fc
0cc232
0863b2
186733
300c3f
c0301e
ENDCHAR
STARTCHAR ch-191
ENCODING 191
SWIDTH 1000 0
DWIDTH 24 0
BBX 24 24 0 -3
BITMAP
101c00
10180c
3ffffe
30c30c
61c308
6383fe
0e01fe
700800
010c30
7f8ff8
631870
6634c0
644380
680670
64181f
66f1c6
631980
631ffc
632180
6f4180
661ff8
600180
600186
60ffff
ENDCHAR
STARTCHAR ch-195
ENCODING 195
SWIDTH 1000 0
DWIDTH 24 0
BBX 24 24 0 -3
BITMAP
201c00
201806
7fffff
c18606
c38604
0e03f0
701800
0ffff0
001806
ffffff
000000
0fffe0
083020
0fffe0
083020
0fffe0
003000
1ffff0
103010
1ffff2
103012
1ffff2
003003
001fff
ENDCHAR
STARTCHAR ch-196
ENCODING 196
SWIDTH 1000 0
DWIDTH 24 0
BBX 24 24 0 -3
BITMAP
101c00
10180c
3ffffe
30c30c
60c308
618300
0303fe
0c01fe
718000
17c7f0
180010
1fc7f0
180010
1ffff0
000000
0c1870
0fdf60
0c1860
0fdf62
0c1832
0c183a
fefe1e
70700f
404003
ENDCHAR
STARTCHAR ch-197
ENCODING 197
SWIDTH 1000 0
DWIDTH 24 0
BBX 24 24 0 -3
BITMAP
101c00
10180c
3ffffe
30c30c
61c308
638300
0603fe
1801fe
e70200
060380
3fe306
3063ff
3fe610
30651c
3fe918
060118
fff8b0
0c00b0
0fe060
086070
1860d8
10c19f
23c30e
418c06
ENDCHAR
STARTCHAR ch-199
ENCODING 199
SWIDTH 1000 0
DWIDTH 24 0
BBX 24 24 0 -3
BITMAP
201c00
201806
7fffff
c0c306
c38304
1c01f8
001800
7ffffe
001800
1ffff0
000000
3ffffc
30660c
37c3ec
30000c
3ffffc
080010
0ffff0
080010
0ffff0
080010
0ffff0
0380fe
7e000e
ENDCHAR
STARTCHAR ch-200
ENCODING 200
SWIDTH 1000 0
DWIDTH 24 0
BBX 24 24 0 -3
BITMAP
201c00
201806
7fffff
c18606
c38604
0e03f8
701800
0ffff0
001806
ffffff
000000
1ffff0
104410
1fc7f0
004400
3fc7f8
204408
2047f8
3fc408
20440a
2047fa
3fc003
007fff
003ffe
ENDCHAR
STARTCHAR ch-202
ENCODING 202
SWIDTH 1000 0
DWIDTH 24 0
BBX 24 24 0 -3
BITMAP
201c00
201806
7fffff
c18606
c38604
0e03f8
700000
0181c0
0fc18c
fc01fe
0c8180
4ccff8
2c8988
2d0968
ffca28
1c0808
1c3ffe
3e3186
2d3106
6db126
4db7f6
8c3316
0c301e
0c300c
ENDCHAR
STARTCHAR ch-203
ENCODING 203
SWIDTH 1000 0
DWIDTH 24 0
BBX 24 24 0 -3
BITMAP
001c00
001800
001800
001800
001800
001818
3ffffc
000080
0400e0
0200c0
0300c0
0100c0
018180
018180
018180
00c100
00c100
00c300
00c200
00c200
000400
000406
ffffff
000000
ENDCHAR
STARTCHAR ch-205
ENCODING 205
SWIDTH 1000 0
DWIDTH 24 0
BBX 24 24 0 -3
BITMAP
0000e0
0e00c0
0c00c0
0c00c0
0c00c0
0cc0c0
ffe0c0
0100c0
01c0c0
4180c6
219fff
2100c0
2100c0
3100c0
3100c0
3200c0
0200c0
03c0c0
fe00c0
7000c0
4000c0
0000c0
0000c0
0000c0
ENDCHAR
STARTCHAR ch-207
ENCODING 207
SWIDTH 1000 0
DWIDTH 24 0
BBX 24 24 0 -3
BITMAP
000018
0e007c
0c01f0
0c0fc0
0c00c0
0cc0c0
ffe0c0
0100c0
01c0c0
4180c0
2180c6
211fff
2100c0
3100c0
3100c0
3200c0
0200c0
03c0c0
fe00c0
7000c0
4000c0
0000c0
0000c0
0000c0
ENDCHAR
STARTCHAR ch-210
ENCODING 210
SWIDTH 1000 0
DWIDTH 24 0
BBX 24 24 0 -3
BITMAP
001c00
001800
001830
1ffff8
020080
0180e0
00c1c0
00c100
000206
ffffff
000060
000060
081860
0ffc60
0c1860
0c1860
0c1860
0ff860
0c1860
0c0060
000060
000060
0003e0
0000c0
ENDCHAR
STARTCHAR ch-211
ENCODING 211
SWIDTH 1000 0
DWIDTH 24 0
BBX 24 24 0 -3
BITMAP
000018
1c003c
1800f0
1803c0
181f80
198180
ffc180
02018c
039ffe
430180
230180
220180
220180
320186
323fff
340180
040180
058180
fe0182
700182
400182
000183
0001ff
0000fe
ENDCHAR
STARTCHAR ch-213
ENCODING 213
SWIDTH 1000 0
DWIDTH 24 0
BBX 24 24 0 -3
BITMAP
000820
1c0e20
180c20
180c20
180c10
198810
ffc810
021818
039008
43100c
233fff
222636
224630
320630
320630
340630
040c30
058c30
fe0c30
700830
401870
001060
0023e0
00c0c0
ENDCHAR
STARTCHAR ch-217
ENCODING 217
SWIDTH 1000 0
DWIDTH 24 0
BBX 24 24 0 -3
BITMAP
0001c0
0e0180
0c0180
0c0180
0c0180
0cc180
ffe186
0101ff
01c180
418180
218180
210180
210180
31118c
311ffe
32180c
02180c
03d80c
fe180c
70180c
40180c
00180c
001ffc
00180c
ENDCHAR
STARTCHAR ch-218
ENCODING 218
SWIDTH 1000 0
DWIDTH 24 0
BBX 24 24 0 -3
BITMAP
0000e0
1c00c0
1800c0
1808c0
1808c6
198fff
ffd806
021804
039808
430000
230006
223fff
2200c0
3200c0
3200c0
3400c0
0400c0
0580c0
fe00c0
7000c0
4000c0
0000c0
0007c0
000180
ENDCHAR
STARTCHAR ch-220
ENCODING 220
SWIDTH 1000 0
DWIDTH 24 0
BBX 24 24 0 -3
BITMAP
001c00
001800
001818
3ffffc
020100
0181c0
00c180
00c206
ffffff
000000
080030
0ffff8
0c1830
0c1830
0ffff0
0c1830
0c1830
0c1830
0ffff2
0c1832
0c1802
001803
001fff
000ffe
ENDCHAR
STARTCHAR ch-221
ENCODING 221
SWIDTH 1000 0
DWIDTH 24 0
BBX 24 24 0 -3
BITMAP
0e00e0
0c00c0
0c00c0
0c00c0
0cc0cc
ffeffe
000000
010008
01c00e
41840c
21840c
21820c
21020c
310218
310218
310318
320310
020310
020310
03c020
fe0020
700026
401fff
000000
ENDCHAR
STARTCHAR ch-223
ENCODING 223
SWIDTH 1000 0
DWIDTH 24 0
BBX 24 24 0 -3
BITMAP
001c00
001800
001830
1ffff8
020080
0180c0
008106
ffffff
000000
000000
07ffe0
060060
060060
07ffe0
060060
060060
07ffe0
000300
010302
01c302
038302
070303
1c03ff
e001fe
ENDCHAR
STARTCHAR ch-224
ENCODING 224
SWIDTH 1000 0
DWIDTH 24 0
BBX 24 24 0 -3
BITMAP
001c00
001800
001818
3ffffc
010180
008100
00c206
ffffff
000000
080030
0ffff8
0c0030
0c0030
0ffff0
0c0030
0c0030
0ffff0
001800
001806
ffffff
001800
001800
001800
001800
ENDCHAR
STARTCHAR ch-225
ENCODING 225
SWIDTH 1000 0
DWIDTH 24 0
BBX 24 24 0 -3
BITMAP
000000
1c0006
187fff
180180
180180
198100
ffc100
02120c
039ffe
43180c
23180c
22180c
22180c
32180c
321ffc
34180c
04180c
05980c
fe180c
70180c
40180c
001ffc
00180c
00180c
ENDCHAR
STARTCHAR ch-226
ENCODING 226
SWIDTH 1000 0
DWIDTH 24 0
BBX 24 24 0 -3
BITMAP
000200
1c0380
180310
180208
18040c
19bff6
ffdf06
001006
020400
438700
230618
230ffc
220980
321180
320186
347fff
040340
058340
fe0220
700630
400418
00081f
00100e
006006
ENDCHAR
STARTCHAR ch-227
ENCODING 227
SWIDTH 1000 0
DWIDTH 24 0
BBX 24 24 0 -3
BITMAP
000400
0e0700
0c0620
0c0418
0c880c
fffff6
003e06
022870
438e60
230c60
23187e
33343e
324700
320618
020ffc
040c18
059830
fe3460
7062c0
408380
0006e0
000c7f
00301e
00c006
ENDCHAR
STARTCHAR ch-229
ENCODING 229
SWIDTH 1000 0
DWIDTH 24 0
BBX 24 24 0 -3
BITMAP
001c00
001800
001830
1ffff8
010100
00c1c0
00c180
00020c
7ffffe
000000
07ffe0
061860
061860
07ffe0
061860
061860
07ffe0
001800
001830
1ffff8
001800
001806
ffffff
000000
ENDCHAR
STARTCHAR ch-230
ENCODING 230
SWIDTH 1000 0
DWIDTH 24 0
BBX 24 24 0 -3
BITMAP
0001c0
1c0180
180180
180186
187fff
198180
ffc180
02218c
03bffe
43318c
23318c
22318c
22318c
323ffc
32338c
3403c0
0407a0
0585a0
fe0d90
700998
40118f
00218e
00c186
000180
ENDCHAR
STARTCHAR ch-234
ENCODING 234
SWIDTH 1000 0
DWIDTH 24 0
BBX 24 24 0 -3
BITMAP
40600c
7ff7fe
62010c
620108
7fe118
602090
6020a0
7fe040
6200b0
62031f
626c0e
7ff006
600000
001c00
001818
3ffffc
000100
0201c0
018180
00c300
00c200
000406
ffffff
000000
ENDCHAR
STARTCHAR ch-237
ENCODING 237
SWIDTH 1000 0
DWIDTH 24 0
BBX 24 24 0 -3
BITMAP
001018
1c1ffc
181818
181818
181ff8
199818
ffd818
021818
039ff8
430600
230600
230c06
220fff
321806
323cc6
3459e6
041b06
059c06
fe1846
701866
401fe6
000fcc
00003c
000018
ENDCHAR
STARTCHAR ch-239
ENCODING 239
SWIDTH 1000 0
DWIDTH 24 0
BBX 24 24 0 -3
BITMAP
0001c0
1c398e
18318c
18318c
18318c
19b18c
fffffc
02300c
038000
430006
237fff
220300
220200
322406
323fff
343246
043246
05b246
fe3246
703246
403246
003246
00325e
00324c
ENDCHAR
STARTCHAR ch-240
ENCODING 240
SWIDTH 1000 0
DWIDTH 24 0
BBX 24 24 0 -3
BITMAP
004006
1c7fff
186000
186000
1b680c
ffeffe
0068c4
0468c4
8768c4
466ffc
4668c4
6668c4
6468c4
646ffc
0460c0
0760c0
fc40c4
70cffe
40c0c0
0080c0
0180c0
0100c6
023fff
000000
ENDCHAR
STARTCHAR ch-246
ENCODING 246
SWIDTH 1000 0
DWIDTH 24 0
BBX 24 24 0 -3
BITMAP
0700e0
0600c0
0630cc
7ffffe
008010
20c218
188110
091926
ffffff
000000
000000
3fe7fc
30660c
30660c
30660c
3fe7fc
118230
198b30
199330
19a332
11c632
338433
21083f
c0301e
ENDCHAR
STARTCHAR ch-248
ENCODING 248
SWIDTH 1000 0
DWIDTH 24 0
BBX 24 24 0 -3
BITMAP
0700e0
0600c0
0630cc
7ffffe
108210
088110
093126
ffffff
000000
000000
3fe7fc
30660c
30660c
3fe7fc
30660c
30660c
3fe7fc
118230
199330
19a332
11c632
338433
21083f
c0301e
ENDCHAR
STARTCHAR ch-249
ENCODING 249
SWIDTH 1000 0
DWIDTH 24 0
BBX 24 24 0 -3
BITMAP
040200
070380
060300
060300
0c0600
0c6606
0ff7ff
1b0c60
130860
331060
232060
434060
830060
030060
030060
030060
030060
030060
030060
030060
030060
030060
0303e0
0300c0
ENDCHAR
STARTCHAR ch-250
ENCODING 250
SWIDTH 1000 0
DWIDTH 24 0
BBX 24 24 0 -3
BITMAP
080200
0e0380
0c0300
0c0300
0c6606
1ff7ff
1a0480
110c40
318860
219030
418030
800000
000000
000030
1ffff8
000000
000000
000000
000000
000000
000000
000006
ffffff
000000
ENDCHAR
STARTCHAR ch-255
ENCODING 255
SWIDTH 1000 0
DWIDTH 24 0
BBX 24 24 0 -3
BITMAP
080200
0e0380
0c0300
186606
1ff7ff
340d00
2308c0
419060
818060
000018
3ffffc
001800
001800
001800
001806
ffffff
001800
001800
001800
001800
001800
001800
001800
001800
ENDCHAR
STARTCHAR ch-258
ENCODING 258
SWIDTH 1000 0
DWIDTH 24 0
BBX 24 24 0 -3
BITMAP
080200
0e0380
0c6306
1ff7ff
120480
210860
419030
818030
000000
007000
006000
0060c0
7fffe0
0060c0
0060c0
0660c0
01c0c0
00f0c0
00b8c2
019cc2
030cc2
0600c3
1800ff
e0007e
ENDCHAR
STARTCHAR ch-260
ENCODING 260
SWIDTH 1000 0
DWIDTH 24 0
BBX 24 24 0 -3
BITMAP
080200
0e0380
0c6306
1ff7ff
120480
210840
419060
818060
000018
3ffffc
018180
018180
018180
018186
ffffff
018180
018180
018180
018180
030180
030180
060180
0c0180
300180
ENDCHAR
STARTCHAR ch-262
ENCODING 262
SWIDTH 1000 0
DWIDTH 24 0
BBX 24 24 0 -3
BITMAP
080200
0e0380
0c6306
1ff7ff
120480
210840
419060
818060
100018
1ffffc
181818
181818
181818
181818
181818
1ffff8
180018
180000
180002
180002
180002
180003
1fffff
0ffffe
ENDCHAR
STARTCHAR ch-264
ENCODING 264
SWIDTH 1000 0
DWIDTH 24 0
BBX 24 24 0 -3
BITMAP
080200
0e0380
1c6706
1ff7ff
340c80
620860
831030
032030
000300
3fff80
00c300
00c300
00c330
01a7f8
01a630
019060
031860
030cc0
060780
0c0300
1807c0
301cff
c0703e
03800e
ENDCHAR
STARTCHAR ch-266
ENCODING 266
SWIDTH 1000 0
DWIDTH 24 0
BBX 24 24 0 -3
BITMAP
080200
0e0380
0c6306
1ff7ff
120480
210860
419060
818000
000078
081ffc
0ffc40
0c0040
0c1c40
0c1840
0c1840
0c1860
0c1820
0c1820
081830
081830
181818
10181f
20180e
c01806
ENDCHAR
STARTCHAR ch-267
ENCODING 267
SWIDTH 1000 0
DWIDTH 24 0
BBX 24 24 0 -3
BITMAP
080200
0e0380
0c6306
1ff7ff
120480
210860
419030
818030
000000
0ffff0
001830
001836
ffffff
001830
001830
001830
0ffff0
001830
001800
003000
003000
006000
00c000
030000
ENDCHAR
STARTCHAR ch-271
ENCODING 271
SWIDTH 1000 0
DWIDTH 24 0
BBX 24 24 0 -3
BITMAP
080200
0e0380
0c6306
1ff7ff
120480
210860
419030
818030
080000
0e0000
0c000c
0ffffe
18630c
10c30c
20c60c
41860c
030c1c
060c18
0c1818
303038
006030
018070
0e03e0
0000c0
ENDCHAR
STARTCHAR ch-273
ENCODING 273
SWIDTH 1000 0
DWIDTH 24 0
BBX 24 24 0 -3
BITMAP
100200
1c0380
180300
106206
3ff7ff
220440
410830
819030
018000
0000f0
001ff8
3ff800
001800
001806
ffffff
003400
003400
006200
006100
00c0c0
018070
07003f
1c001e
e00006
ENDCHAR
STARTCHAR ch-280
ENCODING 280
SWIDTH 1000 0
DWIDTH 24 0
BBX 24 24 0 -3
BITMAP
080200
0e0380
0c6306
1ff7ff
120480
210860
419030
818030
001c00
001800
001818
001ffc
001800
001800
081830
0ffff8
0c0030
0c0030
0c0030
0c0030
0c0030
0ffff0
0c0030
0c0030
ENDCHAR
STARTCHAR ch-281
ENCODING 281
SWIDTH 1000 0
DWIDTH 24 0
BBX 24 24 0 -3
BITMAP
080200
0e0380
0c6306
1ff7ff
120480
210860
419030
818030
041c00
071800
061800
0c1818
0ffffc
181800
101800
201800
401830
0ffff8
001800
001800
001800
001806
ffffff
000000
ENDCHAR
STARTCHAR ch-283
ENCODING 283
SWIDTH 1000 0
DWIDTH 24 0
BBX 24 24 0 -3
BITMAP
080200
0e0380
0c0300
186606
1ff7ff
320880
211040
41a060
818060
001c00
001800
101818
1ffffc
181818
181818
181818
181818
1ffff8
181818
181818
181818
181818
1ffff8
180018
ENDCHAR
STARTCHAR ch-286
ENCODING 286
SWIDTH 1000 0
DWIDTH 24 0
BBX 24 24 0 -3
BITMAP
080200
0e0380
0c6306
1ff7ff
140480
220860
431030
834030
007000
006040
00c030
008018
7fffec
3fc00e
200006
000000
080030
0ffff8
0c0030
0c0030
0c0030
0c0030
0ffff0
0c0030
ENDCHAR
STARTCHAR ch-288
ENCODING 288
SWIDTH 1000 0
DWIDTH 24 0
BBX 24 24 0 -3
BITMAP
080200
0e0380
0c0300
186606
1ff7ff
320c80
210840
419060
818060
001c00
001800
00180c
7ffffe
000080
0200e0
0100c0
0180c0
008080
00c180
00c100
00c100
000206
ffffff
000000
ENDCHAR
STARTCHAR ch-293
ENCODING 293
SWIDTH 1000 0
DWIDTH 24 0
BBX 24 24 0 -3
BITMAP
080400
0e0700
0c6606
1ff7ff
120d00
2188c0
409040
80000c
3ffffe
00000c
00030c
1fff8c
00000c
00000c
08060c
0fff0c
0c060c
0c060c
0c060c
0ffe0c
0c060c
0c000c
00007c
000018
ENDCHAR
STARTCHAR ch-294
ENCODING 294
SWIDTH 1000 0
DWIDTH 24 0
BBX 24 24 0 -3
BITMAP
080200
0e0380
0c0300
186606
1ff7ff
240900
4310c0
8300c0
000000
020070
038060
070066
067fff
0e0060
1e2060
361860
c60c60
060c60
060060
060060
060060
060060
0603e0
0600c0
ENDCHAR
STARTCHAR ch-296
ENCODING 296
SWIDTH 1000 0
DWIDTH 24 0
BBX 24 24 0 -3
BITMAP
080200
0e0380
0c6306
1ff7ff
120480
210860
419030
818030
001c00
001800
001806
ffffff
007a00
00d900
00d980
0198c0
031860
061838
0c199f
33ffce
c01806
001800
001800
001800
ENDCHAR
STARTCHAR ch-300
ENCODING 300
SWIDTH 1000 0
DWIDTH 24 0
BBX 24 24 0 -3
BITMAP
080200
0e0380
1c6306
1ff7ff
320480
618860
808020
1ffff8
001818
001818
101818
1ffff8
181818
181800
181806
3fffff
307806
30d806
01d806
03980c
06187c
181818
e01800
001800
ENDCHAR
STARTCHAR ch-307
ENCODING 307
SWIDTH 1000 0
DWIDTH 24 0
BBX 24 24 0 -3
BITMAP
080200
0e0380
0c6306
1ff7ff
110480
208860
40d030
80c030
070000
06020c
0633fe
7ffb0c
06330c
06330c
06330c
06330c
0c330c
0c330c
0c330c
08730c
1863fc
10630c
23e30c
c0c000
ENDCHAR
STARTCHAR ch-309
ENCODING 309
SWIDTH 1000 0
DWIDTH 24 0
BBX 24 24 0 -3
BITMAP
080200
0e0380
0c6306
1ff7ff
120480
210860
419030
818030
100000
0e2018
063ffc
803018
703018
313018
023018
043018
0c30f8
183030
f03002
703002
303002
303003
383fff
181ffe
ENDCHAR
STARTCHAR ch-310
ENCODING 310
SWIDTH 1000 0
DWIDTH 24 0
BBX 24 24 0 -3
BITMAP
080200
0e0380
0c6306
1ff7ff
120480
218860
419030
840030
070000
060030
0ffff8
081800
101800
201800
001806
ffffff
003400
006200
006300
00c180
0180e0
03007e
0c003c
70000c
ENDCHAR
STARTCHAR ch-313
ENCODING 313
SWIDTH 1000 0
DWIDTH 24 0
BBX 24 24 0 -3
BITMAP
080400
0e0700
0c0600
0c660c
1ff7fe
1a0d00
3188c0
20d060
40c060
800000
071c70
061860
061866
ffffff
061860
061860
061860
061860
061fe0
061860
060000
06000c
07fffe
060000
ENDCHAR
STARTCHAR ch-325
ENCODING 325
SWIDTH 1000 0
DWIDTH 24 0
BBX 24 24 0 -3
BITMAP
080200
0e0380
0c6306
1ff7ff
120480
218860
408030
841c30
071800
061830
0ffff8
081800
101800
001806
ffffff
00c300
00c300
00c300
01c300
018302
038302
070303
1c03ff
e001fe
ENDCHAR
STARTCHAR ch-326
ENCODING 326
SWIDTH 1000 0
DWIDTH 24 0
BBX 24 24 0 -3
BITMAP
080200
0e0380
1c6306
1ff7ff
320c80
619060
818060
001800
1ffff8
001818
00181a
ffffff
001818
001818
1ffff8
001800
001808
3ffffc
001800
001802
ffffff
001800
001800
001800
ENDCHAR
STARTCHAR ch-328
ENCODING 328
SWIDTH 1000 0
DWIDTH 24 0
BBX 24 24 0 -3
BITMAP
080200
0e0380
1c6306
1ff7ff
320480
210860
419060
818180
001fc0
0ff800
001800
001806
ffffff
001800
001800
081830
0ffff8
0c0030
0c0030
0c0030
0c0030
0ffff0
0c0030
0c0030
ENDCHAR
STARTCHAR ch-329
ENCODING 329
SWIDTH 1000 0
DWIDTH 24 0
BBX 24 24 0 -3
BITMAP
100200
1c0380
186306
3ff7ff
240480
430860
831c60
001800
1ffff8
001800
001800
001806
ffffff
000180
000180
00018c
7ffffe
000180
020180
018180
00c180
00c180
000f80
000300
ENDCHAR
STARTCHAR ch-331
ENCODING 331
SWIDTH 1000 0
DWIDTH 24 0
BBX 24 24 0 -3
BITMAP
080200
0e0380
0c0300
186706
1ff7ff
320c80
218870
419030
8021c0
1fc180
18c18c
18dffe
18c18c
1fc18c
18c18c
18c18c
18c18c
1fc30c
18c30c
10c20c
30c61c
20c418
47c8f8
81b030
ENDCHAR
STARTCHAR ch-332
ENCODING 332
SWIDTH 1000 0
DWIDTH 24 0
BBX 24 24 0 -3
BITMAP
080200
0e0380
0c6306
1ff7ff
120480
210860
418030
819830
003800
007400
00e300
0181c0
0700f8
1c003f
e3ffce
001800
001800
001860
0ffff0
001800
001800
00180c
7ffffe
000000
ENDCHAR
STARTCHAR ch-333
ENCODING 333
SWIDTH 1000 0
DWIDTH 24 0
BBX 24 24 0 -3
BITMAP
080200
0e0380
0c6306
1ff7ff
120480
218860
419030
840030
070000
06000c
0ffffe
0c000c
18000c
27fe0c
c6060c
06060c
07fe0c
06060c
06061c
07fe18
060618
000038
0001f0
000060
ENDCHAR
STARTCHAR ch-335
ENCODING 335
SWIDTH 1000 0
DWIDTH 24 0
BBX 24 24 0 -3
BITMAP
100400
1c0700
186606
1fffff
320880
219070
41a030
840e80
070c60
0e0c20
0c0c0c
180ffe
3bfe00
580620
980638
180370
1803e0
180180
1803c2
1806e2
180c72
18303f
19c01f
180006
ENDCHAR
STARTCHAR ch-336
ENCODING 336
SWIDTH 1000 0
DWIDTH 24 0
BBX 24 24 0 -3
BITMAP
080200
0e0380
0c6306
1ff7ff
120480
218860
409020
a0000c
3ffffe
300000
300020
31fff0
300c00
300c00
300c20
31fff0
300c00
300c00
300c10
33fff8
300000
300006
3fffff
300000
ENDCHAR
STARTCHAR ch-337
ENCODING 337
SWIDTH 1000 0
DWIDTH 24 0
BBX 24 24 0 -3
BITMAP
080400
0e0700
0c0600
18cc06
1fefff
341900
2210c0
432060
834060
000000
00c830
7feff8
060c30
060c30
060c30
060e30
060d30
060db0
06cdb0
071832
fc1832
703033
40603f
01801e
ENDCHAR
STARTCHAR ch-338
ENCODING 338
SWIDTH 1000 0
DWIDTH 24 0
BBX 24 24 0 -3
BITMAP
080200
0e0380
0c6306
1ff7ff
1a0480
318860
619060
800000
3ffffc
30000c
30000c
33ffcc
30000c
30000c
31018c
31ffcc
31818c
31818c
31818c
31ff8c
31818c
30000c
30007c
300018
ENDCHAR
STARTCHAR ch-340
ENCODING 340
SWIDTH 1000 0
DWIDTH 24 0
BBX 24 24 0 -3
BITMAP
100100
1c01c0
186186
1ff3ff
340240
220420
431830
833830
003400
006200
00c100
0180c0
030070
06ff3f
0c001e
300006
c40060
07fff0
060060
060060
060060
060060
07ffe0
060060
ENDCHAR
STARTCHAR ch-342
ENCODING 342
SWIDTH 1000 0
DWIDTH 24 0
BBX 24 24 0 -3
BITMAP
080400
0e0700
0c660c
1ffffe
120900
2110c0
41a060
019c60
001806
ffffff
001800
101818
1ffffc
181818
183818
183c18
187c78
18da30
019980
0318e0
06187f
18181e
e01806
001800
ENDCHAR
STARTCHAR ch-349
ENCODING 349
SWIDTH 1000 0
DWIDTH 24 0
BBX 24 24 0 -3
BITMAP
080200
0e0380
0c6306
1ff7ff
120480
218860
408030
810330
01ff80
030600
060430
0ffff8
301830
001836
ffffff
001830
001830
1ffff0
001830
001800
001800
001800
00f800
003000
ENDCHAR
STARTCHAR ch-357
ENCODING 357
SWIDTH 1000 0
DWIDTH 24 0
BBX 24 24 0 -3
BITMAP
080200
0e0380
0c6306
1ff7ff
120480
210860
419030
818030
000000
0ffff0
0c0030
0c0030
0c0030
0ffff0
003000
002000
104018
1ffffc
180018
180018
180018
180018
1ffff8
180018
ENDCHAR
STARTCHAR ch-359
ENCODING 359
SWIDTH 1000 0
DWIDTH 24 0
BBX 24 24 0 -3
BITMAP
080200
0e0380
0c6306
1ff7ff
120480
218860
419030
800030
07ffe0
060060
060060
07ffe0
060060
060060
07ffe0
060060
060060
07ffe0
010602
01c602
038602
070603
1c07ff
e003fe
ENDCHAR
STARTCHAR ch-364
ENCODING 364
SWIDTH 1000 0
DWIDTH 24 0
BBX 24 24 0 -3
BITMAP
080200
0e0380
0c6306
1ff7ff
120440
210830
419030
818e00
000cc0
100c4c
1ffffe
180600
180610
18661c
1ff318
186330
1861b0
1861e2
18e0c2
30c1e2
37c372
218c3f
40301f
800006
ENDCHAR
STARTCHAR ch-366
ENCODING 366
SWIDTH 1000 0
DWIDTH 24 0
BBX 24 24 0 -3
BITMAP
080200
0e0380
0c6306
1ff7ff
120480
210860
419030
818030
000000
000018
3ffffc
001800
041840
071870
061860
0c1860
0b18d8
11988c
21990c
001800
001800
001806
ffffff
000000
ENDCHAR
STARTCHAR ch-368
ENCODING 368
SWIDTH 1000 0
DWIDTH 24 0
BBX 24 24 0 -3
BITMAP
080200
0e0380
0c6306
1ff7ff
120480
210860
419030
818030
020800
038e00
071c0c
061ffe
0c3600
1c6600
3cc60c
6d07fe
8c0600
0c0600
0c0606
0c07ff
0c0600
0c0600
0c0600
0c0600
ENDCHAR
STARTCHAR ch-369
ENCODING 369
SWIDTH 1000 0
DWIDTH 24 0
BBX 24 24 0 -3
BITMAP
080200
0e0380
0c6306
1ff7ff
120480
210860
419030
818430
080700
0e0600
0c0606
0dcfff
198820
199438
39a430
398260
598360
9981c0
198080
1981c0
198370
19863f
180c1e
183006
ENDCHAR
STARTCHAR ch-372
ENCODING 372
SWIDTH 1000 0
DWIDTH 24 0
BBX 24 24 0 -3
BITMAP
080200
0e0380
0c6306
1ff7ff
120480
210860
418030
819c30
001806
ffffff
081840
0e1870
0c1860
0b18d0
19b488
11b50c
20320c
006200
006100
00c180
0180e0
03007e
0c003c
70000c
ENDCHAR
STARTCHAR ch-373
ENCODING 373
SWIDTH 1000 0
DWIDTH 24 0
BBX 24 24 0 -3
BITMAP
080400
0e0700
0c660c
1ffffe
120900
2110c0
41a040
018018
0601fc
ff3f80
0c0180
180180
18398c
3331fe
7fb180
633180
033180
263186
16ffff
0c0000
0b0000
11ffff
203ffe
c00000
ENDCHAR
STARTCHAR ch-378
ENCODING 378
SWIDTH 1000 0
DWIDTH 24 0
BBX 24 24 0 -3
BITMAP
080200
0e0380
0c6306
1ff7ff
120480
218860
409020
a0000c
3ffffe
300000
300020
31fff0
300c00
300c20
31fff0
300c00
300c80
300c60
300c20
33fff8
300000
300006
3fffff
300000
ENDCHAR
STARTCHAR ch-390
ENCODING 390
SWIDTH 1000 0
DWIDTH 24 0
BBX 24 24 0 -3
BITMAP
080200
0e0380
0c6306
1ff7ff
120480
218860
408020
8ffff8
0c1818
0c3618
0c6198
0d8198
0c0018
000000
0e0700
0c0618
0c663c
0ff6e0
0c0702
0c0602
0ce602
ff0603
7807ff
4003fe
ENDCHAR
STARTCHAR ch-391
ENCODING 391
SWIDTH 1000 0
DWIDTH 24 0
BBX 24 24 0 -3
BITMAP
080200
0e0380
1c6306
1ff7ff
320680
618c60
819060
20000c
3ffffe
30000c
301c0c
30188c
33ffcc
30180c
30180c
31ff8c
31818c
31818c
31818c
31ff8c
31818c
30000c
3ffffc
30000c
ENDCHAR
STARTCHAR ch-395
ENCODING 395
SWIDTH 1000 0
DWIDTH 24 0
BBX 24 24 0 -3
BITMAP
080200
0e0380
0c6306
1ff7ff
120480
218860
419030
800430
00e300
00c10c
7ffffe
006080
0033c0
001c08
01e78c
7e00fc
00e600
00c206
7fffff
006080
0033c0
001c04
01e786
7e00fe
ENDCHAR
STARTCHAR ch-397
ENCODING 397
SWIDTH 1000 0
DWIDTH 24 0
BBX 24 24 0 -3
BITMAP
080200
0e0380
0c6306
1ff7ff
120480
210860
419030
818030
0e200c
0c3ffe
0db000
fff0e0
0c30c0
0c37fc
0c34c4
0db4c4
1e34c4
fc34dc
6c34cc
4c30c0
0c30c0
0c3006
7c3fff
183000
ENDCHAR
STARTCHAR ch-399
ENCODING 399
SWIDTH 1000 0
DWIDTH 24 0
BBX 24 24 0 -3
BITMAP
080200
0e0380
0c6306
1ff7ff
120440
218830
419030
8001c0
001fe0
0ff840
042060
063080
1ffff8
001818
00181a
ffffff
001818
001818
1ffff8
001800
001800
001800
00f800
003000
ENDCHAR
STARTCHAR ch-402
ENCODING 402
SWIDTH 1000 0
DWIDTH 24 0
BBX 24 24 0 -3
BITMAP
080200
0e0380
0c6306
1ff7ff
120480
218860
419060
800000
0ffff0
000010
0ffff0
000010
0ffff0
200006
3fffff
601806
c01804
cffff0
0c1830
0c1830
0c1830
0c19f0
0c1860
001800
ENDCHAR
STARTCHAR ch-404
ENCODING 404
SWIDTH 1000 0
DWIDTH 24 0
BBX 24 24 0 -3
BITMAP
100200
1c0380
186306
3ff7ff
240480
430860
831030
100230
0c0380
060300
86220c
603ffe
30300c
31300c
02300c
04300c
0c3ffc
18300c
f0300c
70300c
30300c
303ffc
38300c
18300c
ENDCHAR
STARTCHAR ch-405
ENCODING 405
SWIDTH 1000 0
DWIDTH 24 0
BBX 24 24 0 -3
BITMAP
080200
0e0380
0c6306
1ff7ff
110480
20c860
40c060
818180
01818c
7ffffe
018180
018180
01ff80
018180
018180
01ff80
018180
018186
ffffff
00c000
01e0c0
038038
0e001c
70000c
ENDCHAR
STARTCHAR ch-407
ENCODING 407
SWIDTH 1000 0
DWIDTH 24 0
BBX 24 24 0 -3
BITMAP
080400
0e0700
0c660c
1ff7fe
1a0d00
3188c0
609040
87ffe0
060060
060060
07ffe0
060060
060060
07ffe0
060060
060060
07ffe0
00c300
00c306
ffffff
018300
030300
0c0300
700300
ENDCHAR
STARTCHAR ch-408
ENCODING 408
SWIDTH 1000 0
DWIDTH 24 0
BBX 24 24 0 -3
BITMAP
080200
0e0380
0c6306
1ff7ff
120480
218860
409020
a0000c
3ffffe
30000c
30070c
31ff8c
30180c
3018cc
37ffec
303c0c
307b0c
30d98c
3118cc
3618cc
30180c
30000c
3ffffc
30000c
ENDCHAR
STARTCHAR ch-409
ENCODING 409
SWIDTH 1000 0
DWIDTH 24 0
BBX 24 24 0 -3
BITMAP
080200
0e0380
0c6306
1ff7ff
120480
218860
419060
800000
21880c
3fcffe
318c0c
318c0c
318c3c
3f8c18
318c00
318ffe
318c86
3f8c8c
318c4c
318c58
218c30
618c58
4f8d8f
830c06
ENDCHAR
STARTCHAR ch-410
ENCODING 410
SWIDTH 1000 0
DWIDTH 24 0
BBX 24 24 0 -3
BITMAP
080200
0e0380
0c6306
1ff7ff
120480
218860
40d030
80c030
030000
03000e
06c1cc
0c318c
18198c
30d98c
cfe18c
00018c
20318c
3ff98c
30318c
30300c
30300c
30300c
3ff07c
303018
ENDCHAR
STARTCHAR ch-412
ENCODING 412
SWIDTH 1000 0
DWIDTH 24 0
BBX 24 24 0 -3
BITMAP
080200
0e0380
0c6306
1ff7ff
120440
218830
418030
901c00
10180c
3ffffe
31030c
61c308
618300
0303fe
0c01fe
700000
000060
0ffff0
001800
001800
001800
001806
ffffff
000000
ENDCHAR
STARTCHAR ch-413
ENCODING 413
SWIDTH 1000 0
DWIDTH 24 0
BBX 24 24 0 -3
BITMAP
080200
0e0380
0c6306
1ff7ff
120480
210860
419030
818030
000000
0e0e1c
0c0c18
0d8c18
ffffff
0c0c18
0c0c18
0c0c18
0d8c18
fe0ff8
7c0c18
4c0c18
0c0c18
0c0c18
7c0ff8
180c18
ENDCHAR
STARTCHAR ch-415
ENCODING 415
SWIDTH 1000 0
DWIDTH 24 0
BBX 24 24 0 -3
BITMAP
080200
0e0380
0c6306
1ff7ff
120480
218860
409020
800000
0ffff0
0c0030
0c0030
0ffff0
0c0030
0c0030
0ffff0
000000
0e070c
0c061e
0ff670
0c0782
0c0602
ffe603
7c07ff
4003fe
ENDCHAR
STARTCHAR ch-417
ENCODING 417
SWIDTH 1000 0
DWIDTH 24 0
BBX 24 24 0 -3
BITMAP
080200
0e0380
1c6306
1ff7ff
320c80
619060
818060
201c00
201806
7fffff
600006
c20184
c3ffc8
030180
030180
03ff80
030000
030060
03fff0
030060
030060
030060
03ffe0
030060
ENDCHAR
STARTCHAR ch-426
ENCODING 426
SWIDTH 1000 0
DWIDTH 24 0
BBX 24 24 0 -3
BITMAP
080200
0e0380
0c6306
1ff7ff
120480
2308c0
4310c0
904020
0c3038
061870
061880
0ffff0
0c1830
0c1830
0ffff0
0c1830
0c1830
0ffff0
001800
001806
ffffff
001800
001800
001800
ENDCHAR
STARTCHAR ch-429
ENCODING 429
SWIDTH 1000 0
DWIDTH 24 0
BBX 24 24 0 -3
BITMAP
080200
0e0380
0c6306
1ff7ff
120440
218830
409110
840180
030100
010206
ffffff
000000
10601c
1ff398
186318
186318
1fe318
186318
186318
1fe318
186318
186018
19e0f8
18c030
ENDCHAR
STARTCHAR ch-433
ENCODING 433
SWIDTH 1000 0
DWIDTH 24 0
BBX 24 24 0 -3
BITMAP
080200
0e0380
1c6306
1ff3ff
320680
210440
418860
819060
06040c
0607fe
06660c
fff60c
06060c
0e07fc
0f060c
1ec60c
16660c
3667fc
26060c
46060c
86060c
06060c
0607fc
06060c
ENDCHAR
STARTCHAR ch-436
ENCODING 436
SWIDTH 1000 0
DWIDTH 24 0
BBX 24 24 0 -3
BITMAP
080200
0e0380
0c6306
1ff7ff
120440
210830
419030
818e00
000cc0
200c4c
3ffffe
300600
300610
33f61c
300318
300330
33f1b0
3211e2
3210c2
33f1e2
200372
600c3f
40301f
800006
ENDCHAR
STARTCHAR ch-440
ENCODING 440
SWIDTH 1000 0
DWIDTH 24 0
BBX 24 24 0 -3
BITMAP
080400
0e0700
0c6606
1fffff
140900
2310e0
430060
807080
0060e0
1fffc0
006180
006306
ffffff
001800
007000
01c060
07fff0
1b0060
e30060
03ffe0
030060
030060
03ffe0
030060
ENDCHAR
STARTCHAR ch-448
ENCODING 448
SWIDTH 1000 0
DWIDTH 24 0
BBX 24 24 0 -3
BITMAP
100200
1c0380
186306
1ff7ff
340480
220840
431060
830060
10620c
1ff3fe
18630c
18630c
1fe30c
18630c
18630c
1fe30c
18630c
18830c
18430c
18630c
19b37c
7e3318
380300
200300
ENDCHAR
STARTCHAR ch-449
ENCODING 449
SWIDTH 1000 0
DWIDTH 24 0
BBX 24 24 0 -3
BITMAP
080200
0e0380
0c6306
1ff7ff
120480
218860
41a060
803000
07ffe0
060060
060060
07ffe0
060060
060060
07ffe0
000008
3ffffc
001800
001810
1ffff8
001800
001806
ffffff
000000
ENDCHAR
STARTCHAR ch-452
ENCODING 452
SWIDTH 1000 0
DWIDTH 24 0
BBX 24 24 0 -3
BITMAP
100200
1c0380
186306
1ff7ff
320480
218860
418060
030000
03020c
7ffbfe
03030c
3ff30c
23130c
23130c
3ff30c
23133c
231318
3ff300
030300
030302
ffff02
030303
0303ff
0301fe
ENDCHAR
STARTCHAR ch-454
ENCODING 454
SWIDTH 1000 0
DWIDTH 24 0
BBX 24 24 0 -3
BITMAP
080200
0e0380
0c6306
1ff7ff
120480
218860
408030
81ffb0
018180
030300
03ff00
000606
ffffff
007000
01c020
073038
385870
019cc0
062e00
384d80
018ce0
0e0c7e
707c1c
001800
ENDCHAR
STARTCHAR ch-455
ENCODING 455
SWIDTH 1000 0
DWIDTH 24 0
BBX 24 24 0 -3
BITMAP
100400
18c60c
1feffe
340900
2310c0
412046
bfffff
000000
000000
1ffff8
180018
180018
1ffff8
180000
180000
17fffc
16210c
16210c
37fffc
26210c
66210c
46210c
86217c
060018
ENDCHAR
STARTCHAR ch-457
ENCODING 457
SWIDTH 1000 0
DWIDTH 24 0
BBX 24 24 0 -3
BITMAP
100200
1c0380
186306
3ff7ff
340d00
6330c0
810040
000830
7fcff8
060c32
060a32
06d9b3
ff10bf
70201e
40dc00
001806
ffffff
007a00
00d900
0198c0
07187f
1c181e
e01806
001800
ENDCHAR
STARTCHAR ch-459
ENCODING 459
SWIDTH 1000 0
DWIDTH 24 0
BBX 24 24 0 -3
BITMAP
080200
0e0380
0c6306
1ff7ff
120480
218860
409020
a0000c
3ffffe
300c00
300c00
37fffc
310c20
310c20
338c70
32da98
345908
303180
3060e0
31807c
360018
300006
3fffff
300000
ENDCHAR
STARTCHAR ch-460
ENCODING 460
SWIDTH 1000 0
DWIDTH 24 0
BBX 24 24 0 -3
BITMAP
080200
0e0380
0c6306
1ff7ff
120480
218860
419060
800000
043fe0
070060
06006c
0cfffe
0c2000
183000
183ff8
382300
584306
99ffff
180680
180c40
180c60
181838
18301f
19c006
ENDCHAR
STARTCHAR ch-463
ENCODING 463
SWIDTH 1000 0
DWIDTH 24 0
BBX 24 24 0 -3
BITMAP
080200
0e0380
0c6306
1ff7ff
120480
210860
419030
818030
000400
39c700
31860c
ffe7fe
31840c
318c08
3189d0
319180
3f8180
318180
318340
318320
318238
3f861f
318c0e
003006
ENDCHAR
STARTCHAR ch-477
ENCODING 477
SWIDTH 1000 0
DWIDTH 24 0
BBX 24 24 0 -3
BITMAP
080200
0e0380
0c6306
1ff7ff
120480
218860
408020
810088
3ffffc
010080
1ffff8
010082
ffffff
001800
0ffff0
0c1830
0ffff0
0c1830
0c1836
ffffff
0c0030
0c0030
0c01f0
0c0060
ENDCHAR
STARTCHAR ch-480
ENCODING 480
SWIDTH 1000 0
DWIDTH 24 0
BBX 24 24 0 -3
BITMAP
100200
1c0380
186306
1ff7ff
320c80
619060
888420
0e060c
0c07fe
0dcc18
198a30
199160
3981c0
398370
598c1f
99b186
198180
19ffff
1983a0
198790
198d98
18198f
186186
180180
ENDCHAR
STARTCHAR ch-484
ENCODING 484
SWIDTH 1000 0
DWIDTH 24 0
BBX 24 24 0 -3
BITMAP
100400
1c0700
186606
1ff7ff
340d00
2308c0
4310c0
880018
0ffffc
0c1800
0c1800
0ffff0
0c1800
0c1800
0ffff0
0c1800
0c180c
0ffffe
20000c
22220c
63330c
c11118
c00078
000030
ENDCHAR
STARTCHAR ch-485
ENCODING 485
SWIDTH 1000 0
DWIDTH 24 0
BBX 24 24 0 -3
BITMAP
080200
0e0380
0c6306
1ff7ff
320480
418860
008020
7ffffe
00c300
20c30c
3ffffe
30c30c
30c30c
3ffffc
30180c
001800
ffffff
007a00
00f900
01d8c0
071878
1c183f
e0180e
001800
ENDCHAR
STARTCHAR ch-486
ENCODING 486
SWIDTH 1000 0
DWIDTH 24 0
BBX 24 24 0 -3
BITMAP
080200
0e0380
0c6306
1ff7ff
120480
218860
41a060
803000
0ffff0
0c0030
0cc330
0c3c30
0cc330
0c0030
0ffff0
000000
0e0700
0c6610
0ff678
0c07c2
0c0602
ffe603
7c07ff
4003fe
ENDCHAR
STARTCHAR ch-489
ENCODING 489
SWIDTH 1000 0
DWIDTH 24 0
BBX 24 24 0 -3
BITMAP
080200
0e0380
0c6306
1ff7ff
120480
218860
419060
080000
4d8006
7fdfff
6180c0
6180c0
6188c6
7f8fff
600cc6
600cc6
7f8cc6
618cc6
618cc6
618cde
618ccc
7f80c0
6180c0
0000c0
ENDCHAR
STARTCHAR ch-493
ENCODING 493
SWIDTH 1000 0
DWIDTH 24 0
BBX 24 24 0 -3
BITMAP
080200
0e0380
0c6306
1ff7ff
120880
218060
419c60
801800
1ffff8
020080
0180c0
008106
ffffff
000000
0ffff0
0c1830
0c1830
0ffff0
0c1832
0c1832
0ffff2
0c1803
001803
000ffe
ENDCHAR
STARTCHAR ch-499
ENCODING 499
SWIDTH 1000 0
DWIDTH 24 0
BBX 24 24 0 -3
BITMAP
080200
0e0380
0c6306
1ff7ff
120480
218860
408020
9ffff8
101808
1ffff8
101808
101808
1ffff8
0318c0
0318c6
ffffff
0318c0
0318c0
3ffffc
001800
001800
1ffff8
001800
001800
ENDCHAR
STARTCHAR ch-502
ENCODING 502
SWIDTH 1000 0
DWIDTH 24 0
BBX 24 24 0 -3
BITMAP
100200
1c0380
186306
3ff7ff
240480
430860
810020
3ffffc
001800
071ff0
061800
061806
ffffff
060000
07fff0
060000
06000c
07fffe
10020c
12218c
33189c
630818
6000f8
000030
ENDCHAR
STARTCHAR ch-503
ENCODING 503
SWIDTH 1000 0
DWIDTH 24 0
BBX 24 24 0 -3
BITMAP
100200
1c0380
186306
3ff7ff
240c80
431060
810020
000400
000ff0
701860
1c64c0
0c0380
000c70
00311f
0ccfe6
fe0100
0c0fe0
0c0100
0c7ffc
0c0100
1a0100
f1ffff
607ffe
400000
ENDCHAR
ENDFONT
