STARTFONT 2.1
FONT jis.jis8400.24
SIZE 24 72 72
FONTBOUNDINGBOX 24 24 0 -3
STARTPROPERTIES 4
FONT_DESCENT 3
FONT_ASCENT 21
DEFAULT_CHAR 3
COPYRIGHT "Copyright (c) 1992 AT&T - All rights reserved."
ENDPROPERTIES
CHARS 146
STARTCHAR ch-3
ENCODING 3
SWIDTH 1000 0
DWIDTH 24 0
BBX 24 24 0 -3
BITMAP
01c1c0
018180
018186
ffffff
018180
018180
001c00
001818
3ffffc
020080
0300c0
060180
050140
098230
109810
001806
ffffff
001800
001800
001800
001800
001800
001800
001800
ENDCHAR
STARTCHAR ch-4
ENCODING 4
SWIDTH 1000 0
DWIDTH 24 0
BBX 24 24 0 -3
BITMAP
00e380
00c300
00c306
ffffff
00c300
08c300
0e0000
0c0018
0ffffc
190018
118418
23fe18
426018
046118
1fff98
006018
006018
0c6318
0c6318
0fff18
0c0318
000030
0001f0
000060
ENDCHAR
STARTCHAR ch-7
ENCODING 7
SWIDTH 1000 0
DWIDTH 24 0
BBX 24 24 0 -3
BITMAP
01c1c0
018186
ffffff
018180
018180
040060
07fff0
060000
060000
07ffe0
060000
060000
07ffe0
060000
060006
ffffff
060820
060470
060680
060300
0639c0
3fc0fe
1e003c
10000c
ENDCHAR
STARTCHAR ch-11
ENCODING 11
SWIDTH 1000 0
DWIDTH 24 0
BBX 24 24 0 -3
BITMAP
01c1c0
018186
ffffff
018180
018180
001818
3ffffc
001800
001830
1ffff8
001832
ffffff
001830
001830
1ffff0
006000
00c006
ffffff
0180c0
030180
06e700
003e00
00e3f8
3f0038
ENDCHAR
STARTCHAR ch-12
ENCODING 12
SWIDTH 1000 0
DWIDTH 24 0
BBX 24 24 0 -3
BITMAP
00e380
00c300
00c306
ffffff
00c300
00c300
000000
20c40c
3fe7fe
30c60c
30c60c
30c60c
30c7fc
3fc60c
30c60c
30c60c
30c7fc
30c60c
3fc60c
30cc0c
300c0c
00180c
00307c
00c018
ENDCHAR
STARTCHAR ch-13
ENCODING 13
SWIDTH 1000 0
DWIDTH 24 0
BBX 24 24 0 -3
BITMAP
01c1c0
018180
018186
ffffff
018180
018180
100000
0c000c
06fffe
060300
804308
60230c
312318
323310
043320
0c0306
19ffff
f80300
700300
300300
300300
300300
380300
180300
ENDCHAR
STARTCHAR ch-14
ENCODING 14
SWIDTH 1000 0
DWIDTH 24 0
BBX 24 24 0 -3
BITMAP
00e380
00c306
ffffff
00c300
00c1e0
000ff0
1ffe00
001806
ffffff
007a00
00d980
0398f0
0e183f
f0400e
007000
00e006
ffffff
0380c0
0701c0
0ef380
0c0f00
003cf0
01e03c
7e000c
ENDCHAR
STARTCHAR ch-19
ENCODING 19
SWIDTH 1000 0
DWIDTH 24 0
BBX 24 24 0 -3
BITMAP
01c1c0
018180
018186
ffffff
018180
018180
201c00
201806
7fffff
600006
c00004
c40060
07fff0
060060
060060
07ffe0
060060
060060
07ffe0
060060
060060
060066
ffffff
000000
ENDCHAR
STARTCHAR ch-32
ENCODING 32
SWIDTH 1000 0
DWIDTH 24 0
BBX 24 24 0 -3
BITMAP
01c1c0
018180
018186
ffffff
018180
018180
000000
20c20c
3fe3fe
30c30c
30c30c
30c30c
3fc3fc
30c30c
30c30c
30c30c
3fc3fc
30c30c
30c30c
30c30c
20c20c
60c60c
47c47c
818818
ENDCHAR
STARTCHAR ch-34
ENCODING 34
SWIDTH 1000 0
DWIDTH 24 0
BBX 24 24 0 -3
BITMAP
01c1c0
018180
018186
ffffff
018180
019180
101c00
0c1800
06100c
063ffe
80200c
60400c
327f8c
34818c
04018c
08218c
183f9c
f83018
7030f8
303032
303002
303003
383fff
181ffe
ENDCHAR
STARTCHAR ch-41
ENCODING 41
SWIDTH 1000 0
DWIDTH 24 0
BBX 24 24 0 -3
BITMAP
00e380
00c300
00c306
ffffff
00c300
000300
00c000
07e1c0
7e0180
060188
06098e
06c98c
ffe998
0619a0
0f1980
0ec140
1e6340
166320
360220
260630
460418
86081f
06100e
066006
ENDCHAR
STARTCHAR ch-42
ENCODING 42
SWIDTH 1000 0
DWIDTH 24 0
BBX 24 24 0 -3
BITMAP
01c1c0
018180
018186
ffffff
018180
018180
00601c
03f218
7e0198
0600d8
0660d8
fff418
060318
060198
0f0198
0ec018
1e601a
166fff
260018
460018
860018
060018
060018
060018
ENDCHAR
STARTCHAR ch-44
ENCODING 44
SWIDTH 1000 0
DWIDTH 24 0
BBX 24 24 0 -3
BITMAP
01c1c0
018180
018186
ffffff
018180
018180
0ffff0
0c1830
0c1830
0ffff0
0c1830
0c1830
0ffff0
001800
20180c
3ffffe
30180c
30190c
30188c
37ffcc
33e0cc
32000c
30007c
300018
ENDCHAR
STARTCHAR ch-49
ENCODING 49
SWIDTH 1000 0
DWIDTH 24 0
BBX 24 24 0 -3
BITMAP
01c1c0
018186
ffffff
018180
018180
201c00
201806
7fffff
600006
c00004
c7ffe8
000000
000000
07ffe0
060060
060060
07ffe0
060060
060060
07ffe0
000000
000006
ffffff
000000
ENDCHAR
STARTCHAR ch-53
ENCODING 53
SWIDTH 1000 0
DWIDTH 24 0
BBX 24 24 0 -3
BITMAP
01c1c0
018180
018186
ffffff
018180
018180
07ffe0
060060
062060
063fe0
063060
26306c
3ffffe
30000c
31018c
31ffcc
31818c
31818c
31818c
31ff8c
31818c
30000c
30007c
300018
ENDCHAR
STARTCHAR ch-56
ENCODING 56
SWIDTH 1000 0
DWIDTH 24 0
BBX 24 24 0 -3
BITMAP
01c1c0
018180
018186
ffffff
018180
018180
001c00
081830
0ffff8
0c1830
0c1830
0c1830
0ffff0
0c1830
0c1830
0c1830
0ffff0
0c3430
007200
00e180
01c0e0
07007f
1c001e
e00006
ENDCHAR
STARTCHAR ch-60
ENCODING 60
SWIDTH 1000 0
DWIDTH 24 0
BBX 24 24 0 -3
BITMAP
01c1c0
018186
ffffff
018180
018180
000000
1fe7f8
186618
186618
1fe7f8
000000
000000
0ffff0
000000
000006
ffffff
030000
030030
07fff8
060030
000070
0000e0
0007c0
000180
ENDCHAR
STARTCHAR ch-61
ENCODING 61
SWIDTH 1000 0
DWIDTH 24 0
BBX 24 24 0 -3
BITMAP
01c1c0
018180
018186
ffffff
018180
018980
200e00
180c30
0c1ff8
0c1030
812860
6146c0
320380
3206e0
040c7f
0c181e
186006
399ff0
f01830
701830
301830
301830
381ff0
181830
ENDCHAR
STARTCHAR ch-70
ENCODING 70
SWIDTH 1000 0
DWIDTH 24 0
BBX 24 24 0 -3
BITMAP
01c1c0
018180
018186
ffffff
018180
018180
040000
074018
067ffc
0c6018
0c6018
186018
187ff8
386318
580300
980306
1bffff
180f40
181b20
183338
18631f
18c30e
1b0306
180300
ENDCHAR
STARTCHAR ch-73
ENCODING 73
SWIDTH 1000 0
DWIDTH 24 0
BBX 24 24 0 -3
BITMAP
00e380
00c30c
7ffffe
00c300
00c300
0738e0
0630c0
0630c6
ffffff
0630c0
0630c0
063fc0
060018
07fffc
001800
001804
7ffffe
007a00
00d900
0198c0
071878
1c181f
e01806
001800
ENDCHAR
STARTCHAR ch-78
ENCODING 78
SWIDTH 1000 0
DWIDTH 24 0
BBX 24 24 0 -3
BITMAP
00e380
00c306
ffffff
00c300
00c000
080380
0e0318
1c7ffc
180318
32031a
63ffff
870318
060318
0c7ff8
180300
380308
58fffc
980300
180302
19ffff
180300
180300
180300
180300
ENDCHAR
STARTCHAR ch-87
ENCODING 87
SWIDTH 1000 0
DWIDTH 24 0
BBX 24 24 0 -3
BITMAP
01c380
018300
018306
ffffff
018300
018340
003870
003060
0fffc0
003180
003306
ffffff
000c00
003000
00c060
03fff0
1f0060
e30060
03ffe0
030060
030060
030060
03ffe0
030060
ENDCHAR
STARTCHAR ch-91
ENCODING 91
SWIDTH 1000 0
DWIDTH 24 0
BBX 24 24 0 -3
BITMAP
00e380
00c306
ffffff
00c300
00c300
0ffff0
0c0030
0c0030
0ffff0
0c0030
0c0030
0ffff0
01c000
03800c
07fffe
0c000c
1f060c
361f0c
c6700c
07820c
060318
07ff18
03fef8
000030
ENDCHAR
STARTCHAR ch-97
ENCODING 97
SWIDTH 1000 0
DWIDTH 24 0
BBX 24 24 0 -3
BITMAP
00e380
00c306
ffffff
00c300
08c300
0e0000
0c000c
1ffffe
18060c
30220c
2fff8c
40200c
87ff0c
04210c
04210c
07ff0c
04210c
04210c
07ff0c
04210c
04210c
042718
042378
000030
ENDCHAR
STARTCHAR ch-98
ENCODING 98
SWIDTH 1000 0
DWIDTH 24 0
BBX 24 24 0 -3
BITMAP
01c1c0
018180
018186
ffffff
018180
018180
003800
003006
ffffff
006200
00c100
01a0c0
031870
0e0c3f
380c1e
c00006
0ffff0
0cc630
0cc630
0cc630
0cc630
0cc636
ffffff
000000
ENDCHAR
STARTCHAR ch-99
ENCODING 99
SWIDTH 1000 0
DWIDTH 24 0
BBX 24 24 0 -3
BITMAP
01c380
018306
ffffff
018300
0180c0
001fe0
0ff800
00180c
7ffffe
001800
0ffff0
0c1830
0c1830
0ffff0
0c1830
0c1830
0ffff0
001800
001818
3ffffc
001800
001806
ffffff
000000
ENDCHAR
STARTCHAR ch-102
ENCODING 102
SWIDTH 1000 0
DWIDTH 24 0
BBX 24 24 0 -3
BITMAP
01c1c0
018186
ffffff
018180
01b980
003060
1ffff0
003060
003066
ffffff
000000
07ffe0
060060
060060
07ffe0
000600
000630
0ffff8
030600
030606
ffffff
000600
000600
000600
ENDCHAR
STARTCHAR ch-105
ENCODING 105
SWIDTH 1000 0
DWIDTH 24 0
BBX 24 24 0 -3
BITMAP
01c1c0
018180
018186
ffffff
018180
018180
080000
0c100c
081ffe
51988c
7fd88c
61988c
61988c
61988c
7f988c
619ffc
61980c
619800
619802
7f9802
619802
601803
001fff
000ffe
ENDCHAR
STARTCHAR ch-107
ENCODING 107
SWIDTH 1000 0
DWIDTH 24 0
BBX 24 24 0 -3
BITMAP
01c1c0
018180
018186
ffffff
018180
018180
000000
07020c
0603fe
06330c
fffb0c
06030c
0603fc
06030c
26c30c
3fe30c
30c3fc
30c30c
30c30c
30c20c
30c60c
3fc40c
30c87c
301018
ENDCHAR
STARTCHAR ch-108
ENCODING 108
SWIDTH 1000 0
DWIDTH 24 0
BBX 24 24 0 -3
BITMAP
00e380
00c306
ffffff
00c300
00c300
00000c
7ffffe
030608
06661c
07f670
0c6780
18c602
658603
0307ff
0603fe
180000
60c180
00c186
ffffff
018180
018180
030180
060180
380180
ENDCHAR
STARTCHAR ch-109
ENCODING 109
SWIDTH 1000 0
DWIDTH 24 0
BBX 24 24 0 -3
BITMAP
01c1c0
018186
ffffff
018180
018180
000000
20600c
3ff7fe
30600c
30600c
30600c
3fe7fc
306000
30000c
300ffe
30c20c
3fe218
300118
3001b0
3060e0
3ff1b0
30031c
30060f
301806
ENDCHAR
STARTCHAR ch-110
ENCODING 110
SWIDTH 1000 0
DWIDTH 24 0
BBX 24 24 0 -3
BITMAP
01c1c0
018186
ffffff
018180
018180
000000
00c430
23e7f8
3e0630
300630
308630
3fcc3f
30081f
301000
308018
3fcffc
300418
300230
31c360
fe01c0
780360
300638
300c1f
303006
ENDCHAR
STARTCHAR ch-111
ENCODING 111
SWIDTH 1000 0
DWIDTH 24 0
BBX 24 24 0 -3
BITMAP
00e1c0
00c180
00c186
ffffff
00c180
04c180
060400
040700
490606
3187ff
1b0c06
1a0806
049006
084206
ffe186
7e60c6
4600c6
070006
46c00e
76600c
66600c
46001c
8600f8
060030
ENDCHAR
STARTCHAR ch-113
ENCODING 113
SWIDTH 1000 0
DWIDTH 24 0
BBX 24 24 0 -3
BITMAP
00e380
00c300
00c306
ffffff
00c300
02c300
030018
07fffc
0c6318
184218
37e618
c13c18
060f38
183330
00c070
0303e0
0010c0
01cc10
11860c
118646
218043
e18063
c1ffe0
00ffc0
ENDCHAR
STARTCHAR ch-117
ENCODING 117
SWIDTH 1000 0
DWIDTH 24 0
BBX 24 24 0 -3
BITMAP
01c1c0
018180
018186
ffffff
018180
018180
001840
0ff870
003c68
10728e
0ce10c
0d80c8
030670
0cff3f
30180e
c01806
001830
1ffff8
003400
006200
00c1c0
0180fe
06003c
38000c
ENDCHAR
STARTCHAR ch-119
ENCODING 119
SWIDTH 1000 0
DWIDTH 24 0
BBX 24 24 0 -3
BITMAP
01c1c0
018186
ffffff
018180
218180
200006
7fffff
600006
c01804
dffff8
001800
0ffff0
0c1830
0c1830
0ffff0
0c1830
0c1830
0ffff0
001800
001806
ffffff
001800
001800
001800
ENDCHAR
STARTCHAR ch-121
ENCODING 121
SWIDTH 1000 0
DWIDTH 24 0
BBX 24 24 0 -3
BITMAP
01c1c0
018180
018186
ffffff
018180
018180
0e0400
0c0700
0cc606
ffefff
180800
181060
19a744
1fc65e
198664
1987c4
198e44
11b65c
31864c
318642
230602
630603
4f07ff
8603fe
ENDCHAR
STARTCHAR ch-122
ENCODING 122
SWIDTH 1000 0
DWIDTH 24 0
BBX 24 24 0 -3
BITMAP
00e380
00c306
ffffff
00c300
00c300
07ffe0
060060
060060
07ffe0
000006
ffffff
0300c0
0300c0
03ffc0
0300c0
0300c0
03ffc0
0300c6
0300ff
03ffc0
fe00c0
0000c0
0000c0
0000c0
ENDCHAR
STARTCHAR ch-130
ENCODING 130
SWIDTH 1000 0
DWIDTH 24 0
BBX 24 24 0 -3
BITMAP
01c1c0
018186
ffffff
018180
018180
001c00
00180c
7ffffe
010100
008180
20c100
204206
7fffff
601806
c01804
c81830
0ffff8
0c1830
0c1830
0c1830
0c1830
0c19f0
0c1860
001800
ENDCHAR
STARTCHAR ch-132
ENCODING 132
SWIDTH 1000 0
DWIDTH 24 0
BBX 24 24 0 -3
BITMAP
01c1c0
018180
018186
ffffff
018180
218180
200006
7fffff
600006
c04004
dfe038
000032
0017ff
7ff830
0cc230
0cc330
0cc130
0cc030
08c030
18c1f2
10c062
10c003
20ffff
c07ffe
ENDCHAR
STARTCHAR ch-139
ENCODING 139
SWIDTH 1000 0
DWIDTH 24 0
BBX 24 24 0 -3
BITMAP
00e380
00c300
00c306
ffffff
00c300
00c300
07001c
0601fe
467f84
260207
362186
3618c4
360cc8
060c30
060032
06ffff
0e0030
f61030
660c30
460630
060630
060030
0601f0
060060
ENDCHAR
STARTCHAR ch-144
ENCODING 144
SWIDTH 1000 0
DWIDTH 24 0
BBX 24 24 0 -3
BITMAP
01c1c0
018180
018186
ffffff
018180
01a180
003800
083030
0ffff8
0c1830
0c1830
0ffff0
0c1830
0c1830
0ffff0
00cc80
00ccc0
018c90
018c90
030ffa
060d8a
0c0c03
300fff
c007fe
ENDCHAR
STARTCHAR ch-148
ENCODING 148
SWIDTH 1000 0
DWIDTH 24 0
BBX 24 24 0 -3
BITMAP
00e380
00c306
ffffff
00c300
00c300
000000
4301c0
7f818c
633ffe
630180
630180
630186
637fff
7f0030
630030
637fff
630030
631030
630c30
7f0630
630630
600030
0001f0
000060
ENDCHAR
STARTCHAR ch-153
ENCODING 153
SWIDTH 1000 0
DWIDTH 24 0
BBX 24 24 0 -3
BITMAP
00e380
00c306
ffffff
00c300
10c300
100006
3fffff
600004
67ffc8
000000
00000c
7ffffe
00e020
019038
033870
0c6c80
70ce00
031d00
0c2d80
70cce0
030c7e
0c1c3c
70f80c
003000
ENDCHAR
STARTCHAR ch-156
ENCODING 156
SWIDTH 1000 0
DWIDTH 24 0
BBX 24 24 0 -3
BITMAP
00e380
00c300
00c306
ffffff
00c300
00c300
000018
1fc3fc
000000
000000
003006
ffffff
0300c0
0300c0
2340c0
3b24d0
3337cc
3336c6
230cc7
6308c3
4310c3
8320c0
1f07c0
060180
ENDCHAR
STARTCHAR ch-159
ENCODING 159
SWIDTH 1000 0
DWIDTH 24 0
BBX 24 24 0 -3
BITMAP
01c1c0
018180
018186
ffffff
018180
018180
000800
0e0e00
0c0c06
0c8fff
ffd806
001006
4228c6
238fe6
230cc6
330cc6
330cc6
320fc6
020cc6
03c00e
fe000c
70001c
4000f8
000030
ENDCHAR
STARTCHAR ch-161
ENCODING 161
SWIDTH 1000 0
DWIDTH 24 0
BBX 24 24 0 -3
BITMAP
01c1c0
018186
ffffff
018180
018180
001c00
00180c
7ffffe
010100
00c180
204206
3fffff
600006
c03804
c03030
1ffff8
006000
006060
00fff0
00c060
018060
0300e0
0c07c0
300180
ENDCHAR
STARTCHAR ch-173
ENCODING 173
SWIDTH 1000 0
DWIDTH 24 0
BBX 24 24 0 -3
BITMAP
01c1c0
018186
ffffff
018180
058180
060018
0ffffc
080018
163198
263198
47ffb8
00c030
0300f0
1c8060
01c00c
03fffe
06000c
18300c
66318c
06319c
07ff98
00e038
0383f0
3c0060
ENDCHAR
STARTCHAR ch-178
ENCODING 178
SWIDTH 1000 0
DWIDTH 24 0
BBX 24 24 0 -3
BITMAP
00e380
00c306
ffffff
00c300
00c030
200310
180302
0cffff
0c0300
000300
807ffc
62630c
32630c
34630c
047ffc
0c630c
08630c
18630c
f87ffc
30630c
30630c
30630c
38633c
186318
ENDCHAR
STARTCHAR ch-184
ENCODING 184
SWIDTH 1000 0
DWIDTH 24 0
BBX 24 24 0 -3
BITMAP
00e380
00c306
ffffff
00c300
00c300
0000c0
1fffe0
000180
001618
01983c
7fd860
019980
031e00
061980
0c18f0
30f83f
c0300e
000000
3ffffc
000000
108208
20c106
e0c183
c0c183
ENDCHAR
STARTCHAR ch-185
ENCODING 185
SWIDTH 1000 0
DWIDTH 24 0
BBX 24 24 0 -3
BITMAP
00e380
00c306
ffffff
00c300
04c340
030060
01008c
7ffffe
00c300
00c318
1ffffc
00c318
00c318
ffffff
00c318
00c318
1ffff8
01c318
03c380
06c360
0cc338
30c31f
c0c306
00c300
ENDCHAR
STARTCHAR ch-187
ENCODING 187
SWIDTH 1000 0
DWIDTH 24 0
BBX 24 24 0 -3
BITMAP
01c1c0
018186
ffffff
018180
018180
00400c
ffeffe
00c00c
00c00c
3fc3fc
300300
300300
306306
7ff7ff
606606
186186
0c60c6
00e00e
036036
1c61c6
f8ef8e
60c60c
07c07c
018018
ENDCHAR
STARTCHAR ch-188
ENCODING 188
SWIDTH 1000 0
DWIDTH 24 0
BBX 24 24 0 -3
BITMAP
01c1c0
018186
ffffff
018180
019980
003400
006300
00c1e0
033e7f
1c001e
e3ffe6
030060
030060
03ffe0
030060
030060
03ffe0
060000
060000
0dfff0
198030
318030
c1fff0
018030
ENDCHAR
STARTCHAR ch-191
ENCODING 191
SWIDTH 1000 0
DWIDTH 24 0
BBX 24 24 0 -3
BITMAP
01c1c0
018186
ffffff
018180
018180
001c00
001806
ffffff
000000
03ffc0
0300c0
0300c0
03ffc0
20000c
3ffffe
30000c
30000c
31ff8c
31818c
31818c
31ff8c
30000c
30007c
300018
ENDCHAR
STARTCHAR ch-193
ENCODING 193
SWIDTH 1000 0
DWIDTH 24 0
BBX 24 24 0 -3
BITMAP
01c1c0
018186
ffffff
018180
019980
001818
3ffffc
003000
1ffff8
00c200
008106
ffffff
030040
060630
0c1f1c
31f80f
c01866
0ffff0
007800
00df80
0398f8
0e183c
70180c
001800
ENDCHAR
STARTCHAR ch-196
ENCODING 196
SWIDTH 1000 0
DWIDTH 24 0
BBX 24 24 0 -3
BITMAP
01c1c0
018186
ffffff
018180
018180
001c00
00180c
7ffffe
003200
026380
018720
018c18
00100c
fffff6
7fc006
400006
0ffff0
0c1830
0c1830
0ffff0
0c1830
0c1830
0ffff0
0c0030
ENDCHAR
STARTCHAR ch-198
ENCODING 198
SWIDTH 1000 0
DWIDTH 24 0
BBX 24 24 0 -3
BITMAP
01c1c0
018186
ffffff
018180
018d80
100c06
1fffff
180000
1838e0
1830c6
1fffff
1830c0
1830c0
183fc0
180600
190618
19fffc
198618
318618
318618
218618
418678
818630
000600
ENDCHAR
STARTCHAR ch-201
ENCODING 201
SWIDTH 1000 0
DWIDTH 24 0
BBX 24 24 0 -3
BITMAP
01c1c0
018186
ffffff
018180
018180
101800
101806
3fffff
320004
638188
631870
061838
0c3418
306200
00c180
0180e0
020078
0fffdf
3300c6
c300c0
0300c0
0300c0
03ffc0
0300c0
ENDCHAR
STARTCHAR ch-202
ENCODING 202
SWIDTH 1000 0
DWIDTH 24 0
BBX 24 24 0 -3
BITMAP
00e380
00c306
ffffff
00c300
00c300
020000
032080
063060
0c6238
30819f
c7fec6
0380c0
000000
00600c
7ff7fe
10620c
0c618c
04608c
00e01c
0760ec
7c678c
30630c
03e07c
00c018
ENDCHAR
STARTCHAR ch-203
ENCODING 203
SWIDTH 1000 0
DWIDTH 24 0
BBX 24 24 0 -3
BITMAP
01c1c0
018186
ffffff
018180
019d80
001818
3ffffc
001800
001806
ffffff
00c080
008070
01001c
7fffee
3f8006
200000
0ffff0
0cc630
0cc630
0cc630
0cc630
0cc632
ffffff
000000
ENDCHAR
STARTCHAR ch-205
ENCODING 205
SWIDTH 1000 0
DWIDTH 24 0
BBX 24 24 0 -3
BITMAP
01c1c0
018186
ffffff
018180
019988
00181c
1ffff0
0018c6
ffffff
003000
00c060
0307f0
1ffc04
e30006
03fffe
01fffc
000000
07fff0
060030
07fff0
060030
060030
07fff0
060030
ENDCHAR
STARTCHAR ch-208
ENCODING 208
SWIDTH 1000 0
DWIDTH 24 0
BBX 24 24 0 -3
BITMAP
01c1c0
018186
ffffff
018180
018180
10000c
1ffffe
180000
19fff8
180000
1fffff
18c204
18c10e
18c0d8
1bfc70
19e01f
190006
300030
37ffff
208030
606030
403030
8031f0
000060
ENDCHAR
STARTCHAR ch-209
ENCODING 209
SWIDTH 1000 0
DWIDTH 24 0
BBX 24 24 0 -3
BITMAP
01c1c0
018186
ffffff
018180
019980
00180c
7ffffe
000000
000000
03ffc0
0300c0
0300c6
ffffff
0300c0
0300c0
03ffd0
00e41c
01c238
07c340
1cc180
e0cce0
00f07f
1fc01e
0e0006
ENDCHAR
STARTCHAR ch-214
ENCODING 214
SWIDTH 1000 0
DWIDTH 24 0
BBX 24 24 0 -3
BITMAP
01c1c0
018180
018186
ffffff
018180
01a180
083030
0ffff8
0c0230
0c6730
0c1830
0c3630
0dc330
0c0030
0ffff0
000000
0e0708
0c461c
0fe670
0c0782
0c0602
ffe603
7c07ff
4003fe
ENDCHAR
STARTCHAR ch-217
ENCODING 217
SWIDTH 1000 0
DWIDTH 24 0
BBX 24 24 0 -3
BITMAP
01c1c0
018180
018186
ffffff
018180
018180
000c00
100c0c
1ffffe
180000
188020
18e738
18c630
19a66c
193646
1a3686
180600
180618
31fffc
300600
200600
400606
8fffff
000000
ENDCHAR
STARTCHAR ch-218
ENCODING 218
SWIDTH 1000 0
DWIDTH 24 0
BBX 24 24 0 -3
BITMAP
01c1c0
018180
018186
ffffff
018180
018980
080e00
0e0c06
0c0fff
1d9830
199460
39a2c0
398180
598370
998c3f
19b0ce
198180
198630
199864
19818e
198e1c
180070
1801c0
181e00
ENDCHAR
STARTCHAR ch-236
ENCODING 236
SWIDTH 1000 0
DWIDTH 24 0
BBX 24 24 0 -3
BITMAP
00e380
00c306
ffffff
00c300
00cb00
600c30
181ff8
0c3060
0c6cc0
018300
000ce0
00303f
0dc30e
fe3ff0
0c0300
0c3ff0
0c0300
0dfffe
0c0300
0c0300
1a0000
f1ffff
607ffe
400000
ENDCHAR
STARTCHAR ch-238
ENCODING 238
SWIDTH 1000 0
DWIDTH 24 0
BBX 24 24 0 -3
BITMAP
00e380
00c306
ffffff
00c300
00c000
000380
60030c
19fffe
0c0300
0c7ff8
004308
004308
0c7ff8
fe4308
0c4308
0c7ff8
0c0302
0dffff
0c0300
0c0300
1a0000
f1ffff
607ffe
400000
ENDCHAR
STARTCHAR ch-244
ENCODING 244
SWIDTH 1000 0
DWIDTH 24 0
BBX 24 24 0 -3
BITMAP
01c1c0
018186
ffffff
018180
019980
00180c
7ffffe
001800
0ffff0
081810
0ffff0
081810
0ffff0
001880
001860
3ffff8
0f0198
000182
ffffff
020180
018180
00c180
00cf80
000300
ENDCHAR
STARTCHAR ch-252
ENCODING 252
SWIDTH 1000 0
DWIDTH 24 0
BBX 24 24 0 -3
BITMAP
01c1c0
018186
ffffff
018180
018180
000000
7fc7f8
10c118
18c198
08c038
02d8d8
0cf718
706218
20c180
0310f0
1c383f
e0620e
018700
0e1c20
007070
0781c0
000700
007800
078000
ENDCHAR
STARTCHAR ch-255
ENCODING 255
SWIDTH 1000 0
DWIDTH 24 0
BBX 24 24 0 -3
BITMAP
01c1c0
018180
018186
ffffff
018180
018180
201c00
201806
7fffff
600006
c40004
c77ffe
0e0300
0c220c
1c3ffe
3c300c
6c300c
8c300c
0c3ffc
0c300c
0c300c
0c300c
0c3ffc
0c300c
ENDCHAR
STARTCHAR ch-256
ENCODING 256
SWIDTH 1000 0
DWIDTH 24 0
BBX 24 24 0 -3
BITMAP
00e380
00c300
00c306
ffffff
00c300
00c300
030000
030206
7ffbff
00430c
107308
0c6310
048320
ffff18
00030c
203304
3ffb06
303306
303306
303306
30333e
30330c
3ff300
303300
ENDCHAR
STARTCHAR ch-262
ENCODING 262
SWIDTH 1000 0
DWIDTH 24 0
BBX 24 24 0 -3
BITMAP
01c1c0
018186
ffffff
018180
018180
000000
100380
0c0318
067ffc
060300
800306
61ffff
301860
323060
04687f
0d8c3f
181ff0
f81860
7034e0
30c5c0
300380
300ef0
38383f
19c00e
ENDCHAR
STARTCHAR ch-273
ENCODING 273
SWIDTH 1000 0
DWIDTH 24 0
BBX 24 24 0 -3
BITMAP
00e380
00c306
ffffff
00c300
00c300
000000
1ffff8
184218
184218
1ffff8
000100
000cc0
100c4c
1ffffe
180c00
180c20
184c38
1be670
1806e2
100382
300ec2
203873
43c03f
80000e
ENDCHAR
STARTCHAR ch-275
ENCODING 275
SWIDTH 1000 0
DWIDTH 24 0
BBX 24 24 0 -3
BITMAP
00e380
00c306
ffffff
00c300
00c300
07ffe0
040020
07ffe0
040020
07ffe0
20000c
3ffffe
30420c
30420c
3ffffc
30000c
07ffe0
0100c0
008180
006700
003c00
00e7c0
0f81ff
f0003e
ENDCHAR
STARTCHAR ch-276
ENCODING 276
SWIDTH 1000 0
DWIDTH 24 0
BBX 24 24 0 -3
BITMAP
01c1c0
018186
ffffff
018180
098180
0c000c
0ffffe
18000c
10000c
3fff8c
40000c
07fc0c
04040c
07fc0c
00000c
1fff0c
18430c
18430c
1fff0c
18430c
18431c
1fff18
0000f8
000030
ENDCHAR
STARTCHAR ch-277
ENCODING 277
SWIDTH 1000 0
DWIDTH 24 0
BBX 24 24 0 -3
BITMAP
01c1c0
018186
ffffff
018180
018180
0c4230
0c4232
ffffff
0c4230
08423c
107e1c
000000
200006
3fffff
601806
c01804
c81830
0ffff8
0c1830
0c1830
0c1830
0c19f0
0c1860
001800
ENDCHAR
STARTCHAR ch-279
ENCODING 279
SWIDTH 1000 0
DWIDTH 24 0
BBX 24 24 0 -3
BITMAP
01c1c0
018180
018186
ffffff
018180
018180
000c00
100c0c
1ffffe
180000
1860c0
1860c6
1fffff
1860c0
1860c0
1860c0
187fc0
180000
300000
311108
221084
4630c6
8e30c3
0c30c3
ENDCHAR
STARTCHAR ch-280
ENCODING 280
SWIDTH 1000 0
DWIDTH 24 0
BBX 24 24 0 -3
BITMAP
0380e0
0300c6
ffffff
0300c0
0320c0
007000
00c100
0100c0
1fffe0
0f3060
003006
ffffff
00c100
0188c0
071c70
1c313f
e0c38e
070600
001820
00e070
0701c0
000700
007800
0f8000
ENDCHAR
STARTCHAR ch-282
ENCODING 282
SWIDTH 1000 0
DWIDTH 24 0
BBX 24 24 0 -3
BITMAP
00e380
00c300
00c306
ffffff
00c300
00c300
20301c
3ff818
303018
30301a
3ff7ff
300018
37e018
300218
303118
3ff998
218198
298018
6da018
499018
599818
919818
2781f8
030070
ENDCHAR
STARTCHAR ch-287
ENCODING 287
SWIDTH 1000 0
DWIDTH 24 0
BBX 24 24 0 -3
BITMAP
01c1c0
018180
018186
ffffff
018180
018180
0e0400
0c0700
0cc606
ffefff
180800
181200
19830c
1fc7fe
1984c0
1988c0
1980c6
119fff
3181a0
318190
230318
63020c
4f040f
861806
ENDCHAR
STARTCHAR ch-289
ENCODING 289
SWIDTH 1000 0
DWIDTH 24 0
BBX 24 24 0 -3
BITMAP
01c1c0
018186
ffffff
018180
058180
061818
0ffffc
0c3418
1a6210
32c120
4980c0
0b0060
06ff38
0c001f
300006
cffff0
001800
041800
0718c0
0e1830
1c181c
30180e
c0f806
003000
ENDCHAR
STARTCHAR ch-294
ENCODING 294
SWIDTH 1000 0
DWIDTH 24 0
BBX 24 24 0 -3
BITMAP
01c380
018306
ffffff
018300
01a300
003800
0430c0
07ffe0
0600c0
07ffc0
0600c0
0600c0
07ffc0
060006
07ffff
060000
06000c
07fffe
20000c
22220c
63331c
c33318
c000f8
000030
ENDCHAR
STARTCHAR ch-300
ENCODING 300
SWIDTH 1000 0
DWIDTH 24 0
BBX 24 24 0 -3
BITMAP
00e380
00c306
ffffff
00c300
00c300
000000
00c1c0
ffc186
00ffff
008300
050210
06040c
763ff6
661e06
67c000
661138
661d30
661930
661930
67d932
fe1132
701133
40203f
00c01e
ENDCHAR
STARTCHAR ch-301
ENCODING 301
SWIDTH 1000 0
DWIDTH 24 0
BBX 24 24 0 -3
BITMAP
00e380
00c306
ffffff
00c300
00c000
430300
7f8700
630680
620c60
661838
6437df
64400e
699fc6
6400c0
660188
633ffc
630000
630006
63ffff
6f0c40
660830
6011dc
60fe0e
607006
ENDCHAR
STARTCHAR ch-309
ENCODING 309
SWIDTH 1000 0
DWIDTH 24 0
BBX 24 24 0 -3
BITMAP
00e380
00c300
00c306
ffffff
00c300
00c040
000330
200316
3fffff
300300
300300
37fb10
34411c
344198
37f9b0
3408b0
3408e0
37f840
2440e2
2441a2
67fb32
44061b
40180f
800006
ENDCHAR
STARTCHAR ch-317
ENCODING 317
SWIDTH 1000 0
DWIDTH 24 0
BBX 24 24 0 -3
BITMAP
00e380
00c300
00c306
ffffff
00c300
00c300
030080
4320e0
3338c0
1b3086
1b21ff
034110
3ff31c
231218
231518
2b9130
2b50b0
2b50e0
2b5040
3310e0
2310b0
23111f
23720e
232c06
ENDCHAR
STARTCHAR ch-320
ENCODING 320
SWIDTH 1000 0
DWIDTH 24 0
BBX 24 24 0 -3
BITMAP
01c380
018306
ffffff
018300
018300
0600e0
0630c6
ffffff
0600c0
2644c4
3fe7fe
2644c4
2644c4
2644c4
26c4cc
2e44e4
0f01e0
1ec1d0
1662d8
2662cc
4604cf
8618c6
0600c0
0600c0
ENDCHAR
STARTCHAR ch-321
ENCODING 321
SWIDTH 1000 0
DWIDTH 24 0
BBX 24 24 0 -3
BITMAP
01c1c0
018186
ffffff
018180
018180
0fffe0
000020
0fffe0
000020
000020
0fffe0
000000
3fc7fc
06060c
06060c
7fe7fc
380060
000062
ffffff
020060
018060
00c060
00c3e0
0000c0
ENDCHAR
STARTCHAR ch-323
ENCODING 323
SWIDTH 1000 0
DWIDTH 24 0
BBX 24 24 0 -3
BITMAP
00e380
00c306
ffffff
00c300
00c070
001ff8
3ff840
0418e0
031880
011906
ffffff
00d900
019880
0318c0
061870
0c003f
37ffee
c61866
061860
07ffe0
061860
061860
07ffe0
060060
ENDCHAR
STARTCHAR ch-328
ENCODING 328
SWIDTH 1000 0
DWIDTH 24 0
BBX 24 24 0 -3
BITMAP
01c1c0
018186
ffffff
018180
018180
7ffffe
00c300
00c300
3ffffc
30c30c
30c30c
3ffffc
000000
0ffff0
080010
0ffff0
080010
0ffff0
001800
001806
ffffff
001800
001800
001800
ENDCHAR
STARTCHAR ch-329
ENCODING 329
SWIDTH 1000 0
DWIDTH 24 0
BBX 24 24 0 -3
BITMAP
00e380
00c300
00c306
ffffff
00c300
020400
038700
030618
07fffc
060400
0e0400
1ffff0
360400
460400
07fff0
060400
060406
07ffff
000000
084210
10410c
70c186
e0c187
c0c183
ENDCHAR
STARTCHAR ch-330
ENCODING 330
SWIDTH 1000 0
DWIDTH 24 0
BBX 24 24 0 -3
BITMAP
01c1c0
018180
018186
ffffff
018180
018180
001000
00cc00
04c440
04c030
0cc118
18c198
18ff80
007f00
040040
030030
190190
184184
583183
583583
d88588
d8cd8c
1fcdfc
0f80f8
ENDCHAR
STARTCHAR ch-331
ENCODING 331
SWIDTH 1000 0
DWIDTH 24 0
BBX 24 24 0 -3
BITMAP
01c1c0
018180
018186
ffffff
018180
018180
001c00
031860
031ff0
031800
03180c
7ffffe
000000
000000
038070
330660
330664
33e67e
330660
330660
330660
ffe662
7c1fff
400000
ENDCHAR
STARTCHAR ch-334
ENCODING 334
SWIDTH 1000 0
DWIDTH 24 0
BBX 24 24 0 -3
BITMAP
00e380
00c306
ffffff
00c300
00c0c0
000fe0
0ff800
003006
ffffff
00c100
018080
03ff60
0ec338
38c31f
c0ff06
100018
1ffffc
180018
18ff18
18c318
18c318
18ff18
1800f8
180030
ENDCHAR
STARTCHAR ch-341
ENCODING 341
SWIDTH 1000 0
DWIDTH 24 0
BBX 24 24 0 -3
BITMAP
01c1c0
018180
018186
ffffff
018180
018180
041020
070c30
8e0446
4dffff
380480
180480
2c7ffc
4c648c
9e648c
166cfc
36687c
26700c
46600c
867ffc
06600c
0c600c
7c7ffc
18600c
ENDCHAR
STARTCHAR ch-343
ENCODING 343
SWIDTH 1000 0
DWIDTH 24 0
BBX 24 24 0 -3
BITMAP
00e380
00c300
00c306
ffffff
00c300
00c000
000200
3fc30c
30c3fe
30c618
30c530
30c960
3fd0c0
0601e0
660338
67c60f
661806
6607f8
660618
660618
67c618
fe0618
7007f8
400618
ENDCHAR
STARTCHAR ch-344
ENCODING 344
SWIDTH 1000 0
DWIDTH 24 0
BBX 24 24 0 -3
BITMAP
01c1c0
018186
ffffff
018180
018180
001800
0ffff0
001800
001800
ffffff
000000
060060
7fe7fe
060060
060060
ffcfff
700000
000000
3ffffc
010300
01c302
038303
0e03ff
f001fe
ENDCHAR
STARTCHAR ch-346
ENCODING 346
SWIDTH 1000 0
DWIDTH 24 0
BBX 24 24 0 -3
BITMAP
00e380
00c306
ffffff
00c300
000000
03ffc0
020040
03ffc0
000000
3fe7fc
202404
3fe7fc
000000
07ffe0
000006
ffffff
030000
030030
07fff8
060030
000070
0000e0
0007c0
000180
ENDCHAR
STARTCHAR ch-355
ENCODING 355
SWIDTH 1000 0
DWIDTH 24 0
BBX 24 24 0 -3
BITMAP
01c1c0
018186
ffffff
018180
018070
0007f8
1ffe20
042030
031860
210886
7fffff
600006
c80004
cc6070
0fe064
187ffe
10c460
28c460
458462
033fff
060060
0c0060
180060
600060
ENDCHAR
STARTCHAR ch-360
ENCODING 360
SWIDTH 1000 0
DWIDTH 24 0
BBX 24 24 0 -3
BITMAP
00e380
00c306
ffffff
00c300
00c300
200006
3fffff
302200
343380
332300
314306
37fbff
3082c6
3496c4
3494c8
3498c0
3491a0
37f1a0
249110
218310
610218
42040f
84080e
083006
ENDCHAR
STARTCHAR ch-361
ENCODING 361
SWIDTH 1000 0
DWIDTH 24 0
BBX 24 24 0 -3
BITMAP
01c380
018306
ffffff
018300
018300
203fe0
183060
0c3060
0c3fe0
803060
623060
323fe0
340006
07ffff
0c3000
08200c
187ffe
30888c
f3198c
70110c
30220c
304418
3998f8
180030
ENDCHAR
STARTCHAR ch-362
ENCODING 362
SWIDTH 1000 0
DWIDTH 24 0
BBX 24 24 0 -3
BITMAP
00e380
00c300
00c306
ffffff
00c300
08c300
0e0000
0c0018
1ffffc
144440
244440
044446
ffffff
044440
044440
044440
04444c
7ffffe
000000
084210
10410c
30c186
e0c183
c0c183
ENDCHAR
STARTCHAR ch-365
ENCODING 365
SWIDTH 1000 0
DWIDTH 24 0
BBX 24 24 0 -3
BITMAP
01c1c0
018186
ffffff
018180
001800
0ffff0
001810
001816
ffffff
001810
001810
0ffff0
001800
1d199c
18d918
185a18
1bffd8
183818
187e18
10d998
3198d8
2618d8
401818
800018
ENDCHAR
STARTCHAR ch-375
ENCODING 375
SWIDTH 1000 0
DWIDTH 24 0
BBX 24 24 0 -3
BITMAP
01c1c0
018186
ffffff
018180
018180
000006
7fefff
00c0c0
018080
0907fc
06060c
02660c
fff7fc
06660c
06460c
0687fc
06060c
06060c
06060c
0607fc
060200
060398
3e0606
0c1806
ENDCHAR
STARTCHAR ch-382
ENCODING 382
SWIDTH 1000 0
DWIDTH 24 0
BBX 24 24 0 -3
BITMAP
01c1c0
018186
ffffff
018180
018180
000018
3ffffc
001800
201802
3fffff
601806
cf99f4
c01800
0f99f0
001800
000000
1ffff8
181818
181818
1ffff8
181818
181818
1ffff8
180018
ENDCHAR
STARTCHAR ch-384
ENCODING 384
SWIDTH 1000 0
DWIDTH 24 0
BBX 24 24 0 -3
BITMAP
01c1c0
018180
018186
ffffff
018180
018180
100000
0c3ff0
063030
063030
803ff0
603030
313030
323ff0
040000
0c800c
18fffe
f8c88c
70c88c
30c88c
30c88c
30c88c
38c88c
1bffff
ENDCHAR
STARTCHAR ch-388
ENCODING 388
SWIDTH 1000 0
DWIDTH 24 0
BBX 24 24 0 -3
BITMAP
00e380
00c306
ffffff
00c300
00c320
200198
180108
0cfffe
0c0100
803ff8
602108
322108
323ff8
042108
042108
083ff8
180060
f00066
71ffff
301060
300860
300c60
380de0
1800c0
ENDCHAR
STARTCHAR ch-391
ENCODING 391
SWIDTH 1000 0
DWIDTH 24 0
BBX 24 24 0 -3
BITMAP
01c1c0
018186
ffffff
018180
018000
102080
1d24e0
1924c0
3124c6
2124ff
49fd90
8e011c
1c0298
191898
31fc58
711850
b11830
311820
311970
311a50
311cd8
33388f
32110e
340606
ENDCHAR
STARTCHAR ch-392
ENCODING 392
SWIDTH 1000 0
DWIDTH 24 0
BBX 24 24 0 -3
BITMAP
01c1c0
018186
ffffff
018180
019980
003c00
007200
00c180
0300f0
1cff3f
e0000e
0ffff0
0c1830
0c9930
0c5a30
0ffff0
000000
07ffe0
060060
07ffe0
060060
060060
07ffe0
060060
ENDCHAR
STARTCHAR ch-394
ENCODING 394
SWIDTH 1000 0
DWIDTH 24 0
BBX 24 24 0 -3
BITMAP
01c1c0
018186
ffffff
018180
098180
0c0000
0fe00e
18c1cc
10818c
21018c
7ff18c
b2318c
32318c
3ff18c
32318c
32318c
32318c
3ff18c
00018c
20200c
24900c
64980c
c4987c
c00018
ENDCHAR
STARTCHAR ch-400
ENCODING 400
SWIDTH 1000 0
DWIDTH 24 0
BBX 24 24 0 -3
BITMAP
00e380
00c306
ffffff
00c300
000000
0181c0
0fc184
fc3ffe
0c0180
0c0182
0c7fff
ffc430
0c0630
0c0c1f
1e1800
1d27f8
3d8618
2d8c30
4c1a60
8c21c0
0c0360
0c0638
0c181f
0c6006
ENDCHAR
STARTCHAR ch-401
ENCODING 401
SWIDTH 1000 0
DWIDTH 24 0
BBX 24 24 0 -3
BITMAP
01c1c0
018186
ffffff
018180
018180
00000c
7ffffe
000000
07ffe0
041020
07ffe0
041020
07ffe0
00000c
7ffffe
000000
07ffe0
041020
07ffe0
041020
07ffe0
000006
ffffff
000000
ENDCHAR
STARTCHAR ch-404
ENCODING 404
SWIDTH 1000 0
DWIDTH 24 0
BBX 24 24 0 -3
BITMAP
01c1c0
018186
ffffff
018180
019980
001818
3ffffc
041840
061860
0c18c0
0b18b0
111916
ffffff
000000
000000
1ffff8
180018
18ff18
188118
188118
18ff18
180018
1ffff8
180018
ENDCHAR
STARTCHAR ch-407
ENCODING 407
SWIDTH 1000 0
DWIDTH 24 0
BBX 24 24 0 -3
BITMAP
00e380
00c306
ffffff
00c300
20c30c
3ffffe
30180c
31ff8c
30180c
37ffec
30000c
31ff8c
31818c
31818c
31ffcc
30386c
307ccc
30db0c
3199cc
3618cc
30180c
30000c
3ffffc
30000c
ENDCHAR
STARTCHAR ch-409
ENCODING 409
SWIDTH 1000 0
DWIDTH 24 0
BBX 24 24 0 -3
BITMAP
00e380
00c300
00c306
ffffff
00c300
10c300
1c0420
180730
10c620
3fec4c
260ffe
461c40
062c40
064c48
ffeffc
060c40
060c40
0d0c48
0c8ffc
18cc40
10cc40
200c46
400fff
800c00
ENDCHAR
STARTCHAR ch-411
ENCODING 411
SWIDTH 1000 0
DWIDTH 24 0
BBX 24 24 0 -3
BITMAP
00e380
00c306
ffffff
00c300
04c300
0600e0
0400c0
4980c4
7fdffe
618410
618218
618210
7f8022
603fff
6000c0
6180c0
7fc0c4
619ffe
6180c0
6180c0
6180c0
7f80c0
6180c0
0000c0
ENDCHAR
STARTCHAR ch-412
ENCODING 412
SWIDTH 1000 0
DWIDTH 24 0
BBX 24 24 0 -3
BITMAP
00e380
00c306
ffffff
00c300
00c300
0000e0
20c0c0
3fe0c4
30cffe
30c410
30c218
30c210
3fc022
301fff
3000c0
30c0c0
3fe0c4
38cffe
78c0c0
58c0c0
58c0c0
98c0c0
1fc0c0
18c0c0
ENDCHAR
STARTCHAR ch-420
ENCODING 420
SWIDTH 1000 0
DWIDTH 24 0
BBX 24 24 0 -3
BITMAP
01c1c0
018180
018186
ffffff
018180
018180
000000
000e70
ffcc60
180c64
187c7e
180c60
3f8c60
318c64
21fc7e
730c60
4b0c60
860c64
067c7e
0c0c60
080c60
100c60
200c66
c1ffff
ENDCHAR
STARTCHAR ch-422
ENCODING 422
SWIDTH 1000 0
DWIDTH 24 0
BBX 24 24 0 -3
BITMAP
01c1c0
018186
ffffff
018180
019980
10180c
1ffffe
180000
186318
1ffffc
184218
184218
1ffff8
18c000
18c006
18ffff
198000
31800c
31fffe
20020c
64918c
44cc8c
98443c
180018
ENDCHAR
STARTCHAR ch-424
ENCODING 424
SWIDTH 1000 0
DWIDTH 24 0
BBX 24 24 0 -3
BITMAP
01c1c0
018186
ffffff
018180
018180
000000
1ffff8
104208
104208
1ffff8
000000
200006
3fffff
600006
c00004
dffff8
060300
0ff308
18633c
66c3e0
018302
070303
1c03ff
e001fe
ENDCHAR
STARTCHAR ch-425
ENCODING 425
SWIDTH 1000 0
DWIDTH 24 0
BBX 24 24 0 -3
BITMAP
00e380
00c306
ffffff
00c300
00c300
4301c0
7f818c
633ffe
620410
660210
644222
687fff
646000
666470
666660
6667fe
666460
666860
6667fe
7e4060
6cc060
608066
611fff
620000
ENDCHAR
STARTCHAR ch-426
ENCODING 426
SWIDTH 1000 0
DWIDTH 24 0
BBX 24 24 0 -3
BITMAP
00e380
00c306
ffffff
00c300
00c300
03000c
03123e
7ffbe0
004300
206300
184306
088bff
ffff18
030318
030b18
ffff18
070318
0f8318
0b6318
1b3218
333618
630418
830818
031018
ENDCHAR
STARTCHAR ch-427
ENCODING 427
SWIDTH 1000 0
DWIDTH 24 0
BBX 24 24 0 -3
BITMAP
00e380
00c306
ffffff
00c300
00c0c0
000fe0
0ffc00
00100c
7ffffe
001000
0ffff0
081010
0ffff0
081010
0ffff0
001000
3ffffc
001000
ffffff
000000
108208
204106
e06183
c06183
ENDCHAR
STARTCHAR ch-428
ENCODING 428
SWIDTH 1000 0
DWIDTH 24 0
BBX 24 24 0 -3
BITMAP
00e380
00c306
ffffff
00c300
00d300
001800
203008
18ff1c
0cc330
0cc340
00ff00
02c360
0cc318
78c30c
30ff0c
201800
001806
ffffff
00da00
019980
0718f0
1c183f
e0180e
001800
ENDCHAR
STARTCHAR ch-430
ENCODING 430
SWIDTH 1000 0
DWIDTH 24 0
BBX 24 24 0 -3
BITMAP
00e380
00c306
ffffff
00c300
00c000
431100
3319c0
132180
fffd86
0701ff
0fc310
1b321c
331518
c30918
0601b0
0630b0
fff8e0
186040
30c0e0
6d80b0
030198
06c11f
18620e
e06c06
ENDCHAR
STARTCHAR ch-431
ENCODING 431
SWIDTH 1000 0
DWIDTH 24 0
BBX 24 24 0 -3
BITMAP
00e380
00c306
ffffff
00c300
10c318
1ffffc
184218
184218
1ffff8
183040
003070
0fffe0
003180
003606
ffffff
006000
03ffe0
1f0060
e30060
03ffe0
030060
030060
03ffe0
030060
ENDCHAR
STARTCHAR ch-441
ENCODING 441
SWIDTH 1000 0
DWIDTH 24 0
BBX 24 24 0 -3
BITMAP
01c1c0
018186
ffffff
018180
001800
3ffffc
001800
0ffff0
000000
07ffe0
040020
07ffe0
200006
3fffff
600006
cffff4
c0c080
008060
0fffb0
071830
001800
1ffff8
001800
7ffffe
ENDCHAR
STARTCHAR ch-442
ENCODING 442
SWIDTH 1000 0
DWIDTH 24 0
BBX 24 24 0 -3
BITMAP
01c1c0
018186
ffffff
018180
001c00
001806
ffffff
008400
00660c
7f24f8
091890
191890
1119f8
27188f
400006
0c0030
0ffff0
0c0030
0c0030
0ffff0
0c0030
180030
300030
c00030
ENDCHAR
STARTCHAR ch-449
ENCODING 449
SWIDTH 1000 0
DWIDTH 24 0
BBX 24 24 0 -3
BITMAP
01c1c0
018186
ffffff
018180
019980
00180c
7ffffe
000000
03ffc0
020040
03ffc0
20000c
3ffffe
30000c
31ff8c
3100bc
31ff98
001800
ffffff
00da00
019980
0718f0
1c183f
e0180e
ENDCHAR
STARTCHAR ch-457
ENCODING 457
SWIDTH 1000 0
DWIDTH 24 0
BBX 24 24 0 -3
BITMAP
01c1c0
018186
ffffff
018180
018180
000000
070110
060114
7feffe
060110
060110
7fe112
061fff
060000
fff40c
0e07fe
1f060c
16c60c
3667fc
26660c
46060c
86060c
0607fc
06060c
ENDCHAR
STARTCHAR ch-461
ENCODING 461
SWIDTH 1000 0
DWIDTH 24 0
BBX 24 24 0 -3
BITMAP
00e380
00c306
ffffff
00c300
00c000
200100
3ff1c0
310180
310306
3fe3ff
302400
302800
3fe00c
3103fe
310000
3ff000
000000
1ffff0
18c630
18c630
18c630
18c636
ffffff
000000
ENDCHAR
STARTCHAR ch-463
ENCODING 463
SWIDTH 1000 0
DWIDTH 24 0
BBX 24 24 0 -3
BITMAP
00e380
00c300
00c306
ffffff
00c300
00c020
000198
64018a
67ffff
660180
660180
7efd88
66908e
0690cc
06fcd8
fe8458
268470
26fc20
249072
6c90d2
48fd9a
88030e
100c07
200003
ENDCHAR
STARTCHAR ch-464
ENCODING 464
SWIDTH 1000 0
DWIDTH 24 0
BBX 24 24 0 -3
BITMAP
01c1c0
018186
ffffff
018180
018000
020200
070380
0c130c
309ffe
cdd80c
23980c
161ffc
0c180c
32180c
c31ffc
05186c
098460
338760
c58660
098662
318c62
c18863
0f107f
06603e
ENDCHAR
STARTCHAR ch-469
ENCODING 469
SWIDTH 1000 0
DWIDTH 24 0
BBX 24 24 0 -3
BITMAP
01c1c0
018186
ffffff
018180
018180
000000
0e100c
0c1ffe
7f988c
0c188c
0c1ffc
7f988c
0c188c
0c1ffc
ffc080
0c2086
1c3fff
1e3086
3db0a6
2cb0b6
4c37d6
8c3306
0c301e
0c300c
ENDCHAR
STARTCHAR ch-476
ENCODING 476
SWIDTH 1000 0
DWIDTH 24 0
BBX 24 24 0 -3
BITMAP
00e380
00c306
ffffff
00c300
018000
07c20c
7e03fe
0666cc
fff4cc
0e098c
1f011c
16c218
265878
c63430
00e300
0381e0
1e1c7f
e318ce
019980
001800
03dbe0
7e187c
30f80c
003000
ENDCHAR
STARTCHAR ch-477
ENCODING 477
SWIDTH 1000 0
DWIDTH 24 0
BBX 24 24 0 -3
BITMAP
01c1c0
018186
ffffff
018180
040000
7fc1c0
040198
ffeffc
110198
31e198
c40518
3f831a
0402db
07c45f
fc180e
600000
0ffff0
000000
ffffff
018080
010060
3fffb0
1fc018
100018
ENDCHAR
STARTCHAR ch-484
ENCODING 484
SWIDTH 1000 0
DWIDTH 24 0
BBX 24 24 0 -3
BITMAP
00e380
00c306
ffffff
00c300
00c000
231388
3f9b0c
331b18
330320
337ffe
330640
3f0420
33ffff
330818
33118c
332927
3f4d32
338d40
330100
330560
23791c
63310e
4f2706
860300
ENDCHAR
STARTCHAR ch-485
ENCODING 485
SWIDTH 1000 0
DWIDTH 24 0
BBX 24 24 0 -3
BITMAP
00e380
00c306
ffffff
00c300
08d310
0c1818
081010
507ea0
204240
344268
367e6c
0c4218
084210
124224
7f7efe
311862
001800
ffffff
00da00
019980
0718f0
1c183f
e0180e
001800
ENDCHAR
STARTCHAR ch-489
ENCODING 489
SWIDTH 1000 0
DWIDTH 24 0
BBX 24 24 0 -3
BITMAP
00e380
00c306
ffffff
00c300
00c018
2003fc
18ff20
0c2330
0c1320
80134c
62fffe
320f40
341b20
043318
08630f
08c006
1b7ff8
306218
f06218
707ff8
306218
306218
387ff8
186018
ENDCHAR
STARTCHAR ch-490
ENCODING 490
SWIDTH 1000 0
DWIDTH 24 0
BBX 24 24 0 -3
BITMAP
00e380
00c306
ffffff
00c300
00c080
0100e0
1ff0c0
1110c0
7ffc86
1111ff
1ff10c
01030c
1ff288
111498
111098
1ff050
060070
fffc20
0c6070
38c050
3680d8
01c18f
06630e
786c06
ENDCHAR
STARTCHAR ch-503
ENCODING 503
SWIDTH 1000 0
DWIDTH 24 0
BBX 24 24 0 -3
BITMAP
00e380
00c306
ffffff
00c300
00c300
060000
7f0388
00030e
ff9ffc
000318
000332
7f7fff
0000c0
000180
7f060c
001ffe
00660c
43060c
7f87fc
63060c
63060c
63060c
7f07fc
63060c
ENDCHAR
STARTCHAR ch-505
ENCODING 505
SWIDTH 1000 0
DWIDTH 24 0
BBX 24 24 0 -3
BITMAP
01c1c0
018186
ffffff
018180
018180
000000
7f1ff8
001818
001818
ff9ff8
001818
001818
7f1ff8
000600
000c06
7f0fff
001806
007986
7f1f06
631886
6318ce
631fcc
7f0fbc
630018
ENDCHAR
STARTCHAR ch-506
ENCODING 506
SWIDTH 1000 0
DWIDTH 24 0
BBX 24 24 0 -3
BITMAP
01c1c0
018186
ffffff
018180
018180
3fe7fc
30660c
3fe7fc
30660c
30660c
3fe7fc
30800c
30cc0c
31880c
31ffcc
33080c
35ff8c
31080c
31ff8c
31080c
31ffcc
31000c
30007c
300018
ENDCHAR
STARTCHAR ch-507
ENCODING 507
SWIDTH 1000 0
DWIDTH 24 0
BBX 24 24 0 -3
BITMAP
00e380
00c306
ffffff
00c300
00c300
200000
181fe0
0c1020
0c1020
801fe0
620000
32fcfc
348484
0c8484
08fcfc
180300
300306
f3ffff
700f40
301b20
303318
30c30f
3b0306
180300
ENDCHAR
STARTCHAR ch-510
ENCODING 510
SWIDTH 1000 0
DWIDTH 24 0
BBX 24 24 0 -3
BITMAP
01c1c0
018186
ffffff
018180
018180
060006
060fff
fff0c0
060080
0607fc
7fe60c
46260c
4627fc
46260c
7fe60c
0607fc
0e060c
0f060c
1ec60c
1667fc
266200
c60398
060606
061806
ENDCHAR
ENDFONT
