STARTFONT 2.1
FONT jis.jis9e00.24
SIZE 24 72 72
FONTBOUNDINGBOX 24 24 0 -3
STARTPROPERTIES 4
FONT_DESCENT 3
FONT_ASCENT 21
DEFAULT_CHAR 26
COPYRIGHT "Copyright (c) 1992 AT&T - All rights reserved."
ENDPROPERTIES
CHARS 89
STARTCHAR ch-26
ENCODING 26
SWIDTH 1000 0
DWIDTH 24 0
BBX 24 24 0 -3
BITMAP
492080
7df0c0
492498
4927fc
79e618
492618
4927f8
79e618
492618
4927f8
79e600
208606
6db7ff
851600
0e0606
0c37ff
fffe06
186006
30c556
698556
070506
0dcc0c
38ec7c
c06018
ENDCHAR
STARTCHAR ch-27
ENCODING 27
SWIDTH 1000 0
DWIDTH 24 0
BBX 24 24 0 -3
BITMAP
18c080
1080c0
fff498
1087fc
108618
79e618
4927f8
492618
79e618
1207f8
1b0600
324606
3fe7ff
620600
620606
bfe7ff
220606
220026
3fea96
220a96
221a86
22180c
3fe07c
200018
ENDCHAR
STARTCHAR ch-30
ENCODING 30
SWIDTH 1000 0
DWIDTH 24 0
BBX 24 24 0 -3
BITMAP
080008
0c7e0c
580058
64ff64
260026
0c7e0c
120012
ff7eff
490049
2a7e2c
39427b
697e89
880008
07ffc0
040040
07ffc0
040048
07fffc
040000
17fffe
100206
31118c
6199bc
619818
ENDCHAR
STARTCHAR ch-117
ENCODING 117
SWIDTH 1000 0
DWIDTH 24 0
BBX 24 24 0 -3
BITMAP
001c00
001800
001806
001fff
001800
001800
20180c
3ffffe
30000c
30208c
3019cc
33098c
30c30c
34368c
331c6c
31162c
30338c
3061cc
3190cc
360c0c
30040c
30000c
3ffffc
30000c
ENDCHAR
STARTCHAR ch-120
ENCODING 120
SWIDTH 1000 0
DWIDTH 24 0
BBX 24 24 0 -3
BITMAP
0700c0
0600c0
0661a0
07f190
06031c
06060f
466c06
7ff3f0
6460c0
6568cc
61effe
716ccc
6b6ccc
6a6ccc
64eccc
766ffc
6a6ccc
6b61a0
7161a0
656310
646318
7fe60f
600c0e
003006
ENDCHAR
STARTCHAR ch-121
ENCODING 121
SWIDTH 1000 0
DWIDTH 24 0
BBX 24 24 0 -3
BITMAP
0e0070
0c0064
0cc062
0fe062
0c1060
0c1fff
4c9060
7fd060
4897e0
4a9064
439066
629026
5697ac
5494ac
4994a8
6c94b8
549490
569792
62b03a
4aa02a
48a04e
7fe086
404107
008003
ENDCHAR
STARTCHAR ch-125
ENCODING 125
SWIDTH 1000 0
DWIDTH 24 0
BBX 24 24 0 -3
BITMAP
000200
406380
7ff306
6207ff
620440
7fe87e
606040
6067fe
606412
7fe59a
620462
620452
62658a
7ff402
6007fe
000000
100030
1ffff8
18c630
18c630
18c630
18c636
ffffff
000000
ENDCHAR
STARTCHAR ch-127
ENCODING 127
SWIDTH 1000 0
DWIDTH 24 0
BBX 24 24 0 -3
BITMAP
001c00
001800
201806
3fffff
300000
30e380
30c30c
3ffffe
30c30c
30c30c
30c30c
3ffffc
30000c
31c1c0
318180
31998c
31fd9e
3181b0
3181c0
218182
619d82
5fe183
8f01ff
0800fe
ENDCHAR
STARTCHAR ch-129
ENCODING 129
SWIDTH 1000 0
DWIDTH 24 0
BBX 24 24 0 -3
BITMAP
004000
00e0c0
01ffe0
030180
064300
183400
601806
1fffff
180000
18e380
18c30c
1ffffe
18c30c
18c30c
1ffffc
180000
19c384
11930e
31fb38
2183c2
218302
4ffb03
8783ff
0401fe
ENDCHAR
STARTCHAR ch-136
ENCODING 136
SWIDTH 1000 0
DWIDTH 24 0
BBX 24 24 0 -3
BITMAP
001c00
20180c
3ffffe
308200
308218
3ffffc
308218
308218
3ffff8
310100
31f138
3101e2
313903
3fe1ff
371cfe
300c00
300030
33fff8
200c00
63fff8
600c00
400c0c
8ffffe
000000
ENDCHAR
STARTCHAR ch-139
ENCODING 139
SWIDTH 1000 0
DWIDTH 24 0
BBX 24 24 0 -3
BITMAP
001c00
20180c
3ffffe
308200
3ffff8
308218
308218
3ffff8
310200
31f238
3103e2
310203
2ffbff
6781fe
401c40
461860
81188c
3ffffe
00fa00
01d980
0718f0
1c183f
e0180e
001800
ENDCHAR
STARTCHAR ch-140
ENCODING 140
SWIDTH 1000 0
DWIDTH 24 0
BBX 24 24 0 -3
BITMAP
001c00
20180c
3ffffe
308200
3ffff8
308208
308208
3ffff8
310200
31f238
3103e0
210202
6ff203
4701ff
80ff00
0c8100
0c8100
0ffff0
000032
ffffff
010000
0383e0
0e007c
70000c
ENDCHAR
STARTCHAR ch-145
ENCODING 145
SWIDTH 1000 0
DWIDTH 24 0
BBX 24 24 0 -3
BITMAP
001c00
20180c
3ffffe
308200
3ffff8
308208
308208
3ffff8
310200
31f238
3103e2
2ff203
6701ff
40e000
8f83f0
0c0030
0fc3f0
0c0030
0ffff0
010304
01c304
038306
0e03fe
7001fc
ENDCHAR
STARTCHAR ch-146
ENCODING 146
SWIDTH 1000 0
DWIDTH 24 0
BBX 24 24 0 -3
BITMAP
01c1ce
01818c
21918c
3ff98c
3007ff
32418c
32418c
3ff98c
3249fc
32498c
32498c
3ff98c
3001fc
36c18c
34918c
34998c
37b18c
24c7ff
248000
649108
4591c4
46f986
9c7303
080c03
ENDCHAR
STARTCHAR ch-147
ENCODING 147
SWIDTH 1000 0
DWIDTH 24 0
BBX 24 24 0 -3
BITMAP
0381c0
033186
ffffff
030180
0783c0
0f67b0
1b2d9f
331986
c36180
100c0c
1ffffe
184200
1ffff8
184218
184218
1ffff8
180000
198390
11fb38
3183c2
218302
5ff303
8f83ff
0801fe
ENDCHAR
STARTCHAR ch-149
ENCODING 149
SWIDTH 1000 0
DWIDTH 24 0
BBX 24 24 0 -3
BITMAP
001c00
20180c
3ffffe
308200
3ffff8
308208
308208
3ffff8
310200
31f238
3103e2
2ff203
6701ff
400000
9ffff8
180618
18fc18
181018
1bffd8
185218
199198
180018
1ffff8
180018
ENDCHAR
STARTCHAR ch-151
ENCODING 151
SWIDTH 1000 0
DWIDTH 24 0
BBX 24 24 0 -3
BITMAP
006006
7ff7ff
000000
1fc3f8
104208
124248
125a48
001800
1ffffe
184200
184200
1ffff8
184218
184218
1ffff8
180000
19c380
118310
31f338
2183c2
218302
5ff303
8f03ff
0801fe
ENDCHAR
STARTCHAR ch-157
ENCODING 157
SWIDTH 1000 0
DWIDTH 24 0
BBX 24 24 0 -3
BITMAP
001c00
20180c
3ffffe
308200
3ffff8
308208
308208
3ffff8
310200
31f238
3103e2
2ff203
6701ff
440000
9fe038
102032
1fefff
102030
1fe430
102330
ffe130
632030
0ce1f0
706060
ENDCHAR
STARTCHAR ch-159
ENCODING 159
SWIDTH 1000 0
DWIDTH 24 0
BBX 24 24 0 -3
BITMAP
0700e0
0608c8
4664ce
7ff6cc
4906c8
4900d2
7fefff
4921d0
4923c8
4926cc
7fecc7
4010c6
4d8400
490404
494784
496cff
4f88a4
4915a4
490524
492324
4b22ff
bde404
99c804
003004
ENDCHAR
STARTCHAR ch-165
ENCODING 165
SWIDTH 1000 0
DWIDTH 24 0
BBX 24 24 0 -3
BITMAP
001c00
001800
00180c
7ffffe
041840
061860
061860
0c18c0
0b18b0
11bd1c
607a0c
00d980
0380f0
0e703f
f060ce
00ffe0
0180c0
036180
0c1b00
300600
001d80
0070e0
01c060
1e0000
ENDCHAR
STARTCHAR ch-166
ENCODING 166
SWIDTH 1000 0
DWIDTH 24 0
BBX 24 24 0 -3
BITMAP
001c00
001800
001818
3ffffc
001800
001800
1ffff8
001800
001806
ffffff
008000
00e000
00c0c0
01ffe0
0300c0
068180
184300
603600
001c00
003700
00e3e0
0380ff
1e003e
e0000e
ENDCHAR
STARTCHAR ch-169
ENCODING 169
SWIDTH 1000 0
DWIDTH 24 0
BBX 24 24 0 -3
BITMAP
0e00e0
0c00c0
0c60c0
fff0c0
0c00cc
4c8ffe
4c80c0
ad40c0
1e00c0
1d00c6
2cdfff
4c40c0
9000c0
1981a0
1fc190
318308
21020c
530406
8a1806
040000
0b0000
11ffff
207ffe
c00000
ENDCHAR
STARTCHAR ch-170
ENCODING 170
SWIDTH 1000 0
DWIDTH 24 0
BBX 24 24 0 -3
BITMAP
070006
060fff
0620c0
fff0c0
0600c0
0644cc
7fe4fe
0604cc
0604cc
0614cc
fffccc
1004cc
18c7fc
1fe40c
10c00c
30800c
298018
450018
8200f8
050030
08c000
107fff
201ffe
c00000
ENDCHAR
STARTCHAR ch-173
ENCODING 173
SWIDTH 1000 0
DWIDTH 24 0
BBX 24 24 0 -3
BITMAP
070200
060380
062300
fff30c
0603fe
06460c
7fe40c
0607cc
0608cc
0620cc
fff0cc
1007cc
18c63c
1fe618
10c602
308602
298603
4507ff
8203fe
050000
08c000
107fff
201ffe
c00000
ENDCHAR
STARTCHAR ch-184
ENCODING 184
SWIDTH 1000 0
DWIDTH 24 0
BBX 24 24 0 -3
BITMAP
0700e0
0600c0
0620c0
fff0c0
0600cc
064ffe
7fe0c0
0600c0
0600c0
0630c6
ffffff
1000c0
18c0c0
1fe1a0
10c190
308308
29820c
450406
820806
050000
08c000
107fff
201ffe
c00000
ENDCHAR
STARTCHAR ch-185
ENCODING 185
SWIDTH 1000 0
DWIDTH 24 0
BBX 24 24 0 -3
BITMAP
0e0400
0c0700
0cc600
ffe606
0c07ff
0c0c06
7fc986
0c1126
0c0526
ffe546
100106
199ff6
1fc306
118786
318566
210d26
531906
8a210c
04013c
0b0118
09c000
10ffff
203ffe
c00000
ENDCHAR
STARTCHAR ch-186
ENCODING 186
SWIDTH 1000 0
DWIDTH 24 0
BBX 24 24 0 -3
BITMAP
070000
064006
7fefff
0600c0
0600c0
064882
7fefff
060912
060912
062912
fff9f2
100912
18c912
1fe912
10c9f2
318912
298912
4b0912
860ffe
070802
0dc000
18ffff
303ffe
c00000
ENDCHAR
STARTCHAR ch-187
ENCODING 187
SWIDTH 1000 0
DWIDTH 24 0
BBX 24 24 0 -3
BITMAP
000e00
000c00
200c06
3fffff
300000
30e070
30c060
30c060
30cc66
3fffff
30c060
30c060
31e0f0
31d8f0
31cde8
33cd68
32c36c
22c267
66c466
64c862
48c060
40c060
80c060
00c060
ENDCHAR
STARTCHAR ch-188
ENCODING 188
SWIDTH 1000 0
DWIDTH 24 0
BBX 24 24 0 -3
BITMAP
001c00
001800
20180c
3ffffe
304080
304884
37fffe
30c1a0
31f390
31529c
32448f
344086
304080
301000
301c00
313180
20c3c0
606700
606c20
401810
406018
87fffc
03f00c
02000c
ENDCHAR
STARTCHAR ch-190
ENCODING 190
SWIDTH 1000 0
DWIDTH 24 0
BBX 24 24 0 -3
BITMAP
001c00
001800
20180c
3ffffe
304080
304884
37fffe
30c1a0
31f390
33529c
34448f
304086
3000c0
300fe0
31fc00
300c00
23fff8
600c00
600c00
4ffffe
400c02
800c03
000fff
0007fe
ENDCHAR
STARTCHAR ch-191
ENCODING 191
SWIDTH 1000 0
DWIDTH 24 0
BBX 24 24 0 -3
BITMAP
001c00
001800
20180c
3ffffe
304080
304884
37fffe
30c1a0
31f390
31529c
32448f
344086
300000
31ffe0
318060
318060
21ffe0
601800
641018
47fffc
460018
860018
07fff8
060018
ENDCHAR
STARTCHAR ch-196
ENCODING 196
SWIDTH 1000 0
DWIDTH 24 0
BBX 24 24 0 -3
BITMAP
00e380
00c300
00c30c
7ffffe
00c300
00c300
00c306
ffffff
001800
081830
0ffff8
0c1830
0c1830
0c1830
0ffff0
0c1830
0c1830
0c1830
0ffff0
010000
01c180
038078
0e001c
70000c
ENDCHAR
STARTCHAR ch-204
ENCODING 204
SWIDTH 1000 0
DWIDTH 24 0
BBX 24 24 0 -3
BITMAP
010000
13a408
1c18fc
102408
1f00f8
102408
5f18f8
50240a
7fffff
c08106
cffff4
008100
008102
ffffff
001800
0ffff0
081810
0ffff0
081810
081810
0ffff0
010000
0780fc
38001c
ENDCHAR
STARTCHAR ch-205
ENCODING 205
SWIDTH 1000 0
DWIDTH 24 0
BBX 24 24 0 -3
BITMAP
0000f0
001ff8
3ff800
001800
001806
ffffff
00fa00
01d980
0718f0
1c383f
e0740e
00e300
0181e0
071c7f
1c189e
e218e6
0199c0
019a00
001800
00db00
7f18f0
38183c
20f80c
003000
ENDCHAR
STARTCHAR ch-206
ENCODING 206
SWIDTH 1000 0
DWIDTH 24 0
BBX 24 24 0 -3
BITMAP
00c200
07e380
7e0306
0603ff
066666
fff466
0e0846
1f00c6
16e086
26610e
46180c
863c3c
007218
00c180
031cf0
1c183f
e318ce
019980
003e00
01d9c0
7f1878
38181c
20f80c
003000
ENDCHAR
STARTCHAR ch-207
ENCODING 207
SWIDTH 1000 0
DWIDTH 24 0
BBX 24 24 0 -3
BITMAP
006070
03f060
7f0060
030060
031860
fffc66
07007f
0f8060
0b6060
133860
271860
c68060
0c6266
1bbbff
331b06
c30306
336306
1b4306
078306
1b6306
e33306
433306
0f03fe
060306
ENDCHAR
STARTCHAR ch-208
ENCODING 208
SWIDTH 1000 0
DWIDTH 24 0
BBX 24 24 0 -3
BITMAP
00c0e0
07e0c0
7e00c6
061fff
066110
fff4a4
0e0444
1f04a4
16c514
266404
4667fc
8f00c0
0cc886
186fff
373c86
463c86
b6cca6
168ca6
0f0ff6
36cd96
e66c06
466c06
1e0c3e
0c0c0c
ENDCHAR
STARTCHAR ch-210
ENCODING 210
SWIDTH 1000 0
DWIDTH 24 0
BBX 24 24 0 -3
BITMAP
100018
1ffffc
181818
181818
181818
1ffff8
181818
181818
181818
181818
1ffff8
181818
001800
001818
3ffffc
001800
001806
ffffff
000000
088410
10430c
306186
e06187
c06183
ENDCHAR
STARTCHAR ch-212
ENCODING 212
SWIDTH 1000 0
DWIDTH 24 0
BBX 24 24 0 -3
BITMAP
4020c0
7ff0c0
4620c0
4621a0
4621a0
7fe110
462310
462218
46260c
7fe5ef
060806
060000
7fe018
0607fc
060018
07e018
ff0018
784038
406030
253030
253030
650070
c00060
c00060
ENDCHAR
STARTCHAR ch-216
ENCODING 216
SWIDTH 1000 0
DWIDTH 24 0
BBX 24 24 0 -3
BITMAP
2010e0
3ff8c8
2310c4
2310c6
3ff0c6
2310c0
2310c6
231fff
3ff0c0
0300c0
0300c0
3ff0c0
0301e0
0301a0
03f9a0
ff81a0
7801b0
402110
011310
249b18
24da1c
66c60f
c6040e
c00806
ENDCHAR
STARTCHAR ch-217
ENCODING 217
SWIDTH 1000 0
DWIDTH 24 0
BBX 24 24 0 -3
BITMAP
2011d0
3ff988
23118c
23118c
3ff180
231186
231fff
231180
3ff180
030340
030340
3ff320
030230
030618
03f41f
ff080e
781006
400000
000000
084210
10410c
30c186
e0c183
c0c183
ENDCHAR
STARTCHAR ch-219
ENCODING 219
SWIDTH 1000 0
DWIDTH 24 0
BBX 24 24 0 -3
BITMAP
020e40
038c60
070c2c
0607fe
0efe00
1e0300
360182
c600e2
00003f
0fffef
0c1060
0c1060
0fffe0
0c1060
0c1060
0fffe0
001000
1ffff0
001006
ffffff
084210
10410c
70c186
60c186
ENDCHAR
STARTCHAR ch-220
ENCODING 220
SWIDTH 1000 0
DWIDTH 24 0
BBX 24 24 0 -3
BITMAP
402070
7ff060
462663
462462
462462
7fe462
462462
462462
462462
7fe7fe
060462
060060
7fe060
060060
060663
07e462
ff0462
784462
406462
253462
253462
650462
c007fe
c00402
ENDCHAR
STARTCHAR ch-221
ENCODING 221
SWIDTH 1000 0
DWIDTH 24 0
BBX 24 24 0 -3
BITMAP
410870
7f8e60
490c60
490c60
490860
7f1860
499060
495466
4967ff
7f2666
083666
083466
7f3466
080c66
080866
0f0866
fc1246
701346
427dc6
01708e
55418c
54010c
d0027c
c00c18
ENDCHAR
STARTCHAR ch-222
ENCODING 222
SWIDTH 1000 0
DWIDTH 24 0
BBX 24 24 0 -3
BITMAP
4020e0
7ff0c0
4620c0
4620c0
4620c0
7fe0c6
4620ff
4620c0
4620c0
7fe0c0
0600c0
0600c0
7fe4cc
0607fe
06060c
07e60c
ff060c
78460c
40660c
25360c
25360c
65060c
c007fc
c0060c
ENDCHAR
STARTCHAR ch-224
ENCODING 224
SWIDTH 1000 0
DWIDTH 24 0
BBX 24 24 0 -3
BITMAP
4020e0
7ff0c0
4620c0
4620c0
4620c6
7fffff
4620c0
4620c0
4620c0
7fe0c0
0600cc
060ffe
7fe000
060000
06040c
07e7fe
ff060c
78460c
40660c
25360c
25360c
65060c
c007fc
c0060c
ENDCHAR
STARTCHAR ch-229
ENCODING 229
SWIDTH 1000 0
DWIDTH 24 0
BBX 24 24 0 -3
BITMAP
4020e0
7ff0c0
4620c0
4620c6
463fff
7fe000
462000
46240c
4627fe
7fe60c
06060c
06060c
7fe60c
0607fc
0600c0
07e0c0
ff04c8
7846c4
406cc6
2568c3
2510c3
6520c3
c007c0
c00180
ENDCHAR
STARTCHAR ch-232
ENCODING 232
SWIDTH 1000 0
DWIDTH 24 0
BBX 24 24 0 -3
BITMAP
081c40
061870
131860
131886
3fffff
300006
63ffc4
620048
03ffc0
000000
0ffff0
081010
0ffff0
081010
0ffff0
001000
1ffff8
001000
ffffff
000000
084210
10410c
70c186
60c186
ENDCHAR
STARTCHAR ch-239
ENCODING 239
SWIDTH 1000 0
DWIDTH 24 0
BBX 24 24 0 -3
BITMAP
402070
7ff060
462064
4627fe
462000
7fe208
46210c
462198
462190
7fe022
060fff
060000
7fe000
06020c
0603fe
07e30c
ff030c
78430c
4063fc
25330c
25330c
65030c
c003fc
c0030c
ENDCHAR
STARTCHAR ch-244
ENCODING 244
SWIDTH 1000 0
DWIDTH 24 0
BBX 24 24 0 -3
BITMAP
102040
1c2070
192460
312460
212440
41fc46
90007f
1dfcc8
19248e
19248c
31fd4c
312448
712448
b1fc58
302050
31fc70
302020
303c30
37e070
330458
3016dc
31528f
37410e
360206
ENDCHAR
STARTCHAR ch-246
ENCODING 246
SWIDTH 1000 0
DWIDTH 24 0
BBX 24 24 0 -3
BITMAP
200006
3fffff
300000
33f8ee
3208c6
33f8c0
3208c6
33ffff
3000c0
33f8a0
220990
63f918
420a0f
820806
07ffe0
041020
07ffe0
041020
3ffffc
001000
ffffff
084108
38618e
302086
ENDCHAR
STARTCHAR ch-247
ENCODING 247
SWIDTH 1000 0
DWIDTH 24 0
BBX 24 24 0 -3
BITMAP
402070
7ff062
462fff
462060
462060
7fe7fe
462000
462fff
462891
7feb1d
060801
060fff
7fe000
0607fe
060402
07e7fe
ff0402
7847fe
406402
2537fe
253100
65039c
c00607
c01803
ENDCHAR
STARTCHAR ch-249
ENCODING 249
SWIDTH 1000 0
DWIDTH 24 0
BBX 24 24 0 -3
BITMAP
00e388
20c30e
18c30c
0cc318
0cc320
00c306
ffffff
041800
0718c0
0e1838
18180e
3fffff
d8181b
181818
199998
199998
199998
199998
199998
191998
191998
1a1818
1818f8
181830
ENDCHAR
STARTCHAR ch-251
ENCODING 251
SWIDTH 1000 0
DWIDTH 24 0
BBX 24 24 0 -3
BITMAP
0920e8
8930c4
6920c6
2940c6
0900c0
fff8c2
2207ff
3260c0
6238c0
4218c0
fff088
42108e
42118c
4a91cc
4a9158
4a9158
4a9350
4a9230
4a9220
4a9470
521058
42108f
42710e
423606
ENDCHAR
STARTCHAR ch-252
ENCODING 252
SWIDTH 1000 0
DWIDTH 24 0
BBX 24 24 0 -3
BITMAP
092034
893022
692022
294020
0907ff
fff820
220020
326222
623bff
421a22
fff222
421222
4213fe
4a9222
4a9222
4a9222
4a9222
4a93fe
4a9222
4a9222
521222
421222
42722e
423226
ENDCHAR
STARTCHAR ch-253
ENCODING 253
SWIDTH 1000 0
DWIDTH 24 0
BBX 24 24 0 -3
BITMAP
40000c
7ffffe
60c60c
60c60c
60c60c
7fc7fc
60c60c
00c600
00c600
40c60c
7fc7fe
60c60c
60c60c
60c60c
7fc7fc
60c60c
60c60c
60c60c
7fc7fc
60c602
00c002
00c003
00ffff
007ffe
ENDCHAR
STARTCHAR ch-263
ENCODING 263
SWIDTH 1000 0
DWIDTH 24 0
BBX 24 24 0 -3
BITMAP
060100
0401c0
7fe186
0403ff
fff210
040518
7fe8b0
080060
1fc0b0
10431c
23cc0f
c18006
1ffff0
104810
1fcff0
004800
3fcff8
204808
3fcff8
20480a
3fcffa
004003
007fff
003ffe
ENDCHAR
STARTCHAR ch-264
ENCODING 264
SWIDTH 1000 0
DWIDTH 24 0
BBX 24 24 0 -3
BITMAP
472100
3631c0
166186
0683ff
7fe210
462518
56a8b0
56a060
56a0b0
66231c
46ec0f
406006
5ffff0
104810
1fcff0
004800
3fcff8
204808
3fcff8
20480a
3fcffa
004003
007fff
003ffe
ENDCHAR
STARTCHAR ch-270
ENCODING 270
SWIDTH 1000 0
DWIDTH 24 0
BBX 24 24 0 -3
BITMAP
010180
39ffce
31818c
31818c
31ff8c
31818c
31818c
31ff8c
31818c
31818c
31ff8c
30000c
30000c
3fe7fc
006600
006606
ffe7ff
0c6618
0c6618
086618
186618
106618
206618
c06618
ENDCHAR
STARTCHAR ch-275
ENCODING 275
SWIDTH 1000 0
DWIDTH 24 0
BBX 24 24 0 -3
BITMAP
0700e0
0600c0
0600c0
fff0c0
0600c6
061fff
7fe0c0
0000c0
0000c0
7fe0cc
606ffe
60620c
60620c
7fe318
008118
40e1b0
30c0e0
188040
1900e0
0031b0
03c318
fe061f
70180e
406006
ENDCHAR
STARTCHAR ch-277
ENCODING 277
SWIDTH 1000 0
DWIDTH 24 0
BBX 24 24 0 -3
BITMAP
070070
062060
fff062
060fff
7fe060
000060
3fc7fe
20410c
3fc098
108060
09e1b8
ff061f
70c006
01ffc0
030380
0cc600
303800
00c780
0f01ff
f07c3e
000c00
03f000
003f00
000700
ENDCHAR
STARTCHAR ch-288
ENCODING 288
SWIDTH 1000 0
DWIDTH 24 0
BBX 24 24 0 -3
BITMAP
00c000
11e018
1e03fc
180018
184018
1fe3f8
180018
180018
1ffff8
000000
000000
1c3870
1a3460
19b360
18b160
183060
1a3460
19b362
18b132
183032
1a3312
fcfc1a
70700f
404007
ENDCHAR
STARTCHAR ch-289
ENCODING 289
SWIDTH 1000 0
DWIDTH 24 0
BBX 24 24 0 -3
BITMAP
008020
206038
183070
0c3860
0e18c0
060080
100130
1ffff8
183030
183030
183030
1ffff0
183030
183030
183030
183030
1ffff0
183012
18301a
10301a
30300a
20300e
403007
800003
ENDCHAR
STARTCHAR ch-300
ENCODING 300
SWIDTH 1000 0
DWIDTH 24 0
BBX 24 24 0 -3
BITMAP
080070
5c6060
71f060
606060
606060
79e462
6067ff
606462
606462
7fe462
000462
6667fe
444462
444462
774462
444462
446462
7727fe
443000
441802
440c02
ffc703
6703ff
4400fe
ENDCHAR
STARTCHAR ch-315
ENCODING 315
SWIDTH 1000 0
DWIDTH 24 0
BBX 24 24 0 -3
BITMAP
002000
043020
07fff0
040020
07ffe0
040020
07ffe0
040020
07ffe0
000000
1ffff8
181818
181818
1ffff8
181818
181818
1ffff8
00c180
00c186
ffffff
018180
030180
0c0180
700180
ENDCHAR
STARTCHAR ch-318
ENCODING 318
SWIDTH 1000 0
DWIDTH 24 0
BBX 24 24 0 -3
BITMAP
040000
26200c
3ff3fe
202060
3fe060
202060
3fe060
202060
3fe060
000060
7ff066
4217ff
421060
7ff060
421060
421060
7ff060
18c060
18c060
fff860
10c060
30c060
20c060
40c060
ENDCHAR
STARTCHAR ch-330
ENCODING 330
SWIDTH 1000 0
DWIDTH 24 0
BBX 24 24 0 -3
BITMAP
001c00
001800
001806
ffffff
008200
00631c
7f26f0
191890
111888
31188c
2719e7
421882
800000
0c0030
0ffff0
0c0030
0c0030
0c0030
0ffff0
080030
180030
100030
200030
400030
ENDCHAR
STARTCHAR ch-331
ENCODING 331
SWIDTH 1000 0
DWIDTH 24 0
BBX 24 24 0 -3
BITMAP
001c00
001806
ffffff
008400
00661c
7f24f0
111890
111898
331888
2218ec
6e18cf
800006
0c0030
0ffff0
0c0030
0c0030
0ffff0
081830
191830
119b30
3319b0
2619b0
487830
803030
ENDCHAR
STARTCHAR ch-334
ENCODING 334
SWIDTH 1000 0
DWIDTH 24 0
BBX 24 24 0 -3
BITMAP
001c00
001806
ffffff
004204
3f34f8
091890
111888
2318e4
c01803
180018
1ffff8
180018
1ffff8
180018
19ff98
190098
19ff98
190098
19ff98
110098
31ff98
208018
41c3d8
8600d8
ENDCHAR
STARTCHAR ch-335
ENCODING 335
SWIDTH 1000 0
DWIDTH 24 0
BBX 24 24 0 -3
BITMAP
001c00
001806
ffffff
008200
7e677c
122448
321848
2e1874
4418c7
800002
180018
1ffff8
180018
1ffff8
182418
19e798
182418
19e798
182418
11e798
302418
202418
43ffd8
800018
ENDCHAR
STARTCHAR ch-338
ENCODING 338
SWIDTH 1000 0
DWIDTH 24 0
BBX 24 24 0 -3
BITMAP
001c00
001800
0e1830
0c1ff8
0c1800
0c1806
ffffff
000000
188118
18c198
198318
1962d8
1a2458
180018
1ffff8
180018
188118
18c198
198318
1962d8
1a2458
180018
1ffff8
180018
ENDCHAR
STARTCHAR ch-340
ENCODING 340
SWIDTH 1000 0
DWIDTH 24 0
BBX 24 24 0 -3
BITMAP
0381c0
030180
333180
33f980
330180
330188
33318e
fff99c
401198
5251b0
4a51c0
4a9180
421180
5fd180
461180
471180
4a9180
4ad180
525182
421182
421182
401183
7ff1ff
4010fe
ENDCHAR
STARTCHAR ch-351
ENCODING 351
SWIDTH 1000 0
DWIDTH 24 0
BBX 24 24 0 -3
BITMAP
03810c
0301fe
33318c
33f98c
33018c
33018c
33318c
fff98c
4011fc
52518c
4a518c
4a918c
42118c
5fd18c
46118c
4711fc
4a918c
4ad18c
52518c
42118c
42118c
40118c
7ff7ff
401000
ENDCHAR
STARTCHAR ch-352
ENCODING 352
SWIDTH 1000 0
DWIDTH 24 0
BBX 24 24 0 -3
BITMAP
038000
030006
3337ff
33f8c6
3300c6
3300c6
333086
fff986
40110c
52530c
4a527c
4a9418
421000
5fd20c
4613fe
47130c
4a930c
4ad30c
52530c
42130c
42130c
40130c
7ff3fc
40130c
ENDCHAR
STARTCHAR ch-353
ENCODING 353
SWIDTH 1000 0
DWIDTH 24 0
BBX 24 24 0 -3
BITMAP
038060
030060
3330d0
33f8d0
330088
330988
fffd0c
401207
4895f6
489000
599000
555006
6237ff
4010c6
7ff0c6
4010c6
4890c6
4890c6
5990c6
5550de
6230cc
4010c0
7ff0c0
4010c0
ENDCHAR
STARTCHAR ch-354
ENCODING 354
SWIDTH 1000 0
DWIDTH 24 0
BBX 24 24 0 -3
BITMAP
0380c0
0300c0
3330c0
33f9a0
3301a0
330110
333118
fffb0c
40120f
525406
4a5bf0
4a9000
42100c
5fd7fe
46118c
47118c
4a918c
4ad18c
52518c
42118c
4211bc
401198
7ff180
401180
ENDCHAR
STARTCHAR ch-355
ENCODING 355
SWIDTH 1000 0
DWIDTH 24 0
BBX 24 24 0 -3
BITMAP
038200
030380
333300
33fb00
330306
3303ff
333206
fffa06
401606
5255e6
4a5926
4a9126
421126
5fd126
461126
471126
4a91e6
4ad006
52500c
42100c
42100c
401018
7ff0f8
401030
ENDCHAR
STARTCHAR ch-358
ENCODING 358
SWIDTH 1000 0
DWIDTH 24 0
BBX 24 24 0 -3
BITMAP
03820c
0303fe
33330c
33fb0c
33030c
3303fc
33330c
fffb0c
40130c
52530c
4a53fc
4a9322
421323
5fd326
461324
471328
4a9330
4ad310
525318
421318
4213ec
401f8f
7ff60e
401406
ENDCHAR
STARTCHAR ch-359
ENCODING 359
SWIDTH 1000 0
DWIDTH 24 0
BBX 24 24 0 -3
BITMAP
070000
062006
fff7ff
0600c6
0640c6
7fe186
06010e
06020c
07e47c
fe0018
601840
071fe0
061806
ffffff
180018
189918
185a18
1bffd8
187a18
18d998
1b18d8
180018
1ffff8
180018
ENDCHAR
STARTCHAR ch-362
ENCODING 362
SWIDTH 1000 0
DWIDTH 24 0
BBX 24 24 0 -3
BITMAP
03820c
0303fe
33330c
33fb0c
33030c
33030c
33330c
fffb0c
4013fc
52536c
4a5060
4a9060
421360
5fd266
46127f
471260
4a9260
4ad260
525260
421360
4212e0
401470
7ff43f
40080e
ENDCHAR
STARTCHAR ch-364
ENCODING 364
SWIDTH 1000 0
DWIDTH 24 0
BBX 24 24 0 -3
BITMAP
038000
030006
3337ff
33f8c0
3300c0
3300cc
3337fe
fff98c
40118c
52518c
4a518c
4a9fff
421000
5fd000
461206
4713ff
4a9306
4ad306
525306
421306
421306
401306
7ff3fe
401306
ENDCHAR
STARTCHAR ch-370
ENCODING 370
SWIDTH 1000 0
DWIDTH 24 0
BBX 24 24 0 -3
BITMAP
07000c
06007e
3667e0
27f040
260040
2607fc
266444
fff444
404444
4447fc
554040
554040
444846
7fcfff
4c4c46
4e4c46
554c56
554c56
654ff6
444d96
444c06
404c06
7fcc1e
404c0c
ENDCHAR
STARTCHAR ch-374
ENCODING 374
SWIDTH 1000 0
DWIDTH 24 0
BBX 24 24 0 -3
BITMAP
0709a6
060fbf
3669a6
27f9a6
2609a6
2609a6
266fbe
fff000
404008
4447fc
554000
554002
445fff
7fc300
4c430c
4e43fe
55460c
55460c
65400c
44401c
444018
404038
7fc1f0
404060
ENDCHAR
STARTCHAR ch-375
ENCODING 375
SWIDTH 1000 0
DWIDTH 24 0
BBX 24 24 0 -3
BITMAP
070806
060fff
366c06
27fc06
260c06
260ffe
266c00
fffc02
404fff
444c40
554cc8
554c84
444ffe
7fcd86
4c4870
4e4860
554864
555bfe
655060
445060
446060
404062
7fcfff
404000
ENDCHAR
STARTCHAR ch-397
ENCODING 397
SWIDTH 1000 0
DWIDTH 24 0
BBX 24 24 0 -3
BITMAP
070380
060306
0663ff
7ff300
108300
18c3fc
08800c
01300c
fffa0c
0003fc
000300
3fe300
3063fe
306300
3fe300
3063fe
306300
3fe300
3063fe
306300
306302
306303
33e3ff
30c1fe
ENDCHAR
STARTCHAR ch-405
ENCODING 405
SWIDTH 1000 0
DWIDTH 24 0
BBX 24 24 0 -3
BITMAP
001800
003c00
00e380
0380f0
1cff3f
e00006
07ffe0
040020
07ffe0
000000
060200
7fe3fe
108200
0903fc
fff004
0003fc
3fc200
2043fc
3fc200
2043fc
3fc202
204203
21c3ff
20c1fe
ENDCHAR
STARTCHAR ch-412
ENCODING 412
SWIDTH 1000 0
DWIDTH 24 0
BBX 24 24 0 -3
BITMAP
008000
00c180
01ffc0
038300
060200
180418
7ffffc
184418
184418
1fc7f8
004400
7e4400
02440c
fffffe
024404
7e45b4
004444
7e45b4
024404
fffffe
024002
7e4003
007fff
003ffe
ENDCHAR
STARTCHAR ch-413
ENCODING 413
SWIDTH 1000 0
DWIDTH 24 0
BBX 24 24 0 -3
BITMAP
031000
1f98c0
f83fe0
1860c0
18c080
1bfff8
188908
ff8908
18f9f8
180900
1ce900
3a2904
3bfffe
3a2904
38e954
780924
580924
58e954
982904
19fffc
182802
18e803
180fff
1807fe
ENDCHAR
STARTCHAR ch-416
ENCODING 416
SWIDTH 1000 0
DWIDTH 24 0
BBX 24 24 0 -3
BITMAP
001800
001800
003400
006200
00c100
0180c0
06ff78
18001f
e00006
1f7ef8
114288
114288
1f7ef8
000000
100018
1ffffc
18c318
18c318
1ffff8
18c318
18c318
18c318
18c378
180030
ENDCHAR
ENDFONT
