STARTFONT 2.1
FONT jis.jis5600.24
SIZE 24 72 72
FONTBOUNDINGBOX 24 24 0 -3
STARTPROPERTIES 4
FONT_DESCENT 3
FONT_ASCENT 21
DEFAULT_CHAR 6
COPYRIGHT "Copyright (c) 1992 AT&T - All rights reserved."
ENDPROPERTIES
CHARS 129
STARTCHAR ch-6
ENCODING 6
SWIDTH 1000 0
DWIDTH 24 0
BBX 24 24 0 -3
BITMAP
000e70
000c60
460c66
7fffff
660c60
660c60
667ffc
66630c
66630c
66630c
667ffc
66630c
660300
660308
667ffc
7e0300
660302
61ffff
000680
000440
000c60
001838
00601f
038006
ENDCHAR
STARTCHAR ch-9
ENCODING 9
SWIDTH 1000 0
DWIDTH 24 0
BBX 24 24 0 -3
BITMAP
001c00
001806
ffffff
001800
001808
3ffffc
000000
000000
0ffff0
0c0030
0c0030
0ffff0
010180
00c180
00c206
ffffff
030000
030000
7ff3fc
06330c
06330c
0c330c
19f3fc
60630c
ENDCHAR
STARTCHAR ch-20
ENCODING 20
SWIDTH 1000 0
DWIDTH 24 0
BBX 24 24 0 -3
BITMAP
00400c
007ffe
466000
7f6000
6663f0
666210
666210
666210
666210
6663f0
666000
666000
666f3c
666924
666924
666924
7e6924
666924
606f3c
006000
006000
006006
007fff
006000
ENDCHAR
STARTCHAR ch-22
ENCODING 22
SWIDTH 1000 0
DWIDTH 24 0
BBX 24 24 0 -3
BITMAP
000380
00030c
437ffe
7f8300
630318
633ffc
630300
630306
63ffff
630000
633ff8
633018
633018
633ff8
633018
7f3018
633ff8
603018
003018
003ff8
000c00
001e78
00381e
00c006
ENDCHAR
STARTCHAR ch-23
ENCODING 23
SWIDTH 1000 0
DWIDTH 24 0
BBX 24 24 0 -3
BITMAP
081c40
061870
231860
231886
7fffff
600006
c3ffc8
c20040
03ffc0
180000
180060
1ffff0
180004
180006
0ffffe
000000
0ffff0
0c0030
0c0030
0ffff0
0c0030
0c0030
0ffff0
0c0030
ENDCHAR
STARTCHAR ch-24
ENCODING 24
SWIDTH 1000 0
DWIDTH 24 0
BBX 24 24 0 -3
BITMAP
000380
00030c
4603fe
7f0300
664306
667fff
666386
666308
6663f0
667f04
666306
6663fe
6661fc
666000
7e6370
666364
66d367
60db66
00db64
018b68
018360
030366
0c7fff
000000
ENDCHAR
STARTCHAR ch-27
ENCODING 27
SWIDTH 1000 0
DWIDTH 24 0
BBX 24 24 0 -3
BITMAP
000380
000300
010306
89ffff
fd8000
c98c30
c98820
c98b26
c9ffff
c98820
c98820
c99870
c99e70
c99b70
c99b78
c9b8e8
f9a8a8
cb28ac
c369a6
024927
028a22
040820
080820
000820
ENDCHAR
STARTCHAR ch-41
ENCODING 41
SWIDTH 1000 0
DWIDTH 24 0
BBX 24 24 0 -3
BITMAP
001c70
001860
461866
7fffff
661860
661860
660004
66fffe
663318
663318
66331a
67ffff
663318
663318
663318
66fffe
7e0300
660300
600306
63ffff
000300
000300
000300
000300
ENDCHAR
STARTCHAR ch-47
ENCODING 47
SWIDTH 1000 0
DWIDTH 24 0
BBX 24 24 0 -3
BITMAP
0000c0
000084
431ffe
7f8084
630084
633fff
630084
630084
631ffc
630080
633887
633496
6336b6
6332a6
633086
7f3ffe
633186
6031c6
0032a6
0022b6
002496
006896
004086
008006
ENDCHAR
STARTCHAR ch-49
ENCODING 49
SWIDTH 1000 0
DWIDTH 24 0
BBX 24 24 0 -3
BITMAP
00800c
00fffe
44c00c
7ec00c
64fffc
64c00c
64c030
64c1f8
64df00
64c100
64dff8
64d108
649108
649ff8
658100
7d4106
617fff
636106
026126
0661d6
046f16
086406
10601e
00600c
ENDCHAR
STARTCHAR ch-50
ENCODING 50
SWIDTH 1000 0
DWIDTH 24 0
BBX 24 24 0 -3
BITMAP
003846
00307f
443146
7fffc6
643046
643046
643046
65fe7e
650246
650246
65fe46
650246
650246
65027e
65fe46
643046
7c3046
643146
63ffc6
0030c6
003086
003186
00311e
00320c
ENDCHAR
STARTCHAR ch-52
ENCODING 52
SWIDTH 1000 0
DWIDTH 24 0
BBX 24 24 0 -3
BITMAP
000e70
000c64
466c6e
7f4f78
664c62
664c63
664f7f
67f83e
66cc00
660fe0
661860
66308c
66fffe
66310c
66310c
7e3ffc
66310c
60310c
003ffc
00200c
00600c
00400c
00807c
030018
ENDCHAR
STARTCHAR ch-54
ENCODING 54
SWIDTH 1000 0
DWIDTH 24 0
BBX 24 24 0 -3
BITMAP
00cc04
00880e
448898
7c88e0
67fec0
6488c0
6488c0
6488c6
64f8ff
6488cc
6488cc
6488cc
64f8cc
6488cc
6488cc
7c88cc
67fecc
6000cc
01108c
01c88c
038d8c
030d0c
06010c
08020c
ENDCHAR
STARTCHAR ch-56
ENCODING 56
SWIDTH 1000 0
DWIDTH 24 0
BBX 24 24 0 -3
BITMAP
002000
003800
003000
46600c
7e7ffe
66a490
672490
662490
662490
662496
67ffff
662490
662490
662490
662490
662496
7fffff
660000
600000
004488
004444
008c46
038c63
030c63
ENDCHAR
STARTCHAR ch-66
ENCODING 66
SWIDTH 1000 0
DWIDTH 24 0
BBX 24 24 0 -3
BITMAP
002040
001870
4618e0
7f0086
66ffff
660480
660480
667ffc
66648c
66648c
6678fc
66600c
667ffc
66600c
66600c
7e7ffc
660030
600036
01ffff
000030
001830
000c30
000df0
000060
ENDCHAR
STARTCHAR ch-76
ENCODING 76
SWIDTH 1000 0
DWIDTH 24 0
BBX 24 24 0 -3
BITMAP
001010
000c1c
000618
430610
7fa026
633fff
633186
633186
633ffe
633186
633186
633186
633ffe
630000
63100c
7f1ffe
63180c
60180c
001ffc
00180c
00180c
00180c
001ffc
00180c
ENDCHAR
STARTCHAR ch-78
ENCODING 78
SWIDTH 1000 0
DWIDTH 24 0
BBX 24 24 0 -3
BITMAP
0001c0
00018c
433ffe
7f8180
630198
631ffc
630000
632006
633fff
636006
636ff4
630000
631ff8
631818
7f1818
631818
601ff8
000020
001038
000c30
000620
000646
00ffff
000000
ENDCHAR
STARTCHAR ch-80
ENCODING 80
SWIDTH 1000 0
DWIDTH 24 0
BBX 24 24 0 -3
BITMAP
20c20c
3fe3fe
30c30c
30c30c
30c30c
3fc3fc
30c30c
000000
000018
3ffffc
001800
001800
001806
ffffff
000000
000000
20c20c
3fe3fe
30c30c
30c30c
30c30c
30c30c
3fc3fc
30c30c
ENDCHAR
STARTCHAR ch-91
ENCODING 91
SWIDTH 1000 0
DWIDTH 24 0
BBX 24 24 0 -3
BITMAP
0001c0
000180
46398c
7f31fe
663180
663180
663186
67ffff
660000
6661c6
666996
666db6
6665a6
666186
7e6ff6
666386
6663c6
6067a6
0065b6
0069b6
006186
006006
007ffe
006006
ENDCHAR
STARTCHAR ch-100
ENCODING 100
SWIDTH 1000 0
DWIDTH 24 0
BBX 24 24 0 -3
BITMAP
001818
001010
461316
7fffff
661010
663c30
663638
66767c
66d0d7
671312
661010
660000
667ff8
660000
660006
7fffff
660300
604300
007320
006318
00c30c
01830e
021f06
000600
ENDCHAR
STARTCHAR ch-104
ENCODING 104
SWIDTH 1000 0
DWIDTH 24 0
BBX 24 24 0 -3
BITMAP
10c218
1fe3fc
18c318
18c318
18c318
18c318
1fc3f8
182318
003800
007000
006006
ffffff
018200
030180
0600f0
0c003f
30c20e
dfe3fe
18c318
18c318
18c318
18c318
1fc3f8
18c318
ENDCHAR
STARTCHAR ch-106
ENCODING 106
SWIDTH 1000 0
DWIDTH 24 0
BBX 24 24 0 -3
BITMAP
001030
001ff8
431830
7f9830
631830
631ff0
630000
630000
637c7c
634444
634444
634444
637c7c
630380
630306
7fffff
630740
600f40
000b20
001b38
00331f
00630e
018306
000300
ENDCHAR
STARTCHAR ch-107
ENCODING 107
SWIDTH 1000 0
DWIDTH 24 0
BBX 24 24 0 -3
BITMAP
000380
00030c
007ffe
431020
7f8820
630846
63ffff
630000
630000
633ff8
633018
633018
633ff8
633018
633018
7f3ff8
630000
600e88
004cc6
004cd3
00cc13
018c18
018ff8
0007f0
ENDCHAR
STARTCHAR ch-108
ENCODING 108
SWIDTH 1000 0
DWIDTH 24 0
BBX 24 24 0 -3
BITMAP
004080
0070e0
4666c6
7effff
66a120
671218
661818
661800
66000c
66fffe
660300
662310
663318
663318
666330
7e6330
66d368
609b46
011b83
020303
000300
000306
01ffff
000000
ENDCHAR
STARTCHAR ch-116
ENCODING 116
SWIDTH 1000 0
DWIDTH 24 0
BBX 24 24 0 -3
BITMAP
0001c0
000180
433ffc
7f8180
630990
630810
63ffff
630810
630810
630000
633ffc
63300c
63300c
633ffc
7f300c
63300c
633ffc
60300c
00300c
003ffc
000c00
001e3c
00700f
018003
ENDCHAR
STARTCHAR ch-120
ENCODING 120
SWIDTH 1000 0
DWIDTH 24 0
BBX 24 24 0 -3
BITMAP
006006
0043ff
484030
7c5820
487d46
4bc1ff
484186
484186
4a4986
4a49fe
4a4986
4a4986
4a4986
4bf9fe
4a4986
484186
784186
484986
4049fe
004c00
007c88
0039c6
000303
000c03
ENDCHAR
STARTCHAR ch-122
ENCODING 122
SWIDTH 1000 0
DWIDTH 24 0
BBX 24 24 0 -3
BITMAP
003806
00309f
4432f0
7fffc0
6504c0
6486c0
64ccc0
64c8c6
6410ff
67ffcc
6430cc
6430cc
6430cc
67ffcc
6470cc
6470cc
7cfccc
64b68c
61b68c
01318c
02310c
0c320c
00340c
00300c
ENDCHAR
STARTCHAR ch-128
ENCODING 128
SWIDTH 1000 0
DWIDTH 24 0
BBX 24 24 0 -3
BITMAP
0001c0
004180
464186
7f7fff
66c004
66c100
660c8c
662ca6
666c36
6667f0
660000
660000
667ffc
664444
664444
7e7ffc
660000
600006
01ffff
000180
000180
000180
000f80
000300
ENDCHAR
STARTCHAR ch-134
ENCODING 134
SWIDTH 1000 0
DWIDTH 24 0
BBX 24 24 0 -3
BITMAP
000e38
000c32
437fff
7f8c30
630c30
630180
630186
637fff
630000
630ff0
630c30
630c30
630ff0
634006
7f7fff
636006
6067e6
006426
006426
006426
0067e6
006006
00603e
00600c
ENDCHAR
STARTCHAR ch-135
ENCODING 135
SWIDTH 1000 0
DWIDTH 24 0
BBX 24 24 0 -3
BITMAP
007070
006060
486060
7c6464
4bfffe
486060
486060
486060
486262
4fffff
485050
485050
495950
495558
495554
4b5556
4a5353
7a5253
44d2d3
489490
019190
011110
02f2f0
046460
ENDCHAR
STARTCHAR ch-138
ENCODING 138
SWIDTH 1000 0
DWIDTH 24 0
BBX 24 24 0 -3
BITMAP
000200
001330
001ff8
461010
7f1ff0
661010
661ff0
661010
661ff0
660000
667ffc
664104
664104
667ffc
664104
7e4104
667ffc
601830
01ffff
001830
001830
003030
006030
018030
ENDCHAR
STARTCHAR ch-143
ENCODING 143
SWIDTH 1000 0
DWIDTH 24 0
BBX 24 24 0 -3
BITMAP
000380
000306
46ffff
7f0300
664306
667fff
66c006
66dff4
661110
661ff0
661110
661110
661ff0
660006
66ffff
7e0306
662304
603b18
0033fc
003300
006b00
004700
0083ff
0300fe
ENDCHAR
STARTCHAR ch-148
ENCODING 148
SWIDTH 1000 0
DWIDTH 24 0
BBX 24 24 0 -3
BITMAP
000380
000306
46ffff
7f0300
664306
667fff
66c006
66dff4
661110
661ff0
661110
661110
661ff0
66040c
66fffe
7e7f06
660300
602318
003bfc
003300
007b00
006f00
00c3ff
0300fe
ENDCHAR
STARTCHAR ch-160
ENCODING 160
SWIDTH 1000 0
DWIDTH 24 0
BBX 24 24 0 -3
BITMAP
002007
017086
89cfc6
fd04b6
c924a6
c934a6
c9d4a6
cb8ba6
c931a6
c83026
c86c26
c86326
c8c1a6
c9fda6
cb1026
fc1026
c9ff26
c01206
011306
00d206
005406
03ff06
01e03e
01000c
ENDCHAR
STARTCHAR ch-162
ENCODING 162
SWIDTH 1000 0
DWIDTH 24 0
BBX 24 24 0 -3
BITMAP
001c00
00180c
7ffffe
001800
0ffff0
081810
2ffff0
201806
7fffff
c30004
c781f0
1c003e
e0810e
1ffff0
008100
1ffff8
008102
ffffff
01c430
0f8238
f20320
0239c0
3fc0fe
0e003c
ENDCHAR
STARTCHAR ch-165
ENCODING 165
SWIDTH 1000 0
DWIDTH 24 0
BBX 24 24 0 -3
BITMAP
000e70
000c60
000c66
46ffff
7f0c60
660c60
660fe0
660000
663032
6637b3
67f4b6
6634b8
6634b0
6634b2
67f4b2
66b7b3
7e303f
66301e
600000
004488
004444
008c46
038c63
030c63
ENDCHAR
STARTCHAR ch-174
ENCODING 174
SWIDTH 1000 0
DWIDTH 24 0
BBX 24 24 0 -3
BITMAP
0c4246
0e7f7f
504266
247e66
374264
064268
087e64
124462
ff4263
664f63
0df36f
30c066
c07060
20600c
3ffffe
30000c
31030c
31ff8c
31830c
31830c
31ff0c
31830c
30007c
300018
ENDCHAR
STARTCHAR ch-180
ENCODING 180
SWIDTH 1000 0
DWIDTH 24 0
BBX 24 24 0 -3
BITMAP
086218
0ff3fc
0c6318
0c6318
0fe3f8
200006
3fffff
300080
37f8e0
30c0c0
30c886
3ffdff
321118
321318
33f298
321498
321050
23f070
621020
621070
5ff058
4f10cc
88118f
001606
ENDCHAR
STARTCHAR ch-182
ENCODING 182
SWIDTH 1000 0
DWIDTH 24 0
BBX 24 24 0 -3
BITMAP
004c4c
007e7e
464444
7f4444
667c7c
664444
664444
667c7c
664444
664444
667c7c
660000
664c4c
66e4e6
7f8186
660c00
61ffff
001830
003060
007ec0
006380
0006f0
001c3e
01e006
ENDCHAR
STARTCHAR ch-188
ENCODING 188
SWIDTH 1000 0
DWIDTH 24 0
BBX 24 24 0 -3
BITMAP
00001c
0003fe
00ff88
46440c
7f3318
669116
66ffff
66c446
66c446
66fffe
660000
66fe0e
66c60c
66c60c
66feff
7ec60c
66c68c
60fe4c
00c06c
00c86c
00c60c
03fb0c
01c37c
010018
ENDCHAR
STARTCHAR ch-192
ENCODING 192
SWIDTH 1000 0
DWIDTH 24 0
BBX 24 24 0 -3
BITMAP
003818
003010
003412
45feff
7e3010
643012
65feff
653292
653292
6532fe
65fe92
653292
6532fe
653264
65fe42
6431ff
7c30c3
64340c
63feff
60300c
0031cc
0030cc
00303c
003018
ENDCHAR
STARTCHAR ch-193
ENCODING 193
SWIDTH 1000 0
DWIDTH 24 0
BBX 24 24 0 -3
BITMAP
00000c
007ffe
460820
7f0fe0
660820
660820
660fe0
660820
66083e
66ffe0
663820
660020
660606
67ffff
664444
7e7c7c
664444
604444
007c7c
004444
004444
03fffc
01c5c4
000404
ENDCHAR
STARTCHAR ch-194
ENCODING 194
SWIDTH 1000 0
DWIDTH 24 0
BBX 24 24 0 -3
BITMAP
20c20c
3fe3fe
30c30c
30c30c
3fc3fc
000000
ffffff
003000
0ffff0
080010
0ffff0
080010
0ffff0
080010
0ffff0
00c000
03e1c0
1f003c
f0000f
1fe7fb
186618
186618
1fe7f8
186618
ENDCHAR
STARTCHAR ch-195
ENCODING 195
SWIDTH 1000 0
DWIDTH 24 0
BBX 24 24 0 -3
BITMAP
007080
0060e8
8866cc
ffff98
c80190
c91126
c913ff
c93790
caa990
ca4d90
cc8594
c801fe
c86190
c86590
cfff90
c8e194
f8f1fe
c9e990
c16d90
036d90
066196
0861ff
006180
006180
ENDCHAR
STARTCHAR ch-200
ENCODING 200
SWIDTH 1000 0
DWIDTH 24 0
BBX 24 24 0 -3
BITMAP
000e70
000c66
00ffff
460c60
7f1030
667c24
6610fe
66fe24
6624a4
664764
679024
667e75
661057
66fe93
7e6000
66000c
60fffe
600000
03ffff
000c10
00080c
00fff6
007e06
004000
ENDCHAR
STARTCHAR ch-206
ENCODING 206
SWIDTH 1000 0
DWIDTH 24 0
BBX 24 24 0 -3
BITMAP
000208
01310e
01f98c
451198
7d1412
6517ff
651646
65f646
6517fe
651646
651646
651646
65f7fe
651000
65120c
7d13fe
65130c
61f30c
0003fc
01230c
01930c
031b0c
021bfc
04030c
ENDCHAR
STARTCHAR ch-209
ENCODING 209
SWIDTH 1000 0
DWIDTH 24 0
BBX 24 24 0 -3
BITMAP
010006
01ffff
018006
45fffe
7d8000
659c9c
658080
659c9c
658000
65bffe
65a222
65a222
65bffe
658c00
659ffe
7db206
61ffe6
612226
032226
023fe6
02020e
04024c
087ffc
003858
ENDCHAR
STARTCHAR ch-211
ENCODING 211
SWIDTH 1000 0
DWIDTH 24 0
BBX 24 24 0 -3
BITMAP
001800
001006
46feff
7e1026
661026
66fe26
661066
66105e
66fe4c
666180
6619f8
661980
67ffff
66600c
66692c
7e654c
666fec
60630c
00678c
00656c
00692c
00600c
007ffc
00600c
ENDCHAR
STARTCHAR ch-215
ENCODING 215
SWIDTH 1000 0
DWIDTH 24 0
BBX 24 24 0 -3
BITMAP
400006
7fffff
600006
600006
600006
600006
600006
600006
600006
600006
600006
600006
600006
600006
600006
600006
600006
600006
600006
600006
600006
600006
7ffffe
600006
ENDCHAR
STARTCHAR ch-216
ENCODING 216
SWIDTH 1000 0
DWIDTH 24 0
BBX 24 24 0 -3
BITMAP
400006
7fffff
600006
600006
610186
61ffc6
618186
618186
618186
618186
61ff86
618186
618006
618006
618046
618046
618066
61ffe6
60ffc6
600006
600006
600006
60003e
60000c
ENDCHAR
STARTCHAR ch-218
ENCODING 218
SWIDTH 1000 0
DWIDTH 24 0
BBX 24 24 0 -3
BITMAP
400006
7fffff
600006
600006
603806
603006
603006
603006
603006
606806
606806
606806
606c06
604406
60c606
608306
618386
6101f6
6200e6
6c0066
600006
600006
7ffffe
600006
ENDCHAR
STARTCHAR ch-219
ENCODING 219
SWIDTH 1000 0
DWIDTH 24 0
BBX 24 24 0 -3
BITMAP
000000
20000c
3ffffe
30c60c
30c60c
30c60c
30c60c
30c60c
30c60c
30c60c
30c60c
31860c
31860c
3187fc
3303fc
32000c
34000c
38000c
30000c
30000c
30000c
3ffffc
30000c
30000c
ENDCHAR
STARTCHAR ch-222
ENCODING 222
SWIDTH 1000 0
DWIDTH 24 0
BBX 24 24 0 -3
BITMAP
000000
20000c
3ffffe
30000c
30000c
30000c
30830c
30ff8c
30c30c
30c30c
30c30c
30c30c
30c30c
30c30c
30c30c
30ff0c
30c30c
30000c
30000c
30000c
30000c
3ffffc
30000c
30000c
ENDCHAR
STARTCHAR ch-224
ENCODING 224
SWIDTH 1000 0
DWIDTH 24 0
BBX 24 24 0 -3
BITMAP
400006
7fffff
600006
600006
601c06
601806
601806
601866
67fff6
601806
601806
603406
603406
603406
606206
606306
60c186
6181c6
6300f6
6c0066
600006
600006
7ffffe
600006
ENDCHAR
STARTCHAR ch-227
ENCODING 227
SWIDTH 1000 0
DWIDTH 24 0
BBX 24 24 0 -3
BITMAP
400006
7fffff
600006
600386
600306
600306
600326
6ffff6
600306
600306
610306
60c306
606306
606306
600306
600306
600306
600306
601f06
600606
600006
600006
7ffffe
600006
ENDCHAR
STARTCHAR ch-238
ENCODING 238
SWIDTH 1000 0
DWIDTH 24 0
BBX 24 24 0 -3
BITMAP
400006
7fffff
600006
608006
60ee06
60cc06
61cc06
618c46
618c76
638ce6
638d86
658e06
698c06
618c06
618c26
618c26
618c26
618c36
618ff6
6187e6
600006
600006
7ffffe
600006
ENDCHAR
STARTCHAR ch-240
ENCODING 240
SWIDTH 1000 0
DWIDTH 24 0
BBX 24 24 0 -3
BITMAP
400006
7fffff
600006
600006
601c06
601806
6018c6
67ffe6
603806
603c06
607c06
607a06
60db06
60d986
6199f6
6318e6
6c1866
601806
601806
601806
600006
600006
7ffffe
600006
ENDCHAR
STARTCHAR ch-242
ENCODING 242
SWIDTH 1000 0
DWIDTH 24 0
BBX 24 24 0 -3
BITMAP
400006
7fffff
600006
60e386
60c306
60c306
60c366
6ffff6
60c306
60c306
60c306
60c306
60c366
6ffff6
60c306
60c306
618306
618306
610306
620306
640306
600006
7ffffe
600006
ENDCHAR
STARTCHAR ch-243
ENCODING 243
SWIDTH 1000 0
DWIDTH 24 0
BBX 24 24 0 -3
BITMAP
400006
7fffff
600006
600006
604046
603076
641866
631866
6180c6
6180c6
602186
601186
600b06
600606
600f06
601986
6031c6
6060c6
6180c6
660006
600006
600006
7ffffe
600006
ENDCHAR
STARTCHAR ch-249
ENCODING 249
SWIDTH 1000 0
DWIDTH 24 0
BBX 24 24 0 -3
BITMAP
400006
7fffff
600006
601806
603806
603406
606206
60c186
6300f6
6cff66
600006
6000c6
67ffe6
6030c6
6030c6
6030c6
6030c6
6033c6
603186
603006
603006
600006
7ffffe
600006
ENDCHAR
STARTCHAR ch-250
ENCODING 250
SWIDTH 1000 0
DWIDTH 24 0
BBX 24 24 0 -3
BITMAP
400006
7fffff
600006
601c06
601806
601806
6018c6
67ffe6
601806
601806
601806
611986
61ffc6
618186
618186
618186
618186
618186
61ff86
618186
600006
600006
7ffffe
600006
ENDCHAR
STARTCHAR ch-253
ENCODING 253
SWIDTH 1000 0
DWIDTH 24 0
BBX 24 24 0 -3
BITMAP
400006
7fffff
600006
600046
67ffe6
601806
601806
601806
601806
601806
601886
63ffc6
601806
601906
6018c6
601866
601866
601806
601846
67ffe6
600006
600006
7ffffe
600006
ENDCHAR
STARTCHAR ch-255
ENCODING 255
SWIDTH 1000 0
DWIDTH 24 0
BBX 24 24 0 -3
BITMAP
400006
7fffff
602006
603806
603066
6ffff6
606006
606006
60c0c6
60ffe6
61c0c6
62c0c6
6cffc6
60c0c6
60c0c6
60ffc6
60c0c6
60c0c6
60c0c6
60c7c6
60c186
600006
7ffffe
600006
ENDCHAR
STARTCHAR ch-256
ENCODING 256
SWIDTH 1000 0
DWIDTH 24 0
BBX 24 24 0 -3
BITMAP
400006
7fffff
608606
60e606
61c606
6187f6
6303f6
6c0006
601c06
601806
601866
67fff6
603006
603186
603fc6
606186
606186
60c386
608306
611f06
660606
600006
7ffffe
600006
ENDCHAR
STARTCHAR ch-259
ENCODING 259
SWIDTH 1000 0
DWIDTH 24 0
BBX 24 24 0 -3
BITMAP
400006
7fffff
600106
601d86
601886
67ffe6
601806
621846
63ffe6
621846
621846
63ffc6
621846
621846
63ffc6
621846
621846
621846
6219c6
6218c6
600006
600006
7ffffe
600006
ENDCHAR
STARTCHAR ch-260
ENCODING 260
SWIDTH 1000 0
DWIDTH 24 0
BBX 24 24 0 -3
BITMAP
400006
7fffff
600006
6000c6
67ffe6
606006
606306
63ff86
60c306
60c306
60c366
6ffff6
600006
610186
61ffc6
618186
618186
618186
618186
61ff86
618186
600006
7ffffe
600006
ENDCHAR
STARTCHAR ch-264
ENCODING 264
SWIDTH 1000 0
DWIDTH 24 0
BBX 24 24 0 -3
BITMAP
400006
7fffff
600006
621086
619ce6
6198c6
603106
67ffe6
602406
604206
6ffff6
608186
6100e6
66ff7e
78c136
60c106
60cf06
60c646
60c066
60ffe6
607fc6
600006
7ffffe
600006
ENDCHAR
STARTCHAR ch-265
ENCODING 265
SWIDTH 1000 0
DWIDTH 24 0
BBX 24 24 0 -3
BITMAP
400006
7fffff
600006
601c06
601886
63ffc6
601806
601826
6ffff6
608106
604106
604246
67ffe6
601806
601806
601826
6ffff6
601806
601806
601806
601806
600006
7ffffe
600006
ENDCHAR
STARTCHAR ch-267
ENCODING 267
SWIDTH 1000 0
DWIDTH 24 0
BBX 24 24 0 -3
BITMAP
400006
7fffff
600006
600e86
600c46
600c46
6ffff6
600c06
600c06
67ec46
642466
642646
6426c6
67e286
600386
601106
60e326
6f85a6
6608b6
6030f6
60c066
600006
7ffffe
600006
ENDCHAR
STARTCHAR ch-269
ENCODING 269
SWIDTH 1000 0
DWIDTH 24 0
BBX 24 24 0 -3
BITMAP
400006
7fffff
600006
603806
603186
63ffc6
606186
606186
6ffff6
600006
61ff86
610086
61ff86
600606
67ffe6
608606
608606
6ffff6
600606
600606
600606
600006
7ffffe
600006
ENDCHAR
STARTCHAR ch-271
ENCODING 271
SWIDTH 1000 0
DWIDTH 24 0
BBX 24 24 0 -3
BITMAP
400006
7fffff
600006
621086
619ce6
6198c6
601906
67ffe6
603406
602406
6ffff6
606206
60c106
61ffc6
6306f6
6c0666
60fe06
60c086
60c0c6
60ffc6
607f86
600006
7ffffe
600006
ENDCHAR
STARTCHAR ch-274
ENCODING 274
SWIDTH 1000 0
DWIDTH 24 0
BBX 24 24 0 -3
BITMAP
400006
7fffff
601806
601986
63ffc6
601806
601866
6ffff6
600006
61ff86
618186
618186
618186
61ffc6
6038e6
607986
60de06
6199c6
6318e6
6c1866
601806
600006
7ffffe
600006
ENDCHAR
STARTCHAR ch-275
ENCODING 275
SWIDTH 1000 0
DWIDTH 24 0
BBX 24 24 0 -3
BITMAP
400006
7fffff
600006
610186
61ffc6
618186
618186
61ff86
600006
63ffc6
6300c6
63ffc6
6300c6
6300c6
63ffc6
6300c6
6300c6
63ffc6
608006
61c1e6
660066
600006
7ffffe
600006
ENDCHAR
STARTCHAR ch-278
ENCODING 278
SWIDTH 1000 0
DWIDTH 24 0
BBX 24 24 0 -3
BITMAP
400006
7fffff
600006
610186
61ffc6
618186
618186
61ff86
601806
601826
6ffff6
600006
63ffc6
6300c6
633cc6
6324c6
6324c6
633cc6
6300c6
63ffc6
6300c6
600006
7ffffe
600006
ENDCHAR
STARTCHAR ch-280
ENCODING 280
SWIDTH 1000 0
DWIDTH 24 0
BBX 24 24 0 -3
BITMAP
400006
7fffff
600006
601806
601046
67ffe6
601006
61ff86
611086
61ff86
611086
61ff86
601046
67ffe6
638026
600106
6ffff6
608106
604106
604f06
600606
600006
7ffffe
600006
ENDCHAR
STARTCHAR ch-284
ENCODING 284
SWIDTH 1000 0
DWIDTH 24 0
BBX 24 24 0 -3
BITMAP
400006
7fffff
600006
600006
63ffc6
622446
622446
63ffc6
600006
6ffff6
600006
61ff86
610086
610086
61ffa6
606876
61c4c6
6e8606
608306
63f1e6
6180c6
600006
7ffffe
600006
ENDCHAR
STARTCHAR ch-287
ENCODING 287
SWIDTH 1000 0
DWIDTH 24 0
BBX 24 24 0 -3
BITMAP
001c00
001800
001800
001800
001800
001800
001800
001800
001818
3ffffc
001800
001800
001800
001800
001800
001800
001800
001800
001800
001800
001800
001806
ffffff
000000
ENDCHAR
STARTCHAR ch-294
ENCODING 294
SWIDTH 1000 0
DWIDTH 24 0
BBX 24 24 0 -3
BITMAP
000000
0e00c0
0c1fe0
0c0080
0c0080
0c0080
0cc080
ffe080
0c0080
0c0280
0c0380
0c03c0
0c0340
0c0740
0c0640
0cc660
0f0c20
fc0c20
701830
403018
00601c
00c00f
01800e
060004
ENDCHAR
STARTCHAR ch-295
ENCODING 295
SWIDTH 1000 0
DWIDTH 24 0
BBX 24 24 0 -3
BITMAP
100006
1fffff
180000
180000
180700
180600
180600
180600
180600
180600
180600
18060c
1bfffe
180600
180600
180600
380600
300600
300600
300600
200600
600606
4fffff
800000
ENDCHAR
STARTCHAR ch-296
ENCODING 296
SWIDTH 1000 0
DWIDTH 24 0
BBX 24 24 0 -3
BITMAP
002000
003800
003000
003000
006006
ffffff
00c000
008000
018380
070300
060300
060300
0e0318
1e3ffc
360300
c60300
060300
060300
060300
060300
060300
060306
06ffff
060000
ENDCHAR
STARTCHAR ch-301
ENCODING 301
SWIDTH 1000 0
DWIDTH 24 0
BBX 24 24 0 -3
BITMAP
001c00
001800
001800
001830
1ffff8
001800
001800
001800
00180c
7ffffe
000000
000000
001c00
001800
001818
3ffffc
001800
001800
001800
001800
001804
00180e
ffffff
000000
ENDCHAR
STARTCHAR ch-304
ENCODING 304
SWIDTH 1000 0
DWIDTH 24 0
BBX 24 24 0 -3
BITMAP
0001c0
1c0180
183980
183180
18318c
18319e
1831ac
1b31cc
ffb38c
183d8c
18318c
18718c
19b18c
18318c
18318c
1831bc
183198
193180
1e3180
f83002
603002
403003
003fff
001ffe
ENDCHAR
STARTCHAR ch-311
ENCODING 311
SWIDTH 1000 0
DWIDTH 24 0
BBX 24 24 0 -3
BITMAP
000000
1c0006
18ffff
180300
180300
180300
198300
ffc380
180360
180338
18031c
18030e
180306
180300
180300
198300
1e0300
f80300
600300
400300
000300
000300
000300
000300
ENDCHAR
STARTCHAR ch-312
ENCODING 312
SWIDTH 1000 0
DWIDTH 24 0
BBX 24 24 0 -3
BITMAP
0001c0
1c0180
180180
180180
180180
180180
1b7187
ffe186
186186
186186
186186
186186
186186
186186
186186
186186
1f6186
fc6186
706186
406186
006186
007ffe
006006
006006
ENDCHAR
STARTCHAR ch-315
ENCODING 315
SWIDTH 1000 0
DWIDTH 24 0
BBX 24 24 0 -3
BITMAP
000018
0e007c
0c13e0
0c1e00
0c1800
0c1800
0cd800
fff806
0c1fff
0c1860
0c1860
0c1860
0c1860
0c1860
0cd860
0f1860
fc3060
703060
402060
006060
004060
008060
010060
000060
ENDCHAR
STARTCHAR ch-320
ENCODING 320
SWIDTH 1000 0
DWIDTH 24 0
BBX 24 24 0 -3
BITMAP
0001c0
1c0180
180180
180180
180180
180180
1b3980
ffb180
183180
18318c
1831fe
183180
183180
183180
183180
183180
1f3180
fc3180
703180
403180
003180
003186
03ffff
000000
ENDCHAR
STARTCHAR ch-322
ENCODING 322
SWIDTH 1000 0
DWIDTH 24 0
BBX 24 24 0 -3
BITMAP
1c2006
183fff
183000
183000
183000
183000
1b3018
ffbffc
183418
183418
183418
183230
183230
183230
183160
19b160
1e60c0
f860c0
7041e0
40c370
008638
010c1f
02180e
006006
ENDCHAR
STARTCHAR ch-327
ENCODING 327
SWIDTH 1000 0
DWIDTH 24 0
BBX 24 24 0 -3
BITMAP
001000
0e1c00
0c1800
0c1800
0c1800
0c1806
0c3fff
ffb006
0c2006
0c6006
0c40c6
0c9fe6
0c0006
0c0006
0cc006
0f0046
fc038e
703e0c
40180c
00100c
00001c
000018
0001f8
000070
ENDCHAR
STARTCHAR ch-330
ENCODING 330
SWIDTH 1000 0
DWIDTH 24 0
BBX 24 24 0 -3
BITMAP
0e0380
0c0300
0c0300
0c0300
0c0306
0cffff
0c0300
0c0300
ffc300
0c030c
0c03fe
0c030c
0c030c
0c060c
0c060c
0c060c
0cc40c
0f0c0c
fc0818
701818
401018
002030
0041f0
018060
ENDCHAR
STARTCHAR ch-334
ENCODING 334
SWIDTH 1000 0
DWIDTH 24 0
BBX 24 24 0 -3
BITMAP
000400
0e0700
0c0600
0c0e00
0c0c00
0c0806
0d9fff
ffd006
0c2004
0c4388
0c0300
0c0300
0c0300
0c0300
0cc680
0f0680
fc06c0
700640
400c60
000c30
001838
00301f
00600e
018006
ENDCHAR
STARTCHAR ch-335
ENCODING 335
SWIDTH 1000 0
DWIDTH 24 0
BBX 24 24 0 -3
BITMAP
000000
0e0006
0c7fff
0c0080
0c00e0
0c01c0
0d8180
ffc300
0c0200
0c07d0
0c0d8c
0c1986
0c3187
0cc183
0c0183
0c0180
0f8180
fc0180
700180
400180
000180
000180
000180
000180
ENDCHAR
STARTCHAR ch-336
ENCODING 336
SWIDTH 1000 0
DWIDTH 24 0
BBX 24 24 0 -3
BITMAP
001c00
001800
081820
0e1838
0c1830
0c1830
0c1860
0c1860
1a1850
1918c8
31988c
20d906
40da06
801800
001800
001830
1ffff8
001800
001800
001800
001800
001806
ffffff
000000
ENDCHAR
STARTCHAR ch-337
ENCODING 337
SWIDTH 1000 0
DWIDTH 24 0
BBX 24 24 0 -3
BITMAP
0001c0
0e0180
0c0180
0c0180
0c0186
0c7fff
0d8000
ffc000
0c0830
0c0ff8
0c0c30
0c0c30
0c0c30
0c0c30
0c0c30
0ccc30
0f0c30
fc0c30
700c32
401832
001832
003033
00603f
01801e
ENDCHAR
STARTCHAR ch-353
ENCODING 353
SWIDTH 1000 0
DWIDTH 24 0
BBX 24 24 0 -3
BITMAP
0001c0
1c0180
180180
180180
184186
187fff
1b618c
ffe188
186190
186180
18618c
187ffe
18680c
186418
186418
1f6230
fcc360
70c1c0
4081c0
018360
010638
020c1f
00300e
00c006
ENDCHAR
STARTCHAR ch-356
ENCODING 356
SWIDTH 1000 0
DWIDTH 24 0
BBX 24 24 0 -3
BITMAP
0001c0
1c0180
180180
180180
184186
1b7fff
ffe186
186186
186186
186186
187ffe
186186
186186
186186
186186
1b7ffe
fc6186
706186
400180
000180
000180
000180
000180
000180
ENDCHAR
STARTCHAR ch-358
ENCODING 358
SWIDTH 1000 0
DWIDTH 24 0
BBX 24 24 0 -3
BITMAP
0e1018
0c1ffc
0c1818
0c1818
0c1818
0c1818
0c1818
0d9818
ffd818
0c1ff8
0c1818
0c1818
0c1818
0c1818
0c1818
0c1818
0c1818
0c9ff8
0f1818
fc0000
700000
400006
01ffff
000000
ENDCHAR
STARTCHAR ch-361
ENCODING 361
SWIDTH 1000 0
DWIDTH 24 0
BBX 24 24 0 -3
BITMAP
001c38
1c1830
181830
181830
181830
181836
19ffff
ff1830
181830
181830
181830
181830
181830
181ff0
181830
1f1830
fc1830
701830
401830
001830
001830
001ff0
001830
001830
ENDCHAR
STARTCHAR ch-362
ENCODING 362
SWIDTH 1000 0
DWIDTH 24 0
BBX 24 24 0 -3
BITMAP
1c0000
18000c
18fffe
180300
180308
18430e
1b230c
ffa30c
183318
183310
183320
180300
180306
19ffff
180300
190300
1e0300
f80300
600300
400300
000300
000300
000300
000300
ENDCHAR
STARTCHAR ch-383
ENCODING 383
SWIDTH 1000 0
DWIDTH 24 0
BBX 24 24 0 -3
BITMAP
00081c
1c0e18
180c18
181c18
181818
181818
1b301a
ffb7ff
187018
187018
18b218
193118
183118
183198
183198
1f3018
fc3018
703018
403018
003018
003018
003018
0030f8
003030
ENDCHAR
STARTCHAR ch-386
ENCODING 386
SWIDTH 1000 0
DWIDTH 24 0
BBX 24 24 0 -3
BITMAP
0000e0
001ff0
1ff800
001800
001800
001818
3ffffc
0318c0
0318c0
0318c0
0318c6
ffffff
0318c0
0318c0
0318c0
0318c0
0318d8
3ffffc
001800
001800
001800
00180c
7ffffe
000000
ENDCHAR
STARTCHAR ch-392
ENCODING 392
SWIDTH 1000 0
DWIDTH 24 0
BBX 24 24 0 -3
BITMAP
020e80
038c40
070c60
060c60
0e0c0c
0dfffe
1c0600
2c0600
4c0300
8c0300
0c0184
0c01c4
0c00e6
0c007e
0c1c1c
001800
001830
1ffff8
001800
001800
001800
001806
ffffff
000000
ENDCHAR
STARTCHAR ch-393
ENCODING 393
SWIDTH 1000 0
DWIDTH 24 0
BBX 24 24 0 -3
BITMAP
000800
0e0e00
0c0c00
0c0c0c
0c1ffe
0c180c
0d900c
fff18c
0c3fcc
0c418c
0c818c
0c018c
0c218c
0c3f8c
0cb19c
0f3018
fc30f8
703030
403002
003002
003002
003003
003fff
001ffe
ENDCHAR
STARTCHAR ch-395
ENCODING 395
SWIDTH 1000 0
DWIDTH 24 0
BBX 24 24 0 -3
BITMAP
00180e
7ffdcc
0c618c
0c618c
0c618c
0c618c
0c618c
ffff8c
0c618c
0c618c
0c600c
18600c
18607c
306018
c01c00
001800
001830
1ffff8
001800
001800
001800
001806
ffffff
000000
ENDCHAR
STARTCHAR ch-403
ENCODING 403
SWIDTH 1000 0
DWIDTH 24 0
BBX 24 24 0 -3
BITMAP
0001c0
0e0180
0c0180
0c0186
0c7fff
0c0200
0d8380
ffc300
0c0220
0c2438
0c1870
0c0c60
0c0cc0
0c0188
0cc30e
0f061c
fc1838
706070
4000c0
0001a0
000318
000c0c
003006
00c006
ENDCHAR
STARTCHAR ch-416
ENCODING 416
SWIDTH 1000 0
DWIDTH 24 0
BBX 24 24 0 -3
BITMAP
001018
0e1ffc
0c1818
0c1818
0c1818
0c1818
0d9ff8
ffd818
0c1818
0c1818
0c1818
0c1ff8
0c1884
0c1887
0cd886
0f184c
fc1850
701860
401820
0019b0
001e18
01f81f
00e00e
008006
ENDCHAR
STARTCHAR ch-418
ENCODING 418
SWIDTH 1000 0
DWIDTH 24 0
BBX 24 24 0 -3
BITMAP
00000c
1c003e
1821f0
183f00
183000
183000
1b3000
ffb006
183fff
183000
183000
183000
18340c
1837fe
18360c
1b660c
1c660c
f8460c
60c60c
40860c
01060c
0607fc
00060c
00060c
ENDCHAR
STARTCHAR ch-419
ENCODING 419
SWIDTH 1000 0
DWIDTH 24 0
BBX 24 24 0 -3
BITMAP
000000
1c000c
18fffe
180000
180000
180000
1b2018
ffbffc
183018
183018
183018
183018
183ff8
183018
183018
19b018
1e3018
f83ff8
703018
400000
000000
000006
03ffff
000000
ENDCHAR
STARTCHAR ch-420
ENCODING 420
SWIDTH 1000 0
DWIDTH 24 0
BBX 24 24 0 -3
BITMAP
000000
0e0006
0c7fff
0c0380
0c0300
0c0210
0d8608
ffc40c
0c3ff6
0c1f06
0c1006
0c0000
0c01c0
0c0180
0cc180
0f018c
fc3ffe
700180
400180
000180
000180
000186
00ffff
000000
ENDCHAR
STARTCHAR ch-426
ENCODING 426
SWIDTH 1000 0
DWIDTH 24 0
BBX 24 24 0 -3
BITMAP
001010
0e081c
0c0c18
0c0630
0c0620
0c004c
0dbffe
ffcc30
0c0c30
0c0c30
0c0c30
0c0c36
0c7fff
0c0c30
0c0c30
0f0c30
fc0c30
700c30
400c30
001830
001830
003030
006030
018030
ENDCHAR
STARTCHAR ch-432
ENCODING 432
SWIDTH 1000 0
DWIDTH 24 0
BBX 24 24 0 -3
BITMAP
000380
0e0300
0c0300
0c0318
0c03fc
0c0300
0d8300
ffc300
0c0306
0c7fff
0c0000
0c0000
0c8006
0f7fff
1c0300
f80300
6003c0
400338
00031c
00030c
000300
000300
000300
000300
ENDCHAR
STARTCHAR ch-435
ENCODING 435
SWIDTH 1000 0
DWIDTH 24 0
BBX 24 24 0 -3
BITMAP
001000
1c1c0c
1839fe
183000
186000
188800
1b0e00
ff9c06
181bff
183018
187018
18b018
193018
183018
183018
1f3018
fc3018
703018
403018
003018
003018
003018
0030f8
003030
ENDCHAR
STARTCHAR ch-448
ENCODING 448
SWIDTH 1000 0
DWIDTH 24 0
BBX 24 24 0 -3
BITMAP
0000e0
001ff0
1ffc00
001800
001806
ffffff
001800
0398e0
0318c4
7f18ce
0318f0
0318c0
0318c2
0f18c3
7b18ff
23187e
001800
001830
1ffff8
001800
001800
00180c
7ffffe
000000
ENDCHAR
STARTCHAR ch-451
ENCODING 451
SWIDTH 1000 0
DWIDTH 24 0
BBX 24 24 0 -3
BITMAP
000400
0e0700
0c0620
0c0410
0c0818
0c7ffc
0c3e0c
0da00c
ffc000
0c1c00
0c1818
0c3ffc
0c2300
0c4300
0c0306
0dffff
0f0680
fc0680
700c40
400c60
001838
00301f
00c00e
030006
ENDCHAR
STARTCHAR ch-454
ENCODING 454
SWIDTH 1000 0
DWIDTH 24 0
BBX 24 24 0 -3
BITMAP
000800
1c0e00
180c30
181ff8
181860
1b3040
ffa086
187fff
18b186
183186
183186
183ffe
183186
183186
19b186
1e3186
f83ffe
703006
403006
002006
006006
004006
00803e
01000c
ENDCHAR
STARTCHAR ch-459
ENCODING 459
SWIDTH 1000 0
DWIDTH 24 0
BBX 24 24 0 -3
BITMAP
000000
1c400c
187ffe
18630c
18630c
18630c
18630c
1b7ffc
ffe30c
18630c
18630c
18630c
187ffc
18630c
180300
190300
1e0318
f87ffc
700300
400300
000300
000306
03ffff
000000
ENDCHAR
STARTCHAR ch-462
ENCODING 462
SWIDTH 1000 0
DWIDTH 24 0
BBX 24 24 0 -3
BITMAP
0001c0
1c0190
18018c
180184
180180
188186
18ffff
ffc180
18c180
18c188
18cd8e
18fe8c
18cccc
18ccc8
19ccd8
1ecc50
f8cc70
708c22
418c72
013c52
03189a
02010e
040207
180c03
ENDCHAR
STARTCHAR ch-466
ENCODING 466
SWIDTH 1000 0
DWIDTH 24 0
BBX 24 24 0 -3
BITMAP
00001c
0e01fe
0c7f80
0c0004
0c0407
0c4206
0d230c
ffb188
0c1990
0c1800
0c0038
0c0030
0c0032
0c7fff
0c0030
0f0030
fc2030
701830
400c30
000c30
000030
000030
0001f0
000060
ENDCHAR
STARTCHAR ch-467
ENCODING 467
SWIDTH 1000 0
DWIDTH 24 0
BBX 24 24 0 -3
BITMAP
000080
1c00e0
1801c0
180304
180687
1818ce
18645c
1b0638
ff8270
1801c0
180700
187838
180030
180036
187fff
180030
1f2030
fc1830
700c30
400c30
000030
000030
0001f0
000060
ENDCHAR
STARTCHAR ch-468
ENCODING 468
SWIDTH 1000 0
DWIDTH 24 0
BBX 24 24 0 -3
BITMAP
0001c8
0e0186
0c0186
0c0180
0cffff
0c0180
0c8180
ffc186
0c7fff
0c6186
0c6186
0c6186
0c7ffe
0c6186
0c6186
0c6186
0ffffe
fe6186
786186
406186
006186
006186
0061be
00618c
ENDCHAR
STARTCHAR ch-470
ENCODING 470
SWIDTH 1000 0
DWIDTH 24 0
BBX 24 24 0 -3
BITMAP
000e70
1c0c60
180c60
180c66
18ffff
180c60
190c60
ff8c60
180000
181000
181ce0
1818c4
1838c7
1830ce
1870cc
1f70d8
fcb0e0
7130c0
4030c0
0030c2
0030c2
0030c3
0030ff
00307e
ENDCHAR
STARTCHAR ch-476
ENCODING 476
SWIDTH 1000 0
DWIDTH 24 0
BBX 24 24 0 -3
BITMAP
0381c0
030180
030180
033186
ffffff
030180
0703c0
0fc7a0
0b65b0
1b6d98
33199f
63318e
834186
030180
030180
001c00
001800
001818
3ffffc
001800
001800
001806
ffffff
000000
ENDCHAR
STARTCHAR ch-479
ENCODING 479
SWIDTH 1000 0
DWIDTH 24 0
BBX 24 24 0 -3
BITMAP
0001d0
1c018c
180186
180186
180180
180186
18ffff
ff0180
180180
18fd84
18cd87
18cd86
18cc86
18cccc
18cccc
18fc58
1a0070
1c0220
f81c72
63f0d2
41c19a
01030f
000c0f
003006
ENDCHAR
STARTCHAR ch-480
ENCODING 480
SWIDTH 1000 0
DWIDTH 24 0
BBX 24 24 0 -3
BITMAP
000200
1c0380
182318
183ffc
183018
183018
1b3018
ffbff8
183000
183000
183ff8
183018
183018
183018
193ff8
1e0300
f80300
600306
41ffff
000300
000300
000300
000300
000300
ENDCHAR
STARTCHAR ch-483
ENCODING 483
SWIDTH 1000 0
DWIDTH 24 0
BBX 24 24 0 -3
BITMAP
000380
1c0300
180300
18030c
18fffe
180000
1b1020
ff9c38
181830
183060
182e58
18468e
188106
180000
180300
1e0306
f9ffff
600300
400300
000300
000300
000300
000300
000300
ENDCHAR
STARTCHAR ch-500
ENCODING 500
SWIDTH 1000 0
DWIDTH 24 0
BBX 24 24 0 -3
BITMAP
0001c0
1c0180
180186
18ffff
180180
180180
1b0998
ff8ffc
180c18
18ec18
18cc18
18cff8
18cc18
18cc18
18cc18
18cff8
19cc18
1ecc18
f8cc18
60cff8
40c000
00c006
00ffff
00c000
ENDCHAR
STARTCHAR ch-503
ENCODING 503
SWIDTH 1000 0
DWIDTH 24 0
BBX 24 24 0 -3
BITMAP
0701c0
060180
066180
7ff180
060198
060ffc
063198
fff998
208198
10e198
18c198
188998
010598
fff398
060118
060398
066298
7ff2da
0606da
0604ca
060c0e
060806
061007
066003
ENDCHAR
STARTCHAR ch-505
ENCODING 505
SWIDTH 1000 0
DWIDTH 24 0
BBX 24 24 0 -3
BITMAP
1c0380
180300
180300
18030c
187ffe
180020
1b1038
ff8830
180c60
180c40
180086
19ffff
180000
180000
182018
183ffc
1f3018
fc3018
703018
403018
003018
003ff8
003018
003018
ENDCHAR
STARTCHAR ch-506
ENCODING 506
SWIDTH 1000 0
DWIDTH 24 0
BBX 24 24 0 -3
BITMAP
01c1c0
018180
01818c
7ffffe
018180
018180
01ff80
018180
018180
01ff80
018180
018186
ffffff
018080
038040
031c60
061838
0c199f
33ffc6
c01800
001800
00180c
7ffffe
000000
ENDCHAR
STARTCHAR ch-508
ENCODING 508
SWIDTH 1000 0
DWIDTH 24 0
BBX 24 24 0 -3
BITMAP
000380
1c0300
18030c
187ffe
180300
180680
1b0660
ff8c30
183030
180006
18ffff
18000c
18000c
18218c
183fcc
1b318c
fc318c
70318c
403f8c
00318c
00000c
00000c
00007c
000018
ENDCHAR
ENDFONT
