STARTFONT 2.1
FONT jis.jis8400.16
SIZE 16 72 72
FONTBOUNDINGBOX 16 16 0 -2
STARTPROPERTIES 4
FONT_DESCENT 2
FONT_ASCENT 14
DEFAULT_CHAR 3
COPYRIGHT "Copyright (c) 1992 AT&T - All rights reserved."
ENDPROPERTIES
CHARS 146
STARTCHAR ch-3
ENCODING 3
SWIDTH 1000 0
DWIDTH 16 0
BBX 16 16 0 -2
BITMAP
0810
0810
ffff
0810
0100
0100
7ffe
0810
0810
1c38
366c
0100
ffff
0100
0100
0100
ENDCHAR
STARTCHAR ch-4
ENCODING 4
SWIDTH 1000 0
DWIDTH 16 0
BBX 16 16 0 -2
BITMAP
0420
0420
ffff
0420
2000
3ffe
6802
cff2
1102
3ffa
0102
1112
1112
1ff6
0004
001c
ENDCHAR
STARTCHAR ch-7
ENCODING 7
SWIDTH 1000 0
DWIDTH 16 0
BBX 16 16 0 -2
BITMAP
0420
0420
ffff
0420
1ffc
1000
1ff8
1000
1ff8
1000
ffff
1084
10cc
1070
1f1c
7007
ENDCHAR
STARTCHAR ch-11
ENCODING 11
SWIDTH 1000 0
DWIDTH 16 0
BBX 16 16 0 -2
BITMAP
0810
ffff
0810
0100
7ffe
0100
1ff8
0108
ffff
0108
1ff8
0200
ffff
0810
07e0
3c3c
ENDCHAR
STARTCHAR ch-12
ENCODING 12
SWIDTH 1000 0
DWIDTH 16 0
BBX 16 16 0 -2
BITMAP
0420
0420
ffff
0420
0000
7c7e
4442
4442
7c7e
4442
4442
447e
7cc2
0082
0182
070e
ENDCHAR
STARTCHAR ch-13
ENCODING 13
SWIDTH 1000 0
DWIDTH 16 0
BBX 16 16 0 -2
BITMAP
0420
0420
ffff
0420
0000
63fe
3020
1222
c326
6124
2020
17ff
3020
2020
6020
c020
ENDCHAR
STARTCHAR ch-14
ENCODING 14
SWIDTH 1000 0
DWIDTH 16 0
BBX 16 16 0 -2
BITMAP
0420
ffff
0420
0078
3fc0
0100
ffff
0540
3938
e10f
0400
ffff
0810
3f20
01f8
7e0e
ENDCHAR
STARTCHAR ch-19
ENCODING 19
SWIDTH 1000 0
DWIDTH 16 0
BBX 16 16 0 -2
BITMAP
0810
0810
ffff
0810
0100
7ffe
4002
4ff2
0810
0ff0
0810
0810
0ff0
0810
0810
ffff
ENDCHAR
STARTCHAR ch-32
ENCODING 32
SWIDTH 1000 0
DWIDTH 16 0
BBX 16 16 0 -2
BITMAP
0420
0420
ffff
0420
0000
3e7c
2244
2244
3e7c
2244
2244
3e7c
2244
6244
42c4
c68c
ENDCHAR
STARTCHAR ch-34
ENCODING 34
SWIDTH 1000 0
DWIDTH 16 0
BBX 16 16 0 -2
BITMAP
0420
0420
ffff
0420
0100
6100
33fe
1602
c1f2
6012
2016
09f4
190c
3101
6183
c0fe
ENDCHAR
STARTCHAR ch-41
ENCODING 41
SWIDTH 1000 0
DWIDTH 16 0
BBX 16 16 0 -2
BITMAP
0420
0420
ffff
0420
0000
0c20
78a2
10a6
fdac
1128
3870
3450
50d8
908c
1186
1303
ENDCHAR
STARTCHAR ch-42
ENCODING 42
SWIDTH 1000 0
DWIDTH 16 0
BBX 16 16 0 -2
BITMAP
0420
0420
ffff
0420
0000
0704
7c64
0834
ff04
28c4
2c64
6a07
4a3c
c8e4
0804
0804
ENDCHAR
STARTCHAR ch-44
ENCODING 44
SWIDTH 1000 0
DWIDTH 16 0
BBX 16 16 0 -2
BITMAP
0420
0420
ffff
0420
1ff8
1108
1ff8
1108
1ff8
0100
7ffe
4102
4122
43f2
5e12
400e
ENDCHAR
STARTCHAR ch-49
ENCODING 49
SWIDTH 1000 0
DWIDTH 16 0
BBX 16 16 0 -2
BITMAP
0810
0810
ffff
0810
0100
7ffe
4002
5ffa
0000
1ff8
1008
1ff8
1008
1ff8
0000
ffff
ENDCHAR
STARTCHAR ch-53
ENCODING 53
SWIDTH 1000 0
DWIDTH 16 0
BBX 16 16 0 -2
BITMAP
0420
0420
ffff
0420
1ff8
1008
11f8
1108
1108
7ffe
4002
47e2
4422
4422
47e2
400e
ENDCHAR
STARTCHAR ch-56
ENCODING 56
SWIDTH 1000 0
DWIDTH 16 0
BBX 16 16 0 -2
BITMAP
0810
0810
ffff
0810
0100
3ffc
2104
2104
3ffc
2104
2104
3ffc
0240
0660
1c38
f00f
ENDCHAR
STARTCHAR ch-60
ENCODING 60
SWIDTH 1000 0
DWIDTH 16 0
BBX 16 16 0 -2
BITMAP
0420
ffff
0420
0000
3e7c
2244
3e7c
0000
1ff8
0000
ffff
0400
07fc
0004
000c
0038
ENDCHAR
STARTCHAR ch-61
ENCODING 61
SWIDTH 1000 0
DWIDTH 16 0
BBX 16 16 0 -2
BITMAP
0420
0420
ffff
0420
0080
60fc
398c
0358
c070
71dc
0707
0000
19fc
3104
6104
c1fc
ENDCHAR
STARTCHAR ch-70
ENCODING 70
SWIDTH 1000 0
DWIDTH 16 0
BBX 16 16 0 -2
BITMAP
0420
0420
ffff
0420
0000
09fc
1904
1104
31fc
7020
d7ff
10a8
11ac
1326
1623
1020
ENDCHAR
STARTCHAR ch-73
ENCODING 73
SWIDTH 1000 0
DWIDTH 16 0
BBX 16 16 0 -2
BITMAP
0420
ffff
0420
1108
ffff
1108
11f8
1000
1ffe
0100
ffff
0520
0d30
391c
e107
0100
ENDCHAR
STARTCHAR ch-78
ENCODING 78
SWIDTH 1000 0
DWIDTH 16 0
BBX 16 16 0 -2
BITMAP
0810
0810
ffff
0810
1020
33fe
6022
c7ff
1022
33fe
6020
e3fe
2020
27ff
2020
2020
ENDCHAR
STARTCHAR ch-87
ENCODING 87
SWIDTH 1000 0
DWIDTH 16 0
BBX 16 16 0 -2
BITMAP
0810
0810
ffff
0810
0104
3ffc
0118
0160
ffff
0200
0ff8
3808
eff8
0808
0808
0ff8
ENDCHAR
STARTCHAR ch-91
ENCODING 91
SWIDTH 1000 0
DWIDTH 16 0
BBX 16 16 0 -2
BITMAP
0420
0420
ffff
0420
1ff8
1008
1ff8
1008
1ff8
0800
1ffe
3002
df82
1026
0fe4
001c
ENDCHAR
STARTCHAR ch-97
ENCODING 97
SWIDTH 1000 0
DWIDTH 16 0
BBX 16 16 0 -2
BITMAP
0420
ffff
0420
1000
3ffe
6082
c242
7ff2
0202
3fe2
2222
3fe2
2222
3fe6
2224
226c
ENDCHAR
STARTCHAR ch-98
ENCODING 98
SWIDTH 1000 0
DWIDTH 16 0
BBX 16 16 0 -2
BITMAP
0420
0420
ffff
0420
0100
7ffe
0240
0c30
3b1c
e187
0000
3ffc
2444
2444
ffff
0000
ENDCHAR
STARTCHAR ch-99
ENCODING 99
SWIDTH 1000 0
DWIDTH 16 0
BBX 16 16 0 -2
BITMAP
0420
ffff
0420
1ff8
0100
ffff
0100
3ffc
2104
3ffc
2104
3ffc
0100
3ffc
0100
ffff
ENDCHAR
STARTCHAR ch-102
ENCODING 102
SWIDTH 1000 0
DWIDTH 16 0
BBX 16 16 0 -2
BITMAP
0420
ffff
0420
0200
3ff8
0408
ffff
0000
1ff8
1008
1ff8
0040
3ffc
0840
ffff
0040
ENDCHAR
STARTCHAR ch-105
ENCODING 105
SWIDTH 1000 0
DWIDTH 16 0
BBX 16 16 0 -2
BITMAP
0420
0420
ffff
0420
1000
20fe
7c92
4492
4492
7c92
44fe
4480
4480
7c81
00c3
007e
ENDCHAR
STARTCHAR ch-107
ENCODING 107
SWIDTH 1000 0
DWIDTH 16 0
BBX 16 16 0 -2
BITMAP
0420
0420
ffff
0420
0800
083e
ffa2
0822
083e
0822
3e22
223e
2222
2262
3e42
00ce
ENDCHAR
STARTCHAR ch-108
ENCODING 108
SWIDTH 1000 0
DWIDTH 16 0
BBX 16 16 0 -2
BITMAP
0810
0810
ffff
0810
7ffe
1040
3e46
e27c
3441
1843
e03e
0810
ffff
0810
1810
7010
ENDCHAR
STARTCHAR ch-109
ENCODING 109
SWIDTH 1000 0
DWIDTH 16 0
BBX 16 16 0 -2
BITMAP
0420
0420
ffff
0420
0000
7efe
4202
4202
7efe
4000
40fe
7e46
406c
7e38
406c
41c7
ENDCHAR
STARTCHAR ch-110
ENCODING 110
SWIDTH 1000 0
DWIDTH 16 0
BBX 16 16 0 -2
BITMAP
0420
0420
ffff
0420
0000
0c7c
7844
40c4
7d87
4000
7cfe
4046
406c
7c38
c06c
41c7
ENDCHAR
STARTCHAR ch-111
ENCODING 111
SWIDTH 1000 0
DWIDTH 16 0
BBX 16 16 0 -2
BITMAP
0420
0420
ffff
0420
1040
3040
64fe
2d82
1802
3262
fe32
1212
5402
5606
d204
901c
ENDCHAR
STARTCHAR ch-113
ENCODING 113
SWIDTH 1000 0
DWIDTH 16 0
BBX 16 16 0 -2
BITMAP
0420
0420
ffff
0420
0800
1ffe
3112
ee22
07c6
38e4
031c
0000
2586
24cb
6619
c3f0
ENDCHAR
STARTCHAR ch-117
ENCODING 117
SWIDTH 1000 0
DWIDTH 16 0
BBX 16 16 0 -2
BITMAP
0420
0420
ffff
0420
0000
7e44
0429
4812
3ffc
e107
0100
7ffe
0240
0660
1c38
700e
ENDCHAR
STARTCHAR ch-119
ENCODING 119
SWIDTH 1000 0
DWIDTH 16 0
BBX 16 16 0 -2
BITMAP
0420
ffff
0420
0000
7ffe
4102
5ffa
0100
1ff8
1108
1ff8
1108
1ff8
0100
ffff
0100
ENDCHAR
STARTCHAR ch-121
ENCODING 121
SWIDTH 1000 0
DWIDTH 16 0
BBX 16 16 0 -2
BITMAP
0420
0420
ffff
0420
1080
10ff
fd90
2350
205e
3c72
25d2
2456
2450
6441
4463
dc3e
ENDCHAR
STARTCHAR ch-122
ENCODING 122
SWIDTH 1000 0
DWIDTH 16 0
BBX 16 16 0 -2
BITMAP
0420
ffff
0420
1ff8
1008
1ff8
0000
ffff
1008
1ff8
1008
1ff8
100f
1ff8
f008
0008
ENDCHAR
STARTCHAR ch-130
ENCODING 130
SWIDTH 1000 0
DWIDTH 16 0
BBX 16 16 0 -2
BITMAP
0810
0810
ffff
0810
0100
7ffe
0810
0420
7ffe
4102
4102
3ffc
2104
2104
211c
0100
ENDCHAR
STARTCHAR ch-132
ENCODING 132
SWIDTH 1000 0
DWIDTH 16 0
BBX 16 16 0 -2
BITMAP
0420
0420
ffff
0420
0000
7ffe
4002
3c04
00ff
ff44
2464
2424
2404
241d
6603
c3fe
ENDCHAR
STARTCHAR ch-139
ENCODING 139
SWIDTH 1000 0
DWIDTH 16 0
BBX 16 16 0 -2
BITMAP
0420
0420
ffff
0420
1006
103c
93e1
d112
5080
1004
13ff
7084
d0c4
1044
1004
101c
ENDCHAR
STARTCHAR ch-144
ENCODING 144
SWIDTH 1000 0
DWIDTH 16 0
BBX 16 16 0 -2
BITMAP
0810
0810
ffff
0890
0100
3ffc
2104
3ffc
2104
3ffc
0490
0490
0ca4
18bd
3083
e07e
ENDCHAR
STARTCHAR ch-148
ENCODING 148
SWIDTH 1000 0
DWIDTH 16 0
BBX 16 16 0 -2
BITMAP
0810
0810
ffff
0810
0020
7dfe
4420
4420
7fff
4404
47ff
4484
44c4
7c44
0004
001c
ENDCHAR
STARTCHAR ch-153
ENCODING 153
SWIDTH 1000 0
DWIDTH 16 0
BBX 16 16 0 -2
BITMAP
0420
ffff
0420
7ffe
4002
5ffa
0000
ffff
0200
0d0c
7298
0de0
72b0
0c9c
f087
0380
ENDCHAR
STARTCHAR ch-156
ENCODING 156
SWIDTH 1000 0
DWIDTH 16 0
BBX 16 16 0 -2
BITMAP
0420
0420
ffff
0420
0000
7c3e
0000
0000
fe7f
1008
542a
542a
d66b
9249
1008
3018
ENDCHAR
STARTCHAR ch-159
ENCODING 159
SWIDTH 1000 0
DWIDTH 16 0
BBX 16 16 0 -2
BITMAP
0420
0420
ffff
0420
1040
1040
fefe
0182
44f2
6492
2c92
2892
08f2
3c06
e004
001c
ENDCHAR
STARTCHAR ch-161
ENCODING 161
SWIDTH 1000 0
DWIDTH 16 0
BBX 16 16 0 -2
BITMAP
0420
ffff
0420
0100
7ffe
0810
0420
7ffe
4002
0100
ffff
0400
07fc
0c04
180c
7038
ENDCHAR
STARTCHAR ch-173
ENCODING 173
SWIDTH 1000 0
DWIDTH 16 0
BBX 16 16 0 -2
BITMAP
0420
ffff
0420
1000
3ffe
6202
1222
1fe6
081c
7400
0ffe
1102
6912
0ff6
0204
7c1c
ENDCHAR
STARTCHAR ch-178
ENCODING 178
SWIDTH 1000 0
DWIDTH 16 0
BBX 16 16 0 -2
BITMAP
0420
0420
ffff
0424
6022
37ff
1020
c3fe
6222
23fe
0222
13fe
3222
2222
6222
c226
ENDCHAR
STARTCHAR ch-184
ENCODING 184
SWIDTH 1000 0
DWIDTH 16 0
BBX 16 16 0 -2
BITMAP
0420
ffff
0420
0000
3ff8
0062
7d86
054c
0930
311c
c707
0000
ffff
2444
6666
c223
ENDCHAR
STARTCHAR ch-185
ENCODING 185
SWIDTH 1000 0
DWIDTH 16 0
BBX 16 16 0 -2
BITMAP
0420
ffff
0420
0810
0420
7ffe
0240
3ffc
0244
ffff
0244
3ffc
0a50
1a58
324c
e247
ENDCHAR
STARTCHAR ch-187
ENCODING 187
SWIDTH 1000 0
DWIDTH 16 0
BBX 16 16 0 -2
BITMAP
0420
ffff
0420
0000
fefe
0202
7e7e
4040
7e7e
2222
1212
0e0e
3232
c6c6
0404
1c1c
ENDCHAR
STARTCHAR ch-188
ENCODING 188
SWIDTH 1000 0
DWIDTH 16 0
BBX 16 16 0 -2
BITMAP
0810
ffff
0990
0240
0c30
3bdc
e007
1ff8
1008
1ff8
1008
3ff8
2000
6ffc
c804
0ffc
ENDCHAR
STARTCHAR ch-191
ENCODING 191
SWIDTH 1000 0
DWIDTH 16 0
BBX 16 16 0 -2
BITMAP
0810
ffff
0810
0100
7ffe
0000
0ff0
0810
0ff0
0000
7ffe
4002
4ff2
4812
4ff2
400e
ENDCHAR
STARTCHAR ch-193
ENCODING 193
SWIDTH 1000 0
DWIDTH 16 0
BBX 16 16 0 -2
BITMAP
0420
ffff
0420
0100
3ffc
0100
1ff8
0240
7ffe
0810
306c
cfc3
0100
7ffe
0910
710e
ENDCHAR
STARTCHAR ch-196
ENCODING 196
SWIDTH 1000 0
DWIDTH 16 0
BBX 16 16 0 -2
BITMAP
0810
0810
ffff
0810
0100
7ffe
0400
1844
0682
ffff
0001
3ffc
2104
3ffc
2104
3ffc
ENDCHAR
STARTCHAR ch-198
ENCODING 198
SWIDTH 1000 0
DWIDTH 16 0
BBX 16 16 0 -2
BITMAP
0420
0420
ffff
0420
0080
3fff
2210
3ffe
2210
23f0
2040
2ffe
6842
4842
c846
0040
ENDCHAR
STARTCHAR ch-201
ENCODING 201
SWIDTH 1000 0
DWIDTH 16 0
BBX 16 16 0 -2
BITMAP
0810
ffff
0810
0100
7ffe
4812
1918
738e
0ee0
383c
e007
1ff8
1008
1008
1008
1ff8
ENDCHAR
STARTCHAR ch-202
ENCODING 202
SWIDTH 1000 0
DWIDTH 16 0
BBX 16 16 0 -2
BITMAP
0420
0420
ffff
0420
0810
3a1c
e427
08f0
1f98
0000
fefe
4242
2626
1a1a
6262
0e0e
ENDCHAR
STARTCHAR ch-203
ENCODING 203
SWIDTH 1000 0
DWIDTH 16 0
BBX 16 16 0 -2
BITMAP
0810
0810
ffff
0810
0100
3ffc
0100
ffff
0808
1004
7ffa
0000
3ffc
2444
2444
ffff
ENDCHAR
STARTCHAR ch-205
ENCODING 205
SWIDTH 1000 0
DWIDTH 16 0
BBX 16 16 0 -2
BITMAP
0420
ffff
0524
3ff8
0110
ffff
0080
0ff8
f802
0ffe
0000
1ffc
1004
1ffc
1004
1ffc
ENDCHAR
STARTCHAR ch-208
ENCODING 208
SWIDTH 1000 0
DWIDTH 16 0
BBX 16 16 0 -2
BITMAP
0420
ffff
0420
3ffe
2000
27fc
2000
3fff
2424
2798
2c07
2008
6fff
4208
c308
0138
ENDCHAR
STARTCHAR ch-209
ENCODING 209
SWIDTH 1000 0
DWIDTH 16 0
BBX 16 16 0 -2
BITMAP
0810
ffff
0810
0100
7ffe
0000
1ff8
1008
ffff
1008
1ff8
0246
0c6c
f830
0f1c
3807
ENDCHAR
STARTCHAR ch-214
ENCODING 214
SWIDTH 1000 0
DWIDTH 16 0
BBX 16 16 0 -2
BITMAP
0810
ffff
0890
0100
1ff8
1008
1248
1188
1248
1008
1ff8
1046
1f7c
1041
1f43
f03e
ENDCHAR
STARTCHAR ch-217
ENCODING 217
SWIDTH 1000 0
DWIDTH 16 0
BBX 16 16 0 -2
BITMAP
0420
0420
ffff
0420
0080
3fff
2000
2248
2248
275c
2d56
2040
6ffe
4040
c040
1fff
ENDCHAR
STARTCHAR ch-218
ENCODING 218
SWIDTH 1000 0
DWIDTH 16 0
BBX 16 16 0 -2
BITMAP
0420
0420
ffff
0420
1080
10ff
3184
2b48
6830
a8cc
2b13
28e4
2818
28e3
201e
21f0
ENDCHAR
STARTCHAR ch-236
ENCODING 236
SWIDTH 1000 0
DWIDTH 16 0
BBX 16 16 0 -2
BITMAP
0420
ffff
0420
0080
61fe
370c
10f8
078f
0020
f3fe
1020
13fe
1020
37ff
6820
c7ff
ENDCHAR
STARTCHAR ch-238
ENCODING 238
SWIDTH 1000 0
DWIDTH 16 0
BBX 16 16 0 -2
BITMAP
0810
ffff
0810
0020
67ff
3020
13fe
0222
03fe
f222
13fe
1020
17ff
3020
6820
c7ff
ENDCHAR
STARTCHAR ch-244
ENCODING 244
SWIDTH 1000 0
DWIDTH 16 0
BBX 16 16 0 -2
BITMAP
0810
ffff
0910
7ffe
0100
1ff8
1108
1ff8
1108
1ff8
0104
7ffa
0008
ffff
0808
0438
ENDCHAR
STARTCHAR ch-252
ENCODING 252
SWIDTH 1000 0
DWIDTH 16 0
BBX 16 16 0 -2
BITMAP
0420
ffff
0420
7efc
1224
0e1c
3264
0100
07c0
1c78
f18f
0e20
00c0
0f18
00f0
1f80
ENDCHAR
STARTCHAR ch-255
ENCODING 255
SWIDTH 1000 0
DWIDTH 16 0
BBX 16 16 0 -2
BITMAP
0420
0420
ffff
0420
0100
7ffe
4002
5002
37ff
2020
63fe
a202
23fe
2202
2202
23fe
ENDCHAR
STARTCHAR ch-256
ENCODING 256
SWIDTH 1000 0
DWIDTH 16 0
BBX 16 16 0 -2
BITMAP
0420
0420
ffff
0420
1000
ff3f
4221
6622
2424
ff22
0021
7e21
4221
4227
4220
7e20
ENDCHAR
STARTCHAR ch-262
ENCODING 262
SWIDTH 1000 0
DWIDTH 16 0
BBX 16 16 0 -2
BITMAP
0420
ffff
0420
0000
6020
33fe
1020
c7ff
6088
210f
0a40
18fc
1388
3070
61dc
c707
ENDCHAR
STARTCHAR ch-273
ENCODING 273
SWIDTH 1000 0
DWIDTH 16 0
BBX 16 16 0 -2
BITMAP
0420
0420
ffff
0420
3ffc
2244
2244
3ffc
0022
3fff
2020
2034
2f9c
6039
40ed
c387
ENDCHAR
STARTCHAR ch-275
ENCODING 275
SWIDTH 1000 0
DWIDTH 16 0
BBX 16 16 0 -2
BITMAP
0420
ffff
0420
1ff8
1008
1ff8
1008
7ffe
4442
7ffe
0000
3ffc
0c38
03c0
1e78
f00f
ENDCHAR
STARTCHAR ch-276
ENCODING 276
SWIDTH 1000 0
DWIDTH 16 0
BBX 16 16 0 -2
BITMAP
0420
ffff
2420
3ffe
6002
dfe2
0002
1fc2
1042
1fc2
0002
3fe2
2222
3fe6
2224
3fec
ENDCHAR
STARTCHAR ch-277
ENCODING 277
SWIDTH 1000 0
DWIDTH 16 0
BBX 16 16 0 -2
BITMAP
0420
ffff
0420
0000
1248
ffff
1248
23ce
0000
7ffe
4102
5ffa
1108
1108
1138
0100
ENDCHAR
STARTCHAR ch-279
ENCODING 279
SWIDTH 1000 0
DWIDTH 16 0
BBX 16 16 0 -2
BITMAP
0420
0420
ffff
0420
0080
3fff
2208
2208
3fff
2208
2208
23f8
6000
4524
cdb6
1893
ENDCHAR
STARTCHAR ch-280
ENCODING 280
SWIDTH 1000 0
DWIDTH 16 0
BBX 16 16 0 -2
BITMAP
0420
ffff
0420
0200
0420
1fd8
0100
ffff
0420
0890
330c
cc63
0188
0e38
01e0
1f00
ENDCHAR
STARTCHAR ch-282
ENCODING 282
SWIDTH 1000 0
DWIDTH 16 0
BBX 16 16 0 -2
BITMAP
0420
0420
ffff
0420
0004
7f04
4104
7f7f
4004
5f24
4014
5f14
4404
d504
a484
0c1c
ENDCHAR
STARTCHAR ch-287
ENCODING 287
SWIDTH 1000 0
DWIDTH 16 0
BBX 16 16 0 -2
BITMAP
0420
0420
ffff
0420
1080
10fe
fd80
2340
207e
3c90
2410
25ff
2428
646c
44c6
dd83
ENDCHAR
STARTCHAR ch-289
ENCODING 289
SWIDTH 1000 0
DWIDTH 16 0
BBX 16 16 0 -2
BITMAP
0420
ffff
0420
0800
3efe
c244
1428
4810
37ec
c003
3ffc
0100
1108
310c
e107
0700
ENDCHAR
STARTCHAR ch-294
ENCODING 294
SWIDTH 1000 0
DWIDTH 16 0
BBX 16 16 0 -2
BITMAP
0810
ffff
0890
0100
1ff8
1008
1ff8
1008
1ff8
1000
1fff
1000
5ffe
4922
cdb2
8496
ENDCHAR
STARTCHAR ch-300
ENCODING 300
SWIDTH 1000 0
DWIDTH 16 0
BBX 16 16 0 -2
BITMAP
0420
0420
ffff
0420
0010
fdff
0840
1084
51fe
5c03
50a4
50a4
50a4
5ca4
71a5
c303
ENDCHAR
STARTCHAR ch-301
ENCODING 301
SWIDTH 1000 0
DWIDTH 16 0
BBX 16 16 0 -2
BITMAP
0420
ffff
0420
0000
7830
4848
48b4
5303
50fc
4808
49fe
4800
5bff
4084
413e
43e3
ENDCHAR
STARTCHAR ch-309
ENCODING 309
SWIDTH 1000 0
DWIDTH 16 0
BBX 16 16 0 -2
BITMAP
0420
0420
ffff
0424
0012
3fff
2010
2fd2
2916
2fd4
285c
2fc8
291c
6ff5
4067
c1c2
ENDCHAR
STARTCHAR ch-317
ENCODING 317
SWIDTH 1000 0
DWIDTH 16 0
BBX 16 16 0 -2
BITMAP
0420
0420
ffff
0420
0000
4910
6b10
2a3f
7f22
4966
4914
5d1c
6b08
491c
4936
4b63
ENDCHAR
STARTCHAR ch-320
ENCODING 320
SWIDTH 1000 0
DWIDTH 16 0
BBX 16 16 0 -2
BITMAP
0420
0420
ffff
0420
1010
feff
1010
7e7e
5252
5252
5656
3838
3434
5256
9093
1010
ENDCHAR
STARTCHAR ch-321
ENCODING 321
SWIDTH 1000 0
DWIDTH 16 0
BBX 16 16 0 -2
BITMAP
0420
ffff
0420
1ff8
0008
1ff8
0008
1ff8
0000
7cfe
1082
fefe
0008
ffff
0808
0438
ENDCHAR
STARTCHAR ch-323
ENCODING 323
SWIDTH 1000 0
DWIDTH 16 0
BBX 16 16 0 -2
BITMAP
0420
ffff
0420
0018
3ff0
1108
0910
ffff
0520
0910
300c
dffb
1108
1ff8
1108
1ff8
ENDCHAR
STARTCHAR ch-328
ENCODING 328
SWIDTH 1000 0
DWIDTH 16 0
BBX 16 16 0 -2
BITMAP
0420
ffff
0420
0000
7ffe
0440
3ffc
2444
3ffc
1008
1ff8
1008
1ff8
0100
ffff
0100
ENDCHAR
STARTCHAR ch-329
ENCODING 329
SWIDTH 1000 0
DWIDTH 16 0
BBX 16 16 0 -2
BITMAP
0420
0420
ffff
0420
1080
3ffe
6080
bffc
2080
3ffc
2080
3fff
0000
2444
6666
c223
ENDCHAR
STARTCHAR ch-330
ENCODING 330
SWIDTH 1000 0
DWIDTH 16 0
BBX 16 16 0 -2
BITMAP
0810
0810
ffff
0810
0910
0480
2488
2424
43e4
1000
0810
120a
5151
5050
9292
0e0e
ENDCHAR
STARTCHAR ch-331
ENCODING 331
SWIDTH 1000 0
DWIDTH 16 0
BBX 16 16 0 -2
BITMAP
0420
ffff
0420
0080
0880
08f8
0880
0880
7ffe
0000
0810
2f5e
2850
2850
3f50
e0ff
ENDCHAR
STARTCHAR ch-334
ENCODING 334
SWIDTH 1000 0
DWIDTH 16 0
BBX 16 16 0 -2
BITMAP
0420
ffff
0420
1ff8
0200
ffff
0420
0ff0
342c
c7e3
0000
7ffe
4002
47e2
4422
47e6
ENDCHAR
STARTCHAR ch-341
ENCODING 341
SWIDTH 1000 0
DWIDTH 16 0
BBX 16 16 0 -2
BITMAP
0420
0420
ffff
0420
0104
8888
57ff
2050
53fe
9252
2a92
4b1e
8a02
0bfe
1a02
73fe
ENDCHAR
STARTCHAR ch-343
ENCODING 343
SWIDTH 1000 0
DWIDTH 16 0
BBX 16 16 0 -2
BITMAP
0420
0420
ffff
0420
0040
7c7c
44c4
45ac
7c38
106c
5dc7
5000
50fe
5c82
7082
c0fe
ENDCHAR
STARTCHAR ch-344
ENCODING 344
SWIDTH 1000 0
DWIDTH 16 0
BBX 16 16 0 -2
BITMAP
0420
ffff
0420
0100
3ffc
0100
ffff
1010
7c7e
1010
feff
0000
7ffe
0420
1c21
f01f
ENDCHAR
STARTCHAR ch-346
ENCODING 346
SWIDTH 1000 0
DWIDTH 16 0
BBX 16 16 0 -2
BITMAP
0420
ffff
0420
0ff0
0810
7ffe
4242
7e7e
0000
3ffc
0000
ffff
0400
07fc
0004
003c
ENDCHAR
STARTCHAR ch-355
ENCODING 355
SWIDTH 1000 0
DWIDTH 16 0
BBX 16 16 0 -2
BITMAP
0420
ffff
0420
0078
1fc0
2204
1108
7ffe
4802
5e12
33fc
6290
1490
0fff
3810
e010
ENDCHAR
STARTCHAR ch-360
ENCODING 360
SWIDTH 1000 0
DWIDTH 16 0
BBX 16 16 0 -2
BITMAP
0420
ffff
0420
0000
7fff
5110
4a10
7fbf
4429
556a
5508
551c
5f14
c414
8c36
1863
ENDCHAR
STARTCHAR ch-361
ENCODING 361
SWIDTH 1000 0
DWIDTH 16 0
BBX 16 16 0 -2
BITMAP
0420
ffff
0420
0000
63fc
3204
03fc
c204
63fc
0000
17ff
3200
27fe
6c92
41b2
c36e
ENDCHAR
STARTCHAR ch-362
ENCODING 362
SWIDTH 1000 0
DWIDTH 16 0
BBX 16 16 0 -2
BITMAP
0420
0420
ffff
0420
2000
7ffe
d248
1248
ffff
1248
1248
7ffe
0000
2444
6666
c223
ENDCHAR
STARTCHAR ch-365
ENCODING 365
SWIDTH 1000 0
DWIDTH 16 0
BBX 16 16 0 -2
BITMAP
0420
ffff
0420
0100
3ff8
0108
ffff
0108
3ff8
0920
2544
2ff4
2544
6d64
5934
c104
ENDCHAR
STARTCHAR ch-375
ENCODING 375
SWIDTH 1000 0
DWIDTH 16 0
BBX 16 16 0 -2
BITMAP
0420
ffff
0420
0000
fdff
0420
28fe
1082
fefe
1282
14fe
1082
10fe
1044
10c6
7183
ENDCHAR
STARTCHAR ch-382
ENCODING 382
SWIDTH 1000 0
DWIDTH 16 0
BBX 16 16 0 -2
BITMAP
0420
ffff
0420
3ffc
0100
7ffe
4102
5d7a
4102
1d78
0000
3ffc
2104
3ffc
2104
3ffc
ENDCHAR
STARTCHAR ch-384
ENCODING 384
SWIDTH 1000 0
DWIDTH 16 0
BBX 16 16 0 -2
BITMAP
0420
0420
ffff
0420
0000
61f8
3108
11f8
c108
61f8
2000
17fe
3492
2492
6492
cfff
ENDCHAR
STARTCHAR ch-388
ENCODING 388
SWIDTH 1000 0
DWIDTH 16 0
BBX 16 16 0 -2
BITMAP
0420
ffff
0420
0004
6022
37ff
1020
c3fe
6222
23fe
0222
13fe
3004
27ff
6104
c09c
ENDCHAR
STARTCHAR ch-391
ENCODING 391
SWIDTH 1000 0
DWIDTH 16 0
BBX 16 16 0 -2
BITMAP
0420
0420
ffff
0420
1110
3550
655f
c7d2
1022
3796
6494
e49c
2488
24dc
2896
2033
ENDCHAR
STARTCHAR ch-392
ENCODING 392
SWIDTH 1000 0
DWIDTH 16 0
BBX 16 16 0 -2
BITMAP
0810
ffff
0910
0280
07e0
0810
3ffc
e927
2544
3ffc
0000
1ff8
1008
1ff8
1008
1ff8
ENDCHAR
STARTCHAR ch-394
ENCODING 394
SWIDTH 1000 0
DWIDTH 16 0
BBX 16 16 0 -2
BITMAP
0420
ffff
0420
2000
3c02
4422
ff22
4922
7f22
4922
4922
7f22
0002
5502
d502
800e
ENDCHAR
STARTCHAR ch-400
ENCODING 400
SWIDTH 1000 0
DWIDTH 16 0
BBX 16 16 0 -2
BITMAP
0420
ffff
0420
0000
1c20
f1fe
1020
13ff
fc88
110f
3840
34fc
5388
9070
10dc
1387
ENDCHAR
STARTCHAR ch-401
ENCODING 401
SWIDTH 1000 0
DWIDTH 16 0
BBX 16 16 0 -2
BITMAP
0420
ffff
0420
7ffe
0000
1ff8
1108
1ff8
1108
7ffe
0000
1ff8
1108
1ff8
1108
ffff
ENDCHAR
STARTCHAR ch-404
ENCODING 404
SWIDTH 1000 0
DWIDTH 16 0
BBX 16 16 0 -2
BITMAP
0810
ffff
0810
0100
7ffe
1108
2914
ffff
0000
3ffc
2004
27e4
2424
27e4
2004
3ffc
ENDCHAR
STARTCHAR ch-407
ENCODING 407
SWIDTH 1000 0
DWIDTH 16 0
BBX 16 16 0 -2
BITMAP
0420
ffff
0420
7ffe
4102
4ff2
4102
5ffa
4002
4ff2
4812
4ff2
431a
5de2
411a
7ffe
ENDCHAR
STARTCHAR ch-409
ENCODING 409
SWIDTH 1000 0
DWIDTH 16 0
BBX 16 16 0 -2
BITMAP
0420
0420
ffff
0420
2044
2048
7cff
5188
1088
fefe
1088
1088
38fe
2c88
6488
c0ff
ENDCHAR
STARTCHAR ch-411
ENCODING 411
SWIDTH 1000 0
DWIDTH 16 0
BBX 16 16 0 -2
BITMAP
0420
ffff
0420
1000
2010
7cfe
4444
446c
7c28
41ff
4010
7c10
44fe
4410
7c10
0010
ENDCHAR
STARTCHAR ch-412
ENCODING 412
SWIDTH 1000 0
DWIDTH 16 0
BBX 16 16 0 -2
BITMAP
0420
ffff
0420
0010
3e10
22fe
2244
3e6c
2028
21ff
7e10
5210
d2fe
1210
1e10
0010
ENDCHAR
STARTCHAR ch-420
ENCODING 420
SWIDTH 1000 0
DWIDTH 16 0
BBX 16 16 0 -2
BITMAP
0420
0420
ffff
0420
0000
fe48
21ce
2048
7c48
45ce
cc48
2848
19ce
3048
6048
c3ff
ENDCHAR
STARTCHAR ch-422
ENCODING 422
SWIDTH 1000 0
DWIDTH 16 0
BBX 16 16 0 -2
BITMAP
0810
ffff
0810
0080
3fff
2220
3ffe
2222
3ffe
2400
27ff
6400
47ff
d001
1491
224b
ENDCHAR
STARTCHAR ch-424
ENCODING 424
SWIDTH 1000 0
DWIDTH 16 0
BBX 16 16 0 -2
BITMAP
0420
ffff
0420
3ffc
2244
3ffc
0000
ffff
8001
bffd
0840
1f4c
7178
1641
1c63
f03e
ENDCHAR
STARTCHAR ch-425
ENCODING 425
SWIDTH 1000 0
DWIDTH 16 0
BBX 16 16 0 -2
BITMAP
0420
ffff
0420
0010
79fe
4884
4848
53ff
5200
4a90
4afe
4b10
5afe
4210
4410
41ff
ENDCHAR
STARTCHAR ch-426
ENCODING 426
SWIDTH 1000 0
DWIDTH 16 0
BBX 16 16 0 -2
BITMAP
0420
0420
ffff
0420
0806
7f3c
2220
1420
ffbf
0824
ffa4
2a24
2b64
6944
c8c4
0804
ENDCHAR
STARTCHAR ch-427
ENCODING 427
SWIDTH 1000 0
DWIDTH 16 0
BBX 16 16 0 -2
BITMAP
0810
ffff
0810
3ff8
0100
ffff
2104
3ffc
2104
3ffc
0100
7ffe
0100
ffff
4842
8421
ENDCHAR
STARTCHAR ch-428
ENCODING 428
SWIDTH 1000 0
DWIDTH 16 0
BBX 16 16 0 -2
BITMAP
0420
ffff
0420
0100
67e6
342c
07e0
342c
67e6
0100
ffff
0520
0d30
391c
e107
0100
ENDCHAR
STARTCHAR ch-430
ENCODING 430
SWIDTH 1000 0
DWIDTH 16 0
BBX 16 16 0 -2
BITMAP
0420
ffff
0420
0810
4910
2a3f
ff24
1c64
2a14
c994
101c
ff88
221c
7414
1c36
e363
ENDCHAR
STARTCHAR ch-431
ENCODING 431
SWIDTH 1000 0
DWIDTH 16 0
BBX 16 16 0 -2
BITMAP
0810
ffff
0810
7ffe
4442
7ffe
0104
3ffc
0110
ffff
0200
1ffc
f004
1ffc
1004
1ffc
ENDCHAR
STARTCHAR ch-441
ENCODING 441
SWIDTH 1000 0
DWIDTH 16 0
BBX 16 16 0 -2
BITMAP
0420
ffff
0520
7ffe
0100
3ffc
0000
0ff0
0810
7ffe
4002
5ffa
0810
1fe8
0100
ffff
ENDCHAR
STARTCHAR ch-442
ENCODING 442
SWIDTH 1000 0
DWIDTH 16 0
BBX 16 16 0 -2
BITMAP
0420
ffff
0420
0100
ffff
0440
7abe
2924
5932
0100
2004
3ffc
2004
3ffc
6004
c004
ENDCHAR
STARTCHAR ch-449
ENCODING 449
SWIDTH 1000 0
DWIDTH 16 0
BBX 16 16 0 -2
BITMAP
0420
ffff
0420
0100
7ffe
0810
0ff0
0000
7ffe
4812
4ff6
0100
ffff
0520
1d38
f10f
ENDCHAR
STARTCHAR ch-457
ENCODING 457
SWIDTH 1000 0
DWIDTH 16 0
BBX 16 16 0 -2
BITMAP
0420
ffff
0420
0000
1024
7c7e
1024
7c24
10ff
fe00
107e
3842
347e
5442
9042
107e
ENDCHAR
STARTCHAR ch-461
ENCODING 461
SWIDTH 1000 0
DWIDTH 16 0
BBX 16 16 0 -2
BITMAP
0420
ffff
0420
0040
7f40
487f
7ec0
4280
7e3e
4800
7f00
0000
3ffc
2444
2444
ffff
ENDCHAR
STARTCHAR ch-463
ENCODING 463
SWIDTH 1000 0
DWIDTH 16 0
BBX 16 16 0 -2
BITMAP
0420
0420
ffff
0424
0012
4fff
4810
4bd2
7a96
0bd4
fa5c
4bc8
4a9c
5bd5
9027
30c2
ENDCHAR
STARTCHAR ch-464
ENCODING 464
SWIDTH 1000 0
DWIDTH 16 0
BBX 16 16 0 -2
BITMAP
0420
ffff
0420
1010
2a20
c5fe
2902
11fe
e902
09fe
3448
c448
0cc8
3489
c589
1b07
ENDCHAR
STARTCHAR ch-469
ENCODING 469
SWIDTH 1000 0
DWIDTH 16 0
BBX 16 16 0 -2
BITMAP
0420
0420
ffff
0420
1000
7cfe
1092
7cfe
1092
fefe
1010
39ff
3515
551d
9175
1103
ENDCHAR
STARTCHAR ch-476
ENCODING 476
SWIDTH 1000 0
DWIDTH 16 0
BBX 16 16 0 -2
BITMAP
0420
ffff
0420
0e40
78fe
1192
fe32
3866
5404
910c
06c0
1930
e54e
0380
0d60
731c
ENDCHAR
STARTCHAR ch-477
ENCODING 477
SWIDTH 1000 0
DWIDTH 16 0
BBX 16 16 0 -2
BITMAP
0420
ffff
0420
0810
7f10
087c
ff94
2254
cb74
3e24
0875
ff53
0000
ffff
0808
3ff4
ENDCHAR
STARTCHAR ch-484
ENCODING 484
SWIDTH 1000 0
DWIDTH 16 0
BBX 16 16 0 -2
BITMAP
0420
ffff
0420
0000
7c92
4454
44fe
7c28
45ff
4444
7c92
4555
4438
44d6
c593
8c30
ENDCHAR
STARTCHAR ch-485
ENCODING 485
SWIDTH 1000 0
DWIDTH 16 0
BBX 16 16 0 -2
BITMAP
0420
ffff
04a0
1104
23c8
6a5a
13c4
2248
4a52
7bde
0100
ffff
0520
1d38
f10f
0100
ENDCHAR
STARTCHAR ch-489
ENCODING 489
SWIDTH 1000 0
DWIDTH 16 0
BBX 16 16 0 -2
BITMAP
0420
0420
ffff
0420
000e
63f8
3124
00a8
c7ff
60a8
0124
17ff
3124
21fc
6124
c1fc
ENDCHAR
STARTCHAR ch-490
ENCODING 490
SWIDTH 1000 0
DWIDTH 16 0
BBX 16 16 0 -2
BITMAP
0420
ffff
0420
0810
7f10
491f
ffb4
4924
7f64
2a14
3e1c
1008
ff9c
2214
1c36
6363
ENDCHAR
STARTCHAR ch-503
ENCODING 503
SWIDTH 1000 0
DWIDTH 16 0
BBX 16 16 0 -2
BITMAP
0810
0810
ffff
0810
7c22
00fe
fe24
0028
7dff
0010
7c7e
01c2
7c7e
4442
4442
7c7e
ENDCHAR
STARTCHAR ch-505
ENCODING 505
SWIDTH 1000 0
DWIDTH 16 0
BBX 16 16 0 -2
BITMAP
0420
ffff
0420
0000
7cfc
0084
fefc
0084
7cfc
0040
7cff
0191
7ce1
448b
447a
7c06
ENDCHAR
STARTCHAR ch-506
ENCODING 506
SWIDTH 1000 0
DWIDTH 16 0
BBX 16 16 0 -2
BITMAP
0420
ffff
0420
7e7e
4242
7e7e
4242
7e7e
4482
4ff2
5882
6ff2
4882
4ff2
4882
4ff6
ENDCHAR
STARTCHAR ch-507
ENCODING 507
SWIDTH 1000 0
DWIDTH 16 0
BBX 16 16 0 -2
BITMAP
0420
0420
ffff
0420
61fc
3104
01fc
c000
63de
0252
13de
3020
27ff
60a8
41ac
c727
ENDCHAR
STARTCHAR ch-510
ENCODING 510
SWIDTH 1000 0
DWIDTH 16 0
BBX 16 16 0 -2
BITMAP
0420
ffff
0420
1000
feff
1010
fe7e
9242
927e
fe42
107e
3842
347e
5224
9066
10c3
ENDCHAR
ENDFONT
