STARTFONT 2.1
FONT jis.jis7200.16
SIZE 16 72 72
FONTBOUNDINGBOX 16 16 0 -2
STARTPROPERTIES 4
FONT_DESCENT 2
FONT_ASCENT 14
DEFAULT_CHAR 6
COPYRIGHT "Copyright (c) 1992 AT&T - All rights reserved."
ENDPROPERTIES
CHARS 130
STARTCHAR ch-6
ENCODING 6
SWIDTH 1000 0
DWIDTH 16 0
BBX 16 16 0 -2
BITMAP
21fc
2104
21fc
2904
a9fc
a888
b3fe
a088
27ff
2088
2124
76ab
5070
59ac
cb26
8060
ENDCHAR
STARTCHAR ch-13
ENCODING 13
SWIDTH 1000 0
DWIDTH 16 0
BBX 16 16 0 -2
BITMAP
2020
2441
26fb
2a8a
a888
a8f8
a28a
a68b
24f9
2020
27ff
70a8
59ac
4b26
c623
8020
ENDCHAR
STARTCHAR ch-16
ENCODING 16
SWIDTH 1000 0
DWIDTH 16 0
BBX 16 16 0 -2
BITMAP
2020
203c
2020
2bfe
aa22
aaf8
a222
a2fe
22a4
22fc
22a4
72fc
5200
55fe
c952
83ff
ENDCHAR
STARTCHAR ch-27
ENCODING 27
SWIDTH 1000 0
DWIDTH 16 0
BBX 16 16 0 -2
BITMAP
27df
2451
27df
2c51
b7df
a421
a5fd
a421
25fd
2525
25fd
7525
55fd
54a9
cd25
8423
ENDCHAR
STARTCHAR ch-40
ENCODING 40
SWIDTH 1000 0
DWIDTH 16 0
BBX 16 16 0 -2
BITMAP
77ee
4422
77ae
4422
77ae
44a2
ffff
8811
7efe
2c54
4a92
ffff
1110
ebaf
0ee0
783e
ENDCHAR
STARTCHAR ch-42
ENCODING 42
SWIDTH 1000 0
DWIDTH 16 0
BBX 16 16 0 -2
BITMAP
000c
00f8
3f88
2008
2108
2108
2108
2108
2108
210c
2104
2104
6104
4106
4102
c103
ENDCHAR
STARTCHAR ch-44
ENCODING 44
SWIDTH 1000 0
DWIDTH 16 0
BBX 16 16 0 -2
BITMAP
0600
1c00
74fe
4492
5492
5492
54fe
5480
5480
5480
5681
52c3
537e
d180
90e0
903f
ENDCHAR
STARTCHAR ch-45
ENCODING 45
SWIDTH 1000 0
DWIDTH 16 0
BBX 16 16 0 -2
BITMAP
0018
01f0
1f18
118c
3086
6ff8
0108
0108
ffff
0108
0108
1ff8
0100
0100
0100
0700
ENDCHAR
STARTCHAR ch-48
ENCODING 48
SWIDTH 1000 0
DWIDTH 16 0
BBX 16 16 0 -2
BITMAP
0018
01f0
1f18
118c
3086
6ff8
0200
ffff
0400
07f8
0c10
1a30
3360
e1c0
0770
3c1f
ENDCHAR
STARTCHAR ch-50
ENCODING 50
SWIDTH 1000 0
DWIDTH 16 0
BBX 16 16 0 -2
BITMAP
0018
01f0
3f18
218c
6086
dff0
1010
1ffc
1004
1004
1fff
3011
2259
6b6b
d922
100e
ENDCHAR
STARTCHAR ch-53
ENCODING 53
SWIDTH 1000 0
DWIDTH 16 0
BBX 16 16 0 -2
BITMAP
001c
7ff0
2204
1108
7ffe
4442
7ffe
0000
7f04
417f
7f04
4164
7f34
4204
7f04
c11c
ENDCHAR
STARTCHAR ch-54
ENCODING 54
SWIDTH 1000 0
DWIDTH 16 0
BBX 16 16 0 -2
BITMAP
0420
0420
0c30
1818
300c
e817
0810
0c30
0420
0660
02c0
0180
03c0
0660
1c38
f00f
ENDCHAR
STARTCHAR ch-58
ENCODING 58
SWIDTH 1000 0
DWIDTH 16 0
BBX 16 16 0 -2
BITMAP
0420
1c38
724e
0180
0e70
f81f
0000
ffbe
2222
3e24
2228
3e24
2222
3e22
e22e
0220
ENDCHAR
STARTCHAR ch-59
ENCODING 59
SWIDTH 1000 0
DWIDTH 16 0
BBX 16 16 0 -2
BITMAP
0010
1c30
0760
01c0
0360
0e38
780c
0010
1830
0c60
06c0
0180
03c0
0e70
381c
e007
ENDCHAR
STARTCHAR ch-60
ENCODING 60
SWIDTH 1000 0
DWIDTH 16 0
BBX 16 16 0 -2
BITMAP
0400
6cfc
3884
1084
3884
6cfc
c084
0084
0484
6cfc
3884
1084
3884
6c84
c3ff
0000
ENDCHAR
STARTCHAR ch-61
ENCODING 61
SWIDTH 1000 0
DWIDTH 16 0
BBX 16 16 0 -2
BITMAP
0100
0100
ffff
0100
4924
3118
4924
0100
4924
3118
4ba4
0280
06c0
0c60
3838
e00f
ENDCHAR
STARTCHAR ch-62
ENCODING 62
SWIDTH 1000 0
DWIDTH 16 0
BBX 16 16 0 -2
BITMAP
0000
ffff
1108
2104
7ffe
c103
552a
4912
552a
4102
552a
4912
552a
4102
4102
410e
ENDCHAR
STARTCHAR ch-63
ENCODING 63
SWIDTH 1000 0
DWIDTH 16 0
BBX 16 16 0 -2
BITMAP
0010
0810
0810
0810
0810
0ff0
0010
0010
7ff0
0410
0410
0410
0c10
0810
1810
3010
ENDCHAR
STARTCHAR ch-64
ENCODING 64
SWIDTH 1000 0
DWIDTH 16 0
BBX 16 16 0 -2
BITMAP
0820
0820
0820
4820
6fff
28a8
08a8
08a8
09ac
3924
e924
0b26
0e23
0820
0820
0820
ENDCHAR
STARTCHAR ch-70
ENCODING 70
SWIDTH 1000 0
DWIDTH 16 0
BBX 16 16 0 -2
BITMAP
1020
1020
17ff
9124
d124
52aa
1020
17ff
1000
73fe
d202
12fa
128a
12fa
1202
13fe
ENDCHAR
STARTCHAR ch-71
ENCODING 71
SWIDTH 1000 0
DWIDTH 16 0
BBX 16 16 0 -2
BITMAP
1040
1040
1040
1040
1fff
1000
1000
1000
1ff0
1010
1010
3010
2010
6010
c010
0010
ENDCHAR
STARTCHAR ch-72
ENCODING 72
SWIDTH 1000 0
DWIDTH 16 0
BBX 16 16 0 -2
BITMAP
4800
48ff
4880
4880
4880
7efe
40a2
40a2
78b6
4894
489c
4888
499c
4914
cb36
8863
ENDCHAR
STARTCHAR ch-75
ENCODING 75
SWIDTH 1000 0
DWIDTH 16 0
BBX 16 16 0 -2
BITMAP
4848
4844
487e
49e0
7c36
4018
406d
4187
7848
4844
487e
4be0
4836
4818
c86d
8b87
ENDCHAR
STARTCHAR ch-76
ENCODING 76
SWIDTH 1000 0
DWIDTH 16 0
BBX 16 16 0 -2
BITMAP
0020
4840
49fe
4922
4922
7dfe
4122
4122
41fe
7848
4888
4bff
4808
4808
c808
8808
ENDCHAR
STARTCHAR ch-82
ENCODING 82
SWIDTH 1000 0
DWIDTH 16 0
BBX 16 16 0 -2
BITMAP
4924
4924
4bff
4924
4924
7d3c
4100
41fe
7820
4bff
48a8
48a8
49ac
4926
cb23
8820
ENDCHAR
STARTCHAR ch-88
ENCODING 88
SWIDTH 1000 0
DWIDTH 16 0
BBX 16 16 0 -2
BITMAP
4820
4bff
4820
49fe
7c00
43ff
4249
43ff
7902
49fe
4902
49fe
4902
49fe
c884
8b03
ENDCHAR
STARTCHAR ch-89
ENCODING 89
SWIDTH 1000 0
DWIDTH 16 0
BBX 16 16 0 -2
BITMAP
0000
7ffe
0810
0810
0810
0810
0810
ffff
0090
0190
0310
0610
0c10
3810
e010
0070
ENDCHAR
STARTCHAR ch-91
ENCODING 91
SWIDTH 1000 0
DWIDTH 16 0
BBX 16 16 0 -2
BITMAP
0100
1100
1100
1100
3ffc
6100
c100
0100
0100
ffff
0100
0100
0100
0100
0100
0100
ENDCHAR
STARTCHAR ch-93
ENCODING 93
SWIDTH 1000 0
DWIDTH 16 0
BBX 16 16 0 -2
BITMAP
0840
2840
2840
2840
7e46
485c
c870
0840
0e40
3840
e840
0840
0840
0841
0863
083e
ENDCHAR
STARTCHAR ch-95
ENCODING 95
SWIDTH 1000 0
DWIDTH 16 0
BBX 16 16 0 -2
BITMAP
0400
0c08
0808
3ffc
0004
1100
1100
3ffc
6100
0100
0100
ffff
0100
0100
0100
0100
ENDCHAR
STARTCHAR ch-97
ENCODING 97
SWIDTH 1000 0
DWIDTH 16 0
BBX 16 16 0 -2
BITMAP
1020
5020
5020
5020
7c20
d1fe
9020
1020
1020
1c20
f020
1020
1020
1020
13ff
1000
ENDCHAR
STARTCHAR ch-98
ENCODING 98
SWIDTH 1000 0
DWIDTH 16 0
BBX 16 16 0 -2
BITMAP
0100
0100
7ffe
4002
4002
0900
0900
1ffc
3100
6100
0100
ffff
0100
0100
0100
0100
ENDCHAR
STARTCHAR ch-103
ENCODING 103
SWIDTH 1000 0
DWIDTH 16 0
BBX 16 16 0 -2
BITMAP
0840
2840
2840
287f
7ec4
4884
c984
084c
0e68
3828
e838
0810
0838
086c
08c6
0983
ENDCHAR
STARTCHAR ch-105
ENCODING 105
SWIDTH 1000 0
DWIDTH 16 0
BBX 16 16 0 -2
BITMAP
1100
5100
5100
51ff
fd49
9349
1249
1049
10d9
1c91
f191
1331
1021
1063
10c2
100e
ENDCHAR
STARTCHAR ch-114
ENCODING 114
SWIDTH 1000 0
DWIDTH 16 0
BBX 16 16 0 -2
BITMAP
1020
5120
5120
5120
7dfe
d320
9220
1020
1c20
71fc
d020
1020
1020
1020
13ff
1000
ENDCHAR
STARTCHAR ch-116
ENCODING 116
SWIDTH 1000 0
DWIDTH 16 0
BBX 16 16 0 -2
BITMAP
1006
501c
51f0
5110
fd10
9110
11ff
1110
1d10
7118
d108
11c8
170c
1005
17f7
1002
ENDCHAR
STARTCHAR ch-121
ENCODING 121
SWIDTH 1000 0
DWIDTH 16 0
BBX 16 16 0 -2
BITMAP
1020
5020
51fe
5020
fc20
9020
13ff
1004
1c04
73ff
d004
1184
10c4
1044
1004
101c
ENDCHAR
STARTCHAR ch-125
ENCODING 125
SWIDTH 1000 0
DWIDTH 16 0
BBX 16 16 0 -2
BITMAP
0100
0100
ffff
1220
0c40
7ffe
4402
4812
1ff8
0008
0900
1ff8
2100
ffff
0100
0100
ENDCHAR
STARTCHAR ch-126
ENCODING 126
SWIDTH 1000 0
DWIDTH 16 0
BBX 16 16 0 -2
BITMAP
1000
53ff
5020
5020
fdfc
9044
1044
1044
13ff
1c00
71fe
d102
1102
1102
1102
11fe
ENDCHAR
STARTCHAR ch-128
ENCODING 128
SWIDTH 1000 0
DWIDTH 16 0
BBX 16 16 0 -2
BITMAP
0000
3ffe
2002
2002
3ffe
2000
2e4e
2040
2e4e
2000
2440
27fe
6840
5fff
c040
0040
ENDCHAR
STARTCHAR ch-129
ENCODING 129
SWIDTH 1000 0
DWIDTH 16 0
BBX 16 16 0 -2
BITMAP
0604
7c24
0824
ff24
2824
2c24
6a04
c804
081c
0100
1100
3ff8
2100
ffff
0100
0100
ENDCHAR
STARTCHAR ch-130
ENCODING 130
SWIDTH 1000 0
DWIDTH 16 0
BBX 16 16 0 -2
BITMAP
0640
7c40
087e
fed2
2992
2c32
6a66
c8c4
081c
0100
1100
3ff8
2100
ffff
0100
0100
ENDCHAR
STARTCHAR ch-135
ENCODING 135
SWIDTH 1000 0
DWIDTH 16 0
BBX 16 16 0 -2
BITMAP
0900
0900
1ff8
3100
0100
ffff
0100
5128
5028
fc7e
9048
1008
1cff
f008
1008
1008
ENDCHAR
STARTCHAR ch-146
ENCODING 146
SWIDTH 1000 0
DWIDTH 16 0
BBX 16 16 0 -2
BITMAP
1020
5020
53ff
5000
fcfc
9084
10fc
1000
1dfe
7102
d17a
114a
114a
117a
1102
1106
ENDCHAR
STARTCHAR ch-150
ENCODING 150
SWIDTH 1000 0
DWIDTH 16 0
BBX 16 16 0 -2
BITMAP
0810
2952
2a54
1428
2244
0000
7ffe
4102
4902
1ff8
3100
0100
ffff
0100
0100
0100
ENDCHAR
STARTCHAR ch-160
ENCODING 160
SWIDTH 1000 0
DWIDTH 16 0
BBX 16 16 0 -2
BITMAP
1104
5088
53fe
5020
7dfc
d020
97ff
1004
1392
1910
77ff
d112
11d4
1709
1115
1323
ENDCHAR
STARTCHAR ch-162
ENCODING 162
SWIDTH 1000 0
DWIDTH 16 0
BBX 16 16 0 -2
BITMAP
1020
53ff
5020
51fe
fc00
93ff
1249
13ff
1d02
71fe
d102
11fe
1102
11fe
1084
1303
ENDCHAR
STARTCHAR ch-167
ENCODING 167
SWIDTH 1000 0
DWIDTH 16 0
BBX 16 16 0 -2
BITMAP
1104
5088
53fe
5020
fdfc
9020
17ff
1004
1bca
7108
d7ff
1348
1529
13ca
1045
11db
ENDCHAR
STARTCHAR ch-172
ENCODING 172
SWIDTH 1000 0
DWIDTH 16 0
BBX 16 16 0 -2
BITMAP
0100
0118
010c
0104
0100
ffff
0100
0380
0280
02c0
0640
0460
0c30
1818
300c
e007
ENDCHAR
STARTCHAR ch-175
ENCODING 175
SWIDTH 1000 0
DWIDTH 16 0
BBX 16 16 0 -2
BITMAP
0800
89fc
5104
2104
2104
5104
9104
1104
311c
3100
5100
9100
1101
1183
30fe
e000
ENDCHAR
STARTCHAR ch-178
ENCODING 178
SWIDTH 1000 0
DWIDTH 16 0
BBX 16 16 0 -2
BITMAP
0808
8808
5008
2008
23ff
5028
9028
1028
3068
3048
50c8
9088
1188
1308
3008
e038
ENDCHAR
STARTCHAR ch-182
ENCODING 182
SWIDTH 1000 0
DWIDTH 16 0
BBX 16 16 0 -2
BITMAP
0820
0824
4826
6822
2820
0bff
0820
0820
0820
3870
6850
c858
08c8
088c
0986
0b03
ENDCHAR
STARTCHAR ch-185
ENCODING 185
SWIDTH 1000 0
DWIDTH 16 0
BBX 16 16 0 -2
BITMAP
0848
884c
5044
2040
27ff
5040
9040
1040
30e0
30a0
50a0
90a0
11a0
1121
3333
e61e
ENDCHAR
STARTCHAR ch-194
ENCODING 194
SWIDTH 1000 0
DWIDTH 16 0
BBX 16 16 0 -2
BITMAP
0800
8bfe
5020
2020
2020
5020
9020
11fc
3020
3020
5020
9020
1020
1020
37ff
e000
ENDCHAR
STARTCHAR ch-195
ENCODING 195
SWIDTH 1000 0
DWIDTH 16 0
BBX 16 16 0 -2
BITMAP
0800
8bf8
5088
2088
2088
5088
9088
17ff
3088
3088
5088
9088
1088
1088
37ff
e000
ENDCHAR
STARTCHAR ch-196
ENCODING 196
SWIDTH 1000 0
DWIDTH 16 0
BBX 16 16 0 -2
BITMAP
0820
8820
5022
2122
2126
5124
932c
1220
3070
3050
5050
90d8
1088
118c
3306
e603
ENDCHAR
STARTCHAR ch-198
ENCODING 198
SWIDTH 1000 0
DWIDTH 16 0
BBX 16 16 0 -2
BITMAP
0820
8820
5020
2020
23fe
5222
9222
1222
3222
33fe
5020
9020
1020
1020
3020
e020
ENDCHAR
STARTCHAR ch-206
ENCODING 206
SWIDTH 1000 0
DWIDTH 16 0
BBX 16 16 0 -2
BITMAP
0800
8bfe
5222
2222
2222
53fe
9222
1222
3222
3222
53fe
9020
1020
1020
3020
e020
ENDCHAR
STARTCHAR ch-208
ENCODING 208
SWIDTH 1000 0
DWIDTH 16 0
BBX 16 16 0 -2
BITMAP
0806
883c
53e4
2204
2244
5244
9244
1244
3244
5244
9244
1254
1256
167a
35ca
ec03
ENDCHAR
STARTCHAR ch-210
ENCODING 210
SWIDTH 1000 0
DWIDTH 16 0
BBX 16 16 0 -2
BITMAP
0890
8890
57fe
2092
2092
57fe
9490
1490
37ff
3091
5091
9093
1192
1116
3310
e610
ENDCHAR
STARTCHAR ch-215
ENCODING 215
SWIDTH 1000 0
DWIDTH 16 0
BBX 16 16 0 -2
BITMAP
0900
8900
5100
23fe
5202
9602
19f2
2912
2912
4912
8912
09f2
0802
0802
1806
701c
ENDCHAR
STARTCHAR ch-217
ENCODING 217
SWIDTH 1000 0
DWIDTH 16 0
BBX 16 16 0 -2
BITMAP
0800
89fc
5104
2104
2104
51fc
9104
1104
3104
31fc
5104
9104
1104
1104
37ff
e000
ENDCHAR
STARTCHAR ch-219
ENCODING 219
SWIDTH 1000 0
DWIDTH 16 0
BBX 16 16 0 -2
BITMAP
0820
8820
5060
2040
23fe
5202
9202
1202
3202
33fe
5202
9202
1202
1202
3202
e3fe
ENDCHAR
STARTCHAR ch-224
ENCODING 224
SWIDTH 1000 0
DWIDTH 16 0
BBX 16 16 0 -2
BITMAP
0800
89fc
5104
2104
21fc
5104
9104
1104
31fd
3113
5116
9118
1108
110c
31e6
e703
ENDCHAR
STARTCHAR ch-225
ENCODING 225
SWIDTH 1000 0
DWIDTH 16 0
BBX 16 16 0 -2
BITMAP
0820
8820
5020
27ff
2104
5306
9603
1088
3088
30d8
5070
9020
1070
10d8
318c
e707
ENDCHAR
STARTCHAR ch-226
ENCODING 226
SWIDTH 1000 0
DWIDTH 16 0
BBX 16 16 0 -2
BITMAP
0840
8840
50fc
2084
21cc
5358
9030
1078
30cc
3387
50fc
9084
1084
1084
3084
e0fc
ENDCHAR
STARTCHAR ch-233
ENCODING 233
SWIDTH 1000 0
DWIDTH 16 0
BBX 16 16 0 -2
BITMAP
0820
8820
53ff
2201
2201
5008
9008
13ff
3008
3188
50c8
9048
1008
1008
3008
e038
ENDCHAR
STARTCHAR ch-236
ENCODING 236
SWIDTH 1000 0
DWIDTH 16 0
BBX 16 16 0 -2
BITMAP
0820
8820
5020
23fe
2222
5222
9222
1222
3222
33fe
5020
9024
1024
103e
31e2
e703
ENDCHAR
STARTCHAR ch-237
ENCODING 237
SWIDTH 1000 0
DWIDTH 16 0
BBX 16 16 0 -2
BITMAP
0820
8820
53fe
2020
5222
9326
1924
2924
2820
4fff
8850
08d8
0888
098c
1b06
7603
ENDCHAR
STARTCHAR ch-247
ENCODING 247
SWIDTH 1000 0
DWIDTH 16 0
BBX 16 16 0 -2
BITMAP
0800
8bfe
5202
2202
23fe
5000
93fe
1202
3202
33fe
5202
9202
13fe
1202
3202
e20e
ENDCHAR
STARTCHAR ch-248
ENCODING 248
SWIDTH 1000 0
DWIDTH 16 0
BBX 16 16 0 -2
BITMAP
0800
8bfe
5222
2222
23fe
5222
9222
1222
33fe
3020
5020
93fe
1020
1020
37ff
e000
ENDCHAR
STARTCHAR ch-249
ENCODING 249
SWIDTH 1000 0
DWIDTH 16 0
BBX 16 16 0 -2
BITMAP
0820
8820
57ff
2020
2124
5124
9124
12aa
32aa
3471
5050
90d8
1088
118c
3306
e603
ENDCHAR
STARTCHAR ch-252
ENCODING 252
SWIDTH 1000 0
DWIDTH 16 0
BBX 16 16 0 -2
BITMAP
0820
8820
51fc
2104
2104
51fc
9104
1104
31fd
3113
5116
9118
1108
110c
31e6
e703
ENDCHAR
STARTCHAR ch-253
ENCODING 253
SWIDTH 1000 0
DWIDTH 16 0
BBX 16 16 0 -2
BITMAP
0800
89fe
5102
2102
21fe
5102
9102
1102
31fe
3102
5102
9102
11fe
1084
3186
e303
ENDCHAR
STARTCHAR ch-266
ENCODING 266
SWIDTH 1000 0
DWIDTH 16 0
BBX 16 16 0 -2
BITMAP
08c0
8b9e
5202
2202
23de
5202
9202
13fe
3090
3090
5090
9090
1190
1111
3313
e60e
ENDCHAR
STARTCHAR ch-278
ENCODING 278
SWIDTH 1000 0
DWIDTH 16 0
BBX 16 16 0 -2
BITMAP
0800
89fc
5104
2104
21fc
5104
9104
11fc
3000
33fe
5202
9202
13fe
1202
3202
e3fe
ENDCHAR
STARTCHAR ch-279
ENCODING 279
SWIDTH 1000 0
DWIDTH 16 0
BBX 16 16 0 -2
BITMAP
0820
8820
53fe
2050
20d8
518c
9000
17ff
3004
31e4
5124
9124
1124
11e4
3004
e01c
ENDCHAR
STARTCHAR ch-283
ENCODING 283
SWIDTH 1000 0
DWIDTH 16 0
BBX 16 16 0 -2
BITMAP
0800
8bfc
5008
2010
2020
57ff
9020
1020
30e0
3000
53fe
9292
1292
1292
37ff
e000
ENDCHAR
STARTCHAR ch-284
ENCODING 284
SWIDTH 1000 0
DWIDTH 16 0
BBX 16 16 0 -2
BITMAP
0820
8820
53fe
2020
21fc
5020
97ff
1000
31fc
3104
51fc
9104
11fc
1104
3104
e11c
ENDCHAR
STARTCHAR ch-285
ENCODING 285
SWIDTH 1000 0
DWIDTH 16 0
BBX 16 16 0 -2
BITMAP
0820
8820
53fe
2000
2088
5088
91dc
1356
3000
3020
57ff
9020
1020
1020
3020
e020
ENDCHAR
STARTCHAR ch-287
ENCODING 287
SWIDTH 1000 0
DWIDTH 16 0
BBX 16 16 0 -2
BITMAP
0a44
8b6c
5128
2000
23fc
5244
9244
13fc
3244
3244
53fc
9244
1244
1245
3645
ec43
ENDCHAR
STARTCHAR ch-293
ENCODING 293
SWIDTH 1000 0
DWIDTH 16 0
BBX 16 16 0 -2
BITMAP
0800
8bfe
5222
2222
23fe
5222
9222
13fe
3000
37ff
5122
9136
1114
1118
31cc
e707
ENDCHAR
STARTCHAR ch-297
ENCODING 297
SWIDTH 1000 0
DWIDTH 16 0
BBX 16 16 0 -2
BITMAP
0800
89fc
5104
21fc
2104
5104
91fc
1020
3120
33fe
5620
9020
11fc
1020
3020
e7ff
ENDCHAR
STARTCHAR ch-298
ENCODING 298
SWIDTH 1000 0
DWIDTH 16 0
BBX 16 16 0 -2
BITMAP
0842
8842
53fe
2044
204c
5048
97ff
1020
3040
31fc
5704
9104
11fc
1104
3104
e1fc
ENDCHAR
STARTCHAR ch-299
ENCODING 299
SWIDTH 1000 0
DWIDTH 16 0
BBX 16 16 0 -2
BITMAP
0888
8888
57ff
2088
2088
5000
93fe
1222
3222
3222
53fe
9222
1222
1222
3222
e3fe
ENDCHAR
STARTCHAR ch-302
ENCODING 302
SWIDTH 1000 0
DWIDTH 16 0
BBX 16 16 0 -2
BITMAP
0808
080a
ff8b
0809
0808
ffbf
8088
a288
9488
be9c
8894
be94
8894
8896
88b2
81a3
ENDCHAR
STARTCHAR ch-303
ENCODING 303
SWIDTH 1000 0
DWIDTH 16 0
BBX 16 16 0 -2
BITMAP
0820
8a22
5222
2222
23fe
5000
97ff
1020
3040
33fe
5292
9292
1292
1292
3292
e296
ENDCHAR
STARTCHAR ch-308
ENCODING 308
SWIDTH 1000 0
DWIDTH 16 0
BBX 16 16 0 -2
BITMAP
1200
92fc
5604
6404
25ff
6c40
b440
24fe
2590
6410
a5ff
2428
2428
246c
24c6
c583
ENDCHAR
STARTCHAR ch-310
ENCODING 310
SWIDTH 1000 0
DWIDTH 16 0
BBX 16 16 0 -2
BITMAP
0904
898c
5088
27ff
2050
5050
93fe
1252
3252
329e
5302
9202
13fe
1202
3202
e3fe
ENDCHAR
STARTCHAR ch-311
ENCODING 311
SWIDTH 1000 0
DWIDTH 16 0
BBX 16 16 0 -2
BITMAP
4110
6314
2216
ff92
1410
14ff
7f10
5510
5510
5710
6138
4128
7f2c
4164
7f46
00c3
ENDCHAR
STARTCHAR ch-318
ENCODING 318
SWIDTH 1000 0
DWIDTH 16 0
BBX 16 16 0 -2
BITMAP
0800
89fc
5104
213c
2124
5124
97ff
1401
35fd
3104
51fc
9104
11fc
1104
3104
e10c
ENDCHAR
STARTCHAR ch-319
ENCODING 319
SWIDTH 1000 0
DWIDTH 16 0
BBX 16 16 0 -2
BITMAP
0820
8820
53fe
2020
27ff
5000
93fe
1202
3202
53fe
9091
119b
170a
110c
31e6
e703
ENDCHAR
STARTCHAR ch-324
ENCODING 324
SWIDTH 1000 0
DWIDTH 16 0
BBX 16 16 0 -2
BITMAP
100a
9789
5009
2fc8
203f
5788
9008
1788
3008
301c
5794
9494
1494
14b6
37a2
e063
ENDCHAR
STARTCHAR ch-325
ENCODING 325
SWIDTH 1000 0
DWIDTH 16 0
BBX 16 16 0 -2
BITMAP
0900
8a3f
5788
2488
24bf
64a9
a7a9
2429
2429
67a9
a4a9
24a9
24a9
24ab
6788
c008
ENDCHAR
STARTCHAR ch-334
ENCODING 334
SWIDTH 1000 0
DWIDTH 16 0
BBX 16 16 0 -2
BITMAP
0410
447e
45d2
7c5c
05f0
fc04
27ff
2484
64c4
c44c
0110
0108
ffff
0240
1c38
f00f
ENDCHAR
STARTCHAR ch-335
ENCODING 335
SWIDTH 1000 0
DWIDTH 16 0
BBX 16 16 0 -2
BITMAP
0888
8888
57ff
2088
2088
51fc
9104
11fc
3104
31fc
5020
97ff
1050
10d8
318c
e707
ENDCHAR
STARTCHAR ch-343
ENCODING 343
SWIDTH 1000 0
DWIDTH 16 0
BBX 16 16 0 -2
BITMAP
2000
2fff
aa28
4948
4fff
a889
2895
2aa4
2aa4
6aa4
abe4
288e
288a
318a
211b
c311
ENDCHAR
STARTCHAR ch-355
ENCODING 355
SWIDTH 1000 0
DWIDTH 16 0
BBX 16 16 0 -2
BITMAP
9090
4914
0016
7f12
4910
7fff
4910
7f10
0010
ffb8
0028
7f28
412c
4164
7f46
00c3
ENDCHAR
STARTCHAR ch-360
ENCODING 360
SWIDTH 1000 0
DWIDTH 16 0
BBX 16 16 0 -2
BITMAP
0800
8ffe
5492
2492
27fe
5100
93ff
1641
3bf9
3249
5249
93f9
1051
11fb
370a
e006
ENDCHAR
STARTCHAR ch-362
ENCODING 362
SWIDTH 1000 0
DWIDTH 16 0
BBX 16 16 0 -2
BITMAP
0820
8850
518c
2777
2000
53fe
9222
12aa
3222
33fe
5000
91fc
1104
11fc
3104
e1fc
ENDCHAR
STARTCHAR ch-368
ENCODING 368
SWIDTH 1000 0
DWIDTH 16 0
BBX 16 16 0 -2
BITMAP
0820
8820
57ff
2441
24a1
528a
94f9
1000
33fe
3292
53fe
9000
17ff
1020
3020
e0e0
ENDCHAR
STARTCHAR ch-370
ENCODING 370
SWIDTH 1000 0
DWIDTH 16 0
BBX 16 16 0 -2
BITMAP
0888
8fff
5088
2110
23ff
5620
9bfe
1220
33fe
5220
93ff
1000
17fe
108c
3070
e78f
ENDCHAR
STARTCHAR ch-373
ENCODING 373
SWIDTH 1000 0
DWIDTH 16 0
BBX 16 16 0 -2
BITMAP
1222
9444
5222
27fc
24a4
5444
94a4
17fc
3000
3664
5554
9664
1554
1445
3775
ecc3
ENDCHAR
STARTCHAR ch-376
ENCODING 376
SWIDTH 1000 0
DWIDTH 16 0
BBX 16 16 0 -2
BITMAP
f790
9494
f796
0012
7f10
49ff
7f10
4910
7f10
0038
ffa8
0028
7f2c
4164
7f46
00c3
ENDCHAR
STARTCHAR ch-378
ENCODING 378
SWIDTH 1000 0
DWIDTH 16 0
BBX 16 16 0 -2
BITMAP
2200
a27f
4f88
423e
afa2
2aa2
2abe
2aa2
6fa2
623e
a722
2722
2abe
2a94
2236
c263
ENDCHAR
STARTCHAR ch-379
ENCODING 379
SWIDTH 1000 0
DWIDTH 16 0
BBX 16 16 0 -2
BITMAP
0408
078a
040b
7fc9
4448
5f3f
4448
7fc8
4908
4f08
401c
7fd4
6954
71d6
ae72
24c3
ENDCHAR
STARTCHAR ch-388
ENCODING 388
SWIDTH 1000 0
DWIDTH 16 0
BBX 16 16 0 -2
BITMAP
0100
0100
0100
ffff
0100
0300
0610
0c30
1860
0cc0
0780
0310
0618
0c0c
1ffe
7002
ENDCHAR
STARTCHAR ch-391
ENCODING 391
SWIDTH 1000 0
DWIDTH 16 0
BBX 16 16 0 -2
BITMAP
0100
0100
7ffe
0200
644c
3298
0100
1248
37ac
6006
0100
ffff
0100
0100
0100
0100
ENDCHAR
STARTCHAR ch-393
ENCODING 393
SWIDTH 1000 0
DWIDTH 16 0
BBX 16 16 0 -2
BITMAP
0000
7ffe
0100
0100
0100
0100
0100
3ffc
0100
0100
0118
010c
0104
0100
ffff
0000
ENDCHAR
STARTCHAR ch-395
ENCODING 395
SWIDTH 1000 0
DWIDTH 16 0
BBX 16 16 0 -2
BITMAP
0000
7ffe
0100
0100
0100
0100
0100
3ffc
0100
0100
0100
0100
0100
0100
ffff
0000
ENDCHAR
STARTCHAR ch-406
ENCODING 406
SWIDTH 1000 0
DWIDTH 16 0
BBX 16 16 0 -2
BITMAP
0080
0080
f8f8
2088
2188
2108
2318
f810
2030
2020
2070
2050
38d8
e18c
0306
0603
ENDCHAR
STARTCHAR ch-425
ENCODING 425
SWIDTH 1000 0
DWIDTH 16 0
BBX 16 16 0 -2
BITMAP
0000
f9fe
2000
2000
2000
2000
fbff
2048
2048
2048
2048
3848
e0c8
0089
0189
0307
ENDCHAR
STARTCHAR ch-434
ENCODING 434
SWIDTH 1000 0
DWIDTH 16 0
BBX 16 16 0 -2
BITMAP
0020
f870
20d8
218c
2306
26fb
f800
2000
23fe
2042
2042
3842
e042
004e
0040
0040
ENDCHAR
STARTCHAR ch-435
ENCODING 435
SWIDTH 1000 0
DWIDTH 16 0
BBX 16 16 0 -2
BITMAP
0090
0094
f996
2112
2310
257f
2110
f910
2110
2118
2108
2108
390c
e105
0107
0102
ENDCHAR
STARTCHAR ch-443
ENCODING 443
SWIDTH 1000 0
DWIDTH 16 0
BBX 16 16 0 -2
BITMAP
0020
0020
f820
23ff
2221
2222
fa20
23fe
2282
2286
22cc
3e58
e430
0c78
00cc
0387
ENDCHAR
STARTCHAR ch-448
ENCODING 448
SWIDTH 1000 0
DWIDTH 16 0
BBX 16 16 0 -2
BITMAP
0010
0030
f820
21fe
2102
2102
2102
f902
21fe
2102
2102
2102
3902
e102
01fe
0000
ENDCHAR
STARTCHAR ch-450
ENCODING 450
SWIDTH 1000 0
DWIDTH 16 0
BBX 16 16 0 -2
BITMAP
0000
fbff
2004
2004
21e4
2124
f924
2124
2124
2124
21e4
2004
3804
e004
0004
001c
ENDCHAR
STARTCHAR ch-456
ENCODING 456
SWIDTH 1000 0
DWIDTH 16 0
BBX 16 16 0 -2
BITMAP
0100
0100
f900
210f
27e9
2129
2129
f929
2129
2129
2329
2229
3a69
e649
044f
0dc0
ENDCHAR
STARTCHAR ch-458
ENCODING 458
SWIDTH 1000 0
DWIDTH 16 0
BBX 16 16 0 -2
BITMAP
0000
fbfe
2292
2292
2292
2292
fa92
27ff
2292
2292
2292
2292
3a92
e292
0292
0296
ENDCHAR
STARTCHAR ch-461
ENCODING 461
SWIDTH 1000 0
DWIDTH 16 0
BBX 16 16 0 -2
BITMAP
0020
0070
f8d8
218c
2306
2623
2060
f8c4
238c
2018
2071
23c3
3806
e01c
0070
03c0
ENDCHAR
STARTCHAR ch-462
ENCODING 462
SWIDTH 1000 0
DWIDTH 16 0
BBX 16 16 0 -2
BITMAP
0080
0080
f880
21ff
2110
2310
2010
f810
2092
2092
2092
2193
3911
e010
0010
0070
ENDCHAR
STARTCHAR ch-478
ENCODING 478
SWIDTH 1000 0
DWIDTH 16 0
BBX 16 16 0 -2
BITMAP
0080
0080
f9fc
2104
238c
26d8
2070
f9dc
2707
2000
21fc
2104
3904
e104
0104
01fc
ENDCHAR
STARTCHAR ch-480
ENCODING 480
SWIDTH 1000 0
DWIDTH 16 0
BBX 16 16 0 -2
BITMAP
0020
0120
f920
23fe
2220
2620
f820
27ff
20a8
20a8
21ac
3924
e326
0623
0020
0020
ENDCHAR
STARTCHAR ch-485
ENCODING 485
SWIDTH 1000 0
DWIDTH 16 0
BBX 16 16 0 -2
BITMAP
0000
03ff
f884
2084
20fc
2084
f884
2084
20fc
2084
2084
3887
e0fc
0384
0004
0004
ENDCHAR
STARTCHAR ch-490
ENCODING 490
SWIDTH 1000 0
DWIDTH 16 0
BBX 16 16 0 -2
BITMAP
0020
f820
23fe
2020
2020
2020
fbff
2000
2020
2020
23fe
2020
3820
e020
07ff
0000
ENDCHAR
STARTCHAR ch-493
ENCODING 493
SWIDTH 1000 0
DWIDTH 16 0
BBX 16 16 0 -2
BITMAP
0080
f8ff
2488
2488
2488
2488
fc88
24be
2488
2088
2088
3988
6108
c308
067f
0000
ENDCHAR
STARTCHAR ch-494
ENCODING 494
SWIDTH 1000 0
DWIDTH 16 0
BBX 16 16 0 -2
BITMAP
0000
07fc
fc04
2404
25f4
2444
fc44
25f4
2554
2554
2554
3d74
e444
0c45
0845
1803
ENDCHAR
STARTCHAR ch-497
ENCODING 497
SWIDTH 1000 0
DWIDTH 16 0
BBX 16 16 0 -2
BITMAP
0041
0263
fb22
2126
2104
2000
2040
f840
27ff
2084
2184
210c
39e8
e03c
00e6
0383
ENDCHAR
STARTCHAR ch-504
ENCODING 504
SWIDTH 1000 0
DWIDTH 16 0
BBX 16 16 0 -2
BITMAP
0000
03ff
f820
2020
21fc
2044
f844
2044
23ff
2000
21fe
3902
e102
0102
0102
01fe
ENDCHAR
STARTCHAR ch-510
ENCODING 510
SWIDTH 1000 0
DWIDTH 16 0
BBX 16 16 0 -2
BITMAP
0000
03fc
fa04
2204
23fc
2204
fa04
23fc
2204
2204
23fc
3890
e090
0191
0313
0e0e
ENDCHAR
ENDFONT
