STARTFONT 2.1
FONT jis.jis4e00.16
SIZE 16 72 72
FONTBOUNDINGBOX 16 16 0 -2
STARTPROPERTIES 4
FONT_DESCENT 2
FONT_ASCENT 14
DEFAULT_CHAR 0
COPYRIGHT "Copyright (c) 1992 AT&T - All rights reserved."
ENDPROPERTIES
CHARS 206
STARTCHAR ch-0
ENCODING 0
SWIDTH 1000 0
DWIDTH 16 0
BBX 16 16 0 -2
BITMAP
0000
0000
0000
0000
0000
0000
0000
7ffe
0000
0000
0000
0000
0000
0000
0000
0000
ENDCHAR
STARTCHAR ch-1
ENCODING 1
SWIDTH 1000 0
DWIDTH 16 0
BBX 16 16 0 -2
BITMAP
0000
0000
ffff
0100
0100
0100
0100
0100
0100
0100
0100
0100
0100
0100
0100
0700
ENDCHAR
STARTCHAR ch-3
ENCODING 3
SWIDTH 1000 0
DWIDTH 16 0
BBX 16 16 0 -2
BITMAP
0400
0400
0400
0400
0407
047c
07c0
fc00
0400
0400
0402
0402
0406
0604
03fc
0000
ENDCHAR
STARTCHAR ch-7
ENCODING 7
SWIDTH 1000 0
DWIDTH 16 0
BBX 16 16 0 -2
BITMAP
0000
ffff
0400
0400
0400
07f8
0408
0408
0c08
0808
0808
1808
1008
3018
6010
c070
ENDCHAR
STARTCHAR ch-8
ENCODING 8
SWIDTH 1000 0
DWIDTH 16 0
BBX 16 16 0 -2
BITMAP
0080
0080
0080
ffff
0080
0080
0880
0c80
0680
0380
0100
0380
06c0
0c70
381c
e007
ENDCHAR
STARTCHAR ch-9
ENCODING 9
SWIDTH 1000 0
DWIDTH 16 0
BBX 16 16 0 -2
BITMAP
0000
3ffc
0000
0000
0000
0000
0000
1ff8
0000
0000
0000
0000
0000
0000
ffff
0000
ENDCHAR
STARTCHAR ch-10
ENCODING 10
SWIDTH 1000 0
DWIDTH 16 0
BBX 16 16 0 -2
BITMAP
0100
0100
0100
0100
0100
0100
01fc
0100
0100
0100
0100
0100
0100
0100
ffff
0000
ENDCHAR
STARTCHAR ch-11
ENCODING 11
SWIDTH 1000 0
DWIDTH 16 0
BBX 16 16 0 -2
BITMAP
0000
ffff
0100
0100
0100
01c0
0160
0130
0118
0108
0100
0100
0100
0100
0100
0100
ENDCHAR
STARTCHAR ch-13
ENCODING 13
SWIDTH 1000 0
DWIDTH 16 0
BBX 16 16 0 -2
BITMAP
0000
ffff
0080
0180
0100
0340
0760
0d30
1918
310c
e107
0100
0100
0100
0100
0100
ENDCHAR
STARTCHAR ch-14
ENCODING 14
SWIDTH 1000 0
DWIDTH 16 0
BBX 16 16 0 -2
BITMAP
0800
0800
0ff0
0800
0800
0fe0
0020
0020
ffff
0020
0020
0020
0060
0040
00c0
0780
ENDCHAR
STARTCHAR ch-16
ENCODING 16
SWIDTH 1000 0
DWIDTH 16 0
BBX 16 16 0 -2
BITMAP
0000
ffff
0100
2100
21fe
2100
2100
3ffe
0002
0002
0006
0004
0004
000c
0008
0078
ENDCHAR
STARTCHAR ch-17
ENCODING 17
SWIDTH 1000 0
DWIDTH 16 0
BBX 16 16 0 -2
BITMAP
0000
7ff0
0410
0410
0410
0410
0410
ffff
0810
0810
0810
0810
0810
0810
ffff
0000
ENDCHAR
STARTCHAR ch-20
ENCODING 20
SWIDTH 1000 0
DWIDTH 16 0
BBX 16 16 0 -2
BITMAP
0000
1ff8
1008
1008
1008
1ff8
1008
1008
1008
1ff8
1008
1008
1008
1008
ffff
0000
ENDCHAR
STARTCHAR ch-21
ENCODING 21
SWIDTH 1000 0
DWIDTH 16 0
BBX 16 16 0 -2
BITMAP
0000
7ffe
0080
0180
0100
0340
0760
0d30
391c
e107
0100
0100
0100
0000
ffff
0000
ENDCHAR
STARTCHAR ch-22
ENCODING 22
SWIDTH 1000 0
DWIDTH 16 0
BBX 16 16 0 -2
BITMAP
0000
1108
1108
1108
1108
ffff
1108
1108
1108
1108
11f8
1000
1000
1000
1ffe
0000
ENDCHAR
STARTCHAR ch-23
ENCODING 23
SWIDTH 1000 0
DWIDTH 16 0
BBX 16 16 0 -2
BITMAP
1108
1108
1108
1108
1108
1108
ffff
1108
1108
1108
1108
1108
1108
1108
1ff8
0000
ENDCHAR
STARTCHAR ch-24
ENCODING 24
SWIDTH 1000 0
DWIDTH 16 0
BBX 16 16 0 -2
BITMAP
0018
00f0
1f80
1000
1000
1000
1ffe
1010
1010
1010
1010
1010
1010
1010
ffff
0000
ENDCHAR
STARTCHAR ch-25
ENCODING 25
SWIDTH 1000 0
DWIDTH 16 0
BBX 16 16 0 -2
BITMAP
0000
ffff
0100
0100
3ffc
2104
2384
22c4
2664
2c34
2004
2004
2004
2004
2004
201c
ENDCHAR
STARTCHAR ch-30
ENCODING 30
SWIDTH 1000 0
DWIDTH 16 0
BBX 16 16 0 -2
BITMAP
0000
3ff8
0010
0060
01c2
7d46
056c
0d28
1930
3118
610c
c107
0700
0000
7ffe
0000
ENDCHAR
STARTCHAR ch-33
ENCODING 33
SWIDTH 1000 0
DWIDTH 16 0
BBX 16 16 0 -2
BITMAP
0000
ffff
0100
0100
7ffe
4102
4102
4912
4912
4912
4912
4ff2
4002
4002
4002
400e
ENDCHAR
STARTCHAR ch-38
ENCODING 38
SWIDTH 1000 0
DWIDTH 16 0
BBX 16 16 0 -2
BITMAP
1008
1818
0c30
0420
7ffe
0420
0420
4422
4422
6426
2424
2424
0420
0420
ffff
0000
ENDCHAR
STARTCHAR ch-42
ENCODING 42
SWIDTH 1000 0
DWIDTH 16 0
BBX 16 16 0 -2
BITMAP
0100
0380
02c0
0660
0c30
1818
310c
e107
0100
0100
0100
0100
0100
0100
0100
0100
ENDCHAR
STARTCHAR ch-45
ENCODING 45
SWIDTH 1000 0
DWIDTH 16 0
BBX 16 16 0 -2
BITMAP
0100
0100
0100
0100
7ffe
4102
4102
4102
4102
4102
7ffe
0100
0100
0100
0100
0100
ENDCHAR
STARTCHAR ch-49
ENCODING 49
SWIDTH 1000 0
DWIDTH 16 0
BBX 16 16 0 -2
BITMAP
0420
0420
4422
4422
4422
4422
4422
4422
4422
4422
7c3e
0420
0c20
1820
3020
e020
ENDCHAR
STARTCHAR ch-50
ENCODING 50
SWIDTH 1000 0
DWIDTH 16 0
BBX 16 16 0 -2
BITMAP
0100
0100
3ffc
2104
2104
2104
3ffc
0100
7ffe
4102
4102
4102
7ffe
0100
0100
0100
ENDCHAR
STARTCHAR ch-54
ENCODING 54
SWIDTH 1000 0
DWIDTH 16 0
BBX 16 16 0 -2
BITMAP
0000
0000
0000
1800
0e00
0300
0180
00c0
0060
0070
0038
0018
0018
0000
0000
0000
ENDCHAR
STARTCHAR ch-56
ENCODING 56
SWIDTH 1000 0
DWIDTH 16 0
BBX 16 16 0 -2
BITMAP
0200
0200
0200
0200
7ff0
0210
0210
3210
1a10
0e10
0410
0e10
0b10
1911
3013
e00e
ENDCHAR
STARTCHAR ch-57
ENCODING 57
SWIDTH 1000 0
DWIDTH 16 0
BBX 16 16 0 -2
BITMAP
0000
1ff8
1008
1008
1308
1188
1088
1008
ffff
1008
1008
1008
3008
2008
6008
c038
ENDCHAR
STARTCHAR ch-59
ENCODING 59
SWIDTH 1000 0
DWIDTH 16 0
BBX 16 16 0 -2
BITMAP
0600
0300
0100
7ffe
0100
0100
0100
0100
3ffc
0100
0100
0100
0100
0100
ffff
0000
ENDCHAR
STARTCHAR ch-60
ENCODING 60
SWIDTH 1000 0
DWIDTH 16 0
BBX 16 16 0 -2
BITMAP
0810
0810
0810
ffff
0810
0b10
0990
0890
0810
0810
ffff
0810
0810
1810
3010
e010
ENDCHAR
STARTCHAR ch-63
ENCODING 63
SWIDTH 1000 0
DWIDTH 16 0
BBX 16 16 0 -2
BITMAP
0080
0080
0080
0080
0080
0080
0080
0080
0080
0080
0180
0100
0300
0600
1c00
7000
ENDCHAR
STARTCHAR ch-66
ENCODING 66
SWIDTH 1000 0
DWIDTH 16 0
BBX 16 16 0 -2
BITMAP
1008
1008
1818
0810
0810
0c30
0420
0660
0240
03c0
0180
03c0
0660
0c30
381c
e007
ENDCHAR
STARTCHAR ch-67
ENCODING 67
SWIDTH 1000 0
DWIDTH 16 0
BBX 16 16 0 -2
BITMAP
0000
7ff0
0410
0410
0410
0410
041e
0c02
0802
0802
1802
1002
3006
6004
c03c
0000
ENDCHAR
STARTCHAR ch-69
ENCODING 69
SWIDTH 1000 0
DWIDTH 16 0
BBX 16 16 0 -2
BITMAP
0200
0200
07e0
0420
0c20
1860
3040
60c0
0080
01c0
0340
0660
0c30
1818
300c
e007
ENDCHAR
STARTCHAR ch-75
ENCODING 75
SWIDTH 1000 0
DWIDTH 16 0
BBX 16 16 0 -2
BITMAP
0100
0100
0100
7ffe
0006
000c
0018
0030
0060
00c0
0180
0300
0600
3c00
e780
00ff
ENDCHAR
STARTCHAR ch-77
ENCODING 77
SWIDTH 1000 0
DWIDTH 16 0
BBX 16 16 0 -2
BITMAP
1000
1000
1000
3fff
2100
6100
c100
01fc
0100
0100
0100
01fe
0100
0100
0100
0100
ENDCHAR
STARTCHAR ch-78
ENCODING 78
SWIDTH 1000 0
DWIDTH 16 0
BBX 16 16 0 -2
BITMAP
0018
01f0
7f00
0104
210c
3118
1110
0100
ffff
0100
0100
0100
0100
0100
0100
0700
ENDCHAR
STARTCHAR ch-79
ENCODING 79
SWIDTH 1000 0
DWIDTH 16 0
BBX 16 16 0 -2
BITMAP
0006
003c
3fe0
0080
0080
0080
7ffe
000c
0018
0030
0060
01c0
0700
3c00
e780
00ff
ENDCHAR
STARTCHAR ch-85
ENCODING 85
SWIDTH 1000 0
DWIDTH 16 0
BBX 16 16 0 -2
BITMAP
000e
0078
3fc0
2040
3fff
2040
2040
3fff
2040
2040
2ffe
6842
4842
c842
084e
0040
ENDCHAR
STARTCHAR ch-86
ENCODING 86
SWIDTH 1000 0
DWIDTH 16 0
BBX 16 16 0 -2
BITMAP
0018
01f0
3f00
0100
0100
ffff
0100
0920
0926
f93c
0920
0921
3933
e91e
0100
0100
ENDCHAR
STARTCHAR ch-87
ENCODING 87
SWIDTH 1000 0
DWIDTH 16 0
BBX 16 16 0 -2
BITMAP
0038
3fe0
0100
7ffe
1108
1108
ffff
1108
1108
7ffe
0520
0d30
1918
310c
e107
0100
ENDCHAR
STARTCHAR ch-88
ENCODING 88
SWIDTH 1000 0
DWIDTH 16 0
BBX 16 16 0 -2
BITMAP
0018
01f0
3f00
0100
ffff
0100
0926
f93c
0921
3933
eb9e
0540
0d30
391c
e107
0100
ENDCHAR
STARTCHAR ch-89
ENCODING 89
SWIDTH 1000 0
DWIDTH 16 0
BBX 16 16 0 -2
BITMAP
0000
7ff8
0030
0060
00c0
0180
0300
0600
0c00
1800
3002
6002
4006
6004
3ffc
0000
ENDCHAR
STARTCHAR ch-93
ENCODING 93
SWIDTH 1000 0
DWIDTH 16 0
BBX 16 16 0 -2
BITMAP
0400
0400
0400
0400
ffe0
0420
0420
0420
0420
0420
0420
0c20
0820
1821
3033
e01e
ENDCHAR
STARTCHAR ch-94
ENCODING 94
SWIDTH 1000 0
DWIDTH 16 0
BBX 16 16 0 -2
BITMAP
0400
0c00
0800
1ffe
3000
6000
dff8
0060
0180
0700
0c00
1800
3000
2002
3006
1ffc
ENDCHAR
STARTCHAR ch-95
ENCODING 95
SWIDTH 1000 0
DWIDTH 16 0
BBX 16 16 0 -2
BITMAP
0080
1080
1080
109c
10f4
1784
1c84
f084
1084
1084
109c
1080
1001
1803
0ffe
0000
ENDCHAR
STARTCHAR ch-98
ENCODING 98
SWIDTH 1000 0
DWIDTH 16 0
BBX 16 16 0 -2
BITMAP
1040
1040
1040
9240
9240
9240
9240
9240
9240
9240
9240
9240
9240
fe41
0063
003e
ENDCHAR
STARTCHAR ch-113
ENCODING 113
SWIDTH 1000 0
DWIDTH 16 0
BBX 16 16 0 -2
BITMAP
0320
0e20
7820
0820
0820
0820
ffa0
0820
0820
0820
7f20
4120
4120
4121
4133
7f1e
ENDCHAR
STARTCHAR ch-115
ENCODING 115
SWIDTH 1000 0
DWIDTH 16 0
BBX 16 16 0 -2
BITMAP
01a0
0f20
f8a0
49a0
2520
0020
7f20
0220
0420
0820
0fa0
f820
0820
0821
0833
381e
ENDCHAR
STARTCHAR ch-126
ENCODING 126
SWIDTH 1000 0
DWIDTH 16 0
BBX 16 16 0 -2
BITMAP
1040
1040
fe40
10ff
7d80
4700
44fe
7c0c
4418
4430
7c60
1040
fec0
1081
10c3
107e
ENDCHAR
STARTCHAR ch-128
ENCODING 128
SWIDTH 1000 0
DWIDTH 16 0
BBX 16 16 0 -2
BITMAP
0400
0fe0
1040
3ff8
d108
1ff8
1108
1ff8
0100
3ffc
2104
3ffc
2104
3ffd
0101
00ff
ENDCHAR
STARTCHAR ch-130
ENCODING 130
SWIDTH 1000 0
DWIDTH 16 0
BBX 16 16 0 -2
BITMAP
0390
fe10
4890
2510
7f90
1110
0a10
7f90
4890
5290
5d90
4090
7e90
5291
4c93
528e
ENDCHAR
STARTCHAR ch-133
ENCODING 133
SWIDTH 1000 0
DWIDTH 16 0
BBX 16 16 0 -2
BITMAP
0100
0100
0100
0100
0100
0100
0100
0100
0100
0100
0100
0100
0100
0100
0100
0700
ENDCHAR
STARTCHAR ch-134
ENCODING 134
SWIDTH 1000 0
DWIDTH 16 0
BBX 16 16 0 -2
BITMAP
0000
7ffe
000c
0030
0060
0180
0100
0100
0100
0100
0100
0100
0100
0100
0100
0700
ENDCHAR
STARTCHAR ch-136
ENCODING 136
SWIDTH 1000 0
DWIDTH 16 0
BBX 16 16 0 -2
BITMAP
0000
1ff8
0010
0620
0340
0180
ffff
0081
0082
0084
0080
0080
0080
0080
0080
0380
ENDCHAR
STARTCHAR ch-137
ENCODING 137
SWIDTH 1000 0
DWIDTH 16 0
BBX 16 16 0 -2
BITMAP
0400
0ff0
1860
30c0
e180
3ffc
0104
0104
ffff
0104
0104
3ffc
0100
0100
0100
0700
ENDCHAR
STARTCHAR ch-138
ENCODING 138
SWIDTH 1000 0
DWIDTH 16 0
BBX 16 16 0 -2
BITMAP
0100
0100
7ffe
1108
1918
0910
3ffc
0104
0104
ffff
0104
0104
3ffc
0100
0100
0700
ENDCHAR
STARTCHAR ch-139
ENCODING 139
SWIDTH 1000 0
DWIDTH 16 0
BBX 16 16 0 -2
BITMAP
0100
0100
ffff
0100
3ffc
2104
3ffc
0100
3ffc
0104
ffff
0104
3ffc
0100
0100
0700
ENDCHAR
STARTCHAR ch-140
ENCODING 140
SWIDTH 1000 0
DWIDTH 16 0
BBX 16 16 0 -2
BITMAP
0000
0000
3ffc
0000
0000
0000
0000
0000
0000
0000
0000
0000
0000
ffff
0000
0000
ENDCHAR
STARTCHAR ch-142
ENCODING 142
SWIDTH 1000 0
DWIDTH 16 0
BBX 16 16 0 -2
BITMAP
0000
3ffc
0100
0100
0100
0100
0100
ffff
0100
0100
0100
0100
0100
0100
0100
0700
ENDCHAR
STARTCHAR ch-145
ENCODING 145
SWIDTH 1000 0
DWIDTH 16 0
BBX 16 16 0 -2
BITMAP
0000
0000
3ffc
0000
0000
0000
ffff
0400
0400
0410
0c18
0808
08fc
1f84
7006
0000
ENDCHAR
STARTCHAR ch-146
ENCODING 146
SWIDTH 1000 0
DWIDTH 16 0
BBX 16 16 0 -2
BITMAP
0000
7ffe
0400
0400
0400
0ff0
0810
0810
1810
1010
1ff0
0020
0020
0020
ffff
0000
ENDCHAR
STARTCHAR ch-148
ENCODING 148
SWIDTH 1000 0
DWIDTH 16 0
BBX 16 16 0 -2
BITMAP
0000
7ffe
0200
0200
0200
0200
3ff0
0410
0410
0410
0410
0c10
0810
0810
ffff
0000
ENDCHAR
STARTCHAR ch-149
ENCODING 149
SWIDTH 1000 0
DWIDTH 16 0
BBX 16 16 0 -2
BITMAP
0420
0420
0420
0420
7ffe
0420
0420
0420
0420
ffff
0420
0420
0c20
0820
1820
3020
ENDCHAR
STARTCHAR ch-153
ENCODING 153
SWIDTH 1000 0
DWIDTH 16 0
BBX 16 16 0 -2
BITMAP
0000
7ffe
0400
0400
07f0
0410
0d90
08d0
0810
0b30
19a0
1020
0020
0020
ffff
0000
ENDCHAR
STARTCHAR ch-155
ENCODING 155
SWIDTH 1000 0
DWIDTH 16 0
BBX 16 16 0 -2
BITMAP
0840
0840
4846
4f7c
4840
4840
4841
4f63
783e
c000
0000
3ffc
0000
0000
ffff
0000
ENDCHAR
STARTCHAR ch-156
ENCODING 156
SWIDTH 1000 0
DWIDTH 16 0
BBX 16 16 0 -2
BITMAP
0000
7ffe
0440
0440
0440
3ffc
2444
2444
2444
2444
3ffc
0440
0440
0440
ffff
0000
ENDCHAR
STARTCHAR ch-157
ENCODING 157
SWIDTH 1000 0
DWIDTH 16 0
BBX 16 16 0 -2
BITMAP
0000
7ffe
0000
0000
1ff8
1008
1008
1ff8
1008
1008
1008
1ff8
0000
0000
ffff
0000
ENDCHAR
STARTCHAR ch-158
ENCODING 158
SWIDTH 1000 0
DWIDTH 16 0
BBX 16 16 0 -2
BITMAP
0000
ffff
0420
0420
0420
7c3e
4002
4002
4002
4002
7c3e
0420
0420
0420
ffff
0000
ENDCHAR
STARTCHAR ch-159
ENCODING 159
SWIDTH 1000 0
DWIDTH 16 0
BBX 16 16 0 -2
BITMAP
0000
7ffe
0200
0400
0780
00fe
7ca2
44b6
449c
4488
7d9c
0136
0763
0000
ffff
0000
ENDCHAR
STARTCHAR ch-160
ENCODING 160
SWIDTH 1000 0
DWIDTH 16 0
BBX 16 16 0 -2
BITMAP
0000
0000
0000
0000
0100
0100
0100
0100
ffff
0000
0000
0000
0000
0000
0000
0000
ENDCHAR
STARTCHAR ch-161
ENCODING 161
SWIDTH 1000 0
DWIDTH 16 0
BBX 16 16 0 -2
BITMAP
0100
0100
0100
ffff
1000
1000
1000
1000
1000
1000
1000
1000
1000
1800
0ffe
0000
ENDCHAR
STARTCHAR ch-162
ENCODING 162
SWIDTH 1000 0
DWIDTH 16 0
BBX 16 16 0 -2
BITMAP
0100
0100
0100
ffff
0000
0000
0fe0
0820
0820
0820
0820
0820
1820
1021
3033
e01e
ENDCHAR
STARTCHAR ch-164
ENCODING 164
SWIDTH 1000 0
DWIDTH 16 0
BBX 16 16 0 -2
BITMAP
0100
0100
0100
ffff
0810
1818
300c
6816
0c30
0660
03c0
0180
03c0
0e70
381c
e007
ENDCHAR
STARTCHAR ch-165
ENCODING 165
SWIDTH 1000 0
DWIDTH 16 0
BBX 16 16 0 -2
BITMAP
0100
0100
0100
ffff
0100
0320
3660
18c8
0d98
0330
0660
1cc0
71b0
0718
1c0c
7006
ENDCHAR
STARTCHAR ch-166
ENCODING 166
SWIDTH 1000 0
DWIDTH 16 0
BBX 16 16 0 -2
BITMAP
0100
0100
0100
ffff
0420
0420
2424
2424
6426
4422
c423
0c20
0820
1820
3020
60e0
ENDCHAR
STARTCHAR ch-168
ENCODING 168
SWIDTH 1000 0
DWIDTH 16 0
BBX 16 16 0 -2
BITMAP
0100
0100
ffff
0000
1ff8
1008
1ff8
0000
7ffe
000c
0030
01c0
0100
0100
0100
0700
ENDCHAR
STARTCHAR ch-171
ENCODING 171
SWIDTH 1000 0
DWIDTH 16 0
BBX 16 16 0 -2
BITMAP
0100
0100
ffff
0000
1ff8
1008
1ff8
0000
3ffc
0018
0060
0180
ffff
0100
0100
0700
ENDCHAR
STARTCHAR ch-172
ENCODING 172
SWIDTH 1000 0
DWIDTH 16 0
BBX 16 16 0 -2
BITMAP
0100
0100
0100
ffff
0000
1ff8
1008
1008
1008
1ff8
0100
0910
1918
310c
e107
0700
ENDCHAR
STARTCHAR ch-173
ENCODING 173
SWIDTH 1000 0
DWIDTH 16 0
BBX 16 16 0 -2
BITMAP
0100
0100
ffff
0000
1ff8
1008
1ff8
0000
ffff
8001
9ff9
0100
0100
0100
0100
0700
ENDCHAR
STARTCHAR ch-174
ENCODING 174
SWIDTH 1000 0
DWIDTH 16 0
BBX 16 16 0 -2
BITMAP
0100
0100
ffff
0000
0ff0
0810
0ff0
0000
7ffe
4002
4422
0420
0420
0c21
3833
e01e
ENDCHAR
STARTCHAR ch-176
ENCODING 176
SWIDTH 1000 0
DWIDTH 16 0
BBX 16 16 0 -2
BITMAP
0100
0100
ffff
0000
1ff8
1008
1008
1ff8
1008
1008
1ff8
0100
1108
310c
e107
0700
ENDCHAR
STARTCHAR ch-179
ENCODING 179
SWIDTH 1000 0
DWIDTH 16 0
BBX 16 16 0 -2
BITMAP
0100
7ffe
0000
1ff8
1008
1ff8
0000
7ffe
4002
41f2
1f00
0100
fffe
0101
0183
00fe
ENDCHAR
STARTCHAR ch-182
ENCODING 182
SWIDTH 1000 0
DWIDTH 16 0
BBX 16 16 0 -2
BITMAP
0100
ffff
0000
3ffc
2004
27e4
2424
27e4
2004
3ffc
1008
1ff8
1008
1ff8
1008
ffff
ENDCHAR
STARTCHAR ch-186
ENCODING 186
SWIDTH 1000 0
DWIDTH 16 0
BBX 16 16 0 -2
BITMAP
0100
0100
0100
0100
0100
0100
0380
0280
02c0
0640
0460
0c30
1818
300c
6006
c003
ENDCHAR
STARTCHAR ch-192
ENCODING 192
SWIDTH 1000 0
DWIDTH 16 0
BBX 16 16 0 -2
BITMAP
0820
0820
1820
1020
3020
2020
67ff
a020
2020
2020
2020
2020
2020
2020
2020
2020
ENDCHAR
STARTCHAR ch-193
ENCODING 193
SWIDTH 1000 0
DWIDTH 16 0
BBX 16 16 0 -2
BITMAP
0800
0800
1800
13fe
3000
2000
6000
a000
2000
2000
2000
2000
2000
27ff
2000
2000
ENDCHAR
STARTCHAR ch-194
ENCODING 194
SWIDTH 1000 0
DWIDTH 16 0
BBX 16 16 0 -2
BITMAP
0840
0840
1840
1040
37fe
2042
6042
a042
2042
20c2
2082
2082
2182
2106
2304
261c
ENDCHAR
STARTCHAR ch-196
ENCODING 196
SWIDTH 1000 0
DWIDTH 16 0
BBX 16 16 0 -2
BITMAP
0000
3fff
2000
2040
2040
2040
2040
2040
20e0
20a0
20a0
21b0
6110
4318
c60c
1c07
ENDCHAR
STARTCHAR ch-198
ENCODING 198
SWIDTH 1000 0
DWIDTH 16 0
BBX 16 16 0 -2
BITMAP
0420
0420
0c20
0820
1820
3020
7038
d02e
1023
1020
1020
1020
1020
1020
1020
1020
ENDCHAR
STARTCHAR ch-199
ENCODING 199
SWIDTH 1000 0
DWIDTH 16 0
BBX 16 16 0 -2
BITMAP
0880
0880
1880
1080
37f8
2088
6088
a088
2088
2088
2088
2188
2108
2309
2609
2c07
ENDCHAR
STARTCHAR ch-202
ENCODING 202
SWIDTH 1000 0
DWIDTH 16 0
BBX 16 16 0 -2
BITMAP
0100
0380
0280
06c0
0c60
1830
37dc
e007
0000
1ff0
0010
0030
0020
0060
00c0
0080
ENDCHAR
STARTCHAR ch-203
ENCODING 203
SWIDTH 1000 0
DWIDTH 16 0
BBX 16 16 0 -2
BITMAP
0100
0380
06c0
0c60
1830
381c
e817
0810
0810
0810
0810
0810
1810
1010
3010
6010
ENDCHAR
STARTCHAR ch-205
ENCODING 205
SWIDTH 1000 0
DWIDTH 16 0
BBX 16 16 0 -2
BITMAP
0800
0ff8
1908
1108
3108
2108
6108
a10f
2101
2101
2101
2301
2203
2202
2602
2c0e
ENDCHAR
STARTCHAR ch-206
ENCODING 206
SWIDTH 1000 0
DWIDTH 16 0
BBX 16 16 0 -2
BITMAP
0810
0810
0810
0810
0810
0810
0810
0810
1c10
1438
1628
3228
236c
6144
c0c6
0183
ENDCHAR
STARTCHAR ch-207
ENCODING 207
SWIDTH 1000 0
DWIDTH 16 0
BBX 16 16 0 -2
BITMAP
0840
0840
1840
1040
30c0
2080
6080
a080
2080
2084
2184
2106
2102
213e
23e3
2601
ENDCHAR
STARTCHAR ch-212
ENCODING 212
SWIDTH 1000 0
DWIDTH 16 0
BBX 16 16 0 -2
BITMAP
0800
0bfe
180c
1018
3020
2020
6020
a7ff
2020
2020
2020
2020
2020
2020
2020
20e0
ENDCHAR
STARTCHAR ch-213
ENCODING 213
SWIDTH 1000 0
DWIDTH 16 0
BBX 16 16 0 -2
BITMAP
0840
0840
1840
1040
3040
2fff
6040
a040
2040
2040
2040
2040
2040
2040
27fe
2000
ENDCHAR
STARTCHAR ch-214
ENCODING 214
SWIDTH 1000 0
DWIDTH 16 0
BBX 16 16 0 -2
BITMAP
0820
0820
1a20
122e
323a
22e2
63a2
ae22
2222
2226
2220
2220
2200
2201
2303
21fe
ENDCHAR
STARTCHAR ch-215
ENCODING 215
SWIDTH 1000 0
DWIDTH 16 0
BBX 16 16 0 -2
BITMAP
0820
0820
1820
1020
37ff
2020
6220
a320
21a0
20e0
2040
20e0
20b0
2198
230c
2607
ENDCHAR
STARTCHAR ch-216
ENCODING 216
SWIDTH 1000 0
DWIDTH 16 0
BBX 16 16 0 -2
BITMAP
0808
0808
1808
1008
37ff
2008
6008
a308
2188
2088
2008
2008
2008
2008
2008
2038
ENDCHAR
STARTCHAR ch-217
ENCODING 217
SWIDTH 1000 0
DWIDTH 16 0
BBX 16 16 0 -2
BITMAP
0820
0820
1820
1020
3222
2222
6222
a222
2222
2222
2222
2222
2222
2222
23fe
2000
ENDCHAR
STARTCHAR ch-221
ENCODING 221
SWIDTH 1000 0
DWIDTH 16 0
BBX 16 16 0 -2
BITMAP
0100
0380
06c0
0c60
1830
301c
e007
0000
3ffc
0100
0100
0100
0100
0100
ffff
0000
ENDCHAR
STARTCHAR ch-222
ENCODING 222
SWIDTH 1000 0
DWIDTH 16 0
BBX 16 16 0 -2
BITMAP
0800
0bfe
1842
1042
3042
2042
6342
a1c2
20c2
20e2
20b2
2092
2186
2104
2304
261c
ENDCHAR
STARTCHAR ch-223
ENCODING 223
SWIDTH 1000 0
DWIDTH 16 0
BBX 16 16 0 -2
BITMAP
0806
083c
1be0
1020
3020
2020
6020
a7ff
2020
2020
2020
2020
2020
2020
2020
2020
ENDCHAR
STARTCHAR ch-227
ENCODING 227
SWIDTH 1000 0
DWIDTH 16 0
BBX 16 16 0 -2
BITMAP
0820
082c
1826
1022
3020
27ff
6020
a020
2030
2010
2010
2018
2008
200d
2007
2002
ENDCHAR
STARTCHAR ch-228
ENCODING 228
SWIDTH 1000 0
DWIDTH 16 0
BBX 16 16 0 -2
BITMAP
0100
0380
06c0
0c60
1830
301c
efe7
0000
0000
7ffc
0104
0104
0104
011c
0100
0100
ENDCHAR
STARTCHAR ch-229
ENCODING 229
SWIDTH 1000 0
DWIDTH 16 0
BBX 16 16 0 -2
BITMAP
0000
2004
2004
2004
2604
2304
2184
2084
200c
2008
2008
201c
2e36
3862
e0c3
0381
ENDCHAR
STARTCHAR ch-237
ENCODING 237
SWIDTH 1000 0
DWIDTH 16 0
BBX 16 16 0 -2
BITMAP
0800
0bfc
1844
1044
3044
2244
6344
a1c4
20c4
20e4
20b4
209c
218e
210b
2308
2638
ENDCHAR
STARTCHAR ch-238
ENCODING 238
SWIDTH 1000 0
DWIDTH 16 0
BBX 16 16 0 -2
BITMAP
0800
0bfe
1a00
1200
3200
23fc
6284
a28c
22c8
2258
2270
2620
2470
2cd8
218c
2307
ENDCHAR
STARTCHAR ch-240
ENCODING 240
SWIDTH 1000 0
DWIDTH 16 0
BBX 16 16 0 -2
BITMAP
10c0
1180
373f
2421
2421
6421
6421
a421
2421
2421
2421
25a1
2727
2c20
2020
2020
ENDCHAR
STARTCHAR ch-242
ENCODING 242
SWIDTH 1000 0
DWIDTH 16 0
BBX 16 16 0 -2
BITMAP
0820
0820
1820
1020
37ff
2421
6421
a421
2421
2421
27ff
2020
2020
2020
2020
2020
ENDCHAR
STARTCHAR ch-246
ENCODING 246
SWIDTH 1000 0
DWIDTH 16 0
BBX 16 16 0 -2
BITMAP
0820
0920
1920
1120
33fe
2220
6620
a020
2020
27ff
2020
2020
2020
2020
2020
2020
ENDCHAR
STARTCHAR ch-247
ENCODING 247
SWIDTH 1000 0
DWIDTH 16 0
BBX 16 16 0 -2
BITMAP
0820
0870
1850
10d8
318c
238e
668b
a088
2088
2088
2088
2088
2188
2108
2308
2608
ENDCHAR
STARTCHAR ch-251
ENCODING 251
SWIDTH 1000 0
DWIDTH 16 0
BBX 16 16 0 -2
BITMAP
0806
083c
1be0
1020
3020
2020
6020
a7ff
2020
2020
2020
2020
2020
2020
23fe
2000
ENDCHAR
STARTCHAR ch-257
ENCODING 257
SWIDTH 1000 0
DWIDTH 16 0
BBX 16 16 0 -2
BITMAP
0100
0380
02c0
0660
0c30
189c
3087
e880
08f8
0880
0880
0880
0880
0880
ffff
0000
ENDCHAR
STARTCHAR ch-265
ENCODING 265
SWIDTH 1000 0
DWIDTH 16 0
BBX 16 16 0 -2
BITMAP
0820
0820
1820
17ff
3000
2000
60f8
a088
2088
2088
2088
2088
2188
2109
2309
2607
ENDCHAR
STARTCHAR ch-266
ENCODING 266
SWIDTH 1000 0
DWIDTH 16 0
BBX 16 16 0 -2
BITMAP
0800
0bfe
1822
1022
3022
27ff
6022
a022
2022
23fe
2020
2020
2060
2040
20c0
2180
ENDCHAR
STARTCHAR ch-269
ENCODING 269
SWIDTH 1000 0
DWIDTH 16 0
BBX 16 16 0 -2
BITMAP
1000
17fe
3040
2040
2040
6040
63f8
a088
2088
2088
2088
2188
2108
2108
2fff
2000
ENDCHAR
STARTCHAR ch-270
ENCODING 270
SWIDTH 1000 0
DWIDTH 16 0
BBX 16 16 0 -2
BITMAP
0820
0820
1820
17ff
3020
3020
53fc
9104
118c
10d8
1070
1020
1070
10d8
118c
1707
ENDCHAR
STARTCHAR ch-271
ENCODING 271
SWIDTH 1000 0
DWIDTH 16 0
BBX 16 16 0 -2
BITMAP
0840
084c
1846
1042
3040
2fff
6040
a040
20e0
20a0
20b0
2190
2118
230c
2606
2c03
ENDCHAR
STARTCHAR ch-272
ENCODING 272
SWIDTH 1000 0
DWIDTH 16 0
BBX 16 16 0 -2
BITMAP
088c
0886
1882
1080
3fff
2080
6084
a0cc
2058
2070
2020
2070
20d1
239b
2e0e
2004
ENDCHAR
STARTCHAR ch-273
ENCODING 273
SWIDTH 1000 0
DWIDTH 16 0
BBX 16 16 0 -2
BITMAP
0840
0840
1840
1040
3fff
2150
6150
a150
2358
2248
264c
2c46
3843
2040
2040
2040
ENDCHAR
STARTCHAR ch-282
ENCODING 282
SWIDTH 1000 0
DWIDTH 16 0
BBX 16 16 0 -2
BITMAP
0100
0380
06c0
0c70
381c
e007
1ff8
0000
0000
ffff
0400
0410
0c10
08f8
1f8c
7006
ENDCHAR
STARTCHAR ch-284
ENCODING 284
SWIDTH 1000 0
DWIDTH 16 0
BBX 16 16 0 -2
BITMAP
0880
0880
1bf8
1088
3088
2189
6309
a607
2020
2020
27ff
2020
2020
2020
2020
2020
ENDCHAR
STARTCHAR ch-285
ENCODING 285
SWIDTH 1000 0
DWIDTH 16 0
BBX 16 16 0 -2
BITMAP
0800
0bfe
1800
1000
3000
2000
67ff
a080
2080
2080
2188
210c
2104
213e
23e3
2601
ENDCHAR
STARTCHAR ch-303
ENCODING 303
SWIDTH 1000 0
DWIDTH 16 0
BBX 16 16 0 -2
BITMAP
0820
0860
1840
13fe
3202
2202
6202
a202
23fe
2202
2202
2202
2202
2202
23fe
2000
ENDCHAR
STARTCHAR ch-304
ENCODING 304
SWIDTH 1000 0
DWIDTH 16 0
BBX 16 16 0 -2
BITMAP
0820
0820
1820
1020
37ff
2020
6020
a020
2020
23fe
2202
2202
2202
2202
2202
23fe
ENDCHAR
STARTCHAR ch-308
ENCODING 308
SWIDTH 1000 0
DWIDTH 16 0
BBX 16 16 0 -2
BITMAP
0820
0a22
1b26
1124
3020
23fe
6020
a020
2020
27ff
2020
2020
2020
2020
2020
2020
ENDCHAR
STARTCHAR ch-310
ENCODING 310
SWIDTH 1000 0
DWIDTH 16 0
BBX 16 16 0 -2
BITMAP
0840
08e0
19b0
1318
360c
2df7
6000
a000
27fe
2042
2042
2042
2042
204e
2040
2040
ENDCHAR
STARTCHAR ch-312
ENCODING 312
SWIDTH 1000 0
DWIDTH 16 0
BBX 16 16 0 -2
BITMAP
0820
0820
1820
17ff
3421
2421
6421
a7ff
2421
2421
2421
27ff
2020
2020
2020
2020
ENDCHAR
STARTCHAR ch-314
ENCODING 314
SWIDTH 1000 0
DWIDTH 16 0
BBX 16 16 0 -2
BITMAP
0800
0ffe
1802
1002
33f2
2002
6002
a3f2
2212
2212
2212
23f2
2002
2002
2002
200e
ENDCHAR
STARTCHAR ch-316
ENCODING 316
SWIDTH 1000 0
DWIDTH 16 0
BBX 16 16 0 -2
BITMAP
0804
0a04
1a04
1204
32c4
2264
6224
a204
2204
220c
2208
2208
22dc
2396
2e33
2061
ENDCHAR
STARTCHAR ch-317
ENCODING 317
SWIDTH 1000 0
DWIDTH 16 0
BBX 16 16 0 -2
BITMAP
1200
1200
121e
3212
2fd2
6252
6252
a252
2252
2252
2252
2652
2452
24d2
2c9e
2980
ENDCHAR
STARTCHAR ch-323
ENCODING 323
SWIDTH 1000 0
DWIDTH 16 0
BBX 16 16 0 -2
BITMAP
0800
0bfe
1a22
1222
3222
2222
6222
a3fe
2222
2222
2222
2222
2222
2222
23fe
2000
ENDCHAR
STARTCHAR ch-326
ENCODING 326
SWIDTH 1000 0
DWIDTH 16 0
BBX 16 16 0 -2
BITMAP
0800
09fc
1904
1104
3104
2104
61fc
a104
2104
2104
2104
21fc
2000
2000
27ff
2000
ENDCHAR
STARTCHAR ch-327
ENCODING 327
SWIDTH 1000 0
DWIDTH 16 0
BBX 16 16 0 -2
BITMAP
0820
0820
1bfe
1202
3202
2000
67ff
a020
2020
2020
2020
2020
2020
2020
2020
20e0
ENDCHAR
STARTCHAR ch-333
ENCODING 333
SWIDTH 1000 0
DWIDTH 16 0
BBX 16 16 0 -2
BITMAP
0820
0820
1820
13fe
3000
2000
6104
a104
218c
2088
2088
2098
2010
2010
27ff
2000
ENDCHAR
STARTCHAR ch-334
ENCODING 334
SWIDTH 1000 0
DWIDTH 16 0
BBX 16 16 0 -2
BITMAP
0806
081c
1bf0
1210
3210
2210
63ff
a210
2210
2218
2208
2388
2e0c
2005
2ff7
2002
ENDCHAR
STARTCHAR ch-335
ENCODING 335
SWIDTH 1000 0
DWIDTH 16 0
BBX 16 16 0 -2
BITMAP
08c0
0860
1820
13fe
3020
2020
6020
a020
23fe
2020
2020
2020
2020
2020
27ff
2000
ENDCHAR
STARTCHAR ch-336
ENCODING 336
SWIDTH 1000 0
DWIDTH 16 0
BBX 16 16 0 -2
BITMAP
0840
0840
1840
17ff
3080
2080
6180
a100
23fe
2620
2c20
2020
2020
2020
27ff
2000
ENDCHAR
STARTCHAR ch-337
ENCODING 337
SWIDTH 1000 0
DWIDTH 16 0
BBX 16 16 0 -2
BITMAP
0840
0840
1840
17ff
3080
2080
6180
a100
23fe
2702
2d02
2102
2102
2102
2102
21fe
ENDCHAR
STARTCHAR ch-339
ENCODING 339
SWIDTH 1000 0
DWIDTH 16 0
BBX 16 16 0 -2
BITMAP
1040
1040
1040
3040
2fff
2150
6150
a158
2348
224c
2244
2646
2dfb
2040
2040
2040
ENDCHAR
STARTCHAR ch-341
ENCODING 341
SWIDTH 1000 0
DWIDTH 16 0
BBX 16 16 0 -2
BITMAP
0800
0800
1fff
1004
3004
23c4
6244
a244
2244
2244
2244
23c4
2004
2004
2004
201c
ENDCHAR
STARTCHAR ch-343
ENCODING 343
SWIDTH 1000 0
DWIDTH 16 0
BBX 16 16 0 -2
BITMAP
0820
0820
1820
17ff
3401
2401
6080
a086
209c
20f0
2080
2080
2080
2081
20c3
207e
ENDCHAR
STARTCHAR ch-345
ENCODING 345
SWIDTH 1000 0
DWIDTH 16 0
BBX 16 16 0 -2
BITMAP
0100
0380
06c0
0c70
381c
e007
1ff0
0100
0100
7ffe
0100
1108
1108
310c
6106
0700
ENDCHAR
STARTCHAR ch-346
ENCODING 346
SWIDTH 1000 0
DWIDTH 16 0
BBX 16 16 0 -2
BITMAP
0820
0920
1920
1120
33fe
2220
6620
a020
27ff
2050
2050
20d8
2088
218c
2306
2603
ENDCHAR
STARTCHAR ch-347
ENCODING 347
SWIDTH 1000 0
DWIDTH 16 0
BBX 16 16 0 -2
BITMAP
0890
0890
1ffe
1092
3092
27fe
6490
a490
27ff
2091
2091
2093
2192
2116
2310
2610
ENDCHAR
STARTCHAR ch-348
ENCODING 348
SWIDTH 1000 0
DWIDTH 16 0
BBX 16 16 0 -2
BITMAP
0880
0880
1880
11ff
3120
2320
6620
a03e
2020
2020
2020
203e
2020
2020
2020
2020
ENDCHAR
STARTCHAR ch-349
ENCODING 349
SWIDTH 1000 0
DWIDTH 16 0
BBX 16 16 0 -2
BITMAP
0900
0900
1900
13fe
3202
2602
61f2
a112
2112
2112
2112
21f2
2002
2006
2004
201c
ENDCHAR
STARTCHAR ch-350
ENCODING 350
SWIDTH 1000 0
DWIDTH 16 0
BBX 16 16 0 -2
BITMAP
0800
0bfe
1800
1000
3000
27ff
6040
a040
27ff
2084
2184
210c
23c8
2078
21ce
2703
ENDCHAR
STARTCHAR ch-361
ENCODING 361
SWIDTH 1000 0
DWIDTH 16 0
BBX 16 16 0 -2
BITMAP
1000
17fc
1404
3404
25f4
6444
6444
a5f4
2554
2554
2554
2554
2574
2445
2445
2843
ENDCHAR
STARTCHAR ch-367
ENCODING 367
SWIDTH 1000 0
DWIDTH 16 0
BBX 16 16 0 -2
BITMAP
0904
098c
1888
17ff
3020
2020
6020
a3fe
2020
2020
2020
27ff
2020
2020
2020
2020
ENDCHAR
STARTCHAR ch-368
ENCODING 368
SWIDTH 1000 0
DWIDTH 16 0
BBX 16 16 0 -2
BITMAP
0800
0fff
1820
1060
3040
23fe
6202
a202
2202
2202
23fe
2202
2202
2202
2202
23fe
ENDCHAR
STARTCHAR ch-371
ENCODING 371
SWIDTH 1000 0
DWIDTH 16 0
BBX 16 16 0 -2
BITMAP
0820
0820
1bfe
1020
3020
2020
67ff
a000
2020
2020
23fe
2020
2020
2020
27ff
2000
ENDCHAR
STARTCHAR ch-373
ENCODING 373
SWIDTH 1000 0
DWIDTH 16 0
BBX 16 16 0 -2
BITMAP
0904
098c
1888
13fe
3088
2088
6088
a088
27ff
2088
2088
2088
2188
2108
2308
2608
ENDCHAR
STARTCHAR ch-374
ENCODING 374
SWIDTH 1000 0
DWIDTH 16 0
BBX 16 16 0 -2
BITMAP
0820
0820
1820
17ff
3020
2020
6020
a3fe
2000
2000
21fc
2104
2104
2104
2104
21fc
ENDCHAR
STARTCHAR ch-379
ENCODING 379
SWIDTH 1000 0
DWIDTH 16 0
BBX 16 16 0 -2
BITMAP
0890
0890
1892
1496
3694
2290
6090
a090
209c
2396
2e93
2090
2190
2111
2313
260e
ENDCHAR
STARTCHAR ch-380
ENCODING 380
SWIDTH 1000 0
DWIDTH 16 0
BBX 16 16 0 -2
BITMAP
0820
0820
1820
17ff
3088
218c
6306
a68b
2088
20d8
2070
2020
2070
20d8
218c
2707
ENDCHAR
STARTCHAR ch-383
ENCODING 383
SWIDTH 1000 0
DWIDTH 16 0
BBX 16 16 0 -2
BITMAP
0820
0820
1fff
1020
33fe
2222
6222
a222
23fe
2020
2120
20e0
2040
20f0
219c
2707
ENDCHAR
STARTCHAR ch-387
ENCODING 387
SWIDTH 1000 0
DWIDTH 16 0
BBX 16 16 0 -2
BITMAP
0800
0bfe
1a02
1202
3202
23fe
6000
a124
2124
2124
2124
2124
2124
2325
2225
2603
ENDCHAR
STARTCHAR ch-390
ENCODING 390
SWIDTH 1000 0
DWIDTH 16 0
BBX 16 16 0 -2
BITMAP
0100
0100
ffff
0100
1110
1110
3938
6d6c
c106
0380
0540
0d60
1930
311c
e107
0100
ENDCHAR
STARTCHAR ch-392
ENCODING 392
SWIDTH 1000 0
DWIDTH 16 0
BBX 16 16 0 -2
BITMAP
0880
0880
18f8
1188
3318
26b0
6060
a1d0
271f
2031
2063
21d6
200c
2018
2070
23c0
ENDCHAR
STARTCHAR ch-395
ENCODING 395
SWIDTH 1000 0
DWIDTH 16 0
BBX 16 16 0 -2
BITMAP
1001
1fe9
1109
3109
2109
23c9
6249
6249
a749
2dc9
2089
2181
2101
2301
2601
2c07
ENDCHAR
STARTCHAR ch-397
ENCODING 397
SWIDTH 1000 0
DWIDTH 16 0
BBX 16 16 0 -2
BITMAP
0820
0820
1bfe
1020
3020
2020
67ff
a004
2004
27ff
2004
2184
20c4
2044
2004
201c
ENDCHAR
STARTCHAR ch-399
ENCODING 399
SWIDTH 1000 0
DWIDTH 16 0
BBX 16 16 0 -2
BITMAP
0820
0920
1920
13fe
3220
2620
6020
a7ff
20a8
20a8
20a8
21ac
2124
2326
2623
2020
ENDCHAR
STARTCHAR ch-401
ENCODING 401
SWIDTH 1000 0
DWIDTH 16 0
BBX 16 16 0 -2
BITMAP
0880
0880
1fff
1080
3080
21fe
6102
a302
27fe
2d02
2102
21fe
2102
2102
2102
210e
ENDCHAR
STARTCHAR ch-406
ENCODING 406
SWIDTH 1000 0
DWIDTH 16 0
BBX 16 16 0 -2
BITMAP
0100
0380
06c0
0c70
381c
e7e7
0000
0000
3ffc
2444
2444
3ffc
2444
2444
2444
244c
ENDCHAR
STARTCHAR ch-408
ENCODING 408
SWIDTH 1000 0
DWIDTH 16 0
BBX 16 16 0 -2
BITMAP
0820
0820
1bff
1201
320d
2038
63e0
a040
2040
27ff
2040
2040
2040
2041
2063
203e
ENDCHAR
STARTCHAR ch-411
ENCODING 411
SWIDTH 1000 0
DWIDTH 16 0
BBX 16 16 0 -2
BITMAP
1108
1108
3108
2108
27fe
6108
6108
a108
2108
2108
2fff
2000
2108
230c
2606
2c03
ENDCHAR
STARTCHAR ch-413
ENCODING 413
SWIDTH 1000 0
DWIDTH 16 0
BBX 16 16 0 -2
BITMAP
0820
0820
1820
17ff
3040
2040
60e2
a1a6
232c
2738
2d10
2118
2108
216c
21c6
2703
ENDCHAR
STARTCHAR ch-416
ENCODING 416
SWIDTH 1000 0
DWIDTH 16 0
BBX 16 16 0 -2
BITMAP
1040
1040
37fe
2040
2444
664c
6248
a248
2040
2fff
20a0
21b0
2118
230c
2606
2c03
ENDCHAR
STARTCHAR ch-417
ENCODING 417
SWIDTH 1000 0
DWIDTH 16 0
BBX 16 16 0 -2
BITMAP
0800
0800
1fff
1090
3090
2090
67fe
a492
2492
2492
2492
2492
2492
2492
27fe
2000
ENDCHAR
STARTCHAR ch-427
ENCODING 427
SWIDTH 1000 0
DWIDTH 16 0
BBX 16 16 0 -2
BITMAP
0820
0820
1fff
1100
3100
2100
60fe
a000
2040
27ff
2084
210c
23c8
2078
21ce
2703
ENDCHAR
STARTCHAR ch-429
ENCODING 429
SWIDTH 1000 0
DWIDTH 16 0
BBX 16 16 0 -2
BITMAP
0800
0bfc
1a04
1204
3204
23fc
6210
a218
2608
25cc
2c76
3813
2380
20e0
2038
2008
ENDCHAR
STARTCHAR ch-430
ENCODING 430
SWIDTH 1000 0
DWIDTH 16 0
BBX 16 16 0 -2
BITMAP
0900
0900
1bff
1200
3600
21fc
6124
a124
2124
2fff
2244
2244
2244
23ff
2008
2038
ENDCHAR
STARTCHAR ch-431
ENCODING 431
SWIDTH 1000 0
DWIDTH 16 0
BBX 16 16 0 -2
BITMAP
0800
0bf8
1808
1008
37ff
2100
6100
a3fc
2640
2040
2fff
20a0
20b0
2198
230c
2e07
ENDCHAR
STARTCHAR ch-437
ENCODING 437
SWIDTH 1000 0
DWIDTH 16 0
BBX 16 16 0 -2
BITMAP
0800
09fc
1804
11fc
3004
21fc
6000
a7ff
2401
25fd
2084
20cc
2058
2070
21dc
2707
ENDCHAR
STARTCHAR ch-438
ENCODING 438
SWIDTH 1000 0
DWIDTH 16 0
BBX 16 16 0 -2
BITMAP
0800
0bfc
1a04
1204
3204
2204
63fc
a040
20c0
2080
27fe
2402
2402
2402
2402
27fe
ENDCHAR
STARTCHAR ch-447
ENCODING 447
SWIDTH 1000 0
DWIDTH 16 0
BBX 16 16 0 -2
BITMAP
0800
0fff
1820
13fe
3222
2222
63fe
a222
2222
23fe
2020
2260
2140
20e0
21b8
270f
ENDCHAR
STARTCHAR ch-450
ENCODING 450
SWIDTH 1000 0
DWIDTH 16 0
BBX 16 16 0 -2
BITMAP
0806
083c
1fe0
1080
3188
2318
61b0
a062
20c2
2fff
2041
2248
224c
2646
2c43
2040
ENDCHAR
STARTCHAR ch-451
ENCODING 451
SWIDTH 1000 0
DWIDTH 16 0
BBX 16 16 0 -2
BITMAP
0800
0bfe
1a02
1202
3202
2202
63fe
a020
2020
2120
213e
2120
2320
22a0
2670
2c1f
ENDCHAR
STARTCHAR ch-452
ENCODING 452
SWIDTH 1000 0
DWIDTH 16 0
BBX 16 16 0 -2
BITMAP
10d4
1196
3712
2110
2110
6fff
6110
a112
2112
21d6
2f14
211c
2109
211d
2137
2762
ENDCHAR
STARTCHAR ch-458
ENCODING 458
SWIDTH 1000 0
DWIDTH 16 0
BBX 16 16 0 -2
BITMAP
0880
0984
1904
13fe
3092
2190
631f
a680
20fc
2184
230c
26d8
2070
20d8
218c
2707
ENDCHAR
STARTCHAR ch-462
ENCODING 462
SWIDTH 1000 0
DWIDTH 16 0
BBX 16 16 0 -2
BITMAP
1000
10fc
1084
3884
6c84
c6fc
0084
1084
1084
10fc
3884
6c84
c684
0084
03ff
0000
ENDCHAR
STARTCHAR ch-464
ENCODING 464
SWIDTH 1000 0
DWIDTH 16 0
BBX 16 16 0 -2
BITMAP
1042
11d2
3712
2112
6112
6fd2
a112
2112
2392
2352
2552
2512
2902
2102
2102
210e
ENDCHAR
STARTCHAR ch-465
ENCODING 465
SWIDTH 1000 0
DWIDTH 16 0
BBX 16 16 0 -2
BITMAP
0800
0bfc
1808
10d0
3020
23fe
6222
a222
23fe
2222
2222
23fe
2222
2222
2222
2226
ENDCHAR
STARTCHAR ch-468
ENCODING 468
SWIDTH 1000 0
DWIDTH 16 0
BBX 16 16 0 -2
BITMAP
0800
0bfc
1a04
1204
33fc
2204
6204
a3fc
2204
2204
23fc
2090
2090
2191
2313
2e0e
ENDCHAR
STARTCHAR ch-471
ENCODING 471
SWIDTH 1000 0
DWIDTH 16 0
BBX 16 16 0 -2
BITMAP
0888
098c
1b06
1623
3070
20d8
618c
a306
2603
2000
23fe
2202
2202
2202
2202
23fe
ENDCHAR
STARTCHAR ch-472
ENCODING 472
SWIDTH 1000 0
DWIDTH 16 0
BBX 16 16 0 -2
BITMAP
0806
083c
1fe2
1246
3124
2000
63fe
a00c
2018
2020
27ff
2020
2020
2020
2020
20e0
ENDCHAR
STARTCHAR ch-474
ENCODING 474
SWIDTH 1000 0
DWIDTH 16 0
BBX 16 16 0 -2
BITMAP
0800
0bfe
1a22
1222
33fe
2222
6222
a3fe
2020
2020
23fe
2020
2020
2020
27ff
2000
ENDCHAR
STARTCHAR ch-475
ENCODING 475
SWIDTH 1000 0
DWIDTH 16 0
BBX 16 16 0 -2
BITMAP
0900
09f8
1908
1318
3610
23fe
6222
a222
2222
23fe
2090
2090
2190
2111
2313
260e
ENDCHAR
STARTCHAR ch-477
ENCODING 477
SWIDTH 1000 0
DWIDTH 16 0
BBX 16 16 0 -2
BITMAP
0800
09fc
1904
1104
3104
21fc
6020
a020
27ff
20a8
20a8
21ac
2124
2326
2623
2020
ENDCHAR
STARTCHAR ch-479
ENCODING 479
SWIDTH 1000 0
DWIDTH 16 0
BBX 16 16 0 -2
BITMAP
0880
0884
1984
113e
33e3
2100
6100
a3fe
2620
2020
27ff
2050
20d8
218c
2306
2603
ENDCHAR
STARTCHAR ch-481
ENCODING 481
SWIDTH 1000 0
DWIDTH 16 0
BBX 16 16 0 -2
BITMAP
0800
09fc
1800
17ff
3000
21fc
6000
a000
21fc
2000
2000
23fe
2202
2202
2202
23fe
ENDCHAR
STARTCHAR ch-483
ENCODING 483
SWIDTH 1000 0
DWIDTH 16 0
BBX 16 16 0 -2
BITMAP
0800
09fc
1904
1104
3104
21fc
6000
a3fe
2020
2020
27ff
2050
20d8
218c
2306
2603
ENDCHAR
STARTCHAR ch-484
ENCODING 484
SWIDTH 1000 0
DWIDTH 16 0
BBX 16 16 0 -2
BITMAP
0904
098c
1888
17fe
3022
2022
67fe
a420
2420
27ff
2061
20a1
21a3
2322
2e2e
2020
ENDCHAR
STARTCHAR ch-485
ENCODING 485
SWIDTH 1000 0
DWIDTH 16 0
BBX 16 16 0 -2
BITMAP
0820
0820
1fff
1020
33fe
2222
6222
a3fe
2222
2222
23fe
2020
27ff
2020
2020
2020
ENDCHAR
STARTCHAR ch-494
ENCODING 494
SWIDTH 1000 0
DWIDTH 16 0
BBX 16 16 0 -2
BITMAP
0880
0880
19ff
1104
328c
28d8
6870
a9dc
2f07
2860
29cc
2838
29e3
280e
2078
23c0
ENDCHAR
STARTCHAR ch-495
ENCODING 495
SWIDTH 1000 0
DWIDTH 16 0
BBX 16 16 0 -2
BITMAP
1020
1020
17ff
3400
2444
6444
64bf
a484
25a4
2694
2494
2484
2484
2884
2084
209c
ENDCHAR
STARTCHAR ch-499
ENCODING 499
SWIDTH 1000 0
DWIDTH 16 0
BBX 16 16 0 -2
BITMAP
0888
0888
1888
178f
3088
2088
6088
a78f
2088
2088
2388
2e8f
2088
2188
2308
2608
ENDCHAR
STARTCHAR ch-501
ENCODING 501
SWIDTH 1000 0
DWIDTH 16 0
BBX 16 16 0 -2
BITMAP
0840
0840
1ffe
1040
37fe
2040
6040
afff
20a0
21a2
2336
2e14
2218
220c
23c6
2e03
ENDCHAR
STARTCHAR ch-502
ENCODING 502
SWIDTH 1000 0
DWIDTH 16 0
BBX 16 16 0 -2
BITMAP
1200
127e
13a2
3222
2222
6236
7fd4
a214
221c
2a88
2a88
325c
2214
2236
2622
2063
ENDCHAR
STARTCHAR ch-504
ENCODING 504
SWIDTH 1000 0
DWIDTH 16 0
BBX 16 16 0 -2
BITMAP
0820
0820
1fff
1020
33fe
2050
67ff
a088
2124
2623
21fc
2020
27ff
2020
2020
2020
ENDCHAR
STARTCHAR ch-506
ENCODING 506
SWIDTH 1000 0
DWIDTH 16 0
BBX 16 16 0 -2
BITMAP
1080
1080
3fff
2110
2150
6248
67fc
ac46
3445
27fc
2444
2444
27fc
2041
2063
203e
ENDCHAR
STARTCHAR ch-510
ENCODING 510
SWIDTH 1000 0
DWIDTH 16 0
BBX 16 16 0 -2
BITMAP
0820
0840
1bfe
1222
3222
23fe
6222
a222
23fe
2090
2110
2fff
2010
2010
2010
2010
ENDCHAR
ENDFONT
