STARTFONT 2.1
FONT jis.jis9400.24
SIZE 24 72 72
FONTBOUNDINGBOX 24 24 0 -3
STARTPROPERTIES 4
FONT_DESCENT 3
FONT_ASCENT 21
DEFAULT_CHAR 3
COPYRIGHT "Copyright (c) 1992 AT&T - All rights reserved."
ENDPROPERTIES
CHARS 74
STARTCHAR ch-3
ENCODING 3
SWIDTH 1000 0
DWIDTH 24 0
BBX 24 24 0 -3
BITMAP
0c00e0
0c00c0
1a0ffc
1980c0
10c0c0
30dffe
200000
43060c
7f8408
8c1f3e
0c0408
0c8408
ffc708
0c3c7f
0d1000
8dc000
4d9ffe
6d0630
6e0630
0c0632
0f8e32
fe0c33
70183f
40601e
ENDCHAR
STARTCHAR ch-7
ENCODING 7
SWIDTH 1000 0
DWIDTH 24 0
BBX 24 24 0 -3
BITMAP
0c0038
0c01fc
1a1f80
198188
10d18c
30c998
2009a2
433fff
7f83a0
8c0790
0c0d9c
0cb18f
ffc186
0c0000
0d1ffc
8dd88c
4d988c
6d188c
6e1ffc
0c188c
0f988c
fe188c
701ffc
40180c
ENDCHAR
STARTCHAR ch-16
ENCODING 16
SWIDTH 1000 0
DWIDTH 24 0
BBX 24 24 0 -3
BITMAP
0c01c0
0c0180
1a0186
19bfff
10c340
30c222
203623
431414
7f8818
8c1fff
0c2816
0c8810
ffcff0
0c0810
0d0810
8dcff0
4d8180
6d1190
6e1d88
0c198c
0fb186
fe2186
704f80
400300
ENDCHAR
STARTCHAR ch-19
ENCODING 19
SWIDTH 1000 0
DWIDTH 24 0
BBX 24 24 0 -3
BITMAP
181c40
181870
141860
12ff60
330060
230066
207e7f
444240
7e42c8
907e8e
10014c
12004c
ff7e4c
100628
140428
961838
561810
54fe10
587838
101828
1e186c
f8184f
607886
403106
ENDCHAR
STARTCHAR ch-20
ENCODING 20
SWIDTH 1000 0
DWIDTH 24 0
BBX 24 24 0 -3
BITMAP
0c0006
0c3fff
1a0120
198120
10dffe
30d926
201926
431926
7f9ffe
8c0000
0c0ffc
0c8c0c
ffcc0c
0c0ffc
0d0c0c
8dcc0c
4d8ffc
6d00c0
6e00c6
0c3fff
0f80c0
fe00c0
7000c0
4000c0
ENDCHAR
STARTCHAR ch-24
ENCODING 24
SWIDTH 1000 0
DWIDTH 24 0
BBX 24 24 0 -3
BITMAP
0600e0
0600c0
0d00c4
0cdffe
086410
186210
100222
21bfff
3fc000
460804
860ffe
06c8c4
7fe8c4
060ffc
4688c4
26e8c4
36cffc
3680c0
3700c4
061ffe
07c0c0
fe00c2
703fff
400000
ENDCHAR
STARTCHAR ch-25
ENCODING 25
SWIDTH 1000 0
DWIDTH 24 0
BBX 24 24 0 -3
BITMAP
0c0188
0c7f8c
0a0348
192352
199a23
118e22
300414
23081c
7f97ef
8c2006
0c4000
0d8818
ffcffc
0c0c18
0d0c18
8d8c18
4d0ff8
6e0020
6c0838
0cc630
0f0220
fc0046
707fff
400000
ENDCHAR
STARTCHAR ch-26
ENCODING 26
SWIDTH 1000 0
DWIDTH 24 0
BBX 24 24 0 -3
BITMAP
0c0000
0c000c
1a3ffe
198630
10c630
30c630
201e3c
43180c
7f980c
8c180c
0c1e3c
0c8630
ffc630
0c0632
0d3fff
8dc100
4d80c0
6d0648
6e1606
0c1613
0fb613
fe6618
7067f8
4003f0
ENDCHAR
STARTCHAR ch-33
ENCODING 33
SWIDTH 1000 0
DWIDTH 24 0
BBX 24 24 0 -3
BITMAP
181c70
181860
141868
121a66
337f63
231863
201860
441866
7effff
900060
107e64
124267
ff4266
104226
147e24
96002c
564428
542638
582412
10043a
1e0e6a
f8f8ce
606187
404603
ENDCHAR
STARTCHAR ch-43
ENCODING 43
SWIDTH 1000 0
DWIDTH 24 0
BBX 24 24 0 -3
BITMAP
0c0420
0c0630
1a0444
198ffe
10c840
30d840
202ffc
430840
7f8840
8c0ffc
0c0840
0c8842
ffcfff
0c0000
0d1126
8ddf3f
4d9926
6d1926
6e1926
0c19e6
0f9806
fe1806
70183e
40180c
ENDCHAR
STARTCHAR ch-53
ENCODING 53
SWIDTH 1000 0
DWIDTH 24 0
BBX 24 24 0 -3
BITMAP
181c70
181860
141a6c
127f66
331866
231860
201866
44ffff
7e0060
907e60
104264
124267
ff7e66
100026
147e24
96102c
561028
547e38
581012
10103a
1e1e6a
f8f8ce
606187
404603
ENDCHAR
STARTCHAR ch-54
ENCODING 54
SWIDTH 1000 0
DWIDTH 24 0
BBX 24 24 0 -3
BITMAP
0c1006
0c1fff
1a1926
199926
10d926
30dffe
200000
430000
7fbfff
8c0000
0c0000
0c9ffe
ffd806
0c1806
0d1ffe
8dc340
4d8642
6d0e27
6e162c
0c6630
0f0618
fc1f9f
700e0e
400806
ENDCHAR
STARTCHAR ch-56
ENCODING 56
SWIDTH 1000 0
DWIDTH 24 0
BBX 24 24 0 -3
BITMAP
061006
061fff
0d1926
0c9926
08d926
18dffe
1000c0
2180c4
3fdffe
4600c0
8600c2
063fff
7fc408
060208
068212
46ffff
26c0c0
3680c0
3700c4
061ffe
0780c0
fe00c0
7000c0
4000c0
ENDCHAR
STARTCHAR ch-58
ENCODING 58
SWIDTH 1000 0
DWIDTH 24 0
BBX 24 24 0 -3
BITMAP
0c08e4
0c04c6
1a06cc
1986c8
10d0d2
30dfff
203006
433004
7f87f0
8c0410
0c0410
0c87f0
ffc000
0c100c
0d1ffe
8dd88c
4d988c
6d188c
6e1ffc
0c188c
0f988c
fe188c
701ffc
40180c
ENDCHAR
STARTCHAR ch-65
ENCODING 65
SWIDTH 1000 0
DWIDTH 24 0
BBX 24 24 0 -3
BITMAP
0c0100
0c188c
1a1a2c
19994c
10dc9c
30d94c
201a2c
43188c
7f984c
8c1ffc
0c0630
0c8630
ffcc3f
0c1a1f
0d2300
8d87f8
4d8418
6d0a30
6e1160
0c00c0
0f81e0
fe0338
700c1f
403006
ENDCHAR
STARTCHAR ch-68
ENCODING 68
SWIDTH 1000 0
DWIDTH 24 0
BBX 24 24 0 -3
BITMAP
0c00c0
0c0088
1a1ffc
198080
10c080
30cff8
200002
433fff
7f8002
8c07f4
0c0080
0c8080
ffcff8
0c0002
0d3fff
8d800c
4d800c
6d3dff
6e240c
0c24cc
0fa44c
fe3c0c
70007c
400018
ENDCHAR
STARTCHAR ch-81
ENCODING 81
SWIDTH 1000 0
DWIDTH 24 0
BBX 24 24 0 -3
BITMAP
0c2320
0c3fb8
1a2430
192430
11a426
31bf7f
202140
7fa180
4c3f00
8c2406
0c247f
7fa400
0c3f80
0c2000
0d0000
8dbffc
4db24c
6d324c
6e324c
0c324c
0db24c
fe324c
78ffff
400000
ENDCHAR
STARTCHAR ch-82
ENCODING 82
SWIDTH 1000 0
DWIDTH 24 0
BBX 24 24 0 -3
BITMAP
000200
404380
7fe306
6207ff
620400
7fc800
6043fc
604000
7fc000
6207fe
620492
624492
7fe7fe
601c00
003600
00c180
03fff0
1c183f
e01806
0ffff0
021840
011886
ffffff
000000
ENDCHAR
STARTCHAR ch-83
ENCODING 83
SWIDTH 1000 0
DWIDTH 24 0
BBX 24 24 0 -3
BITMAP
0c0030
0c4020
1a23fe
193222
119a22
319bfe
200020
7f8020
4c07ff
8c0000
0d99fc
fffd04
0c1904
0c99fc
0cd900
8d99fe
4d1902
6e1902
6c19fe
0d9800
0e3400
f8e3ff
6060fe
404000
ENDCHAR
STARTCHAR ch-90
ENCODING 90
SWIDTH 1000 0
DWIDTH 24 0
BBX 24 24 0 -3
BITMAP
0c0618
0c0410
1a3f7e
190410
118410
31ffff
200c28
430b2c
7f9147
8c6082
0c1ffc
0c980c
ffd80c
0c1ffc
0d180c
8dd80c
4d9ffc
6d180c
6e180c
0c1ffc
0f8000
fe0800
701c1e
407006
ENDCHAR
STARTCHAR ch-91
ENCODING 91
SWIDTH 1000 0
DWIDTH 24 0
BBX 24 24 0 -3
BITMAP
0c00e0
0c00c0
1a20c6
193fff
11b000
31b198
203110
4237fc
7f3110
883110
083ffe
093040
ffb040
0837fc
0a3444
8bb444
4b27fc
6a2444
6c2444
0827fc
0f4200
fc4318
708606
401802
ENDCHAR
STARTCHAR ch-94
ENCODING 94
SWIDTH 1000 0
DWIDTH 24 0
BBX 24 24 0 -3
BITMAP
0c0884
0c0cc6
1a198c
192210
11998c
318884
203ffe
422002
7f2632
8821c2
082632
092002
ffbffe
080000
0a2108
8ba948
4b2528
6a2108
6c294a
08252a
0f210e
fc39c6
70e707
404203
ENDCHAR
STARTCHAR ch-96
ENCODING 96
SWIDTH 1000 0
DWIDTH 24 0
BBX 24 24 0 -3
BITMAP
0c0080
0c00e0
1a20c2
1993f3
10da16
30da14
200210
4303f0
7f8218
8c0e16
0c3a13
0c93f3
ffc0c0
0c00c0
0d3fff
8dc1d0
4d83d0
6d02c8
6e06cc
0c04cf
0f88c6
fe30c6
7000c0
4000c0
ENDCHAR
STARTCHAR ch-98
ENCODING 98
SWIDTH 1000 0
DWIDTH 24 0
BBX 24 24 0 -3
BITMAP
0c01c0
0c0188
1a01fc
192182
11bfff
31b106
2031e4
423708
7f30f8
883000
0837fc
093444
ffb444
0837fc
0a3444
8ba444
4b27fc
6a2040
6c2124
086522
0f450b
fc4d0d
7099fc
4018f8
ENDCHAR
STARTCHAR ch-106
ENCODING 106
SWIDTH 1000 0
DWIDTH 24 0
BBX 24 24 0 -3
BITMAP
0c01c0
0c0188
1a01fc
192182
11bfff
31b106
2031e4
423700
7f3108
8830f8
083000
0937fc
ffb444
083444
0a27fc
8ba444
4b2444
6a27fc
6c6000
084ffe
0f4922
fc8922
700922
403fff
ENDCHAR
STARTCHAR ch-112
ENCODING 112
SWIDTH 1000 0
DWIDTH 24 0
BBX 24 24 0 -3
BITMAP
0c00c0
0c01c0
1a0320
190618
118c0f
31b3f6
200000
430000
7fbdef
8c2529
0c2529
0cbdef
ffc000
0c0000
0d1ffe
8dd926
4d9926
6d1926
6e1ffe
0c1926
0f9926
fe1926
70192e
401926
ENDCHAR
STARTCHAR ch-117
ENCODING 117
SWIDTH 1000 0
DWIDTH 24 0
BBX 24 24 0 -3
BITMAP
0c071c
0c0618
1a3fff
198618
10c618
30df3e
201122
431122
7f9f3e
8c0840
0c0e60
0c8c44
ffdffe
0c1840
0d3840
8ddffc
4d9840
6d1840
6e1ffc
0c1840
0f9840
fe1842
701fff
401800
ENDCHAR
STARTCHAR ch-119
ENCODING 119
SWIDTH 1000 0
DWIDTH 24 0
BBX 24 24 0 -3
BITMAP
0c000c
0c3ffe
1a0410
1907f0
118410
318410
2007f0
420410
7f041e
883ff0
081c10
098012
ffffff
082244
0a2244
8bbe7c
4b2244
6a2244
6c3e7c
082244
0f2244
fcfffc
7062c4
400204
ENDCHAR
STARTCHAR ch-124
ENCODING 124
SWIDTH 1000 0
DWIDTH 24 0
BBX 24 24 0 -3
BITMAP
184006
187fff
146446
126446
336446
237ffe
201040
441868
7e104c
90a8c8
104c92
1249ff
ff1290
102490
14fefe
967290
561090
545090
5874fe
105290
1ed290
f89092
6110ff
401080
ENDCHAR
STARTCHAR ch-125
ENCODING 125
SWIDTH 1000 0
DWIDTH 24 0
BBX 24 24 0 -3
BITMAP
0c0618
0c1450
1a1450
191f7e
11a490
318410
207fff
430a28
7f9aa8
8c1329
0c2247
0c9ffc
ffd80c
0c180c
0d1ffc
8dd80c
4d980c
6d1ffc
6e180c
0c180c
0f9ffc
fe0800
701c1e
407006
ENDCHAR
STARTCHAR ch-126
ENCODING 126
SWIDTH 1000 0
DWIDTH 24 0
BBX 24 24 0 -3
BITMAP
080008
0c7e0c
580058
64ff64
260026
0c7e0c
180018
227e22
ff00ff
697e69
084208
4a426c
697e4b
491889
883608
00c180
03fff0
1c183f
e01806
0ffff0
021840
011886
ffffff
000000
ENDCHAR
STARTCHAR ch-127
ENCODING 127
SWIDTH 1000 0
DWIDTH 24 0
BBX 24 24 0 -3
BITMAP
451118
2521fc
fff998
084198
04811f
7ff20f
020400
fff3fe
12000c
627198
421070
7270dc
42170e
7ff006
403c00
006380
0180ff
0e7f1e
f01800
0ffff0
011880
00990c
7ffffe
000000
ENDCHAR
STARTCHAR ch-129
ENCODING 129
SWIDTH 1000 0
DWIDTH 24 0
BBX 24 24 0 -3
BITMAP
0c1122
0c1fbf
1a1122
199f3e
10d122
30df3e
201122
431f3e
7f8440
8c0660
0c0ffe
0c8840
ffdffc
0c2840
0d0ffc
8dc840
4d8fff
6d0000
6e1ffc
0c0418
0f8330
fc00e0
7003bf
403c06
ENDCHAR
STARTCHAR ch-375
ENCODING 375
SWIDTH 1000 0
DWIDTH 24 0
BBX 24 24 0 -3
BITMAP
020030
03fff8
030000
030000
0300c0
03ffe0
030000
030000
0300c0
03ffe0
030000
030000
030006
ffffff
030840
030870
030460
030680
030300
033180
03c0e0
3f007e
1c003c
10000c
ENDCHAR
STARTCHAR ch-384
ENCODING 384
SWIDTH 1000 0
DWIDTH 24 0
BBX 24 24 0 -3
BITMAP
406406
7ff7ff
606606
606606
606606
7fe7fe
606606
606606
606606
7fe7fe
606606
600006
600006
600006
600006
600006
600006
600006
600006
600006
600006
600006
60003e
60000c
ENDCHAR
STARTCHAR ch-386
ENCODING 386
SWIDTH 1000 0
DWIDTH 24 0
BBX 24 24 0 -3
BITMAP
406406
7ff7ff
606606
606606
7fe7fe
606606
606606
606606
7fe7fe
606606
600006
600006
600006
600006
6000c6
67ffe6
600006
600006
600006
600006
600006
600006
60003e
60000c
ENDCHAR
STARTCHAR ch-387
ENCODING 387
SWIDTH 1000 0
DWIDTH 24 0
BBX 24 24 0 -3
BITMAP
406406
7ff7ff
606606
606606
7fe7fe
606606
606606
7fe7fe
606606
600006
603806
603006
603006
603006
606806
606806
60c406
60c606
618386
6301e6
6c00c6
600006
60003e
60000c
ENDCHAR
STARTCHAR ch-391
ENCODING 391
SWIDTH 1000 0
DWIDTH 24 0
BBX 24 24 0 -3
BITMAP
406406
7ff7ff
606606
606606
7fe7fe
606606
606606
7fe7fe
600006
600006
6000c6
63ffe6
601806
601806
601e06
601986
6018c6
6018c6
601806
601806
601806
601806
60003e
60000c
ENDCHAR
STARTCHAR ch-393
ENCODING 393
SWIDTH 1000 0
DWIDTH 24 0
BBX 24 24 0 -3
BITMAP
406406
7ff7ff
606606
606606
7fe7fe
606606
606606
7fe7fe
600006
600e06
600c06
600c66
67fff6
601c06
603c06
606c06
60cc06
618c06
630c06
6c0c06
607c06
601806
60003e
60000c
ENDCHAR
STARTCHAR ch-394
ENCODING 394
SWIDTH 1000 0
DWIDTH 24 0
BBX 24 24 0 -3
BITMAP
406406
7ff7ff
606606
606606
7fe7fe
606606
606606
7fe7fe
600006
600006
601c06
601806
6398e6
6318c6
6318c6
6318c6
6318c6
6318c6
6318c6
63ffc6
6300c6
600006
60003e
60000c
ENDCHAR
STARTCHAR ch-395
ENCODING 395
SWIDTH 1000 0
DWIDTH 24 0
BBX 24 24 0 -3
BITMAP
406406
7ff7ff
606606
606606
7fe7fe
606606
606606
7fe7fe
606606
600006
6000c6
67ffe6
60c606
60c606
60c666
6ffff6
60c606
60c606
60c606
608606
618606
610606
66063e
60000c
ENDCHAR
STARTCHAR ch-399
ENCODING 399
SWIDTH 1000 0
DWIDTH 24 0
BBX 24 24 0 -3
BITMAP
406406
7ff7ff
606606
606606
7fe7fe
606606
606606
7fe7fe
606606
600006
600086
63ffc6
601806
601806
601906
61ff86
601806
601806
601846
67ffe6
600006
600006
60003e
60000c
ENDCHAR
STARTCHAR ch-401
ENCODING 401
SWIDTH 1000 0
DWIDTH 24 0
BBX 24 24 0 -3
BITMAP
406406
7ff7ff
606606
606606
7fe7fe
606606
606606
7fe7fe
600006
601c06
601806
601866
67fff6
607a06
607a06
60d906
60d986
6198c6
6118f6
621866
6c1806
601806
60183e
60000c
ENDCHAR
STARTCHAR ch-403
ENCODING 403
SWIDTH 1000 0
DWIDTH 24 0
BBX 24 24 0 -3
BITMAP
406406
7ff7ff
606606
606606
7fe7fe
606606
606606
7fe7fe
606606
600006
600006
610186
61ffc6
618186
618186
618186
61ff86
618186
618186
618186
61ff86
618186
60003e
60000c
ENDCHAR
STARTCHAR ch-404
ENCODING 404
SWIDTH 1000 0
DWIDTH 24 0
BBX 24 24 0 -3
BITMAP
406406
7ff7ff
606606
606606
7fe7fe
606606
606606
7fe7fe
600006
601c06
601846
67ffe6
608306
604606
604606
602c06
601806
603c06
606706
6183e6
6600c6
600006
60003e
60000c
ENDCHAR
STARTCHAR ch-406
ENCODING 406
SWIDTH 1000 0
DWIDTH 24 0
BBX 24 24 0 -3
BITMAP
406406
7ff7ff
606606
606606
7fe7fe
606606
606606
7fe7fe
600006
601c06
601806
601846
609866
67d8c6
60dd06
609a06
619906
611986
6218c6
6418f6
681866
607806
60303e
60000c
ENDCHAR
STARTCHAR ch-408
ENCODING 408
SWIDTH 1000 0
DWIDTH 24 0
BBX 24 24 0 -3
BITMAP
406406
7ff7ff
606606
606606
7fe7fe
606606
606606
7fe7fe
600006
600006
620046
63ffe6
621846
621846
63ffc6
621846
621846
63ffc6
621846
601806
601806
601806
60183e
60000c
ENDCHAR
STARTCHAR ch-409
ENCODING 409
SWIDTH 1000 0
DWIDTH 24 0
BBX 24 24 0 -3
BITMAP
406406
7ff7ff
606606
606606
7fe7fe
606606
606606
7fe7fe
600006
601c06
601846
67ffe6
601806
6218c6
63ffe6
6318c6
6318c6
6318c6
6318c6
631bc6
631986
601806
60183e
60000c
ENDCHAR
STARTCHAR ch-416
ENCODING 416
SWIDTH 1000 0
DWIDTH 24 0
BBX 24 24 0 -3
BITMAP
406406
7ff7ff
606606
606606
7fe7fe
606606
606606
7fe7fe
600006
600086
63ffc6
601806
601806
601906
61ff86
601806
601a06
601986
601886
601806
67ffe6
600006
60003e
60000c
ENDCHAR
STARTCHAR ch-418
ENCODING 418
SWIDTH 1000 0
DWIDTH 24 0
BBX 24 24 0 -3
BITMAP
406406
7ff7ff
606606
606606
7fe7fe
606606
606606
7fe7fe
610206
60c386
60c306
600406
63ffc6
603006
603046
67ffe6
603406
606406
606206
60c386
6181e6
6600c6
60003e
60000c
ENDCHAR
STARTCHAR ch-419
ENCODING 419
SWIDTH 1000 0
DWIDTH 24 0
BBX 24 24 0 -3
BITMAP
406406
7ff7ff
606606
606606
7fe7fe
606606
606606
7fe7fe
608006
60c306
60ff86
618306
634606
642c06
601806
606706
6181f6
6eff66
60c306
60c306
60c306
60ff06
60c33e
60000c
ENDCHAR
STARTCHAR ch-420
ENCODING 420
SWIDTH 1000 0
DWIDTH 24 0
BBX 24 24 0 -3
BITMAP
406406
7ff7ff
606606
606606
7fe7fe
606606
606606
7fe7fe
601806
601806
603406
606306
60c1c6
6300f6
6cff66
600006
600006
61ff86
618186
618186
618186
61ff86
6181be
60000c
ENDCHAR
STARTCHAR ch-421
ENCODING 421
SWIDTH 1000 0
DWIDTH 24 0
BBX 24 24 0 -3
BITMAP
406406
7ff7ff
606606
606606
7fe7fe
606606
606606
7fe7fe
600006
610306
61d886
6199c6
631f06
637886
670cc6
6b0d86
630706
630226
630726
630da6
6330f6
630066
63001e
60000c
ENDCHAR
STARTCHAR ch-423
ENCODING 423
SWIDTH 1000 0
DWIDTH 24 0
BBX 24 24 0 -3
BITMAP
406406
7ff7ff
606606
606606
7fe7fe
606606
606606
7fe7fe
600006
60c306
60c306
63ffc6
60c306
60c306
60c306
67ffe6
600006
608206
60c186
6180c6
6600c6
600006
60003e
60000c
ENDCHAR
STARTCHAR ch-424
ENCODING 424
SWIDTH 1000 0
DWIDTH 24 0
BBX 24 24 0 -3
BITMAP
406406
7ff7ff
606606
606606
7fe7fe
606606
606606
7fe7fe
600006
601c06
601806
61ff86
601806
601806
63ffc6
601806
601806
61ff86
601806
601806
67ffe6
600006
60003e
60000c
ENDCHAR
STARTCHAR ch-429
ENCODING 429
SWIDTH 1000 0
DWIDTH 24 0
BBX 24 24 0 -3
BITMAP
406406
7ff7ff
606606
606606
7fe7fe
606606
606606
7fe7fe
600006
600006
61ff86
618186
618186
61ff86
601806
601006
63ffc6
6300c6
6300c6
63ffc6
6300c6
600006
60003e
60000c
ENDCHAR
STARTCHAR ch-434
ENCODING 434
SWIDTH 1000 0
DWIDTH 24 0
BBX 24 24 0 -3
BITMAP
406406
7ff7ff
606606
606606
7fe7fe
606606
606606
7fe7fe
610206
60c386
60c306
600406
61ff86
618186
618186
618186
61ff86
604606
607646
60e666
60c7e6
6183c6
66003e
60000c
ENDCHAR
STARTCHAR ch-441
ENCODING 441
SWIDTH 1000 0
DWIDTH 24 0
BBX 24 24 0 -3
BITMAP
406406
7ff7ff
606606
7fe7fe
606606
606606
7fe7fe
602006
603006
67ffe6
606406
60c206
611186
63fff6
6d1166
611106
61ff06
611106
611106
61ff06
601086
6010c6
600fde
60000c
ENDCHAR
STARTCHAR ch-443
ENCODING 443
SWIDTH 1000 0
DWIDTH 24 0
BBX 24 24 0 -3
BITMAP
406406
7ff7ff
606606
606606
7fe7fe
606606
606606
7fe7fe
608006
60c106
60ff86
618306
610e06
620406
642086
61c7c6
610086
61e786
610086
610086
61ff86
610086
60003e
60000c
ENDCHAR
STARTCHAR ch-444
ENCODING 444
SWIDTH 1000 0
DWIDTH 24 0
BBX 24 24 0 -3
BITMAP
406406
7ff7ff
606606
606606
7fe7fe
606606
606606
7fe7fe
600006
61c306
618306
61a686
6ff446
620866
62123e
63e196
622086
622006
622406
666306
646186
65c0c6
68c0de
60000c
ENDCHAR
STARTCHAR ch-446
ENCODING 446
SWIDTH 1000 0
DWIDTH 24 0
BBX 24 24 0 -3
BITMAP
406406
7ff7ff
606606
606606
7fe7fe
606606
606606
7fe7fe
600006
600d06
600c86
67ffe6
600406
600406
63e486
6226c6
622286
63e306
600726
6065a6
6788e6
621066
60203e
60000c
ENDCHAR
STARTCHAR ch-451
ENCODING 451
SWIDTH 1000 0
DWIDTH 24 0
BBX 24 24 0 -3
BITMAP
406406
7ff7ff
606606
606606
7fe7fe
606606
606606
7fe7fe
600006
61ff86
610086
61ff86
610086
61ff86
610086
61ff86
601106
601086
67ffe6
602406
606306
60c1e6
6300de
60000c
ENDCHAR
STARTCHAR ch-455
ENCODING 455
SWIDTH 1000 0
DWIDTH 24 0
BBX 24 24 0 -3
BITMAP
406406
7ff7ff
606606
606606
7fe7fe
606606
606606
7fe7fe
601806
601806
63ffc6
608306
604206
6ffff6
600006
61ff86
618186
618186
61ff86
618186
618186
61ff86
6181be
60000c
ENDCHAR
STARTCHAR ch-458
ENCODING 458
SWIDTH 1000 0
DWIDTH 24 0
BBX 24 24 0 -3
BITMAP
406406
7ff7ff
606606
606606
7fe7fe
606606
606606
7fe7fe
600006
620086
6183c6
609e06
680206
660226
627ff6
608206
610206
631fc6
6e1046
661046
621046
631fc6
63107e
60000c
ENDCHAR
STARTCHAR ch-460
ENCODING 460
SWIDTH 1000 0
DWIDTH 24 0
BBX 24 24 0 -3
BITMAP
406406
7ff7ff
606606
606606
7fe7fe
606606
606606
7fe7fe
601006
601006
67ffe6
601006
61ff86
611086
61ff86
611086
61ff86
603406
607206
60d306
6191e6
6610c6
60101e
60000c
ENDCHAR
STARTCHAR ch-461
ENCODING 461
SWIDTH 1000 0
DWIDTH 24 0
BBX 24 24 0 -3
BITMAP
406406
7ff7ff
606606
606606
7fe7fe
606606
606606
7fe7fe
600006
602106
61ff86
602206
602406
67ffe6
602006
604006
61ff06
664106
607f06
604106
604106
607f06
60413e
60000c
ENDCHAR
STARTCHAR ch-468
ENCODING 468
SWIDTH 1000 0
DWIDTH 24 0
BBX 24 24 0 -3
BITMAP
406406
7ff7ff
606606
606606
7fe7fe
606606
606606
7fe7fe
600006
601006
61ff06
601006
67ffc6
602006
604206
61ff06
600106
61ff86
612486
612486
612486
67ffe6
60001e
60000c
ENDCHAR
STARTCHAR ch-469
ENCODING 469
SWIDTH 1000 0
DWIDTH 24 0
BBX 24 24 0 -3
BITMAP
406406
7ff7ff
606606
606606
7fe7fe
606606
606606
7fe7fe
600006
642406
622626
6047f6
67f426
608846
649306
649306
649306
67f286
610646
610466
620866
641006
60003e
60000c
ENDCHAR
STARTCHAR ch-470
ENCODING 470
SWIDTH 1000 0
DWIDTH 24 0
BBX 24 24 0 -3
BITMAP
406406
7ff7ff
606606
606606
7fe7fe
606606
606606
7fe7fe
600006
610086
61ffc6
610806
61ff86
610806
61ff86
610806
61ffc6
6000c6
62a8c6
66a8c6
6603c6
600186
60003e
60000c
ENDCHAR
STARTCHAR ch-472
ENCODING 472
SWIDTH 1000 0
DWIDTH 24 0
BBX 24 24 0 -3
BITMAP
406406
7ff7ff
606606
606606
7fe7fe
606606
606606
7fe7fe
600006
600046
6ff046
600046
67eff6
642046
642446
67e246
600346
643346
622046
624046
600046
6ff3c6
66019e
60000c
ENDCHAR
STARTCHAR ch-476
ENCODING 476
SWIDTH 1000 0
DWIDTH 24 0
BBX 24 24 0 -3
BITMAP
406406
7ff7ff
606606
7fe7fe
606606
606606
7fe7fe
608106
60c186
648906
632646
614286
608106
612246
67ffe6
621426
606606
626646
626646
63c7c6
604606
608606
63063e
60000c
ENDCHAR
STARTCHAR ch-481
ENCODING 481
SWIDTH 1000 0
DWIDTH 24 0
BBX 24 24 0 -3
BITMAP
406406
7ff7ff
606606
7fe7fe
606606
606606
7fe7fe
600006
63e7c6
622446
622446
63e7c6
600006
61ff86
611086
61ff86
611086
61ff86
601006
67ffe6
601006
601006
60103e
60000c
ENDCHAR
STARTCHAR ch-482
ENCODING 482
SWIDTH 1000 0
DWIDTH 24 0
BBX 24 24 0 -3
BITMAP
406406
7ff7ff
606606
606606
7fe7fe
606606
606606
7fe7fe
600006
644186
67e106
644fe6
644006
644826
67c446
641ff6
640106
6fc106
6c4fe6
744106
644106
67c106
64411e
60000c
ENDCHAR
STARTCHAR ch-485
ENCODING 485
SWIDTH 1000 0
DWIDTH 24 0
BBX 24 24 0 -3
BITMAP
406406
7ff7ff
606606
7fe7fe
606606
606606
7fe7fe
600006
600206
641fc6
630206
617ff6
601046
600886
611fc6
6f8206
611fc6
610206
617ff6
610206
638206
6e7fe6
641fde
60000c
ENDCHAR
ENDFONT
