STARTFONT 2.1
FONT jis.jis8600.24
SIZE 24 72 72
FONTBOUNDINGBOX 24 24 0 -3
STARTPROPERTIES 4
FONT_DESCENT 3
FONT_ASCENT 21
DEFAULT_CHAR 2
COPYRIGHT "Copyright (c) 1992 AT&T - All rights reserved."
ENDPROPERTIES
CHARS 126
STARTCHAR ch-2
ENCODING 2
SWIDTH 1000 0
DWIDTH 24 0
BBX 24 24 0 -3
BITMAP
01c1c0
018186
ffffff
018180
001000
04cc60
04c518
18c198
187f80
000000
030030
196594
582d83
d88d8b
cf80f8
001c00
001806
ffffff
00da00
019900
0718e0
1c183f
e0180e
001800
ENDCHAR
STARTCHAR ch-6
ENCODING 6
SWIDTH 1000 0
DWIDTH 24 0
BBX 24 24 0 -3
BITMAP
01c1c0
018186
ffffff
018180
019800
001ff0
101806
1fffff
186006
187f94
1fe018
183ff8
180000
19fff0
190410
19fff0
310410
31fff0
200000
63fff8
431118
831118
031118
1fffff
ENDCHAR
STARTCHAR ch-7
ENCODING 7
SWIDTH 1000 0
DWIDTH 24 0
BBX 24 24 0 -3
BITMAP
00e380
00c300
00c306
ffffff
00c300
08c300
0c0018
0fc0fc
188fc0
1100c0
3fe0c0
7260c6
b27fff
3fe0c0
3261e0
3261e0
3263d0
3fe2d8
0004cc
2a58cf
2920c6
6930c0
c930c0
c000c0
ENDCHAR
STARTCHAR ch-10
ENCODING 10
SWIDTH 1000 0
DWIDTH 24 0
BBX 24 24 0 -3
BITMAP
01c1c0
018186
ffffff
018180
018180
040000
060418
0407fc
490618
31c618
1b87f8
1a0618
048618
0847f8
ffe000
7e6804
460ffe
270924
3ec924
366924
666924
460924
860924
063fff
ENDCHAR
STARTCHAR ch-11
ENCODING 11
SWIDTH 1000 0
DWIDTH 24 0
BBX 24 24 0 -3
BITMAP
01c1c0
018186
ffffff
018180
018180
060006
264fff
27e0c0
260080
2607fc
26160c
fffe0c
0607fc
26460c
36260c
6637fc
46b60c
9ec60c
0dc60c
0187fc
030200
060398
0c0606
301806
ENDCHAR
STARTCHAR ch-19
ENCODING 19
SWIDTH 1000 0
DWIDTH 24 0
BBX 24 24 0 -3
BITMAP
01c1c0
018186
ffffff
018180
000180
018400
0fc630
fc0ff8
0c0c60
0c1840
0dbffe
ffd8c6
0c18c6
0c1ffe
1e18c6
1d98c6
3cd8c6
2cdffe
4c0000
8c0000
0c1244
0c3222
0c6333
0c6333
ENDCHAR
STARTCHAR ch-22
ENCODING 22
SWIDTH 1000 0
DWIDTH 24 0
BBX 24 24 0 -3
BITMAP
00e380
00c306
ffffff
00c300
0400e0
26c0c4
3feffe
30c210
30c110
3fc124
300ffe
3000c0
3fc0c4
30cffe
30c0c0
3fc0c0
001cc0
00180c
7ffffe
007a00
01d9e0
0f187f
f0180e
001800
ENDCHAR
STARTCHAR ch-23
ENCODING 23
SWIDTH 1000 0
DWIDTH 24 0
BBX 24 24 0 -3
BITMAP
00e380
00c306
ffffff
00c300
0000e0
1fe0c4
186ffe
186210
1fe110
180124
380ffe
2fe0c0
2c60c4
4c6ffe
8c60c0
0fe0c0
001cc0
00180c
7ffffe
007a00
01d9e0
0f187f
f0180e
001800
ENDCHAR
STARTCHAR ch-26
ENCODING 26
SWIDTH 1000 0
DWIDTH 24 0
BBX 24 24 0 -3
BITMAP
01c1c0
018180
018186
ffffff
018180
098180
0c0408
0fe30c
18c108
108010
2107fe
7fe060
b26060
326064
3fe7fe
326060
326060
3fe062
000fff
204060
292060
693060
c93060
c00060
ENDCHAR
STARTCHAR ch-34
ENCODING 34
SWIDTH 1000 0
DWIDTH 24 0
BBX 24 24 0 -3
BITMAP
01c1c0
018186
ffffff
018180
000000
070380
066306
7ff3ff
108300
088300
0933fc
fff80c
00000c
3fe3fc
306300
3063fc
3fe300
3063fc
306300
3fe3fc
306302
306303
33e3ff
30c1fe
ENDCHAR
STARTCHAR ch-45
ENCODING 45
SWIDTH 1000 0
DWIDTH 24 0
BBX 24 24 0 -3
BITMAP
01c1c0
018186
ffffff
018180
018180
3fe7fc
30240c
3fe7fc
30240c
3fe7fc
30000c
30100c
37ffcc
30100c
31ff0c
31110c
31ff0c
31110c
31ff0c
30300c
305e0c
30938c
3311bc
301018
ENDCHAR
STARTCHAR ch-47
ENCODING 47
SWIDTH 1000 0
DWIDTH 24 0
BBX 24 24 0 -3
BITMAP
01c1c0
018186
ffffff
018180
100000
0e3ff0
062010
803ff0
702010
323ff0
040006
09ffff
183000
f07ffc
71888c
303118
38c678
181830
000000
1ffff0
18c630
18c636
ffffff
000000
ENDCHAR
STARTCHAR ch-48
ENCODING 48
SWIDTH 1000 0
DWIDTH 24 0
BBX 24 24 0 -3
BITMAP
01c1c0
018186
ffffff
018180
018180
040000
0607f8
040408
4907f8
318408
1b07f8
1a0000
041ffe
089926
ffd926
7edffe
460000
270ffc
3e8218
36c130
66c0e0
4601b8
86061f
063806
ENDCHAR
STARTCHAR ch-63
ENCODING 63
SWIDTH 1000 0
DWIDTH 24 0
BBX 24 24 0 -3
BITMAP
01c1c0
018186
ffffff
018180
000000
3ffffc
30c30c
30c30c
3ffffc
080000
0c0420
490630
318c44
130ffe
041c40
08ac40
ffcffc
7ecc40
060c40
26cffc
366c40
666c42
860fff
060c00
ENDCHAR
STARTCHAR ch-77
ENCODING 77
SWIDTH 1000 0
DWIDTH 24 0
BBX 24 24 0 -3
BITMAP
001c00
001800
001818
001ffc
001800
001800
101806
1fffff
180006
181c04
181808
181800
181800
181818
1bfffc
181800
181800
301800
301802
201802
601802
401803
801fff
000ffe
ENDCHAR
STARTCHAR ch-78
ENCODING 78
SWIDTH 1000 0
DWIDTH 24 0
BBX 24 24 0 -3
BITMAP
003800
003060
003ff0
003000
10300c
1ffffe
18000c
183808
183090
183fc0
1bf008
18300c
183ffc
181ff8
180000
188000
18e380
30c300
30c300
218302
618302
430303
8603ff
1801fe
ENDCHAR
STARTCHAR ch-80
ENCODING 80
SWIDTH 1000 0
DWIDTH 24 0
BBX 24 24 0 -3
BITMAP
001c00
00180c
001ffe
001800
101806
1fffff
183006
1830e4
183f00
1bf008
18300c
183ffc
181ff8
180000
19000c
39fffe
318000
318000
31fffe
218000
618000
41800c
81fffe
018000
ENDCHAR
STARTCHAR ch-84
ENCODING 84
SWIDTH 1000 0
DWIDTH 24 0
BBX 24 24 0 -3
BITMAP
003800
003030
003ff8
003000
103006
1fffff
183006
183004
183fc0
1bf008
18300c
183ffc
181ff8
180000
180c00
180c0c
37fffe
3040c0
202180
601300
400e00
803be0
01e0ff
1e001e
ENDCHAR
STARTCHAR ch-85
ENCODING 85
SWIDTH 1000 0
DWIDTH 24 0
BBX 24 24 0 -3
BITMAP
001c00
001860
001ff0
101806
1fffff
183006
183004
183f90
1bf018
183018
181ff0
190000
198000
199230
19fbf8
193330
1b3332
1ab233
14623f
30641e
20d800
418e00
8307ff
0c00fe
ENDCHAR
STARTCHAR ch-90
ENCODING 90
SWIDTH 1000 0
DWIDTH 24 0
BBX 24 24 0 -3
BITMAP
001c00
001830
001ff8
001800
101806
1fffff
18300c
1831c8
183e10
1bf004
183006
183ffe
181ffc
180000
1839c0
183188
32318e
31318c
31b198
21b190
61b1a0
403180
803186
0fffff
ENDCHAR
STARTCHAR ch-92
ENCODING 92
SWIDTH 1000 0
DWIDTH 24 0
BBX 24 24 0 -3
BITMAP
001c00
001860
001ff0
101806
1fffff
183006
183fa4
1bf030
181ff0
180000
19fff0
190410
190410
19fff0
190410
190410
19fff0
180c00
13fffc
30180c
20300c
406018
8180f8
060030
ENDCHAR
STARTCHAR ch-94
ENCODING 94
SWIDTH 1000 0
DWIDTH 24 0
BBX 24 24 0 -3
BITMAP
001c00
001860
001ff0
20180c
3ffffe
303018
303fa0
37f008
30300c
301ffc
300000
303fc0
332040
332040
333fc0
330000
33fff0
300030
300032
2fffff
60c000
40e060
81801c
0e000c
ENDCHAR
STARTCHAR ch-95
ENCODING 95
SWIDTH 1000 0
DWIDTH 24 0
BBX 24 24 0 -3
BITMAP
2180e0
3fc0c4
3180fe
3180c0
3190c2
319fff
3f9806
3198c4
0018c0
0018f0
fffbc4
1818c6
1818fe
19987c
3fd800
319900
0199dc
019998
019198
03919a
03311a
07231b
3e421f
0c0c0e
ENDCHAR
STARTCHAR ch-103
ENCODING 103
SWIDTH 1000 0
DWIDTH 24 0
BBX 24 24 0 -3
BITMAP
038000
03200c
03f7fe
0300c0
4310c0
7ff8c0
6030c0
6620c6
678fff
7e2180
663180
63f180
64018c
66c3fe
64830c
6ff80c
68800c
7ff00c
68800c
4ff00c
48801c
488018
8ff8f8
080030
ENDCHAR
STARTCHAR ch-107
ENCODING 107
SWIDTH 1000 0
DWIDTH 24 0
BBX 24 24 0 -3
BITMAP
001c00
001800
001800
001800
001800
101818
1ffffc
181818
181818
181818
181818
181818
181818
1ffff8
181818
181818
001800
001840
001830
001818
001fec
7ff80e
3e0006
200006
ENDCHAR
STARTCHAR ch-113
ENCODING 113
SWIDTH 1000 0
DWIDTH 24 0
BBX 24 24 0 -3
BITMAP
000030
fffff8
000030
000030
000e30
00ff30
3ff030
00c030
00c030
20c330
3fffb0
30c330
30c330
30c330
30c330
3fff30
30c312
00c012
00c21a
00c10a
00c18e
ffffc6
7f00c7
4000c3
ENDCHAR
STARTCHAR ch-121
ENCODING 121
SWIDTH 1000 0
DWIDTH 24 0
BBX 24 24 0 -3
BITMAP
070000
06000c
060ffe
0600c0
4660c0
7ff0c0
6660c0
6660c0
6660c0
6660c0
6660c0
6660c0
6660c0
7fe0c0
6660c0
6600c0
0680c0
0660c0
0630c0
06d8c0
0f18c0
fc00c6
701fff
400000
ENDCHAR
STARTCHAR ch-123
ENCODING 123
SWIDTH 1000 0
DWIDTH 24 0
BBX 24 24 0 -3
BITMAP
0700e0
0600c0
0600c0
0600c0
4660c0
7ff0c6
666fff
666300
666300
666300
666300
666300
666300
666300
7fe300
666300
660300
068300
064300
066300
07b300
fe33fe
7031fe
400000
ENDCHAR
STARTCHAR ch-138
ENCODING 138
SWIDTH 1000 0
DWIDTH 24 0
BBX 24 24 0 -3
BITMAP
0700e0
0600c0
0600c0
0600c0
0600c6
461fff
7fe418
666418
666418
666218
666230
666230
666330
7fe130
666160
6601e0
0600c0
0640e0
0621a0
0ff1b0
fe3318
70361f
400c0e
003006
ENDCHAR
STARTCHAR ch-139
ENCODING 139
SWIDTH 1000 0
DWIDTH 24 0
BBX 24 24 0 -3
BITMAP
0e00e0
0c00c0
0c00c0
0c00c0
0c00c0
4c90c6
7fdfff
4c98c6
4c98c6
4c98c6
4c98c6
4c98a6
4c99a6
7f9936
4c9936
0c1a36
0c1806
0d1806
0c9806
0fd806
fcd806
70d806
40183e
00180c
ENDCHAR
STARTCHAR ch-140
ENCODING 140
SWIDTH 1000 0
DWIDTH 24 0
BBX 24 24 0 -3
BITMAP
0700e0
0600c0
0600c0
0600c0
0600cc
466ffe
7ff0c0
6660c0
6660c0
6660cc
666ffe
6660c0
6660c0
7fe0c0
6660c0
0600c6
061fff
0640c0
0620c0
0ff0c0
fe30c0
7030c0
4000c0
0000c0
ENDCHAR
STARTCHAR ch-147
ENCODING 147
SWIDTH 1000 0
DWIDTH 24 0
BBX 24 24 0 -3
BITMAP
0e00c7
0c7fe6
0c00c6
0c00c6
0c00c6
4c90c6
7fdfc6
4c98c6
4c9806
4c9806
4c9806
4c98c6
4c9fe6
7fb0c6
4cb0c6
0c00c6
0c00c6
0c80c6
0c80c6
0fc1c6
fcc186
70c386
401f06
000606
ENDCHAR
STARTCHAR ch-149
ENCODING 149
SWIDTH 1000 0
DWIDTH 24 0
BBX 24 24 0 -3
BITMAP
000006
ffffff
001800
001800
001818
3ffffc
003400
007200
00e180
01c0e0
071c7f
1c181e
e01806
0ffff0
0c1830
0c1830
0c1830
0ffff0
001800
001820
001818
7fffec
3f800e
200006
ENDCHAR
STARTCHAR ch-163
ENCODING 163
SWIDTH 1000 0
DWIDTH 24 0
BBX 24 24 0 -3
BITMAP
070020
060220
0603a0
060320
060310
466310
7ff210
666218
666608
66640c
66650f
6669c6
667186
7fe180
666180
060100
060110
064308
06620c
07e204
fe623e
781fe6
400f06
000806
ENDCHAR
STARTCHAR ch-164
ENCODING 164
SWIDTH 1000 0
DWIDTH 24 0
BBX 24 24 0 -3
BITMAP
000030
3ffff8
012060
0098c0
084980
046300
063600
061c00
003600
00e3c0
0380ff
1c183e
e01806
07ffe0
061860
061860
061860
07ffe0
001800
001840
001830
7fffd8
3fe00c
20000c
ENDCHAR
STARTCHAR ch-169
ENCODING 169
SWIDTH 1000 0
DWIDTH 24 0
BBX 24 24 0 -3
BITMAP
001c00
1c181c
181818
181818
1ffff8
183018
006000
008006
ffffff
001800
001800
101818
1ffffc
181818
181818
181818
1ffff8
181818
001800
001820
001818
7fffec
3fe006
200006
ENDCHAR
STARTCHAR ch-170
ENCODING 170
SWIDTH 1000 0
DWIDTH 24 0
BBX 24 24 0 -3
BITMAP
07001c
060018
060218
060198
0600d8
4660d8
7ff018
666018
666418
666318
666198
666198
666018
7fe018
66601a
06001f
0600f8
064f18
062018
0ff018
fe3018
703018
400018
000018
ENDCHAR
STARTCHAR ch-171
ENCODING 171
SWIDTH 1000 0
DWIDTH 24 0
BBX 24 24 0 -3
BITMAP
0e0400
0c0700
0c0600
0c060c
0c07fe
4c8c0c
7fcc0c
4c880c
4c9fcc
4c90cc
4ca0cc
4c80cc
4c88cc
7f8fcc
4c8c0c
0c0c18
0c0cf8
0c8c30
0c8c02
0fcc02
fccc02
70cc03
400fff
0007fe
ENDCHAR
STARTCHAR ch-175
ENCODING 175
SWIDTH 1000 0
DWIDTH 24 0
BBX 24 24 0 -3
BITMAP
070018
06003c
060070
0604c0
060700
466600
7ff600
666600
66660c
6667fe
666630
666630
666630
7fe630
666630
060630
060630
064630
066630
07e630
fe6630
700636
407fff
000000
ENDCHAR
STARTCHAR ch-176
ENCODING 176
SWIDTH 1000 0
DWIDTH 24 0
BBX 24 24 0 -3
BITMAP
0e00e0
0c00c0
0c00c0
0c00c0
0c00c0
4c90c6
7fdfff
4c98c6
4c98c6
4c98c6
4c98c6
4c98c6
4c98c6
7f9ffe
4c98c6
0c18c6
0c18c6
0c98c6
0c98c6
0fd8c6
fcd8c6
70dffe
401806
001806
ENDCHAR
STARTCHAR ch-182
ENCODING 182
SWIDTH 1000 0
DWIDTH 24 0
BBX 24 24 0 -3
BITMAP
07038e
06030c
06030c
06030c
06030c
46630c
7fffff
66630c
66630c
66630c
66630c
66630c
66630c
7fe3fc
66630c
06030c
06030c
06430c
06230c
0ff30c
fe330c
7033fc
40030c
00030c
ENDCHAR
STARTCHAR ch-196
ENCODING 196
SWIDTH 1000 0
DWIDTH 24 0
BBX 24 24 0 -3
BITMAP
0700e0
0600c0
0600c0
0600c0
0600c0
4660c6
7fffff
6660c0
6660c0
6660c0
6660c0
6660c0
6664cc
7fe7fe
66660c
06060c
06060c
06460c
06260c
0ff60c
fe360c
7037fc
40060c
00060c
ENDCHAR
STARTCHAR ch-198
ENCODING 198
SWIDTH 1000 0
DWIDTH 24 0
BBX 24 24 0 -3
BITMAP
070418
0607fc
060618
060618
060618
466618
7ff618
666618
6667f8
666618
666618
666618
666618
7fe618
666618
0607f8
060618
064618
066618
07e618
fe6618
70061a
403fff
000000
ENDCHAR
STARTCHAR ch-199
ENCODING 199
SWIDTH 1000 0
DWIDTH 24 0
BBX 24 24 0 -3
BITMAP
0e01c0
0c0180
0c0180
0c0980
0c0986
4c9fff
7f9806
4cb004
4cb008
4c8700
4c860c
4c861e
4c8638
4c8660
7f8780
4c8600
4c0600
0d0600
0c8600
0cc602
0f6602
fc6603
7067ff
4003fe
ENDCHAR
STARTCHAR ch-201
ENCODING 201
SWIDTH 1000 0
DWIDTH 24 0
BBX 24 24 0 -3
BITMAP
070180
060180
060140
060340
060320
466230
7ff618
66641f
66680e
6673e6
666000
666000
66600c
7feffe
66618c
06018c
06018c
06418c
06218c
0ff18c
fe31bc
703198
400180
000180
ENDCHAR
STARTCHAR ch-203
ENCODING 203
SWIDTH 1000 0
DWIDTH 24 0
BBX 24 24 0 -3
BITMAP
00000c
3ffffe
00180c
041808
071860
061ff0
061800
0d1800
0cf800
183fff
3007fe
c01800
081830
0ffff8
0c1830
0c1830
0c1830
0ffff0
0c1830
001840
001830
7fffdc
3fc00e
200006
ENDCHAR
STARTCHAR ch-205
ENCODING 205
SWIDTH 1000 0
DWIDTH 24 0
BBX 24 24 0 -3
BITMAP
004020
083038
061830
030c60
218c40
218086
3fffff
600006
601c04
c01808
c81830
0ffff8
0c1830
0c1830
0c1830
0c1830
0ffff0
0c1800
001840
001830
001818
7fffec
3f800e
200006
ENDCHAR
STARTCHAR ch-206
ENCODING 206
SWIDTH 1000 0
DWIDTH 24 0
BBX 24 24 0 -3
BITMAP
001006
0e1fff
0c1800
0c1800
0c1800
4c9806
7fdfff
4c9980
4c9980
4c9980
4c998c
4c99fe
4c998c
7f998c
4c998c
4c198c
0d198c
0d918c
0f930c
fcb30c
70221c
404618
0084f8
000830
ENDCHAR
STARTCHAR ch-212
ENCODING 212
SWIDTH 1000 0
DWIDTH 24 0
BBX 24 24 0 -3
BITMAP
0e1006
0c1fff
0c1806
0c1806
0c1806
4c9806
7fd9e6
4c9926
4c9926
4c9926
4c9926
4c9926
4c9926
7f9926
4c9926
0c19e6
0c1806
0c9806
0c9806
0fd806
fcd806
70dffe
401806
001806
ENDCHAR
STARTCHAR ch-217
ENCODING 217
SWIDTH 1000 0
DWIDTH 24 0
BBX 24 24 0 -3
BITMAP
0700e0
0600c0
0600c0
0600cc
466ffe
7ff0c0
6660c0
6660c0
6660c6
667fff
666000
666000
6660e0
7fe0c0
6660cc
661ffe
0680c0
0640c0
0660c0
06b0c0
0730c0
fc00c6
707fff
400000
ENDCHAR
STARTCHAR ch-219
ENCODING 219
SWIDTH 1000 0
DWIDTH 24 0
BBX 24 24 0 -3
BITMAP
0e00e0
0c08c0
0c0ec0
0c0cc0
0c0ccc
4c8ffe
7fc8c0
4c88c0
4c90c0
4c80c0
4c80c6
4cbfff
4c83d0
7f83d0
4c82d0
0c06d8
0c86c8
0cc4cc
0fcccc
1cc8cf
f810c6
6020c6
4000c0
0000c0
ENDCHAR
STARTCHAR ch-222
ENCODING 222
SWIDTH 1000 0
DWIDTH 24 0
BBX 24 24 0 -3
BITMAP
070018
0600fc
060fc0
0600c0
0600c0
4660c0
7ff0c0
6660c6
667fff
6660c0
6660c0
6660c0
6660c0
7fe4cc
6667fe
06060c
06060c
06460c
06260c
0ff60c
fe360c
70360c
4007fc
00060c
ENDCHAR
STARTCHAR ch-223
ENCODING 223
SWIDTH 1000 0
DWIDTH 24 0
BBX 24 24 0 -3
BITMAP
070070
060060
060060
060066
060fff
466000
7ff200
666388
666306
666603
666403
666810
66621c
7fe218
666118
060130
0600b0
0640e0
062040
0ff0e0
fe31b8
70331f
40060e
001806
ENDCHAR
STARTCHAR ch-228
ENCODING 228
SWIDTH 1000 0
DWIDTH 24 0
BBX 24 24 0 -3
BITMAP
0e0180
0c0180
0c0340
0c0340
0c0620
4c8620
7fcc10
4c8818
4c900f
4ca06e
4ccff6
4c8000
4c8000
4c8000
7f9018
4c1ffc
4c1818
0d1818
0c9818
0fd818
fcd818
70dff8
401818
001818
ENDCHAR
STARTCHAR ch-233
ENCODING 233
SWIDTH 1000 0
DWIDTH 24 0
BBX 24 24 0 -3
BITMAP
001060
031ff0
7f9860
0c1860
0c1c60
0c1a60
0c1b62
0c9b62
0f3063
fc307f
70603e
418000
001c00
101818
1ffffc
181818
181818
1ffff8
181818
001820
001818
7fffec
3fe006
200006
ENDCHAR
STARTCHAR ch-236
ENCODING 236
SWIDTH 1000 0
DWIDTH 24 0
BBX 24 24 0 -3
BITMAP
00e380
00c300
00c300
00c318
3ffffc
00c300
00c300
00c306
ffffff
010100
01c080
039840
061830
0ffffc
36186f
c61866
061860
07ffe0
001800
001840
001830
3fffd8
1fe00c
10000c
ENDCHAR
STARTCHAR ch-237
ENCODING 237
SWIDTH 1000 0
DWIDTH 24 0
BBX 24 24 0 -3
BITMAP
0e0000
0c0006
0c7fff
0c0180
0c0100
4c8300
7fc220
4c8218
4c840c
4cbff6
4c9e06
4c9000
4c81c0
4c8180
7f818c
4c3ffe
4c0180
0d0180
0c8180
0fc180
fcc180
700186
40ffff
000000
ENDCHAR
STARTCHAR ch-238
ENCODING 238
SWIDTH 1000 0
DWIDTH 24 0
BBX 24 24 0 -3
BITMAP
001c00
001800
001806
ffffff
086300
0e6320
0c6318
18c30c
10c306
218306
421c00
001800
081830
0ffff8
0c1830
0c1830
0c1830
0ffff0
0c1800
001860
001818
7fffec
3fc00e
200006
ENDCHAR
STARTCHAR ch-239
ENCODING 239
SWIDTH 1000 0
DWIDTH 24 0
BBX 24 24 0 -3
BITMAP
0e0380
0c0308
0c030e
0c032c
0c1ffc
4c8318
7fc318
4c8330
4c8326
4cffff
4c80c0
4c8080
4c8180
7f8304
4c830e
0c0718
0c0b60
0cb380
0c8300
0fc302
fcc302
70c303
4003ff
0001fe
ENDCHAR
STARTCHAR ch-248
ENCODING 248
SWIDTH 1000 0
DWIDTH 24 0
BBX 24 24 0 -3
BITMAP
0e00e4
0c20c7
0c18c6
0c0ccc
0c0cc8
4c8cd0
7fc0c0
4c88cc
4c8ffe
4c8c0c
4c8c0c
4c8c0c
4c8ffc
7f8c0c
4c8c0c
0c0c0c
0c0ffc
0d0c0c
0c8c0c
0fcc0c
fccc0c
70cc0c
400c7c
000c18
ENDCHAR
STARTCHAR ch-249
ENCODING 249
SWIDTH 1000 0
DWIDTH 24 0
BBX 24 24 0 -3
BITMAP
0e000c
0c1ffe
0c0018
0c0210
0c01a0
4c80c0
7fd0c6
4c9fff
4c98c6
4c98c6
4c98c6
4c9ffe
4c98c6
7f98c6
4c98c6
0c18c6
0c1ffe
0c98c6
0c98c6
0fd8c6
fcd8c6
70d8c6
4018de
0018cc
ENDCHAR
STARTCHAR ch-251
ENCODING 251
SWIDTH 1000 0
DWIDTH 24 0
BBX 24 24 0 -3
BITMAP
0e1010
0c0c1c
0c0618
0c0630
0c0020
4c904c
7fdffe
4c980c
4c980c
4c980c
4c980c
4c980c
4c9ffc
7f8060
4c8460
0c0760
0c0660
0c8660
0cc662
0fcc62
fccc62
701863
40307f
00c03e
ENDCHAR
STARTCHAR ch-254
ENCODING 254
SWIDTH 1000 0
DWIDTH 24 0
BBX 24 24 0 -3
BITMAP
0004e0
0e07c8
0c0ec4
0c1cc6
0c6cc6
0c0cc0
4c8cc0
7f8cc6
4cffff
4c8cc0
4c8cc8
4c8cce
4c8ccc
7f8ecc
4cfc48
4c3c58
0cac50
0c8c70
0fcc22
fccc72
70cc52
400c9b
007d0f
001806
ENDCHAR
STARTCHAR ch-256
ENCODING 256
SWIDTH 1000 0
DWIDTH 24 0
BBX 24 24 0 -3
BITMAP
20000c
3ffffe
30c30c
30c30c
30c30c
3ffffc
040000
070000
06000c
0ffffe
0c600c
18600c
3fff0c
cc630c
0c630c
0c630c
0fff0c
00600c
00640c
00630c
3ffd9c
1f8198
100078
000030
ENDCHAR
STARTCHAR ch-258
ENCODING 258
SWIDTH 1000 0
DWIDTH 24 0
BBX 24 24 0 -3
BITMAP
0e0400
0c0618
0c07fc
0c0c18
0c0a30
4c9160
7fa0c0
4c81e0
4c8338
4c861f
4c98c6
4ce0c0
4c8ffc
7f80c0
4c80c0
4c0ffc
0d00c0
0c80c0
0cbfff
0fc0c0
fcc0c0
70c0c0
4000c0
0000c0
ENDCHAR
STARTCHAR ch-259
ENCODING 259
SWIDTH 1000 0
DWIDTH 24 0
BBX 24 24 0 -3
BITMAP
10000c
1ffffe
180000
19fff0
180000
180006
1fffff
18c418
18c21c
18c120
10c0c0
37fc78
23c01f
401c06
801800
1ffff8
181818
181818
1ffff8
001820
001818
7fffec
3fe006
200006
ENDCHAR
STARTCHAR ch-262
ENCODING 262
SWIDTH 1000 0
DWIDTH 24 0
BBX 24 24 0 -3
BITMAP
0e080c
0c0ffe
0c0c0c
0c0c0c
4c8c0c
7fcffc
4c8c0c
4c8c0c
4c8c0c
4c8ffc
4c8c0c
4c8c0c
7f8c0c
4c8ffc
0c0060
0c0460
0c8760
0c8660
0fc662
fcc462
70cc62
400863
00107f
00603e
ENDCHAR
STARTCHAR ch-264
ENCODING 264
SWIDTH 1000 0
DWIDTH 24 0
BBX 24 24 0 -3
BITMAP
0e0218
0c03fc
0c0318
0c0318
0c1b18
4c9b18
7fdb18
4c9bf8
4c9b18
4c9800
4c9800
4c9ff8
4c9818
7f9818
4c8018
0c001a
0c3fff
0c8000
0c8420
0fc718
fcce0c
700c06
401807
006003
ENDCHAR
STARTCHAR ch-265
ENCODING 265
SWIDTH 1000 0
DWIDTH 24 0
BBX 24 24 0 -3
BITMAP
070006
06003f
060ff0
060084
060847
466466
7ff664
666608
666004
6667fe
66600c
666008
666050
7fe060
666066
060fff
060060
064060
062060
0ff060
fe3060
703060
4003e0
0000c0
ENDCHAR
STARTCHAR ch-266
ENCODING 266
SWIDTH 1000 0
DWIDTH 24 0
BBX 24 24 0 -3
BITMAP
0e0187
0c07c6
0c3e06
0c0626
0c0626
4c8626
7f86a6
4cffe6
4c8626
4c8626
4c8e26
4c8f26
4c8ea6
7f8ea6
4c9ea6
0c1626
0c1626
0ca626
0c8606
0fc606
fcc606
70c606
40063e
00060c
ENDCHAR
STARTCHAR ch-269
ENCODING 269
SWIDTH 1000 0
DWIDTH 24 0
BBX 24 24 0 -3
BITMAP
0e0180
0c0180
0c0340
0c0340
0c0620
4c8620
7fcc30
4c8818
4c9ffc
4ca18f
4cc186
4c8180
4c8180
7fbffe
4c8180
0c1180
0d1d90
0d9988
0f998c
fcb186
702186
404186
000f80
000300
ENDCHAR
STARTCHAR ch-273
ENCODING 273
SWIDTH 1000 0
DWIDTH 24 0
BBX 24 24 0 -3
BITMAP
03000c
ff80fe
063fc0
0c00c0
1818cc
3198fe
7fd8c0
6198c0
0318c6
137fff
0e0000
078000
0cffff
301ffe
c01800
1ffff8
181818
181818
1ffff8
001840
001830
7fffdc
3fc00e
200006
ENDCHAR
STARTCHAR ch-274
ENCODING 274
SWIDTH 1000 0
DWIDTH 24 0
BBX 24 24 0 -3
BITMAP
0e000c
0c0c3e
0c7ef0
0c0c10
0c0c10
4c8810
7fd890
4c9890
4c9090
4c9692
4cbe9f
4cb690
4c8690
7f8490
4ca490
0c2c90
0c2890
0d2892
0d93ff
0f9000
fcac00
7027ff
4041fe
008000
ENDCHAR
STARTCHAR ch-280
ENCODING 280
SWIDTH 1000 0
DWIDTH 24 0
BBX 24 24 0 -3
BITMAP
0e1000
0c1c00
0c1800
0c1846
0c117f
7fbfe6
4cac66
4ccc66
4c8c66
4c8c66
4c8d66
4cffe6
4c8c66
7f8c66
0c0c66
0c0c66
0d0a66
0c9a66
0c9b66
0f9366
fcb37e
702066
404000
018000
ENDCHAR
STARTCHAR ch-282
ENCODING 282
SWIDTH 1000 0
DWIDTH 24 0
BBX 24 24 0 -3
BITMAP
00e1c0
00c182
7fc1ff
00c180
00c184
3fc1fe
00c180
00c180
ff8182
7981ff
430180
060180
181c00
001818
1ffffc
181818
181818
1ffff8
181818
001820
001818
7fffec
3fe006
200006
ENDCHAR
STARTCHAR ch-284
ENCODING 284
SWIDTH 1000 0
DWIDTH 24 0
BBX 24 24 0 -3
BITMAP
001c00
101800
101806
3fffff
30400c
603110
64d380
048710
0c8e0c
18b886
18e0c6
01ffc0
0f0000
f01800
0ffff0
0c1830
0c1830
0c1830
0ffff0
001820
001818
7fffec
3fc006
200006
ENDCHAR
STARTCHAR ch-293
ENCODING 293
SWIDTH 1000 0
DWIDTH 24 0
BBX 24 24 0 -3
BITMAP
0e1c06
0c180f
0c18b8
0c18c0
0c1ac0
4cffc0
7f98c0
4c98c6
4c98ff
4cbccc
4cbacc
4cbacc
4cbacc
7ff8cc
4c58cc
0c58cc
0c98cc
0c18cc
0c988c
0fd88c
fcd98c
70d90c
401a0c
00180c
ENDCHAR
STARTCHAR ch-297
ENCODING 297
SWIDTH 1000 0
DWIDTH 24 0
BBX 24 24 0 -3
BITMAP
0e1006
0c1fff
0c1806
0c1806
0c18e6
4c98c6
7fd8c6
4c9bf6
4c98c6
4c98c6
4c98c6
4c9bf6
4c9806
7f9806
4c99e6
0c1926
0c9926
0c9926
0fd926
fcd1e6
703006
402006
00403e
00800c
ENDCHAR
STARTCHAR ch-308
ENCODING 308
SWIDTH 1000 0
DWIDTH 24 0
BBX 24 24 0 -3
BITMAP
0e0818
0c0ffc
0c0c18
0c0c18
0c0c18
4c8ff8
7fcc18
4c8c18
4c8c18
4c8ff8
4c8300
4c8300
4c8606
7f87ff
4c8926
0c1326
0c2266
0c8646
0c8cc6
0fd18e
fcc30c
70c61c
4018f8
000030
ENDCHAR
STARTCHAR ch-311
ENCODING 311
SWIDTH 1000 0
DWIDTH 24 0
BBX 24 24 0 -3
BITMAP
0e01c8
0c318e
0c198c
0c1998
0c0190
4cbffe
7fc340
4c8340
4c8226
4cffff
4c8630
4c8c18
4c880c
7f9fff
4ca036
0c0030
0c0830
0c8ff0
0c8c30
0fcc04
fccc04
70cc06
400ffe
0007fc
ENDCHAR
STARTCHAR ch-315
ENCODING 315
SWIDTH 1000 0
DWIDTH 24 0
BBX 24 24 0 -3
BITMAP
0e00e0
0c00c0
0c00c4
0c1ffe
0c00c0
4c80c8
7fcffc
4c80c0
4c80c2
4cbfff
4c8000
4c8000
4c8ffc
7f8c0c
4c8c0c
0c0ffc
0c0c0c
0c8c0c
0c8ffc
0fcc0c
fccc0c
70cc0c
400c7c
000c18
ENDCHAR
STARTCHAR ch-319
ENCODING 319
SWIDTH 1000 0
DWIDTH 24 0
BBX 24 24 0 -3
BITMAP
0e01c0
0c0180
0c2180
0c2186
0c3fff
4c6006
7fe004
4c9800
4c9244
4c9f7e
4c9244
4c9244
4c9244
7fb244
4c2a44
0c4a44
0c065c
0c844c
0c8440
0fc842
fcc842
701043
40207f
00403e
ENDCHAR
STARTCHAR ch-329
ENCODING 329
SWIDTH 1000 0
DWIDTH 24 0
BBX 24 24 0 -3
BITMAP
0e0204
0c2187
0c18c6
0c0ccc
0c0c08
4c8010
7fdffe
4c98c6
4c98c6
4c98c6
4c9ffe
4c98c6
4c98c6
4c98c6
7f9ffe
4c98c6
0c00c0
0d00c6
0cbfff
0fc0c0
fcc0c0
70c0c0
4000c0
0000c0
ENDCHAR
STARTCHAR ch-331
ENCODING 331
SWIDTH 1000 0
DWIDTH 24 0
BBX 24 24 0 -3
BITMAP
0e0208
0c218e
0c18cc
0c0ccc
4c8c18
7fc010
4c8020
4c9ff8
4c9918
4c9918
4c9918
4c9918
4c9ff8
7f9918
4c9918
4c1918
0d1918
0c9ffa
0cd10a
0fd10a
fcd10e
703106
402107
004103
ENDCHAR
STARTCHAR ch-332
ENCODING 332
SWIDTH 1000 0
DWIDTH 24 0
BBX 24 24 0 -3
BITMAP
0e030e
0c0f8c
0c7c0c
0c0c4c
0c0c6c
4c8c6c
7f8d0c
4cff8c
4c8c0c
4c8c4c
4c9c6c
4c9e6c
4c9d0c
7fbd0c
4cac0c
0c2c0f
0c4c7c
0c0dcc
0c8c0c
0fcc0c
fccc0c
70cc0c
400c0c
000c0c
ENDCHAR
STARTCHAR ch-334
ENCODING 334
SWIDTH 1000 0
DWIDTH 24 0
BBX 24 24 0 -3
BITMAP
0e1018
0c1ffc
0c1818
0c1818
0c1ff8
4c9818
7fd818
4c9818
4c9ff8
4c8618
4c8600
4c8c06
4c8fff
7f9806
4c3c86
0cd9c6
0c1e06
0c1846
0c9866
0fdfe6
fccfce
70c00c
4000fc
000018
ENDCHAR
STARTCHAR ch-339
ENCODING 339
SWIDTH 1000 0
DWIDTH 24 0
BBX 24 24 0 -3
BITMAP
0e0180
0c0180
0c0340
0c0320
0c0630
4c841c
7fc80f
4c97f6
4ca000
4c8000
4c910e
4c9f4c
4c914c
7f914c
4c9f4c
0c114c
0c114c
0c9f4c
0c914c
0fd14c
fcd10c
70d10c
40173c
001318
ENDCHAR
STARTCHAR ch-341
ENCODING 341
SWIDTH 1000 0
DWIDTH 24 0
BBX 24 24 0 -3
BITMAP
0600e0
0600c0
0d00c0
0cc0c0
1860c0
1768c6
260fff
460cc6
bfccc6
30ccc6
30ccc6
3fccc6
30ccc6
30ccc6
30cffe
3fccc6
30c0c0
3200c0
3100c8
3180c4
36c0c6
f8dffb
60cf83
400803
ENDCHAR
STARTCHAR ch-343
ENCODING 343
SWIDTH 1000 0
DWIDTH 24 0
BBX 24 24 0 -3
BITMAP
0e0080
0c00e0
0c00c0
0c088c
0c0ffe
4c8c0c
7fcc0c
4c8ffc
4c8c0c
4c8c0c
4c8ffc
4c8c0c
4c8000
7f800c
4c9ffe
0c00c0
0c00c0
0c80c8
0c8ffc
0fc0c0
fcc0c0
7000c6
403fff
000000
ENDCHAR
STARTCHAR ch-345
ENCODING 345
SWIDTH 1000 0
DWIDTH 24 0
BBX 24 24 0 -3
BITMAP
0e0006
0c7fff
0c0000
0c0000
0c1ffc
4c980c
7fd80c
4c980c
4c9ffc
4c9800
4c9806
4c9fff
4c9926
7f9926
4cb926
0c3926
0d2ffe
0da926
0fe926
fcc926
704926
408926
00081e
00080c
ENDCHAR
STARTCHAR ch-351
ENCODING 351
SWIDTH 1000 0
DWIDTH 24 0
BBX 24 24 0 -3
BITMAP
0e1006
0c1fff
0c18c6
0c18c6
0c1ffe
4c98c6
7fd8c6
4c98c6
4c9ffe
4c9806
4c8000
4c8ffc
4c8c0c
7f8c0c
4c8ffc
0c0c0c
0c0c0c
0c8ffc
0c8c0c
0fcc0c
fccc0c
70cc0c
400c7c
000c18
ENDCHAR
STARTCHAR ch-352
ENCODING 352
SWIDTH 1000 0
DWIDTH 24 0
BBX 24 24 0 -3
BITMAP
0e0006
0c1fff
0c0000
0c0000
0c080c
4c8ffe
7fcc0c
4c8c0c
4c8c0c
4c8ffc
4c8c0c
4c8000
4c9006
7f9fff
4c98c6
0c18c6
0c18c6
0c9ffe
0c98c6
0fd8c6
fcd8c6
70dffe
401806
001806
ENDCHAR
STARTCHAR ch-355
ENCODING 355
SWIDTH 1000 0
DWIDTH 24 0
BBX 24 24 0 -3
BITMAP
0e1c40
0c1870
0c1860
0c1860
0c1846
4cffff
7f9080
4c910c
4c90fe
4c900c
4c9208
4c9f28
4c9230
7f9236
4c93ff
0c1230
0c1230
0d3230
0d2230
0fa230
fda630
706630
405cf0
008c60
ENDCHAR
STARTCHAR ch-358
ENCODING 358
SWIDTH 1000 0
DWIDTH 24 0
BBX 24 24 0 -3
BITMAP
002186
0e3fbf
0c3186
0c3186
0c3186
4cb186
7ff186
4cbfbe
4cb186
4cb000
4cb000
4cb0fe
7fb246
4cbf46
4c3044
0c302c
0d302c
0d3328
0fbf98
f9b030
61b028
40306c
0030c7
003306
ENDCHAR
STARTCHAR ch-360
ENCODING 360
SWIDTH 1000 0
DWIDTH 24 0
BBX 24 24 0 -3
BITMAP
000060
3ffff0
000060
00e060
00c062
00c632
3fff32
01801b
03000f
060006
080000
070070
466466
7ff7ff
666666
666666
666666
7fe7fe
660660
064064
062062
fff7ff
7c33c3
403203
ENDCHAR
STARTCHAR ch-362
ENCODING 362
SWIDTH 1000 0
DWIDTH 24 0
BBX 24 24 0 -3
BITMAP
0e0818
0c0ffc
0c0c18
0c0c18
0c0ff8
4c8c18
7fcc18
4c8c18
4c8ff8
4c8000
4c8006
4cbfff
4c8600
7f8406
4c8fff
0c0936
0c1326
0ca266
0c8446
0fc886
fcd10e
70c20c
40047c
000018
ENDCHAR
STARTCHAR ch-366
ENCODING 366
SWIDTH 1000 0
DWIDTH 24 0
BBX 24 24 0 -3
BITMAP
000800
0e0e00
0c0c06
0c1fff
0c1000
4ca000
7fcffc
4c8c0c
4c8c0c
4c8ffc
4c8c0c
4c8c0c
4c8ffc
7f8300
4c8200
0c07fc
0c0418
0c8a30
0cb160
0fc1c0
fcc370
70c63f
40181e
006006
ENDCHAR
STARTCHAR ch-372
ENCODING 372
SWIDTH 1000 0
DWIDTH 24 0
BBX 24 24 0 -3
BITMAP
0e0e46
0c0c7f
0c0c46
0c0c46
0c0c46
4c8c46
7fffc6
4c8c7e
4c8c46
4c8c46
4c8c46
4c9e46
4c9246
7f9246
4c927e
0c1246
0c1246
0c9246
0c9246
0fdec6
fcc086
70c086
40011e
00020c
ENDCHAR
STARTCHAR ch-374
ENCODING 374
SWIDTH 1000 0
DWIDTH 24 0
BBX 24 24 0 -3
BITMAP
001ccc
0e1888
0c1888
0c188a
0c7fff
4c1888
7f9888
4c9888
4c98f8
4c9800
4c9804
4c9ffe
4c9800
7f81c0
4c0186
4c7fff
0d03a0
0c87a0
0fc590
fccd98
70198f
40318e
00c186
000180
ENDCHAR
STARTCHAR ch-376
ENCODING 376
SWIDTH 1000 0
DWIDTH 24 0
BBX 24 24 0 -3
BITMAP
0e0418
0c07fc
0c0618
0c0618
0c0618
4c86f8
7fc698
4c8698
4c8698
4c969a
4c9fff
4c9806
4c9806
7f99e6
4c9926
0c1926
0c1926
0c9926
0c9926
0fd9e6
fcd806
70d806
40183e
00180c
ENDCHAR
STARTCHAR ch-383
ENCODING 383
SWIDTH 1000 0
DWIDTH 24 0
BBX 24 24 0 -3
BITMAP
0e1008
0c1ffc
0c1108
0c1108
0c1ff8
4c9108
7fd108
4c9108
4c9ff8
4c8100
4ca104
4cbffe
4ca104
7fa104
4ca104
0c3ffc
0c2104
0d2104
0d2104
0fbffc
fda102
718103
4001ff
0000fe
ENDCHAR
STARTCHAR ch-386
ENCODING 386
SWIDTH 1000 0
DWIDTH 24 0
BBX 24 24 0 -3
BITMAP
0c1c46
08187f
081846
081846
087e44
494244
7f424c
494248
497e48
494250
494248
49424c
497e44
7f4046
494046
084846
084446
084646
0a4246
0a7f5e
fff34c
72c340
408040
000040
ENDCHAR
STARTCHAR ch-397
ENCODING 397
SWIDTH 1000 0
DWIDTH 24 0
BBX 24 24 0 -3
BITMAP
003070
fff860
000060
000060
3fe264
3063fe
306264
306264
3fe264
000264
403264
7ffa64
653264
653264
6533fc
68f264
703060
6fb060
623068
623064
623066
6237fb
60f3c3
606203
ENDCHAR
STARTCHAR ch-415
ENCODING 415
SWIDTH 1000 0
DWIDTH 24 0
BBX 24 24 0 -3
BITMAP
0e0800
0c0806
0c1fff
0c3006
0c3004
4c8000
7fcff8
4c8c18
4c8c18
4c8ff8
4c8c18
4c8c18
4c8c18
7f8ff8
4c8000
0c01c0
0c0186
0cbfff
0c8000
0fc420
fcc718
70ce0c
40180e
006006
ENDCHAR
STARTCHAR ch-418
ENCODING 418
SWIDTH 1000 0
DWIDTH 24 0
BBX 24 24 0 -3
BITMAP
0180c0
092488
09349c
196cb0
130980
028140
046230
282410
200006
7fffff
600006
c01c04
c81830
0ffff8
0c1830
0c1830
0c1830
0ffff0
0c1800
001840
001830
7fffd8
3fe01c
20000c
ENDCHAR
STARTCHAR ch-427
ENCODING 427
SWIDTH 1000 0
DWIDTH 24 0
BBX 24 24 0 -3
BITMAP
038100
0321c0
3ff180
030186
0311ff
7ffb08
0cc28c
4cc498
6cf070
48d860
98d8f8
10c19f
27c606
419800
081830
0ffff8
0c1830
0c1830
0ffff0
0c1840
001830
7fffdc
3fe00e
200006
ENDCHAR
STARTCHAR ch-431
ENCODING 431
SWIDTH 1000 0
DWIDTH 24 0
BBX 24 24 0 -3
BITMAP
070100
0601c0
7ff180
060186
fffbff
060208
06050c
fff918
0c00b0
0fe060
1860f8
10e19f
27c606
c19800
101818
1ffffc
181818
181818
1ffff8
181840
001830
7fffdc
3fe00e
200006
ENDCHAR
STARTCHAR ch-435
ENCODING 435
SWIDTH 1000 0
DWIDTH 24 0
BBX 24 24 0 -3
BITMAP
0e01c0
0c1188
0c098c
0c0d98
0c0d90
4c91a6
7f9fff
4cb006
4cb004
4c8ff8
4c8c18
4c8c18
4c8c18
7f8ff8
4c8180
0c0180
0c0198
0c9ffc
0c8180
0fc180
fcc180
700186
407fff
000000
ENDCHAR
STARTCHAR ch-442
ENCODING 442
SWIDTH 1000 0
DWIDTH 24 0
BBX 24 24 0 -3
BITMAP
0e1004
0c1ffe
0c1084
0c1084
4c9ffc
7fd084
4c9084
4c9ffc
4c8200
4c8340
4c9270
4c8c60
7f84c8
4c8104
0c3ffe
0d1f86
0c8186
0fd190
fcdd88
70d98c
403186
002186
004186
000180
ENDCHAR
STARTCHAR ch-443
ENCODING 443
SWIDTH 1000 0
DWIDTH 24 0
BBX 24 24 0 -3
BITMAP
0e00e0
0c08c4
0c0ffe
0c08c4
0c08c4
4cbfff
7fc8c4
4c88c4
4c8ffc
4c80c0
4c9ffe
4c90c2
4c90c2
7f9ffe
4c8180
0c0186
0c3fff
0c8318
0c8638
0fce30
fccde0
70c0fc
40039e
003c06
ENDCHAR
STARTCHAR ch-445
ENCODING 445
SWIDTH 1000 0
DWIDTH 24 0
BBX 24 24 0 -3
BITMAP
004000
0060c0
00ffe0
01c1c0
064380
183700
001c00
007700
01c1f0
0f3e7f
f0060e
00f800
001f00
070770
460062
7fe7ff
462462
462462
7fe7fe
060060
064064
ffe7fe
7c33c3
403203
ENDCHAR
STARTCHAR ch-448
ENCODING 448
SWIDTH 1000 0
DWIDTH 24 0
BBX 24 24 0 -3
BITMAP
0e01c0
0c0180
0c0186
0c7fff
0c0100
4ca184
7f910e
4c9a0c
4c9b50
4c8160
4c80c8
4c8486
4c9923
7ff7f3
4ca630
0c0000
0c0186
0cbfff
0c8180
0fc180
fcc180
70c180
400180
000180
ENDCHAR
STARTCHAR ch-452
ENCODING 452
SWIDTH 1000 0
DWIDTH 24 0
BBX 24 24 0 -3
BITMAP
0701c0
060180
7fe180
060198
060ffc
fff198
204198
108d18
fff71a
06039a
0602db
7fe2df
06040e
061800
081830
0ffff8
0c1830
0c1830
0ffff0
0c1840
001830
7fffdc
3fe00e
200006
ENDCHAR
STARTCHAR ch-454
ENCODING 454
SWIDTH 1000 0
DWIDTH 24 0
BBX 24 24 0 -3
BITMAP
0e0738
0c0630
0c0632
0c7fff
0c0630
4c8630
7fdffc
4c980c
4c980c
4c9ffc
4c980c
4c980c
4c980c
7f9ffc
4c8180
0c0186
0c7fff
0c8180
0c8340
0fc320
fcc638
70cc1f
40180e
006006
ENDCHAR
STARTCHAR ch-455
ENCODING 455
SWIDTH 1000 0
DWIDTH 24 0
BBX 24 24 0 -3
BITMAP
00e380
00c306
ffffff
00c300
07ffe0
060060
07ffe0
060060
060060
07ffe0
003006
ffffff
00c100
0198c0
071878
1fffff
e61866
061860
07ffe0
001880
001860
3fffb8
1ff01c
10000c
ENDCHAR
STARTCHAR ch-459
ENCODING 459
SWIDTH 1000 0
DWIDTH 24 0
BBX 24 24 0 -3
BITMAP
0e0038
0c01fc
0c3fc0
0c0188
0c219c
4c9990
7f89a6
4cffff
4c87a0
4c8d90
4c8d98
4c998f
4cb18e
7fc006
4c8100
0c00c0
0c0660
0c8668
0c9606
0fd613
fcd613
703618
4037f8
0003f0
ENDCHAR
STARTCHAR ch-464
ENCODING 464
SWIDTH 1000 0
DWIDTH 24 0
BBX 24 24 0 -3
BITMAP
0e08e4
0c04c6
0c06cc
0c06c8
0c10d2
4c9fff
7fb006
4cb004
4c87f8
4c8618
4c8618
4c8618
4c87f8
7f80c0
4c90c6
0c1fff
0c18c6
0c98c6
0c98c6
0fd8c6
fcd8de
70d8cc
4000c0
0000c0
ENDCHAR
STARTCHAR ch-466
ENCODING 466
SWIDTH 1000 0
DWIDTH 24 0
BBX 24 24 0 -3
BITMAP
0e0e1c
0c0c18
0c7fff
0c0c18
0c0c18
4c81c0
7fc180
4c818c
4cbffe
4c8320
4c8310
4c861c
4c8c0f
7fb006
4c8630
0c0630
0c0632
0d7fff
0d8630
0f8630
fc8c30
700c30
401830
006030
ENDCHAR
STARTCHAR ch-480
ENCODING 480
SWIDTH 1000 0
DWIDTH 24 0
BBX 24 24 0 -3
BITMAP
0e0038
0c01fc
0c1fc0
0c00c4
0c08ce
4c86c8
7fc2d0
4cbfff
4c86d0
4c84d8
4c8ccc
4c98cf
4ca0c6
7f8000
4c9ffe
0c18c6
0c18c6
0c98c6
0c9ffe
0fd8c6
fcd8c6
70d8c6
401ffe
001806
ENDCHAR
STARTCHAR ch-495
ENCODING 495
SWIDTH 1000 0
DWIDTH 24 0
BBX 24 24 0 -3
BITMAP
0e01c0
0c0188
0c1ffc
0c0180
0c0184
4cbffe
7fc000
4c8c18
4c8810
4cbf7e
4c8810
4c8810
4c8e12
7ff8ff
4ca000
0c0000
0c3ffe
0c8660
0c8660
0fcc62
fccc62
701863
40307f
00c03e
ENDCHAR
STARTCHAR ch-498
ENCODING 498
SWIDTH 1000 0
DWIDTH 24 0
BBX 24 24 0 -3
BITMAP
001c00
041860
07fff0
061860
061860
07ffe0
061860
001880
001860
1ffff0
0fe030
000000
070070
466466
7ff7ff
666666
666666
666666
7fe7fe
060060
064064
ffe7fe
7c33c3
403203
ENDCHAR
STARTCHAR ch-502
ENCODING 502
SWIDTH 1000 0
DWIDTH 24 0
BBX 24 24 0 -3
BITMAP
0e0180
0c7fc6
0c113f
0c1126
0c1f26
4c9126
7fd126
4c9f26
4c9126
4c9126
4cff3e
4cb126
4c8100
7f8030
4c81f8
0c1f80
0c0180
0c818c
0cbffe
0fc180
fcc180
700186
407fff
000000
ENDCHAR
STARTCHAR ch-503
ENCODING 503
SWIDTH 1000 0
DWIDTH 24 0
BBX 24 24 0 -3
BITMAP
0e08e4
0c04c6
0c06cc
0c06c8
0c10d2
4c9fff
7fb006
4cb004
4c87f8
4c8408
4c8408
4c87f8
4c8000
7f9006
4c9fff
0c18c6
0c18c6
0c98c6
0c9ffe
0fd8c6
fcd8c6
70d8c6
401ffe
001806
ENDCHAR
STARTCHAR ch-505
ENCODING 505
SWIDTH 1000 0
DWIDTH 24 0
BBX 24 24 0 -3
BITMAP
180006
1fc7ff
10c0c6
3080c6
3fe19e
52260c
922000
1fe270
122360
1227fe
3fe860
302060
202fff
63e060
40dc60
801800
1ffff8
181818
181818
1ffff8
001820
001818
7fffee
3f8006
ENDCHAR
STARTCHAR ch-507
ENCODING 507
SWIDTH 1000 0
DWIDTH 24 0
BBX 24 24 0 -3
BITMAP
000830
0e0620
0c0244
0c3ffe
0c0180
4c8180
7f9ffc
4c8180
4c8182
4cffff
4c8000
4c8268
4c8f66
7fbc62
4c8c60
0c7fff
0d0c64
0d0c26
0f8f2c
f9fc18
61ac3a
400c6e
007d87
001803
ENDCHAR
STARTCHAR ch-510
ENCODING 510
SWIDTH 1000 0
DWIDTH 24 0
BBX 24 24 0 -3
BITMAP
0e0800
0c0c60
0c1ff0
0c1840
0c3086
4cffff
7fb330
4cb330
4cb23e
4cb41e
4cb800
4cb3f8
7fb000
4cbffe
0c3000
0c33f8
0d2000
0d23f8
0fe000
fcc7fc
70460c
40860c
0007fc
00060c
ENDCHAR
ENDFONT
