STARTFONT 2.1
FONT jis.jis8c00.24
SIZE 24 72 72
FONTBOUNDINGBOX 24 24 0 -3
STARTPROPERTIES 4
FONT_DESCENT 3
FONT_ASCENT 21
DEFAULT_CHAR 55
COPYRIGHT "Copyright (c) 1992 AT&T - All rights reserved."
ENDPROPERTIES
CHARS 132
STARTCHAR ch-55
ENCODING 55
SWIDTH 1000 0
DWIDTH 24 0
BBX 24 24 0 -3
BITMAP
010000
01c300
0380c0
030070
060038
0c1818
183800
603400
006200
00c300
018180
0300c0
060070
0c003f
30001e
c3ffc6
0300c0
0300c0
0300c0
0300c0
0300c0
03ffc0
0300c0
0300c0
ENDCHAR
STARTCHAR ch-58
ENCODING 58
SWIDTH 1000 0
DWIDTH 24 0
BBX 24 24 0 -3
BITMAP
10000c
1c8ffe
184318
186318
303318
203318
460318
860318
0d0318
0c831e
185fff
106038
203078
403078
a0c058
3fe0d8
30c098
30c198
30c118
30c218
30c418
30d818
3fc0f8
30c030
ENDCHAR
STARTCHAR ch-63
ENCODING 63
SWIDTH 1000 0
DWIDTH 24 0
BBX 24 24 0 -3
BITMAP
00c200
07e390
7e0308
08230c
863606
6264c6
2448c0
0600e0
4c81a0
31c1b0
198110
1b0318
04420c
08240f
fff806
7033f8
060318
060318
fff318
060318
0d0318
18c318
3063f8
c06318
ENDCHAR
STARTCHAR ch-65
ENCODING 65
SWIDTH 1000 0
DWIDTH 24 0
BBX 24 24 0 -3
BITMAP
070200
460390
466308
7ff30c
c06606
c644c6
0608c0
7fe0e0
0601a0
0601b0
7fe110
060318
06020c
fff40f
000806
0007f8
40c618
7fe618
60c618
60c618
60c618
60c618
7fc7f8
60c618
ENDCHAR
STARTCHAR ch-70
ENCODING 70
SWIDTH 1000 0
DWIDTH 24 0
BBX 24 24 0 -3
BITMAP
000000
000018
3ffffc
000000
000000
040060
07fff0
060060
060060
060060
060060
060060
07ffe0
060060
000000
020100
0101c0
018180
00c180
00c300
00c200
000406
ffffff
000000
ENDCHAR
STARTCHAR ch-72
ENCODING 72
SWIDTH 1000 0
DWIDTH 24 0
BBX 24 24 0 -3
BITMAP
001c00
1c181c
181818
181818
181818
1ffff8
180018
000000
000006
ffffff
000000
000000
0ffff0
0c0030
0c0030
0c0030
0ffff0
020080
0100c0
018180
018100
000206
ffffff
000000
ENDCHAR
STARTCHAR ch-74
ENCODING 74
SWIDTH 1000 0
DWIDTH 24 0
BBX 24 24 0 -3
BITMAP
006300
104218
1ffffc
184218
184218
1ffff8
184218
184218
1ffff8
000000
000000
7ffffe
000000
000000
0ffff0
0c0030
0c0030
0ffff0
020100
0181c0
00c180
00c206
ffffff
000000
ENDCHAR
STARTCHAR ch-76
ENCODING 76
SWIDTH 1000 0
DWIDTH 24 0
BBX 24 24 0 -3
BITMAP
0001c0
019180
ffd186
003fff
003006
436004
7f7808
631000
631244
631f7e
631244
7f1244
633244
002244
023a44
434e44
23045c
32044c
360c40
040842
071842
fc1043
70207f
40c03e
ENDCHAR
STARTCHAR ch-78
ENCODING 78
SWIDTH 1000 0
DWIDTH 24 0
BBX 24 24 0 -3
BITMAP
406000
7ff00c
6207fe
62020c
7fe118
606198
6060f0
7fe060
6200f8
62019f
7ff606
600000
000018
3ffffc
000000
07ffe0
060060
060060
07ffe0
020080
018180
008206
ffffff
000000
ENDCHAR
STARTCHAR ch-80
ENCODING 80
SWIDTH 1000 0
DWIDTH 24 0
BBX 24 24 0 -3
BITMAP
011c80
6fdbf7
611886
611886
6fdbf6
611886
611886
6fdbf6
611886
601806
7ffffe
000000
000018
3ffffc
000000
0ffff0
0c0030
0c0030
0ffff0
020080
018180
008206
ffffff
000000
ENDCHAR
STARTCHAR ch-85
ENCODING 85
SWIDTH 1000 0
DWIDTH 24 0
BBX 24 24 0 -3
BITMAP
000000
000006
ffffff
003800
007000
00e000
01c010
03201c
0c3038
707870
00e8c0
01cd00
071e00
0c3d00
383d80
c06cc0
00cce0
018c78
030c3f
0c0c1e
301c06
c01800
00f800
003000
ENDCHAR
STARTCHAR ch-90
ENCODING 90
SWIDTH 1000 0
DWIDTH 24 0
BBX 24 24 0 -3
BITMAP
230000
3f0006
33ffff
330300
330300
330600
330d04
3f1987
336386
3302c4
3304c8
3308e0
3310e0
3f61d0
3303d0
3302c8
3304cc
3308cf
2310c6
2360c6
6301c0
430180
4f0f80
860300
ENDCHAR
STARTCHAR ch-97
ENCODING 97
SWIDTH 1000 0
DWIDTH 24 0
BBX 24 24 0 -3
BITMAP
008000
01c180
01ffc0
030300
060418
0ffffc
1c1818
2c1818
cc1818
0ffff8
0c1c00
003808
00ec0e
07041c
780e30
003740
00c680
070ec0
781660
006638
01861f
0e0e0e
707c06
001800
ENDCHAR
STARTCHAR ch-98
ENCODING 98
SWIDTH 1000 0
DWIDTH 24 0
BBX 24 24 0 -3
BITMAP
081040
061c60
0318c0
031910
1ffff8
003400
006204
7ffffe
00c180
0180c0
030070
0dffbf
30301e
c06026
019070
0618c0
386d00
018e00
061d80
386c60
018c38
0e1c1c
70f80c
003000
ENDCHAR
STARTCHAR ch-106
ENCODING 106
SWIDTH 1000 0
DWIDTH 24 0
BBX 24 24 0 -3
BITMAP
001c00
001806
ffffff
000000
03ffc0
0300c0
0300c0
13ffc0
100006
3fffff
300006
600004
67ffe8
006000
019030
063878
384d80
019e00
063d00
386cc0
018c7e
0e0c3c
707c0c
001800
ENDCHAR
STARTCHAR ch-107
ENCODING 107
SWIDTH 1000 0
DWIDTH 24 0
BBX 24 24 0 -3
BITMAP
000800
018c60
7fcff0
019860
011040
1a2080
0c5ffc
0c188c
00d88c
fff88c
0cdffc
0c8300
0d0708
0c0d8e
0c198c
0c62d8
0c04e0
0c19d0
0c62d8
0c04cc
0c18cf
0ce1c6
7c0f80
180300
ENDCHAR
STARTCHAR ch-108
ENCODING 108
SWIDTH 1000 0
DWIDTH 24 0
BBX 24 24 0 -3
BITMAP
00c1c4
ffe187
0c0186
0c0186
181ffc
10818c
28c198
4c8190
9d01a6
163fff
3600c0
270180
46820c
8ec7fe
1ece0c
16160c
26660c
4607fc
86060c
06060c
06060c
0c060c
7c07fc
18060c
ENDCHAR
STARTCHAR ch-120
ENCODING 120
SWIDTH 1000 0
DWIDTH 24 0
BBX 24 24 0 -3
BITMAP
000300
000780
000e00
003800
01e630
0e0378
0060e0
0033c0
000f00
003c00
01e400
3e0600
000f00
001900
006180
038380
1c0780
000d80
003980
00e180
070180
380300
003f00
000600
ENDCHAR
STARTCHAR ch-121
ENCODING 121
SWIDTH 1000 0
DWIDTH 24 0
BBX 24 24 0 -3
BITMAP
010200
038380
070300
0c0300
304600
c66606
02c7ff
318c06
130806
061006
192406
618306
028186
04c186
18c186
61c006
03c006
06c00e
0cc00c
30c00c
c1c00c
018018
0f80f8
030030
ENDCHAR
STARTCHAR ch-122
ENCODING 122
SWIDTH 1000 0
DWIDTH 24 0
BBX 24 24 0 -3
BITMAP
010038
038030
070030
0c0030
304030
c66030
02c036
319fff
130070
060070
1900f0
6180f0
0281b0
04c130
18c330
61c230
03c430
06c830
0cd030
30c030
c1c030
018030
0f81f0
030060
ENDCHAR
STARTCHAR ch-124
ENCODING 124
SWIDTH 1000 0
DWIDTH 24 0
BBX 24 24 0 -3
BITMAP
011c70
039860
071860
0c1860
309860
ccd860
059864
631867
261b6e
0c1ff8
321860
c71860
0d1860
199860
239860
c79860
059860
099860
119862
219862
c39fe2
037e63
1f387f
06203e
ENDCHAR
STARTCHAR ch-130
ENCODING 130
SWIDTH 1000 0
DWIDTH 24 0
BBX 24 24 0 -3
BITMAP
010000
038006
071fff
0c0186
304186
c66306
02c306
318206
13060c
06040c
19087c
619018
028000
04c80c
18cffe
61cc0c
03cc0c
06cc0c
0ccc0c
30cc0c
c1cc0c
018ffc
0f8c0c
030c0c
ENDCHAR
STARTCHAR ch-133
ENCODING 133
SWIDTH 1000 0
DWIDTH 24 0
BBX 24 24 0 -3
BITMAP
040870
060e60
0c0c60
180c60
311860
c99866
0b1fff
663860
2c3860
1858f0
3498f0
c618f0
0e18f8
1b19e8
331968
c7196c
0f1b64
1b1a67
331c66
c31862
031860
061860
3e1860
0c1860
ENDCHAR
STARTCHAR ch-137
ENCODING 137
SWIDTH 1000 0
DWIDTH 24 0
BBX 24 24 0 -3
BITMAP
010200
038380
070300
0c0618
3047fc
c66c18
02ca30
319230
132160
0600c0
1901e0
618330
02861c
04cc0f
18f006
61cff8
03cc18
06cc18
0ccc18
30cc18
c1cc18
018ff8
0f8c18
030c18
ENDCHAR
STARTCHAR ch-138
ENCODING 138
SWIDTH 1000 0
DWIDTH 24 0
BBX 24 24 0 -3
BITMAP
010000
038006
073fff
0c00c0
3040c0
c66080
02c180
31890c
130ffe
060c0c
190c0c
618c0c
028c0c
04cc0c
18cffc
61cc0c
03cc0c
06cc0c
0ccc0c
30cc0c
c1cc0c
018ffc
0f8c0c
030c0c
ENDCHAR
STARTCHAR ch-140
ENCODING 140
SWIDTH 1000 0
DWIDTH 24 0
BBX 24 24 0 -3
BITMAP
018200
07c380
1c130c
e81ffe
06580c
42f80c
31d80c
139ffc
06180c
0c180c
36180c
ca1ffc
0b186c
130460
258760
c58660
098660
118660
218662
c18c62
038c62
031863
1f307f
06c03e
ENDCHAR
STARTCHAR ch-141
ENCODING 141
SWIDTH 1000 0
DWIDTH 24 0
BBX 24 24 0 -3
BITMAP
010000
03900c
071ffe
0c198c
30998c
ccd98c
05998c
631ffc
26198c
0c198c
32198c
c7198c
0d1ffc
19998c
238180
c78180
058198
099ffc
118180
218180
c38180
030186
1f7fff
060000
ENDCHAR
STARTCHAR ch-142
ENCODING 142
SWIDTH 1000 0
DWIDTH 24 0
BBX 24 24 0 -3
BITMAP
018100
07c380
1c160c
e8187e
06580c
42f80c
31da0c
139f3c
06180c
0c180c
36180c
ce180c
0b1ffc
131860
278060
c58460
098760
118660
218662
c18c62
038c62
031863
1f307f
06c03e
ENDCHAR
STARTCHAR ch-148
ENCODING 148
SWIDTH 1000 0
DWIDTH 24 0
BBX 24 24 0 -3
BITMAP
010200
038380
07230c
0c3ffe
30b00c
ccf44c
05b26c
6331cc
26318c
0c336c
32342c
c7300c
0d3ffc
198000
239ce0
c798c4
0598ce
099fd8
1198e0
2198c2
c398c2
037fc3
1f38ff
06207e
ENDCHAR
STARTCHAR ch-152
ENCODING 152
SWIDTH 1000 0
DWIDTH 24 0
BBX 24 24 0 -3
BITMAP
010738
038630
070636
0c7fff
308630
ccc630
059ffc
63180c
26180c
0c1ffc
32180c
c7180c
0d180c
199ffc
238180
c78180
058186
09ffff
118340
218320
c38638
030c1f
1f180e
066006
ENDCHAR
STARTCHAR ch-157
ENCODING 157
SWIDTH 1000 0
DWIDTH 24 0
BBX 24 24 0 -3
BITMAP
080030
0ffff8
0c0030
0c0030
0c0030
0c0030
0ffff0
0c0030
0c0030
0c0030
0c0030
0ffff0
0c0030
0c0030
0c0030
0c0030
0c0030
0ffff0
0c8030
00e180
01c060
038038
0e001c
70000c
ENDCHAR
STARTCHAR ch-158
ENCODING 158
SWIDTH 1000 0
DWIDTH 24 0
BBX 24 24 0 -3
BITMAP
001c00
001800
001830
001ff8
001800
041860
07fff0
060060
060060
060060
07ffe0
060060
060060
060060
07ffe0
060060
060060
060060
07ffe0
010000
01c180
038070
0e0038
300018
ENDCHAR
STARTCHAR ch-160
ENCODING 160
SWIDTH 1000 0
DWIDTH 24 0
BBX 24 24 0 -3
BITMAP
010000
01c180
03ffc0
030300
060200
0c0460
17fff0
660060
060060
060060
07ffe0
060060
060060
060060
07ffe0
060060
060060
060060
07ffe0
010000
03c1c0
070078
1c001c
60000c
ENDCHAR
STARTCHAR ch-161
ENCODING 161
SWIDTH 1000 0
DWIDTH 24 0
BBX 24 24 0 -3
BITMAP
20c038
3fe030
30c030
30c030
30c030
30c036
3fdfff
30c030
30c030
30c070
30c070
3fc0f0
30c0f0
30c1b0
30c1b0
30c330
3fc630
000c30
113030
1c8030
18c030
306030
6061f0
800060
ENDCHAR
STARTCHAR ch-162
ENCODING 162
SWIDTH 1000 0
DWIDTH 24 0
BBX 24 24 0 -3
BITMAP
000000
000030
1ffff8
001800
001800
001806
ffffff
000000
000000
0ffff0
0c0030
0c0030
0ffff0
0c0030
0c0030
0ffff0
0c0030
0c0030
0ffff0
008000
01e380
038078
0e001e
700006
ENDCHAR
STARTCHAR ch-167
ENCODING 167
SWIDTH 1000 0
DWIDTH 24 0
BBX 24 24 0 -3
BITMAP
008100
00e080
01c0c0
030070
07fffc
0c60df
30c1c6
c18f80
030300
0c0000
37ffe0
060060
060060
07ffe0
060060
060060
07ffe0
060060
060060
07ffe0
018000
03c1f0
0e003c
70000c
ENDCHAR
STARTCHAR ch-168
ENCODING 168
SWIDTH 1000 0
DWIDTH 24 0
BBX 24 24 0 -3
BITMAP
010000
01ce18
038c3c
070ce0
0e0f02
360c03
c60fff
0607fe
000000
000000
07ffe0
060060
060060
07ffe0
060060
060060
07ffe0
060060
060060
07ffe0
010000
03c1c0
0f003c
70000c
ENDCHAR
STARTCHAR ch-169
ENCODING 169
SWIDTH 1000 0
DWIDTH 24 0
BBX 24 24 0 -3
BITMAP
218000
3fc806
318fff
318c00
318c00
318c00
3f8c00
318c18
318ffc
318d18
318d18
3f8d18
318d18
318db0
318cb0
318ca0
318ce0
3f8840
0008e0
2219b0
391118
31921f
61a40e
804806
ENDCHAR
STARTCHAR ch-170
ENCODING 170
SWIDTH 1000 0
DWIDTH 24 0
BBX 24 24 0 -3
BITMAP
001800
003c00
007200
00c180
01fee0
030078
0c019f
33ffc6
c00300
000600
07ffe0
060060
060060
07ffe0
060060
060060
07ffe0
060060
060060
07ffe0
018000
03c1f0
0e003c
70000c
ENDCHAR
STARTCHAR ch-171
ENCODING 171
SWIDTH 1000 0
DWIDTH 24 0
BBX 24 24 0 -3
BITMAP
040060
07fff0
061860
061866
ffffff
061860
061860
07ffe0
000000
080030
0ffff8
0c0030
0c0030
0ffff0
0c0030
0c0030
0ffff0
0c0030
0c0030
0ffff0
010000
03c0f8
0f001e
700006
ENDCHAR
STARTCHAR ch-172
ENCODING 172
SWIDTH 1000 0
DWIDTH 24 0
BBX 24 24 0 -3
BITMAP
001c00
001818
3ffffc
001800
001830
1ffff8
001800
001806
ffffff
000000
07ffe0
060060
060060
07ffe0
060060
060060
07ffe0
060060
060060
07ffe0
018000
03c1f0
0e003c
70000c
ENDCHAR
STARTCHAR ch-173
ENCODING 173
SWIDTH 1000 0
DWIDTH 24 0
BBX 24 24 0 -3
BITMAP
000038
200ffc
3ffe00
300000
300700
300606
37ffff
300600
300600
31fff8
318018
318018
31fff8
318018
318018
31fff8
218018
218018
61fff8
400000
4040c0
80f038
03c00e
0c0006
ENDCHAR
STARTCHAR ch-174
ENCODING 174
SWIDTH 1000 0
DWIDTH 24 0
BBX 24 24 0 -3
BITMAP
0001d0
00318c
3ff984
000180
000186
ffffff
000180
000180
103180
1ff980
183180
183180
1ff1c0
1830c0
1830c0
1ff0c0
1830e0
183062
1ff072
000032
08403a
1e301f
38180f
c01806
ENDCHAR
STARTCHAR ch-175
ENCODING 175
SWIDTH 1000 0
DWIDTH 24 0
BBX 24 24 0 -3
BITMAP
20c0e0
3fe0c0
30c8c0
30c8c6
30cfff
30d806
3fd804
30c008
30c000
30c000
30c006
3fdfff
30c0c0
30c0c0
30c0c0
30c0c0
30c0c0
3fc0c0
1000c0
1d00c0
18c0c0
3060c0
6067c0
800180
ENDCHAR
STARTCHAR ch-176
ENCODING 176
SWIDTH 1000 0
DWIDTH 24 0
BBX 24 24 0 -3
BITMAP
0739c0
063180
063186
ffffff
063180
063180
063f80
060030
07fff8
060000
000000
07ffe0
060060
060060
07ffe0
060060
060060
07ffe0
060060
060060
07ffe0
018000
07c1fc
7c001c
ENDCHAR
STARTCHAR ch-178
ENCODING 178
SWIDTH 1000 0
DWIDTH 24 0
BBX 24 24 0 -3
BITMAP
038380
03030c
3b333e
33fbf0
330302
330302
330303
33f3ff
ff81fe
780000
47ffe0
060060
060060
07ffe0
060060
060060
07ffe0
060060
060060
07ffe0
018000
03c1f0
0f003c
70000c
ENDCHAR
STARTCHAR ch-179
ENCODING 179
SWIDTH 1000 0
DWIDTH 24 0
BBX 24 24 0 -3
BITMAP
0001d0
00018c
000184
000180
ffffff
000180
000180
1ff180
000180
7ffd80
000180
1ff180
1831c0
1ff0c0
1830c0
1830c0
1ff0e0
183062
183072
1ff032
08003a
0e701f
181c0f
600c06
ENDCHAR
STARTCHAR ch-180
ENCODING 180
SWIDTH 1000 0
DWIDTH 24 0
BBX 24 24 0 -3
BITMAP
001c00
041860
07fff0
061860
061860
07ffe0
061860
001806
ffffff
000000
07ffe0
060060
060060
07ffe0
060060
060060
07ffe0
060060
060060
07ffe0
00c000
01e3e0
078078
380018
ENDCHAR
STARTCHAR ch-182
ENCODING 182
SWIDTH 1000 0
DWIDTH 24 0
BBX 24 24 0 -3
BITMAP
218018
3fc07c
3183e0
319e00
3181c0
318180
3f8180
31818c
31bffe
31801c
318018
3f8038
318030
318060
318060
3180c0
318880
3f8900
001a00
221400
393600
31f380
61b1ff
80207e
ENDCHAR
STARTCHAR ch-183
ENCODING 183
SWIDTH 1000 0
DWIDTH 24 0
BBX 24 24 0 -3
BITMAP
100018
1ffffc
184218
184218
184218
1ffff8
180018
000000
07ffe0
060060
060060
07ffe0
060060
060060
07ffe0
060060
060060
060060
07ffe0
010000
01c180
038070
0e001c
30000c
ENDCHAR
STARTCHAR ch-184
ENCODING 184
SWIDTH 1000 0
DWIDTH 24 0
BBX 24 24 0 -3
BITMAP
020e40
038c60
070c2c
0e07fe
3cfe00
cc0300
0c01c2
0c00f2
0c003f
00000f
07ffe0
060060
060060
07ffe0
060060
060060
07ffe0
060060
060060
07ffe0
018000
03c1f0
0f003c
70000c
ENDCHAR
STARTCHAR ch-187
ENCODING 187
SWIDTH 1000 0
DWIDTH 24 0
BBX 24 24 0 -3
BITMAP
00e380
00c318
fffffc
00c318
00c318
1ffff8
18c300
18c306
3fffff
318306
03031e
1fffec
e60060
060060
07ffe0
060060
060060
07ffe0
060060
060060
07ffe0
030180
0f807c
78001c
ENDCHAR
STARTCHAR ch-188
ENCODING 188
SWIDTH 1000 0
DWIDTH 24 0
BBX 24 24 0 -3
BITMAP
20c0e0
3fe0c0
30c0c0
30c0c0
30c0c0
30c0c6
3fc0ff
30c0c0
30c0c0
30c0c0
30c0c0
3fc0c0
30c8c6
30cfff
30cc06
30cc06
30cc06
3fcc06
000c06
110c06
1ccc06
386ffe
606c06
800c06
ENDCHAR
STARTCHAR ch-189
ENCODING 189
SWIDTH 1000 0
DWIDTH 24 0
BBX 24 24 0 -3
BITMAP
218100
3fc1c0
318180
318180
318300
318310
3f8208
31860c
318476
31bfc7
319e03
3f9000
318000
31880c
318ffe
318c0c
318c0c
3f8c0c
000c0c
220c0c
398c0c
30cffc
60cc0c
800c0c
ENDCHAR
STARTCHAR ch-191
ENCODING 191
SWIDTH 1000 0
DWIDTH 24 0
BBX 24 24 0 -3
BITMAP
006000
09f00c
0f07fe
0c018c
0c818c
0c610c
0db318
7e3278
380430
200000
07ffe0
060060
060060
07ffe0
060060
060060
07ffe0
060060
060060
07ffe0
018000
03c0f8
0e001e
700006
ENDCHAR
STARTCHAR ch-192
ENCODING 192
SWIDTH 1000 0
DWIDTH 24 0
BBX 24 24 0 -3
BITMAP
070000
063206
fffbff
063306
043306
0c3306
09f3fe
186306
300000
c40060
07fff0
060060
060060
07ffe0
060060
060060
07ffe0
060060
060060
07ffe0
010000
03c1f0
0f003c
70000c
ENDCHAR
STARTCHAR ch-193
ENCODING 193
SWIDTH 1000 0
DWIDTH 24 0
BBX 24 24 0 -3
BITMAP
001c00
001830
1ffff8
001800
061860
060066
ffffff
060060
060060
000000
0ffff0
0c0030
0c0030
0ffff0
0c0030
0c0030
0ffff0
0c0030
0c0030
0ffff0
000000
0301e0
0f807c
78001c
ENDCHAR
STARTCHAR ch-194
ENCODING 194
SWIDTH 1000 0
DWIDTH 24 0
BBX 24 24 0 -3
BITMAP
20c400
3fe700
30c618
30c7fc
30c618
30cc30
3fca30
30d260
30e1c0
30c1c0
30c370
3fc63f
30cc1e
30d806
30e000
30c7f8
3fc618
000618
110618
1cc618
186618
306618
6067f8
800618
ENDCHAR
STARTCHAR ch-195
ENCODING 195
SWIDTH 1000 0
DWIDTH 24 0
BBX 24 24 0 -3
BITMAP
0200e0
03bff0
070300
0c0306
3dffff
cc0300
0c0300
0c7ffc
0c0000
000000
07ffe0
060060
060060
07ffe0
060060
060060
07ffe0
060060
060060
07ffe0
018000
03c1f0
0f003c
70000c
ENDCHAR
STARTCHAR ch-196
ENCODING 196
SWIDTH 1000 0
DWIDTH 24 0
BBX 24 24 0 -3
BITMAP
418200
7fc380
618300
618306
61ffff
618600
7f8600
618400
618c0c
618ffe
619e0c
7f960c
61a60c
61c7fc
61860c
61860c
61860c
7f87fc
00060c
22060c
39860c
30c60c
60c63c
80c618
ENDCHAR
STARTCHAR ch-199
ENCODING 199
SWIDTH 1000 0
DWIDTH 24 0
BBX 24 24 0 -3
BITMAP
001000
201c00
18180c
0c3ffe
0c6618
018620
000d00
0618c0
f8307f
60c01e
47ffe6
060060
060060
07ffe0
060060
060060
07ffe0
060060
060060
07ffe0
008000
01e3f0
07803c
78000c
ENDCHAR
STARTCHAR ch-200
ENCODING 200
SWIDTH 1000 0
DWIDTH 24 0
BBX 24 24 0 -3
BITMAP
000006
ffffff
00c300
20c30c
3ffffe
30c30c
30c30c
3ffffc
30000c
000000
0ffff0
0c0030
0c0030
0ffff0
0c0030
0c0030
0ffff0
0c0030
0c0030
0ffff0
000000
0301e0
0f807c
78001c
ENDCHAR
STARTCHAR ch-202
ENCODING 202
SWIDTH 1000 0
DWIDTH 24 0
BBX 24 24 0 -3
BITMAP
2180e8
3fc0c4
3180c6
3180c6
3180c0
3180c6
3fbfff
3180c0
3180c0
318cc8
318cce
3f8ccc
318c48
31bf58
318c50
318c70
318c20
3f8c72
000c52
220cda
398c8a
30c10e
60c207
800c03
ENDCHAR
STARTCHAR ch-205
ENCODING 205
SWIDTH 1000 0
DWIDTH 24 0
BBX 24 24 0 -3
BITMAP
2180e0
3fc0c0
3180c0
3190c6
319fff
319800
3f9800
319870
319860
319860
319860
3f986c
319bfe
319860
319860
319860
319860
3f9060
001060
221060
39a060
30c066
60cfff
800000
ENDCHAR
STARTCHAR ch-206
ENCODING 206
SWIDTH 1000 0
DWIDTH 24 0
BBX 24 24 0 -3
BITMAP
2181c0
3fc190
31818c
318184
31bffe
318180
3f8180
31818c
319ffe
318180
318180
3f8186
31bfff
3180c8
3180ce
3180dc
318058
3f8070
0000e2
2201b2
39831a
30c61f
60d80f
800006
ENDCHAR
STARTCHAR ch-209
ENCODING 209
SWIDTH 1000 0
DWIDTH 24 0
BBX 24 24 0 -3
BITMAP
21900c
3fdffe
319800
319800
31980c
319bfe
3f9800
319800
319800
319806
319fff
3f9b20
319b20
319b24
319327
319326
319328
3f9330
023310
21a318
38e3dc
305f0f
608c0e
800806
ENDCHAR
STARTCHAR ch-211
ENCODING 211
SWIDTH 1000 0
DWIDTH 24 0
BBX 24 24 0 -3
BITMAP
101c00
101806
3fffff
300006
67ffe4
611848
039a30
061f18
387818
03c000
7fffe0
060060
060060
07ffe0
060060
060060
07ffe0
060060
060060
07ffe0
018000
03c1f0
0e003c
70000c
ENDCHAR
STARTCHAR ch-218
ENCODING 218
SWIDTH 1000 0
DWIDTH 24 0
BBX 24 24 0 -3
BITMAP
001c00
001806
ffffff
041820
061830
0c1860
0e3cd8
1b7b0c
61d9c4
071878
1c181f
effff6
0c0030
0ffff0
0c0030
0c0030
0ffff0
0c0030
0c0030
0ffff0
000000
0301e0
0f807c
78001c
ENDCHAR
STARTCHAR ch-219
ENCODING 219
SWIDTH 1000 0
DWIDTH 24 0
BBX 24 24 0 -3
BITMAP
0381c0
030188
3feffc
030180
030182
ffefff
060340
0d0320
0cc630
18681c
37ffef
c60066
060060
07ffe0
060060
060060
07ffe0
060060
060060
07ffe0
018000
03c1f0
0f003c
70000c
ENDCHAR
STARTCHAR ch-220
ENCODING 220
SWIDTH 1000 0
DWIDTH 24 0
BBX 24 24 0 -3
BITMAP
218818
3fcffc
318c18
318c18
318c18
318ff8
3f8c18
318c18
318c18
318ff8
318600
3f8600
318c06
318fff
3199b6
31b326
31c266
3f8646
100cc6
1a3186
19830e
30cc0c
60c07c
800018
ENDCHAR
STARTCHAR ch-222
ENCODING 222
SWIDTH 1000 0
DWIDTH 24 0
BBX 24 24 0 -3
BITMAP
041c40
031870
119860
119886
3fffff
300006
63ffc4
620048
03ffc0
000000
0ffff0
0c0030
0c0030
0ffff0
0c0030
0c0030
0ffff0
0c0030
0c0030
0ffff0
018000
03c1e0
0e003c
70000c
ENDCHAR
STARTCHAR ch-224
ENCODING 224
SWIDTH 1000 0
DWIDTH 24 0
BBX 24 24 0 -3
BITMAP
2181c0
3fc180
318180
31818c
31bffe
318010
3f881c
318418
318630
318620
318046
3fffff
318000
318000
31900c
319ffe
31980c
3f980c
00180c
22180c
39980c
30dffc
60d80c
80180c
ENDCHAR
STARTCHAR ch-226
ENCODING 226
SWIDTH 1000 0
DWIDTH 24 0
BBX 24 24 0 -3
BITMAP
20300c
3ffbfe
31010c
310118
3ff098
3010b0
3ff060
3100f0
31019f
3ff60e
300006
07ffe0
060060
07ffe0
060060
060060
07ffe0
060060
060060
07ffe0
018000
03c1f0
0f003c
70000c
ENDCHAR
STARTCHAR ch-227
ENCODING 227
SWIDTH 1000 0
DWIDTH 24 0
BBX 24 24 0 -3
BITMAP
001c00
001806
ffffff
001800
0ffff0
000000
3ffffc
30c30c
30c30c
3ffffc
000000
0ffff0
0c0030
0ffff0
0c0030
0c0030
0ffff0
0c0030
0c0030
0ffff0
000000
0301e0
0f807c
78001c
ENDCHAR
STARTCHAR ch-228
ENCODING 228
SWIDTH 1000 0
DWIDTH 24 0
BBX 24 24 0 -3
BITMAP
430ec0
7f8c60
630c0c
63047e
630780
637e30
7f0360
630182
6302c2
630c72
63701f
7f0d87
630cc0
63041e
6307e0
637e10
630318
7f0130
0001a0
2400c2
330162
61823a
418c1f
803007
ENDCHAR
STARTCHAR ch-230
ENCODING 230
SWIDTH 1000 0
DWIDTH 24 0
BBX 24 24 0 -3
BITMAP
218070
3fc068
318264
319f66
318066
318060
3f8066
31ffff
318060
318260
318260
3f9260
319260
3193e0
319220
319230
319230
3f9232
001212
22139a
397e0a
31b80e
61a007
800003
ENDCHAR
STARTCHAR ch-234
ENCODING 234
SWIDTH 1000 0
DWIDTH 24 0
BBX 24 24 0 -3
BITMAP
006018
11f27c
1f03c0
181302
1ffbff
198230
198630
118430
318830
200000
47fff0
860030
060030
07fff0
060030
060030
07fff0
060030
060030
07fff0
00c000
01e1f0
07803c
38000c
ENDCHAR
STARTCHAR ch-237
ENCODING 237
SWIDTH 1000 0
DWIDTH 24 0
BBX 24 24 0 -3
BITMAP
218380
3fc308
31830e
31836c
319ff8
318318
3f8330
318330
318366
31ffff
318180
3f8300
318600
318c0c
319ffe
31e60c
31860c
3f860c
0007fc
22060c
39860c
30c60c
60c7fc
80060c
ENDCHAR
STARTCHAR ch-250
ENCODING 250
SWIDTH 1000 0
DWIDTH 24 0
BBX 24 24 0 -3
BITMAP
219010
3fcc1c
318618
318620
31fffe
318440
3f8444
31bffe
318444
318444
31ffff
3f8444
318444
31bffc
318444
318c40
318c60
3f9c60
001450
223458
39244f
31c44e
618446
800440
ENDCHAR
STARTCHAR ch-251
ENCODING 251
SWIDTH 1000 0
DWIDTH 24 0
BBX 24 24 0 -3
BITMAP
2301c8
3f8186
330182
337fff
330180
33218c
3f3ffe
33318c
33318c
333ffc
33318c
3f318c
333ffc
33300c
330030
330036
337fff
3f1030
000c30
220630
398630
30c030
60c1f0
800060
ENDCHAR
STARTCHAR ch-252
ENCODING 252
SWIDTH 1000 0
DWIDTH 24 0
BBX 24 24 0 -3
BITMAP
218738
3fc630
318630
31ffff
318630
318630
3fbffe
318630
318630
31ffff
318080
3f908c
319ffe
31988c
31988c
319ffc
31988c
3f988c
007fff
22180c
39980c
30d80c
60d87c
801818
ENDCHAR
STARTCHAR ch-253
ENCODING 253
SWIDTH 1000 0
DWIDTH 24 0
BBX 24 24 0 -3
BITMAP
001c00
10180c
1ffffe
30000c
60c308
6ffff0
00c300
0ffff0
00c300
00c306
ffffff
018080
030040
07fff0
0e005c
33ffcf
c20046
03ffc0
020040
03ffc0
018000
03c3c0
0700f8
380038
ENDCHAR
STARTCHAR ch-260
ENCODING 260
SWIDTH 1000 0
DWIDTH 24 0
BBX 24 24 0 -3
BITMAP
0701c0
060180
7fe198
060ffc
fff198
204598
108318
fff11a
06038a
0602ce
7fe4c6
060807
060003
0ffff0
080010
0ffff0
080010
0ffff0
080010
0ffff0
000000
0301e0
0f807c
78001c
ENDCHAR
STARTCHAR ch-261
ENCODING 261
SWIDTH 1000 0
DWIDTH 24 0
BBX 24 24 0 -3
BITMAP
070100
0601c0
7fe186
0603ff
fff210
06051c
fff918
0c00b0
1fe060
1860b0
30631c
63cc0f
818006
0ffff0
080010
0ffff0
080010
0ffff0
080010
0ffff0
000000
0301e0
0f807c
78001c
ENDCHAR
STARTCHAR ch-263
ENCODING 263
SWIDTH 1000 0
DWIDTH 24 0
BBX 24 24 0 -3
BITMAP
0e0074
0c1f66
0cc062
ffffff
020460
438460
3317a0
161430
0c1432
1e1792
137c1b
23300f
c00006
0ffff0
080010
0ffff0
080010
0ffff0
080010
0ffff0
000000
0301e0
0f807c
78001c
ENDCHAR
STARTCHAR ch-264
ENCODING 264
SWIDTH 1000 0
DWIDTH 24 0
BBX 24 24 0 -3
BITMAP
431010
7f8c1c
630618
630610
632026
633fff
7f3086
633086
633ffe
633086
633086
7f3086
633ffe
630000
63100c
631ffe
63180c
7f180c
001ffc
24180c
33180c
61980c
419ffc
80180c
ENDCHAR
STARTCHAR ch-266
ENCODING 266
SWIDTH 1000 0
DWIDTH 24 0
BBX 24 24 0 -3
BITMAP
1384e0
1b06c4
3feffe
2308c0
0300c2
ffefff
0d8330
1d8332
19f233
33c43f
c1081e
0ffff0
0c0030
0ffff0
0c0030
0c0030
0ffff0
0c0030
0c0030
0ffff0
000000
0301f0
0f803c
70000c
ENDCHAR
STARTCHAR ch-267
ENCODING 267
SWIDTH 1000 0
DWIDTH 24 0
BBX 24 24 0 -3
BITMAP
200006
3fffff
308420
30e630
31cc40
318ffe
339840
35affc
398840
318ffc
318840
318840
318ffe
300000
31fff0
318030
21fff0
618030
61fff0
418030
41fff0
8060c0
01f03c
0f000c
ENDCHAR
STARTCHAR ch-269
ENCODING 269
SWIDTH 1000 0
DWIDTH 24 0
BBX 24 24 0 -3
BITMAP
430800
7f8c60
631ff0
631840
633086
637fff
7fb330
633330
63323e
63341e
633800
7f33f8
633000
633ffe
633000
6333f8
632000
7f63f8
006000
2447fc
32860c
63060c
4307fc
80060c
ENDCHAR
STARTCHAR ch-271
ENCODING 271
SWIDTH 1000 0
DWIDTH 24 0
BBX 24 24 0 -3
BITMAP
001c00
001806
ffffff
180000
180000
1ffff8
000000
0ffff0
0c0030
0c0030
0ffff0
000000
220110
3efdf8
228510
22fd10
3e8590
22fd50
228550
3efd12
220112
625b13
4e4a1f
86840e
ENDCHAR
STARTCHAR ch-272
ENCODING 272
SWIDTH 1000 0
DWIDTH 24 0
BBX 24 24 0 -3
BITMAP
4301c0
7f8180
633ffc
63018c
63018c
63ffff
7f018c
63018c
633ffc
630180
630180
7fffff
632448
636666
636223
630003
633ffc
7f324c
00324c
46324c
73324c
63324c
40ffff
800000
ENDCHAR
STARTCHAR ch-275
ENCODING 275
SWIDTH 1000 0
DWIDTH 24 0
BBX 24 24 0 -3
BITMAP
220070
3f0064
220066
222062
223fff
232060
3ea060
22ffe0
222460
222464
222467
3e3f26
222126
23e124
22e12c
22bf28
222438
3e2410
002412
243fba
32206a
6360ce
434307
808403
ENDCHAR
STARTCHAR ch-276
ENCODING 276
SWIDTH 1000 0
DWIDTH 24 0
BBX 24 24 0 -3
BITMAP
010080
01ffc0
010080
01ff80
010080
01ff80
010080
01ff80
004000
00e3e0
0700e0
000000
204204
3fe3fe
204204
3fc3fc
204204
3fc3fc
204204
3fc3fc
000000
118118
38e38e
c06c06
ENDCHAR
STARTCHAR ch-278
ENCODING 278
SWIDTH 1000 0
DWIDTH 24 0
BBX 24 24 0 -3
BITMAP
2301c0
3f8186
337fff
330180
331ffc
330000
3f3ffe
332242
332c7a
332002
333ffe
3f0000
331004
331ffe
331004
331ffc
331004
3f1ffc
001004
221ffc
390800
318e38
619c0e
806006
ENDCHAR
STARTCHAR ch-356
ENCODING 356
SWIDTH 1000 0
DWIDTH 24 0
BBX 24 24 0 -3
BITMAP
001c00
001800
001800
001830
1ffff8
001800
001800
001800
001806
ffffff
00c300
00c300
08c300
0ec320
0cc318
1cc30c
18c30e
30c306
618306
818300
030300
060300
0c1f00
300600
ENDCHAR
STARTCHAR ch-358
ENCODING 358
SWIDTH 1000 0
DWIDTH 24 0
BBX 24 24 0 -3
BITMAP
070100
0601c0
060180
066180
7ff300
060306
0603ff
060610
06351c
fffd18
098918
099118
498110
79c0b0
69b0a0
6998e0
499840
5998e0
9180a0
1181b0
318318
21861f
4f8c0e
833006
ENDCHAR
STARTCHAR ch-359
ENCODING 359
SWIDTH 1000 0
DWIDTH 24 0
BBX 24 24 0 -3
BITMAP
07040c
0607fe
06060c
06660c
7ff60c
06060c
0607fc
06060c
063600
fffe00
098606
0987ff
498686
79c686
69a64c
69b64c
49b628
598638
918610
118638
31862c
21866f
4f8646
830686
ENDCHAR
STARTCHAR ch-363
ENCODING 363
SWIDTH 1000 0
DWIDTH 24 0
BBX 24 24 0 -3
BITMAP
070070
060060
060060
06c06c
7fe7fe
060060
060060
060060
066066
fff7ff
098098
098098
49c498
79a79c
69b69a
69b69b
49849b
498c9b
998998
119118
118118
318318
278278
430430
ENDCHAR
STARTCHAR ch-365
ENCODING 365
SWIDTH 1000 0
DWIDTH 24 0
BBX 24 24 0 -3
BITMAP
0701c0
060184
060187
066196
7ffffc
06018c
060198
0601b0
0631a6
ffffff
0980c0
098180
498300
79c60c
69abfe
69b30c
499b0c
599b0c
9183fc
11830c
31830c
21830c
4f83fc
83030c
ENDCHAR
STARTCHAR ch-368
ENCODING 368
SWIDTH 1000 0
DWIDTH 24 0
BBX 24 24 0 -3
BITMAP
001c00
001800
001800
001818
3ffffc
001800
001800
001800
001806
ffffff
001800
001800
041800
071800
061818
061ffc
0e1800
0d1800
0c9800
18d800
107800
203e00
400fff
8001fe
ENDCHAR
STARTCHAR ch-369
ENCODING 369
SWIDTH 1000 0
DWIDTH 24 0
BBX 24 24 0 -3
BITMAP
001c00
001800
001800
001830
1ffff8
001800
001800
001800
001806
ffffff
000040
0c0070
0380e0
01c1c0
00c380
000600
001800
086000
0b8000
140000
330000
e1e000
607fff
400ffe
ENDCHAR
STARTCHAR ch-371
ENCODING 371
SWIDTH 1000 0
DWIDTH 24 0
BBX 24 24 0 -3
BITMAP
07001c
060018
064398
7fe318
060318
060318
060318
062318
fff318
060318
060318
26031a
36431f
37e378
360398
361c18
360018
360018
2e0018
260018
63c000
40ffff
401ffe
800000
ENDCHAR
STARTCHAR ch-372
ENCODING 372
SWIDTH 1000 0
DWIDTH 24 0
BBX 24 24 0 -3
BITMAP
0380e0
0300c0
0300c0
0330c0
7ff8c0
0300c0
0300c0
0318e0
fffcd8
0300cc
0300c6
2300c7
3b30c3
33f8c0
3300c0
3300c0
3300c0
3300c0
2b00c0
270000
23c000
60ffff
401ffe
800000
ENDCHAR
STARTCHAR ch-375
ENCODING 375
SWIDTH 1000 0
DWIDTH 24 0
BBX 24 24 0 -3
BITMAP
070000
06000c
060ffe
06c00c
7fe00c
06000c
06000c
06040c
0667fc
fff60c
06060c
060600
260600
366602
37f602
360602
360607
3607ff
2e03fe
260000
638000
40ffff
403ffe
800000
ENDCHAR
STARTCHAR ch-385
ENCODING 385
SWIDTH 1000 0
DWIDTH 24 0
BBX 24 24 0 -3
BITMAP
0700c0
0600c0
0641a0
7fe1a0
060310
060218
06040c
06288f
fff0c6
060180
060320
260430
364060
37e0c4
36018e
36061c
360038
3600e0
2e0380
260c00
63c000
40ffff
401ffe
800000
ENDCHAR
STARTCHAR ch-389
ENCODING 389
SWIDTH 1000 0
DWIDTH 24 0
BBX 24 24 0 -3
BITMAP
070000
060006
060fff
06c186
7fe186
060106
06030c
06620c
fff47c
060818
061000
26040c
36c7fe
37e60c
36060c
36060c
36060c
3607fc
2e060c
260000
638000
40ffff
403ffe
800000
ENDCHAR
STARTCHAR ch-394
ENCODING 394
SWIDTH 1000 0
DWIDTH 24 0
BBX 24 24 0 -3
BITMAP
0700e8
0600c6
0600c6
0640c0
7fe8c6
060fff
060cc0
062cc4
fffcc7
060cc6
060c64
260c6c
364c68
37ec38
360c12
360f3a
367c6a
3630ce
2e2187
260603
638000
40ffff
403ffe
800000
ENDCHAR
STARTCHAR ch-409
ENCODING 409
SWIDTH 1000 0
DWIDTH 24 0
BBX 24 24 0 -3
BITMAP
0700e4
0608c6
0644cc
7fe6c8
0606d0
0600c0
0607fc
06260c
fff60c
06060c
0607fc
26060c
36460c
37e60c
3607fc
36060c
36060c
36060c
2e067c
260618
63c000
40ffff
401ffe
800000
ENDCHAR
STARTCHAR ch-419
ENCODING 419
SWIDTH 1000 0
DWIDTH 24 0
BBX 24 24 0 -3
BITMAP
07000c
067ffe
061100
7fd10c
0611fe
06110c
061f0c
06114c
fff12c
061138
061118
061f1c
269114
37d136
361126
361123
367f43
363983
362100
2e0100
660000
43ffff
40fffe
800000
ENDCHAR
STARTCHAR ch-424
ENCODING 424
SWIDTH 1000 0
DWIDTH 24 0
BBX 24 24 0 -3
BITMAP
070400
060606
0607ff
064c06
7fe886
061496
060496
0607f6
06210c
fff27c
060418
060b06
2603ff
364606
37e486
360896
363496
3607f6
360106
2e063e
66180c
438000
40ffff
803ffe
ENDCHAR
STARTCHAR ch-435
ENCODING 435
SWIDTH 1000 0
DWIDTH 24 0
BBX 24 24 0 -3
BITMAP
040060
07fff0
060060
060060
060060
060060
060060
060060
060060
07ffe0
061860
001800
041800
071800
061830
061ff8
061800
061800
0d1800
0c9800
185800
103800
200fff
c003fe
ENDCHAR
STARTCHAR ch-442
ENCODING 442
SWIDTH 1000 0
DWIDTH 24 0
BBX 24 24 0 -3
BITMAP
20c1c0
3fe180
30c180
30c180
30c18c
30dffe
30c180
30c180
3fc180
060180
060186
763fff
66c340
67e340
660340
660320
660620
660630
660630
660418
678c1c
fe080f
70100e
406006
ENDCHAR
STARTCHAR ch-446
ENCODING 446
SWIDTH 1000 0
DWIDTH 24 0
BBX 24 24 0 -3
BITMAP
20c0e0
3fe0c0
30c0c0
30c0c0
30c0c0
30c0c0
30cec0
30ccc0
3fccc0
060ccc
060cfe
760cc0
66ccc0
67ecc0
660cc0
660cc0
660cc0
660cc0
660cc0
660cc0
67ccc0
fe0cc6
707fff
400000
ENDCHAR
STARTCHAR ch-450
ENCODING 450
SWIDTH 1000 0
DWIDTH 24 0
BBX 24 24 0 -3
BITMAP
20c0e0
3fe0c0
30c0c0
30c0c0
30c0c6
30ffff
30c0c0
30c0c0
3fc0c0
0600c0
0600cc
761ffe
66c40c
67e418
660218
660230
660130
6601e0
6600c0
6601e0
67c378
fe063f
700c1e
403006
ENDCHAR
STARTCHAR ch-459
ENCODING 459
SWIDTH 1000 0
DWIDTH 24 0
BBX 24 24 0 -3
BITMAP
20c3a0
3fe318
30c30c
30c30c
30c300
30c306
30ffff
30c300
3fc300
060710
06061c
760618
66c618
67e530
660d30
660ca0
660ce0
660840
6618e0
6790b0
7e3118
f8221f
60440e
408806
ENDCHAR
STARTCHAR ch-460
ENCODING 460
SWIDTH 1000 0
DWIDTH 24 0
BBX 24 24 0 -3
BITMAP
20c0e0
3fe0c0
30c8c0
30cec0
30ccc0
30cccc
30cffe
30c8c0
3fc8c0
0610c0
0600c0
7600c6
66dfff
67e1a0
6601a0
6601a0
660330
660310
660310
660618
67c61c
fe0c0f
70180e
406006
ENDCHAR
STARTCHAR ch-463
ENCODING 463
SWIDTH 1000 0
DWIDTH 24 0
BBX 24 24 0 -3
BITMAP
431800
7f9000
631026
63103f
631026
631326
63ffa6
631326
7f1326
0c1326
0c1326
4c1326
4d1326
4f9326
4c3326
4c2326
4c2326
4c2326
4c2326
4c6726
4f463e
fc4626
709e00
410c00
ENDCHAR
STARTCHAR ch-470
ENCODING 470
SWIDTH 1000 0
DWIDTH 24 0
BBX 24 24 0 -3
BITMAP
20c006
3fffff
30c180
30c180
30c180
30c180
30c300
30c300
3fc300
060200
06060c
7607fe
66c60c
67ee0c
660e0c
66160c
66260c
66060c
66060c
66060c
67c60c
fe07fc
70060c
40060c
ENDCHAR
STARTCHAR ch-474
ENCODING 474
SWIDTH 1000 0
DWIDTH 24 0
BBX 24 24 0 -3
BITMAP
419006
7fdfff
619926
619926
619926
619926
619926
619926
7f9926
0c1926
0c1926
4c3fff
4d9926
4fd926
4c1926
4c1926
4c1926
4c1926
4c1926
4c1926
4f9926
fc1926
70181e
40180c
ENDCHAR
STARTCHAR ch-475
ENCODING 475
SWIDTH 1000 0
DWIDTH 24 0
BBX 24 24 0 -3
BITMAP
20c0e0
3fe0c0
30c0c0
30c0c0
30d0c6
30dfff
30d8c6
30d8c6
3fd8c4
0618c0
0618cc
761ffe
66da0c
67fa0c
661918
661918
6610b0
6610e0
663040
6620e0
67e1b8
fe431f
70860e
401806
ENDCHAR
STARTCHAR ch-477
ENCODING 477
SWIDTH 1000 0
DWIDTH 24 0
BBX 24 24 0 -3
BITMAP
40c000
7fe806
60cfff
60cc00
60cc00
60cc00
60cc00
60cc0c
7fcffe
060c0c
060c0c
760c0c
660c0c
664c0c
67effc
660c0c
660c00
660c00
660c00
660c00
66cc06
ff0fff
780c00
400c00
ENDCHAR
STARTCHAR ch-479
ENCODING 479
SWIDTH 1000 0
DWIDTH 24 0
BBX 24 24 0 -3
BITMAP
20c818
3feffc
30cc18
30cc18
30cc18
30cff8
30cc18
30cc18
3fcc18
060c18
060ff8
760c84
66cc87
67ec46
660c4c
660c50
660c60
660c20
660c30
660c30
678fd8
fe3f1f
701c0e
401006
ENDCHAR
STARTCHAR ch-481
ENCODING 481
SWIDTH 1000 0
DWIDTH 24 0
BBX 24 24 0 -3
BITMAP
20c0e0
3fe0c0
30c0c0
30c0c0
30c0c6
30ffff
30c330
30c330
3fc330
060330
061338
761f34
66db36
67fb32
661333
663333
662333
664330
660630
660630
678c30
fe0830
7011f0
406060
ENDCHAR
STARTCHAR ch-483
ENCODING 483
SWIDTH 1000 0
DWIDTH 24 0
BBX 24 24 0 -3
BITMAP
20c0e0
3fe8c0
30cec0
30ccc0
30cccc
30cffe
30c8c0
30c8c0
3fd0c0
0600c0
0600c6
763fff
66c330
67e330
660330
660330
660630
660630
660632
660432
678c32
fe0833
70103f
40601e
ENDCHAR
STARTCHAR ch-488
ENCODING 488
SWIDTH 1000 0
DWIDTH 24 0
BBX 24 24 0 -3
BITMAP
40c380
7fe300
60c300
60c306
60ffff
60c640
60c640
60c420
7fcc30
06081c
0617ef
762006
664000
663ffc
67c600
660618
6607fc
660c18
660c18
66c018
670038
fc0030
7001f0
400060
ENDCHAR
STARTCHAR ch-490
ENCODING 490
SWIDTH 1000 0
DWIDTH 24 0
BBX 24 24 0 -3
BITMAP
418800
7fce00
618c30
618ff8
619860
6190c0
61a080
61c106
7f9fff
0c1800
0c1800
4c1a0c
4d9bfe
4fdb0c
4c1b0c
4c1b0c
4c1b0c
4c133c
4c3318
4c2302
4f2302
fc4303
7083ff
4001fe
ENDCHAR
STARTCHAR ch-491
ENCODING 491
SWIDTH 1000 0
DWIDTH 24 0
BBX 24 24 0 -3
BITMAP
001060
019ff0
ffd860
0c1860
0c1c60
0c1a62
0c1b62
0fb363
fc307f
70603e
408000
07ffe0
060060
060060
060060
07ffe0
001800
041830
071ff8
0e1800
0d1800
18f800
303fff
c007fe
ENDCHAR
STARTCHAR ch-495
ENCODING 495
SWIDTH 1000 0
DWIDTH 24 0
BBX 24 24 0 -3
BITMAP
20c200
3fe380
30c318
30c3fc
30c618
30c418
30ca30
30d230
3fc160
0600c0
0601e0
76c330
67e61c
660c0f
661806
6667f8
660618
660618
660618
660618
67c618
fe0618
7007f8
400618
ENDCHAR
STARTCHAR ch-499
ENCODING 499
SWIDTH 1000 0
DWIDTH 24 0
BBX 24 24 0 -3
BITMAP
20c670
3fe660
30c660
30c660
30c664
30e667
30d666
30de6c
3fde70
060660
060660
76c660
67e670
66066c
660e66
66f663
666663
664660
660c62
678c62
fe1863
70307f
40603e
018000
ENDCHAR
STARTCHAR ch-501
ENCODING 501
SWIDTH 1000 0
DWIDTH 24 0
BBX 24 24 0 -3
BITMAP
20c3a0
3fe318
30c308
30c306
30ffff
30c300
30c300
30c30c
3fdffe
060300
060300
760306
663fff
66c310
67e31c
660198
6601b0
6600e0
6601c2
66c362
670632
fc181f
70600f
400006
ENDCHAR
STARTCHAR ch-508
ENCODING 508
SWIDTH 1000 0
DWIDTH 24 0
BBX 24 24 0 -3
BITMAP
41900c
7fdffe
61980c
61980c
61980c
61980c
619ffc
61980c
7f9800
0c1806
0c1fff
4c1806
4d9806
4fdbe6
4c1a26
4c3226
4c3226
4c3226
4c23e6
4c6006
4f400e
fc800c
70007c
400018
ENDCHAR
STARTCHAR ch-511
ENCODING 511
SWIDTH 1000 0
DWIDTH 24 0
BBX 24 24 0 -3
BITMAP
20c0e0
3fe0c0
30c0c0
30c0cc
30dffe
30c0c0
30c0c0
30c0c0
3fc0c6
063fff
0600c0
7600c0
66d0c0
67fccc
6618fe
6618c0
6618c0
6618c0
6618c0
6634c0
67b2c0
fe23c0
7041ff
40807e
ENDCHAR
ENDFONT
