STARTFONT 2.1
FONT jis.jis9c00.24
SIZE 24 72 72
FONTBOUNDINGBOX 24 24 0 -3
STARTPROPERTIES 4
FONT_DESCENT 3
FONT_ASCENT 21
DEFAULT_CHAR 4
COPYRIGHT "Copyright (c) 1992 AT&T - All rights reserved."
ENDPROPERTIES
CHARS 108
STARTCHAR ch-4
ENCODING 4
SWIDTH 1000 0
DWIDTH 24 0
BBX 24 24 0 -3
BITMAP
100038
1c0034
180036
198032
1fd030
119fff
311030
221030
3f9030
649fb2
a49033
249233
3f9232
249fd2
249496
249494
3f959c
001508
00950a
2ad38a
2a529e
6a3496
c02027
c040c3
ENDCHAR
STARTCHAR ch-6
ENCODING 6
SWIDTH 1000 0
DWIDTH 24 0
BBX 24 24 0 -3
BITMAP
1000e0
1c00c0
1800c4
198ffe
1fc0c0
1180c4
310ffe
2201a0
3fe1a0
726112
b27fff
326208
3fe60c
326407
326bfe
326318
3fe318
000318
0043f8
252318
253318
653318
c003f8
c00318
ENDCHAR
STARTCHAR ch-8
ENCODING 8
SWIDTH 1000 0
DWIDTH 24 0
BBX 24 24 0 -3
BITMAP
100ed8
1c0c90
180c90
198c96
1fffff
118c90
310c90
220c90
3f8cf0
648c00
a48c0c
248ffe
3f8c00
2481c0
248186
24bfff
3f83a0
0007a0
008590
2acd98
2a498c
6a118f
c06186
c00180
ENDCHAR
STARTCHAR ch-9
ENCODING 9
SWIDTH 1000 0
DWIDTH 24 0
BBX 24 24 0 -3
BITMAP
100080
1c00e0
1804cc
1987fe
1fc60c
11860c
3107fc
22060c
3fe60c
72660c
b267fc
326000
3fe00c
326ffe
3260c0
3260c0
3fe0cc
000ffe
0040c0
2560c0
2520c0
6500c6
c01fff
c00000
ENDCHAR
STARTCHAR ch-10
ENCODING 10
SWIDTH 1000 0
DWIDTH 24 0
BBX 24 24 0 -3
BITMAP
1000e0
1c00c0
1800c6
199fff
1fc0c0
1180c0
3108c4
220ffe
3fe8c4
726ccc
b26acc
326ad4
3fe8c4
326ffc
3268c4
3261e0
3fe1e0
0003f0
0042d0
2566d8
2524cc
6508cf
c010c6
c000c0
ENDCHAR
STARTCHAR ch-12
ENCODING 12
SWIDTH 1000 0
DWIDTH 24 0
BBX 24 24 0 -3
BITMAP
100810
1c061c
180318
198310
1fc026
11bfff
310120
220120
3f9126
649fff
a49926
249926
3f9926
249b3e
249a1e
249c06
3f9806
001806
009ffe
2ad806
2a5806
6a1806
c01ffe
c01806
ENDCHAR
STARTCHAR ch-13
ENCODING 13
SWIDTH 1000 0
DWIDTH 24 0
BBX 24 24 0 -3
BITMAP
100338
1c0fb0
187830
198830
1fc834
1188b7
3108b6
227fb6
7f88b4
a489b8
2489b0
249c30
3f9a30
249b30
24bb28
24a828
3fa868
004868
00084c
2a8844
2a88c6
6a8887
600902
000a02
ENDCHAR
STARTCHAR ch-16
ENCODING 16
SWIDTH 1000 0
DWIDTH 24 0
BBX 24 24 0 -3
BITMAP
100000
1c1122
181fbf
199122
1fd122
119122
311122
221f3e
7f9122
a48000
248008
248ffc
3f8000
248002
24bfff
248600
3f860c
0007fe
008c0c
2acc0c
2a401c
6a0018
c800f8
c00030
ENDCHAR
STARTCHAR ch-18
ENCODING 18
SWIDTH 1000 0
DWIDTH 24 0
BBX 24 24 0 -3
BITMAP
100400
1c0700
180606
198fff
1fc800
119000
3107fc
22060c
3fe60c
7267fc
b2660c
32660c
3fe7fc
326180
326100
3263fc
3fe20c
000518
0048b0
252060
2530f0
65319c
c0060f
c01806
ENDCHAR
STARTCHAR ch-19
ENCODING 19
SWIDTH 1000 0
DWIDTH 24 0
BBX 24 24 0 -3
BITMAP
100000
1c080c
180ffe
198ccc
1fcccc
118ccc
310ccc
220ffc
3feccc
726ccc
b26ccc
326ccc
3feffc
326000
326080
326060
3fe320
000304
004b02
256b13
252b13
651b18
c01bf8
c001f0
ENDCHAR
STARTCHAR ch-20
ENCODING 20
SWIDTH 1000 0
DWIDTH 24 0
BBX 24 24 0 -3
BITMAP
100070
1c0064
180062
198062
1fd060
119fff
311060
221060
3f9060
6497a4
a49027
249026
3f97a6
2494ac
2494ac
2494b8
3f9498
001790
00903a
2ab02a
2aa06e
6a60c6
c04187
c08603
ENDCHAR
STARTCHAR ch-21
ENCODING 21
SWIDTH 1000 0
DWIDTH 24 0
BBX 24 24 0 -3
BITMAP
101086
1c1fbf
181886
199886
1fd886
119886
311886
221fbe
3f9886
649800
a49800
2498fe
3f9846
249f46
249844
24982c
3f982c
001828
009f18
2ad810
2a5838
6a182c
c0184f
c01886
ENDCHAR
STARTCHAR ch-27
ENCODING 27
SWIDTH 1000 0
DWIDTH 24 0
BBX 24 24 0 -3
BITMAP
100000
1c020c
1803fe
19830c
1fc30c
11830c
3103fc
22030c
3fe30c
72630c
b263fc
326000
3fe000
326406
3267ff
326492
3fe492
000492
004492
256492
252492
650492
c00fff
c00000
ENDCHAR
STARTCHAR ch-33
ENCODING 33
SWIDTH 1000 0
DWIDTH 24 0
BBX 24 24 0 -3
BITMAP
100100
1c1386
181e7f
199826
1fd826
119826
311a26
221b66
3f9f46
64f95e
a4b08c
24a100
3f8000
24880c
248ffe
248c8c
3f8c8c
000c8c
008ffc
2acc8c
2a4c8c
6a0c8c
c00ffc
c00c0c
ENDCHAR
STARTCHAR ch-36
ENCODING 36
SWIDTH 1000 0
DWIDTH 24 0
BBX 24 24 0 -3
BITMAP
101000
1c1c06
1819ff
191010
1fbe10
112210
312292
2222ff
3fa292
64a292
a4be92
24a092
3fa092
24a092
24be92
24a292
3fa292
002292
002296
2aa292
2aa210
6abe10
c02210
c00010
ENDCHAR
STARTCHAR ch-37
ENCODING 37
SWIDTH 1000 0
DWIDTH 24 0
BBX 24 24 0 -3
BITMAP
101006
1c1fff
181926
199926
1fd926
119926
311ffe
220000
3f80e0
6484c0
a486c8
248cc4
3f88c6
2490e3
24a0e3
2484d0
3f86d0
0004d8
008cc8
2ac8cc
2a48cf
6a10c6
c020c6
c000c0
ENDCHAR
STARTCHAR ch-45
ENCODING 45
SWIDTH 1000 0
DWIDTH 24 0
BBX 24 24 0 -3
BITMAP
100384
1c0307
18030e
199fec
1fc318
118332
317fff
2200c0
3f8188
64861c
a49e70
24e782
3f8603
2483ff
248000
248000
3f8ffc
000c0c
008c0c
2acffc
2a4c0c
6a0c0c
600ffc
000c0c
ENDCHAR
STARTCHAR ch-46
ENCODING 46
SWIDTH 1000 0
DWIDTH 24 0
BBX 24 24 0 -3
BITMAP
100000
1c020c
1803fe
198204
1fc264
118264
3102c4
2202b4
3fe314
726204
b263fc
326204
3fe000
326406
3267ff
326492
3fe492
000492
004492
256492
252492
650492
c00fff
c00000
ENDCHAR
STARTCHAR ch-47
ENCODING 47
SWIDTH 1000 0
DWIDTH 24 0
BBX 24 24 0 -3
BITMAP
100306
1c3f7f
180306
198306
1fc306
11a346
313f7e
223060
7fb060
a4b066
24bf7f
248306
3fa346
249b36
249b36
248306
3f870e
000f1e
00bb76
2a9b36
2a9326
6a0306
601f3e
00060c
ENDCHAR
STARTCHAR ch-48
ENCODING 48
SWIDTH 1000 0
DWIDTH 24 0
BBX 24 24 0 -3
BITMAP
101c1c
1c1818
181818
199818
1f9818
11fe99
3106ff
220699
3f8499
648c99
a48899
2498ff
3f9899
24bc99
24da99
249b99
3f98ff
001899
009818
2ad818
2a5818
6a1818
c01818
c01818
ENDCHAR
STARTCHAR ch-50
ENCODING 50
SWIDTH 1000 0
DWIDTH 24 0
BBX 24 24 0 -3
BITMAP
070100
0601c0
7fe186
0603ff
fff210
060518
fff0b0
0c0060
1fe0b0
18631c
33ec0f
60c006
81ff80
030100
0ffff0
381010
cffff0
081010
081010
0ffff0
000000
0c4238
78618e
606186
ENDCHAR
STARTCHAR ch-57
ENCODING 57
SWIDTH 1000 0
DWIDTH 24 0
BBX 24 24 0 -3
BITMAP
102000
1c3f86
18327f
1b3226
1fb226
133fa4
323094
243094
7fbf98
a4b208
24b21c
24b216
3fbfb7
24b042
248000
2481c0
3f8180
000198
009ffc
2ac180
2a4180
6a0186
c87fff
c00000
ENDCHAR
STARTCHAR ch-58
ENCODING 58
SWIDTH 1000 0
DWIDTH 24 0
BBX 24 24 0 -3
BITMAP
100100
1c01c0
180190
19820c
1fdff6
118f06
310000
220808
7f9190
a49592
24fb7d
24a321
3f8630
248c9c
2499cf
24e306
3f8c20
000070
0081c4
2ace0e
2ac01c
6a4070
ca01c0
c01e00
ENDCHAR
STARTCHAR ch-59
ENCODING 59
SWIDTH 1000 0
DWIDTH 24 0
BBX 24 24 0 -3
BITMAP
10080c
1c0ffe
180c0c
198ffc
1fcc0c
118ffc
310c0c
220000
7f9ffe
a49926
249926
249926
3f9ffe
248000
24800c
249ffe
3f840c
000218
008330
2ac1c0
2ac0f0
6a41bf
60061e
003806
ENDCHAR
STARTCHAR ch-62
ENCODING 62
SWIDTH 1000 0
DWIDTH 24 0
BBX 24 24 0 -3
BITMAP
100006
1c1fff
180120
198120
1fc924
118ffe
310924
220924
3fe924
726ffc
b26000
326004
3feffe
326000
326002
327fff
3fe0c0
0004c0
0046c8
256cc4
2528c6
6510c6
c003c0
c00180
ENDCHAR
STARTCHAR ch-70
ENCODING 70
SWIDTH 1000 0
DWIDTH 24 0
BBX 24 24 0 -3
BITMAP
1000e0
1c00c0
1800c4
198ffe
1fc008
11840c
310308
226112
3fffff
726000
b267fc
32660c
3fe60c
3267fc
32660c
32660c
3fe7fc
0000c0
0040c2
257fff
2520c0
6520c0
c000c0
c000c0
ENDCHAR
STARTCHAR ch-71
ENCODING 71
SWIDTH 1000 0
DWIDTH 24 0
BBX 24 24 0 -3
BITMAP
1000e0
1c00c0
1810c6
199fff
1fd0c0
1190c0
3117fc
2210c4
3f90c4
649fff
a490c4
2490c4
3f97fc
2490c2
2494c3
2492c2
3f92e4
0010e0
0090d0
2ab3d8
2aaecc
6a24cf
c043c6
c00180
ENDCHAR
STARTCHAR ch-72
ENCODING 72
SWIDTH 1000 0
DWIDTH 24 0
BBX 24 24 0 -3
BITMAP
100018
1c0ffc
1800c0
1990c6
1fdfff
11b0c4
3130c0
220edc
3f80c0
6480c0
a48edc
2480c0
3f8000
24800c
248ffe
24800c
3f800c
00000c
008ffc
2ac00c
2ac00c
6a400c
c00ffc
c0000c
ENDCHAR
STARTCHAR ch-82
ENCODING 82
SWIDTH 1000 0
DWIDTH 24 0
BBX 24 24 0 -3
BITMAP
100810
1c061c
180318
198320
1fbfff
110120
310120
221ffe
7f9926
a49b26
249e1e
249806
3f9ffe
249806
249ffe
248018
3f8018
007fff
000018
2a8c18
2ac318
4a4318
c800f8
c00030
ENDCHAR
STARTCHAR ch-87
ENCODING 87
SWIDTH 1000 0
DWIDTH 24 0
BBX 24 24 0 -3
BITMAP
1021c8
1c118e
18198c
199990
1fc182
11bfff
3107a0
2205a0
7f8d90
a4899c
24918f
24e186
3f9018
249e1a
2493ff
24b298
3fa698
005498
01149a
558bff
548818
d41018
c02018
00c018
ENDCHAR
STARTCHAR ch-90
ENCODING 90
SWIDTH 1000 0
DWIDTH 24 0
BBX 24 24 0 -3
BITMAP
100070
1c0060
180066
198fff
1fc060
118060
3107fe
220000
3fe000
7267fe
b26606
326606
3fe7fe
326204
326104
326108
3fefff
000000
004000
2527fe
253606
653606
c007fe
c00606
ENDCHAR
STARTCHAR ch-96
ENCODING 96
SWIDTH 1000 0
DWIDTH 24 0
BBX 24 24 0 -3
BITMAP
1000c0
1c00c0
1801a0
198190
1fc31c
11860f
311bfa
220000
3fe000
726ffe
b26842
326a4a
3fe952
326ffe
326000
326000
3fe7fc
00060c
00460c
2527fc
25360c
65360c
c007fc
c0060c
ENDCHAR
STARTCHAR ch-103
ENCODING 103
SWIDTH 1000 0
DWIDTH 24 0
BBX 24 24 0 -3
BITMAP
1001b0
1c0924
180ffe
198924
1fc924
118ffc
310924
220924
3f8ffc
648000
a48006
24bfff
3f8000
248000
248ffc
248c0c
3f8c0c
000ffc
008410
2ac218
2a4310
6a0326
c03fff
c00000
ENDCHAR
STARTCHAR ch-118
ENCODING 118
SWIDTH 1000 0
DWIDTH 24 0
BBX 24 24 0 -3
BITMAP
100410
1c0318
180120
199ffe
1fc080
118ffc
310080
220080
3fbfff
648610
a48cc8
248ffc
3f9417
24a412
2487f0
248410
3f8414
0007f6
008404
2ac4c8
2a4430
6a1f98
c00e0c
c0080c
ENDCHAR
STARTCHAR ch-120
ENCODING 120
SWIDTH 1000 0
DWIDTH 24 0
BBX 24 24 0 -3
BITMAP
1000e0
1c00c8
1800fc
1990c2
1fdfff
119102
3111f0
221704
3f90fc
649000
a493fc
249244
3f9244
2493fc
249244
249244
3f93fc
001000
00b7fe
2aa492
2aa492
6a4492
c00fff
c00000
ENDCHAR
STARTCHAR ch-229
ENCODING 229
SWIDTH 1000 0
DWIDTH 24 0
BBX 24 24 0 -3
BITMAP
004000
007000
0460c0
07ffe0
0600c0
0600c0
07ffc0
0600c0
0600c0
07ffc0
060000
060030
07fff8
060000
06000c
07fffe
00020c
12210c
12118c
23198c
63181c
c30018
c000f8
000030
ENDCHAR
STARTCHAR ch-231
ENCODING 231
SWIDTH 1000 0
DWIDTH 24 0
BBX 24 24 0 -3
BITMAP
002000
0430c0
07ffe0
0600c0
07ffc0
0600c0
07ffc0
060018
07fffc
060000
07fffc
10000c
31110c
61998c
6088bc
000018
020180
03ffc0
030180
070182
060182
0c0183
1801ff
e000fe
ENDCHAR
STARTCHAR ch-233
ENCODING 233
SWIDTH 1000 0
DWIDTH 24 0
BBX 24 24 0 -3
BITMAP
000100
1c01c0
180998
180ffc
180c18
180c18
190ff8
ff8c18
190c18
190ff8
190c00
190c06
190fff
190c00
312c06
312fff
31ec06
20c026
6012b6
401296
80328e
00600c
00607c
000018
ENDCHAR
STARTCHAR ch-235
ENCODING 235
SWIDTH 1000 0
DWIDTH 24 0
BBX 24 24 0 -3
BITMAP
200006
3fffff
300400
300600
308c60
30fff0
30c060
30c060
30ffe0
30c060
30c060
30ffe0
30c000
30c00c
30fffe
30c000
20c006
20ffff
620086
424466
466626
8c660c
0c007c
000018
ENDCHAR
STARTCHAR ch-236
ENCODING 236
SWIDTH 1000 0
DWIDTH 24 0
BBX 24 24 0 -3
BITMAP
002000
0830c0
0fffe0
0c00c0
0fffc0
0c00c0
0c00c0
0fffc0
0c0010
0ffff8
0c0000
0c000c
0ffffe
0c000c
00000c
03ff0c
03037c
030318
030300
060302
060302
0c0303
1803ff
e001fe
ENDCHAR
STARTCHAR ch-240
ENCODING 240
SWIDTH 1000 0
DWIDTH 24 0
BBX 24 24 0 -3
BITMAP
000100
000180
0c1318
7e1ffc
041818
041818
041ff8
041818
041818
0e1ff8
0e1800
0a1806
0a1fff
1b1800
191806
119fff
31d806
208026
400936
804996
00cc86
018c0c
01807c
000018
ENDCHAR
STARTCHAR ch-243
ENCODING 243
SWIDTH 1000 0
DWIDTH 24 0
BBX 24 24 0 -3
BITMAP
100030
1ffff8
180030
180230
19ff30
182030
183030
18fe30
188230
188230
18fe30
188230
188230
18fe30
188030
18ffb0
188012
18ff9a
10019a
32a98a
22a98e
260306
461f07
800603
ENDCHAR
STARTCHAR ch-244
ENCODING 244
SWIDTH 1000 0
DWIDTH 24 0
BBX 24 24 0 -3
BITMAP
000200
000380
431318
7f9ffc
631818
631818
631ff8
631818
631818
631ff8
631800
631806
631fff
631800
631806
7f1fff
630006
604046
004966
00c92e
01890c
01801c
0000f8
000030
ENDCHAR
STARTCHAR ch-246
ENCODING 246
SWIDTH 1000 0
DWIDTH 24 0
BBX 24 24 0 -3
BITMAP
003a00
003180
001886
ffffff
000c00
004600
007382
0460e2
07ffbf
06008f
07ff80
060080
07ff80
060000
07fff0
060000
06000c
17fffe
10000c
22220c
63330c
e11118
c00078
000030
ENDCHAR
STARTCHAR ch-259
ENCODING 259
SWIDTH 1000 0
DWIDTH 24 0
BBX 24 24 0 -3
BITMAP
0400e0
0700c0
2660c0
3ff0c0
3060cc
3067fe
3fe0cc
3060cc
3060cc
3fe0cc
3000cc
3030cc
3fffff
3001a0
3031a0
3ff9a0
3031b0
003110
2ab118
2ab318
68320c
c0620f
c3e406
00c806
ENDCHAR
STARTCHAR ch-262
ENCODING 262
SWIDTH 1000 0
DWIDTH 24 0
BBX 24 24 0 -3
BITMAP
000080
0e00c0
0c0998
0c0ffc
0c0c18
4c0c18
4ccff8
7fec18
cccc18
cc8ff8
0c0c00
0e0c06
0a0fff
0a0c00
1a0c06
1a2fff
12cc06
138026
331296
221296
403286
80600c
00607c
000018
ENDCHAR
STARTCHAR ch-263
ENCODING 263
SWIDTH 1000 0
DWIDTH 24 0
BBX 24 24 0 -3
BITMAP
000100
7001c0
618998
67cffc
7c0c18
600c18
608ff8
60cc18
7fcc18
3f8ff8
000c00
000c0c
0e0ffe
0c0c00
0c0c06
0ccfff
ffec06
0c0026
0c1296
0c1296
0c328e
0c600c
0c607c
0c0018
ENDCHAR
STARTCHAR ch-264
ENCODING 264
SWIDTH 1000 0
DWIDTH 24 0
BBX 24 24 0 -3
BITMAP
200006
3fffff
300080
3080c0
30e998
30cffc
30cc18
318c18
318ff8
330c18
330c18
370ff8
3b0c00
330c06
330fff
330c00
230c06
230fff
630006
431546
433526
83650c
03603c
030018
ENDCHAR
STARTCHAR ch-265
ENCODING 265
SWIDTH 1000 0
DWIDTH 24 0
BBX 24 24 0 -3
BITMAP
000080
00c0c0
7fe998
318ffc
318c18
318c18
318ff8
318c18
318c18
31aff8
fffc00
078c06
078fff
0d8c00
0d8c06
098fff
198c06
118026
318a96
218a96
419a86
81b00c
0fb07c
030018
ENDCHAR
STARTCHAR ch-270
ENCODING 270
SWIDTH 1000 0
DWIDTH 24 0
BBX 24 24 0 -3
BITMAP
000080
4060e0
7ff4cc
6007fe
60860c
60e60c
68c7fc
64c60c
66c60c
6287fc
638600
610606
6387ff
62c600
66c606
6467ff
686606
706026
600ab6
600a96
7fea8e
601a0c
60187c
000018
ENDCHAR
STARTCHAR ch-274
ENCODING 274
SWIDTH 1000 0
DWIDTH 24 0
BBX 24 24 0 -3
BITMAP
000080
0c00c0
0c0998
1a0ffc
198c18
10cc18
306ff8
206c18
5f0c18
800ff8
000c00
00cc06
ffefff
18cc00
18cc06
18cfff
18cc06
18c026
18ca96
1bca96
199a86
18300c
18307c
180018
ENDCHAR
STARTCHAR ch-277
ENCODING 277
SWIDTH 1000 0
DWIDTH 24 0
BBX 24 24 0 -3
BITMAP
0400e0
0700c0
2660c0
3ff4c0
3064c6
3067ff
3fec06
306c04
306000
3fe1c0
300188
30218e
3ff18c
300198
3031b0
3ff9c0
303180
003180
2ab184
2ab184
683184
c06186
c3e1fe
00c0fc
ENDCHAR
STARTCHAR ch-283
ENCODING 283
SWIDTH 1000 0
DWIDTH 24 0
BBX 24 24 0 -3
BITMAP
070000
066418
0ff7fc
0c6618
18c618
36c6fa
658632
830603
0647ff
0c73fe
306000
c7ffc0
0600c0
07ffc0
0600c0
07ffc0
060010
07fff8
060006
17ffff
122206
211186
6199be
61980c
ENDCHAR
STARTCHAR ch-287
ENCODING 287
SWIDTH 1000 0
DWIDTH 24 0
BBX 24 24 0 -3
BITMAP
000080
00c0c0
47e998
7e0ffc
660c18
660c18
660ff8
660c18
666c18
7ffff8
660c00
660c06
660fff
630c00
634c06
634fff
fd4c06
71c026
40ca96
00ea96
066a86
ff180c
00187c
000018
ENDCHAR
STARTCHAR ch-291
ENCODING 291
SWIDTH 1000 0
DWIDTH 24 0
BBX 24 24 0 -3
BITMAP
000080
0e00c0
0c0998
0c0ffc
0c0c18
0ccc18
ffeff8
0c0c18
0c0c18
0c0ff8
0c0c00
4d8c06
7fcfff
618c00
618c06
618fff
618c06
618026
618a96
7f8a96
619a86
60300c
00307c
000018
ENDCHAR
STARTCHAR ch-294
ENCODING 294
SWIDTH 1000 0
DWIDTH 24 0
BBX 24 24 0 -3
BITMAP
001c00
081830
0ffff8
0c1830
0c3030
0c3036
ffffff
00c100
0190c0
061870
1bffdf
e300c6
03ffc0
0300c0
03ffc0
030000
03fff0
03000c
03fffe
08020c
09118c
119998
719878
600030
ENDCHAR
STARTCHAR ch-296
ENCODING 296
SWIDTH 1000 0
DWIDTH 24 0
BBX 24 24 0 -3
BITMAP
000080
4060e0
7ff4cc
6667fe
66660c
66660c
6667fc
7fe60c
66660c
6667fc
666600
666606
6667ff
7fe600
666606
6607ff
060606
060026
060ab6
060a96
061a8e
06320c
06307c
060018
ENDCHAR
STARTCHAR ch-298
ENCODING 298
SWIDTH 1000 0
DWIDTH 24 0
BBX 24 24 0 -3
BITMAP
000080
0700c0
060998
260ffc
266c18
7ffc18
606ff8
c04c18
c00c18
110ff8
190c00
190c06
198fff
188c00
108c06
30cfff
30cc06
206026
604296
401296
803286
00600c
00607c
000018
ENDCHAR
STARTCHAR ch-299
ENCODING 299
SWIDTH 1000 0
DWIDTH 24 0
BBX 24 24 0 -3
BITMAP
000100
0001c0
40c998
7feffc
64cc18
64cc18
64cff8
64cc18
64cc18
64cff8
7fcc00
64cc06
64cfff
64cc00
64cc06
64cfff
64cc06
7fc046
60d566
601526
00350e
00640c
00607c
000018
ENDCHAR
STARTCHAR ch-300
ENCODING 300
SWIDTH 1000 0
DWIDTH 24 0
BBX 24 24 0 -3
BITMAP
004020
103038
0c1870
061840
260086
3fffff
603006
c220c4
c3ffe8
0300c0
03ffc0
0300c0
0300c0
03ffc0
030000
03fff0
03000c
03fffe
03000c
08020c
09118c
119998
719878
600030
ENDCHAR
STARTCHAR ch-315
ENCODING 315
SWIDTH 1000 0
DWIDTH 24 0
BBX 24 24 0 -3
BITMAP
200080
1800e0
0c02cc
0c1bfe
03ff0c
00630c
8063fc
60630c
32630c
3263fc
046300
046306
0c63ff
086300
186306
187bff
33e006
f18006
710556
300556
30054e
300d0c
380c7c
180018
ENDCHAR
STARTCHAR ch-318
ENCODING 318
SWIDTH 1000 0
DWIDTH 24 0
BBX 24 24 0 -3
BITMAP
100080
1c00c0
190998
308ffc
20cc18
ffec18
786ff8
400c18
070c18
260ff8
360c00
26cc06
7fefff
460c00
860c06
060fff
066c06
fff026
060a96
060a96
061a86
06300c
06307c
060018
ENDCHAR
STARTCHAR ch-319
ENCODING 319
SWIDTH 1000 0
DWIDTH 24 0
BBX 24 24 0 -3
BITMAP
000080
0600c0
060998
0d0ffc
0ccc18
186c18
106ff8
200c18
410c18
9f8ff8
000c00
000c06
000fff
218c00
3fcc06
318fff
318c06
318026
318a96
318a96
3f9a86
31b00c
30307c
000018
ENDCHAR
STARTCHAR ch-321
ENCODING 321
SWIDTH 1000 0
DWIDTH 24 0
BBX 24 24 0 -3
BITMAP
000080
0700c0
060998
060ffc
066c18
fffc18
000ff8
210c18
38cc18
306ff8
606c00
810c06
218fff
130c00
0b0c06
0e0fff
040c06
0e0026
0b0a96
1b0a96
119a86
21b00c
40307c
800018
ENDCHAR
STARTCHAR ch-324
ENCODING 324
SWIDTH 1000 0
DWIDTH 24 0
BBX 24 24 0 -3
BITMAP
000100
00c1c0
ffe998
100ffc
1c0c18
190c18
108ff8
20cc18
ffec18
786ff8
400c00
0e0c06
0c0fff
0ccc00
ffec06
0c0fff
0c0c06
0c0026
0c0a96
0f8a96
fc1a86
70300c
40307c
000018
ENDCHAR
STARTCHAR ch-326
ENCODING 326
SWIDTH 1000 0
DWIDTH 24 0
BBX 24 24 0 -3
BITMAP
080800
0e0c0c
1c993e
18ff80
30c300
60c300
88ff00
0ec306
0cc37f
18ff0c
18c00c
38c18c
58ffcc
98c00c
18c18c
18ffcc
18c18c
18018c
19558c
19558c
1b418c
1b030c
181f3c
180618
ENDCHAR
STARTCHAR ch-328
ENCODING 328
SWIDTH 1000 0
DWIDTH 24 0
BBX 24 24 0 -3
BITMAP
000080
00c0c0
ffe998
318ffc
318c18
318c18
318ff8
3f8c18
318c18
318ff8
318c00
318c06
3f8fff
318c00
318c06
318fff
318c06
318026
ff8a96
718a96
419a86
01b00c
01b07c
018018
ENDCHAR
STARTCHAR ch-336
ENCODING 336
SWIDTH 1000 0
DWIDTH 24 0
BBX 24 24 0 -3
BITMAP
000080
0060c0
fff498
0607fc
060618
060618
2647f8
366618
366618
2647f8
264600
264606
56a7ff
56b600
569606
8717ff
060606
060026
060a96
07ca96
fe1a86
70300c
40307c
000018
ENDCHAR
STARTCHAR ch-337
ENCODING 337
SWIDTH 1000 0
DWIDTH 24 0
BBX 24 24 0 -3
BITMAP
000080
40c0c0
7fe998
60cffc
60cc18
60cc18
7fcff8
000c18
000c18
7fcff8
60cc00
60cc06
60cfff
7fcc00
60cc06
60cfff
60cc06
7fc026
60ca96
60ca96
60ca86
60d80c
63d87c
618018
ENDCHAR
STARTCHAR ch-345
ENCODING 345
SWIDTH 1000 0
DWIDTH 24 0
BBX 24 24 0 -3
BITMAP
000080
2180c0
3fc998
318ffc
318c18
318c18
318ff8
3f8c18
318c18
318ff8
318c00
318c06
3f8fff
318c00
318c06
318fff
318c06
3f8026
000a96
220a96
391a86
31b00c
61b07c
800018
ENDCHAR
STARTCHAR ch-348
ENCODING 348
SWIDTH 1000 0
DWIDTH 24 0
BBX 24 24 0 -3
BITMAP
210080
11c0e0
1984cc
1907fe
02660c
fff60c
0667fc
06660c
46660c
7fe7fc
666600
660606
6667ff
7ff600
666606
0e67ff
0e6606
1e6026
166ab6
37ea96
26ca8e
461a0c
86187c
060018
ENDCHAR
STARTCHAR ch-349
ENCODING 349
SWIDTH 1000 0
DWIDTH 24 0
BBX 24 24 0 -3
BITMAP
058080
0f00c0
194498
7127fc
112618
110618
1107f8
112618
fff618
1107f8
110600
112606
1137ff
152600
196606
3147ff
f1c606
518006
13a556
12a556
14a506
10ec0c
706c7c
306018
ENDCHAR
STARTCHAR ch-350
ENCODING 350
SWIDTH 1000 0
DWIDTH 24 0
BBX 24 24 0 -3
BITMAP
018e40
07cc30
7e0c10
060c06
ffffff
060608
06021c
ffc370
6601c2
064f73
3e603f
0fffce
020040
03ffc0
020040
03ffc0
020006
03ffff
020000
13fffc
10020c
31118c
6199bc
619818
ENDCHAR
STARTCHAR ch-352
ENCODING 352
SWIDTH 1000 0
DWIDTH 24 0
BBX 24 24 0 -3
BITMAP
070080
2600e0
3604cc
3607fe
36660c
3ff60c
6607fc
46060c
86060c
0607fc
066600
fff606
0007ff
000600
20c606
3fe7ff
30c606
30c026
30cab6
30ca96
30ca8e
3fda0c
30d87c
30c018
ENDCHAR
STARTCHAR ch-353
ENCODING 353
SWIDTH 1000 0
DWIDTH 24 0
BBX 24 24 0 -3
BITMAP
038080
0340e0
1324cc
7b37fe
03360c
03060c
0307fc
fffe0c
03060c
0307fc
0b0600
290606
2907ff
290600
2f0606
2907ff
292006
29a416
29a556
2ead56
f8b946
60f80c
40607c
006018
ENDCHAR
STARTCHAR ch-356
ENCODING 356
SWIDTH 1000 0
DWIDTH 24 0
BBX 24 24 0 -3
BITMAP
080040
0e0060
0c44c8
1fe7fc
188618
310618
6267f8
bff618
326618
3267f8
326600
3fe606
3267ff
326600
326606
3267ff
3fe606
306006
306556
206556
606506
406c0c
43ec7c
80c018
ENDCHAR
STARTCHAR ch-364
ENCODING 364
SWIDTH 1000 0
DWIDTH 24 0
BBX 24 24 0 -3
BITMAP
249080
3ef8e0
2492cc
2493fe
24930c
24930c
2493fc
3cf30c
24930c
2493fc
249300
249306
2493ff
3cf300
249306
2493ff
249302
24900a
2492aa
6592a2
451686
45160c
5d707c
8a2018
ENDCHAR
STARTCHAR ch-367
ENCODING 367
SWIDTH 1000 0
DWIDTH 24 0
BBX 24 24 0 -3
BITMAP
040080
0600c0
4cc998
7feffc
64cc18
64cc18
64cff8
7fcc18
64cc18
64cff8
64cc00
7fcc06
100fff
1b8c00
330c06
430fff
036c06
fff026
030a96
030a96
031a86
03300c
03307c
030018
ENDCHAR
STARTCHAR ch-370
ENCODING 370
SWIDTH 1000 0
DWIDTH 24 0
BBX 24 24 0 -3
BITMAP
000080
3b80c0
330998
330ffc
330c18
ffcc18
330ff8
330c18
330c18
330ff8
ffcc00
000c06
000fff
418c00
7fcc06
618fff
618c06
618026
7f8a96
618a96
619a86
61b00c
7fb07c
618018
ENDCHAR
STARTCHAR ch-378
ENCODING 378
SWIDTH 1000 0
DWIDTH 24 0
BBX 24 24 0 -3
BITMAP
070080
0600c0
060498
0637fc
fffe18
110618
1987f8
198618
31f618
3137f8
2b3600
6aa606
66a7ff
a44600
264606
2287ff
238606
210026
238a96
24ca96
28ea86
20580c
20187c
200018
ENDCHAR
STARTCHAR ch-391
ENCODING 391
SWIDTH 1000 0
DWIDTH 24 0
BBX 24 24 0 -3
BITMAP
070080
0600c0
066498
fff7fc
060618
060618
7fe7f8
462618
462618
7fe7f8
462600
462606
4627ff
7fe600
0e0606
0f07ff
1ec606
166026
366a96
260a96
461a86
86300c
06307c
060018
ENDCHAR
STARTCHAR ch-393
ENCODING 393
SWIDTH 1000 0
DWIDTH 24 0
BBX 24 24 0 -3
BITMAP
070080
0600c0
066998
fffffc
000c18
000c18
3fcff8
30cc18
30cc18
30cff8
3fcc00
000c06
00cfff
7fec00
018c06
020fff
046c06
078026
fe0a96
660a96
061a86
06300c
3e307c
0c0018
ENDCHAR
STARTCHAR ch-399
ENCODING 399
SWIDTH 1000 0
DWIDTH 24 0
BBX 24 24 0 -3
BITMAP
006080
07f0e0
fe04cc
0007fe
08460c
84760c
6667fc
36460c
30860c
0607fc
060600
7fe606
0607ff
060600
060606
fff7ff
060006
060aa6
0d0ab6
0c8a96
08da8c
18d80c
30007c
c00018
ENDCHAR
STARTCHAR ch-410
ENCODING 410
SWIDTH 1000 0
DWIDTH 24 0
BBX 24 24 0 -3
BITMAP
492080
7df0c0
492498
4927fc
492618
492618
79e7f8
492618
000618
00c7f8
7fe600
000606
0067ff
fff600
180606
18c7ff
1fe606
30c026
30ca96
00ca96
01da86
01b00c
0fb07c
030018
ENDCHAR
STARTCHAR ch-420
ENCODING 420
SWIDTH 1000 0
DWIDTH 24 0
BBX 24 24 0 -3
BITMAP
400080
4030c0
7ff498
c037fc
c72618
060618
fff7f8
060618
060618
7fe7f8
462600
462606
7fe7ff
462600
462606
4627ff
7fe606
060026
060a96
fffa96
061a86
06300c
06307c
060018
ENDCHAR
STARTCHAR ch-425
ENCODING 425
SWIDTH 1000 0
DWIDTH 24 0
BBX 24 24 0 -3
BITMAP
000100
7fe1c0
00c186
1903ff
042208
fff50c
0b2918
1b40b0
130060
2301b8
cf261f
063006
07ffc0
040040
07ffc0
040040
07ffc0
040010
07fff8
040002
17ffff
122206
63333e
63330c
ENDCHAR
STARTCHAR ch-427
ENCODING 427
SWIDTH 1000 0
DWIDTH 24 0
BBX 24 24 0 -3
BITMAP
070080
0600c0
066498
fff7fc
060618
060618
7fe7f8
462618
462618
6667f8
56a600
462606
4627ff
7fe600
0e0606
0f07ff
1ec606
166026
366a96
260a96
461a86
86300c
06307c
060018
ENDCHAR
STARTCHAR ch-431
ENCODING 431
SWIDTH 1000 0
DWIDTH 24 0
BBX 24 24 0 -3
BITMAP
0180c0
092488
0974bc
1b0d80
128940
046230
282416
3fffff
603006
c220c4
c3ffe8
0300c0
03ffc0
0300c0
03ffc0
030000
03fff0
03000c
03fffe
08020c
09118c
119998
719878
600030
ENDCHAR
STARTCHAR ch-434
ENCODING 434
SWIDTH 1000 0
DWIDTH 24 0
BBX 24 24 0 -3
BITMAP
010080
1100c0
188498
30c7fc
247618
462618
8c87f8
084618
7fe618
3c67f8
000600
082606
fff7ff
082600
8a2606
4927ff
492606
186006
28a556
eba556
492506
082c0c
79ec7c
186018
ENDCHAR
STARTCHAR ch-436
ENCODING 436
SWIDTH 1000 0
DWIDTH 24 0
BBX 24 24 0 -3
BITMAP
040080
0700e0
2604cc
2637fe
7ffe0c
64360c
cc47fc
c9060c
19c60c
1187fc
3ff600
310606
7107ff
bfe600
310606
3107ff
3fe606
310026
310ab6
310a96
3fea86
301a0c
30187c
000018
ENDCHAR
STARTCHAR ch-440
ENCODING 440
SWIDTH 1000 0
DWIDTH 24 0
BBX 24 24 0 -3
BITMAP
082080
fbf0c0
082498
0827fc
082618
492618
79e7f8
410618
410618
4927f8
7df600
082606
0827ff
8a2600
492606
1867ff
28a606
69a006
cb2556
492556
186d06
10580c
f3d87c
618018
ENDCHAR
STARTCHAR ch-442
ENCODING 442
SWIDTH 1000 0
DWIDTH 24 0
BBX 24 24 0 -3
BITMAP
0e0080
0c00c0
0c0998
eceffc
0c0c18
0c0c18
eceff8
0a0c18
198c18
10cff8
206c00
7fec06
b18fff
318c00
3f8c06
318fff
318c06
3f8026
318a96
318a96
319a86
31b00c
37b07c
330018
ENDCHAR
STARTCHAR ch-443
ENCODING 443
SWIDTH 1000 0
DWIDTH 24 0
BBX 24 24 0 -3
BITMAP
20c080
3fe0c0
30c498
30c7fc
37c618
34c618
34c7f8
74d618
7ffe18
c037f8
c02600
3fc606
30c7ff
30c600
3fc606
30c7ff
30c606
30c016
3fc556
30c556
30cd46
30d80c
33d87c
318018
ENDCHAR
STARTCHAR ch-449
ENCODING 449
SWIDTH 1000 0
DWIDTH 24 0
BBX 24 24 0 -3
BITMAP
408080
20e0c0
30c998
308ffc
018c18
010c18
fffff8
210c18
390c18
308ff8
308c00
20cc06
607fff
406c00
bf8c06
2a8fff
2a8c06
2a8026
2a8a96
2aea96
2b9a86
fe300c
70307c
400018
ENDCHAR
STARTCHAR ch-450
ENCODING 450
SWIDTH 1000 0
DWIDTH 24 0
BBX 24 24 0 -3
BITMAP
080080
0c00c0
18c998
1feffc
28cc18
458c18
a30ff8
160c18
0c0c18
300ff8
e08c00
3fcc06
240fff
440c00
044c06
ffefff
040c06
040026
646a96
444a96
444a86
44580c
7fd87c
404018
ENDCHAR
STARTCHAR ch-452
ENCODING 452
SWIDTH 1000 0
DWIDTH 24 0
BBX 24 24 0 -3
BITMAP
018080
07c0c0
7e0998
084ffc
866c18
624c18
288ff8
0c0c18
190c18
118ff8
430c00
320c06
148fff
084c00
ffec06
702fff
0c0c06
ffe026
0c0a96
1a0a96
118a86
20d80c
40d87c
800018
ENDCHAR
STARTCHAR ch-454
ENCODING 454
SWIDTH 1000 0
DWIDTH 24 0
BBX 24 24 0 -3
BITMAP
388080
33c0c0
3e0498
3047fc
306618
1fe618
0007f8
0fc618
684618
4847f8
4fc600
484606
4847ff
4fc600
484606
4847ff
4fc606
400026
7fea96
000a96
111a86
18d80c
30607c
c06018
ENDCHAR
STARTCHAR ch-463
ENCODING 463
SWIDTH 1000 0
DWIDTH 24 0
BBX 24 24 0 -3
BITMAP
070080
0600c0
062498
fff7fc
060618
060618
3fc7f8
30c618
30c618
3fc7f8
30c600
30c606
3fc7ff
30c600
30c606
3fc7ff
000606
fff026
000a96
200a96
391a86
30d80c
60607c
806018
ENDCHAR
STARTCHAR ch-467
ENCODING 467
SWIDTH 1000 0
DWIDTH 24 0
BBX 24 24 0 -3
BITMAP
038080
0300c0
030498
2337fc
3ffe18
300618
3247f8
324618
324618
3ff7f8
324600
324606
3247ff
324600
33c606
3007ff
202606
60b026
4ab096
8a8a96
1a0a86
301a0c
30307c
003018
ENDCHAR
STARTCHAR ch-473
ENCODING 473
SWIDTH 1000 0
DWIDTH 24 0
BBX 24 24 0 -3
BITMAP
0701c0
060180
7fe180
060198
fff7fc
204198
108518
fff31a
06039a
7fe2db
0614df
06180e
07ffc0
040040
07ffc0
040040
07ffc0
040010
07fff8
040002
17ffff
122206
63333e
63330c
ENDCHAR
STARTCHAR ch-486
ENCODING 486
SWIDTH 1000 0
DWIDTH 24 0
BBX 24 24 0 -3
BITMAP
100080
1c80c0
18c498
1887fc
312618
3ff618
7107f8
710618
bfe618
3107f8
310600
3fe606
3107ff
310600
312606
3ff7ff
300606
004026
026096
2b2a96
2d0a86
641a0c
c0307c
c03018
ENDCHAR
STARTCHAR ch-493
ENCODING 493
SWIDTH 1000 0
DWIDTH 24 0
BBX 24 24 0 -3
BITMAP
006080
07f0c0
fe4498
4667fc
264618
268618
fff7f8
0e0618
1f0618
16c7f8
366600
263606
4637ff
860600
000606
7fe7ff
462606
462006
7fe556
462556
462506
462c0c
7fec7c
402018
ENDCHAR
STARTCHAR ch-495
ENCODING 495
SWIDTH 1000 0
DWIDTH 24 0
BBX 24 24 0 -3
BITMAP
070080
0600c0
063498
fffffc
0d0618
091618
d8b7f8
50c618
3fe618
30fff8
50b600
9f8606
1087ff
108600
1f8606
0607ff
268606
364026
666a96
466a96
861a86
06300c
3e307c
0c0018
ENDCHAR
STARTCHAR ch-498
ENCODING 498
SWIDTH 1000 0
DWIDTH 24 0
BBX 24 24 0 -3
BITMAP
0381d0
03198c
fffd84
000180
1fefff
102130
102130
1fe332
230233
33643f
67301e
83ffc0
020040
03ffc0
020040
03ffc0
020006
03ffff
020000
13fffc
11110c
31998c
6088bc
600018
ENDCHAR
STARTCHAR ch-504
ENCODING 504
SWIDTH 1000 0
DWIDTH 24 0
BBX 24 24 0 -3
BITMAP
00c080
7fe0c0
008498
0d07fc
063618
fffe18
0b27f8
134618
230618
cf07f8
060600
402606
7ff7ff
492600
492606
50e7ff
602606
4f2006
492556
492556
4f2506
402c0c
40ec7c
406018
ENDCHAR
STARTCHAR ch-505
ENCODING 505
SWIDTH 1000 0
DWIDTH 24 0
BBX 24 24 0 -3
BITMAP
000e00
200c06
3fffff
310420
31cffe
338840
371ffe
3b2840
330ffe
330840
332fff
303000
31ffe0
310020
31ffe0
310020
21ffe0
210000
61fff8
610002
45ffff
448886
98ccde
18444c
ENDCHAR
STARTCHAR ch-506
ENCODING 506
SWIDTH 1000 0
DWIDTH 24 0
BBX 24 24 0 -3
BITMAP
000200
3fe30c
3063fe
306618
3fe930
0200e0
12039f
13dc06
1203f8
126208
ff83f8
783000
47ffc0
0600c0
07ffc0
0600c0
07ffc0
060010
07fff8
060002
17ffff
122206
63333e
63330c
ENDCHAR
STARTCHAR ch-509
ENCODING 509
SWIDTH 1000 0
DWIDTH 24 0
BBX 24 24 0 -3
BITMAP
010000
13a418
1c18fc
182418
1f00f8
182418
1f18f8
182418
58001a
7fffff
403006
c3ffc4
c20048
03ffc0
020040
03ffc0
020000
03ffe0
02000c
03fffe
08020c
11118c
7199bc
619818
ENDCHAR
ENDFONT
