STARTFONT 2.1
FONT jis.jis5800.16
SIZE 16 72 72
FONTBOUNDINGBOX 16 16 0 -2
STARTPROPERTIES 4
FONT_DESCENT 2
FONT_ASCENT 14
DEFAULT_CHAR 0
COPYRIGHT "Copyright (c) 1992 AT&T - All rights reserved."
ENDPROPERTIES
CHARS 172
STARTCHAR ch-0
ENCODING 0
SWIDTH 1000 0
DWIDTH 16 0
BBX 16 16 0 -2
BITMAP
2000
23fe
2202
2202
23fe
fa00
2210
2292
2292
22fe
2210
3a10
6292
c692
0492
0cfe
ENDCHAR
STARTCHAR ch-2
ENCODING 2
SWIDTH 1000 0
DWIDTH 16 0
BBX 16 16 0 -2
BITMAP
1108
1918
0910
7ffe
4002
4ff2
0810
0810
0ff0
0100
0100
3ffc
0100
0100
ffff
0000
ENDCHAR
STARTCHAR ch-5
ENCODING 5
SWIDTH 1000 0
DWIDTH 16 0
BBX 16 16 0 -2
BITMAP
0000
7f7e
4822
4826
7f34
411c
7f08
481c
4836
7f63
0000
0100
3ffc
0100
ffff
0000
ENDCHAR
STARTCHAR ch-6
ENCODING 6
SWIDTH 1000 0
DWIDTH 16 0
BBX 16 16 0 -2
BITMAP
2044
20cc
2088
21ff
fb10
2510
2110
21fe
2110
2110
2110
39fe
e110
0110
0110
01ff
ENDCHAR
STARTCHAR ch-10
ENCODING 10
SWIDTH 1000 0
DWIDTH 16 0
BBX 16 16 0 -2
BITMAP
0000
7ffe
0420
3c3c
2004
2004
3c3c
0420
ffff
0000
0100
3ffc
0100
0100
ffff
0000
ENDCHAR
STARTCHAR ch-11
ENCODING 11
SWIDTH 1000 0
DWIDTH 16 0
BBX 16 16 0 -2
BITMAP
23cf
2249
2249
2249
fbcf
2249
2249
2249
23cf
2249
3a49
e249
0249
0649
0449
0cd3
ENDCHAR
STARTCHAR ch-21
ENCODING 21
SWIDTH 1000 0
DWIDTH 16 0
BBX 16 16 0 -2
BITMAP
0020
7c20
45ff
4840
507e
48c2
457e
4442
5c7e
4042
4046
0100
3ffc
0100
0100
ffff
ENDCHAR
STARTCHAR ch-25
ENCODING 25
SWIDTH 1000 0
DWIDTH 16 0
BBX 16 16 0 -2
BITMAP
2000
27ff
2090
2090
fbfe
2292
2292
2292
23fe
2020
3820
e3fe
0020
0020
07ff
0000
ENDCHAR
STARTCHAR ch-29
ENCODING 29
SWIDTH 1000 0
DWIDTH 16 0
BBX 16 16 0 -2
BITMAP
2000
21fc
2104
213c
f924
2124
2124
23fe
2202
22fa
3a8a
e28a
028a
02fa
0202
0206
ENDCHAR
STARTCHAR ch-33
ENCODING 33
SWIDTH 1000 0
DWIDTH 16 0
BBX 16 16 0 -2
BITMAP
0800
19fc
1104
3104
61fc
a020
27ff
20a8
2124
2623
2020
0100
3ffc
0100
ffff
0000
ENDCHAR
STARTCHAR ch-36
ENCODING 36
SWIDTH 1000 0
DWIDTH 16 0
BBX 16 16 0 -2
BITMAP
0000
21fc
2104
21fc
2104
f904
21fc
2000
27ff
2020
2120
393e
e120
03a0
06e0
0c3f
ENDCHAR
STARTCHAR ch-42
ENCODING 42
SWIDTH 1000 0
DWIDTH 16 0
BBX 16 16 0 -2
BITMAP
2104
2104
27ff
2104
f9fc
2104
21fc
2104
2104
27ff
2248
3a48
e28f
0300
0200
03ff
ENDCHAR
STARTCHAR ch-47
ENCODING 47
SWIDTH 1000 0
DWIDTH 16 0
BBX 16 16 0 -2
BITMAP
0100
1ff8
0100
7ffe
0000
0810
7f7e
0810
1f10
f0ff
0000
7ffe
0820
1821
3033
e01e
ENDCHAR
STARTCHAR ch-48
ENCODING 48
SWIDTH 1000 0
DWIDTH 16 0
BBX 16 16 0 -2
BITMAP
2000
27ff
2400
24fc
2484
fcfc
2484
24fc
2420
25fe
2448
3cd8
e430
05ce
0400
07ff
ENDCHAR
STARTCHAR ch-49
ENCODING 49
SWIDTH 1000 0
DWIDTH 16 0
BBX 16 16 0 -2
BITMAP
1000
10fe
7c82
1082
108e
fe80
44fe
6ca2
28a2
feb6
1094
109c
7c88
109c
1096
10b3
ENDCHAR
STARTCHAR ch-52
ENCODING 52
SWIDTH 1000 0
DWIDTH 16 0
BBX 16 16 0 -2
BITMAP
21fc
2104
21fc
2104
f904
21fc
2000
27ff
2100
21ff
3a49
64d9
c191
0333
0062
000e
ENDCHAR
STARTCHAR ch-53
ENCODING 53
SWIDTH 1000 0
DWIDTH 16 0
BBX 16 16 0 -2
BITMAP
2042
2042
23fe
2044
f84c
2048
27ff
2020
2040
20fe
3982
6282
ccfe
0082
0082
00fe
ENDCHAR
STARTCHAR ch-58
ENCODING 58
SWIDTH 1000 0
DWIDTH 16 0
BBX 16 16 0 -2
BITMAP
0000
23fe
2222
2222
23fe
fa22
2222
23fe
2088
218c
3b8e
668b
c088
0088
0188
0308
ENDCHAR
STARTCHAR ch-61
ENCODING 61
SWIDTH 1000 0
DWIDTH 16 0
BBX 16 16 0 -2
BITMAP
2000
23ff
2249
2249
fbff
2000
23ff
2010
2010
2110
391e
e110
0110
0110
07ff
0000
ENDCHAR
STARTCHAR ch-64
ENCODING 64
SWIDTH 1000 0
DWIDTH 16 0
BBX 16 16 0 -2
BITMAP
2000
27fe
2402
2402
fffe
2484
2448
25fe
2448
2448
3fff
e448
0cc8
0888
1988
0308
ENDCHAR
STARTCHAR ch-65
ENCODING 65
SWIDTH 1000 0
DWIDTH 16 0
BBX 16 16 0 -2
BITMAP
0000
1ff8
1108
1ff8
1108
1108
1ff8
6006
3c3c
0000
1e78
700e
0100
1ff8
0100
ffff
ENDCHAR
STARTCHAR ch-74
ENCODING 74
SWIDTH 1000 0
DWIDTH 16 0
BBX 16 16 0 -2
BITMAP
2020
2040
23fe
2222
fa22
23fe
2222
2222
23fe
2090
3894
6095
c19f
0110
0311
0e0f
ENDCHAR
STARTCHAR ch-75
ENCODING 75
SWIDTH 1000 0
DWIDTH 16 0
BBX 16 16 0 -2
BITMAP
0810
4952
4a54
1c38
366c
62c6
0000
7ffe
4002
4102
0100
3ffc
0100
0100
ffff
0000
ENDCHAR
STARTCHAR ch-81
ENCODING 81
SWIDTH 1000 0
DWIDTH 16 0
BBX 16 16 0 -2
BITMAP
4100
223e
ffa2
083e
4922
493e
4922
7f22
0822
3046
c100
1ff8
0100
0100
ffff
0000
ENDCHAR
STARTCHAR ch-82
ENCODING 82
SWIDTH 1000 0
DWIDTH 16 0
BBX 16 16 0 -2
BITMAP
2008
2788
24be
2488
fc88
2488
27ff
2482
2482
24ff
2482
3ca2
e7b2
0012
0002
000e
ENDCHAR
STARTCHAR ch-84
ENCODING 84
SWIDTH 1000 0
DWIDTH 16 0
BBX 16 16 0 -2
BITMAP
0088
2088
27ff
2088
2020
f870
20d8
218c
2777
2000
2000
39fc
e104
0104
0104
01fc
ENDCHAR
STARTCHAR ch-87
ENCODING 87
SWIDTH 1000 0
DWIDTH 16 0
BBX 16 16 0 -2
BITMAP
0020
6070
31dc
c707
61fc
0020
17ff
3124
6326
c663
0100
3ffc
0100
0100
ffff
0000
ENDCHAR
STARTCHAR ch-88
ENCODING 88
SWIDTH 1000 0
DWIDTH 16 0
BBX 16 16 0 -2
BITMAP
0020
2020
23ff
2210
22fe
fa12
23ff
2212
2212
22fe
2200
3afe
e682
0482
0c82
00fe
ENDCHAR
STARTCHAR ch-89
ENCODING 89
SWIDTH 1000 0
DWIDTH 16 0
BBX 16 16 0 -2
BITMAP
2020
2020
27ff
2000
f9fc
2104
21fc
2000
27ff
2401
3cf9
e489
0489
04f9
0401
0407
ENDCHAR
STARTCHAR ch-90
ENCODING 90
SWIDTH 1000 0
DWIDTH 16 0
BBX 16 16 0 -2
BITMAP
2000
27ff
2401
2401
fbfe
2040
2082
2146
266c
20a0
3930
e668
00ac
0126
0e63
01c0
ENDCHAR
STARTCHAR ch-94
ENCODING 94
SWIDTH 1000 0
DWIDTH 16 0
BBX 16 16 0 -2
BITMAP
0100
0100
7ffe
4002
4422
3ffc
0420
3ffc
0420
ffff
0810
391c
e107
1ff8
0100
7ffe
ENDCHAR
STARTCHAR ch-98
ENCODING 98
SWIDTH 1000 0
DWIDTH 16 0
BBX 16 16 0 -2
BITMAP
2020
2040
23fc
2204
fa04
2204
23fc
2200
23ff
2200
3bfe
e002
0552
0d52
1806
001c
ENDCHAR
STARTCHAR ch-105
ENCODING 105
SWIDTH 1000 0
DWIDTH 16 0
BBX 16 16 0 -2
BITMAP
0200
2200
27fe
2c00
23fc
fa04
2204
23fc
2000
27fe
2492
3c92
e492
0492
0492
0fff
ENDCHAR
STARTCHAR ch-107
ENCODING 107
SWIDTH 1000 0
DWIDTH 16 0
BBX 16 16 0 -2
BITMAP
2020
2020
27ff
2020
f9fc
2104
21fc
2104
21fc
2104
39fc
6000
c7ff
0104
0306
0603
ENDCHAR
STARTCHAR ch-112
ENCODING 112
SWIDTH 1000 0
DWIDTH 16 0
BBX 16 16 0 -2
BITMAP
0200
63ff
3600
0dfe
c122
6122
07ff
1222
3222
63ff
c004
010c
1ff0
0100
ffff
0000
ENDCHAR
STARTCHAR ch-114
ENCODING 114
SWIDTH 1000 0
DWIDTH 16 0
BBX 16 16 0 -2
BITMAP
2100
23fe
2600
21fc
f904
21fc
2104
21fc
2000
27ff
3900
e3fe
0692
0122
0646
019c
ENDCHAR
STARTCHAR ch-117
ENCODING 117
SWIDTH 1000 0
DWIDTH 16 0
BBX 16 16 0 -2
BITMAP
0080
0080
3fff
2220
3ffe
2222
3ffe
2420
27a4
6439
47a3
dc1e
0100
3ffc
0100
ffff
ENDCHAR
STARTCHAR ch-121
ENCODING 121
SWIDTH 1000 0
DWIDTH 16 0
BBX 16 16 0 -2
BITMAP
0806
ffbc
0820
7f20
493f
7f24
4924
7f24
0824
ffa4
0844
0100
3ffc
0100
ffff
0000
ENDCHAR
STARTCHAR ch-126
ENCODING 126
SWIDTH 1000 0
DWIDTH 16 0
BBX 16 16 0 -2
BITMAP
0820
ff20
0020
7efc
4224
7e24
00a4
7e64
0434
ff55
0887
3802
0100
3ffc
0100
ffff
ENDCHAR
STARTCHAR ch-131
ENCODING 131
SWIDTH 1000 0
DWIDTH 16 0
BBX 16 16 0 -2
BITMAP
2020
2020
27ff
2104
f888
27ff
2000
23fe
2202
23fe
2202
3bfe
e088
0189
0309
0e07
ENDCHAR
STARTCHAR ch-133
ENCODING 133
SWIDTH 1000 0
DWIDTH 16 0
BBX 16 16 0 -2
BITMAP
0000
7f7f
4902
7f14
4908
7f7f
0809
7f0a
0808
0f08
f838
0100
3ffc
0100
ffff
0000
ENDCHAR
STARTCHAR ch-147
ENCODING 147
SWIDTH 1000 0
DWIDTH 16 0
BBX 16 16 0 -2
BITMAP
0420
ffff
0420
1ff8
1008
1ff8
1008
1ff8
0200
ffff
0420
1918
e107
0ff0
0100
7ffe
ENDCHAR
STARTCHAR ch-151
ENCODING 151
SWIDTH 1000 0
DWIDTH 16 0
BBX 16 16 0 -2
BITMAP
2104
2088
23ff
2221
fa21
23ff
2221
2221
23ff
2000
39fe
e102
01fe
0102
0102
01fe
ENDCHAR
STARTCHAR ch-156
ENCODING 156
SWIDTH 1000 0
DWIDTH 16 0
BBX 16 16 0 -2
BITMAP
0084
7c48
47ff
4840
50a3
4b56
48b0
4b58
4894
5b13
4070
0100
3ffc
0100
ffff
0000
ENDCHAR
STARTCHAR ch-159
ENCODING 159
SWIDTH 1000 0
DWIDTH 16 0
BBX 16 16 0 -2
BITMAP
2020
203e
2020
23ff
fa01
2242
2278
23c2
223e
2200
3a28
e2a9
06aa
04aa
0c28
1bff
ENDCHAR
STARTCHAR ch-168
ENCODING 168
SWIDTH 1000 0
DWIDTH 16 0
BBX 16 16 0 -2
BITMAP
0000
3ffc
2104
3ffc
2104
3ffc
0100
7ffe
0100
ffff
2444
c103
3ffc
0100
ffff
0000
ENDCHAR
STARTCHAR ch-171
ENCODING 171
SWIDTH 1000 0
DWIDTH 16 0
BBX 16 16 0 -2
BITMAP
2104
2088
27ff
2050
fbfe
2252
239e
2202
23fe
2202
3bfe
e004
07ff
0104
0084
001c
ENDCHAR
STARTCHAR ch-174
ENCODING 174
SWIDTH 1000 0
DWIDTH 16 0
BBX 16 16 0 -2
BITMAP
0020
7dff
4440
48fe
5110
48ff
4444
447c
4444
5c7c
4044
404c
0100
3ffc
0100
ffff
ENDCHAR
STARTCHAR ch-179
ENCODING 179
SWIDTH 1000 0
DWIDTH 16 0
BBX 16 16 0 -2
BITMAP
2020
23fe
2020
2104
27ff
f904
2000
23fe
2202
23fe
2202
3bfe
e202
03fe
0104
0603
ENDCHAR
STARTCHAR ch-184
ENCODING 184
SWIDTH 1000 0
DWIDTH 16 0
BBX 16 16 0 -2
BITMAP
2088
2088
27ff
2088
f842
23fe
2044
2048
27ff
2020
38fe
e382
0efe
0082
0082
00fe
ENDCHAR
STARTCHAR ch-185
ENCODING 185
SWIDTH 1000 0
DWIDTH 16 0
BBX 16 16 0 -2
BITMAP
2000
27df
2451
27df
fc51
27df
2401
24f9
2489
2489
24f9
3c89
e489
04f9
0401
0407
ENDCHAR
STARTCHAR ch-186
ENCODING 186
SWIDTH 1000 0
DWIDTH 16 0
BBX 16 16 0 -2
BITMAP
2020
2040
23fe
2202
faaa
2222
22fa
2272
22aa
2222
3a42
e7ff
0050
00d8
018c
0707
ENDCHAR
STARTCHAR ch-187
ENCODING 187
SWIDTH 1000 0
DWIDTH 16 0
BBX 16 16 0 -2
BITMAP
2020
23fe
2020
2124
f924
22aa
2020
27ff
2000
23fe
3a02
e2fa
028a
02fa
0202
03fe
ENDCHAR
STARTCHAR ch-190
ENCODING 190
SWIDTH 1000 0
DWIDTH 16 0
BBX 16 16 0 -2
BITMAP
0c00
307e
ca42
247e
0842
347e
ca51
365b
ca4a
327c
c6c6
1c03
0100
7ffe
0100
ffff
ENDCHAR
STARTCHAR ch-193
ENCODING 193
SWIDTH 1000 0
DWIDTH 16 0
BBX 16 16 0 -2
BITMAP
0008
3f08
217f
2122
3f14
207f
7f08
517f
d108
1f08
0000
0100
3ffc
0100
ffff
0000
ENDCHAR
STARTCHAR ch-197
ENCODING 197
SWIDTH 1000 0
DWIDTH 16 0
BBX 16 16 0 -2
BITMAP
0100
ffff
2048
4090
89ff
5710
21fe
4910
f9fe
1110
21ff
c000
0100
3ffc
0100
ffff
ENDCHAR
STARTCHAR ch-199
ENCODING 199
SWIDTH 1000 0
DWIDTH 16 0
BBX 16 16 0 -2
BITMAP
2020
27ff
2000
23fe
fa02
22fa
228a
22fa
2202
23fe
3904
e1fc
0104
01fc
0104
07ff
ENDCHAR
STARTCHAR ch-202
ENCODING 202
SWIDTH 1000 0
DWIDTH 16 0
BBX 16 16 0 -2
BITMAP
2020
2020
27ff
2020
fbfe
2292
2292
23fe
2020
27ff
3890
6199
c30a
0d0c
01e6
0703
ENDCHAR
STARTCHAR ch-204
ENCODING 204
SWIDTH 1000 0
DWIDTH 16 0
BBX 16 16 0 -2
BITMAP
0020
2020
27ff
2088
2707
f888
23fe
2088
23fe
2088
27ff
3892
e194
0f18
01ec
0707
ENDCHAR
STARTCHAR ch-209
ENCODING 209
SWIDTH 1000 0
DWIDTH 16 0
BBX 16 16 0 -2
BITMAP
0800
0f7e
0822
ffa2
80b6
4914
949c
2208
ff9c
4136
7f63
0000
0100
3ffc
0100
ffff
ENDCHAR
STARTCHAR ch-211
ENCODING 211
SWIDTH 1000 0
DWIDTH 16 0
BBX 16 16 0 -2
BITMAP
7fff
5120
5f24
5122
5fff
4028
5f28
512c
5f64
5146
5fc3
9100
0080
1ffc
0080
7fff
ENDCHAR
STARTCHAR ch-213
ENCODING 213
SWIDTH 1000 0
DWIDTH 16 0
BBX 16 16 0 -2
BITMAP
2020
27ff
2000
21fc
f904
21fc
2000
27ff
2401
25fd
20c0
3b22
e0d4
0338
00d4
0733
ENDCHAR
STARTCHAR ch-215
ENCODING 215
SWIDTH 1000 0
DWIDTH 16 0
BBX 16 16 0 -2
BITMAP
2020
23fe
2022
27ff
f822
23fe
2020
27ff
2292
2449
3800
e3fe
0292
0292
0292
07ff
ENDCHAR
STARTCHAR ch-216
ENCODING 216
SWIDTH 1000 0
DWIDTH 16 0
BBX 16 16 0 -2
BITMAP
1ff8
1108
1ff8
1108
1ff8
0000
fe7f
9249
fe7f
9249
fe7f
0100
7ffe
0100
0100
ffff
ENDCHAR
STARTCHAR ch-217
ENCODING 217
SWIDTH 1000 0
DWIDTH 16 0
BBX 16 16 0 -2
BITMAP
2020
2020
27ff
2448
fdfe
2448
27ff
2420
25fe
2522
3dfe
e522
0d22
09fe
1884
0303
ENDCHAR
STARTCHAR ch-220
ENCODING 220
SWIDTH 1000 0
DWIDTH 16 0
BBX 16 16 0 -2
BITMAP
21fc
2104
21fc
2104
fbfe
2020
27ff
2421
25ad
2020
39fc
e000
07ff
0084
013e
03e3
ENDCHAR
STARTCHAR ch-222
ENCODING 222
SWIDTH 1000 0
DWIDTH 16 0
BBX 16 16 0 -2
BITMAP
2020
27ff
2000
23fe
fa92
23fe
2000
27af
2020
27af
3870
e1d1
0f1a
010c
01e6
0703
ENDCHAR
STARTCHAR ch-223
ENCODING 223
SWIDTH 1000 0
DWIDTH 16 0
BBX 16 16 0 -2
BITMAP
0820
7f3f
2220
ffbe
0002
3e3e
2220
3e3e
2220
3e3e
2221
261f
0100
3ffc
0100
ffff
ENDCHAR
STARTCHAR ch-228
ENCODING 228
SWIDTH 1000 0
DWIDTH 16 0
BBX 16 16 0 -2
BITMAP
2020
27ff
2000
23de
fa52
23de
2088
23fe
2088
23fe
3888
e7ff
0091
070a
01e4
0303
ENDCHAR
STARTCHAR ch-229
ENCODING 229
SWIDTH 1000 0
DWIDTH 16 0
BBX 16 16 0 -2
BITMAP
27ff
2400
24fe
2492
fcfe
2492
24fe
2410
24fe
2410
3dff
e4aa
0d11
08fe
1810
01ff
ENDCHAR
STARTCHAR ch-235
ENCODING 235
SWIDTH 1000 0
DWIDTH 16 0
BBX 16 16 0 -2
BITMAP
0100
0100
0100
0100
0100
0100
ffff
0100
0100
0100
0100
0100
0100
0100
7ffe
0000
ENDCHAR
STARTCHAR ch-236
ENCODING 236
SWIDTH 1000 0
DWIDTH 16 0
BBX 16 16 0 -2
BITMAP
000c
0038
01e0
7f00
0100
0100
0100
ffff
0100
0100
0100
0100
0100
0100
7ffe
0000
ENDCHAR
STARTCHAR ch-238
ENCODING 238
SWIDTH 1000 0
DWIDTH 16 0
BBX 16 16 0 -2
BITMAP
0820
0820
0820
4820
6820
2fff
0820
0820
0820
3820
6820
c820
0820
0820
0bfe
0800
ENDCHAR
STARTCHAR ch-239
ENCODING 239
SWIDTH 1000 0
DWIDTH 16 0
BBX 16 16 0 -2
BITMAP
0410
4410
4410
4410
4410
7dff
0410
0410
fc10
2410
2410
2410
6410
4410
c4fe
0400
ENDCHAR
STARTCHAR ch-240
ENCODING 240
SWIDTH 1000 0
DWIDTH 16 0
BBX 16 16 0 -2
BITMAP
0100
0100
ffff
0100
0100
7ffe
0000
3ffc
2104
2104
3ffc
2000
2000
6000
4000
c000
ENDCHAR
STARTCHAR ch-241
ENCODING 241
SWIDTH 1000 0
DWIDTH 16 0
BBX 16 16 0 -2
BITMAP
0100
0100
ffff
0100
0100
3ffc
0000
ffff
8001
9031
11e0
1f00
1002
1006
1804
0ffc
ENDCHAR
STARTCHAR ch-242
ENCODING 242
SWIDTH 1000 0
DWIDTH 16 0
BBX 16 16 0 -2
BITMAP
0100
0100
ffff
0100
0100
3ffc
0000
0000
7ffe
4002
4442
0440
0c40
1841
3063
e03e
ENDCHAR
STARTCHAR ch-247
ENCODING 247
SWIDTH 1000 0
DWIDTH 16 0
BBX 16 16 0 -2
BITMAP
0100
0100
ffff
0100
3ffc
0000
7ffe
4242
5ffa
1248
1248
1ff8
0240
0240
ffff
0000
ENDCHAR
STARTCHAR ch-249
ENCODING 249
SWIDTH 1000 0
DWIDTH 16 0
BBX 16 16 0 -2
BITMAP
0100
7ffe
0100
1ff8
0000
7ffe
4002
5ffa
0000
1ff8
1008
1ff8
0810
0420
ffff
0000
ENDCHAR
STARTCHAR ch-250
ENCODING 250
SWIDTH 1000 0
DWIDTH 16 0
BBX 16 16 0 -2
BITMAP
0100
0100
7ffe
0100
1ff8
0000
7ffe
4242
5e7a
1008
1008
1e78
0240
0240
ffff
0000
ENDCHAR
STARTCHAR ch-251
ENCODING 251
SWIDTH 1000 0
DWIDTH 16 0
BBX 16 16 0 -2
BITMAP
2000
23ff
2011
209e
f890
21d0
233f
2000
21fe
2102
39fe
e102
01fe
0102
0102
010e
ENDCHAR
STARTCHAR ch-252
ENCODING 252
SWIDTH 1000 0
DWIDTH 16 0
BBX 16 16 0 -2
BITMAP
0100
7ffe
0100
1ff8
0000
7ffe
4002
5ffa
0240
1e78
1008
1008
1e78
0240
ffff
0000
ENDCHAR
STARTCHAR ch-253
ENCODING 253
SWIDTH 1000 0
DWIDTH 16 0
BBX 16 16 0 -2
BITMAP
0100
ffff
0100
3ffc
0000
fffe
0002
1ff2
0100
3ff8
0000
ffff
0004
7dff
4444
7c2c
ENDCHAR
STARTCHAR ch-258
ENCODING 258
SWIDTH 1000 0
DWIDTH 16 0
BBX 16 16 0 -2
BITMAP
0400
0400
0400
0ff0
0810
1c10
3430
6620
0260
03c0
0180
03c0
0660
0c30
381c
e007
ENDCHAR
STARTCHAR ch-265
ENCODING 265
SWIDTH 1000 0
DWIDTH 16 0
BBX 16 16 0 -2
BITMAP
0100
0100
ffff
0420
2424
6426
cc23
1820
0400
07f8
0c10
1830
7660
03c0
1e78
f00f
ENDCHAR
STARTCHAR ch-266
ENCODING 266
SWIDTH 1000 0
DWIDTH 16 0
BBX 16 16 0 -2
BITMAP
0100
2100
3100
13f8
1a08
0e18
0410
0e30
1a60
33c0
0180
03c0
0660
0c30
381c
e007
ENDCHAR
STARTCHAR ch-271
ENCODING 271
SWIDTH 1000 0
DWIDTH 16 0
BBX 16 16 0 -2
BITMAP
0000
ffff
0100
1ff8
1008
1ff8
1008
1ff8
1008
1ff8
0400
0ff8
1810
6420
03c0
fc3f
ENDCHAR
STARTCHAR ch-272
ENCODING 272
SWIDTH 1000 0
DWIDTH 16 0
BBX 16 16 0 -2
BITMAP
0400
0fe0
3040
fffe
4182
4662
3ffc
2004
3ffc
2004
3ffc
0400
1ff8
7430
03c0
fc3f
ENDCHAR
STARTCHAR ch-277
ENCODING 277
SWIDTH 1000 0
DWIDTH 16 0
BBX 16 16 0 -2
BITMAP
0200
0200
0200
07fc
0404
0c0c
1808
3618
6310
01b0
0060
00c0
0180
0700
1c00
f000
ENDCHAR
STARTCHAR ch-278
ENCODING 278
SWIDTH 1000 0
DWIDTH 16 0
BBX 16 16 0 -2
BITMAP
1020
1020
1f20
1120
3120
2130
6138
d32c
0a26
0623
0420
0c20
1820
3020
6020
c020
ENDCHAR
STARTCHAR ch-280
ENCODING 280
SWIDTH 1000 0
DWIDTH 16 0
BBX 16 16 0 -2
BITMAP
1000
103e
1f22
1122
3122
2122
7322
da22
0e22
0422
0c22
0822
182e
3020
6020
c020
ENDCHAR
STARTCHAR ch-281
ENCODING 281
SWIDTH 1000 0
DWIDTH 16 0
BBX 16 16 0 -2
BITMAP
0000
3ff8
2008
2008
2fe8
2208
23c8
2248
2648
2548
2cc8
2088
218c
6305
4607
c002
ENDCHAR
STARTCHAR ch-282
ENCODING 282
SWIDTH 1000 0
DWIDTH 16 0
BBX 16 16 0 -2
BITMAP
0100
03f0
0610
1c30
7660
02c0
0380
0e20
787e
00c2
0386
0ecc
0058
0070
03c0
3e00
ENDCHAR
STARTCHAR ch-283
ENCODING 283
SWIDTH 1000 0
DWIDTH 16 0
BBX 16 16 0 -2
BITMAP
0000
1ff8
0008
1ff8
0008
0008
ffff
0200
07fc
1c0c
7318
01b0
0060
01c0
0f00
7800
ENDCHAR
STARTCHAR ch-284
ENCODING 284
SWIDTH 1000 0
DWIDTH 16 0
BBX 16 16 0 -2
BITMAP
0100
0100
0100
ffff
0440
0c40
08fc
1884
31cc
7328
d698
1070
1020
1070
11dc
1707
ENDCHAR
STARTCHAR ch-290
ENCODING 290
SWIDTH 1000 0
DWIDTH 16 0
BBX 16 16 0 -2
BITMAP
0420
0420
ffff
0420
3ffc
2244
3ffc
0000
7ffe
4202
47fa
0c30
3a60
01c0
0700
3c00
ENDCHAR
STARTCHAR ch-293
ENCODING 293
SWIDTH 1000 0
DWIDTH 16 0
BBX 16 16 0 -2
BITMAP
0010
7f1e
4932
4966
7f14
490c
4918
7f70
0808
ff8f
2a19
2b33
690a
4986
c80c
0838
ENDCHAR
STARTCHAR ch-295
ENCODING 295
SWIDTH 1000 0
DWIDTH 16 0
BBX 16 16 0 -2
BITMAP
0100
0100
0100
0100
0100
ffff
0100
0380
0280
02c0
0640
0460
0c30
1818
300c
e007
ENDCHAR
STARTCHAR ch-297
ENCODING 297
SWIDTH 1000 0
DWIDTH 16 0
BBX 16 16 0 -2
BITMAP
0000
ffff
0100
0100
0100
0100
0100
7ffe
0280
02c0
0640
0460
0c30
1818
300c
e007
ENDCHAR
STARTCHAR ch-298
ENCODING 298
SWIDTH 1000 0
DWIDTH 16 0
BBX 16 16 0 -2
BITMAP
0100
0100
0100
0100
0100
ffff
0280
0280
02c0
0640
0460
0c20
0b30
1998
308c
e007
ENDCHAR
STARTCHAR ch-299
ENCODING 299
SWIDTH 1000 0
DWIDTH 16 0
BBX 16 16 0 -2
BITMAP
0100
0100
0100
7ffe
0100
0100
0100
0100
ffff
0240
0660
0420
0c30
1818
300c
e007
ENDCHAR
STARTCHAR ch-300
ENCODING 300
SWIDTH 1000 0
DWIDTH 16 0
BBX 16 16 0 -2
BITMAP
0100
0100
0100
3ff8
0108
0108
0108
0108
ffff
0280
06c0
0440
0c60
1830
301c
e007
ENDCHAR
STARTCHAR ch-301
ENCODING 301
SWIDTH 1000 0
DWIDTH 16 0
BBX 16 16 0 -2
BITMAP
001c
01f0
7f00
0100
0100
0100
0100
ffff
0280
02c0
0640
0460
0c30
1818
300c
e007
ENDCHAR
STARTCHAR ch-302
ENCODING 302
SWIDTH 1000 0
DWIDTH 16 0
BBX 16 16 0 -2
BITMAP
0100
0100
0100
3ffc
2104
2104
2104
2104
2104
ffff
0280
06c0
0460
0c30
381c
e007
ENDCHAR
STARTCHAR ch-305
ENCODING 305
SWIDTH 1000 0
DWIDTH 16 0
BBX 16 16 0 -2
BITMAP
0100
1100
1100
3ffc
2100
6100
0100
0100
ffff
0240
0660
0420
0c30
1818
300c
e007
ENDCHAR
STARTCHAR ch-306
ENCODING 306
SWIDTH 1000 0
DWIDTH 16 0
BBX 16 16 0 -2
BITMAP
0100
0100
0100
ffff
0240
0660
0c30
1818
310c
e107
0100
7ffe
0100
0100
0100
0100
ENDCHAR
STARTCHAR ch-311
ENCODING 311
SWIDTH 1000 0
DWIDTH 16 0
BBX 16 16 0 -2
BITMAP
0100
0100
ffff
0100
7ffc
0104
3ffc
2100
2100
3ffe
0282
06c2
044e
0c60
3838
e00f
ENDCHAR
STARTCHAR ch-312
ENCODING 312
SWIDTH 1000 0
DWIDTH 16 0
BBX 16 16 0 -2
BITMAP
0100
0100
ffff
0240
0660
0c30
381c
e7e7
0000
3ffc
0400
0ff8
0008
0018
0030
00e0
ENDCHAR
STARTCHAR ch-318
ENCODING 318
SWIDTH 1000 0
DWIDTH 16 0
BBX 16 16 0 -2
BITMAP
0100
0100
ffff
0100
1108
1108
1108
391c
6d36
c103
0380
02c0
0660
0c30
381c
e007
ENDCHAR
STARTCHAR ch-324
ENCODING 324
SWIDTH 1000 0
DWIDTH 16 0
BBX 16 16 0 -2
BITMAP
0200
0200
ffff
0420
0910
1108
3ffc
e107
2104
3ffc
2104
2104
3ffc
0101
0183
00fe
ENDCHAR
STARTCHAR ch-327
ENCODING 327
SWIDTH 1000 0
DWIDTH 16 0
BBX 16 16 0 -2
BITMAP
0100
0100
7ffe
0240
0420
1818
0000
ffff
0008
1f88
1088
1088
1088
1f88
0008
0038
ENDCHAR
STARTCHAR ch-328
ENCODING 328
SWIDTH 1000 0
DWIDTH 16 0
BBX 16 16 0 -2
BITMAP
0100
0100
ffff
0240
0660
0c30
381c
e7e7
0000
0000
7ffe
0100
0910
391c
e107
0700
ENDCHAR
STARTCHAR ch-329
ENCODING 329
SWIDTH 1000 0
DWIDTH 16 0
BBX 16 16 0 -2
BITMAP
0100
0100
7ffe
0100
3ffc
0240
ffff
0420
0910
310c
cff3
0100
7ffe
0100
0100
0100
ENDCHAR
STARTCHAR ch-334
ENCODING 334
SWIDTH 1000 0
DWIDTH 16 0
BBX 16 16 0 -2
BITMAP
0100
0100
ffff
0420
0910
3ffc
e107
0100
7ffe
0000
0100
3ffc
0100
0100
ffff
0000
ENDCHAR
STARTCHAR ch-335
ENCODING 335
SWIDTH 1000 0
DWIDTH 16 0
BBX 16 16 0 -2
BITMAP
0100
0100
7ffe
0100
3ffc
0240
ffff
0420
0810
37ec
c103
3ffc
0240
0660
1c38
700e
ENDCHAR
STARTCHAR ch-336
ENCODING 336
SWIDTH 1000 0
DWIDTH 16 0
BBX 16 16 0 -2
BITMAP
0800
0fe0
1820
3040
fffc
2244
2244
2644
2c7c
3904
2104
ffff
0240
0660
1c38
f00f
ENDCHAR
STARTCHAR ch-337
ENCODING 337
SWIDTH 1000 0
DWIDTH 16 0
BBX 16 16 0 -2
BITMAP
0800
0800
ff7e
0812
7f12
0832
0822
3f66
e0cc
0100
0100
ffff
0240
0660
1c38
f00f
ENDCHAR
STARTCHAR ch-340
ENCODING 340
SWIDTH 1000 0
DWIDTH 16 0
BBX 16 16 0 -2
BITMAP
0100
0100
ffff
0420
0d30
391c
eff7
0100
0910
0810
ffff
0810
1810
1010
3010
6010
ENDCHAR
STARTCHAR ch-341
ENCODING 341
SWIDTH 1000 0
DWIDTH 16 0
BBX 16 16 0 -2
BITMAP
0100
0100
ffff
0440
2444
2444
6446
cc43
1840
0100
0100
ffff
0240
0660
1c38
f00f
ENDCHAR
STARTCHAR ch-343
ENCODING 343
SWIDTH 1000 0
DWIDTH 16 0
BBX 16 16 0 -2
BITMAP
0100
0100
ffff
0420
0810
3ffc
e807
0ff0
0800
0ff0
0800
ffff
0800
1808
13fc
7e06
ENDCHAR
STARTCHAR ch-344
ENCODING 344
SWIDTH 1000 0
DWIDTH 16 0
BBX 16 16 0 -2
BITMAP
0820
4820
6820
2fff
0820
0820
3820
ebfe
0800
0900
0100
ffff
0240
0660
1c38
f00f
ENDCHAR
STARTCHAR ch-346
ENCODING 346
SWIDTH 1000 0
DWIDTH 16 0
BBX 16 16 0 -2
BITMAP
000c
0078
3fc0
2104
6486
cc43
18c0
0d88
030c
7ff6
0100
ffff
0240
0660
1c38
f00f
ENDCHAR
STARTCHAR ch-352
ENCODING 352
SWIDTH 1000 0
DWIDTH 16 0
BBX 16 16 0 -2
BITMAP
1008
0810
ffff
0240
3ffc
2244
3c7c
2004
3ffc
2004
3ffc
0100
ffff
0240
1c38
f00f
ENDCHAR
STARTCHAR ch-354
ENCODING 354
SWIDTH 1000 0
DWIDTH 16 0
BBX 16 16 0 -2
BITMAP
0100
0100
ffff
0420
1918
e117
1ff0
0120
ffff
0200
0ff8
3808
eff8
0808
0808
0ff8
ENDCHAR
STARTCHAR ch-357
ENCODING 357
SWIDTH 1000 0
DWIDTH 16 0
BBX 16 16 0 -2
BITMAP
0100
0200
3ffc
2004
2924
2544
2ff4
2384
2544
2934
2104
2204
ffff
0660
1c38
700e
ENDCHAR
STARTCHAR ch-359
ENCODING 359
SWIDTH 1000 0
DWIDTH 16 0
BBX 16 16 0 -2
BITMAP
0100
0200
3ffc
2044
2784
2924
2544
2ff4
2384
2544
2934
2204
ffff
0420
1818
700e
ENDCHAR
STARTCHAR ch-360
ENCODING 360
SWIDTH 1000 0
DWIDTH 16 0
BBX 16 16 0 -2
BITMAP
080e
49f8
6821
2912
0884
0bff
3804
e8c4
0864
080c
0100
ffff
0240
0660
1c38
f00f
ENDCHAR
STARTCHAR ch-361
ENCODING 361
SWIDTH 1000 0
DWIDTH 16 0
BBX 16 16 0 -2
BITMAP
0100
0100
ffff
0240
0c30
3ffc
e007
23f0
2210
23f0
2000
2f3c
2924
2f3c
2000
3ffe
ENDCHAR
STARTCHAR ch-362
ENCODING 362
SWIDTH 1000 0
DWIDTH 16 0
BBX 16 16 0 -2
BITMAP
0100
ffff
0420
1818
e447
0ffc
3080
dff8
1080
1ff8
1080
1ffe
0010
ffff
0810
0470
ENDCHAR
STARTCHAR ch-364
ENCODING 364
SWIDTH 1000 0
DWIDTH 16 0
BBX 16 16 0 -2
BITMAP
4410
447e
45d2
7c5c
05f0
fc04
25ff
2444
6424
c40c
0100
ffff
0240
0660
1c38
f00f
ENDCHAR
STARTCHAR ch-366
ENCODING 366
SWIDTH 1000 0
DWIDTH 16 0
BBX 16 16 0 -2
BITMAP
0100
ffff
0420
1a58
e487
1ff8
7080
1ff8
1080
1ff8
1080
3ffe
2104
3ffc
2104
3ffc
ENDCHAR
STARTCHAR ch-371
ENCODING 371
SWIDTH 1000 0
DWIDTH 16 0
BBX 16 16 0 -2
BITMAP
0200
0200
0200
0200
ffff
0410
0410
0c10
0830
1820
1060
3f40
01e0
0338
0e0c
7806
ENDCHAR
STARTCHAR ch-372
ENCODING 372
SWIDTH 1000 0
DWIDTH 16 0
BBX 16 16 0 -2
BITMAP
1000
11fe
1042
1042
fe46
2264
2224
222c
6628
4438
4410
fc10
1638
326c
60c6
c183
ENDCHAR
STARTCHAR ch-376
ENCODING 376
SWIDTH 1000 0
DWIDTH 16 0
BBX 16 16 0 -2
BITMAP
1000
10fe
1010
1010
fe10
2210
2210
23ff
6210
4610
4410
fc10
0e10
1b10
3110
e010
ENDCHAR
STARTCHAR ch-381
ENCODING 381
SWIDTH 1000 0
DWIDTH 16 0
BBX 16 16 0 -2
BITMAP
1000
10ff
1006
100c
fe18
2210
2210
26ff
6410
4410
4c10
f810
1410
3210
6210
c070
ENDCHAR
STARTCHAR ch-385
ENCODING 385
SWIDTH 1000 0
DWIDTH 16 0
BBX 16 16 0 -2
BITMAP
1040
1040
1040
10fe
fe82
2382
2202
2262
6232
4612
4402
fc02
0e02
1b06
3104
e01c
ENDCHAR
STARTCHAR ch-386
ENCODING 386
SWIDTH 1000 0
DWIDTH 16 0
BBX 16 16 0 -2
BITMAP
1000
1000
1000
107e
fe42
2242
2242
2242
6642
4442
4442
fc42
0e42
1b7e
3100
e000
ENDCHAR
STARTCHAR ch-387
ENCODING 387
SWIDTH 1000 0
DWIDTH 16 0
BBX 16 16 0 -2
BITMAP
1000
10fe
1002
1002
fc02
2402
24fe
2480
6480
4c80
4880
fc80
1681
32c3
607e
c000
ENDCHAR
STARTCHAR ch-388
ENCODING 388
SWIDTH 1000 0
DWIDTH 16 0
BBX 16 16 0 -2
BITMAP
0100
0100
ffff
1000
1000
1000
0ffc
0200
0200
ffff
0410
0830
1f60
01c0
0778
7c0e
ENDCHAR
STARTCHAR ch-394
ENCODING 394
SWIDTH 1000 0
DWIDTH 16 0
BBX 16 16 0 -2
BITMAP
1006
101c
10f0
1010
fc10
2410
2410
25ff
6c10
4810
4810
f810
1410
3210
60fe
c000
ENDCHAR
STARTCHAR ch-397
ENCODING 397
SWIDTH 1000 0
DWIDTH 16 0
BBX 16 16 0 -2
BITMAP
1000
11ff
1044
1044
fc44
2444
25ff
2444
6444
4c44
4844
fc44
1644
32c4
6084
c184
ENDCHAR
STARTCHAR ch-403
ENCODING 403
SWIDTH 1000 0
DWIDTH 16 0
BBX 16 16 0 -2
BITMAP
2010
2010
21ff
2010
fc10
24fe
2442
6446
4464
4c2c
e838
1810
1438
326c
60c6
c183
ENDCHAR
STARTCHAR ch-406
ENCODING 406
SWIDTH 1000 0
DWIDTH 16 0
BBX 16 16 0 -2
BITMAP
1006
101c
10f0
1010
fc10
2410
25ff
2410
6c10
4838
4828
fc28
166c
3244
60c6
c183
ENDCHAR
STARTCHAR ch-409
ENCODING 409
SWIDTH 1000 0
DWIDTH 16 0
BBX 16 16 0 -2
BITMAP
1020
1020
1020
10a4
fca4
24a6
25a2
2523
6424
4c24
486c
fc08
1618
3230
6060
c0c0
ENDCHAR
STARTCHAR ch-411
ENCODING 411
SWIDTH 1000 0
DWIDTH 16 0
BBX 16 16 0 -2
BITMAP
0100
2104
2104
2104
3ffc
0000
ffff
0000
0400
ffff
0810
1030
3e60
03c0
0e78
780e
ENDCHAR
STARTCHAR ch-413
ENCODING 413
SWIDTH 1000 0
DWIDTH 16 0
BBX 16 16 0 -2
BITMAP
0840
0840
4840
6840
2fff
0884
0884
088c
0988
3908
6918
cbd0
0870
08d8
098c
0b06
ENDCHAR
STARTCHAR ch-419
ENCODING 419
SWIDTH 1000 0
DWIDTH 16 0
BBX 16 16 0 -2
BITMAP
1088
1088
1088
1089
fc8b
24ee
2488
2488
6488
4c88
4888
f888
1488
3289
60e9
c387
ENDCHAR
STARTCHAR ch-421
ENCODING 421
SWIDTH 1000 0
DWIDTH 16 0
BBX 16 16 0 -2
BITMAP
000c
00f8
3f80
0204
230c
3118
1210
0200
ffff
0410
0c10
0830
1f20
01f0
071c
7c06
ENDCHAR
STARTCHAR ch-424
ENCODING 424
SWIDTH 1000 0
DWIDTH 16 0
BBX 16 16 0 -2
BITMAP
1010
1010
1010
11ff
fc20
2420
2420
243e
6422
4c22
4822
fc62
1646
3244
60c4
c19c
ENDCHAR
STARTCHAR ch-428
ENCODING 428
SWIDTH 1000 0
DWIDTH 16 0
BBX 16 16 0 -2
BITMAP
1000
11ff
1020
1020
fc20
2460
2440
247e
6cc2
49c2
4b42
f842
1442
3242
6242
c07e
ENDCHAR
STARTCHAR ch-434
ENCODING 434
SWIDTH 1000 0
DWIDTH 16 0
BBX 16 16 0 -2
BITMAP
1000
10fe
1082
1082
fc82
2482
24fe
2482
6482
4c82
4882
fcfe
1600
3000
61ff
c000
ENDCHAR
STARTCHAR ch-441
ENCODING 441
SWIDTH 1000 0
DWIDTH 16 0
BBX 16 16 0 -2
BITMAP
1010
1010
1010
10fe
fc10
2410
2410
25ff
6454
4c54
4854
f854
1cd6
3492
6193
c010
ENDCHAR
STARTCHAR ch-443
ENCODING 443
SWIDTH 1000 0
DWIDTH 16 0
BBX 16 16 0 -2
BITMAP
0100
0100
7ffe
0100
3ffc
0104
ffff
0104
3ffc
0200
ffff
0410
0820
1fc0
0278
7c0e
ENDCHAR
STARTCHAR ch-446
ENCODING 446
SWIDTH 1000 0
DWIDTH 16 0
BBX 16 16 0 -2
BITMAP
0100
0100
7ffe
0810
0c30
0420
ffff
0000
0400
ffff
0810
1030
3e60
03c0
0e78
780e
ENDCHAR
STARTCHAR ch-454
ENCODING 454
SWIDTH 1000 0
DWIDTH 16 0
BBX 16 16 0 -2
BITMAP
1000
10fe
1082
10b2
fc9a
248a
2482
27ff
6502
4d62
4932
f912
1502
35ff
6004
c01c
ENDCHAR
STARTCHAR ch-457
ENCODING 457
SWIDTH 1000 0
DWIDTH 16 0
BBX 16 16 0 -2
BITMAP
1010
1010
1010
11ff
fc10
2410
24fe
2492
6492
4c92
4892
f892
1496
3410
6010
c010
ENDCHAR
STARTCHAR ch-459
ENCODING 459
SWIDTH 1000 0
DWIDTH 16 0
BBX 16 16 0 -2
BITMAP
1020
1020
1060
1044
fc46
24c2
249f
25f1
6400
4c00
48fe
f882
1482
3482
6082
c0fe
ENDCHAR
STARTCHAR ch-464
ENCODING 464
SWIDTH 1000 0
DWIDTH 16 0
BBX 16 16 0 -2
BITMAP
2000
20fc
2084
2084
fc84
24fc
2484
6484
4c84
4884
e8fc
1884
1484
3484
6084
c3ff
ENDCHAR
STARTCHAR ch-465
ENCODING 465
SWIDTH 1000 0
DWIDTH 16 0
BBX 16 16 0 -2
BITMAP
1010
1010
1010
1010
fdff
2410
2410
2410
6410
4cfe
4882
f882
1482
3282
6082
c0fe
ENDCHAR
STARTCHAR ch-467
ENCODING 467
SWIDTH 1000 0
DWIDTH 16 0
BBX 16 16 0 -2
BITMAP
1010
1090
1090
1090
fcfe
2590
2510
2410
6c10
48fe
4810
f810
1410
3410
61ff
c000
ENDCHAR
STARTCHAR ch-468
ENCODING 468
SWIDTH 1000 0
DWIDTH 16 0
BBX 16 16 0 -2
BITMAP
0038
3fe0
0100
ffff
0520
0d30
391c
e107
0100
0200
ffff
0420
0860
1fc0
0378
7c0e
ENDCHAR
STARTCHAR ch-473
ENCODING 473
SWIDTH 1000 0
DWIDTH 16 0
BBX 16 16 0 -2
BITMAP
2082
208e
21b8
2108
f908
2b08
2d08
697f
4908
5908
5108
f108
2908
2908
617f
c100
ENDCHAR
STARTCHAR ch-474
ENCODING 474
SWIDTH 1000 0
DWIDTH 16 0
BBX 16 16 0 -2
BITMAP
1048
1048
1049
114b
fcce
2448
2448
2448
644e
4ccb
4949
fc48
1648
32c9
6089
c187
ENDCHAR
STARTCHAR ch-476
ENCODING 476
SWIDTH 1000 0
DWIDTH 16 0
BBX 16 16 0 -2
BITMAP
1010
0820
7ffe
0100
3ffc
0100
0100
ffff
0200
0200
ffff
0410
0820
1fc0
0278
7c0e
ENDCHAR
STARTCHAR ch-485
ENCODING 485
SWIDTH 1000 0
DWIDTH 16 0
BBX 16 16 0 -2
BITMAP
1022
1022
11fe
1024
fc2c
2428
27ff
2430
6460
4dc6
4b5c
e870
1840
3441
6463
c03e
ENDCHAR
STARTCHAR ch-486
ENCODING 486
SWIDTH 1000 0
DWIDTH 16 0
BBX 16 16 0 -2
BITMAP
0200
0200
7ffe
0410
0820
1fe0
013c
7e06
1010
ffff
2222
4646
7474
1c1c
3636
e2e3
ENDCHAR
STARTCHAR ch-488
ENCODING 488
SWIDTH 1000 0
DWIDTH 16 0
BBX 16 16 0 -2
BITMAP
2020
2020
23ff
2020
fdfe
2422
25fe
6520
4d20
49ff
e851
1859
14cb
348c
6186
c303
ENDCHAR
STARTCHAR ch-490
ENCODING 490
SWIDTH 1000 0
DWIDTH 16 0
BBX 16 16 0 -2
BITMAP
1000
11ff
1040
1044
fcc4
249e
25f3
2400
6c10
4810
48fe
fc10
1610
3210
6010
c1ff
ENDCHAR
STARTCHAR ch-491
ENCODING 491
SWIDTH 1000 0
DWIDTH 16 0
BBX 16 16 0 -2
BITMAP
1000
10ff
1088
1088
fc88
24fe
2482
2482
6c82
48fe
4888
fc88
1688
3288
60ff
c000
ENDCHAR
STARTCHAR ch-502
ENCODING 502
SWIDTH 1000 0
DWIDTH 16 0
BBX 16 16 0 -2
BITMAP
2010
2038
2028
206c
fcc6
2583
2400
647c
4c00
4800
e8fe
1882
1482
3482
6082
c0fe
ENDCHAR
STARTCHAR ch-507
ENCODING 507
SWIDTH 1000 0
DWIDTH 16 0
BBX 16 16 0 -2
BITMAP
2000
23fe
2202
2222
fa22
2afa
2a22
6a22
4a72
5a52
5252
d28a
3a02
2a02
63fe
c000
ENDCHAR
STARTCHAR ch-511
ENCODING 511
SWIDTH 1000 0
DWIDTH 16 0
BBX 16 16 0 -2
BITMAP
0100
6100
33fe
1242
0444
10e0
31b0
631c
ce07
0200
ffff
0410
0820
1fc0
0278
7c0e
ENDCHAR
ENDFONT
