STARTFONT 2.1
FONT jis.jis6000.16
SIZE 16 72 72
FONTBOUNDINGBOX 16 16 0 -2
STARTPROPERTIES 4
FONT_DESCENT 2
FONT_ASCENT 14
DEFAULT_CHAR 14
COPYRIGHT "Copyright (c) 1992 AT&T - All rights reserved."
ENDPROPERTIES
CHARS 197
STARTCHAR ch-14
ENCODING 14
SWIDTH 1000 0
DWIDTH 16 0
BBX 16 16 0 -2
BITMAP
0800
0800
1ffe
3100
6100
c1fc
0100
0100
01fe
0100
0100
04c0
2466
242b
6619
c3f0
ENDCHAR
STARTCHAR ch-15
ENCODING 15
SWIDTH 1000 0
DWIDTH 16 0
BBX 16 16 0 -2
BITMAP
1020
1020
1020
51fc
5924
5524
d524
9124
1124
17ff
1050
10d8
1088
118c
1306
1603
ENDCHAR
STARTCHAR ch-16
ENCODING 16
SWIDTH 1000 0
DWIDTH 16 0
BBX 16 16 0 -2
BITMAP
1100
1100
1100
53fe
5a02
5602
d1f2
9112
1112
1112
1112
11f2
1002
1006
1004
101c
ENDCHAR
STARTCHAR ch-18
ENCODING 18
SWIDTH 1000 0
DWIDTH 16 0
BBX 16 16 0 -2
BITMAP
0800
0800
fffe
1142
3366
222c
7e18
0b6c
3107
c000
0180
04c6
2443
2409
6618
c3f0
ENDCHAR
STARTCHAR ch-21
ENCODING 21
SWIDTH 1000 0
DWIDTH 16 0
BBX 16 16 0 -2
BITMAP
1010
1030
1020
51fe
5902
5502
d502
9102
11fe
1102
1102
1102
1102
1102
11fe
1000
ENDCHAR
STARTCHAR ch-22
ENCODING 22
SWIDTH 1000 0
DWIDTH 16 0
BBX 16 16 0 -2
BITMAP
1040
1040
1040
53ff
5840
54d0
d090
91ff
1391
1691
1091
1091
1091
1093
1010
1010
ENDCHAR
STARTCHAR ch-25
ENCODING 25
SWIDTH 1000 0
DWIDTH 16 0
BBX 16 16 0 -2
BITMAP
1020
1020
1020
5020
5bff
5420
d420
9020
1020
11fc
1104
1104
1104
1104
1104
11fc
ENDCHAR
STARTCHAR ch-27
ENCODING 27
SWIDTH 1000 0
DWIDTH 16 0
BBX 16 16 0 -2
BITMAP
1000
11fc
1104
5104
5904
5504
d5fc
9104
1104
1104
1104
11fc
1000
1000
17ff
1000
ENDCHAR
STARTCHAR ch-28
ENCODING 28
SWIDTH 1000 0
DWIDTH 16 0
BBX 16 16 0 -2
BITMAP
1020
1070
10d8
518c
5b06
54fb
d400
9000
11fe
1042
1042
1042
1042
104e
1040
1040
ENDCHAR
STARTCHAR ch-29
ENCODING 29
SWIDTH 1000 0
DWIDTH 16 0
BBX 16 16 0 -2
BITMAP
0000
3ffc
2104
2104
3ffc
2104
2104
2104
3ffc
0000
0180
24c6
2443
6409
c618
03f0
ENDCHAR
STARTCHAR ch-32
ENCODING 32
SWIDTH 1000 0
DWIDTH 16 0
BBX 16 16 0 -2
BITMAP
0400
0c18
080c
1ffe
7002
0000
1ff8
1008
1008
1008
1ff8
0080
24c6
244b
6619
c3f0
ENDCHAR
STARTCHAR ch-33
ENCODING 33
SWIDTH 1000 0
DWIDTH 16 0
BBX 16 16 0 -2
BITMAP
1020
1020
1060
5844
54c4
509e
d3f3
9000
1000
1000
11fe
1102
1102
1102
1102
11fe
ENDCHAR
STARTCHAR ch-37
ENCODING 37
SWIDTH 1000 0
DWIDTH 16 0
BBX 16 16 0 -2
BITMAP
0400
0ff0
1820
3040
fffc
0004
0004
3ffc
0004
0004
3ffc
0080
24c6
244b
6619
c3f0
ENDCHAR
STARTCHAR ch-38
ENCODING 38
SWIDTH 1000 0
DWIDTH 16 0
BBX 16 16 0 -2
BITMAP
1000
13fe
1020
5124
59ac
54a8
d0a8
9020
17ff
1020
1020
1020
1020
1020
1020
1020
ENDCHAR
STARTCHAR ch-39
ENCODING 39
SWIDTH 1000 0
DWIDTH 16 0
BBX 16 16 0 -2
BITMAP
1020
1120
1120
1920
55fe
5320
d220
9020
1020
13fe
1020
1020
1020
1020
17ff
1000
ENDCHAR
STARTCHAR ch-40
ENCODING 40
SWIDTH 1000 0
DWIDTH 16 0
BBX 16 16 0 -2
BITMAP
1000
1f7e
3142
2342
724e
d640
0c41
1863
303e
e000
0180
24c4
2446
640b
4619
c3f0
ENDCHAR
STARTCHAR ch-41
ENCODING 41
SWIDTH 1000 0
DWIDTH 16 0
BBX 16 16 0 -2
BITMAP
1000
13fe
1202
5202
5bfe
5600
d240
9240
124e
1278
1240
1240
1640
1441
1c63
103e
ENDCHAR
STARTCHAR ch-42
ENCODING 42
SWIDTH 1000 0
DWIDTH 16 0
BBX 16 16 0 -2
BITMAP
1000
17fc
1104
118c
58d8
5470
54d8
d18c
9727
1020
13fe
1020
1020
1020
17ff
1000
ENDCHAR
STARTCHAR ch-43
ENCODING 43
SWIDTH 1000 0
DWIDTH 16 0
BBX 16 16 0 -2
BITMAP
2090
2090
27fe
2092
a092
b7fe
ac90
a490
27ff
2091
2091
2093
2192
2116
2310
2610
ENDCHAR
STARTCHAR ch-47
ENCODING 47
SWIDTH 1000 0
DWIDTH 16 0
BBX 16 16 0 -2
BITMAP
1020
1020
1020
13fe
5820
5420
d420
9020
17ff
1040
1040
10c4
1084
10be
11e2
1303
ENDCHAR
STARTCHAR ch-49
ENCODING 49
SWIDTH 1000 0
DWIDTH 16 0
BBX 16 16 0 -2
BITMAP
0800
0800
1ffe
3122
db22
0e62
1b42
71c6
0764
3c1c
0180
00c6
2443
2409
6618
c3f0
ENDCHAR
STARTCHAR ch-58
ENCODING 58
SWIDTH 1000 0
DWIDTH 16 0
BBX 16 16 0 -2
BITMAP
10c0
1070
1010
1000
59e0
5420
5022
d3b6
90b4
10b8
10a8
11ac
1124
1326
1623
10e0
ENDCHAR
STARTCHAR ch-65
ENCODING 65
SWIDTH 1000 0
DWIDTH 16 0
BBX 16 16 0 -2
BITMAP
080c
1878
17c0
3040
2040
6fff
a040
2040
2040
27fe
2000
0580
24c6
244b
6619
c3f0
ENDCHAR
STARTCHAR ch-66
ENCODING 66
SWIDTH 1000 0
DWIDTH 16 0
BBX 16 16 0 -2
BITMAP
1100
1100
11fe
5302
5a02
55f2
d112
9112
11f2
1112
1112
1112
11f2
1006
1004
101c
ENDCHAR
STARTCHAR ch-67
ENCODING 67
SWIDTH 1000 0
DWIDTH 16 0
BBX 16 16 0 -2
BITMAP
1020
1020
11fe
5820
5420
5420
d3ff
9004
1004
13ff
1004
1184
10c4
1044
1004
101c
ENDCHAR
STARTCHAR ch-70
ENCODING 70
SWIDTH 1000 0
DWIDTH 16 0
BBX 16 16 0 -2
BITMAP
1000
17fe
1100
5100
59f8
5508
d548
9128
1108
1148
1128
1108
1008
1008
17ff
1000
ENDCHAR
STARTCHAR ch-74
ENCODING 74
SWIDTH 1000 0
DWIDTH 16 0
BBX 16 16 0 -2
BITMAP
2040
2040
23fc
2044
b0c4
a98c
a318
a000
2208
2fff
2249
2249
2249
2659
24d3
2db6
ENDCHAR
STARTCHAR ch-75
ENCODING 75
SWIDTH 1000 0
DWIDTH 16 0
BBX 16 16 0 -2
BITMAP
0100
0100
ffff
0240
1248
1248
324c
6646
c443
0c40
0000
0580
24c6
244b
6619
c3f0
ENDCHAR
STARTCHAR ch-77
ENCODING 77
SWIDTH 1000 0
DWIDTH 16 0
BBX 16 16 0 -2
BITMAP
1020
1122
11a6
50a4
58a4
5420
d420
93ff
1048
1048
1048
1048
10c8
1089
1189
1307
ENDCHAR
STARTCHAR ch-80
ENCODING 80
SWIDTH 1000 0
DWIDTH 16 0
BBX 16 16 0 -2
BITMAP
01f8
f908
2108
21c8
2168
2128
3909
e309
0607
0000
0180
24c4
2446
640b
4619
c3f0
ENDCHAR
STARTCHAR ch-82
ENCODING 82
SWIDTH 1000 0
DWIDTH 16 0
BBX 16 16 0 -2
BITMAP
1000
11fe
1000
1000
58fc
5484
d484
90fc
1084
1084
1084
10fc
1000
1000
13ff
1000
ENDCHAR
STARTCHAR ch-85
ENCODING 85
SWIDTH 1000 0
DWIDTH 16 0
BBX 16 16 0 -2
BITMAP
0800
0800
ff7e
1142
3342
2242
7e42
0b42
317e
e000
0180
24c6
2443
6409
4618
c3f0
ENDCHAR
STARTCHAR ch-89
ENCODING 89
SWIDTH 1000 0
DWIDTH 16 0
BBX 16 16 0 -2
BITMAP
0810
0c30
0420
7ffe
0100
0100
3ffc
0100
0100
ffff
0000
0580
24c6
244b
6619
c3f0
ENDCHAR
STARTCHAR ch-90
ENCODING 90
SWIDTH 1000 0
DWIDTH 16 0
BBX 16 16 0 -2
BITMAP
0100
0100
3ffc
0100
0100
7ffe
0100
3ffc
0100
0100
ffff
0080
24c6
244b
6619
c3f0
ENDCHAR
STARTCHAR ch-95
ENCODING 95
SWIDTH 1000 0
DWIDTH 16 0
BBX 16 16 0 -2
BITMAP
1100
1100
11fe
5302
5a02
54a2
d2aa
924a
124a
12aa
12aa
120a
13fa
1006
1004
101c
ENDCHAR
STARTCHAR ch-96
ENCODING 96
SWIDTH 1000 0
DWIDTH 16 0
BBX 16 16 0 -2
BITMAP
1040
1040
1040
57ff
5880
5488
d188
9108
133e
1708
1108
1108
1108
1108
117f
1100
ENDCHAR
STARTCHAR ch-98
ENCODING 98
SWIDTH 1000 0
DWIDTH 16 0
BBX 16 16 0 -2
BITMAP
2000
27ff
2400
2420
a422
b4a6
aca4
a5ac
2528
2420
2470
2450
24d8
288c
2186
2303
ENDCHAR
STARTCHAR ch-99
ENCODING 99
SWIDTH 1000 0
DWIDTH 16 0
BBX 16 16 0 -2
BITMAP
0100
6100
33fe
1242
0644
00e0
10b0
3198
630c
ce07
0000
0580
24c6
244b
6619
c3f0
ENDCHAR
STARTCHAR ch-100
ENCODING 100
SWIDTH 1000 0
DWIDTH 16 0
BBX 16 16 0 -2
BITMAP
1020
1060
1040
51fc
5954
5554
d554
9154
1154
1154
1154
1154
1154
1154
17ff
1000
ENDCHAR
STARTCHAR ch-101
ENCODING 101
SWIDTH 1000 0
DWIDTH 16 0
BBX 16 16 0 -2
BITMAP
0000
fc30
4810
4818
7848
4840
4840
4842
7943
4941
4941
4b40
7a42
c866
083c
0800
ENDCHAR
STARTCHAR ch-104
ENCODING 104
SWIDTH 1000 0
DWIDTH 16 0
BBX 16 16 0 -2
BITMAP
1000
11fc
1104
1104
59fc
5504
d504
91fc
1121
1133
1116
1118
1108
110c
11e6
1703
ENDCHAR
STARTCHAR ch-105
ENCODING 105
SWIDTH 1000 0
DWIDTH 16 0
BBX 16 16 0 -2
BITMAP
0000
3ffc
2104
2104
2ff4
2244
2424
2814
2004
3ffc
0080
24c6
2443
6409
4618
c3f0
ENDCHAR
STARTCHAR ch-106
ENCODING 106
SWIDTH 1000 0
DWIDTH 16 0
BBX 16 16 0 -2
BITMAP
1080
1080
11fc
5104
5b8c
56d8
d070
91dc
1707
1000
11fc
1104
1104
1104
1104
11fc
ENDCHAR
STARTCHAR ch-107
ENCODING 107
SWIDTH 1000 0
DWIDTH 16 0
BBX 16 16 0 -2
BITMAP
1000
13fe
1202
5202
5afa
5602
d202
92fa
128a
128a
128a
12fa
1202
1202
1202
120e
ENDCHAR
STARTCHAR ch-108
ENCODING 108
SWIDTH 1000 0
DWIDTH 16 0
BBX 16 16 0 -2
BITMAP
100c
1038
11e0
5820
5420
5020
d7ff
9020
1020
1020
11fc
1104
1104
1104
1104
11fc
ENDCHAR
STARTCHAR ch-109
ENCODING 109
SWIDTH 1000 0
DWIDTH 16 0
BBX 16 16 0 -2
BITMAP
0420
0420
7ffe
0420
0420
0420
ffff
0810
1108
2104
c103
110c
1166
3132
6110
0700
ENDCHAR
STARTCHAR ch-111
ENCODING 111
SWIDTH 1000 0
DWIDTH 16 0
BBX 16 16 0 -2
BITMAP
0080
0100
1ff8
1008
1ff8
1008
1008
1ff8
1008
1008
1ff8
0080
24c6
244b
6619
c3f0
ENDCHAR
STARTCHAR ch-112
ENCODING 112
SWIDTH 1000 0
DWIDTH 16 0
BBX 16 16 0 -2
BITMAP
1020
1070
1050
18d8
558c
5306
5603
d1fc
9000
1000
11fc
1104
1104
1104
1104
11fc
ENDCHAR
STARTCHAR ch-117
ENCODING 117
SWIDTH 1000 0
DWIDTH 16 0
BBX 16 16 0 -2
BITMAP
0100
0100
ffff
0100
3ffc
2104
2104
3ffc
2104
2104
3ffc
0080
24c6
244b
6619
c3f0
ENDCHAR
STARTCHAR ch-119
ENCODING 119
SWIDTH 1000 0
DWIDTH 16 0
BBX 16 16 0 -2
BITMAP
0840
1840
1040
37fe
6150
a158
234c
2646
2c43
2040
0000
0580
24c6
244b
6619
c3f0
ENDCHAR
STARTCHAR ch-129
ENCODING 129
SWIDTH 1000 0
DWIDTH 16 0
BBX 16 16 0 -2
BITMAP
1000
11fe
1102
5102
59fe
5400
d5fe
9102
1102
11fe
1102
1102
11fe
1102
1102
110e
ENDCHAR
STARTCHAR ch-131
ENCODING 131
SWIDTH 1000 0
DWIDTH 16 0
BBX 16 16 0 -2
BITMAP
1000
13fe
1202
5222
5a22
56fa
d222
9272
1272
12aa
12aa
1222
1222
1202
13fe
1000
ENDCHAR
STARTCHAR ch-132
ENCODING 132
SWIDTH 1000 0
DWIDTH 16 0
BBX 16 16 0 -2
BITMAP
1020
1122
11a6
50a4
5820
55fe
d502
9102
11fe
1102
1102
11fe
1102
1102
1102
110e
ENDCHAR
STARTCHAR ch-137
ENCODING 137
SWIDTH 1000 0
DWIDTH 16 0
BBX 16 16 0 -2
BITMAP
001c
01f0
7f00
1108
0910
ffff
0520
0d30
391c
e107
0000
0580
24c6
244b
6619
c3f0
ENDCHAR
STARTCHAR ch-139
ENCODING 139
SWIDTH 1000 0
DWIDTH 16 0
BBX 16 16 0 -2
BITMAP
1020
1020
17ff
5104
598c
54d8
d070
91dc
1707
1000
11fc
1104
1104
1104
1104
11fc
ENDCHAR
STARTCHAR ch-140
ENCODING 140
SWIDTH 1000 0
DWIDTH 16 0
BBX 16 16 0 -2
BITMAP
2104
2088
27fe
2022
b022
abfe
aa20
a220
23ff
2061
2061
20a3
21a2
232e
2620
2020
ENDCHAR
STARTCHAR ch-141
ENCODING 141
SWIDTH 1000 0
DWIDTH 16 0
BBX 16 16 0 -2
BITMAP
1000
11fc
1104
51fc
5904
5504
d5fc
9000
13fe
1020
1020
17ff
1020
1020
1020
1020
ENDCHAR
STARTCHAR ch-146
ENCODING 146
SWIDTH 1000 0
DWIDTH 16 0
BBX 16 16 0 -2
BITMAP
1000
11fc
1104
5104
59fc
5400
d3fe
9222
1222
1222
13fe
1200
1200
1201
1303
11fe
ENDCHAR
STARTCHAR ch-148
ENCODING 148
SWIDTH 1000 0
DWIDTH 16 0
BBX 16 16 0 -2
BITMAP
1100
1100
13fe
1200
5400
59fc
5524
d124
9124
1fff
1244
1244
1244
13ff
1008
1038
ENDCHAR
STARTCHAR ch-150
ENCODING 150
SWIDTH 1000 0
DWIDTH 16 0
BBX 16 16 0 -2
BITMAP
1020
1020
17ff
5820
5420
53fe
d202
9202
11fc
1008
1010
17ff
1020
1020
1020
10e0
ENDCHAR
STARTCHAR ch-151
ENCODING 151
SWIDTH 1000 0
DWIDTH 16 0
BBX 16 16 0 -2
BITMAP
1100
11f8
1108
5b18
5610
53fe
d222
9222
1222
13fe
1090
1090
1190
1111
1313
160e
ENDCHAR
STARTCHAR ch-154
ENCODING 154
SWIDTH 1000 0
DWIDTH 16 0
BBX 16 16 0 -2
BITMAP
1020
1020
17ff
5020
59fc
5524
d524
9124
11fc
10a8
10a8
11ac
1124
1326
1623
1020
ENDCHAR
STARTCHAR ch-155
ENCODING 155
SWIDTH 1000 0
DWIDTH 16 0
BBX 16 16 0 -2
BITMAP
2080
2184
2104
27fe
b092
a990
a31f
a680
20fc
2184
230c
26d8
2070
20d8
218c
2707
ENDCHAR
STARTCHAR ch-159
ENCODING 159
SWIDTH 1000 0
DWIDTH 16 0
BBX 16 16 0 -2
BITMAP
1000
13ff
1020
1020
59fc
5444
d444
9044
13ff
1000
11fe
1102
1102
1102
1102
11fe
ENDCHAR
STARTCHAR ch-160
ENCODING 160
SWIDTH 1000 0
DWIDTH 16 0
BBX 16 16 0 -2
BITMAP
0840
1840
10ff
3484
254c
6458
a430
2438
206c
21c7
0000
0180
24c6
244b
6619
c3f0
ENDCHAR
STARTCHAR ch-163
ENCODING 163
SWIDTH 1000 0
DWIDTH 16 0
BBX 16 16 0 -2
BITMAP
0100
3ffc
2104
2104
3ffc
0100
3ffc
2104
2104
3ffc
0100
0040
2466
242b
6619
c3f0
ENDCHAR
STARTCHAR ch-166
ENCODING 166
SWIDTH 1000 0
DWIDTH 16 0
BBX 16 16 0 -2
BITMAP
1102
1186
1084
11fe
5902
5502
5502
d102
91fe
1048
1048
1048
10c8
1089
1189
1307
ENDCHAR
STARTCHAR ch-167
ENCODING 167
SWIDTH 1000 0
DWIDTH 16 0
BBX 16 16 0 -2
BITMAP
2042
21c2
2712
a112
b112
afd2
a112
2112
2392
2352
2552
2502
2902
2102
2102
210e
ENDCHAR
STARTCHAR ch-169
ENCODING 169
SWIDTH 1000 0
DWIDTH 16 0
BBX 16 16 0 -2
BITMAP
2041
2463
2622
2226
b204
a800
a808
a29a
22d2
2272
2222
2272
22da
228a
2202
23fe
ENDCHAR
STARTCHAR ch-170
ENCODING 170
SWIDTH 1000 0
DWIDTH 16 0
BBX 16 16 0 -2
BITMAP
0000
7ffe
0440
0440
3ffc
2444
2444
3ffc
0440
0440
ffff
0080
24c6
244b
6619
c3f0
ENDCHAR
STARTCHAR ch-178
ENCODING 178
SWIDTH 1000 0
DWIDTH 16 0
BBX 16 16 0 -2
BITMAP
0420
0420
fc3f
0420
7c3e
0420
3c20
e43f
0c20
1820
7180
04c0
2446
240b
6619
c3f0
ENDCHAR
STARTCHAR ch-179
ENCODING 179
SWIDTH 1000 0
DWIDTH 16 0
BBX 16 16 0 -2
BITMAP
0080
ffff
0080
0ff8
4808
4ff8
4808
4ff8
4808
4ff8
4000
7fff
0100
2486
6413
c3f1
ENDCHAR
STARTCHAR ch-180
ENCODING 180
SWIDTH 1000 0
DWIDTH 16 0
BBX 16 16 0 -2
BITMAP
1020
1020
13fe
5000
5888
5488
d1dc
9356
1000
1020
17ff
1020
1020
1020
1020
1020
ENDCHAR
STARTCHAR ch-181
ENCODING 181
SWIDTH 1000 0
DWIDTH 16 0
BBX 16 16 0 -2
BITMAP
1000
11fe
1100
51fc
5900
55fc
d100
9100
17ff
1122
1136
1114
1118
110c
11e6
1703
ENDCHAR
STARTCHAR ch-182
ENCODING 182
SWIDTH 1000 0
DWIDTH 16 0
BBX 16 16 0 -2
BITMAP
0000
7e7e
4242
7e7e
4242
7e7e
4002
4102
4182
4292
4a1a
4a0a
5a22
51e2
4002
400e
ENDCHAR
STARTCHAR ch-184
ENCODING 184
SWIDTH 1000 0
DWIDTH 16 0
BBX 16 16 0 -2
BITMAP
1006
103c
13e0
5020
5bff
54a8
d1ac
9326
1603
11fc
1018
1020
17ff
1020
1020
10e0
ENDCHAR
STARTCHAR ch-188
ENCODING 188
SWIDTH 1000 0
DWIDTH 16 0
BBX 16 16 0 -2
BITMAP
1020
1020
103f
1020
59fc
5504
d504
91fc
1104
1104
11fc
1020
17ff
1020
1020
1020
ENDCHAR
STARTCHAR ch-189
ENCODING 189
SWIDTH 1000 0
DWIDTH 16 0
BBX 16 16 0 -2
BITMAP
1020
1020
13ff
5020
59fe
5422
d3ff
9022
11fe
1020
13ff
1044
108c
11f8
102e
13c3
ENDCHAR
STARTCHAR ch-197
ENCODING 197
SWIDTH 1000 0
DWIDTH 16 0
BBX 16 16 0 -2
BITMAP
1020
1020
13fe
1820
55fc
5020
d7ff
9000
11fc
1104
11fc
1104
11fc
1104
1104
110c
ENDCHAR
STARTCHAR ch-198
ENCODING 198
SWIDTH 1000 0
DWIDTH 16 0
BBX 16 16 0 -2
BITMAP
1000
13fe
1202
5222
5afa
5622
d222
92fa
1202
12fa
128a
128a
12fa
1202
1202
140e
ENDCHAR
STARTCHAR ch-199
ENCODING 199
SWIDTH 1000 0
DWIDTH 16 0
BBX 16 16 0 -2
BITMAP
1020
1020
13ff
1000
58fc
5484
d4fc
9000
11fe
1004
1008
13ff
1010
1010
1010
1070
ENDCHAR
STARTCHAR ch-209
ENCODING 209
SWIDTH 1000 0
DWIDTH 16 0
BBX 16 16 0 -2
BITMAP
0048
0044
ffff
0040
3e62
2226
3e34
0018
1f3d
f0e7
0382
0000
2586
24cb
6619
c3f0
ENDCHAR
STARTCHAR ch-211
ENCODING 211
SWIDTH 1000 0
DWIDTH 16 0
BBX 16 16 0 -2
BITMAP
1222
1326
1124
5bfe
5450
5050
d7ff
9088
1104
13fe
160b
1008
11f8
1102
1106
10fc
ENDCHAR
STARTCHAR ch-216
ENCODING 216
SWIDTH 1000 0
DWIDTH 16 0
BBX 16 16 0 -2
BITMAP
1000
13fe
1202
528a
5a52
57fe
d222
9222
13fe
1242
1242
1242
127a
1202
1202
120e
ENDCHAR
STARTCHAR ch-218
ENCODING 218
SWIDTH 1000 0
DWIDTH 16 0
BBX 16 16 0 -2
BITMAP
2100
2100
23fe
2252
b492
a922
a246
a084
211c
2000
2060
2130
2506
250b
2d19
28f0
ENDCHAR
STARTCHAR ch-220
ENCODING 220
SWIDTH 1000 0
DWIDTH 16 0
BBX 16 16 0 -2
BITMAP
1088
1088
13fe
1888
5488
5088
57ff
d000
9000
11fc
1104
1104
11fc
1104
1104
11fc
ENDCHAR
STARTCHAR ch-223
ENCODING 223
SWIDTH 1000 0
DWIDTH 16 0
BBX 16 16 0 -2
BITMAP
1080
1088
1198
1910
55ff
5310
d510
91fe
1110
1110
1110
11fe
1110
1110
1110
11ff
ENDCHAR
STARTCHAR ch-224
ENCODING 224
SWIDTH 1000 0
DWIDTH 16 0
BBX 16 16 0 -2
BITMAP
0100
7ffe
0100
1ff8
1108
1ff8
1108
1ff8
0110
07fc
7c06
0180
24c6
244b
6619
c3f0
ENDCHAR
STARTCHAR ch-225
ENCODING 225
SWIDTH 1000 0
DWIDTH 16 0
BBX 16 16 0 -2
BITMAP
0000
ffff
0420
7c3e
4002
4002
7c3e
0420
0420
ffff
0000
2584
24c6
640b
4619
c3f0
ENDCHAR
STARTCHAR ch-227
ENCODING 227
SWIDTH 1000 0
DWIDTH 16 0
BBX 16 16 0 -2
BITMAP
1100
5100
7ffe
d24a
16da
1092
1db2
f326
1064
11dc
0000
0180
24c6
244b
6619
c3f0
ENDCHAR
STARTCHAR ch-231
ENCODING 231
SWIDTH 1000 0
DWIDTH 16 0
BBX 16 16 0 -2
BITMAP
1000
11fc
1104
5104
59fc
5504
d504
91fc
1104
1104
11fc
1000
17ff
1088
118c
1306
ENDCHAR
STARTCHAR ch-232
ENCODING 232
SWIDTH 1000 0
DWIDTH 16 0
BBX 16 16 0 -2
BITMAP
1040
10c4
1086
11fa
5020
5bff
d448
9084
1313
1060
1188
1031
11c3
100e
1038
11e0
ENDCHAR
STARTCHAR ch-240
ENCODING 240
SWIDTH 1000 0
DWIDTH 16 0
BBX 16 16 0 -2
BITMAP
1040
1040
13ff
5880
55fe
d310
96ff
1000
11fe
1102
11fe
1102
11fe
1102
1102
110e
ENDCHAR
STARTCHAR ch-241
ENCODING 241
SWIDTH 1000 0
DWIDTH 16 0
BBX 16 16 0 -2
BITMAP
1092
1124
1248
5124
5892
5400
d440
93fe
1202
128a
1252
1222
1252
128a
1202
13fe
ENDCHAR
STARTCHAR ch-243
ENCODING 243
SWIDTH 1000 0
DWIDTH 16 0
BBX 16 16 0 -2
BITMAP
1000
10fe
fe82
10fe
3882
3482
52fe
9082
1082
10fe
1000
0180
24c6
244b
6619
c3f0
ENDCHAR
STARTCHAR ch-244
ENCODING 244
SWIDTH 1000 0
DWIDTH 16 0
BBX 16 16 0 -2
BITMAP
1020
1122
1122
5122
59fe
5400
d3ff
9020
1040
11fe
1152
1152
1152
1152
1152
1156
ENDCHAR
STARTCHAR ch-246
ENCODING 246
SWIDTH 1000 0
DWIDTH 16 0
BBX 16 16 0 -2
BITMAP
1020
1040
11fc
5104
59fc
5504
d504
91fc
1000
13fe
1020
11fc
1020
1020
17ff
1000
ENDCHAR
STARTCHAR ch-247
ENCODING 247
SWIDTH 1000 0
DWIDTH 16 0
BBX 16 16 0 -2
BITMAP
0100
7ffe
0100
3ffc
0240
ffff
0820
3ffc
e817
0ff0
0810
0ff0
0080
2446
6413
c3f1
ENDCHAR
STARTCHAR ch-249
ENCODING 249
SWIDTH 1000 0
DWIDTH 16 0
BBX 16 16 0 -2
BITMAP
0810
0810
ffff
0810
0200
ffff
0400
1ffc
f004
1004
1ffc
0080
24c6
244b
6619
c3f0
ENDCHAR
STARTCHAR ch-250
ENCODING 250
SWIDTH 1000 0
DWIDTH 16 0
BBX 16 16 0 -2
BITMAP
1000
11fc
1104
51fc
5904
5504
d5fc
9020
1120
13fe
1620
11fc
1020
1020
17ff
1000
ENDCHAR
STARTCHAR ch-251
ENCODING 251
SWIDTH 1000 0
DWIDTH 16 0
BBX 16 16 0 -2
BITMAP
2002
27d2
2452
2452
a7d2
b452
ac52
a452
27d2
2452
2452
2452
27c2
2282
26c2
2c6e
ENDCHAR
STARTCHAR ch-256
ENCODING 256
SWIDTH 1000 0
DWIDTH 16 0
BBX 16 16 0 -2
BITMAP
2090
2390
2e12
a252
b256
afd4
a254
2210
2710
26b8
2aa8
2a28
322c
2264
2246
22c3
ENDCHAR
STARTCHAR ch-257
ENCODING 257
SWIDTH 1000 0
DWIDTH 16 0
BBX 16 16 0 -2
BITMAP
0410
1c10
f091
1093
fd92
1138
3828
346c
50c6
9183
1000
0180
24c6
244b
6619
c3f0
ENDCHAR
STARTCHAR ch-259
ENCODING 259
SWIDTH 1000 0
DWIDTH 16 0
BBX 16 16 0 -2
BITMAP
1020
1020
13ff
5201
5afd
5400
d0fc
9084
1084
10fc
1084
1084
10fc
1000
13ff
1000
ENDCHAR
STARTCHAR ch-262
ENCODING 262
SWIDTH 1000 0
DWIDTH 16 0
BBX 16 16 0 -2
BITMAP
1200
333e
6100
c400
167f
3204
6084
e184
2104
2304
261c
0080
24c6
244b
6619
c3f0
ENDCHAR
STARTCHAR ch-264
ENCODING 264
SWIDTH 1000 0
DWIDTH 16 0
BBX 16 16 0 -2
BITMAP
0100
07e0
1c38
f3cf
0000
3e04
2244
3e44
2244
3e44
2204
261c
0180
24c6
6413
c3f1
ENDCHAR
STARTCHAR ch-265
ENCODING 265
SWIDTH 1000 0
DWIDTH 16 0
BBX 16 16 0 -2
BITMAP
2020
2070
20d8
298c
af07
a8f8
a000
a3c2
2252
23d2
2252
23d2
2252
2242
2242
22ce
ENDCHAR
STARTCHAR ch-269
ENCODING 269
SWIDTH 1000 0
DWIDTH 16 0
BBX 16 16 0 -2
BITMAP
0020
7f20
413f
4164
7f54
4814
7f1c
4408
469c
73b6
c063
0080
24c6
244b
6619
c3f0
ENDCHAR
STARTCHAR ch-270
ENCODING 270
SWIDTH 1000 0
DWIDTH 16 0
BBX 16 16 0 -2
BITMAP
1100
1100
13ff
5600
59fc
5504
d5fc
9104
11fc
1080
11fc
130c
16d8
1070
11dc
1707
ENDCHAR
STARTCHAR ch-271
ENCODING 271
SWIDTH 1000 0
DWIDTH 16 0
BBX 16 16 0 -2
BITMAP
0100
0100
7ffe
0810
0420
ffff
0000
1ff8
1008
1ff8
1008
1ff8
0100
2486
6413
c3f1
ENDCHAR
STARTCHAR ch-277
ENCODING 277
SWIDTH 1000 0
DWIDTH 16 0
BBX 16 16 0 -2
BITMAP
1000
13cf
1249
5249
53cf
5800
d5fe
9000
13ff
1020
1040
10fe
1002
1002
1006
101c
ENDCHAR
STARTCHAR ch-282
ENCODING 282
SWIDTH 1000 0
DWIDTH 16 0
BBX 16 16 0 -2
BITMAP
3ffc
2104
3ffc
2104
3ffc
0100
7ffe
4112
41fa
5f0a
4006
0180
24c6
244b
6619
c3f0
ENDCHAR
STARTCHAR ch-283
ENCODING 283
SWIDTH 1000 0
DWIDTH 16 0
BBX 16 16 0 -2
BITMAP
001c
7ff0
2204
1108
ffff
8101
948d
3416
67f2
0800
0ff8
3c30
e660
03c0
1e78
f00f
ENDCHAR
STARTCHAR ch-287
ENCODING 287
SWIDTH 1000 0
DWIDTH 16 0
BBX 16 16 0 -2
BITMAP
0048
0044
7fff
4040
5f64
402c
5f38
5110
5f39
c0cd
8007
0180
24c6
244b
6619
c3f0
ENDCHAR
STARTCHAR ch-289
ENCODING 289
SWIDTH 1000 0
DWIDTH 16 0
BBX 16 16 0 -2
BITMAP
2100
2100
23fe
2252
b592
a8e2
a132
a256
2084
201c
2040
2160
2526
250b
2d19
28f0
ENDCHAR
STARTCHAR ch-295
ENCODING 295
SWIDTH 1000 0
DWIDTH 16 0
BBX 16 16 0 -2
BITMAP
1020
1040
13fe
5222
5a22
57fe
d222
9222
13fe
1090
1094
1095
119f
1110
1311
160f
ENDCHAR
STARTCHAR ch-296
ENCODING 296
SWIDTH 1000 0
DWIDTH 16 0
BBX 16 16 0 -2
BITMAP
1000
107c
fe44
1044
7c87
0000
fefe
8244
0028
7c10
006c
0183
24c0
244a
661b
c3f1
ENDCHAR
STARTCHAR ch-300
ENCODING 300
SWIDTH 1000 0
DWIDTH 16 0
BBX 16 16 0 -2
BITMAP
4100
633e
2222
ffa2
083e
4922
4922
7f3e
1022
3022
e04e
0580
24c6
244b
6619
c3f0
ENDCHAR
STARTCHAR ch-308
ENCODING 308
SWIDTH 1000 0
DWIDTH 16 0
BBX 16 16 0 -2
BITMAP
1020
1070
10d8
518c
5b77
5400
d1fc
9104
11fc
1104
11fc
1100
13fe
1282
1682
10fe
ENDCHAR
STARTCHAR ch-316
ENCODING 316
SWIDTH 1000 0
DWIDTH 16 0
BBX 16 16 0 -2
BITMAP
110e
11f8
1101
58ff
5400
52fe
d282
92fe
1282
12fe
1282
12fe
1200
13ff
1084
1303
ENDCHAR
STARTCHAR ch-317
ENCODING 317
SWIDTH 1000 0
DWIDTH 16 0
BBX 16 16 0 -2
BITMAP
1024
1022
17ff
5020
5bfe
5622
d3fe
9222
1222
13fe
1004
17ff
1104
1184
1084
101c
ENDCHAR
STARTCHAR ch-318
ENCODING 318
SWIDTH 1000 0
DWIDTH 16 0
BBX 16 16 0 -2
BITMAP
2200
2200
23fe
2600
b5f8
a800
a7fc
a004
2494
22a4
2084
27f4
21c5
22a5
2497
2082
ENDCHAR
STARTCHAR ch-319
ENCODING 319
SWIDTH 1000 0
DWIDTH 16 0
BBX 16 16 0 -2
BITMAP
0000
3fff
2040
27fc
2404
27fc
2404
27fc
6248
464c
cdc6
0080
24c6
244b
6619
c3f0
ENDCHAR
STARTCHAR ch-322
ENCODING 322
SWIDTH 1000 0
DWIDTH 16 0
BBX 16 16 0 -2
BITMAP
0000
63fe
308c
0050
c3fe
6222
03fe
1222
33fe
6222
c226
0080
24c6
244b
6619
c3f0
ENDCHAR
STARTCHAR ch-324
ENCODING 324
SWIDTH 1000 0
DWIDTH 16 0
BBX 16 16 0 -2
BITMAP
1000
17ff
1090
5090
5bfe
5692
d292
93fe
1020
17ff
10a8
11ac
1124
1326
1623
1020
ENDCHAR
STARTCHAR ch-327
ENCODING 327
SWIDTH 1000 0
DWIDTH 16 0
BBX 16 16 0 -2
BITMAP
0600
3c78
2048
3e48
228f
3e00
22fe
3e44
2028
7e10
422c
c6c7
0000
2486
644b
c3f9
ENDCHAR
STARTCHAR ch-328
ENCODING 328
SWIDTH 1000 0
DWIDTH 16 0
BBX 16 16 0 -2
BITMAP
1008
0810
ffff
0810
1020
2244
1428
0810
1224
7d7e
0002
0180
24c6
244b
6619
c3f0
ENDCHAR
STARTCHAR ch-330
ENCODING 330
SWIDTH 1000 0
DWIDTH 16 0
BBX 16 16 0 -2
BITMAP
1104
1088
17ff
5090
5bfe
5492
d092
97ff
1092
1092
13fe
1098
1194
1396
1693
1090
ENDCHAR
STARTCHAR ch-331
ENCODING 331
SWIDTH 1000 0
DWIDTH 16 0
BBX 16 16 0 -2
BITMAP
1020
3026
623c
ff20
0121
7e1f
4200
7e26
423c
7e20
4221
461f
0180
24c6
6413
c3f1
ENDCHAR
STARTCHAR ch-332
ENCODING 332
SWIDTH 1000 0
DWIDTH 16 0
BBX 16 16 0 -2
BITMAP
2104
2104
27ff
2104
a020
b7ff
a900
a900
20fe
2000
2124
2124
2124
2125
2325
2603
ENDCHAR
STARTCHAR ch-333
ENCODING 333
SWIDTH 1000 0
DWIDTH 16 0
BBX 16 16 0 -2
BITMAP
1000
11fc
1104
5104
59fc
5504
d504
91fc
1000
13fe
1292
1292
1292
1292
17ff
1000
ENDCHAR
STARTCHAR ch-334
ENCODING 334
SWIDTH 1000 0
DWIDTH 16 0
BBX 16 16 0 -2
BITMAP
2020
2020
27ff
2020
b1fc
a904
a9fc
a104
21fc
2104
21fc
2000
27ff
2088
218c
2306
ENDCHAR
STARTCHAR ch-339
ENCODING 339
SWIDTH 1000 0
DWIDTH 16 0
BBX 16 16 0 -2
BITMAP
2000
27ff
2090
a3fe
b292
aa92
abfe
2000
23fe
2000
27ff
2020
2124
2326
2623
20e0
ENDCHAR
STARTCHAR ch-341
ENCODING 341
SWIDTH 1000 0
DWIDTH 16 0
BBX 16 16 0 -2
BITMAP
0420
ffff
0420
1ff8
1008
1ff8
1008
1ff8
0200
ffff
0810
320c
ca93
1ad8
324c
0600
ENDCHAR
STARTCHAR ch-344
ENCODING 344
SWIDTH 1000 0
DWIDTH 16 0
BBX 16 16 0 -2
BITMAP
1040
1088
10f8
5104
5a49
57cf
d020
9050
118c
1727
1040
1190
1066
118c
1038
13e0
ENDCHAR
STARTCHAR ch-345
ENCODING 345
SWIDTH 1000 0
DWIDTH 16 0
BBX 16 16 0 -2
BITMAP
0806
ffbc
0820
7f20
493f
7f24
4924
7f24
0824
ffa4
0844
0180
24c6
244b
6619
c3f0
ENDCHAR
STARTCHAR ch-346
ENCODING 346
SWIDTH 1000 0
DWIDTH 16 0
BBX 16 16 0 -2
BITMAP
2103
211e
2ff0
a110
b7d0
ad5f
a552
27d2
2552
2552
27d2
2112
2ff2
2112
2122
2102
ENDCHAR
STARTCHAR ch-349
ENCODING 349
SWIDTH 1000 0
DWIDTH 16 0
BBX 16 16 0 -2
BITMAP
7fff
4210
5ffe
4210
4100
5ffe
4200
47fc
5a04
43fc
4000
7fff
0080
2446
640b
c3f9
ENDCHAR
STARTCHAR ch-351
ENCODING 351
SWIDTH 1000 0
DWIDTH 16 0
BBX 16 16 0 -2
BITMAP
20c8
2788
2108
afe8
a11f
b7c9
ad49
27c9
2549
27c9
2109
27c9
2119
23d3
2e32
2066
ENDCHAR
STARTCHAR ch-354
ENCODING 354
SWIDTH 1000 0
DWIDTH 16 0
BBX 16 16 0 -2
BITMAP
10fc
1084
10fc
5084
58fc
5400
d3ff
9249
13ff
1000
13fe
1084
1048
1030
10ec
1387
ENDCHAR
STARTCHAR ch-355
ENCODING 355
SWIDTH 1000 0
DWIDTH 16 0
BBX 16 16 0 -2
BITMAP
2000
23fe
2222
27ff
b222
abfe
a000
a3fe
2202
23fe
2202
23fe
2202
23fe
2104
2603
ENDCHAR
STARTCHAR ch-357
ENCODING 357
SWIDTH 1000 0
DWIDTH 16 0
BBX 16 16 0 -2
BITMAP
2010
2450
2650
a2fe
b090
a810
a9ff
2000
2e7c
2244
2244
2244
2244
227c
2700
2cff
ENDCHAR
STARTCHAR ch-359
ENCODING 359
SWIDTH 1000 0
DWIDTH 16 0
BBX 16 16 0 -2
BITMAP
1008
fe7f
1008
fe7f
1008
fe7f
1008
7ffe
0002
7ffe
0002
7ffe
0100
2486
6413
c3f1
ENDCHAR
STARTCHAR ch-360
ENCODING 360
SWIDTH 1000 0
DWIDTH 16 0
BBX 16 16 0 -2
BITMAP
2000
27be
2494
2494
a794
b494
ac94
a7bf
2404
2404
248c
248c
24d4
2755
2c25
2043
ENDCHAR
STARTCHAR ch-363
ENCODING 363
SWIDTH 1000 0
DWIDTH 16 0
BBX 16 16 0 -2
BITMAP
1104
318c
6088
c7ff
1020
3120
613e
e120
23a0
26e0
2c3f
0080
24c6
244b
6619
c3f0
ENDCHAR
STARTCHAR ch-366
ENCODING 366
SWIDTH 1000 0
DWIDTH 16 0
BBX 16 16 0 -2
BITMAP
0100
01fc
0100
7fff
4201
5ff8
4202
4ffe
4884
4ffc
4884
4ffc
c080
8a46
9a0b
31f9
ENDCHAR
STARTCHAR ch-367
ENCODING 367
SWIDTH 1000 0
DWIDTH 16 0
BBX 16 16 0 -2
BITMAP
1100
13fe
1200
55fc
5904
55fc
d104
91fc
1000
17ff
1100
13fe
1492
1122
1246
109c
ENDCHAR
STARTCHAR ch-368
ENCODING 368
SWIDTH 1000 0
DWIDTH 16 0
BBX 16 16 0 -2
BITMAP
0004
7f04
4104
7f04
407f
5f04
4024
5f14
4414
d504
9504
2c1c
0100
2486
6413
c3f1
ENDCHAR
STARTCHAR ch-369
ENCODING 369
SWIDTH 1000 0
DWIDTH 16 0
BBX 16 16 0 -2
BITMAP
1020
1020
17ff
5020
5bfe
5622
d3fe
9222
13fe
1024
10fe
1783
1004
17ff
1104
109c
ENDCHAR
STARTCHAR ch-371
ENCODING 371
SWIDTH 1000 0
DWIDTH 16 0
BBX 16 16 0 -2
BITMAP
2000
27c0
253e
a512
b7d6
ac5c
a7c8
251c
2536
27c3
2020
23fe
2020
2020
27ff
2000
ENDCHAR
STARTCHAR ch-372
ENCODING 372
SWIDTH 1000 0
DWIDTH 16 0
BBX 16 16 0 -2
BITMAP
1000
17df
1249
5945
54c3
5145
d249
9020
1040
11fe
1102
1102
11fe
1102
1102
11fe
ENDCHAR
STARTCHAR ch-373
ENCODING 373
SWIDTH 1000 0
DWIDTH 16 0
BBX 16 16 0 -2
BITMAP
2020
27ff
2420
a5fe
b422
afff
a422
25fe
2420
25fe
2522
2dfe
2922
39fe
2122
2126
ENDCHAR
STARTCHAR ch-374
ENCODING 374
SWIDTH 1000 0
DWIDTH 16 0
BBX 16 16 0 -2
BITMAP
0080
7fff
4420
7ffe
4422
7ffe
4000
7fff
4081
4a4a
53f9
4100
43fc
de18
81e0
3e1f
ENDCHAR
STARTCHAR ch-375
ENCODING 375
SWIDTH 1000 0
DWIDTH 16 0
BBX 16 16 0 -2
BITMAP
2020
2020
27ff
a420
b5fc
ac24
a7ff
2424
25fc
2420
2522
24b4
2c68
28a4
3b23
2060
ENDCHAR
STARTCHAR ch-382
ENCODING 382
SWIDTH 1000 0
DWIDTH 16 0
BBX 16 16 0 -2
BITMAP
2420
2620
6b7f
dc51
36d2
6310
fe38
2228
222c
2266
3ec3
0000
2586
24cb
6619
c3f0
ENDCHAR
STARTCHAR ch-386
ENCODING 386
SWIDTH 1000 0
DWIDTH 16 0
BBX 16 16 0 -2
BITMAP
ffff
0100
1ff8
1008
1ff8
1008
ffff
8101
a889
2814
4ff2
0400
0ff8
7810
07e0
f81f
ENDCHAR
STARTCHAR ch-391
ENCODING 391
SWIDTH 1000 0
DWIDTH 16 0
BBX 16 16 0 -2
BITMAP
0644
1c44
f1ff
1044
ff44
107c
7e44
4244
4244
7e7c
0000
0580
24c6
244b
6619
c3f0
ENDCHAR
STARTCHAR ch-394
ENCODING 394
SWIDTH 1000 0
DWIDTH 16 0
BBX 16 16 0 -2
BITMAP
0888
1bfe
1088
37ff
6400
a5fe
2522
25fe
2522
25fe
2922
2126
0000
2486
644b
c3f9
ENDCHAR
STARTCHAR ch-398
ENCODING 398
SWIDTH 1000 0
DWIDTH 16 0
BBX 16 16 0 -2
BITMAP
1102
1084
13ff
1221
5a21
57ff
d221
9221
13ff
1000
11fe
1102
11fe
1102
1102
11fe
ENDCHAR
STARTCHAR ch-400
ENCODING 400
SWIDTH 1000 0
DWIDTH 16 0
BBX 16 16 0 -2
BITMAP
2222
2124
2020
27ff
a8a8
a9ac
ab27
a120
21c4
227f
2354
25d4
20bf
2184
2304
2604
ENDCHAR
STARTCHAR ch-401
ENCODING 401
SWIDTH 1000 0
DWIDTH 16 0
BBX 16 16 0 -2
BITMAP
0000
63fe
3220
13fc
0220
03fc
1220
33ff
6009
c525
0893
0000
2586
24cb
6619
c3f0
ENDCHAR
STARTCHAR ch-404
ENCODING 404
SWIDTH 1000 0
DWIDTH 16 0
BBX 16 16 0 -2
BITMAP
1088
1090
11fe
5120
5b20
55fc
d120
9120
11fc
1120
1120
11fe
1000
1154
1356
1653
ENDCHAR
STARTCHAR ch-406
ENCODING 406
SWIDTH 1000 0
DWIDTH 16 0
BBX 16 16 0 -2
BITMAP
0814
0816
ff92
087f
2a10
5d38
0828
1c2c
2a66
c8c3
0800
0580
24c6
244b
6619
c3f0
ENDCHAR
STARTCHAR ch-409
ENCODING 409
SWIDTH 1000 0
DWIDTH 16 0
BBX 16 16 0 -2
BITMAP
0100
7ffe
0100
1ff8
0000
1ff8
1008
1ff8
0420
ffff
1008
1ff8
0080
2446
640b
c3f9
ENDCHAR
STARTCHAR ch-410
ENCODING 410
SWIDTH 1000 0
DWIDTH 16 0
BBX 16 16 0 -2
BITMAP
13de
1252
13de
5000
59fc
5524
d524
91fc
1124
1124
11fc
1020
17ff
1020
1020
1020
ENDCHAR
STARTCHAR ch-420
ENCODING 420
SWIDTH 1000 0
DWIDTH 16 0
BBX 16 16 0 -2
BITMAP
2020
23fe
2020
2104
b7ff
a904
a800
a3fe
2202
23fe
2202
23fe
2202
23fe
2104
2603
ENDCHAR
STARTCHAR ch-423
ENCODING 423
SWIDTH 1000 0
DWIDTH 16 0
BBX 16 16 0 -2
BITMAP
1020
1020
13fe
1104
5888
57ff
d000
91fc
1124
11fc
1124
11fc
1020
13fe
1020
17ff
ENDCHAR
STARTCHAR ch-425
ENCODING 425
SWIDTH 1000 0
DWIDTH 16 0
BBX 16 16 0 -2
BITMAP
0208
0e10
787e
0842
ff7e
0842
0842
7f7e
4142
4142
7f7e
0080
24c6
244b
6619
c3f0
ENDCHAR
STARTCHAR ch-427
ENCODING 427
SWIDTH 1000 0
DWIDTH 16 0
BBX 16 16 0 -2
BITMAP
2000
27df
2451
a7df
b451
afdf
a401
2421
25fd
2489
2451
2421
2451
258d
2401
2407
ENDCHAR
STARTCHAR ch-428
ENCODING 428
SWIDTH 1000 0
DWIDTH 16 0
BBX 16 16 0 -2
BITMAP
1000
11fc
1104
59fc
5504
55fc
d020
97ff
1000
11fc
1104
11fc
10a8
11ac
1326
1060
ENDCHAR
STARTCHAR ch-430
ENCODING 430
SWIDTH 1000 0
DWIDTH 16 0
BBX 16 16 0 -2
BITMAP
1100
1100
13ff
5554
5154
5954
d7ff
9154
1154
1154
17ff
1000
1000
1154
1356
1653
ENDCHAR
STARTCHAR ch-434
ENCODING 434
SWIDTH 1000 0
DWIDTH 16 0
BBX 16 16 0 -2
BITMAP
0100
7ffe
4102
5ffa
0100
1ff8
0100
ffff
0000
3ffc
2444
3ffc
0100
2486
6413
c3f1
ENDCHAR
STARTCHAR ch-438
ENCODING 438
SWIDTH 1000 0
DWIDTH 16 0
BBX 16 16 0 -2
BITMAP
2040
2040
27fe
2108
b090
afff
a800
a3fc
2204
23fc
2204
23fc
2040
2522
2509
28f8
ENDCHAR
STARTCHAR ch-442
ENCODING 442
SWIDTH 1000 0
DWIDTH 16 0
BBX 16 16 0 -2
BITMAP
10f8
1110
17ff
5244
5b87
567c
d200
93ff
1200
127c
1200
127c
1200
12fe
1482
10fe
ENDCHAR
STARTCHAR ch-446
ENCODING 446
SWIDTH 1000 0
DWIDTH 16 0
BBX 16 16 0 -2
BITMAP
2014
2012
27ff
2410
a5fa
b40a
adee
a524
25ed
2417
2802
2040
2566
2523
2d09
28f8
ENDCHAR
STARTCHAR ch-451
ENCODING 451
SWIDTH 1000 0
DWIDTH 16 0
BBX 16 16 0 -2
BITMAP
2210
ff90
2210
7f7f
4911
7f11
0811
7f11
0811
7f33
0822
1f6e
f000
0486
644b
c3f9
ENDCHAR
STARTCHAR ch-454
ENCODING 454
SWIDTH 1000 0
DWIDTH 16 0
BBX 16 16 0 -2
BITMAP
10f8
1088
1088
58f8
5400
53de
d252
9252
13de
1020
17ff
10a8
11ac
1326
1623
1020
ENDCHAR
STARTCHAR ch-455
ENCODING 455
SWIDTH 1000 0
DWIDTH 16 0
BBX 16 16 0 -2
BITMAP
0c00
307e
ca42
247e
0842
347e
ca51
365b
ca4a
327c
c6c6
1c03
0180
24c6
6413
c3f1
ENDCHAR
STARTCHAR ch-456
ENCODING 456
SWIDTH 1000 0
DWIDTH 16 0
BBX 16 16 0 -2
BITMAP
2200
23ff
2649
ac89
a7d9
b577
ad40
27c4
2554
255f
27e4
2444
247f
2444
2444
28c4
ENDCHAR
STARTCHAR ch-457
ENCODING 457
SWIDTH 1000 0
DWIDTH 16 0
BBX 16 16 0 -2
BITMAP
0080
0080
7fff
4910
4bfe
5a20
77fc
5220
d3fc
9220
93ff
0080
24c6
244b
6619
c3f0
ENDCHAR
STARTCHAR ch-458
ENCODING 458
SWIDTH 1000 0
DWIDTH 16 0
BBX 16 16 0 -2
BITMAP
1020
1040
13fe
5202
5aaa
5622
d2fa
9272
12aa
1202
1222
17ff
1050
10d8
118c
1707
ENDCHAR
STARTCHAR ch-459
ENCODING 459
SWIDTH 1000 0
DWIDTH 16 0
BBX 16 16 0 -2
BITMAP
2004
27e4
f83f
2144
2084
77ee
68ae
a195
2284
2484
2184
0000
2486
24cb
6659
c3f0
ENDCHAR
STARTCHAR ch-460
ENCODING 460
SWIDTH 1000 0
DWIDTH 16 0
BBX 16 16 0 -2
BITMAP
1000
13fe
1292
5bfe
5420
53fe
d020
97ff
1104
1088
13fe
1020
11fc
1020
1020
1020
ENDCHAR
STARTCHAR ch-461
ENCODING 461
SWIDTH 1000 0
DWIDTH 16 0
BBX 16 16 0 -2
BITMAP
1020
17ff
1000
51fc
5904
5574
d554
9174
1104
11fc
1002
13fc
1020
17ff
10a8
1727
ENDCHAR
STARTCHAR ch-464
ENCODING 464
SWIDTH 1000 0
DWIDTH 16 0
BBX 16 16 0 -2
BITMAP
2020
2020
27ff
2020
b3fe
aa92
aa92
a3fe
2020
27ff
2090
2199
230a
2d0c
21e6
2703
ENDCHAR
STARTCHAR ch-483
ENCODING 483
SWIDTH 1000 0
DWIDTH 16 0
BBX 16 16 0 -2
BITMAP
0088
67ff
3088
00f8
c020
63fe
0222
12aa
3376
6222
c226
0000
2586
24cb
6619
c3f0
ENDCHAR
STARTCHAR ch-486
ENCODING 486
SWIDTH 1000 0
DWIDTH 16 0
BBX 16 16 0 -2
BITMAP
2000
23fe
2020
a7ff
b421
adad
a421
21ac
2000
27ff
2040
27ff
2491
2491
2491
2493
ENDCHAR
STARTCHAR ch-498
ENCODING 498
SWIDTH 1000 0
DWIDTH 16 0
BBX 16 16 0 -2
BITMAP
1108
3548
655f
97d2
3032
67ca
a10e
27c4
210e
27db
2011
0180
24c6
244b
6619
c3f0
ENDCHAR
STARTCHAR ch-500
ENCODING 500
SWIDTH 1000 0
DWIDTH 16 0
BBX 16 16 0 -2
BITMAP
2108
210a
27cb
a109
b108
afff
a288
2eea
228a
2eea
228e
2ee4
228c
23ed
2e17
2022
ENDCHAR
STARTCHAR ch-502
ENCODING 502
SWIDTH 1000 0
DWIDTH 16 0
BBX 16 16 0 -2
BITMAP
2200
227f
2f88
a23e
afa2
baa2
aabe
2aa2
2fa2
223e
2722
26a2
2abe
3214
2236
2263
ENDCHAR
STARTCHAR ch-503
ENCODING 503
SWIDTH 1000 0
DWIDTH 16 0
BBX 16 16 0 -2
BITMAP
2020
27ff
2000
a3fe
b292
abfe
a820
23ae
2020
23ae
2071
21d3
2f1a
210c
21e6
2703
ENDCHAR
STARTCHAR ch-504
ENCODING 504
SWIDTH 1000 0
DWIDTH 16 0
BBX 16 16 0 -2
BITMAP
1e07
527c
5e10
5224
5e68
5212
5e7f
4009
7f2a
082a
4949
8888
0000
2486
6453
c3f1
ENDCHAR
STARTCHAR ch-506
ENCODING 506
SWIDTH 1000 0
DWIDTH 16 0
BBX 16 16 0 -2
BITMAP
2448
244a
2aab
aaa9
b008
afff
a288
2eea
228a
2eea
228e
2ee4
228c
23ed
2e17
2022
ENDCHAR
STARTCHAR ch-508
ENCODING 508
SWIDTH 1000 0
DWIDTH 16 0
BBX 16 16 0 -2
BITMAP
13de
1252
13de
5252
5bde
5652
d3de
9000
1110
13fe
1620
13fc
1220
13fc
1220
13ff
ENDCHAR
STARTCHAR ch-509
ENCODING 509
SWIDTH 1000 0
DWIDTH 16 0
BBX 16 16 0 -2
BITMAP
1088
17ff
1088
53de
5252
5bde
d488
9110
13fe
1510
11fc
1110
11fc
1110
1110
11ff
ENDCHAR
STARTCHAR ch-510
ENCODING 510
SWIDTH 1000 0
DWIDTH 16 0
BBX 16 16 0 -2
BITMAP
27fe
2108
21f8
a108
b1f8
a90e
a7f8
2008
2fff
2492
279e
2492
279e
2492
2fbe
2082
ENDCHAR
STARTCHAR ch-511
ENCODING 511
SWIDTH 1000 0
DWIDTH 16 0
BBX 16 16 0 -2
BITMAP
1010
fe10
11bf
7c69
000a
fe5c
8294
7d36
0063
7c10
4418
7c28
44a2
28a3
3fa5
e11c
ENDCHAR
ENDFONT
