STARTFONT 2.1
FONT jis.jis5000.24
SIZE 24 72 72
FONTBOUNDINGBOX 24 24 0 -3
STARTPROPERTIES 4
FONT_DESCENT 3
FONT_ASCENT 21
DEFAULT_CHAR 5
COPYRIGHT "Copyright (c) 1992 AT&T - All rights reserved."
ENDPROPERTIES
CHARS 193
STARTCHAR ch-5
ENCODING 5
SWIDTH 1000 0
DWIDTH 24 0
BBX 24 24 0 -3
BITMAP
040380
070300
060300
0e030c
0cfffe
0c0000
182020
183838
383030
383030
586c6c
984646
188686
190000
180300
180306
19ffff
180300
180300
180300
180300
180300
180300
180300
ENDCHAR
STARTCHAR ch-6
ENCODING 6
SWIDTH 1000 0
DWIDTH 24 0
BBX 24 24 0 -3
BITMAP
080000
0e000c
0dfffe
0c0300
1c0300
180300
190306
19ffff
398306
398306
599326
99fbf6
199326
199326
19bb76
19ab56
19af5e
19cb96
198306
198306
198306
198306
19833e
19800c
ENDCHAR
STARTCHAR ch-9
ENCODING 9
SWIDTH 1000 0
DWIDTH 24 0
BBX 24 24 0 -3
BITMAP
001800
003800
003400
006200
00c180
0180c0
037f70
06003f
0c001e
33ffe6
c30060
030060
03ffe0
030060
030060
03ffe0
060000
060000
04fff0
0cc030
08c030
10c030
20fff0
00c030
ENDCHAR
STARTCHAR ch-11
ENCODING 11
SWIDTH 1000 0
DWIDTH 24 0
BBX 24 24 0 -3
BITMAP
088006
0effff
0cc006
0cc386
0cc306
0cc306
18c326
18dff6
18c306
38c306
38c306
58c306
98cfe6
18cc66
18cc66
18cc66
18cc66
18cc66
18cfe6
18cc66
18c006
18c006
18fffe
18c006
ENDCHAR
STARTCHAR ch-13
ENCODING 13
SWIDTH 1000 0
DWIDTH 24 0
BBX 24 24 0 -3
BITMAP
040380
070300
060300
06030c
0cfffe
0c0020
182038
181030
381860
381840
580086
9bffff
180000
180000
184018
187ffc
186018
186018
186018
186018
186018
187ff8
186018
186018
ENDCHAR
STARTCHAR ch-15
ENCODING 15
SWIDTH 1000 0
DWIDTH 24 0
BBX 24 24 0 -3
BITMAP
080400
0e0700
0c0618
0c0ffc
19cc18
199a30
199230
39a160
3981c0
598360
598638
998c1f
19b066
1983b0
198330
198300
198306
19ffff
198640
198620
180c38
18181f
18300e
18c006
ENDCHAR
STARTCHAR ch-17
ENCODING 17
SWIDTH 1000 0
DWIDTH 24 0
BBX 24 24 0 -3
BITMAP
080000
0d0c86
0dfeff
0d8cc6
1d8cc6
19fcfe
198cc6
198cc6
39fcfe
398cc6
598006
998006
198006
198006
198006
198006
198006
198006
198006
198006
198006
198006
19803e
19800c
ENDCHAR
STARTCHAR ch-18
ENCODING 18
SWIDTH 1000 0
DWIDTH 24 0
BBX 24 24 0 -3
BITMAP
080007
0c0306
0fff86
0c6066
184066
184466
108266
33ff66
31e366
710366
b03866
303066
303066
303266
33ff66
303066
303066
303066
303306
303c06
33f006
31c006
31003e
30000c
ENDCHAR
STARTCHAR ch-20
ENCODING 20
SWIDTH 1000 0
DWIDTH 24 0
BBX 24 24 0 -3
BITMAP
080000
0e800c
0cfffe
0cc00c
0cc00c
18c00c
18fffc
18c00c
38c1c0
38c180
58dd9c
98d998
18d998
18d998
18dff8
199998
198180
190180
1b398e
1a318c
1c318c
18318c
183ffc
18300c
ENDCHAR
STARTCHAR ch-22
ENCODING 22
SWIDTH 1000 0
DWIDTH 24 0
BBX 24 24 0 -3
BITMAP
040380
070300
060300
06030c
0cfffe
0c0300
180300
180306
39ffff
382020
581038
981830
181846
19ffff
180300
180300
180300
18030c
18fffe
180300
180300
180300
180300
180300
ENDCHAR
STARTCHAR ch-25
ENCODING 25
SWIDTH 1000 0
DWIDTH 24 0
BBX 24 24 0 -3
BITMAP
080030
0e1ff8
0c0030
0dc030
198036
19bfff
198000
398800
398e00
798c18
598ffc
999980
199180
19a180
198186
19ffff
198340
198340
198620
198630
180c18
18181f
18300e
18c006
ENDCHAR
STARTCHAR ch-26
ENCODING 26
SWIDTH 1000 0
DWIDTH 24 0
BBX 24 24 0 -3
BITMAP
040380
070300
06030c
0efffe
0c0680
0c0660
180c30
181838
386018
380006
59ffff
980018
180018
184318
187f98
186318
186318
186318
187f18
186318
180018
180018
1800f8
180030
ENDCHAR
STARTCHAR ch-31
ENCODING 31
SWIDTH 1000 0
DWIDTH 24 0
BBX 24 24 0 -3
BITMAP
041ce0
0718c0
0618c0
0618cc
0dfffe
0c18c0
1818c0
1818c0
3818c6
3bffff
580000
980000
184030
187ff8
186030
186030
186030
187ff0
186030
186030
186030
186030
187ff0
186030
ENDCHAR
STARTCHAR ch-33
ENCODING 33
SWIDTH 1000 0
DWIDTH 24 0
BBX 24 24 0 -3
BITMAP
040000
072018
063ffc
0e3018
0c3018
0c3018
183ff8
183018
383018
383018
583ff8
983018
180000
188006
18ffff
18c006
18c006
18c006
18fffe
18c006
18c006
18c006
18fffe
18c006
ENDCHAR
STARTCHAR ch-35
ENCODING 35
SWIDTH 1000 0
DWIDTH 24 0
BBX 24 24 0 -3
BITMAP
087080
0e60e0
0c60c0
0c60c0
0c6cc6
1bfeff
186098
186198
386118
386298
587c98
584c98
984c90
184c50
184c50
184c70
18cc20
188c20
188c70
189850
191898
19790f
1a320e
180406
ENDCHAR
STARTCHAR ch-36
ENCODING 36
SWIDTH 1000 0
DWIDTH 24 0
BBX 24 24 0 -3
BITMAP
040380
070300
060306
06ffff
0c0300
0c0300
181318
181ffc
381818
39d818
599ff8
999818
199818
199818
199ff8
199818
199818
199818
199ff8
199818
198000
198006
19ffff
198000
ENDCHAR
STARTCHAR ch-37
ENCODING 37
SWIDTH 1000 0
DWIDTH 24 0
BBX 24 24 0 -3
BITMAP
040380
070300
064300
0e4306
0cffff
0cccc6
198cc4
198cc8
3808c0
3818c0
5810fe
98207e
18c000
180000
180018
187ffc
180300
180300
180300
180300
180300
180306
19ffff
180000
ENDCHAR
STARTCHAR ch-38
ENCODING 38
SWIDTH 1000 0
DWIDTH 24 0
BBX 24 24 0 -3
BITMAP
040420
074738
062630
063660
0c3680
0c060c
19fffe
180d00
380d00
381886
5bffff
981040
183020
182038
187fdf
1880ce
1b00c6
1820c0
183fc0
183008
183008
18300c
183ffc
181ff8
ENDCHAR
STARTCHAR ch-40
ENCODING 40
SWIDTH 1000 0
DWIDTH 24 0
BBX 24 24 0 -3
BITMAP
080000
0e800c
0cfffe
0cc00c
0cc00c
18c00c
18fffc
18c00c
38c1c0
38c180
58c186
98ffff
18c180
18c180
198180
19a18c
19bffe
19300c
1b300c
1a300c
1c300c
18300c
183ffc
18300c
ENDCHAR
STARTCHAR ch-41
ENCODING 41
SWIDTH 1000 0
DWIDTH 24 0
BBX 24 24 0 -3
BITMAP
040380
07030c
06fffe
0e0300
0c0318
0c7ffc
180300
180306
39ffff
380000
584018
987ffc
186018
186018
187ff8
186018
186018
187ff8
186018
186018
186018
186018
1860f8
186030
ENDCHAR
STARTCHAR ch-42
ENCODING 42
SWIDTH 1000 0
DWIDTH 24 0
BBX 24 24 0 -3
BITMAP
040400
070e00
06980c
0ee0fe
0cc00c
0cc00c
18c80c
18fcfc
38c00c
38c00c
58c00c
98c00c
18fffc
18c0cc
1810c0
181cc0
1818c0
1818c0
1830c2
1830c2
1820c2
1860c3
18c0ff
1b007e
ENDCHAR
STARTCHAR ch-43
ENCODING 43
SWIDTH 1000 0
DWIDTH 24 0
BBX 24 24 0 -3
BITMAP
040600
070600
060d00
060c80
0c18c0
0c1060
182038
18409f
38bfce
390006
5a0000
988018
18fffc
18c918
18c918
18c918
18fff8
18c918
18c918
18c918
18c918
18c918
18c978
18c030
ENDCHAR
STARTCHAR ch-44
ENCODING 44
SWIDTH 1000 0
DWIDTH 24 0
BBX 24 24 0 -3
BITMAP
040380
070300
06030c
0e03fe
0c0300
0c0300
184318
187ffc
386018
386018
587ff8
986018
186018
187ff8
186318
180300
180306
1bffff
180300
180300
180300
180300
180300
180300
ENDCHAR
STARTCHAR ch-45
ENCODING 45
SWIDTH 1000 0
DWIDTH 24 0
BBX 24 24 0 -3
BITMAP
040030
0703f8
067f00
060300
0c030c
0dfffe
180f40
181b40
381b20
383338
58631f
98c30e
1b0006
180e00
180c00
1bffff
181830
183060
183060
186ec0
186180
180370
181c1c
19e00c
ENDCHAR
STARTCHAR ch-54
ENCODING 54
SWIDTH 1000 0
DWIDTH 24 0
BBX 24 24 0 -3
BITMAP
040000
072018
063ffc
063018
0c3018
0c3018
183ff8
183018
383018
383018
583ff8
983018
183018
183018
183ff8
180000
180006
19ffff
180000
181000
181c60
18381c
18600e
198006
ENDCHAR
STARTCHAR ch-57
ENCODING 57
SWIDTH 1000 0
DWIDTH 24 0
BBX 24 24 0 -3
BITMAP
040600
070600
060d00
060c80
0c18c0
0c1860
183038
18601f
38dfe6
3b0300
58830c
98fffe
18c30c
18c30c
18c30c
18fffc
18c68c
180680
180c40
180c60
181838
18301f
18c00e
1b0006
ENDCHAR
STARTCHAR ch-67
ENCODING 67
SWIDTH 1000 0
DWIDTH 24 0
BBX 24 24 0 -3
BITMAP
080000
0d000c
0dfffe
0d8000
1d8ff0
198810
198810
198ff0
398810
398810
598ff0
998200
198306
19ffff
198630
198420
198c60
199b40
1981e0
198738
19b818
198006
19ffff
198000
ENDCHAR
STARTCHAR ch-71
ENCODING 71
SWIDTH 1000 0
DWIDTH 24 0
BBX 24 24 0 -3
BITMAP
080000
0e860c
0cfefe
0cc60c
0cc60c
18c60c
18c60c
18fefc
38c60c
38c000
58c000
98cc0c
18fffe
18c10c
18c08c
18c098
18cc58
18fe70
18c020
18c070
18c0d8
18c18c
18c30f
18cc06
ENDCHAR
STARTCHAR ch-72
ENCODING 72
SWIDTH 1000 0
DWIDTH 24 0
BBX 24 24 0 -3
BITMAP
040000
074030
067ff8
0e6030
0c6030
0c7ff0
186030
186030
386030
387ff0
581800
983006
183fff
186006
18e106
1b6386
186e06
187006
186086
1860c6
187fce
183f8c
18007c
180018
ENDCHAR
STARTCHAR ch-73
ENCODING 73
SWIDTH 1000 0
DWIDTH 24 0
BBX 24 24 0 -3
BITMAP
040700
070600
060630
067ff8
0c0c30
0c0c32
0dffff
180000
184018
387ffc
386018
586018
987ff8
186000
1800e0
1800c8
18fffc
1830c0
1830c0
1830c6
1bffff
1800c0
1800c0
1800c0
ENDCHAR
STARTCHAR ch-79
ENCODING 79
SWIDTH 1000 0
DWIDTH 24 0
BBX 24 24 0 -3
BITMAP
080006
0effff
0c0000
0c0000
0c7ffc
18600c
18600c
18600c
387ffc
386000
58600c
987ffe
18724c
18f24c
18f24c
18b24c
18bffc
19b24c
19324c
1a324c
18324c
18324c
18303c
183018
ENDCHAR
STARTCHAR ch-80
ENCODING 80
SWIDTH 1000 0
DWIDTH 24 0
BBX 24 24 0 -3
BITMAP
040380
070300
06030c
0efffe
0c0020
0c1030
180c60
180c40
388086
38ffff
58c000
98c020
18c070
18c1c0
18ce08
18c01c
18c070
18c1c0
198e04
19800e
190038
1a00e0
180380
181c00
ENDCHAR
STARTCHAR ch-85
ENCODING 85
SWIDTH 1000 0
DWIDTH 24 0
BBX 24 24 0 -3
BITMAP
040000
0770e0
0660c0
0e60c4
0c64c7
0c7ece
1860f0
1860c2
3860c2
3866c3
5bf8ff
99e07e
190400
180700
184618
187ffc
186018
186018
187ff8
186018
186018
186018
187ff8
186018
ENDCHAR
STARTCHAR ch-86
ENCODING 86
SWIDTH 1000 0
DWIDTH 24 0
BBX 24 24 0 -3
BITMAP
040e00
070c08
060c0e
0e0ccc
0cfff8
0c0c18
180c30
180c60
380cc6
3bffff
580300
980600
180c18
183ffc
18f018
1b3018
183018
183ff8
183018
183018
183018
183ff8
183018
183018
ENDCHAR
STARTCHAR ch-90
ENCODING 90
SWIDTH 1000 0
DWIDTH 24 0
BBX 24 24 0 -3
BITMAP
080080
0e70e0
0c60c0
0c60c0
0c60c0
186c80
1bfe86
1861ff
386118
386118
586298
986098
196c98
19fe50
198c50
198c70
198c20
198c60
198c50
19fcd0
198c98
19810c
18020f
180c06
ENDCHAR
STARTCHAR ch-92
ENCODING 92
SWIDTH 1000 0
DWIDTH 24 0
BBX 24 24 0 -3
BITMAP
040380
070300
060306
07ffff
0c0000
0c2030
183ff8
183030
383030
383ff0
58b030
988006
19ffff
198006
1b0004
1b7ff8
180300
180300
180300
180300
180300
180300
181f00
180600
ENDCHAR
STARTCHAR ch-101
ENCODING 101
SWIDTH 1000 0
DWIDTH 24 0
BBX 24 24 0 -3
BITMAP
0801c0
0e0180
0c0198
0fcffc
18c198
18c19a
19bfff
318198
330198
730ff8
b7e198
366180
306188
326ffc
326180
316182
317fff
30c180
30c180
31a180
313800
321fff
3c07fe
300000
ENDCHAR
STARTCHAR ch-108
ENCODING 108
SWIDTH 1000 0
DWIDTH 24 0
BBX 24 24 0 -3
BITMAP
041000
071c00
061800
0e3006
0c3fff
0c6666
184446
1888c6
393c86
38178e
5821cc
9842cc
18841c
180878
181030
180100
181c80
1898c4
1898c2
199813
199813
1b1818
1b1ff8
180ff0
ENDCHAR
STARTCHAR ch-114
ENCODING 114
SWIDTH 1000 0
DWIDTH 24 0
BBX 24 24 0 -3
BITMAP
040000
07400c
067ffe
06630c
0c630c
0c630c
18630c
187ffc
38630c
38630c
58630c
98630c
187ffc
18600c
180200
180180
184cd0
184ccc
184c06
18cc17
18cc13
198c18
198ff8
1807f0
ENDCHAR
STARTCHAR ch-116
ENCODING 116
SWIDTH 1000 0
DWIDTH 24 0
BBX 24 24 0 -3
BITMAP
100007
1d0606
19ff66
198666
198666
198666
318666
31fe66
318666
718666
718666
b18666
31fe66
318666
318666
318666
318666
31fe66
300006
308806
30e606
30c306
3181be
36018c
ENDCHAR
STARTCHAR ch-117
ENCODING 117
SWIDTH 1000 0
DWIDTH 24 0
BBX 24 24 0 -3
BITMAP
040380
070300
06030c
0603fe
0c0300
0c4318
187ffc
186018
386018
386018
587ff8
986018
186018
186018
187ff8
186018
186018
186018
187ff8
181000
181c60
18381c
18600e
198006
ENDCHAR
STARTCHAR ch-118
ENCODING 118
SWIDTH 1000 0
DWIDTH 24 0
BBX 24 24 0 -3
BITMAP
044018
077ffc
066318
066318
0c6318
0c7ff8
186318
186318
386318
387ff8
586318
980300
190306
19ffff
198306
198346
198326
1983f6
19bf36
199c36
199006
198006
19803e
19800c
ENDCHAR
STARTCHAR ch-120
ENCODING 120
SWIDTH 1000 0
DWIDTH 24 0
BBX 24 24 0 -3
BITMAP
040300
070700
060680
0e0c40
0c0c60
0c1830
18301c
18604f
38dfe6
3b0000
580000
988607
18ff66
18c666
18c666
18fe66
18c666
18c666
18fe66
18c666
18c606
18c606
18de3e
18cc0c
ENDCHAR
STARTCHAR ch-125
ENCODING 125
SWIDTH 1000 0
DWIDTH 24 0
BBX 24 24 0 -3
BITMAP
044100
0731c0
061980
061980
0c0300
0c0330
18fff8
180630
380630
380c60
580ff8
981818
181010
183036
187fff
184006
188086
192466
1a9236
189b36
18db0c
18c00c
18007c
180018
ENDCHAR
STARTCHAR ch-128
ENCODING 128
SWIDTH 1000 0
DWIDTH 24 0
BBX 24 24 0 -3
BITMAP
040400
070700
060600
0e8818
0cfffc
0cc618
18c618
18c618
38fff8
38c618
58c618
98c618
18fff8
180320
182330
183b30
183324
183326
1833fa
186360
186302
184303
1883ff
1b01fe
ENDCHAR
STARTCHAR ch-133
ENCODING 133
SWIDTH 1000 0
DWIDTH 24 0
BBX 24 24 0 -3
BITMAP
040390
07030c
060304
0fffff
0c0300
0c4318
187ffc
186318
386318
387ff8
586318
986318
187ff8
186018
180060
180066
1bffff
182060
181860
180c60
180c60
180060
1803e0
1800c0
ENDCHAR
STARTCHAR ch-141
ENCODING 141
SWIDTH 1000 0
DWIDTH 24 0
BBX 24 24 0 -3
BITMAP
040380
070300
060306
06ffff
0c1020
0c0830
188c20
188446
38ffff
398004
598708
980600
180606
19ffff
180600
180618
1807fc
180618
180c18
180c18
181838
183030
1861f0
198060
ENDCHAR
STARTCHAR ch-145
ENCODING 145
SWIDTH 1000 0
DWIDTH 24 0
BBX 24 24 0 -3
BITMAP
044038
077030
066030
067c34
0ccffe
0c8d30
19d930
1a5930
383132
3827ff
584030
988030
1b0730
180630
180606
1bffff
181e80
183680
183640
186670
18c63f
19861e
1e0606
180600
ENDCHAR
STARTCHAR ch-152
ENCODING 152
SWIDTH 1000 0
DWIDTH 24 0
BBX 24 24 0 -3
BITMAP
001800
003800
007400
00e200
018180
0700f0
0c1c3f
32184e
c31860
0618c0
0d99b8
109a08
041840
061860
0c18c0
1b99b8
209a08
001806
ffffff
001800
001800
001800
001800
001800
ENDCHAR
STARTCHAR ch-153
ENCODING 153
SWIDTH 1000 0
DWIDTH 24 0
BBX 24 24 0 -3
BITMAP
040e70
070c60
060c66
06ffff
0c0c60
0c0c60
188c66
18ffff
38c000
38c000
58cffe
98cc46
18cc46
18cc46
18cffe
18cc46
18cc46
18cc46
188ffe
188c46
198c46
190c46
1a0c5e
180c4c
ENDCHAR
STARTCHAR ch-154
ENCODING 154
SWIDTH 1000 0
DWIDTH 24 0
BBX 24 24 0 -3
BITMAP
083880
0e30e0
0c30c0
0c30c0
0c32c0
1bffc0
1800c6
1890ff
38c88c
38cc8c
598d4c
991148
1a1a58
189858
185050
183030
183020
186870
184c50
18ccd0
188098
19010c
1a020f
180c06
ENDCHAR
STARTCHAR ch-172
ENCODING 172
SWIDTH 1000 0
DWIDTH 24 0
BBX 24 24 0 -3
BITMAP
040380
07730e
06630c
06630c
0c630c
0c7ffc
182080
1838e0
3830c0
38610c
587ffe
98e180
196180
1a6188
187ffc
186180
186180
186188
187ffc
186180
186180
186186
187fff
186000
ENDCHAR
STARTCHAR ch-173
ENCODING 173
SWIDTH 1000 0
DWIDTH 24 0
BBX 24 24 0 -3
BITMAP
080380
0e0300
0c8306
0cffff
0cc080
18cff8
18c088
18c08a
18ffff
38c088
38c088
58cff8
98c080
18dffc
18d084
18d084
18dffc
189084
189084
199ffc
191084
191084
1a109c
18108c
ENDCHAR
STARTCHAR ch-178
ENCODING 178
SWIDTH 1000 0
DWIDTH 24 0
BBX 24 24 0 -3
BITMAP
083840
0e3070
0c3260
0dff60
0c3060
183040
1830c6
1bffff
38008c
38388c
58314c
983048
1bff48
184058
184450
187e50
184430
18c420
188470
188c50
198cd8
19388c
1a190f
180206
ENDCHAR
STARTCHAR ch-179
ENCODING 179
SWIDTH 1000 0
DWIDTH 24 0
BBX 24 24 0 -3
BITMAP
040380
060306
07ffff
0e0300
0c4318
0c7ffc
186318
186318
387ff8
386318
586318
987ff8
180310
18030c
19fff6
187806
180030
1bffff
182030
181830
180c30
180c30
1801f0
180060
ENDCHAR
STARTCHAR ch-180
ENCODING 180
SWIDTH 1000 0
DWIDTH 24 0
BBX 24 24 0 -3
BITMAP
080000
0e800c
0cfffe
0cc000
0cc000
18c7f0
18c410
18c410
38c410
38c410
58c7f0
98c000
18c000
18df3e
18d122
18d122
18d122
18d122
18df3e
18c000
18c000
18c006
18ffff
18c000
ENDCHAR
STARTCHAR ch-181
ENCODING 181
SWIDTH 1000 0
DWIDTH 24 0
BBX 24 24 0 -3
BITMAP
040380
07030c
06fffe
060300
0c7ff8
0c0300
180306
1bffff
380000
380000
587ff8
986018
186018
187ff8
186018
186018
187ff8
186018
186018
187ff8
181800
183c78
18701e
198006
ENDCHAR
STARTCHAR ch-183
ENCODING 183
SWIDTH 1000 0
DWIDTH 24 0
BBX 24 24 0 -3
BITMAP
041000
071c00
06180c
063ffe
0c3000
0c7ff0
185830
189830
391ff0
381830
581830
981ff0
180006
19ffff
183000
18200c
187ffe
18488c
18988c
1b110c
18211c
18c218
180cf8
180030
ENDCHAR
STARTCHAR ch-190
ENCODING 190
SWIDTH 1000 0
DWIDTH 24 0
BBX 24 24 0 -3
BITMAP
040006
071fff
060060
060040
0d848c
0d07fe
19060c
19260c
39760c
3987fc
59060c
99060c
19060c
1907fc
19260c
19260c
19360c
19f60c
18e7fc
180200
180388
180706
180c03
183003
ENDCHAR
STARTCHAR ch-194
ENCODING 194
SWIDTH 1000 0
DWIDTH 24 0
BBX 24 24 0 -3
BITMAP
040380
074318
067ffc
0e6318
0c631a
0fffff
186318
186318
387ff8
380300
58fffc
98c30c
18c30c
18fffc
180600
180c06
1bffff
181860
183060
187fc0
1861f0
18073c
181c0e
19e006
ENDCHAR
STARTCHAR ch-197
ENCODING 197
SWIDTH 1000 0
DWIDTH 24 0
BBX 24 24 0 -3
BITMAP
041c70
071860
061864
06fffe
0c1860
0c1860
180000
184018
387ffc
386318
586318
986318
187ff8
186318
180300
180304
18fffe
180300
180308
187ffc
180300
180302
1bffff
180000
ENDCHAR
STARTCHAR ch-201
ENCODING 201
SWIDTH 1000 0
DWIDTH 24 0
BBX 24 24 0 -3
BITMAP
001800
003800
003400
007200
00e180
01c0e0
070178
0effbf
38000e
c00000
106418
1ff7fc
186618
186618
186618
1fe7f8
000000
020080
0380e0
0701c0
06c180
0c6370
18661c
60080c
ENDCHAR
STARTCHAR ch-202
ENCODING 202
SWIDTH 1000 0
DWIDTH 24 0
BBX 24 24 0 -3
BITMAP
040000
060006
07ffff
0e0880
0c888c
0cfffe
18c88c
18c88c
38c88c
38fffc
580600
980c06
1bffff
181820
183018
187fef
18c066
1b2060
183fe0
183004
183004
183006
183ffe
181ffc
ENDCHAR
STARTCHAR ch-205
ENCODING 205
SWIDTH 1000 0
DWIDTH 24 0
BBX 24 24 0 -3
BITMAP
080c70
0e3e60
0de060
0c2060
182060
1bfe66
1021ff
302066
33fe66
722266
722266
b3fe66
322266
322266
33fe66
302066
302046
33fec6
3020c6
30208e
303d8c
37e10c
33827c
320418
ENDCHAR
STARTCHAR ch-207
ENCODING 207
SWIDTH 1000 0
DWIDTH 24 0
BBX 24 24 0 -3
BITMAP
041000
071860
061ff0
0630c0
0c2080
0c4118
18fffc
196318
386318
386318
586318
987ff8
180e00
181c08
18660e
198b1c
181310
1867a0
198b40
181338
18231f
18c30e
1b1f06
180600
ENDCHAR
STARTCHAR ch-209
ENCODING 209
SWIDTH 1000 0
DWIDTH 24 0
BBX 24 24 0 -3
BITMAP
040060
0703f0
067f00
060600
0c060c
0dfffe
180c40
181820
383ff8
38685f
58c846
9b0fc0
180000
18800c
18fffe
18c00c
18c00c
18cfcc
18c84c
18c84c
18cfcc
18c00c
18c03c
18c018
ENDCHAR
STARTCHAR ch-213
ENCODING 213
SWIDTH 1000 0
DWIDTH 24 0
BBX 24 24 0 -3
BITMAP
080cc0
0e8cc8
0c4cce
0c6ccc
0c6cd0
180cc0
19fffe
182020
381830
380840
58fffc
980300
180300
18fffc
180300
180306
1bffff
180680
180c40
180c60
181838
18301f
18c00e
1b0006
ENDCHAR
STARTCHAR ch-214
ENCODING 214
SWIDTH 1000 0
DWIDTH 24 0
BBX 24 24 0 -3
BITMAP
040380
070300
060306
0fffff
0c0300
0c0300
18fffc
180000
380000
387ff8
586018
986018
187ff8
181060
180c60
180c86
1bffff
180000
180000
187ff8
186018
186018
187ff8
186018
ENDCHAR
STARTCHAR ch-218
ENCODING 218
SWIDTH 1000 0
DWIDTH 24 0
BBX 24 24 0 -3
BITMAP
080e00
0e0c00
0c0c0c
0ffffe
181880
1a1084
193046
31a068
304030
70fffc
71606f
b26066
347fe0
306060
306060
307fe0
300600
308640
30e630
30c618
31860c
33060e
343e06
300c00
ENDCHAR
STARTCHAR ch-222
ENCODING 222
SWIDTH 1000 0
DWIDTH 24 0
BBX 24 24 0 -3
BITMAP
040060
0703f0
067f84
0e0406
0c830c
0c6108
182010
187ff8
386018
386010
586010
987ffc
18600c
186008
18600a
187fff
18c006
18c046
18c136
189496
19928e
19320c
1a30fc
180038
ENDCHAR
STARTCHAR ch-227
ENCODING 227
SWIDTH 1000 0
DWIDTH 24 0
BBX 24 24 0 -3
BITMAP
043030
072020
062424
0ffefe
0c2020
0c2020
182222
1bffff
385050
3848c8
58cc8c
988d07
190202
1a4018
187ffc
186018
186018
186018
187ff8
186018
186018
186018
187ff8
186018
ENDCHAR
STARTCHAR ch-229
ENCODING 229
SWIDTH 1000 0
DWIDTH 24 0
BBX 24 24 0 -3
BITMAP
040380
070308
067ffc
0e0300
0c0304
0cfffe
180000
183030
383434
39fefe
583030
983030
183c32
1bf1ff
198000
180000
19fffe
181860
181860
183062
183062
186063
18c07f
1b003e
ENDCHAR
STARTCHAR ch-231
ENCODING 231
SWIDTH 1000 0
DWIDTH 24 0
BBX 24 24 0 -3
BITMAP
042020
071838
060c30
060c20
0c8046
0cffff
18c306
18c306
38fffe
38c306
58c306
98c306
18fffe
180000
18400c
187ffe
18600c
18600c
187ffc
18600c
18600c
18600c
187ffc
18600c
ENDCHAR
STARTCHAR ch-237
ENCODING 237
SWIDTH 1000 0
DWIDTH 24 0
BBX 24 24 0 -3
BITMAP
043838
073030
063234
0ffffe
0d3130
0d3130
193132
1bffff
385060
385252
58d4d3
98989f
19910e
1b0000
187ff8
186018
186018
186018
187ff8
186018
186018
186018
187ff8
186018
ENDCHAR
STARTCHAR ch-238
ENCODING 238
SWIDTH 1000 0
DWIDTH 24 0
BBX 24 24 0 -3
BITMAP
040380
070300
060318
0efffc
0c1040
0c0860
180840
18008c
39fffe
380000
587ff8
986318
186318
187ff8
186318
186318
187ff8
180300
180308
18fffc
180300
180302
1bffff
180000
ENDCHAR
STARTCHAR ch-245
ENCODING 245
SWIDTH 1000 0
DWIDTH 24 0
BBX 24 24 0 -3
BITMAP
040006
07ffff
060000
0e7ff8
0c6318
0c6318
187ff8
186318
386318
387ff8
580006
9bffff
180000
187ff8
186318
186318
187ff8
186318
186318
187ff8
180000
180006
1bffff
180000
ENDCHAR
STARTCHAR ch-249
ENCODING 249
SWIDTH 1000 0
DWIDTH 24 0
BBX 24 24 0 -3
BITMAP
040006
07ffff
060880
0e888c
0cfffe
0cc88c
18c88c
18c88c
38fffc
380000
587ff8
986018
186018
187ff8
186018
186018
187ff8
186018
186018
187ff8
180800
181c78
18701e
198006
ENDCHAR
STARTCHAR ch-251
ENCODING 251
SWIDTH 1000 0
DWIDTH 24 0
BBX 24 24 0 -3
BITMAP
080038
0f0c30
0dfe30
0d8c32
198fff
198c00
118d08
318c8e
31fccc
718cc8
718012
b103ff
310030
31fc30
33cc30
32cc32
32cfff
36cc30
34cc30
38cc30
30fc30
30cc30
300030
300030
ENDCHAR
STARTCHAR ch-256
ENCODING 256
SWIDTH 1000 0
DWIDTH 24 0
BBX 24 24 0 -3
BITMAP
0820c0
0e18c0
0c1908
0dfffc
180600
180600
19fff8
300600
300604
73fffe
b01000
3079d0
33e18c
30618c
306182
37ffff
306190
306c9c
37f0d8
336072
3260e2
3063ba
33ec1f
30c007
ENDCHAR
STARTCHAR ch-257
ENCODING 257
SWIDTH 1000 0
DWIDTH 24 0
BBX 24 24 0 -3
BITMAP
042080
0738e0
0630c0
0e6108
0c7ffc
0ce300
18e300
197ff8
3a6300
386300
587ff8
986300
186304
187ffe
180000
191886
19fcff
1998c6
1998c6
199fc6
198006
198006
19803e
19800c
ENDCHAR
STARTCHAR ch-258
ENCODING 258
SWIDTH 1000 0
DWIDTH 24 0
BBX 24 24 0 -3
BITMAP
040660
070440
067ffc
0e4444
0c4444
0c7ffc
184444
184444
387ffc
380000
58ffff
98c000
18cff8
18c000
18c006
18ffff
18cc80
18cc84
188c46
198c68
190c30
197f9c
1a3c0f
182006
ENDCHAR
STARTCHAR ch-260
ENCODING 260
SWIDTH 1000 0
DWIDTH 24 0
BBX 24 24 0 -3
BITMAP
040380
070300
060304
06fffe
0c1020
0c0820
180842
19ffff
380000
387ff8
586018
986018
187ff8
186018
186018
187ff8
180200
180188
185cc6
1858d3
189813
1b9818
1b1ff8
180ff0
ENDCHAR
STARTCHAR ch-265
ENCODING 265
SWIDTH 1000 0
DWIDTH 24 0
BBX 24 24 0 -3
BITMAP
040300
070700
060680
0e0e40
0c1c60
0c3838
18601f
18cfce
3b0006
380000
588c8c
98fefe
18cccc
18cccc
18cccc
18fcfc
180000
182020
183838
187030
186c70
18c66c
1986c7
1a0103
ENDCHAR
STARTCHAR ch-274
ENCODING 274
SWIDTH 1000 0
DWIDTH 24 0
BBX 24 24 0 -3
BITMAP
080018
0e7ffc
0c0300
0c8306
0cffff
198306
198304
187b78
380300
380300
587b78
980300
180006
19ffff
180600
188406
18ffff
18c446
18c446
18c446
18c446
18c446
18c45e
18c44c
ENDCHAR
STARTCHAR ch-276
ENCODING 276
SWIDTH 1000 0
DWIDTH 24 0
BBX 24 24 0 -3
BITMAP
040300
070200
07fffc
0e0200
0c0200
0cfff8
180002
19ffff
380002
387ff4
580200
980200
18fff8
180000
1bffff
180018
180018
19fbff
199818
199998
199898
19f818
180078
180030
ENDCHAR
STARTCHAR ch-277
ENCODING 277
SWIDTH 1000 0
DWIDTH 24 0
BBX 24 24 0 -3
BITMAP
040380
070300
060306
0fffff
0c0880
0c04c6
19f6bc
185328
385328
38532c
589334
98b367
190302
186018
186018
187ff8
186018
186018
187ff8
186018
18c018
18c018
198018
1a0018
ENDCHAR
STARTCHAR ch-278
ENCODING 278
SWIDTH 1000 0
DWIDTH 24 0
BBX 24 24 0 -3
BITMAP
040020
078638
06ff30
0ec860
0cc846
0cfeff
18c280
18c300
38fe00
38c80c
58c87e
98c800
18ff00
180000
184018
187ffc
186498
186498
186498
186498
186498
18649a
1bffff
180000
ENDCHAR
STARTCHAR ch-280
ENCODING 280
SWIDTH 1000 0
DWIDTH 24 0
BBX 24 24 0 -3
BITMAP
080700
0e0600
0cfff0
0c0630
180636
1bffff
180630
300630
30fff0
700600
700604
b3fffe
309110
31998c
330886
330006
30fff0
30c930
30c930
30c930
30c930
30c936
37ffff
300000
ENDCHAR
STARTCHAR ch-282
ENCODING 282
SWIDTH 1000 0
DWIDTH 24 0
BBX 24 24 0 -3
BITMAP
041c70
071866
06ffff
0e1860
0c1860
0c0000
18fffe
18c446
38c446
38fffe
590000
990006
1bffff
1b0606
1b0c04
181ff8
183018
18c830
180660
1806c0
180180
180600
181800
18e000
ENDCHAR
STARTCHAR ch-287
ENCODING 287
SWIDTH 1000 0
DWIDTH 24 0
BBX 24 24 0 -3
BITMAP
044390
073318
061330
068346
0cffff
0c8006
199fe4
199028
381fe0
380000
587ff8
986018
186018
187ff8
186018
186018
187ff8
186018
186018
187ff8
181000
183c78
18701e
198006
ENDCHAR
STARTCHAR ch-289
ENCODING 289
SWIDTH 1000 0
DWIDTH 24 0
BBX 24 24 0 -3
BITMAP
044018
077ffc
066318
0e6318
0c6318
0c7ff8
186318
186318
386318
387ff8
586018
980000
190c86
19feff
192492
192492
192492
19fcfe
192492
192492
192492
192492
19fcfe
190482
ENDCHAR
STARTCHAR ch-298
ENCODING 298
SWIDTH 1000 0
DWIDTH 24 0
BBX 24 24 0 -3
BITMAP
080018
0efffc
0c0400
0c3fe0
182020
183fe0
182020
313fe0
312026
73ffff
b60806
362444
30a630
31a098
31bf98
301000
301860
303ff0
3060c0
30d980
330600
3019c0
30607f
33800e
ENDCHAR
STARTCHAR ch-306
ENCODING 306
SWIDTH 1000 0
DWIDTH 24 0
BBX 24 24 0 -3
BITMAP
0820e0
0df0c8
0c00ce
0c00cc
0c17fc
1bf8c8
1800d8
1800d0
3820d6
39f7ff
780060
5800c0
98208c
19f1fe
18038c
18058c
19118c
19f9fc
19118c
19118c
19118c
19118c
19f1fc
19118c
ENDCHAR
STARTCHAR ch-311
ENCODING 311
SWIDTH 1000 0
DWIDTH 24 0
BBX 24 24 0 -3
BITMAP
100c06
1ffeff
180000
19fcfe
190482
392492
312492
300300
31fffe
718880
71888c
b1fffe
31888c
31888c
31fffc
318000
31b8e0
31b0c8
313edc
3130f0
3330c2
32fec3
3470ff
30407e
ENDCHAR
STARTCHAR ch-314
ENCODING 314
SWIDTH 1000 0
DWIDTH 24 0
BBX 24 24 0 -3
BITMAP
10cc40
1c8874
188866
1fff64
188848
3888fe
300090
33fc90
326590
726694
7264fe
b3fc90
306090
306090
33fc90
306094
3060fe
37fe90
306090
305090
30c890
308c96
310cff
360080
ENDCHAR
STARTCHAR ch-315
ENCODING 315
SWIDTH 1000 0
DWIDTH 24 0
BBX 24 24 0 -3
BITMAP
088720
0e6638
0c2630
0d0646
19ffff
190006
1b3fe4
332028
303fe0
300000
70fff8
b08208
30fff8
308208
30fff8
300200
31fffc
300200
37ffff
300000
308888
31888c
3318c6
3318c6
ENDCHAR
STARTCHAR ch-316
ENCODING 316
SWIDTH 1000 0
DWIDTH 24 0
BBX 24 24 0 -3
BITMAP
088c8c
0efefe
0c8c8c
0c8c8c
18fcfc
180000
1a0006
33ffff
330040
737c70
731060
b3ff66
33447f
3344cc
337c8c
33454c
334448
337c28
324438
324410
367c38
35e42f
38c44e
300586
ENDCHAR
STARTCHAR ch-319
ENCODING 319
SWIDTH 1000 0
DWIDTH 24 0
BBX 24 24 0 -3
BITMAP
000000
01c380
018300
018300
018300
018300
018300
018300
018300
018300
018300
018300
018300
038300
030300
030300
030300
070300
060302
060302
0c0302
180303
3003ff
c001fe
ENDCHAR
STARTCHAR ch-320
ENCODING 320
SWIDTH 1000 0
DWIDTH 24 0
BBX 24 24 0 -3
BITMAP
000000
000006
ffffff
018300
018300
018300
018300
018300
018300
018300
018300
018300
018300
018300
038300
030300
030300
030300
060302
060302
0c0302
180303
3003ff
c001fe
ENDCHAR
STARTCHAR ch-321
ENCODING 321
SWIDTH 1000 0
DWIDTH 24 0
BBX 24 24 0 -3
BITMAP
004000
007000
006000
006080
00c060
008038
01001c
7fffee
3fc306
20c306
00c300
00c300
00c300
00c300
00c300
00c300
018300
018300
018302
030302
030302
060303
1803ff
e001fe
ENDCHAR
STARTCHAR ch-323
ENCODING 323
SWIDTH 1000 0
DWIDTH 24 0
BBX 24 24 0 -3
BITMAP
000000
000030
1ffff8
000000
000000
000000
000000
000006
ffffff
018600
018600
018600
018600
018600
018600
030600
030600
030602
060602
060602
0c0603
1807ff
3003fe
c00000
ENDCHAR
STARTCHAR ch-324
ENCODING 324
SWIDTH 1000 0
DWIDTH 24 0
BBX 24 24 0 -3
BITMAP
080030
0ffff8
0c0030
0c0030
0c0030
0c0030
0c0030
0c0030
0c0030
0c0030
0c0030
0ffff0
0cc630
00c600
00c600
00c600
018600
018600
018602
030602
030602
060603
1807ff
e003fe
ENDCHAR
STARTCHAR ch-325
ENCODING 325
SWIDTH 1000 0
DWIDTH 24 0
BBX 24 24 0 -3
BITMAP
001c00
001800
001800
001806
ffffff
004000
007100
0060c0
004060
0083b0
3ffe38
1fc618
10c600
00c600
00c600
018600
018600
018600
030602
030602
060602
0c0603
3007ff
c003fe
ENDCHAR
STARTCHAR ch-326
ENCODING 326
SWIDTH 1000 0
DWIDTH 24 0
BBX 24 24 0 -3
BITMAP
00e700
00c600
00c600
00c610
20c61c
10c618
18c630
0cc660
0cc680
0cc600
00c600
00c780
01c660
0ec638
f8861c
61860c
418600
010602
030602
020602
040603
0807ff
3003fe
c00000
ENDCHAR
STARTCHAR ch-327
ENCODING 327
SWIDTH 1000 0
DWIDTH 24 0
BBX 24 24 0 -3
BITMAP
000200
1c039c
188318
186618
183418
181c18
181618
183318
186398
18c198
1b0018
180018
1ffff8
18c618
00c600
00c600
018600
018600
030602
030602
060602
0c0603
3007ff
c003fe
ENDCHAR
STARTCHAR ch-328
ENCODING 328
SWIDTH 1000 0
DWIDTH 24 0
BBX 24 24 0 -3
BITMAP
001c00
041800
071800
061800
061830
07fff8
0c1800
081800
101800
201800
001806
ffffff
00c300
00c300
00c300
00c300
018300
018300
030302
030302
060302
0c0303
3003ff
c001fe
ENDCHAR
STARTCHAR ch-329
ENCODING 329
SWIDTH 1000 0
DWIDTH 24 0
BBX 24 24 0 -3
BITMAP
001c00
001810
10181c
0c1838
061830
071860
031840
031880
001900
001806
ffffff
00c600
00c600
00c600
00c600
00c600
018600
018600
018602
030602
030602
060603
1807ff
e003fe
ENDCHAR
STARTCHAR ch-331
ENCODING 331
SWIDTH 1000 0
DWIDTH 24 0
BBX 24 24 0 -3
BITMAP
001c00
001800
001800
001806
ffffff
001800
001800
081830
0ffff8
0c0030
0c0030
0c0030
0c0030
0c0030
0ffff0
0cc630
00c600
00c600
018602
018602
030602
060603
1807ff
e003fe
ENDCHAR
STARTCHAR ch-332
ENCODING 332
SWIDTH 1000 0
DWIDTH 24 0
BBX 24 24 0 -3
BITMAP
000040
080070
0600e0
0380c0
01c180
00c100
040260
07fff0
060060
060060
060060
060060
060060
060060
07ffe0
000300
008300
00e300
01c302
038302
070302
0e0303
3803ff
c001fe
ENDCHAR
STARTCHAR ch-333
ENCODING 333
SWIDTH 1000 0
DWIDTH 24 0
BBX 24 24 0 -3
BITMAP
008000
00e000
01c180
01ffc0
030300
060600
0c0400
300818
dffffc
181818
181818
181818
181818
1ffff8
180618
008600
00e600
01c600
018602
030602
060602
0c0603
3007ff
c003fe
ENDCHAR
STARTCHAR ch-334
ENCODING 334
SWIDTH 1000 0
DWIDTH 24 0
BBX 24 24 0 -3
BITMAP
000070
000ff8
1ffe00
001800
001800
101818
1ffffc
181818
181818
181818
181818
181818
1ffff8
180618
188600
00e640
00c630
00c618
018618
018602
030602
060603
1807ff
e003fe
ENDCHAR
STARTCHAR ch-336
ENCODING 336
SWIDTH 1000 0
DWIDTH 24 0
BBX 24 24 0 -3
BITMAP
1c2018
183ffc
183018
183018
183018
183018
183ff8
183018
183018
183018
183018
183ff8
183018
190000
01c700
018600
018600
018600
018600
030602
030602
060603
1807ff
e003fe
ENDCHAR
STARTCHAR ch-338
ENCODING 338
SWIDTH 1000 0
DWIDTH 24 0
BBX 24 24 0 -3
BITMAP
003000
007800
09e030
0f07f8
0c0030
0c0030
0c4030
0fe7f0
0c0030
0c0030
0c0030
0c0030
0c0030
0ffff0
0c0330
008300
00e300
01c300
018302
038302
070302
0e0303
3803ff
c001fe
ENDCHAR
STARTCHAR ch-340
ENCODING 340
SWIDTH 1000 0
DWIDTH 24 0
BBX 24 24 0 -3
BITMAP
008000
00e000
01c0c0
01ffe0
030180
060300
0c0200
380418
dffffc
181818
181818
181818
181818
1ffff8
180618
008600
00e640
01c630
018618
03061a
060602
0c0603
3007ff
c003fe
ENDCHAR
STARTCHAR ch-346
ENCODING 346
SWIDTH 1000 0
DWIDTH 24 0
BBX 24 24 0 -3
BITMAP
001c40
041870
031860
0198c0
119880
101906
3fffff
300006
600004
63ffc8
0300c0
0300c0
0300c0
0300c0
03ffc0
008600
00e600
00c600
01c602
018602
030602
060603
1807ff
e003fe
ENDCHAR
STARTCHAR ch-348
ENCODING 348
SWIDTH 1000 0
DWIDTH 24 0
BBX 24 24 0 -3
BITMAP
042000
073800
06b30c
28ff7e
30c30c
30c30c
30c30c
30ff0c
30c30c
30c30c
30c30c
3eff7c
30c30c
300000
010700
01c600
018600
018600
018600
030602
030602
060603
1c07ff
e003fe
ENDCHAR
STARTCHAR ch-354
ENCODING 354
SWIDTH 1000 0
DWIDTH 24 0
BBX 24 24 0 -3
BITMAP
0700e0
0600c0
0600c0
0630c6
ffffff
0600c0
0600c0
2664cc
3ff7fe
30660c
30660c
30660c
30660c
3fe7fc
018030
118230
1d83b0
198b30
199330
31a232
31c632
638433
41083f
80301e
ENDCHAR
STARTCHAR ch-357
ENCODING 357
SWIDTH 1000 0
DWIDTH 24 0
BBX 24 24 0 -3
BITMAP
000000
000c00
07fe00
000800
000800
000800
000800
001800
001800
001400
003400
003400
003200
006200
006100
00c100
00c080
0180c0
030060
060070
0c003c
18001f
30000e
c00004
ENDCHAR
STARTCHAR ch-360
ENCODING 360
SWIDTH 1000 0
DWIDTH 24 0
BBX 24 24 0 -3
BITMAP
001800
001800
003400
003200
006300
00c180
0180c0
030070
06003f
0c001e
300066
cffff0
001800
001800
001800
001860
0ffff0
001800
001800
001800
001800
00180c
7ffffe
000000
ENDCHAR
STARTCHAR ch-361
ENCODING 361
SWIDTH 1000 0
DWIDTH 24 0
BBX 24 24 0 -3
BITMAP
000000
000006
ffffff
001800
001800
001800
20180c
3ffffe
30180c
31188c
3f9fcc
31188c
31188c
3399cc
32994c
36db6c
34fa7c
385c2c
30180c
30180c
30180c
30180c
30187c
300018
ENDCHAR
STARTCHAR ch-362
ENCODING 362
SWIDTH 1000 0
DWIDTH 24 0
BBX 24 24 0 -3
BITMAP
001800
003800
003400
006200
00e300
01c180
0380e0
060278
0cff3f
30000e
c00000
106210
1ff39c
186318
1c6630
1b6630
196c60
1c6840
1b6c60
196630
186318
18639c
19e18c
18c18c
ENDCHAR
STARTCHAR ch-363
ENCODING 363
SWIDTH 1000 0
DWIDTH 24 0
BBX 24 24 0 -3
BITMAP
000000
000c00
010200
01c200
018200
018200
018100
018100
018100
018100
030180
030080
030080
0300c0
020040
060060
060060
040030
0c0038
08001c
10001f
20000e
c00004
000000
ENDCHAR
STARTCHAR ch-364
ENCODING 364
SWIDTH 1000 0
DWIDTH 24 0
BBX 24 24 0 -3
BITMAP
000200
010200
01c200
018100
018100
030080
0300c0
060060
062070
0c3838
08301f
10300e
206006
c06000
004200
00c100
008080
0080c0
010060
010070
021fb0
3ff038
1f0018
100018
ENDCHAR
STARTCHAR ch-365
ENCODING 365
SWIDTH 1000 0
DWIDTH 24 0
BBX 24 24 0 -3
BITMAP
001c00
001800
001800
001800
001800
001806
ffffff
000000
000000
000000
000000
010000
01c100
018080
018040
030020
030030
060018
0c001c
08000c
10000e
200006
c00006
000000
ENDCHAR
STARTCHAR ch-366
ENCODING 366
SWIDTH 1000 0
DWIDTH 24 0
BBX 24 24 0 -3
BITMAP
010100
01c100
018080
038080
030040
060060
0c0038
18001f
37ffee
c06006
00e000
00c000
01c000
018060
03fff0
030060
0000e0
0000c0
0001c0
000180
000380
000700
007e00
001c00
ENDCHAR
STARTCHAR ch-369
ENCODING 369
SWIDTH 1000 0
DWIDTH 24 0
BBX 24 24 0 -3
BITMAP
01c1c0
018180
018180
018180
018180
01818c
7ffffe
018180
018180
018180
018180
018180
018180
018186
ffffff
000000
000000
010300
01c0c0
038070
070038
0c001c
30000e
c00006
ENDCHAR
STARTCHAR ch-373
ENCODING 373
SWIDTH 1000 0
DWIDTH 24 0
BBX 24 24 0 -3
BITMAP
0000c0
0003e0
021f00
03f000
030000
030000
030018
03fffc
030180
030180
030180
030180
030180
030180
030186
ffffff
000000
010000
01c100
0380c0
070070
0e0038
18001c
60000c
ENDCHAR
STARTCHAR ch-374
ENCODING 374
SWIDTH 1000 0
DWIDTH 24 0
BBX 24 24 0 -3
BITMAP
01c1c0
018180
018180
01818c
7ffffe
018180
018180
018180
01ff80
018180
018180
018180
01ff80
018180
018180
018186
ffffff
000000
010000
01c180
038060
070038
0c001c
70000c
ENDCHAR
STARTCHAR ch-375
ENCODING 375
SWIDTH 1000 0
DWIDTH 24 0
BBX 24 24 0 -3
BITMAP
040060
07fff0
060060
060060
060060
07ffe0
060060
060060
060060
07ffe0
060060
060060
060060
060060
07ffe0
000000
000006
ffffff
000000
010000
01c1c0
038038
0e001c
70000c
ENDCHAR
STARTCHAR ch-376
ENCODING 376
SWIDTH 1000 0
DWIDTH 24 0
BBX 24 24 0 -3
BITMAP
00e700
00c600
00c600
00c600
10c630
1ffff8
18c630
18c630
18c630
18c630
18c630
1ffff0
18c630
18c630
18c630
18c630
18c636
ffffff
000000
020000
0381c0
070078
1c001c
60000c
ENDCHAR
STARTCHAR ch-380
ENCODING 380
SWIDTH 1000 0
DWIDTH 24 0
BBX 24 24 0 -3
BITMAP
040100
0301c0
018180
01820c
7ffffe
00c600
00c630
1ffff8
00c630
00c636
ffffff
00c630
00c630
00c630
1ffff0
01c6b0
03c680
02c640
06c660
0cc638
18c61f
30c60e
c0c606
00c600
ENDCHAR
STARTCHAR ch-384
ENCODING 384
SWIDTH 1000 0
DWIDTH 24 0
BBX 24 24 0 -3
BITMAP
00e380
00c30c
7fc33e
00c3e0
00c302
07c303
fcc3ff
70c1fe
400000
0ffff0
0c1030
0ffff0
0c1030
0c1030
0ffff0
008100
3ffffc
008100
008106
ffffff
018000
03c1f0
0e003c
70000c
ENDCHAR
STARTCHAR ch-386
ENCODING 386
SWIDTH 1000 0
DWIDTH 24 0
BBX 24 24 0 -3
BITMAP
400006
7fffff
600006
600006
600006
600006
600006
600006
600006
600006
600006
600006
600006
600006
600006
600006
600006
600006
600006
600006
600006
600006
60003e
60000c
ENDCHAR
STARTCHAR ch-389
ENCODING 389
SWIDTH 1000 0
DWIDTH 24 0
BBX 24 24 0 -3
BITMAP
001c00
001800
001800
001800
20180c
3ffffe
30300c
30300c
30300c
30680c
30660c
30430c
30c18c
3081cc
3100cc
3600cc
30000c
30000c
30000c
30000c
30000c
30000c
30007c
300018
ENDCHAR
STARTCHAR ch-390
ENCODING 390
SWIDTH 1000 0
DWIDTH 24 0
BBX 24 24 0 -3
BITMAP
20000c
3ffffe
30180c
30180c
30180c
30180c
30180c
30180c
30180c
30180c
30180c
30180c
3ffffc
30000c
30000c
30000c
30000c
30000c
30000c
30000c
30000c
30000c
3000fc
300038
ENDCHAR
STARTCHAR ch-393
ENCODING 393
SWIDTH 1000 0
DWIDTH 24 0
BBX 24 24 0 -3
BITMAP
001c00
001800
001800
001800
081830
0ffff8
0c1830
0c1830
0c1830
0c1830
0ffff0
0c1830
0c1830
0c1830
0c1836
ffffff
0c0030
0c0030
0c0030
0c0030
0c0030
0c0030
0c01f0
0c0060
ENDCHAR
STARTCHAR ch-394
ENCODING 394
SWIDTH 1000 0
DWIDTH 24 0
BBX 24 24 0 -3
BITMAP
100030
1ffff8
18c630
18c630
18c630
18c630
18c630
18c630
18c630
18c630
18c636
ffffff
18c630
18c630
18c630
18c630
18c630
18c630
18c630
18c630
18c630
18c630
18c6f0
180060
ENDCHAR
STARTCHAR ch-396
ENCODING 396
SWIDTH 1000 0
DWIDTH 24 0
BBX 24 24 0 -3
BITMAP
10c218
1fe3fc
18c318
18c318
18c318
18c318
18c318
18c318
18c318
18c318
18c31e
ffffff
18c318
18c318
18c318
18c318
18c318
38c718
30c618
30c618
20c418
60cc18
47c8f8
819030
ENDCHAR
STARTCHAR ch-397
ENCODING 397
SWIDTH 1000 0
DWIDTH 24 0
BBX 24 24 0 -3
BITMAP
000006
ffffff
001800
001800
001800
081830
0ffff8
0c1830
0c1830
0c1830
0c1830
0ffff0
0c1830
0c1830
0c1830
0c1836
ffffff
0c0030
0c0030
0c0030
0c0030
0c0030
0c01f0
0c0060
ENDCHAR
STARTCHAR ch-399
ENCODING 399
SWIDTH 1000 0
DWIDTH 24 0
BBX 24 24 0 -3
BITMAP
400006
7fffff
608606
60e606
60c606
60c606
618606
6187e6
6303e6
6c0006
600006
610186
61ffc6
618186
618186
618186
618186
618186
61ff86
618186
600006
600006
60003e
60000c
ENDCHAR
STARTCHAR ch-400
ENCODING 400
SWIDTH 1000 0
DWIDTH 24 0
BBX 24 24 0 -3
BITMAP
20000c
3ffffe
30000c
30000c
33ffcc
30000c
30000c
33ffcc
30000c
000000
080030
0ffff8
0c0030
0c0030
0ffff0
0c0030
0c0030
0c0030
0ffff0
0c0030
0c0030
0c0030
0c01f0
0c0060
ENDCHAR
STARTCHAR ch-401
ENCODING 401
SWIDTH 1000 0
DWIDTH 24 0
BBX 24 24 0 -3
BITMAP
001c00
001800
20180c
3ffffe
30180c
30180c
3ffffc
30180c
30180c
3ffffc
30000c
000000
0ffff0
0c0030
0c0030
0dffb0
0c0030
0c0030
0dffb0
0c0030
0c0030
0c0030
0c01f0
0c0060
ENDCHAR
STARTCHAR ch-402
ENCODING 402
SWIDTH 1000 0
DWIDTH 24 0
BBX 24 24 0 -3
BITMAP
20000c
3ffffe
30000c
30000c
3ffffc
30000c
30000c
30000c
3ffffc
000000
000000
0ffff0
0c0030
0c0030
0ffff0
0c0030
0c0030
0c0030
0ffff0
0c0030
0c0030
0c0030
0ffff0
0c0030
ENDCHAR
STARTCHAR ch-403
ENCODING 403
SWIDTH 1000 0
DWIDTH 24 0
BBX 24 24 0 -3
BITMAP
00e380
00c300
00c30c
7ffffe
00c300
00c308
3ffffc
00c300
00c302
ffffff
001800
001800
0ffff0
0c1830
0c1830
0ffff0
0c1830
0c1836
ffffff
0c0030
0c0030
0c0030
0c01f0
0c0060
ENDCHAR
STARTCHAR ch-405
ENCODING 405
SWIDTH 1000 0
DWIDTH 24 0
BBX 24 24 0 -3
BITMAP
080030
0ffff8
0c0030
0c0030
0dffb0
0c0030
0c0030
0dffb0
0cc030
01ff00
030600
060c30
1ffff8
6c1830
0c1830
0c1830
0ffff0
0c0600
010600
01c602
038602
070603
1c07ff
e003fe
ENDCHAR
STARTCHAR ch-406
ENCODING 406
SWIDTH 1000 0
DWIDTH 24 0
BBX 24 24 0 -3
BITMAP
000000
000000
000000
000000
000000
000000
000000
000000
200000
200006
7fffff
600006
c00004
c00008
000000
000000
000000
000000
000000
000000
000000
000000
000000
000000
ENDCHAR
STARTCHAR ch-407
ENCODING 407
SWIDTH 1000 0
DWIDTH 24 0
BBX 24 24 0 -3
BITMAP
100000
100006
1fffff
300006
300004
600008
600000
010300
01ff80
018300
018300
018300
018300
018300
018300
018300
018300
030300
030302
060302
0c0302
180303
3003ff
c001fe
ENDCHAR
STARTCHAR ch-409
ENCODING 409
SWIDTH 1000 0
DWIDTH 24 0
BBX 24 24 0 -3
BITMAP
100000
100006
3fffff
300006
61c004
e18008
c180c0
01ffe0
030000
030000
030000
0300c0
07ffe0
0600c0
0000c0
0000c6
ffffff
000180
000180
000380
000300
000700
007e00
001c00
ENDCHAR
STARTCHAR ch-416
ENCODING 416
SWIDTH 1000 0
DWIDTH 24 0
BBX 24 24 0 -3
BITMAP
100000
100006
3fffff
300006
600004
60c038
1fe030
000032
000fff
003030
7ff830
0cc230
0cc130
0cc1b0
0cc1b0
0cc030
0cc030
0cc032
18c1f2
18c062
10c003
30ffff
207ffe
c00000
ENDCHAR
STARTCHAR ch-418
ENCODING 418
SWIDTH 1000 0
DWIDTH 24 0
BBX 24 24 0 -3
BITMAP
200000
200006
7fffff
600006
c00004
c00068
1ffff0
003800
007008
00f00e
03981c
0e3c18
707430
00c640
038f00
0e1e80
703640
006660
01c638
07061f
1c0e0e
e00c06
00fc00
003800
ENDCHAR
STARTCHAR ch-420
ENCODING 420
SWIDTH 1000 0
DWIDTH 24 0
BBX 24 24 0 -3
BITMAP
100000
100006
3fffff
308006
60e004
61c188
01ffc0
030300
060200
0c0430
1ffff8
6c1830
0c1830
0c1830
0ffff0
0c0630
008600
00e640
01c638
03861a
070602
0e0603
3807ff
c003fe
ENDCHAR
STARTCHAR ch-421
ENCODING 421
SWIDTH 1000 0
DWIDTH 24 0
BBX 24 24 0 -3
BITMAP
100000
100006
3fffff
300006
600004
640060
07fff0
060060
060060
07ffe0
060060
060060
07ffe0
060060
001800
001806
ffffff
000000
010000
01c180
038070
06001c
18000e
600006
ENDCHAR
STARTCHAR ch-422
ENCODING 422
SWIDTH 1000 0
DWIDTH 24 0
BBX 24 24 0 -3
BITMAP
100000
100006
3fffff
300006
600004
60c1c8
1fe180
000198
0001fc
003180
7ff980
0cc7f8
0cc018
0cc430
0cc330
0cc1e0
0cc0e0
0cc1b0
18c31a
18cc1a
10c003
30ffff
207ffe
c00000
ENDCHAR
STARTCHAR ch-424
ENCODING 424
SWIDTH 1000 0
DWIDTH 24 0
BBX 24 24 0 -3
BITMAP
100000
100006
3fffff
300006
600004
67ffe8
000000
000000
03ffc0
0300c0
0300c0
03ffc0
000000
100018
1ffffc
181818
181818
181818
1ffff8
181818
181818
181818
1ffff8
180018
ENDCHAR
STARTCHAR ch-425
ENCODING 425
SWIDTH 1000 0
DWIDTH 24 0
BBX 24 24 0 -3
BITMAP
100000
100006
3fffff
300006
606004
64f068
0707f0
060060
064060
07e7e0
060060
060060
07ffe0
010000
03800c
07fffe
0c000c
30020c
04918c
044c8c
0c641c
186018
1800f8
000030
ENDCHAR
STARTCHAR ch-426
ENCODING 426
SWIDTH 1000 0
DWIDTH 24 0
BBX 24 24 0 -3
BITMAP
100000
100006
3fffff
300006
60c304
6ffff0
00c300
00c300
07ffe0
060060
07ffe0
060060
060060
07ffe0
00c006
ffffff
031860
0e1838
37ffef
c61866
061860
0619e0
0618c0
001800
ENDCHAR
STARTCHAR ch-427
ENCODING 427
SWIDTH 1000 0
DWIDTH 24 0
BBX 24 24 0 -3
BITMAP
000000
008000
006000
003000
003800
001800
000000
000080
000100
000200
000400
000c00
001800
003000
007000
03e000
00e000
006000
006000
006000
006000
007000
003000
000000
ENDCHAR
STARTCHAR ch-428
ENCODING 428
SWIDTH 1000 0
DWIDTH 24 0
BBX 24 24 0 -3
BITMAP
008000
00e000
01c0c0
01ffe0
0300c0
068180
0c4300
184600
602c00
001800
003c00
006600
00c380
03a1f0
06187f
180c1e
e00c06
000000
000000
03c000
003c00
000f00
000380
000180
ENDCHAR
STARTCHAR ch-432
ENCODING 432
SWIDTH 1000 0
DWIDTH 24 0
BBX 24 24 0 -3
BITMAP
000380
400300
300300
180300
1c0308
0c030e
011b0c
01fb18
021b98
021b90
061ba0
043bc0
0c3340
183340
383360
f06320
706330
304338
30c31c
30831f
31030e
3a0306
181f00
000600
ENDCHAR
STARTCHAR ch-433
ENCODING 433
SWIDTH 1000 0
DWIDTH 24 0
BBX 24 24 0 -3
BITMAP
000000
40000c
31fffe
181800
1c1800
0c1800
001800
011860
013ff0
023060
023060
043060
0c3060
183060
383060
f07fe0
706060
306060
300060
300060
300060
380066
19ffff
000000
ENDCHAR
STARTCHAR ch-434
ENCODING 434
SWIDTH 1000 0
DWIDTH 24 0
BBX 24 24 0 -3
BITMAP
0001c0
400180
300180
180180
1c4186
0c7fff
006186
016186
016186
026186
026186
046186
0c6186
186186
387ffe
f06186
706186
300180
300180
300180
300180
380180
180180
000180
ENDCHAR
STARTCHAR ch-435
ENCODING 435
SWIDTH 1000 0
DWIDTH 24 0
BBX 24 24 0 -3
BITMAP
000700
400600
300600
180600
1c0618
0c7ffc
000618
010618
010618
020618
020618
040618
0c061a
19ffff
380d00
f00d00
701c80
3018c0
301860
303070
303038
38601f
18c00e
030006
ENDCHAR
STARTCHAR ch-436
ENCODING 436
SWIDTH 1000 0
DWIDTH 24 0
BBX 24 24 0 -3
BITMAP
20000c
18fffe
0c1860
0c1860
0c1860
001860
011860
011860
021860
021866
06ffff
0401e0
0c01e0
180360
f80360
700660
300660
300c60
301860
383060
186060
018060
0e03e0
0000c0
ENDCHAR
STARTCHAR ch-437
ENCODING 437
SWIDTH 1000 0
DWIDTH 24 0
BBX 24 24 0 -3
BITMAP
000000
404018
307ffc
186018
1c6018
0c6018
006018
006018
026018
026018
047ff8
0400c0
0c10c0
181cc0
3818c0
f018c0
7018c0
3030c0
3030c2
3020c2
3060c2
3840c3
1880ff
03007e
ENDCHAR
STARTCHAR ch-438
ENCODING 438
SWIDTH 1000 0
DWIDTH 24 0
BBX 24 24 0 -3
BITMAP
000200
200380
180300
0c0300
0e0600
060620
000418
00040c
0208f6
02ff87
047803
044000
0c0000
082018
183ffc
383018
f03018
703018
303018
303018
303018
383ff8
183018
003018
ENDCHAR
STARTCHAR ch-439
ENCODING 439
SWIDTH 1000 0
DWIDTH 24 0
BBX 24 24 0 -3
BITMAP
000600
400600
300d00
180c80
1c18c0
0c1060
003038
02201f
0240ce
04bfe6
050000
0c0000
080018
18fffc
300c18
f00c18
700c18
300c18
300c18
300c18
300cf8
380c30
180c00
000c00
ENDCHAR
STARTCHAR ch-445
ENCODING 445
SWIDTH 1000 0
DWIDTH 24 0
BBX 24 24 0 -3
BITMAP
000007
400606
33ff06
186076
1c6066
0c6066
006066
00c666
04ff66
04c666
088666
098e66
194c66
116c66
326c66
f01866
701866
301066
303006
302006
306006
384006
18803e
01000c
ENDCHAR
STARTCHAR ch-452
ENCODING 452
SWIDTH 1000 0
DWIDTH 24 0
BBX 24 24 0 -3
BITMAP
000700
400600
20060c
33fffe
180600
180600
187ff0
020630
020636
05ffff
040630
0c0630
087ff0
180800
180c06
33ffff
f01860
7030c0
3030c0
306d80
3063c0
380670
181838
01e018
ENDCHAR
STARTCHAR ch-453
ENCODING 453
SWIDTH 1000 0
DWIDTH 24 0
BBX 24 24 0 -3
BITMAP
008006
40ffff
30c006
18c006
1cc386
0cc306
00c336
00fffe
02c306
02c306
04c306
04cb66
08cff6
18cc66
30cc66
f0cc66
70cc66
30cc66
30cfe6
30cc66
30c006
38c006
18fffe
00c006
ENDCHAR
STARTCHAR ch-454
ENCODING 454
SWIDTH 1000 0
DWIDTH 24 0
BBX 24 24 0 -3
BITMAP
001000
401c80
3018e0
1838c0
183080
18610c
007ffe
00e180
016180
026180
006198
047ffc
046180
086180
186180
306198
f07ffc
706180
306180
306180
306186
387fff
186000
006000
ENDCHAR
STARTCHAR ch-457
ENCODING 457
SWIDTH 1000 0
DWIDTH 24 0
BBX 24 24 0 -3
BITMAP
000380
400300
300300
180306
1dffff
0c0000
000000
004018
027ffc
026018
046018
046018
086018
187ff8
306318
f00300
704320
307318
30630c
30c30e
308306
390306
1a1f00
000600
ENDCHAR
STARTCHAR ch-459
ENCODING 459
SWIDTH 1000 0
DWIDTH 24 0
BBX 24 24 0 -3
BITMAP
00800c
40fffe
30c00c
18c38c
18c30c
18c30c
00dfec
00c30c
04c30c
04c30c
08dfec
08c00c
18c00c
30cfcc
f0cccc
70cccc
30cccc
318ccc
318ccc
390fcc
1b000c
02000c
04007c
080018
ENDCHAR
STARTCHAR ch-460
ENCODING 460
SWIDTH 1000 0
DWIDTH 24 0
BBX 24 24 0 -3
BITMAP
000380
200300
180318
0c7ffc
060300
060300
000306
01ffff
041860
041c60
04307f
08683f
098e00
180c30
181ff8
301030
f02860
704460
3186c0
300380
3006e0
380c7f
18301e
01c006
ENDCHAR
STARTCHAR ch-461
ENCODING 461
SWIDTH 1000 0
DWIDTH 24 0
BBX 24 24 0 -3
BITMAP
000700
400600
300606
1bffff
180600
190618
01fffc
018618
058618
058618
09fff8
098618
198618
198618
31fff8
f18f18
701e80
3016c0
303660
386638
18c61f
03060e
0c0606
000600
ENDCHAR
STARTCHAR ch-470
ENCODING 470
SWIDTH 1000 0
DWIDTH 24 0
BBX 24 24 0 -3
BITMAP
002080
4038e0
3030c0
18310c
187ffe
026180
046188
04fffc
08e180
196188
f27ffc
706180
306180
306186
387fff
186000
001c00
001806
ffffff
001800
001800
001800
001800
001800
ENDCHAR
STARTCHAR ch-475
ENCODING 475
SWIDTH 1000 0
DWIDTH 24 0
BBX 24 24 0 -3
BITMAP
000380
400300
300306
1bffff
1c0000
0cfffc
00c00c
00cfcc
04c84c
04c84c
08cfcc
08c00c
18fffc
180000
307ff8
f00000
700006
33ffff
304300
307330
30e30c
398306
1a1f06
000600
ENDCHAR
STARTCHAR ch-477
ENCODING 477
SWIDTH 1000 0
DWIDTH 24 0
BBX 24 24 0 -3
BITMAP
00000c
01c7fe
41800c
319908
19bcd0
19c060
198860
018c06
01ffff
04f866
050064
098068
09f860
194260
32436c
f04b7e
77ff60
304360
30e360
30b360
39b2e0
190670
020c3f
0c300e
ENDCHAR
STARTCHAR ch-480
ENCODING 480
SWIDTH 1000 0
DWIDTH 24 0
BBX 24 24 0 -3
BITMAP
010180
01ffc0
018180
018180
018180
018180
018180
018180
018180
018180
018180
018180
018180
018180
018180
038180
030180
030180
060182
060182
0c0182
180183
3001ff
c000fe
ENDCHAR
STARTCHAR ch-481
ENCODING 481
SWIDTH 1000 0
DWIDTH 24 0
BBX 24 24 0 -3
BITMAP
000000
020180
03ffc0
030180
030180
030180
030180
030180
034180
033180
031980
031980
031980
030180
030180
030180
060180
060182
060182
0c0182
0c0183
1801ff
3000fe
c00000
ENDCHAR
STARTCHAR ch-486
ENCODING 486
SWIDTH 1000 0
DWIDTH 24 0
BBX 24 24 0 -3
BITMAP
100000
1c0430
1807f8
18c630
1fe630
18c630
18c630
18c630
10c630
30c630
298630
298630
458632
850632
030432
020c33
06083f
05301e
0c8000
084000
103000
201e00
4007ff
8000fe
ENDCHAR
STARTCHAR ch-487
ENCODING 487
SWIDTH 1000 0
DWIDTH 24 0
BBX 24 24 0 -3
BITMAP
100018
1ffffc
180018
181c18
181818
181818
191998
19ffd8
199998
199998
199998
199998
199998
199998
199998
199998
19999a
119b9a
11990a
30180a
20180e
201806
401807
801803
ENDCHAR
STARTCHAR ch-489
ENCODING 489
SWIDTH 1000 0
DWIDTH 24 0
BBX 24 24 0 -3
BITMAP
100030
1ffff8
180030
180030
183830
183030
183030
1831b0
1ffff0
183030
183030
187030
187830
187430
18f630
18b330
19b312
193192
12319a
34318a
20300e
203006
403007
800003
ENDCHAR
STARTCHAR ch-490
ENCODING 490
SWIDTH 1000 0
DWIDTH 24 0
BBX 24 24 0 -3
BITMAP
100030
1ffff8
180030
180030
180030
181c30
181830
181830
199830
199830
199930
199fb0
199830
199830
199830
199830
199812
31981a
31999a
37ffca
20000e
600006
400007
800003
ENDCHAR
STARTCHAR ch-493
ENCODING 493
SWIDTH 1000 0
DWIDTH 24 0
BBX 24 24 0 -3
BITMAP
040000
070038
0e03fc
0c7f80
180300
180306
39ffff
580300
980300
180300
18030c
18fffe
180000
000000
020180
03ffc0
030180
030180
030182
060182
060182
0c0183
1801ff
6000fe
ENDCHAR
STARTCHAR ch-496
ENCODING 496
SWIDTH 1000 0
DWIDTH 24 0
BBX 24 24 0 -3
BITMAP
100030
1ffff8
180030
184030
187030
196330
19ffb0
198330
198330
19ff30
198330
198330
19ff30
180030
180030
1bffb0
183012
183012
11ff1a
30300a
20300e
2030c6
4fffe7
800003
ENDCHAR
STARTCHAR ch-497
ENCODING 497
SWIDTH 1000 0
DWIDTH 24 0
BBX 24 24 0 -3
BITMAP
038230
3b3bf8
333330
333330
333330
3ff330
000330
000330
ffff30
000330
203330
3ffb30
303330
303330
3ff330
000330
108330
08e330
0cc330
0c8632
013632
ffc433
78083f
40301e
ENDCHAR
STARTCHAR ch-501
ENCODING 501
SWIDTH 1000 0
DWIDTH 24 0
BBX 24 24 0 -3
BITMAP
700007
600006
600006
600006
600006
600006
600006
600006
600006
600006
600006
600006
600006
600006
600006
600006
600006
600006
600006
600006
600006
600006
7ffffe
600006
ENDCHAR
STARTCHAR ch-502
ENCODING 502
SWIDTH 1000 0
DWIDTH 24 0
BBX 24 24 0 -3
BITMAP
000100
0001c0
700187
600386
620306
610306
60c606
606606
603c06
601806
601c06
603606
603306
606386
604186
6081c6
6100c6
6200c6
6c0006
600006
600006
7ffffe
600006
600006
ENDCHAR
STARTCHAR ch-504
ENCODING 504
SWIDTH 1000 0
DWIDTH 24 0
BBX 24 24 0 -3
BITMAP
010180
01ffc0
018180
018180
018180
018180
018180
018180
018180
21818c
3f81fe
31818c
30000c
30000c
30000c
30000c
30000c
30000c
30000c
30000c
30000c
3ffffc
30000c
30000c
ENDCHAR
STARTCHAR ch-505
ENCODING 505
SWIDTH 1000 0
DWIDTH 24 0
BBX 24 24 0 -3
BITMAP
000000
40c206
7fe3ff
60c306
60c306
60c306
60c306
60c306
60c306
60c306
60c306
60c306
60c306
60ff06
60c306
60c306
600006
600006
600006
600006
600006
7ffffe
600006
600006
ENDCHAR
STARTCHAR ch-506
ENCODING 506
SWIDTH 1000 0
DWIDTH 24 0
BBX 24 24 0 -3
BITMAP
001c00
001800
1c181c
181818
181818
181818
181818
181818
181818
1ffff8
181818
001800
001800
001800
38180e
30180c
30180c
30180c
30180c
30180c
30180c
3ffffc
30000c
30000c
ENDCHAR
STARTCHAR ch-509
ENCODING 509
SWIDTH 1000 0
DWIDTH 24 0
BBX 24 24 0 -3
BITMAP
000000
000006
ffffff
006000
006000
006400
38fe0e
30cc8c
320cec
318ccc
30cc8c
30cd0c
300c0c
302e0c
30cd8c
378ccc
330c6c
321c6c
30780c
30300c
30000c
3ffffc
30000c
30000c
ENDCHAR
STARTCHAR ch-510
ENCODING 510
SWIDTH 1000 0
DWIDTH 24 0
BBX 24 24 0 -3
BITMAP
0000c0
07ffe0
000180
000300
000200
001400
701807
601866
649ff6
67d866
649866
649a46
649946
6498c6
6498e6
6498a6
679936
641936
601a36
60f806
603006
600006
7ffffe
600006
ENDCHAR
ENDFONT
