STARTFONT 2.1
FONT jis.jis6c00.24
SIZE 24 72 72
FONTBOUNDINGBOX 24 24 0 -3
STARTPROPERTIES 4
FONT_DESCENT 3
FONT_ASCENT 21
DEFAULT_CHAR 8
COPYRIGHT "Copyright (c) 1992 AT&T - All rights reserved."
ENDPROPERTIES
CHARS 161
STARTCHAR ch-8
ENCODING 8
SWIDTH 1000 0
DWIDTH 24 0
BBX 24 24 0 -3
BITMAP
070018
06307c
fff9e0
0007c0
7ff0c0
4010c0
4f90c0
4890d8
4897fc
4f90c0
4010c0
7ff0c0
0000cc
3fe7fe
3060c0
3060c0
3fe0c0
3060c0
3060c0
3fe0c2
3060c2
3060c3
fff8ff
00007e
ENDCHAR
STARTCHAR ch-15
ENCODING 15
SWIDTH 1000 0
DWIDTH 24 0
BBX 24 24 0 -3
BITMAP
0000c0
0007e0
107f00
1fcc00
180c00
180c00
180c00
180c00
180c0c
1ffffe
180c00
180c00
180c00
180600
180600
180600
180300
180302
180182
1831c2
1fc0f2
fe007f
70001f
400006
ENDCHAR
STARTCHAR ch-17
ENCODING 17
SWIDTH 1000 0
DWIDTH 24 0
BBX 24 24 0 -3
BITMAP
000000
100018
1ffffc
180018
180018
180018
180018
1ffff8
181818
181800
181800
181806
1fffff
180c00
180c00
180600
180600
180300
180382
18e1c2
1f80e2
fc007b
70003f
40000e
ENDCHAR
STARTCHAR ch-19
ENCODING 19
SWIDTH 1000 0
DWIDTH 24 0
BBX 24 24 0 -3
BITMAP
0e100c
0c1ffe
0c180c
0c180c
0cd80c
fff80c
30180c
301ffc
3018cc
3018c0
3018c0
3018c6
301fff
3018c0
3018c0
3018c0
301860
3fd860
1fd862
001832
0019ba
00fe1f
00700f
004006
ENDCHAR
STARTCHAR ch-20
ENCODING 20
SWIDTH 1000 0
DWIDTH 24 0
BBX 24 24 0 -3
BITMAP
040000
070000
060018
0ffffc
0c0000
180000
33fff0
200000
400000
800060
3ffff0
000060
000060
000060
000060
000060
000062
000032
000032
00001a
00001e
00000e
000007
000003
ENDCHAR
STARTCHAR ch-23
ENCODING 23
SWIDTH 1000 0
DWIDTH 24 0
BBX 24 24 0 -3
BITMAP
040000
070000
060018
0ffffc
0c0000
180000
33fff0
200000
400000
800060
3ffff0
000060
001060
181c60
061860
03b060
00e062
00f032
01b832
031c1a
060c1e
1c0c0e
300007
c00003
ENDCHAR
STARTCHAR ch-27
ENCODING 27
SWIDTH 1000 0
DWIDTH 24 0
BBX 24 24 0 -3
BITMAP
040000
070000
060018
0ffffc
0c0000
180000
33fff0
600000
800030
1ffff8
000030
040030
070830
060430
0c0630
0fff30
198df2
218cda
418c1a
030c1a
030c0e
060c0e
0c7c07
301803
ENDCHAR
STARTCHAR ch-35
ENCODING 35
SWIDTH 1000 0
DWIDTH 24 0
BBX 24 24 0 -3
BITMAP
040000
070000
060018
0ffffc
0c0000
180000
33fff0
600000
800030
3ffff8
000030
10e430
0cc630
04cc30
00d030
3fff30
03c032
03e01a
06d81a
06ce1a
0cc70e
18c30e
60c007
00c003
ENDCHAR
STARTCHAR ch-36
ENCODING 36
SWIDTH 1000 0
DWIDTH 24 0
BBX 24 24 0 -3
BITMAP
040000
070000
060018
0ffffc
0c0000
180000
33fff0
600000
800030
3ffff8
000030
000030
1fff30
180330
18c330
18c330
1bfb32
18c31a
18b31a
199b1a
1b1b0e
18030e
1fff07
180303
ENDCHAR
STARTCHAR ch-52
ENCODING 52
SWIDTH 1000 0
DWIDTH 24 0
BBX 24 24 0 -3
BITMAP
001c00
001800
001800
001800
001800
001808
00180e
019c1c
7fdc38
019a60
019a80
031900
031900
061880
0618c0
0c1860
081870
101838
20181f
40180e
801806
001800
00f800
003000
ENDCHAR
STARTCHAR ch-55
ENCODING 55
SWIDTH 1000 0
DWIDTH 24 0
BBX 24 24 0 -3
BITMAP
001c00
001800
081800
061800
031810
03181c
001838
001870
0198c0
7fdb00
019c00
019a00
031a00
031900
061900
061880
0c18c0
081860
101838
20181f
40180e
801806
00f800
003000
ENDCHAR
STARTCHAR ch-56
ENCODING 56
SWIDTH 1000 0
DWIDTH 24 0
BBX 24 24 0 -3
BITMAP
00c000
003800
000e00
000600
000000
001800
07fc00
001800
001810
00181c
019c18
7fdc30
019a60
019a80
031900
031980
0618c0
061860
0c1838
18181f
30180e
c01806
00f800
003000
ENDCHAR
STARTCHAR ch-62
ENCODING 62
SWIDTH 1000 0
DWIDTH 24 0
BBX 24 24 0 -3
BITMAP
100000
0c2018
063ffc
063018
003018
003018
803018
613018
313018
323018
023018
063018
0430f8
0c3030
083000
183000
383000
f03002
703002
303002
303003
303fff
381ffe
180000
ENDCHAR
STARTCHAR ch-64
ENCODING 64
SWIDTH 1000 0
DWIDTH 24 0
BBX 24 24 0 -3
BITMAP
200000
180006
0cffff
0c0180
000180
000180
800180
600180
320180
320180
040180
040180
0c0180
080180
180180
180180
300180
f00180
700180
300180
300180
300180
380f80
180300
ENDCHAR
STARTCHAR ch-65
ENCODING 65
SWIDTH 1000 0
DWIDTH 24 0
BBX 24 24 0 -3
BITMAP
100380
0c0300
060300
060300
000300
000300
800300
600300
320306
32ffff
040300
040300
0c0300
080300
180300
180300
300300
f00300
700300
300300
300300
380300
380300
180300
ENDCHAR
STARTCHAR ch-66
ENCODING 66
SWIDTH 1000 0
DWIDTH 24 0
BBX 24 24 0 -3
BITMAP
001d00
0018c0
001860
001860
001806
ffffff
001800
001800
101810
0c181c
061818
031c30
031c60
001a80
001a00
005900
009980
0318c0
0e1870
7c183e
30181c
20180c
01f800
007000
ENDCHAR
STARTCHAR ch-78
ENCODING 78
SWIDTH 1000 0
DWIDTH 24 0
BBX 24 24 0 -3
BITMAP
102060
0c3ff0
063060
063060
003060
003060
803060
603060
323460
323260
043360
043360
0c3060
083060
183060
183060
306060
f06060
706062
304062
30c062
308063
39007f
1a003e
ENDCHAR
STARTCHAR ch-80
ENCODING 80
SWIDTH 1000 0
DWIDTH 24 0
BBX 24 24 0 -3
BITMAP
100200
0c0380
060300
060600
000600
000406
800fff
600806
321806
32100c
04240c
044318
0c8198
0801b0
180030
180060
3000c0
f000c0
700180
300300
300600
300c00
383000
18c000
ENDCHAR
STARTCHAR ch-85
ENCODING 85
SWIDTH 1000 0
DWIDTH 24 0
BBX 24 24 0 -3
BITMAP
1001c0
0c0180
060180
060180
000180
000180
807187
606186
326186
326186
046186
046186
0c6186
086186
186186
186186
306186
f06186
706186
306186
306186
307ffe
386006
186006
ENDCHAR
STARTCHAR ch-87
ENCODING 87
SWIDTH 1000 0
DWIDTH 24 0
BBX 24 24 0 -3
BITMAP
100000
0c000c
06fffe
060300
000300
000300
800300
600300
320300
320300
040306
05ffff
0c0300
080300
180300
180300
300300
f00300
700300
300300
300300
300300
380300
180300
ENDCHAR
STARTCHAR ch-90
ENCODING 90
SWIDTH 1000 0
DWIDTH 24 0
BBX 24 24 0 -3
BITMAP
100000
0c000c
067ffe
060600
000600
000600
800e00
620c06
33ffff
320c00
041c00
041800
0c180c
081ffe
18300c
18300c
30300c
f0001c
700018
300018
300038
300030
3803f0
1800e0
ENDCHAR
STARTCHAR ch-93
ENCODING 93
SWIDTH 1000 0
DWIDTH 24 0
BBX 24 24 0 -3
BITMAP
100700
0c0600
060600
060600
000c00
808c00
608c06
31ffff
311830
031830
021830
061860
043060
0c3060
0830c0
186cc0
386380
f061c0
700370
300638
300c1c
30180e
386006
198006
ENDCHAR
STARTCHAR ch-94
ENCODING 94
SWIDTH 1000 0
DWIDTH 24 0
BBX 24 24 0 -3
BITMAP
000030
1ffff8
001800
001800
001800
001806
ffffff
000000
001c00
001800
001810
01981c
7fdc38
019c60
019a80
031900
031980
0618c0
0c1870
18183f
30181e
c01806
00f800
003000
ENDCHAR
STARTCHAR ch-95
ENCODING 95
SWIDTH 1000 0
DWIDTH 24 0
BBX 24 24 0 -3
BITMAP
100000
0c0000
06000c
06fffe
000300
000300
800300
600300
320300
320300
040300
040300
0c0300
080300
180300
180300
300300
f00300
700300
300300
300306
31ffff
380000
180000
ENDCHAR
STARTCHAR ch-96
ENCODING 96
SWIDTH 1000 0
DWIDTH 24 0
BBX 24 24 0 -3
BITMAP
1001c0
0c0180
063980
063180
00318c
00319e
8031ac
6031cc
32338c
323d8c
04318c
04718c
0db18c
08318c
18318c
1831bc
303198
f03180
703180
303002
303002
303003
383fff
181ffe
ENDCHAR
STARTCHAR ch-98
ENCODING 98
SWIDTH 1000 0
DWIDTH 24 0
BBX 24 24 0 -3
BITMAP
100380
0c0300
060300
060300
000300
000300
800300
600300
32030c
32fffe
040300
040300
0c0300
080300
180300
180300
300300
f00300
700300
300300
300300
300306
39ffff
180000
ENDCHAR
STARTCHAR ch-104
ENCODING 104
SWIDTH 1000 0
DWIDTH 24 0
BBX 24 24 0 -3
BITMAP
100000
0c4006
067fff
066006
006006
006006
806006
606006
326006
326006
046006
047ffe
0c6006
086006
186006
186006
306006
f06006
706006
306006
306006
307ffe
386006
186006
ENDCHAR
STARTCHAR ch-106
ENCODING 106
SWIDTH 1000 0
DWIDTH 24 0
BBX 24 24 0 -3
BITMAP
100000
0c000c
06fffe
060300
000300
000300
800300
600300
320300
320300
040318
047ffc
0c0300
080300
180300
180300
300300
f00300
700300
300300
300300
300306
39ffff
180000
ENDCHAR
STARTCHAR ch-112
ENCODING 112
SWIDTH 1000 0
DWIDTH 24 0
BBX 24 24 0 -3
BITMAP
100700
0c0600
060600
060600
000600
000600
800600
620606
33ffff
320600
040600
040d00
0c0d00
080d00
180880
181880
3018c0
f01440
703260
302330
30633c
30431f
38800e
1b0004
ENDCHAR
STARTCHAR ch-114
ENCODING 114
SWIDTH 1000 0
DWIDTH 24 0
BBX 24 24 0 -3
BITMAP
100030
0cfff8
061830
061830
001860
001860
801860
6018cc
3218fe
3234cc
04340c
04340c
0c3218
083218
183318
182130
3061b0
f060e0
7040e0
30c1b0
308338
31061f
3a180e
186006
ENDCHAR
STARTCHAR ch-115
ENCODING 115
SWIDTH 1000 0
DWIDTH 24 0
BBX 24 24 0 -3
BITMAP
100000
0c400c
067ffe
066000
006000
006000
806000
606018
327ffc
326418
046418
046430
0c6230
086230
186360
186160
30c1c0
f0c080
70c1c0
308360
318638
310c1f
3a100e
186006
ENDCHAR
STARTCHAR ch-122
ENCODING 122
SWIDTH 1000 0
DWIDTH 24 0
BBX 24 24 0 -3
BITMAP
100700
0c0600
060600
060600
000618
00fffc
800618
620618
320618
320618
040618
04061a
0dffff
080d00
180d00
180c80
301880
f01840
701060
303030
302038
30401f
38800e
1b0006
ENDCHAR
STARTCHAR ch-125
ENCODING 125
SWIDTH 1000 0
DWIDTH 24 0
BBX 24 24 0 -3
BITMAP
104000
0c7000
066006
067fff
00c000
008000
813ff8
600000
320000
320030
047ff8
040030
0c0030
080030
180030
180030
300032
f00032
700032
300032
30001a
30001f
38000f
180006
ENDCHAR
STARTCHAR ch-126
ENCODING 126
SWIDTH 1000 0
DWIDTH 24 0
BBX 24 24 0 -3
BITMAP
100840
0c0e40
060c40
060c20
001820
001830
801018
60301c
32200f
324006
048000
043ff8
0c0618
080618
180618
180618
300618
f00c18
700c18
300818
301838
301030
3821f0
18c060
ENDCHAR
STARTCHAR ch-129
ENCODING 129
SWIDTH 1000 0
DWIDTH 24 0
BBX 24 24 0 -3
BITMAP
100400
0c0300
060180
0600c0
0000c0
000e00
800c00
600c00
320c00
320c00
040c00
044c08
0c4c04
084c06
18cc03
18cc03
30cc03
f18c00
718c10
300c10
300c10
300c18
380ff8
1807f0
ENDCHAR
STARTCHAR ch-130
ENCODING 130
SWIDTH 1000 0
DWIDTH 24 0
BBX 24 24 0 -3
BITMAP
100018
0c007c
0623e0
063e00
003000
003000
803000
603006
323fff
323060
043060
043060
0c3060
083060
183060
182060
306060
f06060
704060
30c060
308060
310060
3a0060
180060
ENDCHAR
STARTCHAR ch-131
ENCODING 131
SWIDTH 1000 0
DWIDTH 24 0
BBX 24 24 0 -3
BITMAP
200018
18007c
0c03e0
0cff00
000300
000300
800300
600300
320300
320300
040306
05ffff
0c0680
080680
180680
180440
300c40
f00c60
700820
301830
301018
30201f
38400e
198006
ENDCHAR
STARTCHAR ch-136
ENCODING 136
SWIDTH 1000 0
DWIDTH 24 0
BBX 24 24 0 -3
BITMAP
100700
0c0600
060600
060600
004600
004606
807fff
60c606
32c604
32c608
040600
040dc0
0c0d80
080d80
180d80
180980
301980
f01980
701182
303182
302182
304183
3881ff
1b00fe
ENDCHAR
STARTCHAR ch-140
ENCODING 140
SWIDTH 1000 0
DWIDTH 24 0
BBX 24 24 0 -3
BITMAP
200700
180600
0c060c
0c067e
0007e0
01fe00
800600
600600
32e61c
32c618
04c618
04c618
0cc618
08c618
18c618
18fff8
30c618
f0c600
700602
300602
300602
300603
3807ff
1803fe
ENDCHAR
STARTCHAR ch-141
ENCODING 141
SWIDTH 1000 0
DWIDTH 24 0
BBX 24 24 0 -3
BITMAP
100000
0c0018
06fffc
061800
001800
001800
801800
601860
323ff0
323060
043060
043060
0c3060
083060
183060
187fe0
306060
f06060
700060
300060
300060
300066
39ffff
180000
ENDCHAR
STARTCHAR ch-144
ENCODING 144
SWIDTH 1000 0
DWIDTH 24 0
BBX 24 24 0 -3
BITMAP
100380
0c0300
060300
060300
000300
000306
81ffff
600740
320f40
320f40
040f20
041b20
0c1b30
081310
183318
182318
30630c
f0430f
708306
310306
300300
300300
380300
180300
ENDCHAR
STARTCHAR ch-146
ENCODING 146
SWIDTH 1000 0
DWIDTH 24 0
BBX 24 24 0 -3
BITMAP
100800
0c0e00
060c18
060ffc
000c18
000818
801838
601030
3221f0
324060
040000
040018
0c7ffc
081030
180870
180c60
3006c0
f00380
700180
3003c0
300670
300c3f
38301e
19c006
ENDCHAR
STARTCHAR ch-147
ENCODING 147
SWIDTH 1000 0
DWIDTH 24 0
BBX 24 24 0 -3
BITMAP
001c00
001800
001810
01981c
ffdc18
019a30
031b40
031980
0618c0
0c1870
18183f
30f81e
c03006
080060
0ffff0
0c0060
0c0060
0c0060
0fffe0
0c0060
0c0060
0c0060
0fffe0
0c0060
ENDCHAR
STARTCHAR ch-150
ENCODING 150
SWIDTH 1000 0
DWIDTH 24 0
BBX 24 24 0 -3
BITMAP
1001c0
0c0180
060180
060180
004186
007fff
806186
606186
326186
326186
046186
046186
0c6186
086186
187ffe
186186
306186
f00180
700180
300180
300180
300180
380180
180180
ENDCHAR
STARTCHAR ch-153
ENCODING 153
SWIDTH 1000 0
DWIDTH 24 0
BBX 24 24 0 -3
BITMAP
100380
0c0300
060300
060300
002300
003b20
803318
60330c
322306
326307
044303
048310
0d031c
081f18
180638
180030
300060
f00060
7000c0
300180
300300
300600
381800
186000
ENDCHAR
STARTCHAR ch-154
ENCODING 154
SWIDTH 1000 0
DWIDTH 24 0
BBX 24 24 0 -3
BITMAP
1001c0
0c0180
060180
060180
000180
000180
803980
603180
32318c
3231fe
043180
043180
0c3180
083180
183180
183180
303180
f03180
703180
303180
303180
303186
39ffff
180000
ENDCHAR
STARTCHAR ch-155
ENCODING 155
SWIDTH 1000 0
DWIDTH 24 0
BBX 24 24 0 -3
BITMAP
100380
0c0300
060300
060306
01ffff
000300
800300
600300
32430c
327ffe
04630c
04630c
0c630c
08630c
18630c
18630c
30630c
f0630c
70633c
306318
300300
300300
380300
180300
ENDCHAR
STARTCHAR ch-161
ENCODING 161
SWIDTH 1000 0
DWIDTH 24 0
BBX 24 24 0 -3
BITMAP
101060
0c1ff0
061860
061860
001860
001860
801060
603060
32207e
32403e
048000
040030
0cfff8
081030
181030
180860
300c60
f006c0
700380
300380
3006e0
300c7f
38301e
19c006
ENDCHAR
STARTCHAR ch-162
ENCODING 162
SWIDTH 1000 0
DWIDTH 24 0
BBX 24 24 0 -3
BITMAP
10200c
0c3ffe
06300c
06300c
00300c
00300c
80300c
60300c
323ffc
32310c
043100
043180
0c3080
083080
1830c0
183040
306060
f06060
706030
304038
30c01c
30801f
39000e
1a0006
ENDCHAR
STARTCHAR ch-171
ENCODING 171
SWIDTH 1000 0
DWIDTH 24 0
BBX 24 24 0 -3
BITMAP
200380
180300
0c0300
0c0300
000306
01ffff
800300
600300
320300
320300
04030c
04fffe
0c0f40
080b40
181b20
181320
303310
f02318
70430c
30830f
330306
300300
380300
180300
ENDCHAR
STARTCHAR ch-174
ENCODING 174
SWIDTH 1000 0
DWIDTH 24 0
BBX 24 24 0 -3
BITMAP
102030
0c3ff8
063030
063030
003030
003030
803030
603030
323ff0
323030
043030
043030
0c3030
083030
183030
183ff0
303030
f03030
703030
303030
303030
303036
39ffff
180000
ENDCHAR
STARTCHAR ch-177
ENCODING 177
SWIDTH 1000 0
DWIDTH 24 0
BBX 24 24 0 -3
BITMAP
100380
0c0300
060300
062300
002306
007fff
806006
60c004
32c008
321c00
041810
04181c
0c1838
081870
1819c0
181e00
301800
f01800
701800
301804
301804
301806
381ffe
180ffc
ENDCHAR
STARTCHAR ch-179
ENCODING 179
SWIDTH 1000 0
DWIDTH 24 0
BBX 24 24 0 -3
BITMAP
100000
0c0006
06ffff
060018
000018
000018
804318
607f98
326318
326318
046318
046318
0c6318
086318
187f18
186318
306018
f00018
700018
300018
300018
300018
3800f8
180030
ENDCHAR
STARTCHAR ch-184
ENCODING 184
SWIDTH 1000 0
DWIDTH 24 0
BBX 24 24 0 -3
BITMAP
201ce0
1818c0
0c18c0
0c18c4
01fffe
0018c4
8018c4
6018c4
3298c4
32fffc
0498c4
0498c0
0c98c0
0898c6
18ffff
1998c6
3198c6
f018c6
7018cc
3010fc
3030d8
3020c0
3840c0
1980c0
ENDCHAR
STARTCHAR ch-185
ENCODING 185
SWIDTH 1000 0
DWIDTH 24 0
BBX 24 24 0 -3
BITMAP
2001c0
180180
0c0180
0c0180
000180
004186
807fff
606186
326186
326186
046186
046186
0c6186
087ffe
186186
186186
306186
f06186
706186
306186
306186
307ffe
386006
186006
ENDCHAR
STARTCHAR ch-186
ENCODING 186
SWIDTH 1000 0
DWIDTH 24 0
BBX 24 24 0 -3
BITMAP
100000
0c4006
067fff
066186
006186
006186
806186
606186
326186
326186
046186
047ffe
0c6186
086186
186186
186186
306186
f06186
706186
306186
306186
307ffe
386006
186006
ENDCHAR
STARTCHAR ch-187
ENCODING 187
SWIDTH 1000 0
DWIDTH 24 0
BBX 24 24 0 -3
BITMAP
100200
0c0380
060300
060300
000600
000620
800c18
60080c
321036
32ffc7
047c03
044003
0c0000
08400c
187ffe
18600c
30600c
f0600c
70600c
30600c
30600c
30600c
387ffc
18600c
ENDCHAR
STARTCHAR ch-188
ENCODING 188
SWIDTH 1000 0
DWIDTH 24 0
BBX 24 24 0 -3
BITMAP
100000
0c0006
06ffff
060606
000606
000606
800c06
600c0e
32180c
32107c
042018
044000
0da00c
083ffe
18300c
18300c
30300c
f0300c
70300c
30300c
30300c
303ffc
38300c
18300c
ENDCHAR
STARTCHAR ch-189
ENCODING 189
SWIDTH 1000 0
DWIDTH 24 0
BBX 24 24 0 -3
BITMAP
100380
0c0300
060300
060300
000300
000306
80ffff
600300
320300
320300
040300
040300
0c2318
083ffc
183018
183018
303018
f03018
703018
303018
303018
303ff8
383018
183018
ENDCHAR
STARTCHAR ch-190
ENCODING 190
SWIDTH 1000 0
DWIDTH 24 0
BBX 24 24 0 -3
BITMAP
100380
0c0300
060300
060300
000300
000306
8003ff
600300
320300
320300
040300
040300
0c430c
087ffe
18600c
18600c
30600c
f0600c
70600c
30600c
30600c
307ffc
38600c
18600c
ENDCHAR
STARTCHAR ch-191
ENCODING 191
SWIDTH 1000 0
DWIDTH 24 0
BBX 24 24 0 -3
BITMAP
101040
0c1c40
061840
061820
001820
003030
803018
60201c
32600f
32400e
048006
050000
0c4018
087ffc
186018
186018
306018
f06018
706018
306018
306018
307ff8
386018
186018
ENDCHAR
STARTCHAR ch-193
ENCODING 193
SWIDTH 1000 0
DWIDTH 24 0
BBX 24 24 0 -3
BITMAP
100000
0c4018
067ffc
066018
006018
006018
806018
606018
326018
326018
047ff8
0410c0
0c1cc0
0818c0
1818c0
1818c0
3018c0
f030c0
7030c2
3020c2
3060c2
3040c3
3880ff
1b007e
ENDCHAR
STARTCHAR ch-196
ENCODING 196
SWIDTH 1000 0
DWIDTH 24 0
BBX 24 24 0 -3
BITMAP
100380
0c731c
066318
066318
006318
006318
806318
63ffff
306318
326318
026318
046318
046318
0c6318
086318
1863f8
386318
f06000
706000
306000
306000
30600c
387ffe
186000
ENDCHAR
STARTCHAR ch-197
ENCODING 197
SWIDTH 1000 0
DWIDTH 24 0
BBX 24 24 0 -3
BITMAP
108006
0cffff
06c006
06c006
00c386
00c306
80c306
60c306
32c306
32c306
04c286
04c286
0cc686
08c686
18c4c6
18c4c6
30cc66
f0c876
70d026
30c006
30c006
30c006
38fffe
18c006
ENDCHAR
STARTCHAR ch-201
ENCODING 201
SWIDTH 1000 0
DWIDTH 24 0
BBX 24 24 0 -3
BITMAP
002000
003800
043060
07fff0
060060
060060
060060
07ffe0
060060
060060
060060
07ffe0
001810
01981c
7fd838
019c60
031a80
031900
0618c0
0c1870
18183f
30181e
c0f806
003000
ENDCHAR
STARTCHAR ch-202
ENCODING 202
SWIDTH 1000 0
DWIDTH 24 0
BBX 24 24 0 -3
BITMAP
200200
180380
0c0300
0c0300
000200
00440c
807ffe
60600c
32600c
32600c
04600c
04600c
0c600c
087ffc
18600c
18600c
30600c
f0600c
70600c
30600c
30600c
307ffc
38600c
18600c
ENDCHAR
STARTCHAR ch-204
ENCODING 204
SWIDTH 1000 0
DWIDTH 24 0
BBX 24 24 0 -3
BITMAP
100400
0c0300
060188
0600ce
0000cc
000e1c
800c18
600c18
320c30
320c30
044c60
044c68
0c4cc4
08cc86
188d83
198f03
318e03
f00c00
700c10
301c10
306c10
318c18
380ff8
1807f0
ENDCHAR
STARTCHAR ch-211
ENCODING 211
SWIDTH 1000 0
DWIDTH 24 0
BBX 24 24 0 -3
BITMAP
200c20
19fe38
0c0c30
0c0c30
000c30
008c30
80fc30
40cc30
64c030
64c060
04c060
0ccc60
09fe60
098c40
198c40
180c48
300c44
f00cc4
700c86
301c82
30189e
303bf3
39f1c3
186103
ENDCHAR
STARTCHAR ch-213
ENCODING 213
SWIDTH 1000 0
DWIDTH 24 0
BBX 24 24 0 -3
BITMAP
200700
180600
0c0600
0c0600
00060c
01fffe
800600
600600
320600
320600
040600
040606
0fffff
080c00
180c00
180800
301800
f01040
701030
302018
3021ec
33ff0e
39f006
190006
ENDCHAR
STARTCHAR ch-215
ENCODING 215
SWIDTH 1000 0
DWIDTH 24 0
BBX 24 24 0 -3
BITMAP
108006
0cffff
06ccc6
06ccc6
00ccc6
00ccc6
80ccc6
60ccc6
32ccc6
32ccc6
04ccc6
04ccc6
0cccc6
08c8c6
18d8fe
18d07e
30e006
f0c006
70c006
30c006
30c006
30c006
38fffe
18c006
ENDCHAR
STARTCHAR ch-217
ENCODING 217
SWIDTH 1000 0
DWIDTH 24 0
BBX 24 24 0 -3
BITMAP
100000
0c000c
06fffe
060300
004310
00231c
802318
603310
323330
323320
040320
040306
0dffff
080300
180300
180300
300300
f00300
700300
300300
300300
300300
380300
180300
ENDCHAR
STARTCHAR ch-219
ENCODING 219
SWIDTH 1000 0
DWIDTH 24 0
BBX 24 24 0 -3
BITMAP
10000c
0c007e
0603e0
067e00
000380
000300
800300
60030c
327ffe
32000c
04001c
040018
0c0030
080020
180060
1800c0
301080
f01100
702a00
302c00
306600
31c380
38c1ff
18807e
ENDCHAR
STARTCHAR ch-221
ENCODING 221
SWIDTH 1000 0
DWIDTH 24 0
BBX 24 24 0 -3
BITMAP
100018
0c007c
0623e0
063e00
003000
003000
803000
603006
323fff
323060
043060
043060
0c3360
0830e0
183070
18207c
30606e
f06066
704060
30c060
308060
310060
3a0060
180060
ENDCHAR
STARTCHAR ch-225
ENCODING 225
SWIDTH 1000 0
DWIDTH 24 0
BBX 24 24 0 -3
BITMAP
201000
181c00
0c1800
0c180c
001ffe
00300c
80300c
60600c
327f8c
32818c
05018c
04018c
0c418c
087f9c
186018
186038
3061f0
f06060
706002
306002
306002
306003
387fff
183ffe
ENDCHAR
STARTCHAR ch-226
ENCODING 226
SWIDTH 1000 0
DWIDTH 24 0
BBX 24 24 0 -3
BITMAP
200380
180300
0c0300
0c0300
008306
00ffff
80c30c
60c308
32c310
32c300
04c318
04fffc
0cc818
08c830
18c430
18c460
3182c0
f18180
710380
3306c0
320c70
34183f
38601e
198006
ENDCHAR
STARTCHAR ch-227
ENCODING 227
SWIDTH 1000 0
DWIDTH 24 0
BBX 24 24 0 -3
BITMAP
100380
0c0300
060300
060300
000300
00030c
81fffe
600000
320020
324038
042030
042030
0c3030
083060
181060
181860
301840
f018c0
701880
300080
300100
300106
3bffff
180000
ENDCHAR
STARTCHAR ch-229
ENCODING 229
SWIDTH 1000 0
DWIDTH 24 0
BBX 24 24 0 -3
BITMAP
20400c
187ffe
0c600c
0c600c
00600c
00600c
807ffc
60600c
326000
326700
046608
04660e
0c661c
086638
186660
1866c0
30c700
f0c600
70c602
308602
318602
310603
3a07ff
1803fe
ENDCHAR
STARTCHAR ch-232
ENCODING 232
SWIDTH 1000 0
DWIDTH 24 0
BBX 24 24 0 -3
BITMAP
201000
180c00
0c0600
0c0700
000300
00000c
80fffe
600300
320300
320300
040300
040300
0c030c
08fffe
180300
180300
300300
f00300
700300
300300
300300
300306
3bffff
180000
ENDCHAR
STARTCHAR ch-234
ENCODING 234
SWIDTH 1000 0
DWIDTH 24 0
BBX 24 24 0 -3
BITMAP
10200c
0c3ffe
06300c
06300c
00300c
00300c
80300c
60300c
323ffc
32300c
04300c
04300c
0c300c
08300c
18300c
183ffc
30300c
f0300c
70300c
30300c
30300c
30300c
383ffc
18300c
ENDCHAR
STARTCHAR ch-239
ENCODING 239
SWIDTH 1000 0
DWIDTH 24 0
BBX 24 24 0 -3
BITMAP
10400c
0c7ffe
06600c
06600c
00600c
00600c
80600c
607ffc
32618c
326180
046180
04618c
0c7ffe
0860c0
1860c0
1860c0
3060e0
f06060
706072
306032
30663a
33f81f
39c00f
190006
ENDCHAR
STARTCHAR ch-240
ENCODING 240
SWIDTH 1000 0
DWIDTH 24 0
BBX 24 24 0 -3
BITMAP
003800
003000
003018
3ffffc
006000
006000
1ffff8
00c200
008206
ffffff
018180
0300c0
021c60
061838
0d189f
18d9ce
30de06
c01800
003b00
01d8c0
3f1870
1c1838
10f818
003000
ENDCHAR
STARTCHAR ch-241
ENCODING 241
SWIDTH 1000 0
DWIDTH 24 0
BBX 24 24 0 -3
BITMAP
100380
0c0300
060300
060300
00430c
007ffe
80630c
60630c
32630c
32630c
04630c
04630c
0c630c
08630c
19ffff
180680
300680
f00c40
700c60
301830
301838
30301f
38600e
198006
ENDCHAR
STARTCHAR ch-243
ENCODING 243
SWIDTH 1000 0
DWIDTH 24 0
BBX 24 24 0 -3
BITMAP
101800
0c0700
0601c0
0600c0
000000
000300
807f80
600300
320308
32030e
041b0c
05fb98
0c1ba0
083340
183340
182360
306320
f04330
70c318
30831f
31030e
320306
381f00
180600
ENDCHAR
STARTCHAR ch-267
ENCODING 267
SWIDTH 1000 0
DWIDTH 24 0
BBX 24 24 0 -3
BITMAP
204020
183038
0c1830
0c1860
000040
00008c
80fffe
600300
320300
320300
040318
047ffc
0c0300
080300
180300
180306
31ffff
f00300
700300
300300
300300
300300
380300
180300
ENDCHAR
STARTCHAR ch-268
ENCODING 268
SWIDTH 1000 0
DWIDTH 24 0
BBX 24 24 0 -3
BITMAP
200007
180606
0dff06
0c6066
006066
006066
804066
404666
64ff66
64c666
048666
0d8666
094c66
0a6c66
182866
181866
301066
f03066
702006
304006
308006
310006
3a003e
18000c
ENDCHAR
STARTCHAR ch-274
ENCODING 274
SWIDTH 1000 0
DWIDTH 24 0
BBX 24 24 0 -3
BITMAP
100006
0cffff
060660
060660
000660
000660
804666
607fff
326666
326666
046666
046666
0c6666
086666
18647e
186c3e
306806
f07006
706006
306006
306006
307ffe
386006
186006
ENDCHAR
STARTCHAR ch-279
ENCODING 279
SWIDTH 1000 0
DWIDTH 24 0
BBX 24 24 0 -3
BITMAP
100380
0c2300
063b00
063300
003318
003ffc
806300
604300
328300
320300
040306
07ffff
0c18c0
0818c0
1818c0
1818c0
3018c0
f018c0
7018c2
3030c2
3030c2
3060c3
38c0ff
1b007e
ENDCHAR
STARTCHAR ch-281
ENCODING 281
SWIDTH 1000 0
DWIDTH 24 0
BBX 24 24 0 -3
BITMAP
100380
0c2300
063b00
063300
003318
003ffc
806300
604300
328300
320300
040306
05ffff
0c0f40
080f40
181b20
181b20
301330
f03318
70231c
30430f
30830e
330306
380300
180300
ENDCHAR
STARTCHAR ch-283
ENCODING 283
SWIDTH 1000 0
DWIDTH 24 0
BBX 24 24 0 -3
BITMAP
200800
180e00
0c0c30
0c1ff8
001830
003060
802860
6044c0
328380
320380
0406e0
040c7f
0c101e
086006
198000
183ff8
303018
f03018
703018
303018
303018
303ff8
383018
183018
ENDCHAR
STARTCHAR ch-286
ENCODING 286
SWIDTH 1000 0
DWIDTH 24 0
BBX 24 24 0 -3
BITMAP
208006
18ffff
0cc006
0cc006
00c066
00dff6
80c006
60c006
32c006
32c866
04cff6
04cc66
0ccc66
08cc66
18cc66
18cc66
30cfe6
f0cc66
70cc66
30c006
30c006
30c006
38c03e
18c00c
ENDCHAR
STARTCHAR ch-287
ENCODING 287
SWIDTH 1000 0
DWIDTH 24 0
BBX 24 24 0 -3
BITMAP
200380
180300
0c0306
0dffff
000300
000318
80fffc
600318
324318
327ff8
046318
046300
0c6306
08ffff
18c686
180686
300646
f00c4e
700c64
301830
301838
30301f
38600e
198006
ENDCHAR
STARTCHAR ch-293
ENCODING 293
SWIDTH 1000 0
DWIDTH 24 0
BBX 24 24 0 -3
BITMAP
200700
180600
0c0618
0cfffc
000618
000618
80061a
63ffff
300618
340618
040618
04fff8
080600
080600
180618
18fffc
300600
f00600
700606
33ffff
300600
300600
380600
180600
ENDCHAR
STARTCHAR ch-297
ENCODING 297
SWIDTH 1000 0
DWIDTH 24 0
BBX 24 24 0 -3
BITMAP
100380
0c0300
060300
06830c
00fffe
00c30c
80c30c
60c30c
32fffc
32c30c
04c30c
04c30c
0cfffc
08c300
180310
18031c
300198
f001b0
7000e2
3001c2
300762
301c3b
39e01f
180006
ENDCHAR
STARTCHAR ch-298
ENCODING 298
SWIDTH 1000 0
DWIDTH 24 0
BBX 24 24 0 -3
BITMAP
101ce0
0c18c0
0618c0
0618c0
0018c0
0018cc
81fffe
6018c0
3218c0
3218c0
0418c0
0418c0
0c18c0
0818c6
1bffff
180000
302080
f03840
703020
307030
306018
30c01c
39800c
1a000c
ENDCHAR
STARTCHAR ch-299
ENCODING 299
SWIDTH 1000 0
DWIDTH 24 0
BBX 24 24 0 -3
BITMAP
100200
0c0380
060300
060200
004418
007ffc
806498
606498
326498
326498
046498
046498
0c6498
086498
186498
186498
306498
f06498
706498
306498
306498
30649a
3bffff
180000
ENDCHAR
STARTCHAR ch-306
ENCODING 306
SWIDTH 1000 0
DWIDTH 24 0
BBX 24 24 0 -3
BITMAP
103807
0c31c6
063186
063186
003186
803186
603186
3035a6
30b5a6
04b5b6
04b5b6
05b596
09b186
09b186
183186
183186
303186
f03186
703186
306186
306186
304006
388006
1b0006
ENDCHAR
STARTCHAR ch-307
ENCODING 307
SWIDTH 1000 0
DWIDTH 24 0
BBX 24 24 0 -3
BITMAP
207000
186000
0c6046
0c607f
006066
006666
81ff66
406666
646666
646666
04c666
0cc666
08cc66
08cc66
18cc66
19a866
31b866
f01066
703866
302c66
30667e
304666
388000
1b0000
ENDCHAR
STARTCHAR ch-309
ENCODING 309
SWIDTH 1000 0
DWIDTH 24 0
BBX 24 24 0 -3
BITMAP
101000
0c1c00
061800
061800
003006
003fff
802006
606006
324186
32bfc6
043186
043186
0c3186
083f86
183186
183186
303186
f03f86
70318e
30000c
30000c
30001c
3801f8
180030
ENDCHAR
STARTCHAR ch-310
ENCODING 310
SWIDTH 1000 0
DWIDTH 24 0
BBX 24 24 0 -3
BITMAP
101000
0c1c00
061800
061800
003006
003fff
806006
604106
328186
321186
044b26
044b26
0c4626
084726
184d26
1849a6
3051a6
f06026
704026
307fe6
30402e
30000c
38007c
180018
ENDCHAR
STARTCHAR ch-312
ENCODING 312
SWIDTH 1000 0
DWIDTH 24 0
BBX 24 24 0 -3
BITMAP
100380
0c0308
06830e
06430c
006318
003318
803310
603330
320320
320306
04ffff
040cc0
0c0cc0
080cc0
180cc0
180cc0
3018c0
f018c0
7018c2
3010c2
3030c2
3020c3
3840ff
19807e
ENDCHAR
STARTCHAR ch-315
ENCODING 315
SWIDTH 1000 0
DWIDTH 24 0
BBX 24 24 0 -3
BITMAP
10000c
0c007e
0603f0
063d80
000180
000180
800180
600186
317fff
310180
020180
020180
060180
04218c
0c3ffe
0c300c
18300c
f8300c
38300c
18300c
18300c
18300c
1c3ffc
0c300c
ENDCHAR
STARTCHAR ch-317
ENCODING 317
SWIDTH 1000 0
DWIDTH 24 0
BBX 24 24 0 -3
BITMAP
100300
0c0300
060680
060680
000440
000c60
800830
601838
32101f
32206e
04dff6
040000
0c0000
080000
182018
183ffc
303018
f03018
703018
303018
303018
303ff8
383018
183018
ENDCHAR
STARTCHAR ch-318
ENCODING 318
SWIDTH 1000 0
DWIDTH 24 0
BBX 24 24 0 -3
BITMAP
200018
18007c
0c43e0
0c7e00
006018
00603c
8064e0
606780
326608
32660e
04661c
046730
0c6740
086680
186680
1866c0
306640
f04660
70c630
30c638
30861f
31860e
390606
1a0600
ENDCHAR
STARTCHAR ch-321
ENCODING 321
SWIDTH 1000 0
DWIDTH 24 0
BBX 24 24 0 -3
BITMAP
200380
180300
0c0306
0dffff
000600
000440
800430
600818
32ffec
327c0c
044000
040000
0c3338
083330
183330
183330
303330
f03330
703330
306332
306332
304333
38833f
1b001e
ENDCHAR
STARTCHAR ch-324
ENCODING 324
SWIDTH 1000 0
DWIDTH 24 0
BBX 24 24 0 -3
BITMAP
101000
0c1c00
061860
063ff0
0020c0
004080
808118
607ffc
320318
320318
04031a
07ffff
0c0318
080318
180318
187ff8
300318
f00300
700300
300300
300300
300300
381f00
180600
ENDCHAR
STARTCHAR ch-325
ENCODING 325
SWIDTH 1000 0
DWIDTH 24 0
BBX 24 24 0 -3
BITMAP
200740
180630
0c0610
0c060c
01fffe
000600
800600
60060c
32fffe
320600
040600
040606
0dffff
080310
18031c
180198
3001b0
f000e0
7001c2
300362
300e32
30381f
39c00f
180006
ENDCHAR
STARTCHAR ch-345
ENCODING 345
SWIDTH 1000 0
DWIDTH 24 0
BBX 24 24 0 -3
BITMAP
20700c
18601e
0c6138
0c61e0
006180
006d80
83ff80
406186
6461ff
646198
046198
0c6198
086d98
087198
1be198
11e198
316118
f06318
706318
306218
306618
306418
39e818
18c018
ENDCHAR
STARTCHAR ch-346
ENCODING 346
SWIDTH 1000 0
DWIDTH 24 0
BBX 24 24 0 -3
BITMAP
100800
0c0e00
060c20
060818
00100c
00fff6
807e06
605070
321c60
321860
04307e
04683e
0c8e00
080c30
181ff8
181860
303460
f062c0
708380
3006c0
300c70
30183f
38601e
198006
ENDCHAR
STARTCHAR ch-348
ENCODING 348
SWIDTH 1000 0
DWIDTH 24 0
BBX 24 24 0 -3
BITMAP
200030
1800f8
0c23c0
0c3e00
003000
003000
80300c
603ffe
3230c0
3230c0
0430c0
0430c0
0c30c0
0830c6
1bffff
180000
300000
f02040
703830
307018
30600c
30c00e
398006
1a0006
ENDCHAR
STARTCHAR ch-355
ENCODING 355
SWIDTH 1000 0
DWIDTH 24 0
BBX 24 24 0 -3
BITMAP
100380
0c0300
064300
064306
00ffff
00c006
818004
618008
300030
307ff8
040000
040000
0c0006
09ffff
1818c0
1818c0
3018c0
f018c0
7018c2
3030c2
3030c2
3060c3
38c0ff
1b007e
ENDCHAR
STARTCHAR ch-356
ENCODING 356
SWIDTH 1000 0
DWIDTH 24 0
BBX 24 24 0 -3
BITMAP
1001c0
0c0180
062180
062186
007fff
006006
80c404
60c708
320600
320606
04ffff
040c00
0c0c80
0818e0
1818c0
1830c0
302180
f06190
704308
30820c
310404
303ffe
381f86
181006
ENDCHAR
STARTCHAR ch-358
ENCODING 358
SWIDTH 1000 0
DWIDTH 24 0
BBX 24 24 0 -3
BITMAP
1003a0
0c0318
060318
060306
01ffff
000300
800300
62430c
327ffe
32630c
04630c
04630c
0c7ffc
08630c
18630c
18630c
307ffc
f0630c
70630c
30630c
30630c
30630c
38633c
186318
ENDCHAR
STARTCHAR ch-361
ENCODING 361
SWIDTH 1000 0
DWIDTH 24 0
BBX 24 24 0 -3
BITMAP
100380
0c2300
063b00
063300
003318
003ffc
806300
604300
328300
320300
040306
05ffff
0c0000
080000
184018
187ffc
306018
f06018
706018
306018
306018
306018
387ff8
186018
ENDCHAR
STARTCHAR ch-362
ENCODING 362
SWIDTH 1000 0
DWIDTH 24 0
BBX 24 24 0 -3
BITMAP
200380
180300
0c0300
0c4318
007ffc
006018
806018
606018
327ff8
326018
046018
046018
0c7ff8
086204
18620e
186118
306160
f06080
7060c0
306060
306738
33f81f
39c00e
190006
ENDCHAR
STARTCHAR ch-364
ENCODING 364
SWIDTH 1000 0
DWIDTH 24 0
BBX 24 24 0 -3
BITMAP
10800c
0cfffe
06c30c
06c30c
00c30c
00c30c
80fffc
60c30c
32c30c
32c30c
04c30c
04fffc
0cc30c
080300
180300
180318
30fffc
f00300
700300
300300
300300
300306
3bffff
180000
ENDCHAR
STARTCHAR ch-366
ENCODING 366
SWIDTH 1000 0
DWIDTH 24 0
BBX 24 24 0 -3
BITMAP
200018
1800fc
0c0fc0
0df810
00861c
006318
803330
603040
320018
327ffc
040030
040060
0c0280
080300
180306
19ffff
300300
f00300
700300
300300
300300
300300
381f00
180600
ENDCHAR
STARTCHAR ch-372
ENCODING 372
SWIDTH 1000 0
DWIDTH 24 0
BBX 24 24 0 -3
BITMAP
201000
181c40
0c1830
0c3018
00200c
00430c
808300
600680
320640
320c60
040838
04101f
0c200e
084006
198000
183ff8
303018
f03018
703018
303018
303018
303ff8
383018
183018
ENDCHAR
STARTCHAR ch-375
ENCODING 375
SWIDTH 1000 0
DWIDTH 24 0
BBX 24 24 0 -3
BITMAP
102000
0c3800
063000
06200c
007ffe
004000
80c000
60bff8
353198
343198
043198
083198
08319a
09ffff
186318
186318
306318
f06318
70631a
30ffff
30c030
30c030
3803f0
1800e0
ENDCHAR
STARTCHAR ch-376
ENCODING 376
SWIDTH 1000 0
DWIDTH 24 0
BBX 24 24 0 -3
BITMAP
100018
0c1ffc
060018
060018
001ff8
000018
800018
601ff8
320000
324006
047fff
04c006
0cc004
080018
183ffc
180818
300830
f00460
7006c0
300380
3006e0
300c7f
38301e
18c006
ENDCHAR
STARTCHAR ch-377
ENCODING 377
SWIDTH 1000 0
DWIDTH 24 0
BBX 24 24 0 -3
BITMAP
100380
0c0300
060300
060306
01ffff
000300
804320
607338
326330
326330
045328
04db64
0c9b46
088306
190780
180680
3006c0
f00c40
700c60
301830
301018
30201f
38400e
198006
ENDCHAR
STARTCHAR ch-389
ENCODING 389
SWIDTH 1000 0
DWIDTH 24 0
BBX 24 24 0 -3
BITMAP
100000
0c400c
067ffe
06600c
00600c
00600c
807ffc
60600c
32600c
32600c
047ffc
04600c
0c0000
080380
180300
180318
307ffc
f00300
700300
300300
300300
300306
39ffff
180000
ENDCHAR
STARTCHAR ch-392
ENCODING 392
SWIDTH 1000 0
DWIDTH 24 0
BBX 24 24 0 -3
BITMAP
1001c4
0c4187
063186
06198c
001988
001990
800180
60218c
323ffe
32300c
04300c
04300c
0c3ffc
08300c
18300c
18300c
303ffc
f0300c
70300c
30300c
30300c
30300c
38307c
183018
ENDCHAR
STARTCHAR ch-396
ENCODING 396
SWIDTH 1000 0
DWIDTH 24 0
BBX 24 24 0 -3
BITMAP
200018
19fffc
0c0030
0c0860
000680
000300
808306
60ffff
32c306
32c306
04c306
04c306
0cfffe
08c306
18c306
18c306
30c306
f0fffe
70c306
30c306
30c306
30c306
38c33e
18c30c
ENDCHAR
STARTCHAR ch-398
ENCODING 398
SWIDTH 1000 0
DWIDTH 24 0
BBX 24 24 0 -3
BITMAP
20000c
18307e
0dfbe0
0c3060
002060
006060
806260
604260
32c266
329a7f
05fa60
059a60
0c1a60
081260
191260
193260
30a260
f0a266
704fff
304000
30b000
309fff
3907fe
1a0000
ENDCHAR
STARTCHAR ch-403
ENCODING 403
SWIDTH 1000 0
DWIDTH 24 0
BBX 24 24 0 -3
BITMAP
10400c
0c7ffe
06600c
06600c
00600c
007ffc
800000
600000
32400c
327ffe
04600c
04600c
0c600c
087ffc
18600c
18600c
30600c
f07ffc
70600c
30600c
30600c
30600c
38607c
186018
ENDCHAR
STARTCHAR ch-405
ENCODING 405
SWIDTH 1000 0
DWIDTH 24 0
BBX 24 24 0 -3
BITMAP
102020
0c1838
060c70
060c40
00008c
00fffe
80030c
60030c
32430c
327ffc
04630c
046300
0c6300
086306
18ffff
18c706
30cf06
f00b06
701b06
30330c
30637c
30c318
3b0300
180300
ENDCHAR
STARTCHAR ch-409
ENCODING 409
SWIDTH 1000 0
DWIDTH 24 0
BBX 24 24 0 -3
BITMAP
200006
19ffff
0c0000
0c0000
00800c
00fffe
80c00c
40c00c
64c00c
64fffc
04c00c
0cc380
08c300
08c306
18ffff
18c300
318680
f18680
710440
330c60
320838
34101f
38200e
18c006
ENDCHAR
STARTCHAR ch-411
ENCODING 411
SWIDTH 1000 0
DWIDTH 24 0
BBX 24 24 0 -3
BITMAP
100700
0c0600
060604
06fffe
000600
000608
807ffc
600600
320600
320604
04fffe
040c00
0c0c18
080c1a
1bffff
181818
301418
f03318
702198
306198
304018
308018
3b00f8
180030
ENDCHAR
STARTCHAR ch-412
ENCODING 412
SWIDTH 1000 0
DWIDTH 24 0
BBX 24 24 0 -3
BITMAP
200380
180300
0c0306
0dffff
000300
000300
800318
607ffc
320000
328006
04ffff
048006
0d8004
099ce8
1818c0
1818c0
3018c0
f018c0
7018c0
3018c2
3030c2
3030c3
3860ff
19807e
ENDCHAR
STARTCHAR ch-431
ENCODING 431
SWIDTH 1000 0
DWIDTH 24 0
BBX 24 24 0 -3
BITMAP
108006
0cffff
06c000
06c1c0
00c180
00c198
80cffc
60c180
32c180
32c18c
04dffe
04c000
0cc000
08c1c0
18c180
18c18c
30dffe
f08180
708180
318180
310180
310186
3a7fff
180000
ENDCHAR
STARTCHAR ch-434
ENCODING 434
SWIDTH 1000 0
DWIDTH 24 0
BBX 24 24 0 -3
BITMAP
200380
180300
0c0306
0dffff
001000
001c80
8018e0
6238c0
3230cc
3231fe
04618c
04614c
0ce368
096258
1a6518
186910
3060b0
f060e0
706060
3060f0
3060b8
30611f
38620e
186c06
ENDCHAR
STARTCHAR ch-437
ENCODING 437
SWIDTH 1000 0
DWIDTH 24 0
BBX 24 24 0 -3
BITMAP
200000
180006
0fffff
0c0c00
000c00
000c80
819fc7
419986
618196
65b19e
0599b6
0d99a6
098186
098186
1985c6
1999b6
31f19e
f1a39e
718f06
318606
318006
31fffe
398006
198006
ENDCHAR
STARTCHAR ch-440
ENCODING 440
SWIDTH 1000 0
DWIDTH 24 0
BBX 24 24 0 -3
BITMAP
108006
0cffff
06c006
06c006
00c386
00c306
80c326
60dff6
32c306
32c306
04c306
04cb66
0ccfe6
08cc66
18cc66
18cc66
30cc66
f0cfe6
70cc66
30c006
30c006
30c006
38fffe
18c006
ENDCHAR
STARTCHAR ch-444
ENCODING 444
SWIDTH 1000 0
DWIDTH 24 0
BBX 24 24 0 -3
BITMAP
200380
180300
0c0300
0c0306
01ffff
000000
800000
604018
327ffc
326018
046018
046018
0c6018
087ff8
186318
180300
304320
f07318
70630c
30c30e
308306
310306
3a1f00
180600
ENDCHAR
STARTCHAR ch-448
ENCODING 448
SWIDTH 1000 0
DWIDTH 24 0
BBX 24 24 0 -3
BITMAP
200380
180300
0c4300
0c4306
00ffff
00c006
818004
618008
300000
32fffc
020300
040300
044300
0c7300
086318
1863fc
306300
f06300
705300
30cb00
308700
3083e0
3900ff
1a001e
ENDCHAR
STARTCHAR ch-453
ENCODING 453
SWIDTH 1000 0
DWIDTH 24 0
BBX 24 24 0 -3
BITMAP
20700c
18601e
0c6138
0c61e0
006d80
03ff80
806180
406186
6461ff
64f198
04e998
0ced98
09ed98
096198
196198
136198
326118
f46318
706318
306218
306618
306418
386818
186018
ENDCHAR
STARTCHAR ch-454
ENCODING 454
SWIDTH 1000 0
DWIDTH 24 0
BBX 24 24 0 -3
BITMAP
100010
0c183c
060670
0601c0
000370
000c1c
80700c
600700
320606
32ffff
040c00
041800
0c1ffc
08380c
18580c
199ffc
30180c
f0180c
701ffc
30180c
30180c
30180c
38187c
181818
ENDCHAR
STARTCHAR ch-455
ENCODING 455
SWIDTH 1000 0
DWIDTH 24 0
BBX 24 24 0 -3
BITMAP
101c70
0c1860
061860
06186c
00fffe
001860
801860
601860
321fe0
321860
041860
041860
0c1fe0
081860
181860
181866
31ffff
f00000
701040
301c30
301818
30300c
38600e
198006
ENDCHAR
STARTCHAR ch-459
ENCODING 459
SWIDTH 1000 0
DWIDTH 24 0
BBX 24 24 0 -3
BITMAP
203870
183060
0c3060
0c3060
003266
03ffff
803060
403060
643860
6474f0
0476f0
0c76e8
08f1e8
08b16c
19b366
193267
323466
f43862
703060
303060
303060
303060
383060
183060
ENDCHAR
STARTCHAR ch-460
ENCODING 460
SWIDTH 1000 0
DWIDTH 24 0
BBX 24 24 0 -3
BITMAP
100380
0c8308
06430e
06630c
00230c
003318
803310
603320
320300
328306
04ffff
04c006
0cc006
08c866
18cfe6
18cc66
30cc66
f0cc66
70cfe6
30cc66
30c006
30c006
38c03e
18c00c
ENDCHAR
STARTCHAR ch-465
ENCODING 465
SWIDTH 1000 0
DWIDTH 24 0
BBX 24 24 0 -3
BITMAP
103800
0c3006
0631ff
063046
003246
003f46
803046
603046
323046
323346
07ffcc
04306c
0c302c
09342c
19f228
19b338
31b310
f13338
733028
323068
34304c
30308f
39f106
186606
ENDCHAR
STARTCHAR ch-466
ENCODING 466
SWIDTH 1000 0
DWIDTH 24 0
BBX 24 24 0 -3
BITMAP
100700
0c0600
06060c
06fffe
000600
000600
807ff0
600630
320636
32ffff
040630
040630
0c7ff0
080800
180c06
19ffff
301860
f030c0
7030c0
306d80
3063c0
300670
381838
19e018
ENDCHAR
STARTCHAR ch-469
ENCODING 469
SWIDTH 1000 0
DWIDTH 24 0
BBX 24 24 0 -3
BITMAP
100380
0c0300
060300
060318
007ffc
000300
800300
60030c
32fffe
320c60
040c60
041860
0c187e
08303e
184380
180300
300318
f07ffc
700300
300300
300300
300306
39ffff
180000
ENDCHAR
STARTCHAR ch-472
ENCODING 472
SWIDTH 1000 0
DWIDTH 24 0
BBX 24 24 0 -3
BITMAP
204000
187000
0c6000
0cc006
00ffff
01a006
813006
622086
307fc6
344c06
048c06
0c0c26
09fff6
080c06
180c06
18ccc6
30ccc6
f0ccc6
70ffce
30c0cc
30000c
30001c
3800f8
180030
ENDCHAR
STARTCHAR ch-473
ENCODING 473
SWIDTH 1000 0
DWIDTH 24 0
BBX 24 24 0 -3
BITMAP
1001c0
0c0180
062180
062186
007fff
006006
80c004
60c030
321ff8
320000
040000
040006
0cffff
080180
180180
182190
303988
f0318c
706186
304187
308183
310183
380f80
180300
ENDCHAR
STARTCHAR ch-478
ENCODING 478
SWIDTH 1000 0
DWIDTH 24 0
BBX 24 24 0 -3
BITMAP
207110
1861d0
0c6190
0c6190
006190
03fd98
806118
406108
64e10c
64fa0c
04ea8f
0cece6
09ecc6
0960c0
1960c0
1b6080
326088
f46188
706184
306104
30613c
3067e6
386386
186206
ENDCHAR
STARTCHAR ch-481
ENCODING 481
SWIDTH 1000 0
DWIDTH 24 0
BBX 24 24 0 -3
BITMAP
200380
180308
0c230e
0c230c
006318
00c320
80c6c0
600630
320c1c
32180e
043006
04c380
0c0304
080307
18430e
184318
30c6a0
f18680
718c40
300c60
301838
30301f
38600e
198006
ENDCHAR
STARTCHAR ch-484
ENCODING 484
SWIDTH 1000 0
DWIDTH 24 0
BBX 24 24 0 -3
BITMAP
207060
186060
0c6060
0c6070
006450
03fed0
80c0d8
40c088
64c18c
64cd06
04fe07
0ccc82
08cc40
08cc60
18cc30
18cc30
308c00
f08c80
708c40
319c60
311830
311838
3a7818
183018
ENDCHAR
STARTCHAR ch-486
ENCODING 486
SWIDTH 1000 0
DWIDTH 24 0
BBX 24 24 0 -3
BITMAP
100300
0c0300
060680
060680
000c40
000c60
801830
601018
3220dc
325fef
048306
050300
0c0330
087ff8
180300
180310
30431c
f02318
703330
303320
303340
30030c
38fffe
180000
ENDCHAR
STARTCHAR ch-488
ENCODING 488
SWIDTH 1000 0
DWIDTH 24 0
BBX 24 24 0 -3
BITMAP
100030
0c01f8
063f80
068408
00630e
00319c
803190
600020
327ff8
320318
040318
04031a
0dffff
080318
180318
180318
307ff8
f00318
700300
300300
300300
300300
381f00
180600
ENDCHAR
STARTCHAR ch-490
ENCODING 490
SWIDTH 1000 0
DWIDTH 24 0
BBX 24 24 0 -3
BITMAP
100600
0c0600
060d00
060c80
0018c0
003060
802038
60409f
30bfce
350006
040000
048018
08fffc
08c918
18c918
18c918
30fff8
f0c918
70c918
30c918
30c918
30c918
38c978
18c030
ENDCHAR
STARTCHAR ch-491
ENCODING 491
SWIDTH 1000 0
DWIDTH 24 0
BBX 24 24 0 -3
BITMAP
200038
1803fc
0cff88
0c040e
00820c
004308
806318
606310
306000
340070
0403f8
047f00
080300
080300
180300
100306
31ffff
f00300
700300
300300
300300
30030c
38fffe
180000
ENDCHAR
STARTCHAR ch-492
ENCODING 492
SWIDTH 1000 0
DWIDTH 24 0
BBX 24 24 0 -3
BITMAP
100380
0c0300
060300
06030c
00fffe
001040
801c70
601860
321860
3236d8
04228c
04410c
0c8000
080300
180306
19ffff
300300
f00300
700300
300300
300300
300300
380300
180300
ENDCHAR
STARTCHAR ch-494
ENCODING 494
SWIDTH 1000 0
DWIDTH 24 0
BBX 24 24 0 -3
BITMAP
101000
0c1c40
061870
061860
003040
00308c
803ffe
606180
326180
32e180
04e198
057ffc
0c6180
086180
186180
186198
307ffc
f06180
706180
306180
306180
306186
387fff
186000
ENDCHAR
STARTCHAR ch-497
ENCODING 497
SWIDTH 1000 0
DWIDTH 24 0
BBX 24 24 0 -3
BITMAP
204000
184006
0cffff
0cd0c6
019cc4
0198c8
8018c0
6030c0
3220fe
32407e
048380
040300
0c0306
09ffff
180f40
180f40
301b20
f01b30
703318
30631f
30c30e
330306
380300
180300
ENDCHAR
STARTCHAR ch-499
ENCODING 499
SWIDTH 1000 0
DWIDTH 24 0
BBX 24 24 0 -3
BITMAP
200380
180300
0c0306
0dffff
000000
002030
803ff8
603030
323030
323030
043ff0
040000
0c0018
08fffc
180030
1802c0
300306
f3ffff
700300
300300
300300
300300
381f00
180600
ENDCHAR
STARTCHAR ch-501
ENCODING 501
SWIDTH 1000 0
DWIDTH 24 0
BBX 24 24 0 -3
BITMAP
20e667
18c446
0cc446
0cc446
00c446
00c446
80c446
60fc7e
32c446
32c006
04c006
04fffe
0cc006
08c006
18c446
18fe7e
30c446
f0c446
70c446
308446
308446
318446
390446
1a0006
ENDCHAR
STARTCHAR ch-503
ENCODING 503
SWIDTH 1000 0
DWIDTH 24 0
BBX 24 24 0 -3
BITMAP
104018
0c7ffc
066018
066018
006018
007ff8
806018
606018
326018
327ff8
046018
040000
0c70e0
0860c8
1860ce
1864cc
307ed8
f060e0
7060c0
3060c2
3066c2
33f8c3
39e0ff
19807e
ENDCHAR
STARTCHAR ch-505
ENCODING 505
SWIDTH 1000 0
DWIDTH 24 0
BBX 24 24 0 -3
BITMAP
100400
0c0700
060600
060606
01ffff
000c40
801820
601830
32331c
32630f
04fffe
056318
0c6318
086318
187ff8
186318
306318
f06318
707ff8
306302
300302
300303
3803ff
1801fe
ENDCHAR
STARTCHAR ch-506
ENCODING 506
SWIDTH 1000 0
DWIDTH 24 0
BBX 24 24 0 -3
BITMAP
101cc0
0c1860
061818
0608fc
000f00
00fc60
8006c0
600304
320584
3218e4
04e03e
040d8e
0c0cc0
08041e
1807e0
18fe10
300238
f00370
7001c0
300382
3006c2
301c72
38703f
198007
ENDCHAR
STARTCHAR ch-507
ENCODING 507
SWIDTH 1000 0
DWIDTH 24 0
BBX 24 24 0 -3
BITMAP
200030
1800f8
0c0fc0
0cfe00
000600
000606
83ffff
600c80
320880
321840
041060
042038
0c4e1f
088c0e
1b0c06
180c00
308c08
f08c84
718c46
318c63
330c63
330c63
387c00
181800
ENDCHAR
ENDFONT
