STARTFONT 2.1
FONT jis.jis6a00.16
SIZE 16 72 72
FONTBOUNDINGBOX 16 16 0 -2
STARTPROPERTIES 4
FONT_DESCENT 2
FONT_ASCENT 14
DEFAULT_CHAR 2
COPYRIGHT "Copyright (c) 1992 AT&T - All rights reserved."
ENDPROPERTIES
CHARS 153
STARTCHAR ch-2
ENCODING 2
SWIDTH 1000 0
DWIDTH 16 0
BBX 16 16 0 -2
BITMAP
0080
1104
23c8
4250
2a4a
13c4
2248
4a52
7bde
0100
ffff
0540
0d60
3938
e10f
0100
ENDCHAR
STARTCHAR ch-5
ENCODING 5
SWIDTH 1000 0
DWIDTH 16 0
BBX 16 16 0 -2
BITMAP
2142
2166
2224
fa00
24ff
3110
6910
6210
a65e
a250
2250
2250
2250
2270
22dc
2287
ENDCHAR
STARTCHAR ch-10
ENCODING 10
SWIDTH 1000 0
DWIDTH 16 0
BBX 16 16 0 -2
BITMAP
2004
2244
f99f
2244
2004
724e
6996
a245
2004
2104
0100
ffff
0240
0660
1c38
f00f
ENDCHAR
STARTCHAR ch-11
ENCODING 11
SWIDTH 1000 0
DWIDTH 16 0
BBX 16 16 0 -2
BITMAP
2000
24fe
2604
fa68
2010
20fe
7092
6efe
a292
a2fe
2292
2292
2292
2696
2500
2cff
ENDCHAR
STARTCHAR ch-12
ENCODING 12
SWIDTH 1000 0
DWIDTH 16 0
BBX 16 16 0 -2
BITMAP
1000
11fc
1124
ffff
1124
11fc
3800
35fc
3504
51fc
5104
91fc
1104
11fc
1088
1306
ENDCHAR
STARTCHAR ch-18
ENCODING 18
SWIDTH 1000 0
DWIDTH 16 0
BBX 16 16 0 -2
BITMAP
2020
2020
23fe
fa42
222a
2148
7152
6a61
a8c4
a3bc
2000
2020
2222
2222
2222
23fe
ENDCHAR
STARTCHAR ch-19
ENCODING 19
SWIDTH 1000 0
DWIDTH 16 0
BBX 16 16 0 -2
BITMAP
1020
11fc
1124
ffff
1124
11fc
3820
35fc
3524
51fc
5040
97ff
1084
11c8
1078
13ce
ENDCHAR
STARTCHAR ch-20
ENCODING 20
SWIDTH 1000 0
DWIDTH 16 0
BBX 16 16 0 -2
BITMAP
1122
11b6
1094
fdfe
1122
11fe
3922
3522
35fe
5020
53ff
90a8
10ac
11a6
1323
1020
ENDCHAR
STARTCHAR ch-23
ENCODING 23
SWIDTH 1000 0
DWIDTH 16 0
BBX 16 16 0 -2
BITMAP
1000
13ff
1020
ffff
1221
13ad
3221
39ac
3400
51fe
5000
93ff
1080
11fe
1002
100e
ENDCHAR
STARTCHAR ch-25
ENCODING 25
SWIDTH 1000 0
DWIDTH 16 0
BBX 16 16 0 -2
BITMAP
1000
13ff
1048
ffff
1249
1249
3bff
3400
31fe
5000
53ff
9020
1124
1326
1623
10e0
ENDCHAR
STARTCHAR ch-27
ENCODING 27
SWIDTH 1000 0
DWIDTH 16 0
BBX 16 16 0 -2
BITMAP
1000
13de
1042
fd4a
10c6
114a
3822
3470
31dc
5707
5020
91c8
1032
11c4
1018
11e0
ENDCHAR
STARTCHAR ch-30
ENCODING 30
SWIDTH 1000 0
DWIDTH 16 0
BBX 16 16 0 -2
BITMAP
1000
13ff
1200
fe7c
1244
1244
3a7c
3600
32ee
52aa
52aa
92aa
12ee
1200
13ff
1000
ENDCHAR
STARTCHAR ch-31
ENCODING 31
SWIDTH 1000 0
DWIDTH 16 0
BBX 16 16 0 -2
BITMAP
1020
1020
11fe
fc84
1048
13ff
3800
35fe
3502
51fe
5102
91fe
1020
13ff
1020
1020
ENDCHAR
STARTCHAR ch-33
ENCODING 33
SWIDTH 1000 0
DWIDTH 16 0
BBX 16 16 0 -2
BITMAP
1048
1048
13ff
fc48
1048
11fe
3902
35fe
3502
51fe
5020
93ff
1048
10cc
1186
1303
ENDCHAR
STARTCHAR ch-34
ENCODING 34
SWIDTH 1000 0
DWIDTH 16 0
BBX 16 16 0 -2
BITMAP
1020
1040
11fc
fd04
11fc
1104
39fc
3500
35ff
5100
51fe
9002
12aa
12aa
1406
100c
ENDCHAR
STARTCHAR ch-35
ENCODING 35
SWIDTH 1000 0
DWIDTH 16 0
BBX 16 16 0 -2
BITMAP
1104
1088
13fe
fc20
11fc
1020
37ff
3840
3430
51e2
5026
93b4
10a8
1124
1623
10e0
ENDCHAR
STARTCHAR ch-41
ENCODING 41
SWIDTH 1000 0
DWIDTH 16 0
BBX 16 16 0 -2
BITMAP
1100
1100
11fe
ff40
1240
17ff
3088
3890
35fe
5110
53fe
9510
11fe
1110
1110
11ff
ENDCHAR
STARTCHAR ch-42
ENCODING 42
SWIDTH 1000 0
DWIDTH 16 0
BBX 16 16 0 -2
BITMAP
1088
13fe
1088
fc88
17ff
1020
3bfe
3622
3222
53fe
5222
9222
13fe
1104
1306
1603
ENDCHAR
STARTCHAR ch-43
ENCODING 43
SWIDTH 1000 0
DWIDTH 16 0
BBX 16 16 0 -2
BITMAP
2000
27c0
253e
fd12
27d6
245c
37c8
6d1c
6536
67c3
a020
23fe
2020
2020
27ff
2000
ENDCHAR
STARTCHAR ch-46
ENCODING 46
SWIDTH 1000 0
DWIDTH 16 0
BBX 16 16 0 -2
BITMAP
2000
27ff
2090
f890
23fe
2292
7292
6bfe
a800
a022
2126
2374
2250
20d8
218c
2707
ENDCHAR
STARTCHAR ch-53
ENCODING 53
SWIDTH 1000 0
DWIDTH 16 0
BBX 16 16 0 -2
BITMAP
1088
1090
11ff
fd10
1310
15fe
3110
3910
35fe
5510
5110
91ff
1000
114a
134b
1201
ENDCHAR
STARTCHAR ch-54
ENCODING 54
SWIDTH 1000 0
DWIDTH 16 0
BBX 16 16 0 -2
BITMAP
21fc
2104
21fc
f904
21fc
2000
77ff
6a40
abde
a24a
23ca
224e
2244
23ce
265b
2040
ENDCHAR
STARTCHAR ch-56
ENCODING 56
SWIDTH 1000 0
DWIDTH 16 0
BBX 16 16 0 -2
BITMAP
2050
2252
2154
f850
27ff
2104
7088
6bfe
a820
a1fc
2020
27ff
2050
20d8
218c
2707
ENDCHAR
STARTCHAR ch-57
ENCODING 57
SWIDTH 1000 0
DWIDTH 16 0
BBX 16 16 0 -2
BITMAP
2082
2082
27f2
f882
23ef
2002
73e2
6a2a
6a2a
a3ea
a002
2222
2142
2072
2782
2006
ENDCHAR
STARTCHAR ch-58
ENCODING 58
SWIDTH 1000 0
DWIDTH 16 0
BBX 16 16 0 -2
BITMAP
2088
2088
27ff
f888
23fe
2124
6124
77ff
6924
a124
a3fe
2020
27ff
2020
2020
2020
ENDCHAR
STARTCHAR ch-61
ENCODING 61
SWIDTH 1000 0
DWIDTH 16 0
BBX 16 16 0 -2
BITMAP
1084
1048
13ff
fc50
11fe
1152
399e
3502
35fe
5102
51fe
9004
13ff
1084
1044
101c
ENDCHAR
STARTCHAR ch-68
ENCODING 68
SWIDTH 1000 0
DWIDTH 16 0
BBX 16 16 0 -2
BITMAP
2008
27e8
2108
f90f
27ea
2252
724a
6bca
aa4a
a24e
23c4
2244
224e
23ca
265b
2051
ENDCHAR
STARTCHAR ch-71
ENCODING 71
SWIDTH 1000 0
DWIDTH 16 0
BBX 16 16 0 -2
BITMAP
2018
23f0
2040
fbf8
2040
27fc
7042
683e
a184
a738
2208
2fbe
2208
2fbe
2249
21c7
ENDCHAR
STARTCHAR ch-72
ENCODING 72
SWIDTH 1000 0
DWIDTH 16 0
BBX 16 16 0 -2
BITMAP
2020
21fc
2020
fbfe
2000
2104
77df
6904
a1c4
a71f
2000
27ff
2088
2089
2189
2707
ENDCHAR
STARTCHAR ch-75
ENCODING 75
SWIDTH 1000 0
DWIDTH 16 0
BBX 16 16 0 -2
BITMAP
201c
23f0
2040
27ff
f888
21fc
268b
70f8
6800
abfe
a202
22fa
228a
22fa
2202
2206
ENDCHAR
STARTCHAR ch-88
ENCODING 88
SWIDTH 1000 0
DWIDTH 16 0
BBX 16 16 0 -2
BITMAP
1000
11fe
1044
fc28
13ff
1852
3494
3130
33ff
5249
5289
937f
1249
1249
1279
1203
ENDCHAR
STARTCHAR ch-89
ENCODING 89
SWIDTH 1000 0
DWIDTH 16 0
BBX 16 16 0 -2
BITMAP
1004
11e8
1231
fd4a
1084
137b
3800
34fc
3484
5084
50fc
9000
1084
10cc
1048
13ff
ENDCHAR
STARTCHAR ch-95
ENCODING 95
SWIDTH 1000 0
DWIDTH 16 0
BBX 16 16 0 -2
BITMAP
2122
2224
26ad
f922
2225
22af
67a4
7022
6bff
aa20
a212
2314
2288
2695
2427
2cc2
ENDCHAR
STARTCHAR ch-97
ENCODING 97
SWIDTH 1000 0
DWIDTH 16 0
BBX 16 16 0 -2
BITMAP
1080
10fc
1188
fd10
13fe
1122
3922
35fe
3420
50c2
5326
90d4
1338
10d4
1313
1070
ENDCHAR
STARTCHAR ch-98
ENCODING 98
SWIDTH 1000 0
DWIDTH 16 0
BBX 16 16 0 -2
BITMAP
2010
2790
24ff
fc90
253e
2548
74bf
6c80
a4be
a4a2
24be
25a2
243e
2422
2422
2426
ENDCHAR
STARTCHAR ch-102
ENCODING 102
SWIDTH 1000 0
DWIDTH 16 0
BBX 16 16 0 -2
BITMAP
1020
1020
11fe
fc84
1048
13ff
3800
35fe
3522
51fe
5122
91fe
1020
11fe
1020
13ff
ENDCHAR
STARTCHAR ch-114
ENCODING 114
SWIDTH 1000 0
DWIDTH 16 0
BBX 16 16 0 -2
BITMAP
1020
13ff
1020
fdfe
1000
11fe
3902
35fe
3484
5048
53ff
9000
11fe
1102
1102
11fe
ENDCHAR
STARTCHAR ch-120
ENCODING 120
SWIDTH 1000 0
DWIDTH 16 0
BBX 16 16 0 -2
BITMAP
2000
21fc
2104
f904
21fc
2104
7104
69fc
a000
a7df
2451
2451
27df
2451
2451
27df
ENDCHAR
STARTCHAR ch-127
ENCODING 127
SWIDTH 1000 0
DWIDTH 16 0
BBX 16 16 0 -2
BITMAP
2000
27ff
2000
f9fc
2124
21fc
6124
77ff
6800
a1fc
a124
21fc
2124
21fc
2000
27ff
ENDCHAR
STARTCHAR ch-128
ENCODING 128
SWIDTH 1000 0
DWIDTH 16 0
BBX 16 16 0 -2
BITMAP
1020
13ff
1000
fdfe
1102
117a
394a
357a
3502
51fe
5084
90fc
1084
10fc
1084
13ff
ENDCHAR
STARTCHAR ch-132
ENCODING 132
SWIDTH 1000 0
DWIDTH 16 0
BBX 16 16 0 -2
BITMAP
2108
2208
27c8
fc5f
27d2
2472
77d2
691a
afea
a20e
23c4
2244
224e
264a
245b
2cd1
ENDCHAR
STARTCHAR ch-141
ENCODING 141
SWIDTH 1000 0
DWIDTH 16 0
BBX 16 16 0 -2
BITMAP
1020
1020
13fe
fd04
1088
17ff
3800
35fc
3504
51fc
5104
91fc
1020
1292
1285
147c
ENDCHAR
STARTCHAR ch-142
ENCODING 142
SWIDTH 1000 0
DWIDTH 16 0
BBX 16 16 0 -2
BITMAP
2020
2050
2088
f924
26fb
2154
3124
6954
61fc
a020
a3fe
2242
2292
22ea
2202
220e
ENDCHAR
STARTCHAR ch-144
ENCODING 144
SWIDTH 1000 0
DWIDTH 16 0
BBX 16 16 0 -2
BITMAP
20f8
2110
27ff
fa44
2387
227c
7200
6bff
aa00
a27c
2200
227c
2600
24fe
2482
20fe
ENDCHAR
STARTCHAR ch-151
ENCODING 151
SWIDTH 1000 0
DWIDTH 16 0
BBX 16 16 0 -2
BITMAP
0010
3e10
22fe
2244
3e28
20ff
7e10
52fe
d210
1e10
0100
ffff
0540
0d60
3938
e10f
ENDCHAR
STARTCHAR ch-156
ENCODING 156
SWIDTH 1000 0
DWIDTH 16 0
BBX 16 16 0 -2
BITMAP
1020
1050
118c
ff77
1000
13fe
3a22
36aa
3222
53fe
5000
91fc
1104
11fc
1104
11fc
ENDCHAR
STARTCHAR ch-160
ENCODING 160
SWIDTH 1000 0
DWIDTH 16 0
BBX 16 16 0 -2
BITMAP
2420
ff20
247f
7ec4
4224
fa2c
4a18
7a2c
06c7
1d00
0100
ffff
0540
1938
f10f
0100
ENDCHAR
STARTCHAR ch-162
ENCODING 162
SWIDTH 1000 0
DWIDTH 16 0
BBX 16 16 0 -2
BITMAP
2020
2070
20d8
f98c
2707
20f8
7000
6bde
aa52
a252
23de
2000
2104
2104
238e
26db
ENDCHAR
STARTCHAR ch-163
ENCODING 163
SWIDTH 1000 0
DWIDTH 16 0
BBX 16 16 0 -2
BITMAP
2020
2020
27ff
f924
2124
32aa
6820
67ff
a000
a3fe
2202
22fa
228a
22fa
2202
23fe
ENDCHAR
STARTCHAR ch-170
ENCODING 170
SWIDTH 1000 0
DWIDTH 16 0
BBX 16 16 0 -2
BITMAP
2020
2441
26fb
fa8a
2088
20f8
728a
6e8b
a4f9
a020
27ff
20a8
21ac
2326
2623
2020
ENDCHAR
STARTCHAR ch-172
ENCODING 172
SWIDTH 1000 0
DWIDTH 16 0
BBX 16 16 0 -2
BITMAP
2048
23ff
2048
fbff
2201
22fd
7000
6bff
a840
a0a3
2356
2090
2338
20d4
2313
2070
ENDCHAR
STARTCHAR ch-174
ENCODING 174
SWIDTH 1000 0
DWIDTH 16 0
BBX 16 16 0 -2
BITMAP
1020
13fe
1020
fdfc
1000
13fe
3802
34fa
3020
51fc
5000
97ff
1004
13ff
12a4
138c
ENDCHAR
STARTCHAR ch-179
ENCODING 179
SWIDTH 1000 0
DWIDTH 16 0
BBX 16 16 0 -2
BITMAP
2020
23ff
2201
f9fe
20a4
232b
7030
69fe
a702
a1fe
2102
21fe
2102
21fe
2084
2303
ENDCHAR
STARTCHAR ch-184
ENCODING 184
SWIDTH 1000 0
DWIDTH 16 0
BBX 16 16 0 -2
BITMAP
2020
2020
27ff
fc41
24a1
228a
64f9
7000
abfe
aa92
23fe
2000
27ff
2020
2020
20e0
ENDCHAR
STARTCHAR ch-187
ENCODING 187
SWIDTH 1000 0
DWIDTH 16 0
BBX 16 16 0 -2
BITMAP
2008
27c8
2508
fd1f
27d0
2470
77c0
6d1f
a500
a7c0
2000
27fe
2492
2492
2492
2fff
ENDCHAR
STARTCHAR ch-193
ENCODING 193
SWIDTH 1000 0
DWIDTH 16 0
BBX 16 16 0 -2
BITMAP
2020
2020
27ff
fc41
2429
2292
64a5
707c
ab80
a020
23fe
2222
23fe
2024
20fe
2783
ENDCHAR
STARTCHAR ch-194
ENCODING 194
SWIDTH 1000 0
DWIDTH 16 0
BBX 16 16 0 -2
BITMAP
2000
23de
2042
fbde
2042
23de
7088
6910
abfe
a620
23fe
2220
23fe
2220
2220
23ff
ENDCHAR
STARTCHAR ch-195
ENCODING 195
SWIDTH 1000 0
DWIDTH 16 0
BBX 16 16 0 -2
BITMAP
27ff
2420
24fc
fca4
24fc
2420
77ff
6c84
a4fc
a484
24fc
2484
24fc
2448
2484
27ff
ENDCHAR
STARTCHAR ch-209
ENCODING 209
SWIDTH 1000 0
DWIDTH 16 0
BBX 16 16 0 -2
BITMAP
2000
21fc
2124
f9fc
2124
2124
71fc
6800
a7df
a555
2555
27df
2555
2555
27df
2000
ENDCHAR
STARTCHAR ch-211
ENCODING 211
SWIDTH 1000 0
DWIDTH 16 0
BBX 16 16 0 -2
BITMAP
1080
11f8
1310
fdfe
1122
11fe
3922
35fe
314a
5225
5000
91fe
1102
11fe
1102
11fe
ENDCHAR
STARTCHAR ch-218
ENCODING 218
SWIDTH 1000 0
DWIDTH 16 0
BBX 16 16 0 -2
BITMAP
2000
27df
2451
ffdf
2451
27df
7401
6cf9
a489
a4f9
2421
25fd
2505
25fd
2401
2407
ENDCHAR
STARTCHAR ch-219
ENCODING 219
SWIDTH 1000 0
DWIDTH 16 0
BBX 16 16 0 -2
BITMAP
2210
2210
27df
f528
2884
2000
67df
7451
6fd1
a451
a7d1
2411
2491
27d7
2c50
2010
ENDCHAR
STARTCHAR ch-222
ENCODING 222
SWIDTH 1000 0
DWIDTH 16 0
BBX 16 16 0 -2
BITMAP
2200
223e
2402
fd3e
2502
327f
6a10
64a8
af8d
a296
2224
2a8c
2a96
2aa5
3204
221c
ENDCHAR
STARTCHAR ch-223
ENCODING 223
SWIDTH 1000 0
DWIDTH 16 0
BBX 16 16 0 -2
BITMAP
2222
2646
2474
fd55
2252
2272
7454
6d55
a777
a020
27ff
20a8
21ac
2326
2623
2020
ENDCHAR
STARTCHAR ch-232
ENCODING 232
SWIDTH 1000 0
DWIDTH 16 0
BBX 16 16 0 -2
BITMAP
2040
2078
2040
27fe
fc42
25f8
2442
75fe
6d24
65fc
a524
a5fc
2400
2bfe
2292
27ff
ENDCHAR
STARTCHAR ch-234
ENCODING 234
SWIDTH 1000 0
DWIDTH 16 0
BBX 16 16 0 -2
BITMAP
2000
27ff
2488
fc88
27fe
2488
75dc
6eaa
a488
a420
2520
253e
2920
2120
27ff
2000
ENDCHAR
STARTCHAR ch-250
ENCODING 250
SWIDTH 1000 0
DWIDTH 16 0
BBX 16 16 0 -2
BITMAP
2000
23fe
2020
ffff
2421
25ad
7421
69ac
a020
a000
2777
2555
2555
2555
2555
2777
ENDCHAR
STARTCHAR ch-251
ENCODING 251
SWIDTH 1000 0
DWIDTH 16 0
BBX 16 16 0 -2
BITMAP
2000
23de
2252
fbde
2252
23de
7252
6bde
a954
a222
2080
27ff
2104
23c8
207c
23c6
ENDCHAR
STARTCHAR ch-260
ENCODING 260
SWIDTH 1000 0
DWIDTH 16 0
BBX 16 16 0 -2
BITMAP
2000
27df
2451
ffdf
2451
27df
7421
6dfd
a4a9
a4f9
24a9
24f9
2421
2471
24a9
2423
ENDCHAR
STARTCHAR ch-261
ENCODING 261
SWIDTH 1000 0
DWIDTH 16 0
BBX 16 16 0 -2
BITMAP
1242
1366
112c
fc08
13ff
1088
3888
3534
32e2
5421
51fc
9020
13fe
1020
1020
10e0
ENDCHAR
STARTCHAR ch-266
ENCODING 266
SWIDTH 1000 0
DWIDTH 16 0
BBX 16 16 0 -2
BITMAP
2088
27ff
2088
fbde
2252
23de
7088
6910
a3ff
a510
21fe
2110
21fe
2110
2110
21ff
ENDCHAR
STARTCHAR ch-274
ENCODING 274
SWIDTH 1000 0
DWIDTH 16 0
BBX 16 16 0 -2
BITMAP
23c4
4008
d7fa
2004
4bc9
f81f
2bc5
2004
6bd6
aa55
23c4
0100
ffff
0540
3938
e10f
ENDCHAR
STARTCHAR ch-278
ENCODING 278
SWIDTH 1000 0
DWIDTH 16 0
BBX 16 16 0 -2
BITMAP
27c8
250f
27d0
fc40
27ce
2500
77fc
6a04
a3fc
a204
23fc
2204
23fc
2091
2191
2f0f
ENDCHAR
STARTCHAR ch-285
ENCODING 285
SWIDTH 1000 0
DWIDTH 16 0
BBX 16 16 0 -2
BITMAP
2244
f99f
2244
718e
aa55
3ffc
2444
3ffc
0000
7e04
42ff
7e04
4244
7e24
4404
fa1c
ENDCHAR
STARTCHAR ch-287
ENCODING 287
SWIDTH 1000 0
DWIDTH 16 0
BBX 16 16 0 -2
BITMAP
2280
2ffe
2292
f7d2
255e
37d2
6a92
67de
ad12
a7d2
251e
27d4
2514
2515
27f5
2023
ENDCHAR
STARTCHAR ch-288
ENCODING 288
SWIDTH 1000 0
DWIDTH 16 0
BBX 16 16 0 -2
BITMAP
0800
0800
1ffe
1002
3106
610c
c108
0100
0380
0280
06c0
0460
0c30
1818
300c
e007
ENDCHAR
STARTCHAR ch-289
ENCODING 289
SWIDTH 1000 0
DWIDTH 16 0
BBX 16 16 0 -2
BITMAP
0100
0100
6100
31fe
1302
0246
0644
0040
1040
10e0
30a0
21b0
6110
4318
c60c
1c07
ENDCHAR
STARTCHAR ch-291
ENCODING 291
SWIDTH 1000 0
DWIDTH 16 0
BBX 16 16 0 -2
BITMAP
0640
1c40
7040
407f
40c1
7e93
4992
4810
4810
4838
4828
4828
486c
c844
88c6
0983
ENDCHAR
STARTCHAR ch-295
ENCODING 295
SWIDTH 1000 0
DWIDTH 16 0
BBX 16 16 0 -2
BITMAP
0040
7e40
4040
407f
54c1
5493
4992
4810
4810
4838
5428
5428
406c
4044
7ec6
0183
ENDCHAR
STARTCHAR ch-306
ENCODING 306
SWIDTH 1000 0
DWIDTH 16 0
BBX 16 16 0 -2
BITMAP
2420
2420
6620
c37f
1041
38d3
2c12
6610
c310
0038
7e28
4228
422c
4264
4246
7ec3
ENDCHAR
STARTCHAR ch-311
ENCODING 311
SWIDTH 1000 0
DWIDTH 16 0
BBX 16 16 0 -2
BITMAP
2240
1440
0840
147f
62c1
0893
ff92
1010
2810
7f10
a938
2928
292c
2b64
0846
08c3
ENDCHAR
STARTCHAR ch-312
ENCODING 312
SWIDTH 1000 0
DWIDTH 16 0
BBX 16 16 0 -2
BITMAP
1040
3240
2240
2f7f
f9c1
2093
7f12
c810
0810
ffb8
0828
1c28
166c
3344
60c6
c183
ENDCHAR
STARTCHAR ch-313
ENCODING 313
SWIDTH 1000 0
DWIDTH 16 0
BBX 16 16 0 -2
BITMAP
0820
0820
7f20
147f
3641
62d3
0012
ff90
0210
7a10
4a38
4a28
7a2c
0264
0246
0ec3
ENDCHAR
STARTCHAR ch-314
ENCODING 314
SWIDTH 1000 0
DWIDTH 16 0
BBX 16 16 0 -2
BITMAP
2220
2220
ffa0
223f
2261
3e53
22d2
2210
3e10
2210
2238
ffa8
002c
2664
6346
c0c3
ENDCHAR
STARTCHAR ch-317
ENCODING 317
SWIDTH 1000 0
DWIDTH 16 0
BBX 16 16 0 -2
BITMAP
1040
3840
2c40
667f
40c1
fc93
1192
1010
fe10
1038
9428
d428
506c
1e44
70c6
c183
ENDCHAR
STARTCHAR ch-318
ENCODING 318
SWIDTH 1000 0
DWIDTH 16 0
BBX 16 16 0 -2
BITMAP
1020
1020
ff20
107f
1041
7e53
00d2
7e10
0010
ff38
1028
5428
526c
9244
10c6
3183
ENDCHAR
STARTCHAR ch-323
ENCODING 323
SWIDTH 1000 0
DWIDTH 16 0
BBX 16 16 0 -2
BITMAP
0320
0e20
7820
087f
0841
ff93
0812
2810
6b10
4910
4938
6b28
492c
4964
7f46
00c3
ENDCHAR
STARTCHAR ch-327
ENCODING 327
SWIDTH 1000 0
DWIDTH 16 0
BBX 16 16 0 -2
BITMAP
0020
7e20
4220
7e7f
4241
42d3
7e12
2010
3f10
6110
c938
7128
412c
4b64
3a46
06c3
ENDCHAR
STARTCHAR ch-329
ENCODING 329
SWIDTH 1000 0
DWIDTH 16 0
BBX 16 16 0 -2
BITMAP
2110
1210
ffd0
141f
7fb1
14ab
ffea
1488
7f88
1408
361c
3614
5514
94b6
1422
1463
ENDCHAR
STARTCHAR ch-332
ENCODING 332
SWIDTH 1000 0
DWIDTH 16 0
BBX 16 16 0 -2
BITMAP
0040
ff40
0440
747f
54c1
7493
0592
0c10
0010
ff38
0428
7428
546c
7444
04c6
0d83
ENDCHAR
STARTCHAR ch-334
ENCODING 334
SWIDTH 1000 0
DWIDTH 16 0
BBX 16 16 0 -2
BITMAP
2220
ffa0
2220
003f
7f61
4953
49d2
7f10
0810
7f38
0828
ffa8
142c
3664
6346
c0c3
ENDCHAR
STARTCHAR ch-336
ENCODING 336
SWIDTH 1000 0
DWIDTH 16 0
BBX 16 16 0 -2
BITMAP
0010
7f90
4010
4f1f
4931
492b
4f6a
4008
5dc8
5548
555c
5554
5dd4
4036
7fa2
0063
ENDCHAR
STARTCHAR ch-339
ENCODING 339
SWIDTH 1000 0
DWIDTH 16 0
BBX 16 16 0 -2
BITMAP
2020
2020
7f20
d03f
1061
ff53
24d2
2810
7f10
c838
7e28
4828
7e6c
4844
7fc6
0083
ENDCHAR
STARTCHAR ch-340
ENCODING 340
SWIDTH 1000 0
DWIDTH 16 0
BBX 16 16 0 -2
BITMAP
0810
0f10
0810
7fbf
48a1
7e6b
488a
4788
4008
4a08
6a9c
5b14
4a14
4bb6
8e22
3863
ENDCHAR
STARTCHAR ch-345
ENCODING 345
SWIDTH 1000 0
DWIDTH 16 0
BBX 16 16 0 -2
BITMAP
0810
1410
2210
dd9f
0031
3e2b
226a
3e08
0008
f788
109c
d694
3194
52b6
94a2
31e3
ENDCHAR
STARTCHAR ch-347
ENCODING 347
SWIDTH 1000 0
DWIDTH 16 0
BBX 16 16 0 -2
BITMAP
0810
1c10
3610
631f
c1b1
3e2b
006a
7708
5508
5508
771c
0014
2214
2236
7722
d563
ENDCHAR
STARTCHAR ch-351
ENCODING 351
SWIDTH 1000 0
DWIDTH 16 0
BBX 16 16 0 -2
BITMAP
2810
6b90
4c90
489f
69b1
4cab
54ea
7588
5488
5488
549c
ffd4
0014
2216
6332
c1a3
ENDCHAR
STARTCHAR ch-353
ENCODING 353
SWIDTH 1000 0
DWIDTH 16 0
BBX 16 16 0 -2
BITMAP
2210
ff90
2210
771f
5531
772b
006a
2408
7f08
c808
7f1c
4814
7f14
4836
7fa2
0063
ENDCHAR
STARTCHAR ch-354
ENCODING 354
SWIDTH 1000 0
DWIDTH 16 0
BBX 16 16 0 -2
BITMAP
0080
0080
0080
0080
1080
1080
10fc
1080
1080
1080
1080
1080
1080
1080
ffff
0000
ENDCHAR
STARTCHAR ch-355
ENCODING 355
SWIDTH 1000 0
DWIDTH 16 0
BBX 16 16 0 -2
BITMAP
0000
7ffe
0080
0080
0080
1080
1080
10fc
1080
1080
1080
1080
1080
1080
ffff
0000
ENDCHAR
STARTCHAR ch-356
ENCODING 356
SWIDTH 1000 0
DWIDTH 16 0
BBX 16 16 0 -2
BITMAP
0840
0840
0840
4843
4846
485c
4f70
4840
4840
4840
4840
4840
4840
4f41
7863
c03e
ENDCHAR
STARTCHAR ch-358
ENCODING 358
SWIDTH 1000 0
DWIDTH 16 0
BBX 16 16 0 -2
BITMAP
0028
3e2c
0024
0020
ffff
0020
0420
2420
27b0
2410
2410
2418
2788
3c0d
e007
0002
ENDCHAR
STARTCHAR ch-361
ENCODING 361
SWIDTH 1000 0
DWIDTH 16 0
BBX 16 16 0 -2
BITMAP
0100
1100
11f8
1100
1100
ffff
0100
0910
1918
310c
e117
0730
0060
01c0
0700
3c00
ENDCHAR
STARTCHAR ch-362
ENCODING 362
SWIDTH 1000 0
DWIDTH 16 0
BBX 16 16 0 -2
BITMAP
0000
7ffe
0100
0320
0730
1d1c
f107
0000
3ffc
0100
1100
11f8
1100
1100
ffff
0000
ENDCHAR
STARTCHAR ch-367
ENCODING 367
SWIDTH 1000 0
DWIDTH 16 0
BBX 16 16 0 -2
BITMAP
0080
1080
10fc
1080
1080
ffff
2004
2924
2544
2ff4
2104
2384
2544
2934
2004
3ffc
ENDCHAR
STARTCHAR ch-371
ENCODING 371
SWIDTH 1000 0
DWIDTH 16 0
BBX 16 16 0 -2
BITMAP
0080
1080
10fe
1080
ffff
0028
0024
3ffe
2020
2fb2
2216
2a9c
2a89
621d
4637
c0e2
ENDCHAR
STARTCHAR ch-372
ENCODING 372
SWIDTH 1000 0
DWIDTH 16 0
BBX 16 16 0 -2
BITMAP
0000
7fff
4208
4208
5fbf
4208
471c
5aab
4208
4040
4440
c47e
8440
8440
3fff
0000
ENDCHAR
STARTCHAR ch-376
ENCODING 376
SWIDTH 1000 0
DWIDTH 16 0
BBX 16 16 0 -2
BITMAP
0800
107c
7c04
447c
7c04
407c
7c00
45ff
7d11
1111
50fe
5c92
5092
5c92
7096
c010
ENDCHAR
STARTCHAR ch-377
ENCODING 377
SWIDTH 1000 0
DWIDTH 16 0
BBX 16 16 0 -2
BITMAP
0000
ffff
0200
0200
0200
07f8
0408
0c08
1b18
7190
00b0
0060
00c0
0180
0700
1c00
ENDCHAR
STARTCHAR ch-379
ENCODING 379
SWIDTH 1000 0
DWIDTH 16 0
BBX 16 16 0 -2
BITMAP
0000
ffff
1040
1040
1f40
1146
315c
2370
7a40
ce40
0440
0c40
1840
3041
6063
c03e
ENDCHAR
STARTCHAR ch-383
ENCODING 383
SWIDTH 1000 0
DWIDTH 16 0
BBX 16 16 0 -2
BITMAP
0040
fe40
207e
20c2
3c86
2584
641c
4400
75fe
dc82
08c6
186c
1038
306c
60c6
c383
ENDCHAR
STARTCHAR ch-384
ENCODING 384
SWIDTH 1000 0
DWIDTH 16 0
BBX 16 16 0 -2
BITMAP
0006
fe1c
20f0
2010
3c10
2410
65ff
4410
7410
dc38
0828
1828
106c
3044
60c6
c183
ENDCHAR
STARTCHAR ch-387
ENCODING 387
SWIDTH 1000 0
DWIDTH 16 0
BBX 16 16 0 -2
BITMAP
0010
fe10
2010
20fe
3c92
2492
6492
4492
75ff
dc10
0838
1828
106c
3044
60c6
c183
ENDCHAR
STARTCHAR ch-388
ENCODING 388
SWIDTH 1000 0
DWIDTH 16 0
BBX 16 16 0 -2
BITMAP
0010
fe38
2028
206c
3cc6
2593
6430
4464
74cc
dc18
0831
18e3
1006
300c
6038
c0e0
ENDCHAR
STARTCHAR ch-390
ENCODING 390
SWIDTH 1000 0
DWIDTH 16 0
BBX 16 16 0 -2
BITMAP
0020
fe20
2060
2044
3c46
24c2
249f
75f1
5c00
c8fe
0882
1882
1082
3082
6082
c0fe
ENDCHAR
STARTCHAR ch-393
ENCODING 393
SWIDTH 1000 0
DWIDTH 16 0
BBX 16 16 0 -2
BITMAP
0080
fe80
20fe
2182
2102
3cf2
2492
6492
54f2
cc92
0892
1892
10f2
3006
6004
c01c
ENDCHAR
STARTCHAR ch-394
ENCODING 394
SWIDTH 1000 0
DWIDTH 16 0
BBX 16 16 0 -2
BITMAP
0010
fe90
2090
20fe
3d90
2510
2410
75ff
5c54
c854
0854
18d6
1092
3193
6010
0010
ENDCHAR
STARTCHAR ch-395
ENCODING 395
SWIDTH 1000 0
DWIDTH 16 0
BBX 16 16 0 -2
BITMAP
0020
fe24
2022
21ff
3c20
25fe
6420
45ff
7420
dc32
0816
181c
1038
30ed
6387
c002
ENDCHAR
STARTCHAR ch-397
ENCODING 397
SWIDTH 1000 0
DWIDTH 16 0
BBX 16 16 0 -2
BITMAP
0006
fe1c
20f1
2123
3db6
2494
65fe
4404
7408
dc10
09ff
1810
1010
3010
6010
c070
ENDCHAR
STARTCHAR ch-405
ENCODING 405
SWIDTH 1000 0
DWIDTH 16 0
BBX 16 16 0 -2
BITMAP
0020
fe20
21fe
2084
3ccc
2448
6448
47ff
7400
dc00
08fc
1884
1084
3084
6084
c0fc
ENDCHAR
STARTCHAR ch-406
ENCODING 406
SWIDTH 1000 0
DWIDTH 16 0
BBX 16 16 0 -2
BITMAP
0010
fe10
11ff
1010
107e
3d42
2542
257e
7542
dd42
097e
1942
1142
317e
6100
c1ff
ENDCHAR
STARTCHAR ch-408
ENCODING 408
SWIDTH 1000 0
DWIDTH 16 0
BBX 16 16 0 -2
BITMAP
0048
fe44
207e
21e0
3c36
2418
646d
4587
7448
dc44
087e
1be0
1036
3019
606d
c387
ENDCHAR
STARTCHAR ch-414
ENCODING 414
SWIDTH 1000 0
DWIDTH 16 0
BBX 16 16 0 -2
BITMAP
0000
fefe
2082
2082
3cfe
2400
64fe
4482
74fe
dc82
08fe
1882
10fe
3044
60c6
c183
ENDCHAR
STARTCHAR ch-420
ENCODING 420
SWIDTH 1000 0
DWIDTH 16 0
BBX 16 16 0 -2
BITMAP
0080
fdfe
2300
20fc
3c84
24fc
6484
44fc
7400
dfff
0880
19fe
134a
3092
6126
c04c
ENDCHAR
STARTCHAR ch-426
ENCODING 426
SWIDTH 1000 0
DWIDTH 16 0
BBX 16 16 0 -2
BITMAP
0010
fe10
21ff
2010
3cfe
2400
65ff
4501
757d
dc00
08fe
1882
10fe
3044
6028
c1ff
ENDCHAR
STARTCHAR ch-427
ENCODING 427
SWIDTH 1000 0
DWIDTH 16 0
BBX 16 16 0 -2
BITMAP
01ef
fd29
21ef
2000
3cfe
2492
6492
44fe
7492
dc92
08fe
1810
11ff
3010
6010
c010
ENDCHAR
STARTCHAR ch-431
ENCODING 431
SWIDTH 1000 0
DWIDTH 16 0
BBX 16 16 0 -2
BITMAP
0010
fdff
2101
20fe
3c14
245b
6590
447e
75c2
dc7e
0842
187e
1042
307e
6024
c0c3
ENDCHAR
STARTCHAR ch-433
ENCODING 433
SWIDTH 1000 0
DWIDTH 16 0
BBX 16 16 0 -2
BITMAP
0088
f88a
23eb
2089
3888
2fff
6948
4b6a
e94a
3b6a
114e
1364
314c
21ed
6717
c022
ENDCHAR
STARTCHAR ch-434
ENCODING 434
SWIDTH 1000 0
DWIDTH 16 0
BBX 16 16 0 -2
BITMAP
0228
fa2a
255b
2559
3808
2fff
6948
4b6a
e94a
3b6a
114e
1364
314c
21ed
6717
c022
ENDCHAR
STARTCHAR ch-435
ENCODING 435
SWIDTH 1000 0
DWIDTH 16 0
BBX 16 16 0 -2
BITMAP
0000
0fe0
0820
0820
0820
183e
3000
6000
1ff8
0418
0630
0360
01c0
0760
1c38
f00f
ENDCHAR
STARTCHAR ch-436
ENCODING 436
SWIDTH 1000 0
DWIDTH 16 0
BBX 16 16 0 -2
BITMAP
0000
7e7c
4044
4044
54c4
5587
4800
48fe
4842
5466
542c
4038
4010
7e38
006c
01c7
ENDCHAR
STARTCHAR ch-437
ENCODING 437
SWIDTH 1000 0
DWIDTH 16 0
BBX 16 16 0 -2
BITMAP
0400
1cf8
7088
4088
4088
7988
430f
4000
79fc
4084
40cc
4048
7858
c030
40ec
4387
ENDCHAR
STARTCHAR ch-439
ENCODING 439
SWIDTH 1000 0
DWIDTH 16 0
BBX 16 16 0 -2
BITMAP
0600
3c7c
2044
3e44
22c4
3f87
2200
22fe
3e42
2066
3e2c
2238
6210
4638
c46c
1dc7
ENDCHAR
STARTCHAR ch-442
ENCODING 442
SWIDTH 1000 0
DWIDTH 16 0
BBX 16 16 0 -2
BITMAP
0400
44f8
2888
1088
2888
c588
130f
1000
fdfc
1084
38cc
3458
5430
9078
10cc
1387
ENDCHAR
STARTCHAR ch-443
ENCODING 443
SWIDTH 1000 0
DWIDTH 16 0
BBX 16 16 0 -2
BITMAP
1000
103c
ff24
1024
1024
7e47
0000
ff7e
8122
bd26
2424
242c
2518
663c
4466
c0c3
ENDCHAR
STARTCHAR ch-444
ENCODING 444
SWIDTH 1000 0
DWIDTH 16 0
BBX 16 16 0 -2
BITMAP
1000
103c
ff24
1024
7e24
0047
ff00
817e
7e22
0036
3c14
241c
2408
251c
6636
c463
ENDCHAR
STARTCHAR ch-447
ENCODING 447
SWIDTH 1000 0
DWIDTH 16 0
BBX 16 16 0 -2
BITMAP
0000
7f3c
4124
4124
7f24
4027
5240
7f00
527e
5222
7f36
401c
d208
931c
3136
6063
ENDCHAR
STARTCHAR ch-448
ENCODING 448
SWIDTH 1000 0
DWIDTH 16 0
BBX 16 16 0 -2
BITMAP
2000
ce7c
8244
8244
ee44
8287
8200
fefe
0042
1066
fe24
103c
1018
1e3c
7066
c0c3
ENDCHAR
STARTCHAR ch-453
ENCODING 453
SWIDTH 1000 0
DWIDTH 16 0
BBX 16 16 0 -2
BITMAP
0800
083c
7f24
2224
1424
ffa4
1047
2900
ca7e
1422
2636
cd1c
1488
241c
c436
18e3
ENDCHAR
STARTCHAR ch-454
ENCODING 454
SWIDTH 1000 0
DWIDTH 16 0
BBX 16 16 0 -2
BITMAP
0000
7fbc
4024
4f24
4924
4947
4f00
403e
5dd2
5556
5554
555c
5dc8
401c
7fb6
0063
ENDCHAR
STARTCHAR ch-459
ENCODING 459
SWIDTH 1000 0
DWIDTH 16 0
BBX 16 16 0 -2
BITMAP
0000
1ffc
1084
1084
1084
1084
1084
ffff
2104
2104
2104
2104
2104
3fff
0008
0038
ENDCHAR
STARTCHAR ch-461
ENCODING 461
SWIDTH 1000 0
DWIDTH 16 0
BBX 16 16 0 -2
BITMAP
0000
1ffc
1004
1184
10c4
1044
1004
ffff
2004
2304
2184
2084
2004
3fff
0008
0038
ENDCHAR
STARTCHAR ch-462
ENCODING 462
SWIDTH 1000 0
DWIDTH 16 0
BBX 16 16 0 -2
BITMAP
1000
1000
3ffe
2000
6000
cff8
0888
0888
0888
ffff
1108
1108
1108
1ffe
0010
0070
ENDCHAR
STARTCHAR ch-466
ENCODING 466
SWIDTH 1000 0
DWIDTH 16 0
BBX 16 16 0 -2
BITMAP
0100
7ffe
0100
3ffc
0100
ffff
0000
1ff8
1108
1108
ffff
2108
2108
3ffe
0010
0070
ENDCHAR
STARTCHAR ch-467
ENCODING 467
SWIDTH 1000 0
DWIDTH 16 0
BBX 16 16 0 -2
BITMAP
2010
2010
7eff
c020
3e22
2a4f
2af9
2a00
ff54
5454
5454
5454
5454
7e55
04d5
1d83
ENDCHAR
STARTCHAR ch-468
ENCODING 468
SWIDTH 1000 0
DWIDTH 16 0
BBX 16 16 0 -2
BITMAP
2040
2040
2040
2040
2046
3e5c
2070
2040
2040
2040
2040
2040
2040
2e41
3863
e03e
ENDCHAR
STARTCHAR ch-472
ENCODING 472
SWIDTH 1000 0
DWIDTH 16 0
BBX 16 16 0 -2
BITMAP
0000
3ffc
2104
2104
3ffc
2104
2104
3ffc
0000
2040
2046
3e7c
2040
2041
3e63
e03e
ENDCHAR
STARTCHAR ch-475
ENCODING 475
SWIDTH 1000 0
DWIDTH 16 0
BBX 16 16 0 -2
BITMAP
0018
00f0
3f80
0200
0200
7ffe
0200
0200
0200
ffff
0200
0200
0200
0201
0303
01fe
ENDCHAR
STARTCHAR ch-479
ENCODING 479
SWIDTH 1000 0
DWIDTH 16 0
BBX 16 16 0 -2
BITMAP
0100
0910
191c
3107
e730
00e0
0f80
f870
07c0
0100
3ff8
0100
7ffe
0101
0183
00fe
ENDCHAR
STARTCHAR ch-491
ENCODING 491
SWIDTH 1000 0
DWIDTH 16 0
BBX 16 16 0 -2
BITMAP
0100
7ffe
0000
0ff0
0810
0ff0
0000
7ffe
4002
4fe2
0100
3ff8
0100
7ffd
0103
00fe
ENDCHAR
STARTCHAR ch-492
ENCODING 492
SWIDTH 1000 0
DWIDTH 16 0
BBX 16 16 0 -2
BITMAP
0c28
382c
e024
23fe
2020
f924
21ac
20a8
2030
f8b8
21ac
2326
2020
20e1
3003
1ffe
ENDCHAR
STARTCHAR ch-495
ENCODING 495
SWIDTH 1000 0
DWIDTH 16 0
BBX 16 16 0 -2
BITMAP
0c20
38a2
e1a6
2174
2050
fcd8
218c
2020
20a2
fda6
2174
2050
20d8
218d
3003
1ffe
ENDCHAR
STARTCHAR ch-499
ENCODING 499
SWIDTH 1000 0
DWIDTH 16 0
BBX 16 16 0 -2
BITMAP
01c0
1f00
0200
3ff0
0200
7ff8
0204
01fc
0c08
7870
1010
7e7c
1010
fefe
1111
0f0f
ENDCHAR
ENDFONT
