STARTFONT 2.1
FONT jis.jis3000.24
SIZE 24 72 72
FONTBOUNDINGBOX 24 24 0 -3
STARTPROPERTIES 4
FONT_DESCENT 3
FONT_ASCENT 21
DEFAULT_CHAR 0
COPYRIGHT "Copyright (c) 1992 AT&T - All rights reserved."
ENDPROPERTIES
CHARS 21
STARTCHAR ch-0
ENCODING 0
SWIDTH 1000 0
DWIDTH 24 0
BBX 24 24 0 -3
BITMAP
000000
000000
000000
000000
000000
000000
000000
000000
000000
000000
000000
000000
000000
000000
000000
000000
000000
000000
000000
000000
000000
000000
000000
000000
ENDCHAR
STARTCHAR ch-1
ENCODING 1
SWIDTH 1000 0
DWIDTH 24 0
BBX 24 24 0 -3
BITMAP
000000
000000
000000
000000
000000
000000
000000
000000
000000
000000
000000
000000
000000
000000
000000
000000
000000
000000
000000
100000
0c0000
070000
038000
018000
ENDCHAR
STARTCHAR ch-2
ENCODING 2
SWIDTH 1000 0
DWIDTH 24 0
BBX 24 24 0 -3
BITMAP
000000
000000
000000
000000
000000
000000
000000
000000
000000
000000
000000
000000
000000
000000
000000
000000
000000
000000
060000
090000
108000
108000
090000
060000
ENDCHAR
STARTCHAR ch-3
ENCODING 3
SWIDTH 1000 0
DWIDTH 24 0
BBX 24 24 0 -3
BITMAP
000000
000000
000000
000000
000000
000000
006180
006180
006180
006180
006180
006180
00c300
00c300
00c300
008200
018600
010400
020800
000000
000000
000000
000000
000000
ENDCHAR
STARTCHAR ch-5
ENCODING 5
SWIDTH 1000 0
DWIDTH 24 0
BBX 24 24 0 -3
BITMAP
000000
000000
000000
000000
004000
007000
006060
007ff0
00c060
00c0c0
0180c0
030180
020100
040200
086400
101800
000e00
000700
000380
000180
000000
000000
000000
000000
ENDCHAR
STARTCHAR ch-6
ENCODING 6
SWIDTH 1000 0
DWIDTH 24 0
BBX 24 24 0 -3
BITMAP
000002
000003
000007
00000f
00003c
000070
0001c0
000300
03c600
043800
081c00
082600
104700
108300
310000
220000
260000
2c0000
380000
300000
700000
600000
e00000
c00000
ENDCHAR
STARTCHAR ch-7
ENCODING 7
SWIDTH 1000 0
DWIDTH 24 0
BBX 24 24 0 -3
BITMAP
000000
000000
000000
007e00
03c3c0
0e0070
180018
30000c
200004
600006
400002
400002
400002
400002
600006
200004
30000c
180018
0e0070
03c3c0
007e00
000000
000000
000000
ENDCHAR
STARTCHAR ch-8
ENCODING 8
SWIDTH 1000 0
DWIDTH 24 0
BBX 24 24 0 -3
BITMAP
000010
000010
000020
000040
000080
000080
000100
000200
000400
000400
000800
001000
000800
000400
000400
000200
000100
000100
000080
000040
000040
000020
000010
000010
ENDCHAR
STARTCHAR ch-9
ENCODING 9
SWIDTH 1000 0
DWIDTH 24 0
BBX 24 24 0 -3
BITMAP
080000
080000
040000
020000
010000
010000
008000
004000
002000
002000
001000
000800
001000
002000
002000
004000
008000
008000
010000
020000
020000
040000
080000
080000
ENDCHAR
STARTCHAR ch-10
ENCODING 10
SWIDTH 1000 0
DWIDTH 24 0
BBX 24 24 0 -3
BITMAP
000044
000044
000088
000110
000110
000220
000440
000440
000880
001100
001100
002200
001100
001100
000880
000440
000440
000220
000220
000110
000088
000088
000044
000044
ENDCHAR
STARTCHAR ch-11
ENCODING 11
SWIDTH 1000 0
DWIDTH 24 0
BBX 24 24 0 -3
BITMAP
220000
220000
110000
088000
088000
044000
022000
022000
011000
008800
008800
004400
008800
008800
011000
022000
022000
044000
044000
088000
110000
110000
220000
220000
ENDCHAR
STARTCHAR ch-12
ENCODING 12
SWIDTH 1000 0
DWIDTH 24 0
BBX 24 24 0 -3
BITMAP
0007f0
000400
000400
000400
000400
000400
000400
000400
000400
000400
000400
000400
000400
000400
000400
000400
000000
000000
000000
000000
000000
000000
000000
000000
ENDCHAR
STARTCHAR ch-13
ENCODING 13
SWIDTH 1000 0
DWIDTH 24 0
BBX 24 24 0 -3
BITMAP
000000
000000
000000
000000
000000
000000
000000
000000
002000
002000
002000
002000
002000
002000
002000
002000
002000
002000
002000
002000
002000
002000
002000
0fe000
ENDCHAR
STARTCHAR ch-14
ENCODING 14
SWIDTH 1000 0
DWIDTH 24 0
BBX 24 24 0 -3
BITMAP
0007f8
000408
000408
0004f8
000480
000480
000480
000480
000480
000480
000480
000480
000480
000480
000480
000780
000000
000000
000000
000000
000000
000000
000000
000000
ENDCHAR
STARTCHAR ch-15
ENCODING 15
SWIDTH 1000 0
DWIDTH 24 0
BBX 24 24 0 -3
BITMAP
000000
000000
000000
000000
000000
000000
000000
000000
01e000
012000
012000
012000
012000
012000
012000
012000
012000
012000
012000
012000
1f2000
102000
102000
1fe000
ENDCHAR
STARTCHAR ch-16
ENCODING 16
SWIDTH 1000 0
DWIDTH 24 0
BBX 24 24 0 -3
BITMAP
0007f0
0007e0
0007c0
0007c0
000780
000780
000700
000700
000700
000600
000600
000600
000600
000600
000600
000700
000700
000700
000780
000780
0007c0
0007c0
0007e0
0007f0
ENDCHAR
STARTCHAR ch-17
ENCODING 17
SWIDTH 1000 0
DWIDTH 24 0
BBX 24 24 0 -3
BITMAP
0fe000
07e000
03e000
03e000
01e000
01e000
00e000
00e000
00e000
006000
006000
006000
006000
006000
006000
00e000
00e000
00e000
01e000
01e000
03e000
03e000
07e000
0fe000
ENDCHAR
STARTCHAR ch-18
ENCODING 18
SWIDTH 1000 0
DWIDTH 24 0
BBX 24 24 0 -3
BITMAP
000000
000000
7ffffe
7ffffe
000000
000000
000000
000000
7ffffe
7ffffe
001800
001800
001800
001800
001800
001800
001800
001800
001800
001800
001800
001800
001800
000000
ENDCHAR
STARTCHAR ch-19
ENCODING 19
SWIDTH 1000 0
DWIDTH 24 0
BBX 24 24 0 -3
BITMAP
000000
000000
000000
000000
7ffffe
7ffffe
7ffffe
7ffffe
7ffffe
7ffffe
000000
000000
000000
000000
7ffffe
7ffffe
7ffffe
7ffffe
7ffffe
7ffffe
000000
000000
000000
000000
ENDCHAR
STARTCHAR ch-20
ENCODING 20
SWIDTH 1000 0
DWIDTH 24 0
BBX 24 24 0 -3
BITMAP
000030
0000c0
000300
000c00
000800
000800
000800
000800
000800
000800
000800
000800
000800
000800
000800
000800
000800
000800
000800
000800
000c00
000300
0000c0
000030
ENDCHAR
STARTCHAR ch-21
ENCODING 21
SWIDTH 1000 0
DWIDTH 24 0
BBX 24 24 0 -3
BITMAP
0c0000
030000
00c000
003000
001000
001000
001000
001000
001000
001000
001000
001000
001000
001000
001000
001000
001000
001000
001000
001000
003000
00c000
030000
0c0000
ENDCHAR
ENDFONT
