STARTFONT 2.1
FONT jis.jis7400.24
SIZE 24 72 72
FONTBOUNDINGBOX 24 24 0 -3
STARTPROPERTIES 4
FONT_DESCENT 3
FONT_ASCENT 21
DEFAULT_CHAR 3
COPYRIGHT "Copyright (c) 1992 AT&T - All rights reserved."
ENDPROPERTIES
CHARS 164
STARTCHAR ch-3
ENCODING 3
SWIDTH 1000 0
DWIDTH 24 0
BBX 24 24 0 -3
BITMAP
0003a0
000318
030318
ff8300
180306
18ffff
180300
180300
184308
1b230e
ffb30c
183388
183390
180340
180340
180b60
191320
1e3330
f86318
71e31f
40c30e
008306
001f00
000600
ENDCHAR
STARTCHAR ch-5
ENCODING 5
SWIDTH 1000 0
DWIDTH 24 0
BBX 24 24 0 -3
BITMAP
000380
000300
030300
ffa318
183ffc
183018
183018
183018
1b3ff8
ffb018
183018
183018
183ff8
183204
18320e
193118
1e3160
f83080
7030c0
403060
003338
01fc1f
00e00e
008006
ENDCHAR
STARTCHAR ch-6
ENCODING 6
SWIDTH 1000 0
DWIDTH 24 0
BBX 24 24 0 -3
BITMAP
000000
03200c
ffbffe
18318c
18318c
18318c
18318c
183ffc
19318c
ffb18c
18318c
18318c
183ffc
18318c
180180
190180
1e018c
f87ffe
600180
400180
000180
000186
01ffff
000000
ENDCHAR
STARTCHAR ch-9
ENCODING 9
SWIDTH 1000 0
DWIDTH 24 0
BBX 24 24 0 -3
BITMAP
000380
030300
ff8306
187fff
180600
180440
180430
180818
1a7fec
ff3c0c
182000
180000
183338
183330
183330
183330
1f3330
fc3330
703330
406332
006332
004333
00833f
03001e
ENDCHAR
STARTCHAR ch-34
ENCODING 34
SWIDTH 1000 0
DWIDTH 24 0
BBX 24 24 0 -3
BITMAP
000000
000006
037fff
ff8300
180200
180600
180408
180a0e
1a130c
ff2518
18c590
1809a0
1811c0
1823c0
18c5a0
1805a0
1b0990
fc1198
70218f
40c18e
030386
000300
001f00
000600
ENDCHAR
STARTCHAR ch-37
ENCODING 37
SWIDTH 1000 0
DWIDTH 24 0
BBX 24 24 0 -3
BITMAP
000380
000318
0303fc
ff8300
184306
187fff
186006
186384
1b6308
ffe3e0
187f04
186306
1863fe
1861fc
186000
196400
1e6770
f8c660
70c660
408c62
018c62
011863
02307f
00c03e
ENDCHAR
STARTCHAR ch-50
ENCODING 50
SWIDTH 1000 0
DWIDTH 24 0
BBX 24 24 0 -3
BITMAP
000e70
000c60
030c60
ff8c60
180c66
18fc7f
180c60
180c60
1b0c60
ff8c6c
18fc7e
180c60
180c60
180c60
190c60
1e1c66
f86c7f
63c860
419860
001060
003060
002060
004060
008060
ENDCHAR
STARTCHAR ch-51
ENCODING 51
SWIDTH 1000 0
DWIDTH 24 0
BBX 24 24 0 -3
BITMAP
003870
033060
ffb060
183060
183266
19ffff
183060
183060
1a3860
ff74f0
1876f0
18f6e8
18b1e8
19b16c
1b3366
1c3267
183466
1b3862
fc3060
703060
403060
003060
003060
003060
ENDCHAR
STARTCHAR ch-52
ENCODING 52
SWIDTH 1000 0
DWIDTH 24 0
BBX 24 24 0 -3
BITMAP
006006
fff7ff
060060
060060
7fe3fe
060060
060060
07c066
fe37ff
703000
406800
00c600
0183c0
0600ff
19ff3e
e00006
000180
0fffc0
000380
000700
000600
000e00
001c00
001800
ENDCHAR
STARTCHAR ch-53
ENCODING 53
SWIDTH 1000 0
DWIDTH 24 0
BBX 24 24 0 -3
BITMAP
006006
ffffff
0600c0
0600c0
0640c4
7feffe
0600c0
0600c0
07c0c2
fe1fff
700000
400000
0e0700
0c0618
0c663c
0ff670
0c06c0
0c0700
0c0602
0c0602
0ce602
ff0603
7807ff
4003fe
ENDCHAR
STARTCHAR ch-54
ENCODING 54
SWIDTH 1000 0
DWIDTH 24 0
BBX 24 24 0 -3
BITMAP
006006
ffffff
0600c0
0600c0
0640c4
7feffe
0600c0
0600c0
07c0c2
fe1fff
700000
480030
0ffff8
0c1830
0c1830
0c1830
0c1830
0ffff0
0c0030
0c0002
0c0002
0c0003
0fffff
07fffe
ENDCHAR
STARTCHAR ch-58
ENCODING 58
SWIDTH 1000 0
DWIDTH 24 0
BBX 24 24 0 -3
BITMAP
000070
002060
061060
ff1860
18186c
1803fe
188060
184060
186060
1a6860
ff0860
180866
181fff
181080
1830e0
1a30c0
1c60c0
39e090
f0e188
60610c
40610c
0067fe
0073c6
003206
ENDCHAR
STARTCHAR ch-63
ENCODING 63
SWIDTH 1000 0
DWIDTH 24 0
BBX 24 24 0 -3
BITMAP
001000
001006
033fff
ffe006
1861c4
180180
187fff
180180
18218c
1b3ffe
ffb18c
18318c
183ffc
18318c
18318c
183ffc
19318c
1e0180
f80186
70ffff
400180
000180
000180
000180
ENDCHAR
STARTCHAR ch-65
ENCODING 65
SWIDTH 1000 0
DWIDTH 24 0
BBX 24 24 0 -3
BITMAP
004006
007fff
036006
ffe006
186ff6
186006
186006
186006
186ff6
1b6006
ff8000
18200c
183ffe
18300c
18300c
183ffc
19300c
1e300c
f83ffc
70300c
40300c
00300c
003ffc
00300c
ENDCHAR
STARTCHAR ch-85
ENCODING 85
SWIDTH 1000 0
DWIDTH 24 0
BBX 24 24 0 -3
BITMAP
00860c
06fefe
ffc60c
18c60c
18c60c
18c60c
18c60c
18fefc
18c60c
ffc000
18c00c
18c1fe
18cc8c
18fe8c
18c08c
1bc058
1cc058
f8cc30
60fe30
40c078
00c068
00c0cc
00c187
00c606
ENDCHAR
STARTCHAR ch-89
ENCODING 89
SWIDTH 1000 0
DWIDTH 24 0
BBX 24 24 0 -3
BITMAP
001084
0018c6
03318c
ffa108
184210
182108
18318c
1818c6
1818c6
1b0300
ff8306
187fff
186006
186046
186466
1862c6
196186
1e6186
f862c6
706466
406866
006006
007ffe
006006
ENDCHAR
STARTCHAR ch-90
ENCODING 90
SWIDTH 1000 0
DWIDTH 24 0
BBX 24 24 0 -3
BITMAP
003886
0630ff
ff30c6
1830c6
1830c6
1834c6
19fec6
1830fe
1830c6
1a30c6
ff30c6
1830c6
18fcc6
1884fe
1884c6
1884c6
1884c6
1a84c6
1c84c6
f8fd86
708586
400106
00023e
000c0c
ENDCHAR
STARTCHAR ch-91
ENCODING 91
SWIDTH 1000 0
DWIDTH 24 0
BBX 24 24 0 -3
BITMAP
000e38
000c30
ff0c32
18ffff
180c30
180c30
1801c0
180180
18218c
ff3ffe
18318c
18318c
18318c
18318c
18318c
18ffff
180340
1b0340
fc0620
700630
400c18
00181f
00300e
00c006
ENDCHAR
STARTCHAR ch-92
ENCODING 92
SWIDTH 1000 0
DWIDTH 24 0
BBX 24 24 0 -3
BITMAP
000300
000300
030680
ff8640
180c60
181838
18301f
1860c6
199fe0
180000
ff860e
18ff6c
18c64c
18c64c
18fe4c
18c64c
18c64c
1efe4c
f8c64c
60c60c
40c60c
00c60c
00de3c
00cc18
ENDCHAR
STARTCHAR ch-94
ENCODING 94
SWIDTH 1000 0
DWIDTH 24 0
BBX 24 24 0 -3
BITMAP
0001c0
037187
ffe186
186186
186186
186186
187ffe
186006
180000
1b0006
ffffff
180300
180200
184406
187fff
186446
186446
196446
1e6446
f86446
606446
406446
00645e
00600c
ENDCHAR
STARTCHAR ch-95
ENCODING 95
SWIDTH 1000 0
DWIDTH 24 0
BBX 24 24 0 -3
BITMAP
006006
ffffff
0600c0
0600c0
0640c4
7feffe
0600c0
0600c0
0640c2
ffefff
000000
002000
001880
000ce0
01cdc0
118190
11830c
318606
318c27
71b823
61e020
018030
07fff0
78ffe0
ENDCHAR
STARTCHAR ch-96
ENCODING 96
SWIDTH 1000 0
DWIDTH 24 0
BBX 24 24 0 -3
BITMAP
000c00
069e06
fff1ff
18c066
18c066
18c866
18c466
18c646
18dec6
ffe68e
19810c
19023c
180418
180000
187ffc
1a610c
1c610c
f8610c
607ffc
40610c
00610c
00610c
007ffc
00600c
ENDCHAR
STARTCHAR ch-99
ENCODING 99
SWIDTH 1000 0
DWIDTH 24 0
BBX 24 24 0 -3
BITMAP
0001c4
004187
033186
ff998c
181988
180180
183ffc
18300c
1b300c
ffb00c
183ffc
18300c
18300c
18300c
183ffc
1b300c
1c300c
f8300c
603ffc
401000
001c30
00380e
006007
018003
ENDCHAR
STARTCHAR ch-100
ENCODING 100
SWIDTH 1000 0
DWIDTH 24 0
BBX 24 24 0 -3
BITMAP
000100
0001c0
03038c
ff87fe
180c1c
181b38
186170
1818e0
180980
1b0700
ff9c00
187018
181ffc
181180
182180
180186
1affff
1c0180
f80180
707187
406186
006186
007ffe
006006
ENDCHAR
STARTCHAR ch-105
ENCODING 105
SWIDTH 1000 0
DWIDTH 24 0
BBX 24 24 0 -3
BITMAP
0180c0
012088
09349c
0964b0
1b0d80
128940
066330
042218
280408
200006
7fffff
600006
c00004
c00034
1ffff8
001800
001800
0ffff0
001880
0018c0
001860
001866
ffffff
000000
ENDCHAR
STARTCHAR ch-106
ENCODING 106
SWIDTH 1000 0
DWIDTH 24 0
BBX 24 24 0 -3
BITMAP
000000
00200c
033ffe
ffb180
183180
183198
183ffc
183180
1b3180
ffb198
183ffc
183180
183180
183186
183fff
193006
1e0046
f80226
709136
4091b6
01998e
03980c
03007c
000018
ENDCHAR
STARTCHAR ch-111
ENCODING 111
SWIDTH 1000 0
DWIDTH 24 0
BBX 24 24 0 -3
BITMAP
003800
063086
ff30ff
1830c6
18fcc6
1884c4
1884cc
1884c8
1afcc8
ff84d0
1884c8
1884cc
18fcc4
1880c6
1880c6
1890c6
1888c6
1e8cc6
f88cc6
60f6de
43c6cc
0186c0
0100c0
0000c0
ENDCHAR
STARTCHAR ch-112
ENCODING 112
SWIDTH 1000 0
DWIDTH 24 0
BBX 24 24 0 -3
BITMAP
000400
000700
03460c
fffffe
18630c
18630c
18630c
187ffc
1b630c
ffe30c
18630c
187ffc
180190
18119c
181d98
191990
1e19a2
f831ff
7031b3
406180
00c182
018183
0301ff
0c00fe
ENDCHAR
STARTCHAR ch-115
ENCODING 115
SWIDTH 1000 0
DWIDTH 24 0
BBX 24 24 0 -3
BITMAP
001010
000c1c
018618
ffc620
0c3ffe
0c0180
0c0180
0c0198
0c1ffc
0d0180
7f8180
0c0186
0c7fff
0c0600
0c0600
0c0c00
0c880c
0f1ffe
fc30c0
7060c0
40c0c0
0300c0
0000c6
007fff
ENDCHAR
STARTCHAR ch-118
ENCODING 118
SWIDTH 1000 0
DWIDTH 24 0
BBX 24 24 0 -3
BITMAP
000018
00007c
0303e0
ffbe00
180004
180407
18430e
18318c
181998
1b1810
ff8000
183ffc
180180
180180
180186
18ffff
180180
1f0180
fc7187
706186
406186
006186
007ffe
006006
ENDCHAR
STARTCHAR ch-126
ENCODING 126
SWIDTH 1000 0
DWIDTH 24 0
BBX 24 24 0 -3
BITMAP
001c70
001860
031864
fffffe
181860
181860
180000
184018
1b7ffc
ffe318
186318
186318
187ff8
186318
180300
190304
1efffe
f80300
700308
407ffc
000300
000302
03ffff
000000
ENDCHAR
STARTCHAR ch-131
ENCODING 131
SWIDTH 1000 0
DWIDTH 24 0
BBX 24 24 0 -3
BITMAP
0001c0
000180
018186
ffffff
180000
18304c
1836ec
18318c
18326c
19342c
ffb00c
183ffc
180180
184106
187fff
186106
1b6246
1c6226
f86ff6
606736
406406
006006
00603e
00600c
ENDCHAR
STARTCHAR ch-139
ENCODING 139
SWIDTH 1000 0
DWIDTH 24 0
BBX 24 24 0 -3
BITMAP
0001c0
000180
03018c
ffbffe
180820
180430
180620
180246
18ffff
1b0000
ff9ff8
181818
181818
181ff8
181818
181818
191ff8
1e0180
f80186
70ffff
400180
000180
000180
000180
ENDCHAR
STARTCHAR ch-158
ENCODING 158
SWIDTH 1000 0
DWIDTH 24 0
BBX 24 24 0 -3
BITMAP
000cc0
008cc8
064cce
ff6ccc
186cd0
180cc0
19fffe
182020
1a1830
ff0840
187ffc
180300
180300
187ffc
180300
190306
1effff
f80680
700c40
400c60
001838
00301f
00c00e
030006
ENDCHAR
STARTCHAR ch-162
ENCODING 162
SWIDTH 1000 0
DWIDTH 24 0
BBX 24 24 0 -3
BITMAP
000006
007fff
030240
ff8240
184246
187e7f
186246
186246
1b6246
ffe246
187e7e
186246
180240
180240
187ffe
196186
1e6186
f86186
707ffe
406186
006186
006186
007ffe
006006
ENDCHAR
STARTCHAR ch-167
ENCODING 167
SWIDTH 1000 0
DWIDTH 24 0
BBX 24 24 0 -3
BITMAP
1060e0
1ff0c0
1860c4
186ffe
186210
1fe318
180110
180024
1feffe
3c60c0
2c60c4
2c6ffe
4c60c0
8fe0c0
0c60c0
000018
3ffffc
001800
1ffff8
001880
001860
001826
ffffff
000000
ENDCHAR
STARTCHAR ch-176
ENCODING 176
SWIDTH 1000 0
DWIDTH 24 0
BBX 24 24 0 -3
BITMAP
004006
067fff
ff6666
186666
186666
187ffe
186006
180000
18ffff
ff0000
182018
183ffc
183018
183018
183018
183ffa
1b0f47
fc1b2c
701b30
403318
00631f
01830e
0e0306
000300
ENDCHAR
STARTCHAR ch-189
ENCODING 189
SWIDTH 1000 0
DWIDTH 24 0
BBX 24 24 0 -3
BITMAP
00000c
7ffffe
061830
0c180c
3fffff
d8181b
1a5a58
199998
195958
1a5a58
181818
1a5a58
199998
195958
1a5a58
181830
7ffffe
001800
001810
1ffff8
001880
001842
ffffff
000000
ENDCHAR
STARTCHAR ch-202
ENCODING 202
SWIDTH 1000 0
DWIDTH 24 0
BBX 24 24 0 -3
BITMAP
000800
000c60
031ff0
ffb040
186086
18ffff
186186
186366
186c26
1b6006
ffbffc
182004
183ffc
182004
183ffc
182004
193ffc
1e0c00
f81ff8
703430
406260
00c1c0
03077f
00381e
ENDCHAR
STARTCHAR ch-207
ENCODING 207
SWIDTH 1000 0
DWIDTH 24 0
BBX 24 24 0 -3
BITMAP
0038e0
0030c6
0c30ff
fffec0
3108c0
308cfe
308806
301006
33fe86
3000fe
fc00c0
31fcc0
318cfe
318cc0
31fcc0
318cfe
318cc0
3dfcc0
f18cfe
618cc0
418cc2
018cc3
01bcff
01987e
ENDCHAR
STARTCHAR ch-212
ENCODING 212
SWIDTH 1000 0
DWIDTH 24 0
BBX 24 24 0 -3
BITMAP
004242
007f7f
034242
ffc242
187e7e
184242
184242
187e7e
184242
1b4242
fffe7e
182020
183636
186263
188083
180600
19ffff
1e0c30
f81830
703f60
4031c0
000378
000c1e
007006
ENDCHAR
STARTCHAR ch-220
ENCODING 220
SWIDTH 1000 0
DWIDTH 24 0
BBX 24 24 0 -3
BITMAP
000070
0003f8
083f80
0fc040
0c0040
0c3840
0c3040
0c3040
0c3040
0c3040
0c3040
0c3020
0c3020
0c3020
0c3020
1c3230
183130
183190
1030d8
303fd8
27f8cc
63c08f
42000e
800006
ENDCHAR
STARTCHAR ch-224
ENCODING 224
SWIDTH 1000 0
DWIDTH 24 0
BBX 24 24 0 -3
BITMAP
0e0018
0c08fc
0c0fd0
0c6c10
fffc10
1a0c90
1a0c90
110c90
318c90
20cc90
5efc90
806c90
000c90
7f8c90
180c90
198c98
3fcc88
318888
018888
0398ac
0310ac
0717f7
3e2316
0c4006
ENDCHAR
STARTCHAR ch-226
ENCODING 226
SWIDTH 1000 0
DWIDTH 24 0
BBX 24 24 0 -3
BITMAP
00600c
fff47e
0907e0
090490
492490
7ff490
492490
492490
492490
7fe490
000490
004490
7fe490
000490
001490
fffc98
060488
268488
364cac
6668ac
4668f6
861797
1e2316
0c4202
ENDCHAR
STARTCHAR ch-227
ENCODING 227
SWIDTH 1000 0
DWIDTH 24 0
BBX 24 24 0 -3
BITMAP
1c031c
188f98
18fa18
188218
ff82ff
009200
449244
269226
249224
249224
089208
ff92ff
189218
189218
1b9218
fc93ff
789118
589118
189118
119598
311598
21fef8
4262d8
8400d8
ENDCHAR
STARTCHAR ch-230
ENCODING 230
SWIDTH 1000 0
DWIDTH 24 0
BBX 24 24 0 -3
BITMAP
000000
000006
ffffff
018000
018000
018000
018000
018180
01ffc0
030180
030180
034180
032180
033180
031980
031980
060180
060182
060182
060f82
07f183
ff81ff
7800fe
400000
ENDCHAR
STARTCHAR ch-231
ENCODING 231
SWIDTH 1000 0
DWIDTH 24 0
BBX 24 24 0 -3
BITMAP
0000e0
0060c0
fff0c0
3000c0
3000c0
3000c0
3000c0
30c0c6
3fefff
30c0c0
30c0c0
30c0c0
38c0c0
34c0c0
36c0c0
36c0c0
30c0c0
30c0c2
30c0c2
33c002
3cc003
f8ffff
607ffe
400000
ENDCHAR
STARTCHAR ch-233
ENCODING 233
SWIDTH 1000 0
DWIDTH 24 0
BBX 24 24 0 -3
BITMAP
000018
00603c
fff0f0
3003c0
300cc0
3000c0
3000c0
30c0c0
3fe0c6
30dfff
30c0c0
30c0c0
38c0c0
34c0c0
36c0c0
36c0c0
30c0c0
30c0c2
30c0c2
33c002
3cc003
f8ffff
607ffe
400000
ENDCHAR
STARTCHAR ch-238
ENCODING 238
SWIDTH 1000 0
DWIDTH 24 0
BBX 24 24 0 -3
BITMAP
020080
038080
030040
072060
063838
0c301f
18610e
2040c6
c08760
0ff830
078030
040000
000006
ffffff
018000
018180
03ffc0
030180
037982
061982
060183
7ffdff
3f00fe
200000
ENDCHAR
STARTCHAR ch-240
ENCODING 240
SWIDTH 1000 0
DWIDTH 24 0
BBX 24 24 0 -3
BITMAP
000000
006420
fff720
300620
300610
300610
300418
30cc0c
3fc80f
30dffe
30e318
30c318
38c318
34c318
36c318
36c638
30c630
30ccf2
30d062
33c002
3cc003
f8ffff
607ffe
400000
ENDCHAR
STARTCHAR ch-241
ENCODING 241
SWIDTH 1000 0
DWIDTH 24 0
BBX 24 24 0 -3
BITMAP
000010
006078
fff1e0
300f80
300180
300180
300198
30cffc
3fe180
30c180
30c18c
30dffe
38c180
34c184
36c184
36c186
30c1fe
30c0fc
30c002
33c002
3cc003
f8ffff
607ffe
400000
ENDCHAR
STARTCHAR ch-242
ENCODING 242
SWIDTH 1000 0
DWIDTH 24 0
BBX 24 24 0 -3
BITMAP
0001c0
006180
fff188
3001bc
3003e0
301d80
300180
30c99c
3fe998
30c998
30c998
30c998
38cff8
34c984
36c184
36c186
30c1fe
30c0fc
30c002
33c002
3cc003
f8ffff
607ffe
400000
ENDCHAR
STARTCHAR ch-246
ENCODING 246
SWIDTH 1000 0
DWIDTH 24 0
BBX 24 24 0 -3
BITMAP
408000
30e006
18dfff
188600
010600
fff600
198618
1987fc
198618
198618
19a718
fff698
1986d8
1986d8
198618
198618
198618
19861a
11860a
31860a
2186ce
21bf06
419c07
819003
ENDCHAR
STARTCHAR ch-247
ENCODING 247
SWIDTH 1000 0
DWIDTH 24 0
BBX 24 24 0 -3
BITMAP
002000
003800
06300c
7f7ffe
00460c
008608
000d10
038c80
fc1860
703038
40c01f
030006
000000
ffffff
018000
018180
03ffc0
030180
037982
061982
060183
7ffdff
3f00fe
200000
ENDCHAR
STARTCHAR ch-248
ENCODING 248
SWIDTH 1000 0
DWIDTH 24 0
BBX 24 24 0 -3
BITMAP
000000
006006
ffffff
3000c0
300080
300080
30090c
30cffe
3fec0c
30cc0c
30cc0c
30cffc
38cc0c
34cc0c
36cc0c
36cc0c
30cffc
30cc0c
30c002
33c002
3cc003
f8ffff
607ffe
400000
ENDCHAR
STARTCHAR ch-259
ENCODING 259
SWIDTH 1000 0
DWIDTH 24 0
BBX 24 24 0 -3
BITMAP
00c0e0
07e0c4
7e00c7
0604c6
0664c4
fff4c8
060da0
0f0da0
0ec110
1e6318
36620f
c6040e
061806
000000
ffffff
030000
030180
03ffc0
064180
063182
061182
7ffd83
3f01ff
2000fe
ENDCHAR
STARTCHAR ch-260
ENCODING 260
SWIDTH 1000 0
DWIDTH 24 0
BBX 24 24 0 -3
BITMAP
000000
006006
ffffff
090600
090600
492600
7ff618
4927fc
492618
492618
492718
7fe698
4026d8
0706d8
060618
066618
7ff618
06061a
06060a
06060a
07e66e
ff1f86
780e07
400803
ENDCHAR
STARTCHAR ch-261
ENCODING 261
SWIDTH 1000 0
DWIDTH 24 0
BBX 24 24 0 -3
BITMAP
000000
00c80c
ffeffe
300c00
300c00
300dfc
300d24
318d24
3fcdfc
318d24
318d24
318dfc
398820
358820
3599fc
359020
31a020
3183fe
318000
338002
3d8003
f1ffff
60fffe
400000
ENDCHAR
STARTCHAR ch-268
ENCODING 268
SWIDTH 1000 0
DWIDTH 24 0
BBX 24 24 0 -3
BITMAP
406000
7ff006
600fff
600300
67c300
644300
644318
6443fc
644318
67c318
600318
600398
6fe358
692358
692358
692318
692318
6fe31a
60030a
60030a
60336e
7fff86
600e07
600803
ENDCHAR
STARTCHAR ch-269
ENCODING 269
SWIDTH 1000 0
DWIDTH 24 0
BBX 24 24 0 -3
BITMAP
00e380
00c306
ffffff
00c300
00c300
1ffff8
184218
184218
1ffff8
200000
200006
7fffff
600006
c00004
dffff0
018000
018180
03ffc0
032180
061982
060982
3ffd83
1f01ff
1000fe
ENDCHAR
STARTCHAR ch-270
ENCODING 270
SWIDTH 1000 0
DWIDTH 24 0
BBX 24 24 0 -3
BITMAP
070000
063006
ffffff
060300
462300
7ff300
462318
4623fc
7fe318
462318
462398
7fe358
064358
063358
ffdb18
701b18
018318
fffb1a
21830a
31830a
3183ee
019f86
0f8e07
030803
ENDCHAR
STARTCHAR ch-273
ENCODING 273
SWIDTH 1000 0
DWIDTH 24 0
BBX 24 24 0 -3
BITMAP
208000
18e006
0cdfff
0c8300
413300
7ffb00
623318
6233fc
7ff318
623318
623318
623398
7ff358
000378
206378
3ff318
30631a
30631a
3fe30a
30630a
30636e
307f86
3fee07
306803
ENDCHAR
STARTCHAR ch-275
ENCODING 275
SWIDTH 1000 0
DWIDTH 24 0
BBX 24 24 0 -3
BITMAP
1060e0
1ff0c0
1860c4
186ffe
186210
1fe118
180110
180ffe
1fe0c0
3c60c4
2c6ffe
2c60c0
4fe0c0
8c60c0
00000c
7ffffe
018000
01ff80
032180
031982
060982
7ffd83
3f01ff
2000fe
ENDCHAR
STARTCHAR ch-277
ENCODING 277
SWIDTH 1000 0
DWIDTH 24 0
BBX 24 24 0 -3
BITMAP
001c00
001806
ffffff
040420
060630
480c40
310ffe
139840
062ffc
088840
ffcffc
630840
060840
180ffe
600800
000000
7ffffe
030000
03ff80
062182
061182
7ffd83
3f01ff
2000fe
ENDCHAR
STARTCHAR ch-280
ENCODING 280
SWIDTH 1000 0
DWIDTH 24 0
BBX 24 24 0 -3
BITMAP
0380e0
0300c0
0300c0
0300c0
0300c0
0300c6
ffffff
0300c0
0300c0
0300c0
0300c0
0300c0
0300c0
03ffc0
0300c0
0300c0
0300c0
0300c0
0300c0
0300c0
0300c0
03ffc0
0300c0
0300c0
ENDCHAR
STARTCHAR ch-282
ENCODING 282
SWIDTH 1000 0
DWIDTH 24 0
BBX 24 24 0 -3
BITMAP
01c1c0
018180
01818c
7ffffe
018180
018180
01ff80
018180
018180
01ff80
018180
018180
018186
ffffff
186300
186300
18c300
18c3fc
1981fc
1e0000
180000
18000c
1ffffe
180000
ENDCHAR
STARTCHAR ch-284
ENCODING 284
SWIDTH 1000 0
DWIDTH 24 0
BBX 24 24 0 -3
BITMAP
00c71c
07e618
7e0618
060618
060618
06061a
061fff
060618
fff618
060618
060618
060618
060618
26c7f8
3fe618
30c618
30c618
30c618
30c618
30c618
30c618
30c7f8
3fc618
30c618
ENDCHAR
STARTCHAR ch-286
ENCODING 286
SWIDTH 1000 0
DWIDTH 24 0
BBX 24 24 0 -3
BITMAP
041c40
031870
019860
1198c0
101906
3fffff
300006
6200c4
63ffe8
0300c0
0300c0
03ffc0
000000
0300c0
0300c6
ffffff
0300c0
0300c0
03ffc0
0300c0
0300c0
0300c0
03ffc0
0300c0
ENDCHAR
STARTCHAR ch-287
ENCODING 287
SWIDTH 1000 0
DWIDTH 24 0
BBX 24 24 0 -3
BITMAP
001c00
001800
041800
071800
061800
061800
0c1818
0ffffc
0c1800
181800
181800
301800
201800
401830
8ffff8
001800
001800
001800
001800
001800
001800
001806
ffffff
000000
ENDCHAR
STARTCHAR ch-291
ENCODING 291
SWIDTH 1000 0
DWIDTH 24 0
BBX 24 24 0 -3
BITMAP
001c00
001800
001818
3ffffc
020100
0181c0
00c180
10c206
1fffff
188000
18e700
18c600
18c618
18fffc
198600
190600
1a0630
30fff8
300600
200600
600600
400606
8fffff
000000
ENDCHAR
STARTCHAR ch-293
ENCODING 293
SWIDTH 1000 0
DWIDTH 24 0
BBX 24 24 0 -3
BITMAP
071006
061fff
2618c6
3618c6
3618c6
369ffe
3fd8c6
2618c6
6618c6
461ffe
861806
0681c0
3fc180
060186
063fff
060186
060186
06c306
070306
fc0606
70060c
400c0c
00187c
00e018
ENDCHAR
STARTCHAR ch-294
ENCODING 294
SWIDTH 1000 0
DWIDTH 24 0
BBX 24 24 0 -3
BITMAP
0060e0
fff0c0
0604c0
0606c0
4666c0
7fe4cc
6667fe
666cc0
6668c0
7ff0c0
6660cc
666ffe
6660c0
7fe0c0
0600c0
2600c0
1600c6
1c1fff
0c0000
0e0000
1bc000
11ffff
203ffe
c00000
ENDCHAR
STARTCHAR ch-296
ENCODING 296
SWIDTH 1000 0
DWIDTH 24 0
BBX 24 24 0 -3
BITMAP
10000c
1ffffe
18180c
18180c
18180c
18180c
18180c
1ffffc
18180c
18180c
18180c
18180c
18180c
18180c
1ffffc
18180c
18180c
18180c
18180c
10180c
30180c
20180c
40187c
800018
ENDCHAR
STARTCHAR ch-299
ENCODING 299
SWIDTH 1000 0
DWIDTH 24 0
BBX 24 24 0 -3
BITMAP
001c80
001860
001860
001806
ffffff
001800
001800
101818
1ffffc
181818
181818
181818
1ffff8
181818
181818
181818
1ffff8
181818
181818
181818
181818
181818
1818f8
181830
ENDCHAR
STARTCHAR ch-300
ENCODING 300
SWIDTH 1000 0
DWIDTH 24 0
BBX 24 24 0 -3
BITMAP
0000c0
0fffe0
000180
004300
003400
001800
001800
100018
1ffffc
181818
181818
181818
1ffff8
181818
181818
181818
1ffff8
181818
181818
181818
181818
181818
1818f8
180030
ENDCHAR
STARTCHAR ch-304
ENCODING 304
SWIDTH 1000 0
DWIDTH 24 0
BBX 24 24 0 -3
BITMAP
000000
20000c
3ffffe
30180c
30180c
30180c
30180c
30180c
30180c
30180c
30180c
3ffffc
30180c
30180c
30180c
30180c
30180c
30180c
30180c
30180c
30180c
3ffffc
30000c
30000c
ENDCHAR
STARTCHAR ch-305
ENCODING 305
SWIDTH 1000 0
DWIDTH 24 0
BBX 24 24 0 -3
BITMAP
001c00
001800
001800
001800
001800
001800
20180c
3ffffe
30180c
30180c
30180c
30180c
30180c
30180c
3ffffc
30180c
30180c
30180c
30180c
30180c
30180c
3ffffc
30000c
30000c
ENDCHAR
STARTCHAR ch-306
ENCODING 306
SWIDTH 1000 0
DWIDTH 24 0
BBX 24 24 0 -3
BITMAP
20000c
3ffffe
30180c
30180c
30180c
30180c
30180c
3ffffc
30180c
30180c
30180c
30180c
30180c
3ffffc
30180c
30180c
001800
001800
001800
001800
001800
001800
001800
001800
ENDCHAR
STARTCHAR ch-307
ENCODING 307
SWIDTH 1000 0
DWIDTH 24 0
BBX 24 24 0 -3
BITMAP
001c00
001800
001800
001800
101818
1ffffc
181818
181818
181818
181818
1ffff8
181818
181818
181818
181818
181818
1ffff8
181818
181818
001800
001800
001800
001800
001800
ENDCHAR
STARTCHAR ch-311
ENCODING 311
SWIDTH 1000 0
DWIDTH 24 0
BBX 24 24 0 -3
BITMAP
100018
1ffffc
181818
181818
181818
1ffff8
181818
181818
181818
1ffff8
180018
003800
003000
00300c
7ffffe
00300c
00300c
00600c
00600c
00c01c
018018
030038
0c01f0
700060
ENDCHAR
STARTCHAR ch-312
ENCODING 312
SWIDTH 1000 0
DWIDTH 24 0
BBX 24 24 0 -3
BITMAP
020000
038000
030000
070000
06000c
0ffffe
0c000c
18000c
30018c
6fffcc
8c618c
0c618c
0c618c
0fff8c
0c618c
0c618c
0c619c
0c6198
0fff98
0c01b8
000030
000070
0003e0
0000c0
ENDCHAR
STARTCHAR ch-314
ENCODING 314
SWIDTH 1000 0
DWIDTH 24 0
BBX 24 24 0 -3
BITMAP
000000
403000
7ff006
623fff
623060
623060
623060
623060
623060
7ff060
623060
623060
623060
623060
623060
623060
623060
7ff060
603060
600060
000060
000060
0003e0
0000c0
ENDCHAR
STARTCHAR ch-315
ENCODING 315
SWIDTH 1000 0
DWIDTH 24 0
BBX 24 24 0 -3
BITMAP
000006
ffffff
001800
001800
001800
0218c0
3bffee
3318cc
3318cc
3318cc
3318cc
33ffcc
3318cc
3318cc
3318cc
3318cc
3318cc
33ffcc
3300cc
30000c
30000c
3ffffc
30000c
30000c
ENDCHAR
STARTCHAR ch-316
ENCODING 316
SWIDTH 1000 0
DWIDTH 24 0
BBX 24 24 0 -3
BITMAP
080030
0ffff8
0c1830
0c1830
0c1830
0ffff0
0c1830
0c1830
0c1830
0ffff0
0c0030
000000
000006
ffffff
001800
001800
001800
001800
001800
001800
001800
001800
00f800
003000
ENDCHAR
STARTCHAR ch-324
ENCODING 324
SWIDTH 1000 0
DWIDTH 24 0
BBX 24 24 0 -3
BITMAP
000010
00801c
204038
102030
083030
0c1860
061840
0600c0
100098
1ffffc
181818
181818
181818
181818
181818
1ffff8
181818
181818
181818
181818
181818
1ffff8
180018
180018
ENDCHAR
STARTCHAR ch-326
ENCODING 326
SWIDTH 1000 0
DWIDTH 24 0
BBX 24 24 0 -3
BITMAP
070040
060070
060060
061860
fffc60
000060
000060
000060
403060
7ff8c0
6230c0
6230c0
6230c0
6230c0
623080
7ff080
623088
623184
623104
623106
62313e
7ff7e3
603383
603203
ENDCHAR
STARTCHAR ch-329
ENCODING 329
SWIDTH 1000 0
DWIDTH 24 0
BBX 24 24 0 -3
BITMAP
0001c0
000180
40c180
7fe180
64c18c
64dffe
64c180
64c180
64c180
64c180
7fc180
64c186
64ffff
64c340
64c340
64c340
64c660
7fc620
60c430
600c30
000818
00101f
00200e
00c006
ENDCHAR
STARTCHAR ch-330
ENCODING 330
SWIDTH 1000 0
DWIDTH 24 0
BBX 24 24 0 -3
BITMAP
000738
000630
40c630
7fe630
64c630
64c634
64fffe
64c630
64c630
7fc630
64c630
64c630
64c636
64ffff
64c630
64c630
7fc630
60c630
600c30
000c30
000830
001830
001030
006030
ENDCHAR
STARTCHAR ch-331
ENCODING 331
SWIDTH 1000 0
DWIDTH 24 0
BBX 24 24 0 -3
BITMAP
000400
000700
40c600
7fe600
64c600
64c606
64cfff
64cc20
64c838
64d830
7fd430
64e430
64c260
64c260
64c140
64c1c0
64c080
64c1c0
7fc160
60c330
000638
000c1f
00180e
006006
ENDCHAR
STARTCHAR ch-332
ENCODING 332
SWIDTH 1000 0
DWIDTH 24 0
BBX 24 24 0 -3
BITMAP
080030
0ffff8
0c1830
0c1830
0c1830
0ffff0
0c1830
0c1830
0c1830
0ffff0
0c7430
00e200
01c180
0300e0
0ee1ff
38c19e
c0c186
00c180
00c180
00c180
018180
018180
030180
0c0180
ENDCHAR
STARTCHAR ch-333
ENCODING 333
SWIDTH 1000 0
DWIDTH 24 0
BBX 24 24 0 -3
BITMAP
000180
000180
40c340
7fe340
64c220
64c630
64c418
64c81c
64d00f
7fe006
64ce38
64cc30
64cc30
64cc30
64cc30
64cc30
7fcc30
60cc30
600c30
000830
001830
001030
002030
004030
ENDCHAR
STARTCHAR ch-335
ENCODING 335
SWIDTH 1000 0
DWIDTH 24 0
BBX 24 24 0 -3
BITMAP
080030
0ffff8
0c1830
0c1830
0c1830
0ffff0
0c1830
0c1830
0c1830
0ffff0
0c0030
000000
000006
ffffff
060800
060808
06040e
06061c
060360
060180
063ce0
ffc07f
7c001e
400006
ENDCHAR
STARTCHAR ch-337
ENCODING 337
SWIDTH 1000 0
DWIDTH 24 0
BBX 24 24 0 -3
BITMAP
0e0000
0c0000
0c1006
0c1fff
0c98c6
0cf8c6
2cd8c6
2d98c6
2d18c6
6e18c6
6c18c6
cc1ffe
cc18c6
0c18c6
0c18c6
0c18c6
1c18c6
1a18c6
1918c6
1198c6
319ffe
219806
400000
800000
ENDCHAR
STARTCHAR ch-340
ENCODING 340
SWIDTH 1000 0
DWIDTH 24 0
BBX 24 24 0 -3
BITMAP
0001c0
402188
7fd18e
64d98c
64cd98
64cd90
64c1a0
64c180
64c18c
7fdffe
64c180
64c180
64c180
64c180
64c186
64ffff
7fc180
60c180
600180
000180
000180
000180
000180
000180
ENDCHAR
STARTCHAR ch-345
ENCODING 345
SWIDTH 1000 0
DWIDTH 24 0
BBX 24 24 0 -3
BITMAP
006000
11f006
1f0fff
180186
180186
188186
186306
183306
19f60c
fe347c
700818
401000
080030
0ffff8
0c1830
0c1830
0c1830
0ffff0
0c1830
0c1830
0c1830
0c1830
0ffff0
0c0030
ENDCHAR
STARTCHAR ch-346
ENCODING 346
SWIDTH 1000 0
DWIDTH 24 0
BBX 24 24 0 -3
BITMAP
004000
007000
00e100
0080c0
010070
3fffb8
1f8018
103800
003006
ffffff
00e100
01c080
038060
060038
0fffff
36186e
c61860
061860
07ffe0
061860
061860
061860
07ffe0
060060
ENDCHAR
STARTCHAR ch-347
ENCODING 347
SWIDTH 1000 0
DWIDTH 24 0
BBX 24 24 0 -3
BITMAP
000180
000180
40c340
7fe340
64c220
64c630
64c418
64c91c
64d1cf
7fe386
64c300
64c620
64cc38
64d070
64c0e0
64c188
7fc30e
60cc1c
600038
000070
0000e0
000180
000600
001800
ENDCHAR
STARTCHAR ch-348
ENCODING 348
SWIDTH 1000 0
DWIDTH 24 0
BBX 24 24 0 -3
BITMAP
001c00
001800
001806
ffffff
004000
007100
0061c0
048380
030700
018c40
019830
002018
7fffec
3f800c
200000
080030
0ffff8
0c1830
0c1830
0ffff0
0c1830
0c1830
0ffff0
0c0030
ENDCHAR
STARTCHAR ch-349
ENCODING 349
SWIDTH 1000 0
DWIDTH 24 0
BBX 24 24 0 -3
BITMAP
070200
060380
060300
060300
066330
fff3f8
000230
000630
40c630
7fe430
64cc60
64c860
64d060
64c040
7fc0c0
64c0a0
64c1a0
64c110
64c310
64c218
7fc40c
60c80f
601006
006006
ENDCHAR
STARTCHAR ch-352
ENCODING 352
SWIDTH 1000 0
DWIDTH 24 0
BBX 24 24 0 -3
BITMAP
004000
007000
046060
07fff0
060060
060060
07ffe0
060060
060060
07ffe0
060060
000000
20000c
3ffffe
30180c
30180c
30180c
3ffffc
30180c
30180c
30180c
3ffffc
30000c
30000c
ENDCHAR
STARTCHAR ch-354
ENCODING 354
SWIDTH 1000 0
DWIDTH 24 0
BBX 24 24 0 -3
BITMAP
100018
1ffffc
181818
181818
1ffff8
181818
181818
1ffff8
0318c0
0318c0
0318c6
ffffff
0318c0
0318c0
0318cc
7ffffe
001800
001800
001818
3ffffc
001800
001800
001800
001800
ENDCHAR
STARTCHAR ch-356
ENCODING 356
SWIDTH 1000 0
DWIDTH 24 0
BBX 24 24 0 -3
BITMAP
0000e0
0000c0
40c0c0
7fe0cc
64cffe
64c0c0
64c0c0
64c0c0
64c0c6
64dfff
7fc000
64c018
64c01a
64dfff
64c018
64c818
64c618
7fc318
60c318
600018
000018
000018
0000f8
000030
ENDCHAR
STARTCHAR ch-357
ENCODING 357
SWIDTH 1000 0
DWIDTH 24 0
BBX 24 24 0 -3
BITMAP
000200
000380
40c300
7fe618
64c7fc
64cc18
64ca30
64d230
64e160
64c0c0
7fc1e0
64c338
64c61f
64cc06
64f000
64cff8
64cc18
7fcc18
60cc18
600c18
000c18
000ff8
000c18
000c18
ENDCHAR
STARTCHAR ch-358
ENCODING 358
SWIDTH 1000 0
DWIDTH 24 0
BBX 24 24 0 -3
BITMAP
0001c0
000180
40c180
7fc18c
64dffe
64c180
64c180
64c180
64c186
7fffff
64c000
64c000
64c1c0
64c180
64c180
64c18c
7fdffe
60c180
600180
000180
000180
000186
007fff
000000
ENDCHAR
STARTCHAR ch-359
ENCODING 359
SWIDTH 1000 0
DWIDTH 24 0
BBX 24 24 0 -3
BITMAP
080030
0ffff8
0c1830
0c1830
0ffff0
0c1830
0c1830
0ffff0
008000
00c0c0
01ffe0
0381c0
064380
386e00
003c00
00e700
0381f0
1e007f
e3ffce
0300c0
0300c0
0300c0
03ffc0
0300c0
ENDCHAR
STARTCHAR ch-361
ENCODING 361
SWIDTH 1000 0
DWIDTH 24 0
BBX 24 24 0 -3
BITMAP
0000e0
0000c0
40c0c0
7fe0c0
64c0c6
64ffff
64c180
64c180
64c180
64c344
7fc347
64c646
64c624
64ce28
64d620
64e630
64c610
7fc618
60c618
00060c
0006cf
003f06
001c06
001000
ENDCHAR
STARTCHAR ch-362
ENCODING 362
SWIDTH 1000 0
DWIDTH 24 0
BBX 24 24 0 -3
BITMAP
0000f0
001ff8
3ff880
0418e0
0218c0
031880
031906
ffffff
007a00
00d900
019980
0318c0
061870
0c183f
30001e
c7ffe6
061060
061060
07ffe0
061060
061060
061060
07ffe0
060060
ENDCHAR
STARTCHAR ch-363
ENCODING 363
SWIDTH 1000 0
DWIDTH 24 0
BBX 24 24 0 -3
BITMAP
001c00
001830
0ffff8
001830
001836
ffffff
001830
001830
0ffff0
001800
1ffff8
001806
ffffff
000000
0ffff0
0c1830
0c1830
0ffff0
0c1830
0c1830
0ffff0
000006
ffffff
000000
ENDCHAR
STARTCHAR ch-365
ENCODING 365
SWIDTH 1000 0
DWIDTH 24 0
BBX 24 24 0 -3
BITMAP
000180
000180
40c340
7fe340
64c220
64c630
64c418
64c81c
64d00f
7feff6
64c180
64c180
64c18c
64fffe
64c180
64c180
7fd190
60dd88
60198c
003186
002186
004186
000f80
000300
ENDCHAR
STARTCHAR ch-368
ENCODING 368
SWIDTH 1000 0
DWIDTH 24 0
BBX 24 24 0 -3
BITMAP
100018
1ffffc
181818
181818
1ffff8
181818
181818
181818
1ffff8
180018
01c1c0
018180
01818c
3ffffe
018180
018180
018186
ffffff
010000
01c300
0380e0
070038
1c001c
60000c
ENDCHAR
STARTCHAR ch-371
ENCODING 371
SWIDTH 1000 0
DWIDTH 24 0
BBX 24 24 0 -3
BITMAP
080030
0ffff8
0c1830
0c1830
0ffff0
0c1830
0c1830
0ffff0
200000
200006
7fffff
600006
c00004
c3ffc8
0300c0
0300c0
03ffc0
0300c0
0300c0
03ffc0
0300c0
0300c6
ffffff
000000
ENDCHAR
STARTCHAR ch-372
ENCODING 372
SWIDTH 1000 0
DWIDTH 24 0
BBX 24 24 0 -3
BITMAP
000380
000300
40c304
7ffffe
64c300
64c308
64dffc
64c300
64c300
7fc304
64fffe
64c600
64c618
64c41a
64ffff
64cc18
7fca18
60d918
601198
003198
002018
004018
0180f8
000030
ENDCHAR
STARTCHAR ch-374
ENCODING 374
SWIDTH 1000 0
DWIDTH 24 0
BBX 24 24 0 -3
BITMAP
041c40
031870
019860
1198c0
101906
3fffff
300006
6200c4
63ffe8
0300c0
0300c0
03ffc0
0300c0
000000
080030
0ffff8
0c1830
0c1830
0ffff0
0c1830
0c1830
0c1830
0ffff0
0c0030
ENDCHAR
STARTCHAR ch-375
ENCODING 375
SWIDTH 1000 0
DWIDTH 24 0
BBX 24 24 0 -3
BITMAP
410606
7fffff
490606
494444
492c2c
491818
490c1c
491626
492646
7f4080
490000
49060c
497ffe
49048c
49248c
491848
490c58
7f1650
413620
402050
0040d8
00818f
01030e
000c06
ENDCHAR
STARTCHAR ch-376
ENCODING 376
SWIDTH 1000 0
DWIDTH 24 0
BBX 24 24 0 -3
BITMAP
0001c0
000180
40c186
7fffff
64c180
64c340
64c330
64c618
64c818
64c006
7fffff
64c00c
64c00c
64c8cc
64cfcc
64cccc
64cccc
7fcccc
60cfcc
600ccc
00000c
00000c
00007c
000018
ENDCHAR
STARTCHAR ch-383
ENCODING 383
SWIDTH 1000 0
DWIDTH 24 0
BBX 24 24 0 -3
BITMAP
081c40
0e1870
0c1860
521a90
23991c
331998
3619b0
051828
089844
ffdbfe
78d986
401840
001866
ffffff
000c00
000c20
3fe638
222630
222362
3fe1c2
2221c2
222373
3fe63f
00180e
ENDCHAR
STARTCHAR ch-386
ENCODING 386
SWIDTH 1000 0
DWIDTH 24 0
BBX 24 24 0 -3
BITMAP
040020
07fff0
041020
07ffe0
041020
041020
07ffe0
180018
060060
00e700
0f00f0
240036
3fffff
600006
c3ffc4
c300c8
0300c0
03ffc0
0300c0
0300c0
03ffc0
0300c0
0300c6
ffffff
ENDCHAR
STARTCHAR ch-390
ENCODING 390
SWIDTH 1000 0
DWIDTH 24 0
BBX 24 24 0 -3
BITMAP
030006
ffffff
030000
031ffc
43188c
7f188c
631ffc
60188c
60188c
631ffc
ff0000
c3ffff
230000
231ffc
fb188c
23188c
231ffc
2b188c
f3188c
431ffc
070000
060006
3e7fff
0c0000
ENDCHAR
STARTCHAR ch-391
ENCODING 391
SWIDTH 1000 0
DWIDTH 24 0
BBX 24 24 0 -3
BITMAP
000180
000100
413ffc
7f8100
490100
491ff8
490002
497fff
490002
7f1ff4
490100
490100
493ff8
490000
49ffff
49000c
7f000c
417eff
40660c
0066cc
00664c
007e0c
00003c
000018
ENDCHAR
STARTCHAR ch-393
ENCODING 393
SWIDTH 1000 0
DWIDTH 24 0
BBX 24 24 0 -3
BITMAP
020040
03ffe0
021040
03ffc0
021040
03ffc0
000000
3fc3fc
244244
3fc3fc
244244
3fc3fc
001c00
201806
3fffff
618006
c18184
c3ffc8
030180
066180
063380
003300
000306
ffffff
ENDCHAR
STARTCHAR ch-394
ENCODING 394
SWIDTH 1000 0
DWIDTH 24 0
BBX 24 24 0 -3
BITMAP
020040
03ffe0
021040
03ffc0
021040
03ffc0
000000
1fe7f8
122488
1fe7f8
122488
1fe7f8
200006
3fffff
600006
c3ffc4
c300c8
03ffc0
0300c0
0300c0
03ffc0
0300c0
0300c6
ffffff
ENDCHAR
STARTCHAR ch-395
ENCODING 395
SWIDTH 1000 0
DWIDTH 24 0
BBX 24 24 0 -3
BITMAP
000000
000006
7fffff
001806
001804
001808
001800
041800
071800
061800
061830
061ff8
061800
061800
0c1800
0c1800
0c1800
0a1800
191800
10d800
307800
201fff
4003fe
800000
ENDCHAR
STARTCHAR ch-398
ENCODING 398
SWIDTH 1000 0
DWIDTH 24 0
BBX 24 24 0 -3
BITMAP
0001c0
00c180
ffe180
00c186
00bfff
050180
060180
06218c
763ffe
66318c
66318c
67f18c
66318c
663ffc
66338c
660380
6607c0
6605a0
66cdb0
67199c
fc318f
706186
418180
000180
ENDCHAR
STARTCHAR ch-399
ENCODING 399
SWIDTH 1000 0
DWIDTH 24 0
BBX 24 24 0 -3
BITMAP
0001c0
00c180
ffe180
00c186
00bfff
050300
060320
060218
76040c
663ff6
661e06
67d000
660000
661138
661d30
661930
661930
661930
66d930
671132
fc3132
702133
40403f
01801e
ENDCHAR
STARTCHAR ch-401
ENCODING 401
SWIDTH 1000 0
DWIDTH 24 0
BBX 24 24 0 -3
BITMAP
38000c
30cffe
31e00c
370218
3801a0
3040c0
3060c0
3fe006
1fdfff
2000c6
3800c4
3088c8
3fcec0
660cc0
860cc6
064cff
ffecc0
0c0cc0
0c0cc0
1b1ac0
1999c0
31b0e0
60607f
83801e
ENDCHAR
STARTCHAR ch-404
ENCODING 404
SWIDTH 1000 0
DWIDTH 24 0
BBX 24 24 0 -3
BITMAP
000e00
000c00
080c06
0fffff
0c0000
8c0000
4c0000
6c0006
6cffff
0c0180
0c0180
0c0180
fc0180
6c0180
4c0180
0c0180
180180
180180
100180
300180
200180
400180
000f80
000300
ENDCHAR
STARTCHAR ch-410
ENCODING 410
SWIDTH 1000 0
DWIDTH 24 0
BBX 24 24 0 -3
BITMAP
000e00
000c00
080c06
0fffff
0c0000
8c1000
4c1c00
6c1800
6c18c0
0c3fe0
0c30c0
0c6180
fc4180
6c8300
4d0380
0c0680
1804c0
180c40
101860
303030
206038
40c01f
01800e
060006
ENDCHAR
STARTCHAR ch-413
ENCODING 413
SWIDTH 1000 0
DWIDTH 24 0
BBX 24 24 0 -3
BITMAP
000e00
000c00
080c06
0fffff
0c0000
8c0000
4c0380
6c0300
6c0300
0c0300
0ce30e
0cc30c
fcc30c
6cc30c
4cc30c
0cc30c
18c30c
18c30c
10c30c
30c30c
20c30c
40fffc
00c00c
00c00c
ENDCHAR
STARTCHAR ch-419
ENCODING 419
SWIDTH 1000 0
DWIDTH 24 0
BBX 24 24 0 -3
BITMAP
000e00
000c00
080c06
0fffff
0c0000
8c1c80
4c1860
6c1820
6c180c
0dfffe
0c1800
0c19c0
fc1980
6c1980
4c1980
0c1980
183180
183180
103182
306182
206182
40c183
0181ff
0600fe
ENDCHAR
STARTCHAR ch-421
ENCODING 421
SWIDTH 1000 0
DWIDTH 24 0
BBX 24 24 0 -3
BITMAP
000e00
000c00
080c06
0fffff
0c0600
8c0600
4c0d00
6c0c80
6c1860
0c3038
0c601f
0d8006
fc3870
6c3060
4c3060
0c3060
183060
183060
103060
306060
206060
404060
008060
030060
ENDCHAR
STARTCHAR ch-427
ENCODING 427
SWIDTH 1000 0
DWIDTH 24 0
BBX 24 24 0 -3
BITMAP
000e00
000c00
080c06
0fffff
8c0000
4c40c0
6c7fe0
6c60c0
0c60c0
0c60c0
0cc0fe
1c807e
ed0000
6c0030
4dfff8
0c4070
0c20e0
1831c0
181b00
300e00
201bc0
4070ff
81c03e
1e0006
ENDCHAR
STARTCHAR ch-433
ENCODING 433
SWIDTH 1000 0
DWIDTH 24 0
BBX 24 24 0 -3
BITMAP
000e00
000c00
080c06
0fffff
0c2000
8c3800
4c3018
6c3ffc
6c6018
0c4018
0cff18
0d0318
fe0318
6c0318
4c4318
187f38
186030
1861f0
106062
306002
206002
406003
007fff
003ffe
ENDCHAR
STARTCHAR ch-434
ENCODING 434
SWIDTH 1000 0
DWIDTH 24 0
BBX 24 24 0 -3
BITMAP
000700
000600
080606
0fffff
8c0000
4c0380
6c0300
6c830c
0cfffe
0cc308
0cc310
0cc300
fcc330
6cfff8
4cc830
0cc860
08c460
1886c0
198380
110380
3206e0
240c7f
48301e
81c006
ENDCHAR
STARTCHAR ch-435
ENCODING 435
SWIDTH 1000 0
DWIDTH 24 0
BBX 24 24 0 -3
BITMAP
000e00
000c00
080c06
0fffff
0c0000
8c0000
4c7070
6c6060
6c6066
0fffff
0c6060
0c6060
fc6060
6c6060
4c6060
0c7fe0
186060
186060
106060
306060
206060
407fe0
006060
006060
ENDCHAR
STARTCHAR ch-437
ENCODING 437
SWIDTH 1000 0
DWIDTH 24 0
BBX 24 24 0 -3
BITMAP
000e00
000c00
080c06
0fffff
0c0000
8c0000
4c38e0
6c30c0
6c30c0
0d30c4
0d34c7
0d3ece
fd30d8
6d30e0
4d30c0
0d30c0
1930c0
1930c0
1130c2
3130c2
213ec2
4ff0c3
0780ff
04007e
ENDCHAR
STARTCHAR ch-440
ENCODING 440
SWIDTH 1000 0
DWIDTH 24 0
BBX 24 24 0 -3
BITMAP
000e00
000c00
080c06
0fffff
0c0000
8c0000
4c4030
6c7ff8
6c6030
0c6030
0c6030
0c6030
fc7ff0
6c6030
4c6030
0c6030
186030
186030
107ff0
306030
200000
400006
07ffff
000000
ENDCHAR
STARTCHAR ch-441
ENCODING 441
SWIDTH 1000 0
DWIDTH 24 0
BBX 24 24 0 -3
BITMAP
000e00
000c00
080c06
0fffff
0c0000
8c0600
4c0600
6c0d00
6c0c80
0c1860
0c3038
0c621f
1cc706
ff0e00
6c1840
4c60e0
0801c0
180708
181c1c
10e038
3000e0
200380
401c00
01e000
ENDCHAR
STARTCHAR ch-444
ENCODING 444
SWIDTH 1000 0
DWIDTH 24 0
BBX 24 24 0 -3
BITMAP
000e00
000c00
080c06
0fffff
0c1000
8c1c00
4c1860
6c3ff0
6c3060
0c68c0
0cc580
0d0300
fc0780
6c0ce0
4c187f
0c601e
1b8e06
180380
100180
300000
203c00
4007c0
0001e0
000060
ENDCHAR
STARTCHAR ch-445
ENCODING 445
SWIDTH 1000 0
DWIDTH 24 0
BBX 24 24 0 -3
BITMAP
000e00
000c00
080c06
0fffff
0c0000
8c0000
4c4030
6c7ff8
6c6030
0c6030
0c6030
0c6030
fc7ff0
6c6030
4c6030
0c6030
186030
187ff0
106030
306030
206030
406036
07ffff
000000
ENDCHAR
STARTCHAR ch-446
ENCODING 446
SWIDTH 1000 0
DWIDTH 24 0
BBX 24 24 0 -3
BITMAP
000700
000600
080606
0fffff
0c4000
8c7000
4c6000
6c6018
6c7ffc
0cc600
0c8600
1d0600
ec0600
6c0606
4fffff
0c0d00
180d00
181880
1018c0
303060
206038
40c01f
83000e
0c0006
ENDCHAR
STARTCHAR ch-450
ENCODING 450
SWIDTH 1000 0
DWIDTH 24 0
BBX 24 24 0 -3
BITMAP
000e00
000c00
080c06
0fffff
0c0000
8c0000
4ce000
6cc000
6cc086
0cccff
0ffec6
0cccc6
fcccc6
6cccc6
4cccc6
0cccc6
18ccc6
18ccc6
118cc6
318cc6
211cfe
4318c6
0278c6
0c3000
ENDCHAR
STARTCHAR ch-451
ENCODING 451
SWIDTH 1000 0
DWIDTH 24 0
BBX 24 24 0 -3
BITMAP
000e00
000c00
080c06
0fffff
0c0000
8c0700
4c0600
6c060c
6dfffe
0c0800
0c0e00
0c0c00
fc0880
6c90e0
4c61c0
0c3180
183300
180600
100420
300810
201018
41fffc
00f80c
00800c
ENDCHAR
STARTCHAR ch-453
ENCODING 453
SWIDTH 1000 0
DWIDTH 24 0
BBX 24 24 0 -3
BITMAP
000e00
000c00
080c06
0fffff
0c0000
8c0000
4c0006
6dffff
6c0600
0c0600
0c860c
0cfffe
fcc60c
6ccd0c
4ccccc
0cc86c
18d06c
18e06c
10c00c
30c00c
20c00c
40c00c
00c07c
00c018
ENDCHAR
STARTCHAR ch-455
ENCODING 455
SWIDTH 1000 0
DWIDTH 24 0
BBX 24 24 0 -3
BITMAP
000e00
000c00
080c06
0fffff
8c0000
4c0000
6c000c
6cfffe
0c0300
0c0300
0c0300
1c7300
fc6300
6c6318
4c63fc
0c6300
186300
186300
106300
306300
206300
406306
87ffff
000000
ENDCHAR
STARTCHAR ch-458
ENCODING 458
SWIDTH 1000 0
DWIDTH 24 0
BBX 24 24 0 -3
BITMAP
000e00
000c00
080c06
0fffff
0c0000
8c0600
4c0600
6c0d00
6c1880
0c3060
0c6038
0cc01f
ff3fe6
6c0600
4c0600
0c0630
18fff8
180600
100600
300600
200600
40060c
03fffe
000000
ENDCHAR
STARTCHAR ch-461
ENCODING 461
SWIDTH 1000 0
DWIDTH 24 0
BBX 24 24 0 -3
BITMAP
000e00
080c06
0fffff
0c0000
8c0700
4c060c
6ffffe
6c0600
0c0618
0dfffc
0c0618
0c0618
fcfff8
6cc600
4cc60c
0dfffe
198d0c
180d0c
1018bc
3018d8
203070
40603c
01801f
060006
ENDCHAR
STARTCHAR ch-466
ENCODING 466
SWIDTH 1000 0
DWIDTH 24 0
BBX 24 24 0 -3
BITMAP
000e00
000c00
080c06
0fffff
0c0040
8c4070
4c3060
6c1840
6c1898
0cfffc
0c0600
0c0600
fc0618
6cfffc
4c0600
0c0600
180606
1bffff
100600
300600
200600
400600
000600
000600
ENDCHAR
STARTCHAR ch-468
ENCODING 468
SWIDTH 1000 0
DWIDTH 24 0
BBX 24 24 0 -3
BITMAP
000e00
000c00
080c06
0fffff
0c0000
8c0700
4c0618
6dfffc
6c0600
0c0600
0c0606
0fffff
fc0000
6c0060
4c0066
1bffff
180060
108060
306060
203060
403060
800060
0003e0
0000c0
ENDCHAR
STARTCHAR ch-469
ENCODING 469
SWIDTH 1000 0
DWIDTH 24 0
BBX 24 24 0 -3
BITMAP
000700
000600
040606
07ffff
060000
064030
467ff8
266030
366030
367ff0
066030
066030
0e6030
f67ff0
666208
46620e
0c610c
0c6118
0860a0
1860c0
106670
27f83f
43c01e
020006
ENDCHAR
STARTCHAR ch-472
ENCODING 472
SWIDTH 1000 0
DWIDTH 24 0
BBX 24 24 0 -3
BITMAP
000e00
000c00
080c06
0fffff
0c0000
8c0000
4dfffe
6c0000
6c0000
0c7ff8
0c6018
0c6018
0c6018
fc6018
6c7ff8
4c0000
184020
183038
101830
301860
201840
400086
87ffff
000000
ENDCHAR
STARTCHAR ch-473
ENCODING 473
SWIDTH 1000 0
DWIDTH 24 0
BBX 24 24 0 -3
BITMAP
000e00
000c00
080c06
0fffff
0c0000
8c0000
4dfffc
6c4210
6c6318
0cc630
0c8420
0d0840
fc8420
6c4210
4c6318
0c6318
180000
19fffc
100600
300600
200600
400606
07ffff
000000
ENDCHAR
STARTCHAR ch-475
ENCODING 475
SWIDTH 1000 0
DWIDTH 24 0
BBX 24 24 0 -3
BITMAP
000e00
000c00
080c06
0fffff
0c0000
8c0030
4cfff8
6c0060
6c0880
0c0700
0c830c
0cfffe
0cc30c
fcc30c
6cfffc
48c30c
18c30c
18c30c
10fffc
30c30c
20c30c
40c30c
80c33c
00c318
ENDCHAR
STARTCHAR ch-478
ENCODING 478
SWIDTH 1000 0
DWIDTH 24 0
BBX 24 24 0 -3
BITMAP
000e00
000c00
080c06
0fffff
0c0000
8c000c
4dfffe
6c0300
6c0700
0c0e00
0c1e70
0c361c
fc660e
6d8606
4c0600
0c0600
188018
18fffc
10c018
30c018
20c018
40c018
00fff8
00c018
ENDCHAR
STARTCHAR ch-482
ENCODING 482
SWIDTH 1000 0
DWIDTH 24 0
BBX 24 24 0 -3
BITMAP
000e00
000c00
100c06
1fffff
180000
980c00
587e0e
7be0ec
7860cc
1860cc
186ccc
1ffecc
1860cc
f8e0cc
78f0cc
59eccc
1166cc
1366cc
32600c
24600c
28600c
40600c
80607c
006018
ENDCHAR
STARTCHAR ch-483
ENCODING 483
SWIDTH 1000 0
DWIDTH 24 0
BBX 24 24 0 -3
BITMAP
000e00
000c00
080c06
0fffff
0c0000
8c0700
4c0600
6c060c
6dfffe
0c0600
0c0600
0c0600
fc0618
6cfffc
4c0000
0c0400
181b00
189990
10998c
319826
219823
431833
031ff0
000fe0
ENDCHAR
STARTCHAR ch-489
ENCODING 489
SWIDTH 1000 0
DWIDTH 24 0
BBX 24 24 0 -3
BITMAP
000e00
000c00
080c06
0fffff
0c0000
8c0700
4c8608
6cfffc
6c8608
0c8608
0cfff8
1c8608
ec8608
6cfff8
4c0600
180630
19fff8
182060
1010c0
300d80
200700
401de0
80f07f
0f001e
ENDCHAR
STARTCHAR ch-496
ENCODING 496
SWIDTH 1000 0
DWIDTH 24 0
BBX 24 24 0 -3
BITMAP
000e00
000c00
080c06
0fffff
0c0000
8c0710
4c461c
6c4618
6cc620
0ccd80
0c0c60
0c1838
fc601c
6d800c
4c0700
0c4610
18461c
18c618
11cd10
318ca0
201cc0
403870
00e03f
07000e
ENDCHAR
STARTCHAR ch-498
ENCODING 498
SWIDTH 1000 0
DWIDTH 24 0
BBX 24 24 0 -3
BITMAP
000e00
000c00
080c06
0fffff
0c0000
8c7070
4c6060
6c6060
6c6666
0fffff
0c6060
0c6060
fd6968
6d6968
4d6968
0d6968
196968
19696a
11696a
336b6a
22626f
426267
046460
006060
ENDCHAR
STARTCHAR ch-499
ENCODING 499
SWIDTH 1000 0
DWIDTH 24 0
BBX 24 24 0 -3
BITMAP
000e00
000c00
080c06
0fffff
0c0000
8c7070
4c6060
6c6060
6c6666
0fffff
0c6060
0c6060
fcf0f0
6ce8f0
4cecf0
0dede8
196168
19616c
136367
326266
246462
406060
006060
006060
ENDCHAR
STARTCHAR ch-500
ENCODING 500
SWIDTH 1000 0
DWIDTH 24 0
BBX 24 24 0 -3
BITMAP
000e00
000c00
080c06
0fffff
0c0000
8c8000
4ce000
6cc086
6c8cff
0dfec6
0d60c6
1e60c6
fc60c6
6c66c6
4fffc6
0860c6
1860c6
10d0c6
30c8c6
208cc6
4186c6
8106fe
0200c6
0c0000
ENDCHAR
STARTCHAR ch-506
ENCODING 506
SWIDTH 1000 0
DWIDTH 24 0
BBX 24 24 0 -3
BITMAP
000e00
000c00
080c06
0fffff
0c0400
8c0700
4c860c
6cfffe
6cc30c
0cc30c
0cfffc
0cc30c
fcc30c
6cfffc
4c1000
0c1800
1831c0
184186
13ffff
300180
200180
400180
000180
000180
ENDCHAR
STARTCHAR ch-508
ENCODING 508
SWIDTH 1000 0
DWIDTH 24 0
BBX 24 24 0 -3
BITMAP
000e00
000c00
080c06
0fffff
0c0000
8c800c
4cfffe
6cc00c
6cc30c
0cc30c
0cdfec
0cc30c
fcc30c
6cc30c
4ccfcc
0cc84c
18c84c
18c84c
10c84c
30cfcc
20c00c
40c00c
00fffc
00c00c
ENDCHAR
STARTCHAR ch-510
ENCODING 510
SWIDTH 1000 0
DWIDTH 24 0
BBX 24 24 0 -3
BITMAP
000e00
000c00
080c06
0fffff
0c0000
8c0000
4d1806
6dffff
6d980c
0d980c
0d93cc
0d924c
fda24c
6d924c
4d924c
0d9a4c
199a4c
199bcc
11980c
31f80c
21b00c
41800c
01807c
018018
ENDCHAR
STARTCHAR ch-511
ENCODING 511
SWIDTH 1000 0
DWIDTH 24 0
BBX 24 24 0 -3
BITMAP
000e00
000c00
080c06
0fffff
0c0000
8c00e0
4c07f0
6cfe00
6c0606
0fffff
0c1e80
0c3660
fc6638
6cc61f
4f0606
0c1800
1bfffe
183060
1060c0
30ff80
20c3e0
400e78
00381c
03c00c
ENDCHAR
ENDFONT
