STARTFONT 2.1
FONT jis.jis8800.24
SIZE 24 72 72
FONTBOUNDINGBOX 24 24 0 -3
STARTPROPERTIES 4
FONT_DESCENT 3
FONT_ASCENT 21
DEFAULT_CHAR 5
COPYRIGHT "Copyright (c) 1992 AT&T - All rights reserved."
ENDPROPERTIES
CHARS 153
STARTCHAR ch-5
ENCODING 5
SWIDTH 1000 0
DWIDTH 24 0
BBX 24 24 0 -3
BITMAP
0c2004
083ffe
082244
082244
082244
493e7c
7fa244
490240
490a40
493a7c
492244
492244
492244
7f3e7c
492244
482244
0a2244
092244
09be7c
0fa242
f9a202
600203
4003ff
0001fe
ENDCHAR
STARTCHAR ch-13
ENCODING 13
SWIDTH 1000 0
DWIDTH 24 0
BBX 24 24 0 -3
BITMAP
000040
188470
10fe60
108460
108440
52fcc6
7e84ff
528486
52fc84
523138
523030
526630
527f30
7ec630
518630
10b638
14e628
148668
1e8668
f2f64c
60764c
400ccf
007c86
001906
ENDCHAR
STARTCHAR ch-14
ENCODING 14
SWIDTH 1000 0
DWIDTH 24 0
BBX 24 24 0 -3
BITMAP
0e0e1c
0c0c18
0c7fff
0c0c18
0c0c18
4c8380
7f8306
4cffff
4c8620
4c8c10
4c899c
4c918f
4ceff6
7f8180
4c8180
0c0c18
0c0c1a
0d7fff
0d8c18
0f8c18
fc9818
701818
403018
00c018
ENDCHAR
STARTCHAR ch-15
ENCODING 15
SWIDTH 1000 0
DWIDTH 24 0
BBX 24 24 0 -3
BITMAP
004006
1864ff
107e26
104426
10cc26
528826
7f9266
52ff5e
52928c
529200
52921c
52fe58
529258
7e927f
529298
109218
14fe18
1482ff
1e8218
f28218
618218
410218
011e18
020618
ENDCHAR
STARTCHAR ch-17
ENCODING 17
SWIDTH 1000 0
DWIDTH 24 0
BBX 24 24 0 -3
BITMAP
0e060c
0c14a9
0c15ab
0c356a
0c2c58
4c8a16
7fd323
4ca141
4c9006
4c9fff
4cb006
4cb1c4
4c8180
7f8186
4cbfff
0c03a0
0c03a0
0c87b0
0c8590
0fcd98
fcc98f
70118e
406186
000180
ENDCHAR
STARTCHAR ch-21
ENCODING 21
SWIDTH 1000 0
DWIDTH 24 0
BBX 24 24 0 -3
BITMAP
0e0006
0c3fff
0c00c0
0c10c6
0c1fff
4cb0c6
7ff0c4
4c8edc
4c80c0
4c80c0
4c8edc
4c80c0
4c8006
7fbfff
4c80c0
0c1086
0c1fff
0c9926
0c9926
0fd926
fcd926
70d926
40193e
00192c
ENDCHAR
STARTCHAR ch-22
ENCODING 22
SWIDTH 1000 0
DWIDTH 24 0
BBX 24 24 0 -3
BITMAP
0e0738
0c0632
0c7fff
0c0630
0c0840
4c8c64
7fdffe
4c9840
4cbffc
4cf840
4c9ffc
4c9840
4c9846
7f9fff
4c9800
0c0006
0c7fff
0d080c
0d8418
0f8670
fc83c0
7001f0
40073f
00780e
ENDCHAR
STARTCHAR ch-33
ENCODING 33
SWIDTH 1000 0
DWIDTH 24 0
BBX 24 24 0 -3
BITMAP
00c000
01ffc0
030180
07ff00
000606
ffffff
00e060
0190f0
0e7980
f1ce00
0e3de0
70ec7f
070c0e
787c00
061860
7fe7fe
462462
462462
7fe7fe
060060
064064
ffe7fe
7c33c3
403203
ENDCHAR
STARTCHAR ch-34
ENCODING 34
SWIDTH 1000 0
DWIDTH 24 0
BBX 24 24 0 -3
BITMAP
001c00
001818
3ffffc
003000
1ffff8
004106
ffffff
030080
0ffff0
3900bf
c1ff86
010080
01ff80
070070
462462
7ff7ff
462462
462462
7fe7fe
060060
064064
ffe7fe
7c33c3
403203
ENDCHAR
STARTCHAR ch-35
ENCODING 35
SWIDTH 1000 0
DWIDTH 24 0
BBX 24 24 0 -3
BITMAP
002006
0e3fff
0c3000
0c3110
0c3ffe
4cb110
7fb110
4cb7fc
4cb444
4cb444
4cb7fc
4cb444
4cb444
7fb7fc
4cb040
4c2842
0d2fff
0fa842
1ce852
f8487a
604bca
40c902
00881e
03080c
ENDCHAR
STARTCHAR ch-39
ENCODING 39
SWIDTH 1000 0
DWIDTH 24 0
BBX 24 24 0 -3
BITMAP
001800
00100c
7ffffe
001000
0ffff0
200006
3fffff
600006
cfffe6
c1800c
03ffe0
070060
1b0060
63ffe0
000000
060060
7fe7fe
462462
462462
7fe7fe
064064
066066
ffb7fb
703383
ENDCHAR
STARTCHAR ch-49
ENCODING 49
SWIDTH 1000 0
DWIDTH 24 0
BBX 24 24 0 -3
BITMAP
001800
07ffe0
041820
041820
07ffe0
001840
1fffb0
070010
060060
7fe7fe
462462
462462
7fe7fe
064064
062062
fff7ff
701381
000000
1ffff0
18c630
18c630
18c636
ffffff
000000
ENDCHAR
STARTCHAR ch-54
ENCODING 54
SWIDTH 1000 0
DWIDTH 24 0
BBX 24 24 0 -3
BITMAP
00600c
7ff7fe
108110
108110
fff7ff
028050
0680d2
0cf193
30c61f
c0000e
1ffff8
100008
1ffff8
100008
1ffff8
060060
7fe7fe
462462
462462
7fe7fe
064064
066066
ffb7fb
703303
ENDCHAR
STARTCHAR ch-57
ENCODING 57
SWIDTH 1000 0
DWIDTH 24 0
BBX 24 24 0 -3
BITMAP
001000
7ffffe
001000
07ffe0
041020
07ffe0
401006
7fffff
c00006
cfffcc
008000
03ffe0
0e0020
33ffe0
000000
060060
7fe7fe
462462
462462
7fe7fe
064064
066066
ffb7fb
703383
ENDCHAR
STARTCHAR ch-59
ENCODING 59
SWIDTH 1000 0
DWIDTH 24 0
BBX 24 24 0 -3
BITMAP
080008
0c7e0c
580058
64ff64
260026
0c7e0c
120012
ff7eff
690069
087e08
6a424c
49426a
897e4b
080089
001800
1ffff8
181818
181818
1ffff8
001840
001830
7fffdc
3fe00e
200006
ENDCHAR
STARTCHAR ch-64
ENCODING 64
SWIDTH 1000 0
DWIDTH 24 0
BBX 24 24 0 -3
BITMAP
002000
003800
003000
002000
104030
1ffff8
18c630
18c630
18c630
18c630
18c630
18c630
18c630
18c630
18c630
18c630
18c630
18c630
18c630
18c630
18c630
18c636
ffffff
000000
ENDCHAR
STARTCHAR ch-66
ENCODING 66
SWIDTH 1000 0
DWIDTH 24 0
BBX 24 24 0 -3
BITMAP
040000
070006
060fff
0c00c6
4820c6
7ff4c6
4924c6
4924c6
4922c6
492286
492386
492186
49218c
4921cc
49234c
49236c
492238
497618
4fc40f
fe0c1e
700818
401030
0021f0
004060
ENDCHAR
STARTCHAR ch-68
ENCODING 68
SWIDTH 1000 0
DWIDTH 24 0
BBX 24 24 0 -3
BITMAP
040000
070018
061ffc
0c0318
482318
7ff318
492318
492318
492318
492318
49231a
493fff
492318
492318
492318
492318
492318
497318
4fc318
fe0318
700318
40031a
003fff
000000
ENDCHAR
STARTCHAR ch-70
ENCODING 70
SWIDTH 1000 0
DWIDTH 24 0
BBX 24 24 0 -3
BITMAP
002000
003800
103018
1ffffc
18c318
18c318
18c318
18c31a
ffffff
040800
070e08
061c0e
0c381c
18f438
333460
c03280
023300
03b180
0730c0
0e3070
1c303f
30301e
c03006
003000
ENDCHAR
STARTCHAR ch-76
ENCODING 76
SWIDTH 1000 0
DWIDTH 24 0
BBX 24 24 0 -3
BITMAP
040000
07000c
0e3ffe
0c0000
180000
310000
41c000
838000
030006
077fff
060060
0e0060
1e0060
360060
660060
860060
060060
060060
060060
060060
060060
060060
0603e0
0600c0
ENDCHAR
STARTCHAR ch-77
ENCODING 77
SWIDTH 1000 0
DWIDTH 24 0
BBX 24 24 0 -3
BITMAP
080000
0e400c
1c31fe
181800
301800
200000
410000
88c000
0e6406
0c65ff
180830
180830
381830
381030
583030
983030
186030
19e030
18e030
186030
186030
186030
1871f0
183060
ENDCHAR
STARTCHAR ch-82
ENCODING 82
SWIDTH 1000 0
DWIDTH 24 0
BBX 24 24 0 -3
BITMAP
101c00
1c1806
18183f
301980
31ffc0
601000
481c00
8e1800
0c3006
1d207f
18c40c
38670c
386e0c
580c0c
98180c
18100c
18320c
18210c
18410c
1bff8c
19e18c
19018c
18007c
180018
ENDCHAR
STARTCHAR ch-83
ENCODING 83
SWIDTH 1000 0
DWIDTH 24 0
BBX 24 24 0 -3
BITMAP
081c00
0e180c
1c193e
181980
301880
601800
89ff80
0e1800
0c1806
18187f
189818
38fa18
38d918
58d918
989998
189998
199998
191998
1a1818
181818
181818
181818
1818f8
180030
ENDCHAR
STARTCHAR ch-87
ENCODING 87
SWIDTH 1000 0
DWIDTH 24 0
BBX 24 24 0 -3
BITMAP
081c00
0e1806
1c18ff
18ff00
301800
601800
881806
0e18ff
0cff18
180018
181c18
381818
781818
98ff18
181818
181818
181818
181818
181998
19fe18
18f018
188018
1800f8
180030
ENDCHAR
STARTCHAR ch-89
ENCODING 89
SWIDTH 1000 0
DWIDTH 24 0
BBX 24 24 0 -3
BITMAP
100000
1c0306
19ffbf
303000
303000
603300
49ff80
8e6300
0c6306
1c637f
18630c
3bffcc
38000c
58000c
98830c
18ff8c
18c30c
18c30c
18c30c
18c30c
18ff0c
18c30c
18007c
180018
ENDCHAR
STARTCHAR ch-91
ENCODING 91
SWIDTH 1000 0
DWIDTH 24 0
BBX 24 24 0 -3
BITMAP
103800
1c3306
19ffbf
306300
306300
606340
49ffe0
8e0000
0c8306
1cffbf
18c30c
38c30c
38ff0c
58060c
98068c
19ffcc
18c60c
18c60c
18c64c
1fffec
18060c
18060c
18067c
180618
ENDCHAR
STARTCHAR ch-93
ENCODING 93
SWIDTH 1000 0
DWIDTH 24 0
BBX 24 24 0 -3
BITMAP
080300
0e1f8c
1df87e
181800
301880
23ffc0
481800
8e1806
0dffff
191898
191898
39ff98
391898
591898
99ff98
181818
181818
19ff98
181818
181998
1bfe18
19e018
1900f8
180030
ENDCHAR
STARTCHAR ch-94
ENCODING 94
SWIDTH 1000 0
DWIDTH 24 0
BBX 24 24 0 -3
BITMAP
103800
1c3006
18333f
31ff80
306300
606340
4bffe0
8e0000
0cff06
1cc37f
18c30c
38ff0c
38000c
5bffcc
98180c
19198c
19ffcc
19998c
19998c
19998c
199b8c
19998c
18187c
181818
ENDCHAR
STARTCHAR ch-97
ENCODING 97
SWIDTH 1000 0
DWIDTH 24 0
BBX 24 24 0 -3
BITMAP
084000
0e700c
1c667e
187f00
30c600
608400
890800
0eff06
0c91ff
189118
18ff18
389118
589118
98ff18
180018
183818
183018
1bff98
183018
186818
186618
18c318
1b0378
180030
ENDCHAR
STARTCHAR ch-98
ENCODING 98
SWIDTH 1000 0
DWIDTH 24 0
BBX 24 24 0 -3
BITMAP
100000
1df7c6
19147f
31f7c0
311440
61f7c0
491440
8f1440
0df7c6
18803f
18e60c
30c48c
31ffcc
71880c
b3890c
35ff8c
31880c
31890c
31ff8c
31880c
31888c
31ffcc
31803c
300018
ENDCHAR
STARTCHAR ch-99
ENCODING 99
SWIDTH 1000 0
DWIDTH 24 0
BBX 24 24 0 -3
BITMAP
001c00
001800
001800
001800
001806
ffffff
003800
007400
006400
00c408
01820e
03821c
078330
0d8140
318180
c18080
0180c0
018060
018070
018638
01f81f
3fc00e
1e0006
100000
ENDCHAR
STARTCHAR ch-104
ENCODING 104
SWIDTH 1000 0
DWIDTH 24 0
BBX 24 24 0 -3
BITMAP
001c00
001800
001818
3ffffc
001800
001800
001830
1ffff8
001800
001800
001806
ffffff
00e410
01c41c
038230
078340
0d8180
3181c0
c180e0
019c78
01e03f
1f801e
0e0006
080000
ENDCHAR
STARTCHAR ch-107
ENCODING 107
SWIDTH 1000 0
DWIDTH 24 0
BBX 24 24 0 -3
BITMAP
0e0020
0c0038
0c0070
0c0060
0cc0c0
ffe180
00c308
018c0e
01801c
034018
066030
0c4060
1c80c0
2e0180
cd8604
0cc007
0cc00e
0c001c
0c0038
0c0070
0c00e0
0c0180
0c0600
0c1800
ENDCHAR
STARTCHAR ch-112
ENCODING 112
SWIDTH 1000 0
DWIDTH 24 0
BBX 24 24 0 -3
BITMAP
001c00
001800
001806
ffffff
000000
000000
07ffe0
060060
060066
ffffff
060060
060060
07ffe0
007408
00e40e
01c21c
038310
0d81a0
3180c0
c18070
018e3f
1ff01e
0f0006
080000
ENDCHAR
STARTCHAR ch-114
ENCODING 114
SWIDTH 1000 0
DWIDTH 24 0
BBX 24 24 0 -3
BITMAP
1c01c0
180180
180180
180180
1b0180
ffa186
033fff
063186
063186
0c3186
093186
19b346
3b3326
5c3236
9b3436
19b836
19b006
183006
183006
183006
183006
183006
18303e
18300c
ENDCHAR
STARTCHAR ch-117
ENCODING 117
SWIDTH 1000 0
DWIDTH 24 0
BBX 24 24 0 -3
BITMAP
0e0000
0c080c
0c0ffe
0c0c0c
0d8c0c
ffcc0c
018c0c
030c0c
030c0c
064c0c
046c0c
0c4ffc
1c8c0c
2e0c0c
cd8c0c
0ccc0c
0ccc0c
0c0c0c
0c0c0c
0c0c0c
0c0c0c
0c0ffc
0c0c0c
0c0c0c
ENDCHAR
STARTCHAR ch-119
ENCODING 119
SWIDTH 1000 0
DWIDTH 24 0
BBX 24 24 0 -3
BITMAP
001c00
001800
001806
ffffff
001800
001800
0ffff0
0c1830
0c1830
0c1830
0c1830
0ffff0
003408
00640e
00c21c
01c230
02c140
0cc180
30c0c0
c0c670
00f83f
1fc01e
0e0006
080000
ENDCHAR
STARTCHAR ch-125
ENCODING 125
SWIDTH 1000 0
DWIDTH 24 0
BBX 24 24 0 -3
BITMAP
0e0000
0c0018
0c007c
0c01e0
0d9f80
ffc180
018180
030180
030180
064180
046180
0c4186
1cbfff
2e0180
cd8180
0cc180
0cc180
0c0180
0c0180
0c0180
0c0180
0c018c
0c3ffe
0c0000
ENDCHAR
STARTCHAR ch-126
ENCODING 126
SWIDTH 1000 0
DWIDTH 24 0
BBX 24 24 0 -3
BITMAP
001800
003c00
003400
006200
00c100
0180c0
037f70
0c003f
30019e
c3ffc6
000180
003980
003180
003006
ffffff
01c410
038418
078230
1d8340
e18180
01f8e0
1fc07e
0e003c
08000c
ENDCHAR
STARTCHAR ch-127
ENCODING 127
SWIDTH 1000 0
DWIDTH 24 0
BBX 24 24 0 -3
BITMAP
0e0180
0c0180
0c0180
0c0340
0d8340
ffc340
018220
030630
030418
068c1c
06cbef
0c9006
1d2000
2e0018
cd8ffc
0cc018
0cc018
0c0030
0c0030
0c0030
0c0060
0c0060
0c00c0
0c00c0
ENDCHAR
STARTCHAR ch-129
ENCODING 129
SWIDTH 1000 0
DWIDTH 24 0
BBX 24 24 0 -3
BITMAP
001c00
001800
001830
1ffff8
001800
001800
001806
ffffff
000000
040060
07fff0
060060
060060
060060
07ffe8
00e40e
01c41c
078210
1d8320
e181c0
01f8f0
1fc07f
0e001e
080006
ENDCHAR
STARTCHAR ch-130
ENCODING 130
SWIDTH 1000 0
DWIDTH 24 0
BBX 24 24 0 -3
BITMAP
0e01c0
0c0180
0c0180
0c0180
0d818c
ffdffe
01818c
03018c
03018c
06018c
04818c
0cc18c
1dbfff
2e0340
cd8340
0cc360
0cc220
0c0630
0c0630
0c0418
0c0c1c
0c080f
0c100e
0c6006
ENDCHAR
STARTCHAR ch-136
ENCODING 136
SWIDTH 1000 0
DWIDTH 24 0
BBX 24 24 0 -3
BITMAP
070000
060000
063206
7ffbff
063306
063306
0c3306
0c3306
186306
13e3fe
20c306
c01c00
001800
001806
ffffff
007410
00e21c
01c318
0781a0
1d80c0
e18070
01fc3f
1fc01e
0e0006
ENDCHAR
STARTCHAR ch-139
ENCODING 139
SWIDTH 1000 0
DWIDTH 24 0
BBX 24 24 0 -3
BITMAP
021c80
0398c0
071858
060c7c
0c0f80
1dfc00
2c0600
cc0304
0c01c4
0c00f4
0c1c3e
0c180e
001800
001806
ffffff
00e410
01c21c
078318
1d81a0
e180c0
018e70
1ff03f
0f001e
080006
ENDCHAR
STARTCHAR ch-141
ENCODING 141
SWIDTH 1000 0
DWIDTH 24 0
BBX 24 24 0 -3
BITMAP
0e0800
0c0e00
0c0c00
0c0c0c
0d8ffe
ffc80c
01980c
03100c
031fcc
0620cc
0480cc
0cc0cc
1d90cc
2e1fcc
cd981c
0cd818
0cd8f8
0c1830
0c1802
0c1802
0c1802
0c1803
0c1fff
0c0ffe
ENDCHAR
STARTCHAR ch-146
ENCODING 146
SWIDTH 1000 0
DWIDTH 24 0
BBX 24 24 0 -3
BITMAP
0e0000
0c080c
0c0ffe
0c0c0c
0d8c0c
ffcc0c
018c0c
030c0c
030c0c
064ffc
046c0c
0c4c0c
1c8c0c
2e0c0c
cd8c0c
0ccc0c
0ccc0c
0c0ffc
0c0c0c
0c0000
0c0000
0c0006
0c3fff
0c0000
ENDCHAR
STARTCHAR ch-150
ENCODING 150
SWIDTH 1000 0
DWIDTH 24 0
BBX 24 24 0 -3
BITMAP
0e00e0
0c00c0
0c00c0
0c00c0
0d80c0
ffd0c6
019fff
0318c6
0318c6
0618c6
0498c6
0cd8c6
1d18c6
2e1ffe
cd98c6
0cd8c6
0cd8c6
0c18c6
0c18c6
0c18c6
0c18c6
0c1ffe
0c1806
0c1806
ENDCHAR
STARTCHAR ch-151
ENCODING 151
SWIDTH 1000 0
DWIDTH 24 0
BBX 24 24 0 -3
BITMAP
1c0300
180300
180680
180680
1b0c40
ff8c60
031830
061038
06221c
0c438f
090706
198600
3b0c40
5c1070
9b20e0
1981c0
198308
18060e
18181c
180038
180060
1801c0
180700
183800
ENDCHAR
STARTCHAR ch-153
ENCODING 153
SWIDTH 1000 0
DWIDTH 24 0
BBX 24 24 0 -3
BITMAP
0e0080
0c00e0
0c00c0
0c0080
0d8100
ffd106
019fff
031806
031806
061806
049806
0cd806
1d9806
2e1ffe
cd9806
0cd806
0cd806
0c1806
0c1806
0c1806
0c1806
0c1ffe
0c1806
0c1806
ENDCHAR
STARTCHAR ch-158
ENCODING 158
SWIDTH 1000 0
DWIDTH 24 0
BBX 24 24 0 -3
BITMAP
001c00
001800
001806
ffffff
010000
01c300
0380e0
070038
0c001c
37ffec
c60060
060060
060060
060060
07ffe8
00e40e
01c41c
078210
1d8320
e181c0
01f8f0
1fc07f
0e001e
080006
ENDCHAR
STARTCHAR ch-162
ENCODING 162
SWIDTH 1000 0
DWIDTH 24 0
BBX 24 24 0 -3
BITMAP
0e00e0
0c00c4
0c10c7
0c08c6
0d8cc4
ffccc8
0180c0
0300cc
031ffe
0600c0
0480c0
0cc0c0
1d80c0
2e00c6
cdbfff
0cc0c0
0cc0c0
0c00c0
0c00c0
0c00c0
0c00c0
0c00c0
0c00c0
0c00c0
ENDCHAR
STARTCHAR ch-164
ENCODING 164
SWIDTH 1000 0
DWIDTH 24 0
BBX 24 24 0 -3
BITMAP
001c00
001806
ffffff
000000
1fffe0
000180
003600
00180c
7ffffe
00f818
01d810
071820
1c1800
e0f800
003010
00781c
00ec38
038640
1f0300
e301c0
031cf0
1fe07e
0f003c
08000c
ENDCHAR
STARTCHAR ch-171
ENCODING 171
SWIDTH 1000 0
DWIDTH 24 0
BBX 24 24 0 -3
BITMAP
1c01c0
180180
180180
180180
1b2186
ffbfff
033186
063184
063188
0c3180
0d3198
19bffc
1b3418
3c3418
5a3230
9b3230
1b3160
1861c0
1860c0
1841e0
18c338
18861f
19180e
186006
ENDCHAR
STARTCHAR ch-174
ENCODING 174
SWIDTH 1000 0
DWIDTH 24 0
BBX 24 24 0 -3
BITMAP
0e0200
0c0380
0c0300
0c0300
0d8600
ffc600
018406
030fff
0308c0
0610c0
0480c0
0cc0c0
1d88d0
2e0ec8
cd8cc4
0cccc6
0cd8c6
0c18c3
0c10c3
0c20c3
0c40c0
0c00c0
0c07c0
0c0180
ENDCHAR
STARTCHAR ch-176
ENCODING 176
SWIDTH 1000 0
DWIDTH 24 0
BBX 24 24 0 -3
BITMAP
040030
07fff8
062030
061c30
060c30
060036
ffffff
0c4060
0c3860
0c1860
0c006c
1ffffe
1800c0
001dc0
001806
ffffff
00e410
01c218
070130
1f00c0
e30070
03fe3f
1fe01e
0e0006
ENDCHAR
STARTCHAR ch-177
ENCODING 177
SWIDTH 1000 0
DWIDTH 24 0
BBX 24 24 0 -3
BITMAP
1c10e0
181ccc
1818c6
1818c6
1b18c0
ffb0c0
0330c6
063fff
0670c0
0c70c0
08b0c0
1a30c0
3b30e0
5a31a0
9c31a0
1b31a0
1931b0
183190
183118
183118
18330c
18320f
183206
183406
ENDCHAR
STARTCHAR ch-180
ENCODING 180
SWIDTH 1000 0
DWIDTH 24 0
BBX 24 24 0 -3
BITMAP
0e0380
0c0300
0c0300
0c0306
0dbfff
ffc640
018640
030420
030c30
06081c
0417ef
0da006
1d4000
2e3ffc
cd0600
0d8618
0d87fc
0c0c18
0c0c18
0c0018
0c0038
0c0030
0c01f0
0c0060
ENDCHAR
STARTCHAR ch-181
ENCODING 181
SWIDTH 1000 0
DWIDTH 24 0
BBX 24 24 0 -3
BITMAP
1c1000
181c0c
18181e
181878
1b33e0
ffb060
033060
067060
067060
0cb060
093060
1a3066
3b37ff
5a3060
9c3060
1b3060
193060
183060
183060
183060
183060
18306c
1833fe
183000
ENDCHAR
STARTCHAR ch-183
ENCODING 183
SWIDTH 1000 0
DWIDTH 24 0
BBX 24 24 0 -3
BITMAP
0e0180
0c0180
0c0180
0c0340
0d8340
ffc220
018630
030418
030c1c
06880f
04d026
0ca7f0
1d0000
2e0000
cd8818
0ccffc
0ccc18
0c0c18
0c0c18
0c0c18
0c0c18
0c0c18
0c0ff8
0c0c18
ENDCHAR
STARTCHAR ch-191
ENCODING 191
SWIDTH 1000 0
DWIDTH 24 0
BBX 24 24 0 -3
BITMAP
0e00e0
0c00c0
0c00c0
0c00cc
0d8ffe
ffc0c0
0180c0
0300c0
0300c6
065fff
046000
0c4000
1c80e0
2e00c0
cd80cc
0ccffe
0cc0c0
0c00c0
0c00c0
0c00c0
0c00c0
0c00c6
0c1fff
0c0000
ENDCHAR
STARTCHAR ch-193
ENCODING 193
SWIDTH 1000 0
DWIDTH 24 0
BBX 24 24 0 -3
BITMAP
038380
030300
030320
033318
7ffb0c
03030c
030300
030306
ffffff
000300
038310
03031c
7ff918
062198
0c39b0
0c30b0
1d20e0
2cc042
cc60e2
0cb1b2
0f333a
7c061f
30180f
206006
ENDCHAR
STARTCHAR ch-194
ENCODING 194
SWIDTH 1000 0
DWIDTH 24 0
BBX 24 24 0 -3
BITMAP
00180e
7ffc0c
0301cc
06318c
0ff98c
18318c
36618c
c2c18c
01818c
03018c
06000c
181c7c
601818
001802
ffffff
00e200
01c208
03c11c
0ec1a0
38c0c0
c0ce70
0ff03f
07801e
040006
ENDCHAR
STARTCHAR ch-195
ENCODING 195
SWIDTH 1000 0
DWIDTH 24 0
BBX 24 24 0 -3
BITMAP
0e01c0
0c0180
0c0180
0c0198
0d81fc
ffc180
018180
030180
030186
063fff
048000
0cc000
1d8006
2e3fff
cd8180
0cc180
0cc1e0
0c019c
0c018e
0c0186
0c0180
0c0180
0c0180
0c0180
ENDCHAR
STARTCHAR ch-196
ENCODING 196
SWIDTH 1000 0
DWIDTH 24 0
BBX 24 24 0 -3
BITMAP
1c0400
180700
180e0c
180dfe
1b1800
ff9000
032000
064800
060e00
0c0c06
091bff
199818
3b3818
5c3818
9a5818
1b1818
1b1818
181818
181818
181818
181818
181818
1818f8
181830
ENDCHAR
STARTCHAR ch-197
ENCODING 197
SWIDTH 1000 0
DWIDTH 24 0
BBX 24 24 0 -3
BITMAP
0381c0
430180
330180
1b0186
1b7fff
030180
030180
070180
fb018c
633ffe
430000
031c00
001800
001806
ffffff
00e410
01c41c
038238
0d8340
318180
c18ce0
01f07f
3f801e
0e0006
ENDCHAR
STARTCHAR ch-207
ENCODING 207
SWIDTH 1000 0
DWIDTH 24 0
BBX 24 24 0 -3
BITMAP
001c00
001806
ffffff
000000
0ffff0
0c1830
0c1830
0ffff0
0c1830
0c1830
0ffff0
001800
001818
3ffffc
001800
001806
ffffff
01c430
078278
1d8180
e18ce0
01f07f
1fc01e
0e0006
ENDCHAR
STARTCHAR ch-212
ENCODING 212
SWIDTH 1000 0
DWIDTH 24 0
BBX 24 24 0 -3
BITMAP
001c00
001806
ffffff
00e408
01c20c
070318
1f01a0
e300c0
031e70
1ff03f
0f801e
080006
000000
3ffffc
30830c
31c30c
3383ec
3e01ec
30ff0c
30c30c
30c30c
30ff0c
30007c
300018
ENDCHAR
STARTCHAR ch-213
ENCODING 213
SWIDTH 1000 0
DWIDTH 24 0
BBX 24 24 0 -3
BITMAP
0e0400
0c0720
0c0618
0c0c0c
0d8806
ffd186
018180
030340
030340
064220
046630
0c441c
1c880f
2e1006
cda818
0ccffc
0ccc18
0c0c18
0c0c18
0c0c18
0c0c18
0c0c18
0c0ff8
0c0c18
ENDCHAR
STARTCHAR ch-216
ENCODING 216
SWIDTH 1000 0
DWIDTH 24 0
BBX 24 24 0 -3
BITMAP
001c80
001860
001826
ffffff
001810
381838
0e18e0
061f00
00d8e0
071838
7e181c
38180c
200000
001c00
001806
ffffff
00e408
01c21c
070130
1f00c0
e30070
03fe3f
1fe01e
0e0006
ENDCHAR
STARTCHAR ch-217
ENCODING 217
SWIDTH 1000 0
DWIDTH 24 0
BBX 24 24 0 -3
BITMAP
0e000c
0c1ffe
0c030c
0c030c
0d830c
ffffff
01830c
03030c
03030c
06030c
049ffc
0cc60c
1d8600
2e0400
cd8c0c
0ccffe
0cde0c
0c160c
0c260c
0c460c
0c060c
0c060c
0c07fc
0c060c
ENDCHAR
STARTCHAR ch-220
ENCODING 220
SWIDTH 1000 0
DWIDTH 24 0
BBX 24 24 0 -3
BITMAP
0e00e8
0c00c6
0c00c6
0c00c0
0dbfff
ffc0c0
0180c0
0310c6
031fff
0618c6
0498c6
0cd8c6
1d1ffe
2e18c6
cd98c6
0cd8c6
0cdffe
0c18c6
0c18c6
0c18c6
0c18c6
0c18c6
0c18de
0c18cc
ENDCHAR
STARTCHAR ch-221
ENCODING 221
SWIDTH 1000 0
DWIDTH 24 0
BBX 24 24 0 -3
BITMAP
39c1c0
318180
318180
318186
3fbfff
318180
018180
ff8180
31818c
319ffe
218000
418000
819c00
001806
ffffff
00e410
01c41c
038238
0d8340
318180
c18ce0
01f07f
3f801e
0e0006
ENDCHAR
STARTCHAR ch-223
ENCODING 223
SWIDTH 1000 0
DWIDTH 24 0
BBX 24 24 0 -3
BITMAP
0801c0
060180
031190
431d8c
301986
181983
193183
022790
0c431c
f88038
3000e0
300380
387c00
181800
001806
ffffff
00e410
01c21c
078218
1d8120
e180c0
019c78
1fe03f
0f000e
ENDCHAR
STARTCHAR ch-225
ENCODING 225
SWIDTH 1000 0
DWIDTH 24 0
BBX 24 24 0 -3
BITMAP
0e200c
0c3ffe
0c318c
0c318c
0db18c
fff18c
01bffc
03318c
03318c
06318c
04b18c
0cf18c
1d3ffc
2e318c
4d8180
8cc180
0cc18c
0c3ffe
0c0180
0c0180
0c0180
0c0186
0cffff
0c0000
ENDCHAR
STARTCHAR ch-232
ENCODING 232
SWIDTH 1000 0
DWIDTH 24 0
BBX 24 24 0 -3
BITMAP
0e0100
0c01c0
0c0180
0c120c
0d9ffe
ffd88c
01988c
03188c
031ffc
06188c
04988c
0cd88c
1d9ffc
2e0400
cd8670
0cc460
0cc866
0c3fff
0c0060
0c0060
0c0060
0c0060
0c0060
0c0060
ENDCHAR
STARTCHAR ch-242
ENCODING 242
SWIDTH 1000 0
DWIDTH 24 0
BBX 24 24 0 -3
BITMAP
1c0006
18ffff
180180
180180
1b0180
ff8186
037fff
064182
064182
0c59b2
084992
194992
3b4992
5c4992
9a55aa
1b55aa
1b63c6
184182
184182
184182
184182
184182
18418e
184186
ENDCHAR
STARTCHAR ch-243
ENCODING 243
SWIDTH 1000 0
DWIDTH 24 0
BBX 24 24 0 -3
BITMAP
041c40
031870
119860
119886
1fffff
300006
300004
63ffc8
6300c0
0300c0
0300c0
03ffc0
001800
001806
ffffff
00e820
01c438
038430
0d8240
318180
c18ce0
1ff07e
0f003c
08000c
ENDCHAR
STARTCHAR ch-244
ENCODING 244
SWIDTH 1000 0
DWIDTH 24 0
BBX 24 24 0 -3
BITMAP
00e380
00c306
ffc3ff
00c300
00c304
7fc3fe
00c300
00c300
078306
f983ff
630300
060300
181c00
001806
ffffff
00e410
01c41c
038238
0d8340
318180
c18ce0
01f07f
3f801e
0e0006
ENDCHAR
STARTCHAR ch-248
ENCODING 248
SWIDTH 1000 0
DWIDTH 24 0
BBX 24 24 0 -3
BITMAP
1c200c
183ffe
18318c
18318c
1b318c
ffbffc
03318c
06318c
06318c
0d318c
09bffc
1b318c
3c0180
5b0186
99ffff
1987a0
180da0
180d90
181998
18318c
18618f
198186
180180
180180
ENDCHAR
STARTCHAR ch-249
ENCODING 249
SWIDTH 1000 0
DWIDTH 24 0
BBX 24 24 0 -3
BITMAP
001c00
001806
ffffff
000000
0ffff0
0c1830
0c1830
0ffff0
0c1830
0c1830
0ffff0
001806
ffffff
041820
063818
0c744c
18e466
6182c6
078300
1d8180
e18ce0
01f07f
1fc01e
0e0006
ENDCHAR
STARTCHAR ch-252
ENCODING 252
SWIDTH 1000 0
DWIDTH 24 0
BBX 24 24 0 -3
BITMAP
0e1018
0c1ffc
0c1818
0c1818
0d9818
ffdff8
019818
031818
031818
061ff8
048618
0ccc00
1d8806
2e1fff
cd3366
0dc666
0d84c6
0c08c6
0c1186
0c610e
0c020c
0c041c
0c18f8
0c0030
ENDCHAR
STARTCHAR ch-253
ENCODING 253
SWIDTH 1000 0
DWIDTH 24 0
BBX 24 24 0 -3
BITMAP
23800e
3311cc
3ff98c
23018c
43098c
fffd8c
03018c
23198c
3ffd8c
33198c
33180c
33787c
333018
030e00
000c06
ffffff
00e430
01c238
07c340
1cc180
e0ccc0
00f070
1fc03f
07000e
ENDCHAR
STARTCHAR ch-254
ENCODING 254
SWIDTH 1000 0
DWIDTH 24 0
BBX 24 24 0 -3
BITMAP
1c200c
183ffe
18300c
18300c
1b300c
ffb00c
033ffc
06300c
0630e0
0d30c0
09b0c6
1b3fff
3c30c0
5a30c0
9b30c0
1b28cc
186ffe
186c0c
184c0c
18cc0c
188c0c
190c0c
180ffc
180c0c
ENDCHAR
STARTCHAR ch-258
ENCODING 258
SWIDTH 1000 0
DWIDTH 24 0
BBX 24 24 0 -3
BITMAP
1c1c38
181830
181930
18ffb0
1b1830
ff9830
031830
061930
06ffb8
0c0034
090036
199c32
3b1833
5c1833
9b1930
19ffb0
199830
181830
181830
181830
1819b0
19fe30
18f030
188030
ENDCHAR
STARTCHAR ch-260
ENCODING 260
SWIDTH 1000 0
DWIDTH 24 0
BBX 24 24 0 -3
BITMAP
0e01c0
0c0180
0c0186
0c3fff
0d8180
ffc18c
019ffe
03018c
03018c
063fff
04818c
0cc18c
1d9ffc
2e0300
cd8306
0cffff
0cc618
0c0c38
0c1c30
0c1b60
0c00c0
0c01b8
0c060e
0c7806
ENDCHAR
STARTCHAR ch-263
ENCODING 263
SWIDTH 1000 0
DWIDTH 24 0
BBX 24 24 0 -3
BITMAP
0e0800
0c0e00
0c0c06
0c0fff
0d9800
ffd000
01affc
030c0c
030c0c
064ffc
046c0c
0c8c0c
0e0ffc
1d8300
2cc200
ccc7fc
0c0418
0c0a30
0c1160
0c60c0
0c01e0
0c033f
0c0c1e
0c7006
ENDCHAR
STARTCHAR ch-266
ENCODING 266
SWIDTH 1000 0
DWIDTH 24 0
BBX 24 24 0 -3
BITMAP
1c0006
187fff
180000
180000
1b3ffe
ffb006
033006
063006
063ffe
0d3000
09b006
1b3fff
3c3926
5a7926
9b7926
1b5926
185ffe
18d926
189926
191926
181926
181926
18181e
18180c
ENDCHAR
STARTCHAR ch-268
ENCODING 268
SWIDTH 1000 0
DWIDTH 24 0
BBX 24 24 0 -3
BITMAP
1c2000
182006
183fff
186006
1b61c4
ff8180
037ffe
060180
06218c
0c3ffe
09318c
19b18c
3b3ffc
5c318c
9b318c
19bffc
19b18c
180180
180186
18ffff
180180
180180
180180
180180
ENDCHAR
STARTCHAR ch-272
ENCODING 272
SWIDTH 1000 0
DWIDTH 24 0
BBX 24 24 0 -3
BITMAP
0e100c
0c1ffe
0c180c
0c180c
0d9ffc
ffd80c
01980c
03180c
031ffc
060600
0c8600
08cc06
1c8fff
3b1806
599cc6
99b9e6
185b06
189c06
181846
181866
181fec
180fcc
18003c
180018
ENDCHAR
STARTCHAR ch-274
ENCODING 274
SWIDTH 1000 0
DWIDTH 24 0
BBX 24 24 0 -3
BITMAP
001c00
001800
001806
ffffff
040000
073ff0
0e3030
0c3030
1c3ff0
3c0306
6dffff
8c2300
0c3330
0c631c
0c830c
0c3040
007070
00c860
038480
1f0300
e319c0
03e07f
1f801e
0c0006
ENDCHAR
STARTCHAR ch-275
ENCODING 275
SWIDTH 1000 0
DWIDTH 24 0
BBX 24 24 0 -3
BITMAP
1c240c
183ffe
18360c
18360c
1b360c
ff660c
03660c
0667fc
06e6cc
0ce0c0
0960c0
1860c6
3b7fff
5a61d0
9c61d0
1b63d8
1962c8
1866cc
1864cf
1868c6
1870c6
1860c0
1860c0
1860c0
ENDCHAR
STARTCHAR ch-285
ENCODING 285
SWIDTH 1000 0
DWIDTH 24 0
BBX 24 24 0 -3
BITMAP
1c0204
182187
1818c6
180ccc
1b0c08
ff8010
033ffc
06318c
06318c
0c318c
093ffc
19b18c
3b318c
5c318c
9b3ffc
19b18c
198180
180186
18ffff
180180
180180
180180
180180
180180
ENDCHAR
STARTCHAR ch-286
ENCODING 286
SWIDTH 1000 0
DWIDTH 24 0
BBX 24 24 0 -3
BITMAP
1c0000
181018
181ffc
181818
1b1818
ff9818
031ff8
061818
061818
0c1818
091ff8
199818
3b0000
5c200c
9b3ffe
19b24c
19b24c
18324c
18324c
18324c
18324c
18324c
18ffff
180000
ENDCHAR
STARTCHAR ch-293
ENCODING 293
SWIDTH 1000 0
DWIDTH 24 0
BBX 24 24 0 -3
BITMAP
1c2006
183fff
183000
183000
1b37fc
ffb000
033002
063fff
063222
0c3223
093214
19b2d8
3b3f0f
5c3606
9a3018
1b3018
1b6fff
186018
186618
184318
18c318
188018
1900f8
180030
ENDCHAR
STARTCHAR ch-298
ENCODING 298
SWIDTH 1000 0
DWIDTH 24 0
BBX 24 24 0 -3
BITMAP
1c020c
1843fe
18230c
18330c
1b330c
ffb3fc
03030c
06030c
06030c
0c03fc
093308
19fb0e
3b330c
5c3348
9b3330
19b318
19b32c
1833ce
183706
183200
186800
19c7ff
18c1fe
188000
ENDCHAR
STARTCHAR ch-299
ENCODING 299
SWIDTH 1000 0
DWIDTH 24 0
BBX 24 24 0 -3
BITMAP
1c001c
1841fe
187f80
1840e0
1b40c4
ff40fe
0340c0
0648c6
064fff
0c4806
0848c4
1b48fc
3a4fc2
5c48ff
9b487e
194800
184a38
18dbb0
189330
189332
193232
192633
1a443f
18181e
ENDCHAR
STARTCHAR ch-310
ENCODING 310
SWIDTH 1000 0
DWIDTH 24 0
BBX 24 24 0 -3
BITMAP
1c0306
187fff
180306
182346
1b1b36
ff8b16
030306
06070e
061b76
0c7326
092306
198080
3b00c0
5c110c
9b1ffe
19980c
19980c
18180c
181ffc
18180c
18180c
18180c
181ffc
18180c
ENDCHAR
STARTCHAR ch-312
ENCODING 312
SWIDTH 1000 0
DWIDTH 24 0
BBX 24 24 0 -3
BITMAP
1c01c0
181188
181ffc
181188
1b118a
ffffff
031188
061188
061ff8
0c0180
093ffc
19a184
3b2184
5c3ffc
9b0300
198606
19ffff
180c18
181838
183f70
1831e0
1803bc
180e0e
187006
ENDCHAR
STARTCHAR ch-315
ENCODING 315
SWIDTH 1000 0
DWIDTH 24 0
BBX 24 24 0 -3
BITMAP
001c00
001806
ffffff
000000
0601c0
3fc180
060198
060ffc
fff198
208998
706718
c6239a
3fc2ca
0604ce
07c807
fe3003
707030
00c878
0384c0
1f0300
e319c0
03e07f
1f801e
0c0006
ENDCHAR
STARTCHAR ch-321
ENCODING 321
SWIDTH 1000 0
DWIDTH 24 0
BBX 24 24 0 -3
BITMAP
1c0840
18fc70
180860
180844
1a08c2
ff4883
067bff
0649f3
0c4030
0c4132
1941ff
1b4932
3afd32
5cc932
9a0932
1b09fe
1b0932
180830
181834
181832
181832
1833ff
19f1e3
186103
ENDCHAR
STARTCHAR ch-323
ENCODING 323
SWIDTH 1000 0
DWIDTH 24 0
BBX 24 24 0 -3
BITMAP
001c00
001806
ffffff
000000
018818
47cffc
7e0c18
600c18
610ff8
7f80c6
603fff
6004c0
610ed8
7f98ce
6000c6
003000
007030
00c878
0384c0
1f0300
e319c0
03e07f
1f801e
0c0006
ENDCHAR
STARTCHAR ch-324
ENCODING 324
SWIDTH 1000 0
DWIDTH 24 0
BBX 24 24 0 -3
BITMAP
001c00
001800
001806
ffffff
020000
0380c0
070030
0ce39c
30c30e
cffff6
00c300
00c300
0ffff0
00c300
00c306
ffffff
01c410
038238
0f0360
3b0180
c30ce0
03f07f
3f801e
0e0006
ENDCHAR
STARTCHAR ch-332
ENCODING 332
SWIDTH 1000 0
DWIDTH 24 0
BBX 24 24 0 -3
BITMAP
1c4646
187f7f
184646
184646
1b4646
fffe7e
030000
060000
063ffc
0c318c
09318c
19b18c
3b3ffc
5c318c
9b318c
19b18c
19bffc
180180
180186
18ffff
180180
180180
180180
180180
ENDCHAR
STARTCHAR ch-333
ENCODING 333
SWIDTH 1000 0
DWIDTH 24 0
BBX 24 24 0 -3
BITMAP
1c0840
180e60
180c40
180888
1b1ffc
ff9880
033880
065ff8
061880
0c1880
091ff8
199880
1b1884
3c1ffe
5a0000
9b01c0
1b0186
187fff
1807a0
180d90
18199c
18318f
18c186
180180
ENDCHAR
STARTCHAR ch-342
ENCODING 342
SWIDTH 1000 0
DWIDTH 24 0
BBX 24 24 0 -3
BITMAP
1c0200
180380
180300
182406
1b3fff
ffb006
033496
063296
0632a6
0d37f6
09b1c6
1b32b6
1c3496
3b3006
59b186
99b186
187fff
180180
180340
180320
180638
180c1f
18180e
186006
ENDCHAR
STARTCHAR ch-350
ENCODING 350
SWIDTH 1000 0
DWIDTH 24 0
BBX 24 24 0 -3
BITMAP
20c0e0
3fe0cc
30cffe
30c010
30c418
3fc330
300126
30dfff
3fe0c0
78c0c0
58c0cc
58cffe
98c0c0
1fc0c0
18dcc0
001806
ffffff
01c210
078218
1d8130
e180c0
019c78
1fe03f
0f000e
ENDCHAR
STARTCHAR ch-351
ENCODING 351
SWIDTH 1000 0
DWIDTH 24 0
BBX 24 24 0 -3
BITMAP
1c0c30
180820
180922
187fff
1b0820
ff9c70
031a68
062aac
06c927
0c0a26
090820
198000
3d3ffc
5a0000
9b0006
1b7fff
180180
182180
183990
18318c
186186
18c187
190f83
180300
ENDCHAR
STARTCHAR ch-352
ENCODING 352
SWIDTH 1000 0
DWIDTH 24 0
BBX 24 24 0 -3
BITMAP
0e08e4
0c04c6
0c06cc
0c06c8
0d90d2
ffdfff
01b006
033004
0307f8
060408
048408
0cc7f8
1d8000
2e1006
cd9fff
0cd8c6
0cd8c6
0c18c6
0c1ffe
0c18c6
0c18c6
0c18c6
0c1ffe
0c1806
ENDCHAR
STARTCHAR ch-356
ENCODING 356
SWIDTH 1000 0
DWIDTH 24 0
BBX 24 24 0 -3
BITMAP
1c2320
183fb8
182430
182430
1b2426
ffbf7f
032140
062180
063f00
0c2406
09247f
19a400
3b3f80
5c2000
9b0000
19bffc
19b24c
18324c
18324c
18324c
18324c
18324c
19ffff
180000
ENDCHAR
STARTCHAR ch-358
ENCODING 358
SWIDTH 1000 0
DWIDTH 24 0
BBX 24 24 0 -3
BITMAP
1c000c
183ffe
180180
182186
1b3fff
ffe186
036184
061db8
060180
0c0180
091db8
198180
3b0006
5c7fff
9b0180
19a106
19bfff
183246
183246
183246
183246
183246
18325e
18300c
ENDCHAR
STARTCHAR ch-362
ENCODING 362
SWIDTH 1000 0
DWIDTH 24 0
BBX 24 24 0 -3
BITMAP
1c0738
180632
187fff
180630
1b0630
ff8000
033ffe
062222
062222
0c3ffe
090010
1980cc
3b20c4
5c3fff
9b30c0
19b0c4
19b046
18224c
183f78
186022
184072
1841da
188e0f
190003
ENDCHAR
STARTCHAR ch-365
ENCODING 365
SWIDTH 1000 0
DWIDTH 24 0
BBX 24 24 0 -3
BITMAP
1c3806
1831ff
183030
183030
1b3420
fffea6
0330ff
0630c6
0630c6
0c34c6
0afefe
1b00c6
3a00c6
5c44c6
9a7efe
1b44c6
1b44c6
1844c6
1844fe
184400
187c48
184466
1800c3
180103
ENDCHAR
STARTCHAR ch-367
ENCODING 367
SWIDTH 1000 0
DWIDTH 24 0
BBX 24 24 0 -3
BITMAP
1c1c86
1818ff
1818c6
18ffc6
1b00c6
ff44fe
0326c6
0624c6
0608c6
0c08c6
0afffe
1b10c6
3a10c6
5c10c6
9afec6
1b10fe
191018
183898
1836d8
1852da
18909a
19109b
18111f
18120e
ENDCHAR
STARTCHAR ch-370
ENCODING 370
SWIDTH 1000 0
DWIDTH 24 0
BBX 24 24 0 -3
BITMAP
070300
062204
7ff3fe
108200
08c3fc
091004
fffbfc
000200
3fc3fc
204200
3fc3f8
204202
3fc3fb
204203
23c1fe
219c00
001806
ffffff
00e418
03c260
1cc180
e0c0f0
0ffe3f
03e00e
ENDCHAR
STARTCHAR ch-372
ENCODING 372
SWIDTH 1000 0
DWIDTH 24 0
BBX 24 24 0 -3
BITMAP
1c4246
187f7f
186246
186246
1b7e7e
ffe246
036246
067e7e
066006
0c6106
096ff6
19e106
3b6ff6
5c6916
9a6ff6
1b6916
1b6ff6
186306
1867c6
186536
186916
187106
18613e
18600c
ENDCHAR
STARTCHAR ch-375
ENCODING 375
SWIDTH 1000 0
DWIDTH 24 0
BBX 24 24 0 -3
BITMAP
1c0208
18210e
18118c
181998
1b0d98
ff8c10
030026
067fff
060820
0c0e10
090c5c
1999ef
3b3786
5c4180
9b0198
199ffc
198180
180186
187fff
180180
180180
180180
180f80
180300
ENDCHAR
STARTCHAR ch-382
ENCODING 382
SWIDTH 1000 0
DWIDTH 24 0
BBX 24 24 0 -3
BITMAP
000000
000006
ffffff
00c300
00c300
00c300
00c300
20c30c
3ffffe
30c30c
30c30c
30c30c
30c30c
30c30c
30c30c
30ff0c
30c30c
30000c
30000c
30000c
30000c
30000c
30000c
30000c
ENDCHAR
STARTCHAR ch-383
ENCODING 383
SWIDTH 1000 0
DWIDTH 24 0
BBX 24 24 0 -3
BITMAP
000000
000006
ffffff
00c600
00c600
00c600
00c600
20c60c
3ffffe
30c60c
30c60c
30c60c
30c60c
31860c
3187fc
3303fc
36000c
38000c
30000c
30000c
30000c
3ffffc
30000c
30000c
ENDCHAR
STARTCHAR ch-385
ENCODING 385
SWIDTH 1000 0
DWIDTH 24 0
BBX 24 24 0 -3
BITMAP
000006
ffffff
00c300
00c300
20c30c
3ffffe
30c30c
30c30c
30c30c
30c30c
3ffffc
30300c
003000
006006
ffffff
00c0c0
0180c0
038180
077300
060e00
001bc0
006078
07801c
78000c
ENDCHAR
STARTCHAR ch-387
ENCODING 387
SWIDTH 1000 0
DWIDTH 24 0
BBX 24 24 0 -3
BITMAP
000006
ffffff
00c300
20c30c
3ffffe
30c30c
30c30c
3ffffc
30000c
000000
0ffff0
0c0030
0c0030
0ffff0
0c0030
0c0030
0ffff0
001800
001806
ffffff
001800
001800
001800
001800
ENDCHAR
STARTCHAR ch-390
ENCODING 390
SWIDTH 1000 0
DWIDTH 24 0
BBX 24 24 0 -3
BITMAP
000006
ffffff
00c300
20c30c
3ffffe
30c30c
30c30c
3ffffc
041000
071806
0e3fff
386000
c19ff8
041008
071ff8
0e1008
381ff8
d80300
1807f8
181c30
186260
1801c0
180e7f
18f01e
ENDCHAR
STARTCHAR ch-391
ENCODING 391
SWIDTH 1000 0
DWIDTH 24 0
BBX 24 24 0 -3
BITMAP
000006
ffffff
004200
20420c
3ffffe
30420c
30420c
3ffffc
000000
108206
fff3ff
108306
108306
1f83fe
060306
7fe306
462306
4623fe
7fe306
060306
fff606
060606
060c3e
06300c
ENDCHAR
STARTCHAR ch-392
ENCODING 392
SWIDTH 1000 0
DWIDTH 24 0
BBX 24 24 0 -3
BITMAP
000006
ffffff
00c300
20c30c
3ffffe
30c30c
30c30c
3ffffc
040200
060380
3fc300
20460c
3fc7fe
204420
3fca38
060230
fff160
0c0160
0fc0c0
08c0c0
18c1b0
10c31f
27c60e
c19806
ENDCHAR
STARTCHAR ch-394
ENCODING 394
SWIDTH 1000 0
DWIDTH 24 0
BBX 24 24 0 -3
BITMAP
000006
ffffff
00c300
3ffffc
30c30c
30c30c
3ffffc
000000
11080c
ffeffe
110c40
110ffc
1f0c40
040c40
7fcffc
444c40
444c46
7fcfff
040006
040aa6
ffdaae
04320c
04307c
040018
ENDCHAR
STARTCHAR ch-395
ENCODING 395
SWIDTH 1000 0
DWIDTH 24 0
BBX 24 24 0 -3
BITMAP
040060
07fff0
060060
060060
060060
07ffe0
060060
060060
060060
07ffe0
060060
060060
060060
060060
07ffe0
068660
00e600
00c600
01c600
018602
030602
060603
1807ff
e003fe
ENDCHAR
STARTCHAR ch-399
ENCODING 399
SWIDTH 1000 0
DWIDTH 24 0
BBX 24 24 0 -3
BITMAP
07080c
060ffe
060c0c
060c0c
06cc0c
7fec0c
060ffc
060c0c
060c0c
060c0c
066c0c
fffffc
060c0c
060c0c
060c0c
060c0c
0d0ffc
0cc460
0c6762
186662
180e62
300c63
c0187f
00e03e
ENDCHAR
STARTCHAR ch-403
ENCODING 403
SWIDTH 1000 0
DWIDTH 24 0
BBX 24 24 0 -3
BITMAP
0000e0
081ff8
0ffc00
1c2020
181818
300c0c
200c06
440067
87fff3
060060
060060
07ffe0
060060
060060
07ffe0
060060
060060
07ffe0
008302
00e302
01c302
038303
0e03ff
f001fe
ENDCHAR
STARTCHAR ch-406
ENCODING 406
SWIDTH 1000 0
DWIDTH 24 0
BBX 24 24 0 -3
BITMAP
0e100c
0c1ffe
0c180c
0c180c
0d980c
ffdffc
01980c
03180c
03180c
061ffc
06180c
0c180c
0e180c
1d980c
2cdffc
ccc460
0c0760
0c0660
0c0662
0c0c62
0c0c62
0c1863
0c307f
0cc03e
ENDCHAR
STARTCHAR ch-407
ENCODING 407
SWIDTH 1000 0
DWIDTH 24 0
BBX 24 24 0 -3
BITMAP
00c80c
ffeffe
00cc0c
00cc0c
0ccc0c
fecffc
00cc0c
00cc0c
44cc0c
7ecffc
44cc0c
44cc0c
44cc0c
44cffc
44c060
7cc460
44c760
00c660
00c660
00c462
00cc62
07c863
01907f
00203e
ENDCHAR
STARTCHAR ch-408
ENCODING 408
SWIDTH 1000 0
DWIDTH 24 0
BBX 24 24 0 -3
BITMAP
0e0818
0c0ffc
0c0c18
0c0c18
0ccc18
0feff8
0c0c18
0c0c18
0c0c18
0c0c18
0c0ff8
4ccc18
7fec18
60cc18
60cc18
60cff8
60c460
60c760
60c660
7fce62
60cc62
601863
00307f
00c03e
ENDCHAR
STARTCHAR ch-410
ENCODING 410
SWIDTH 1000 0
DWIDTH 24 0
BBX 24 24 0 -3
BITMAP
002020
081838
060c30
230c20
230046
7fffff
600006
c00004
c7ffe8
060060
060060
07ffe0
060060
060060
07ffe0
060060
060060
07ffe0
066662
00e602
01c602
038603
0e07ff
f003fe
ENDCHAR
STARTCHAR ch-417
ENCODING 417
SWIDTH 1000 0
DWIDTH 24 0
BBX 24 24 0 -3
BITMAP
00040c
0037fe
fffe0c
06060c
06060c
2647fc
36660c
36660c
26460c
26460c
2647fc
76e60c
56a60c
5eb60c
5f360c
8607fc
060030
063230
07c3b0
fe0732
700632
400c33
00183f
00601e
ENDCHAR
STARTCHAR ch-422
ENCODING 422
SWIDTH 1000 0
DWIDTH 24 0
BBX 24 24 0 -3
BITMAP
03020c
0303fe
06830c
06430c
0c730c
183ffc
301b0c
cfe30c
00030c
00030c
441bfc
7e930c
44930c
44930c
7c930c
4493fc
449030
7c9130
4491b0
441132
441332
447233
5c343f
4c081e
ENDCHAR
STARTCHAR ch-423
ENCODING 423
SWIDTH 1000 0
DWIDTH 24 0
BBX 24 24 0 -3
BITMAP
406200
7ff380
620300
620306
7fe3ff
606600
606400
7fe80c
6203fe
620000
7ff000
600000
0ffff0
080010
0ffff0
080010
0ffff0
080010
0ffff0
00c602
018602
030603
1c07ff
e003fe
ENDCHAR
STARTCHAR ch-425
ENCODING 425
SWIDTH 1000 0
DWIDTH 24 0
BBX 24 24 0 -3
BITMAP
0e040c
0c47fe
0c760c
0c660c
7fe60c
0cc7fc
0c860c
0d860c
0d360c
fffe0c
0c07fc
18060c
10c60c
3fe60c
58c60c
98c7fc
18c030
1fc230
18c3b0
18c732
18c632
1fcc33
18183f
00601e
ENDCHAR
STARTCHAR ch-426
ENCODING 426
SWIDTH 1000 0
DWIDTH 24 0
BBX 24 24 0 -3
BITMAP
07040c
0607fe
06660c
7ff60c
20860c
10e7fc
18c60c
18860c
01360c
fffe0c
0607fc
06060c
06360c
fffe0c
06060c
2607fc
3e8230
3663b0
263330
663332
460632
860c33
06183f
06601e
ENDCHAR
STARTCHAR ch-428
ENCODING 428
SWIDTH 1000 0
DWIDTH 24 0
BBX 24 24 0 -3
BITMAP
07040c
6677fe
66660c
66660c
66660c
7fe7fc
00060c
00360c
fffe0c
00060c
20c7fc
3fe60c
30c60c
30c60c
30c60c
3fc7fc
008030
20c230
1983b0
090732
01e632
ff0c33
78183f
40601e
ENDCHAR
STARTCHAR ch-431
ENCODING 431
SWIDTH 1000 0
DWIDTH 24 0
BBX 24 24 0 -3
BITMAP
0cc20c
0883fe
7ff30c
08830c
08830c
3fe3fc
08830c
08830c
fffb0c
02030c
0203fc
3fe30c
22230c
22230c
3fe30c
2223fc
222030
222130
fff9b0
2021b2
202132
202333
21e23f
20cc1e
ENDCHAR
STARTCHAR ch-434
ENCODING 434
SWIDTH 1000 0
DWIDTH 24 0
BBX 24 24 0 -3
BITMAP
1dc40c
1987fe
19b60c
fffe0c
19860c
1987fc
40660c
7ff60c
66660c
66660c
6667fc
7fe60c
06060c
06060c
7fe60c
0607fc
060030
7fe230
0603b0
060732
07e632
ff0c33
78183f
40601e
ENDCHAR
STARTCHAR ch-435
ENCODING 435
SWIDTH 1000 0
DWIDTH 24 0
BBX 24 24 0 -3
BITMAP
10040c
1867fe
1ff60c
33060c
23060c
4637fc
fffe0c
0c860c
18c60c
11060c
3ff7fc
71860c
b1860c
3ff60c
31860c
3187fc
318230
3ff3b0
318330
318632
318632
3ffc33
30183f
30601e
ENDCHAR
STARTCHAR ch-442
ENCODING 442
SWIDTH 1000 0
DWIDTH 24 0
BBX 24 24 0 -3
BITMAP
008000
13c018
1e24fc
181818
1f24f8
180018
182418
1f18f8
582418
58001a
7fffff
400006
c7ffe4
c60068
07ffe0
060060
07ffe0
060060
060062
07ffe2
00e302
01c303
0f03ff
f001fe
ENDCHAR
STARTCHAR ch-445
ENCODING 445
SWIDTH 1000 0
DWIDTH 24 0
BBX 24 24 0 -3
BITMAP
406400
7ff606
6207ff
620400
7fe808
6073fc
606000
7fe7fe
620492
620492
7ff7fe
600000
0ffff0
080010
0ffff0
080010
0ffff0
080010
0ffff0
008302
01e302
078303
1c03ff
e001fe
ENDCHAR
STARTCHAR ch-447
ENCODING 447
SWIDTH 1000 0
DWIDTH 24 0
BBX 24 24 0 -3
BITMAP
03820c
031bfe
ffff0c
03030c
3ff30c
0003fc
7ffb0c
448b0c
58eb0c
400b0c
7ffbfc
00030c
3ff30c
20130c
3ff30c
2013fc
3ff030
201130
3ff1b0
1081b2
1c6332
183333
30363f
c00c1e
ENDCHAR
STARTCHAR ch-448
ENCODING 448
SWIDTH 1000 0
DWIDTH 24 0
BBX 24 24 0 -3
BITMAP
1c720c
1863fe
ffff0c
18630c
18630c
7cfbfc
448b0c
448b0c
7cfb0c
11030c
1dc3fc
19930c
3ffb0c
31030c
71230c
bff3fc
310030
312130
3ff1b0
3101b2
310132
311333
3ffa3f
30041e
ENDCHAR
STARTCHAR ch-466
ENCODING 466
SWIDTH 1000 0
DWIDTH 24 0
BBX 24 24 0 -3
BITMAP
010000
01c000
018180
03ffc0
030300
060200
0c0418
1ffffc
360c18
c60c18
060c18
07fff8
060c18
060c18
060c18
060c18
07fff8
060018
060018
0c0018
0c0018
180018
3001f8
c00070
ENDCHAR
STARTCHAR ch-474
ENCODING 474
SWIDTH 1000 0
DWIDTH 24 0
BBX 24 24 0 -3
BITMAP
10000c
19847e
1fc7e8
118408
3104c8
2304c8
4264c8
bff4c8
3264c8
3264c8
3264c8
3fe4c8
3264c8
3264c8
3264c8
3fe4cc
3064c4
3064c4
2064d4
2064d6
606cf6
406bdb
43e99a
80d002
ENDCHAR
STARTCHAR ch-476
ENCODING 476
SWIDTH 1000 0
DWIDTH 24 0
BBX 24 24 0 -3
BITMAP
038380
3b030c
33233e
33f3e0
330302
330302
33f303
ff03ff
7881fe
41c000
03ff80
070300
0c0418
3ffffc
cc1818
0c1818
0ffff8
0c1818
0c1818
0ffff8
180018
180018
3001f8
400030
ENDCHAR
STARTCHAR ch-477
ENCODING 477
SWIDTH 1000 0
DWIDTH 24 0
BBX 24 24 0 -3
BITMAP
10000c
19847e
1fc7f0
118630
310630
230630
426630
bff630
326636
3267ff
326630
3fe630
326630
326630
326610
3fe61a
30661a
30661a
207fca
206e0e
60680e
406066
43eff7
80c003
ENDCHAR
STARTCHAR ch-483
ENCODING 483
SWIDTH 1000 0
DWIDTH 24 0
BBX 24 24 0 -3
BITMAP
100000
1c0006
198fff
1fc186
318186
21010c
62637c
bff218
326400
326870
326260
3fe360
326364
3267fe
326460
3fe860
306062
306fff
306060
306060
206060
606060
43e060
80c060
ENDCHAR
STARTCHAR ch-486
ENCODING 486
SWIDTH 1000 0
DWIDTH 24 0
BBX 24 24 0 -3
BITMAP
100070
1c0060
18c060
1fe060
118060
310466
2267ff
7ff666
b26666
326666
326666
3fe666
326666
326666
3267fe
326666
3fe060
306060
306068
306064
206066
606ffb
43e7c3
80c403
ENDCHAR
STARTCHAR ch-487
ENCODING 487
SWIDTH 1000 0
DWIDTH 24 0
BBX 24 24 0 -3
BITMAP
100010
19881c
1fc618
118318
310330
230026
426fff
bff0c0
3260c0
3260c0
3260cc
3fe7fe
3260c0
3260c0
3260c0
3fe0c6
306fff
3060c0
2060c0
2060c0
6060c0
4060c0
43e0c0
80c0c0
ENDCHAR
STARTCHAR ch-500
ENCODING 500
SWIDTH 1000 0
DWIDTH 24 0
BBX 24 24 0 -3
BITMAP
200800
330e00
3f8c0c
330ffe
221800
6217f8
442618
bf8618
2487f8
248618
248618
3f87f8
248006
24bfff
248600
3f8406
208fff
208926
209366
20e246
6084ce
40988c
47833c
818018
ENDCHAR
STARTCHAR ch-504
ENCODING 504
SWIDTH 1000 0
DWIDTH 24 0
BBX 24 24 0 -3
BITMAP
20200c
333ffe
3fb24c
33324c
22324c
623ffc
44340c
bf8700
248606
248fff
248906
3f9906
249fe6
24a926
248926
3f8926
208fe6
208106
208146
208166
60bfae
409c0c
47903c
818018
ENDCHAR
ENDFONT
