STARTFONT 2.1
FONT jis.jis9000.16
SIZE 16 72 72
FONTBOUNDINGBOX 16 16 0 -2
STARTPROPERTIES 4
FONT_DESCENT 2
FONT_ASCENT 14
DEFAULT_CHAR 0
COPYRIGHT "Copyright (c) 1992 AT&T - All rights reserved."
ENDPROPERTIES
CHARS 176
STARTCHAR ch-0
ENCODING 0
SWIDTH 1000 0
DWIDTH 16 0
BBX 16 16 0 -2
BITMAP
0000
61fc
3104
1104
01fc
0104
0104
f1fd
1123
1136
1110
1118
11ec
3706
6800
c7ff
ENDCHAR
STARTCHAR ch-1
ENCODING 1
SWIDTH 1000 0
DWIDTH 16 0
BBX 16 16 0 -2
BITMAP
0104
618c
3088
13fe
0020
0020
0020
f7ff
1020
1070
1050
10d8
118c
3306
6800
c7ff
ENDCHAR
STARTCHAR ch-3
ENCODING 3
SWIDTH 1000 0
DWIDTH 16 0
BBX 16 16 0 -2
BITMAP
0090
6090
3492
1696
0294
0090
0090
f39c
1696
1092
1190
1112
1312
360e
6800
c7ff
ENDCHAR
STARTCHAR ch-5
ENCODING 5
SWIDTH 1000 0
DWIDTH 16 0
BBX 16 16 0 -2
BITMAP
0006
603c
33e0
1200
0200
03ff
0200
f200
12fe
1282
1282
1282
1482
30fe
6800
c7ff
ENDCHAR
STARTCHAR ch-6
ENCODING 6
SWIDTH 1000 0
DWIDTH 16 0
BBX 16 16 0 -2
BITMAP
0104
618c
3088
17ff
0020
0222
0222
f222
1222
13fe
1020
1060
10c0
3180
6800
c7ff
ENDCHAR
STARTCHAR ch-11
ENCODING 11
SWIDTH 1000 0
DWIDTH 16 0
BBX 16 16 0 -2
BITMAP
0024
6022
37ff
1020
03fe
0222
0222
f3fe
1222
1222
13fe
1222
1222
3226
6800
c7ff
ENDCHAR
STARTCHAR ch-13
ENCODING 13
SWIDTH 1000 0
DWIDTH 16 0
BBX 16 16 0 -2
BITMAP
0222
6326
3124
1020
01fc
0104
0104
f1fc
1104
1104
11fc
1104
1104
311c
6800
c7ff
ENDCHAR
STARTCHAR ch-14
ENCODING 14
SWIDTH 1000 0
DWIDTH 16 0
BBX 16 16 0 -2
BITMAP
0000
67ff
3050
1050
03fe
0252
0252
f2de
1382
1202
13fe
1202
1202
33fe
6800
c7ff
ENDCHAR
STARTCHAR ch-15
ENCODING 15
SWIDTH 1000 0
DWIDTH 16 0
BBX 16 16 0 -2
BITMAP
000c
6038
33e0
1020
07ff
00a8
0124
f623
11f8
1088
108e
1182
1302
360e
6800
c7ff
ENDCHAR
STARTCHAR ch-16
ENCODING 16
SWIDTH 1000 0
DWIDTH 16 0
BBX 16 16 0 -2
BITMAP
0000
67ff
3040
10e0
01a2
0776
00dc
f190
1738
107c
11d6
1713
1030
30e0
6800
c7ff
ENDCHAR
STARTCHAR ch-17
ENCODING 17
SWIDTH 1000 0
DWIDTH 16 0
BBX 16 16 0 -2
BITMAP
0024
6026
3022
17ff
0020
0222
0326
f12c
1030
10b8
11ac
1326
1623
30e0
6800
c7ff
ENDCHAR
STARTCHAR ch-19
ENCODING 19
SWIDTH 1000 0
DWIDTH 16 0
BBX 16 16 0 -2
BITMAP
0006
403c
67e0
2420
07ff
0420
07ff
e420
25fe
2522
2522
2522
2926
6020
5000
cfff
ENDCHAR
STARTCHAR ch-20
ENCODING 20
SWIDTH 1000 0
DWIDTH 16 0
BBX 16 16 0 -2
BITMAP
0020
6070
30d8
118c
0707
01fc
0020
f020
17ff
1020
1124
1326
1623
30e0
6800
c7ff
ENDCHAR
STARTCHAR ch-21
ENCODING 21
SWIDTH 1000 0
DWIDTH 16 0
BBX 16 16 0 -2
BITMAP
0000
67ff
3000
1124
0248
0248
0124
f000
13fe
1020
1020
1020
17ff
3000
6800
c7ff
ENDCHAR
STARTCHAR ch-22
ENCODING 22
SWIDTH 1000 0
DWIDTH 16 0
BBX 16 16 0 -2
BITMAP
0110
4910
6a11
2453
0456
0ad4
0290
e238
2628
2a28
226c
2244
22c6
6d83
5000
cfff
ENDCHAR
STARTCHAR ch-23
ENCODING 23
SWIDTH 1000 0
DWIDTH 16 0
BBX 16 16 0 -2
BITMAP
0000
67fe
3000
13fc
0204
0204
0204
f3fc
1000
1108
1198
1090
17fe
3000
6800
c7ff
ENDCHAR
STARTCHAR ch-25
ENCODING 25
SWIDTH 1000 0
DWIDTH 16 0
BBX 16 16 0 -2
BITMAP
0000
61fc
3000
17ff
0000
01fc
0000
f1fc
1000
11fc
1104
1104
1104
31fc
6800
c7ff
ENDCHAR
STARTCHAR ch-26
ENCODING 26
SWIDTH 1000 0
DWIDTH 16 0
BBX 16 16 0 -2
BITMAP
0000
67fe
308c
1050
03fe
0222
0222
f3fe
1222
1222
13fe
1222
1222
3226
6800
c7ff
ENDCHAR
STARTCHAR ch-29
ENCODING 29
SWIDTH 1000 0
DWIDTH 16 0
BBX 16 16 0 -2
BITMAP
0206
623c
3220
1220
0fbf
0224
0224
e3a4
2e24
2224
2264
2244
22c4
6604
5000
cfff
ENDCHAR
STARTCHAR ch-30
ENCODING 30
SWIDTH 1000 0
DWIDTH 16 0
BBX 16 16 0 -2
BITMAP
0000
61f8
3108
1108
01f8
0000
03fc
f040
1040
11f8
1040
1040
17fe
3000
6800
c7ff
ENDCHAR
STARTCHAR ch-31
ENCODING 31
SWIDTH 1000 0
DWIDTH 16 0
BBX 16 16 0 -2
BITMAP
0020
6020
37ff
1020
03fe
0222
0222
f222
13fe
10a8
11ac
1326
1623
3020
6800
c7ff
ENDCHAR
STARTCHAR ch-32
ENCODING 32
SWIDTH 1000 0
DWIDTH 16 0
BBX 16 16 0 -2
BITMAP
0020
6120
3120
13fe
0220
0620
0020
f7ff
1000
11fc
1104
1104
1104
31fc
6800
c7ff
ENDCHAR
STARTCHAR ch-33
ENCODING 33
SWIDTH 1000 0
DWIDTH 16 0
BBX 16 16 0 -2
BITMAP
0080
6184
311e
17f3
0090
0190
031f
f680
11fe
130c
1698
1070
11dc
3707
6800
c7ff
ENDCHAR
STARTCHAR ch-34
ENCODING 34
SWIDTH 1000 0
DWIDTH 16 0
BBX 16 16 0 -2
BITMAP
0080
60fc
3104
1688
0070
01dc
0707
f020
11fc
1020
11fc
1020
13fe
3020
6800
c7ff
ENDCHAR
STARTCHAR ch-35
ENCODING 35
SWIDTH 1000 0
DWIDTH 16 0
BBX 16 16 0 -2
BITMAP
0020
6020
37ff
1020
03fe
0222
0222
f3fe
1222
1222
13fe
1020
17ff
3020
6820
c7ff
ENDCHAR
STARTCHAR ch-39
ENCODING 39
SWIDTH 1000 0
DWIDTH 16 0
BBX 16 16 0 -2
BITMAP
0088
618c
3306
1020
0070
00d8
018c
f707
1000
11fc
1104
1104
1104
31fc
6800
c7ff
ENDCHAR
STARTCHAR ch-46
ENCODING 46
SWIDTH 1000 0
DWIDTH 16 0
BBX 16 16 0 -2
BITMAP
0020
6020
33fe
1022
07ff
0022
03fe
f020
1326
11ac
1078
11ae
1723
3060
6800
c7ff
ENDCHAR
STARTCHAR ch-49
ENCODING 49
SWIDTH 1000 0
DWIDTH 16 0
BBX 16 16 0 -2
BITMAP
0000
63fe
3202
1222
02fa
0222
02fa
f202
12fa
128a
128a
12fa
1202
3406
6800
c7ff
ENDCHAR
STARTCHAR ch-50
ENCODING 50
SWIDTH 1000 0
DWIDTH 16 0
BBX 16 16 0 -2
BITMAP
0088
6198
3110
13fe
0620
0a20
03fc
f220
1220
13fc
1220
1220
13fe
3000
6800
c7ff
ENDCHAR
STARTCHAR ch-53
ENCODING 53
SWIDTH 1000 0
DWIDTH 16 0
BBX 16 16 0 -2
BITMAP
0020
6020
33fe
1020
0020
07ff
0088
f188
172f
1020
13fe
1020
1020
37ff
6800
c7ff
ENDCHAR
STARTCHAR ch-54
ENCODING 54
SWIDTH 1000 0
DWIDTH 16 0
BBX 16 16 0 -2
BITMAP
000c
6038
33e0
1020
07ff
00a8
01ac
f727
1040
17ff
1104
13c8
107c
33c6
6800
c7ff
ENDCHAR
STARTCHAR ch-56
ENCODING 56
SWIDTH 1000 0
DWIDTH 16 0
BBX 16 16 0 -2
BITMAP
0080
60fc
3188
1310
07fe
0222
0222
f222
13fe
1090
1190
1111
1311
360f
6800
c7ff
ENDCHAR
STARTCHAR ch-57
ENCODING 57
SWIDTH 1000 0
DWIDTH 16 0
BBX 16 16 0 -2
BITMAP
0020
6020
33fe
1020
0020
07ff
0104
f088
17ff
1020
1020
13fe
1020
3020
6800
c7ff
ENDCHAR
STARTCHAR ch-60
ENCODING 60
SWIDTH 1000 0
DWIDTH 16 0
BBX 16 16 0 -2
BITMAP
0000
67ff
3000
11fc
0104
01fc
0000
f3fe
1222
1222
13fe
1222
1222
33fe
6800
c7ff
ENDCHAR
STARTCHAR ch-62
ENCODING 62
SWIDTH 1000 0
DWIDTH 16 0
BBX 16 16 0 -2
BITMAP
0040
40e0
61b0
271c
1ce7
0000
0784
e4a4
27a4
24a4
27a4
2484
2484
658c
5000
cfff
ENDCHAR
STARTCHAR ch-65
ENCODING 65
SWIDTH 1000 0
DWIDTH 16 0
BBX 16 16 0 -2
BITMAP
0006
601c
33f0
1210
03ff
0210
02fe
f282
12fe
1282
12fe
1282
1482
30fe
6800
c7ff
ENDCHAR
STARTCHAR ch-66
ENCODING 66
SWIDTH 1000 0
DWIDTH 16 0
BBX 16 16 0 -2
BITMAP
0204
630c
3108
17ff
0080
0142
0646
f0ac
1130
1668
10ac
1126
1623
30e0
6800
c7ff
ENDCHAR
STARTCHAR ch-69
ENCODING 69
SWIDTH 1000 0
DWIDTH 16 0
BBX 16 16 0 -2
BITMAP
0000
67fe
3402
1402
07fe
0504
0488
f5fe
1420
15fe
1420
1bff
1020
3020
6800
c7ff
ENDCHAR
STARTCHAR ch-71
ENCODING 71
SWIDTH 1000 0
DWIDTH 16 0
BBX 16 16 0 -2
BITMAP
0000
63fc
3244
13fc
0244
0244
03fc
e040
27fe
2442
2452
247a
25ca
6406
5000
cfff
ENDCHAR
STARTCHAR ch-73
ENCODING 73
SWIDTH 1000 0
DWIDTH 16 0
BBX 16 16 0 -2
BITMAP
0040
6040
307e
1040
03fc
0204
03fc
f204
13fc
1204
13fc
1108
130c
3606
6800
c7ff
ENDCHAR
STARTCHAR ch-74
ENCODING 74
SWIDTH 1000 0
DWIDTH 16 0
BBX 16 16 0 -2
BITMAP
0210
4210
6210
2fff
0220
025e
0382
e284
2284
229f
2684
2484
2484
6d9c
5000
cfff
ENDCHAR
STARTCHAR ch-75
ENCODING 75
SWIDTH 1000 0
DWIDTH 16 0
BBX 16 16 0 -2
BITMAP
0000
67ff
3401
1421
03fe
0020
03fe
f222
13fe
1222
13fe
1020
17ff
3020
6800
c7ff
ENDCHAR
STARTCHAR ch-77
ENCODING 77
SWIDTH 1000 0
DWIDTH 16 0
BBX 16 16 0 -2
BITMAP
0000
67fe
3000
13fc
0204
03fc
0200
f3fe
1352
1752
15fe
1d52
1152
3156
6800
c7ff
ENDCHAR
STARTCHAR ch-78
ENCODING 78
SWIDTH 1000 0
DWIDTH 16 0
BBX 16 16 0 -2
BITMAP
03fc
6204
327c
1244
0244
0244
07fe
e402
25fa
250a
250a
25fa
2402
6406
5000
cfff
ENDCHAR
STARTCHAR ch-79
ENCODING 79
SWIDTH 1000 0
DWIDTH 16 0
BBX 16 16 0 -2
BITMAP
0000
63fc
3204
13fc
0204
03fc
0080
f1fe
1302
1622
13c2
1212
11f6
300c
6800
c7ff
ENDCHAR
STARTCHAR ch-80
ENCODING 80
SWIDTH 1000 0
DWIDTH 16 0
BBX 16 16 0 -2
BITMAP
0000
479e
6482
2482
0482
079e
0400
e43e
2792
2416
241c
2788
241e
6433
5000
cfff
ENDCHAR
STARTCHAR ch-81
ENCODING 81
SWIDTH 1000 0
DWIDTH 16 0
BBX 16 16 0 -2
BITMAP
0020
6040
31fc
1104
01fc
0104
01fc
f000
13fe
1020
11fc
1020
1020
37ff
6800
c7ff
ENDCHAR
STARTCHAR ch-82
ENCODING 82
SWIDTH 1000 0
DWIDTH 16 0
BBX 16 16 0 -2
BITMAP
0104
6088
37ff
1050
0050
03fe
0252
f252
12de
1382
1202
13fe
1202
33fe
6800
c7ff
ENDCHAR
STARTCHAR ch-83
ENCODING 83
SWIDTH 1000 0
DWIDTH 16 0
BBX 16 16 0 -2
BITMAP
0204
6108
3fff
1040
03fc
0204
0204
f3fc
1204
1204
13fc
1204
1204
33fc
6800
c7ff
ENDCHAR
STARTCHAR ch-84
ENCODING 84
SWIDTH 1000 0
DWIDTH 16 0
BBX 16 16 0 -2
BITMAP
0020
6020
33fe
1020
07ff
0104
0088
f7ff
1020
13fe
1020
17ff
1020
3020
6800
c7ff
ENDCHAR
STARTCHAR ch-85
ENCODING 85
SWIDTH 1000 0
DWIDTH 16 0
BBX 16 16 0 -2
BITMAP
0040
63fc
3084
1084
07ff
0000
01fc
f104
11fc
1010
13fe
1110
17ff
3010
6810
c7ff
ENDCHAR
STARTCHAR ch-86
ENCODING 86
SWIDTH 1000 0
DWIDTH 16 0
BBX 16 16 0 -2
BITMAP
0020
6020
37ff
1020
0020
03fe
028a
f252
12fa
1222
12fa
1222
1222
3226
6800
c7ff
ENDCHAR
STARTCHAR ch-88
ENCODING 88
SWIDTH 1000 0
DWIDTH 16 0
BBX 16 16 0 -2
BITMAP
0088
63fe
3088
11fc
0088
07ff
0020
f1fc
1124
11fc
1124
17ff
1104
310c
6800
c7ff
ENDCHAR
STARTCHAR ch-89
ENCODING 89
SWIDTH 1000 0
DWIDTH 16 0
BBX 16 16 0 -2
BITMAP
0020
607e
3184
1648
0130
00c0
0700
f1fc
1320
1020
17ff
1020
1222
33fe
6800
c7ff
ENDCHAR
STARTCHAR ch-92
ENCODING 92
SWIDTH 1000 0
DWIDTH 16 0
BBX 16 16 0 -2
BITMAP
0006
4f9c
60f0
2112
0226
021c
0388
ee12
227f
2209
222a
226b
2249
6608
5000
cfff
ENDCHAR
STARTCHAR ch-94
ENCODING 94
SWIDTH 1000 0
DWIDTH 16 0
BBX 16 16 0 -2
BITMAP
0006
407c
67d0
241e
0410
05ff
0521
e538
25e2
253e
2500
2928
2269
60cf
5000
cfff
ENDCHAR
STARTCHAR ch-96
ENCODING 96
SWIDTH 1000 0
DWIDTH 16 0
BBX 16 16 0 -2
BITMAP
0020
6020
33fe
1020
07ff
0000
03fe
f202
13fe
1063
10e6
11b8
172e
3023
6820
c7ff
ENDCHAR
STARTCHAR ch-97
ENCODING 97
SWIDTH 1000 0
DWIDTH 16 0
BBX 16 16 0 -2
BITMAP
0880
4dbe
6522
2fa2
023e
0222
0aa2
eaa2
2abe
2fa2
2222
2222
2622
6c46
5000
cfff
ENDCHAR
STARTCHAR ch-99
ENCODING 99
SWIDTH 1000 0
DWIDTH 16 0
BBX 16 16 0 -2
BITMAP
0020
63fe
3222
13fe
0020
07ff
0000
f1fc
1104
11fc
1100
11fe
1102
31fe
6800
c7ff
ENDCHAR
STARTCHAR ch-101
ENCODING 101
SWIDTH 1000 0
DWIDTH 16 0
BBX 16 16 0 -2
BITMAP
000e
63f8
3000
1242
0124
0000
03fe
f020
1020
17ff
1020
1222
1222
33fe
6800
c7ff
ENDCHAR
STARTCHAR ch-104
ENCODING 104
SWIDTH 1000 0
DWIDTH 16 0
BBX 16 16 0 -2
BITMAP
0210
4210
6f90
223f
0fa2
0212
1fd6
e414
279c
2488
2488
249c
2496
69b3
5000
cfff
ENDCHAR
STARTCHAR ch-105
ENCODING 105
SWIDTH 1000 0
DWIDTH 16 0
BBX 16 16 0 -2
BITMAP
0020
6020
37ff
1104
0088
03fe
0222
f2fa
1222
12fa
128a
12fa
1202
3206
6800
c7ff
ENDCHAR
STARTCHAR ch-109
ENCODING 109
SWIDTH 1000 0
DWIDTH 16 0
BBX 16 16 0 -2
BITMAP
0090
6fff
3090
17fe
0492
07fe
0492
f7fe
1000
13fc
1204
13fc
1204
33fc
6800
c7ff
ENDCHAR
STARTCHAR ch-110
ENCODING 110
SWIDTH 1000 0
DWIDTH 16 0
BBX 16 16 0 -2
BITMAP
0010
6010
33ff
1200
0244
03ff
0244
f244
127c
1200
1200
14aa
11ab
3129
6800
c7ff
ENDCHAR
STARTCHAR ch-111
ENCODING 111
SWIDTH 1000 0
DWIDTH 16 0
BBX 16 16 0 -2
BITMAP
0000
4f7f
6908
2918
0f31
0953
091a
e928
2f48
291c
292a
2949
2918
6b30
5000
cfff
ENDCHAR
STARTCHAR ch-114
ENCODING 114
SWIDTH 1000 0
DWIDTH 16 0
BBX 16 16 0 -2
BITMAP
0000
63fe
3202
13fe
0200
02d6
0210
f2d6
1200
1250
127c
1490
11ff
3010
6800
c7ff
ENDCHAR
STARTCHAR ch-117
ENCODING 117
SWIDTH 1000 0
DWIDTH 16 0
BBX 16 16 0 -2
BITMAP
0104
6088
37ff
1090
03fe
0292
031e
f202
13fe
1202
13fe
1004
17ff
3104
688c
c7ff
ENDCHAR
STARTCHAR ch-118
ENCODING 118
SWIDTH 1000 0
DWIDTH 16 0
BBX 16 16 0 -2
BITMAP
0020
61fc
3020
13fe
0104
07df
0104
f1c4
171f
1000
13fe
1088
1189
3707
6800
c7ff
ENDCHAR
STARTCHAR ch-119
ENCODING 119
SWIDTH 1000 0
DWIDTH 16 0
BBX 16 16 0 -2
BITMAP
0000
6fff
3090
17fe
0492
07fe
0040
f7ff
1108
13fc
1c0b
13f8
1202
31fe
6800
c7ff
ENDCHAR
STARTCHAR ch-120
ENCODING 120
SWIDTH 1000 0
DWIDTH 16 0
BBX 16 16 0 -2
BITMAP
0000
4fbe
6082
2fbe
0820
08a2
079e
e110
27fc
2110
2110
2ffe
2208
6c06
5000
cfff
ENDCHAR
STARTCHAR ch-122
ENCODING 122
SWIDTH 1000 0
DWIDTH 16 0
BBX 16 16 0 -2
BITMAP
0020
61fc
3124
11fc
0020
07ff
0000
f1fc
1104
11fc
1104
11fc
1104
31fc
6a02
c7ff
ENDCHAR
STARTCHAR ch-124
ENCODING 124
SWIDTH 1000 0
DWIDTH 16 0
BBX 16 16 0 -2
BITMAP
0040
6040
37ff
128a
0104
03fe
0505
f1fc
1104
11fc
1124
1326
1623
30e0
6800
c7ff
ENDCHAR
STARTCHAR ch-125
ENCODING 125
SWIDTH 1000 0
DWIDTH 16 0
BBX 16 16 0 -2
BITMAP
0020
603e
3020
13ff
0221
02f8
0222
f3ff
1220
1242
12b4
1258
15ac
304b
6998
c7ff
ENDCHAR
STARTCHAR ch-127
ENCODING 127
SWIDTH 1000 0
DWIDTH 16 0
BBX 16 16 0 -2
BITMAP
0008
4788
64be
2480
04a2
0794
047f
e408
2f88
2cbe
3488
2488
2488
6788
5000
cfff
ENDCHAR
STARTCHAR ch-128
ENCODING 128
SWIDTH 1000 0
DWIDTH 16 0
BBX 16 16 0 -2
BITMAP
0110
4210
6f90
28bf
0fa2
0892
0f96
e214
3fdc
2408
2788
249c
2496
69b3
5000
cfff
ENDCHAR
STARTCHAR ch-129
ENCODING 129
SWIDTH 1000 0
DWIDTH 16 0
BBX 16 16 0 -2
BITMAP
0088
67ff
3088
13fe
0222
03fe
0222
f3fe
1020
17ff
1429
143d
15e5
3403
6800
c7ff
ENDCHAR
STARTCHAR ch-130
ENCODING 130
SWIDTH 1000 0
DWIDTH 16 0
BBX 16 16 0 -2
BITMAP
0400
47be
6c92
3912
0fb2
0ae6
0a88
efa8
2abe
2ac8
2f88
28ff
2888
6988
5000
cfff
ENDCHAR
STARTCHAR ch-131
ENCODING 131
SWIDTH 1000 0
DWIDTH 16 0
BBX 16 16 0 -2
BITMAP
0040
47fe
6492
2f1f
0088
07fe
0080
e342
2ca6
2334
2c68
21a4
2e23
20e0
7000
cfff
ENDCHAR
STARTCHAR ch-132
ENCODING 132
SWIDTH 1000 0
DWIDTH 16 0
BBX 16 16 0 -2
BITMAP
0000
67fe
3492
17fe
0000
0fff
0000
f3fc
1204
13fc
10c2
1164
1658
3046
6840
c7ff
ENDCHAR
STARTCHAR ch-135
ENCODING 135
SWIDTH 1000 0
DWIDTH 16 0
BBX 16 16 0 -2
BITMAP
0000
67ff
3124
1222
07ff
0222
0376
f2aa
1376
1222
1376
12aa
1376
3222
6a26
c7ff
ENDCHAR
STARTCHAR ch-137
ENCODING 137
SWIDTH 1000 0
DWIDTH 16 0
BBX 16 16 0 -2
BITMAP
0020
61fc
3104
11fc
0104
01fc
0104
f1fc
1000
17ff
1489
11fc
1707
31fc
6800
c7ff
ENDCHAR
STARTCHAR ch-138
ENCODING 138
SWIDTH 1000 0
DWIDTH 16 0
BBX 16 16 0 -2
BITMAP
0020
61fc
3104
11fc
0104
01fc
0104
f7ff
1489
132e
1020
17ff
1080
30fc
6904
c7ff
ENDCHAR
STARTCHAR ch-143
ENCODING 143
SWIDTH 1000 0
DWIDTH 16 0
BBX 16 16 0 -2
BITMAP
0000
47fe
6492
27fe
0200
0c14
053f
e264
24be
2fa4
223e
2aa4
2aa4
623f
5000
cfff
ENDCHAR
STARTCHAR ch-145
ENCODING 145
SWIDTH 1000 0
DWIDTH 16 0
BBX 16 16 0 -2
BITMAP
0ff0
0810
0810
0ff0
0000
3ffc
2104
2104
2104
3ffc
2000
2000
2000
2001
3003
1ffe
ENDCHAR
STARTCHAR ch-163
ENCODING 163
SWIDTH 1000 0
DWIDTH 16 0
BBX 16 16 0 -2
BITMAP
0000
ff3f
1121
1123
1122
ff26
1124
1122
1121
ff21
1121
1121
3127
2320
6220
ce20
ENDCHAR
STARTCHAR ch-166
ENCODING 166
SWIDTH 1000 0
DWIDTH 16 0
BBX 16 16 0 -2
BITMAP
0800
083f
7f21
0823
0822
7f26
0824
0822
0821
ffa1
0821
1821
1027
3020
6020
c020
ENDCHAR
STARTCHAR ch-168
ENCODING 168
SWIDTH 1000 0
DWIDTH 16 0
BBX 16 16 0 -2
BITMAP
0800
09bf
0f21
f823
0822
0826
4924
4922
4921
7f21
0821
0821
08a1
09a7
0720
0020
ENDCHAR
STARTCHAR ch-170
ENCODING 170
SWIDTH 1000 0
DWIDTH 16 0
BBX 16 16 0 -2
BITMAP
0000
ffbf
2221
2223
2222
2226
2224
ffa2
0a21
0a21
1a21
1221
322f
6220
c220
0e20
ENDCHAR
STARTCHAR ch-175
ENCODING 175
SWIDTH 1000 0
DWIDTH 16 0
BBX 16 16 0 -2
BITMAP
2100
213f
2121
ffe3
2122
2126
2124
2122
3f21
2121
2121
2121
2121
2127
3f20
0020
ENDCHAR
STARTCHAR ch-177
ENCODING 177
SWIDTH 1000 0
DWIDTH 16 0
BBX 16 16 0 -2
BITMAP
0300
0e3f
3821
2023
2022
3fa6
2224
2222
2221
2221
2221
23a1
3e21
e027
0020
0020
ENDCHAR
STARTCHAR ch-181
ENCODING 181
SWIDTH 1000 0
DWIDTH 16 0
BBX 16 16 0 -2
BITMAP
0000
ffbf
08a1
18a3
10a2
31a6
6124
c722
0021
7f21
4121
4121
4121
4127
7f20
0020
ENDCHAR
STARTCHAR ch-184
ENCODING 184
SWIDTH 1000 0
DWIDTH 16 0
BBX 16 16 0 -2
BITMAP
0180
073f
7c21
4423
4422
4426
7fa4
4422
4421
4421
4621
7221
c2a7
03a0
f920
0020
ENDCHAR
STARTCHAR ch-193
ENCODING 193
SWIDTH 1000 0
DWIDTH 16 0
BBX 16 16 0 -2
BITMAP
0800
083e
ffa2
1026
1024
3f2c
2128
6124
bf22
2122
2122
3f22
2122
212e
2120
2720
ENDCHAR
STARTCHAR ch-202
ENCODING 202
SWIDTH 1000 0
DWIDTH 16 0
BBX 16 16 0 -2
BITMAP
0800
083f
0821
ffa3
2222
6326
c1a4
2222
3621
1c21
0821
1c21
1621
3327
6120
c020
ENDCHAR
STARTCHAR ch-206
ENCODING 206
SWIDTH 1000 0
DWIDTH 16 0
BBX 16 16 0 -2
BITMAP
0800
083f
7f21
4123
4122
7f26
4124
4122
7f21
4021
4221
4221
4f21
7927
c020
0020
ENDCHAR
STARTCHAR ch-219
ENCODING 219
SWIDTH 1000 0
DWIDTH 16 0
BBX 16 16 0 -2
BITMAP
0180
0f3f
f8a1
49a3
2522
0026
7f24
0222
0421
0821
0fa1
f821
0821
0827
0820
3820
ENDCHAR
STARTCHAR ch-225
ENCODING 225
SWIDTH 1000 0
DWIDTH 16 0
BBX 16 16 0 -2
BITMAP
0000
7f3f
1121
1123
ffe2
1126
1124
7f22
2021
2021
7f21
a121
2127
2120
2120
3f20
ENDCHAR
STARTCHAR ch-226
ENCODING 226
SWIDTH 1000 0
DWIDTH 16 0
BBX 16 16 0 -2
BITMAP
0000
7f3f
4121
4123
4122
7f26
0024
ffa2
0821
0821
7f21
0821
0821
3fa7
e020
0020
ENDCHAR
STARTCHAR ch-228
ENCODING 228
SWIDTH 1000 0
DWIDTH 16 0
BBX 16 16 0 -2
BITMAP
2200
223f
6321
c1a3
0822
1c26
3624
6322
c1a1
0021
7f21
4121
4121
4127
4120
7f20
ENDCHAR
STARTCHAR ch-232
ENCODING 232
SWIDTH 1000 0
DWIDTH 16 0
BBX 16 16 0 -2
BITMAP
0800
083f
ffa1
4123
6322
2226
2224
ffa2
0021
0021
7f21
4121
4127
4120
4120
7f20
ENDCHAR
STARTCHAR ch-237
ENCODING 237
SWIDTH 1000 0
DWIDTH 16 0
BBX 16 16 0 -2
BITMAP
0800
083e
ffa2
0026
7f24
412c
7f28
0024
ff22
0622
1822
0fa2
f822
082c
0820
3820
ENDCHAR
STARTCHAR ch-245
ENCODING 245
SWIDTH 1000 0
DWIDTH 16 0
BBX 16 16 0 -2
BITMAP
0180
071f
7c11
0413
7fd2
2496
2494
fff2
2491
2491
7fd1
0411
0417
0790
1c10
7010
ENDCHAR
STARTCHAR ch-247
ENCODING 247
SWIDTH 1000 0
DWIDTH 16 0
BBX 16 16 0 -2
BITMAP
2000
67df
4451
c453
97d2
5456
3454
27d2
6411
4411
f491
1491
35d1
2757
6c10
c010
ENDCHAR
STARTCHAR ch-253
ENCODING 253
SWIDTH 1000 0
DWIDTH 16 0
BBX 16 16 0 -2
BITMAP
0880
08bf
7fa1
0923
0922
0a26
ffe4
0822
1021
3f21
e121
2121
3f21
2127
2120
3f20
ENDCHAR
STARTCHAR ch-258
ENCODING 258
SWIDTH 1000 0
DWIDTH 16 0
BBX 16 16 0 -2
BITMAP
0000
f7bf
94a1
94a3
f7a2
0026
7f24
0022
ffa1
1021
2021
7f21
0121
0327
0220
0e20
ENDCHAR
STARTCHAR ch-274
ENCODING 274
SWIDTH 1000 0
DWIDTH 16 0
BBX 16 16 0 -2
BITMAP
2000
7f3f
9121
5523
5522
7d26
2324
4622
2021
7f21
9121
5521
5521
7d27
2320
4620
ENDCHAR
STARTCHAR ch-281
ENCODING 281
SWIDTH 1000 0
DWIDTH 16 0
BBX 16 16 0 -2
BITMAP
0000
3f1f
2111
2113
3f12
0816
ffd4
0012
7f91
4091
5e91
5291
5e91
4097
7f90
0010
ENDCHAR
STARTCHAR ch-301
ENCODING 301
SWIDTH 1000 0
DWIDTH 16 0
BBX 16 16 0 -2
BITMAP
2100
121f
ffd1
1213
7f92
5296
6394
4092
7f91
4091
7f91
0811
ffd7
1210
3310
e190
ENDCHAR
STARTCHAR ch-304
ENCODING 304
SWIDTH 1000 0
DWIDTH 16 0
BBX 16 16 0 -2
BITMAP
4900
2a3f
0821
ffa3
2a22
6b26
c9a4
4822
7121
5fa1
5521
f521
bfa1
2127
6120
c120
ENDCHAR
STARTCHAR ch-306
ENCODING 306
SWIDTH 1000 0
DWIDTH 16 0
BBX 16 16 0 -2
BITMAP
0000
7bdf
4a51
7bd3
0012
3f96
2494
2492
3f91
2491
2491
3f91
0411
fff7
0410
0410
ENDCHAR
STARTCHAR ch-329
ENCODING 329
SWIDTH 1000 0
DWIDTH 16 0
BBX 16 16 0 -2
BITMAP
0000
ffff
0440
0440
7ffe
4442
4442
4442
487e
7002
4002
7ffe
4002
4002
7ffe
0000
ENDCHAR
STARTCHAR ch-330
ENCODING 330
SWIDTH 1000 0
DWIDTH 16 0
BBX 16 16 0 -2
BITMAP
0000
ff80
147f
1408
7f08
5508
5508
5508
6708
4108
4108
7f08
4108
4108
7f08
0038
ENDCHAR
STARTCHAR ch-331
ENCODING 331
SWIDTH 1000 0
DWIDTH 16 0
BBX 16 16 0 -2
BITMAP
1008
1818
0810
ffff
0440
0440
7ffe
4442
4442
487e
7002
4002
7ffe
4002
4002
7ffe
ENDCHAR
STARTCHAR ch-332
ENCODING 332
SWIDTH 1000 0
DWIDTH 16 0
BBX 16 16 0 -2
BITMAP
0040
fe40
2840
287e
fec2
aa82
ab82
aa62
ae32
c212
8202
8202
fe02
8206
8204
fe1c
ENDCHAR
STARTCHAR ch-333
ENCODING 333
SWIDTH 1000 0
DWIDTH 16 0
BBX 16 16 0 -2
BITMAP
0000
ffbe
1402
1402
7f02
5502
553e
5520
6720
4120
4120
7f20
4121
4133
7f1e
0000
ENDCHAR
STARTCHAR ch-334
ENCODING 334
SWIDTH 1000 0
DWIDTH 16 0
BBX 16 16 0 -2
BITMAP
0004
ff84
1404
1404
7f7f
5504
5504
5564
5534
6714
4104
4104
7f04
4104
4104
7f1c
ENDCHAR
STARTCHAR ch-338
ENCODING 338
SWIDTH 1000 0
DWIDTH 16 0
BBX 16 16 0 -2
BITMAP
0000
6fff
3090
1090
07fe
c492
6492
2492
0492
151e
1602
3402
27fe
6402
4402
c7fe
ENDCHAR
STARTCHAR ch-340
ENCODING 340
SWIDTH 1000 0
DWIDTH 16 0
BBX 16 16 0 -2
BITMAP
0020
fe20
28fc
2824
fe24
aa65
aa45
aac3
aa10
ce10
82ff
8210
fe10
8210
8210
fe10
ENDCHAR
STARTCHAR ch-342
ENCODING 342
SWIDTH 1000 0
DWIDTH 16 0
BBX 16 16 0 -2
BITMAP
0008
ff88
1408
147f
7f49
5549
5508
5508
6708
411c
4114
7f14
4114
4135
7f25
0063
ENDCHAR
STARTCHAR ch-344
ENCODING 344
SWIDTH 1000 0
DWIDTH 16 0
BBX 16 16 0 -2
BITMAP
0000
ffbc
1424
1424
7f24
5547
5500
557e
6722
4122
4136
7f1c
4108
411c
7f36
0063
ENDCHAR
STARTCHAR ch-354
ENCODING 354
SWIDTH 1000 0
DWIDTH 16 0
BBX 16 16 0 -2
BITMAP
0020
ff20
2820
287f
fed0
ab90
aa10
aa1e
ce10
8210
8210
fe1e
8210
8210
fe10
0010
ENDCHAR
STARTCHAR ch-355
ENCODING 355
SWIDTH 1000 0
DWIDTH 16 0
BBX 16 16 0 -2
BITMAP
0024
ffa4
1424
14ff
7f24
5524
5524
5524
673c
4124
4124
7f24
4124
4124
7f3c
0000
ENDCHAR
STARTCHAR ch-357
ENCODING 357
SWIDTH 1000 0
DWIDTH 16 0
BBX 16 16 0 -2
BITMAP
0003
ff8e
1478
1408
7f08
557f
5508
5508
671c
411c
412a
7f2a
4149
4108
7f08
0008
ENDCHAR
STARTCHAR ch-361
ENCODING 361
SWIDTH 1000 0
DWIDTH 16 0
BBX 16 16 0 -2
BITMAP
0008
ff88
141f
1411
7f33
556a
5506
550c
6708
411f
4171
7f11
4111
4111
7f11
001f
ENDCHAR
STARTCHAR ch-362
ENCODING 362
SWIDTH 1000 0
DWIDTH 16 0
BBX 16 16 0 -2
BITMAP
0020
fe20
287e
2842
fec6
aa2c
aa18
aa3c
ce66
83c3
8200
fe7e
8242
8242
fe42
007e
ENDCHAR
STARTCHAR ch-364
ENCODING 364
SWIDTH 1000 0
DWIDTH 16 0
BBX 16 16 0 -2
BITMAP
0001
fe49
2849
2849
fe49
aa49
aadb
aadb
ce49
8249
8249
fe49
8249
82c9
fe81
0101
ENDCHAR
STARTCHAR ch-370
ENCODING 370
SWIDTH 1000 0
DWIDTH 16 0
BBX 16 16 0 -2
BITMAP
0000
ffbe
1422
1422
7f22
553e
5500
5500
673e
4108
4108
7f3e
4108
4108
7f7f
0000
ENDCHAR
STARTCHAR ch-371
ENCODING 371
SWIDTH 1000 0
DWIDTH 16 0
BBX 16 16 0 -2
BITMAP
0008
ff90
1422
1414
7f08
5512
557f
5501
673e
4122
413e
7f22
413e
4122
7f22
0026
ENDCHAR
STARTCHAR ch-373
ENCODING 373
SWIDTH 1000 0
DWIDTH 16 0
BBX 16 16 0 -2
BITMAP
0011
fe11
28fe
2812
fe14
abff
aa10
aa20
ae7e
c384
8208
82ff
fe08
8208
8208
fe38
ENDCHAR
STARTCHAR ch-375
ENCODING 375
SWIDTH 1000 0
DWIDTH 16 0
BBX 16 16 0 -2
BITMAP
0010
fe50
2850
28fe
fe90
aa10
aa10
abff
aa00
ce00
827c
8244
fe44
8244
8244
fe7c
ENDCHAR
STARTCHAR ch-376
ENCODING 376
SWIDTH 1000 0
DWIDTH 16 0
BBX 16 16 0 -2
BITMAP
0020
fe62
2842
28ff
fe25
aa24
aa47
aaa0
ce3e
8262
82c6
fe2c
8218
823c
fe66
00c3
ENDCHAR
STARTCHAR ch-386
ENCODING 386
SWIDTH 1000 0
DWIDTH 16 0
BBX 16 16 0 -2
BITMAP
0044
fe44
2844
29ff
fe44
aa44
aa44
aaee
ceee
8355
8355
fe44
8244
8244
fe44
0044
ENDCHAR
STARTCHAR ch-391
ENCODING 391
SWIDTH 1000 0
DWIDTH 16 0
BBX 16 16 0 -2
BITMAP
0010
fe10
28ff
2800
fe7e
aa42
aa7e
aa00
ce7e
8204
8208
feff
8208
8208
fe08
0038
ENDCHAR
STARTCHAR ch-393
ENCODING 393
SWIDTH 1000 0
DWIDTH 16 0
BBX 16 16 0 -2
BITMAP
0008
ff88
147f
1400
7f22
5522
5555
5555
6700
4108
417f
7f08
4108
4108
7f08
0008
ENDCHAR
STARTCHAR ch-395
ENCODING 395
SWIDTH 1000 0
DWIDTH 16 0
BBX 16 16 0 -2
BITMAP
0024
fe24
2824
28ff
fe24
aa24
aa24
aaff
ce00
827e
8242
fe42
827e
8242
fe42
007e
ENDCHAR
STARTCHAR ch-397
ENCODING 397
SWIDTH 1000 0
DWIDTH 16 0
BBX 16 16 0 -2
BITMAP
0000
fefe
2882
28fe
fe82
aa82
aafe
aa00
cfff
8210
8250
fe5e
8250
82d0
feb0
019f
ENDCHAR
STARTCHAR ch-400
ENCODING 400
SWIDTH 1000 0
DWIDTH 16 0
BBX 16 16 0 -2
BITMAP
0040
fe4f
2849
2849
fff9
aa4f
aa49
aa49
cee9
82af
82a9
fea9
82a9
82a9
fee9
0013
ENDCHAR
STARTCHAR ch-402
ENCODING 402
SWIDTH 1000 0
DWIDTH 16 0
BBX 16 16 0 -2
BITMAP
0000
fefe
2882
28fe
fe82
aa82
aafe
aa10
ce50
827e
8290
fe10
82fe
8210
fe10
01ff
ENDCHAR
STARTCHAR ch-407
ENCODING 407
SWIDTH 1000 0
DWIDTH 16 0
BBX 16 16 0 -2
BITMAP
0000
fefa
2824
28a5
fe66
aa42
aaff
aa24
ce24
8224
82ff
fe24
8224
8265
fe45
00c3
ENDCHAR
STARTCHAR ch-412
ENCODING 412
SWIDTH 1000 0
DWIDTH 16 0
BBX 16 16 0 -2
BITMAP
0010
fe20
28fe
2892
fe92
aafe
aa92
aa92
cefe
8252
8254
fe55
8257
82d0
fe91
018f
ENDCHAR
STARTCHAR ch-418
ENCODING 418
SWIDTH 1000 0
DWIDTH 16 0
BBX 16 16 0 -2
BITMAP
0020
fe20
29ff
2840
fe40
aafe
ab42
aa42
ce7e
8200
82fe
feaa
82aa
82aa
feaa
01ff
ENDCHAR
STARTCHAR ch-420
ENCODING 420
SWIDTH 1000 0
DWIDTH 16 0
BBX 16 16 0 -2
BITMAP
480e
6bf8
2922
0894
3fff
e904
088c
ffff
0240
3ffc
2244
3c7c
2004
3ffc
2004
3ffc
ENDCHAR
STARTCHAR ch-426
ENCODING 426
SWIDTH 1000 0
DWIDTH 16 0
BBX 16 16 0 -2
BITMAP
0000
feee
2822
28aa
fe66
aaaa
aa10
aa38
ce6c
83c7
8210
fe64
8219
8262
fe0c
00f0
ENDCHAR
STARTCHAR ch-427
ENCODING 427
SWIDTH 1000 0
DWIDTH 16 0
BBX 16 16 0 -2
BITMAP
7fbc
4824
4f27
5440
7fbe
4a14
5108
7fb6
0000
ffff
0240
3ffc
2244
3c7c
2004
3ffc
ENDCHAR
STARTCHAR ch-431
ENCODING 431
SWIDTH 1000 0
DWIDTH 16 0
BBX 16 16 0 -2
BITMAP
0010
fe10
28fe
2820
fe44
aafe
aa02
aa54
ce54
8255
8283
fe00
82fe
82aa
feaa
01ff
ENDCHAR
STARTCHAR ch-436
ENCODING 436
SWIDTH 1000 0
DWIDTH 16 0
BBX 16 16 0 -2
BITMAP
0028
fe28
28fe
28aa
fefe
aaaa
aafe
aa00
cfff
8200
82fe
fe82
82fe
8244
fe28
01ff
ENDCHAR
STARTCHAR ch-437
ENCODING 437
SWIDTH 1000 0
DWIDTH 16 0
BBX 16 16 0 -2
BITMAP
0010
fe1f
2810
28ff
fe91
aa9c
aaf1
aa9f
ce80
82ff
8290
feaa
82d4
82ae
ff15
006c
ENDCHAR
STARTCHAR ch-440
ENCODING 440
SWIDTH 1000 0
DWIDTH 16 0
BBX 16 16 0 -2
BITMAP
0010
fe10
28ff
2824
fec3
aa24
aa7e
aa24
ce7e
8224
82ff
fe24
8265
82c6
fe72
00c3
ENDCHAR
STARTCHAR ch-442
ENCODING 442
SWIDTH 1000 0
DWIDTH 16 0
BBX 16 16 0 -2
BITMAP
000e
fef8
2810
29ff
fe10
aafe
aa92
aafe
ce92
82fe
8210
fefe
8210
83ff
feaa
00a9
ENDCHAR
STARTCHAR ch-448
ENCODING 448
SWIDTH 1000 0
DWIDTH 16 0
BBX 16 16 0 -2
BITMAP
0010
feff
2800
28ee
feaa
aaee
aa44
aafe
ce44
82fe
8244
ffff
8228
83ca
fe74
00c3
ENDCHAR
STARTCHAR ch-449
ENCODING 449
SWIDTH 1000 0
DWIDTH 16 0
BBX 16 16 0 -2
BITMAP
77ee
4422
77ae
44a2
ffff
8241
3ffc
2444
387c
2004
3ffc
1008
3ffc
e217
0e10
3870
ENDCHAR
STARTCHAR ch-454
ENCODING 454
SWIDTH 1000 0
DWIDTH 16 0
BBX 16 16 0 -2
BITMAP
000c
00f8
7f80
1108
1918
0910
0100
ffff
0520
0d30
0910
1918
310c
6106
c103
0100
ENDCHAR
STARTCHAR ch-455
ENCODING 455
SWIDTH 1000 0
DWIDTH 16 0
BBX 16 16 0 -2
BITMAP
000c
0078
3fc0
0104
2184
308c
1008
0100
ffff
0520
0520
0d30
1918
310c
e107
0100
ENDCHAR
STARTCHAR ch-456
ENCODING 456
SWIDTH 1000 0
DWIDTH 16 0
BBX 16 16 0 -2
BITMAP
0600
1cfe
f082
1082
9282
5482
10fe
fe90
1090
3090
3898
5488
508c
9184
1106
1303
ENDCHAR
STARTCHAR ch-457
ENCODING 457
SWIDTH 1000 0
DWIDTH 16 0
BBX 16 16 0 -2
BITMAP
0610
1c10
f010
1010
92ff
5491
1091
fe91
1091
30ff
3891
5491
5291
9091
1091
10ff
ENDCHAR
STARTCHAR ch-459
ENCODING 459
SWIDTH 1000 0
DWIDTH 16 0
BBX 16 16 0 -2
BITMAP
0400
1cfe
f0aa
10fe
9410
54fe
1010
fdff
1084
3048
39ff
5410
54fe
9010
1010
1010
ENDCHAR
STARTCHAR ch-460
ENCODING 460
SWIDTH 1000 0
DWIDTH 16 0
BBX 16 16 0 -2
BITMAP
0000
3ffc
2104
2104
3ffc
2104
2104
3ffc
0100
0100
3ffc
0100
0100
0100
ffff
0000
ENDCHAR
STARTCHAR ch-461
ENCODING 461
SWIDTH 1000 0
DWIDTH 16 0
BBX 16 16 0 -2
BITMAP
0018
01f0
3f00
0100
ffff
0100
3ffc
2104
3ffc
2104
3ffc
0100
3ffc
0100
0100
ffff
ENDCHAR
STARTCHAR ch-462
ENCODING 462
SWIDTH 1000 0
DWIDTH 16 0
BBX 16 16 0 -2
BITMAP
0000
fefe
9202
9244
fe28
9210
93ff
fe11
1012
1010
fe10
1010
1010
1e10
f010
0070
ENDCHAR
STARTCHAR ch-463
ENCODING 463
SWIDTH 1000 0
DWIDTH 16 0
BBX 16 16 0 -2
BITMAP
1ff8
1008
1ff8
1008
ffff
0000
1ff8
1108
1ff8
1108
1108
1ff8
0100
3ffc
0100
ffff
ENDCHAR
STARTCHAR ch-464
ENCODING 464
SWIDTH 1000 0
DWIDTH 16 0
BBX 16 16 0 -2
BITMAP
0820
7f7f
08c4
ff2c
2a18
6977
c800
3fff
2444
27fc
2444
27fc
6040
47fc
c040
1fff
ENDCHAR
STARTCHAR ch-465
ENCODING 465
SWIDTH 1000 0
DWIDTH 16 0
BBX 16 16 0 -2
BITMAP
0100
0380
06c0
0c60
1830
301c
eff7
0100
0100
7ffe
0100
2104
310c
1918
0910
ffff
ENDCHAR
STARTCHAR ch-470
ENCODING 470
SWIDTH 1000 0
DWIDTH 16 0
BBX 16 16 0 -2
BITMAP
0800
1cff
1611
3311
2011
7e11
c811
0811
7f11
0831
4a21
6a21
2863
0f42
38c2
e18e
ENDCHAR
STARTCHAR ch-472
ENCODING 472
SWIDTH 1000 0
DWIDTH 16 0
BBX 16 16 0 -2
BITMAP
0800
1c00
16ff
3308
2108
7e08
c808
0808
7f08
0808
4a08
6a08
2808
0f08
3808
e038
ENDCHAR
STARTCHAR ch-475
ENCODING 475
SWIDTH 1000 0
DWIDTH 16 0
BBX 16 16 0 -2
BITMAP
0810
1c10
1610
3310
20ff
7e11
c811
0811
7f11
0831
4a21
6a21
2863
0f42
38c2
e18e
ENDCHAR
STARTCHAR ch-476
ENCODING 476
SWIDTH 1000 0
DWIDTH 16 0
BBX 16 16 0 -2
BITMAP
0240
0660
1c38
766e
03c0
0660
1c38
f7ef
0100
0100
7ffe
1108
1918
0910
ffff
0000
ENDCHAR
STARTCHAR ch-477
ENCODING 477
SWIDTH 1000 0
DWIDTH 16 0
BBX 16 16 0 -2
BITMAP
1010
3810
2c10
6610
4010
fc10
11ff
1010
fe10
1010
9410
d410
5010
1e10
7010
c010
ENDCHAR
STARTCHAR ch-479
ENCODING 479
SWIDTH 1000 0
DWIDTH 16 0
BBX 16 16 0 -2
BITMAP
1048
3848
2c48
6448
4048
fc48
1048
1048
fc48
10cc
9484
d484
5084
1d86
7102
c303
ENDCHAR
STARTCHAR ch-481
ENCODING 481
SWIDTH 1000 0
DWIDTH 16 0
BBX 16 16 0 -2
BITMAP
0420
0c30
1918
738e
06c0
0c70
381c
e7e7
0100
0100
7ffe
1108
1918
0910
ffff
0000
ENDCHAR
STARTCHAR ch-483
ENCODING 483
SWIDTH 1000 0
DWIDTH 16 0
BBX 16 16 0 -2
BITMAP
1020
3820
2c20
667f
4241
fcc1
1181
1031
fe19
1009
9401
d401
5001
1e03
7002
c00e
ENDCHAR
STARTCHAR ch-486
ENCODING 486
SWIDTH 1000 0
DWIDTH 16 0
BBX 16 16 0 -2
BITMAP
0800
1c00
167f
3341
2041
7e41
c841
0841
ff41
0841
4a41
6a41
2841
0f41
387f
e000
ENDCHAR
STARTCHAR ch-487
ENCODING 487
SWIDTH 1000 0
DWIDTH 16 0
BBX 16 16 0 -2
BITMAP
1002
3892
2c92
6692
4292
fc92
1092
1092
fe92
1092
9492
d492
5092
1f82
f102
0302
ENDCHAR
STARTCHAR ch-501
ENCODING 501
SWIDTH 1000 0
DWIDTH 16 0
BBX 16 16 0 -2
BITMAP
0800
1dfe
1682
32a2
2092
7ed6
c844
086c
7f28
0838
4a10
6a38
2828
0f6c
38c6
e183
ENDCHAR
STARTCHAR ch-502
ENCODING 502
SWIDTH 1000 0
DWIDTH 16 0
BBX 16 16 0 -2
BITMAP
1010
3890
2c90
6696
409a
fcb2
10d2
1192
fc92
1092
9496
d490
5080
1c81
70c3
c07e
ENDCHAR
STARTCHAR ch-508
ENCODING 508
SWIDTH 1000 0
DWIDTH 16 0
BBX 16 16 0 -2
BITMAP
0800
1cfe
1612
3312
2012
7e12
c852
0832
7f12
081a
4a36
6a23
2822
0f66
38c4
e19c
ENDCHAR
STARTCHAR ch-511
ENCODING 511
SWIDTH 1000 0
DWIDTH 16 0
BBX 16 16 0 -2
BITMAP
0806
1c1c
1670
3340
2040
7e7f
c844
0844
7f44
0844
4a44
6a44
28c4
0e84
3984
e004
ENDCHAR
ENDFONT
