STARTFONT 2.1
FONT jis.jis9000.24
SIZE 24 72 72
FONTBOUNDINGBOX 24 24 0 -3
STARTPROPERTIES 4
FONT_DESCENT 3
FONT_ASCENT 21
DEFAULT_CHAR 0
COPYRIGHT "Copyright (c) 1992 AT&T - All rights reserved."
ENDPROPERTIES
CHARS 176
STARTCHAR ch-0
ENCODING 0
SWIDTH 1000 0
DWIDTH 24 0
BBX 24 24 0 -3
BITMAP
002030
403ff8
303030
183030
0c3030
0c3ff0
003030
003030
003030
003ff0
0c3008
fe300e
0c310c
0c3090
0c3060
0c3330
0c3c18
0df01c
0cc00c
0c8000
1a0000
f1ffff
607ffe
400000
ENDCHAR
STARTCHAR ch-1
ENCODING 1
SWIDTH 1000 0
DWIDTH 24 0
BBX 24 24 0 -3
BITMAP
002020
401038
301830
180c60
0c0c40
0c0098
007ffc
000300
000300
000300
0c030c
fefffe
0c0300
0c0680
0c0660
0c0c30
0c1818
0c301c
0c400c
0c0000
1a0000
f1ffff
607ffe
400000
ENDCHAR
STARTCHAR ch-3
ENCODING 3
SWIDTH 1000 0
DWIDTH 24 0
BBX 24 24 0 -3
BITMAP
0019c0
401980
301988
19198e
0c998c
0cd998
00d9a0
001980
001980
0019e0
0c3998
ffd98c
0d998c
0d1980
0c1182
0c3182
0c2183
0c41ff
0d80fe
0c0000
1a0000
f1ffff
607ffe
400000
ENDCHAR
STARTCHAR ch-5
ENCODING 5
SWIDTH 1000 0
DWIDTH 24 0
BBX 24 24 0 -3
BITMAP
000018
40007c
3043e0
187e00
0c6000
0c6000
006006
007fff
006000
006000
0c680c
fe6ffe
0c6c0c
0c6c0c
0c4c0c
0ccc0c
0c8c0c
0d0ffc
0c0c0c
0c0000
1a0000
f1ffff
607ffe
400000
ENDCHAR
STARTCHAR ch-6
ENCODING 6
SWIDTH 1000 0
DWIDTH 24 0
BBX 24 24 0 -3
BITMAP
000040
402070
301860
180c40
0c0c86
0dffff
000300
000300
00731c
006318
0c6318
fe6318
0c6318
0c7ff8
0c6318
0c6318
0c0600
0c0600
0c0c00
0c3000
1a0000
f1ffff
607ffe
400000
ENDCHAR
STARTCHAR ch-11
ENCODING 11
SWIDTH 1000 0
DWIDTH 24 0
BBX 24 24 0 -3
BITMAP
000390
40030c
300304
19ffff
0c0300
0c430c
007ffe
00630c
00630c
00630c
0c7ffc
fe630c
0c630c
0c630c
0c7ffc
0c630c
0c630c
0c630c
0c633c
0c6318
1a0000
f1ffff
607ffe
400000
ENDCHAR
STARTCHAR ch-13
ENCODING 13
SWIDTH 1000 0
DWIDTH 24 0
BBX 24 24 0 -3
BITMAP
0001c0
404188
30218e
18318c
0c1998
0c1990
00218c
003ffe
00300c
00300c
0c3ffc
fe300c
0c300c
0c300c
0c3ffc
0c300c
0c300c
0c300c
0c307c
0c3018
1a0000
f1ffff
607ffe
400000
ENDCHAR
STARTCHAR ch-14
ENCODING 14
SWIDTH 1000 0
DWIDTH 24 0
BBX 24 24 0 -3
BITMAP
000000
400006
31ffff
180480
0c0480
0c448c
007ffe
00648c
00648c
00648c
0c6cfc
fe687c
0c700c
0c600c
0c7ffc
0c600c
0c600c
0c600c
0c7ffc
0c600c
1a0000
f1ffff
607ffe
400000
ENDCHAR
STARTCHAR ch-15
ENCODING 15
SWIDTH 1000 0
DWIDTH 24 0
BBX 24 24 0 -3
BITMAP
000030
4003f8
307f00
180300
0c0306
0dffff
000f40
001b20
003318
00630f
0d8006
fe7fe0
0c0c60
0c0ccc
0c08fe
0c198c
0c100c
0c2018
0c40f8
0c8030
1a0000
f1ffff
607ffe
400000
ENDCHAR
STARTCHAR ch-16
ENCODING 16
SWIDTH 1000 0
DWIDTH 24 0
BBX 24 24 0 -3
BITMAP
000000
400006
31ffff
180300
0c0600
0c0c08
001a0e
00630c
018718
000da0
0c19c0
fe63a0
0d8698
0c0ccc
0c18c6
0c60c6
0d80c6
0c0180
0c0f80
0c0300
1a0000
f1ffff
607ffe
400000
ENDCHAR
STARTCHAR ch-17
ENCODING 17
SWIDTH 1000 0
DWIDTH 24 0
BBX 24 24 0 -3
BITMAP
0003a0
400318
300308
180306
0dffff
0c0300
000308
00830e
00630c
003318
0c3320
fe0300
0c0340
0c0b30
0c3318
0de30c
0cc30e
0c8306
0c1f00
0c0600
1a0000
f1ffff
607ffe
400000
ENDCHAR
STARTCHAR ch-19
ENCODING 19
SWIDTH 1000 0
DWIDTH 24 0
BBX 24 24 0 -3
BITMAP
000018
4081fc
30ff80
18c180
0cc180
0cfffe
00c180
00c180
00fffe
00c180
0cc180
fea18c
0cbffe
0cb18c
0db18c
0d318c
0d318c
0e31bc
0c3198
0c0180
1a0000
f1ffff
607ffe
400000
ENDCHAR
STARTCHAR ch-20
ENCODING 20
SWIDTH 1000 0
DWIDTH 24 0
BBX 24 24 0 -3
BITMAP
000300
400300
300680
180640
0c0c60
0c1838
00301f
00dfe6
030300
000300
0c0318
fefffc
0c0300
0c4300
0c7320
0c6318
0cc30c
0c8306
0d0f06
0c0600
1a0000
f1ffff
607ffe
400000
ENDCHAR
STARTCHAR ch-21
ENCODING 21
SWIDTH 1000 0
DWIDTH 24 0
BBX 24 24 0 -3
BITMAP
000000
40000c
30fffe
182108
0c318c
0c6318
004210
008420
004210
006318
0c318c
fe318c
0c0000
0c7ffc
0c0300
0c0300
0c0300
0c0306
0dffff
0c0000
1a0000
f1ffff
607ffe
400000
ENDCHAR
STARTCHAR ch-22
ENCODING 22
SWIDTH 1000 0
DWIDTH 24 0
BBX 24 24 0 -3
BITMAP
001070
401c60
311860
18b060
0cb062
0c6163
006166
00a364
013268
003660
0c76d0
fe50d0
0c50d0
0c9098
0c9088
0d1188
0c110c
0c110f
0cf206
0c6406
1a0000
f1ffff
607ffe
400000
ENDCHAR
STARTCHAR ch-23
ENCODING 23
SWIDTH 1000 0
DWIDTH 24 0
BBX 24 24 0 -3
BITMAP
000000
40000c
30fffe
180000
0c0000
0c3ff8
003018
003018
003018
003018
0c3ff8
fe0000
0c2020
0c1038
0c1830
0c0c60
0c0c40
0c0086
0dffff
0c0000
1a0000
f1ffff
607ffe
400000
ENDCHAR
STARTCHAR ch-25
ENCODING 25
SWIDTH 1000 0
DWIDTH 24 0
BBX 24 24 0 -3
BITMAP
000030
403ff8
300000
18000c
0cfffe
0c0000
000000
003ff8
000000
000000
0c3ff8
fe0000
0c0000
0c3ff8
0c3018
0c3018
0c3018
0c3ff8
0c3018
0c0000
1a0000
f1ffff
607ffe
400000
ENDCHAR
STARTCHAR ch-26
ENCODING 26
SWIDTH 1000 0
DWIDTH 24 0
BBX 24 24 0 -3
BITMAP
000018
40fffc
300030
180860
0c0680
0c430c
007ffe
00630c
00630c
00630c
0c7ffc
fe630c
0c630c
0c630c
0c7ffc
0c630c
0c630c
0c630c
0c633c
0c6318
1a0000
f1ffff
607ffe
400000
ENDCHAR
STARTCHAR ch-29
ENCODING 29
SWIDTH 1000 0
DWIDTH 24 0
BBX 24 24 0 -3
BITMAP
00700c
40613e
3061e0
186180
186980
1bfd80
006186
0061ff
006198
006998
187198
fce198
1be198
196198
186198
186118
186318
19e218
18c418
180000
340000
e3ffff
60fffe
400000
ENDCHAR
STARTCHAR ch-30
ENCODING 30
SWIDTH 1000 0
DWIDTH 24 0
BBX 24 24 0 -3
BITMAP
000000
402018
303ffc
183018
0c3018
0c3018
003ff8
003018
000000
000018
0c7ffc
fe0300
0c0300
0c0330
0c3ff8
0c0300
0c0300
0c030c
0cfffe
0c0000
1a0000
f1ffff
607ffe
400000
ENDCHAR
STARTCHAR ch-31
ENCODING 31
SWIDTH 1000 0
DWIDTH 24 0
BBX 24 24 0 -3
BITMAP
000380
400300
300306
19ffff
0c0300
0c4318
007ffc
006318
006318
006318
0c6318
fe7ff8
0c6718
0c0f80
0c0b60
0c1b30
0c3318
0c631c
0d830c
0c0300
1a0000
f1ffff
607ffe
400000
ENDCHAR
STARTCHAR ch-32
ENCODING 32
SWIDTH 1000 0
DWIDTH 24 0
BBX 24 24 0 -3
BITMAP
000380
402300
303b00
183318
0c7ffc
0c4300
008300
000306
03ffff
000000
0c0000
fe2018
0c3ffc
0c3018
0c3018
0c3018
0c3018
0c3ff8
0c3018
0c0000
1a0000
f1ffff
607ffe
400000
ENDCHAR
STARTCHAR ch-33
ENCODING 33
SWIDTH 1000 0
DWIDTH 24 0
BBX 24 24 0 -3
BITMAP
000800
400e00
300c10
181808
0c10fc
0cff86
007876
004e60
000c60
00187f
0c303f
fece00
0c0c30
0c1ff8
0c1830
0c3660
0cc1c0
0c0778
0c1c1e
0ce006
1a0000
f1ffff
607ffe
400000
ENDCHAR
STARTCHAR ch-34
ENCODING 34
SWIDTH 1000 0
DWIDTH 24 0
BBX 24 24 0 -3
BITMAP
000800
400e00
300c60
181ff0
0c1060
0c28c0
00c580
000300
000ce0
00303f
0cc30e
fe3ff0
0c0300
0c0300
0c3ff0
0c0300
0c0300
0cfffc
0c0300
0c0300
1a0000
f1ffff
607ffe
400000
ENDCHAR
STARTCHAR ch-35
ENCODING 35
SWIDTH 1000 0
DWIDTH 24 0
BBX 24 24 0 -3
BITMAP
000380
400300
30030c
18fffe
0c0300
0c0300
007ff8
006318
006318
007ff8
0c6318
fe6318
0c6318
0c7ff8
0c0300
0c0306
0dffff
0c0300
0c0300
0c0300
1a0000
f1ffff
607ffe
400000
ENDCHAR
STARTCHAR ch-39
ENCODING 39
SWIDTH 1000 0
DWIDTH 24 0
BBX 24 24 0 -3
BITMAP
001000
401c40
301830
183018
0c200c
0c430c
008700
000680
000c40
001830
0c301c
fe600f
0d8006
0c3ff8
0c3018
0c3018
0c3018
0c3018
0c3ff8
0c3018
1a0000
f1ffff
607ffe
400000
ENDCHAR
STARTCHAR ch-46
ENCODING 46
SWIDTH 1000 0
DWIDTH 24 0
BBX 24 24 0 -3
BITMAP
000380
400318
307ffc
180318
0c0318
0c031a
01ffff
000318
000318
000318
0c7ffc
fe8306
0c630c
0c2310
0c0b00
0c3360
0de31c
0cc30e
0c9f06
0c0600
1a0000
f1ffff
607ffe
400000
ENDCHAR
STARTCHAR ch-49
ENCODING 49
SWIDTH 1000 0
DWIDTH 24 0
BBX 24 24 0 -3
BITMAP
00400c
407ffe
30600c
18630c
0c630c
0c6fec
00630c
00630c
00630c
006fec
0c600c
fe600c
0c67cc
0c644c
0c644c
0c444c
0cc7cc
0c800c
0d007c
0c0018
1a0000
f1ffff
607ffe
400000
ENDCHAR
STARTCHAR ch-50
ENCODING 50
SWIDTH 1000 0
DWIDTH 24 0
BBX 24 24 0 -3
BITMAP
002080
4038e0
3030c0
183080
0c610c
0c7ffe
00e180
00e180
016198
027ffc
0c6180
fe6180
0c6198
0c7ffc
0c6180
0c6180
0c6180
0c6186
0c7fff
0c6000
1a0000
f1ffff
607ffe
400000
ENDCHAR
STARTCHAR ch-53
ENCODING 53
SWIDTH 1000 0
DWIDTH 24 0
BBX 24 24 0 -3
BITMAP
000380
400300
300318
187ffc
0c0300
0c0300
00030c
00fffe
001060
001c60
0c187e
fe303e
0cc380
0c0318
0c7ffc
0c0300
0c0300
0c030c
0cfffe
0c0000
1a0000
f1ffff
607ffe
400000
ENDCHAR
STARTCHAR ch-54
ENCODING 54
SWIDTH 1000 0
DWIDTH 24 0
BBX 24 24 0 -3
BITMAP
000070
4003f8
307f80
180300
0c0306
0dffff
000f40
001b20
003318
00630f
0d8c06
fc0c00
0dffff
0c1830
0c3070
0c7ce0
0c63c0
0c0778
0c1c1e
0ce006
1a0000
f1ffff
607ffe
400000
ENDCHAR
STARTCHAR ch-56
ENCODING 56
SWIDTH 1000 0
DWIDTH 24 0
BBX 24 24 0 -3
BITMAP
001000
401c00
301860
183ff0
0c30c0
0c6080
00410c
00fffe
01630c
00630c
0c630c
fe7ffc
0c6ccc
0c0cc0
0c0cc2
0c18c2
0c18c3
0c30ff
0c607e
0c8000
1a0000
f1ffff
607ffe
400000
ENDCHAR
STARTCHAR ch-57
ENCODING 57
SWIDTH 1000 0
DWIDTH 24 0
BBX 24 24 0 -3
BITMAP
000380
400300
300318
187ffc
0c0300
0c0300
000306
01ffff
002020
001030
0c1860
fe0846
0dffff
0c0300
0c0300
0c0318
0c7ffc
0c0300
0c0300
0c0300
1a0000
f1ffff
607ffe
400000
ENDCHAR
STARTCHAR ch-60
ENCODING 60
SWIDTH 1000 0
DWIDTH 24 0
BBX 24 24 0 -3
BITMAP
000000
40000c
30fffe
180000
0c0000
0c3ff8
003018
003018
003ff8
000000
0c400c
fe7ffe
0c610c
0c610c
0c7ffc
0c610c
0c610c
0c7ffc
0c600c
0c0000
1a0000
f1ffff
607ffe
400000
ENDCHAR
STARTCHAR ch-62
ENCODING 62
SWIDTH 1000 0
DWIDTH 24 0
BBX 24 24 0 -3
BITMAP
000300
400300
300680
180c60
0c1838
0c601f
018fc6
000000
00860e
00ff4c
0cc64c
fec64c
0cfe4c
0cc64c
0cc64c
0cfe4c
0cc60c
0cc60c
0cde3c
0ccc18
1a0000
f1ffff
607ffe
400000
ENDCHAR
STARTCHAR ch-65
ENCODING 65
SWIDTH 1000 0
DWIDTH 24 0
BBX 24 24 0 -3
BITMAP
000018
4041fc
307f80
186000
0c61c0
0c618c
007ffe
006180
006180
006ff8
0c6808
fe6808
0c4ff8
0c4808
0cc808
0c8ff8
0c8808
0d0808
0c0ff8
0c0000
1a0000
f1ffff
607ffe
400000
ENDCHAR
STARTCHAR ch-66
ENCODING 66
SWIDTH 1000 0
DWIDTH 24 0
BBX 24 24 0 -3
BITMAP
002040
401870
300c60
180c40
0c008c
0cfffe
000700
000e08
00310e
00c38c
0c0588
fe09d0
0c31a0
0cc3b0
0c0598
0c199f
0c618e
0d8386
0c1f00
0c0600
1a0000
f1ffff
607ffe
400000
ENDCHAR
STARTCHAR ch-69
ENCODING 69
SWIDTH 1000 0
DWIDTH 24 0
BBX 24 24 0 -3
BITMAP
00800c
40fffe
30c00c
18c00c
0cc00c
0cfffc
00c420
00c220
00c248
00dffc
0cc180
fec188
0cdffc
0c8180
0c8180
0d8184
0d3ffe
0e0180
0c0180
0c0180
1a0000
f1ffff
607ffe
400000
ENDCHAR
STARTCHAR ch-71
ENCODING 71
SWIDTH 1000 0
DWIDTH 24 0
BBX 24 24 0 -3
BITMAP
004018
407ffc
306318
186318
0c7ff8
0c6318
006318
006318
007ff8
000300
0c8306
feffff
0cc306
0cc346
0cc326
0cdff6
0cce36
0cc806
0cc01e
0cc00c
1a0000
f1ffff
607ffe
400000
ENDCHAR
STARTCHAR ch-73
ENCODING 73
SWIDTH 1000 0
DWIDTH 24 0
BBX 24 24 0 -3
BITMAP
000380
400300
30030c
1803fe
0c0300
0c2318
003ffc
003018
003018
003ff8
0c3018
fe3018
0c3ff8
0c3018
0c3018
0c3ff8
0c1000
0c1c78
0c381e
0ce006
1a0000
f1ffff
607ffe
400000
ENDCHAR
STARTCHAR ch-74
ENCODING 74
SWIDTH 1000 0
DWIDTH 24 0
BBX 24 24 0 -3
BITMAP
007080
4060e0
3060c0
1864c6
1ffeff
18c180
00c10c
00c2fe
00fc0c
00cc28
18cc30
fccc32
18cdff
18cc30
18cc30
188c30
199c30
191830
1978f0
1a3060
340000
e3ffff
60fffe
400000
ENDCHAR
STARTCHAR ch-75
ENCODING 75
SWIDTH 1000 0
DWIDTH 24 0
BBX 24 24 0 -3
BITMAP
004006
407fff
30c006
198384
0d8308
0c7ffc
000300
004318
007ffc
006318
0c6318
fe7ff8
0c6318
0c6318
0c7ff8
0c6318
0c0306
0dffff
0c0300
0c0300
1a0300
f1ffff
607ffe
400000
ENDCHAR
STARTCHAR ch-77
ENCODING 77
SWIDTH 1000 0
DWIDTH 24 0
BBX 24 24 0 -3
BITMAP
000006
43ffff
300000
180000
0c7ff8
0c6018
006018
007ff8
006000
006000
0c7ffc
fe724c
0cf24c
0cb24c
0cbffc
0db24c
0d324c
0e324c
0c323c
0c3018
1a0000
f1ffff
607ffe
400000
ENDCHAR
STARTCHAR ch-78
ENCODING 78
SWIDTH 1000 0
DWIDTH 24 0
BBX 24 24 0 -3
BITMAP
001030
401ff8
301830
181830
0c19f0
0c1930
001930
001930
009936
00ffff
0cc006
fec006
0ccfe6
0ccc66
0ccc66
0ccc66
0ccfe6
0ccc06
0cc03e
0cc00c
1a0000
f1ffff
607ffe
400000
ENDCHAR
STARTCHAR ch-79
ENCODING 79
SWIDTH 1000 0
DWIDTH 24 0
BBX 24 24 0 -3
BITMAP
002018
403ffc
303018
183018
0c3ff8
0c3018
003018
003ff8
000c00
001806
0c1fff
fe3006
0c7886
0db3c6
0c3e06
0c3086
0c30ce
0c3fcc
0c1fbc
0c0018
1a0000
f1ffff
607ffe
400000
ENDCHAR
STARTCHAR ch-80
ENCODING 80
SWIDTH 1000 0
DWIDTH 24 0
BBX 24 24 0 -3
BITMAP
010c0c
41fefe
218c0c
318c0c
198c0c
198c0c
01fcfc
018c0c
018000
01800c
1999fe
fdfc0c
19808c
198058
199878
19fc30
198078
1980cc
19818e
198606
1c0000
f3ffff
60fffe
400000
ENDCHAR
STARTCHAR ch-81
ENCODING 81
SWIDTH 1000 0
DWIDTH 24 0
BBX 24 24 0 -3
BITMAP
000400
400700
304618
187ffc
0c6018
0c6018
007ff8
006018
006018
007ff8
0c0000
fe0004
0cfffe
0c0300
0c0308
0c7ffc
0c0300
0c0302
0dffff
0c0000
1a0000
f1ffff
607ffe
400000
ENDCHAR
STARTCHAR ch-82
ENCODING 82
SWIDTH 1000 0
DWIDTH 24 0
BBX 24 24 0 -3
BITMAP
004010
403038
301820
181846
0dffff
0c0480
000480
00448c
007ffe
00648c
0c648c
fe6cfc
0c687c
0c700c
0c600c
0c7ffc
0c600c
0c600c
0c7ffc
0c600c
1a0000
f1ffff
607ffe
400000
ENDCHAR
STARTCHAR ch-83
ENCODING 83
SWIDTH 1000 0
DWIDTH 24 0
BBX 24 24 0 -3
BITMAP
004040
403070
301860
181886
0dffff
0c0600
000400
004818
007ffc
006018
0c6018
fe7ff8
0c6018
0c6018
0c7ff8
0c6018
0c6018
0c7ff8
0c6018
0c0000
1a0000
f1ffff
607ffe
400000
ENDCHAR
STARTCHAR ch-84
ENCODING 84
SWIDTH 1000 0
DWIDTH 24 0
BBX 24 24 0 -3
BITMAP
000380
400300
300318
187ffc
0c0300
0c0306
01ffff
001020
000820
000844
0cfffe
fe0300
0c0308
0c7ffc
0c0300
0c0302
0dffff
0c0300
0c0300
0c0300
1a0000
f1ffff
607ffe
400000
ENDCHAR
STARTCHAR ch-85
ENCODING 85
SWIDTH 1000 0
DWIDTH 24 0
BBX 24 24 0 -3
BITMAP
000380
400330
303ff8
180630
0c0636
0dffff
000000
002018
003ffc
003018
0c3018
fe3ff8
0c30c0
0c00d8
0c7ffc
0c30c0
0c30c6
0dffff
0c00c0
0c00c0
1a0000
f1ffff
607ffe
400000
ENDCHAR
STARTCHAR ch-86
ENCODING 86
SWIDTH 1000 0
DWIDTH 24 0
BBX 24 24 0 -3
BITMAP
000380
400300
300306
19ffff
0c0300
0c0300
00830c
00fffe
00c04c
00d06c
0ccccc
fec48c
0cdfec
0cc30c
0cc30c
0cdfec
0cc30c
0cc30c
0cc33c
0cc318
1a0000
f1ffff
607ffe
400000
ENDCHAR
STARTCHAR ch-88
ENCODING 88
SWIDTH 1000 0
DWIDTH 24 0
BBX 24 24 0 -3
BITMAP
000e70
400c64
30fffe
180c60
0c7ffc
0c0c60
000c62
01ffff
000100
003ff8
0c3118
fe3118
0c3ff8
0c3118
0c311a
0dffff
0c3018
0c3018
0c3078
0c3030
1a0000
f1ffff
607ffe
400000
ENDCHAR
STARTCHAR ch-89
ENCODING 89
SWIDTH 1000 0
DWIDTH 24 0
BBX 24 24 0 -3
BITMAP
000200
400380
300718
180ffc
0c1838
0c2670
00dae0
000980
000600
003818
01dffc
0c1180
fe2186
0cffff
0c0180
0c398e
0c318c
0c318c
0c3ffc
0c300c
1a0000
f1ffff
607ffe
400000
ENDCHAR
STARTCHAR ch-92
ENCODING 92
SWIDTH 1000 0
DWIDTH 24 0
BBX 24 24 0 -3
BITMAP
000018
40183c
33fce0
181b40
181060
185048
00648c
006318
0061b0
0069a0
1bf048
fde084
196ffe
186646
186040
186250
18634c
186646
19e446
18c840
340000
e3ffff
60fffe
400000
ENDCHAR
STARTCHAR ch-94
ENCODING 94
SWIDTH 1000 0
DWIDTH 24 0
BBX 24 24 0 -3
BITMAP
00001c
4101fe
21ff80
3180c0
1980fc
1990c2
019fff
019006
019184
0191f0
199784
fd9186
1990fe
191000
193230
1b2332
1a2332
1c4633
188c3f
18301e
1c0000
f3ffff
60fffe
400000
ENDCHAR
STARTCHAR ch-96
ENCODING 96
SWIDTH 1000 0
DWIDTH 24 0
BBX 24 24 0 -3
BITMAP
000380
400318
307ffc
180300
0c0306
0dffff
000000
002030
003ff8
003030
0c3030
fe3030
0c3ff8
0c070e
0c0f0c
0c1bd0
0c3338
0c631c
0d830c
0c0300
1a0000
f1ffff
607ffe
400000
ENDCHAR
STARTCHAR ch-97
ENCODING 97
SWIDTH 1000 0
DWIDTH 24 0
BBX 24 24 0 -3
BITMAP
010800
408e86
30ccff
18c8c6
1810c6
1bfec6
0020c6
0020fe
0124c6
0124c6
1924c6
fd24c6
1924fe
19fcc6
1924c6
192486
186186
184106
18821e
19040c
340000
e3ffff
60fffe
400000
ENDCHAR
STARTCHAR ch-99
ENCODING 99
SWIDTH 1000 0
DWIDTH 24 0
BBX 24 24 0 -3
BITMAP
000380
404318
307ffc
186318
0c6318
0c7ff8
000302
03ffff
000000
003ff0
0c3030
fe3030
0c3ff0
0c3000
0c3018
0c3ffc
0c3018
0c3018
0c3ff8
0c3018
1a0000
f1ffff
607ffe
400000
ENDCHAR
STARTCHAR ch-101
ENCODING 101
SWIDTH 1000 0
DWIDTH 24 0
BBX 24 24 0 -3
BITMAP
000018
4001fc
30ff80
180410
0c431c
0c3198
001990
001820
007ff8
000300
0c0300
fefffc
0c0300
0c0300
0c731c
0c6318
0c6318
0c7ff8
0c6018
0c0000
1a0000
f1ffff
607ffe
400000
ENDCHAR
STARTCHAR ch-104
ENCODING 104
SWIDTH 1000 0
DWIDTH 24 0
BBX 24 24 0 -3
BITMAP
003840
403070
203060
31fe60
183066
18307f
03fec8
00308e
00310c
03fe4c
18402c
fc4c28
187e18
184c10
18cc38
188c2c
188c6c
191846
1a7886
183106
1c0000
f3ffff
607ffe
400000
ENDCHAR
STARTCHAR ch-105
ENCODING 105
SWIDTH 1000 0
DWIDTH 24 0
BBX 24 24 0 -3
BITMAP
000380
400300
300306
19ffff
0c1040
0c0860
008c8c
00fffe
00c30c
00c30c
0cdfec
fec30c
0cc30c
0ccfcc
0cc84c
0cc84c
0cc84c
0ccfcc
0cc03c
0cc018
1a0000
f1ffff
607ffe
400000
ENDCHAR
STARTCHAR ch-109
ENCODING 109
SWIDTH 1000 0
DWIDTH 24 0
BBX 24 24 0 -3
BITMAP
000660
400442
31ffff
180440
0c7ffc
0c4444
004444
007ffc
004444
004444
0c7ffc
fe0000
0c3ff8
0c3018
0c3018
0c3ff8
0c3018
0c3018
0c3ff8
0c3018
1a0000
f1ffff
607ffe
400000
ENDCHAR
STARTCHAR ch-110
ENCODING 110
SWIDTH 1000 0
DWIDTH 24 0
BBX 24 24 0 -3
BITMAP
0001c0
400180
304186
187fff
0c6000
0c6630
006634
007ffe
006630
006630
0c6630
fe67f0
0c6630
0c6000
0c6000
0c4a90
0cca48
0c9b6c
0d3366
0c3006
1a0000
f1ffff
607ffe
400000
ENDCHAR
STARTCHAR ch-111
ENCODING 111
SWIDTH 1000 0
DWIDTH 24 0
BBX 24 24 0 -3
BITMAP
013006
41f7ff
213060
3130c0
193084
1931c6
01f34c
013468
0130f0
0130a0
193130
fdf268
1934e8
1930ac
193126
193227
1b3422
1a3020
1cf1e0
1860c0
1c0000
f3ffff
60fffe
400000
ENDCHAR
STARTCHAR ch-114
ENCODING 114
SWIDTH 1000 0
DWIDTH 24 0
BBX 24 24 0 -3
BITMAP
008006
40ffff
30c006
18c006
0cfffe
0cc000
00cedc
00c0c0
00cedc
00c0c0
0cc000
fec8e0
0cccc4
0ccffe
0cd0c0
0c80c2
0cbfff
0d00c0
0c00c0
0c00c0
1a0000
f1ffff
607ffe
400000
ENDCHAR
STARTCHAR ch-117
ENCODING 117
SWIDTH 1000 0
DWIDTH 24 0
BBX 24 24 0 -3
BITMAP
002040
401870
300860
18008c
0dfffe
0c0480
007ff8
004488
004888
0070f8
0c4008
fe7ff8
0c4008
0c7ff8
0c0062
0fffff
0c2060
0c1860
0c0860
0c01e0
1a00c0
f1ffff
607ffe
400000
ENDCHAR
STARTCHAR ch-118
ENCODING 118
SWIDTH 1000 0
DWIDTH 24 0
BBX 24 24 0 -3
BITMAP
000380
400308
307ffc
180300
0c0304
0cfffe
001020
007cfc
001020
001020
0cfdfe
fe6000
0c0004
0cfffe
0c10c0
0c1cc0
0c38c4
0c30c6
0c60fe
0d807c
1a0000
f1ffff
607ffe
400000
ENDCHAR
STARTCHAR ch-119
ENCODING 119
SWIDTH 1000 0
DWIDTH 24 0
BBX 24 24 0 -3
BITMAP
000006
43ffff
300880
18fffc
0c8884
0c8884
00fffc
000c00
000802
03ffff
0c1840
fe1020
0c3fd8
0c60cf
0cc0c6
0f1fc0
0c1808
0c180c
0c1ffc
0c0ff8
1a0000
f1ffff
607ffe
400000
ENDCHAR
STARTCHAR ch-120
ENCODING 120
SWIDTH 1000 0
DWIDTH 24 0
BBX 24 24 0 -3
BITMAP
00180c
43fcfe
30180c
19188c
19f8fc
1980c0
0188c4
018cc6
00fc7e
000000
1818c0
fc18c8
19fffc
1818c0
1818c4
1bfffe
182000
183870
18601c
19800c
340000
e3ffff
60fffe
400000
ENDCHAR
STARTCHAR ch-122
ENCODING 122
SWIDTH 1000 0
DWIDTH 24 0
BBX 24 24 0 -3
BITMAP
000300
407ff8
306318
186318
0c7ff8
0c0302
03ffff
000000
007ff8
006018
0c7ff8
fe6018
0c6018
0c7ff8
0c6018
0c6018
0c7ff8
0c1820
0c3c1c
0cc00c
1a0000
f1ffff
607ffe
400000
ENDCHAR
STARTCHAR ch-124
ENCODING 124
SWIDTH 1000 0
DWIDTH 24 0
BBX 24 24 0 -3
BITMAP
000700
400606
31ffff
180c84
0d0846
0cd868
005030
003ffc
00502f
009026
011fe0
0c1020
fe1020
0c1fe0
0c2300
0c3320
0c6318
0cc30c
0d1f0c
0c0600
1a0000
f1ffff
607ffe
400000
ENDCHAR
STARTCHAR ch-125
ENCODING 125
SWIDTH 1000 0
DWIDTH 24 0
BBX 24 24 0 -3
BITMAP
000380
40030c
3003fe
188300
0cffff
0cc406
00c7c4
00dc10
00c3f8
00c002
0cffff
fec184
0cc68e
0cd9d8
0cc240
0c8cf0
0cb14c
0c8647
0d39c3
0c00c0
1a0000
f1ffff
607ffe
400000
ENDCHAR
STARTCHAR ch-127
ENCODING 127
SWIDTH 1000 0
DWIDTH 24 0
BBX 24 24 0 -3
BITMAP
010c38
41fe30
318c32
198fff
198d04
198c87
01fcc6
018cc4
018008
0183ff
198c30
f9fe30
19cc30
1bcc32
1acdff
1acc30
1ccc30
18fc30
18cc30
180030
340000
e3ffff
60fffe
400000
ENDCHAR
STARTCHAR ch-128
ENCODING 128
SWIDTH 1000 0
DWIDTH 24 0
BBX 24 24 0 -3
BITMAP
002040
403070
212460
31fe60
190466
19fc7f
0104c8
01048e
01fd0c
00604c
18622c
ffff28
186018
187c10
18cc38
18cc2c
188c6c
199846
197886
1a3106
1c0000
f3ffff
607ffe
400000
ENDCHAR
STARTCHAR ch-129
ENCODING 129
SWIDTH 1000 0
DWIDTH 24 0
BBX 24 24 0 -3
BITMAP
001c70
401866
31ffff
181860
0c1860
0c7ff8
006318
006318
007ff8
006318
0c6318
fe7ff8
0c0300
0cfffe
0cc306
0cc346
0cdfe6
0cce26
0cc81e
0cc00c
1a0000
f1ffff
607ffe
400000
ENDCHAR
STARTCHAR ch-130
ENCODING 130
SWIDTH 1000 0
DWIDTH 24 0
BBX 24 24 0 -3
BITMAP
004000
406006
2064ff
307e26
18cc26
188866
011046
00fe5e
00928c
009200
18fe58
fc9258
1892fe
18fe98
188218
1882ff
188218
198218
190e18
1a0618
1c0000
f3ffff
60fffe
400000
ENDCHAR
STARTCHAR ch-131
ENCODING 131
SWIDTH 1000 0
DWIDTH 24 0
BBX 24 24 0 -3
BITMAP
008380
40830c
30fffe
1998cc
0d98c8
0c30fe
00607e
019040
0018c0
00fffe
0c0600
fe0c08
0c321c
0cc530
0c19c0
0ce3a0
0c0598
0c198c
0ce78c
0c0300
1a0000
f1ffff
603ffe
400000
ENDCHAR
STARTCHAR ch-132
ENCODING 132
SWIDTH 1000 0
DWIDTH 24 0
BBX 24 24 0 -3
BITMAP
00800c
40fffe
30cccc
18cccc
0ccccc
0cfffc
00c00c
000000
03ffff
000000
0c4018
fe7ffc
0c6018
0c6018
0c7ffc
0c0f0e
0c1bc8
0c1b30
0c331c
0cc30c
1a0300
f1ffff
607ffe
400000
ENDCHAR
STARTCHAR ch-135
ENCODING 135
SWIDTH 1000 0
DWIDTH 24 0
BBX 24 24 0 -3
BITMAP
000006
43ffff
302310
18330c
0c6306
0cffff
018307
02eb6c
009314
00b334
0ccb4c
fe8304
0c8304
0ceb6c
0c9314
0cb334
0ccb4c
0c8304
0c831c
0c800c
1a0000
f1ffff
607ffe
400000
ENDCHAR
STARTCHAR ch-137
ENCODING 137
SWIDTH 1000 0
DWIDTH 24 0
BBX 24 24 0 -3
BITMAP
000200
400300
303ff8
182008
0c3ff8
0c2008
003ff8
002008
003ff8
008006
0cffff
ff8844
0d9c20
0c3818
0c7fff
0d9836
0c1830
0c1830
0c1ff0
0c1830
1a0000
f1ffff
607ffe
400000
ENDCHAR
STARTCHAR ch-138
ENCODING 138
SWIDTH 1000 0
DWIDTH 24 0
BBX 24 24 0 -3
BITMAP
000200
400300
303ff8
182008
0c3ff8
0c2008
003ff8
002008
003ff8
008306
0cffff
ff8c64
0d9860
0c633f
0c0300
0cfffe
0c0c00
0c0ff8
0c1818
0c30f8
0cc030
fa0000
61ffff
407ffe
ENDCHAR
STARTCHAR ch-143
ENCODING 143
SWIDTH 1000 0
DWIDTH 24 0
BBX 24 24 0 -3
BITMAP
01000c
41fffe
21888c
31888c
19fffc
184000
00c088
0290cc
011990
01b1fe
182310
fc4910
1bfdfe
19e510
186110
1971fe
196910
196910
1a61ff
186100
1c0000
f3ffff
60fffe
400000
ENDCHAR
STARTCHAR ch-145
ENCODING 145
SWIDTH 1000 0
DWIDTH 24 0
BBX 24 24 0 -3
BITMAP
0400c0
07ffe0
0600c0
0600c0
0600c0
0600c0
07ffc0
0600c0
000000
200018
3ffffc
301818
301818
301818
301818
3ffff8
300000
300000
300002
300002
300002
300003
3fffff
1ffffe
ENDCHAR
STARTCHAR ch-163
ENCODING 163
SWIDTH 1000 0
DWIDTH 24 0
BBX 24 24 0 -3
BITMAP
003106
7ff9ff
063186
063186
063184
06318c
063188
7ff188
063190
063188
06318c
063184
063186
7ff186
063186
063186
063186
0c3186
0c3186
0831be
18718c
106180
23e180
c0c180
ENDCHAR
STARTCHAR ch-166
ENCODING 166
SWIDTH 1000 0
DWIDTH 24 0
BBX 24 24 0 -3
BITMAP
038106
0301ff
030186
03318c
3ff98c
030188
030198
030190
0331a0
3ff990
030188
03018c
030184
031986
7ffd86
030186
030186
030186
0301be
06018c
060180
0c0180
180180
600180
ENDCHAR
STARTCHAR ch-168
ENCODING 168
SWIDTH 1000 0
DWIDTH 24 0
BBX 24 24 0 -3
BITMAP
070106
0601ff
067186
07f986
ff818c
06018c
060198
060190
7639a0
663190
663188
66318c
663184
663186
7ff186
663186
660186
060186
0611be
06118c
061980
07f980
03f180
000180
ENDCHAR
STARTCHAR ch-170
ENCODING 170
SWIDTH 1000 0
DWIDTH 24 0
BBX 24 24 0 -3
BITMAP
000000
003206
7ffbff
18c306
18c30c
18c308
18c318
18c310
18c320
18db20
ffff10
03c318
03c30c
06c30c
06c306
04c306
0cc306
08c306
18c306
10c33e
20c30c
c0c300
07c300
018300
ENDCHAR
STARTCHAR ch-175
ENCODING 175
SWIDTH 1000 0
DWIDTH 24 0
BBX 24 24 0 -3
BITMAP
1c7106
1861ff
186186
186186
186d8c
ffff8c
186198
186190
1861a0
186190
186188
18618c
186184
1fe186
186186
186186
186186
186186
1861be
18618c
186180
1fe180
186180
186180
ENDCHAR
STARTCHAR ch-177
ENCODING 177
SWIDTH 1000 0
DWIDTH 24 0
BBX 24 24 0 -3
BITMAP
006106
00f1ff
23c186
3e0186
30018c
30018c
301998
3ffd90
30c1a0
30c190
30c188
30c18c
30c184
30c186
30c186
30c186
30c186
30f986
3fe1be
ff018c
780180
400180
000180
000180
ENDCHAR
STARTCHAR ch-181
ENCODING 181
SWIDTH 1000 0
DWIDTH 24 0
BBX 24 24 0 -3
BITMAP
003106
fff9ff
0c3186
0c3186
0c318c
18318c
187198
106190
3061a0
23e190
40c188
80018c
000184
206186
3ff186
306186
306186
306186
3061be
30618c
306180
3fe180
306180
306180
ENDCHAR
STARTCHAR ch-184
ENCODING 184
SWIDTH 1000 0
DWIDTH 24 0
BBX 24 24 0 -3
BITMAP
003000
00f906
23c1ff
3d8186
318186
31818c
31818c
318198
319990
3ffda0
318190
318198
31818c
31818c
30c186
30c186
30c986
fcc986
706986
406986
003dbe
063d8c
ff1980
000180
ENDCHAR
STARTCHAR ch-193
ENCODING 193
SWIDTH 1000 0
DWIDTH 24 0
BBX 24 24 0 -3
BITMAP
070106
0601ff
060186
061986
fffd8c
0c018c
0c0188
0c0198
183190
1ff9a0
183190
383198
38318c
5ff18c
983186
183186
183186
1ff186
183186
183186
1831be
18318c
19f180
186180
ENDCHAR
STARTCHAR ch-202
ENCODING 202
SWIDTH 1000 0
DWIDTH 24 0
BBX 24 24 0 -3
BITMAP
038106
0301ff
030186
031986
fffd84
00018c
108188
1c6188
183190
181990
301988
20818c
40e186
90c186
08c183
06c183
038183
018183
03c183
06e19f
0c7186
183180
300180
c00180
ENDCHAR
STARTCHAR ch-206
ENCODING 206
SWIDTH 1000 0
DWIDTH 24 0
BBX 24 24 0 -3
BITMAP
038000
03020c
2333fe
3ffb0c
30330c
303308
303318
3ff310
303310
303320
303310
303318
3ff30c
30330c
300306
308306
304306
306306
306306
33b33e
fc330c
703300
400300
000300
ENDCHAR
STARTCHAR ch-219
ENCODING 219
SWIDTH 1000 0
DWIDTH 24 0
BBX 24 24 0 -3
BITMAP
007106
07f9ff
fe2186
083986
44318c
26618c
364198
308190
0031a0
7ff990
006188
00418c
028184
030186
031986
ffe186
7b0186
430186
0301be
03018c
030180
030180
1f0180
060180
ENDCHAR
STARTCHAR ch-225
ENCODING 225
SWIDTH 1000 0
DWIDTH 24 0
BBX 24 24 0 -3
BITMAP
003106
7ff9ff
063186
063186
063184
fffd8c
063188
063188
063190
7ff190
0c3188
0c018c
0c0186
183186
1ff983
1c3183
3c3183
2c3183
4c3183
8c31bf
0c318e
0ff180
0c3180
0c0180
ENDCHAR
STARTCHAR ch-226
ENCODING 226
SWIDTH 1000 0
DWIDTH 24 0
BBX 24 24 0 -3
BITMAP
203106
3ff9ff
303186
303186
30318c
30318c
303198
3ff190
3031a0
000190
000188
00318c
7ff984
030186
030186
033186
3ff986
030186
0301be
03018c
07f980
ff8180
780180
400180
ENDCHAR
STARTCHAR ch-228
ENCODING 228
SWIDTH 1000 0
DWIDTH 24 0
BBX 24 24 0 -3
BITMAP
080106
0e81ff
0c6186
183186
10318c
20018c
430198
030190
0681a0
064190
0c6188
18318c
103184
200186
506186
9ff186
186186
186186
1861be
18618c
186180
1fe180
186180
180180
ENDCHAR
STARTCHAR ch-232
ENCODING 232
SWIDTH 1000 0
DWIDTH 24 0
BBX 24 24 0 -3
BITMAP
038000
030106
0301ff
031986
7ffd8c
00418c
107188
086198
0cc190
0c81a0
010d90
ffff88
00018c
000184
203186
3ff986
303186
303186
303186
3031be
30318c
3ff180
303180
303180
ENDCHAR
STARTCHAR ch-237
ENCODING 237
SWIDTH 1000 0
DWIDTH 24 0
BBX 24 24 0 -3
BITMAP
038000
030106
0319ff
fffd86
000186
00018c
3ff18c
303198
303190
3031a0
3ff198
00018c
003186
7ff986
003183
004183
038183
033983
ffc183
7301bf
43018e
030180
1f0180
060180
ENDCHAR
STARTCHAR ch-245
ENCODING 245
SWIDTH 1000 0
DWIDTH 24 0
BBX 24 24 0 -3
BITMAP
006106
03f1ff
3f0186
03018c
03018c
7ffd88
131198
131190
1311a0
131190
ffff88
13118c
131184
131186
131186
7ffd86
030186
030186
030186
0331be
03c18c
7f0180
380180
200180
ENDCHAR
STARTCHAR ch-247
ENCODING 247
SWIDTH 1000 0
DWIDTH 24 0
BBX 24 24 0 -3
BITMAP
080000
0e4646
0c7f7f
086666
906666
646666
376664
367e64
0c6664
086668
106668
146664
277e66
fe6662
766063
466863
046463
0c6663
086b63
1bf36f
11c366
210060
400060
800060
ENDCHAR
STARTCHAR ch-253
ENCODING 253
SWIDTH 1000 0
DWIDTH 24 0
BBX 24 24 0 -3
BITMAP
070106
0611ff
061d86
06d986
7ff98c
06318c
066188
06c198
078d90
ffffa0
060190
0c0198
18318c
3ff98c
583186
983186
183186
1ff186
183186
183186
1831be
1ff18c
183180
183180
ENDCHAR
STARTCHAR ch-258
ENCODING 258
SWIDTH 1000 0
DWIDTH 24 0
BBX 24 24 0 -3
BITMAP
4c9906
7efdff
4c9986
4c9986
4c998c
4c998c
7cf998
4c9990
0001a0
003190
7ff988
00018c
001984
fffd86
180186
186186
3ff186
306186
0061be
00618c
00e180
00c180
07c180
018180
ENDCHAR
STARTCHAR ch-274
ENCODING 274
SWIDTH 1000 0
DWIDTH 24 0
BBX 24 24 0 -3
BITMAP
1c0106
1831ff
3ff986
203186
44318c
a4b18c
24b198
24b190
3fb1a0
086190
11e188
60c18c
1c0184
183186
3ff986
203186
443186
a4b186
24b1be
24b18c
3fb180
086180
11e180
60c180
ENDCHAR
STARTCHAR ch-281
ENCODING 281
SWIDTH 1000 0
DWIDTH 24 0
BBX 24 24 0 -3
BITMAP
203106
3ff9ff
303186
303186
30318c
3ff18c
333198
030190
030da0
ffff90
000188
00018c
3ff184
303186
303186
37b186
34b186
34b186
34b1be
37b18c
303180
303180
3ff180
303180
ENDCHAR
STARTCHAR ch-301
ENCODING 301
SWIDTH 1000 0
DWIDTH 24 0
BBX 24 24 0 -3
BITMAP
202000
183906
0c31ff
0c4186
ffff86
04818c
04818c
7ff998
448990
4889a0
707990
400998
7ff98c
40098c
400986
7ff986
030186
030186
ffff86
030186
06c1be
0c318c
301980
c01980
ENDCHAR
STARTCHAR ch-304
ENCODING 304
SWIDTH 1000 0
DWIDTH 24 0
BBX 24 24 0 -3
BITMAP
21c886
118eff
198cc6
1988c4
0192cc
7fffc8
0780c8
0df0d0
099cc8
118ecc
2186c4
4180c6
1018c6
1e18c6
33fec6
2298c6
4698c6
b498c6
1c98de
0bffcc
1818c0
1018c0
2018c0
c018c0
ENDCHAR
STARTCHAR ch-306
ENCODING 306
SWIDTH 1000 0
DWIDTH 24 0
BBX 24 24 0 -3
BITMAP
4c9906
7efdff
4c9986
4c9986
4c998c
7cf98c
000198
000190
3ff1a0
333190
333188
33318c
3ff184
333186
333186
333186
3ff186
030186
030dbe
ffff8c
030180
030180
030180
030180
ENDCHAR
STARTCHAR ch-329
ENCODING 329
SWIDTH 1000 0
DWIDTH 24 0
BBX 24 24 0 -3
BITMAP
000000
000006
ffffff
00c300
00c300
00c300
20c30c
3ffffe
30c30c
30c30c
30830c
31830c
3103fc
3201fc
3c000c
30000c
30000c
3ffffc
30000c
30000c
30000c
3ffffc
30000c
30000c
ENDCHAR
STARTCHAR ch-330
ENCODING 330
SWIDTH 1000 0
DWIDTH 24 0
BBX 24 24 0 -3
BITMAP
003000
fff806
0907ff
090030
090030
493030
7ff830
693030
693030
693030
693030
69f030
68f030
703030
603030
603030
603030
7ff030
603030
603030
603030
603030
7ff1f0
603060
ENDCHAR
STARTCHAR ch-331
ENCODING 331
SWIDTH 1000 0
DWIDTH 24 0
BBX 24 24 0 -3
BITMAP
020100
0181c0
00c180
00c100
000206
ffffff
00c600
00c600
10c618
1ffffc
18c618
18c618
198618
1987f8
1b03f8
1c0018
180018
1ffff8
180018
180018
180018
1ffff8
180018
180018
ENDCHAR
STARTCHAR ch-332
ENCODING 332
SWIDTH 1000 0
DWIDTH 24 0
BBX 24 24 0 -3
BITMAP
001900
fffdc0
050180
050180
050186
4531ff
7ffb06
653206
653606
653506
653886
6df0c6
68f066
703066
603066
603006
603006
7ff006
60300e
60300c
60300c
7ff01c
6030f8
603030
ENDCHAR
STARTCHAR ch-333
ENCODING 333
SWIDTH 1000 0
DWIDTH 24 0
BBX 24 24 0 -3
BITMAP
00300c
fffbfe
05000c
05000c
05000c
45300c
7ff80c
65300c
65300c
65320c
6533fc
65330c
6df300
683300
703300
603300
603300
7ff300
603302
603302
603302
603303
7ff3ff
6031fe
ENDCHAR
STARTCHAR ch-334
ENCODING 334
SWIDTH 1000 0
DWIDTH 24 0
BBX 24 24 0 -3
BITMAP
00181c
fffc18
048018
048018
048018
44981a
7fffff
649818
649818
649818
649a18
6cf918
687998
701998
601998
601818
601818
7ff818
601818
601818
601818
601818
7ff8f8
601830
ENDCHAR
STARTCHAR ch-338
ENCODING 338
SWIDTH 1000 0
DWIDTH 24 0
BBX 24 24 0 -3
BITMAP
200006
19ffff
0c0cc0
0c0cc0
000cc0
000cc0
808ccc
60fffe
32cccc
32cccc
04cccc
04c8cc
0cd8fc
08d07c
18e00c
18c00c
30c00c
f0fffc
70c00c
30c00c
30c00c
30c00c
38fffc
18c00c
ENDCHAR
STARTCHAR ch-340
ENCODING 340
SWIDTH 1000 0
DWIDTH 24 0
BBX 24 24 0 -3
BITMAP
0031c0
fff980
050180
050198
050ffc
453198
7ff998
65319a
65311a
65331b
65321f
6df40e
68f8e0
7030c0
6030c0
6030c6
603fff
7ff0c0
6030c0
6030c0
6030c0
6030c0
7ff0c0
6030c0
ENDCHAR
STARTCHAR ch-342
ENCODING 342
SWIDTH 1000 0
DWIDTH 24 0
BBX 24 24 0 -3
BITMAP
0061c0
fff180
0a0180
0a0180
0a0980
4a6986
7fefff
6a7986
6a7984
6a6188
6a6180
6be170
69e160
706160
606160
606360
606360
7fe360
606262
606262
606462
606463
7fe87f
60103e
ENDCHAR
STARTCHAR ch-344
ENCODING 344
SWIDTH 1000 0
DWIDTH 24 0
BBX 24 24 0 -3
BITMAP
006430
fff7f8
0a0630
0a0630
0a0630
4a6630
7ff630
6a643f
6a6c1f
6a6800
6a7000
6be00c
69effe
70620c
60620c
606118
606118
7fe1b0
6060f0
606060
6060f8
60619f
7fe30e
606c06
ENDCHAR
STARTCHAR ch-354
ENCODING 354
SWIDTH 1000 0
DWIDTH 24 0
BBX 24 24 0 -3
BITMAP
003080
fff8e0
0500c0
050180
050180
453106
7ffbff
6532c0
6534c0
6538c0
6530cc
69f0fe
68f0c0
7030c0
6030c0
6030c6
6030ff
7ff0c0
6030c0
6030c0
6030c0
6030c0
7ff0c0
6030c0
ENDCHAR
STARTCHAR ch-355
ENCODING 355
SWIDTH 1000 0
DWIDTH 24 0
BBX 24 24 0 -3
BITMAP
00639c
fff318
0a0318
0a0318
0a0318
4a631a
7fffff
6a6318
6a6318
6a6318
6a6318
6be318
69e318
7063f8
606318
606318
606318
7fe318
606318
606318
606318
6063f8
7fe318
606318
ENDCHAR
STARTCHAR ch-357
ENCODING 357
SWIDTH 1000 0
DWIDTH 24 0
BBX 24 24 0 -3
BITMAP
00600c
fff03e
0a01f8
0a0fc0
0a00c0
4a60c0
7ff0c0
6a60c0
6a60c6
6a7fff
6a61d0
6be1d0
69e1d0
7063c8
6063c8
6062cc
6066cc
7fe4c7
6068c6
6070c6
6060c0
6060c0
7fe0c0
6060c0
ENDCHAR
STARTCHAR ch-361
ENCODING 361
SWIDTH 1000 0
DWIDTH 24 0
BBX 24 24 0 -3
BITMAP
006080
fff0e0
0a00c0
0a01c0
0a018c
4a61fe
7ff30c
6a621c
6a6518
6a69b0
6a60b0
6be060
69e0c0
706186
6063ff
606586
606986
7fe186
606186
606186
606186
606186
7fe1fe
606186
ENDCHAR
STARTCHAR ch-362
ENCODING 362
SWIDTH 1000 0
DWIDTH 24 0
BBX 24 24 0 -3
BITMAP
003100
fff9c0
050180
05018c
0501fe
45330c
7ff218
653518
6538b0
6530e0
653040
6530f0
6df19c
68330f
703606
603800
6033fc
7ff30c
60330c
60330c
60330c
60330c
7ff3fc
60330c
ENDCHAR
STARTCHAR ch-364
ENCODING 364
SWIDTH 1000 0
DWIDTH 24 0
BBX 24 24 0 -3
BITMAP
006303
fff232
0a0222
0a0222
0a0222
4a4222
7fe222
6ac222
6aca22
6acaaa
6acaaa
6bdaaa
70daaa
60daaa
60c222
60c222
7fc222
60c622
60c422
60c422
60cc22
7fc822
601022
602002
ENDCHAR
STARTCHAR ch-370
ENCODING 370
SWIDTH 1000 0
DWIDTH 24 0
BBX 24 24 0 -3
BITMAP
00640c
fff7fe
0a060c
0a060c
0a060c
4a660c
7ff60c
6a67fc
6a660c
6a6000
6a6000
6be00c
69e7fe
706060
606060
606060
60606c
7fe7fe
606060
606060
606060
606066
7fefff
606000
ENDCHAR
STARTCHAR ch-371
ENCODING 371
SWIDTH 1000 0
DWIDTH 24 0
BBX 24 24 0 -3
BITMAP
006080
fff0e0
0a00c0
0a0190
0a091c
4a6618
7ff330
6a6324
6a6046
6a7ffb
6a6f03
6be000
69e7fc
70660c
60660c
6067fc
60660c
7fe60c
6067fc
60660c
60660c
60660c
7fe63c
606618
ENDCHAR
STARTCHAR ch-373
ENCODING 373
SWIDTH 1000 0
DWIDTH 24 0
BBX 24 24 0 -3
BITMAP
0061c0
fff188
0a018e
0a018c
0a0ffc
4ac198
7fe198
6ac1b2
6affff
6ac060
6ac0c0
6bc18c
70cffe
60c60c
60cc98
60f0e0
7fc0c6
60dfff
60c0c0
60c0c0
60c0c0
7fc0c0
60c7c0
600180
ENDCHAR
STARTCHAR ch-375
ENCODING 375
SWIDTH 1000 0
DWIDTH 24 0
BBX 24 24 0 -3
BITMAP
003070
fffa60
050360
050360
05036c
4533fe
7ffa60
653260
653460
6d3066
69ffff
68f000
703000
60320c
6033fe
60330c
7ff30c
60330c
60330c
60330c
60330c
7ff3fc
60330c
60030c
ENDCHAR
STARTCHAR ch-376
ENCODING 376
SWIDTH 1000 0
DWIDTH 24 0
BBX 24 24 0 -3
BITMAP
00c100
ffe1c0
0a0188
0a0104
0a0206
4adffb
7fee33
6ac330
6ac330
6ac63f
6acc1f
6ad200
6bc380
70c30c
60c3fe
60c60c
60c518
7fc8b0
60d060
60c0e0
60c1b8
60c31f
7fc60e
60d806
ENDCHAR
STARTCHAR ch-386
ENCODING 386
SWIDTH 1000 0
DWIDTH 24 0
BBX 24 24 0 -3
BITMAP
018618
ffc410
140410
140410
140410
548596
7fffff
548410
548410
548410
548e38
578d38
538d38
609c74
409454
409456
40a497
7fc512
408410
408410
408410
408410
7f8410
408410
ENDCHAR
STARTCHAR ch-391
ENCODING 391
SWIDTH 1000 0
DWIDTH 24 0
BBX 24 24 0 -3
BITMAP
0060e0
fff0c0
0a00c6
0a1fff
0a0000
4a440c
7fe7fe
6ac60c
6ac60c
6ac7fc
6ac000
6bc00c
70cffe
60c018
60c0a0
60c0c0
7fc0c6
60ffff
60c0c0
60c0c0
60c0c0
7fc0c0
60c7c0
600180
ENDCHAR
STARTCHAR ch-393
ENCODING 393
SWIDTH 1000 0
DWIDTH 24 0
BBX 24 24 0 -3
BITMAP
006070
fff060
0a0060
0a0066
0a0fff
4a6000
7ff210
6a639c
6a6318
6a6398
6a62d4
6be6f6
69e423
706843
606000
606060
606fff
7fe060
606060
606060
606060
606060
7fe060
606060
ENDCHAR
STARTCHAR ch-395
ENCODING 395
SWIDTH 1000 0
DWIDTH 24 0
BBX 24 24 0 -3
BITMAP
00639c
fff318
0a0318
0a0318
0a0ffe
4a6318
7ff318
6a6318
6a6318
6a6318
6a7fff
6be000
69e40c
7067fe
60660c
60660c
60660c
7fe7fc
60660c
60660c
60660c
6067fc
7fe60c
60660c
ENDCHAR
STARTCHAR ch-397
ENCODING 397
SWIDTH 1000 0
DWIDTH 24 0
BBX 24 24 0 -3
BITMAP
00620c
fff3fe
0a030c
0a030c
0a03fc
4a630c
7ff30c
6a630c
6a63fc
6a6000
6a6006
6befff
69e060
706060
606460
606764
60667e
7fe660
606660
606660
606560
606ce0
7fe87f
60101e
ENDCHAR
STARTCHAR ch-400
ENCODING 400
SWIDTH 1000 0
DWIDTH 24 0
BBX 24 24 0 -3
BITMAP
00c726
ffe63f
0a0626
0a0626
0a0626
4a46a6
7fffe6
6ac63e
6ac626
6ac626
6ac626
6bcf26
70c926
60c926
60c93e
60c926
7fc926
60c926
60c926
60cf66
60c846
7fc0c6
60c09e
60010c
ENDCHAR
STARTCHAR ch-402
ENCODING 402
SWIDTH 1000 0
DWIDTH 24 0
BBX 24 24 0 -3
BITMAP
00640c
fff7fe
0a060c
0a060c
0a07fc
4a660c
7ff60c
6a660c
6a67fc
6a6000
6a60e0
6be4c0
69e6c0
7066c4
6067fe
606cc0
6068c0
7ff0c8
6067fc
6060c0
6060c0
6060c2
7fffff
606000
ENDCHAR
STARTCHAR ch-407
ENCODING 407
SWIDTH 1000 0
DWIDTH 24 0
BBX 24 24 0 -3
BITMAP
00c190
ffef98
0a01b0
0a2144
0a1b46
4a4a2c
7fc630
4a4418
4a480f
4a5006
4a6ff8
4a4660
53c660
504664
607ffe
404660
404660
7fc660
404660
404462
404c62
404863
7fd07f
40203e
ENDCHAR
STARTCHAR ch-412
ENCODING 412
SWIDTH 1000 0
DWIDTH 24 0
BBX 24 24 0 -3
BITMAP
00c100
ffe1c0
0a0986
0a0fff
0a0c46
4a4c46
7fec46
6acffe
6acc46
6acc46
6acc46
6bcffe
70c060
60c468
60c76c
60c668
7fc66a
60c67f
60c669
60c460
60cc62
7fc863
60107f
60603e
ENDCHAR
STARTCHAR ch-418
ENCODING 418
SWIDTH 1000 0
DWIDTH 24 0
BBX 24 24 0 -3
BITMAP
0061c0
fff180
0a0186
0a1fff
0a0300
4a6300
7ff60c
6a67fe
6a6b0c
6a730c
6a630c
6be3fc
69e30c
706000
606402
6067ff
606492
7fe492
606492
606492
606492
606492
7fffff
606000
ENDCHAR
STARTCHAR ch-420
ENCODING 420
SWIDTH 1000 0
DWIDTH 24 0
BBX 24 24 0 -3
BITMAP
03803c
433ffe
331104
1b0886
1b0888
030030
037fff
071030
fb0c30
630430
4301f0
030060
000006
ffffff
006600
106618
1ffffc
18c618
1f03f8
180018
1ffff8
180018
1ffff8
180018
ENDCHAR
STARTCHAR ch-426
ENCODING 426
SWIDTH 1000 0
DWIDTH 24 0
BBX 24 24 0 -3
BITMAP
00630c
fffffe
0a0104
0a1964
0a0924
4ac104
7fe71c
6add74
6ac824
6ac184
6ac180
6ac360
6bc638
70cc9f
60f1c6
60c320
60cc70
7fc0c4
60c30e
60cc1c
60c038
60c0e0
7fc380
60dc00
ENDCHAR
STARTCHAR ch-427
ENCODING 427
SWIDTH 1000 0
DWIDTH 24 0
BBX 24 24 0 -3
BITMAP
403118
7ff9fc
640198
67c198
69031f
61020f
6fe400
6283fe
64608c
682058
600070
7ff8df
600306
000000
ffffff
004400
1ffff8
188418
1f03f8
180018
1ffff8
180018
1ffff8
180018
ENDCHAR
STARTCHAR ch-431
ENCODING 431
SWIDTH 1000 0
DWIDTH 24 0
BBX 24 24 0 -3
BITMAP
0060e0
fff0c0
0a00c6
0a0fff
0a0180
4a6104
7ff7fe
6a6386
6a6000
6a634c
6a6248
6be248
69e24a
70664a
60644f
606807
606000
7fe7fe
606492
606492
606492
606492
7fffff
606000
ENDCHAR
STARTCHAR ch-436
ENCODING 436
SWIDTH 1000 0
DWIDTH 24 0
BBX 24 24 0 -3
BITMAP
00c1b0
ffe120
0a0924
0a0ffe
0a0924
4ac924
7fcffc
6ac924
6ac924
6acffc
6ac000
6affff
6bc000
70cffc
60cc0c
60cc0c
60cffc
7fc008
60c80c
60c618
60c210
60c026
7fffff
60c000
ENDCHAR
STARTCHAR ch-437
ENCODING 437
SWIDTH 1000 0
DWIDTH 24 0
BBX 24 24 0 -3
BITMAP
0060e0
fff0c8
0a00fc
0a08c2
0a0fff
4ac886
7fe8f4
6acf80
6ac882
6ac87e
6ac800
6acbfe
6bc840
70c8e2
60cb27
60c874
60c890
7fcb18
60c834
60d857
60d192
60d610
7fe0f0
60c060
ENDCHAR
STARTCHAR ch-440
ENCODING 440
SWIDTH 1000 0
DWIDTH 24 0
BBX 24 24 0 -3
BITMAP
00c0e0
ffe0c0
0a00c6
0a1fff
0a0410
4a470c
7fc606
6ad926
6ac120
6acffc
6ac120
6bc120
70cffc
60c120
60c122
60ffff
7fc344
60c646
60ce2c
60f230
60c2d8
7fdf1c
60cc0f
600806
ENDCHAR
STARTCHAR ch-442
ENCODING 442
SWIDTH 1000 0
DWIDTH 24 0
BBX 24 24 0 -3
BITMAP
006018
fff0fc
0a0fe0
0a0040
0a0046
4adfff
7fe040
6ac7fc
6ac444
6ac444
6ac7fc
6ac444
6bc444
70c7fc
60c040
60cffe
60c040
7fc042
60dfff
60c000
60c924
60c9b2
7fd9b3
60d893
ENDCHAR
STARTCHAR ch-448
ENCODING 448
SWIDTH 1000 0
DWIDTH 24 0
BBX 24 24 0 -3
BITMAP
00c0e0
ffe0c6
0a1fff
0a0000
0a0f3c
4ac924
7fe924
6acf3c
6ac210
6acffc
6ac210
6ac210
6bcffc
70c210
60c212
60ffff
60c344
7fc646
60ce2c
60f230
60c218
60dfdf
7fce0e
60c806
ENDCHAR
STARTCHAR ch-449
ENCODING 449
SWIDTH 1000 0
DWIDTH 24 0
BBX 24 24 0 -3
BITMAP
130008
1eff7c
108108
1cf938
108108
1cf938
50890a
7fffff
400006
dffff4
c04200
1ffff8
188218
1f01f8
180018
1ffff8
180018
1ffff8
020080
070060
0dfff8
3060df
c0c3c6
070180
ENDCHAR
STARTCHAR ch-454
ENCODING 454
SWIDTH 1000 0
DWIDTH 24 0
BBX 24 24 0 -3
BITMAP
000070
0003f8
007f80
3ff840
081870
041860
0618c0
031880
031900
021806
ffffff
007a00
00d900
00d900
019980
019880
0318c0
061860
0c1838
18181f
30180e
c01806
001800
001800
ENDCHAR
STARTCHAR ch-455
ENCODING 455
SWIDTH 1000 0
DWIDTH 24 0
BBX 24 24 0 -3
BITMAP
000070
0003f8
007f80
3ff010
00401c
103038
0c1c30
060c60
030040
031c80
001800
001806
ffffff
003a00
007a00
00d900
01d980
0398c0
071870
0c183f
30181e
c01806
001800
001800
ENDCHAR
STARTCHAR ch-456
ENCODING 456
SWIDTH 1000 0
DWIDTH 24 0
BBX 24 24 0 -3
BITMAP
00c000
07e806
fe0fff
064c06
466c06
26cc06
368c06
370c06
062c06
fffffe
060c86
060c80
0f0c80
0ecc40
1e6c40
166c60
360c20
260c30
460c30
861818
06181c
06100f
06200e
06c006
ENDCHAR
STARTCHAR ch-457
ENCODING 457
SWIDTH 1000 0
DWIDTH 24 0
BBX 24 24 0 -3
BITMAP
0180e0
0fc0c0
fc00c0
0c80c0
8ce0c0
4cc0c0
6c90c6
6d1fff
0c58c6
fff8c6
0c18c6
0c18c6
1c18c6
1e18c6
1d9ffe
3cd8c6
2cd8c6
2c18c6
4c18c6
8c18c6
0c18c6
0c18c6
0c1ffe
0c1806
ENDCHAR
STARTCHAR ch-459
ENCODING 459
SWIDTH 1000 0
DWIDTH 24 0
BBX 24 24 0 -3
BITMAP
019006
0fdfff
fc1926
0c9926
8cd926
4c9ffe
6d80c0
6d00c4
0c5ffe
ffe0c0
0c00c2
0c3fff
1c0408
1e0208
1d8212
3cffff
2cc0c0
2c00c0
4c00c4
8c1ffe
0c00c0
0c00c0
0c00c0
0c00c0
ENDCHAR
STARTCHAR ch-460
ENCODING 460
SWIDTH 1000 0
DWIDTH 24 0
BBX 24 24 0 -3
BITMAP
000000
080030
0ffff8
0c1830
0c1830
0c1830
0c1830
0ffff0
0c1830
0c1830
0c1830
0c1830
0ffff0
0c1830
001800
001800
001830
1ffff8
001800
001800
001800
001806
ffffff
000000
ENDCHAR
STARTCHAR ch-461
ENCODING 461
SWIDTH 1000 0
DWIDTH 24 0
BBX 24 24 0 -3
BITMAP
0000e0
000ff0
0ffc00
001800
001806
ffffff
001800
081830
0ffff8
0c1830
0c1830
0ffff0
0c1830
0c1830
0c1830
0ffff0
001800
001818
3ffffc
001800
001800
001806
ffffff
000000
ENDCHAR
STARTCHAR ch-462
ENCODING 462
SWIDTH 1000 0
DWIDTH 24 0
BBX 24 24 0 -3
BITMAP
40180c
7ffffe
63180c
631818
631920
6318c0
7ff860
631860
631806
631fff
631866
7ff864
631868
030060
030060
033060
7ff860
030060
030060
030060
03f060
ff0060
7803e0
4000c0
ENDCHAR
STARTCHAR ch-463
ENCODING 463
SWIDTH 1000 0
DWIDTH 24 0
BBX 24 24 0 -3
BITMAP
040060
07fff0
060060
060060
07ffe0
060060
060060
07ffe0
00000c
7ffffe
000000
07ffe0
061860
061860
07ffe0
061860
061860
07ffe0
001800
1ffff8
001800
001806
ffffff
000000
ENDCHAR
STARTCHAR ch-464
ENCODING 464
SWIDTH 1000 0
DWIDTH 24 0
BBX 24 24 0 -3
BITMAP
070100
060180
7fe18c
0603fe
060210
fff518
0e00b0
1f8060
16619f
262606
d00000
1ffffe
180000
19fff8
190608
19fff8
190608
31fff8
300600
23fffc
400600
800602
0fffff
000000
ENDCHAR
STARTCHAR ch-465
ENCODING 465
SWIDTH 1000 0
DWIDTH 24 0
BBX 24 24 0 -3
BITMAP
001800
001800
003400
003200
006300
00c180
0180c0
030070
06033f
09ff9e
301806
c01800
001830
1ffff8
001800
001840
081870
061860
0318c0
031880
031900
00180c
7ffffe
000000
ENDCHAR
STARTCHAR ch-470
ENCODING 470
SWIDTH 1000 0
DWIDTH 24 0
BBX 24 24 0 -3
BITMAP
060000
060006
0d1fff
0cc186
086186
186186
100186
218186
3fc186
460186
860186
064186
7fe386
060306
068306
46e306
26c30e
36860c
37060c
06640c
078c1c
fe0818
7010f8
406030
ENDCHAR
STARTCHAR ch-472
ENCODING 472
SWIDTH 1000 0
DWIDTH 24 0
BBX 24 24 0 -3
BITMAP
060000
060006
0d1fff
0cc060
086060
186060
100060
20c060
3fe060
460060
860060
066060
7ff060
060060
068060
46e060
26c060
368060
370060
066060
078060
fe0060
7003e0
4000c0
ENDCHAR
STARTCHAR ch-475
ENCODING 475
SWIDTH 1000 0
DWIDTH 24 0
BBX 24 24 0 -3
BITMAP
0601c0
060180
0d0180
0cc180
086180
186180
100186
219fff
3fc186
460186
860186
064186
7fe186
060186
068386
46e306
26c306
368306
370206
06660e
07840c
fe080c
70107c
406018
ENDCHAR
STARTCHAR ch-476
ENCODING 476
SWIDTH 1000 0
DWIDTH 24 0
BBX 24 24 0 -3
BITMAP
010000
01c180
038070
07011c
0c81ce
184386
603700
001c00
003600
00e3c0
0380ff
1e003e
e00186
07ffc0
001800
001818
3ffffc
041880
0218e0
0318c0
031880
001906
ffffff
000000
ENDCHAR
STARTCHAR ch-477
ENCODING 477
SWIDTH 1000 0
DWIDTH 24 0
BBX 24 24 0 -3
BITMAP
030070
030060
068060
066060
043060
0c3060
080060
10c060
3fe066
430fff
830060
036060
7ff060
030060
034060
437060
336060
1b4060
1b8060
030060
03e060
7f0060
3c0060
200060
ENDCHAR
STARTCHAR ch-479
ENCODING 479
SWIDTH 1000 0
DWIDTH 24 0
BBX 24 24 0 -3
BITMAP
060020
060420
0d0720
0cc620
086620
186620
100620
218620
3fc620
460630
860610
064610
7fe610
060610
068610
46e618
26cc18
368c18
370c0c
06080c
07d80c
fe100f
702006
404006
ENDCHAR
STARTCHAR ch-481
ENCODING 481
SWIDTH 1000 0
DWIDTH 24 0
BBX 24 24 0 -3
BITMAP
010000
01c180
038060
030038
06181c
0c380c
103400
206200
00c180
0180c0
030070
07ffbf
0c181e
301806
c01830
1ffff8
001800
041880
0318e0
0198c0
019880
00190c
7ffffe
000000
ENDCHAR
STARTCHAR ch-483
ENCODING 483
SWIDTH 1000 0
DWIDTH 24 0
BBX 24 24 0 -3
BITMAP
060200
060380
0d0300
0cc300
086600
186606
1007ff
218c06
3fc806
461006
860206
06c106
7fe186
0600c6
0680c6
46e0c6
26c006
36800c
37000c
06000c
07e018
ff0038
7801f0
400060
ENDCHAR
STARTCHAR ch-486
ENCODING 486
SWIDTH 1000 0
DWIDTH 24 0
BBX 24 24 0 -3
BITMAP
060000
060000
0d0806
0ccfff
086c06
186c06
100c06
218c06
3fcc06
460c06
860c06
06cc06
7fec06
060c06
064c06
466c06
26cc06
368c06
370c06
060c06
07cffe
fe0c06
700c06
400000
ENDCHAR
STARTCHAR ch-487
ENCODING 487
SWIDTH 1000 0
DWIDTH 24 0
BBX 24 24 0 -3
BITMAP
060007
060706
0d0676
0cc666
086666
186666
100666
218666
3fc666
460666
860666
06c666
7fe666
060666
068666
46e666
26c666
368666
370666
060c66
07cc66
7e1806
383006
20c006
ENDCHAR
STARTCHAR ch-501
ENCODING 501
SWIDTH 1000 0
DWIDTH 24 0
BBX 24 24 0 -3
BITMAP
060000
06000c
0d1ffe
0cc40c
08650c
18648c
1004cc
2184d8
3fc218
460218
860230
064330
7fe160
060160
0681c0
46e080
26c1c0
368160
370320
066230
078418
fe081f
70100e
406006
ENDCHAR
STARTCHAR ch-502
ENCODING 502
SWIDTH 1000 0
DWIDTH 24 0
BBX 24 24 0 -3
BITMAP
060060
060740
0d0640
0cc640
08664c
18665e
10066c
2186cc
3fc74c
46064c
861e4c
06464c
7fe64c
06064c
06865c
46e64c
26c640
368640
370642
066602
078602
fe0603
7007ff
4003fe
ENDCHAR
STARTCHAR ch-508
ENCODING 508
SWIDTH 1000 0
DWIDTH 24 0
BBX 24 24 0 -3
BITMAP
060000
06000c
0d1ffe
0cc18c
08618c
18698c
10098c
21898c
3fc98c
46058c
86058c
06470c
7fe318
060318
068298
46e6d8
26c670
368430
370c38
06683f
07986e
fe1066
7023e0
4040c0
ENDCHAR
STARTCHAR ch-511
ENCODING 511
SWIDTH 1000 0
DWIDTH 24 0
BBX 24 24 0 -3
BITMAP
06000c
06003e
0d04f0
0cc780
086600
186600
100600
218606
3fc7ff
460630
860630
064630
7fe630
060630
068630
46e630
26cc30
368c30
370c30
066830
079830
fe1030
702030
400030
ENDCHAR
ENDFONT
