STARTFONT 2.1
FONT jis.jis7c00.24
SIZE 24 72 72
FONTBOUNDINGBOX 24 24 0 -3
STARTPROPERTIES 4
FONT_DESCENT 3
FONT_ASCENT 21
DEFAULT_CHAR 0
COPYRIGHT "Copyright (c) 1992 AT&T - All rights reserved."
ENDPROPERTIES
CHARS 191
STARTCHAR ch-0
ENCODING 0
SWIDTH 1000 0
DWIDTH 24 0
BBX 24 24 0 -3
BITMAP
080200
0e0380
0c6306
1ff7ff
120880
218060
419c60
801800
3ffffc
001800
1ffff8
001800
ffffff
000000
07ffe0
040020
07ffe0
040020
07ffe0
040020
07ffe0
018000
07c1fc
78001e
ENDCHAR
STARTCHAR ch-7
ENCODING 7
SWIDTH 1000 0
DWIDTH 24 0
BBX 24 24 0 -3
BITMAP
080200
0e0380
0c6306
1ff7ff
120480
218860
419060
8e0400
0c0700
0cc60c
ffeffe
180a00
181300
1987fc
1fc4c0
1988c0
1980c6
199fff
3181a0
3181a0
238310
63021c
4f040f
861806
ENDCHAR
STARTCHAR ch-13
ENCODING 13
SWIDTH 1000 0
DWIDTH 24 0
BBX 24 24 0 -3
BITMAP
100200
1c0380
186306
3ff7ff
240480
430860
810020
001800
07ffe0
041826
ffffff
041820
07ffe0
001800
0ffff0
081810
0ffff0
00c006
ffffff
0301c0
06c300
003fc0
00f0f0
1f0030
ENDCHAR
STARTCHAR ch-17
ENCODING 17
SWIDTH 1000 0
DWIDTH 24 0
BBX 24 24 0 -3
BITMAP
080200
0e0380
0c6306
1ff7ff
120480
218860
418060
00180c
7ffffe
000000
07ffe0
060066
ffffff
060060
060060
07ffe0
00e408
01c21c
078160
198180
e180e0
0ffc7e
07c03c
04000c
ENDCHAR
STARTCHAR ch-18
ENCODING 18
SWIDTH 1000 0
DWIDTH 24 0
BBX 24 24 0 -3
BITMAP
080100
0e01c0
1c3186
1ffbff
318230
608410
87ffe0
040020
07ffe0
040020
07ffe0
040020
07ffe0
003000
006006
ffffff
018100
0320c0
0c7478
30e61f
c18c86
061060
39fff0
00e030
ENDCHAR
STARTCHAR ch-19
ENCODING 19
SWIDTH 1000 0
DWIDTH 24 0
BBX 24 24 0 -3
BITMAP
080200
0e0380
0c6306
1ff7ff
120500
2188c0
419060
800068
3ff80e
30181c
311838
37d860
311988
31180e
37d81c
301838
37d860
345984
345807
37d80e
20181c
601830
40f8c0
803300
ENDCHAR
STARTCHAR ch-20
ENCODING 20
SWIDTH 1000 0
DWIDTH 24 0
BBX 24 24 0 -3
BITMAP
080400
0e0700
0c6606
1fffff
141080
232060
411820
bffffc
000000
1ffff8
060060
060062
ffffff
060060
060060
1ffff8
00e404
01c20e
078130
198180
e180e0
0ffc7e
07c03c
04000c
ENDCHAR
STARTCHAR ch-23
ENCODING 23
SWIDTH 1000 0
DWIDTH 24 0
BBX 24 24 0 -3
BITMAP
100200
1c0380
186306
3ff7ff
240480
430860
810020
100000
0c3ff0
840630
610630
222438
0c4c66
f8c9e2
3010c0
302000
001806
ffffff
007a00
00d980
0398f0
1e183f
e0180e
001800
ENDCHAR
STARTCHAR ch-31
ENCODING 31
SWIDTH 1000 0
DWIDTH 24 0
BBX 24 24 0 -3
BITMAP
100200
1c0380
186306
3ff7ff
240480
430860
810020
7ffffe
00c300
3ffffc
30c30c
30c30c
3ffffc
000000
0ffff0
080010
0ffff0
080010
0ffff0
001806
ffffff
001800
001800
001800
ENDCHAR
STARTCHAR ch-33
ENCODING 33
SWIDTH 1000 0
DWIDTH 24 0
BBX 24 24 0 -3
BITMAP
080200
0e0380
1c6706
1ff7ff
320c80
218860
409020
bfe7fc
30660c
3fe7fc
30660c
30660c
3fe7fc
30000c
30000c
30ff0c
30c30c
30c30c
30ff0c
30c30c
30c30c
30ff0c
30c37c
300018
ENDCHAR
STARTCHAR ch-35
ENCODING 35
SWIDTH 1000 0
DWIDTH 24 0
BBX 24 24 0 -3
BITMAP
080200
0e0380
0c6306
1ff7ff
120880
218060
409820
8ffff0
0c1830
0c1830
0ffff0
001806
ffffff
000000
07ffe0
040020
07ffe0
040020
07ffe0
040020
07ffe0
018000
07c1fc
78001e
ENDCHAR
STARTCHAR ch-39
ENCODING 39
SWIDTH 1000 0
DWIDTH 24 0
BBX 24 24 0 -3
BITMAP
080200
0e0380
0c6306
1ff7ff
110880
20c060
404020
018180
1ffff8
018180
018186
ffffff
001800
0ffff0
0c1830
0c1830
0ffff0
0c1830
0c1830
0ffff0
010000
03c1f0
07003c
38000c
ENDCHAR
STARTCHAR ch-42
ENCODING 42
SWIDTH 1000 0
DWIDTH 24 0
BBX 24 24 0 -3
BITMAP
100200
1c0380
186306
3ff7ff
240480
430860
811020
3fc7f8
120240
120244
ffeffe
0500a0
0d2122
19c623
31983f
c0001e
07ffe0
060060
060060
07ffe0
060060
060060
07ffe0
060060
ENDCHAR
STARTCHAR ch-43
ENCODING 43
SWIDTH 1000 0
DWIDTH 24 0
BBX 24 24 0 -3
BITMAP
100200
1c0380
186306
3ff7ff
240480
430860
810020
001800
1ffff8
001808
ffffff
001808
1ffff8
001800
1d191c
18d998
185a18
1bffd8
183818
307c18
30db18
219998
461998
801818
ENDCHAR
STARTCHAR ch-55
ENCODING 55
SWIDTH 1000 0
DWIDTH 24 0
BBX 24 24 0 -3
BITMAP
100200
186306
3ff7ff
240480
420860
82c020
01ff80
030100
060206
0fffff
3c30c0
ccc07e
0f3f80
0c0000
0ffffc
0c0000
0cffe0
180000
18ffe0
100000
33fff8
230018
43fff8
030018
ENDCHAR
STARTCHAR ch-56
ENCODING 56
SWIDTH 1000 0
DWIDTH 24 0
BBX 24 24 0 -3
BITMAP
100400
1c0700
186606
3fffff
240880
431060
830020
1080c0
1088c6
7fefff
108cc4
108cc8
1f8cc0
108ccc
108ffe
1f8d0c
108d18
108c98
fffcb0
210c60
388878
30c8df
60d18e
800606
ENDCHAR
STARTCHAR ch-61
ENCODING 61
SWIDTH 1000 0
DWIDTH 24 0
BBX 24 24 0 -3
BITMAP
080200
0e0380
0c6306
1ff7ff
120880
210060
419830
81b830
007400
00e300
0181e0
067e7f
18000e
e00000
0fe7f0
0c6630
0c6630
0c6630
0fe7f0
020080
0300c0
06e1b0
0c631c
300c0c
ENDCHAR
STARTCHAR ch-62
ENCODING 62
SWIDTH 1000 0
DWIDTH 24 0
BBX 24 24 0 -3
BITMAP
100400
18c606
3fefff
641900
8320c0
21184c
3ffffe
308080
30c188
37fffc
302200
33fff0
302210
302216
37ffff
302210
302210
33fff0
20e280
61a240
432230
86221e
18220c
002200
ENDCHAR
STARTCHAR ch-63
ENCODING 63
SWIDTH 1000 0
DWIDTH 24 0
BBX 24 24 0 -3
BITMAP
100400
1c0700
18c606
3fefff
240900
4311a0
812098
100108
0cfffe
060100
863ff8
602108
312108
323ff8
042108
0c2108
183ff8
f00062
71ffff
302060
301860
301860
3801e0
1800c0
ENDCHAR
STARTCHAR ch-64
ENCODING 64
SWIDTH 1000 0
DWIDTH 24 0
BBX 24 24 0 -3
BITMAP
080200
0e0380
0c6306
1ff7ff
120480
230860
410420
8e4e06
0c79ff
0c6066
ffe066
0c6446
0c66c6
0cfa9e
0c610c
0f0000
fc3ffc
6c310c
4c310c
0c3ffc
0c310c
0c310c
7c3ffc
18300c
ENDCHAR
STARTCHAR ch-67
ENCODING 67
SWIDTH 1000 0
DWIDTH 24 0
BBX 24 24 0 -3
BITMAP
100200
1c0380
186306
3ff7ff
240480
430860
810220
7ff380
620300
620206
7fe7ff
606400
606800
7fe00c
6203fe
620000
7ff000
000000
1ffff0
18c630
18c630
18c636
ffffff
000000
ENDCHAR
STARTCHAR ch-76
ENCODING 76
SWIDTH 1000 0
DWIDTH 24 0
BBX 24 24 0 -3
BITMAP
100200
186306
3ff7ff
240480
430860
810020
001800
3ffffc
001800
0ffff0
000006
ffffff
000004
07ffe8
001800
1ffff8
000000
ffffff
000030
1fdffe
104830
104630
1fc6f0
000060
ENDCHAR
STARTCHAR ch-77
ENCODING 77
SWIDTH 1000 0
DWIDTH 24 0
BBX 24 24 0 -3
BITMAP
100400
186606
1ff7ff
340c80
230860
431060
800000
070110
060110
7feffe
060110
060110
7fe110
061fff
060000
fff40c
0e07fe
1f060c
16c60c
3667fc
26660c
46060c
8607fc
06060c
ENDCHAR
STARTCHAR ch-79
ENCODING 79
SWIDTH 1000 0
DWIDTH 24 0
BBX 24 24 0 -3
BITMAP
080200
0e0380
0c6306
1ff7ff
120480
218860
409420
8e0700
0c0606
0ccfff
ffe800
181208
180ffe
198208
1fc3f8
198208
1983f8
198208
318208
319fff
238200
630318
4f060e
861806
ENDCHAR
STARTCHAR ch-80
ENCODING 80
SWIDTH 1000 0
DWIDTH 24 0
BBX 24 24 0 -3
BITMAP
100200
1c0380
186306
3ff7ff
240480
430860
811028
3f1b8c
331b18
330320
337ffc
3f0680
330440
33ffff
330830
331198
3f292f
334d36
338d40
330100
230d70
63711c
4f270c
860300
ENDCHAR
STARTCHAR ch-84
ENCODING 84
SWIDTH 1000 0
DWIDTH 24 0
BBX 24 24 0 -3
BITMAP
100200
1c0380
186306
3ff7ff
220480
418860
808020
072100
4631c0
366180
168186
fffbff
0e0210
1f851c
366918
c62118
0c00b0
fff8b0
18c060
30c060
3d80f0
07019f
1dc30e
e0cc06
ENDCHAR
STARTCHAR ch-86
ENCODING 86
SWIDTH 1000 0
DWIDTH 24 0
BBX 24 24 0 -3
BITMAP
100200
1c0380
186306
3ff7ff
240480
420860
820020
0181c0
3ff990
01818c
018184
ffffff
000180
044088
3c78ce
0440cc
3c7858
044070
3c7822
044072
047cda
ffc19e
78030f
400c03
ENDCHAR
STARTCHAR ch-88
ENCODING 88
SWIDTH 1000 0
DWIDTH 24 0
BBX 24 24 0 -3
BITMAP
100200
1c0380
186306
3ff7ff
240480
430860
812328
3f130c
330310
337ffc
330480
3f0c40
33ffff
331130
33231c
33544f
3f8886
330510
337ff8
333108
231920
631118
4f270c
86430c
ENDCHAR
STARTCHAR ch-95
ENCODING 95
SWIDTH 1000 0
DWIDTH 24 0
BBX 24 24 0 -3
BITMAP
100200
1c0380
186306
3ff7ff
220480
418860
868026
060fff
fff0c0
060080
4627fc
7ff60c
46260c
4627fc
46260c
7fe60c
4e27fc
0f060c
16c60c
1667fc
266200
460338
86060e
061806
ENDCHAR
STARTCHAR ch-96
ENCODING 96
SWIDTH 1000 0
DWIDTH 24 0
BBX 24 24 0 -3
BITMAP
100200
186306
3ff7ff
2c0440
440830
831390
030306
7ff3ff
104300
0843fc
08800c
fff80c
0003fc
3fe300
3063fe
306300
3fe3fe
306300
3063fe
3fe300
306302
306303
31e3ff
30c1fe
ENDCHAR
STARTCHAR ch-100
ENCODING 100
SWIDTH 1000 0
DWIDTH 24 0
BBX 24 24 0 -3
BITMAP
100200
1c0380
186306
3ff7ff
240480
430860
892020
0821c0
165990
22898c
000184
ffffff
000180
044088
3c78ce
0440cc
3c7858
044070
3c7822
044072
047cda
ffc19e
78030f
400c03
ENDCHAR
STARTCHAR ch-101
ENCODING 101
SWIDTH 1000 0
DWIDTH 24 0
BBX 24 24 0 -3
BITMAP
100200
1c0380
186306
1ff7ff
340480
231860
433c60
807200
01c180
0700f0
1cff3f
e0000e
1f7ef8
114288
114288
1f7ef8
000000
1ffff8
184218
184218
1ffff8
184218
184278
184230
ENDCHAR
STARTCHAR ch-108
ENCODING 108
SWIDTH 1000 0
DWIDTH 24 0
BBX 24 24 0 -3
BITMAP
100200
1c0380
186306
3ff7ff
220480
418860
868020
061108
fff998
088312
2723ff
28a620
202a20
3fe224
0603fe
443220
7ffa20
643224
6533fe
7fb220
6cb220
603222
61f3ff
606200
ENDCHAR
STARTCHAR ch-115
ENCODING 115
SWIDTH 1000 0
DWIDTH 24 0
BBX 24 24 0 -3
BITMAP
001c00
001820
101838
0c1870
061860
0318c0
031880
001900
001806
ffffff
003a00
007a00
005900
00d900
009880
0198c0
031860
061838
0c181f
18180e
301806
c01800
001800
001800
ENDCHAR
STARTCHAR ch-117
ENCODING 117
SWIDTH 1000 0
DWIDTH 24 0
BBX 24 24 0 -3
BITMAP
0e01c0
0c0180
4c8180
4ce180
6cc180
6c8180
0d0180
0c4180
ffe180
0c0186
0c3fff
1e0180
1d8180
1cc180
3cc180
2c0180
6c0180
4c0180
8c0180
0c0180
0c0180
0c0180
0c0180
0c0180
ENDCHAR
STARTCHAR ch-126
ENCODING 126
SWIDTH 1000 0
DWIDTH 24 0
BBX 24 24 0 -3
BITMAP
0e0000
0c0006
8c9fff
4ce186
6cc186
6c8186
0d0186
0c0186
ffc186
0c1186
0c0d06
1e0706
1d8306
1cc386
3cc2c6
2c06e6
2c066e
6c040c
4c0c0c
8c080c
0c181c
0c1018
0c20f8
0cc030
ENDCHAR
STARTCHAR ch-129
ENCODING 129
SWIDTH 1000 0
DWIDTH 24 0
BBX 24 24 0 -3
BITMAP
070018
06407c
4671e0
266ec0
3660c0
3640c0
0680c0
0600c0
7fe0c0
0600c6
061fff
0f00c0
0ec0c0
1e60c0
1660c0
3600c0
2600c0
4600c0
8600c0
0600c0
0600c0
0600c0
0600c0
0600c0
ENDCHAR
STARTCHAR ch-130
ENCODING 130
SWIDTH 1000 0
DWIDTH 24 0
BBX 24 24 0 -3
BITMAP
010000
01c000
038600
03ff00
060e00
0c1c00
303a00
c0e180
0180f0
071c3f
1c188e
e218e0
0198c0
019906
ffffff
007a00
00d900
01d980
0398c0
071870
0c183f
30181e
c01806
001800
ENDCHAR
STARTCHAR ch-131
ENCODING 131
SWIDTH 1000 0
DWIDTH 24 0
BBX 24 24 0 -3
BITMAP
0e1ce0
0c18c0
4c98c0
4cd8c0
6d98c0
6d18c0
0e18c4
0c98c7
ffdac6
0c1fcc
0c18d0
1e18e0
1d98c0
1cd8c0
3cd8c0
2c18c0
6c18c0
4c18c0
8c18c2
0c18c2
0c1fc2
0cfcc3
0c70ff
0c407e
ENDCHAR
STARTCHAR ch-137
ENCODING 137
SWIDTH 1000 0
DWIDTH 24 0
BBX 24 24 0 -3
BITMAP
0e0840
0c0e40
4c8c40
4cec20
6ccc20
6c8830
0d1818
0c501c
fff00f
0c2006
0c4000
1e1ff8
1d8618
1cc618
3cc618
2c0618
6c0618
4c0c18
8c0c18
0c0818
0c1838
0c1030
0c21f0
0cc060
ENDCHAR
STARTCHAR ch-139
ENCODING 139
SWIDTH 1000 0
DWIDTH 24 0
BBX 24 24 0 -3
BITMAP
070380
060300
468300
26e330
36dff8
368330
070332
064232
ffe633
06043f
06081e
0f3000
0ec1c0
1e6180
166180
360186
267fff
460180
860180
060180
060180
060180
060180
060180
ENDCHAR
STARTCHAR ch-141
ENCODING 141
SWIDTH 1000 0
DWIDTH 24 0
BBX 24 24 0 -3
BITMAP
0e0018
0c807c
8ce3c0
4cdf00
6c8300
6d0300
0c0300
0cc318
fffffc
0c0300
0c0300
1e0300
1d8300
1cc30c
3cfffe
2cc300
6c0300
4c0300
8c0302
0c0302
0c0302
0c0303
0c03ff
0c01fe
ENDCHAR
STARTCHAR ch-144
ENCODING 144
SWIDTH 1000 0
DWIDTH 24 0
BBX 24 24 0 -3
BITMAP
0e0000
0c0006
4c9fff
4ce000
6cc000
6c880c
0d0ffe
0c4c0c
ffec0c
0c0c0c
0c0c0c
1e0c0c
1d8ffc
1ccc0c
3ccc0c
2c0c00
6c0c00
4c0c00
8c1800
0c1800
0c1000
0c3000
0c2000
0c4000
ENDCHAR
STARTCHAR ch-146
ENCODING 146
SWIDTH 1000 0
DWIDTH 24 0
BBX 24 24 0 -3
BITMAP
0e01c0
0c8180
8ce180
4cc180
6c8180
6d018c
0c3ffe
0c0000
ffc010
0c101c
0c0818
1c0818
1e0c18
1d8410
3cc430
2cc630
6c0630
4c0620
8c0620
0c0020
0c0040
0c0046
0c7fff
0c0000
ENDCHAR
STARTCHAR ch-149
ENCODING 149
SWIDTH 1000 0
DWIDTH 24 0
BBX 24 24 0 -3
BITMAP
0e0100
0c81c0
8ce180
4cc180
6c8100
6c9206
0d1fff
0c1806
ffd806
0c1806
0c1806
1c1806
1e1806
1d9ffe
3cd806
2cd806
2c1806
6c1806
4c1806
8c1806
0c1806
0c1ffe
0c1806
0c1806
ENDCHAR
STARTCHAR ch-151
ENCODING 151
SWIDTH 1000 0
DWIDTH 24 0
BBX 24 24 0 -3
BITMAP
070818
864ffc
467c18
666c18
364c18
368c18
060c18
060c18
ffeff8
060c18
060c18
0e0c18
0f0c18
1ecc18
166c18
366ff8
260c18
460c18
860c18
060c18
060c18
060c1a
067fff
060000
ENDCHAR
STARTCHAR ch-152
ENCODING 152
SWIDTH 1000 0
DWIDTH 24 0
BBX 24 24 0 -3
BITMAP
0e01c0
0c8180
8ce180
4cc180
6c8180
6d0186
0c01ff
0cc180
ffe180
0c0180
0c0180
1e0180
1d918c
1cdffe
3cd80c
2c180c
6c180c
4c180c
8c180c
0c180c
0c180c
0c1ffc
0c180c
0c180c
ENDCHAR
STARTCHAR ch-155
ENCODING 155
SWIDTH 1000 0
DWIDTH 24 0
BBX 24 24 0 -3
BITMAP
001c00
001818
1ffffc
001818
00181a
ffffff
001818
001818
1ffff8
001880
0118c0
1cd98e
18590c
181a0c
1bffec
18380c
187c0c
185b0c
18d98c
1198cc
3318ec
2c186c
40180c
80000c
ENDCHAR
STARTCHAR ch-159
ENCODING 159
SWIDTH 1000 0
DWIDTH 24 0
BBX 24 24 0 -3
BITMAP
000006
ffffff
00c300
00c300
20c30c
3ffffe
30c30c
30c30c
30c30c
3ffffc
30000c
041c80
0318e0
0198c0
019906
ffffff
007a00
00d900
01d8c0
039870
07183f
1c181e
e01806
001800
ENDCHAR
STARTCHAR ch-161
ENCODING 161
SWIDTH 1000 0
DWIDTH 24 0
BBX 24 24 0 -3
BITMAP
0e2006
0c3fff
4cb006
4cf006
6db066
6d37f6
0e3006
0cb006
fff006
0c3226
0c33f6
1e3226
1d3226
1db226
3db226
2c3226
6c33e6
4c3226
8c3006
0c3006
0c3006
0c3006
0c303e
0c300c
ENDCHAR
STARTCHAR ch-162
ENCODING 162
SWIDTH 1000 0
DWIDTH 24 0
BBX 24 24 0 -3
BITMAP
002000
003800
06300c
7f7ffe
00460c
008608
000d10
018c80
0e1860
f83038
70c01f
430006
081c40
061870
0318e0
031906
ffffff
00fa00
01d900
0398c0
071870
1c183f
e0180e
001800
ENDCHAR
STARTCHAR ch-164
ENCODING 164
SWIDTH 1000 0
DWIDTH 24 0
BBX 24 24 0 -3
BITMAP
008000
00e000
10c018
1ffffc
180018
191118
189218
1bffd8
183018
187e18
18d398
1b1098
180018
1ffff8
000000
ffffff
030000
030030
07fff8
060030
000070
0000e0
0007c0
000180
ENDCHAR
STARTCHAR ch-165
ENCODING 165
SWIDTH 1000 0
DWIDTH 24 0
BBX 24 24 0 -3
BITMAP
061c06
ff187f
061906
0699c6
069986
06d906
46d946
7eda7e
661866
601860
61ffe0
601860
661866
7f387f
663c66
063b06
067986
065986
06d986
069806
0d180c
0c180c
7c187c
181818
ENDCHAR
STARTCHAR ch-167
ENCODING 167
SWIDTH 1000 0
DWIDTH 24 0
BBX 24 24 0 -3
BITMAP
0e01c0
0c0180
4d0180
4da186
6dbfff
2d3000
2e3000
0c30e0
fff0c0
0c30c0
0c30c0
1e30cc
1d37fe
1db0c0
3db0c0
2c30c0
2c30c0
6c60c0
4c60c0
8c40c0
0cc0c0
0c80c6
0d1fff
0c0000
ENDCHAR
STARTCHAR ch-168
ENCODING 168
SWIDTH 1000 0
DWIDTH 24 0
BBX 24 24 0 -3
BITMAP
0e0006
0c3fff
4c8180
4cc180
6d8100
6d0100
0e120c
0c9ffe
ffd80c
0c180c
0c180c
1e180c
1d180c
1d980c
3d9ffc
2c180c
6c180c
4c180c
8c180c
0c180c
0c180c
0c1ffc
0c180c
0c180c
ENDCHAR
STARTCHAR ch-171
ENCODING 171
SWIDTH 1000 0
DWIDTH 24 0
BBX 24 24 0 -3
BITMAP
0e0000
0c0006
4cbfff
4cc180
6d8100
6d0100
0e2206
0cbfff
fff246
0c3246
0c3246
1e3246
1d3246
1db246
3db246
2c3246
6c3246
4c3246
8c3246
0c3246
0c3246
0c3246
0c303e
0c300c
ENDCHAR
STARTCHAR ch-173
ENCODING 173
SWIDTH 1000 0
DWIDTH 24 0
BBX 24 24 0 -3
BITMAP
0e0300
0c0300
4c8300
4cc680
6d8680
6d0440
0e0c60
0c8830
ffd01c
0c20cf
0c4fe6
1e0000
1d0000
1d8000
3da018
2c3ffc
6c3018
4c3018
8c3018
0c3018
0c3018
0c3ff8
0c3018
0c3018
ENDCHAR
STARTCHAR ch-174
ENCODING 174
SWIDTH 1000 0
DWIDTH 24 0
BBX 24 24 0 -3
BITMAP
0e01c0
0c0180
4c9198
4cdffc
6d9818
6d1818
0e1818
0c9ff8
ffd818
0c1818
0c1818
1e1818
1d1ff8
1d9904
3d9907
2c188e
6c1888
4c18d0
8c1860
0c1870
0c1f38
0cfc1f
0c700e
0c4006
ENDCHAR
STARTCHAR ch-177
ENCODING 177
SWIDTH 1000 0
DWIDTH 24 0
BBX 24 24 0 -3
BITMAP
100000
0e0030
067ff8
800630
700630
324638
044c34
08cc76
199863
f193e3
7020c0
304000
341c40
031870
0198e0
019906
ffffff
00fa00
01d900
0398c0
071870
1c183f
e0180e
001800
ENDCHAR
STARTCHAR ch-178
ENCODING 178
SWIDTH 1000 0
DWIDTH 24 0
BBX 24 24 0 -3
BITMAP
038000
033000
03f80c
0307fe
23020c
3ff118
3061b0
6cc0c0
4781e0
830638
06001f
181c86
6618e0
0398c0
019880
001906
ffffff
00fa00
01d900
0398c0
071870
1c183f
e0180e
001800
ENDCHAR
STARTCHAR ch-179
ENCODING 179
SWIDTH 1000 0
DWIDTH 24 0
BBX 24 24 0 -3
BITMAP
0e0006
0c7fff
4c0180
4d0180
6da18c
6d3ffe
0e318c
0c318c
ffb18c
0c3ffc
0c318c
1e318c
1d318c
1dbffc
3db18c
2c0180
6c0980
4c0500
8c0300
0c0380
0c06e0
0c0c7f
0c181e
0ce006
ENDCHAR
STARTCHAR ch-185
ENCODING 185
SWIDTH 1000 0
DWIDTH 24 0
BBX 24 24 0 -3
BITMAP
0e01c0
0c0180
4c8180
4cc18c
6dbffe
6d0000
0e0820
0c8e38
ffcc30
0c0a28
0c1b64
1e1346
1d2086
1d8000
3d81c0
2c0186
6c7fff
4c0180
8c0180
0c0180
0c0180
0c0180
0c0180
0c0180
ENDCHAR
STARTCHAR ch-189
ENCODING 189
SWIDTH 1000 0
DWIDTH 24 0
BBX 24 24 0 -3
BITMAP
0e01c0
0c0180
4c9180
4cd186
6d9fff
6d3006
0e3004
0c8030
ffcff8
0c0000
0c0000
1e000c
1d3ffe
1d8180
3d8180
2c1190
6c1d88
4c198c
8c3186
0c2186
0c4186
0c0180
0c0f80
0c0300
ENDCHAR
STARTCHAR ch-190
ENCODING 190
SWIDTH 1000 0
DWIDTH 24 0
BBX 24 24 0 -3
BITMAP
0e01c0
0c0180
4d0184
6dbffe
6d8180
2d0188
2e1ffc
0c0180
ff8182
0c7fff
0c0000
1e1018
1d9ffc
1cd818
3cd818
2c1ff8
6c1818
4c1818
8c1ff8
0c1818
0c1818
0c1818
0c18f8
0c1830
ENDCHAR
STARTCHAR ch-192
ENCODING 192
SWIDTH 1000 0
DWIDTH 24 0
BBX 24 24 0 -3
BITMAP
0e0e70
0c0c60
4c8c60
4ccc66
6dbfff
6d0c60
0e0c60
0c8c60
ffc000
0c08e0
0c0ec0
1e0cc8
1d1cce
1d98cc
3d98d8
2c38e0
6c38c0
4c58c0
8c98c2
0c18c2
0c18c2
0c18c3
0c18ff
0c187e
ENDCHAR
STARTCHAR ch-194
ENCODING 194
SWIDTH 1000 0
DWIDTH 24 0
BBX 24 24 0 -3
BITMAP
0e0e38
0c8c30
4ccc36
4dbfff
6d0c30
6e0c30
0c0ff0
0c8c30
ffcc30
0c0c30
0c0ff0
1e0c30
1d0c30
1d8c36
3dffff
2c3330
6c3330
4c3230
8c363e
0c341e
0c3800
0c3000
0c3fff
0c3000
ENDCHAR
STARTCHAR ch-197
ENCODING 197
SWIDTH 1000 0
DWIDTH 24 0
BBX 24 24 0 -3
BITMAP
0e0018
0c1ffc
4c8030
4cc240
6d8180
6d0086
0e3fff
0c81cc
ffc3c8
0c06d0
0c0cc0
1e30c0
1d0000
1d81c0
3d8186
2c7fff
6c07a0
4c07a0
8c0d90
0c0d98
0c198f
0c318e
0cc186
0c0180
ENDCHAR
STARTCHAR ch-202
ENCODING 202
SWIDTH 1000 0
DWIDTH 24 0
BBX 24 24 0 -3
BITMAP
0e1c46
0c187f
4d1866
4dd866
6d9866
6d1866
0eff66
0c1866
ff987e
0c1866
0c1866
1c1866
1e7e66
1d4266
3dc266
2dc27e
2c4266
6c4266
4c4266
8c4246
0c7ec6
0c4286
0c011e
0c020c
ENDCHAR
STARTCHAR ch-206
ENCODING 206
SWIDTH 1000 0
DWIDTH 24 0
BBX 24 24 0 -3
BITMAP
0e0000
0c4006
4d7fff
6dc000
6d4804
2d4ffe
2e48c4
0c48c4
ffc8c4
0c4ffc
0c48c4
1e48c4
1d48c4
1d4ffc
3d48c4
2c40c0
6c40c0
4c40cc
8c4ffe
0cc0c0
0c80c0
0c80c6
0d3fff
0c0000
ENDCHAR
STARTCHAR ch-210
ENCODING 210
SWIDTH 1000 0
DWIDTH 24 0
BBX 24 24 0 -3
BITMAP
0e0738
0c8630
4cc632
4dbfff
6d0630
6e0630
0c2632
0c3fff
ffb000
0c3000
0c33fe
1e3222
1d3222
1db222
3db3fe
2c3222
6c3222
4c3222
8c23fe
0c2222
0c6222
0c4222
0c822e
0c0226
ENDCHAR
STARTCHAR ch-214
ENCODING 214
SWIDTH 1000 0
DWIDTH 24 0
BBX 24 24 0 -3
BITMAP
0e00e0
0c00c0
4d20c6
4dbfff
6db0c0
6d30c0
0e37fc
0c30cc
fff0cc
0c3fff
0c30cc
1e30cc
1d30cc
1db7fc
3db000
2c3000
6c340c
4c67fe
8c660c
0c460c
0cc60c
0c860c
0d07fc
0c060c
ENDCHAR
STARTCHAR ch-216
ENCODING 216
SWIDTH 1000 0
DWIDTH 24 0
BBX 24 24 0 -3
BITMAP
0e01c0
0c9180
4cd186
4d9fff
6d3004
6e3008
0c0004
0cbffe
ffc300
0c0608
0c0d0e
1e199c
1d63b0
1d86c0
3d8cc0
2c18e0
6c61e0
4c03d0
8c06d8
0c0ccf
0c30ce
0cc0c6
0c0fc0
0c0380
ENDCHAR
STARTCHAR ch-220
ENCODING 220
SWIDTH 1000 0
DWIDTH 24 0
BBX 24 24 0 -3
BITMAP
000e00
000c00
100c06
1fffff
180000
186030
184020
1bfdfe
184020
18e070
18d8a8
19492c
1a4027
180002
188730
186620
30264c
33fffe
201e80
603640
406630
81861f
060606
000600
ENDCHAR
STARTCHAR ch-222
ENCODING 222
SWIDTH 1000 0
DWIDTH 24 0
BBX 24 24 0 -3
BITMAP
081c40
061870
061860
001886
ffffff
019900
0318c0
0c1870
37ffdf
c41046
041040
07ffc0
041040
041040
07ffc0
008200
3ffff8
008200
008206
ffffff
018000
03c1f0
0e003c
70000c
ENDCHAR
STARTCHAR ch-223
ENCODING 223
SWIDTH 1000 0
DWIDTH 24 0
BBX 24 24 0 -3
BITMAP
0e0330
0c0220
4d0222
4dffff
6d8220
6d2222
0e3fff
0c2222
ffa222
0c3ffe
0c2222
1c2222
1e3ffe
1d0000
3d900c
2d9ffe
6c180c
4c180c
8c1ffc
0c180c
0c180c
0c180c
0c1ffc
0c180c
ENDCHAR
STARTCHAR ch-224
ENCODING 224
SWIDTH 1000 0
DWIDTH 24 0
BBX 24 24 0 -3
BITMAP
0e01c0
0c0180
4d4186
4dffff
6dc180
2d4180
2e5ff8
0c4188
ffc18a
0c7fff
0c4188
1c4188
1e5ff8
1d4180
3dd184
2dcdc7
2c4dc6
6c41a8
4c43b0
8ccd98
0cb99f
0c998e
0d1786
0c0300
ENDCHAR
STARTCHAR ch-226
ENCODING 226
SWIDTH 1000 0
DWIDTH 24 0
BBX 24 24 0 -3
BITMAP
0e0738
0c0630
4c8636
4cffff
6d8630
6d0630
0e1ffc
0c980c
ffd80c
0c1ffc
0c180c
1e180c
1d180c
1d9ffc
3d8180
2c0186
6c7fff
4c0340
8c0340
0c0620
0c0630
0c0c1f
0c180e
0c6006
ENDCHAR
STARTCHAR ch-231
ENCODING 231
SWIDTH 1000 0
DWIDTH 24 0
BBX 24 24 0 -3
BITMAP
0e1018
0c1ffc
8c9818
4cd818
6d9ff8
6d1818
0e1818
0c1ff8
ff8002
0c7fff
0c0000
1e1ff8
1d9188
1cd188
3cdff8
2c1188
6c1188
4c1ff8
8c0180
0c3ffc
0c0180
0c0182
0cffff
0c0000
ENDCHAR
STARTCHAR ch-239
ENCODING 239
SWIDTH 1000 0
DWIDTH 24 0
BBX 24 24 0 -3
BITMAP
0e000c
0c3ffe
4d0180
4da186
6d3fff
6e6186
0c6184
0c1db8
ffc180
0c0180
0c1db8
1e0180
1d0006
1dffff
3d8300
2c2206
6c3fff
4c3246
8c3246
0c3246
0c3246
0c3246
0c325e
0c324c
ENDCHAR
STARTCHAR ch-242
ENCODING 242
SWIDTH 1000 0
DWIDTH 24 0
BBX 24 24 0 -3
BITMAP
0e2006
0cbfff
4cf000
4db110
6d3ffe
6e3110
0c3110
0c37fc
fff444
0c3444
0c37fc
1e3444
1d3444
1db7fc
3db040
2c2842
6c2fff
4c2842
8c2852
0c687a
0c4bca
0c4902
0c881e
0c080c
ENDCHAR
STARTCHAR ch-244
ENCODING 244
SWIDTH 1000 0
DWIDTH 24 0
BBX 24 24 0 -3
BITMAP
060306
7f1fbf
040306
040306
0e1f3e
0a0306
1b0306
119f3e
21e306
40c000
800440
0e8664
4ccffe
6c8c40
2d0c48
ffdffc
0c2c40
1c0c48
1e0ffc
3d8c40
2ccc40
4ccc46
8c0fff
0c0c00
ENDCHAR
STARTCHAR ch-246
ENCODING 246
SWIDTH 1000 0
DWIDTH 24 0
BBX 24 24 0 -3
BITMAP
0e0306
0c1fbf
4c8306
4c8306
7f9f3e
0c0306
0c0306
4c9f3e
4c8306
7f8000
000440
0e0664
4c8ffe
6ccc40
2d0c48
ffdffc
0c2c40
1c0c48
1e0ffc
3d8c40
2ccc40
4ccc46
8c0fff
0c0c00
ENDCHAR
STARTCHAR ch-248
ENCODING 248
SWIDTH 1000 0
DWIDTH 24 0
BBX 24 24 0 -3
BITMAP
002000
003800
003000
006100
0841c0
068380
030300
018600
01cc00
00c820
001018
00200c
7ffff6
3ff806
201806
021800
039980
071860
061838
0c181c
18180e
301806
401806
001800
ENDCHAR
STARTCHAR ch-250
ENCODING 250
SWIDTH 1000 0
DWIDTH 24 0
BBX 24 24 0 -3
BITMAP
040700
070600
060600
040600
490600
31c600
198600
1b0600
060600
048600
084600
ffe600
7e6600
466600
060600
260600
3e8600
364600
266602
666602
466602
860603
0607ff
0603fe
ENDCHAR
STARTCHAR ch-251
ENCODING 251
SWIDTH 1000 0
DWIDTH 24 0
BBX 24 24 0 -3
BITMAP
000070
000ff8
3ffc00
002000
003880
0030e0
0421c0
034180
018300
00c220
00c410
000818
00100c
7ffffe
3ff806
201806
021880
039860
071838
0e181c
1c180e
301806
c01806
001800
ENDCHAR
STARTCHAR ch-254
ENCODING 254
SWIDTH 1000 0
DWIDTH 24 0
BBX 24 24 0 -3
BITMAP
080038
0e0030
0c0730
080630
920630
638630
330630
360630
0c0630
090630
108630
ffc630
7cc630
4cc632
0c0637
4c063c
7e06f0
6d8730
6cd830
4cc030
4c0030
8c0030
0c0030
0c0030
ENDCHAR
STARTCHAR ch-256
ENCODING 256
SWIDTH 1000 0
DWIDTH 24 0
BBX 24 24 0 -3
BITMAP
080000
0e000c
0c1ffe
08000c
92000c
63800c
33000c
36000c
0c000c
09080c
108ffc
ffcc0c
7ccc0c
4ccc00
0c0c00
4c0c00
7d0c00
6c8c00
6ccc02
4ccc02
4ccc02
8c0c03
0c0fff
0c07fe
ENDCHAR
STARTCHAR ch-258
ENCODING 258
SWIDTH 1000 0
DWIDTH 24 0
BBX 24 24 0 -3
BITMAP
040038
070030
060030
040030
490030
31c030
198036
1b1fff
060030
048030
084830
ffe430
7e6630
466330
060330
260330
3e8030
364030
266030
666030
466030
860030
0601f0
060060
ENDCHAR
STARTCHAR ch-260
ENCODING 260
SWIDTH 1000 0
DWIDTH 24 0
BBX 24 24 0 -3
BITMAP
040200
070380
060300
040600
490600
31c406
198fff
1b0806
021006
04a006
084406
ffe306
7e6186
460186
060186
268006
3e400e
36600c
26600c
66601c
460018
860038
0601f0
060060
ENDCHAR
STARTCHAR ch-261
ENCODING 261
SWIDTH 1000 0
DWIDTH 24 0
BBX 24 24 0 -3
BITMAP
040000
070000
06000c
043ffe
490180
31c180
198180
1b0180
020180
048180
084180
ffe180
7e6180
466180
060180
460180
768180
666180
663180
463180
460180
860186
067fff
060000
ENDCHAR
STARTCHAR ch-262
ENCODING 262
SWIDTH 1000 0
DWIDTH 24 0
BBX 24 24 0 -3
BITMAP
040000
07000c
060ffe
0400c0
4900c0
31c0c0
1980c0
1b00c0
0600c0
0480c6
085fff
ffe0c0
7e60c0
4660c0
0600c0
2600c0
3e80c0
3640c0
2660c0
6660c0
4660c0
8600c0
0607c0
060180
ENDCHAR
STARTCHAR ch-266
ENCODING 266
SWIDTH 1000 0
DWIDTH 24 0
BBX 24 24 0 -3
BITMAP
001c00
001800
001806
ffffff
0101c0
008380
006700
003c00
00f7c0
07a1ff
f8381e
043200
034380
018720
018c18
00100c
fffff6
7ff806
421800
039980
071870
0e181c
18180e
601806
ENDCHAR
STARTCHAR ch-267
ENCODING 267
SWIDTH 1000 0
DWIDTH 24 0
BBX 24 24 0 -3
BITMAP
0401c0
070180
060180
040180
490186
31dfff
198418
1b0418
020418
048418
084630
ffe230
7e6230
466360
060160
2701c0
3ec080
3661c0
366360
660230
460438
86081f
06100e
066006
ENDCHAR
STARTCHAR ch-269
ENCODING 269
SWIDTH 1000 0
DWIDTH 24 0
BBX 24 24 0 -3
BITMAP
0801c0
0e0180
0c0180
080180
920180
63a186
333fff
363186
043186
0a3186
113346
ffb366
7db226
4c3636
0c3436
4e3836
7d3006
6db006
6db006
4c3006
4c3006
8c3006
0c303e
0c300c
ENDCHAR
STARTCHAR ch-272
ENCODING 272
SWIDTH 1000 0
DWIDTH 24 0
BBX 24 24 0 -3
BITMAP
080000
0e0030
0c3ff8
080630
920630
638630
330630
360630
040630
0a0630
110636
ffbfff
7cc630
4cc630
0c0630
4e0630
7d8630
6cc630
6cc630
4c0630
4c0630
8c0636
0c7fff
0c0000
ENDCHAR
STARTCHAR ch-276
ENCODING 276
SWIDTH 1000 0
DWIDTH 24 0
BBX 24 24 0 -3
BITMAP
0801c0
0e0180
0c018c
0801be
9201e0
638780
333980
360180
04018e
091d8c
10998c
ffd98c
7cd98c
4c198c
0c198c
4e198c
7d9ffc
6cd98c
6cd980
4cc182
4c0182
8c0183
0c01ff
0c00fe
ENDCHAR
STARTCHAR ch-277
ENCODING 277
SWIDTH 1000 0
DWIDTH 24 0
BBX 24 24 0 -3
BITMAP
081c70
0e1860
0c1860
081860
921860
639860
331864
361867
0c1b66
091fec
109870
ffd860
7cd860
4cd860
0c1860
4d1860
7c9860
6cd860
6cd862
4cd862
4c1f62
8c7c63
0c307f
0c203e
ENDCHAR
STARTCHAR ch-279
ENCODING 279
SWIDTH 1000 0
DWIDTH 24 0
BBX 24 24 0 -3
BITMAP
0400e0
0700c0
0600c0
0400c0
4900c0
31c8c8
198ec4
1b0cc6
020cc3
048cc3
08c8c3
ffd8c0
7ed0c8
4620ce
0607cc
47019c
76c018
666030
666060
4600c0
460180
860300
060c00
063000
ENDCHAR
STARTCHAR ch-280
ENCODING 280
SWIDTH 1000 0
DWIDTH 24 0
BBX 24 24 0 -3
BITMAP
0801c0
0e0180
0c0180
080180
920180
638186
333fff
360300
040300
090320
108338
ffc330
7cc630
4cc620
0c0660
4d0460
7c8c40
6cc848
6cd844
4c1086
4c209b
8c4fe3
0c0703
0c0400
ENDCHAR
STARTCHAR ch-281
ENCODING 281
SWIDTH 1000 0
DWIDTH 24 0
BBX 24 24 0 -3
BITMAP
08000c
0e003e
0c10f0
081fc0
9218c0
6398c0
3318c0
3618c0
0418c0
0918c6
109fff
ffd8c0
7cd8c0
4c18c0
0c1860
4d1860
7c9860
6cd862
6cd832
4c1832
4c199a
8cfe1f
0c700f
0c4006
ENDCHAR
STARTCHAR ch-282
ENCODING 282
SWIDTH 1000 0
DWIDTH 24 0
BBX 24 24 0 -3
BITMAP
080000
0e0030
0c7ff8
080c30
920c30
638c60
330c60
360c60
0c0ccc
090cfe
108ccc
ffda0c
7cda18
4cd918
0c1918
4e19b0
7d10b0
6db060
6da0e0
4c61b0
4c4338
8c861f
0d180e
0c6006
ENDCHAR
STARTCHAR ch-283
ENCODING 283
SWIDTH 1000 0
DWIDTH 24 0
BBX 24 24 0 -3
BITMAP
080840
0e0e40
0c0c40
080c20
920c20
638830
331818
36101c
04300f
0a2006
114000
ff9ff8
7d8618
4c0618
0c0618
4e0618
7d8618
6ccc18
6ccc18
4c0818
4c1838
8c1030
0c21f0
0cc060
ENDCHAR
STARTCHAR ch-284
ENCODING 284
SWIDTH 1000 0
DWIDTH 24 0
BBX 24 24 0 -3
BITMAP
080000
0e0018
0c0ffc
080000
920000
638000
330000
360000
0c0000
090006
109fff
ffc100
7cc1c0
4cc180
0c0180
4d0310
7c8318
6cc208
6cc60c
4cc40c
4c0476
8c3fc6
0c1e06
0c1006
ENDCHAR
STARTCHAR ch-288
ENCODING 288
SWIDTH 1000 0
DWIDTH 24 0
BBX 24 24 0 -3
BITMAP
001c00
001818
3ffffc
001800
001830
1ffff8
001800
001806
ffffff
003000
026200
018380
00c700
00cc20
001018
7fffec
3f9806
201806
021980
039860
071838
1c181c
60180c
001800
ENDCHAR
STARTCHAR ch-289
ENCODING 289
SWIDTH 1000 0
DWIDTH 24 0
BBX 24 24 0 -3
BITMAP
0801c0
0e0180
0c0180
080180
920186
63bfff
330300
360300
040300
09030c
1083fe
ffc30c
7cc30c
4c030c
0c030c
4e060c
7d860c
6cc60c
6cc41c
4c0c18
4c0818
8c1038
0c21f0
0cc060
ENDCHAR
STARTCHAR ch-290
ENCODING 290
SWIDTH 1000 0
DWIDTH 24 0
BBX 24 24 0 -3
BITMAP
001c00
001800
00180c
7ffffe
001800
201800
201806
7fffff
604006
c07204
c06388
048300
030640
018c30
019018
7ffffc
3ff80c
20180c
021980
079870
0e181c
38180e
c01806
001800
ENDCHAR
STARTCHAR ch-299
ENCODING 299
SWIDTH 1000 0
DWIDTH 24 0
BBX 24 24 0 -3
BITMAP
01c700
018618
1d863c
198660
19f780
198602
198602
198603
19f7ff
ff83fe
782000
403a00
043380
034320
018618
01880c
fffff6
7ff806
421800
039980
071870
0e181c
18180e
601806
ENDCHAR
STARTCHAR ch-300
ENCODING 300
SWIDTH 1000 0
DWIDTH 24 0
BBX 24 24 0 -3
BITMAP
0800e0
0e00c0
0c00c0
0800c0
9200c0
6390c6
331fff
3618c6
0418c6
0918c6
1098c6
ffd8c6
7cd8c6
4cdffe
0c18c6
4c18c6
7d18c6
6c98c6
6cd8c6
4cd8c6
4cd8c6
8c1ffe
0c1806
0c1806
ENDCHAR
STARTCHAR ch-302
ENCODING 302
SWIDTH 1000 0
DWIDTH 24 0
BBX 24 24 0 -3
BITMAP
070380
060300
066300
fff300
0e0300
0f0302
1ec302
166302
266303
c603ff
0621fe
003a00
043380
034320
018618
01880c
fffff6
7ff806
421800
039980
071870
0e181c
18180e
601806
ENDCHAR
STARTCHAR ch-303
ENCODING 303
SWIDTH 1000 0
DWIDTH 24 0
BBX 24 24 0 -3
BITMAP
080030
0ffff8
0c1830
0c1830
0c1830
0ffff0
0c1830
0c1830
0c1830
0ffff0
004100
006380
04c620
030818
01900c
fffff6
7ff806
401800
021880
039860
071830
0e1818
18181c
60180c
ENDCHAR
STARTCHAR ch-304
ENCODING 304
SWIDTH 1000 0
DWIDTH 24 0
BBX 24 24 0 -3
BITMAP
040000
070806
060fff
040c46
490c46
31cc46
198c46
1b0c46
020c46
048c46
084c46
ffeffe
7e6c46
466c46
060c46
460c46
770c46
66cc46
666c46
466c46
460c46
860ffe
060c06
060000
ENDCHAR
STARTCHAR ch-306
ENCODING 306
SWIDTH 1000 0
DWIDTH 24 0
BBX 24 24 0 -3
BITMAP
081d98
0e1910
0c1910
081910
921910
639910
331910
361916
0c7fff
0a1910
111910
ff9910
7d9910
4d9910
0c1910
4c19f0
7e1910
6d1910
6d9800
4d9800
4c1800
8c180c
0c1ffe
0c1800
ENDCHAR
STARTCHAR ch-307
ENCODING 307
SWIDTH 1000 0
DWIDTH 24 0
BBX 24 24 0 -3
BITMAP
0400e0
0700c0
0600c0
0400c0
4910c6
31dfff
1998c6
1b18c6
0218c6
0518c6
089ffe
ffd8c6
7ed8c6
4618c6
0618c6
4618c6
771ffe
66d8c6
6660c0
4660c0
4600c0
8600c0
0600c0
0600c0
ENDCHAR
STARTCHAR ch-309
ENCODING 309
SWIDTH 1000 0
DWIDTH 24 0
BBX 24 24 0 -3
BITMAP
0800e0
0e00c0
0c10c0
0810c6
921fff
63b006
333004
360008
0c0000
090000
108006
ffdfff
7cc0c0
4cc0c0
0c00c0
4c00c0
7d00c0
6c80c0
6cc0c0
4cc0c0
4cc0c0
8c00c0
0c0fc0
0c0380
ENDCHAR
STARTCHAR ch-313
ENCODING 313
SWIDTH 1000 0
DWIDTH 24 0
BBX 24 24 0 -3
BITMAP
080000
0e0006
0c3fff
080306
920306
638306
330206
36060e
04040c
09087c
109018
ffc000
7cc000
4cd00c
0c1ffe
4c180c
7e180c
6d980c
6cd80c
4cd80c
4c180c
8c1ffc
0c180c
0c180c
ENDCHAR
STARTCHAR ch-314
ENCODING 314
SWIDTH 1000 0
DWIDTH 24 0
BBX 24 24 0 -3
BITMAP
04070e
07060c
06060c
04060c
49060c
31c60c
199fff
1b060c
02060c
04860c
08460c
ffe60c
7e660c
4667fc
06060c
46060c
77060c
66c60c
66660c
46660c
46060c
8607fc
06060c
06060c
ENDCHAR
STARTCHAR ch-319
ENCODING 319
SWIDTH 1000 0
DWIDTH 24 0
BBX 24 24 0 -3
BITMAP
080100
0e01c0
0c0180
080180
920310
638308
33020c
360606
0c043f
093fe3
109e03
ffd000
7cc000
4cc80c
0c0ffe
4c0c0c
7d0c0c
6c8c0c
6ccc0c
4ccc0c
4ccc0c
8c0ffc
0c0c0c
0c0c0c
ENDCHAR
STARTCHAR ch-322
ENCODING 322
SWIDTH 1000 0
DWIDTH 24 0
BBX 24 24 0 -3
BITMAP
040400
070700
060600
040618
490ffc
31cc18
198a18
1b1230
022160
0480c0
084180
ffe360
7e6638
460c1f
063106
4700c0
76c060
666060
666000
460600
4601c0
860070
060038
060018
ENDCHAR
STARTCHAR ch-323
ENCODING 323
SWIDTH 1000 0
DWIDTH 24 0
BBX 24 24 0 -3
BITMAP
0800e0
0e00c0
0c00c0
0800c0
9100c6
61dfff
318080
3300e0
0200c0
048080
084910
ffe61c
7e6318
466330
060030
468060
764040
6660c0
666088
466104
460206
863ffb
061f03
061003
ENDCHAR
STARTCHAR ch-324
ENCODING 324
SWIDTH 1000 0
DWIDTH 24 0
BBX 24 24 0 -3
BITMAP
040818
070ffc
060c18
040c18
490c18
31cc18
198c18
1b0c18
020ff8
048c18
084c18
ffec18
7e6c18
460c18
060c18
270ff8
3ecc18
366c18
366c18
660c18
460c18
860c1a
067fff
060000
ENDCHAR
STARTCHAR ch-325
ENCODING 325
SWIDTH 1000 0
DWIDTH 24 0
BBX 24 24 0 -3
BITMAP
081006
0e1fff
0c1806
081806
921806
639806
331926
3619f6
0c1926
091926
109926
ffd926
7cd926
4cd926
0c1926
4c19e6
7d1926
6c9806
6cd806
4cd806
4cd806
8c1806
0c183e
0c180c
ENDCHAR
STARTCHAR ch-326
ENCODING 326
SWIDTH 1000 0
DWIDTH 24 0
BBX 24 24 0 -3
BITMAP
0801c0
0e0188
0c218e
08198c
920d98
638d90
3301a0
36018c
0c1ffe
090180
108180
ffc180
7cc180
4cc186
0c3fff
4c0180
7d0180
6c8180
6cc180
4cc180
4cc180
8c0180
0c0180
0c0180
ENDCHAR
STARTCHAR ch-331
ENCODING 331
SWIDTH 1000 0
DWIDTH 24 0
BBX 24 24 0 -3
BITMAP
0800e0
0e00c0
0c00c0
0810c6
921fff
639800
331800
361880
0c18e0
0918c0
1098c0
ffd8c0
7cd8c0
4cd880
0c1880
4e1890
7d1888
6d9188
6d910c
4db104
4c213e
8c2fe6
0c4706
0c0406
ENDCHAR
STARTCHAR ch-332
ENCODING 332
SWIDTH 1000 0
DWIDTH 24 0
BBX 24 24 0 -3
BITMAP
080000
0e0018
0c3ffc
080418
920438
638230
330360
3601c0
0401c0
090370
10863f
ffcc1e
7cf006
4cc1c0
0c0180
4c018c
7e3ffe
6d8180
6cc180
4cc180
4c0180
8c0186
0cffff
0c0000
ENDCHAR
STARTCHAR ch-334
ENCODING 334
SWIDTH 1000 0
DWIDTH 24 0
BBX 24 24 0 -3
BITMAP
080800
0e0e0c
0c0cfe
081c00
901800
643000
372000
364800
0c0e06
0a0dff
111818
ff9818
7cb818
4c3818
0c5818
4e1818
7d1818
6d9818
6d9818
4c1818
4c1818
8c1818
0c18f8
0c1830
ENDCHAR
STARTCHAR ch-335
ENCODING 335
SWIDTH 1000 0
DWIDTH 24 0
BBX 24 24 0 -3
BITMAP
0801c0
0e0180
0c0180
08118c
921ffe
63998c
33198c
36198c
0c1ffc
09198c
10998c
ffd98c
7cdffc
4cd990
0c019c
4d00b8
7c80f0
6cc042
6cc0e2
4cc1b2
4c033a
8c0c1f
0c300f
0c0006
ENDCHAR
STARTCHAR ch-336
ENCODING 336
SWIDTH 1000 0
DWIDTH 24 0
BBX 24 24 0 -3
BITMAP
0801c0
0e0180
0c0180
080180
920186
63bfff
330180
360180
040180
090180
10818c
ffdffe
7cc000
4cc000
0c100c
4c1ffe
7d180c
6c980c
6cd80c
4cd80c
4cd80c
8c1ffc
0c180c
0c180c
ENDCHAR
STARTCHAR ch-342
ENCODING 342
SWIDTH 1000 0
DWIDTH 24 0
BBX 24 24 0 -3
BITMAP
0801c0
0e0188
0c218e
08318c
92118c
639998
331998
361990
0c0180
090186
10bfff
ffc660
7cc660
4cc660
0c0660
4e0660
7d0660
6d8c60
6d8c62
4d8c62
4c0862
8c1863
0c107f
0c603e
ENDCHAR
STARTCHAR ch-347
ENCODING 347
SWIDTH 1000 0
DWIDTH 24 0
BBX 24 24 0 -3
BITMAP
040400
070700
06060c
0e0ffe
0dc830
0d9460
19a2c0
198180
398370
398c3f
59b18e
998b20
198470
1986c0
198188
198204
19fffe
19bf86
19a186
1991a0
181d98
18198c
18318e
184186
ENDCHAR
STARTCHAR ch-350
ENCODING 350
SWIDTH 1000 0
DWIDTH 24 0
BBX 24 24 0 -3
BITMAP
0801c0
0e0180
0c0186
087fff
920000
638820
330e18
360c0c
041806
091006
10a020
ffc438
7cc430
4cc230
0c0260
4e0160
7d81c0
6cc080
6cc1c0
4c0360
4c0638
8c0c1f
0c180e
0c6006
ENDCHAR
STARTCHAR ch-353
ENCODING 353
SWIDTH 1000 0
DWIDTH 24 0
BBX 24 24 0 -3
BITMAP
080400
0e0700
0c0618
0807fc
920c18
638c30
330a30
361160
0420c0
0901e0
108338
ffc61f
7ccc0e
4c1806
0c6000
4c0ff8
7e0c18
6d8c18
6ccc18
4ccc18
4c0c18
8c0ff8
0c0c18
0c0c18
ENDCHAR
STARTCHAR ch-354
ENCODING 354
SWIDTH 1000 0
DWIDTH 24 0
BBX 24 24 0 -3
BITMAP
080800
0e0e00
0c0c00
080c00
921806
639fff
333006
362006
0c4866
090ff6
108c66
ffcc66
7ccc66
4ccfe6
0c0c66
4c0c66
7d0c66
6c8fe6
6ccc66
4ccc0e
4cc00c
8c000c
0c00fc
0c0038
ENDCHAR
STARTCHAR ch-355
ENCODING 355
SWIDTH 1000 0
DWIDTH 24 0
BBX 24 24 0 -3
BITMAP
081010
0e0c1c
0c0618
080630
920024
639ffe
330630
360630
0c0630
090630
108636
ffffff
7cc630
4cc630
0c0630
4d0630
7c8630
6cc630
6cce30
4ccc30
4c0c30
8c1830
0c1030
0c2030
ENDCHAR
STARTCHAR ch-358
ENCODING 358
SWIDTH 1000 0
DWIDTH 24 0
BBX 24 24 0 -3
BITMAP
080180
0e0180
0c0380
080340
920340
638620
330630
360c18
0c081c
0a100f
112026
ffcff0
7d8000
4d8000
0c1018
4e1ffc
7d9818
6cd818
6cd818
4c1818
4c1818
8c1818
0c1ff8
0c1818
ENDCHAR
STARTCHAR ch-360
ENCODING 360
SWIDTH 1000 0
DWIDTH 24 0
BBX 24 24 0 -3
BITMAP
0800e0
0e00cc
0c00c6
0800c6
9200c0
6380c6
333fff
3600c0
0c00c0
090ec4
108c67
ffcc66
7ccc66
4ccc6c
0c3f2c
4d0c38
7c8c10
6ccc3a
6cc82a
4cd86a
4c104e
8c1086
0c2107
0c4603
ENDCHAR
STARTCHAR ch-366
ENCODING 366
SWIDTH 1000 0
DWIDTH 24 0
BBX 24 24 0 -3
BITMAP
070000
060000
063206
fffbff
0c3306
186306
186306
36c306
318306
03c3fe
06c306
1c2000
e03a00
043380
036320
018618
01880c
fffff6
7ff806
041800
0718e0
0e183c
18180e
601806
ENDCHAR
STARTCHAR ch-369
ENCODING 369
SWIDTH 1000 0
DWIDTH 24 0
BBX 24 24 0 -3
BITMAP
0801c0
0e0180
0c0180
080186
923fff
638200
330380
360310
040208
09040c
10bff6
ffde06
7cd000
4c0470
0c0760
4d0660
7c8660
6cc660
6ccc62
4c0c62
4c1862
8c1063
0c207f
0cc03e
ENDCHAR
STARTCHAR ch-370
ENCODING 370
SWIDTH 1000 0
DWIDTH 24 0
BBX 24 24 0 -3
BITMAP
040040
070070
060060
040040
490490
31c31c
198198
1b01b0
060060
048048
084084
ffeffe
7e67e6
466466
060060
268268
3e63e4
363366
263663
660463
460863
861060
060060
060060
ENDCHAR
STARTCHAR ch-371
ENCODING 371
SWIDTH 1000 0
DWIDTH 24 0
BBX 24 24 0 -3
BITMAP
080400
0e0700
0c0618
0807fc
920c18
638a30
331160
3620c0
0c01e0
090338
10861f
ffd806
7cc0e0
4cc0c0
0c00d8
4c3ffc
7d0cc0
6c8cc0
6cccc6
4cffff
4cc0c0
8c00c0
0c00c0
0c00c0
ENDCHAR
STARTCHAR ch-373
ENCODING 373
SWIDTH 1000 0
DWIDTH 24 0
BBX 24 24 0 -3
BITMAP
080180
0e0180
0c0340
080340
920220
638630
33041c
36080f
0c1006
092030
1087f8
ffc000
7cc000
4cc00c
0c1ffe
4d0180
7c8180
6cc300
6cc210
4cc208
4c040c
8c3ff6
0c1f06
0c1006
ENDCHAR
STARTCHAR ch-374
ENCODING 374
SWIDTH 1000 0
DWIDTH 24 0
BBX 24 24 0 -3
BITMAP
080400
0e0700
0c0630
080ff8
920c30
639860
331040
36208c
045ffe
09188c
10988c
ffd88c
7cd88c
4c188c
0c1ffc
4e180c
7d9800
6cd800
6cd800
4c1802
4c1802
8c1803
0c1fff
0c0ffe
ENDCHAR
STARTCHAR ch-377
ENCODING 377
SWIDTH 1000 0
DWIDTH 24 0
BBX 24 24 0 -3
BITMAP
08080c
0e0ffe
0c0c0c
080c0c
920c0c
638c0c
330ffc
360c0c
040000
091006
109fff
ffd806
7cd806
4cd806
0c1ffe
4d1806
7c9806
6cd806
6cdffe
4cd806
4c1806
8c1806
0c183e
0c180c
ENDCHAR
STARTCHAR ch-381
ENCODING 381
SWIDTH 1000 0
DWIDTH 24 0
BBX 24 24 0 -3
BITMAP
080000
0e080c
0c0ffe
080c0c
920c0c
638c0c
330c0c
360c0c
0c0c0c
090ffc
108ccc
ffc080
7cc180
4cd106
0c1fff
4c1806
7d1806
6c9806
6cd806
4cd806
4cd806
8c1ffe
0c1806
0c1806
ENDCHAR
STARTCHAR ch-393
ENCODING 393
SWIDTH 1000 0
DWIDTH 24 0
BBX 24 24 0 -3
BITMAP
080030
0e01f8
0c1f80
080180
920186
63bfff
3303a0
360790
0c0798
090d8c
10998f
fff186
7cc060
4cdff0
0c0660
4d066c
7c867e
6cc40c
6ccc0c
4cc80c
4c181c
8c1018
0c20f8
0cc030
ENDCHAR
STARTCHAR ch-399
ENCODING 399
SWIDTH 1000 0
DWIDTH 24 0
BBX 24 24 0 -3
BITMAP
08001c
0e01fe
0c3fc0
080000
920208
63a10e
33118c
361988
0c1818
090210
108380
ffc306
7cffff
4cc618
0c0618
4c0c30
7d0c30
6c9a60
6cd9c0
4cc0e0
4cc1b8
8c031c
0c0c0e
0c7006
ENDCHAR
STARTCHAR ch-403
ENCODING 403
SWIDTH 1000 0
DWIDTH 24 0
BBX 24 24 0 -3
BITMAP
080000
0e000c
0c3ffe
080000
920888
638ccc
331998
361110
0c2220
091110
109998
ffcccc
7ccccc
4cc000
0c0000
4d0018
7c9ffc
6cc180
6cc180
4cc180
4c0180
8c0186
0c7fff
0c0000
ENDCHAR
STARTCHAR ch-409
ENCODING 409
SWIDTH 1000 0
DWIDTH 24 0
BBX 24 24 0 -3
BITMAP
080070
0e3860
0c3060
083064
923467
63b266
33336c
363368
043070
0a3060
1137ff
ffb060
7db060
4c30f0
0c30ec
4e30e6
7d31e6
6db166
6db260
4db460
4c3060
8c3066
0c3fff
0c3000
ENDCHAR
STARTCHAR ch-410
ENCODING 410
SWIDTH 1000 0
DWIDTH 24 0
BBX 24 24 0 -3
BITMAP
0801c0
0e0180
0c0186
087fff
920180
638180
33018c
363ffe
040000
0a2006
113fff
ffa006
7de004
4c6668
0c0660
4e0660
7d8660
6cc660
6cc662
4c0c62
4c0c62
8c1863
0c307f
0cc03e
ENDCHAR
STARTCHAR ch-411
ENCODING 411
SWIDTH 1000 0
DWIDTH 24 0
BBX 24 24 0 -3
BITMAP
080000
0e000c
0c3ffe
08030c
92030c
639b0c
330e0c
36070c
0c058c
090d9c
108818
ffd8f8
7cf030
4cc080
0c0740
4e0660
7d0664
6d9662
6d9603
4c3613
4c3613
8c6618
0c67f8
0c03f0
ENDCHAR
STARTCHAR ch-412
ENCODING 412
SWIDTH 1000 0
DWIDTH 24 0
BBX 24 24 0 -3
BITMAP
0801c0
0e0180
0c1180
081186
921fff
63b006
333004
360030
040ff8
090000
108000
ffc006
7cffff
4cc180
0c0180
4e1190
7d1d88
6d998c
6db186
4c2186
4c4183
8c8183
0c0f80
0c0300
ENDCHAR
STARTCHAR ch-415
ENCODING 415
SWIDTH 1000 0
DWIDTH 24 0
BBX 24 24 0 -3
BITMAP
080006
0e3fff
0c0000
080000
92100c
639ffe
33180c
36180c
0c180c
091ffc
10980c
ffd8e0
7cd8c0
4c18c6
0c1fff
4e18c0
7d18c0
6db1a0
6db1a0
4c2110
4c6318
8c420f
0c840e
0c1806
ENDCHAR
STARTCHAR ch-418
ENCODING 418
SWIDTH 1000 0
DWIDTH 24 0
BBX 24 24 0 -3
BITMAP
082006
0e3fff
0c3006
083006
9031c6
643186
373186
3637f6
0c3186
0a3186
113186
ffb7f6
7cb006
4c3006
0c33e6
4e3226
7d3226
6db226
6db226
4c33e6
4c2006
8c6006
0c403e
0c800c
ENDCHAR
STARTCHAR ch-419
ENCODING 419
SWIDTH 1000 0
DWIDTH 24 0
BBX 24 24 0 -3
BITMAP
0801c8
0e218e
0c198c
080988
920190
639ffe
330340
360340
0c0222
093fff
108410
ffcc18
7cc80c
4c17ff
0c2036
4d0030
7c8430
6cc7f0
6cc600
4cc604
4c0604
8c0606
0c07fe
0c03fc
ENDCHAR
STARTCHAR ch-427
ENCODING 427
SWIDTH 1000 0
DWIDTH 24 0
BBX 24 24 0 -3
BITMAP
080ec0
0e0c60
0c0c0c
08047e
920780
63be30
330360
360182
0402c2
090c72
10b01f
ffcd87
7cccc0
4cc41e
0c07e0
4d3e10
7c8318
6cc130
6cc1a0
4cc0c2
4c0162
8c023a
0c0c1f
0c3007
ENDCHAR
STARTCHAR ch-428
ENCODING 428
SWIDTH 1000 0
DWIDTH 24 0
BBX 24 24 0 -3
BITMAP
08000c
0e00fe
0c3f88
08020e
92118c
638c98
330410
361026
041fff
093006
10b004
ffc030
7cdff8
4cc430
0c0430
4c0460
7e0260
6d82c0
6cc180
4cc3c0
4c0670
8c0c3f
0c181e
0c6006
ENDCHAR
STARTCHAR ch-429
ENCODING 429
SWIDTH 1000 0
DWIDTH 24 0
BBX 24 24 0 -3
BITMAP
080420
0e0738
0c0630
080620
920c46
638fff
331c60
361c60
0c2c60
094c6c
108ffe
ffcc60
7ccc60
4ccc60
0c0c60
4c0c6c
7d0ffe
6c8c60
6ccc60
4ccc60
4ccc60
8c0c66
0c0fff
0c0c00
ENDCHAR
STARTCHAR ch-430
ENCODING 430
SWIDTH 1000 0
DWIDTH 24 0
BBX 24 24 0 -3
BITMAP
000200
006380
fff300
000306
20c7ff
3fe420
30ca38
30d170
30c0e0
3fc1c0
300330
200c1f
602006
447100
834380
018608
01880c
fffff6
7ff806
4418c0
071830
0e1818
18181c
60180c
ENDCHAR
STARTCHAR ch-431
ENCODING 431
SWIDTH 1000 0
DWIDTH 24 0
BBX 24 24 0 -3
BITMAP
080800
0e0e00
0c0c00
081806
921fff
63b006
332806
364c46
0c0fe6
090b06
109306
ffc326
7cfff6
4cc306
0c1326
4c1326
7d1326
6c9326
6cdfee
4cd02c
4cc00c
8c001c
0c00f8
0c0030
ENDCHAR
STARTCHAR ch-432
ENCODING 432
SWIDTH 1000 0
DWIDTH 24 0
BBX 24 24 0 -3
BITMAP
0800e0
0e08c0
0c08c6
081fff
921806
63b004
373418
3607fc
0c0618
090618
108618
ffc618
7cc7f8
4cc618
0c0600
4c060c
7d07fe
6c860c
6cc60c
4cc60c
4cc60c
8c060c
0c07fc
0c060c
ENDCHAR
STARTCHAR ch-433
ENCODING 433
SWIDTH 1000 0
DWIDTH 24 0
BBX 24 24 0 -3
BITMAP
082006
0e3fff
0c3006
083426
923236
63b336
333326
363046
043ffe
093086
113086
ffb496
7db496
4c3496
0c3496
4e3496
7d3496
6db496
6db7f6
4db416
4c3406
8c3006
0c303e
0c300c
ENDCHAR
STARTCHAR ch-434
ENCODING 434
SWIDTH 1000 0
DWIDTH 24 0
BBX 24 24 0 -3
BITMAP
082006
0e3fff
0c3006
083426
923236
63b366
333046
363086
043ffe
0a3186
113186
ffb186
7dbffe
4c3306
0c3306
4e3306
7d3306
6db3f6
6db1f6
4c3006
4c3006
8c3006
0c303e
0c300c
ENDCHAR
STARTCHAR ch-436
ENCODING 436
SWIDTH 1000 0
DWIDTH 24 0
BBX 24 24 0 -3
BITMAP
080202
0eff7f
0c0206
08264c
921428
638810
331c18
36162c
042646
0a4086
110000
ff8204
7dfffe
4d868c
0c2688
4e1458
7d1c50
6d8870
6d9c20
4c3670
4c2658
8c408c
0c810f
0d0606
ENDCHAR
STARTCHAR ch-437
ENCODING 437
SWIDTH 1000 0
DWIDTH 24 0
BBX 24 24 0 -3
BITMAP
08001c
0e01fe
0c3fc0
080008
92020e
63a10c
33118c
361988
0c1818
090010
1081c0
ffc180
7cc186
4c3fff
0c03a0
4d03a0
7c8790
6cc790
6ccd98
4c098f
4c118e
8c6186
0c0180
0c0180
ENDCHAR
STARTCHAR ch-440
ENCODING 440
SWIDTH 1000 0
DWIDTH 24 0
BBX 24 24 0 -3
BITMAP
080300
0e0300
0c0680
080640
900c60
640830
37101c
36200f
0c4fe6
0a0000
110000
ffa00c
7cbffe
4c324c
0c324c
4e324c
7d3ffc
6db24c
6db24c
4c324c
4c324c
8c324c
0c327c
0c3018
ENDCHAR
STARTCHAR ch-442
ENCODING 442
SWIDTH 1000 0
DWIDTH 24 0
BBX 24 24 0 -3
BITMAP
0801c0
0e0180
0c018c
083ffe
920180
638340
330230
360418
0c1818
090006
10bfff
ffc018
7cc018
4cd198
0c1fd8
4c1998
7d1998
6c9998
6cdf98
4cd998
4cc018
8c0018
0c00f8
0c0030
ENDCHAR
STARTCHAR ch-443
ENCODING 443
SWIDTH 1000 0
DWIDTH 24 0
BBX 24 24 0 -3
BITMAP
0801c0
0e0180
0c1180
081186
921fff
63b004
333008
360000
04000c
093ffe
108180
ffc180
7cd180
4c1d8c
0c19fe
4e1980
7d9980
6cd980
6cd980
4c1580
4c3380
8c2180
0c40ff
0c803e
ENDCHAR
STARTCHAR ch-445
ENCODING 445
SWIDTH 1000 0
DWIDTH 24 0
BBX 24 24 0 -3
BITMAP
0801c0
0e0180
0c018c
0801fe
920180
638180
33118c
361ffe
0c180c
09180c
109ffc
ffd80c
7cd80c
4cd80c
0c1ffc
4c198c
7d0180
6c8186
6cffff
4cc180
4cc180
8c0180
0c0180
0c0180
ENDCHAR
STARTCHAR ch-446
ENCODING 446
SWIDTH 1000 0
DWIDTH 24 0
BBX 24 24 0 -3
BITMAP
0801c0
0e0180
0c0184
083ffe
920180
638182
337fff
360630
0c0630
0a0c30
110a3f
ff939f
7da300
4d8618
0c07fc
4c0c18
7d1438
6ca270
6cc2e0
4cc1c0
4cc370
8c063f
0c181e
0ce006
ENDCHAR
STARTCHAR ch-447
ENCODING 447
SWIDTH 1000 0
DWIDTH 24 0
BBX 24 24 0 -3
BITMAP
080100
0e01c0
0c118c
081ffe
92180c
63980c
331ffc
36180c
04180c
0a180c
111ffc
ff8180
7d8180
4c2186
0c3fff
4e3186
7d3186
6db186
6db186
4c3186
4c319e
8c318c
0c0180
0c0180
ENDCHAR
STARTCHAR ch-455
ENCODING 455
SWIDTH 1000 0
DWIDTH 24 0
BBX 24 24 0 -3
BITMAP
080884
0e0ee7
0c0cc6
08198c
921110
63a220
331118
36198c
0c0cc6
090cc6
108000
ffd006
7cdfff
4cd8c6
0c18c6
4c18c6
7d18c6
6c9ffe
6cd8c6
4cd8c6
4cd8c6
8c18c6
0c1ffe
0c1806
ENDCHAR
STARTCHAR ch-458
ENCODING 458
SWIDTH 1000 0
DWIDTH 24 0
BBX 24 24 0 -3
BITMAP
203000
3ff818
3107fc
310218
3ff118
303130
3030b0
3ff060
3100f8
31019f
3ff30e
300c06
004100
0071c0
04c380
030610
01880c
fffff6
7ff806
441800
0718c0
0e1838
18181c
60180c
ENDCHAR
STARTCHAR ch-459
ENCODING 459
SWIDTH 1000 0
DWIDTH 24 0
BBX 24 24 0 -3
BITMAP
080670
0e0660
0c0660
080660
920666
63be7f
330660
360660
040660
09066c
10be7e
ffc660
7cc660
4c0660
0c0660
4e7e66
7d367f
6da660
6d8660
4c0c60
4c0c60
8c1860
0c3060
0cc060
ENDCHAR
STARTCHAR ch-463
ENCODING 463
SWIDTH 1000 0
DWIDTH 24 0
BBX 24 24 0 -3
BITMAP
080800
0e0e40
0c0c30
180c18
92080c
639a0e
331386
362300
040220
0a0210
110418
ffbfec
7d9f0c
4c1000
0c0100
4e0080
7d06c8
6d96c4
6d9606
4c1613
4c2613
8c6618
0c67f8
0c03f0
ENDCHAR
STARTCHAR ch-465
ENCODING 465
SWIDTH 1000 0
DWIDTH 24 0
BBX 24 24 0 -3
BITMAP
080030
0e1ff8
0c0030
080030
920030
639ff0
330030
360030
040036
097fff
108180
ffd186
7cc987
4c0d8c
0c0dd0
4e01c0
7d01a0
6d83b0
6d8d98
4c799f
4c318e
8c2186
0c0f80
0c0300
ENDCHAR
STARTCHAR ch-466
ENCODING 466
SWIDTH 1000 0
DWIDTH 24 0
BBX 24 24 0 -3
BITMAP
080380
0e0308
0c030e
08032c
923ffc
638318
330318
360330
040366
0a7fff
118180
fec300
7cc60c
4c0ffe
0c3c0c
4ccc0c
7e0c0c
6d8ffc
6ccc0c
4ccc0c
4c0c0c
8c0ffc
0c0c0c
0c0c0c
ENDCHAR
STARTCHAR ch-469
ENCODING 469
SWIDTH 1000 0
DWIDTH 24 0
BBX 24 24 0 -3
BITMAP
0801c0
0e0180
0c0186
083fff
920418
638418
330230
360360
0c01c0
090370
108e3f
fff80e
7ccc18
4ccc18
0c0ff8
4c0c18
7d0c18
6c8c18
6ccff8
4ccc18
4cc818
8c1818
0c1018
0c2018
ENDCHAR
STARTCHAR ch-472
ENCODING 472
SWIDTH 1000 0
DWIDTH 24 0
BBX 24 24 0 -3
BITMAP
0800ec
0e00c6
0c00c6
0800c0
9040c6
647fff
3760c0
3660c0
0c60c0
0a7fc4
116047
ff6066
7d6f66
4c696c
0e692c
4d6938
7d6910
6d6f3a
6c402a
4c406a
4cc0ce
8c8186
0c8307
0d0c03
ENDCHAR
STARTCHAR ch-474
ENCODING 474
SWIDTH 1000 0
DWIDTH 24 0
BBX 24 24 0 -3
BITMAP
080200
0e0380
0c1318
081ffc
921818
639818
331ff8
361818
041818
091818
109ff8
ffc180
7cc188
4c0d8e
0c7f9c
4e0da0
7d0dc0
6d99a0
6d99b0
4c3198
4c219f
8c418e
0d8f86
0c0300
ENDCHAR
STARTCHAR ch-476
ENCODING 476
SWIDTH 1000 0
DWIDTH 24 0
BBX 24 24 0 -3
BITMAP
040038
0701fc
060f80
24c0e0
3fe0c0
30c080
30c920
3fc638
30c330
30c360
30c0c8
3fc104
060ffe
4667c6
7ff4c6
6660c0
6664d0
6667c8
6666cc
666cc6
67e8c6
66d0c6
0600c0
0600c0
ENDCHAR
STARTCHAR ch-477
ENCODING 477
SWIDTH 1000 0
DWIDTH 24 0
BBX 24 24 0 -3
BITMAP
080818
0e0ffc
0c0c18
080c18
920c18
638ff8
330000
360006
0c3fff
090c18
108c18
ffcc18
7ccff8
4ccc18
0c0c18
4d0c18
7c8ff8
6ccc18
6ccc18
4c0c1e
4c7ff8
8c3e18
0c2018
0c0018
ENDCHAR
STARTCHAR ch-478
ENCODING 478
SWIDTH 1000 0
DWIDTH 24 0
BBX 24 24 0 -3
BITMAP
080698
0e2ffc
0c3898
083098
903098
643098
373e98
363098
0c309f
0a308f
113100
ffb00c
7cbffe
4c308c
0e308c
4d30c8
7d3058
6c3250
6c3c70
4cf020
4c7078
8c305f
0c308e
0c3306
ENDCHAR
STARTCHAR ch-480
ENCODING 480
SWIDTH 1000 0
DWIDTH 24 0
BBX 24 24 0 -3
BITMAP
0801c0
0e0180
0c0186
087fff
920820
638438
330630
362620
042046
0a3fff
116004
ff61c8
7d8180
4da18c
0c3ffe
4c318c
7e318c
6d318c
6db18c
4db18c
4c31bc
8c3198
0c0180
0c0180
ENDCHAR
STARTCHAR ch-481
ENCODING 481
SWIDTH 1000 0
DWIDTH 24 0
BBX 24 24 0 -3
BITMAP
08080c
0e0ffe
0c0c0c
080c0c
920ffc
638c60
330c66
360fff
0c0c60
090c32
108c32
ffdf9b
7cce0f
4cc806
0c0000
4c0ffc
7d0c0c
6c8c0c
6ccffc
4ccc0c
4ccc0c
8c0c0c
0c0ffc
0c0c0c
ENDCHAR
STARTCHAR ch-484
ENCODING 484
SWIDTH 1000 0
DWIDTH 24 0
BBX 24 24 0 -3
BITMAP
081ccc
0e1888
0c188a
087fff
921888
639888
331888
3618f8
0c1800
091804
109ffe
ffd800
7cc1c0
4cc186
0c3fff
4d03a0
7c83a0
6cc790
6cc590
4ccd98
4c098f
8c118e
0c6186
0c0180
ENDCHAR
STARTCHAR ch-488
ENCODING 488
SWIDTH 1000 0
DWIDTH 24 0
BBX 24 24 0 -3
BITMAP
080006
0e7fff
0c0000
080000
921ffc
63980c
33180c
36180c
041ffc
091800
109806
ffdfff
7cd926
4c1926
0e3926
4d2926
7daffe
6da926
6c6926
4c4926
4c4926
8c8926
0c081e
0c080c
ENDCHAR
STARTCHAR ch-489
ENCODING 489
SWIDTH 1000 0
DWIDTH 24 0
BBX 24 24 0 -3
BITMAP
08000e
0e01ff
0c3fc4
081107
920886
638ccc
330cc8
360010
0c3ffe
090300
108300
ffffff
7cc600
4cc618
0c07fc
4d0c18
7c8a30
6cda30
6cd160
4c20c0
4c41f0
8c033f
0c0c1e
0c7006
ENDCHAR
STARTCHAR ch-492
ENCODING 492
SWIDTH 1000 0
DWIDTH 24 0
BBX 24 24 0 -3
BITMAP
080000
0e0006
0c7fff
080180
920100
638100
332206
363fff
043226
0a3226
113226
ffb3e6
7db226
4db226
0c3226
4c3226
7e33e6
6d3226
6db226
4db226
4c3226
8c3ffe
0c3006
0c3006
ENDCHAR
STARTCHAR ch-495
ENCODING 495
SWIDTH 1000 0
DWIDTH 24 0
BBX 24 24 0 -3
BITMAP
0801c0
0e0180
0c0198
081ffc
920318
63831a
337fff
360000
0c080c
090ffe
108c0c
ffcc0c
7ccffc
4ccc00
0c0070
4d0064
7c9ffe
6ccc60
6ccc60
4ccc66
4c3fff
8c0060
0c0060
0c0060
ENDCHAR
STARTCHAR ch-498
ENCODING 498
SWIDTH 1000 0
DWIDTH 24 0
BBX 24 24 0 -3
BITMAP
080038
0e4430
0c7e30
084430
904430
644534
3745b6
367db2
0c45b3
0a4533
114533
ff4630
7d4434
4c7c37
0c44f6
4e4466
7d440c
6d440c
6d4418
4c7c18
4c4430
8c4060
0c00c0
0c0300
ENDCHAR
STARTCHAR ch-500
ENCODING 500
SWIDTH 1000 0
DWIDTH 24 0
BBX 24 24 0 -3
BITMAP
0801c0
0e0180
0c0186
08ffff
920180
638180
333ffc
36318c
04318c
0a318c
113ffc
ffb18c
7db18c
4c318c
0c3ffc
4e07c0
7d8da0
6ccda0
6cc990
4c1998
4c118f
8c218e
0cc186
0c0180
ENDCHAR
STARTCHAR ch-507
ENCODING 507
SWIDTH 1000 0
DWIDTH 24 0
BBX 24 24 0 -3
BITMAP
080040
0e0670
0cff60
082060
903860
643066
37347f
362648
0cfece
0a668c
11014c
ff804c
7c9c4c
4c1828
0c1828
4eff38
7d1810
6d9810
6d9838
4c1828
4c3f6c
8cfc4f
0c7086
0c4306
ENDCHAR
ENDFONT
