STARTFONT 2.1
FONT jis.jis7600.16
SIZE 16 72 72
FONTBOUNDINGBOX 16 16 0 -2
STARTPROPERTIES 4
FONT_DESCENT 2
FONT_ASCENT 14
DEFAULT_CHAR 1
COPYRIGHT "Copyright (c) 1992 AT&T - All rights reserved."
ENDPROPERTIES
CHARS 148
STARTCHAR ch-1
ENCODING 1
SWIDTH 1000 0
DWIDTH 16 0
BBX 16 16 0 -2
BITMAP
0080
0080
3fff
a000
6040
2ffe
2208
2208
6514
a8a2
2000
6040
5fff
c040
0040
0040
ENDCHAR
STARTCHAR ch-9
ENCODING 9
SWIDTH 1000 0
DWIDTH 16 0
BBX 16 16 0 -2
BITMAP
0080
0080
3fff
a040
60a0
2318
3c07
23f8
6000
af92
2892
6f92
4892
cf92
0882
098e
ENDCHAR
STARTCHAR ch-11
ENCODING 11
SWIDTH 1000 0
DWIDTH 16 0
BBX 16 16 0 -2
BITMAP
0080
0080
3fff
a000
67fc
2404
25f4
2444
65f4
a554
2554
65f4
4444
cc55
08f5
1b9b
ENDCHAR
STARTCHAR ch-13
ENCODING 13
SWIDTH 1000 0
DWIDTH 16 0
BBX 16 16 0 -2
BITMAP
0080
0080
3fff
a000
63f8
2208
23f8
2208
63f8
a000
2fff
6200
47fe
cc92
0122
024e
ENDCHAR
STARTCHAR ch-31
ENCODING 31
SWIDTH 1000 0
DWIDTH 16 0
BBX 16 16 0 -2
BITMAP
0080
0080
3fff
a000
63f8
2208
23f8
2208
63f8
a000
2000
6ffe
4922
c922
0922
1fff
ENDCHAR
STARTCHAR ch-32
ENCODING 32
SWIDTH 1000 0
DWIDTH 16 0
BBX 16 16 0 -2
BITMAP
0080
0080
3fff
a000
6e4e
2040
2eae
2110
660c
bbfb
2208
63f8
4208
c3f8
0208
0218
ENDCHAR
STARTCHAR ch-33
ENCODING 33
SWIDTH 1000 0
DWIDTH 16 0
BBX 16 16 0 -2
BITMAP
0080
0080
3fff
a040
60a0
21f0
260c
3fff
6208
a3f8
2208
67f8
4400
cffc
1a04
03fc
ENDCHAR
STARTCHAR ch-34
ENCODING 34
SWIDTH 1000 0
DWIDTH 16 0
BBX 16 16 0 -2
BITMAP
0080
0080
3fff
a200
643c
2fa4
28a4
2aa7
68c0
bfbe
2892
6a96
4a94
ca8c
089e
11b3
ENDCHAR
STARTCHAR ch-36
ENCODING 36
SWIDTH 1000 0
DWIDTH 16 0
BBX 16 16 0 -2
BITMAP
0080
0080
3fff
a000
6fbe
2812
2912
2992
6ea6
b800
27fc
6444
47fc
c444
0444
07fc
ENDCHAR
STARTCHAR ch-39
ENCODING 39
SWIDTH 1000 0
DWIDTH 16 0
BBX 16 16 0 -2
BITMAP
0080
3fff
2080
a0fc
6080
2fff
2881
2bf8
6882
a8fe
2800
6bfe
4a00
dbfe
3200
03fe
ENDCHAR
STARTCHAR ch-48
ENCODING 48
SWIDTH 1000 0
DWIDTH 16 0
BBX 16 16 0 -2
BITMAP
0080
0080
3fff
a000
67fc
2444
27fc
2444
67fc
a090
2320
60c4
4ffe
c042
0248
0c46
ENDCHAR
STARTCHAR ch-52
ENCODING 52
SWIDTH 1000 0
DWIDTH 16 0
BBX 16 16 0 -2
BITMAP
0080
0080
3fff
a040
6ffe
2110
3fff
2000
63f8
a208
23f8
6208
43f8
c040
1fff
0040
ENDCHAR
STARTCHAR ch-59
ENCODING 59
SWIDTH 1000 0
DWIDTH 16 0
BBX 16 16 0 -2
BITMAP
0080
3fff
2040
a7fc
6444
3fff
2444
27fc
6040
a7fc
2444
7fff
4108
c610
01f8
0f0e
ENDCHAR
STARTCHAR ch-66
ENCODING 66
SWIDTH 1000 0
DWIDTH 16 0
BBX 16 16 0 -2
BITMAP
0080
0080
3fff
2080
affe
6110
2a0a
27fc
2a0a
63f8
a208
23f8
6248
464c
cc46
01c0
ENDCHAR
STARTCHAR ch-70
ENCODING 70
SWIDTH 1000 0
DWIDTH 16 0
BBX 16 16 0 -2
BITMAP
0080
0080
3fff
a208
6aaa
2514
28a2
2000
6ffe
a802
2882
67fc
4084
c184
030c
0e38
ENDCHAR
STARTCHAR ch-71
ENCODING 71
SWIDTH 1000 0
DWIDTH 16 0
BBX 16 16 0 -2
BITMAP
0080
0080
3fff
a000
6fbe
28a2
2fbe
28a2
6fbe
a802
29f2
6912
49f2
c912
09f2
080e
ENDCHAR
STARTCHAR ch-72
ENCODING 72
SWIDTH 1000 0
DWIDTH 16 0
BBX 16 16 0 -2
BITMAP
0080
0080
3fff
a004
6fe8
3131
2b1a
260c
7fff
a110
2110
6ffe
4110
c311
0613
1c0e
ENDCHAR
STARTCHAR ch-76
ENCODING 76
SWIDTH 1000 0
DWIDTH 16 0
BBX 16 16 0 -2
BITMAP
0040
0040
3fff
2000
a3f8
6208
23f8
2000
6f1e
a912
2f1e
2000
6040
4842
c842
0ffe
ENDCHAR
STARTCHAR ch-82
ENCODING 82
SWIDTH 1000 0
DWIDTH 16 0
BBX 16 16 0 -2
BITMAP
0080
3fff
20c0
a330
7def
2000
2f92
2892
6f92
a892
2f92
2886
6000
4942
d92b
11f9
ENDCHAR
STARTCHAR ch-86
ENCODING 86
SWIDTH 1000 0
DWIDTH 16 0
BBX 16 16 0 -2
BITMAP
0080
0080
3fff
a008
6788
24be
2480
27a2
6414
a43e
2788
6c88
4cbe
d488
0788
0008
ENDCHAR
STARTCHAR ch-88
ENCODING 88
SWIDTH 1000 0
DWIDTH 16 0
BBX 16 16 0 -2
BITMAP
0080
0080
3fff
a110
6ffe
2110
27fc
2444
67fc
a444
27fc
6040
4ffe
c852
0bea
0806
ENDCHAR
STARTCHAR ch-92
ENCODING 92
SWIDTH 1000 0
DWIDTH 16 0
BBX 16 16 0 -2
BITMAP
0080
0080
3fff
a000
6fde
2852
2fd2
2aa3
6fc0
aabe
2a92
2fda
680e
4a84
d6ce
0c5b
ENDCHAR
STARTCHAR ch-97
ENCODING 97
SWIDTH 1000 0
DWIDTH 16 0
BBX 16 16 0 -2
BITMAP
0080
0080
3fff
a000
693e
2e02
2894
2f88
647f
a789
2a08
6fae
4228
c728
0d78
18cf
ENDCHAR
STARTCHAR ch-98
ENCODING 98
SWIDTH 1000 0
DWIDTH 16 0
BBX 16 16 0 -2
BITMAP
0080
0080
3fff
a110
6ffe
2040
27fc
2040
7fff
a60c
2bfa
7209
43fa
c226
039c
0e07
ENDCHAR
STARTCHAR ch-103
ENCODING 103
SWIDTH 1000 0
DWIDTH 16 0
BBX 16 16 0 -2
BITMAP
0080
0080
3fff
a000
6fff
2884
2bdf
2884
69ce
aab5
2884
6820
593e
d120
3120
0fff
ENDCHAR
STARTCHAR ch-104
ENCODING 104
SWIDTH 1000 0
DWIDTH 16 0
BBX 16 16 0 -2
BITMAP
0080
3fff
2000
a7fe
6040
2fff
2841
2b5d
6040
a3fe
2220
67fe
4a20
c3fe
0220
03ff
ENDCHAR
STARTCHAR ch-105
ENCODING 105
SWIDTH 1000 0
DWIDTH 16 0
BBX 16 16 0 -2
BITMAP
0080
0080
3fff
a000
627f
3f88
223e
2fa2
6abe
afa2
223e
6722
46be
ca94
1236
0263
ENDCHAR
STARTCHAR ch-106
ENCODING 106
SWIDTH 1000 0
DWIDTH 16 0
BBX 16 16 0 -2
BITMAP
0080
0080
3fff
a010
637e
3e10
247e
3f10
64ff
a642
2d7e
6d42
547e
c442
047e
04c3
ENDCHAR
STARTCHAR ch-108
ENCODING 108
SWIDTH 1000 0
DWIDTH 16 0
BBX 16 16 0 -2
BITMAP
0080
0080
3fff
a400
67a2
2c94
393e
2f88
6a88
afbe
2a88
6a88
4fbf
c008
1548
2528
ENDCHAR
STARTCHAR ch-112
ENCODING 112
SWIDTH 1000 0
DWIDTH 16 0
BBX 16 16 0 -2
BITMAP
0080
0080
3fff
a540
6a8a
254a
201f
2fb4
6894
af9f
2014
6f94
4a9f
cf94
0854
07df
ENDCHAR
STARTCHAR ch-114
ENCODING 114
SWIDTH 1000 0
DWIDTH 16 0
BBX 16 16 0 -2
BITMAP
0080
3fff
2200
afbf
6208
2fbe
28a2
2fbe
68a2
afbe
28a2
6fa2
403e
dfd4
0936
10a3
ENDCHAR
STARTCHAR ch-118
ENCODING 118
SWIDTH 1000 0
DWIDTH 16 0
BBX 16 16 0 -2
BITMAP
0000
0000
0000
0000
7fc8
0250
4662
2c34
1818
300c
e007
0000
0000
0000
0000
0000
ENDCHAR
STARTCHAR ch-120
ENCODING 120
SWIDTH 1000 0
DWIDTH 16 0
BBX 16 16 0 -2
BITMAP
0000
7fc8
0250
4662
2c34
1818
37ec
e107
0100
0100
7ffe
0240
0660
0c30
1818
700e
ENDCHAR
STARTCHAR ch-122
ENCODING 122
SWIDTH 1000 0
DWIDTH 16 0
BBX 16 16 0 -2
BITMAP
0000
7fc8
0250
4662
2c34
1818
3ffc
e427
0420
0420
ffff
0420
0c20
1821
3033
e01e
ENDCHAR
STARTCHAR ch-123
ENCODING 123
SWIDTH 1000 0
DWIDTH 16 0
BBX 16 16 0 -2
BITMAP
0000
3f8c
02d8
6663
2c36
1ff8
300c
eff7
0810
0810
0ff0
0810
0c30
0420
ffff
0000
ENDCHAR
STARTCHAR ch-124
ENCODING 124
SWIDTH 1000 0
DWIDTH 16 0
BBX 16 16 0 -2
BITMAP
0000
1f88
4252
2424
1818
e007
3cf8
0488
3c8e
2100
20fc
3c44
0428
0410
0c6c
39c7
ENDCHAR
STARTCHAR ch-125
ENCODING 125
SWIDTH 1000 0
DWIDTH 16 0
BBX 16 16 0 -2
BITMAP
0100
0300
0200
3ffc
2004
2004
2004
2004
3ffc
2004
2004
2004
2004
2004
3ffc
0000
ENDCHAR
STARTCHAR ch-126
ENCODING 126
SWIDTH 1000 0
DWIDTH 16 0
BBX 16 16 0 -2
BITMAP
0000
ffff
0100
0300
0200
3ffc
2004
2004
2004
2004
3ffc
2004
2004
2004
2004
3ffc
ENDCHAR
STARTCHAR ch-128
ENCODING 128
SWIDTH 1000 0
DWIDTH 16 0
BBX 16 16 0 -2
BITMAP
0100
0200
3ff8
2008
2008
3ff8
2008
2008
3ff8
0000
2018
21f0
3f00
2002
3006
1ffc
ENDCHAR
STARTCHAR ch-131
ENCODING 131
SWIDTH 1000 0
DWIDTH 16 0
BBX 16 16 0 -2
BITMAP
0080
0100
3ffc
2004
2004
3ffc
2004
2004
3ffc
0420
0420
0c20
0820
1821
3033
e01e
ENDCHAR
STARTCHAR ch-132
ENCODING 132
SWIDTH 1000 0
DWIDTH 16 0
BBX 16 16 0 -2
BITMAP
0880
1880
1080
7cfe
4582
4502
4702
44c2
7c62
4422
4402
4402
4406
7c04
000c
0038
ENDCHAR
STARTCHAR ch-134
ENCODING 134
SWIDTH 1000 0
DWIDTH 16 0
BBX 16 16 0 -2
BITMAP
2040
2046
3e7c
2040
2041
2043
3e7e
e080
0100
1ff8
1008
1008
1ff8
1008
1008
1ff8
ENDCHAR
STARTCHAR ch-135
ENCODING 135
SWIDTH 1000 0
DWIDTH 16 0
BBX 16 16 0 -2
BITMAP
0080
0100
3ffc
2004
3ffc
2004
3ffc
0000
7ffe
0100
0100
3ffc
0100
0100
ffff
0000
ENDCHAR
STARTCHAR ch-136
ENCODING 136
SWIDTH 1000 0
DWIDTH 16 0
BBX 16 16 0 -2
BITMAP
1000
31ff
2100
f900
8900
89fe
8942
f946
8964
892c
8938
fb10
0238
066c
0cc6
0183
ENDCHAR
STARTCHAR ch-139
ENCODING 139
SWIDTH 1000 0
DWIDTH 16 0
BBX 16 16 0 -2
BITMAP
0080
0100
1ff8
1008
1ff8
1008
1ff8
0100
ffff
0420
0c30
391c
e107
1ff8
0100
0100
ENDCHAR
STARTCHAR ch-142
ENCODING 142
SWIDTH 1000 0
DWIDTH 16 0
BBX 16 16 0 -2
BITMAP
1020
3020
27ff
f800
8888
898c
8b06
f800
8888
88d8
8870
8820
f870
00d8
018c
0707
ENDCHAR
STARTCHAR ch-144
ENCODING 144
SWIDTH 1000 0
DWIDTH 16 0
BBX 16 16 0 -2
BITMAP
0100
0200
3ffc
2004
3ffc
2004
3ffc
0000
393c
0100
393c
0100
ffff
0100
0100
0100
ENDCHAR
STARTCHAR ch-147
ENCODING 147
SWIDTH 1000 0
DWIDTH 16 0
BBX 16 16 0 -2
BITMAP
1020
3120
2120
fbfe
8a20
8820
8820
ffff
8800
8800
89fc
8904
f904
0104
0104
01fc
ENDCHAR
STARTCHAR ch-150
ENCODING 150
SWIDTH 1000 0
DWIDTH 16 0
BBX 16 16 0 -2
BITMAP
1020
3020
23fe
fa02
8a02
89fc
8800
f800
8fff
8888
8888
8888
f988
0109
0309
0607
ENDCHAR
STARTCHAR ch-153
ENCODING 153
SWIDTH 1000 0
DWIDTH 16 0
BBX 16 16 0 -2
BITMAP
1006
10fc
fe80
10ff
3888
3488
5188
9308
1088
0100
1ff8
1008
1ff8
1008
1008
1ff8
ENDCHAR
STARTCHAR ch-154
ENCODING 154
SWIDTH 1000 0
DWIDTH 16 0
BBX 16 16 0 -2
BITMAP
1020
3222
2222
fbfe
8800
8fff
8800
f9fc
8904
8904
89fc
8888
f8d8
0050
07ff
0000
ENDCHAR
STARTCHAR ch-174
ENCODING 174
SWIDTH 1000 0
DWIDTH 16 0
BBX 16 16 0 -2
BITMAP
0080
0080
0080
3ffe
2082
2084
2080
2ff8
2408
2618
2330
2160
60c0
41e0
c738
1c0e
ENDCHAR
STARTCHAR ch-176
ENCODING 176
SWIDTH 1000 0
DWIDTH 16 0
BBX 16 16 0 -2
BITMAP
0840
0840
7e7e
4ac2
4882
49fa
7e0a
420a
467a
7446
5c44
484c
dc40
9441
3663
603e
ENDCHAR
STARTCHAR ch-180
ENCODING 180
SWIDTH 1000 0
DWIDTH 16 0
BBX 16 16 0 -2
BITMAP
2008
6408
4408
feff
2a89
688a
ce88
20fe
3ca2
64b6
cc94
289c
1088
389c
6d36
c063
ENDCHAR
STARTCHAR ch-183
ENCODING 183
SWIDTH 1000 0
DWIDTH 16 0
BBX 16 16 0 -2
BITMAP
1010
1010
fe10
10ff
7c91
0092
7c90
44fe
44a2
7ca6
00b4
449c
6c88
291c
3c36
e063
ENDCHAR
STARTCHAR ch-184
ENCODING 184
SWIDTH 1000 0
DWIDTH 16 0
BBX 16 16 0 -2
BITMAP
0008
ff88
8088
88ff
7f49
084a
7f48
497e
7f52
4956
7f54
085c
ff48
089c
0836
0863
ENDCHAR
STARTCHAR ch-185
ENCODING 185
SWIDTH 1000 0
DWIDTH 16 0
BBX 16 16 0 -2
BITMAP
1000
11ff
7d01
5511
54fe
5010
7cfe
4492
44fe
7492
5c92
48fe
dc10
97ff
3210
6010
ENDCHAR
STARTCHAR ch-186
ENCODING 186
SWIDTH 1000 0
DWIDTH 16 0
BBX 16 16 0 -2
BITMAP
2008
7f08
c108
117f
5549
7d4a
2348
467e
2052
7f56
c154
115c
5588
7d1c
2336
4663
ENDCHAR
STARTCHAR ch-191
ENCODING 191
SWIDTH 1000 0
DWIDTH 16 0
BBX 16 16 0 -2
BITMAP
0000
0000
3ffc
2444
2444
2444
2444
2444
2444
2444
2444
2444
2444
2444
ffff
0000
ENDCHAR
STARTCHAR ch-194
ENCODING 194
SWIDTH 1000 0
DWIDTH 16 0
BBX 16 16 0 -2
BITMAP
0000
1ff8
0100
0100
7ffe
0100
0100
0100
0700
0000
3ffc
2444
2444
2444
ffff
0000
ENDCHAR
STARTCHAR ch-195
ENCODING 195
SWIDTH 1000 0
DWIDTH 16 0
BBX 16 16 0 -2
BITMAP
0000
7ffe
0080
0180
0730
1d1c
f107
0100
0100
0000
3ffc
2444
2444
2444
ffff
0000
ENDCHAR
STARTCHAR ch-198
ENCODING 198
SWIDTH 1000 0
DWIDTH 16 0
BBX 16 16 0 -2
BITMAP
0420
0c30
1818
700e
dffb
0208
0608
1c08
7038
0000
3ffc
2444
2444
2444
ffff
0000
ENDCHAR
STARTCHAR ch-200
ENCODING 200
SWIDTH 1000 0
DWIDTH 16 0
BBX 16 16 0 -2
BITMAP
0000
fff0
1010
1010
1fde
1042
3482
2302
6cce
c000
3ffc
2444
2444
2444
ffff
0000
ENDCHAR
STARTCHAR ch-202
ENCODING 202
SWIDTH 1000 0
DWIDTH 16 0
BBX 16 16 0 -2
BITMAP
1008
1818
0c30
0420
ffff
0420
0c30
1818
300c
e007
1ff8
1248
1248
1248
1248
ffff
ENDCHAR
STARTCHAR ch-205
ENCODING 205
SWIDTH 1000 0
DWIDTH 16 0
BBX 16 16 0 -2
BITMAP
0100
0100
3ffc
0100
0100
ffff
0400
0c10
09f8
3f0c
0000
3ffc
2444
2444
ffff
0000
ENDCHAR
STARTCHAR ch-210
ENCODING 210
SWIDTH 1000 0
DWIDTH 16 0
BBX 16 16 0 -2
BITMAP
0100
0380
06c0
0c70
381c
e7e7
0000
0ff0
0810
0ff0
0000
3ffc
2444
2444
ffff
0000
ENDCHAR
STARTCHAR ch-214
ENCODING 214
SWIDTH 1000 0
DWIDTH 16 0
BBX 16 16 0 -2
BITMAP
0810
0420
7ffe
0100
0100
3ffc
0100
0100
ffff
0000
3ffc
2444
2444
2444
ffff
0000
ENDCHAR
STARTCHAR ch-215
ENCODING 215
SWIDTH 1000 0
DWIDTH 16 0
BBX 16 16 0 -2
BITMAP
0100
6100
33fe
1242
0644
10e0
31b0
631c
c607
0000
3ffc
2444
2444
2444
ffff
0000
ENDCHAR
STARTCHAR ch-219
ENCODING 219
SWIDTH 1000 0
DWIDTH 16 0
BBX 16 16 0 -2
BITMAP
0048
0044
3ffe
2020
3e32
2214
2218
622d
4ec7
c002
3ffc
2444
2444
2444
ffff
0000
ENDCHAR
STARTCHAR ch-220
ENCODING 220
SWIDTH 1000 0
DWIDTH 16 0
BBX 16 16 0 -2
BITMAP
0080
3080
19fe
c122
6324
0070
1058
30cc
6387
c000
3ffc
2444
2444
2444
ffff
0000
ENDCHAR
STARTCHAR ch-222
ENCODING 222
SWIDTH 1000 0
DWIDTH 16 0
BBX 16 16 0 -2
BITMAP
0820
0410
7ffe
0120
00c4
3f3c
0410
7ffe
0220
01c4
3e3c
0000
3ffc
2444
2444
ffff
ENDCHAR
STARTCHAR ch-223
ENCODING 223
SWIDTH 1000 0
DWIDTH 16 0
BBX 16 16 0 -2
BITMAP
0000
7c7e
4442
447e
7c42
447e
4442
4442
7cc2
018e
0000
3ffc
2444
2444
2444
ffff
ENDCHAR
STARTCHAR ch-225
ENCODING 225
SWIDTH 1000 0
DWIDTH 16 0
BBX 16 16 0 -2
BITMAP
0100
3ff8
0108
ffff
0108
3ff8
0100
ffff
2444
6226
c003
3ffc
2444
2444
ffff
0000
ENDCHAR
STARTCHAR ch-227
ENCODING 227
SWIDTH 1000 0
DWIDTH 16 0
BBX 16 16 0 -2
BITMAP
0020
7f20
4820
7e7f
4240
42c0
7e3e
4800
7f00
0000
3ffc
2444
2444
2444
ffff
0000
ENDCHAR
STARTCHAR ch-228
ENCODING 228
SWIDTH 1000 0
DWIDTH 16 0
BBX 16 16 0 -2
BITMAP
0800
3e7c
2244
2a47
ff80
227e
2a22
2a24
6218
c667
0000
3ffc
2444
2444
ffff
0000
ENDCHAR
STARTCHAR ch-229
ENCODING 229
SWIDTH 1000 0
DWIDTH 16 0
BBX 16 16 0 -2
BITMAP
1800
710e
4122
774e
4182
4382
754e
4922
4302
0000
3ffc
2444
2444
2444
ffff
0000
ENDCHAR
STARTCHAR ch-231
ENCODING 231
SWIDTH 1000 0
DWIDTH 16 0
BBX 16 16 0 -2
BITMAP
0100
01f8
0100
3ffe
2102
2ff0
2104
27fc
2488
27f8
2488
67f8
4000
cffc
0924
3fff
ENDCHAR
STARTCHAR ch-234
ENCODING 234
SWIDTH 1000 0
DWIDTH 16 0
BBX 16 16 0 -2
BITMAP
0000
61f8
3108
01f8
c108
61f8
0000
2fff
2100
63fe
4492
c126
3ffc
2444
2444
ffff
ENDCHAR
STARTCHAR ch-238
ENCODING 238
SWIDTH 1000 0
DWIDTH 16 0
BBX 16 16 0 -2
BITMAP
0000
1ff8
1008
1008
1008
1ff8
1008
1008
1008
1ff8
1008
1008
1008
1008
1ff8
0000
ENDCHAR
STARTCHAR ch-242
ENCODING 242
SWIDTH 1000 0
DWIDTH 16 0
BBX 16 16 0 -2
BITMAP
0100
0100
ffff
2000
2000
2000
1ffc
0000
1ff8
1008
1ff8
1008
1ff8
1008
1008
1ff8
ENDCHAR
STARTCHAR ch-244
ENCODING 244
SWIDTH 1000 0
DWIDTH 16 0
BBX 16 16 0 -2
BITMAP
0080
0080
ffff
0080
0ff8
4808
4808
4ff8
4808
4808
4ff8
4808
4808
4ff8
4000
7fff
ENDCHAR
STARTCHAR ch-248
ENCODING 248
SWIDTH 1000 0
DWIDTH 16 0
BBX 16 16 0 -2
BITMAP
1000
10fe
1082
fe82
1082
10fe
3882
3482
3282
50fe
5082
9082
1082
1082
10fe
1000
ENDCHAR
STARTCHAR ch-251
ENCODING 251
SWIDTH 1000 0
DWIDTH 16 0
BBX 16 16 0 -2
BITMAP
0088
7888
498c
4b06
4e03
79fc
4840
48c0
4880
79fc
4804
4804
4804
780c
0008
0038
ENDCHAR
STARTCHAR ch-254
ENCODING 254
SWIDTH 1000 0
DWIDTH 16 0
BBX 16 16 0 -2
BITMAP
0006
007c
3fc0
2040
3fff
2040
27fc
2404
2404
27fc
2404
2404
67fc
4404
c404
07fc
ENDCHAR
STARTCHAR ch-257
ENCODING 257
SWIDTH 1000 0
DWIDTH 16 0
BBX 16 16 0 -2
BITMAP
0100
0910
191c
3107
e730
00c0
1ffc
f004
1004
1ffc
1004
1004
1ffc
1004
1004
1ffc
ENDCHAR
STARTCHAR ch-260
ENCODING 260
SWIDTH 1000 0
DWIDTH 16 0
BBX 16 16 0 -2
BITMAP
0000
7bff
4820
4820
4920
793e
4922
4922
4922
7922
49fe
4802
4802
7806
0004
001c
ENDCHAR
STARTCHAR ch-263
ENCODING 263
SWIDTH 1000 0
DWIDTH 16 0
BBX 16 16 0 -2
BITMAP
0020
7820
4820
4924
4924
7b26
4a23
4e20
4824
78ec
4808
4818
4830
7860
01c0
0700
ENDCHAR
STARTCHAR ch-264
ENCODING 264
SWIDTH 1000 0
DWIDTH 16 0
BBX 16 16 0 -2
BITMAP
0020
7820
4820
4bfe
4a22
7a22
4a22
4820
4870
7850
4850
4850
48d0
7891
0193
030e
ENDCHAR
STARTCHAR ch-265
ENCODING 265
SWIDTH 1000 0
DWIDTH 16 0
BBX 16 16 0 -2
BITMAP
0000
3ffe
2082
2082
3ffe
2000
27fc
2404
2404
27fc
2404
2404
67fc
4404
c404
07fc
ENDCHAR
STARTCHAR ch-267
ENCODING 267
SWIDTH 1000 0
DWIDTH 16 0
BBX 16 16 0 -2
BITMAP
0018
01f0
3f00
0100
7ffe
0200
ffff
0400
0ffc
1804
2ffc
c804
0ffc
0804
0804
0ffc
ENDCHAR
STARTCHAR ch-268
ENCODING 268
SWIDTH 1000 0
DWIDTH 16 0
BBX 16 16 0 -2
BITMAP
07f8
2408
2408
27f8
2408
2408
27f8
2408
2408
27f8
2000
3fff
0888
188c
7087
0080
ENDCHAR
STARTCHAR ch-283
ENCODING 283
SWIDTH 1000 0
DWIDTH 16 0
BBX 16 16 0 -2
BITMAP
0020
7820
4820
4bfe
4820
7820
4820
4fff
48a8
78a8
48a8
49ac
4924
7b26
0623
0020
ENDCHAR
STARTCHAR ch-286
ENCODING 286
SWIDTH 1000 0
DWIDTH 16 0
BBX 16 16 0 -2
BITMAP
1070
1fc4
100c
0ff8
0000
4ff8
4808
4ff8
4808
4ff8
4808
4ff8
4000
7fff
0810
300c
ENDCHAR
STARTCHAR ch-287
ENCODING 287
SWIDTH 1000 0
DWIDTH 16 0
BBX 16 16 0 -2
BITMAP
0100
0100
7ffe
0100
1ff8
1008
1ff8
1008
1ff8
1008
1ff8
0000
ffff
0810
1818
700e
ENDCHAR
STARTCHAR ch-288
ENCODING 288
SWIDTH 1000 0
DWIDTH 16 0
BBX 16 16 0 -2
BITMAP
0000
79fe
4902
4902
4902
79fe
4910
4910
49ff
7910
4910
4918
4908
796d
01c7
0302
ENDCHAR
STARTCHAR ch-292
ENCODING 292
SWIDTH 1000 0
DWIDTH 16 0
BBX 16 16 0 -2
BITMAP
0000
7bfe
4a02
4a02
7a02
4bfe
4a00
4a40
7a46
4a5c
4a70
4a40
7a40
0241
0463
003e
ENDCHAR
STARTCHAR ch-293
ENCODING 293
SWIDTH 1000 0
DWIDTH 16 0
BBX 16 16 0 -2
BITMAP
0840
0840
4846
4f7c
4840
4841
4f43
783e
c000
1ff8
1008
1ff8
1008
1ff8
1008
1ff8
ENDCHAR
STARTCHAR ch-294
ENCODING 294
SWIDTH 1000 0
DWIDTH 16 0
BBX 16 16 0 -2
BITMAP
0088
7888
4888
4a88
4a88
7a8b
4aee
4a88
4a88
7a88
4a88
4a88
4a88
7ae9
0389
0607
ENDCHAR
STARTCHAR ch-297
ENCODING 297
SWIDTH 1000 0
DWIDTH 16 0
BBX 16 16 0 -2
BITMAP
0020
7820
4820
4bff
4820
7860
48c4
498c
48c8
7858
4830
4864
4846
78c2
019f
03f1
ENDCHAR
STARTCHAR ch-311
ENCODING 311
SWIDTH 1000 0
DWIDTH 16 0
BBX 16 16 0 -2
BITMAP
1108
1918
0910
3ffc
0280
0240
ffff
0c30
1818
3ffc
e817
0ff0
0810
0ff0
0810
0ff0
ENDCHAR
STARTCHAR ch-312
ENCODING 312
SWIDTH 1000 0
DWIDTH 16 0
BBX 16 16 0 -2
BITMAP
0080
7888
4988
493c
4be6
7800
4820
4920
49fe
7b20
4820
4fff
4820
7820
0020
0020
ENDCHAR
STARTCHAR ch-314
ENCODING 314
SWIDTH 1000 0
DWIDTH 16 0
BBX 16 16 0 -2
BITMAP
0090
f890
8892
8e96
8b94
f890
8890
8890
889c
fb96
8e93
8890
8990
f911
0313
0e0e
ENDCHAR
STARTCHAR ch-316
ENCODING 316
SWIDTH 1000 0
DWIDTH 16 0
BBX 16 16 0 -2
BITMAP
0000
79fc
4904
4904
49fc
7904
4904
49fc
4921
7933
4916
491c
4908
790c
01e6
0703
ENDCHAR
STARTCHAR ch-320
ENCODING 320
SWIDTH 1000 0
DWIDTH 16 0
BBX 16 16 0 -2
BITMAP
0810
0420
7ffe
0100
3ffc
0100
ffff
0400
0ffc
1804
3ffc
e804
0ffc
0804
0804
0ffc
ENDCHAR
STARTCHAR ch-327
ENCODING 327
SWIDTH 1000 0
DWIDTH 16 0
BBX 16 16 0 -2
BITMAP
0104
7888
4bfe
4822
4822
7bfe
4a20
4a20
4bff
7861
4861
48a3
49a2
7b2e
0620
0020
ENDCHAR
STARTCHAR ch-346
ENCODING 346
SWIDTH 1000 0
DWIDTH 16 0
BBX 16 16 0 -2
BITMAP
0000
7bff
4a00
4a10
7afe
4a10
4a10
4bff
7a00
4a10
4afe
4a10
7a10
0410
01ff
0000
ENDCHAR
STARTCHAR ch-347
ENCODING 347
SWIDTH 1000 0
DWIDTH 16 0
BBX 16 16 0 -2
BITMAP
0020
7820
4bfe
4820
49fc
7820
4fff
4800
49fc
7904
49fc
4904
49fc
7904
0104
011c
ENDCHAR
STARTCHAR ch-353
ENCODING 353
SWIDTH 1000 0
DWIDTH 16 0
BBX 16 16 0 -2
BITMAP
000c
f038
93e0
9020
93fe
f124
9124
9124
97ff
f124
9124
9124
93fe
f020
0020
07ff
ENDCHAR
STARTCHAR ch-355
ENCODING 355
SWIDTH 1000 0
DWIDTH 16 0
BBX 16 16 0 -2
BITMAP
0800
0f7e
0822
ffb4
4a18
492c
9847
0000
1ff8
1008
1ff8
1008
1ff8
1008
1008
1ff8
ENDCHAR
STARTCHAR ch-357
ENCODING 357
SWIDTH 1000 0
DWIDTH 16 0
BBX 16 16 0 -2
BITMAP
0020
7840
4bfe
4a22
4a22
7bfe
4a22
4a22
4bfe
7890
4910
4fff
4810
7810
0010
0010
ENDCHAR
STARTCHAR ch-358
ENCODING 358
SWIDTH 1000 0
DWIDTH 16 0
BBX 16 16 0 -2
BITMAP
0020
f820
8bfe
8820
8820
ffff
8888
8988
8f0f
f820
8820
8bfe
8820
f820
0020
07ff
ENDCHAR
STARTCHAR ch-360
ENCODING 360
SWIDTH 1000 0
DWIDTH 16 0
BBX 16 16 0 -2
BITMAP
00c0
7b9e
4a02
4a02
4bde
7a02
4a02
4bfe
4890
7890
4890
4890
4990
7911
0313
060e
ENDCHAR
STARTCHAR ch-363
ENCODING 363
SWIDTH 1000 0
DWIDTH 16 0
BBX 16 16 0 -2
BITMAP
0020
f020
97ff
9020
91fc
f024
97ff
9024
91fc
f020
9120
913e
93a0
f2a0
0660
0c3f
ENDCHAR
STARTCHAR ch-377
ENCODING 377
SWIDTH 1000 0
DWIDTH 16 0
BBX 16 16 0 -2
BITMAP
0040
7842
49fe
4844
484c
7848
4bff
4820
4840
78fc
4b84
4884
48fc
7884
0084
00fc
ENDCHAR
STARTCHAR ch-382
ENCODING 382
SWIDTH 1000 0
DWIDTH 16 0
BBX 16 16 0 -2
BITMAP
0200
3ffc
2444
2444
3ffc
0100
1ff8
0100
ffff
0820
0440
3ffc
0100
7ffe
0100
0100
ENDCHAR
STARTCHAR ch-383
ENCODING 383
SWIDTH 1000 0
DWIDTH 16 0
BBX 16 16 0 -2
BITMAP
0100
01f8
0100
7ffe
4002
47e2
1008
6186
0660
3ffc
e817
0ff0
0810
0ff0
0810
0ff0
ENDCHAR
STARTCHAR ch-395
ENCODING 395
SWIDTH 1000 0
DWIDTH 16 0
BBX 16 16 0 -2
BITMAP
0020
7820
4bfe
4820
49fc
7904
49fc
4904
49fc
7904
49fc
4800
4fff
7888
018c
0306
ENDCHAR
STARTCHAR ch-398
ENCODING 398
SWIDTH 1000 0
DWIDTH 16 0
BBX 16 16 0 -2
BITMAP
0020
7820
4bfe
4a02
4a22
79fc
4820
49fc
4820
7fff
4800
49fc
4904
7904
0104
01fc
ENDCHAR
STARTCHAR ch-401
ENCODING 401
SWIDTH 1000 0
DWIDTH 16 0
BBX 16 16 0 -2
BITMAP
0000
7bff
4a01
4afd
4884
7884
48fc
4884
4884
78fc
4820
4bff
4800
7884
0186
0303
ENDCHAR
STARTCHAR ch-414
ENCODING 414
SWIDTH 1000 0
DWIDTH 16 0
BBX 16 16 0 -2
BITMAP
0088
f088
97ff
9088
9088
f0f8
9020
97ff
9421
f5ad
94a5
94a5
956b
f421
0421
0423
ENDCHAR
STARTCHAR ch-416
ENCODING 416
SWIDTH 1000 0
DWIDTH 16 0
BBX 16 16 0 -2
BITMAP
0222
7b26
4924
4bfe
7a02
4afa
4888
4888
78f8
4820
4820
49fc
7820
0020
07ff
0000
ENDCHAR
STARTCHAR ch-421
ENCODING 421
SWIDTH 1000 0
DWIDTH 16 0
BBX 16 16 0 -2
BITMAP
4920
2a3f
7f64
49c4
5d28
6b10
493c
4b67
0000
1ff8
1008
1ff8
1008
1ff8
1008
1ff8
ENDCHAR
STARTCHAR ch-428
ENCODING 428
SWIDTH 1000 0
DWIDTH 16 0
BBX 16 16 0 -2
BITMAP
0006
f03c
97e2
9246
9124
f7ff
9401
9505
91c4
f37f
9254
95d4
9094
f1bf
0304
0604
ENDCHAR
STARTCHAR ch-429
ENCODING 429
SWIDTH 1000 0
DWIDTH 16 0
BBX 16 16 0 -2
BITMAP
0040
f040
97ff
9088
928a
f104
93fe
9505
91fc
f104
91fc
9020
9124
f326
0623
00e0
ENDCHAR
STARTCHAR ch-432
ENCODING 432
SWIDTH 1000 0
DWIDTH 16 0
BBX 16 16 0 -2
BITMAP
0010
f7d0
9110
911f
9ff2
f4a2
9496
9794
9494
f49c
9788
9488
949c
f794
0c96
00b3
ENDCHAR
STARTCHAR ch-435
ENCODING 435
SWIDTH 1000 0
DWIDTH 16 0
BBX 16 16 0 -2
BITMAP
0020
f020
93fe
9104
9088
f7ff
9000
91fc
9124
f1fc
9124
91fc
9020
f3fe
0020
07ff
ENDCHAR
STARTCHAR ch-438
ENCODING 438
SWIDTH 1000 0
DWIDTH 16 0
BBX 16 16 0 -2
BITMAP
0020
79fc
4924
49fc
4820
7fff
4800
49fc
4904
79fc
4904
49fc
4904
79fc
0088
0306
ENDCHAR
STARTCHAR ch-441
ENCODING 441
SWIDTH 1000 0
DWIDTH 16 0
BBX 16 16 0 -2
BITMAP
000e
f7f8
9242
9124
97ff
f421
9292
9285
947c
f080
91fc
9304
9698
f070
01dc
0707
ENDCHAR
STARTCHAR ch-443
ENCODING 443
SWIDTH 1000 0
DWIDTH 16 0
BBX 16 16 0 -2
BITMAP
00f8
7910
4fff
4a44
4b87
7a7c
4a00
4bff
4a00
7a7c
4a00
4a7c
4a00
7afe
0482
00fe
ENDCHAR
STARTCHAR ch-444
ENCODING 444
SWIDTH 1000 0
DWIDTH 16 0
BBX 16 16 0 -2
BITMAP
0020
7870
48d8
498c
4f07
78f8
4800
4bde
4a52
7a52
4bde
4800
4904
7904
038e
06db
ENDCHAR
STARTCHAR ch-445
ENCODING 445
SWIDTH 1000 0
DWIDTH 16 0
BBX 16 16 0 -2
BITMAP
1008
ff7f
1008
ff7e
4222
7e36
241c
1f36
f063
1ff8
1008
1ff8
1008
1ff8
1008
1ff8
ENDCHAR
STARTCHAR ch-447
ENCODING 447
SWIDTH 1000 0
DWIDTH 16 0
BBX 16 16 0 -2
BITMAP
3e7c
2244
3e7c
2244
3e7c
2244
3e7c
0420
0840
1ffe
3080
dffc
1080
1ffc
1080
1fff
ENDCHAR
STARTCHAR ch-455
ENCODING 455
SWIDTH 1000 0
DWIDTH 16 0
BBX 16 16 0 -2
BITMAP
0048
7bff
4848
4bff
4a01
7afd
4800
4bff
4840
78a3
4b56
4890
4b38
78d4
0313
0070
ENDCHAR
STARTCHAR ch-461
ENCODING 461
SWIDTH 1000 0
DWIDTH 16 0
BBX 16 16 0 -2
BITMAP
3e7c
2244
3e7c
2244
3e7c
2244
3ffe
1080
3ffc
d080
1ffc
1080
7ffe
0c18
03e0
7c1f
ENDCHAR
STARTCHAR ch-471
ENCODING 471
SWIDTH 1000 0
DWIDTH 16 0
BBX 16 16 0 -2
BITMAP
0080
1ffc
0080
27f0
2410
27f0
2410
3ffe
0808
7f7f
0808
bebe
a2a2
bebe
a2a2
ffff
ENDCHAR
STARTCHAR ch-474
ENCODING 474
SWIDTH 1000 0
DWIDTH 16 0
BBX 16 16 0 -2
BITMAP
0ffe
e802
affe
a820
ebae
a820
abfe
aa92
ebff
a941
affd
aa45
ebfd
0853
10fa
078e
ENDCHAR
STARTCHAR ch-475
ENCODING 475
SWIDTH 1000 0
DWIDTH 16 0
BBX 16 16 0 -2
BITMAP
0000
3ffc
0018
0660
0380
0100
ffff
0181
0382
0284
0680
0c80
1880
3080
e080
0380
ENDCHAR
STARTCHAR ch-476
ENCODING 476
SWIDTH 1000 0
DWIDTH 16 0
BBX 16 16 0 -2
BITMAP
0010
7f10
0238
3428
086c
ff46
09fb
0900
1a00
18fe
2802
2806
4804
880c
0808
3818
ENDCHAR
STARTCHAR ch-482
ENCODING 482
SWIDTH 1000 0
DWIDTH 16 0
BBX 16 16 0 -2
BITMAP
0800
0800
1ffc
1100
3100
6100
0100
ffff
0240
0240
0660
0420
0c30
1818
300c
e007
ENDCHAR
STARTCHAR ch-483
ENCODING 483
SWIDTH 1000 0
DWIDTH 16 0
BBX 16 16 0 -2
BITMAP
0800
0808
1808
11fc
7f06
0800
0800
1ffc
3100
0100
ffff
0240
0660
0c30
381c
e007
ENDCHAR
STARTCHAR ch-485
ENCODING 485
SWIDTH 1000 0
DWIDTH 16 0
BBX 16 16 0 -2
BITMAP
2000
2000
7f7e
4842
c842
0842
0842
ffc2
0842
0842
1c42
1442
3642
227e
6300
c000
ENDCHAR
STARTCHAR ch-487
ENCODING 487
SWIDTH 1000 0
DWIDTH 16 0
BBX 16 16 0 -2
BITMAP
2002
23e2
2022
7c22
5022
d1e2
1102
ff02
1102
11e2
3822
2822
2c22
6462
c042
01c2
ENDCHAR
STARTCHAR ch-489
ENCODING 489
SWIDTH 1000 0
DWIDTH 16 0
BBX 16 16 0 -2
BITMAP
2000
20ff
2080
7e80
5080
d0fe
1082
ff82
1082
10fe
3880
2c80
6680
4280
c0ff
0000
ENDCHAR
STARTCHAR ch-493
ENCODING 493
SWIDTH 1000 0
DWIDTH 16 0
BBX 16 16 0 -2
BITMAP
2000
21ff
7e00
5000
d0fe
1082
fe82
1082
10fe
3800
2c82
26c6
6244
4004
c1ff
0000
ENDCHAR
STARTCHAR ch-494
ENCODING 494
SWIDTH 1000 0
DWIDTH 16 0
BBX 16 16 0 -2
BITMAP
200c
2038
7de0
5020
13ff
10a8
fdac
1327
1020
1040
3bff
2884
2d08
65f0
c03c
03c6
ENDCHAR
STARTCHAR ch-495
ENCODING 495
SWIDTH 1000 0
DWIDTH 16 0
BBX 16 16 0 -2
BITMAP
401c
43f0
7840
a7ff
a088
21fc
268b
f8f8
2000
23fe
7202
52fa
5a8a
cafa
8202
0206
ENDCHAR
STARTCHAR ch-499
ENCODING 499
SWIDTH 1000 0
DWIDTH 16 0
BBX 16 16 0 -2
BITMAP
0000
ffff
0200
0600
0400
0c00
0800
1ffc
3804
6804
c804
0804
0804
0804
0ffc
0000
ENDCHAR
STARTCHAR ch-508
ENCODING 508
SWIDTH 1000 0
DWIDTH 16 0
BBX 16 16 0 -2
BITMAP
0000
fefe
1010
1010
1010
1010
3c10
2410
6410
6410
a410
2410
2410
3c10
01ff
0000
ENDCHAR
ENDFONT
