STARTFONT 2.1
FONT jis.jis5800.24
SIZE 24 72 72
FONTBOUNDINGBOX 24 24 0 -3
STARTPROPERTIES 4
FONT_DESCENT 3
FONT_ASCENT 21
DEFAULT_CHAR 0
COPYRIGHT "Copyright (c) 1992 AT&T - All rights reserved."
ENDPROPERTIES
CHARS 172
STARTCHAR ch-0
ENCODING 0
SWIDTH 1000 0
DWIDTH 24 0
BBX 24 24 0 -3
BITMAP
1c4006
187fff
186006
186006
186006
187ffe
1b6006
ffe0e0
1860c0
186ece
186ccc
186ccc
186ccc
186ffc
186ccc
1960c0
1ec0c0
f8dcc7
6098c6
4198c6
0118c6
021ffe
041806
001806
ENDCHAR
STARTCHAR ch-2
ENCODING 2
SWIDTH 1000 0
DWIDTH 24 0
BBX 24 24 0 -3
BITMAP
001c40
041870
031860
0198c0
119880
101906
3fffff
300006
600004
63ffc8
0300c0
0300c0
0300c0
0300c0
03ffc0
001800
001800
001830
1ffff8
001800
001800
001806
ffffff
000000
ENDCHAR
STARTCHAR ch-5
ENCODING 5
SWIDTH 1000 0
DWIDTH 24 0
BBX 24 24 0 -3
BITMAP
203000
3ff80c
3107fe
31020c
31020c
3ff218
303118
303110
3030b0
3ff0e0
310040
3100f0
31309f
3ff90e
300606
000000
001800
001830
1ffff8
001800
001800
001806
ffffff
000000
ENDCHAR
STARTCHAR ch-6
ENCODING 6
SWIDTH 1000 0
DWIDTH 24 0
BBX 24 24 0 -3
BITMAP
000800
1c0e40
180c70
181860
181840
18108c
1b3ffe
fff180
187180
18b180
193198
183ffc
183180
183180
183180
183198
193ffc
1e3180
f83180
603180
403186
003fff
003000
003000
ENDCHAR
STARTCHAR ch-10
ENCODING 10
SWIDTH 1000 0
DWIDTH 24 0
BBX 24 24 0 -3
BITMAP
00000c
7ffffe
00c300
00c300
10c318
1fc3fc
180018
180018
180018
1fc3f8
18c318
00c300
00c306
ffffff
000000
001c00
001800
001830
1ffff8
001800
001800
001806
ffffff
000000
ENDCHAR
STARTCHAR ch-11
ENCODING 11
SWIDTH 1000 0
DWIDTH 24 0
BBX 24 24 0 -3
BITMAP
004646
1c7f7f
184646
184646
184646
184646
1b4646
fffe7e
184646
184646
184646
184646
184646
187e7e
184646
1f4646
fc4646
704646
404646
00c646
008646
009e86
010c9e
02010c
ENDCHAR
STARTCHAR ch-21
ENCODING 21
SWIDTH 1000 0
DWIDTH 24 0
BBX 24 24 0 -3
BITMAP
218380
3fc306
31bfff
310600
330600
320ffc
340c0c
321c0c
312ffc
318c0c
318c0c
318ffc
378c0c
330c0c
300c3c
300c18
300000
001c00
001830
1ffff8
001800
001806
ffffff
000000
ENDCHAR
STARTCHAR ch-25
ENCODING 25
SWIDTH 1000 0
DWIDTH 24 0
BBX 24 24 0 -3
BITMAP
000000
1c0006
19ffff
180480
180480
18448c
187ffe
1b648c
ffe48c
18648c
18648c
187ffc
18600c
180000
180380
180300
1f0318
fc7ffc
700300
400300
000300
000306
01ffff
000000
ENDCHAR
STARTCHAR ch-29
ENCODING 29
SWIDTH 1000 0
DWIDTH 24 0
BBX 24 24 0 -3
BITMAP
001018
1c1ffc
181818
181818
181818
1819f8
1b1918
ff9918
181918
18591a
187fff
186006
186006
186466
1867f6
1f6666
fc6666
706666
4067e6
006666
006006
006006
00603e
00600c
ENDCHAR
STARTCHAR ch-33
ENCODING 33
SWIDTH 1000 0
DWIDTH 24 0
BBX 24 24 0 -3
BITMAP
040000
074030
067ff8
0e6030
0c6030
1c6030
187ff0
380600
58060c
9bfffe
180e80
181e60
183638
18c61f
1b0606
180600
001800
001830
1ffff8
001800
001800
001806
ffffff
000000
ENDCHAR
STARTCHAR ch-36
ENCODING 36
SWIDTH 1000 0
DWIDTH 24 0
BBX 24 24 0 -3
BITMAP
0e1018
0c1ffc
0c1818
0c1818
0c1818
0c1ff8
0d9818
ffd818
0c1818
0c1ff8
0c0000
0c0006
0dffff
0c0180
0c2180
0c3980
0f318c
fc31fe
703180
406980
006580
00c380
0180ff
06003e
ENDCHAR
STARTCHAR ch-42
ENCODING 42
SWIDTH 1000 0
DWIDTH 24 0
BBX 24 24 0 -3
BITMAP
001c70
1c1860
181864
18fffe
181860
181860
1b1fe0
ff9860
181860
181860
181fe0
181860
181860
181866
19ffff
186660
1b6660
fc6460
706c7c
40683c
007000
006006
007fff
006000
ENDCHAR
STARTCHAR ch-47
ENCODING 47
SWIDTH 1000 0
DWIDTH 24 0
BBX 24 24 0 -3
BITMAP
001c00
001860
0ffff0
001800
00180c
7ffffe
000000
070070
062064
7ff7fe
060060
060060
07e062
fe0fff
700000
000000
7ffffe
018300
018300
030302
070302
0e0303
3803ff
c001fe
ENDCHAR
STARTCHAR ch-48
ENCODING 48
SWIDTH 1000 0
DWIDTH 24 0
BBX 24 24 0 -3
BITMAP
008006
1cffff
18c000
18c7f8
18c618
18c618
18c7f8
ffc618
18c618
18c7f8
18c180
18c186
18dfff
18c318
18c318
19c6b0
1ec660
f8c0d8
60c18c
40ce0c
00c000
00c006
00ffff
00c000
ENDCHAR
STARTCHAR ch-49
ENCODING 49
SWIDTH 1000 0
DWIDTH 24 0
BBX 24 24 0 -3
BITMAP
07040c
0607fe
06460c
7fe60c
06060c
06060c
06163c
fffe18
208600
10e606
18c7ff
188686
011686
fffe46
06064c
06064c
064628
7fe638
060610
060638
06062c
06064f
060686
060600
ENDCHAR
STARTCHAR ch-52
ENCODING 52
SWIDTH 1000 0
DWIDTH 24 0
BBX 24 24 0 -3
BITMAP
001030
0e1ff8
0c1830
0c1830
0c1ff0
0c1830
0d9830
ffd830
0c1ff0
0c0000
0c0006
0cffff
0c1800
0d1006
0e3fff
1c4446
f88cc6
630886
401186
00210e
00c20c
00041c
0018f8
000030
ENDCHAR
STARTCHAR ch-53
ENCODING 53
SWIDTH 1000 0
DWIDTH 24 0
BBX 24 24 0 -3
BITMAP
1c0700
180608
18060e
1806dc
187ff8
1b0618
ff8630
180630
180660
1806c6
19ffff
180300
180600
190c18
1e1ffc
f83818
607818
40d818
031ff8
0c1818
001818
001818
001ff8
001818
ENDCHAR
STARTCHAR ch-58
ENCODING 58
SWIDTH 1000 0
DWIDTH 24 0
BBX 24 24 0 -3
BITMAP
1c4006
187fff
186186
186186
186186
187ffe
1b6186
ffe186
186186
187ffe
186826
180e20
181c10
181818
1b3c6c
1c6c6f
f8cc66
630c60
400c60
001860
001860
003060
006060
018060
ENDCHAR
STARTCHAR ch-61
ENCODING 61
SWIDTH 1000 0
DWIDTH 24 0
BBX 24 24 0 -3
BITMAP
000000
1c4006
187fff
186446
186446
186446
1b6446
fffffe
186006
180000
18000c
187ffe
180180
180180
187180
1f618c
fc61fe
706180
406180
006180
006180
006186
007fff
006000
ENDCHAR
STARTCHAR ch-64
ENCODING 64
SWIDTH 1000 0
DWIDTH 24 0
BBX 24 24 0 -3
BITMAP
1c4006
187fff
186006
186006
186006
187ffe
1b6408
ffe30c
186108
186010
186ffe
186318
186318
186318
196318
1e7fff
f8c318
60c318
408318
018318
010618
020618
040c18
003018
ENDCHAR
STARTCHAR ch-65
ENCODING 65
SWIDTH 1000 0
DWIDTH 24 0
BBX 24 24 0 -3
BITMAP
100018
1ffffc
181818
181818
1ffff8
181818
181818
181818
1ffff8
000020
0c0070
0380c0
018300
000000
0181c0
1e1c78
081818
001800
3ffffc
001800
001800
001806
ffffff
000000
ENDCHAR
STARTCHAR ch-74
ENCODING 74
SWIDTH 1000 0
DWIDTH 24 0
BBX 24 24 0 -3
BITMAP
000100
1c01c0
180180
184206
187fff
186186
1b6186
ffe186
187ffe
186186
186186
186186
187ffe
181190
181d98
199990
1e1994
f819a6
7031fa
4031a0
006182
00c183
0181ff
0e00fe
ENDCHAR
STARTCHAR ch-75
ENCODING 75
SWIDTH 1000 0
DWIDTH 24 0
BBX 24 24 0 -3
BITMAP
0180c0
012088
09349c
0964b0
190c80
130980
028140
066330
042218
280408
200006
7fffff
600006
c00004
c01c08
001800
001830
1ffff8
001800
001800
001800
001806
ffffff
000000
ENDCHAR
STARTCHAR ch-81
ENCODING 81
SWIDTH 1000 0
DWIDTH 24 0
BBX 24 24 0 -3
BITMAP
204106
1871ff
0c6186
0c8986
fffd86
0301fe
030186
733986
633186
6331fe
633186
7ff106
663306
060206
0c043e
18080c
301c00
c01830
1ffff8
001800
001800
001806
ffffff
000000
ENDCHAR
STARTCHAR ch-82
ENCODING 82
SWIDTH 1000 0
DWIDTH 24 0
BBX 24 24 0 -3
BITMAP
0000e0
1c00c0
1918c0
19f8cc
199ffe
1998c0
1998c0
ff98c0
1998c6
199fff
19f800
199818
19981a
199fff
199818
199a18
1f9918
f99998
71f998
419818
000018
000018
0000f8
000030
ENDCHAR
STARTCHAR ch-84
ENCODING 84
SWIDTH 1000 0
DWIDTH 24 0
BBX 24 24 0 -3
BITMAP
1c1c70
181860
181866
19ffff
181860
181860
190300
ff8700
180680
180c60
181838
18301f
186fe6
198000
180000
182018
1f3ffc
fc3018
703018
403018
003018
003ff8
003018
003018
ENDCHAR
STARTCHAR ch-87
ENCODING 87
SWIDTH 1000 0
DWIDTH 24 0
BBX 24 24 0 -3
BITMAP
100300
0c0300
060680
860c40
601838
30601f
359fe6
040300
080300
18fffc
f02300
703320
306318
30c30c
390f0c
180600
001800
001818
3ffffc
001800
001800
001806
ffffff
000000
ENDCHAR
STARTCHAR ch-88
ENCODING 88
SWIDTH 1000 0
DWIDTH 24 0
BBX 24 24 0 -3
BITMAP
1c01c0
180180
188186
18ffff
18c180
18c180
1adffc
ffc18c
18c18c
18ffff
18c18c
18c18c
18c18c
18dffc
18c000
1ac000
1cd00c
f99ffe
61980c
41180c
03180c
02180c
041ffc
00180c
ENDCHAR
STARTCHAR ch-89
ENCODING 89
SWIDTH 1000 0
DWIDTH 24 0
BBX 24 24 0 -3
BITMAP
1c0380
180300
180306
19ffff
180000
180000
1b1ff0
ff9830
181830
181ff0
180000
188006
18ffff
18c006
1ac006
1ccfe6
f8cc66
60cc66
40cc66
00cfe6
00c006
00c006
00c03e
00c00c
ENDCHAR
STARTCHAR ch-90
ENCODING 90
SWIDTH 1000 0
DWIDTH 24 0
BBX 24 24 0 -3
BITMAP
002000
1c2006
187fff
186006
18c004
18c008
180000
18ffff
ff0300
180604
180d07
18318e
18c388
1806d0
190cc0
1a19e0
1c63d0
3986d8
f00ccf
6018ce
4060c6
038180
000f80
000300
ENDCHAR
STARTCHAR ch-94
ENCODING 94
SWIDTH 1000 0
DWIDTH 24 0
BBX 24 24 0 -3
BITMAP
001c00
101800
101806
3fffff
300006
60e384
60c308
1ffffc
00c300
00c310
0ffff8
00c300
00c302
ffffff
018080
038060
071c38
0c181f
301846
c7ffe0
001800
00180c
7ffffe
000000
ENDCHAR
STARTCHAR ch-98
ENCODING 98
SWIDTH 1000 0
DWIDTH 24 0
BBX 24 24 0 -3
BITMAP
000400
1c0700
184630
187ff8
186030
186030
1b6030
ffe030
187ff0
186030
186000
18600c
187ffe
186000
186006
1f7fff
fc0086
700446
412266
013366
02330e
06300c
06007c
000018
ENDCHAR
STARTCHAR ch-105
ENCODING 105
SWIDTH 1000 0
DWIDTH 24 0
BBX 24 24 0 -3
BITMAP
002000
1c3800
18300c
187ffe
184000
188000
1a2030
ff3ff8
183030
183030
183030
183ff0
183030
180000
18800c
1afffe
1ccccc
f8cccc
70cccc
40cccc
00cccc
00cccc
07ffff
000000
ENDCHAR
STARTCHAR ch-107
ENCODING 107
SWIDTH 1000 0
DWIDTH 24 0
BBX 24 24 0 -3
BITMAP
000380
1c0300
18030c
19fffe
180300
180300
1a7ff8
ff6018
186018
187ff8
186018
186018
187ff8
186018
196018
1e7ff8
f80000
600006
43ffff
002000
003860
00701c
00c00e
030006
ENDCHAR
STARTCHAR ch-112
ENCODING 112
SWIDTH 1000 0
DWIDTH 24 0
BBX 24 24 0 -3
BITMAP
102000
0c3006
063fff
863000
606018
305ffc
329918
041918
04191a
09ffff
183118
f03118
70311a
307fff
306030
3800f0
181c60
001808
3ffffc
001800
001800
001806
ffffff
000000
ENDCHAR
STARTCHAR ch-114
ENCODING 114
SWIDTH 1000 0
DWIDTH 24 0
BBX 24 24 0 -3
BITMAP
001000
1c1c00
18180c
183ffe
183000
187ff0
18d830
ff1830
181ff0
181830
181830
181ff0
180006
19ffff
183000
1f200c
fc7ffe
70488c
40988c
03110c
00211c
00c218
000cf8
000030
ENDCHAR
STARTCHAR ch-117
ENCODING 117
SWIDTH 1000 0
DWIDTH 24 0
BBX 24 24 0 -3
BITMAP
001c00
001800
20180c
3ffffe
308200
308218
3ffffc
308218
308218
3ffff8
318300
318318
31fbe0
318304
318306
3ffbfe
3781fc
340c00
200c00
67fffc
600c00
400c06
9fffff
000000
ENDCHAR
STARTCHAR ch-121
ENCODING 121
SWIDTH 1000 0
DWIDTH 24 0
BBX 24 24 0 -3
BITMAP
03800c
031a3e
ffffe0
030300
3ff300
231306
2313ff
3ff318
231318
231318
3ff318
030218
fffe18
030418
031818
000000
001c00
001818
3ffffc
001800
001800
001806
ffffff
000000
ENDCHAR
STARTCHAR ch-126
ENCODING 126
SWIDTH 1000 0
DWIDTH 24 0
BBX 24 24 0 -3
BITMAP
0701c0
063180
fff980
000198
1fcffc
104198
104198
1fc598
000318
7ff19a
0063da
0282ca
ffe40e
730807
433003
0f0000
061c00
001818
3ffffc
001800
001800
001806
ffffff
000000
ENDCHAR
STARTCHAR ch-131
ENCODING 131
SWIDTH 1000 0
DWIDTH 24 0
BBX 24 24 0 -3
BITMAP
0001c0
1c0180
18018c
187ffe
180020
181030
180c20
ff0446
18ffff
180000
180000
183ffc
18300c
18300c
193ffc
1e300c
f8300c
603ffc
400cc0
000cc2
0018c2
0030c3
0060ff
03807e
ENDCHAR
STARTCHAR ch-133
ENCODING 133
SWIDTH 1000 0
DWIDTH 24 0
BBX 24 24 0 -3
BITMAP
20300c
3ffffe
23100c
231018
3ff120
2310c0
231046
3ff7ff
030066
033064
7ff868
030060
030060
03f860
7f83e0
3c00c0
201c00
001830
1ffff8
001800
001800
001806
ffffff
000000
ENDCHAR
STARTCHAR ch-147
ENCODING 147
SWIDTH 1000 0
DWIDTH 24 0
BBX 24 24 0 -3
BITMAP
00e380
00c306
ffffff
00c300
00c300
07ffe0
060060
060060
07ffe0
060060
060060
07ffe0
003800
003006
ffffff
00c100
018080
031c60
0c1838
33ffdf
c01806
001800
7ffffe
000000
ENDCHAR
STARTCHAR ch-151
ENCODING 151
SWIDTH 1000 0
DWIDTH 24 0
BBX 24 24 0 -3
BITMAP
002010
1c181c
180c18
180c10
184026
187fff
1b6186
ffe186
187ffe
186186
186186
186186
187ffe
180000
18200c
183ffe
1b300c
fc300c
703ffc
40300c
00300c
00300c
003ffc
00300c
ENDCHAR
STARTCHAR ch-156
ENCODING 156
SWIDTH 1000 0
DWIDTH 24 0
BBX 24 24 0 -3
BITMAP
218840
3fc460
318646
317fff
330300
320608
340d0e
32318c
3102d0
318ce0
31b1d0
3182cc
378cc7
3333c2
300180
300000
001c00
001830
1ffff8
001800
001800
001806
ffffff
000000
ENDCHAR
STARTCHAR ch-159
ENCODING 159
SWIDTH 1000 0
DWIDTH 24 0
BBX 24 24 0 -3
BITMAP
000380
1c0318
1803fc
180300
188306
18ffff
1ac60c
ffc608
18c7d0
18fe04
18c606
18c7fe
18c3fc
18c000
18c660
1ec664
f9a667
71a666
41b66c
013668
033670
020660
040666
01ffff
ENDCHAR
STARTCHAR ch-168
ENCODING 168
SWIDTH 1000 0
DWIDTH 24 0
BBX 24 24 0 -3
BITMAP
080030
0ffff8
0c1830
0c1830
0ffff0
0c1830
0c1830
0ffff0
001800
001810
1ffff8
001800
001804
7ffffe
088210
11818c
718186
601806
001810
1ffff8
001800
001806
ffffff
000000
ENDCHAR
STARTCHAR ch-171
ENCODING 171
SWIDTH 1000 0
DWIDTH 24 0
BBX 24 24 0 -3
BITMAP
002040
1c1870
1818e0
180086
18ffff
180480
1b0480
fffffc
18648c
18648c
1878fc
18600c
187ffc
18600c
18600c
187ffc
1f0030
fc0036
71ffff
400030
001830
000c30
000df0
000060
ENDCHAR
STARTCHAR ch-174
ENCODING 174
SWIDTH 1000 0
DWIDTH 24 0
BBX 24 24 0 -3
BITMAP
418200
7fc306
61bfff
630600
620dfc
641820
6267ff
630000
618ffc
618804
618ffc
678804
630ffc
600804
60083c
600818
001c00
001830
1ffff8
001800
001800
001806
ffffff
000000
ENDCHAR
STARTCHAR ch-179
ENCODING 179
SWIDTH 1000 0
DWIDTH 24 0
BBX 24 24 0 -3
BITMAP
0001c0
1c0180
183ffc
180180
180990
180810
18ffff
ff0810
180810
180000
183ffc
18300c
18300c
183ffc
18300c
1b300c
fc3ffc
70300c
40300c
003ffc
000c00
001e3c
00700f
018003
ENDCHAR
STARTCHAR ch-184
ENCODING 184
SWIDTH 1000 0
DWIDTH 24 0
BBX 24 24 0 -3
BITMAP
000e70
1c0c66
18ffff
180c60
180c60
180000
1b0388
ff830e
183ffc
180318
180332
18ffff
180180
180300
180c18
1f3ffc
fccc18
700c18
400ff8
000c18
000c18
000c18
000ff8
000c18
ENDCHAR
STARTCHAR ch-185
ENCODING 185
SWIDTH 1000 0
DWIDTH 24 0
BBX 24 24 0 -3
BITMAP
008286
1cfeff
18c286
18c286
18fefe
18c286
1ac286
ffc286
18fefe
18c006
18c006
18cfe6
18cc66
18cc66
18cc66
1fcfe6
fccc66
70cc66
40cc66
00cfe6
00c006
00c006
00c03e
00c00c
ENDCHAR
STARTCHAR ch-186
ENCODING 186
SWIDTH 1000 0
DWIDTH 24 0
BBX 24 24 0 -3
BITMAP
000400
1c0700
18460c
187ffe
18600c
18692c
1b652c
ffe54c
18610c
186fec
18610c
18638c
18634c
18652c
18692c
1f610c
fc630c
71ffff
400680
000c40
000c70
00183f
00301e
01c006
ENDCHAR
STARTCHAR ch-187
ENCODING 187
SWIDTH 1000 0
DWIDTH 24 0
BBX 24 24 0 -3
BITMAP
000380
1c030c
18fffe
180300
182310
183b1c
1b3318
ffe330
185b2c
188b44
180302
19ffff
180000
18400c
187ffe
1f600c
fc67cc
70644c
40644c
00644c
0067cc
00600c
007ffc
00600c
ENDCHAR
STARTCHAR ch-190
ENCODING 190
SWIDTH 1000 0
DWIDTH 24 0
BBX 24 24 0 -3
BITMAP
018418
03c7fc
1e0618
e84618
4677f8
32e618
138618
0d07fc
718647
028646
0cc628
71c620
06c610
18dfdc
618e0f
0f8006
031c00
001818
3ffffc
001800
001800
001806
ffffff
000000
ENDCHAR
STARTCHAR ch-193
ENCODING 193
SWIDTH 1000 0
DWIDTH 24 0
BBX 24 24 0 -3
BITMAP
1060e0
1ff0c0
1860c4
186ffe
186210
1fe318
180110
180024
1feffe
3c60c0
2c60c4
2c6ffe
4c60c0
8fe0c0
0c60c0
0c1cc0
001800
001830
1ffff8
001800
001800
001806
ffffff
000000
ENDCHAR
STARTCHAR ch-197
ENCODING 197
SWIDTH 1000 0
DWIDTH 24 0
BBX 24 24 0 -3
BITMAP
001c00
001806
ffffff
040880
061ce0
0c18cc
903ffe
647080
26b088
0c3ffc
113080
ffb088
633ffc
063080
083086
303fff
c01800
001830
1ffff8
001800
001800
001806
ffffff
000000
ENDCHAR
STARTCHAR ch-199
ENCODING 199
SWIDTH 1000 0
DWIDTH 24 0
BBX 24 24 0 -3
BITMAP
1c0380
180306
19ffff
180000
187ff8
184008
1b4fc8
ffc848
184848
184fc8
184008
187ff8
180000
183ff0
183030
193030
1e3ff0
f83030
603030
403ff0
003030
000006
03ffff
000000
ENDCHAR
STARTCHAR ch-202
ENCODING 202
SWIDTH 1000 0
DWIDTH 24 0
BBX 24 24 0 -3
BITMAP
0001c0
1c0180
180186
18ffff
180180
184186
1b7fff
ffe666
186666
186666
187ffe
180180
180186
18ffff
180704
198e87
1e1c8e
f83850
70d860
431830
0019b8
00fe1f
00700e
004006
ENDCHAR
STARTCHAR ch-204
ENCODING 204
SWIDTH 1000 0
DWIDTH 24 0
BBX 24 24 0 -3
BITMAP
000380
1c0300
18030c
18fffe
181000
181c60
ff381c
18600e
198846
187ff8
180840
180840
187ff8
180840
1e0846
f9ffff
601c88
40388c
007858
019860
0e19b0
00fe1f
00700e
004006
ENDCHAR
STARTCHAR ch-209
ENCODING 209
SWIDTH 1000 0
DWIDTH 24 0
BBX 24 24 0 -3
BITMAP
038000
03000c
23f3fe
23010c
7ffd0c
c80c8c
ccc898
1830d8
631050
06c070
0c3020
301870
dff8d8
18619f
18660e
1fe006
001c00
001830
1ffff8
001800
001800
001806
ffffff
000000
ENDCHAR
STARTCHAR ch-211
ENCODING 211
SWIDTH 1000 0
DWIDTH 24 0
BBX 24 24 0 -3
BITMAP
200006
3fffff
300000
33f008
3210ec
33f0cc
3210c0
33f0c6
3007ff
33f0a0
3210a0
33f190
321118
23f10c
62120f
621406
423000
801830
1ffff8
001800
001800
001806
ffffff
000000
ENDCHAR
STARTCHAR ch-213
ENCODING 213
SWIDTH 1000 0
DWIDTH 24 0
BBX 24 24 0 -3
BITMAP
000380
1c0306
19ffff
180000
181ff0
181830
1b1830
ff9ff0
188006
18ffff
198006
198004
183ff0
180308
180e0c
187118
1e03a0
f81cc0
70e1e0
4002d8
000ccf
0070c6
0383c0
000180
ENDCHAR
STARTCHAR ch-215
ENCODING 215
SWIDTH 1000 0
DWIDTH 24 0
BBX 24 24 0 -3
BITMAP
0001c0
1c018c
183ffe
18018c
18018c
187fff
1b018c
ff818c
183ffc
180180
180186
187fff
182448
186666
18c223
1ec003
f83ffc
70324c
40324c
00324c
00324c
00324c
01ffff
000000
ENDCHAR
STARTCHAR ch-216
ENCODING 216
SWIDTH 1000 0
DWIDTH 24 0
BBX 24 24 0 -3
BITMAP
040060
07fff0
061860
061860
07ffe0
061860
061860
07ffe0
000000
7fc3fe
444222
444222
7fc3fe
444222
444222
7fc3fe
001c00
001830
1ffff8
001800
001800
001806
ffffff
000000
ENDCHAR
STARTCHAR ch-217
ENCODING 217
SWIDTH 1000 0
DWIDTH 24 0
BBX 24 24 0 -3
BITMAP
1c01c0
188186
18ffff
18c000
18c220
18c224
1adffe
ffc220
18c222
18ffff
18c080
18c080
18cffc
18c884
18c884
1acffc
1cc884
f98884
618ffc
410000
030830
020e0c
041c06
006006
ENDCHAR
STARTCHAR ch-220
ENCODING 220
SWIDTH 1000 0
DWIDTH 24 0
BBX 24 24 0 -3
BITMAP
002008
1c3ffc
182008
183ff8
182008
1b3ff8
ff8000
187ffc
180300
188306
18ffff
198306
19bb74
180300
1e3b70
fc0000
70fffc
400000
03ffff
001800
001020
002018
01ffec
007c0c
ENDCHAR
STARTCHAR ch-222
ENCODING 222
SWIDTH 1000 0
DWIDTH 24 0
BBX 24 24 0 -3
BITMAP
000380
1c0306
19ffff
180000
187ffc
184444
1a4444
ff4444
187ffc
180300
18f33c
180300
18f33c
180300
180608
1f0f0e
fc1d1c
7038a0
40f0c0
073060
003338
01fc1f
00f00e
008006
ENDCHAR
STARTCHAR ch-223
ENCODING 223
SWIDTH 1000 0
DWIDTH 24 0
BBX 24 24 0 -3
BITMAP
070380
066306
7ff3ff
108300
0883fc
09100c
fff80c
0003fc
3fc200
2043f8
3fc200
2043f8
3fc200
2043fa
204203
21c3ff
20c1fe
001c00
001830
1ffff8
001800
001806
ffffff
000000
ENDCHAR
STARTCHAR ch-228
ENCODING 228
SWIDTH 1000 0
DWIDTH 24 0
BBX 24 24 0 -3
BITMAP
000380
1c030c
19fffe
180000
187cf8
184488
ff4488
187cf8
180840
18fffc
180840
180840
187ff8
180840
1e0846
f9ffff
601c88
40388c
007858
019860
0e19b0
00fe1f
00700e
004006
ENDCHAR
STARTCHAR ch-229
ENCODING 229
SWIDTH 1000 0
DWIDTH 24 0
BBX 24 24 0 -3
BITMAP
1c8006
18ffff
18c000
18c804
18cffe
18c884
1ac884
ffcffc
18c884
18c884
18cffc
18c080
18cffc
18c080
18ffff
1ac000
1cc926
f9b923
61b003
4100c0
031ffe
0200c0
0400c0
007fff
ENDCHAR
STARTCHAR ch-235
ENCODING 235
SWIDTH 1000 0
DWIDTH 24 0
BBX 24 24 0 -3
BITMAP
000000
001c00
001800
001800
001800
001800
001800
001800
001806
ffffff
001800
001800
001800
001800
001800
001800
001800
001800
001800
001800
001800
001818
3ffffc
000000
ENDCHAR
STARTCHAR ch-236
ENCODING 236
SWIDTH 1000 0
DWIDTH 24 0
BBX 24 24 0 -3
BITMAP
000030
0001f8
001f80
01f800
3e1800
001800
001800
001800
001800
001800
001806
ffffff
001800
001800
001800
001800
001800
001800
001800
001800
001800
001818
3ffffc
000000
ENDCHAR
STARTCHAR ch-238
ENCODING 238
SWIDTH 1000 0
DWIDTH 24 0
BBX 24 24 0 -3
BITMAP
038380
030300
030300
030300
430300
330300
1b0300
1b0300
1b0306
03ffff
030300
030300
030300
070300
1b0300
f30300
630300
430300
030300
030300
030300
03030c
037ffe
030000
ENDCHAR
STARTCHAR ch-239
ENCODING 239
SWIDTH 1000 0
DWIDTH 24 0
BBX 24 24 0 -3
BITMAP
01c1c0
398180
318180
318180
318180
318180
318180
318180
3f8186
31ffff
018180
018180
018180
ff8180
198180
198180
198180
318180
318180
618180
418180
81818c
01bffe
018000
ENDCHAR
STARTCHAR ch-240
ENCODING 240
SWIDTH 1000 0
DWIDTH 24 0
BBX 24 24 0 -3
BITMAP
001c00
001800
001806
ffffff
001800
001800
001818
3ffffc
000000
100018
1ffffc
181818
181818
181818
181818
1ffff8
180018
180000
180000
100000
300000
200000
400000
800000
ENDCHAR
STARTCHAR ch-241
ENCODING 241
SWIDTH 1000 0
DWIDTH 24 0
BBX 24 24 0 -3
BITMAP
001c00
001800
001806
ffffff
001800
001800
001818
3ffffc
000000
200000
200006
7fffff
600006
c38004
c30188
0307c0
031e00
03e008
030008
030008
03000c
03fffc
01fff8
000000
ENDCHAR
STARTCHAR ch-242
ENCODING 242
SWIDTH 1000 0
DWIDTH 24 0
BBX 24 24 0 -3
BITMAP
001c00
001800
00180c
7ffffe
001800
001800
001830
0ffff8
200000
200006
7fffff
60000c
c00008
c1c710
018600
018600
018600
018600
030602
030602
060602
0c0603
3007ff
c003fe
ENDCHAR
STARTCHAR ch-247
ENCODING 247
SWIDTH 1000 0
DWIDTH 24 0
BBX 24 24 0 -3
BITMAP
001c00
001800
00180c
7ffffe
001800
001800
0ffff0
200000
200006
7fffff
60c306
c0c304
d0c318
1ffffc
18c318
18c318
18c318
1ffff8
18c318
00c300
00c300
00c306
ffffff
000000
ENDCHAR
STARTCHAR ch-249
ENCODING 249
SWIDTH 1000 0
DWIDTH 24 0
BBX 24 24 0 -3
BITMAP
001c00
00180c
7ffffe
001800
001800
0ffff0
200000
200006
7fffff
600006
c00004
c7ffe8
000000
080030
0ffff8
0c0030
0c0030
0ffff0
020100
0181c0
00c180
00c206
ffffff
000000
ENDCHAR
STARTCHAR ch-250
ENCODING 250
SWIDTH 1000 0
DWIDTH 24 0
BBX 24 24 0 -3
BITMAP
001c00
001800
00180c
7ffffe
001800
001800
0ffff0
200000
200006
7fffff
60c306
c0c304
c8c330
0fc3f8
0c0030
0c0030
0c0030
0fc3f0
0cc330
00c300
00c300
00c306
ffffff
000000
ENDCHAR
STARTCHAR ch-251
ENCODING 251
SWIDTH 1000 0
DWIDTH 24 0
BBX 24 24 0 -3
BITMAP
1c0006
18ffff
180186
182184
183980
1831fe
1b3180
ffa980
186780
1843ff
18807e
190000
183ff8
183018
183018
193ff8
1e3018
f83018
603ff8
403018
003018
003018
0030f8
003030
ENDCHAR
STARTCHAR ch-252
ENCODING 252
SWIDTH 1000 0
DWIDTH 24 0
BBX 24 24 0 -3
BITMAP
001c00
00180c
7ffffe
001800
001800
0ffff0
200000
200006
7fffff
600006
c00004
dffff8
00c300
08c330
0fc3f8
0c0030
0c0030
0c0030
0fc3f0
00c300
00c300
00c306
ffffff
000000
ENDCHAR
STARTCHAR ch-253
ENCODING 253
SWIDTH 1000 0
DWIDTH 24 0
BBX 24 24 0 -3
BITMAP
001c00
001818
3ffffc
001800
001800
0ffff0
000006
ffffff
000006
07ffe4
001800
001800
1ffff8
000000
ffffff
000030
000030
1fdffe
18c430
18c630
18c630
1fc030
0001f0
000060
ENDCHAR
STARTCHAR ch-258
ENCODING 258
SWIDTH 1000 0
DWIDTH 24 0
BBX 24 24 0 -3
BITMAP
004000
007000
006000
00c000
00c000
018060
01fff0
030060
0680c0
0480c0
084180
106180
602300
003600
001c00
001c00
003600
006300
00c180
0180e0
030078
06003f
18001e
e00006
ENDCHAR
STARTCHAR ch-265
ENCODING 265
SWIDTH 1000 0
DWIDTH 24 0
BBX 24 24 0 -3
BITMAP
001c00
001800
001806
ffffff
00c300
10c300
1cc330
18c30c
318306
218307
430303
844000
007000
0060c0
00ffe0
0181c0
034380
0c2700
301c00
003600
00e3c0
0380ff
1e003e
e00006
ENDCHAR
STARTCHAR ch-266
ENCODING 266
SWIDTH 1000 0
DWIDTH 24 0
BBX 24 24 0 -3
BITMAP
001000
001c00
081800
083000
043000
046060
027ff0
02c060
0180c0
0100c0
038180
06c180
0c6300
303600
001c00
001c00
003600
006300
00c180
0180e0
030078
06003f
18001e
e00006
ENDCHAR
STARTCHAR ch-271
ENCODING 271
SWIDTH 1000 0
DWIDTH 24 0
BBX 24 24 0 -3
BITMAP
000006
ffffff
003000
002000
07ffe0
060060
060060
07ffe0
060060
060060
07ffe0
060060
060060
07ffe0
006000
00c0c0
01ffe0
0301c0
0c8380
706600
003c00
00e7c0
0780ff
f8001e
ENDCHAR
STARTCHAR ch-272
ENCODING 272
SWIDTH 1000 0
DWIDTH 24 0
BBX 24 24 0 -3
BITMAP
010000
038300
07ff80
0e0600
380800
cffff0
0c3030
0c6e30
0d8330
0c0030
000000
0ffff0
0c0030
0ffff0
0c0030
0ffff0
0c0030
0ffff0
00c000
03ffc0
1e4380
e03e00
01e3fe
3e003c
ENDCHAR
STARTCHAR ch-277
ENCODING 277
SWIDTH 1000 0
DWIDTH 24 0
BBX 24 24 0 -3
BITMAP
001000
001c00
001800
00380c
003ffe
00701c
00601c
00e018
01c038
03a030
071870
0c1ce0
300cc0
000dc0
000380
000700
000e00
001c00
003800
007000
00c000
038000
0e0000
300000
ENDCHAR
STARTCHAR ch-278
ENCODING 278
SWIDTH 1000 0
DWIDTH 24 0
BBX 24 24 0 -3
BITMAP
0801c0
0e0180
0c0180
0c0180
183180
1ff980
183180
103180
306180
2861c0
6461c0
46c1a0
86c1b8
01819f
01818e
030186
030180
060180
0c0180
180180
300180
600180
800180
000180
ENDCHAR
STARTCHAR ch-280
ENCODING 280
SWIDTH 1000 0
DWIDTH 24 0
BBX 24 24 0 -3
BITMAP
080000
0e0000
0c0206
0c33ff
0ffb06
183306
183306
103306
307306
286306
446306
86e306
06c306
00c306
018306
018306
030306
020306
06033e
0c030c
180300
300300
c00300
000300
ENDCHAR
STARTCHAR ch-281
ENCODING 281
SWIDTH 1000 0
DWIDTH 24 0
BBX 24 24 0 -3
BITMAP
100030
1ffff8
180030
180030
180330
1bffb0
183030
183030
182030
186330
187fb0
18c330
188230
194630
1a2430
182c32
180832
301012
30201a
30401a
20800a
63000e
400007
800003
ENDCHAR
STARTCHAR ch-282
ENCODING 282
SWIDTH 1000 0
DWIDTH 24 0
BBX 24 24 0 -3
BITMAP
002000
003800
007060
00fff0
0180e0
0341c0
0c3380
301600
000c00
003000
00c400
070700
780e0c
001ffe
00301c
006038
019070
0e0ce0
000580
000300
000c00
003000
03c000
3c0000
ENDCHAR
STARTCHAR ch-283
ENCODING 283
SWIDTH 1000 0
DWIDTH 24 0
BBX 24 24 0 -3
BITMAP
0000c0
07ffe0
0000c0
0000c0
0000c0
07ffc0
0000c0
0000c0
0000c6
ffffff
004000
007000
00e060
00fff0
0180e0
0301c0
0c8380
306700
002e00
001c00
003000
00c000
030000
1c0000
ENDCHAR
STARTCHAR ch-284
ENCODING 284
SWIDTH 1000 0
DWIDTH 24 0
BBX 24 24 0 -3
BITMAP
001c00
001800
001800
001806
ffffff
020800
038e00
030c00
060c30
061ff8
0c1830
0c1430
1c3260
2c2260
4c50c0
8c88c0
0d0d80
0c0700
0c0700
0c0dc0
0c18f0
0c307f
0c601e
0d8006
ENDCHAR
STARTCHAR ch-290
ENCODING 290
SWIDTH 1000 0
DWIDTH 24 0
BBX 24 24 0 -3
BITMAP
00e380
00c306
ffffff
00c300
00c300
000000
1ffff8
184218
184218
1ffff8
200000
200006
7fffff
606006
c0c0c4
c1ffe8
030180
068300
0c6600
306c00
003800
006000
038000
3c0000
ENDCHAR
STARTCHAR ch-293
ENCODING 293
SWIDTH 1000 0
DWIDTH 24 0
BBX 24 24 0 -3
BITMAP
406100
7ff18c
6661fe
66630c
666218
7fe598
6668b0
666060
6660c0
666180
7fe340
660c66
0600ff
0630c6
fff986
0e030c
1f04cc
1ec058
366030
263060
4630c0
860180
060300
060c00
ENDCHAR
STARTCHAR ch-295
ENCODING 295
SWIDTH 1000 0
DWIDTH 24 0
BBX 24 24 0 -3
BITMAP
001c00
001800
001800
001800
001800
001800
001800
001806
ffffff
001800
001800
003400
003400
003200
006200
006100
00c180
00c0c0
0180e0
030070
06003c
0c001f
30000e
c00004
ENDCHAR
STARTCHAR ch-297
ENCODING 297
SWIDTH 1000 0
DWIDTH 24 0
BBX 24 24 0 -3
BITMAP
000000
000006
ffffff
001800
001800
001800
001800
001800
00180c
7ffffe
001800
001800
003400
003400
003200
006200
006100
00c180
0180c0
0300e0
060078
0c003f
30001e
c0000c
ENDCHAR
STARTCHAR ch-298
ENCODING 298
SWIDTH 1000 0
DWIDTH 24 0
BBX 24 24 0 -3
BITMAP
001c00
001800
001800
001800
001800
001800
001800
001806
ffffff
001800
001800
003400
003400
003200
006200
006100
00c180
00c0c0
0190e0
030870
060c3c
0c0c1f
300c0e
c00004
ENDCHAR
STARTCHAR ch-299
ENCODING 299
SWIDTH 1000 0
DWIDTH 24 0
BBX 24 24 0 -3
BITMAP
001c00
001800
001800
001800
001818
3ffffc
001800
001800
001800
001800
001806
ffffff
003400
003400
006200
006200
00c100
00c180
0180c0
030060
060038
0c001f
30000e
c00006
ENDCHAR
STARTCHAR ch-300
ENCODING 300
SWIDTH 1000 0
DWIDTH 24 0
BBX 24 24 0 -3
BITMAP
001c00
001800
001800
001800
001830
1ffff8
001830
001830
001830
001830
001830
001836
ffffff
003400
003400
006200
006200
00c100
00c180
0180c0
030070
06003f
18001e
60000c
ENDCHAR
STARTCHAR ch-301
ENCODING 301
SWIDTH 1000 0
DWIDTH 24 0
BBX 24 24 0 -3
BITMAP
000000
000070
0003f8
007f80
3ff800
001800
001800
001800
001800
001806
ffffff
001800
003400
003400
003200
006200
006100
00c180
0180c0
0300e0
060078
0c003f
30001e
c0000c
ENDCHAR
STARTCHAR ch-302
ENCODING 302
SWIDTH 1000 0
DWIDTH 24 0
BBX 24 24 0 -3
BITMAP
001c00
001800
001800
001800
081830
0ffff8
0c1830
0c1830
0c1830
0c1830
0c1830
0c1830
0c1836
ffffff
003400
007400
006200
00e300
00c180
0180c0
030070
06003f
18001e
e00006
ENDCHAR
STARTCHAR ch-305
ENCODING 305
SWIDTH 1000 0
DWIDTH 24 0
BBX 24 24 0 -3
BITMAP
001c00
041800
071800
061800
061800
061830
07fff8
0c1800
081800
101800
201800
001806
ffffff
003400
003400
006200
006300
00c180
00c1c0
0180e0
030078
06003f
18001e
e00004
ENDCHAR
STARTCHAR ch-306
ENCODING 306
SWIDTH 1000 0
DWIDTH 24 0
BBX 24 24 0 -3
BITMAP
001c00
001800
001800
001800
001806
ffffff
003400
003200
006200
006100
00c180
0180c0
031c60
061838
0c181f
30180e
c01866
0ffff0
001800
001800
001800
001800
001800
001800
ENDCHAR
STARTCHAR ch-311
ENCODING 311
SWIDTH 1000 0
DWIDTH 24 0
BBX 24 24 0 -3
BITMAP
001c00
001800
001806
ffffff
001800
001818
3ffffc
001818
101818
1ffff8
181818
181800
181806
3fffff
303406
303206
007206
00613e
00e18c
01c0c0
038070
07003f
1c001e
e00006
ENDCHAR
STARTCHAR ch-312
ENCODING 312
SWIDTH 1000 0
DWIDTH 24 0
BBX 24 24 0 -3
BITMAP
003800
003000
003000
003006
ffffff
006400
00e200
00c300
018180
0300c0
06ff70
0c003c
30001f
cfffe6
00c000
0180c0
03ffe0
0300c0
0001c0
000180
000380
000700
007e00
001c00
ENDCHAR
STARTCHAR ch-318
ENCODING 318
SWIDTH 1000 0
DWIDTH 24 0
BBX 24 24 0 -3
BITMAP
001c00
001800
001800
001806
ffffff
001800
081840
0e1870
0c1860
0c1860
1a1850
1118c8
21988c
419906
803406
003400
006200
006300
00c180
0180c0
030070
06003f
18001e
e00006
ENDCHAR
STARTCHAR ch-324
ENCODING 324
SWIDTH 1000 0
DWIDTH 24 0
BBX 24 24 0 -3
BITMAP
002000
003800
007000
006006
ffffff
00c100
018100
039c80
0318c0
061860
0ffff8
16187f
26186e
c61866
07ffe0
061860
061860
061860
07ffe0
061864
061804
001806
001ffe
000ffc
ENDCHAR
STARTCHAR ch-327
ENCODING 327
SWIDTH 1000 0
DWIDTH 24 0
BBX 24 24 0 -3
BITMAP
001c00
001800
00180c
7ffffe
003000
006c00
006380
00c0e0
018070
0e0030
000006
ffffff
000030
081830
0ffc30
0c1830
0c1830
0c1830
0c1830
0ff830
0c1830
0c0030
0003f0
0000e0
ENDCHAR
STARTCHAR ch-328
ENCODING 328
SWIDTH 1000 0
DWIDTH 24 0
BBX 24 24 0 -3
BITMAP
003800
003000
003000
003006
ffffff
006200
00c100
00c180
0180c0
030660
06ff38
0c001f
30000e
c00066
0ffff0
001800
021800
039980
031860
061830
0c1818
18181c
60f80c
003000
ENDCHAR
STARTCHAR ch-329
ENCODING 329
SWIDTH 1000 0
DWIDTH 24 0
BBX 24 24 0 -3
BITMAP
003800
003000
003018
3ffffc
006000
006000
1ffff0
004400
00c400
00820c
7ffffe
010180
0300c0
021c60
041838
0bffdf
10180e
201806
c01830
0ffff8
001800
001800
001800
001800
ENDCHAR
STARTCHAR ch-334
ENCODING 334
SWIDTH 1000 0
DWIDTH 24 0
BBX 24 24 0 -3
BITMAP
003800
003000
00300c
7ffffe
006200
00e100
00c180
0180c0
031c70
06183c
0dffdf
301806
c01800
001818
1ffffc
000000
001c00
001860
0ffff0
001800
001800
001806
ffffff
000000
ENDCHAR
STARTCHAR ch-335
ENCODING 335
SWIDTH 1000 0
DWIDTH 24 0
BBX 24 24 0 -3
BITMAP
003800
003000
00300c
7ffffe
006000
006000
1ffff8
00c200
008200
018106
ffffff
0200c0
060060
040638
09ff1f
10300e
203066
cffff0
003000
006c00
00c3c0
0180f0
060038
380018
ENDCHAR
STARTCHAR ch-336
ENCODING 336
SWIDTH 1000 0
DWIDTH 24 0
BBX 24 24 0 -3
BITMAP
008000
00e000
01c300
03ff80
060600
0c0400
180830
6ffff8
0c6630
0c6630
0cc630
0c87f0
0d03f0
0e0030
0c3830
0c3030
0c3036
ffffff
006400
00e200
01c180
0380f0
0e007e
70001c
ENDCHAR
STARTCHAR ch-337
ENCODING 337
SWIDTH 1000 0
DWIDTH 24 0
BBX 24 24 0 -3
BITMAP
038000
030000
031806
7fffff
0300c6
0300c6
0330c6
3ff986
030186
03030c
03320c
03c47c
7f0818
380000
201800
001806
ffffff
003400
007200
00e180
01c0f0
07007f
1c001e
e00006
ENDCHAR
STARTCHAR ch-340
ENCODING 340
SWIDTH 1000 0
DWIDTH 24 0
BBX 24 24 0 -3
BITMAP
003800
003000
007000
006006
ffffff
00c100
018080
0318c0
061860
0c1838
19ff9f
301806
c01800
0398e0
0300c0
0300c6
ffffff
0300c0
0300c0
0600c0
0600c0
0c00c0
1800c0
6000c0
ENDCHAR
STARTCHAR ch-341
ENCODING 341
SWIDTH 1000 0
DWIDTH 24 0
BBX 24 24 0 -3
BITMAP
001c00
001800
001806
ffffff
006300
086300
0e6320
0c6318
18630c
10c306
20c306
418300
030300
041c00
001800
001806
ffffff
003400
006200
00e300
01c1c0
0380f0
0e007e
70001c
ENDCHAR
STARTCHAR ch-343
ENCODING 343
SWIDTH 1000 0
DWIDTH 24 0
BBX 24 24 0 -3
BITMAP
007000
006000
006006
ffffff
00c200
018100
0300c0
060070
0dffbf
31800e
c18000
01ff00
018000
018000
01ff00
018000
018006
ffffff
018000
010080
020060
3fffb0
1fc038
100018
ENDCHAR
STARTCHAR ch-344
ENCODING 344
SWIDTH 1000 0
DWIDTH 24 0
BBX 24 24 0 -3
BITMAP
0381c0
430180
330180
1b0180
1b0186
037fff
030180
030180
070180
1b0180
f3018c
633ffe
430000
031c00
001800
001806
ffffff
003400
006200
00e300
01c1c0
0380f0
0e007e
70001c
ENDCHAR
STARTCHAR ch-346
ENCODING 346
SWIDTH 1000 0
DWIDTH 24 0
BBX 24 24 0 -3
BITMAP
0000e0
0007f0
087f00
0fe000
0c1020
180c18
10440c
20600c
44c400
030700
018e00
019800
002040
004030
3ffff8
1f8018
003800
003006
ffffff
006400
00c300
0381e0
0e007e
70001c
ENDCHAR
STARTCHAR ch-352
ENCODING 352
SWIDTH 1000 0
DWIDTH 24 0
BBX 24 24 0 -3
BITMAP
020100
0181c0
00c180
00c20c
7ffffe
006600
086630
0ffff8
0c4630
0c8630
0f03f0
0c0030
0ffff0
0c0030
0c0030
0ffff0
003000
003006
ffffff
006400
00c300
0381e0
0e007e
70001c
ENDCHAR
STARTCHAR ch-354
ENCODING 354
SWIDTH 1000 0
DWIDTH 24 0
BBX 24 24 0 -3
BITMAP
003800
003000
00300c
7ffffe
006200
00e100
01c0c0
03b878
0e313f
3831ce
c3ff80
003300
00360c
7ffffe
003000
00c000
03ffc0
0d80c0
7180c0
01ffc0
0180c0
0180c0
01ffc0
0180c0
ENDCHAR
STARTCHAR ch-357
ENCODING 357
SWIDTH 1000 0
DWIDTH 24 0
BBX 24 24 0 -3
BITMAP
008000
00e000
10c018
1ffffc
180018
191d18
18d9d8
18d998
181a18
1bffd8
183818
187c18
185b18
189998
1b1998
183018
18301a
ffffff
007400
00e300
01c1c0
0380fe
0e003c
70000c
ENDCHAR
STARTCHAR ch-359
ENCODING 359
SWIDTH 1000 0
DWIDTH 24 0
BBX 24 24 0 -3
BITMAP
008000
00e000
10c018
1ffffc
180018
180718
19ff98
181918
191998
189a18
1bffd8
183818
187c18
185b18
189998
1b1998
181818
18301a
ffffff
006200
00c180
0380e0
0e007e
70001c
ENDCHAR
STARTCHAR ch-360
ENCODING 360
SWIDTH 1000 0
DWIDTH 24 0
BBX 24 24 0 -3
BITMAP
03801c
0301fe
433f84
330207
1b2186
1b1884
030838
030032
077fff
1b0830
f30430
630630
430630
0338f0
033060
003006
ffffff
006400
006200
00c180
0180e0
07007f
1c001e
e00006
ENDCHAR
STARTCHAR ch-361
ENCODING 361
SWIDTH 1000 0
DWIDTH 24 0
BBX 24 24 0 -3
BITMAP
003800
003000
00300c
7ffffe
006200
00e100
01c180
0380e0
060078
0fffff
3c000e
cc7f80
0c4080
0c4080
0c7f80
0c0000
0df9f8
0d0908
0d0908
0df9f8
0c0000
0c000c
0ffffe
0c0000
ENDCHAR
STARTCHAR ch-362
ENCODING 362
SWIDTH 1000 0
DWIDTH 24 0
BBX 24 24 0 -3
BITMAP
004000
007000
006006
ffffff
00c100
018080
030460
0dc638
31881f
c3ffe6
060800
1bffc0
620800
03ffc0
020800
03fff0
020000
0000c6
ffffff
0200c0
0180c0
00c0c0
00c7c0
000180
ENDCHAR
STARTCHAR ch-364
ENCODING 364
SWIDTH 1000 0
DWIDTH 24 0
BBX 24 24 0 -3
BITMAP
01c100
398186
3183ff
31860c
31b898
3f8460
018380
01bc38
ff8032
19bfff
198430
318630
218630
4180f0
81b860
003000
003006
ffffff
006400
00c200
018180
0300e0
0c007e
70001c
ENDCHAR
STARTCHAR ch-366
ENCODING 366
SWIDTH 1000 0
DWIDTH 24 0
BBX 24 24 0 -3
BITMAP
007000
006006
ffffff
018100
030080
068460
0cc638
31881f
c3ffe6
060800
1bffc0
620800
03ffc0
020808
03fffc
000000
0ffff0
0c1830
0c1830
0ffff0
0c1830
0c1830
0ffff0
0c0030
ENDCHAR
STARTCHAR ch-371
ENCODING 371
SWIDTH 1000 0
DWIDTH 24 0
BBX 24 24 0 -3
BITMAP
003800
003000
003000
003000
006000
006000
006006
ffffff
00c0c0
00c0c0
0180c0
018180
030180
030180
060300
078300
0c7600
0c0c00
001b80
0030e0
006038
01801c
0e000e
f00006
ENDCHAR
STARTCHAR ch-372
ENCODING 372
SWIDTH 1000 0
DWIDTH 24 0
BBX 24 24 0 -3
BITMAP
0e0000
0c000c
0c3ffe
0c040c
0c040c
0cc40c
ffe418
18c418
18c218
18c230
18c230
318360
318160
3181c0
330080
6b01c0
660140
070360
058220
0cc630
08c418
10081f
20100e
c06006
ENDCHAR
STARTCHAR ch-376
ENCODING 376
SWIDTH 1000 0
DWIDTH 24 0
BBX 24 24 0 -3
BITMAP
0e0000
0c000c
0c0ffe
0c00c0
0c00c0
0cc0c0
ffe0c0
18c0c0
18c0c0
18c0c0
18c0c6
18dfff
3180c0
3180c0
3180c0
3300c0
6b00c0
6600c0
0700c0
0d80c0
08c0c0
10c0c0
2000c0
c000c0
ENDCHAR
STARTCHAR ch-381
ENCODING 381
SWIDTH 1000 0
DWIDTH 24 0
BBX 24 24 0 -3
BITMAP
070000
06000c
061ffe
06000c
060018
066010
fff0a0
0c60c0
0c60c0
0c60c0
0c60c0
0cc0c6
18dfff
18c0c0
18c0c0
1980c0
3580c0
3300c0
0380c0
06c0c0
04e0c0
0860c0
1067c0
600180
ENDCHAR
STARTCHAR ch-385
ENCODING 385
SWIDTH 1000 0
DWIDTH 24 0
BBX 24 24 0 -3
BITMAP
0e0200
0c0380
0c0300
0c0300
0c0300
0cc606
ffe7ff
18c406
18cc06
18c806
18d206
18c186
3180c6
3180c6
3180c6
330006
6b000e
66000c
07000c
0d801c
098018
118038
2001f0
c00060
ENDCHAR
STARTCHAR ch-386
ENCODING 386
SWIDTH 1000 0
DWIDTH 24 0
BBX 24 24 0 -3
BITMAP
070000
060000
060000
060000
060206
0633ff
fffb06
0c3306
0c3306
0c6306
186306
186306
18c306
30c306
308306
6d8306
630306
038306
06c306
0c6306
0863fe
106306
200300
c00000
ENDCHAR
STARTCHAR ch-387
ENCODING 387
SWIDTH 1000 0
DWIDTH 24 0
BBX 24 24 0 -3
BITMAP
0e0000
0c000c
0c1ffe
0c000c
0c000c
0cc00c
ffe00c
18c00c
18c80c
18cffc
18cc0c
318c0c
318c00
318c00
310c00
6b0c00
660c00
070c02
058c02
0ccc02
08cc03
100fff
2007fe
c00000
ENDCHAR
STARTCHAR ch-388
ENCODING 388
SWIDTH 1000 0
DWIDTH 24 0
BBX 24 24 0 -3
BITMAP
001c00
001800
001806
ffffff
060000
060000
060000
060000
060000
07fff8
03fff8
002000
003800
007006
ffffff
00c0c0
018180
030300
0ef600
0c1f00
0039e0
00e078
03801c
3c000c
ENDCHAR
STARTCHAR ch-394
ENCODING 394
SWIDTH 1000 0
DWIDTH 24 0
BBX 24 24 0 -3
BITMAP
0e0018
0c00fc
0c0fc0
0c00c0
0c00c0
0cc0c0
ffe0c0
18c0c0
18c0c0
18c0c0
18c0c6
319fff
3180c0
3180c0
3300c0
6b00c0
6600c0
0600c0
0700c0
0d80c0
0980c0
1180cc
201ffe
c00000
ENDCHAR
STARTCHAR ch-397
ENCODING 397
SWIDTH 1000 0
DWIDTH 24 0
BBX 24 24 0 -3
BITMAP
0e0006
0c1fff
0c0318
0c0318
0c0318
0cc318
ffe318
18c318
18c318
18c31a
18dfff
18c318
318318
318318
318318
330318
6b0718
660618
070618
0d8418
08cc18
10c818
201018
c02018
ENDCHAR
STARTCHAR ch-403
ENCODING 403
SWIDTH 1000 0
DWIDTH 24 0
BBX 24 24 0 -3
BITMAP
1c00e0
1800c0
1800c0
1800c0
1800c6
19bfff
ffc0c0
3180c0
3180c0
3180cc
319ffe
33040c
63040c
630218
630318
660130
d601b0
cc00e0
0e00e0
0b01b0
1b8338
11861f
218c0e
c07006
ENDCHAR
STARTCHAR ch-406
ENCODING 406
SWIDTH 1000 0
DWIDTH 24 0
BBX 24 24 0 -3
BITMAP
0e0018
0c01fc
0c3f80
0c0180
0c0180
0cc180
ffe180
18c180
18c180
18c186
18ffff
318340
318340
318340
330340
6b0220
660620
070630
058410
0ccc18
08c81c
10100f
20200e
c0c006
ENDCHAR
STARTCHAR ch-409
ENCODING 409
SWIDTH 1000 0
DWIDTH 24 0
BBX 24 24 0 -3
BITMAP
0e00e0
0c00c0
0c00c0
0c00c0
0c00c0
0cc8d0
ffeecc
18ccc6
18ccc3
18c8c3
1998c0
3190c0
31a0c8
3300ce
3307cc
6a0198
660018
070030
058060
0cc0c0
08c180
100300
200c00
c03000
ENDCHAR
STARTCHAR ch-411
ENCODING 411
SWIDTH 1000 0
DWIDTH 24 0
BBX 24 24 0 -3
BITMAP
001c00
38180e
30180c
30180c
30180c
30180c
3ffffc
30000c
000000
000006
ffffff
000000
007000
006006
ffffff
01c0c0
0381c0
070180
0ee300
0c1e00
000f80
0039e0
01e078
3e0018
ENDCHAR
STARTCHAR ch-413
ENCODING 413
SWIDTH 1000 0
DWIDTH 24 0
BBX 24 24 0 -3
BITMAP
038380
030300
030300
430300
230600
330600
1b0606
1bffff
030c30
030c30
030c30
030c30
031860
071860
0b1860
3b18c0
f336c0
633180
4301c0
030360
030630
030c18
03181c
03600c
ENDCHAR
STARTCHAR ch-419
ENCODING 419
SWIDTH 1000 0
DWIDTH 24 0
BBX 24 24 0 -3
BITMAP
1c1c70
181860
181860
181860
181860
199860
ffd864
199867
199a66
199f6c
199868
319870
331860
331860
331860
321860
6a1860
661860
071862
0d9862
099862
107f63
20387f
c0203e
ENDCHAR
STARTCHAR ch-421
ENCODING 421
SWIDTH 1000 0
DWIDTH 24 0
BBX 24 24 0 -3
BITMAP
000060
0007f0
007e00
1fc020
002038
101030
081860
0c1840
064080
067100
006000
00c006
ffffff
018180
018180
030300
030300
06c600
063400
000f00
0019c0
006070
038038
3c0018
ENDCHAR
STARTCHAR ch-424
ENCODING 424
SWIDTH 1000 0
DWIDTH 24 0
BBX 24 24 0 -3
BITMAP
0e01c0
0c0180
0c0180
0c0180
0c0186
0cdfff
ffe300
18c300
18c300
18c30c
18c3fe
31830c
31830c
31830c
33030c
6b060c
66060c
07060c
05841c
0ccc18
08c818
101038
2021f0
c0c060
ENDCHAR
STARTCHAR ch-428
ENCODING 428
SWIDTH 1000 0
DWIDTH 24 0
BBX 24 24 0 -3
BITMAP
1c0000
180006
187fff
180300
180300
198300
ffc300
198600
198600
198600
198400
318c0c
330ffe
331e0c
33160c
6a360c
66260c
07460c
0d860c
09860c
19860c
1007fc
20060c
c0060c
ENDCHAR
STARTCHAR ch-434
ENCODING 434
SWIDTH 1000 0
DWIDTH 24 0
BBX 24 24 0 -3
BITMAP
0e0000
0c080c
0c0ffe
0c0c0c
0c0c0c
0ccc0c
ffec0c
18cc0c
18cc0c
18cffc
18cc0c
18cc0c
318c0c
318c0c
318c0c
330c0c
6b0c0c
660ffc
070c0c
0d8000
08c000
10c006
203fff
c00000
ENDCHAR
STARTCHAR ch-441
ENCODING 441
SWIDTH 1000 0
DWIDTH 24 0
BBX 24 24 0 -3
BITMAP
1c01c0
180180
180180
180180
18018c
18dffe
ffe180
18c180
18c180
18c180
18c186
30ffff
318380
3183c0
3187c0
6d05a0
638da0
02c990
06d998
04118c
08218f
104186
218180
c00180
ENDCHAR
STARTCHAR ch-443
ENCODING 443
SWIDTH 1000 0
DWIDTH 24 0
BBX 24 24 0 -3
BITMAP
001c00
001800
00180c
7ffffe
001800
001830
0ffff8
001830
001832
ffffff
001830
001830
0ffff0
002030
003800
007006
ffffff
01c0c0
038180
077300
060e00
0039e0
01c078
3e0018
ENDCHAR
STARTCHAR ch-446
ENCODING 446
SWIDTH 1000 0
DWIDTH 24 0
BBX 24 24 0 -3
BITMAP
001c00
001800
001818
3ffffc
020100
0181c0
00c180
00c300
000406
ffffff
004000
007000
006000
00c006
ffffff
018180
030180
070300
0ee600
0c1800
003780
00c0f0
070038
780018
ENDCHAR
STARTCHAR ch-454
ENCODING 454
SWIDTH 1000 0
DWIDTH 24 0
BBX 24 24 0 -3
BITMAP
0e040c
0c07fe
0c060c
0c060c
0c068c
0cc64c
ffe66c
18c66c
18c60c
18c60c
18ffff
18cc0c
318c0c
318d0c
318c8c
330ccc
6b0ccc
660c0c
070c0c
0d9fff
08d818
10c018
2000f8
c00030
ENDCHAR
STARTCHAR ch-457
ENCODING 457
SWIDTH 1000 0
DWIDTH 24 0
BBX 24 24 0 -3
BITMAP
0e00e0
0c00c0
0c00c0
0c00c6
0c1fff
0cc0c0
ffe0c0
18c0c0
18d0c6
18dfff
18d8c6
1998c6
3198c6
3198c6
3198c6
3318c6
6b18c6
6618c6
0718de
0598cc
0d80c0
0980c0
1000c0
6000c0
ENDCHAR
STARTCHAR ch-459
ENCODING 459
SWIDTH 1000 0
DWIDTH 24 0
BBX 24 24 0 -3
BITMAP
0e0080
0c00e0
0c00c0
0c00c0
0c0080
0cc180
ffe108
18c104
18c206
18dffb
18cf83
198803
318000
31840c
3187fe
33060c
6b060c
66060c
07060c
05860c
0dc60c
08c7fc
10c60c
60060c
ENDCHAR
STARTCHAR ch-464
ENCODING 464
SWIDTH 1000 0
DWIDTH 24 0
BBX 24 24 0 -3
BITMAP
0e0418
0c07fc
0c0618
0c0618
0c0618
0cc618
ffe618
18c618
18c7f8
18c618
18c618
198618
318618
318618
310618
3307f8
6a0618
660618
070618
0d8618
08c618
10c61a
203fff
c00000
ENDCHAR
STARTCHAR ch-465
ENCODING 465
SWIDTH 1000 0
DWIDTH 24 0
BBX 24 24 0 -3
BITMAP
0e00e0
0c00c0
0c00c0
0c00c0
0c00c0
0cc0c6
ffffff
18c0c0
18c0c0
18c0c0
18c0c0
1980c0
3188cc
318ffe
318c0c
330c0c
6b0c0c
660c0c
070c0c
0d8c0c
09cc0c
10cffc
20cc0c
c00c0c
ENDCHAR
STARTCHAR ch-467
ENCODING 467
SWIDTH 1000 0
DWIDTH 24 0
BBX 24 24 0 -3
BITMAP
0e00e0
0c08c0
0c0ec0
0c0cc0
0c0cc0
0d8cc0
ffcccc
198ffe
1988c0
1998c0
1990c0
19a0c0
3180c0
3300cc
331ffe
6a00c0
6600c0
0700c0
0580c0
0cc0c0
08c0c0
1000c6
207fff
c00000
ENDCHAR
STARTCHAR ch-468
ENCODING 468
SWIDTH 1000 0
DWIDTH 24 0
BBX 24 24 0 -3
BITMAP
0000f0
001ff8
3fff00
001800
001806
ffffff
007a00
00f900
01d8c0
039870
06183f
18201e
e03806
007000
006006
ffffff
00c180
01c380
038300
077600
060fc0
0038f8
01e03c
7e000c
ENDCHAR
STARTCHAR ch-473
ENCODING 473
SWIDTH 1000 0
DWIDTH 24 0
BBX 24 24 0 -3
BITMAP
1c0818
180e7c
180de0
180c60
180c60
198c60
ffd860
199860
199860
199866
19bfff
31b860
335860
331860
331860
321860
6a1860
661860
071860
0d9860
099860
10186c
201bfe
c01800
ENDCHAR
STARTCHAR ch-474
ENCODING 474
SWIDTH 1000 0
DWIDTH 24 0
BBX 24 24 0 -3
BITMAP
1c0670
180660
180660
180660
182664
199666
ffde6c
199e68
198670
198660
198660
318660
330e70
33166c
337666
322666
6a0660
660c60
070c62
0d8862
099863
10107f
20203e
c0c000
ENDCHAR
STARTCHAR ch-476
ENCODING 476
SWIDTH 1000 0
DWIDTH 24 0
BBX 24 24 0 -3
BITMAP
020100
0181c0
00c180
00c20c
7ffffe
001800
001800
1ffff8
001800
001800
001806
ffffff
003000
007000
00e006
ffffff
0380c0
0701c0
0e0380
0de700
003c00
0077e0
03c0fc
7c001c
ENDCHAR
STARTCHAR ch-485
ENCODING 485
SWIDTH 1000 0
DWIDTH 24 0
BBX 24 24 0 -3
BITMAP
1c0380
180304
180307
180336
183ffe
19830c
ffc31c
318318
318332
31ffff
318060
3300c0
630780
630708
63060e
660e1c
d63638
ccc660
0e0780
0b0602
1b8602
118603
2187ff
c003fe
ENDCHAR
STARTCHAR ch-486
ENCODING 486
SWIDTH 1000 0
DWIDTH 24 0
BBX 24 24 0 -3
BITMAP
002000
003800
00300c
7ffffe
00e180
01c380
038700
036e00
001dc0
007078
01c01c
3e000c
040100
0701c0
066186
ffffff
0c6318
18c618
38ce30
358db0
030060
06e0d8
18630e
e01c06
ENDCHAR
STARTCHAR ch-488
ENCODING 488
SWIDTH 1000 0
DWIDTH 24 0
BBX 24 24 0 -3
BITMAP
1c01c0
180180
180186
187fff
180180
19818c
ffbffe
19818c
19918c
199ffc
19998c
319980
331986
333fff
333346
320346
6a0366
66062e
070634
0d8c30
098c18
10181f
20300e
c0c006
ENDCHAR
STARTCHAR ch-490
ENCODING 490
SWIDTH 1000 0
DWIDTH 24 0
BBX 24 24 0 -3
BITMAP
1c0000
180006
187fff
180300
180300
198210
ffc208
31840c
318476
31bf86
331c06
6311c0
630180
620180
66018c
d43ffe
cc0180
0e0180
0b0180
198180
118180
200186
40ffff
800000
ENDCHAR
STARTCHAR ch-491
ENCODING 491
SWIDTH 1000 0
DWIDTH 24 0
BBX 24 24 0 -3
BITMAP
0e0000
0c1006
0c1fff
0c18c0
0c18c0
0d98c0
ffd8c0
1998cc
199ffe
19980c
19980c
31980c
33180c
33180c
331ffc
6a18cc
6618c0
0718c0
0d98c0
08d8c0
18d8c6
101fff
201800
c01800
ENDCHAR
STARTCHAR ch-502
ENCODING 502
SWIDTH 1000 0
DWIDTH 24 0
BBX 24 24 0 -3
BITMAP
0e0180
0c0180
0c0180
0c0340
0c0340
0cc220
ffe630
18c418
18cc1c
18c80f
18d026
19a7f0
318000
318000
310818
330ffc
6a0c18
660c18
070c18
0d8c18
08cc18
10cc18
200ff8
c00c18
ENDCHAR
STARTCHAR ch-507
ENCODING 507
SWIDTH 1000 0
DWIDTH 24 0
BBX 24 24 0 -3
BITMAP
1c2006
183fff
183006
1831c6
183186
1b3186
ffb186
3331b6
333ffe
333186
333186
333186
333186
623146
663366
663326
743226
6c3636
0e3436
0b3836
19b006
11b006
203ffe
c03006
ENDCHAR
STARTCHAR ch-511
ENCODING 511
SWIDTH 1000 0
DWIDTH 24 0
BBX 24 24 0 -3
BITMAP
002000
203800
18300c
0c3ffe
0e660c
064608
008610
000d00
018c80
0e1860
f8303f
70c01e
430006
007000
006006
ffffff
01c180
038180
070300
0ef600
0c0f80
0039e0
01e078
7e0018
ENDCHAR
ENDFONT
