STARTFONT 2.1
FONT jis.katakana.16
SIZE 16 72 72
FONTBOUNDINGBOX 16 16 0 -2
STARTPROPERTIES 4
FONT_DESCENT 2
FONT_ASCENT 14
DEFAULT_CHAR 0
COPYRIGHT "Copyright (c) 1992 AT&T - All rights reserved."
ENDPROPERTIES
CHARS 90
STARTCHAR ch-0
ENCODING 0
SWIDTH 1000 0
DWIDTH 16 0
BBX 16 16 0 -2
BITMAP
0000
0000
0000
0000
0000
0000
1ffc
000c
0118
0130
0100
0100
0300
0200
0600
0c00
ENDCHAR
STARTCHAR ch-1
ENCODING 1
SWIDTH 1000 0
DWIDTH 16 0
BBX 16 16 0 -2
BITMAP
0000
0000
7ffe
0006
010c
0118
0130
0100
0100
0100
0300
0200
0600
0c00
3800
0000
ENDCHAR
STARTCHAR ch-2
ENCODING 2
SWIDTH 1000 0
DWIDTH 16 0
BBX 16 16 0 -2
BITMAP
0000
0000
0000
0000
0000
0008
0018
0030
00e0
0380
1e80
0080
0080
0080
0080
0080
ENDCHAR
STARTCHAR ch-3
ENCODING 3
SWIDTH 1000 0
DWIDTH 16 0
BBX 16 16 0 -2
BITMAP
0000
0004
000c
0018
0030
00e0
0380
0e80
7880
0080
0080
0080
0080
0080
0080
0000
ENDCHAR
STARTCHAR ch-4
ENCODING 4
SWIDTH 1000 0
DWIDTH 16 0
BBX 16 16 0 -2
BITMAP
0000
0000
0000
0000
0000
0100
0100
1ff8
1008
1008
0018
0010
0030
0060
01c0
0700
ENDCHAR
STARTCHAR ch-5
ENCODING 5
SWIDTH 1000 0
DWIDTH 16 0
BBX 16 16 0 -2
BITMAP
0100
0100
0100
3ffc
2004
2004
2004
2004
000c
0008
0018
0030
0060
01c0
0700
0000
ENDCHAR
STARTCHAR ch-6
ENCODING 6
SWIDTH 1000 0
DWIDTH 16 0
BBX 16 16 0 -2
BITMAP
0000
0000
0000
0000
0000
0000
0000
0ff0
0100
0100
0100
0100
0100
0100
1ff8
0000
ENDCHAR
STARTCHAR ch-7
ENCODING 7
SWIDTH 1000 0
DWIDTH 16 0
BBX 16 16 0 -2
BITMAP
0000
0000
0000
3ffc
0100
0100
0100
0100
0100
0100
0100
0100
7ffe
0000
0000
0000
ENDCHAR
STARTCHAR ch-8
ENCODING 8
SWIDTH 1000 0
DWIDTH 16 0
BBX 16 16 0 -2
BITMAP
0000
0000
0000
0000
0000
0040
0040
0040
1ffc
0140
0340
0640
0c40
3840
0040
01c0
ENDCHAR
STARTCHAR ch-9
ENCODING 9
SWIDTH 1000 0
DWIDTH 16 0
BBX 16 16 0 -2
BITMAP
0040
0040
0040
0040
7ffe
0140
0340
0240
0640
0c40
1840
3040
6040
0040
01c0
0000
ENDCHAR
STARTCHAR ch-10
ENCODING 10
SWIDTH 1000 0
DWIDTH 16 0
BBX 16 16 0 -2
BITMAP
0100
0100
0100
0100
3ffc
0104
0104
0304
0204
0204
0604
040c
0c08
1808
3078
0000
ENDCHAR
STARTCHAR ch-11
ENCODING 11
SWIDTH 1000 0
DWIDTH 16 0
BBX 16 16 0 -2
BITMAP
0105
0105
0100
0100
3ffc
0104
0104
0304
0204
0204
0604
040c
0c08
1808
3078
0000
ENDCHAR
STARTCHAR ch-12
ENCODING 12
SWIDTH 1000 0
DWIDTH 16 0
BBX 16 16 0 -2
BITMAP
0400
0400
0600
0238
03e0
0f00
7900
011e
01f0
0780
3c80
00c0
0040
0040
0060
0020
ENDCHAR
STARTCHAR ch-13
ENCODING 13
SWIDTH 1000 0
DWIDTH 16 0
BBX 16 16 0 -2
BITMAP
0405
0405
0600
0238
03e0
0f00
7900
011e
01f0
0780
3c80
00c0
0040
0040
0060
0020
ENDCHAR
STARTCHAR ch-14
ENCODING 14
SWIDTH 1000 0
DWIDTH 16 0
BBX 16 16 0 -2
BITMAP
0100
0100
0100
03f8
0208
0608
0c18
1810
0030
0020
0060
00c0
0180
0700
1c00
0000
ENDCHAR
STARTCHAR ch-15
ENCODING 15
SWIDTH 1000 0
DWIDTH 16 0
BBX 16 16 0 -2
BITMAP
0105
0105
0100
03f8
0208
0608
0c18
1810
0030
0020
0060
00c0
0180
0700
1c00
0000
ENDCHAR
STARTCHAR ch-16
ENCODING 16
SWIDTH 1000 0
DWIDTH 16 0
BBX 16 16 0 -2
BITMAP
0400
0400
0c00
0800
1ffe
1020
3020
6020
0020
0060
0040
00c0
0180
0300
0e00
0000
ENDCHAR
STARTCHAR ch-17
ENCODING 17
SWIDTH 1000 0
DWIDTH 16 0
BBX 16 16 0 -2
BITMAP
0405
0405
0c00
0800
1ffe
1020
3020
6020
0020
0060
0040
00c0
0180
0300
0e00
0000
ENDCHAR
STARTCHAR ch-18
ENCODING 18
SWIDTH 1000 0
DWIDTH 16 0
BBX 16 16 0 -2
BITMAP
0000
0000
0000
3ffc
0004
0004
0004
0004
0004
0004
0004
0004
0004
3ffc
0000
0000
ENDCHAR
STARTCHAR ch-19
ENCODING 19
SWIDTH 1000 0
DWIDTH 16 0
BBX 16 16 0 -2
BITMAP
0005
0005
0000
3ffc
0004
0004
0004
0004
0004
0004
0004
0004
0004
3ffc
0000
0000
ENDCHAR
STARTCHAR ch-20
ENCODING 20
SWIDTH 1000 0
DWIDTH 16 0
BBX 16 16 0 -2
BITMAP
0000
0810
0810
0810
ffff
0810
0810
0810
0810
0030
0020
0060
00c0
0180
0700
0000
ENDCHAR
STARTCHAR ch-21
ENCODING 21
SWIDTH 1000 0
DWIDTH 16 0
BBX 16 16 0 -2
BITMAP
0005
0815
0810
0810
ffff
0810
0810
0810
0810
0030
0020
0060
00c0
0180
0700
0000
ENDCHAR
STARTCHAR ch-22
ENCODING 22
SWIDTH 1000 0
DWIDTH 16 0
BBX 16 16 0 -2
BITMAP
0000
0000
0c00
0600
0200
0000
3002
1806
080c
0018
0030
0060
01c0
0700
3c00
0000
ENDCHAR
STARTCHAR ch-23
ENCODING 23
SWIDTH 1000 0
DWIDTH 16 0
BBX 16 16 0 -2
BITMAP
0000
000a
0c0a
0600
0200
0000
3002
1806
080c
0018
0030
0060
01c0
0700
3c00
0000
ENDCHAR
STARTCHAR ch-24
ENCODING 24
SWIDTH 1000 0
DWIDTH 16 0
BBX 16 16 0 -2
BITMAP
0000
0000
3ff0
0010
0010
0030
0020
0060
00c0
01c0
0360
0630
0c18
180c
7006
0000
ENDCHAR
STARTCHAR ch-25
ENCODING 25
SWIDTH 1000 0
DWIDTH 16 0
BBX 16 16 0 -2
BITMAP
0005
0005
3ff0
0010
0010
0030
0020
0060
00c0
01c0
0360
0630
0c18
180c
7006
0000
ENDCHAR
STARTCHAR ch-26
ENCODING 26
SWIDTH 1000 0
DWIDTH 16 0
BBX 16 16 0 -2
BITMAP
0000
0800
0800
0800
08fc
0f8c
f818
0830
0800
0800
0800
0800
0c00
07fc
0000
0000
ENDCHAR
STARTCHAR ch-27
ENCODING 27
SWIDTH 1000 0
DWIDTH 16 0
BBX 16 16 0 -2
BITMAP
0005
0805
0800
0800
08fc
0f8c
f818
0830
0800
0800
0800
0800
0c00
07fc
0000
0000
ENDCHAR
STARTCHAR ch-28
ENCODING 28
SWIDTH 1000 0
DWIDTH 16 0
BBX 16 16 0 -2
BITMAP
0000
0000
2004
3004
1004
1804
080c
0008
0018
0010
0030
0060
00c0
0380
0e00
0000
ENDCHAR
STARTCHAR ch-29
ENCODING 29
SWIDTH 1000 0
DWIDTH 16 0
BBX 16 16 0 -2
BITMAP
0005
0005
2000
3008
1008
1808
0818
0010
0030
0020
0060
00c0
0180
0700
1c00
0000
ENDCHAR
STARTCHAR ch-30
ENCODING 30
SWIDTH 1000 0
DWIDTH 16 0
BBX 16 16 0 -2
BITMAP
0100
0100
0100
03fc
0204
060c
0d88
18d8
0050
0030
0060
00c0
0180
0700
1c00
0000
ENDCHAR
STARTCHAR ch-31
ENCODING 31
SWIDTH 1000 0
DWIDTH 16 0
BBX 16 16 0 -2
BITMAP
0205
0205
0200
07f8
0408
0c18
1b10
31b0
00a0
0060
00c0
0180
0300
0e00
3800
0000
ENDCHAR
STARTCHAR ch-32
ENCODING 32
SWIDTH 1000 0
DWIDTH 16 0
BBX 16 16 0 -2
BITMAP
0000
0018
00f0
1f80
0080
0080
0080
7ffe
0080
0080
0180
0100
0300
0600
1c00
0000
ENDCHAR
STARTCHAR ch-33
ENCODING 33
SWIDTH 1000 0
DWIDTH 16 0
BBX 16 16 0 -2
BITMAP
0005
0035
00e0
1f80
0080
0080
0080
7ffe
0080
0080
0180
0100
0300
0600
1c00
0000
ENDCHAR
STARTCHAR ch-34
ENCODING 34
SWIDTH 1000 0
DWIDTH 16 0
BBX 16 16 0 -2
BITMAP
0000
0000
0000
0000
0000
0000
0200
1308
1908
0818
0010
0030
0060
00c0
0180
0700
ENDCHAR
STARTCHAR ch-35
ENCODING 35
SWIDTH 1000 0
DWIDTH 16 0
BBX 16 16 0 -2
BITMAP
0000
0000
0400
4602
6202
2306
3104
100c
0008
0018
0030
0060
00c0
0380
0e00
0000
ENDCHAR
STARTCHAR ch-36
ENCODING 36
SWIDTH 1000 0
DWIDTH 16 0
BBX 16 16 0 -2
BITMAP
0005
0005
0400
4604
6204
2304
310c
1008
0018
0010
0030
0060
00c0
0380
0e00
0000
ENDCHAR
STARTCHAR ch-37
ENCODING 37
SWIDTH 1000 0
DWIDTH 16 0
BBX 16 16 0 -2
BITMAP
0000
0000
3ffc
0000
0000
0000
7ffe
0080
0080
0080
0180
0100
0300
0600
1c00
0000
ENDCHAR
STARTCHAR ch-38
ENCODING 38
SWIDTH 1000 0
DWIDTH 16 0
BBX 16 16 0 -2
BITMAP
0005
0005
3ff8
0000
0000
0000
7ffc
0080
0080
0080
0180
0100
0300
0600
1c00
0000
ENDCHAR
STARTCHAR ch-39
ENCODING 39
SWIDTH 1000 0
DWIDTH 16 0
BBX 16 16 0 -2
BITMAP
0000
0200
0200
0200
0200
0200
03c0
0270
021c
0200
0200
0200
0200
0200
0200
0000
ENDCHAR
STARTCHAR ch-40
ENCODING 40
SWIDTH 1000 0
DWIDTH 16 0
BBX 16 16 0 -2
BITMAP
0000
020a
020a
0200
0200
0200
03c0
0270
021c
0200
0200
0200
0200
0200
0200
0000
ENDCHAR
STARTCHAR ch-41
ENCODING 41
SWIDTH 1000 0
DWIDTH 16 0
BBX 16 16 0 -2
BITMAP
0000
0080
0080
0080
0080
7ffe
0080
0080
0080
0080
0180
0100
0300
0600
1c00
0000
ENDCHAR
STARTCHAR ch-42
ENCODING 42
SWIDTH 1000 0
DWIDTH 16 0
BBX 16 16 0 -2
BITMAP
0000
0000
0000
0000
1ff8
0000
0000
0000
0000
0000
0000
0000
7ffe
0000
0000
0000
ENDCHAR
STARTCHAR ch-43
ENCODING 43
SWIDTH 1000 0
DWIDTH 16 0
BBX 16 16 0 -2
BITMAP
0000
0000
1ff8
0008
0018
0010
0c30
0760
01c0
00e0
01b0
0318
0608
0c00
3800
0000
ENDCHAR
STARTCHAR ch-44
ENCODING 44
SWIDTH 1000 0
DWIDTH 16 0
BBX 16 16 0 -2
BITMAP
0100
0100
0100
3ff8
0030
0060
00c0
0180
0730
1d1c
7106
0100
0100
0100
0100
0000
ENDCHAR
STARTCHAR ch-45
ENCODING 45
SWIDTH 1000 0
DWIDTH 16 0
BBX 16 16 0 -2
BITMAP
0000
0000
0008
0008
0018
0010
0030
0060
0040
00c0
0180
0300
0600
0c00
3800
0000
ENDCHAR
STARTCHAR ch-46
ENCODING 46
SWIDTH 1000 0
DWIDTH 16 0
BBX 16 16 0 -2
BITMAP
0000
0000
0000
0420
0430
0410
0c18
0808
080c
0804
1804
1006
3002
6002
0000
0000
ENDCHAR
STARTCHAR ch-47
ENCODING 47
SWIDTH 1000 0
DWIDTH 16 0
BBX 16 16 0 -2
BITMAP
0005
0005
0000
0420
0430
0410
0c18
0808
080c
0804
1804
1006
3002
6002
0000
0000
ENDCHAR
STARTCHAR ch-48
ENCODING 48
SWIDTH 1000 0
DWIDTH 16 0
BBX 16 16 0 -2
BITMAP
0000
0000
0006
0849
0869
0826
1830
1010
1018
1008
3008
200c
6004
c004
0000
0000
ENDCHAR
STARTCHAR ch-49
ENCODING 49
SWIDTH 1000 0
DWIDTH 16 0
BBX 16 16 0 -2
BITMAP
0000
1000
1000
1000
1018
10f0
1f80
1000
1000
1000
1000
1000
1800
0ffc
0000
0000
ENDCHAR
STARTCHAR ch-50
ENCODING 50
SWIDTH 1000 0
DWIDTH 16 0
BBX 16 16 0 -2
BITMAP
0005
1005
1000
1000
1018
10f0
1f80
1000
1000
1000
1000
1000
1800
0ffc
0000
0000
ENDCHAR
STARTCHAR ch-51
ENCODING 51
SWIDTH 1000 0
DWIDTH 16 0
BBX 16 16 0 -2
BITMAP
0000
2000
2006
2009
2069
23c6
3e00
2000
2000
2000
2000
2000
3000
1ff8
0000
0000
ENDCHAR
STARTCHAR ch-52
ENCODING 52
SWIDTH 1000 0
DWIDTH 16 0
BBX 16 16 0 -2
BITMAP
0000
0000
3ffc
0004
000c
0008
0018
0010
0030
0060
00c0
0180
0700
1c00
0000
0000
ENDCHAR
STARTCHAR ch-53
ENCODING 53
SWIDTH 1000 0
DWIDTH 16 0
BBX 16 16 0 -2
BITMAP
0005
0005
7ff8
0008
0018
0010
0030
0020
0060
00c0
0180
0300
0e00
3800
0000
0000
ENDCHAR
STARTCHAR ch-54
ENCODING 54
SWIDTH 1000 0
DWIDTH 16 0
BBX 16 16 0 -2
BITMAP
0000
0000
ffe6
0029
0029
0066
0040
00c0
0080
0180
0300
0600
1c00
7000
0000
0000
ENDCHAR
STARTCHAR ch-55
ENCODING 55
SWIDTH 1000 0
DWIDTH 16 0
BBX 16 16 0 -2
BITMAP
0000
0000
0000
0400
0e00
0b00
1980
10c0
3060
6030
0018
000c
0006
0000
0000
0000
ENDCHAR
STARTCHAR ch-56
ENCODING 56
SWIDTH 1000 0
DWIDTH 16 0
BBX 16 16 0 -2
BITMAP
0000
0050
0050
0400
0e00
0b00
1980
10c0
3060
6030
0018
000c
0006
0000
0000
0000
ENDCHAR
STARTCHAR ch-57
ENCODING 57
SWIDTH 1000 0
DWIDTH 16 0
BBX 16 16 0 -2
BITMAP
0000
0000
0000
0430
0e48
0b48
19b0
10c0
3060
6030
0018
000c
0006
0000
0000
0000
ENDCHAR
STARTCHAR ch-58
ENCODING 58
SWIDTH 1000 0
DWIDTH 16 0
BBX 16 16 0 -2
BITMAP
0000
0100
0100
0100
7ffe
0100
0100
0910
0918
190c
1104
3106
6102
0100
0700
0000
ENDCHAR
STARTCHAR ch-59
ENCODING 59
SWIDTH 1000 0
DWIDTH 16 0
BBX 16 16 0 -2
BITMAP
000a
010a
0100
0100
7ffe
0100
0100
0910
0918
190c
1104
3106
6102
0100
0700
0000
ENDCHAR
STARTCHAR ch-60
ENCODING 60
SWIDTH 1000 0
DWIDTH 16 0
BBX 16 16 0 -2
BITMAP
0000
0100
0106
0109
7ff9
0106
0100
0920
0930
1918
1108
310c
6104
0100
0700
0000
ENDCHAR
STARTCHAR ch-61
ENCODING 61
SWIDTH 1000 0
DWIDTH 16 0
BBX 16 16 0 -2
BITMAP
0000
0000
0000
7ffe
000c
0018
0030
0c60
06c0
0380
0180
00c0
0060
0020
0000
0000
ENDCHAR
STARTCHAR ch-62
ENCODING 62
SWIDTH 1000 0
DWIDTH 16 0
BBX 16 16 0 -2
BITMAP
0000
0700
01e0
0030
0000
0000
0700
01c0
0060
0000
0000
0e00
0380
00e0
0030
0000
ENDCHAR
STARTCHAR ch-63
ENCODING 63
SWIDTH 1000 0
DWIDTH 16 0
BBX 16 16 0 -2
BITMAP
0000
0100
0100
0300
0200
0200
0600
0410
0410
0c18
0808
08fc
1f84
7006
0000
0000
ENDCHAR
STARTCHAR ch-64
ENCODING 64
SWIDTH 1000 0
DWIDTH 16 0
BBX 16 16 0 -2
BITMAP
0000
0008
0008
0018
0010
0c30
0760
01c0
00e0
01b0
0318
0608
0c00
1800
7000
0000
ENDCHAR
STARTCHAR ch-65
ENCODING 65
SWIDTH 1000 0
DWIDTH 16 0
BBX 16 16 0 -2
BITMAP
0000
0000
3ff8
0200
0200
0200
0200
7ffc
0200
0200
0200
0200
0300
01fc
0000
0000
ENDCHAR
STARTCHAR ch-66
ENCODING 66
SWIDTH 1000 0
DWIDTH 16 0
BBX 16 16 0 -2
BITMAP
0000
0000
0000
0000
0000
0400
0600
023c
03e4
0f0c
3908
0180
0080
00c0
0040
0040
ENDCHAR
STARTCHAR ch-67
ENCODING 67
SWIDTH 1000 0
DWIDTH 16 0
BBX 16 16 0 -2
BITMAP
0000
0800
0c00
041e
05f2
1f06
f20c
0308
0100
0180
0080
0080
00c0
0040
0040
0000
ENDCHAR
STARTCHAR ch-68
ENCODING 68
SWIDTH 1000 0
DWIDTH 16 0
BBX 16 16 0 -2
BITMAP
0000
0000
0000
0000
0000
0000
0000
0fc0
0040
0040
0040
0040
0040
0040
1ff8
0000
ENDCHAR
STARTCHAR ch-69
ENCODING 69
SWIDTH 1000 0
DWIDTH 16 0
BBX 16 16 0 -2
BITMAP
0000
0000
0000
1fe0
0020
0020
0020
0020
0020
0020
0020
0020
7ffe
0000
0000
0000
ENDCHAR
STARTCHAR ch-70
ENCODING 70
SWIDTH 1000 0
DWIDTH 16 0
BBX 16 16 0 -2
BITMAP
0000
0000
0000
0000
0000
0000
0ff0
0010
0010
0010
0ff0
0010
0010
0010
0ff0
0000
ENDCHAR
STARTCHAR ch-71
ENCODING 71
SWIDTH 1000 0
DWIDTH 16 0
BBX 16 16 0 -2
BITMAP
0000
0000
1ff8
0008
0008
0008
0008
1ff8
0008
0008
0008
0008
0008
1ff8
0000
0000
ENDCHAR
STARTCHAR ch-72
ENCODING 72
SWIDTH 1000 0
DWIDTH 16 0
BBX 16 16 0 -2
BITMAP
0000
0000
1ff8
0000
0000
0000
3ffc
0004
000c
0008
0018
0030
0060
01c0
0f00
0000
ENDCHAR
STARTCHAR ch-73
ENCODING 73
SWIDTH 1000 0
DWIDTH 16 0
BBX 16 16 0 -2
BITMAP
0000
0808
0808
0808
0808
0808
0808
0808
0808
0008
0018
0010
0030
0060
01c0
0000
ENDCHAR
STARTCHAR ch-74
ENCODING 74
SWIDTH 1000 0
DWIDTH 16 0
BBX 16 16 0 -2
BITMAP
0000
0040
0840
0840
0840
0840
0840
0841
0843
0846
184c
1058
3070
6060
0000
0000
ENDCHAR
STARTCHAR ch-75
ENCODING 75
SWIDTH 1000 0
DWIDTH 16 0
BBX 16 16 0 -2
BITMAP
0000
0000
0800
0800
0800
0800
0800
0802
0806
080c
0818
0870
09c0
0f00
0000
0000
ENDCHAR
STARTCHAR ch-76
ENCODING 76
SWIDTH 1000 0
DWIDTH 16 0
BBX 16 16 0 -2
BITMAP
0000
0000
0000
1ff8
1008
1008
1008
1008
1008
1008
1008
1008
1ff8
0000
0000
0000
ENDCHAR
STARTCHAR ch-77
ENCODING 77
SWIDTH 1000 0
DWIDTH 16 0
BBX 16 16 0 -2
BITMAP
0000
0000
0000
0000
0000
0000
1ff8
1008
1008
1008
0018
0010
0030
0060
01c0
0700
ENDCHAR
STARTCHAR ch-78
ENCODING 78
SWIDTH 1000 0
DWIDTH 16 0
BBX 16 16 0 -2
BITMAP
0000
0000
3ffc
2004
2004
2004
0004
000c
0008
0018
0030
0060
01c0
0700
0000
0000
ENDCHAR
STARTCHAR ch-79
ENCODING 79
SWIDTH 1000 0
DWIDTH 16 0
BBX 16 16 0 -2
BITMAP
0000
0040
0040
0040
3ffc
0840
0840
0840
0840
0840
7ffe
0040
0040
0040
0040
0000
ENDCHAR
STARTCHAR ch-80
ENCODING 80
SWIDTH 1000 0
DWIDTH 16 0
BBX 16 16 0 -2
BITMAP
0000
0000
0000
3ffc
000c
0018
0130
0100
0100
0100
0100
0100
7ffe
0000
0000
0000
ENDCHAR
STARTCHAR ch-81
ENCODING 81
SWIDTH 1000 0
DWIDTH 16 0
BBX 16 16 0 -2
BITMAP
0000
0000
1ffc
0004
0004
0004
1ffc
0008
0018
0030
0060
00c0
0380
0e00
0000
0000
ENDCHAR
STARTCHAR ch-82
ENCODING 82
SWIDTH 1000 0
DWIDTH 16 0
BBX 16 16 0 -2
BITMAP
0000
0000
3000
1c00
0600
0002
0006
000c
0018
0030
0060
01c0
0700
3c00
0000
0000
ENDCHAR
STARTCHAR ch-83
ENCODING 83
SWIDTH 1000 0
DWIDTH 16 0
BBX 16 16 0 -2
BITMAP
0105
0105
0100
3ffc
2004
2004
2004
2004
000c
0008
0018
0030
0060
01c0
0700
0000
ENDCHAR
STARTCHAR ch-84
ENCODING 84
SWIDTH 1000 0
DWIDTH 16 0
BBX 16 16 0 -2
BITMAP
0000
0000
0000
0000
0000
0100
0100
0100
1ff8
0108
0108
0308
0208
0618
0c10
1870
ENDCHAR
STARTCHAR ch-85
ENCODING 85
SWIDTH 1000 0
DWIDTH 16 0
BBX 16 16 0 -2
BITMAP
0000
0000
0000
0000
0000
0400
0400
0400
0ffc
0820
1820
3060
0040
00c0
0180
0300
ENDCHAR
STARTCHAR ch-90
ENCODING 90
SWIDTH 1000 0
DWIDTH 16 0
BBX 16 16 0 -2
BITMAP
0000
0000
0000
0000
0000
0000
0000
0180
0180
0000
0000
0000
0000
0000
0000
0000
ENDCHAR
STARTCHAR ch-91
ENCODING 91
SWIDTH 1000 0
DWIDTH 16 0
BBX 16 16 0 -2
BITMAP
0000
0000
0000
0000
0000
0000
4000
3ffe
0000
0000
0000
0000
0000
0000
0000
0000
ENDCHAR
STARTCHAR ch-92
ENCODING 92
SWIDTH 1000 0
DWIDTH 16 0
BBX 16 16 0 -2
BITMAP
0000
0000
0000
0000
0600
0300
0180
00c0
0060
0020
0030
0010
0000
0000
0000
0000
ENDCHAR
STARTCHAR ch-93
ENCODING 93
SWIDTH 1000 0
DWIDTH 16 0
BBX 16 16 0 -2
BITMAP
0000
0000
0000
0050
0c50
0600
0300
0180
00c0
0040
0060
0020
0000
0000
0000
0000
ENDCHAR
ENDFONT
