STARTFONT 2.1
FONT jis.jis9e00.16
SIZE 16 72 72
FONTBOUNDINGBOX 16 16 0 -2
STARTPROPERTIES 4
FONT_DESCENT 2
FONT_ASCENT 14
DEFAULT_CHAR 26
COPYRIGHT "Copyright (c) 1992 AT&T - All rights reserved."
ENDPROPERTIES
CHARS 89
STARTCHAR ch-26
ENCODING 26
SWIDTH 1000 0
DWIDTH 16 0
BBX 16 16 0 -2
BITMAP
0008
7710
553e
7722
553e
7722
553e
7720
88bf
1020
ffbf
2201
4255
7455
0e43
7306
ENDCHAR
STARTCHAR ch-27
ENCODING 27
SWIDTH 1000 0
DWIDTH 16 0
BBX 16 16 0 -2
BITMAP
2208
ff90
227e
7742
557e
7742
007e
2440
7f7f
c840
7e7f
4801
7e55
48d5
7f83
0006
ENDCHAR
STARTCHAR ch-30
ENCODING 30
SWIDTH 1000 0
DWIDTH 16 0
BBX 16 16 0 -2
BITMAP
2104
47e8
d01a
23c4
4809
fbdf
2244
bbdd
a105
1ff0
1010
1fff
1000
5ffe
c922
8496
ENDCHAR
STARTCHAR ch-117
ENCODING 117
SWIDTH 1000 0
DWIDTH 16 0
BBX 16 16 0 -2
BITMAP
0100
0100
01ff
0100
0100
3ffc
2104
2084
2424
3244
2994
224c
2424
2104
2084
3ffc
ENDCHAR
STARTCHAR ch-120
ENCODING 120
SWIDTH 1000 0
DWIDTH 16 0
BBX 16 16 0 -2
BITMAP
1010
1038
1e6c
11c7
107c
fe10
92fe
8292
aa92
9292
d6fe
9210
aa38
822c
9266
fec3
ENDCHAR
STARTCHAR ch-121
ENCODING 121
SWIDTH 1000 0
DWIDTH 16 0
BBX 16 16 0 -2
BITMAP
100a
1009
1e08
10ff
1088
fe88
92e8
8289
aaeb
92aa
d6ae
92e4
aa84
828d
9317
fe62
ENDCHAR
STARTCHAR ch-125
ENCODING 125
SWIDTH 1000 0
DWIDTH 16 0
BBX 16 16 0 -2
BITMAP
0040
7eff
4990
481e
7e10
42fe
4282
7eaa
4892
48aa
7e82
00fe
0000
3ffc
2444
ffff
ENDCHAR
STARTCHAR ch-127
ENCODING 127
SWIDTH 1000 0
DWIDTH 16 0
BBX 16 16 0 -2
BITMAP
0080
0080
3fff
2220
2220
3ffe
2222
2222
3ffe
2000
2426
27bc
6420
4421
c7b3
1c1e
ENDCHAR
STARTCHAR ch-129
ENCODING 129
SWIDTH 1000 0
DWIDTH 16 0
BBX 16 16 0 -2
BITMAP
0400
0ff0
1820
3640
e180
3fff
2220
3ffe
2222
3ffe
2000
2426
67bc
4421
c7a3
1c1e
ENDCHAR
STARTCHAR ch-136
ENCODING 136
SWIDTH 1000 0
DWIDTH 16 0
BBX 16 16 0 -2
BITMAP
0080
3fff
2220
3ffe
2222
3ffe
2820
2f3c
2821
3f3f
2080
2ffc
6080
47f8
c080
3fff
ENDCHAR
STARTCHAR ch-139
ENCODING 139
SWIDTH 1000 0
DWIDTH 16 0
BBX 16 16 0 -2
BITMAP
0080
3fff
2220
3ffe
2222
3ffe
2820
6f3c
4821
de3f
2108
1110
ffff
0520
1918
e107
ENDCHAR
STARTCHAR ch-140
ENCODING 140
SWIDTH 1000 0
DWIDTH 16 0
BBX 16 16 0 -2
BITMAP
0080
3fff
2220
3ffe
2222
3ffe
2820
6f3c
4821
cfff
2410
3ffc
0004
ffff
0810
700e
ENDCHAR
STARTCHAR ch-145
ENCODING 145
SWIDTH 1000 0
DWIDTH 16 0
BBX 16 16 0 -2
BITMAP
0080
3fff
2220
3ffe
2222
3ffe
2820
6f3c
4821
df7f
1008
1e78
1008
1ff8
0441
f83f
ENDCHAR
STARTCHAR ch-146
ENCODING 146
SWIDTH 1000 0
DWIDTH 16 0
BBX 16 16 0 -2
BITMAP
0822
0822
7f7f
5422
5422
7f3e
5522
5522
7f3e
4022
5422
5d7f
d600
9414
9d36
3363
ENDCHAR
STARTCHAR ch-147
ENCODING 147
SWIDTH 1000 0
DWIDTH 16 0
BBX 16 16 0 -2
BITMAP
0810
feff
2854
6c96
ca13
0080
3fff
2220
3ffe
2222
3ffe
2820
6f3c
4821
cfa3
381e
ENDCHAR
STARTCHAR ch-149
ENCODING 149
SWIDTH 1000 0
DWIDTH 16 0
BBX 16 16 0 -2
BITMAP
0080
3fff
2220
3ffe
2222
3ffe
2820
6f3c
4821
ffff
27c4
2104
2ff4
2544
2934
3ffc
ENDCHAR
STARTCHAR ch-151
ENCODING 151
SWIDTH 1000 0
DWIDTH 16 0
BBX 16 16 0 -2
BITMAP
fe7f
0000
7c3e
4422
542a
0100
7fff
4420
7ffe
4422
7ffe
4840
4f7c
c841
8f63
383e
ENDCHAR
STARTCHAR ch-157
ENCODING 157
SWIDTH 1000 0
DWIDTH 16 0
BBX 16 16 0 -2
BITMAP
0080
3fff
2220
3ffe
2222
3ffe
6820
4f3c
c821
3fbf
2104
3fff
2144
ff64
1124
e70c
ENDCHAR
STARTCHAR ch-159
ENCODING 159
SWIDTH 1000 0
DWIDTH 16 0
BBX 16 16 0 -2
BITMAP
1092
1054
fe10
a9ff
fe54
aad6
ab93
fe90
a8e2
a9bf
bd2a
a8aa
a86a
ba5f
eec2
8182
ENDCHAR
STARTCHAR ch-165
ENCODING 165
SWIDTH 1000 0
DWIDTH 16 0
BBX 16 16 0 -2
BITMAP
0100
0100
ffff
1108
1108
2b94
46c2
0c60
3a38
e7ef
0c20
3860
0740
01e0
0738
3c0c
ENDCHAR
STARTCHAR ch-166
ENCODING 166
SWIDTH 1000 0
DWIDTH 16 0
BBX 16 16 0 -2
BITMAP
0100
0100
7ffe
0100
3ffc
0100
ffff
0200
07f0
0c30
1860
76c0
0380
06e0
1c38
f00f
ENDCHAR
STARTCHAR ch-169
ENCODING 169
SWIDTH 1000 0
DWIDTH 16 0
BBX 16 16 0 -2
BITMAP
1010
fe10
54fe
5410
ba10
1010
39ff
5410
a210
3c38
4428
ac6c
18c6
3183
6c00
c3ff
ENDCHAR
STARTCHAR ch-170
ENCODING 170
SWIDTH 1000 0
DWIDTH 16 0
BBX 16 16 0 -2
BITMAP
1000
11ff
fe10
1010
fe9e
1092
fe92
2092
3c92
64fe
cc02
2806
1004
381c
6e00
c3ff
ENDCHAR
STARTCHAR ch-173
ENCODING 173
SWIDTH 1000 0
DWIDTH 16 0
BBX 16 16 0 -2
BITMAP
1040
1040
fe7e
10c2
fe82
11f2
fe12
2012
3cf6
6484
cc8c
2881
10c3
387e
6e00
c3ff
ENDCHAR
STARTCHAR ch-184
ENCODING 184
SWIDTH 1000 0
DWIDTH 16 0
BBX 16 16 0 -2
BITMAP
1010
1010
fefe
1010
fe10
1010
feff
2010
3c10
6438
cc28
286c
10c6
3983
6e00
c3ff
ENDCHAR
STARTCHAR ch-185
ENCODING 185
SWIDTH 1000 0
DWIDTH 16 0
BBX 16 16 0 -2
BITMAP
1080
1080
fefe
1102
feaa
10aa
fe22
20fa
3c22
6472
ccaa
2926
1004
2c1c
6700
c1ff
ENDCHAR
STARTCHAR ch-186
ENCODING 186
SWIDTH 1000 0
DWIDTH 16 0
BBX 16 16 0 -2
BITMAP
1000
11ff
fe10
1020
7cfe
10aa
feba
20aa
3caa
44ba
6caa
b8aa
10fe
3800
6e00
c3ff
ENDCHAR
STARTCHAR ch-187
ENCODING 187
SWIDTH 1000 0
DWIDTH 16 0
BBX 16 16 0 -2
BITMAP
0080
0080
7fff
4000
4208
4208
5fbf
4208
461c
471c
4aaa
4a2a
d249
8208
8208
0208
ENDCHAR
STARTCHAR ch-188
ENCODING 188
SWIDTH 1000 0
DWIDTH 16 0
BBX 16 16 0 -2
BITMAP
0080
0080
7fff
4208
5fbf
460c
4b1a
52a9
4208
4080
4110
4620
c344
8084
83fe
1e03
ENDCHAR
STARTCHAR ch-190
ENCODING 190
SWIDTH 1000 0
DWIDTH 16 0
BBX 16 16 0 -2
BITMAP
0080
7fff
4208
5fbf
460c
4b1a
52a9
4070
47c0
4080
4ff8
4080
5ffe
8081
00c3
007e
ENDCHAR
STARTCHAR ch-191
ENCODING 191
SWIDTH 1000 0
DWIDTH 16 0
BBX 16 16 0 -2
BITMAP
0080
0080
7fff
4208
5fbf
460c
4b1a
52a9
4000
4ffc
4804
4ffc
c080
9ffe
9002
1ffe
ENDCHAR
STARTCHAR ch-196
ENCODING 196
SWIDTH 1000 0
DWIDTH 16 0
BBX 16 16 0 -2
BITMAP
0420
0420
7ffe
0420
0420
ffff
0100
1ff8
1108
1108
1ff8
1108
1108
1ff8
0810
700e
ENDCHAR
STARTCHAR ch-204
ENCODING 204
SWIDTH 1000 0
DWIDTH 16 0
BBX 16 16 0 -2
BITMAP
0a40
399c
2244
399c
2244
7ffe
4422
5ffa
0420
ffff
1108
1ff8
1108
1ff8
0810
300c
ENDCHAR
STARTCHAR ch-205
ENCODING 205
SWIDTH 1000 0
DWIDTH 16 0
BBX 16 16 0 -2
BITMAP
0018
00f0
3f80
0100
ffff
0520
1918
e387
0ee0
3838
e10f
1930
07c0
1938
e107
0700
ENDCHAR
STARTCHAR ch-206
ENCODING 206
SWIDTH 1000 0
DWIDTH 16 0
BBX 16 16 0 -2
BITMAP
0220
0e20
787e
08d2
ff32
2866
6e04
c91c
0b80
06e0
1c38
f10f
1938
07c0
1d78
730e
ENDCHAR
STARTCHAR ch-207
ENCODING 207
SWIDTH 1000 0
DWIDTH 16 0
BBX 16 16 0 -2
BITMAP
0210
0e10
7810
0810
ff9f
1c10
2a10
c910
1410
227e
c942
2a42
1c42
2a42
c942
187e
ENDCHAR
STARTCHAR ch-208
ENCODING 208
SWIDTH 1000 0
DWIDTH 16 0
BBX 16 16 0 -2
BITMAP
0410
1c10
f1ff
1000
feaa
3892
54aa
9282
38fe
6c20
d7ff
5521
3929
5575
9301
3103
ENDCHAR
STARTCHAR ch-210
ENCODING 210
SWIDTH 1000 0
DWIDTH 16 0
BBX 16 16 0 -2
BITMAP
0000
3ffc
2104
2104
3ffc
2104
2104
3ffc
0100
3ffc
0100
ffff
0000
2444
6666
c223
ENDCHAR
STARTCHAR ch-212
ENCODING 212
SWIDTH 1000 0
DWIDTH 16 0
BBX 16 16 0 -2
BITMAP
0010
7f38
4928
496c
7f46
49c3
493c
7f00
0800
7f7e
0802
0f86
f804
050c
5488
9018
ENDCHAR
STARTCHAR ch-216
ENCODING 216
SWIDTH 1000 0
DWIDTH 16 0
BBX 16 16 0 -2
BITMAP
0008
7f0a
490b
4909
7f08
497f
4908
7f08
0808
7f1c
0814
0f94
f814
5536
5522
8063
ENDCHAR
STARTCHAR ch-217
ENCODING 217
SWIDTH 1000 0
DWIDTH 16 0
BBX 16 16 0 -2
BITMAP
0010
7f14
4912
7f10
49ff
4910
7f38
0828
7f2c
0864
0f46
f8c3
0000
2444
6666
c223
ENDCHAR
STARTCHAR ch-219
ENCODING 219
SWIDTH 1000 0
DWIDTH 16 0
BBX 16 16 0 -2
BITMAP
0824
1822
73ff
d020
1011
3ffd
2107
3ffc
2104
3ffc
0100
3ffc
0100
ffff
2444
c223
ENDCHAR
STARTCHAR ch-220
ENCODING 220
SWIDTH 1000 0
DWIDTH 16 0
BBX 16 16 0 -2
BITMAP
0008
7f08
4949
4949
7f49
4949
4949
7f7f
0808
7f08
0849
0f49
f849
0549
5549
907f
ENDCHAR
STARTCHAR ch-221
ENCODING 221
SWIDTH 1000 0
DWIDTH 16 0
BBX 16 16 0 -2
BITMAP
0044
7c44
54c4
5484
7daf
54a5
54e5
7c45
1045
7cc5
108d
1ca9
f1e9
0a2b
aa1a
a036
ENDCHAR
STARTCHAR ch-222
ENCODING 222
SWIDTH 1000 0
DWIDTH 16 0
BBX 16 16 0 -2
BITMAP
0008
7f08
4908
4908
7f0f
4908
4908
7f08
0808
7f3e
0822
0fa2
f822
0522
54a2
903e
ENDCHAR
STARTCHAR ch-224
ENCODING 224
SWIDTH 1000 0
DWIDTH 16 0
BBX 16 16 0 -2
BITMAP
0008
7f08
4908
497f
7f08
4908
4908
7f3e
0800
7f00
083e
0fa2
f822
0522
54a2
903e
ENDCHAR
STARTCHAR ch-229
ENCODING 229
SWIDTH 1000 0
DWIDTH 16 0
BBX 16 16 0 -2
BITMAP
0008
7f08
4908
497f
7f00
493e
4922
7f22
0822
7f3e
0808
0faa
f82a
056b
5549
9018
ENDCHAR
STARTCHAR ch-232
ENCODING 232
SWIDTH 1000 0
DWIDTH 16 0
BBX 16 16 0 -2
BITMAP
1108
7ffe
4002
4ff2
0810
0ff0
0000
1ff8
1108
1ff8
1108
7ffe
0100
ffff
2444
c223
ENDCHAR
STARTCHAR ch-239
ENCODING 239
SWIDTH 1000 0
DWIDTH 16 0
BBX 16 16 0 -2
BITMAP
0008
7f08
497f
4922
7f36
4914
497f
7f00
083e
7f22
0822
0fbe
f822
0522
54a2
903e
ENDCHAR
STARTCHAR ch-244
ENCODING 244
SWIDTH 1000 0
DWIDTH 16 0
BBX 16 16 0 -2
BITMAP
1548
3548
27c8
601f
c7d2
1572
37ca
254a
67ca
e10e
27c4
2104
2fee
200a
2aab
2aa9
ENDCHAR
STARTCHAR ch-246
ENCODING 246
SWIDTH 1000 0
DWIDTH 16 0
BBX 16 16 0 -2
BITMAP
3fff
2888
2f8a
28bf
2f88
689c
4fb6
c883
1ff8
1108
1ff8
1108
7ffe
0100
ffff
4442
ENDCHAR
STARTCHAR ch-247
ENCODING 247
SWIDTH 1000 0
DWIDTH 16 0
BBX 16 16 0 -2
BITMAP
0008
7f7f
4908
493e
7f00
497f
4955
7f7f
0822
7f3e
0822
0fbe
f822
053e
5514
9063
ENDCHAR
STARTCHAR ch-249
ENCODING 249
SWIDTH 1000 0
DWIDTH 16 0
BBX 16 16 0 -2
BITMAP
2244
324c
1248
ffff
0910
1918
310c
ffff
2104
2544
2544
2544
2544
2544
2944
211c
ENDCHAR
STARTCHAR ch-251
ENCODING 251
SWIDTH 1000 0
DWIDTH 16 0
BBX 16 16 0 -2
BITMAP
9494
d592
5510
ffbf
2a10
c990
0812
ff92
8892
aaba
aaae
aaa4
aaee
ca8a
889b
89b1
ENDCHAR
STARTCHAR ch-252
ENCODING 252
SWIDTH 1000 0
DWIDTH 16 0
BBX 16 16 0 -2
BITMAP
948a
d589
553f
ff88
2a08
c9bf
0829
ffa9
88bf
aaa9
aaa9
aabf
aaa9
caa9
88a9
89ab
ENDCHAR
STARTCHAR ch-253
ENCODING 253
SWIDTH 1000 0
DWIDTH 16 0
BBX 16 16 0 -2
BITMAP
0000
3ffc
2244
2244
3e7c
0240
7e7e
4242
4242
7e7e
4242
4242
7e7e
0201
0303
01fe
ENDCHAR
STARTCHAR ch-263
ENCODING 263
SWIDTH 1000 0
DWIDTH 16 0
BBX 16 16 0 -2
BITMAP
0810
7f3f
0864
ffac
1018
3f76
e103
3ffc
2244
7e7e
4242
7e7e
4242
7e7e
0201
03ff
ENDCHAR
STARTCHAR ch-264
ENCODING 264
SWIDTH 1000 0
DWIDTH 16 0
BBX 16 16 0 -2
BITMAP
4910
2a1f
ffb2
8896
aa9c
aab6
8983
3ffc
2244
7e7e
4242
7e7e
4242
7e7e
0201
03ff
ENDCHAR
STARTCHAR ch-270
ENCODING 270
SWIDTH 1000 0
DWIDTH 16 0
BBX 16 16 0 -2
BITMAP
0000
4ff2
4812
4ff2
4812
4ff2
4812
4ff2
4002
7e7e
0240
fe7f
2244
2244
6244
c244
ENDCHAR
STARTCHAR ch-275
ENCODING 275
SWIDTH 1000 0
DWIDTH 16 0
BBX 16 16 0 -2
BITMAP
1010
1010
feff
1010
7c10
00fe
7c42
4446
4464
7c2c
0038
4410
6438
2e6c
38c6
e183
ENDCHAR
STARTCHAR ch-277
ENCODING 277
SWIDTH 1000 0
DWIDTH 16 0
BBX 16 16 0 -2
BITMAP
0808
ff88
087f
7f08
227e
3e22
141c
ff63
0200
0ff8
7830
07c0
f93f
00c0
0f00
00f0
ENDCHAR
STARTCHAR ch-288
ENCODING 288
SWIDTH 1000 0
DWIDTH 16 0
BBX 16 16 0 -2
BITMAP
0600
7c7e
4002
7e7e
4002
7ffe
0000
2108
2948
2528
2108
2948
252c
2105
39c7
e702
ENDCHAR
STARTCHAR ch-289
ENCODING 289
SWIDTH 1000 0
DWIDTH 16 0
BBX 16 16 0 -2
BITMAP
0604
630c
3118
1010
0000
3ff8
2108
2108
3ff8
2108
2108
3ff8
210c
6105
4107
c102
ENDCHAR
STARTCHAR ch-300
ENCODING 300
SWIDTH 1000 0
DWIDTH 16 0
BBX 16 16 0 -2
BITMAP
3008
6708
4108
777f
4149
7f49
0049
497f
6d49
4949
4949
6d7f
4900
4981
6cc3
d87e
ENDCHAR
STARTCHAR ch-315
ENCODING 315
SWIDTH 1000 0
DWIDTH 16 0
BBX 16 16 0 -2
BITMAP
0200
1ff8
1008
1ff8
1008
1ff8
1008
7ffe
4102
7ffe
4102
7ffe
0810
ffff
1010
6010
ENDCHAR
STARTCHAR ch-318
ENCODING 318
SWIDTH 1000 0
DWIDTH 16 0
BBX 16 16 0 -2
BITMAP
0800
3e3e
2208
3e08
2208
3e08
2208
7f7f
4908
7f08
4908
7f08
2208
ff88
2208
4208
ENDCHAR
STARTCHAR ch-330
ENCODING 330
SWIDTH 1000 0
DWIDTH 16 0
BBX 16 16 0 -2
BITMAP
0100
0100
ffff
0440
7abe
2924
6926
d93b
0100
1008
1ff8
1008
1ff8
1008
3008
6008
ENDCHAR
STARTCHAR ch-331
ENCODING 331
SWIDTH 1000 0
DWIDTH 16 0
BBX 16 16 0 -2
BITMAP
0100
ffff
0440
fabe
2928
4924
9933
2004
3ffc
2004
3ffc
2104
2924
6924
5114
c304
ENDCHAR
STARTCHAR ch-334
ENCODING 334
SWIDTH 1000 0
DWIDTH 16 0
BBX 16 16 0 -2
BITMAP
0100
ffff
0440
7abe
2924
d933
2004
3ffc
2004
3ffc
2814
2ff4
2814
6ff4
4424
c814
ENDCHAR
STARTCHAR ch-335
ENCODING 335
SWIDTH 1000 0
DWIDTH 16 0
BBX 16 16 0 -2
BITMAP
0100
ffff
0440
7abe
2924
d933
2004
3ffc
2004
3ffc
2244
2e74
2244
6e74
4244
cff4
ENDCHAR
STARTCHAR ch-338
ENCODING 338
SWIDTH 1000 0
DWIDTH 16 0
BBX 16 16 0 -2
BITMAP
0080
1080
10fc
1080
1080
ffff
2424
2424
2a54
2004
3ffc
2424
2424
2a54
2004
3ffc
ENDCHAR
STARTCHAR ch-340
ENCODING 340
SWIDTH 1000 0
DWIDTH 16 0
BBX 16 16 0 -2
BITMAP
0820
2820
2f20
2820
2822
ffa6
413c
6b20
5d20
4920
7f20
4920
5d20
6b21
4133
7f1e
ENDCHAR
STARTCHAR ch-351
ENCODING 351
SWIDTH 1000 0
DWIDTH 16 0
BBX 16 16 0 -2
BITMAP
0800
283e
2f22
2822
2822
ffbe
4122
6b22
5d22
4922
7f3e
4922
5d22
6b22
4122
7f7f
ENDCHAR
STARTCHAR ch-352
ENCODING 352
SWIDTH 1000 0
DWIDTH 16 0
BBX 16 16 0 -2
BITMAP
0800
287f
2f11
2811
2811
ffb3
4122
6b6e
5d00
493e
7f22
4922
5d22
6b22
4122
7f3e
ENDCHAR
STARTCHAR ch-353
ENCODING 353
SWIDTH 1000 0
DWIDTH 16 0
BBX 16 16 0 -2
BITMAP
0810
2838
2f28
286c
28c6
ffbb
5500
5500
6b7e
4112
7f12
5512
5516
6b10
4110
7f10
ENDCHAR
STARTCHAR ch-354
ENCODING 354
SWIDTH 1000 0
DWIDTH 16 0
BBX 16 16 0 -2
BITMAP
0810
2838
2f28
286c
28c6
ffbb
4100
6b00
5d7e
4912
7f12
4912
5d16
6b10
4110
7f10
ENDCHAR
STARTCHAR ch-355
ENCODING 355
SWIDTH 1000 0
DWIDTH 16 0
BBX 16 16 0 -2
BITMAP
0820
2820
2f3f
2861
2841
fffd
4125
6b25
5d25
4925
7f3d
4901
5d01
6b03
4102
7f0e
ENDCHAR
STARTCHAR ch-358
ENCODING 358
SWIDTH 1000 0
DWIDTH 16 0
BBX 16 16 0 -2
BITMAP
0800
283e
2f22
2822
283e
ffa2
4122
6b3e
5d28
4929
7f2b
492e
5d24
6b26
413a
7f63
ENDCHAR
STARTCHAR ch-359
ENCODING 359
SWIDTH 1000 0
DWIDTH 16 0
BBX 16 16 0 -2
BITMAP
0800
7f7e
0812
7f12
0832
0f6e
f900
11fc
1100
ffff
2924
2544
2ff4
2544
2924
3ffc
ENDCHAR
STARTCHAR ch-362
ENCODING 362
SWIDTH 1000 0
DWIDTH 16 0
BBX 16 16 0 -2
BITMAP
0800
283e
2f22
2822
2822
ffa2
413e
6b08
5d28
4928
7f2f
4928
5d28
6b38
412c
7f47
ENDCHAR
STARTCHAR ch-364
ENCODING 364
SWIDTH 1000 0
DWIDTH 16 0
BBX 16 16 0 -2
BITMAP
0800
287f
2f08
2808
283e
ff92
4112
6b12
5d7f
4900
7f3e
4922
5d22
6b22
4122
7f3e
ENDCHAR
STARTCHAR ch-370
ENCODING 370
SWIDTH 1000 0
DWIDTH 16 0
BBX 16 16 0 -2
BITMAP
0806
287c
2f10
287e
2852
ffd2
417e
6b10
5d7f
4951
7f55
495d
5d75
6b41
4141
7f43
ENDCHAR
STARTCHAR ch-374
ENCODING 374
SWIDTH 1000 0
DWIDTH 16 0
BBX 16 16 0 -2
BITMAP
0800
2877
2f55
2855
2877
ff80
413e
6b00
5d7f
4908
7f10
493e
5d02
6b02
4106
7f1c
ENDCHAR
STARTCHAR ch-375
ENCODING 375
SWIDTH 1000 0
DWIDTH 16 0
BBX 16 16 0 -2
BITMAP
0800
287f
2f41
2841
287f
ffc0
417f
6b50
5d52
497f
7f49
4948
5d7e
6b88
4108
7f7f
ENDCHAR
STARTCHAR ch-397
ENCODING 397
SWIDTH 1000 0
DWIDTH 16 0
BBX 16 16 0 -2
BITMAP
0840
0840
7f7f
2240
147e
ff82
007e
3e40
227e
3e40
227e
3e40
227e
2241
2263
263e
ENDCHAR
STARTCHAR ch-405
ENCODING 405
SWIDTH 1000 0
DWIDTH 16 0
BBX 16 16 0 -2
BITMAP
0180
0ff0
f00f
1ff8
1008
1ff8
0820
7f3f
2220
ffbe
2202
3e3e
2220
3e3e
2221
261f
ENDCHAR
STARTCHAR ch-412
ENCODING 412
SWIDTH 1000 0
DWIDTH 16 0
BBX 16 16 0 -2
BITMAP
0400
1ff0
f020
3ffc
2284
7efc
1280
fffe
1282
72aa
0292
72aa
1282
fffe
1201
73ff
ENDCHAR
STARTCHAR ch-413
ENCODING 413
SWIDTH 1000 0
DWIDTH 16 0
BBX 16 16 0 -2
BITMAP
0900
39f0
e220
2ffc
24a4
ffbc
22a0
2ffe
72a2
6eb6
a0aa
aeb6
22a2
2ffe
2281
2e7f
ENDCHAR
STARTCHAR ch-416
ENCODING 416
SWIDTH 1000 0
DWIDTH 16 0
BBX 16 16 0 -2
BITMAP
0100
07c0
1c78
f7cf
0000
7bde
4a52
7bde
0000
3ffc
2444
2444
3ffc
2444
2444
244c
ENDCHAR
ENDFONT
