STARTFONT 2.1
FONT jis.jis7a00.16
SIZE 16 72 72
FONTBOUNDINGBOX 16 16 0 -2
STARTPROPERTIES 4
FONT_DESCENT 2
FONT_ASCENT 14
DEFAULT_CHAR 0
COPYRIGHT "Copyright (c) 1992 AT&T - All rights reserved."
ENDPROPERTIES
CHARS 179
STARTCHAR ch-0
ENCODING 0
SWIDTH 1000 0
DWIDTH 16 0
BBX 16 16 0 -2
BITMAP
04c4
1c6c
f038
106c
11c6
fc20
13ff
3840
3490
31fe
5292
5492
9092
1092
1096
1010
ENDCHAR
STARTCHAR ch-8
ENCODING 8
SWIDTH 1000 0
DWIDTH 16 0
BBX 16 16 0 -2
BITMAP
0400
1dfc
f104
11fc
1104
fd04
11fc
1000
3bfe
3420
5020
57ff
9020
1020
1020
1020
ENDCHAR
STARTCHAR ch-11
ENCODING 11
SWIDTH 1000 0
DWIDTH 16 0
BBX 16 16 0 -2
BITMAP
0400
1dfc
f104
1104
1104
fdfc
1000
1000
3bfe
3420
5420
51fc
9020
1020
17ff
1000
ENDCHAR
STARTCHAR ch-13
ENCODING 13
SWIDTH 1000 0
DWIDTH 16 0
BBX 16 16 0 -2
BITMAP
0420
1d22
f1a6
10a4
1020
fdfe
1102
1102
39fe
3502
5502
51fe
9102
1102
1102
110e
ENDCHAR
STARTCHAR ch-14
ENCODING 14
SWIDTH 1000 0
DWIDTH 16 0
BBX 16 16 0 -2
BITMAP
0502
1d86
f084
11fe
1102
fd02
1102
1102
39fe
3448
5448
5048
90c8
1089
1189
1307
ENDCHAR
STARTCHAR ch-20
ENCODING 20
SWIDTH 1000 0
DWIDTH 16 0
BBX 16 16 0 -2
BITMAP
0420
1c70
f0d8
118e
1303
fcf8
1000
11fe
3804
3408
5420
5030
9152
1143
1345
123c
ENDCHAR
STARTCHAR ch-23
ENCODING 23
SWIDTH 1000 0
DWIDTH 16 0
BBX 16 16 0 -2
BITMAP
0410
1c20
f1fe
1122
1122
fdfe
1122
1122
39fe
3448
5088
53ff
9008
1008
1008
1008
ENDCHAR
STARTCHAR ch-24
ENCODING 24
SWIDTH 1000 0
DWIDTH 16 0
BBX 16 16 0 -2
BITMAP
0484
1c84
f3ff
1084
1084
fcfc
1084
1084
38fc
3484
5484
53ff
9000
1084
1186
1303
ENDCHAR
STARTCHAR ch-25
ENCODING 25
SWIDTH 1000 0
DWIDTH 16 0
BBX 16 16 0 -2
BITMAP
0410
1c10
f1ff
1010
107c
fd44
1144
117c
3944
3544
557c
5144
9144
117c
1100
11ff
ENDCHAR
STARTCHAR ch-26
ENCODING 26
SWIDTH 1000 0
DWIDTH 16 0
BBX 16 16 0 -2
BITMAP
0444
1c4c
f048
10ff
1088
fd88
1288
10fe
3888
3488
5488
50fe
9088
1088
1088
10ff
ENDCHAR
STARTCHAR ch-28
ENCODING 28
SWIDTH 1000 0
DWIDTH 16 0
BBX 16 16 0 -2
BITMAP
0420
1c20
f1fe
1020
13ff
fc48
1048
388f
3540
547c
50c4
918c
1358
1070
10dc
1387
ENDCHAR
STARTCHAR ch-31
ENCODING 31
SWIDTH 1000 0
DWIDTH 16 0
BBX 16 16 0 -2
BITMAP
0100
7ffe
0000
1ff8
1008
17e8
1428
17e8
1008
1ff8
0006
7ff8
0100
ffff
0910
710e
ENDCHAR
STARTCHAR ch-32
ENCODING 32
SWIDTH 1000 0
DWIDTH 16 0
BBX 16 16 0 -2
BITMAP
0400
1dff
f101
1111
117d
fd11
1111
117d
3901
357d
5545
5145
917d
1101
1101
1207
ENDCHAR
STARTCHAR ch-46
ENCODING 46
SWIDTH 1000 0
DWIDTH 16 0
BBX 16 16 0 -2
BITMAP
040c
1c38
f1e0
1020
13ff
fc20
11fe
1122
39fe
3522
51fe
5020
91fe
1020
1020
13ff
ENDCHAR
STARTCHAR ch-49
ENCODING 49
SWIDTH 1000 0
DWIDTH 16 0
BBX 16 16 0 -2
BITMAP
0406
1c3c
f3e1
1133
1196
fc84
1020
11fe
3922
35fe
5522
5122
93ff
1102
1102
110e
ENDCHAR
STARTCHAR ch-50
ENCODING 50
SWIDTH 1000 0
DWIDTH 16 0
BBX 16 16 0 -2
BITMAP
0606
1c3c
f1e0
1000
1122
fdb6
1094
1000
393e
3522
5122
513e
9122
1122
1122
113e
ENDCHAR
STARTCHAR ch-55
ENCODING 55
SWIDTH 1000 0
DWIDTH 16 0
BBX 16 16 0 -2
BITMAP
0400
1cfe
f092
10fe
1092
fcfe
1048
10c8
398f
3440
547e
50c6
91ac
1038
106c
11c7
ENDCHAR
STARTCHAR ch-59
ENCODING 59
SWIDTH 1000 0
DWIDTH 16 0
BBX 16 16 0 -2
BITMAP
0406
1c3c
f1e0
1021
1133
fd96
1084
1060
39ce
3502
5502
51ce
9102
1102
1102
11fe
ENDCHAR
STARTCHAR ch-60
ENCODING 60
SWIDTH 1000 0
DWIDTH 16 0
BBX 16 16 0 -2
BITMAP
0420
1c20
f3fe
1202
1000
fdfc
1040
10a2
3926
3454
5090
5338
905c
1096
1313
1060
ENDCHAR
STARTCHAR ch-61
ENCODING 61
SWIDTH 1000 0
DWIDTH 16 0
BBX 16 16 0 -2
BITMAP
0848
3844
e3ff
2090
2090
f91f
2280
20fc
7080
68fe
a800
a1fe
2102
21fe
2102
21fe
ENDCHAR
STARTCHAR ch-62
ENCODING 62
SWIDTH 1000 0
DWIDTH 16 0
BBX 16 16 0 -2
BITMAP
0100
7ffe
0000
0ff0
0810
7ffe
4002
4ff2
4812
4ff6
0000
1ff8
0100
ffff
0910
710e
ENDCHAR
STARTCHAR ch-63
ENCODING 63
SWIDTH 1000 0
DWIDTH 16 0
BBX 16 16 0 -2
BITMAP
0420
1c20
f3ff
1000
10fc
fc84
10fc
1000
39fe
3502
557a
514a
914a
117a
1102
1106
ENDCHAR
STARTCHAR ch-64
ENCODING 64
SWIDTH 1000 0
DWIDTH 16 0
BBX 16 16 0 -2
BITMAP
0800
083c
ff24
0824
7e24
0047
ff00
817e
8d22
7822
0836
ff1c
2a08
6b1c
c9b6
0863
ENDCHAR
STARTCHAR ch-66
ENCODING 66
SWIDTH 1000 0
DWIDTH 16 0
BBX 16 16 0 -2
BITMAP
0420
1c20
f3ff
1020
11fe
fd22
11fe
1122
3922
35fe
5400
5030
9152
1143
1345
123c
ENDCHAR
STARTCHAR ch-67
ENCODING 67
SWIDTH 1000 0
DWIDTH 16 0
BBX 16 16 0 -2
BITMAP
0820
3820
e3fe
2202
228a
f98c
2326
2070
70d8
698c
a707
a1fc
2104
2104
2104
21fc
ENDCHAR
STARTCHAR ch-70
ENCODING 70
SWIDTH 1000 0
DWIDTH 16 0
BBX 16 16 0 -2
BITMAP
0410
1c20
f1fe
1102
11fe
fd02
11fe
1820
34a4
332b
5070
53c4
9039
11c6
1038
13e0
ENDCHAR
STARTCHAR ch-73
ENCODING 73
SWIDTH 1000 0
DWIDTH 16 0
BBX 16 16 0 -2
BITMAP
0800
3bff
e201
23ff
2200
fad6
2210
22d6
7200
6a50
aa7e
a290
2210
25ff
2010
2010
ENDCHAR
STARTCHAR ch-77
ENCODING 77
SWIDTH 1000 0
DWIDTH 16 0
BBX 16 16 0 -2
BITMAP
0410
1dff
f010
10fe
1010
fdff
1000
10fe
3882
34fe
5482
50fe
9082
10fe
1044
1183
ENDCHAR
STARTCHAR ch-78
ENCODING 78
SWIDTH 1000 0
DWIDTH 16 0
BBX 16 16 0 -2
BITMAP
4000
46ff
7c10
407e
4142
3f42
007e
0e42
7842
087e
ff42
2842
2e7e
6b24
c866
08c3
ENDCHAR
STARTCHAR ch-79
ENCODING 79
SWIDTH 1000 0
DWIDTH 16 0
BBX 16 16 0 -2
BITMAP
0c06
383c
e7e2
2246
2124
fbfe
2002
33fe
2802
6bfe
6000
a020
a2b2
2293
2685
247c
ENDCHAR
STARTCHAR ch-80
ENCODING 80
SWIDTH 1000 0
DWIDTH 16 0
BBX 16 16 0 -2
BITMAP
0880
39f0
e220
27fc
2244
fbfc
2244
33fc
6840
67fe
6442
a7fe
2442
27fe
2041
203f
ENDCHAR
STARTCHAR ch-87
ENCODING 87
SWIDTH 1000 0
DWIDTH 16 0
BBX 16 16 0 -2
BITMAP
0420
1c20
f3ff
1020
11fe
fd22
11fe
1122
39fe
3424
54fe
5383
9020
1152
1145
123c
ENDCHAR
STARTCHAR ch-97
ENCODING 97
SWIDTH 1000 0
DWIDTH 16 0
BBX 16 16 0 -2
BITMAP
0820
3820
e7ff
2124
2124
faaa
2020
27ff
7000
6bfe
aa02
a2fa
228a
22fa
2202
23fe
ENDCHAR
STARTCHAR ch-98
ENCODING 98
SWIDTH 1000 0
DWIDTH 16 0
BBX 16 16 0 -2
BITMAP
0820
393e
e120
27ff
200a
f809
27ff
2404
75f4
6c44
a555
a75e
2464
258d
2415
2863
ENDCHAR
STARTCHAR ch-99
ENCODING 99
SWIDTH 1000 0
DWIDTH 16 0
BBX 16 16 0 -2
BITMAP
0420
1c20
f3ff
1084
1303
fc48
11fe
3048
39fe
3448
53ff
5048
90ca
1384
10e6
1383
ENDCHAR
STARTCHAR ch-105
ENCODING 105
SWIDTH 1000 0
DWIDTH 16 0
BBX 16 16 0 -2
BITMAP
080e
3bf8
e242
2124
23fe
f820
27ff
2000
71fc
6804
a9fc
a004
21fc
22a2
2295
247c
ENDCHAR
STARTCHAR ch-107
ENCODING 107
SWIDTH 1000 0
DWIDTH 16 0
BBX 16 16 0 -2
BITMAP
0444
1bff
f044
1090
11ff
ff10
11fe
3910
35fe
3510
51ff
5000
93fe
1084
1078
1387
ENDCHAR
STARTCHAR ch-112
ENCODING 112
SWIDTH 1000 0
DWIDTH 16 0
BBX 16 16 0 -2
BITMAP
0820
3fff
e000
23de
2252
fbde
2088
23fe
7088
6bfe
a888
a7ff
20c8
278a
20e4
2383
ENDCHAR
STARTCHAR ch-116
ENCODING 116
SWIDTH 1000 0
DWIDTH 16 0
BBX 16 16 0 -2
BITMAP
0100
0100
0100
7ffe
4002
4002
4002
0420
0420
0c30
0810
1818
1008
300c
6006
c003
ENDCHAR
STARTCHAR ch-118
ENCODING 118
SWIDTH 1000 0
DWIDTH 16 0
BBX 16 16 0 -2
BITMAP
0100
0100
7ffe
4442
4c42
1840
707e
0200
0200
7ff0
0210
0610
0410
0c11
1813
700e
ENDCHAR
STARTCHAR ch-121
ENCODING 121
SWIDTH 1000 0
DWIDTH 16 0
BBX 16 16 0 -2
BITMAP
0100
0100
7ffe
4422
4c22
383f
e000
1ff8
0008
1ff8
1000
1ffc
0004
000c
0008
0078
ENDCHAR
STARTCHAR ch-122
ENCODING 122
SWIDTH 1000 0
DWIDTH 16 0
BBX 16 16 0 -2
BITMAP
0100
0100
7ffe
4002
4442
0440
0c40
187e
7000
0000
3ffc
0100
0100
0100
ffff
0000
ENDCHAR
STARTCHAR ch-125
ENCODING 125
SWIDTH 1000 0
DWIDTH 16 0
BBX 16 16 0 -2
BITMAP
0100
0100
7ffe
4422
4c22
383f
e000
0420
7ffe
0420
0420
ffff
0420
0c20
1820
7020
ENDCHAR
STARTCHAR ch-127
ENCODING 127
SWIDTH 1000 0
DWIDTH 16 0
BBX 16 16 0 -2
BITMAP
0100
0100
7ffe
4442
4c42
387f
e000
3ffc
0810
0810
0810
ffff
0110
0710
1c10
f070
ENDCHAR
STARTCHAR ch-129
ENCODING 129
SWIDTH 1000 0
DWIDTH 16 0
BBX 16 16 0 -2
BITMAP
0100
0100
7ffe
4442
4442
0c40
187e
7000
0100
0100
ffff
0240
0660
0c30
381c
e007
ENDCHAR
STARTCHAR ch-131
ENCODING 131
SWIDTH 1000 0
DWIDTH 16 0
BBX 16 16 0 -2
BITMAP
0100
0100
7ffe
4442
4c42
387f
e000
2000
23fe
3c42
e042
2042
24c2
1c86
0184
071c
ENDCHAR
STARTCHAR ch-132
ENCODING 132
SWIDTH 1000 0
DWIDTH 16 0
BBX 16 16 0 -2
BITMAP
0100
0100
7ffe
4422
4c22
3820
e43f
0400
0ffe
3900
e1fc
0100
01fc
0100
0100
0100
ENDCHAR
STARTCHAR ch-136
ENCODING 136
SWIDTH 1000 0
DWIDTH 16 0
BBX 16 16 0 -2
BITMAP
0100
0100
7ffe
4422
4c22
383f
e000
1020
32fe
2622
6c22
3822
1262
3e46
e2c4
019c
ENDCHAR
STARTCHAR ch-146
ENCODING 146
SWIDTH 1000 0
DWIDTH 16 0
BBX 16 16 0 -2
BITMAP
0100
7ffe
4442
4842
f07f
0000
7ffe
0410
0808
3ff4
0100
3ffc
0100
0100
ffff
0000
ENDCHAR
STARTCHAR ch-147
ENCODING 147
SWIDTH 1000 0
DWIDTH 16 0
BBX 16 16 0 -2
BITMAP
0100
0100
7ffe
4442
4c42
387f
e400
0c30
0818
1ffc
7004
0180
24c6
244b
6619
c3f0
ENDCHAR
STARTCHAR ch-149
ENCODING 149
SWIDTH 1000 0
DWIDTH 16 0
BBX 16 16 0 -2
BITMAP
0100
0100
7ffe
4422
4c22
383f
e000
2440
344c
1458
0440
3470
ec5c
0841
1863
f03e
ENDCHAR
STARTCHAR ch-150
ENCODING 150
SWIDTH 1000 0
DWIDTH 16 0
BBX 16 16 0 -2
BITMAP
0100
0100
7ffe
4422
5c22
f13f
0900
1ff8
3100
0100
ffff
0000
1ff8
1008
1008
1ff8
ENDCHAR
STARTCHAR ch-151
ENCODING 151
SWIDTH 1000 0
DWIDTH 16 0
BBX 16 16 0 -2
BITMAP
0100
0100
7ffe
4422
4822
313f
c200
3ffc
2104
25e4
2224
2544
2184
2e44
2004
3ffc
ENDCHAR
STARTCHAR ch-152
ENCODING 152
SWIDTH 1000 0
DWIDTH 16 0
BBX 16 16 0 -2
BITMAP
0100
0100
7ffe
4422
583f
f000
1ff8
0108
ffff
0208
3ff8
0800
3ffc
e804
0804
0ffc
ENDCHAR
STARTCHAR ch-159
ENCODING 159
SWIDTH 1000 0
DWIDTH 16 0
BBX 16 16 0 -2
BITMAP
0100
0100
7ffe
4422
583f
e000
3ffe
2002
3ffe
2000
2444
2444
67fc
4842
c842
0ffe
ENDCHAR
STARTCHAR ch-169
ENCODING 169
SWIDTH 1000 0
DWIDTH 16 0
BBX 16 16 0 -2
BITMAP
0100
0100
7ffe
4422
4c22
383f
eff0
0810
09f0
0910
7ffe
4002
47e2
4422
47e2
400e
ENDCHAR
STARTCHAR ch-170
ENCODING 170
SWIDTH 1000 0
DWIDTH 16 0
BBX 16 16 0 -2
BITMAP
0100
0100
7ffe
4442
4c42
f87f
0000
6020
33fe
c020
67ff
0000
1020
33fe
6020
c7ff
ENDCHAR
STARTCHAR ch-174
ENCODING 174
SWIDTH 1000 0
DWIDTH 16 0
BBX 16 16 0 -2
BITMAP
0100
0100
7ffe
4422
183f
e400
3f7e
2102
3f7e
2140
3f7e
2102
ff02
0902
3106
c71c
ENDCHAR
STARTCHAR ch-175
ENCODING 175
SWIDTH 1000 0
DWIDTH 16 0
BBX 16 16 0 -2
BITMAP
0100
7ffe
4422
4c22
f83f
1010
0820
7ffe
0100
3ffc
0100
ffff
0000
2444
6666
c223
ENDCHAR
STARTCHAR ch-176
ENCODING 176
SWIDTH 1000 0
DWIDTH 16 0
BBX 16 16 0 -2
BITMAP
0100
0100
7ffe
4422
5822
e23f
0ff0
7920
04c0
0700
f800
0ff8
1100
ffff
2104
3ffc
ENDCHAR
STARTCHAR ch-182
ENCODING 182
SWIDTH 1000 0
DWIDTH 16 0
BBX 16 16 0 -2
BITMAP
0100
7ffe
4422
f93f
3ffc
2104
ffff
2104
3ffc
1108
1ff8
0200
ffff
1810
07e0
781e
ENDCHAR
STARTCHAR ch-186
ENCODING 186
SWIDTH 1000 0
DWIDTH 16 0
BBX 16 16 0 -2
BITMAP
0100
0100
7ffe
4442
587a
0000
10fc
7c84
10fc
1084
fefc
1084
38fc
2c49
60c9
c387
ENDCHAR
STARTCHAR ch-191
ENCODING 191
SWIDTH 1000 0
DWIDTH 16 0
BBX 16 16 0 -2
BITMAP
0100
7ffe
4422
f83f
0040
78fc
4b88
4850
50f8
578f
48a0
49fc
4a20
59fc
4020
43fe
ENDCHAR
STARTCHAR ch-195
ENCODING 195
SWIDTH 1000 0
DWIDTH 16 0
BBX 16 16 0 -2
BITMAP
0100
7ffe
4912
f7df
0100
ffff
2104
3ffc
2104
7ffe
4102
7ffe
4102
7ffe
0101
00ff
ENDCHAR
STARTCHAR ch-196
ENCODING 196
SWIDTH 1000 0
DWIDTH 16 0
BBX 16 16 0 -2
BITMAP
0100
7ffe
4422
f83f
0700
3c7c
2004
3e7c
2004
3ffc
2108
3de8
2108
3ded
2105
7be3
ENDCHAR
STARTCHAR ch-197
ENCODING 197
SWIDTH 1000 0
DWIDTH 16 0
BBX 16 16 0 -2
BITMAP
0100
7ffe
4422
f83f
1040
7e40
42ff
7e84
43c4
7e4c
1068
ff38
2010
3e38
626c
ccc7
ENDCHAR
STARTCHAR ch-199
ENCODING 199
SWIDTH 1000 0
DWIDTH 16 0
BBX 16 16 0 -2
BITMAP
0100
7ffe
4422
f83f
0100
ffff
0100
7ffe
4442
7ffe
2004
3ffc
2004
3ffc
1008
e007
ENDCHAR
STARTCHAR ch-200
ENCODING 200
SWIDTH 1000 0
DWIDTH 16 0
BBX 16 16 0 -2
BITMAP
0100
7ffe
4912
f7df
0100
ffff
2244
3e7c
0240
7e7e
4242
7e7e
4242
7e7e
0201
01ff
ENDCHAR
STARTCHAR ch-202
ENCODING 202
SWIDTH 1000 0
DWIDTH 16 0
BBX 16 16 0 -2
BITMAP
0100
7ffe
4442
f87f
0010
0c1e
7810
92fe
5492
feaa
1082
39ff
3521
5549
9175
1103
ENDCHAR
STARTCHAR ch-203
ENCODING 203
SWIDTH 1000 0
DWIDTH 16 0
BBX 16 16 0 -2
BITMAP
0100
0100
0100
7ffe
0000
0810
0810
0810
0c30
0420
0420
0460
0040
0040
ffff
0000
ENDCHAR
STARTCHAR ch-205
ENCODING 205
SWIDTH 1000 0
DWIDTH 16 0
BBX 16 16 0 -2
BITMAP
1010
1010
1010
fe10
0010
4410
45ff
6410
2c10
2810
2810
0e10
3810
e010
0010
0010
ENDCHAR
STARTCHAR ch-207
ENCODING 207
SWIDTH 1000 0
DWIDTH 16 0
BBX 16 16 0 -2
BITMAP
1006
101c
10f0
fe10
0010
4410
4410
65ff
2c10
2810
2810
0e10
3810
e010
0010
0010
ENDCHAR
STARTCHAR ch-210
ENCODING 210
SWIDTH 1000 0
DWIDTH 16 0
BBX 16 16 0 -2
BITMAP
0100
0100
7ffe
0810
0c30
0420
ffff
0008
1f88
1088
1088
1088
1f88
0008
0008
0038
ENDCHAR
STARTCHAR ch-211
ENCODING 211
SWIDTH 1000 0
DWIDTH 16 0
BBX 16 16 0 -2
BITMAP
1006
101c
11f0
fc20
0020
49fe
4820
4820
5820
53ff
1020
1c20
7020
c021
0033
001e
ENDCHAR
STARTCHAR ch-213
ENCODING 213
SWIDTH 1000 0
DWIDTH 16 0
BBX 16 16 0 -2
BITMAP
1048
1048
1048
fccc
0084
4986
4b03
48fc
5824
5024
1024
1c64
7044
c0cc
0188
0338
ENDCHAR
STARTCHAR ch-217
ENCODING 217
SWIDTH 1000 0
DWIDTH 16 0
BBX 16 16 0 -2
BITMAP
1010
1010
1010
fe10
001f
4410
4410
6410
2c10
28fe
2882
0e82
3882
e082
0082
00fe
ENDCHAR
STARTCHAR ch-218
ENCODING 218
SWIDTH 1000 0
DWIDTH 16 0
BBX 16 16 0 -2
BITMAP
1010
1010
11ff
ff01
0101
4400
45ff
6410
2c10
2810
2810
0e10
3810
e010
0010
0070
ENDCHAR
STARTCHAR ch-220
ENCODING 220
SWIDTH 1000 0
DWIDTH 16 0
BBX 16 16 0 -2
BITMAP
0100
0100
7ffe
0810
0420
ffff
0000
1ff8
1108
1108
1ff8
1108
1108
1ff9
0103
00fe
ENDCHAR
STARTCHAR ch-221
ENCODING 221
SWIDTH 1000 0
DWIDTH 16 0
BBX 16 16 0 -2
BITMAP
1010
1010
1010
fefe
0000
4484
4484
6484
2ccc
2848
2848
0e48
3848
e008
01ff
0000
ENDCHAR
STARTCHAR ch-223
ENCODING 223
SWIDTH 1000 0
DWIDTH 16 0
BBX 16 16 0 -2
BITMAP
0100
0100
3ffc
0810
0420
ffff
0000
1ff8
1008
1ff8
1008
1ff8
0420
0c21
3833
e01e
ENDCHAR
STARTCHAR ch-224
ENCODING 224
SWIDTH 1000 0
DWIDTH 16 0
BBX 16 16 0 -2
BITMAP
0100
0100
7ffe
0810
0420
ffff
0000
1ff8
1008
1ff8
1008
1ff8
0100
ffff
0100
0100
ENDCHAR
STARTCHAR ch-225
ENCODING 225
SWIDTH 1000 0
DWIDTH 16 0
BBX 16 16 0 -2
BITMAP
1000
11ff
1010
fe30
0020
44fe
4482
6482
2c82
2882
28fe
0e82
3882
e082
0082
00fe
ENDCHAR
STARTCHAR ch-226
ENCODING 226
SWIDTH 1000 0
DWIDTH 16 0
BBX 16 16 0 -2
BITMAP
1080
1084
1184
fd1e
03f3
4880
4880
49fe
5b20
5020
13ff
1c50
70d8
c08c
0186
0303
ENDCHAR
STARTCHAR ch-227
ENCODING 227
SWIDTH 1000 0
DWIDTH 16 0
BBX 16 16 0 -2
BITMAP
1040
10c4
1084
fdfe
004a
4448
448f
6d40
287c
28c4
098c
1c58
7030
c078
00cc
0387
ENDCHAR
STARTCHAR ch-229
ENCODING 229
SWIDTH 1000 0
DWIDTH 16 0
BBX 16 16 0 -2
BITMAP
0100
0100
7ffe
0810
0420
ffff
0000
1ff8
1108
1ff8
1108
1ff8
0100
3ffc
0100
ffff
ENDCHAR
STARTCHAR ch-230
ENCODING 230
SWIDTH 1000 0
DWIDTH 16 0
BBX 16 16 0 -2
BITMAP
1020
1020
13ff
fc20
0020
49fe
4922
4922
5922
51fe
10a8
1ca8
71ac
c326
0623
0020
ENDCHAR
STARTCHAR ch-234
ENCODING 234
SWIDTH 1000 0
DWIDTH 16 0
BBX 16 16 0 -2
BITMAP
0000
7f7e
4822
7f36
4114
7f1c
4836
7f63
0000
0100
7ffe
0810
0c30
0420
ffff
0000
ENDCHAR
STARTCHAR ch-237
ENCODING 237
SWIDTH 1000 0
DWIDTH 16 0
BBX 16 16 0 -2
BITMAP
10fc
1084
1084
fcfc
0084
4884
48fc
4840
58ff
5381
1131
1de1
7101
c113
00f2
000e
ENDCHAR
STARTCHAR ch-239
ENCODING 239
SWIDTH 1000 0
DWIDTH 16 0
BBX 16 16 0 -2
BITMAP
1010
1111
1111
fd11
01ff
4800
49ff
4810
5820
51ff
1149
1d49
7149
c149
0149
014b
ENDCHAR
STARTCHAR ch-240
ENCODING 240
SWIDTH 1000 0
DWIDTH 16 0
BBX 16 16 0 -2
BITMAP
1000
13ff
1200
fefe
0292
4a92
4afe
4a92
5a92
52fe
1210
1e10
72fe
c210
0410
01ff
ENDCHAR
STARTCHAR ch-246
ENCODING 246
SWIDTH 1000 0
DWIDTH 16 0
BBX 16 16 0 -2
BITMAP
0810
0810
ffff
4242
2424
ffff
0000
7e7e
4242
4242
7e7e
2428
2428
6569
4649
c4c7
ENDCHAR
STARTCHAR ch-248
ENCODING 248
SWIDTH 1000 0
DWIDTH 16 0
BBX 16 16 0 -2
BITMAP
1010
7e7e
2424
2424
feff
0000
7e7e
4242
7e7e
4242
7e7e
2828
2828
6a69
4c49
c8c7
ENDCHAR
STARTCHAR ch-249
ENCODING 249
SWIDTH 1000 0
DWIDTH 16 0
BBX 16 16 0 -2
BITMAP
1020
1020
1020
3f7f
2848
68c8
c988
0808
0808
0808
0808
0808
0808
0808
0808
0838
ENDCHAR
STARTCHAR ch-250
ENCODING 250
SWIDTH 1000 0
DWIDTH 16 0
BBX 16 16 0 -2
BITMAP
1020
1020
1020
3f7f
2850
6cd8
c408
0000
0000
3ffc
0000
0000
0000
0000
ffff
0000
ENDCHAR
STARTCHAR ch-255
ENCODING 255
SWIDTH 1000 0
DWIDTH 16 0
BBX 16 16 0 -2
BITMAP
1020
1020
3f7f
4890
8408
0000
3ffc
0100
0100
0100
ffff
0100
0100
0100
0100
0100
ENDCHAR
STARTCHAR ch-258
ENCODING 258
SWIDTH 1000 0
DWIDTH 16 0
BBX 16 16 0 -2
BITMAP
1040
1040
3eff
6990
cc18
0408
0200
0200
7ff0
0210
1a10
0e10
0410
0e11
1b13
700e
ENDCHAR
STARTCHAR ch-260
ENCODING 260
SWIDTH 1000 0
DWIDTH 16 0
BBX 16 16 0 -2
BITMAP
1040
1040
3eff
69a0
c410
0000
7ffe
0420
0420
0420
ffff
0420
0c20
0820
1820
7020
ENDCHAR
STARTCHAR ch-262
ENCODING 262
SWIDTH 1000 0
DWIDTH 16 0
BBX 16 16 0 -2
BITMAP
1040
1040
3eff
6990
cc18
0408
3ffe
2082
2082
2082
3ffe
2000
2000
2001
3003
1ffe
ENDCHAR
STARTCHAR ch-264
ENCODING 264
SWIDTH 1000 0
DWIDTH 16 0
BBX 16 16 0 -2
BITMAP
1020
1020
3f7f
6890
c408
0000
7ff8
0410
043e
0e0c
0b18
19b0
30e0
61b0
c71c
1c07
ENDCHAR
STARTCHAR ch-266
ENCODING 266
SWIDTH 1000 0
DWIDTH 16 0
BBX 16 16 0 -2
BITMAP
1040
1040
3eff
69a0
cc30
041c
01f0
1f08
1008
1108
1108
1108
310c
2104
6106
c003
ENDCHAR
STARTCHAR ch-267
ENCODING 267
SWIDTH 1000 0
DWIDTH 16 0
BBX 16 16 0 -2
BITMAP
1040
1040
3eff
69a0
c410
3ffc
0104
0104
ffff
0104
0104
3ffc
0100
0300
0600
1c00
ENDCHAR
STARTCHAR ch-271
ENCODING 271
SWIDTH 1000 0
DWIDTH 16 0
BBX 16 16 0 -2
BITMAP
1040
1040
3eff
6990
cc18
1408
1000
3ffe
6222
c662
0c42
18c2
7186
0304
0e0c
0038
ENDCHAR
STARTCHAR ch-273
ENCODING 273
SWIDTH 1000 0
DWIDTH 16 0
BBX 16 16 0 -2
BITMAP
1040
1040
3eff
6890
c508
0000
003c
3fe0
0100
0100
ffff
0240
0660
0c30
381c
e007
ENDCHAR
STARTCHAR ch-280
ENCODING 280
SWIDTH 1000 0
DWIDTH 16 0
BBX 16 16 0 -2
BITMAP
1040
1040
3eff
6990
cc18
0508
0100
01fe
0100
0100
3ffc
2004
2004
2004
2004
3ffc
ENDCHAR
STARTCHAR ch-281
ENCODING 281
SWIDTH 1000 0
DWIDTH 16 0
BBX 16 16 0 -2
BITMAP
1040
1040
3eff
6990
cc18
0408
1100
1100
3ffc
6100
0100
1ff8
0100
0100
0100
ffff
ENDCHAR
STARTCHAR ch-283
ENCODING 283
SWIDTH 1000 0
DWIDTH 16 0
BBX 16 16 0 -2
BITMAP
1040
1040
3fff
6890
cc18
0508
0100
3ffc
2104
2104
2104
3ffc
2104
2104
2104
3ffc
ENDCHAR
STARTCHAR ch-286
ENCODING 286
SWIDTH 1000 0
DWIDTH 16 0
BBX 16 16 0 -2
BITMAP
1040
1040
3eff
6990
c408
0000
0410
0808
11fc
7f06
0000
1ff8
1008
1008
1008
1ff8
ENDCHAR
STARTCHAR ch-288
ENCODING 288
SWIDTH 1000 0
DWIDTH 16 0
BBX 16 16 0 -2
BITMAP
1020
1020
3f7f
4850
8488
0508
0100
7ffe
0000
1008
1818
0810
0830
0020
ffff
0000
ENDCHAR
STARTCHAR ch-293
ENCODING 293
SWIDTH 1000 0
DWIDTH 16 0
BBX 16 16 0 -2
BITMAP
1040
1040
3fff
6890
cd18
0408
7ffe
0002
3fe2
0002
3fe2
2022
2022
3fe2
0002
000e
ENDCHAR
STARTCHAR ch-294
ENCODING 294
SWIDTH 1000 0
DWIDTH 16 0
BBX 16 16 0 -2
BITMAP
1040
1040
3eff
68a0
c510
0000
0808
1808
37ff
7008
d308
1188
1088
1008
1008
1038
ENDCHAR
STARTCHAR ch-296
ENCODING 296
SWIDTH 1000 0
DWIDTH 16 0
BBX 16 16 0 -2
BITMAP
1040
1040
3eff
6990
cc18
0508
0100
ffff
0540
0d60
0930
1918
310c
eff7
0100
0100
ENDCHAR
STARTCHAR ch-300
ENCODING 300
SWIDTH 1000 0
DWIDTH 16 0
BBX 16 16 0 -2
BITMAP
2040
2040
7eff
c910
0408
7ffc
0104
7ffc
4100
4100
7ffe
0502
0d02
3906
e11c
0100
ENDCHAR
STARTCHAR ch-307
ENCODING 307
SWIDTH 1000 0
DWIDTH 16 0
BBX 16 16 0 -2
BITMAP
1040
1040
3eff
6990
cc18
0408
0800
7f3e
0922
0922
0922
1922
1122
3322
623e
ce00
ENDCHAR
STARTCHAR ch-309
ENCODING 309
SWIDTH 1000 0
DWIDTH 16 0
BBX 16 16 0 -2
BITMAP
1040
1040
3eff
6990
cc18
0408
6000
31fe
0102
c102
6102
090e
1900
3101
6183
c0fe
ENDCHAR
STARTCHAR ch-310
ENCODING 310
SWIDTH 1000 0
DWIDTH 16 0
BBX 16 16 0 -2
BITMAP
1040
1040
3eff
6990
cc18
0408
0800
1ff8
3100
0100
ffff
0240
0660
0c30
381c
e007
ENDCHAR
STARTCHAR ch-313
ENCODING 313
SWIDTH 1000 0
DWIDTH 16 0
BBX 16 16 0 -2
BITMAP
1040
1040
3f7f
68d0
cd98
0408
1110
1110
ffff
1110
1110
1110
11f0
1000
1000
1ffe
ENDCHAR
STARTCHAR ch-325
ENCODING 325
SWIDTH 1000 0
DWIDTH 16 0
BBX 16 16 0 -2
BITMAP
1040
1040
3eff
6990
c408
0900
1ff8
3100
0100
ffff
0440
0440
0c40
1841
3063
e03e
ENDCHAR
STARTCHAR ch-326
ENCODING 326
SWIDTH 1000 0
DWIDTH 16 0
BBX 16 16 0 -2
BITMAP
2040
2040
7eff
d120
0910
3ffc
0104
ffff
0104
3ffc
0100
3ffc
0100
ffff
0100
0100
ENDCHAR
STARTCHAR ch-328
ENCODING 328
SWIDTH 1000 0
DWIDTH 16 0
BBX 16 16 0 -2
BITMAP
1040
1040
3eff
68a0
c510
0038
1fe0
0100
ffff
0100
0100
1ff8
1008
1008
1008
1ff8
ENDCHAR
STARTCHAR ch-329
ENCODING 329
SWIDTH 1000 0
DWIDTH 16 0
BBX 16 16 0 -2
BITMAP
1040
1040
3f7f
6890
c508
0100
3ffc
0100
ffff
0010
0010
7ffe
0810
0c10
0410
0070
ENDCHAR
STARTCHAR ch-331
ENCODING 331
SWIDTH 1000 0
DWIDTH 16 0
BBX 16 16 0 -2
BITMAP
2040
2040
7eff
4890
8508
0020
3e20
22fe
2222
3e22
2222
2222
3e22
2262
6242
c6ce
ENDCHAR
STARTCHAR ch-332
ENCODING 332
SWIDTH 1000 0
DWIDTH 16 0
BBX 16 16 0 -2
BITMAP
1040
1040
3eff
6890
c508
0380
06c0
0c70
381c
eff7
0100
1ff8
0100
0100
7ffe
0000
ENDCHAR
STARTCHAR ch-333
ENCODING 333
SWIDTH 1000 0
DWIDTH 16 0
BBX 16 16 0 -2
BITMAP
1040
1040
3eff
6990
cc18
1408
1000
3ffe
6002
cfc2
0842
0fc2
0842
0846
0fc4
001c
ENDCHAR
STARTCHAR ch-335
ENCODING 335
SWIDTH 1000 0
DWIDTH 16 0
BBX 16 16 0 -2
BITMAP
1020
1020
3f7f
6850
c488
0000
0888
1884
37ff
e040
2044
206c
2038
20f1
279b
200e
ENDCHAR
STARTCHAR ch-336
ENCODING 336
SWIDTH 1000 0
DWIDTH 16 0
BBX 16 16 0 -2
BITMAP
1040
1040
3eff
6990
c408
3ffe
2000
27fc
2040
2040
23f8
2040
2040
2ffe
2000
3ffe
ENDCHAR
STARTCHAR ch-337
ENCODING 337
SWIDTH 1000 0
DWIDTH 16 0
BBX 16 16 0 -2
BITMAP
2040
2040
3eff
6890
cd18
0408
0000
7cfc
1084
10a4
10b4
1094
1d84
7105
c305
0603
ENDCHAR
STARTCHAR ch-338
ENCODING 338
SWIDTH 1000 0
DWIDTH 16 0
BBX 16 16 0 -2
BITMAP
2040
2040
7f7f
4890
8408
7ffe
4002
4ff2
4002
4ff2
4812
4812
4ff2
4002
4002
400e
ENDCHAR
STARTCHAR ch-340
ENCODING 340
SWIDTH 1000 0
DWIDTH 16 0
BBX 16 16 0 -2
BITMAP
1040
1040
3eff
6890
c508
0380
06c0
0c70
381c
e7e7
0000
1ff8
1008
1008
1008
1ff8
ENDCHAR
STARTCHAR ch-342
ENCODING 342
SWIDTH 1000 0
DWIDTH 16 0
BBX 16 16 0 -2
BITMAP
1020
1020
3f7f
6850
c488
0100
ffff
0100
3ffc
2104
2104
238c
0d60
3938
e10f
0100
ENDCHAR
STARTCHAR ch-349
ENCODING 349
SWIDTH 1000 0
DWIDTH 16 0
BBX 16 16 0 -2
BITMAP
1040
1040
3eff
6990
c408
0fe0
1840
6080
1ffc
0104
ffff
0104
3ffc
0100
0100
0700
ENDCHAR
STARTCHAR ch-357
ENCODING 357
SWIDTH 1000 0
DWIDTH 16 0
BBX 16 16 0 -2
BITMAP
1040
1040
3eff
6990
c408
0000
1ff8
1008
1008
1ff8
0100
0200
3ffc
2004
2004
3ffc
ENDCHAR
STARTCHAR ch-359
ENCODING 359
SWIDTH 1000 0
DWIDTH 16 0
BBX 16 16 0 -2
BITMAP
1040
1040
3eff
6990
c408
0000
1ff8
1008
1ff8
1008
1ff8
1008
1ff8
0421
1c23
f01e
ENDCHAR
STARTCHAR ch-364
ENCODING 364
SWIDTH 1000 0
DWIDTH 16 0
BBX 16 16 0 -2
BITMAP
1040
1040
3eff
6988
cc04
0490
0088
3fff
2040
2048
3e58
2270
2220
6671
4cdb
c38e
ENDCHAR
STARTCHAR ch-366
ENCODING 366
SWIDTH 1000 0
DWIDTH 16 0
BBX 16 16 0 -2
BITMAP
1040
1040
3eff
6990
cc18
0408
7ffe
0100
1110
1110
3938
6d6c
0100
0100
ffff
0000
ENDCHAR
STARTCHAR ch-368
ENCODING 368
SWIDTH 1000 0
DWIDTH 16 0
BBX 16 16 0 -2
BITMAP
1020
1020
3f7f
68d0
c408
0080
0880
19ff
3340
7640
d07e
1040
1040
107e
1040
1040
ENDCHAR
STARTCHAR ch-369
ENCODING 369
SWIDTH 1000 0
DWIDTH 16 0
BBX 16 16 0 -2
BITMAP
1040
1040
3eff
6990
c408
1040
3040
247f
64c4
e5a4
242c
2438
2410
2438
206c
21c7
ENDCHAR
STARTCHAR ch-372
ENCODING 372
SWIDTH 1000 0
DWIDTH 16 0
BBX 16 16 0 -2
BITMAP
1040
1040
3eff
6990
c408
0100
7ffe
0100
1110
1110
3bb8
6aac
06c0
0c60
3838
e00f
ENDCHAR
STARTCHAR ch-373
ENCODING 373
SWIDTH 1000 0
DWIDTH 16 0
BBX 16 16 0 -2
BITMAP
1040
1040
3eff
6990
c408
0000
7c1c
09f0
1020
3d3c
0520
4d20
2920
1bfe
3400
63ff
ENDCHAR
STARTCHAR ch-378
ENCODING 378
SWIDTH 1000 0
DWIDTH 16 0
BBX 16 16 0 -2
BITMAP
1040
1040
3eff
6990
c408
3ffe
2000
27fc
2040
23f8
2040
2050
2048
2ffe
2000
3ffe
ENDCHAR
STARTCHAR ch-390
ENCODING 390
SWIDTH 1000 0
DWIDTH 16 0
BBX 16 16 0 -2
BITMAP
2040
2040
7eff
d190
0808
3ffc
2104
22c4
2c34
0000
2046
3e5c
2070
2041
3e63
e03e
ENDCHAR
STARTCHAR ch-391
ENCODING 391
SWIDTH 1000 0
DWIDTH 16 0
BBX 16 16 0 -2
BITMAP
2020
2020
7f7f
4890
8408
7ffe
4102
5ffa
4102
4102
4ff2
4812
4812
4ff2
4002
7ffe
ENDCHAR
STARTCHAR ch-395
ENCODING 395
SWIDTH 1000 0
DWIDTH 16 0
BBX 16 16 0 -2
BITMAP
1040
1040
3eff
6990
c408
0120
7ffe
0090
0062
1f9e
0120
7fff
0090
0060
0799
7c07
ENDCHAR
STARTCHAR ch-397
ENCODING 397
SWIDTH 1000 0
DWIDTH 16 0
BBX 16 16 0 -2
BITMAP
1040
1040
3eff
6990
cc18
0408
11ff
1100
fd10
117e
1152
1d52
f156
1110
1100
31ff
ENDCHAR
STARTCHAR ch-399
ENCODING 399
SWIDTH 1000 0
DWIDTH 16 0
BBX 16 16 0 -2
BITMAP
1040
1040
3eff
6990
c408
007c
3fc0
1108
0890
3ffc
0104
ffff
0104
3ffc
0100
0700
ENDCHAR
STARTCHAR ch-402
ENCODING 402
SWIDTH 1000 0
DWIDTH 16 0
BBX 16 16 0 -2
BITMAP
2040
7eff
c990
0408
1ff8
0008
1ff8
0008
1ff8
0000
7ffe
4102
5ffa
1108
1118
0100
ENDCHAR
STARTCHAR ch-404
ENCODING 404
SWIDTH 1000 0
DWIDTH 16 0
BBX 16 16 0 -2
BITMAP
1040
1040
3f7f
6890
c408
0020
3040
19fe
0102
6102
3102
01fe
0902
1902
3102
61fe
ENDCHAR
STARTCHAR ch-405
ENCODING 405
SWIDTH 1000 0
DWIDTH 16 0
BBX 16 16 0 -2
BITMAP
1040
1040
3f7f
6890
c408
0810
7ffe
0810
0ff0
0810
0ff0
0810
ffff
0810
1818
700e
ENDCHAR
STARTCHAR ch-407
ENCODING 407
SWIDTH 1000 0
DWIDTH 16 0
BBX 16 16 0 -2
BITMAP
2040
2040
7eff
4920
8410
1ff8
1008
1ff8
1008
1ff8
1008
1ff8
0420
ffff
0820
3020
ENDCHAR
STARTCHAR ch-408
ENCODING 408
SWIDTH 1000 0
DWIDTH 16 0
BBX 16 16 0 -2
BITMAP
2040
2040
7eff
c990
0408
7ffe
4002
47e2
4102
5ffa
4542
4d62
593a
4102
4002
7ffe
ENDCHAR
STARTCHAR ch-409
ENCODING 409
SWIDTH 1000 0
DWIDTH 16 0
BBX 16 16 0 -2
BITMAP
1040
1040
3eff
6990
c408
3cfe
2482
2484
3cfe
24a2
24b6
3c94
249c
2488
649e
4cb3
ENDCHAR
STARTCHAR ch-410
ENCODING 410
SWIDTH 1000 0
DWIDTH 16 0
BBX 16 16 0 -2
BITMAP
1040
1040
3eff
6990
c408
0802
1c22
3622
e3a2
3e22
0022
7f22
4122
4102
4102
7f0e
ENDCHAR
STARTCHAR ch-412
ENCODING 412
SWIDTH 1000 0
DWIDTH 16 0
BBX 16 16 0 -2
BITMAP
1040
1040
3eff
6990
c408
0100
7ffe
4422
4c22
f83f
0000
3ffc
0100
0100
0100
ffff
ENDCHAR
STARTCHAR ch-413
ENCODING 413
SWIDTH 1000 0
DWIDTH 16 0
BBX 16 16 0 -2
BITMAP
1040
1040
3eff
6990
cc18
0408
1044
1044
fdff
1044
1044
1c7c
f044
1044
1044
307c
ENDCHAR
STARTCHAR ch-415
ENCODING 415
SWIDTH 1000 0
DWIDTH 16 0
BBX 16 16 0 -2
BITMAP
1040
1040
3eff
6990
c408
1ff8
1008
1ff8
1008
1ff8
0000
104c
1f78
1041
1f43
f03e
ENDCHAR
STARTCHAR ch-417
ENCODING 417
SWIDTH 1000 0
DWIDTH 16 0
BBX 16 16 0 -2
BITMAP
1020
1020
3f7f
4890
8408
0100
7ffe
4002
4ff2
0810
0ff0
0800
0ff8
0808
0808
0ff8
ENDCHAR
STARTCHAR ch-426
ENCODING 426
SWIDTH 1000 0
DWIDTH 16 0
BBX 16 16 0 -2
BITMAP
2020
2020
7f7f
48a0
8410
2104
1088
3ffc
2104
3ffc
2104
3ffc
0100
ffff
0100
0100
ENDCHAR
STARTCHAR ch-429
ENCODING 429
SWIDTH 1000 0
DWIDTH 16 0
BBX 16 16 0 -2
BITMAP
2040
2040
7eff
8920
1008
0810
ffff
0000
3e04
2224
3e24
2224
3e24
2204
2204
261c
ENDCHAR
STARTCHAR ch-433
ENCODING 433
SWIDTH 1000 0
DWIDTH 16 0
BBX 16 16 0 -2
BITMAP
1040
1040
3eff
6890
c508
1000
107e
fe42
1042
387e
3442
5242
907e
1042
1042
107e
ENDCHAR
STARTCHAR ch-436
ENCODING 436
SWIDTH 1000 0
DWIDTH 16 0
BBX 16 16 0 -2
BITMAP
1040
1040
3eff
6988
c424
0028
3fff
2020
2fa0
2032
2f96
289c
2888
6f9d
4077
c1c2
ENDCHAR
STARTCHAR ch-440
ENCODING 440
SWIDTH 1000 0
DWIDTH 16 0
BBX 16 16 0 -2
BITMAP
1040
1040
3eff
68a0
c512
0106
3ffc
0110
ffff
0080
0ffc
f804
0ffc
0804
0804
0ffc
ENDCHAR
STARTCHAR ch-448
ENCODING 448
SWIDTH 1000 0
DWIDTH 16 0
BBX 16 16 0 -2
BITMAP
2040
2040
7eff
5090
8908
0000
7e7e
4242
7e42
4242
7e42
4042
4442
7e4e
c240
0040
ENDCHAR
STARTCHAR ch-449
ENCODING 449
SWIDTH 1000 0
DWIDTH 16 0
BBX 16 16 0 -2
BITMAP
1040
1040
3eff
6890
c508
1ff8
1008
1ff8
1008
1ff8
0000
7ffe
0100
3ffc
0100
ffff
ENDCHAR
STARTCHAR ch-452
ENCODING 452
SWIDTH 1000 0
DWIDTH 16 0
BBX 16 16 0 -2
BITMAP
1020
1020
3f7f
6890
c408
0800
7f3e
0822
7f22
4922
7f22
4926
7f20
0821
7f33
081e
ENDCHAR
STARTCHAR ch-454
ENCODING 454
SWIDTH 1000 0
DWIDTH 16 0
BBX 16 16 0 -2
BITMAP
1040
3eff
6990
c408
0ff0
0810
1ff0
0020
ffff
0200
0d0c
7298
0d40
7260
0c58
f1c7
ENDCHAR
STARTCHAR ch-455
ENCODING 455
SWIDTH 1000 0
DWIDTH 16 0
BBX 16 16 0 -2
BITMAP
2040
2040
7eff
d1a0
0810
ffff
0000
3ffc
2004
3ffc
2000
7ffe
6222
bffe
2222
2226
ENDCHAR
STARTCHAR ch-457
ENCODING 457
SWIDTH 1000 0
DWIDTH 16 0
BBX 16 16 0 -2
BITMAP
2040
2040
7eff
4920
8410
7efc
1084
10a4
1e95
f103
0100
ffff
0520
1d38
f10f
0100
ENDCHAR
STARTCHAR ch-459
ENCODING 459
SWIDTH 1000 0
DWIDTH 16 0
BBX 16 16 0 -2
BITMAP
1040
1040
3eff
6990
c408
3ffe
2080
2ffc
2490
2490
2aa8
21c0
2370
2e1c
2000
3ffe
ENDCHAR
STARTCHAR ch-460
ENCODING 460
SWIDTH 1000 0
DWIDTH 16 0
BBX 16 16 0 -2
BITMAP
1040
1040
3eff
6990
c408
0800
19f8
3008
67ff
e100
21fc
2220
27ff
2050
218c
2707
ENDCHAR
STARTCHAR ch-463
ENCODING 463
SWIDTH 1000 0
DWIDTH 16 0
BBX 16 16 0 -2
BITMAP
1040
1040
3eff
6990
c408
0040
2240
227f
ffc1
2292
2210
3e38
2228
226c
3ec6
0183
ENDCHAR
STARTCHAR ch-477
ENCODING 477
SWIDTH 1000 0
DWIDTH 16 0
BBX 16 16 0 -2
BITMAP
1040
1040
3eff
6990
c428
3ffc
0420
3ffc
0420
ffff
1108
1ff8
1108
ffff
1008
1038
ENDCHAR
STARTCHAR ch-480
ENCODING 480
SWIDTH 1000 0
DWIDTH 16 0
BBX 16 16 0 -2
BITMAP
2040
7e7f
4890
8508
1080
11ff
2b04
2888
6870
ab8f
2820
2bff
28a8
29ac
2327
2020
ENDCHAR
STARTCHAR ch-484
ENCODING 484
SWIDTH 1000 0
DWIDTH 16 0
BBX 16 16 0 -2
BITMAP
1020
1020
3f7f
68d0
c408
1ffe
1080
1ffc
1080
1ffc
1080
1ffe
0002
2492
6496
400c
ENDCHAR
STARTCHAR ch-485
ENCODING 485
SWIDTH 1000 0
DWIDTH 16 0
BBX 16 16 0 -2
BITMAP
2040
2040
7eff
c990
0408
7ffe
0440
3ffc
2444
2444
3ffc
0100
ffff
0540
3938
e10f
ENDCHAR
STARTCHAR ch-486
ENCODING 486
SWIDTH 1000 0
DWIDTH 16 0
BBX 16 16 0 -2
BITMAP
1040
1040
3eff
6890
c508
1ff8
1248
1188
1248
1ff8
0000
104c
1f78
1041
1f43
f03e
ENDCHAR
STARTCHAR ch-489
ENCODING 489
SWIDTH 1000 0
DWIDTH 16 0
BBX 16 16 0 -2
BITMAP
1040
1040
3eff
6990
c408
1000
7dff
4410
44fe
7c92
4092
7c92
4492
4496
7c10
0010
ENDCHAR
STARTCHAR ch-493
ENCODING 493
SWIDTH 1000 0
DWIDTH 16 0
BBX 16 16 0 -2
BITMAP
2040
3f7f
6890
c408
0100
3ffc
0820
ffff
0000
3ffc
2104
3ffc
2104
3ffc
0101
00ff
ENDCHAR
STARTCHAR ch-499
ENCODING 499
SWIDTH 1000 0
DWIDTH 16 0
BBX 16 16 0 -2
BITMAP
2040
7eff
c990
0408
3ffc
2104
3ffc
2104
3ffc
0910
ffff
0910
7ffe
0100
3ffc
0100
ENDCHAR
STARTCHAR ch-502
ENCODING 502
SWIDTH 1000 0
DWIDTH 16 0
BBX 16 16 0 -2
BITMAP
2040
2040
7eff
c990
0408
7ffe
0100
11f8
1100
ffff
1000
1ffc
1000
5ffe
4922
8496
ENDCHAR
STARTCHAR ch-503
ENCODING 503
SWIDTH 1000 0
DWIDTH 16 0
BBX 16 16 0 -2
BITMAP
2040
7eff
c990
0448
60fc
3388
1070
00dc
0727
e1fc
2020
21fc
2020
27ff
7020
cfff
ENDCHAR
ENDFONT
