STARTFONT 2.1
FONT jis.jis5a00.16
SIZE 16 72 72
FONTBOUNDINGBOX 16 16 0 -2
STARTPROPERTIES 4
FONT_DESCENT 2
FONT_ASCENT 14
DEFAULT_CHAR 1
COPYRIGHT "Copyright (c) 1992 AT&T - All rights reserved."
ENDPROPERTIES
CHARS 149
STARTCHAR ch-1
ENCODING 1
SWIDTH 1000 0
DWIDTH 16 0
BBX 16 16 0 -2
BITMAP
0048
004c
0044
7fff
4040
5f40
4044
4464
5fac
4928
4938
5e10
4339
c56d
98c7
8182
ENDCHAR
STARTCHAR ch-3
ENCODING 3
SWIDTH 1000 0
DWIDTH 16 0
BBX 16 16 0 -2
BITMAP
2010
2010
20fe
2010
fc10
2410
25ff
6400
4410
4c10
e8fe
1810
1410
3410
6010
c1ff
ENDCHAR
STARTCHAR ch-9
ENCODING 9
SWIDTH 1000 0
DWIDTH 16 0
BBX 16 16 0 -2
BITMAP
1010
1010
10fe
1092
fcfe
2492
2492
24fe
6400
4dff
4840
f8fe
1402
3402
6006
c01c
ENDCHAR
STARTCHAR ch-17
ENCODING 17
SWIDTH 1000 0
DWIDTH 16 0
BBX 16 16 0 -2
BITMAP
0020
3020
1924
c326
6623
00e4
180c
7038
c3e0
0000
0200
ffff
0810
1f20
01f8
7f0e
ENDCHAR
STARTCHAR ch-24
ENCODING 24
SWIDTH 1000 0
DWIDTH 16 0
BBX 16 16 0 -2
BITMAP
1010
1010
10fe
1082
fc82
24fe
2482
2482
64fe
4c91
4893
fc9a
1688
328c
60f6
c383
ENDCHAR
STARTCHAR ch-26
ENCODING 26
SWIDTH 1000 0
DWIDTH 16 0
BBX 16 16 0 -2
BITMAP
1000
11fe
1122
1122
fdfe
2522
2522
25fe
6400
4c20
49fe
f822
1462
3446
60c4
c39c
ENDCHAR
STARTCHAR ch-28
ENCODING 28
SWIDTH 1000 0
DWIDTH 16 0
BBX 16 16 0 -2
BITMAP
2000
23ef
2129
2129
f929
2bea
292a
692a
4929
5be9
5129
f129
2929
2b2b
6228
c6e8
ENDCHAR
STARTCHAR ch-31
ENCODING 31
SWIDTH 1000 0
DWIDTH 16 0
BBX 16 16 0 -2
BITMAP
1000
10fe
1082
1082
fcfe
2400
24fe
2482
6482
4cfe
4882
fc82
16fe
3282
6082
c08e
ENDCHAR
STARTCHAR ch-32
ENCODING 32
SWIDTH 1000 0
DWIDTH 16 0
BBX 16 16 0 -2
BITMAP
2000
21ff
2100
fd00
257e
2500
2500
6dff
4948
4949
f94b
154a
334c
2244
6676
c0c3
ENDCHAR
STARTCHAR ch-37
ENCODING 37
SWIDTH 1000 0
DWIDTH 16 0
BBX 16 16 0 -2
BITMAP
1054
1096
1392
1090
fc90
27ff
2490
2492
6492
4cd6
4b94
f88c
1488
349d
6097
c1b2
ENDCHAR
STARTCHAR ch-41
ENCODING 41
SWIDTH 1000 0
DWIDTH 16 0
BBX 16 16 0 -2
BITMAP
1040
107c
1044
10cc
fc88
25fe
2492
2492
6492
4cfe
4848
fc48
16c8
3289
6189
c307
ENDCHAR
STARTCHAR ch-47
ENCODING 47
SWIDTH 1000 0
DWIDTH 16 0
BBX 16 16 0 -2
BITMAP
1000
10bc
10a4
10a4
fca4
24bc
2480
2480
6cfe
4802
4802
f9ff
1400
3444
60c6
c183
ENDCHAR
STARTCHAR ch-53
ENCODING 53
SWIDTH 1000 0
DWIDTH 16 0
BBX 16 16 0 -2
BITMAP
2000
27ff
2240
2240
fa7f
2bd1
2a51
6a5b
4a4a
5bca
524e
f244
2a4e
2bca
665b
c051
ENDCHAR
STARTCHAR ch-54
ENCODING 54
SWIDTH 1000 0
DWIDTH 16 0
BBX 16 16 0 -2
BITMAP
0000
ff00
42fe
7e42
4266
7e2c
4238
7e6c
c2c7
0200
0400
ffff
0810
1f20
01f8
7f0e
ENDCHAR
STARTCHAR ch-60
ENCODING 60
SWIDTH 1000 0
DWIDTH 16 0
BBX 16 16 0 -2
BITMAP
1000
10fe
1082
1082
fcfe
2482
2482
24fe
6400
4dff
4901
f901
15ff
3301
6101
c1ff
ENDCHAR
STARTCHAR ch-64
ENCODING 64
SWIDTH 1000 0
DWIDTH 16 0
BBX 16 16 0 -2
BITMAP
2000
23bf
2282
2282
faba
2b2a
2b2a
6aaa
4aaa
5aaa
52ba
f282
2b82
2a02
6202
c20e
ENDCHAR
STARTCHAR ch-65
ENCODING 65
SWIDTH 1000 0
DWIDTH 16 0
BBX 16 16 0 -2
BITMAP
0100
3ffc
2104
ffff
2104
3ffc
0100
3ffc
2104
3ffc
0200
ffff
0810
3fe0
0238
7c0e
ENDCHAR
STARTCHAR ch-70
ENCODING 70
SWIDTH 1000 0
DWIDTH 16 0
BBX 16 16 0 -2
BITMAP
0020
3020
1bfe
c222
63fc
0284
1248
3630
6cdc
c387
0400
ffff
0810
1f20
01f8
7f0e
ENDCHAR
STARTCHAR ch-73
ENCODING 73
SWIDTH 1000 0
DWIDTH 16 0
BBX 16 16 0 -2
BITMAP
2020
2020
23fe
2202
fa02
2900
29de
6952
4b52
5a52
5552
f0d6
2890
2991
6313
c60e
ENDCHAR
STARTCHAR ch-90
ENCODING 90
SWIDTH 1000 0
DWIDTH 16 0
BBX 16 16 0 -2
BITMAP
100e
10f8
1088
1088
fcff
2488
2488
24e5
6583
4cfe
4882
f882
14fe
3282
6082
c0fe
ENDCHAR
STARTCHAR ch-98
ENCODING 98
SWIDTH 1000 0
DWIDTH 16 0
BBX 16 16 0 -2
BITMAP
1020
1040
11fe
1122
fd22
25fe
2522
2522
65fe
4c48
4888
fbff
1408
3208
6008
c008
ENDCHAR
STARTCHAR ch-102
ENCODING 102
SWIDTH 1000 0
DWIDTH 16 0
BBX 16 16 0 -2
BITMAP
1000
10fe
1002
10fe
fc02
24fe
2400
25ff
6d11
4911
48fe
f892
1492
3492
6096
c010
ENDCHAR
STARTCHAR ch-106
ENCODING 106
SWIDTH 1000 0
DWIDTH 16 0
BBX 16 16 0 -2
BITMAP
0810
0810
feff
2854
2e54
6bd6
c893
0810
0200
0200
ffff
0410
0820
1fc0
0278
7c0e
ENDCHAR
STARTCHAR ch-108
ENCODING 108
SWIDTH 1000 0
DWIDTH 16 0
BBX 16 16 0 -2
BITMAP
1006
101c
10f0
1002
fd26
25b4
2490
2406
64fc
4c10
4810
f9ff
1410
3410
6010
c0fe
ENDCHAR
STARTCHAR ch-127
ENCODING 127
SWIDTH 1000 0
DWIDTH 16 0
BBX 16 16 0 -2
BITMAP
1000
11ff
1011
109e
fc90
24d0
25bf
2400
64fe
4c82
48fe
fc82
16fe
3282
6082
c086
ENDCHAR
STARTCHAR ch-146
ENCODING 146
SWIDTH 1000 0
DWIDTH 16 0
BBX 16 16 0 -2
BITMAP
1044
1044
11ff
1044
fc7c
2444
2444
247c
6410
4dff
4854
f854
14d6
3492
6193
c010
ENDCHAR
STARTCHAR ch-154
ENCODING 154
SWIDTH 1000 0
DWIDTH 16 0
BBX 16 16 0 -2
BITMAP
1000
11ff
1111
1111
fdff
2500
257e
2542
6542
4d7e
4942
fd42
157e
3142
6242
c07e
ENDCHAR
STARTCHAR ch-155
ENCODING 155
SWIDTH 1000 0
DWIDTH 16 0
BBX 16 16 0 -2
BITMAP
1006
103c
13e2
1126
fc94
27ff
2440
27ff
6c40
487c
4844
fcec
15b8
3310
667c
c1c7
ENDCHAR
STARTCHAR ch-188
ENCODING 188
SWIDTH 1000 0
DWIDTH 16 0
BBX 16 16 0 -2
BITMAP
1000
107c
1044
1044
fc7c
2444
2444
247c
6400
4cfe
48aa
f8aa
14aa
34aa
60aa
c1ff
ENDCHAR
STARTCHAR ch-189
ENCODING 189
SWIDTH 1000 0
DWIDTH 16 0
BBX 16 16 0 -2
BITMAP
1000
10ff
1090
1090
fcfe
2490
2490
24fe
6490
4c90
48ff
fc01
1555
3155
6203
c00e
ENDCHAR
STARTCHAR ch-190
ENCODING 190
SWIDTH 1000 0
DWIDTH 16 0
BBX 16 16 0 -2
BITMAP
1048
1048
13ff
1048
fdfe
2448
27ff
2420
65fe
4d22
49fe
f922
17ff
3502
6102
c10e
ENDCHAR
STARTCHAR ch-193
ENCODING 193
SWIDTH 1000 0
DWIDTH 16 0
BBX 16 16 0 -2
BITMAP
2020
2020
23fe
fa02
2800
29fc
2840
68a2
4b26
5054
f090
1338
2854
2896
4313
8060
ENDCHAR
STARTCHAR ch-194
ENCODING 194
SWIDTH 1000 0
DWIDTH 16 0
BBX 16 16 0 -2
BITMAP
1010
1010
10fe
1092
fc92
24fe
2492
2492
64fe
4c10
49fe
f846
146c
3438
606c
c1c7
ENDCHAR
STARTCHAR ch-201
ENCODING 201
SWIDTH 1000 0
DWIDTH 16 0
BBX 16 16 0 -2
BITMAP
2010
2010
21ff
2500
fb40
497e
4990
4910
db10
95ff
9128
f128
2b6c
2244
66c6
c183
ENDCHAR
STARTCHAR ch-203
ENCODING 203
SWIDTH 1000 0
DWIDTH 16 0
BBX 16 16 0 -2
BITMAP
2000
27df
2041
2041
fbdf
2a10
2a10
6bdf
4841
5b4d
5145
f0c3
2945
2a49
60c3
c38e
ENDCHAR
STARTCHAR ch-204
ENCODING 204
SWIDTH 1000 0
DWIDTH 16 0
BBX 16 16 0 -2
BITMAP
2104
2088
23ff
2050
fdfe
2452
2452
67ff
4c52
4852
e9fe
1858
14d4
3156
6253
c050
ENDCHAR
STARTCHAR ch-208
ENCODING 208
SWIDTH 1000 0
DWIDTH 16 0
BBX 16 16 0 -2
BITMAP
4008
47c8
4548
4548
f7ff
554a
554a
57ca
510a
d7da
9152
f15e
2944
6b4e
424b
c6d9
ENDCHAR
STARTCHAR ch-214
ENCODING 214
SWIDTH 1000 0
DWIDTH 16 0
BBX 16 16 0 -2
BITMAP
1000
11ff
1028
10fe
fcaa
24aa
24fe
2400
64fe
4c00
49ff
f810
1454
34d6
6193
c030
ENDCHAR
STARTCHAR ch-215
ENCODING 215
SWIDTH 1000 0
DWIDTH 16 0
BBX 16 16 0 -2
BITMAP
1000
11ff
1100
113e
fd22
2522
253e
2500
6577
4d55
4955
f955
1577
3500
61ff
c000
ENDCHAR
STARTCHAR ch-225
ENCODING 225
SWIDTH 1000 0
DWIDTH 16 0
BBX 16 16 0 -2
BITMAP
1010
1010
11ff
1082
fc44
25ff
2511
2511
657d
4d11
497d
f945
1545
357d
6101
c103
ENDCHAR
STARTCHAR ch-227
ENCODING 227
SWIDTH 1000 0
DWIDTH 16 0
BBX 16 16 0 -2
BITMAP
1000
13ff
1010
1090
fc9e
2490
2490
27ff
6480
4cff
4880
f8ff
1401
3555
6155
c203
ENDCHAR
STARTCHAR ch-230
ENCODING 230
SWIDTH 1000 0
DWIDTH 16 0
BBX 16 16 0 -2
BITMAP
1092
10d6
1054
11ff
fd01
257d
2444
2444
647c
4c10
48fe
f892
1492
3492
6096
c010
ENDCHAR
STARTCHAR ch-233
ENCODING 233
SWIDTH 1000 0
DWIDTH 16 0
BBX 16 16 0 -2
BITMAP
2088
2088
23e8
208f
fbea
2aba
2aaa
6aaa
4bea
588e
5084
f1c4
29ae
2a8a
648a
c09b
ENDCHAR
STARTCHAR ch-250
ENCODING 250
SWIDTH 1000 0
DWIDTH 16 0
BBX 16 16 0 -2
BITMAP
2000
23de
2252
23de
fa52
2bde
2a02
6afa
4a8a
5a8a
52fa
f28a
2a8a
2afa
6202
c20e
ENDCHAR
STARTCHAR ch-251
ENCODING 251
SWIDTH 1000 0
DWIDTH 16 0
BBX 16 16 0 -2
BITMAP
2000
23de
2252
23de
fa52
2bde
2a02
6a22
4afa
5a22
5272
f272
2aaa
2a22
6222
c206
ENDCHAR
STARTCHAR ch-265
ENCODING 265
SWIDTH 1000 0
DWIDTH 16 0
BBX 16 16 0 -2
BITMAP
2010
21ff
2010
fcfe
2400
24fe
2482
64fe
4c44
4828
e9ff
1800
14fe
3482
6082
c0fe
ENDCHAR
STARTCHAR ch-267
ENCODING 267
SWIDTH 1000 0
DWIDTH 16 0
BBX 16 16 0 -2
BITMAP
11ef
1129
11ef
1000
fcfe
2492
2492
24fe
6492
4c92
48fe
f810
15ff
3410
6010
c010
ENDCHAR
STARTCHAR ch-268
ENCODING 268
SWIDTH 1000 0
DWIDTH 16 0
BBX 16 16 0 -2
BITMAP
201c
21f0
2020
23ff
f848
28fc
2b4b
6878
4800
59fe
5102
f17a
294a
297a
6102
c10e
ENDCHAR
STARTCHAR ch-278
ENCODING 278
SWIDTH 1000 0
DWIDTH 16 0
BBX 16 16 0 -2
BITMAP
0010
3e10
22fe
2244
3e28
20ff
7e10
52fe
d210
1e10
0400
ffff
0810
1f20
01f8
7f0e
ENDCHAR
STARTCHAR ch-290
ENCODING 290
SWIDTH 1000 0
DWIDTH 16 0
BBX 16 16 0 -2
BITMAP
2020
2020
23ff
2084
fb03
2848
29fe
6848
49fe
5848
53ff
f048
28ca
2b84
60e6
c383
ENDCHAR
STARTCHAR ch-298
ENCODING 298
SWIDTH 1000 0
DWIDTH 16 0
BBX 16 16 0 -2
BITMAP
2020
23ff
2201
21fe
f8a4
2b2b
2830
69fe
4f02
59fe
5102
f1fe
2902
29fe
6084
c303
ENDCHAR
STARTCHAR ch-300
ENCODING 300
SWIDTH 1000 0
DWIDTH 16 0
BBX 16 16 0 -2
BITMAP
1000
11ff
1010
11ff
fd11
25dd
2511
24dc
6c00
49ff
4820
f9ff
1549
3549
6149
c14b
ENDCHAR
STARTCHAR ch-304
ENCODING 304
SWIDTH 1000 0
DWIDTH 16 0
BBX 16 16 0 -2
BITMAP
7e7e
4242
7e7e
4242
7e7e
4242
7e7e
2424
4242
0200
ffff
0410
0860
1fc0
01f8
7e0e
ENDCHAR
STARTCHAR ch-306
ENCODING 306
SWIDTH 1000 0
DWIDTH 16 0
BBX 16 16 0 -2
BITMAP
0100
f91f
a915
a915
ffff
a955
a955
fb5f
2244
fadf
2a85
2b85
688d
49c9
4949
db1b
ENDCHAR
STARTCHAR ch-310
ENCODING 310
SWIDTH 1000 0
DWIDTH 16 0
BBX 16 16 0 -2
BITMAP
2040
21fc
2104
21fc
f904
29fc
2904
6bfe
4a22
5bfe
5222
fbfe
2888
27ff
6108
c608
ENDCHAR
STARTCHAR ch-318
ENCODING 318
SWIDTH 1000 0
DWIDTH 16 0
BBX 16 16 0 -2
BITMAP
4100
413f
47c8
411e
f7d2
5552
555e
5552
57d2
d11e
9392
f392
255e
7544
5116
c133
ENDCHAR
STARTCHAR ch-320
ENCODING 320
SWIDTH 1000 0
DWIDTH 16 0
BBX 16 16 0 -2
BITMAP
4000
43fe
4020
47ff
f421
55ad
5421
51ac
d000
911f
b7d1
e11f
2391
735f
5511
c11f
ENDCHAR
STARTCHAR ch-323
ENCODING 323
SWIDTH 1000 0
DWIDTH 16 0
BBX 16 16 0 -2
BITMAP
2020
27ff
2000
23de
fa52
2bde
2888
6bfe
4888
5bfe
5088
f7ff
28c8
2b8a
60e4
c383
ENDCHAR
STARTCHAR ch-325
ENCODING 325
SWIDTH 1000 0
DWIDTH 16 0
BBX 16 16 0 -2
BITMAP
2228
222a
255b
2559
f808
2fff
2948
6b6a
494a
5b6a
514e
fb64
294c
21ed
6717
c022
ENDCHAR
STARTCHAR ch-336
ENCODING 336
SWIDTH 1000 0
DWIDTH 16 0
BBX 16 16 0 -2
BITMAP
0000
3ff8
0030
0060
00c0
0180
0100
ffff
0100
0100
0100
0100
0100
0100
0100
0700
ENDCHAR
STARTCHAR ch-337
ENCODING 337
SWIDTH 1000 0
DWIDTH 16 0
BBX 16 16 0 -2
BITMAP
0000
3ff8
0030
0060
00c0
0180
0100
010c
01f8
7f00
0100
0100
0100
0100
0100
0700
ENDCHAR
STARTCHAR ch-340
ENCODING 340
SWIDTH 1000 0
DWIDTH 16 0
BBX 16 16 0 -2
BITMAP
0020
7fa0
0320
0620
0c20
0820
0820
0b20
0e20
3820
e820
0820
0820
0821
0833
381e
ENDCHAR
STARTCHAR ch-341
ENCODING 341
SWIDTH 1000 0
DWIDTH 16 0
BBX 16 16 0 -2
BITMAP
0000
7ff8
0408
0410
0c3e
1802
3002
efee
0040
0080
0100
ffff
0100
0100
0100
0700
ENDCHAR
STARTCHAR ch-343
ENCODING 343
SWIDTH 1000 0
DWIDTH 16 0
BBX 16 16 0 -2
BITMAP
0100
0100
7ffe
4002
4002
1ff8
0030
0060
0180
ffff
0100
0100
0100
0100
0100
0700
ENDCHAR
STARTCHAR ch-344
ENCODING 344
SWIDTH 1000 0
DWIDTH 16 0
BBX 16 16 0 -2
BITMAP
0200
0200
ffff
0400
0c00
09fc
1808
3010
7020
d7ff
1020
1020
1020
1020
1020
10e0
ENDCHAR
STARTCHAR ch-346
ENCODING 346
SWIDTH 1000 0
DWIDTH 16 0
BBX 16 16 0 -2
BITMAP
0018
00f0
3f88
210c
2186
6083
dff0
0020
0040
0080
ffff
0100
0100
0100
0100
0700
ENDCHAR
STARTCHAR ch-347
ENCODING 347
SWIDTH 1000 0
DWIDTH 16 0
BBX 16 16 0 -2
BITMAP
0100
0100
ffff
0100
0100
7ffe
4002
4002
1ff0
00c0
0100
ffff
0100
0100
0100
0700
ENDCHAR
STARTCHAR ch-348
ENCODING 348
SWIDTH 1000 0
DWIDTH 16 0
BBX 16 16 0 -2
BITMAP
0040
ff40
0640
0cff
1884
1084
11c4
1c4c
7068
d038
1010
1038
1028
106c
10c6
7183
ENDCHAR
STARTCHAR ch-349
ENCODING 349
SWIDTH 1000 0
DWIDTH 16 0
BBX 16 16 0 -2
BITMAP
0102
0106
3ffc
0118
0120
ffff
0180
0600
1ff8
e020
0040
ffff
0080
0080
0080
0380
ENDCHAR
STARTCHAR ch-351
ENCODING 351
SWIDTH 1000 0
DWIDTH 16 0
BBX 16 16 0 -2
BITMAP
0000
3ff8
0030
00c0
0100
ffff
0100
0100
0700
0000
3ffc
2444
2444
2444
ffff
0000
ENDCHAR
STARTCHAR ch-355
ENCODING 355
SWIDTH 1000 0
DWIDTH 16 0
BBX 16 16 0 -2
BITMAP
0018
00f0
3f80
0100
ffff
0520
0d30
391c
e007
1ff0
0060
0180
ffff
0100
0100
0700
ENDCHAR
STARTCHAR ch-356
ENCODING 356
SWIDTH 1000 0
DWIDTH 16 0
BBX 16 16 0 -2
BITMAP
0006
f83c
0be4
1204
2244
2244
2244
3a44
e244
2244
2244
2254
2256
267a
25ca
ec03
ENDCHAR
STARTCHAR ch-357
ENCODING 357
SWIDTH 1000 0
DWIDTH 16 0
BBX 16 16 0 -2
BITMAP
0800
0800
fffe
1142
3366
222c
7e18
0b6c
3007
cfe0
00c0
0100
ffff
0100
0100
0700
ENDCHAR
STARTCHAR ch-358
ENCODING 358
SWIDTH 1000 0
DWIDTH 16 0
BBX 16 16 0 -2
BITMAP
2204
330c
1108
7ffe
4002
4002
1ff8
0030
00c0
0100
ffff
0100
0100
0100
0100
0700
ENDCHAR
STARTCHAR ch-361
ENCODING 361
SWIDTH 1000 0
DWIDTH 16 0
BBX 16 16 0 -2
BITMAP
0020
fc20
0820
13ff
2040
20c4
218c
38d8
e030
2062
20c6
238c
2018
203c
20e6
e383
ENDCHAR
STARTCHAR ch-363
ENCODING 363
SWIDTH 1000 0
DWIDTH 16 0
BBX 16 16 0 -2
BITMAP
0006
f81c
0bf0
1040
20c4
218c
20d8
2030
3862
e3ff
2021
2124
2124
2326
2623
6020
ENDCHAR
STARTCHAR ch-368
ENCODING 368
SWIDTH 1000 0
DWIDTH 16 0
BBX 16 16 0 -2
BITMAP
0810
0810
ff90
0010
7f7c
4114
7f14
0054
ff54
0674
1824
0f24
f874
0855
08d5
3983
ENDCHAR
STARTCHAR ch-369
ENCODING 369
SWIDTH 1000 0
DWIDTH 16 0
BBX 16 16 0 -2
BITMAP
0000
3ffe
2002
3ffe
2000
23f0
2020
2ffe
2040
20c0
2f3e
2204
7fbf
4408
c408
0c18
ENDCHAR
STARTCHAR ch-371
ENCODING 371
SWIDTH 1000 0
DWIDTH 16 0
BBX 16 16 0 -2
BITMAP
1008
0810
ffff
0810
3264
1428
0a14
7d7a
0000
1ff0
00c0
0100
ffff
0100
0100
0700
ENDCHAR
STARTCHAR ch-373
ENCODING 373
SWIDTH 1000 0
DWIDTH 16 0
BBX 16 16 0 -2
BITMAP
3003
e78e
94f8
9481
94ab
94aa
d680
b5be
9484
9488
94ff
d488
b588
2408
6408
c438
ENDCHAR
STARTCHAR ch-376
ENCODING 376
SWIDTH 1000 0
DWIDTH 16 0
BBX 16 16 0 -2
BITMAP
0c00
3a5c
2184
3a5c
2004
3a5c
2184
2244
7ffe
4002
5ff2
00c0
0100
ffff
0100
0700
ENDCHAR
STARTCHAR ch-378
ENCODING 378
SWIDTH 1000 0
DWIDTH 16 0
BBX 16 16 0 -2
BITMAP
0000
fbfe
0820
17ff
2421
25ad
2421
39ac
e000
27ff
2020
27ff
2491
2491
2491
e493
ENDCHAR
STARTCHAR ch-384
ENCODING 384
SWIDTH 1000 0
DWIDTH 16 0
BBX 16 16 0 -2
BITMAP
0000
0000
0000
0000
0100
0100
0100
7ffe
4002
4002
4002
0000
0000
0000
0000
0000
ENDCHAR
STARTCHAR ch-387
ENCODING 387
SWIDTH 1000 0
DWIDTH 16 0
BBX 16 16 0 -2
BITMAP
0100
0100
7ffe
4002
4002
0800
0800
0818
08f0
0f80
0800
0800
0802
0806
0c04
07fc
ENDCHAR
STARTCHAR ch-389
ENCODING 389
SWIDTH 1000 0
DWIDTH 16 0
BBX 16 16 0 -2
BITMAP
0100
0100
7ffe
4002
4032
41e2
3f00
0200
0200
ffff
0200
0200
0200
0202
0306
01fc
ENDCHAR
STARTCHAR ch-391
ENCODING 391
SWIDTH 1000 0
DWIDTH 16 0
BBX 16 16 0 -2
BITMAP
0100
0100
7ffe
4002
4002
5ffa
0100
0100
0100
ffff
0100
0100
0100
0100
0100
0700
ENDCHAR
STARTCHAR ch-392
ENCODING 392
SWIDTH 1000 0
DWIDTH 16 0
BBX 16 16 0 -2
BITMAP
0100
0100
7ffe
4002
4002
0020
0020
ffff
0020
1820
0c20
0420
0020
0020
0020
00e0
ENDCHAR
STARTCHAR ch-393
ENCODING 393
SWIDTH 1000 0
DWIDTH 16 0
BBX 16 16 0 -2
BITMAP
0100
0100
7ffe
4002
4202
0600
0400
ffff
0808
1818
1030
3e60
03c0
0670
1c1c
7006
ENDCHAR
STARTCHAR ch-395
ENCODING 395
SWIDTH 1000 0
DWIDTH 16 0
BBX 16 16 0 -2
BITMAP
0100
0100
7ffe
4002
4102
0100
0100
ffff
0520
0d30
0910
1918
310c
e107
0100
0100
ENDCHAR
STARTCHAR ch-396
ENCODING 396
SWIDTH 1000 0
DWIDTH 16 0
BBX 16 16 0 -2
BITMAP
0100
0100
7ffe
4002
4002
1ff8
0000
0000
ffff
0420
0420
0c20
0820
1821
3033
e01e
ENDCHAR
STARTCHAR ch-397
ENCODING 397
SWIDTH 1000 0
DWIDTH 16 0
BBX 16 16 0 -2
BITMAP
0100
0100
0100
7ffe
4002
4102
4102
0100
ffff
0000
0810
0810
1818
300c
6006
c003
ENDCHAR
STARTCHAR ch-399
ENCODING 399
SWIDTH 1000 0
DWIDTH 16 0
BBX 16 16 0 -2
BITMAP
0100
0100
7ffe
4002
4202
0200
ffff
0400
0440
0cc0
0880
1988
310c
6304
c23e
07e3
ENDCHAR
STARTCHAR ch-405
ENCODING 405
SWIDTH 1000 0
DWIDTH 16 0
BBX 16 16 0 -2
BITMAP
0100
0100
7ffe
4002
4002
0000
ffff
0200
0600
0c00
3ffc
e804
0804
0804
0804
0ffc
ENDCHAR
STARTCHAR ch-407
ENCODING 407
SWIDTH 1000 0
DWIDTH 16 0
BBX 16 16 0 -2
BITMAP
0100
0100
7ffe
4002
4002
4ff2
0000
0000
ffff
0100
1108
1108
310c
6106
c103
0700
ENDCHAR
STARTCHAR ch-408
ENCODING 408
SWIDTH 1000 0
DWIDTH 16 0
BBX 16 16 0 -2
BITMAP
0100
0100
ffff
8001
8001
1ff8
1008
1008
1ff8
1000
1000
1ffc
1004
1004
1004
1ffc
ENDCHAR
STARTCHAR ch-409
ENCODING 409
SWIDTH 1000 0
DWIDTH 16 0
BBX 16 16 0 -2
BITMAP
0100
0100
0100
7ffe
4002
4102
0100
3ffc
2104
2104
2104
3ffc
2104
2104
2104
3ffc
ENDCHAR
STARTCHAR ch-410
ENCODING 410
SWIDTH 1000 0
DWIDTH 16 0
BBX 16 16 0 -2
BITMAP
0100
0100
7ffe
4002
4002
1ff8
0100
0100
1100
11f8
1100
1100
3900
2d00
6700
c1ff
ENDCHAR
STARTCHAR ch-411
ENCODING 411
SWIDTH 1000 0
DWIDTH 16 0
BBX 16 16 0 -2
BITMAP
0100
0100
7ffe
4002
5002
1000
1f7c
3144
2344
7a44
ce44
044c
0c40
1841
3063
e03e
ENDCHAR
STARTCHAR ch-412
ENCODING 412
SWIDTH 1000 0
DWIDTH 16 0
BBX 16 16 0 -2
BITMAP
0100
0100
7ffe
4002
4002
0ff0
0810
0810
0ff0
0810
0810
0ff0
0810
0810
ffff
0000
ENDCHAR
STARTCHAR ch-413
ENCODING 413
SWIDTH 1000 0
DWIDTH 16 0
BBX 16 16 0 -2
BITMAP
0100
0100
7ffe
4002
4002
5ffa
0100
0100
0100
1ff8
0100
0110
0118
0108
ffff
0000
ENDCHAR
STARTCHAR ch-415
ENCODING 415
SWIDTH 1000 0
DWIDTH 16 0
BBX 16 16 0 -2
BITMAP
0100
0100
7ffe
4002
4102
1ff8
0100
0100
1ff8
0100
0100
ffff
0240
0660
1c38
f00f
ENDCHAR
STARTCHAR ch-418
ENCODING 418
SWIDTH 1000 0
DWIDTH 16 0
BBX 16 16 0 -2
BITMAP
0100
0100
7ffe
4402
47f2
0820
1440
6380
06e0
1c38
f00f
1ff8
1008
1008
1008
1ff8
ENDCHAR
STARTCHAR ch-419
ENCODING 419
SWIDTH 1000 0
DWIDTH 16 0
BBX 16 16 0 -2
BITMAP
0100
0100
7ffe
4002
5ffa
0000
1ff8
1008
1008
1ff8
1008
1008
1ff8
0000
ffff
0000
ENDCHAR
STARTCHAR ch-420
ENCODING 420
SWIDTH 1000 0
DWIDTH 16 0
BBX 16 16 0 -2
BITMAP
0100
0100
7ffe
4002
4002
3ffc
0400
0810
1ff8
0108
0100
3ffc
0100
0100
ffff
0000
ENDCHAR
STARTCHAR ch-421
ENCODING 421
SWIDTH 1000 0
DWIDTH 16 0
BBX 16 16 0 -2
BITMAP
0100
0100
7ffe
4002
4202
ffff
0200
0400
0ffc
1c04
37fc
e404
07fc
0404
0404
041c
ENDCHAR
STARTCHAR ch-422
ENCODING 422
SWIDTH 1000 0
DWIDTH 16 0
BBX 16 16 0 -2
BITMAP
0100
0100
7ffe
4002
4002
1ffc
1080
1080
1ff8
1008
1008
1ff8
1080
1080
1080
1ffc
ENDCHAR
STARTCHAR ch-430
ENCODING 430
SWIDTH 1000 0
DWIDTH 16 0
BBX 16 16 0 -2
BITMAP
0100
0100
7ffe
4002
4002
1ff8
1008
1008
1ff8
0100
0200
3ffc
2004
2004
2004
3ffc
ENDCHAR
STARTCHAR ch-432
ENCODING 432
SWIDTH 1000 0
DWIDTH 16 0
BBX 16 16 0 -2
BITMAP
0100
0100
7ffe
4002
4102
3ffc
0810
0420
ffff
0100
0100
7ffe
0100
0100
0100
0100
ENDCHAR
STARTCHAR ch-435
ENCODING 435
SWIDTH 1000 0
DWIDTH 16 0
BBX 16 16 0 -2
BITMAP
0100
0100
7ffe
4002
4102
3ffc
0100
3ffc
0100
ffff
0000
1ff8
1008
1008
1008
1ff8
ENDCHAR
STARTCHAR ch-436
ENCODING 436
SWIDTH 1000 0
DWIDTH 16 0
BBX 16 16 0 -2
BITMAP
0100
0100
7ffe
4002
4ff2
0810
0ff0
0810
0ff0
0200
ffff
0410
0830
1fe0
0338
3c0c
ENDCHAR
STARTCHAR ch-437
ENCODING 437
SWIDTH 1000 0
DWIDTH 16 0
BBX 16 16 0 -2
BITMAP
0100
0100
ffff
8001
9109
1918
0910
3ffc
2004
3ffc
2004
3ffc
2004
2004
2004
201c
ENDCHAR
STARTCHAR ch-438
ENCODING 438
SWIDTH 1000 0
DWIDTH 16 0
BBX 16 16 0 -2
BITMAP
0100
0100
7ffe
4002
4002
1ff8
0200
0d06
718c
0698
1cc0
71e0
06b0
1c9c
f187
0700
ENDCHAR
STARTCHAR ch-440
ENCODING 440
SWIDTH 1000 0
DWIDTH 16 0
BBX 16 16 0 -2
BITMAP
0100
0100
ffff
8001
8001
3ffc
2000
2ff8
2000
3ffe
2440
2466
642c
4430
c79c
1c07
ENDCHAR
STARTCHAR ch-441
ENCODING 441
SWIDTH 1000 0
DWIDTH 16 0
BBX 16 16 0 -2
BITMAP
0100
0100
7ffe
4002
4812
1918
738e
06c0
0c70
381c
e007
1ff8
1008
1008
1008
1ff8
ENDCHAR
STARTCHAR ch-447
ENCODING 447
SWIDTH 1000 0
DWIDTH 16 0
BBX 16 16 0 -2
BITMAP
0100
0100
7ffe
4002
5002
17ff
3020
2040
63fe
a202
2202
23fe
2202
2202
2202
23fe
ENDCHAR
STARTCHAR ch-450
ENCODING 450
SWIDTH 1000 0
DWIDTH 16 0
BBX 16 16 0 -2
BITMAP
0100
0100
7ffe
4002
4802
0f00
08fe
0842
ff46
0864
2a2c
2a38
6b10
c9b8
086c
38c7
ENDCHAR
STARTCHAR ch-451
ENCODING 451
SWIDTH 1000 0
DWIDTH 16 0
BBX 16 16 0 -2
BITMAP
0100
0100
7ffe
4402
4fe2
1840
3080
fffc
2104
2104
3ffc
0490
0c98
1889
30c3
e07e
ENDCHAR
STARTCHAR ch-452
ENCODING 452
SWIDTH 1000 0
DWIDTH 16 0
BBX 16 16 0 -2
BITMAP
0100
0100
7ffe
4002
4102
3ffc
0240
0c30
0000
ffff
0008
1f88
1088
1088
1f88
0038
ENDCHAR
STARTCHAR ch-453
ENCODING 453
SWIDTH 1000 0
DWIDTH 16 0
BBX 16 16 0 -2
BITMAP
0100
0100
7ffe
4002
5ffa
0100
3ffc
2104
2104
3ffc
2104
2104
3ffc
0810
1818
700e
ENDCHAR
STARTCHAR ch-454
ENCODING 454
SWIDTH 1000 0
DWIDTH 16 0
BBX 16 16 0 -2
BITMAP
0100
0100
7ffe
4102
4182
04a0
2446
648b
c719
1df0
f000
0100
2104
2104
2104
3ffc
ENDCHAR
STARTCHAR ch-455
ENCODING 455
SWIDTH 1000 0
DWIDTH 16 0
BBX 16 16 0 -2
BITMAP
0100
0100
ffff
8001
8011
7e1e
0010
00fc
ff44
246c
2438
246c
24c6
6401
4603
c3fe
ENDCHAR
STARTCHAR ch-457
ENCODING 457
SWIDTH 1000 0
DWIDTH 16 0
BBX 16 16 0 -2
BITMAP
0100
0100
7ffe
4402
4c22
0840
1ffc
3080
7080
dff8
1080
1080
1ff8
1080
1080
1ffe
ENDCHAR
STARTCHAR ch-460
ENCODING 460
SWIDTH 1000 0
DWIDTH 16 0
BBX 16 16 0 -2
BITMAP
0100
0100
7ffe
4002
5ffa
0000
0ff0
0810
0ff0
0000
3ffc
2104
3ffc
2104
2104
3ffc
ENDCHAR
STARTCHAR ch-464
ENCODING 464
SWIDTH 1000 0
DWIDTH 16 0
BBX 16 16 0 -2
BITMAP
0100
0100
7ffe
4002
5022
1020
93fe
d020
5020
17ff
10a8
70a8
d1ac
1326
1623
1060
ENDCHAR
STARTCHAR ch-466
ENCODING 466
SWIDTH 1000 0
DWIDTH 16 0
BBX 16 16 0 -2
BITMAP
0100
0100
7ffe
4002
4422
3ffc
0420
3ffc
0420
ffff
0810
3bdc
e067
0f00
01e0
0030
ENDCHAR
STARTCHAR ch-467
ENCODING 467
SWIDTH 1000 0
DWIDTH 16 0
BBX 16 16 0 -2
BITMAP
0100
0100
7ffe
4002
5ffa
1108
1ff8
1108
1ff8
0100
7ffe
4102
4122
43f2
5e12
4006
ENDCHAR
STARTCHAR ch-468
ENCODING 468
SWIDTH 1000 0
DWIDTH 16 0
BBX 16 16 0 -2
BITMAP
0100
0100
7ffe
4002
4ff2
0810
0ff0
0810
0ff0
0000
ffff
1100
11fc
3900
6f00
c1ff
ENDCHAR
STARTCHAR ch-475
ENCODING 475
SWIDTH 1000 0
DWIDTH 16 0
BBX 16 16 0 -2
BITMAP
0100
0100
ffff
8421
bffd
0420
1ff8
1008
1ff8
1008
1ff8
1008
1ff8
0421
1c23
f01e
ENDCHAR
STARTCHAR ch-477
ENCODING 477
SWIDTH 1000 0
DWIDTH 16 0
BBX 16 16 0 -2
BITMAP
0100
0100
7ffe
4002
51fa
1008
91f8
d008
51f8
1000
17fe
7402
d1f8
1088
1070
178f
ENDCHAR
STARTCHAR ch-478
ENCODING 478
SWIDTH 1000 0
DWIDTH 16 0
BBX 16 16 0 -2
BITMAP
0100
0100
7ffe
4422
5ffa
0420
1ff8
1008
1ff8
1008
1ff8
0100
ffff
0240
1c38
f00f
ENDCHAR
STARTCHAR ch-479
ENCODING 479
SWIDTH 1000 0
DWIDTH 16 0
BBX 16 16 0 -2
BITMAP
0100
0100
7ffe
4802
4f7a
1188
6a50
2420
1818
e7e7
0000
3ffc
0100
1918
710e
0700
ENDCHAR
STARTCHAR ch-481
ENCODING 481
SWIDTH 1000 0
DWIDTH 16 0
BBX 16 16 0 -2
BITMAP
0100
ffff
8001
bffd
0100
1ff8
1008
1ff8
1008
1ff8
1008
ffff
2004
dffb
0408
3838
ENDCHAR
STARTCHAR ch-482
ENCODING 482
SWIDTH 1000 0
DWIDTH 16 0
BBX 16 16 0 -2
BITMAP
0100
0100
7ffe
4002
09fa
4808
49f8
7808
09f8
0800
fbfe
2a02
29f8
4888
8870
0b8f
ENDCHAR
STARTCHAR ch-484
ENCODING 484
SWIDTH 1000 0
DWIDTH 16 0
BBX 16 16 0 -2
BITMAP
0100
0100
7ffe
4002
5002
13fc
9040
d3fc
5084
1084
17ff
7000
d1fc
1104
1104
11fc
ENDCHAR
STARTCHAR ch-485
ENCODING 485
SWIDTH 1000 0
DWIDTH 16 0
BBX 16 16 0 -2
BITMAP
0100
0100
ffff
8001
befd
1224
0e1c
3b64
0684
1870
e30f
1c40
0188
0e30
00c0
1f00
ENDCHAR
STARTCHAR ch-486
ENCODING 486
SWIDTH 1000 0
DWIDTH 16 0
BBX 16 16 0 -2
BITMAP
0100
7ffe
4002
5ffa
1108
ffff
1108
3ffc
2004
3ffc
2004
3ffc
2004
3ffc
0810
700e
ENDCHAR
STARTCHAR ch-487
ENCODING 487
SWIDTH 1000 0
DWIDTH 16 0
BBX 16 16 0 -2
BITMAP
0100
0100
7ffe
4102
548a
342c
67e6
0000
3ffc
2444
3ffc
0000
ffff
0100
0100
0700
ENDCHAR
STARTCHAR ch-488
ENCODING 488
SWIDTH 1000 0
DWIDTH 16 0
BBX 16 16 0 -2
BITMAP
0100
0100
7ffe
4422
5ffa
0420
1ff8
0420
ffff
0810
310c
dffb
0520
1d38
710e
0100
ENDCHAR
STARTCHAR ch-489
ENCODING 489
SWIDTH 1000 0
DWIDTH 16 0
BBX 16 16 0 -2
BITMAP
0100
0100
7ffe
4002
4ff2
1108
0910
ffff
0520
0910
3ffc
d10b
1ff8
1108
1108
1ff8
ENDCHAR
STARTCHAR ch-491
ENCODING 491
SWIDTH 1000 0
DWIDTH 16 0
BBX 16 16 0 -2
BITMAP
0100
0100
7ffe
4202
5c7a
1008
1e78
1008
1ff8
0800
1ffe
3022
e492
1256
1244
201c
ENDCHAR
STARTCHAR ch-494
ENCODING 494
SWIDTH 1000 0
DWIDTH 16 0
BBX 16 16 0 -2
BITMAP
0100
7ffe
4002
0100
ffff
4242
2424
1ff8
f00f
1ff8
1008
1ff8
0910
391c
e107
0700
ENDCHAR
STARTCHAR ch-496
ENCODING 496
SWIDTH 1000 0
DWIDTH 16 0
BBX 16 16 0 -2
BITMAP
0100
7ffe
4002
5ffa
1248
1ff8
0000
ffff
0000
1ff8
1008
1ffa
0486
1864
ef38
180f
ENDCHAR
STARTCHAR ch-499
ENCODING 499
SWIDTH 1000 0
DWIDTH 16 0
BBX 16 16 0 -2
BITMAP
0100
7ffe
4042
3e7c
0890
3e54
0892
7ff8
1008
1ff8
1008
1ff8
1008
1ff8
0810
700e
ENDCHAR
STARTCHAR ch-501
ENCODING 501
SWIDTH 1000 0
DWIDTH 16 0
BBX 16 16 0 -2
BITMAP
0100
7ffe
4822
ff3f
4220
243e
ff02
003e
7e20
423e
7e20
423e
7e20
423e
4221
461f
ENDCHAR
STARTCHAR ch-502
ENCODING 502
SWIDTH 1000 0
DWIDTH 16 0
BBX 16 16 0 -2
BITMAP
0100
7ffe
4042
3e7c
0890
3e7c
0892
7ffe
1008
1ff8
1008
1ff8
1008
1ff8
0810
700e
ENDCHAR
STARTCHAR ch-504
ENCODING 504
SWIDTH 1000 0
DWIDTH 16 0
BBX 16 16 0 -2
BITMAP
0010
0010
0010
0010
ffff
0010
0010
1810
0c10
0610
0210
0010
0010
0010
0010
0070
ENDCHAR
STARTCHAR ch-506
ENCODING 506
SWIDTH 1000 0
DWIDTH 16 0
BBX 16 16 0 -2
BITMAP
0100
0100
3ffc
0100
0100
0100
ffff
0010
0010
7ffe
0010
1810
0c10
0410
0010
0070
ENDCHAR
STARTCHAR ch-510
ENCODING 510
SWIDTH 1000 0
DWIDTH 16 0
BBX 16 16 0 -2
BITMAP
0804
0804
0804
ff84
027f
0204
6604
3464
1c34
0814
1c04
1604
3304
6104
c004
001c
ENDCHAR
STARTCHAR ch-511
ENCODING 511
SWIDTH 1000 0
DWIDTH 16 0
BBX 16 16 0 -2
BITMAP
0200
0200
7ffe
0200
3ffc
0200
7ffe
0400
0408
ffff
0808
1b08
3188
6088
c008
0038
ENDCHAR
ENDFONT
