STARTFONT 2.1
FONT jis.jis6200.24
SIZE 24 72 72
FONTBOUNDINGBOX 24 24 0 -3
STARTPROPERTIES 4
FONT_DESCENT 3
FONT_ASCENT 21
DEFAULT_CHAR 0
COPYRIGHT "Copyright (c) 1992 AT&T - All rights reserved."
ENDPROPERTIES
CHARS 192
STARTCHAR ch-0
ENCODING 0
SWIDTH 1000 0
DWIDTH 24 0
BBX 24 24 0 -3
BITMAP
080008
0c7e0c
580058
64ff64
260026
0c7e0c
180018
227e22
ff00ff
690069
087e08
2a424c
39426b
694249
887e88
080008
001000
01cc10
11860c
318646
618043
e18063
c1ffe0
00ffc0
ENDCHAR
STARTCHAR ch-8
ENCODING 8
SWIDTH 1000 0
DWIDTH 24 0
BBX 24 24 0 -3
BITMAP
007000
006080
006060
006030
006030
006000
006006
ffffff
006000
007040
003070
0030e0
0038c0
0019c0
001b80
000f00
000e00
001f04
007384
01c1c4
0700e4
38007e
00003e
00000c
ENDCHAR
STARTCHAR ch-9
ENCODING 9
SWIDTH 1000 0
DWIDTH 24 0
BBX 24 24 0 -3
BITMAP
000e40
000c30
000c18
000c18
100c06
1fffff
180c00
180c00
180c00
180e08
18060e
18061c
180618
180338
180370
1801e0
180080
19c1c2
1f0362
fc0672
700c3a
40381f
00e00f
070006
ENDCHAR
STARTCHAR ch-10
ENCODING 10
SWIDTH 1000 0
DWIDTH 24 0
BBX 24 24 0 -3
BITMAP
000e40
000c30
000c18
000c18
000c00
100c0c
1ffffe
180c00
180c00
180c20
180c38
180c30
180660
180660
1806c0
180380
180300
300782
300dc2
3018e2
203072
60c03f
43001f
800006
ENDCHAR
STARTCHAR ch-12
ENCODING 12
SWIDTH 1000 0
DWIDTH 24 0
BBX 24 24 0 -3
BITMAP
000e40
000c30
000c18
000c18
200c06
3fffff
300c00
300c00
300c00
300e08
30060e
30661c
37f618
300338
300370
3001e0
300080
2001c2
200362
600672
400c3a
40381f
80e00f
070006
ENDCHAR
STARTCHAR ch-13
ENCODING 13
SWIDTH 1000 0
DWIDTH 24 0
BBX 24 24 0 -3
BITMAP
000e40
000c30
000c18
000c18
200c06
3fffff
300c00
300c00
300c00
300e08
32060e
31861c
30c618
30e338
306370
3001e0
300080
2001c2
200362
600672
400c3a
40381f
80e00f
070006
ENDCHAR
STARTCHAR ch-14
ENCODING 14
SWIDTH 1000 0
DWIDTH 24 0
BBX 24 24 0 -3
BITMAP
000e00
000c80
000c60
000c30
000c30
000c06
ffffff
000c00
000c20
070c38
060c30
060c60
064460
ffe6c0
0606c0
060380
060100
0c0382
0c06c2
180ce2
101872
20303f
40c01f
030006
ENDCHAR
STARTCHAR ch-16
ENCODING 16
SWIDTH 1000 0
DWIDTH 24 0
BBX 24 24 0 -3
BITMAP
000e80
000c60
000c30
000c30
200c0c
3ffffe
300c00
300c00
300c00
30cc20
3fec38
30c430
30c660
30c660
30c2c0
30c380
30c100
30c380
3186c2
378ce2
231872
60303f
40c01f
800006
ENDCHAR
STARTCHAR ch-17
ENCODING 17
SWIDTH 1000 0
DWIDTH 24 0
BBX 24 24 0 -3
BITMAP
006700
00f620
03c618
0f060c
73060c
030600
030600
030606
ffffff
030600
030608
03030e
03630c
0f831c
fb0198
7301b0
4300e0
0300c0
0301e2
030372
03063a
03181e
3f000f
0e0003
ENDCHAR
STARTCHAR ch-18
ENCODING 18
SWIDTH 1000 0
DWIDTH 24 0
BBX 24 24 0 -3
BITMAP
000e40
000c30
000c18
000c18
000c06
ffffff
000600
000600
1ce608
18c60e
18c60c
18c30c
fffb18
18c318
18c1b0
18c1b0
18c0e0
18c0c2
18c1e2
10c372
30c63a
200c1f
40300f
80c006
ENDCHAR
STARTCHAR ch-20
ENCODING 20
SWIDTH 1000 0
DWIDTH 24 0
BBX 24 24 0 -3
BITMAP
00e400
00c300
00c118
7ffffc
006100
003380
001f10
003c10
00e718
0783f8
7800f0
007200
006180
006086
7fffff
003080
0018e0
0019c0
000f00
001e04
007384
03c1e6
3c007e
00001c
ENDCHAR
STARTCHAR ch-22
ENCODING 22
SWIDTH 1000 0
DWIDTH 24 0
BBX 24 24 0 -3
BITMAP
000e80
000c60
000c30
000c30
000c06
ffffff
000c00
000c00
20cc10
3fe61c
30c618
30c618
30c630
30c330
30c320
3fc160
30c1c0
300082
0031c2
03c362
fe0672
700c3f
40301f
01c006
ENDCHAR
STARTCHAR ch-26
ENCODING 26
SWIDTH 1000 0
DWIDTH 24 0
BBX 24 24 0 -3
BITMAP
0003a0
000318
000318
200306
3fffff
300300
30e300
30c308
30c30e
30fb0c
30c10c
30c198
3ffd98
30c190
30c0b0
34d0e0
36c840
36cce0
24cca2
24c132
68c21a
43c41f
41980f
800006
ENDCHAR
STARTCHAR ch-27
ENCODING 27
SWIDTH 1000 0
DWIDTH 24 0
BBX 24 24 0 -3
BITMAP
000006
ffffff
003000
002000
07ffe0
060060
060060
07ffe0
060060
060060
07ffe0
060060
060060
07ffe0
00e0c0
00c066
ffffff
006100
003380
001f04
001c04
0077c6
03c1fe
3c003c
ENDCHAR
STARTCHAR ch-29
ENCODING 29
SWIDTH 1000 0
DWIDTH 24 0
BBX 24 24 0 -3
BITMAP
20c1c0
3fe190
30c18c
30c186
30c186
30c180
3fc186
30ffff
30c180
30c180
30c188
3fc18e
30c0cc
30c0d8
30c0d8
30c070
3fc060
000062
1180f2
1cc1b2
18e31a
30661f
600c0f
803006
ENDCHAR
STARTCHAR ch-30
ENCODING 30
SWIDTH 1000 0
DWIDTH 24 0
BBX 24 24 0 -3
BITMAP
000006
ffffff
003000
002000
07ffe0
060060
060060
07ffe0
060060
060060
07ffe0
260060
260066
7fffff
600406
c0e304
c0c108
1fffe0
006100
003388
001e08
00778c
03c1fc
3c0038
ENDCHAR
STARTCHAR ch-31
ENCODING 31
SWIDTH 1000 0
DWIDTH 24 0
BBX 24 24 0 -3
BITMAP
070390
06030c
063306
fffb06
060300
466300
7ff30c
6063fe
607f00
606300
7fe308
60630e
60630c
606198
7fe198
6661b0
0601b0
0630e2
fff8c2
0601e2
060372
06063f
06181f
066006
ENDCHAR
STARTCHAR ch-33
ENCODING 33
SWIDTH 1000 0
DWIDTH 24 0
BBX 24 24 0 -3
BITMAP
1c71c0
186198
186186
fffd86
186180
186182
1fe18f
1861f0
186f80
186188
1fe18e
18618c
1860cc
1860d8
fffcd8
66c0d0
64c070
6cf862
6878e2
7000b2
60019a
7ffb1f
60060f
601806
ENDCHAR
STARTCHAR ch-38
ENCODING 38
SWIDTH 1000 0
DWIDTH 24 0
BBX 24 24 0 -3
BITMAP
0821c0
863998
633186
332186
304180
401982
7ff98f
6319f0
631f80
631988
7ff98e
63198c
6318cc
6318d8
7ff8d8
6318d0
030070
031862
fffce2
0300b2
03019a
03031f
030c0f
033006
ENDCHAR
STARTCHAR ch-42
ENCODING 42
SWIDTH 1000 0
DWIDTH 24 0
BBX 24 24 0 -3
BITMAP
01c1c0
018190
019988
3ffd8c
01818c
018180
018186
ffffff
080180
0e4184
1c6187
18c886
3ffcc6
3180cc
7190cc
bff858
318058
319072
3ff822
318072
31805a
31889f
3ffd0f
300206
ENDCHAR
STARTCHAR ch-46
ENCODING 46
SWIDTH 1000 0
DWIDTH 24 0
BBX 24 24 0 -3
BITMAP
0408e0
fffcc8
4488c6
64c8c6
2448c0
0c18c6
3468cf
e5c8f0
448bc0
0008c4
0300c7
06e046
0c3866
311c6c
c38c6c
064038
18e030
619072
063852
3870da
00e19a
03830f
0e060f
701806
ENDCHAR
STARTCHAR ch-47
ENCODING 47
SWIDTH 1000 0
DWIDTH 24 0
BBX 24 24 0 -3
BITMAP
0701c0
066190
07f188
06018c
46318c
7ff980
603186
66219f
6781f0
7e0f84
662187
63e186
600186
6280cc
6290cc
729cc8
7a9858
6a9072
6aa022
428072
4298da
7fe19f
9e030f
101c06
ENDCHAR
STARTCHAR ch-48
ENCODING 48
SWIDTH 1000 0
DWIDTH 24 0
BBX 24 24 0 -3
BITMAP
4c99c0
7efd98
4c9986
4c9986
4c9980
7cf982
00018f
4019f0
7fff80
631988
63198e
7ff98c
6318cc
6318d8
7ff8d8
6318d0
030070
030c62
fffee2
0300b2
03019a
03031f
030c0f
033006
ENDCHAR
STARTCHAR ch-50
ENCODING 50
SWIDTH 1000 0
DWIDTH 24 0
BBX 24 24 0 -3
BITMAP
0701c0
066190
07f188
06018c
46198c
7ffd80
621986
63d19f
6e01f0
621784
63f187
600186
7ff886
6000cc
6ff0cc
6810c8
681058
6ff072
642022
422072
4240da
5ff99f
8f030f
080c06
ENDCHAR
STARTCHAR ch-51
ENCODING 51
SWIDTH 1000 0
DWIDTH 24 0
BBX 24 24 0 -3
BITMAP
0c18e0
7efcc8
0c18c6
0c18c6
7cf8c0
0c18c6
0c18cf
7cf8f0
0c1bc0
1040c4
1c60c7
18c046
308866
3ffc6c
70806c
b09028
3ff838
308012
309032
3ff83a
30806a
3088cf
3ffd8f
300206
ENDCHAR
STARTCHAR ch-52
ENCODING 52
SWIDTH 1000 0
DWIDTH 24 0
BBX 24 24 0 -3
BITMAP
01c1d0
018188
01998c
3ffd8c
018180
018186
ffffff
000180
3ff980
210990
3ff99c
210998
3ff998
044190
0440b0
7ffca0
0440e2
044042
fffee2
0880b2
0e619a
1c310e
303207
c00c03
ENDCHAR
STARTCHAR ch-56
ENCODING 56
SWIDTH 1000 0
DWIDTH 24 0
BBX 24 24 0 -3
BITMAP
000000
000006
ffffff
000000
000000
080030
0ffff8
0c0030
0c0030
0c0030
0c0030
0c0030
0ffff0
0c0030
0c0030
0c0000
0c0000
180000
180000
100000
300000
200000
400000
800000
ENDCHAR
STARTCHAR ch-59
ENCODING 59
SWIDTH 1000 0
DWIDTH 24 0
BBX 24 24 0 -3
BITMAP
000006
ffffff
000000
000000
100018
1ffffc
180018
180018
180018
1ffff8
180018
180e00
180c00
180c0c
1bfffe
181a00
301a00
303100
203180
6060c0
40c070
81803f
06001e
180006
ENDCHAR
STARTCHAR ch-63
ENCODING 63
SWIDTH 1000 0
DWIDTH 24 0
BBX 24 24 0 -3
BITMAP
000006
ffffff
000000
000000
0ffff8
0c0018
0c0018
0c0018
0ffff8
0c0c00
0c0c00
0c0c06
0fffff
0c0c00
0c0c00
0c0ff8
181818
181818
103018
303038
206030
40c070
8183e0
0600c0
ENDCHAR
STARTCHAR ch-64
ENCODING 64
SWIDTH 1000 0
DWIDTH 24 0
BBX 24 24 0 -3
BITMAP
000018
00603c
fff4f0
000780
000600
20c600
3fe600
30c606
30c7ff
30c630
30c630
30c630
3fc630
30c630
300630
300c30
300c30
300c30
201830
201830
603030
406030
818030
000030
ENDCHAR
STARTCHAR ch-65
ENCODING 65
SWIDTH 1000 0
DWIDTH 24 0
BBX 24 24 0 -3
BITMAP
000006
ffffff
000000
000000
3ffffc
30000c
30000c
30000c
3ffffc
300000
300000
37fffc
36318c
36318c
36318c
36318c
37fffc
36318c
66318c
66318c
46318c
46318c
8631bc
060018
ENDCHAR
STARTCHAR ch-71
ENCODING 71
SWIDTH 1000 0
DWIDTH 24 0
BBX 24 24 0 -3
BITMAP
000006
ffffff
000000
100018
1ffffc
180018
180018
180018
1ffff8
180000
18180c
1bfdfe
18180c
1a190c
1998cc
18984c
30180c
30381c
30d86c
279bcc
63198c
42190c
80783c
003018
ENDCHAR
STARTCHAR ch-72
ENCODING 72
SWIDTH 1000 0
DWIDTH 24 0
BBX 24 24 0 -3
BITMAP
00000c
7ffffe
000000
100018
1ffffc
180018
180018
1ffff8
180000
18ffe0
18c060
18c060
18ffe0
180000
1bfff8
330c18
330c18
330c18
23fff8
630002
430002
830003
03ffff
01fffe
ENDCHAR
STARTCHAR ch-73
ENCODING 73
SWIDTH 1000 0
DWIDTH 24 0
BBX 24 24 0 -3
BITMAP
000006
ffffff
000000
000000
1ffff8
180018
180018
180018
1ffff8
180000
1839c0
183184
1bf1fe
183180
183188
13f1fc
303180
303182
2ff1ff
676180
446180
80c180
018180
060180
ENDCHAR
STARTCHAR ch-75
ENCODING 75
SWIDTH 1000 0
DWIDTH 24 0
BBX 24 24 0 -3
BITMAP
000060
0003f0
003f00
1ff800
001800
001800
001800
001818
3ffffc
001800
001800
001800
001800
001806
ffffff
001800
001800
001800
001800
001800
001800
001800
00f800
003000
ENDCHAR
STARTCHAR ch-77
ENCODING 77
SWIDTH 1000 0
DWIDTH 24 0
BBX 24 24 0 -3
BITMAP
000e00
000c00
000c00
000c00
000c00
000c06
ffffff
000c00
000c40
000c70
000ce0
000dc0
000f80
000e00
001c00
003c00
00ec00
038c00
1c0c00
e00c00
000c00
000c00
00fc00
003800
ENDCHAR
STARTCHAR ch-78
ENCODING 78
SWIDTH 1000 0
DWIDTH 24 0
BBX 24 24 0 -3
BITMAP
0e0700
0c0600
0c0600
0c0600
0c0600
0cc600
ffe600
0c0600
0c0600
0c0600
0c0600
0cc600
0f0600
fc0600
7c0600
4c0600
0c0600
0c0600
0c0602
0c0602
0c0602
0c0603
7c07ff
1803fe
ENDCHAR
STARTCHAR ch-83
ENCODING 83
SWIDTH 1000 0
DWIDTH 24 0
BBX 24 24 0 -3
BITMAP
0e0000
0c0006
0c7fff
0c0060
0c0060
0cc060
ffe060
0c0060
0c0060
0c0060
0c4060
0d8060
1e0060
fc0060
6c0060
4c0060
0c0060
0c0060
0c0060
0c0060
0c0060
0c0060
7c03e0
1800c0
ENDCHAR
STARTCHAR ch-85
ENCODING 85
SWIDTH 1000 0
DWIDTH 24 0
BBX 24 24 0 -3
BITMAP
0e0100
0c01c0
0c0180
0c0180
0c0180
0cc180
ffe100
0c0100
0c0300
0c0300
0c0300
0c4200
0d8200
1e0600
fc0620
6c0410
4c0418
0c0c0c
0c080c
0c08f6
0cff86
0c7806
7c4006
180000
ENDCHAR
STARTCHAR ch-88
ENCODING 88
SWIDTH 1000 0
DWIDTH 24 0
BBX 24 24 0 -3
BITMAP
0e0018
0c007c
0c03e0
0c7f00
0c0300
0d8300
ffc300
0c0300
0c0300
0c8300
0d0306
0effff
1c0300
fc0300
6c0300
4c0300
0c0300
0c0300
0c0300
0c0302
0c0302
0c0303
7c03ff
1801fe
ENDCHAR
STARTCHAR ch-91
ENCODING 91
SWIDTH 1000 0
DWIDTH 24 0
BBX 24 24 0 -3
BITMAP
0e0000
0c000c
0c3ffe
0c0180
0c0180
0cc180
ffe180
0c0180
0c0180
0c0180
0c0180
0d8180
1e0180
fc0180
6c0180
4c0180
0c0180
0c0180
0c0180
0c0180
0c0180
0c0186
7c7fff
180000
ENDCHAR
STARTCHAR ch-94
ENCODING 94
SWIDTH 1000 0
DWIDTH 24 0
BBX 24 24 0 -3
BITMAP
0e0000
0c000c
0c3ffe
0c0180
0c0180
0cc180
ffe180
0c0180
0c0180
0c0180
0d0186
0e7fff
1c0180
fc0180
6c0180
4c0180
0c0180
0c0180
0c0180
0c0180
0c0180
0c0180
7c0180
180180
ENDCHAR
STARTCHAR ch-96
ENCODING 96
SWIDTH 1000 0
DWIDTH 24 0
BBX 24 24 0 -3
BITMAP
0e0000
0c000c
0c7ffe
0c100c
0c120c
0d911c
ffd198
0c0998
0c0998
0c0830
0c0c30
0d8420
1e0460
fc0640
6c02c0
4c0380
0c0100
0c0380
0c02c0
0c0660
0c0c38
0c181f
7c300e
18c006
ENDCHAR
STARTCHAR ch-99
ENCODING 99
SWIDTH 1000 0
DWIDTH 24 0
BBX 24 24 0 -3
BITMAP
0e0000
0c200c
0c3ffe
0c300c
0c300c
0db00c
fff00c
0c300c
0c300c
0c300c
0c300c
0db00c
1e300c
fc300c
6c300c
4c300c
0c300c
0c300c
0c300c
0c300c
0c300c
0c3ffc
7c300c
18300c
ENDCHAR
STARTCHAR ch-104
ENCODING 104
SWIDTH 1000 0
DWIDTH 24 0
BBX 24 24 0 -3
BITMAP
0e0000
0c0018
0c3ffc
0c0618
0c0618
0d8618
ffc618
0c0618
0c0618
0c2618
0c1618
0d8e18
1e0618
fc0718
6c0598
4c0cd8
0c0c78
0c0c3f
0c081e
0c1836
0c1030
0c2060
7c43e0
1980c0
ENDCHAR
STARTCHAR ch-110
ENCODING 110
SWIDTH 1000 0
DWIDTH 24 0
BBX 24 24 0 -3
BITMAP
0e0840
0c0e40
0c0c40
0c0c40
0c0820
0d8820
ffd830
0c1010
0c1018
0ca00c
0d3fff
0e4636
1c8630
fc0630
6c0630
4c0630
0c0c30
0c0c30
0c0c30
0c0830
0c1870
0c1060
7c23e0
18c0c0
ENDCHAR
STARTCHAR ch-113
ENCODING 113
SWIDTH 1000 0
DWIDTH 24 0
BBX 24 24 0 -3
BITMAP
1c0060
18fff0
181860
181860
181860
1b1860
ff9860
1818c0
1834c0
1834cc
1834fe
1934cc
1e320c
f83218
783318
586130
1861b0
1860e0
1840c0
18c1e0
188338
18861f
f9180e
326006
ENDCHAR
STARTCHAR ch-118
ENCODING 118
SWIDTH 1000 0
DWIDTH 24 0
BBX 24 24 0 -3
BITMAP
0e0380
0c0300
0c0300
0c0300
0c0300
0d830c
fffffe
0c0300
0c0300
0c0300
0d0300
0e0306
1cffff
fc0680
6c0680
4c0680
0c0c40
0c0c40
0c0820
0c1830
0c1018
0c201f
7c400e
198006
ENDCHAR
STARTCHAR ch-121
ENCODING 121
SWIDTH 1000 0
DWIDTH 24 0
BBX 24 24 0 -3
BITMAP
1c71c0
186180
186180
186180
186180
1b6180
ffe188
18618e
186d9c
187fb0
1861c0
1b6180
fc6180
786180
586180
186180
186180
186182
186182
186182
187d83
1bf1ff
f9c0fe
310000
ENDCHAR
STARTCHAR ch-124
ENCODING 124
SWIDTH 1000 0
DWIDTH 24 0
BBX 24 24 0 -3
BITMAP
0e2006
0c3fff
0c3000
0c3000
0c3000
0db20c
fff3fe
0c330c
0c330c
0c330c
0c330c
0db30c
1e330c
fc330c
6c333c
4c3318
0c2300
0c2300
0c6302
0c4302
0c4302
0c8303
7c03ff
1801fe
ENDCHAR
STARTCHAR ch-126
ENCODING 126
SWIDTH 1000 0
DWIDTH 24 0
BBX 24 24 0 -3
BITMAP
0e0380
0c0320
0c0318
0c030c
0c030c
0d8300
ffc306
0c3fff
0c0300
0c0300
0c0308
0d818e
1e019c
fc0198
6c00b0
4c00e0
0c0040
0c00e2
0c01a2
0c0332
0c0c1a
0c701f
7c000f
180006
ENDCHAR
STARTCHAR ch-127
ENCODING 127
SWIDTH 1000 0
DWIDTH 24 0
BBX 24 24 0 -3
BITMAP
0000c0
07ffe0
0000c0
000180
000200
001404
031887
ff9886
03188c
037e88
031850
061840
061860
04ff20
0c1830
081830
181818
10189c
23ffcf
40180e
801806
001800
00f800
003000
ENDCHAR
STARTCHAR ch-128
ENCODING 128
SWIDTH 1000 0
DWIDTH 24 0
BBX 24 24 0 -3
BITMAP
0e01c0
0c0180
0c0180
0c0180
0c0186
0dbfff
ffc180
0c0180
0c0180
0c018c
0c3ffe
0c880c
0f080c
fc0418
6c0618
4c0230
0c0330
0c01e0
0c00c0
0c01e0
0c0338
0c061f
7c180e
18e006
ENDCHAR
STARTCHAR ch-130
ENCODING 130
SWIDTH 1000 0
DWIDTH 24 0
BBX 24 24 0 -3
BITMAP
0e0000
0c000c
0c3ffe
0c0180
0c0180
0d8180
ffc180
0c0180
0c0180
0c0180
0c0198
0d9ffc
1e0180
fc0180
6c0180
4c0180
0c0180
0c0180
0c0180
0c0180
0c0180
0c0186
7c7fff
180000
ENDCHAR
STARTCHAR ch-131
ENCODING 131
SWIDTH 1000 0
DWIDTH 24 0
BBX 24 24 0 -3
BITMAP
0e0380
0c0300
0c0300
0c0300
0c0300
0cc306
ffffff
0c0300
0c0300
0c0300
0c0380
0d8360
1e0338
fc031c
6c030c
4c0300
0c0300
0c0300
0c0300
0c0300
0c0300
0c0300
7c0300
180300
ENDCHAR
STARTCHAR ch-132
ENCODING 132
SWIDTH 1000 0
DWIDTH 24 0
BBX 24 24 0 -3
BITMAP
0e01c0
0c0180
0c0180
0c0180
0c1180
0d9da0
ffd998
0c198c
0c1986
0c3187
0c3183
0d2190
1e619c
fc4198
6c8fb0
4c0330
0c0060
0c00c0
0c0180
0c0300
0c0600
0c0c00
7c3000
18c000
ENDCHAR
STARTCHAR ch-137
ENCODING 137
SWIDTH 1000 0
DWIDTH 24 0
BBX 24 24 0 -3
BITMAP
0e0380
0c0300
0c0300
0c0300
0c0318
0dbffc
ffc318
0c0318
0c0318
0c0318
0c0318
0d831a
1e7fff
fc0680
6c0680
4c0680
0c0c40
0c0c40
0c0860
0c1830
0c1038
0c201f
7c400e
198006
ENDCHAR
STARTCHAR ch-138
ENCODING 138
SWIDTH 1000 0
DWIDTH 24 0
BBX 24 24 0 -3
BITMAP
0e0000
0c200c
0c3ffe
0c318c
0c318c
0db18c
fff18c
0c318c
0c318c
0c318c
0c318c
0dbffc
1e300c
fc300c
7c3000
4c3000
0c3000
0c3000
0c3002
0c3002
0c3002
0c3003
7c3fff
181ffe
ENDCHAR
STARTCHAR ch-145
ENCODING 145
SWIDTH 1000 0
DWIDTH 24 0
BBX 24 24 0 -3
BITMAP
1c0c00
189e00
18f106
18c1ff
18c186
1ac186
ffc186
18c186
18c186
18c186
18c186
1ac186
fcc186
78c186
58c186
18c186
18d986
1be186
1981be
19018c
180180
180180
f80180
300180
ENDCHAR
STARTCHAR ch-146
ENCODING 146
SWIDTH 1000 0
DWIDTH 24 0
BBX 24 24 0 -3
BITMAP
0e0018
0c3ffc
0c0030
0c0060
0c0480
0d8300
ffc180
0c0180
0c0006
0c7fff
0c0186
0d8184
1e0188
fc0180
6c0180
4c0180
0c0180
0c0180
0c0180
0c0180
0c0180
0c0180
7c0f80
180300
ENDCHAR
STARTCHAR ch-147
ENCODING 147
SWIDTH 1000 0
DWIDTH 24 0
BBX 24 24 0 -3
BITMAP
0e0018
0c20fc
0c3fc0
0c3020
0c3320
0db320
fff320
0c3320
0c3320
0c3320
0c3320
0db320
1e3330
fc3310
6c3310
4c3310
0c6318
0c6318
0c6318
0c430c
0cc30c
0c830f
7d0306
1a0006
ENDCHAR
STARTCHAR ch-148
ENCODING 148
SWIDTH 1000 0
DWIDTH 24 0
BBX 24 24 0 -3
BITMAP
0e0000
0c0006
0c7fff
0c0040
0c0070
0cc060
ffe0c0
0c02c0
0c0380
0c0300
0c0720
0d8718
1e0b0c
fc1306
6c2307
4cc303
0c0300
0c0300
0c0300
0c0300
0c0300
0c0300
7c0300
180300
ENDCHAR
STARTCHAR ch-149
ENCODING 149
SWIDTH 1000 0
DWIDTH 24 0
BBX 24 24 0 -3
BITMAP
0e0860
0c0ff0
0c0c60
0c0c60
0c0c60
0d8c60
ffcc60
0c0860
0c187e
0c103e
0c2000
0d8000
1e0030
fc3ff8
6c0830
4c0460
0c0460
0c02c0
0c0180
0c03c0
0c0670
0c0c3f
7c301e
18c006
ENDCHAR
STARTCHAR ch-150
ENCODING 150
SWIDTH 1000 0
DWIDTH 24 0
BBX 24 24 0 -3
BITMAP
0e0038
0c0830
0c0630
0c0330
0c0330
0d8030
ffc030
0c1030
0c0c30
0c0630
0c0630
0d8030
1e0030
fc0036
6c003f
4c03f0
0c7c30
0c0030
0c0030
0c0030
0c0030
0c0030
7c0030
180030
ENDCHAR
STARTCHAR ch-151
ENCODING 151
SWIDTH 1000 0
DWIDTH 24 0
BBX 24 24 0 -3
BITMAP
0e01c0
0c0180
0c0180
0c0186
0c7fff
0d8000
ffc000
0c0000
0c0860
0c0ff0
0c0c60
0d8c60
1e0c60
fc0c60
6c0c60
4c0c60
0c0c60
0c0c60
0c0c62
0c1862
0c1862
0c3063
7c607f
19803e
ENDCHAR
STARTCHAR ch-152
ENCODING 152
SWIDTH 1000 0
DWIDTH 24 0
BBX 24 24 0 -3
BITMAP
0e0018
0c007c
0c11e0
0c1f00
0c1800
0d9800
ffd800
0c1806
0c1fff
0c1860
0c9860
0f1860
1c1860
fc1860
6c1860
4c1060
0c3060
0c3060
0c2060
0c6060
0c4060
0c8060
7d0060
180060
ENDCHAR
STARTCHAR ch-155
ENCODING 155
SWIDTH 1000 0
DWIDTH 24 0
BBX 24 24 0 -3
BITMAP
1c7000
186060
186040
186040
186040
18604c
fe65fe
19fe4c
184c4c
184c4c
184c4c
184c4c
1e4c4c
fc4ccc
784c8c
584c8c
184c9c
184d98
18cd78
188e32
188c02
198c03
f90fff
3207fe
ENDCHAR
STARTCHAR ch-156
ENCODING 156
SWIDTH 1000 0
DWIDTH 24 0
BBX 24 24 0 -3
BITMAP
0e0700
0c0600
0c0600
0c0600
0c0600
0d8606
ffffff
0c0600
0c0600
0c0630
0c07f8
0d8c30
1e0c30
fc0a60
6c1960
4c11c0
0c3080
0c21c0
0c4160
0c8230
0d043c
0c081f
7c300e
18c006
ENDCHAR
STARTCHAR ch-158
ENCODING 158
SWIDTH 1000 0
DWIDTH 24 0
BBX 24 24 0 -3
BITMAP
0e100c
0c1ffe
0c180c
0c180c
0c180c
0d980c
ffd80c
0c180c
0c1ffc
0c188c
0c1880
0d9880
1e18c0
fc1840
6c1840
4c1860
0c3020
0c3030
0c3030
0c2018
0c601c
0c400f
7c800e
190006
ENDCHAR
STARTCHAR ch-171
ENCODING 171
SWIDTH 1000 0
DWIDTH 24 0
BBX 24 24 0 -3
BITMAP
0e01c0
0c0180
0c0180
0c0180
0c4186
0d7fff
ffe186
0c6184
0c6188
0c6180
0c6198
0dfffc
1e6418
fc6418
6c6430
4c6230
0c6260
0c43c0
0cc180
0c83c0
0c8670
0d0c3f
7c301e
18c006
ENDCHAR
STARTCHAR ch-172
ENCODING 172
SWIDTH 1000 0
DWIDTH 24 0
BBX 24 24 0 -3
BITMAP
0e0200
0c0380
0c0300
0c0300
0c0600
0d8620
ffc418
0c0c0c
0c0876
0c7f87
0c3c03
0da003
1e0000
fc100c
6c1ffe
4c180c
0c180c
0c180c
0c180c
0c180c
0c180c
0c180c
7c1ffc
18180c
ENDCHAR
STARTCHAR ch-177
ENCODING 177
SWIDTH 1000 0
DWIDTH 24 0
BBX 24 24 0 -3
BITMAP
0e0800
0c0e00
0c0c00
0c0c0c
0c1ffe
0d980c
fff00c
0c200c
0c7f8c
0c818c
0c018c
0c018c
0da18c
fe3f8c
7c301c
4c3018
0c30f8
0c3030
0c3002
0c3002
0c3002
0c3003
7c3fff
181ffe
ENDCHAR
STARTCHAR ch-181
ENCODING 181
SWIDTH 1000 0
DWIDTH 24 0
BBX 24 24 0 -3
BITMAP
1c0018
1841fc
187f80
186180
186180
1b6180
ffe180
186180
18618c
187ffe
186180
1b6180
1c6180
f860c0
7860c0
5860c0
1860c0
186662
1bf862
19e032
19003a
18031f
f9ff8f
300006
ENDCHAR
STARTCHAR ch-185
ENCODING 185
SWIDTH 1000 0
DWIDTH 24 0
BBX 24 24 0 -3
BITMAP
0e01c0
0c0180
0c0180
0c0180
0c0186
0c7fff
ff8180
0c0180
0c0180
0c0180
0d018c
0e3ffe
1c07a0
fc07a0
6c0590
4c0d90
0c0998
0c198c
0c118f
0c2186
0cc186
0c0180
7c0180
180180
ENDCHAR
STARTCHAR ch-187
ENCODING 187
SWIDTH 1000 0
DWIDTH 24 0
BBX 24 24 0 -3
BITMAP
0e01c0
0c0180
0c0180
0c0180
0c2186
0dbfff
fff186
0c3186
0c3186
0c3186
0c3ffe
0db186
1e3186
fc3186
6c3186
4c3186
0c3ffe
0c3186
0c0180
0c0180
0c0180
0c0180
7c0180
180180
ENDCHAR
STARTCHAR ch-188
ENCODING 188
SWIDTH 1000 0
DWIDTH 24 0
BBX 24 24 0 -3
BITMAP
0e0000
0c2006
0c3fff
0c3186
0c3186
0db186
fff186
0c3186
0c3ffe
0c3186
0c3186
0db186
1e3186
fc3186
6c3ffe
4c3186
0c3186
0c0180
0c0180
0c0180
0c0180
0c0180
7c0180
180180
ENDCHAR
STARTCHAR ch-189
ENCODING 189
SWIDTH 1000 0
DWIDTH 24 0
BBX 24 24 0 -3
BITMAP
0e01c0
0c0180
0c0180
0c0180
0c0180
0da186
ffffff
0c3186
0c3186
0c3186
0c3186
0db186
1e3186
fc3ffe
6c3186
4c3186
0c3186
0c3186
0c3186
0c3186
0c3186
0c3ffe
7c3006
183006
ENDCHAR
STARTCHAR ch-194
ENCODING 194
SWIDTH 1000 0
DWIDTH 24 0
BBX 24 24 0 -3
BITMAP
1c1ce0
1818c0
1818c0
1818cc
19fffe
1818c4
ff18c4
1818c4
18fffc
1898c4
1898c0
1898c0
1e98c6
fdffff
7998c6
5998c6
1818c6
1818c6
1818cc
1830fc
1830d8
1860c0
f8c0c0
3300c0
ENDCHAR
STARTCHAR ch-197
ENCODING 197
SWIDTH 1000 0
DWIDTH 24 0
BBX 24 24 0 -3
BITMAP
0e1018
0c1ffc
0c1818
0c1818
0c1818
0d9818
ffd818
0c1818
0c1818
0c1ff8
0c1818
0d9818
1e1818
fc1818
6c1818
4c1818
0c1818
0c1ff8
0c1818
0c0000
0c0000
0c0006
7cffff
180000
ENDCHAR
STARTCHAR ch-198
ENCODING 198
SWIDTH 1000 0
DWIDTH 24 0
BBX 24 24 0 -3
BITMAP
0e0018
0c007c
0c23e0
0c3e00
0c3000
0db000
fff000
0c3006
0c3fff
0c30c0
0c30c0
0db0c0
1e36c0
fc31c0
6c30f0
4c60dc
0c60ce
0c60c6
0c40c0
0cc0c0
0c80c0
0d00c0
7c00c0
1800c0
ENDCHAR
STARTCHAR ch-199
ENCODING 199
SWIDTH 1000 0
DWIDTH 24 0
BBX 24 24 0 -3
BITMAP
0e1018
0c1ffc
0c1818
0c1818
0c1a18
0d9998
ffd8d8
0c18d8
0c1818
0c181a
0cffff
0c1818
0f9818
fe1a18
7c1998
4c18d8
0c18d8
0c1818
0c181a
0c3fff
0c3018
0c3018
7c00f8
180030
ENDCHAR
STARTCHAR ch-200
ENCODING 200
SWIDTH 1000 0
DWIDTH 24 0
BBX 24 24 0 -3
BITMAP
0e01c0
0c0180
0c0180
0c0180
0c0180
0cc186
ffe1ff
0c0180
0c0180
0c0180
0c0180
0d8180
1e218c
fc3ffe
6c300c
4c300c
0c300c
0c300c
0c300c
0c300c
0c300c
0c3ffc
7c300c
18300c
ENDCHAR
STARTCHAR ch-201
ENCODING 201
SWIDTH 1000 0
DWIDTH 24 0
BBX 24 24 0 -3
BITMAP
0e01c0
0c0180
0c0180
0c0180
0c0180
0cc18c
fffffe
0c0000
0c0010
0c101c
0c0818
0d8818
1e0c18
fc0c10
6c0410
4c0630
0c0630
0c0620
0c0620
0c0020
0c0040
0c0046
7c7fff
180000
ENDCHAR
STARTCHAR ch-202
ENCODING 202
SWIDTH 1000 0
DWIDTH 24 0
BBX 24 24 0 -3
BITMAP
1c101c
181c18
181818
181818
181818
1b3818
ffb01a
1837ff
183018
187018
187218
1af118
3cb198
f93198
783198
583018
183018
183018
183018
183018
183018
183018
f830f8
303030
ENDCHAR
STARTCHAR ch-204
ENCODING 204
SWIDTH 1000 0
DWIDTH 24 0
BBX 24 24 0 -3
BITMAP
0e01c0
0c0188
0c218e
0c118c
0c1988
0d9990
ffc180
0c018c
0c3ffe
0c0180
0c0180
0d8180
1e0180
fc0186
6c7fff
4c0180
0c0180
0c0180
0c0180
0c0180
0c0180
0c0180
7c0180
180180
ENDCHAR
STARTCHAR ch-205
ENCODING 205
SWIDTH 1000 0
DWIDTH 24 0
BBX 24 24 0 -3
BITMAP
0e0100
0c01c0
0c0180
0c0180
0c0100
0d2206
ffbfff
0c3006
0c3006
0c3006
0c3006
0db006
1e3006
fc3ffe
6c3006
4c3006
0c3006
0c3006
0c3006
0c3006
0c3006
0c3ffe
7c3006
183006
ENDCHAR
STARTCHAR ch-207
ENCODING 207
SWIDTH 1000 0
DWIDTH 24 0
BBX 24 24 0 -3
BITMAP
070000
06000c
0637fe
fffa0c
0c3218
0c6130
0c6160
1bc0c0
18f1e0
01b33f
03061e
0c1806
300300
001f80
03f800
001830
1ffff8
001800
001806
ffffff
001800
001800
00f800
003000
ENDCHAR
STARTCHAR ch-208
ENCODING 208
SWIDTH 1000 0
DWIDTH 24 0
BBX 24 24 0 -3
BITMAP
0e0000
0c100c
0c1ffe
0c180c
0c180c
0d980c
ffd80c
0c180c
0c1ffc
0c180c
0c0000
0cc000
0f0006
fc3fff
7c0306
4c0306
0c0306
0c0606
0c0606
0c0c06
0c0c0c
0c180c
7c307c
18c018
ENDCHAR
STARTCHAR ch-209
ENCODING 209
SWIDTH 1000 0
DWIDTH 24 0
BBX 24 24 0 -3
BITMAP
0e1c1c
0c1818
0c1818
0c1818
0c1818
0d981a
ffffff
0c1818
0c1818
0c1818
0c1818
0d9818
1e1818
fc1ff8
6c1818
4c1818
0c1818
0c1818
0c1818
0c1818
0c1818
0c1ff8
7c1818
181818
ENDCHAR
STARTCHAR ch-210
ENCODING 210
SWIDTH 1000 0
DWIDTH 24 0
BBX 24 24 0 -3
BITMAP
0e100c
0c1ffe
0c1800
0c1800
0c1800
0d9800
ffd80c
0c1ffe
0c180c
0c180c
0c180c
0d980c
1e180c
fc180c
6c1ffc
4c180c
0c1800
0c1800
0c1800
0c1800
0c1800
0c1806
7c1fff
181800
ENDCHAR
STARTCHAR ch-211
ENCODING 211
SWIDTH 1000 0
DWIDTH 24 0
BBX 24 24 0 -3
BITMAP
0e0000
0c0006
0c7fff
0c0300
0c0300
0d8300
ffc600
0c0600
0c0400
0c0c00
0c080c
0d9ffe
1e1c0c
fc2c0c
6c4c0c
4d8c0c
0c0c0c
0c0c0c
0c0c0c
0c0c0c
0c0c0c
0c0ffc
7c0c0c
180c0c
ENDCHAR
STARTCHAR ch-212
ENCODING 212
SWIDTH 1000 0
DWIDTH 24 0
BBX 24 24 0 -3
BITMAP
0e0700
0c0640
0c0630
0c0618
0c0618
0d8606
ffffff
0c0600
0c0600
0c0c20
0c0c38
0d8c30
1e0a30
fc1a60
6c1960
4c11c0
0c3080
0c21c0
0c4160
0c8230
0d0438
0c081f
7c300e
18c006
ENDCHAR
STARTCHAR ch-215
ENCODING 215
SWIDTH 1000 0
DWIDTH 24 0
BBX 24 24 0 -3
BITMAP
1c2070
183860
183060
183060
1a2060
ff2066
1849ff
1a4e66
190c66
198c66
18d866
18d866
1e1066
fc3066
782066
582866
1844c6
1844c6
189ec6
1be68e
19c18c
19010c
f8027c
300418
ENDCHAR
STARTCHAR ch-216
ENCODING 216
SWIDTH 1000 0
DWIDTH 24 0
BBX 24 24 0 -3
BITMAP
0e0800
0c0e00
0c0c00
0c0c00
0c1806
0cdfff
fff006
0c2006
0c50c6
0c9fe6
0c18c6
0c98c6
0f18c6
fc18c6
7c18c6
4c1fc6
0c18c6
0c0006
0c000e
0c000c
0c000c
0c001c
7c00f8
180030
ENDCHAR
STARTCHAR ch-217
ENCODING 217
SWIDTH 1000 0
DWIDTH 24 0
BBX 24 24 0 -3
BITMAP
0e01c0
0c0180
0c398e
0c318c
0c318c
0db18c
fff18c
0c318c
0c318c
0c3ffc
0c318c
0d8180
1e0180
fc0180
6c7187
4c6186
0c6186
0c6186
0c6186
0c6186
0c6186
0c7ffe
7c6006
186006
ENDCHAR
STARTCHAR ch-219
ENCODING 219
SWIDTH 1000 0
DWIDTH 24 0
BBX 24 24 0 -3
BITMAP
0e0000
0c0006
0c7fff
0c0306
0c0306
0d8306
ffc606
0c0606
0c040e
0c0c0c
0c887c
0f1018
1e2000
fcd00c
6c1ffe
4c180c
0c180c
0c180c
0c180c
0c180c
0c180c
0c180c
7c1ffc
18180c
ENDCHAR
STARTCHAR ch-220
ENCODING 220
SWIDTH 1000 0
DWIDTH 24 0
BBX 24 24 0 -3
BITMAP
018006
03dfff
0f00c0
7e00c0
0600c0
0600cc
060ffe
0660c0
fff0c0
0600c0
0600cc
060ffe
07c0c0
1f00c0
fe00c0
7600c6
463fff
0400c0
0c00c0
0800c0
1800c0
1000c0
2000c0
4000c0
ENDCHAR
STARTCHAR ch-221
ENCODING 221
SWIDTH 1000 0
DWIDTH 24 0
BBX 24 24 0 -3
BITMAP
0e0006
0c7fff
0c0180
0c0180
0c0180
0d018c
ffbffe
0c0180
0c0180
0c0180
0d018c
0e3ffe
1c0180
fc0180
6c0180
4c0186
0cffff
0c0180
0c0180
0c0180
0c0180
0c0180
7c0180
180180
ENDCHAR
STARTCHAR ch-224
ENCODING 224
SWIDTH 1000 0
DWIDTH 24 0
BBX 24 24 0 -3
BITMAP
1c4000
187098
1860fc
186098
186098
1b6098
ffec98
187e98
18cc98
18cc98
18cc98
1a8c98
1d8c98
f94c9a
79489a
5a299a
18391b
18111f
183a0e
182c00
186700
18c3e0
f980ff
36003e
ENDCHAR
STARTCHAR ch-225
ENCODING 225
SWIDTH 1000 0
DWIDTH 24 0
BBX 24 24 0 -3
BITMAP
1c01c0
180180
180180
180180
184186
1b7fff
ffe000
186000
186100
1861c0
186180
196180
1e6180
f86180
786300
586310
186308
18c20c
18c206
188406
19843b
193fc3
fa1e03
301000
ENDCHAR
STARTCHAR ch-236
ENCODING 236
SWIDTH 1000 0
DWIDTH 24 0
BBX 24 24 0 -3
BITMAP
0e000c
0c007e
0c03f0
0c3d80
0c0180
0d8180
ffc180
0c0186
0c7fff
0c0180
0c0180
0c8180
0f0180
fc218c
6c3ffe
4c300c
0c300c
0c300c
0c300c
0c300c
0c300c
0c300c
7c3ffc
18300c
ENDCHAR
STARTCHAR ch-237
ENCODING 237
SWIDTH 1000 0
DWIDTH 24 0
BBX 24 24 0 -3
BITMAP
0e01d0
0c018c
0c0186
0c0186
0c0180
0cc186
ffffff
0c0180
0c0180
0d0180
0e0180
0c0d80
1dfec0
fc30c0
6c30c0
4c30c0
0c3060
0c3062
0c3262
0c3c32
0df03a
0ce01f
7c800f
180006
ENDCHAR
STARTCHAR ch-238
ENCODING 238
SWIDTH 1000 0
DWIDTH 24 0
BBX 24 24 0 -3
BITMAP
0e01c0
0c0180
0c0180
0c0180
0c0186
0c7fff
ff8180
0c0180
0c0180
0c0180
0c018c
0dbffe
1e0000
fc0000
6c1018
4c1ffc
0c1818
0c1818
0c1818
0c1818
0c1818
0c1818
7c1ff8
181818
ENDCHAR
STARTCHAR ch-239
ENCODING 239
SWIDTH 1000 0
DWIDTH 24 0
BBX 24 24 0 -3
BITMAP
0e0018
0c1ffc
0c0018
0c0030
0c0020
0d8140
ffc188
0c018e
0c0d8c
0c7dd8
0c0dd0
0d8da0
1e19a0
fc1990
6c1190
4c3198
0c218f
0c418e
0c8186
0c0f80
0c0300
0c0006
7c7fff
180000
ENDCHAR
STARTCHAR ch-241
ENCODING 241
SWIDTH 1000 0
DWIDTH 24 0
BBX 24 24 0 -3
BITMAP
0e0e70
0c0c60
0c0c60
0c0c60
0c0c60
0ccc6c
fffffe
0c0c60
0c0c60
0c0c60
0c0c60
0d8c60
1e0c60
fc0c66
6cffff
4c0000
0c0000
0c0840
0c0e30
0c1c18
0c180c
0c300e
7c6006
198006
ENDCHAR
STARTCHAR ch-243
ENCODING 243
SWIDTH 1000 0
DWIDTH 24 0
BBX 24 24 0 -3
BITMAP
001040
081c70
061860
0318c0
031918
3ffffc
003400
006206
ffffff
00c180
0180c0
030e70
06ff3f
0c181e
3018c6
c7ffe0
001800
001806
ffffff
001800
001800
001800
00f800
003000
ENDCHAR
STARTCHAR ch-245
ENCODING 245
SWIDTH 1000 0
DWIDTH 24 0
BBX 24 24 0 -3
BITMAP
0e0400
0c0700
0c0600
0c0606
0c7fff
0d8c00
ffcc00
0c0c0c
0c1bfe
0c180c
0c3818
0d3050
1e7060
fc7060
6cb066
4d37ff
0c3060
0c3060
0c3060
0c3060
0c3060
0c3060
7c33e0
1830c0
ENDCHAR
STARTCHAR ch-246
ENCODING 246
SWIDTH 1000 0
DWIDTH 24 0
BBX 24 24 0 -3
BITMAP
0e0884
0c0ee7
0c0cc6
0c088c
0c1110
0da220
ffd110
0c198c
0c0cc6
0c0cc6
0c0200
0cc380
1f0306
fc07ff
6c0606
4c0c0c
0c1a0c
0c6198
0c01b0
0c0060
0c00c0
0c0380
7c0e00
18f000
ENDCHAR
STARTCHAR ch-247
ENCODING 247
SWIDTH 1000 0
DWIDTH 24 0
BBX 24 24 0 -3
BITMAP
0e0380
0c0308
0c030e
0c030c
0c3ffc
0d8318
ffc330
0c0366
0c7fff
0c0180
0c0300
0d860c
1e0ffe
fc1c00
6c6c00
4d8c0c
0c0ffe
0c0c0c
0c000c
0c001c
0c0018
0c0038
7c01f0
180060
ENDCHAR
STARTCHAR ch-254
ENCODING 254
SWIDTH 1000 0
DWIDTH 24 0
BBX 24 24 0 -3
BITMAP
0e0300
0c0300
0c0680
0c0680
0c0640
0d8c60
ffcc30
0c181c
0c300f
0c6066
0d9ff0
0c0000
0f0000
fc0000
7c2018
4c3ffc
0c3018
0c3018
0c3018
0c3018
0c3018
0c3ff8
7c3018
183018
ENDCHAR
STARTCHAR ch-255
ENCODING 255
SWIDTH 1000 0
DWIDTH 24 0
BBX 24 24 0 -3
BITMAP
001800
003800
003400
006200
00c300
0181c0
037ef0
0c007f
33ffde
c300c6
0300c0
03ffc0
0300c0
000300
001f80
07f800
001830
3ffff8
001802
ffffff
001800
001800
00f800
003000
ENDCHAR
STARTCHAR ch-257
ENCODING 257
SWIDTH 1000 0
DWIDTH 24 0
BBX 24 24 0 -3
BITMAP
0e0380
0c0300
0c0300
0c0318
0dbffc
ffc300
0c0300
0c0300
0c0306
0cffff
0c0000
0d8030
fe0032
7cffff
4c0030
0c2030
0c1830
0c0c30
0c0c30
0c0030
0c0030
0c0030
7c01f0
180060
ENDCHAR
STARTCHAR ch-258
ENCODING 258
SWIDTH 1000 0
DWIDTH 24 0
BBX 24 24 0 -3
BITMAP
0e01c0
0c0180
0c0180
0c0198
0c1ffc
0d8180
ffc180
0c0180
0c018c
0c3ffe
0c0000
0d8000
1e01c0
fc0180
6c018c
4c3ffe
0c0180
0c0180
0c0180
0c0180
0c0180
0c0186
7c7fff
180000
ENDCHAR
STARTCHAR ch-263
ENCODING 263
SWIDTH 1000 0
DWIDTH 24 0
BBX 24 24 0 -3
BITMAP
0e1c00
0c1800
0c1818
0c183c
0c18e0
0d9f00
ffd802
0c1802
0c1803
0c1fff
0c0ffe
0cc000
1f0000
fc100c
6c1ffe
4c180c
0c180c
0c180c
0c1ffc
0c180c
0c180c
0c180c
7c1ffc
18180c
ENDCHAR
STARTCHAR ch-264
ENCODING 264
SWIDTH 1000 0
DWIDTH 24 0
BBX 24 24 0 -3
BITMAP
070000
06000c
07effe
7e018c
06018c
06018c
07e18c
7e030c
06031c
060618
07e4f8
7e1830
000300
001f80
03f800
001830
1ffff8
001800
001806
ffffff
001800
001800
00f800
003000
ENDCHAR
STARTCHAR ch-265
ENCODING 265
SWIDTH 1000 0
DWIDTH 24 0
BBX 24 24 0 -3
BITMAP
1c01c0
180180
182180
182186
187fff
1b6006
ffc404
18c708
180600
180600
180606
18ffff
1e0c30
f80c30
780c30
581860
181860
1834c0
1832c0
180180
180360
180638
f8181c
30e00c
ENDCHAR
STARTCHAR ch-268
ENCODING 268
SWIDTH 1000 0
DWIDTH 24 0
BBX 24 24 0 -3
BITMAP
0e0800
0c0e00
0c0c30
0c1ff8
0c1830
0db060
ffe860
0c44c0
0c8380
0c0380
0c06e0
0d8c7f
1e101e
fc6006
6d8000
4c3ff8
0c3018
0c3018
0c3018
0c3018
0c3018
0c3ff8
7c3018
183018
ENDCHAR
STARTCHAR ch-273
ENCODING 273
SWIDTH 1000 0
DWIDTH 24 0
BBX 24 24 0 -3
BITMAP
1c19c0
181980
181980
181980
191988
18998e
ffd98c
18d998
18d990
1819a0
181980
1a1980
1c19a0
f83998
7bd98c
599986
191986
181980
181982
183182
183183
1861ff
f8c0fe
330000
ENDCHAR
STARTCHAR ch-281
ENCODING 281
SWIDTH 1000 0
DWIDTH 24 0
BBX 24 24 0 -3
BITMAP
004040
103070
0c1860
0618c0
060080
000106
ffffff
030080
030040
060360
061fb8
0df81f
18180e
3018c6
c7ffe0
001800
00180c
7ffffe
001800
001800
001800
001800
00f800
003000
ENDCHAR
STARTCHAR ch-287
ENCODING 287
SWIDTH 1000 0
DWIDTH 24 0
BBX 24 24 0 -3
BITMAP
1c0380
180300
180300
18030c
18fffe
180300
ff4310
18231c
183318
183330
183320
190340
1e0306
f9ffff
780680
580680
180c40
180c40
181820
181830
183018
18601f
f8c00e
330006
ENDCHAR
STARTCHAR ch-295
ENCODING 295
SWIDTH 1000 0
DWIDTH 24 0
BBX 24 24 0 -3
BITMAP
1c0000
180606
18ffff
180606
180606
1b4646
ffa626
183636
183636
180606
180606
1b0606
1c0e0e
f81616
783636
58e6e6
186666
184646
180606
180606
180606
180606
f83e3e
300c0c
ENDCHAR
STARTCHAR ch-296
ENCODING 296
SWIDTH 1000 0
DWIDTH 24 0
BBX 24 24 0 -3
BITMAP
0e0400
0c0700
0c0620
0c0610
0c0418
0d88ec
ffff0c
0c380c
0c2000
0c1c00
0c9818
0f1ffc
1c3300
fc4300
6c0306
4dffff
0c0680
0c0680
0c0440
0c0c60
0c0838
0c101f
7c600e
198006
ENDCHAR
STARTCHAR ch-299
ENCODING 299
SWIDTH 1000 0
DWIDTH 24 0
BBX 24 24 0 -3
BITMAP
0e01c0
0c0180
0c0180
0c1188
0c1d8e
0d998c
ffd98c
0c1198
0c3198
0c3194
0d29b2
0e6da3
1c4dc3
fc8180
6c0180
4c0198
0c3ffc
0c0180
0c0180
0c0180
0c0180
0c0186
7cffff
180000
ENDCHAR
STARTCHAR ch-303
ENCODING 303
SWIDTH 1000 0
DWIDTH 24 0
BBX 24 24 0 -3
BITMAP
0e400c
0c7ffe
0c6000
0c6000
0c6018
0c67fc
ffe000
0c6000
0c6000
0c6006
0c7fff
0de640
1e6644
fc6647
6c6646
4c6624
0c4628
0c4620
0cc630
0c8610
0c86d8
0d3f0f
7c1c0e
181006
ENDCHAR
STARTCHAR ch-314
ENCODING 314
SWIDTH 1000 0
DWIDTH 24 0
BBX 24 24 0 -3
BITMAP
1c000c
18307e
1bfbe0
183060
183060
1a6060
ff6060
186060
18c066
18c7ff
19f860
199860
1e1860
f81060
793060
593060
18a060
18e066
1847ff
186000
18b000
189e00
f907ff
3600fe
ENDCHAR
STARTCHAR ch-317
ENCODING 317
SWIDTH 1000 0
DWIDTH 24 0
BBX 24 24 0 -3
BITMAP
0e0800
0c0e00
0c0c60
0c0ff0
0c1860
0d10c0
ffa080
0c410c
0c3ffe
0c318c
0c318c
0db18c
1e318c
fc318c
6c3ffc
4c30cc
0c08c0
0c0ec0
0c0cc0
0c1cc2
0c18c2
0c30c3
7c60ff
19807e
ENDCHAR
STARTCHAR ch-318
ENCODING 318
SWIDTH 1000 0
DWIDTH 24 0
BBX 24 24 0 -3
BITMAP
0e01c0
0c0180
0c0180
0c0186
0c7fff
0c0180
ff8180
0c2190
0c399c
0c3198
0c3198
0db994
1e6db2
fc4da3
6c83c3
4c0340
0c0340
0c0660
0c0620
0c0c30
0c0c18
0c181f
7c300e
18c006
ENDCHAR
STARTCHAR ch-319
ENCODING 319
SWIDTH 1000 0
DWIDTH 24 0
BBX 24 24 0 -3
BITMAP
0e0018
0c01fc
0c3f80
0c0180
0c0186
0c7fff
ff8180
0c0180
0c218c
0c3ffe
0c318c
0db18c
1e318c
fc3ffc
6c318c
4c318c
0c318c
0c3ffc
0c318c
0c0180
0c0180
0c0180
7c0180
180180
ENDCHAR
STARTCHAR ch-329
ENCODING 329
SWIDTH 1000 0
DWIDTH 24 0
BBX 24 24 0 -3
BITMAP
0e100c
0c1ffe
0c180c
0c180c
0c180c
0d980c
ffd80c
0c180c
0c180c
0c1ffc
0c198c
0d8180
1e2180
fc3980
6c318c
4c31fe
0c3180
0c3180
0c3180
0c2980
0c6580
0c4380
7c81ff
19007e
ENDCHAR
STARTCHAR ch-332
ENCODING 332
SWIDTH 1000 0
DWIDTH 24 0
BBX 24 24 0 -3
BITMAP
1c8607
18ff06
18c676
18c666
18c666
1ac666
ffc666
18c666
18fe66
186066
186066
196666
1e7f66
f86666
786666
586666
186666
186606
18c606
18ce06
18cc06
188c06
f9bc3e
33180c
ENDCHAR
STARTCHAR ch-333
ENCODING 333
SWIDTH 1000 0
DWIDTH 24 0
BBX 24 24 0 -3
BITMAP
0e100c
0c1ffe
0c180c
0c180c
0c1ffc
0d980c
ffd80c
0c180c
0c1ffc
0c0000
0c0000
0d800c
1e3ffe
fc0180
6c0180
4c0180
0c0186
0c7fff
0c0180
0c0180
0c0180
0c0180
7c0180
180180
ENDCHAR
STARTCHAR ch-335
ENCODING 335
SWIDTH 1000 0
DWIDTH 24 0
BBX 24 24 0 -3
BITMAP
0e0000
0c200c
0c3ffe
0c300c
0c300c
0db00c
fffffc
0c300c
0c300c
0c300c
0c3ffc
0db00c
1e0000
fc01c0
6c0180
4c018c
0c7ffe
0c0180
0c0180
0c0180
0c0180
0c0186
7cffff
180000
ENDCHAR
STARTCHAR ch-336
ENCODING 336
SWIDTH 1000 0
DWIDTH 24 0
BBX 24 24 0 -3
BITMAP
0e200c
0c3ffe
0c300c
0c300c
0c300c
0dbffc
ffc000
0c0000
0c200c
0c3ffe
0c300c
0db00c
1e300c
fc3ffc
6c300c
4c300c
0c300c
0c3ffc
0c300c
0c300c
0c300c
0c300c
7c307c
183018
ENDCHAR
STARTCHAR ch-341
ENCODING 341
SWIDTH 1000 0
DWIDTH 24 0
BBX 24 24 0 -3
BITMAP
0e01d0
0c018c
0c018c
0c0180
0cffff
0c0180
ff8180
0c218c
0c3ffe
0c318c
0c318c
0db18c
1e3ffc
fc318c
6c318c
4c318c
0c3ffc
0c318c
0c318c
0c318c
0c318c
0c318c
7c31bc
183198
ENDCHAR
STARTCHAR ch-343
ENCODING 343
SWIDTH 1000 0
DWIDTH 24 0
BBX 24 24 0 -3
BITMAP
0e01c0
0c0180
0c0180
0c1d8c
0c19fe
0d9980
ffd980
0c1986
0cffff
0c0180
0c1180
0d9d90
1e198c
fc1986
6c31a3
4c27bb
0c4330
0c8070
0c0060
0c00c0
0c0180
0c0300
7c0c00
183000
ENDCHAR
STARTCHAR ch-348
ENCODING 348
SWIDTH 1000 0
DWIDTH 24 0
BBX 24 24 0 -3
BITMAP
0e01c0
0c0180
0c218c
0c3ffe
0c318c
0db18c
fff18c
0c3ffc
0c318c
0c318c
0c318c
0dbffc
1e0180
fc018c
6c7ffe
4c080c
0c0818
0c0430
0c0360
0c01c0
0c0370
0c063f
7c181e
18e006
ENDCHAR
STARTCHAR ch-359
ENCODING 359
SWIDTH 1000 0
DWIDTH 24 0
BBX 24 24 0 -3
BITMAP
1c0380
180300
18030c
18fffe
180300
ff0300
187ffc
180680
190680
1a0c46
1dffff
180860
381830
f81338
78231c
585fef
188306
190300
180318
187ffc
180300
180300
f80300
300300
ENDCHAR
STARTCHAR ch-360
ENCODING 360
SWIDTH 1000 0
DWIDTH 24 0
BBX 24 24 0 -3
BITMAP
0e0300
0c0300
0c0680
0c0640
0c0c60
0d8c30
ffdb9c
0c330f
0c6326
0d9ff0
0c0300
0f0300
fc030c
7cfffe
4c0000
0c2018
0c3ffc
0c3018
0c3018
0c3018
0c3018
0c3018
7c3ff8
183018
ENDCHAR
STARTCHAR ch-361
ENCODING 361
SWIDTH 1000 0
DWIDTH 24 0
BBX 24 24 0 -3
BITMAP
0e0006
0c7fff
0c0000
0c0000
0c200c
0dbffe
fff00c
0c300c
0c300c
0c3ffc
0c300c
0d31c0
1e3180
fc3186
6c3fff
4c3180
0c6340
0c6340
0c4260
0cc630
0c8438
0d081f
7c100e
186006
ENDCHAR
STARTCHAR ch-363
ENCODING 363
SWIDTH 1000 0
DWIDTH 24 0
BBX 24 24 0 -3
BITMAP
1c4246
187f7f
186246
186246
186246
1b7e7e
ffe246
186246
186246
187e7e
186006
1b6006
1c6006
f86006
786006
586006
186006
186006
186006
186006
186006
186006
f8603e
30600c
ENDCHAR
STARTCHAR ch-366
ENCODING 366
SWIDTH 1000 0
DWIDTH 24 0
BBX 24 24 0 -3
BITMAP
0e200c
0c3ffe
0c300c
0c300c
0c300c
0db00c
fffffc
0c300c
0c30e0
0c30c0
0c30c6
0dbfff
1e30c0
fc30c0
6c30c0
4c28cc
0c6ffe
0c6c0c
0c4c0c
0ccc0c
0c8c0c
0d0c0c
7c0ffc
180c0c
ENDCHAR
STARTCHAR ch-370
ENCODING 370
SWIDTH 1000 0
DWIDTH 24 0
BBX 24 24 0 -3
BITMAP
1c0210
18439c
183318
181b10
181b20
1a030c
ff7ffe
180680
180680
180c46
18ffff
180c20
1b1810
fc3ffc
78606f
58c066
1b1060
181fe0
181860
181808
181808
18180c
f81ffc
300ff8
ENDCHAR
STARTCHAR ch-374
ENCODING 374
SWIDTH 1000 0
DWIDTH 24 0
BBX 24 24 0 -3
BITMAP
0e0038
0c01fc
0c1f80
0c0180
0c0180
0d818c
fffffe
0c1188
0c1188
0c1188
0d118a
0effff
1c1188
fc1188
6c1188
4c1188
0c1188
0c7ffe
0c0180
0c0180
0c0180
0c0186
7cffff
180000
ENDCHAR
STARTCHAR ch-375
ENCODING 375
SWIDTH 1000 0
DWIDTH 24 0
BBX 24 24 0 -3
BITMAP
1c0700
180600
18060c
19fffe
180600
190618
fffffc
180618
18061a
19ffff
180618
1a0618
1cfff8
f80618
788600
58e600
18c60c
18c7fe
18c600
18a600
199600
190e00
fa07ff
3401fe
ENDCHAR
STARTCHAR ch-378
ENCODING 378
SWIDTH 1000 0
DWIDTH 24 0
BBX 24 24 0 -3
BITMAP
0e0380
0c0300
0c0300
0c030c
0cfffe
0c0680
ff8440
0c0c60
0c0830
0c101c
0d200f
0e5fe6
1c8000
fc0000
6c0018
4c7ffc
0c0300
0c2320
0c3b18
0c330c
0c6306
0cc306
7d0f00
180600
ENDCHAR
STARTCHAR ch-379
ENCODING 379
SWIDTH 1000 0
DWIDTH 24 0
BBX 24 24 0 -3
BITMAP
0e0300
0c0300
0c0680
0c0680
0c0c40
0c8860
ffd030
0c2fdc
0c400f
0d8066
0c3ff0
0d0060
1e00c0
fc00c0
6c0180
4c0180
0c1a10
0c590c
0c5986
0cd9a3
0c9823
0d9830
7d9ff0
180fe0
ENDCHAR
STARTCHAR ch-384
ENCODING 384
SWIDTH 1000 0
DWIDTH 24 0
BBX 24 24 0 -3
BITMAP
1c0480
180ee0
1898c0
18e0c0
1880c0
1a8086
ff8cff
18ff86
189906
189964
189a68
1a9860
1c9860
f89860
789860
589870
1898d0
1898d0
1898d8
199888
19188c
19198f
fa1906
301a06
ENDCHAR
STARTCHAR ch-387
ENCODING 387
SWIDTH 1000 0
DWIDTH 24 0
BBX 24 24 0 -3
BITMAP
1c0018
181ffc
180018
180018
181ff8
1b0018
ff8018
181ff8
180000
184006
1a7fff
1cc184
18c180
f8218c
783ffe
58318c
18318c
18318c
18318c
18318c
1831bc
183198
f80180
300180
ENDCHAR
STARTCHAR ch-392
ENCODING 392
SWIDTH 1000 0
DWIDTH 24 0
BBX 24 24 0 -3
BITMAP
0e000c
0c00fe
0c7fd0
0c041c
0c2318
0d1930
ff8820
0c4046
0c7fff
0cc006
0cc004
0c0030
0f3ff8
fc0830
7c0830
4c0460
0c0460
0c02c0
0c0180
0c03c0
0c0670
0c0c3f
7c301e
19c006
ENDCHAR
STARTCHAR ch-393
ENCODING 393
SWIDTH 1000 0
DWIDTH 24 0
BBX 24 24 0 -3
BITMAP
0e01c0
0c0180
0c018c
0c01fe
0c0180
0d8180
ffe18c
0c3ffe
0c300c
0c300c
0c3ffc
0db00c
1e300c
fc300c
6c3ffc
4c318c
0c0180
0c0186
0cffff
0c0180
0c0180
0c0180
7c0180
180180
ENDCHAR
STARTCHAR ch-396
ENCODING 396
SWIDTH 1000 0
DWIDTH 24 0
BBX 24 24 0 -3
BITMAP
041c40
031870
019860
1198c0
101906
3fffff
300006
61ff84
610088
010080
01ff80
0000e0
001ff0
1ff800
001818
3ffffc
001800
001806
ffffff
001800
001800
001800
00f800
003000
ENDCHAR
STARTCHAR ch-398
ENCODING 398
SWIDTH 1000 0
DWIDTH 24 0
BBX 24 24 0 -3
BITMAP
0e0380
0c0300
0c030c
0c7ffe
0c0300
0d86c0
ffc630
0c0c18
0c3018
0c0006
0c7fff
0d0018
1e0018
fc2198
6c3f98
4c3198
0c3198
0c3198
0c3f98
0c3198
0c0018
0c0018
7c00f8
180030
ENDCHAR
STARTCHAR ch-399
ENCODING 399
SWIDTH 1000 0
DWIDTH 24 0
BBX 24 24 0 -3
BITMAP
0e1000
0c1c00
0c1800
0c3006
0c3fff
0c7006
ffd806
0c9046
0c3fe6
0c2606
0c4606
0d0626
0e7ff6
1c0606
fc0606
6c4626
4c4626
0c4626
0c7fe6
0c4026
0c000e
0c000c
7c007c
180018
ENDCHAR
STARTCHAR ch-402
ENCODING 402
SWIDTH 1000 0
DWIDTH 24 0
BBX 24 24 0 -3
BITMAP
0e0e70
0c0c60
0c0c60
0c0c60
0c0c66
0cfc7f
ff0c60
0c0c60
0c0c60
0c0c6c
0cfc7e
0c0c60
0f0c60
fc0c60
6c0c60
4c3c66
0dec7f
0cc860
0c9860
0c1060
0c3060
0c2060
7c4060
188060
ENDCHAR
STARTCHAR ch-406
ENCODING 406
SWIDTH 1000 0
DWIDTH 24 0
BBX 24 24 0 -3
BITMAP
0e0380
0c0300
0c0306
0cffff
0c0800
0d0e80
ff8ce0
0c1cc0
0c18cc
0c19fe
0d318c
0e314c
1c7368
fcb258
6d3518
4c3110
0c30b0
0c30e0
0c3060
0c30f0
0c30b8
0c311f
7c320e
183406
ENDCHAR
STARTCHAR ch-408
ENCODING 408
SWIDTH 1000 0
DWIDTH 24 0
BBX 24 24 0 -3
BITMAP
1c400c
187ffe
18600c
18600c
18600c
187ffc
ff600c
186000
1860e0
1860c0
186ccc
196ccc
1e6ccc
f86ccc
786ffc
586ccc
18c0c0
18c0c0
1898c6
1998c6
1918c6
1a18c6
f81ffe
301806
ENDCHAR
STARTCHAR ch-411
ENCODING 411
SWIDTH 1000 0
DWIDTH 24 0
BBX 24 24 0 -3
BITMAP
1c1c38
181830
181930
18ffb0
181830
191830
ff9830
181930
18ffb8
180034
180036
191c33
1e1833
f81833
781930
58ffb0
181830
181830
181830
181830
1819b0
19fe30
f8f030
308030
ENDCHAR
STARTCHAR ch-415
ENCODING 415
SWIDTH 1000 0
DWIDTH 24 0
BBX 24 24 0 -3
BITMAP
0e01c0
0c0180
0c0180
0c2186
0c3fff
0d6006
ffe004
0c0000
0c0006
0c7fff
0c0180
0d8180
1e0180
fc218c
6c39fe
4c3180
0c3180
0c3180
0c3180
0c6980
0c6780
0c43e0
7c80ff
19001e
ENDCHAR
STARTCHAR ch-416
ENCODING 416
SWIDTH 1000 0
DWIDTH 24 0
BBX 24 24 0 -3
BITMAP
0e01c0
0c0180
0c0180
0c0186
0c7fff
0d8000
ffc000
0c1018
0c1ffc
0c1818
0c1818
0d9818
1e1818
fc1ff8
6c1998
4c0180
0c2190
0c3988
0c318c
0c6186
0c4186
0c8186
7c0f80
180300
ENDCHAR
STARTCHAR ch-417
ENCODING 417
SWIDTH 1000 0
DWIDTH 24 0
BBX 24 24 0 -3
BITMAP
0e0038
0c01fc
0c7f80
0c0008
0c020e
0d210c
ff918c
0c1998
0c1810
0c0020
0c0380
0d8300
1e0306
fcffff
6c0f40
4c0f40
0c1b20
0c1b30
0c3318
0c231f
0c430e
0d8306
7c0300
180300
ENDCHAR
STARTCHAR ch-418
ENCODING 418
SWIDTH 1000 0
DWIDTH 24 0
BBX 24 24 0 -3
BITMAP
1c2000
182006
187fff
1868c6
18cec4
1accc8
ff08c0
1818c0
1810fe
18207e
184000
1a0380
1c0300
f80306
79ffff
580f40
180b40
181b20
181330
18231c
18430f
198306
f80300
300300
ENDCHAR
STARTCHAR ch-419
ENCODING 419
SWIDTH 1000 0
DWIDTH 24 0
BBX 24 24 0 -3
BITMAP
23800e
3311cc
3ff98c
23018c
43098c
fffd8c
03018c
23198c
3ffd8c
33198c
33180c
33787c
333318
001f80
03f800
001830
1ffff8
001800
001806
ffffff
001800
001800
00f800
003000
ENDCHAR
STARTCHAR ch-421
ENCODING 421
SWIDTH 1000 0
DWIDTH 24 0
BBX 24 24 0 -3
BITMAP
0e0380
0c0300
0c030c
0c7ffe
0c1020
0d8838
ffcc30
0c0c20
0c0046
0cffff
0c0000
0d0400
1e0700
fc0606
6cffff
4c0c30
0c1860
0c1860
0c36c0
0c3180
0c0360
0c0638
7c181c
18e00c
ENDCHAR
STARTCHAR ch-423
ENCODING 423
SWIDTH 1000 0
DWIDTH 24 0
BBX 24 24 0 -3
BITMAP
1c0380
180300
184300
184306
187fff
18ccc6
ff8cc4
198cc8
1818c0
1818c0
1910fe
1e207e
1cc000
f80000
780018
587ffc
180300
180300
180300
180300
180300
180306
f9ffff
300000
ENDCHAR
STARTCHAR ch-424
ENCODING 424
SWIDTH 1000 0
DWIDTH 24 0
BBX 24 24 0 -3
BITMAP
0e0800
0c0e40
0c0c70
0c0c60
0c1840
0d9886
ffdfff
0c30c0
0c30c0
0d70c0
0e70cc
0cbffe
1d30c0
fc30c0
6c30c0
4c30cc
0c3ffe
0c30c0
0c30c0
0c30c0
0c30c0
0c30c6
7c3fff
183000
ENDCHAR
STARTCHAR ch-425
ENCODING 425
SWIDTH 1000 0
DWIDTH 24 0
BBX 24 24 0 -3
BITMAP
1c0400
180700
180600
180606
19ffff
180c40
ff1820
181830
18331c
18630f
18fffe
196318
186318
1b6318
fc7ff8
786318
586318
186318
187ff8
186302
180302
180303
f803ff
3001fe
ENDCHAR
STARTCHAR ch-426
ENCODING 426
SWIDTH 1000 0
DWIDTH 24 0
BBX 24 24 0 -3
BITMAP
0e0e70
0c0c60
0c0c60
0c0c6c
0c7ffe
0d0c60
ff8c60
0c0c60
0c0c60
0c0c66
0cffff
0c0000
0f2018
fc3ffc
7c3018
4c3018
0c3018
0c3ff8
0c3018
0c3018
0c3018
0c3ff8
7c3018
183018
ENDCHAR
STARTCHAR ch-427
ENCODING 427
SWIDTH 1000 0
DWIDTH 24 0
BBX 24 24 0 -3
BITMAP
1c000c
19fffe
184600
184600
18460c
1b47fe
fffe8c
18468c
18468c
18468c
18465c
184658
1e7e58
fc4678
784630
584630
184630
184638
1bfe68
19e64c
19068f
180706
f80606
300600
ENDCHAR
STARTCHAR ch-428
ENCODING 428
SWIDTH 1000 0
DWIDTH 24 0
BBX 24 24 0 -3
BITMAP
0e0800
0c0e00
0c0c00
0c0c00
0c1806
0d1fff
ffb006
0c6706
0c8646
0c2676
0c2666
0cb6c6
0f3706
fc0626
6c7ff6
4c0e06
0c1f06
0c16c6
0c3666
0c6666
0d860c
0c060c
7c067c
180018
ENDCHAR
STARTCHAR ch-434
ENCODING 434
SWIDTH 1000 0
DWIDTH 24 0
BBX 24 24 0 -3
BITMAP
0e1018
0c1ffc
0c1818
0c1818
0c1ff8
0d9818
ffd818
0c1818
0c1ff8
0c0400
0c0700
0cce06
0f1fff
fc3006
7c7986
4db3c6
0c3c06
0c3046
0c3066
0c3fe6
0c1fce
0c000c
7c007c
180018
ENDCHAR
STARTCHAR ch-436
ENCODING 436
SWIDTH 1000 0
DWIDTH 24 0
BBX 24 24 0 -3
BITMAP
0e4006
0c7fff
0c6006
0c6006
0c6ff6
0c6186
ffe186
0c6186
0c6186
0c6186
0c6ff6
0de186
1e6186
fc61c6
6c61a6
4c61b6
0c61b6
0c6186
0c6186
0c6ff6
0c6006
0c6006
7c7ffe
186006
ENDCHAR
STARTCHAR ch-437
ENCODING 437
SWIDTH 1000 0
DWIDTH 24 0
BBX 24 24 0 -3
BITMAP
0e0300
0c0300
0c0680
0c0680
0c0440
0d8c60
ffc830
0c101c
0c27cf
0cc006
0c0000
0d448c
1e7efe
fc64cc
6c64cc
4c64cc
0c64cc
0c64cc
0c64cc
0c7cfc
0c64d8
0c00c0
7c00c0
1800c0
ENDCHAR
STARTCHAR ch-443
ENCODING 443
SWIDTH 1000 0
DWIDTH 24 0
BBX 24 24 0 -3
BITMAP
0e000c
0c7ffe
0c080c
0c0418
0c0630
0d8360
ffc1c0
0c0370
0c063f
0c181e
0c61c6
0d0180
1e218c
fc3ffe
6c318c
4c318c
0c318c
0c3ffc
0c0180
0c0190
0c018c
0cfff6
7c7e06
184006
ENDCHAR
STARTCHAR ch-446
ENCODING 446
SWIDTH 1000 0
DWIDTH 24 0
BBX 24 24 0 -3
BITMAP
0e0030
0c1ff8
0c0030
0c0030
0c1ff0
0d8030
ffc030
0c0032
0c7fff
0c0380
0c0704
0d8d87
1e1986
fc63cc
6c06d0
4c0ce0
0c31e0
0cc3d0
0c06d8
0c0ccf
0c30ce
0cc0c6
7c07c0
180180
ENDCHAR
STARTCHAR ch-448
ENCODING 448
SWIDTH 1000 0
DWIDTH 24 0
BBX 24 24 0 -3
BITMAP
0e01c0
0c0180
0c0186
0c7fff
0c0180
0da18c
fffffe
0c318c
0c318c
0c318c
0c3ffc
0db18c
1e318c
fc318c
6c3ffc
4c33ac
0c07a0
0c0790
0c0d90
0c0d98
0c198f
0c318e
7cc186
180180
ENDCHAR
STARTCHAR ch-451
ENCODING 451
SWIDTH 1000 0
DWIDTH 24 0
BBX 24 24 0 -3
BITMAP
1c1040
180870
180c60
180c40
180086
19ffff
fe0000
180000
18860e
18ff4c
18c64c
1ac64c
1cc64c
f8fe4c
78c64c
58c64c
18c64c
18fe4c
18c64c
18c64c
18c60c
18c60c
f8de3c
30cc18
ENDCHAR
STARTCHAR ch-452
ENCODING 452
SWIDTH 1000 0
DWIDTH 24 0
BBX 24 24 0 -3
BITMAP
0e0300
0c0300
0c0680
0c0640
0d8c60
ffd838
0c301f
0c6fee
0d8006
0c0000
0c420e
0d7f4c
1e424c
fc424c
6c7e4c
4c424c
0c424c
0c7e4c
0c424c
0c420c
0c420c
0c420c
7c4e3c
184618
ENDCHAR
STARTCHAR ch-454
ENCODING 454
SWIDTH 1000 0
DWIDTH 24 0
BBX 24 24 0 -3
BITMAP
0e0300
0c7f08
0c069c
0c86b0
0c6c42
0c2c47
ff882c
0c1830
0c101c
0c204f
0d5fe6
0e8300
1c0300
fc030c
6cfffe
4c0300
0c0700
0c0680
0c0660
0c0c30
0c0c18
0c181c
7c300c
18c00c
ENDCHAR
STARTCHAR ch-457
ENCODING 457
SWIDTH 1000 0
DWIDTH 24 0
BBX 24 24 0 -3
BITMAP
0e0018
0c3ffc
0c0030
0c0460
0c0380
0d8186
ffffff
0c0786
0c0d84
0c0d88
0d9980
0e3180
1cc180
fc0300
6c0306
4dffff
0c0f40
0c0f60
0c1b30
0c1b38
0c331f
0c630e
7d8306
180300
ENDCHAR
STARTCHAR ch-463
ENCODING 463
SWIDTH 1000 0
DWIDTH 24 0
BBX 24 24 0 -3
BITMAP
0e0e38
0c0c30
0c0c30
0c0c36
0c7fff
0d0c30
ff8c30
0c0c30
0c0000
0c200c
0c3ffe
0db18c
1e318c
fc318c
6c318c
4c3ffc
0c318c
0c318c
0c318c
0c318c
0c318c
0c3ffc
7c300c
18300c
ENDCHAR
STARTCHAR ch-464
ENCODING 464
SWIDTH 1000 0
DWIDTH 24 0
BBX 24 24 0 -3
BITMAP
0e1018
0c1ffc
0c1818
0c1818
0c1818
0d9ff8
ffd818
0c1818
0c1818
0c1ff8
0d0000
0e0006
1cffff
fc0180
6c2180
4c3980
0c318c
0c31fe
0c3180
0c2980
0c6580
0c4380
7c80ff
19003e
ENDCHAR
STARTCHAR ch-466
ENCODING 466
SWIDTH 1000 0
DWIDTH 24 0
BBX 24 24 0 -3
BITMAP
0e0018
0c01fc
0c3f80
0c0180
0c0180
0c0180
ffc186
0c7fff
0c0180
0c0180
0c0980
0d5d86
1e71bf
fc6186
6c6186
4c6186
0c7dbe
0c6186
0c6186
0c6186
0c6186
0c7ffe
7c6006
186006
ENDCHAR
STARTCHAR ch-470
ENCODING 470
SWIDTH 1000 0
DWIDTH 24 0
BBX 24 24 0 -3
BITMAP
0e1018
0c1ffc
0c1818
0c1818
0c1818
0d9ff8
ffc000
0c0006
0cffff
0c1818
0c1818
0d9818
1e1ff8
fc1818
6c1818
4c1818
0c1ff8
0c1818
0c1818
0c181e
0cfff8
0c7c18
7c4018
180018
ENDCHAR
STARTCHAR ch-474
ENCODING 474
SWIDTH 1000 0
DWIDTH 24 0
BBX 24 24 0 -3
BITMAP
0e1030
0c1ff8
0c1830
0c1830
0c1830
0d9ff0
ffd830
0c1830
0c1830
0c9ff0
0d0000
0e0006
1cffff
fc1800
6c100c
4c3ffe
0c244c
0c4ccc
0d888c
0c110c
0c221c
0cc418
7c18f8
180030
ENDCHAR
STARTCHAR ch-475
ENCODING 475
SWIDTH 1000 0
DWIDTH 24 0
BBX 24 24 0 -3
BITMAP
1c0800
180c60
180ff0
181c60
181840
1a308c
ff7ffe
18e48c
18648c
18648c
18648c
196cfc
1e687c
f8700c
78638c
58630c
18630c
19ffff
180680
180c40
180c70
18183f
f8301e
31c006
ENDCHAR
STARTCHAR ch-481
ENCODING 481
SWIDTH 1000 0
DWIDTH 24 0
BBX 24 24 0 -3
BITMAP
1c4006
187fff
186006
186006
186006
1b7ffe
ffe000
18600c
186ffe
186180
186190
196108
1e620c
f86ff6
786706
5864e0
18c0c0
18c0cc
18cffe
1880c0
1980c0
1900c6
fa3fff
300000
ENDCHAR
STARTCHAR ch-483
ENCODING 483
SWIDTH 1000 0
DWIDTH 24 0
BBX 24 24 0 -3
BITMAP
0e01c0
0c3987
0c3186
0c3186
0c3186
0db186
fffffe
0c3006
0c0000
0c0006
0c7fff
0d0180
1e0100
fc2206
6c3fff
4c3246
0c3246
0c3246
0c3246
0c3246
0c3246
0c3246
7c325e
18300c
ENDCHAR
STARTCHAR ch-489
ENCODING 489
SWIDTH 1000 0
DWIDTH 24 0
BBX 24 24 0 -3
BITMAP
0e38e0
0c30c0
0c30c4
0c30ce
0c3ed8
0db0e0
fff0c2
0c30c2
0c36c3
0cf8ff
0c607e
0d4200
1e0380
fc2318
6c3ffc
4c3018
0c3018
0c3018
0c3ff8
0c3018
0c3018
0c3018
7c3ff8
183018
ENDCHAR
STARTCHAR ch-494
ENCODING 494
SWIDTH 1000 0
DWIDTH 24 0
BBX 24 24 0 -3
BITMAP
0e1000
0c1006
0c3fff
0c6006
0c61c8
0d8186
ffffff
0c0180
0c218c
0c3ffe
0c318c
0cb18c
0f3ffc
fc318c
6c318c
4c3ffc
0c318c
0c0180
0c0186
0cffff
0c0180
0c0180
7c0180
180180
ENDCHAR
STARTCHAR ch-500
ENCODING 500
SWIDTH 1000 0
DWIDTH 24 0
BBX 24 24 0 -3
BITMAP
1c001c
1801fe
187f88
18220e
18110c
191998
ff9990
180024
183ffe
180600
180600
190602
1e7fff
f80c00
780c0c
580ffe
181a0c
181a18
183118
1821b0
1840e0
1981bf
f80e1e
307006
ENDCHAR
STARTCHAR ch-502
ENCODING 502
SWIDTH 1000 0
DWIDTH 24 0
BBX 24 24 0 -3
BITMAP
1c0686
1bffff
188cc6
188cc6
188ccc
188ccc
fffcc8
188cd8
188cd0
188cd0
188cc8
1a8cc8
1cfccc
f88cc4
788cc6
588cc6
188cc6
188cc6
1bfcc6
19ccde
190ccc
180cc0
f80cc0
300cc0
ENDCHAR
STARTCHAR ch-506
ENCODING 506
SWIDTH 1000 0
DWIDTH 24 0
BBX 24 24 0 -3
BITMAP
0e0018
0c01fc
0c7f80
0c0208
0c210e
0d918c
ffd998
0c1810
0c0020
0c7ffc
0c0300
0d8300
1e0306
fcffff
6c0300
4c0300
0c730e
0c630c
0c630c
0c630c
0c630c
0c7ffc
7c600c
18600c
ENDCHAR
ENDFONT
