STARTFONT 2.1
FONT jis.jis8200.16
SIZE 16 72 72
FONTBOUNDINGBOX 16 16 0 -2
STARTPROPERTIES 4
FONT_DESCENT 2
FONT_ASCENT 14
DEFAULT_CHAR 1
COPYRIGHT "Copyright (c) 1992 AT&T - All rights reserved."
ENDPROPERTIES
CHARS 166
STARTCHAR ch-1
ENCODING 1
SWIDTH 1000 0
DWIDTH 16 0
BBX 16 16 0 -2
BITMAP
0600
3c7c
2004
2004
3e7c
2004
2004
3ffc
0420
0420
ffff
0420
0420
0c20
1820
7020
ENDCHAR
STARTCHAR ch-2
ENCODING 2
SWIDTH 1000 0
DWIDTH 16 0
BBX 16 16 0 -2
BITMAP
0100
0100
7ffe
0100
3ffc
0240
ffff
0810
1818
330c
fe7f
1008
1e78
1008
1008
1ff8
ENDCHAR
STARTCHAR ch-5
ENCODING 5
SWIDTH 1000 0
DWIDTH 16 0
BBX 16 16 0 -2
BITMAP
0700
3c7c
2004
3e7c
2004
3ffc
0000
3ffc
2104
3ffc
2104
3ffc
0100
fffe
0602
780e
ENDCHAR
STARTCHAR ch-7
ENCODING 7
SWIDTH 1000 0
DWIDTH 16 0
BBX 16 16 0 -2
BITMAP
0200
1a00
73de
4202
4202
7bde
4042
4042
7a5e
4242
4242
4242
ffff
0810
381c
e007
ENDCHAR
STARTCHAR ch-8
ENCODING 8
SWIDTH 1000 0
DWIDTH 16 0
BBX 16 16 0 -2
BITMAP
0800
1ff0
681e
4812
4bd2
781e
4bd2
4a52
7a5e
4bd2
4812
4812
ffff
0810
381c
e007
ENDCHAR
STARTCHAR ch-9
ENCODING 9
SWIDTH 1000 0
DWIDTH 16 0
BBX 16 16 0 -2
BITMAP
0d00
39dc
2104
39dc
2244
3a5c
2244
ffff
0810
1918
310c
eff7
0100
3ffc
0100
0100
ENDCHAR
STARTCHAR ch-10
ENCODING 10
SWIDTH 1000 0
DWIDTH 16 0
BBX 16 16 0 -2
BITMAP
0810
ffff
0890
1ffc
3080
dff8
1080
1ff8
1080
1ffe
0000
3e7c
2004
3e7c
2004
3ffc
ENDCHAR
STARTCHAR ch-12
ENCODING 12
SWIDTH 1000 0
DWIDTH 16 0
BBX 16 16 0 -2
BITMAP
0018
01f0
3f00
0100
0100
0100
ffff
0100
0100
0100
1ff8
1008
1008
1008
1008
1ff8
ENDCHAR
STARTCHAR ch-13
ENCODING 13
SWIDTH 1000 0
DWIDTH 16 0
BBX 16 16 0 -2
BITMAP
0100
0380
06c0
0c70
381c
eff7
0100
0100
ffff
0100
0100
1ff8
1008
1008
1008
1ff8
ENDCHAR
STARTCHAR ch-14
ENCODING 14
SWIDTH 1000 0
DWIDTH 16 0
BBX 16 16 0 -2
BITMAP
0100
0380
06c0
0c70
391c
e107
1ff8
0100
0100
ffff
0000
1ff8
1008
1008
1008
1ff8
ENDCHAR
STARTCHAR ch-16
ENCODING 16
SWIDTH 1000 0
DWIDTH 16 0
BBX 16 16 0 -2
BITMAP
0603
1c0e
f0f8
1088
1088
fe88
1088
10ff
1088
7c88
4488
448c
4484
4485
7ce7
0382
ENDCHAR
STARTCHAR ch-18
ENCODING 18
SWIDTH 1000 0
DWIDTH 16 0
BBX 16 16 0 -2
BITMAP
1000
38fe
2c04
6648
c030
7c10
10ff
1011
fe12
1014
1010
7c10
4410
4410
4410
7c70
ENDCHAR
STARTCHAR ch-22
ENCODING 22
SWIDTH 1000 0
DWIDTH 16 0
BBX 16 16 0 -2
BITMAP
1014
3812
6dff
c610
7c10
10fe
1092
fe92
10fe
1092
7c92
44fe
4492
4492
7c92
0096
ENDCHAR
STARTCHAR ch-23
ENCODING 23
SWIDTH 1000 0
DWIDTH 16 0
BBX 16 16 0 -2
BITMAP
1014
3812
2dff
6610
c010
10fe
7c92
1092
10fe
fe92
0092
7cfe
4492
4492
4492
7c96
ENDCHAR
STARTCHAR ch-24
ENCODING 24
SWIDTH 1000 0
DWIDTH 16 0
BBX 16 16 0 -2
BITMAP
1010
3810
2dff
6701
4101
fc7c
1044
1044
fe7c
1040
1040
7c7e
4442
4442
4442
7c7e
ENDCHAR
STARTCHAR ch-27
ENCODING 27
SWIDTH 1000 0
DWIDTH 16 0
BBX 16 16 0 -2
BITMAP
1004
1004
1f04
1104
31ff
2144
7344
da44
0e44
0444
0dff
0804
1804
3004
6004
c004
ENDCHAR
STARTCHAR ch-28
ENCODING 28
SWIDTH 1000 0
DWIDTH 16 0
BBX 16 16 0 -2
BITMAP
000c
00f8
7f84
220c
1108
ffff
8001
9009
1efe
3248
6648
d448
0dff
1808
3008
e008
ENDCHAR
STARTCHAR ch-30
ENCODING 30
SWIDTH 1000 0
DWIDTH 16 0
BBX 16 16 0 -2
BITMAP
2000
2000
7ffe
d248
1248
ffff
1248
1248
7ffe
1008
3efe
6248
d648
0dff
3808
e008
ENDCHAR
STARTCHAR ch-31
ENCODING 31
SWIDTH 1000 0
DWIDTH 16 0
BBX 16 16 0 -2
BITMAP
0080
0100
1ff8
1008
1308
1188
1088
1008
ffff
1008
1108
1108
3108
2108
6008
c038
ENDCHAR
STARTCHAR ch-41
ENCODING 41
SWIDTH 1000 0
DWIDTH 16 0
BBX 16 16 0 -2
BITMAP
0800
1048
7c48
4448
54cc
5484
4586
ff23
4420
5420
5460
5448
544c
44c4
c49e
8df3
ENDCHAR
STARTCHAR ch-42
ENCODING 42
SWIDTH 1000 0
DWIDTH 16 0
BBX 16 16 0 -2
BITMAP
0810
1010
7c10
45ff
5400
547c
4444
fe44
4444
5444
5444
5444
5444
44c5
c485
8d83
ENDCHAR
STARTCHAR ch-43
ENCODING 43
SWIDTH 1000 0
DWIDTH 16 0
BBX 16 16 0 -2
BITMAP
0820
1020
7c20
45ff
5420
5420
4420
fe3e
4422
5422
5462
5442
5446
44c4
c484
8d9c
ENDCHAR
STARTCHAR ch-44
ENCODING 44
SWIDTH 1000 0
DWIDTH 16 0
BBX 16 16 0 -2
BITMAP
1000
207c
7c44
4444
54c4
5587
4400
fefe
4442
5446
5464
542c
5438
446c
c4c6
8d83
ENDCHAR
STARTCHAR ch-46
ENCODING 46
SWIDTH 1000 0
DWIDTH 16 0
BBX 16 16 0 -2
BITMAP
0800
10ff
7c00
4400
547e
5442
4442
fe42
447e
5440
5440
5440
5440
44c0
c480
8d80
ENDCHAR
STARTCHAR ch-51
ENCODING 51
SWIDTH 1000 0
DWIDTH 16 0
BBX 16 16 0 -2
BITMAP
0810
1010
7c10
4410
54fe
5492
4492
fe92
4492
54fe
5492
5492
5492
4492
c492
8cfe
ENDCHAR
STARTCHAR ch-53
ENCODING 53
SWIDTH 1000 0
DWIDTH 16 0
BBX 16 16 0 -2
BITMAP
0810
1010
7c10
45ff
5501
5501
4440
fe46
445c
5470
5440
5440
5440
4441
c463
8c3e
ENDCHAR
STARTCHAR ch-54
ENCODING 54
SWIDTH 1000 0
DWIDTH 16 0
BBX 16 16 0 -2
BITMAP
1010
2030
7c20
44fe
5482
5482
4482
fe82
44fe
5482
5482
5482
5482
4482
c4fe
8c00
ENDCHAR
STARTCHAR ch-55
ENCODING 55
SWIDTH 1000 0
DWIDTH 16 0
BBX 16 16 0 -2
BITMAP
0810
1010
7c10
45ff
5410
5430
4420
fe64
44cc
5468
5438
5410
5432
4462
c44f
8df9
ENDCHAR
STARTCHAR ch-56
ENCODING 56
SWIDTH 1000 0
DWIDTH 16 0
BBX 16 16 0 -2
BITMAP
0800
11ff
7c04
4404
54f4
5494
4494
fe94
4494
5494
54f4
5404
5404
4404
c404
8c1c
ENDCHAR
STARTCHAR ch-57
ENCODING 57
SWIDTH 1000 0
DWIDTH 16 0
BBX 16 16 0 -2
BITMAP
0800
1048
7c48
4448
54cc
5484
4586
ff03
4400
54fc
5484
5484
5484
4484
c484
8cfc
ENDCHAR
STARTCHAR ch-64
ENCODING 64
SWIDTH 1000 0
DWIDTH 16 0
BBX 16 16 0 -2
BITMAP
0806
101c
7cf1
4523
55b6
5494
45fe
fe04
4408
5410
55ff
5410
5410
4410
c410
8c70
ENDCHAR
STARTCHAR ch-71
ENCODING 71
SWIDTH 1000 0
DWIDTH 16 0
BBX 16 16 0 -2
BITMAP
0803
11c6
7c5c
4444
54c4
5484
45df
fe44
4444
5544
5544
55c4
549f
4480
c5e0
8d3f
ENDCHAR
STARTCHAR ch-88
ENCODING 88
SWIDTH 1000 0
DWIDTH 16 0
BBX 16 16 0 -2
BITMAP
0810
1010
7cfe
4492
5492
54fe
4492
fe92
44fe
5410
55fe
5482
5444
4438
c46c
8dc7
ENDCHAR
STARTCHAR ch-89
ENCODING 89
SWIDTH 1000 0
DWIDTH 16 0
BBX 16 16 0 -2
BITMAP
0820
1070
7cd8
458c
5777
5400
44fc
fe84
44fc
5484
54fc
5480
55fe
4542
c742
8c7e
ENDCHAR
STARTCHAR ch-90
ENCODING 90
SWIDTH 1000 0
DWIDTH 16 0
BBX 16 16 0 -2
BITMAP
0848
1048
7dff
4448
55ff
5549
45ff
ff49
45ff
5400
54fe
5482
54fe
4482
c482
8cfe
ENDCHAR
STARTCHAR ch-93
ENCODING 93
SWIDTH 1000 0
DWIDTH 16 0
BBX 16 16 0 -2
BITMAP
0800
10fe
7c10
45ff
5511
55dd
4511
fecc
4400
54fe
5402
5402
54fe
4402
c402
8cfe
ENDCHAR
STARTCHAR ch-95
ENCODING 95
SWIDTH 1000 0
DWIDTH 16 0
BBX 16 16 0 -2
BITMAP
0810
1010
7cfe
4444
5428
55ff
4400
fefe
4492
54fe
5492
54fe
5410
44fe
c410
8dff
ENDCHAR
STARTCHAR ch-98
ENCODING 98
SWIDTH 1000 0
DWIDTH 16 0
BBX 16 16 0 -2
BITMAP
0810
1010
7dff
4492
5492
5555
4410
ffff
4400
54fe
5482
54ba
54aa
44ba
c482
8cfe
ENDCHAR
STARTCHAR ch-100
ENCODING 100
SWIDTH 1000 0
DWIDTH 16 0
BBX 16 16 0 -2
BITMAP
0882
1044
7dff
4410
54fe
5410
45ff
fe04
45ea
5448
57ff
5448
546a
45c4
c44d
8cd3
ENDCHAR
STARTCHAR ch-102
ENCODING 102
SWIDTH 1000 0
DWIDTH 16 0
BBX 16 16 0 -2
BITMAP
0804
11f4
7d44
454f
55f8
5510
45f0
ff4f
4540
55f0
5400
54fe
54aa
44aa
c4aa
8dff
ENDCHAR
STARTCHAR ch-104
ENCODING 104
SWIDTH 1000 0
DWIDTH 16 0
BBX 16 16 0 -2
BITMAP
0848
13ff
7c48
45fe
5502
557a
4400
ffff
4440
54a3
5556
5490
5538
4454
c593
8c70
ENDCHAR
STARTCHAR ch-106
ENCODING 106
SWIDTH 1000 0
DWIDTH 16 0
BBX 16 16 0 -2
BITMAP
0840
10f8
7d90
44fe
5492
54fe
4492
fefe
44aa
5529
5400
54fe
5482
44fe
c482
8cfe
ENDCHAR
STARTCHAR ch-107
ENCODING 107
SWIDTH 1000 0
DWIDTH 16 0
BBX 16 16 0 -2
BITMAP
0810
101e
7c10
45ff
5511
557c
4511
ff7f
4552
557e
5552
557e
5500
46fe
c4aa
8dff
ENDCHAR
STARTCHAR ch-110
ENCODING 110
SWIDTH 1000 0
DWIDTH 16 0
BBX 16 16 0 -2
BITMAP
0000
1ff8
1008
1008
1ff8
1008
1008
1008
1ffa
1086
10cc
1058
1060
1330
1e1c
7007
ENDCHAR
STARTCHAR ch-111
ENCODING 111
SWIDTH 1000 0
DWIDTH 16 0
BBX 16 16 0 -2
BITMAP
0100
0100
1ff8
1008
1008
1ff8
1008
1008
1ff8
1084
10cc
1058
1060
13b0
1e1c
7007
ENDCHAR
STARTCHAR ch-113
ENCODING 113
SWIDTH 1000 0
DWIDTH 16 0
BBX 16 16 0 -2
BITMAP
2200
227e
ffc2
2242
7f7e
4942
4942
7f7e
0848
7f49
084b
ffce
1444
3644
6376
c0c3
ENDCHAR
STARTCHAR ch-114
ENCODING 114
SWIDTH 1000 0
DWIDTH 16 0
BBX 16 16 0 -2
BITMAP
0800
0fe0
1820
3040
fffc
2104
2104
2104
2104
3ffc
2000
2000
2000
2001
3003
1ffe
ENDCHAR
STARTCHAR ch-118
ENCODING 118
SWIDTH 1000 0
DWIDTH 16 0
BBX 16 16 0 -2
BITMAP
1420
7f3e
5522
7f66
55c4
7f7f
0049
ffc9
0049
7f7f
4140
7f40
2240
3641
1441
ffbf
ENDCHAR
STARTCHAR ch-119
ENCODING 119
SWIDTH 1000 0
DWIDTH 16 0
BBX 16 16 0 -2
BITMAP
aa90
ff9e
aab2
ffe4
aabf
ffa9
aaa9
ffa9
0029
ffbf
0020
7f20
4120
7f21
2221
ff9f
ENDCHAR
STARTCHAR ch-120
ENCODING 120
SWIDTH 1000 0
DWIDTH 16 0
BBX 16 16 0 -2
BITMAP
0808
0808
0808
4949
4949
4949
4949
4949
4949
7f7f
0808
1808
1008
3008
6008
c008
ENDCHAR
STARTCHAR ch-126
ENCODING 126
SWIDTH 1000 0
DWIDTH 16 0
BBX 16 16 0 -2
BITMAP
0420
0420
ffff
0420
0420
0000
1008
1818
0c30
0660
02c0
0180
0360
0e30
381c
e007
ENDCHAR
STARTCHAR ch-139
ENCODING 139
SWIDTH 1000 0
DWIDTH 16 0
BBX 16 16 0 -2
BITMAP
0420
0420
ffff
0420
0420
0000
3ffc
0100
0100
ffff
0100
0100
0100
0100
0100
0700
ENDCHAR
STARTCHAR ch-141
ENCODING 141
SWIDTH 1000 0
DWIDTH 16 0
BBX 16 16 0 -2
BITMAP
0420
0420
ffff
0420
1420
1000
3ffe
2002
6002
c602
0302
0182
0086
0004
0004
003c
ENDCHAR
STARTCHAR ch-146
ENCODING 146
SWIDTH 1000 0
DWIDTH 16 0
BBX 16 16 0 -2
BITMAP
0810
0810
ffff
0810
0810
0100
0100
ffff
1000
1000
1000
1000
1000
1800
0ffe
0000
ENDCHAR
STARTCHAR ch-153
ENCODING 153
SWIDTH 1000 0
DWIDTH 16 0
BBX 16 16 0 -2
BITMAP
0810
0810
ffff
0810
0810
0100
0100
3ffc
0100
0100
ffff
0240
0660
0c30
381c
e007
ENDCHAR
STARTCHAR ch-157
ENCODING 157
SWIDTH 1000 0
DWIDTH 16 0
BBX 16 16 0 -2
BITMAP
0810
0810
ffff
0810
0910
0100
0100
7ffc
0018
0030
0060
01c0
0700
3c00
e7e0
003f
ENDCHAR
STARTCHAR ch-159
ENCODING 159
SWIDTH 1000 0
DWIDTH 16 0
BBX 16 16 0 -2
BITMAP
0420
0420
ffff
0420
0000
0fe0
0820
1820
703e
0000
3ff8
0430
0660
03c0
1e78
f00f
ENDCHAR
STARTCHAR ch-165
ENCODING 165
SWIDTH 1000 0
DWIDTH 16 0
BBX 16 16 0 -2
BITMAP
0810
0810
ffff
0810
0910
0380
06c0
0c70
381c
e817
0810
0810
1810
1010
3010
6010
ENDCHAR
STARTCHAR ch-166
ENCODING 166
SWIDTH 1000 0
DWIDTH 16 0
BBX 16 16 0 -2
BITMAP
0420
0420
ffff
0420
0000
7ffe
0000
1ffc
1004
1004
1ffc
1000
3000
2000
6000
c000
ENDCHAR
STARTCHAR ch-171
ENCODING 171
SWIDTH 1000 0
DWIDTH 16 0
BBX 16 16 0 -2
BITMAP
0420
0420
ffff
0420
0000
3ffc
0000
0000
ffff
0420
0420
0c20
0820
1821
3033
e01e
ENDCHAR
STARTCHAR ch-172
ENCODING 172
SWIDTH 1000 0
DWIDTH 16 0
BBX 16 16 0 -2
BITMAP
0420
0420
ffff
0420
0000
0420
0c30
1818
300c
efff
0208
0208
0608
0c18
1810
7070
ENDCHAR
STARTCHAR ch-173
ENCODING 173
SWIDTH 1000 0
DWIDTH 16 0
BBX 16 16 0 -2
BITMAP
0420
0420
ffff
0420
0000
3ffc
2104
2104
2104
3ffc
2000
2000
2000
2001
3003
1ffe
ENDCHAR
STARTCHAR ch-175
ENCODING 175
SWIDTH 1000 0
DWIDTH 16 0
BBX 16 16 0 -2
BITMAP
0810
0810
ffff
0810
0810
0300
0180
00c0
0440
240c
2406
2403
6401
4408
c618
03f0
ENDCHAR
STARTCHAR ch-177
ENCODING 177
SWIDTH 1000 0
DWIDTH 16 0
BBX 16 16 0 -2
BITMAP
0420
0420
ffff
0420
0420
0840
0840
1046
305c
5070
9040
1040
1040
1041
1063
103e
ENDCHAR
STARTCHAR ch-179
ENCODING 179
SWIDTH 1000 0
DWIDTH 16 0
BBX 16 16 0 -2
BITMAP
0810
0810
ffff
0810
0910
0100
ffff
0400
0400
07f8
0408
0c08
0808
1818
3010
e070
ENDCHAR
STARTCHAR ch-184
ENCODING 184
SWIDTH 1000 0
DWIDTH 16 0
BBX 16 16 0 -2
BITMAP
0420
0420
ffff
0420
0420
0000
3ffc
0000
0000
ffff
0400
0c10
0818
1808
13fc
7e06
ENDCHAR
STARTCHAR ch-185
ENCODING 185
SWIDTH 1000 0
DWIDTH 16 0
BBX 16 16 0 -2
BITMAP
0420
0420
ffff
0420
001c
3ff0
2000
2000
3fff
2040
2040
2040
6040
4040
c040
0040
ENDCHAR
STARTCHAR ch-187
ENCODING 187
SWIDTH 1000 0
DWIDTH 16 0
BBX 16 16 0 -2
BITMAP
1000
3ffe
6102
d112
1112
1ff6
0404
180c
e400
0ffe
1802
6912
0912
0ff6
0404
783c
ENDCHAR
STARTCHAR ch-189
ENCODING 189
SWIDTH 1000 0
DWIDTH 16 0
BBX 16 16 0 -2
BITMAP
0420
0420
ffff
0420
0000
7ffe
0810
0810
0810
ffff
00d0
0190
0710
1c10
f010
0070
ENDCHAR
STARTCHAR ch-197
ENCODING 197
SWIDTH 1000 0
DWIDTH 16 0
BBX 16 16 0 -2
BITMAP
0420
0420
ffff
0420
0420
0102
6122
3322
1a22
0e22
0422
0e22
1b02
3182
6082
c00e
ENDCHAR
STARTCHAR ch-209
ENCODING 209
SWIDTH 1000 0
DWIDTH 16 0
BBX 16 16 0 -2
BITMAP
0420
0420
ffff
0420
0420
1000
1f7e
3142
2342
7a42
ce42
044e
0c40
1841
3063
e03e
ENDCHAR
STARTCHAR ch-210
ENCODING 210
SWIDTH 1000 0
DWIDTH 16 0
BBX 16 16 0 -2
BITMAP
0810
0810
ffff
0810
0910
0100
3ffc
2104
2104
3ffc
2104
2104
ffff
2004
2004
201c
ENDCHAR
STARTCHAR ch-211
ENCODING 211
SWIDTH 1000 0
DWIDTH 16 0
BBX 16 16 0 -2
BITMAP
0810
0810
ffff
0810
0910
0380
0ee0
3838
efef
0000
3ff8
0208
0208
0208
0238
0200
ENDCHAR
STARTCHAR ch-212
ENCODING 212
SWIDTH 1000 0
DWIDTH 16 0
BBX 16 16 0 -2
BITMAP
0810
0810
ffff
0810
0400
0c18
080c
1ffe
f003
0000
1ff8
1008
1008
1008
1008
1ff8
ENDCHAR
STARTCHAR ch-215
ENCODING 215
SWIDTH 1000 0
DWIDTH 16 0
BBX 16 16 0 -2
BITMAP
0810
0810
ffff
0810
0810
0000
0000
3ffc
2104
2104
2104
3ffc
2104
2104
2104
3ffc
ENDCHAR
STARTCHAR ch-217
ENCODING 217
SWIDTH 1000 0
DWIDTH 16 0
BBX 16 16 0 -2
BITMAP
0810
0810
ffff
0810
0810
0100
0100
7ffe
0000
0810
0c30
0420
0460
0040
ffff
0000
ENDCHAR
STARTCHAR ch-219
ENCODING 219
SWIDTH 1000 0
DWIDTH 16 0
BBX 16 16 0 -2
BITMAP
0420
0420
ffff
0420
0420
0000
ffff
0008
1f88
1088
1088
1088
1f88
0008
0008
0038
ENDCHAR
STARTCHAR ch-220
ENCODING 220
SWIDTH 1000 0
DWIDTH 16 0
BBX 16 16 0 -2
BITMAP
0420
0420
ffff
0420
0420
0000
1ff8
1008
1008
1ff8
1008
1008
1ff8
1008
1008
1ff8
ENDCHAR
STARTCHAR ch-222
ENCODING 222
SWIDTH 1000 0
DWIDTH 16 0
BBX 16 16 0 -2
BITMAP
0420
0420
ffff
0420
1000
1ffc
3004
7fc4
c044
0044
3fcc
2008
2038
2001
3003
1ffe
ENDCHAR
STARTCHAR ch-223
ENCODING 223
SWIDTH 1000 0
DWIDTH 16 0
BBX 16 16 0 -2
BITMAP
0420
0420
ffff
0420
1420
1000
3ffe
2002
6fe2
c822
0822
0822
0fe6
0004
0004
001c
ENDCHAR
STARTCHAR ch-225
ENCODING 225
SWIDTH 1000 0
DWIDTH 16 0
BBX 16 16 0 -2
BITMAP
0420
0420
ffff
0420
0420
0000
1008
1308
1188
10c8
1048
1008
1008
1c1c
7036
c0e3
ENDCHAR
STARTCHAR ch-227
ENCODING 227
SWIDTH 1000 0
DWIDTH 16 0
BBX 16 16 0 -2
BITMAP
0420
0420
ffff
0420
0000
3ffe
2000
2000
3ffc
2004
2004
3ffc
2000
2000
2000
3ffe
ENDCHAR
STARTCHAR ch-229
ENCODING 229
SWIDTH 1000 0
DWIDTH 16 0
BBX 16 16 0 -2
BITMAP
0810
0810
ffff
0810
0810
0200
0200
ffff
0400
0800
1ffc
2804
c804
0804
0804
0ffc
ENDCHAR
STARTCHAR ch-230
ENCODING 230
SWIDTH 1000 0
DWIDTH 16 0
BBX 16 16 0 -2
BITMAP
0810
0810
ffff
0810
0810
0100
0100
ffff
0100
0100
1ff8
1008
1008
1008
1008
1ff8
ENDCHAR
STARTCHAR ch-231
ENCODING 231
SWIDTH 1000 0
DWIDTH 16 0
BBX 16 16 0 -2
BITMAP
0810
0810
ffff
0810
0910
0100
7ffe
4002
4002
0000
ffff
0100
0100
0100
0100
0700
ENDCHAR
STARTCHAR ch-235
ENCODING 235
SWIDTH 1000 0
DWIDTH 16 0
BBX 16 16 0 -2
BITMAP
0810
0810
ffff
0810
0810
0100
0100
01fe
0100
0100
3ffc
2004
2004
2004
2004
3ffc
ENDCHAR
STARTCHAR ch-241
ENCODING 241
SWIDTH 1000 0
DWIDTH 16 0
BBX 16 16 0 -2
BITMAP
0810
0810
ffff
0810
0910
0100
3ffc
2104
2104
2104
ffff
0240
0660
0c30
381c
e007
ENDCHAR
STARTCHAR ch-243
ENCODING 243
SWIDTH 1000 0
DWIDTH 16 0
BBX 16 16 0 -2
BITMAP
0420
0420
ffff
0420
0200
07f8
1c30
7660
03c0
0660
1c38
f38f
00e0
0f00
01e0
0030
ENDCHAR
STARTCHAR ch-244
ENCODING 244
SWIDTH 1000 0
DWIDTH 16 0
BBX 16 16 0 -2
BITMAP
0420
0420
ffff
0420
0000
1ff8
1008
1008
1ff8
1008
1008
1ff8
1008
1008
ffff
0000
ENDCHAR
STARTCHAR ch-249
ENCODING 249
SWIDTH 1000 0
DWIDTH 16 0
BBX 16 16 0 -2
BITMAP
0420
0420
ffff
0420
0000
7ffe
0100
1108
1918
0910
0100
ffff
0100
0100
0100
0100
ENDCHAR
STARTCHAR ch-250
ENCODING 250
SWIDTH 1000 0
DWIDTH 16 0
BBX 16 16 0 -2
BITMAP
0420
0420
ffff
0420
0000
1ffc
1104
1184
1084
ffff
2104
2184
2084
3fff
0008
0038
ENDCHAR
STARTCHAR ch-251
ENCODING 251
SWIDTH 1000 0
DWIDTH 16 0
BBX 16 16 0 -2
BITMAP
0420
0420
ffff
0420
0420
0808
0808
1bff
3008
7108
d188
1088
1008
1008
1008
1038
ENDCHAR
STARTCHAR ch-258
ENCODING 258
SWIDTH 1000 0
DWIDTH 16 0
BBX 16 16 0 -2
BITMAP
0420
0420
ffff
0420
04a8
0084
3fff
2080
2084
20cc
2058
2070
2020
61f1
4f1b
c00e
ENDCHAR
STARTCHAR ch-259
ENCODING 259
SWIDTH 1000 0
DWIDTH 16 0
BBX 16 16 0 -2
BITMAP
0420
0420
ffff
0420
0420
6000
31fe
1102
c102
6102
2102
090e
1900
3101
6183
c0fe
ENDCHAR
STARTCHAR ch-260
ENCODING 260
SWIDTH 1000 0
DWIDTH 16 0
BBX 16 16 0 -2
BITMAP
0420
0420
ffff
0420
0420
1000
103e
ff22
1122
1122
3122
2122
2322
6222
423e
ce00
ENDCHAR
STARTCHAR ch-261
ENCODING 261
SWIDTH 1000 0
DWIDTH 16 0
BBX 16 16 0 -2
BITMAP
0420
0420
ffff
0420
3ff8
0030
0440
0280
ffff
0282
0684
0c80
1880
3080
e080
0380
ENDCHAR
STARTCHAR ch-262
ENCODING 262
SWIDTH 1000 0
DWIDTH 16 0
BBX 16 16 0 -2
BITMAP
0420
0420
ffff
0420
0000
0700
7c7e
4042
4242
4242
4242
7e42
c242
064e
1c40
7040
ENDCHAR
STARTCHAR ch-265
ENCODING 265
SWIDTH 1000 0
DWIDTH 16 0
BBX 16 16 0 -2
BITMAP
0810
0810
ffff
0810
0910
0100
7ffe
0100
0100
3ffc
0540
0d60
1930
311c
e107
0100
ENDCHAR
STARTCHAR ch-270
ENCODING 270
SWIDTH 1000 0
DWIDTH 16 0
BBX 16 16 0 -2
BITMAP
0420
0420
ffff
0420
0000
7ff8
0810
0660
03c0
1e78
f10f
0100
3ffc
0100
0100
ffff
ENDCHAR
STARTCHAR ch-278
ENCODING 278
SWIDTH 1000 0
DWIDTH 16 0
BBX 16 16 0 -2
BITMAP
0810
0810
ffff
0810
0400
0ff8
1830
7660
03c0
1e78
f00f
0000
1ff8
1008
1008
1ff8
ENDCHAR
STARTCHAR ch-279
ENCODING 279
SWIDTH 1000 0
DWIDTH 16 0
BBX 16 16 0 -2
BITMAP
0810
0810
ffff
0810
0200
07f0
0c30
1860
76c0
0180
07fc
1c04
f404
0404
0404
07fc
ENDCHAR
STARTCHAR ch-280
ENCODING 280
SWIDTH 1000 0
DWIDTH 16 0
BBX 16 16 0 -2
BITMAP
0420
0420
ffff
0420
1ff8
0108
0308
0618
1c70
0000
ff7f
1111
1111
3131
6363
c6c6
ENDCHAR
STARTCHAR ch-284
ENCODING 284
SWIDTH 1000 0
DWIDTH 16 0
BBX 16 16 0 -2
BITMAP
0420
0420
ffff
0420
0000
ffff
0440
0440
7ffe
4442
4c42
787e
4002
4002
7ffe
0000
ENDCHAR
STARTCHAR ch-291
ENCODING 291
SWIDTH 1000 0
DWIDTH 16 0
BBX 16 16 0 -2
BITMAP
0420
0420
ffff
0420
0000
27f8
2408
2408
27f8
2000
3ffc
0004
ffff
0810
381c
e007
ENDCHAR
STARTCHAR ch-296
ENCODING 296
SWIDTH 1000 0
DWIDTH 16 0
BBX 16 16 0 -2
BITMAP
0420
0420
ffff
0420
0520
6100
31fe
1322
0226
0674
1050
30d8
2088
618c
c306
0603
ENDCHAR
STARTCHAR ch-299
ENCODING 299
SWIDTH 1000 0
DWIDTH 16 0
BBX 16 16 0 -2
BITMAP
0420
0420
ffff
0420
0000
6020
3020
17ff
c100
6100
2100
0900
1900
3100
6180
c0fe
ENDCHAR
STARTCHAR ch-303
ENCODING 303
SWIDTH 1000 0
DWIDTH 16 0
BBX 16 16 0 -2
BITMAP
0420
0420
ffff
0420
0000
1048
104c
3044
2fff
60a0
a0b0
2190
2118
230c
2606
2c03
ENDCHAR
STARTCHAR ch-305
ENCODING 305
SWIDTH 1000 0
DWIDTH 16 0
BBX 16 16 0 -2
BITMAP
0420
0420
ffff
0420
0100
0900
1ff8
3100
0100
ffff
0540
0d60
1930
311c
e107
0100
ENDCHAR
STARTCHAR ch-306
ENCODING 306
SWIDTH 1000 0
DWIDTH 16 0
BBX 16 16 0 -2
BITMAP
0420
0420
ffff
0420
0420
0810
1830
3060
62c4
366c
1c38
0810
1a34
3264
2f5e
f9f3
ENDCHAR
STARTCHAR ch-308
ENCODING 308
SWIDTH 1000 0
DWIDTH 16 0
BBX 16 16 0 -2
BITMAP
0810
0810
ffff
0810
0000
7ffe
4002
4002
4ff2
4812
4812
4812
4ff2
4002
4002
7ffe
ENDCHAR
STARTCHAR ch-309
ENCODING 309
SWIDTH 1000 0
DWIDTH 16 0
BBX 16 16 0 -2
BITMAP
0810
0810
ffff
0810
0000
7ffe
4002
4102
4ff2
4102
4382
42c2
4662
4c32
4002
7ffe
ENDCHAR
STARTCHAR ch-310
ENCODING 310
SWIDTH 1000 0
DWIDTH 16 0
BBX 16 16 0 -2
BITMAP
0810
0810
ffff
0810
0910
0380
06c0
0c70
391c
e107
1ff8
0100
0910
391c
e107
0100
ENDCHAR
STARTCHAR ch-312
ENCODING 312
SWIDTH 1000 0
DWIDTH 16 0
BBX 16 16 0 -2
BITMAP
0810
0810
ffff
0810
0000
ffff
0810
0ff0
0810
0810
0ff0
0810
081f
0ff0
f810
0010
ENDCHAR
STARTCHAR ch-313
ENCODING 313
SWIDTH 1000 0
DWIDTH 16 0
BBX 16 16 0 -2
BITMAP
0420
0420
ffff
0420
0420
0800
0800
ff3e
1122
1122
3322
2222
7e22
0b22
31be
e000
ENDCHAR
STARTCHAR ch-320
ENCODING 320
SWIDTH 1000 0
DWIDTH 16 0
BBX 16 16 0 -2
BITMAP
0420
0420
ffff
0420
1000
1ffe
3002
6fe2
c822
0822
0fe2
0822
0826
0fe4
0004
003c
ENDCHAR
STARTCHAR ch-325
ENCODING 325
SWIDTH 1000 0
DWIDTH 16 0
BBX 16 16 0 -2
BITMAP
0810
0810
ffff
0810
0910
0380
06c0
0c70
381c
e7e7
0000
1ff8
1008
1008
1008
1ff8
ENDCHAR
STARTCHAR ch-329
ENCODING 329
SWIDTH 1000 0
DWIDTH 16 0
BBX 16 16 0 -2
BITMAP
0420
0420
ffff
0420
0000
1ff8
1008
1ff8
1008
1ff8
0100
0100
ffff
0100
0100
0100
ENDCHAR
STARTCHAR ch-330
ENCODING 330
SWIDTH 1000 0
DWIDTH 16 0
BBX 16 16 0 -2
BITMAP
0420
0420
ffff
0420
0000
ff82
2222
2222
2222
ffa2
2222
2222
2222
6202
4202
c20e
ENDCHAR
STARTCHAR ch-335
ENCODING 335
SWIDTH 1000 0
DWIDTH 16 0
BBX 16 16 0 -2
BITMAP
0420
0420
ffff
0420
0420
080c
1838
13e0
3020
7020
d7ff
1020
1020
1020
13fe
1000
ENDCHAR
STARTCHAR ch-336
ENCODING 336
SWIDTH 1000 0
DWIDTH 16 0
BBX 16 16 0 -2
BITMAP
0420
0420
ffff
0420
0200
ffff
0400
0c00
1bfc
3018
d020
17ff
1020
1020
1020
10e0
ENDCHAR
STARTCHAR ch-338
ENCODING 338
SWIDTH 1000 0
DWIDTH 16 0
BBX 16 16 0 -2
BITMAP
0810
0810
ffff
0810
0100
ffff
1000
1000
0ffc
0000
1110
1110
1110
3111
6113
c00e
ENDCHAR
STARTCHAR ch-344
ENCODING 344
SWIDTH 1000 0
DWIDTH 16 0
BBX 16 16 0 -2
BITMAP
0420
0420
ffff
0420
0000
0820
4820
6820
2fff
0820
0820
7820
c820
0820
0bfe
0800
ENDCHAR
STARTCHAR ch-371
ENCODING 371
SWIDTH 1000 0
DWIDTH 16 0
BBX 16 16 0 -2
BITMAP
0420
0420
ffff
0420
0000
7ffe
0000
1ff8
1008
1008
1ff8
0810
0c30
0420
ffff
0000
ENDCHAR
STARTCHAR ch-373
ENCODING 373
SWIDTH 1000 0
DWIDTH 16 0
BBX 16 16 0 -2
BITMAP
0420
0420
ffff
0420
0000
7ffc
0104
1b0c
0e08
1b38
7000
0180
24c6
244b
6619
c3f0
ENDCHAR
STARTCHAR ch-375
ENCODING 375
SWIDTH 1000 0
DWIDTH 16 0
BBX 16 16 0 -2
BITMAP
0420
0420
ffff
0420
0420
1000
17ff
2008
23c8
6248
a248
2248
23c8
2008
2008
2038
ENDCHAR
STARTCHAR ch-379
ENCODING 379
SWIDTH 1000 0
DWIDTH 16 0
BBX 16 16 0 -2
BITMAP
0420
0420
ffff
0420
0000
8820
5021
2123
5126
9324
3270
5050
90d8
118c
3306
6603
ENDCHAR
STARTCHAR ch-380
ENCODING 380
SWIDTH 1000 0
DWIDTH 16 0
BBX 16 16 0 -2
BITMAP
0810
0810
ffff
0810
0910
0380
0ee0
3838
efef
0100
7ffe
0100
0910
391c
e107
0700
ENDCHAR
STARTCHAR ch-389
ENCODING 389
SWIDTH 1000 0
DWIDTH 16 0
BBX 16 16 0 -2
BITMAP
0420
0420
ffff
0420
0000
1040
1040
37fe
2000
6204
a30c
2108
2118
2010
2fff
2000
ENDCHAR
STARTCHAR ch-391
ENCODING 391
SWIDTH 1000 0
DWIDTH 16 0
BBX 16 16 0 -2
BITMAP
0420
0420
ffff
0420
0000
0020
7c20
45fe
7c22
4422
7c62
4442
4642
7cc6
c184
031c
ENDCHAR
STARTCHAR ch-393
ENCODING 393
SWIDTH 1000 0
DWIDTH 16 0
BBX 16 16 0 -2
BITMAP
0420
0420
ffff
0420
0000
0702
7c22
0822
ff22
2822
2c22
6a22
4902
c802
0802
080e
ENDCHAR
STARTCHAR ch-394
ENCODING 394
SWIDTH 1000 0
DWIDTH 16 0
BBX 16 16 0 -2
BITMAP
0420
0420
ffff
0420
0000
4410
4410
7c10
05ff
0410
fc10
2410
2410
6410
44fe
c400
ENDCHAR
STARTCHAR ch-398
ENCODING 398
SWIDTH 1000 0
DWIDTH 16 0
BBX 16 16 0 -2
BITMAP
0420
0420
ffff
0420
0000
6020
3020
1124
c326
6623
2024
086c
1818
3030
60e0
c380
ENDCHAR
STARTCHAR ch-403
ENCODING 403
SWIDTH 1000 0
DWIDTH 16 0
BBX 16 16 0 -2
BITMAP
0420
0420
ffff
0420
1000
3fff
6000
dffc
1084
1084
ffff
2104
2104
3fff
0008
0038
ENDCHAR
STARTCHAR ch-406
ENCODING 406
SWIDTH 1000 0
DWIDTH 16 0
BBX 16 16 0 -2
BITMAP
0420
0420
ffff
0420
0000
7ffe
0888
1110
2220
1110
0888
3ffc
0100
0100
0100
ffff
ENDCHAR
STARTCHAR ch-410
ENCODING 410
SWIDTH 1000 0
DWIDTH 16 0
BBX 16 16 0 -2
BITMAP
0420
0420
ffff
0420
0000
f80e
13f8
2020
7920
093c
9920
d120
7120
27fe
7800
cfff
ENDCHAR
STARTCHAR ch-414
ENCODING 414
SWIDTH 1000 0
DWIDTH 16 0
BBX 16 16 0 -2
BITMAP
0810
0810
ffff
0810
0100
7ffe
4002
5ffa
0000
0000
ffff
0440
0c40
1841
3063
e03e
ENDCHAR
STARTCHAR ch-415
ENCODING 415
SWIDTH 1000 0
DWIDTH 16 0
BBX 16 16 0 -2
BITMAP
0810
0810
ffff
0910
0380
06e0
1c38
f3cf
0000
1ff8
0010
0020
3ffc
2004
2004
3ffc
ENDCHAR
STARTCHAR ch-416
ENCODING 416
SWIDTH 1000 0
DWIDTH 16 0
BBX 16 16 0 -2
BITMAP
0420
0420
ffff
0420
00f0
1f80
0100
ffff
0520
1918
efe7
0220
063c
0c04
1804
701c
ENDCHAR
STARTCHAR ch-418
ENCODING 418
SWIDTH 1000 0
DWIDTH 16 0
BBX 16 16 0 -2
BITMAP
0810
0810
ffff
0810
0100
0100
7ffe
0100
1110
1110
3bb8
6aac
06c0
0c60
3838
e00f
ENDCHAR
STARTCHAR ch-424
ENCODING 424
SWIDTH 1000 0
DWIDTH 16 0
BBX 16 16 0 -2
BITMAP
0420
0420
ffff
0420
0100
1ff8
1008
1ff8
1008
1008
1ff8
1046
106c
1030
1f1c
7007
ENDCHAR
STARTCHAR ch-426
ENCODING 426
SWIDTH 1000 0
DWIDTH 16 0
BBX 16 16 0 -2
BITMAP
0420
0420
ffff
0420
0000
0e44
7846
1042
ffff
1024
102c
1e38
f010
1039
10ed
7387
ENDCHAR
STARTCHAR ch-427
ENCODING 427
SWIDTH 1000 0
DWIDTH 16 0
BBX 16 16 0 -2
BITMAP
0420
0420
ffff
0420
0420
1ff8
1008
1ff8
1008
1ff8
0100
ffff
0240
0660
1c38
f00f
ENDCHAR
STARTCHAR ch-433
ENCODING 433
SWIDTH 1000 0
DWIDTH 16 0
BBX 16 16 0 -2
BITMAP
0420
0420
ffff
0420
0100
7ffe
1108
1918
0910
ffff
0540
0d60
1930
311c
e107
0100
ENDCHAR
STARTCHAR ch-437
ENCODING 437
SWIDTH 1000 0
DWIDTH 16 0
BBX 16 16 0 -2
BITMAP
0810
0810
ffff
0890
0100
3ffc
2104
2104
2104
3ffc
0440
0458
0c4c
1841
3063
e03e
ENDCHAR
STARTCHAR ch-445
ENCODING 445
SWIDTH 1000 0
DWIDTH 16 0
BBX 16 16 0 -2
BITMAP
0810
0810
ffff
0810
0200
7ffe
0420
0c30
381c
e817
0810
7ffe
0810
1810
3010
6010
ENDCHAR
STARTCHAR ch-449
ENCODING 449
SWIDTH 1000 0
DWIDTH 16 0
BBX 16 16 0 -2
BITMAP
0810
ffff
0810
0100
7ffe
0100
3ffc
0100
ffff
1008
1ff8
1008
1ff8
1008
1008
1038
ENDCHAR
STARTCHAR ch-453
ENCODING 453
SWIDTH 1000 0
DWIDTH 16 0
BBX 16 16 0 -2
BITMAP
0420
0420
ffff
0420
0100
7ffe
4002
4ff2
0810
0810
0ff0
0800
0ff8
0808
0808
0ff8
ENDCHAR
STARTCHAR ch-458
ENCODING 458
SWIDTH 1000 0
DWIDTH 16 0
BBX 16 16 0 -2
BITMAP
0420
0420
ffff
0420
1000
1ffe
3002
6922
c542
3ffa
0302
07c2
0d62
1936
6104
001c
ENDCHAR
STARTCHAR ch-460
ENCODING 460
SWIDTH 1000 0
DWIDTH 16 0
BBX 16 16 0 -2
BITMAP
0420
0420
ffff
0420
0000
7ffe
4002
4fe2
4102
5ffa
4542
4522
4912
4102
4002
7ffe
ENDCHAR
STARTCHAR ch-462
ENCODING 462
SWIDTH 1000 0
DWIDTH 16 0
BBX 16 16 0 -2
BITMAP
0420
0420
ffff
0420
0000
1ff8
1008
1ff8
1008
1ff8
0000
104c
1f78
1041
1f43
f03e
ENDCHAR
STARTCHAR ch-467
ENCODING 467
SWIDTH 1000 0
DWIDTH 16 0
BBX 16 16 0 -2
BITMAP
0420
0420
ffff
0420
3ffc
2104
3ffc
2104
3ffc
0100
ffff
0520
0d30
391c
e107
0100
ENDCHAR
STARTCHAR ch-470
ENCODING 470
SWIDTH 1000 0
DWIDTH 16 0
BBX 16 16 0 -2
BITMAP
0810
0810
ffff
0810
1ff8
1008
1ff8
1008
1ff8
0000
7ffe
4002
7ffe
4002
4002
7ffe
ENDCHAR
STARTCHAR ch-472
ENCODING 472
SWIDTH 1000 0
DWIDTH 16 0
BBX 16 16 0 -2
BITMAP
0420
0420
ffff
0420
0000
1048
1048
fccc
1186
3323
3820
5460
5444
90c4
109e
11f3
ENDCHAR
STARTCHAR ch-476
ENCODING 476
SWIDTH 1000 0
DWIDTH 16 0
BBX 16 16 0 -2
BITMAP
0420
0420
ffff
0420
0438
3fe0
0104
318c
1898
0110
ffff
0520
0d30
391c
e107
0100
ENDCHAR
STARTCHAR ch-479
ENCODING 479
SWIDTH 1000 0
DWIDTH 16 0
BBX 16 16 0 -2
BITMAP
0810
0810
ffff
0810
07e0
0c20
1840
7ffc
2104
2104
3ffc
0450
0458
0c49
3863
e03e
ENDCHAR
STARTCHAR ch-480
ENCODING 480
SWIDTH 1000 0
DWIDTH 16 0
BBX 16 16 0 -2
BITMAP
0420
0420
ffff
0420
0010
6010
33ff
1211
c210
63fe
2282
12c6
366c
2438
6c6c
c1c7
ENDCHAR
STARTCHAR ch-489
ENCODING 489
SWIDTH 1000 0
DWIDTH 16 0
BBX 16 16 0 -2
BITMAP
0810
0810
ffff
0810
0100
7ffe
0810
0c30
0420
ffff
0000
1ff8
1008
1008
1008
1ff8
ENDCHAR
STARTCHAR ch-491
ENCODING 491
SWIDTH 1000 0
DWIDTH 16 0
BBX 16 16 0 -2
BITMAP
0420
0420
ffff
0420
0000
7ffe
0100
1ff8
1108
1ff8
0100
3ffc
0100
1ff8
0100
ffff
ENDCHAR
STARTCHAR ch-495
ENCODING 495
SWIDTH 1000 0
DWIDTH 16 0
BBX 16 16 0 -2
BITMAP
0420
0420
ffff
0420
7ffe
1108
1108
ffff
1108
1108
7ffe
0100
0100
7ffe
0100
0100
ENDCHAR
STARTCHAR ch-496
ENCODING 496
SWIDTH 1000 0
DWIDTH 16 0
BBX 16 16 0 -2
BITMAP
0420
0420
ffff
0420
0004
f83c
0be8
1208
2248
2248
3a4c
e244
2254
26f6
2592
6c03
ENDCHAR
STARTCHAR ch-497
ENCODING 497
SWIDTH 1000 0
DWIDTH 16 0
BBX 16 16 0 -2
BITMAP
0810
ffff
0810
0100
3ffc
0100
ffff
0420
183f
e200
07f0
1c30
7660
03c0
1e78
f00f
ENDCHAR
STARTCHAR ch-498
ENCODING 498
SWIDTH 1000 0
DWIDTH 16 0
BBX 16 16 0 -2
BITMAP
0420
0420
ffff
0420
0000
0420
7c3e
0420
0420
7c3e
0420
0420
3c3f
e420
0c20
3820
ENDCHAR
STARTCHAR ch-500
ENCODING 500
SWIDTH 1000 0
DWIDTH 16 0
BBX 16 16 0 -2
BITMAP
0810
0810
ffff
0810
0200
ffff
0420
0910
3ffc
d10b
1ff8
1108
1108
1ff9
0103
00fe
ENDCHAR
STARTCHAR ch-503
ENCODING 503
SWIDTH 1000 0
DWIDTH 16 0
BBX 16 16 0 -2
BITMAP
0420
ffff
0420
1ff8
0008
1ff8
0008
1ff8
0000
7ffe
4102
5ffa
1108
1108
1138
0100
ENDCHAR
STARTCHAR ch-507
ENCODING 507
SWIDTH 1000 0
DWIDTH 16 0
BBX 16 16 0 -2
BITMAP
0420
0420
ffff
0420
0000
0810
0810
ffff
0810
1c38
1a38
2954
68d6
c993
0810
0810
ENDCHAR
STARTCHAR ch-509
ENCODING 509
SWIDTH 1000 0
DWIDTH 16 0
BBX 16 16 0 -2
BITMAP
0420
0420
ffff
0420
0000
0800
0f7e
0822
0822
ffb6
0814
2a1c
2b08
699c
c836
1863
ENDCHAR
ENDFONT
