STARTFONT 2.1
FONT jis.jis6400.16
SIZE 16 72 72
FONTBOUNDINGBOX 16 16 0 -2
STARTPROPERTIES 4
FONT_DESCENT 2
FONT_ASCENT 14
DEFAULT_CHAR 6
COPYRIGHT "Copyright (c) 1992 AT&T - All rights reserved."
ENDPROPERTIES
CHARS 160
STARTCHAR ch-6
ENCODING 6
SWIDTH 1000 0
DWIDTH 16 0
BBX 16 16 0 -2
BITMAP
2088
2088
27ff
2088
fbfe
2088
27ff
2020
3bfe
e222
23fe
2222
27ff
2202
2202
620e
ENDCHAR
STARTCHAR ch-13
ENCODING 13
SWIDTH 1000 0
DWIDTH 16 0
BBX 16 16 0 -2
BITMAP
2000
23fe
2202
2202
fbfe
2000
23fe
2202
3bfe
e202
23fe
2202
23fe
2104
2306
6603
ENDCHAR
STARTCHAR ch-15
ENCODING 15
SWIDTH 1000 0
DWIDTH 16 0
BBX 16 16 0 -2
BITMAP
2024
2022
27ff
2020
fbfe
2222
23fe
2222
3a22
e3fe
2004
27ff
2104
2184
2084
601c
ENDCHAR
STARTCHAR ch-19
ENCODING 19
SWIDTH 1000 0
DWIDTH 16 0
BBX 16 16 0 -2
BITMAP
2104
2088
23fe
2020
f820
21fc
2020
2020
3bfe
e040
2080
21fe
2310
2c10
2010
61ff
ENDCHAR
STARTCHAR ch-22
ENCODING 22
SWIDTH 1000 0
DWIDTH 16 0
BBX 16 16 0 -2
BITMAP
2020
207c
20c4
232c
f898
2070
21c0
2700
31fe
e220
2020
27ff
2020
2222
2222
63fe
ENDCHAR
STARTCHAR ch-23
ENCODING 23
SWIDTH 1000 0
DWIDTH 16 0
BBX 16 16 0 -2
BITMAP
2020
2040
21fc
2104
f9fc
2104
21fc
2100
39ff
e100
21ff
2001
2491
2491
27f3
600e
ENDCHAR
STARTCHAR ch-28
ENCODING 28
SWIDTH 1000 0
DWIDTH 16 0
BBX 16 16 0 -2
BITMAP
2020
21a0
232e
2222
fa22
23ae
2222
2222
3bfe
e020
27fe
2104
2098
2070
21dc
6707
ENDCHAR
STARTCHAR ch-38
ENCODING 38
SWIDTH 1000 0
DWIDTH 16 0
BBX 16 16 0 -2
BITMAP
2000
27df
2041
f841
27df
2410
2410
27df
3841
e659
2249
21c7
234d
2659
20c3
638e
ENDCHAR
STARTCHAR ch-40
ENCODING 40
SWIDTH 1000 0
DWIDTH 16 0
BBX 16 16 0 -2
BITMAP
2000
21fc
2104
21fc
f904
21fc
2000
27df
3841
e659
2249
21c7
234d
2659
2041
61c7
ENDCHAR
STARTCHAR ch-44
ENCODING 44
SWIDTH 1000 0
DWIDTH 16 0
BBX 16 16 0 -2
BITMAP
2100
221e
27d2
2452
f552
2553
2460
2fdf
2449
354b
e54a
254e
2544
254e
244a
68db
ENDCHAR
STARTCHAR ch-45
ENCODING 45
SWIDTH 1000 0
DWIDTH 16 0
BBX 16 16 0 -2
BITMAP
2088
2088
27ff
2088
f820
2070
20d8
218c
2777
3800
e000
21fc
2104
2104
2104
61fc
ENDCHAR
STARTCHAR ch-52
ENCODING 52
SWIDTH 1000 0
DWIDTH 16 0
BBX 16 16 0 -2
BITMAP
0100
7ffe
4422
5ffa
0420
1ff8
0420
ffff
0810
37ec
e107
1ff8
0100
ffff
0100
0700
ENDCHAR
STARTCHAR ch-54
ENCODING 54
SWIDTH 1000 0
DWIDTH 16 0
BBX 16 16 0 -2
BITMAP
2020
2070
20d8
f98c
2777
2000
21fc
2104
39fc
e104
21fc
2100
23fe
2282
2682
60fe
ENDCHAR
STARTCHAR ch-58
ENCODING 58
SWIDTH 1000 0
DWIDTH 16 0
BBX 16 16 0 -2
BITMAP
2088
2110
23ff
2610
fbfe
2210
23fe
2210
3bff
e000
27fc
2084
208f
2181
2303
6e0e
ENDCHAR
STARTCHAR ch-62
ENCODING 62
SWIDTH 1000 0
DWIDTH 16 0
BBX 16 16 0 -2
BITMAP
2040
2040
27fe
2492
fd92
2310
261f
2100
39ff
e340
267e
2040
207e
2040
2040
6040
ENDCHAR
STARTCHAR ch-66
ENCODING 66
SWIDTH 1000 0
DWIDTH 16 0
BBX 16 16 0 -2
BITMAP
2000
27ff
2104
21fc
f904
21fc
2104
27ff
3804
e000
2306
218c
2000
20d8
238e
6603
ENDCHAR
STARTCHAR ch-78
ENCODING 78
SWIDTH 1000 0
DWIDTH 16 0
BBX 16 16 0 -2
BITMAP
2000
279e
2082
228a
f986
228a
20a2
2070
39dc
e707
2020
21c8
2032
21c4
2018
61e0
ENDCHAR
STARTCHAR ch-88
ENCODING 88
SWIDTH 1000 0
DWIDTH 16 0
BBX 16 16 0 -2
BITMAP
2020
2020
27ff
2104
f888
23fe
2202
2222
3afa
e222
22fa
228a
228a
22fa
2202
6206
ENDCHAR
STARTCHAR ch-103
ENCODING 103
SWIDTH 1000 0
DWIDTH 16 0
BBX 16 16 0 -2
BITMAP
2020
2222
2222
23fe
f888
2090
21fe
2110
3b10
e5fe
2110
2110
21fe
2110
2110
61ff
ENDCHAR
STARTCHAR ch-105
ENCODING 105
SWIDTH 1000 0
DWIDTH 16 0
BBX 16 16 0 -2
BITMAP
0080
0080
7fff
4208
5fbf
460c
4b1a
52a9
401c
47f0
4040
4ffe
c040
9fff
8040
01c0
ENDCHAR
STARTCHAR ch-111
ENCODING 111
SWIDTH 1000 0
DWIDTH 16 0
BBX 16 16 0 -2
BITMAP
0820
7e20
08fc
ff24
2264
ff24
0855
7e95
0803
07e0
0080
3ffc
0080
ffff
0080
0380
ENDCHAR
STARTCHAR ch-118
ENCODING 118
SWIDTH 1000 0
DWIDTH 16 0
BBX 16 16 0 -2
BITMAP
2020
2020
27ff
2020
fbfe
2222
23fe
2222
3bfe
e024
20fe
2783
2004
27ff
2104
609c
ENDCHAR
STARTCHAR ch-120
ENCODING 120
SWIDTH 1000 0
DWIDTH 16 0
BBX 16 16 0 -2
BITMAP
2048
2048
23ff
2048
f848
21fe
2102
21fe
3902
e1fe
2020
23ff
2048
20cc
2186
6303
ENDCHAR
STARTCHAR ch-122
ENCODING 122
SWIDTH 1000 0
DWIDTH 16 0
BBX 16 16 0 -2
BITMAP
2000
27df
2249
2145
f841
21c7
2659
2041
3820
e1fe
2102
2102
21fe
2102
2102
61fe
ENDCHAR
STARTCHAR ch-131
ENCODING 131
SWIDTH 1000 0
DWIDTH 16 0
BBX 16 16 0 -2
BITMAP
083c
ffa4
4947
7f00
497e
7f24
0818
ffa7
0800
07f0
0080
3ffc
0080
ffff
0080
0380
ENDCHAR
STARTCHAR ch-136
ENCODING 136
SWIDTH 1000 0
DWIDTH 16 0
BBX 16 16 0 -2
BITMAP
2104
2555
2555
2104
fa8a
2451
2000
27ff
3401
e441
23fe
2042
20c2
2086
2184
671c
ENDCHAR
STARTCHAR ch-146
ENCODING 146
SWIDTH 1000 0
DWIDTH 16 0
BBX 16 16 0 -2
BITMAP
2288
2288
2fe8
228f
f28a
2fea
2012
27ca
344a
e7ce
2444
27c4
244e
244a
244a
64db
ENDCHAR
STARTCHAR ch-147
ENCODING 147
SWIDTH 1000 0
DWIDTH 16 0
BBX 16 16 0 -2
BITMAP
2020
21fc
2020
23fe
f800
2104
27df
2104
39c4
e71f
2000
27ff
2088
2089
2189
6707
ENDCHAR
STARTCHAR ch-149
ENCODING 149
SWIDTH 1000 0
DWIDTH 16 0
BBX 16 16 0 -2
BITMAP
2482
2486
2fdc
2490
f490
279f
2492
2492
3792
e492
2492
2fd2
2012
2492
24a2
6842
ENDCHAR
STARTCHAR ch-154
ENCODING 154
SWIDTH 1000 0
DWIDTH 16 0
BBX 16 16 0 -2
BITMAP
220a
2209
23c8
fa7f
2748
24c8
2a9c
2194
3b36
e663
2000
2000
2292
2292
26db
6449
ENDCHAR
STARTCHAR ch-158
ENCODING 158
SWIDTH 1000 0
DWIDTH 16 0
BBX 16 16 0 -2
BITMAP
2020
2020
23fe
2104
f888
27ff
2000
21fc
3924
e1fc
2124
21fc
2020
23fe
2020
67ff
ENDCHAR
STARTCHAR ch-164
ENCODING 164
SWIDTH 1000 0
DWIDTH 16 0
BBX 16 16 0 -2
BITMAP
2108
2108
2fe8
220f
f29a
24d2
274a
200a
37ca
e44e
27c4
2444
27ce
244a
244a
64db
ENDCHAR
STARTCHAR ch-165
ENCODING 165
SWIDTH 1000 0
DWIDTH 16 0
BBX 16 16 0 -2
BITMAP
2002
23f4
2451
22da
f98c
2306
2603
21fc
3888
e088
27ff
2088
2088
2189
2309
6607
ENDCHAR
STARTCHAR ch-169
ENCODING 169
SWIDTH 1000 0
DWIDTH 16 0
BBX 16 16 0 -2
BITMAP
2040
2040
27ff
2088
fa8a
2104
23fe
2505
39fc
e104
21fc
2020
2124
2326
2623
60e0
ENDCHAR
STARTCHAR ch-171
ENCODING 171
SWIDTH 1000 0
DWIDTH 16 0
BBX 16 16 0 -2
BITMAP
2100
2100
23ff
2754
f954
2154
27ff
2154
3954
e154
27ff
2000
2000
2154
2356
6653
ENDCHAR
STARTCHAR ch-173
ENCODING 173
SWIDTH 1000 0
DWIDTH 16 0
BBX 16 16 0 -2
BITMAP
201c
21f0
2222
f924
27ff
20a8
21ac
3b26
e623
2000
23fe
2222
23fe
2222
2222
63fe
ENDCHAR
STARTCHAR ch-174
ENCODING 174
SWIDTH 1000 0
DWIDTH 16 0
BBX 16 16 0 -2
BITMAP
21fc
2104
21fc
2104
f9fc
2000
27ff
2240
3bde
e24a
23ca
224e
2244
23ce
265b
6040
ENDCHAR
STARTCHAR ch-176
ENCODING 176
SWIDTH 1000 0
DWIDTH 16 0
BBX 16 16 0 -2
BITMAP
2000
27df
2041
27df
fc10
2451
23cf
2000
3888
e3fe
2088
2088
27ff
2088
218c
6707
ENDCHAR
STARTCHAR ch-178
ENCODING 178
SWIDTH 1000 0
DWIDTH 16 0
BBX 16 16 0 -2
BITMAP
2048
2249
214a
2048
fbff
2084
2048
23ff
3820
e1fe
2020
23ff
2048
20cc
2186
6303
ENDCHAR
STARTCHAR ch-185
ENCODING 185
SWIDTH 1000 0
DWIDTH 16 0
BBX 16 16 0 -2
BITMAP
2242
2366
2124
27ff
fc01
25fd
2104
21fc
3904
e1fc
2104
21fc
2090
2091
2193
670e
ENDCHAR
STARTCHAR ch-187
ENCODING 187
SWIDTH 1000 0
DWIDTH 16 0
BBX 16 16 0 -2
BITMAP
2010
2410
26fe
2210
f9ff
2044
2028
2efe
3210
e2fe
2210
23ff
2210
2610
2500
6cff
ENDCHAR
STARTCHAR ch-188
ENCODING 188
SWIDTH 1000 0
DWIDTH 16 0
BBX 16 16 0 -2
BITMAP
2024
2022
27ff
2420
fdf2
2416
25dc
2548
3ddd
e437
28e2
2000
22a6
2293
2685
6c7c
ENDCHAR
STARTCHAR ch-193
ENCODING 193
SWIDTH 1000 0
DWIDTH 16 0
BBX 16 16 0 -2
BITMAP
2040
2040
2fff
2112
f314
223f
2c64
2524
333e
e224
24a4
2fbe
2124
2324
2624
6c3f
ENDCHAR
STARTCHAR ch-194
ENCODING 194
SWIDTH 1000 0
DWIDTH 16 0
BBX 16 16 0 -2
BITMAP
2000
23fe
2020
27ff
fc21
25ad
2421
21ac
3800
e3fe
2222
2222
23fe
2222
2222
63fe
ENDCHAR
STARTCHAR ch-197
ENCODING 197
SWIDTH 1000 0
DWIDTH 16 0
BBX 16 16 0 -2
BITMAP
2020
27ff
2000
23fe
fa02
22fa
228a
22fa
3a02
e3fe
2104
21fc
2104
21fc
2104
67ff
ENDCHAR
STARTCHAR ch-199
ENCODING 199
SWIDTH 1000 0
DWIDTH 16 0
BBX 16 16 0 -2
BITMAP
2000
23fe
2292
23fe
f820
23fe
2020
27ff
3904
e088
23fe
2020
21fc
2020
2020
6020
ENDCHAR
STARTCHAR ch-205
ENCODING 205
SWIDTH 1000 0
DWIDTH 16 0
BBX 16 16 0 -2
BITMAP
20f8
2088
2088
20f8
f800
23de
2252
2252
3bde
e020
27ff
20a8
21ac
2326
2623
6020
ENDCHAR
STARTCHAR ch-210
ENCODING 210
SWIDTH 1000 0
DWIDTH 16 0
BBX 16 16 0 -2
BITMAP
2020
2050
2088
f924
26fb
2154
2124
2154
39fc
e020
23fe
2242
2292
22ea
2202
620e
ENDCHAR
STARTCHAR ch-212
ENCODING 212
SWIDTH 1000 0
DWIDTH 16 0
BBX 16 16 0 -2
BITMAP
20f8
2110
27ff
2244
fb87
227c
2200
23ff
3a00
e27c
2200
227c
2600
24fe
2c82
60fe
ENDCHAR
STARTCHAR ch-216
ENCODING 216
SWIDTH 1000 0
DWIDTH 16 0
BBX 16 16 0 -2
BITMAP
0008
3f7f
2122
3f14
207f
7f08
517f
df08
0068
07c0
0100
3ffc
0100
ffff
0100
0700
ENDCHAR
STARTCHAR ch-218
ENCODING 218
SWIDTH 1000 0
DWIDTH 16 0
BBX 16 16 0 -2
BITMAP
2040
207e
2040
27ff
fc41
25f8
2442
243e
3c00
e7ff
2440
25a2
2454
25b8
2854
63b3
ENDCHAR
STARTCHAR ch-224
ENCODING 224
SWIDTH 1000 0
DWIDTH 16 0
BBX 16 16 0 -2
BITMAP
2020
2020
27ff
2050
f7af
22aa
22aa
25ad
3000
e202
23fe
2202
23fe
2202
2602
6c02
ENDCHAR
STARTCHAR ch-225
ENCODING 225
SWIDTH 1000 0
DWIDTH 16 0
BBX 16 16 0 -2
BITMAP
2020
27ff
2020
23fe
f904
21fc
2000
27ff
2401
3bfe
e084
23fa
2020
23fe
2020
67ff
ENDCHAR
STARTCHAR ch-226
ENCODING 226
SWIDTH 1000 0
DWIDTH 16 0
BBX 16 16 0 -2
BITMAP
2000
27df
2041
27df
f841
27df
2088
2110
3bff
e620
2bfe
2220
23fe
2220
2220
63ff
ENDCHAR
STARTCHAR ch-227
ENCODING 227
SWIDTH 1000 0
DWIDTH 16 0
BBX 16 16 0 -2
BITMAP
2020
23fe
2020
21fc
f800
27ff
2001
21fd
3820
e3fe
2000
27ff
2002
27bf
2492
6786
ENDCHAR
STARTCHAR ch-230
ENCODING 230
SWIDTH 1000 0
DWIDTH 16 0
BBX 16 16 0 -2
BITMAP
2020
2020
27ff
2401
fdff
2252
2554
2288
3904
e6fb
2000
23fe
2124
2326
2623
6060
ENDCHAR
STARTCHAR ch-231
ENCODING 231
SWIDTH 1000 0
DWIDTH 16 0
BBX 16 16 0 -2
BITMAP
0d00
39dc
2104
39dc
2244
3a5c
2244
ffff
1008
37ec
6106
dffb
0100
7ffe
0100
0700
ENDCHAR
STARTCHAR ch-236
ENCODING 236
SWIDTH 1000 0
DWIDTH 16 0
BBX 16 16 0 -2
BITMAP
2400
24bf
2702
2414
f488
23bf
2409
278a
2a28
f22e
2fa8
2228
2328
22b8
246c
68c7
ENDCHAR
STARTCHAR ch-239
ENCODING 239
SWIDTH 1000 0
DWIDTH 16 0
BBX 16 16 0 -2
BITMAP
2020
27ff
2401
23fe
f824
212b
2630
21fe
3702
e1fe
2102
21fe
2102
21fe
2084
6303
ENDCHAR
STARTCHAR ch-241
ENCODING 241
SWIDTH 1000 0
DWIDTH 16 0
BBX 16 16 0 -2
BITMAP
2000
27df
2451
27df
fc51
27df
2441
24f9
3d89
e471
258d
24f9
2489
2489
24f9
6407
ENDCHAR
STARTCHAR ch-242
ENCODING 242
SWIDTH 1000 0
DWIDTH 16 0
BBX 16 16 0 -2
BITMAP
2220
2147
2ffd
2145
f7f5
2556
2676
2415
37f5
e415
27f5
2087
2ffc
2144
2224
6414
ENDCHAR
STARTCHAR ch-244
ENCODING 244
SWIDTH 1000 0
DWIDTH 16 0
BBX 16 16 0 -2
BITMAP
2020
2020
27ff
2448
fdfe
2448
27ff
2420
3dfe
e522
25fe
2522
2522
25fe
2884
6303
ENDCHAR
STARTCHAR ch-246
ENCODING 246
SWIDTH 1000 0
DWIDTH 16 0
BBX 16 16 0 -2
BITMAP
2210
2210
23df
2528
f904
2088
27ff
2000
3bc2
e252
23d2
2252
23d2
2242
2242
62ce
ENDCHAR
STARTCHAR ch-250
ENCODING 250
SWIDTH 1000 0
DWIDTH 16 0
BBX 16 16 0 -2
BITMAP
2000
27fe
2492
27fe
f900
224a
27ac
2008
3bc9
e247
23c0
224a
23cc
2248
2249
62c7
ENDCHAR
STARTCHAR ch-253
ENCODING 253
SWIDTH 1000 0
DWIDTH 16 0
BBX 16 16 0 -2
BITMAP
2020
2441
26fb
228a
f888
20f8
228a
268b
34f9
e020
27ff
20a8
21ac
2326
2623
6020
ENDCHAR
STARTCHAR ch-254
ENCODING 254
SWIDTH 1000 0
DWIDTH 16 0
BBX 16 16 0 -2
BITMAP
27ff
2040
21fc
2104
f9fc
2104
27ff
2421
3a92
e285
247c
2080
21fc
2684
2078
6787
ENDCHAR
STARTCHAR ch-256
ENCODING 256
SWIDTH 1000 0
DWIDTH 16 0
BBX 16 16 0 -2
BITMAP
2244
f99f
2244
718e
aa55
2004
0100
ffff
0420
1fd8
e107
1ff8
0100
ffff
0100
0700
ENDCHAR
STARTCHAR ch-261
ENCODING 261
SWIDTH 1000 0
DWIDTH 16 0
BBX 16 16 0 -2
BITMAP
2104
27df
2104
27df
f904
228a
2451
21fc
3904
e1fc
2104
21fc
2104
21fc
2088
6306
ENDCHAR
STARTCHAR ch-280
ENCODING 280
SWIDTH 1000 0
DWIDTH 16 0
BBX 16 16 0 -2
BITMAP
2020
2020
27ff
2088
fb06
2088
23fe
2088
3bfe
e088
27ff
2092
2194
2f18
21ec
6707
ENDCHAR
STARTCHAR ch-284
ENCODING 284
SWIDTH 1000 0
DWIDTH 16 0
BBX 16 16 0 -2
BITMAP
2222
2222
23fe
2110
fbfe
2620
23fe
2220
3bfe
e220
27ff
2492
25fe
2692
24f2
6406
ENDCHAR
STARTCHAR ch-285
ENCODING 285
SWIDTH 1000 0
DWIDTH 16 0
BBX 16 16 0 -2
BITMAP
27fe
2108
21f8
f908
21f8
210e
2bf8
3008
6fff
a492
279e
2492
279e
2492
2fbe
6082
ENDCHAR
STARTCHAR ch-291
ENCODING 291
SWIDTH 1000 0
DWIDTH 16 0
BBX 16 16 0 -2
BITMAP
2104
47e8
d00a
23c4
4809
fbdf
2244
b3d6
a815
27e4
0100
3ffc
0100
ffff
0100
0700
ENDCHAR
STARTCHAR ch-292
ENCODING 292
SWIDTH 1000 0
DWIDTH 16 0
BBX 16 16 0 -2
BITMAP
2288
2289
2fea
229f
f834
27d4
2554
255f
37d4
e114
27d4
211f
2ff4
2294
26d4
6c5f
ENDCHAR
STARTCHAR ch-298
ENCODING 298
SWIDTH 1000 0
DWIDTH 16 0
BBX 16 16 0 -2
BITMAP
2180
2356
2222
2356
fa22
2356
2202
27ff
3d05
e5fd
2104
21fc
2104
21fc
2089
670f
ENDCHAR
STARTCHAR ch-299
ENCODING 299
SWIDTH 1000 0
DWIDTH 16 0
BBX 16 16 0 -2
BITMAP
23de
2252
23de
2252
fbde
2252
23ff
2620
3bfe
e220
23fe
2220
2fff
2108
20f0
6f0f
ENDCHAR
STARTCHAR ch-300
ENCODING 300
SWIDTH 1000 0
DWIDTH 16 0
BBX 16 16 0 -2
BITMAP
27c8
250f
27d0
2440
ffcf
2500
27fc
2204
3bfc
e204
23fc
2204
23fc
2111
2313
6e0e
ENDCHAR
STARTCHAR ch-303
ENCODING 303
SWIDTH 1000 0
DWIDTH 16 0
BBX 16 16 0 -2
BITMAP
0100
0100
0100
ffff
0100
0100
3ff0
0810
0c30
0460
06c0
0380
06c0
0c70
381c
e007
ENDCHAR
STARTCHAR ch-308
ENCODING 308
SWIDTH 1000 0
DWIDTH 16 0
BBX 16 16 0 -2
BITMAP
0100
0100
0100
01fe
0100
0100
7ff8
1008
1818
0c30
0660
03c0
0660
0c30
381c
e007
ENDCHAR
STARTCHAR ch-309
ENCODING 309
SWIDTH 1000 0
DWIDTH 16 0
BBX 16 16 0 -2
BITMAP
0800
0800
0800
1fff
1010
3010
6830
cc20
0660
03c0
0180
03c0
0660
0c30
381c
e007
ENDCHAR
STARTCHAR ch-310
ENCODING 310
SWIDTH 1000 0
DWIDTH 16 0
BBX 16 16 0 -2
BITMAP
0440
0440
4440
447f
44c4
4484
45c4
444c
4468
4438
5c10
7438
c428
046c
04c6
0583
ENDCHAR
STARTCHAR ch-311
ENCODING 311
SWIDTH 1000 0
DWIDTH 16 0
BBX 16 16 0 -2
BITMAP
0040
fe40
2040
207f
60c4
4084
fdc4
044c
0468
0438
0c10
0838
0828
186c
10c6
7183
ENDCHAR
STARTCHAR ch-312
ENCODING 312
SWIDTH 1000 0
DWIDTH 16 0
BBX 16 16 0 -2
BITMAP
0840
0840
1840
147f
34c4
2484
65c4
a44c
2468
2438
2410
2438
2428
206c
20c6
2183
ENDCHAR
STARTCHAR ch-313
ENCODING 313
SWIDTH 1000 0
DWIDTH 16 0
BBX 16 16 0 -2
BITMAP
0040
0040
fe40
027f
0244
02c4
7ea4
41ac
4028
4038
4010
4238
6228
3e6c
00c6
0183
ENDCHAR
STARTCHAR ch-315
ENCODING 315
SWIDTH 1000 0
DWIDTH 16 0
BBX 16 16 0 -2
BITMAP
0080
0080
0080
fdff
1104
1384
168c
10c8
1058
1070
1c20
7070
c0d8
018c
0306
0603
ENDCHAR
STARTCHAR ch-318
ENCODING 318
SWIDTH 1000 0
DWIDTH 16 0
BBX 16 16 0 -2
BITMAP
1040
1040
1040
ff7f
1044
10c4
1ea4
122c
1228
1238
3210
2238
2628
646c
44c6
cd83
ENDCHAR
STARTCHAR ch-319
ENCODING 319
SWIDTH 1000 0
DWIDTH 16 0
BBX 16 16 0 -2
BITMAP
0040
0040
ff40
087f
08c4
0884
49c4
4e4c
4868
4838
4810
4838
4f28
786c
c0c6
0183
ENDCHAR
STARTCHAR ch-325
ENCODING 325
SWIDTH 1000 0
DWIDTH 16 0
BBX 16 16 0 -2
BITMAP
1040
1040
1040
fe7f
10c4
1084
11c4
104c
7c68
4438
4410
4438
4428
446c
7cc6
0183
ENDCHAR
STARTCHAR ch-328
ENCODING 328
SWIDTH 1000 0
DWIDTH 16 0
BBX 16 16 0 -2
BITMAP
0820
0820
0820
ff7f
2444
66c4
c344
246c
3428
1c38
0810
1c38
1628
326c
60c6
c183
ENDCHAR
STARTCHAR ch-333
ENCODING 333
SWIDTH 1000 0
DWIDTH 16 0
BBX 16 16 0 -2
BITMAP
0810
1c10
361f
6310
c010
3efe
0842
0846
ff64
082c
2a38
2b10
69b8
c86c
08c6
3983
ENDCHAR
STARTCHAR ch-335
ENCODING 335
SWIDTH 1000 0
DWIDTH 16 0
BBX 16 16 0 -2
BITMAP
2020
2020
7f20
403f
be64
2a44
2ac4
2a2c
ffa8
5228
5238
5210
5238
7f2c
0466
0cc3
ENDCHAR
STARTCHAR ch-337
ENCODING 337
SWIDTH 1000 0
DWIDTH 16 0
BBX 16 16 0 -2
BITMAP
0a20
0920
0820
ff3f
0824
4964
6b44
2aec
0828
0838
1e10
3b10
6938
c86c
08c6
3983
ENDCHAR
STARTCHAR ch-341
ENCODING 341
SWIDTH 1000 0
DWIDTH 16 0
BBX 16 16 0 -2
BITMAP
0820
0820
ffa0
083f
0864
7f44
49cc
4928
7f28
0838
1810
1c38
2a28
696c
c846
08c3
ENDCHAR
STARTCHAR ch-342
ENCODING 342
SWIDTH 1000 0
DWIDTH 16 0
BBX 16 16 0 -2
BITMAP
0820
0820
7f20
083f
ffe4
0844
082c
ffa8
1028
1f38
1110
1138
3128
236c
6246
cec3
ENDCHAR
STARTCHAR ch-343
ENCODING 343
SWIDTH 1000 0
DWIDTH 16 0
BBX 16 16 0 -2
BITMAP
0040
7c40
4440
44ff
7c84
4584
4444
446c
7c28
4438
4410
4438
7c28
286c
6cc6
c583
ENDCHAR
STARTCHAR ch-344
ENCODING 344
SWIDTH 1000 0
DWIDTH 16 0
BBX 16 16 0 -2
BITMAP
0820
1c20
3620
633f
c064
3e44
08cc
0828
ff28
0838
2a10
2b38
69a8
c86c
08c6
3983
ENDCHAR
STARTCHAR ch-345
ENCODING 345
SWIDTH 1000 0
DWIDTH 16 0
BBX 16 16 0 -2
BITMAP
08a0
08a0
7f20
097f
0a44
ff44
04a4
7e2c
1228
2438
c810
0f38
f828
086c
08c6
3983
ENDCHAR
STARTCHAR ch-349
ENCODING 349
SWIDTH 1000 0
DWIDTH 16 0
BBX 16 16 0 -2
BITMAP
0810
8890
c990
491f
0832
ffa2
88e6
8894
aa94
aa9c
aa88
aa9c
8894
8896
88b2
81a3
ENDCHAR
STARTCHAR ch-350
ENCODING 350
SWIDTH 1000 0
DWIDTH 16 0
BBX 16 16 0 -2
BITMAP
0820
4920
6b20
2a3f
0864
7f44
41cc
5d28
5528
5538
5510
5538
5d28
412c
4166
4343
ENDCHAR
STARTCHAR ch-354
ENCODING 354
SWIDTH 1000 0
DWIDTH 16 0
BBX 16 16 0 -2
BITMAP
0020
7f20
0820
087f
ffc4
2244
22e4
3e2c
2228
2238
3e10
2238
2228
3e6c
e246
02c3
ENDCHAR
STARTCHAR ch-355
ENCODING 355
SWIDTH 1000 0
DWIDTH 16 0
BBX 16 16 0 -2
BITMAP
2420
2420
ff20
243f
2464
ff44
00cc
7e28
4228
7e38
4210
7e38
4228
426c
4246
46c3
ENDCHAR
STARTCHAR ch-358
ENCODING 358
SWIDTH 1000 0
DWIDTH 16 0
BBX 16 16 0 -2
BITMAP
0820
0820
ffa0
003f
3e64
2244
3ec4
002c
7e28
0438
0810
0f10
f838
082c
0866
38c3
ENDCHAR
STARTCHAR ch-364
ENCODING 364
SWIDTH 1000 0
DWIDTH 16 0
BBX 16 16 0 -2
BITMAP
2420
2420
ff20
243f
2464
4044
7ec4
422c
fa28
4a38
4a10
4a38
7a28
066c
0446
1cc3
ENDCHAR
STARTCHAR ch-368
ENCODING 368
SWIDTH 1000 0
DWIDTH 16 0
BBX 16 16 0 -2
BITMAP
0820
4920
6b20
2a7f
ff44
28c4
2e24
6b2c
c928
1038
ff90
2210
2638
7c2c
1666
e2c3
ENDCHAR
STARTCHAR ch-370
ENCODING 370
SWIDTH 1000 0
DWIDTH 16 0
BBX 16 16 0 -2
BITMAP
0808
0808
ff8f
0008
3e08
227e
3e22
0022
7f36
4114
5d1c
5508
551c
5d14
4136
4363
ENDCHAR
STARTCHAR ch-372
ENCODING 372
SWIDTH 1000 0
DWIDTH 16 0
BBX 16 16 0 -2
BITMAP
0820
ffa0
083f
7f64
49c4
492c
7f18
2a34
6b66
c903
0000
3ffc
0100
11f8
1100
ffff
ENDCHAR
STARTCHAR ch-373
ENCODING 373
SWIDTH 1000 0
DWIDTH 16 0
BBX 16 16 0 -2
BITMAP
0820
0820
ffa0
223f
1424
7f64
4154
4914
5d14
491c
5d08
5508
551c
5d14
4136
4363
ENDCHAR
STARTCHAR ch-375
ENCODING 375
SWIDTH 1000 0
DWIDTH 16 0
BBX 16 16 0 -2
BITMAP
0a20
0920
ffa0
087f
7f44
49c4
7f24
492c
7f28
0838
ff90
1010
1f38
312c
6366
cec3
ENDCHAR
STARTCHAR ch-376
ENCODING 376
SWIDTH 1000 0
DWIDTH 16 0
BBX 16 16 0 -2
BITMAP
0810
7f10
4910
ff9f
4932
7f22
0866
7f14
4914
7f1c
1008
ff88
221c
7c14
0e36
f363
ENDCHAR
STARTCHAR ch-386
ENCODING 386
SWIDTH 1000 0
DWIDTH 16 0
BBX 16 16 0 -2
BITMAP
0810
1c10
3610
631f
c1b2
3e22
0066
7714
5514
551c
7708
0008
221c
2214
7736
d563
ENDCHAR
STARTCHAR ch-387
ENCODING 387
SWIDTH 1000 0
DWIDTH 16 0
BBX 16 16 0 -2
BITMAP
4920
2a20
7f7f
49c4
5d28
6b10
492c
4b43
0000
ffff
0840
1f4c
6178
1241
0c63
f03e
ENDCHAR
STARTCHAR ch-391
ENCODING 391
SWIDTH 1000 0
DWIDTH 16 0
BBX 16 16 0 -2
BITMAP
0100
0100
0100
ffff
0810
0810
0c30
0420
0660
02c0
0180
03c0
0660
0c30
381c
e007
ENDCHAR
STARTCHAR ch-392
ENCODING 392
SWIDTH 1000 0
DWIDTH 16 0
BBX 16 16 0 -2
BITMAP
0100
0100
ffff
0810
0660
03c0
0e70
f81f
0000
1ff0
00c0
0100
ffff
0100
0100
0700
ENDCHAR
STARTCHAR ch-393
ENCODING 393
SWIDTH 1000 0
DWIDTH 16 0
BBX 16 16 0 -2
BITMAP
0100
0100
ffff
0810
0660
03c0
1e78
f00f
1ff8
1008
1008
1ff8
1008
3008
6008
c008
ENDCHAR
STARTCHAR ch-396
ENCODING 396
SWIDTH 1000 0
DWIDTH 16 0
BBX 16 16 0 -2
BITMAP
100a
11e9
1009
fc08
0bff
4848
6848
2948
3978
1148
114c
3944
2d44
6575
c1c7
0302
ENDCHAR
STARTCHAR ch-398
ENCODING 398
SWIDTH 1000 0
DWIDTH 16 0
BBX 16 16 0 -2
BITMAP
0100
0100
ffff
0820
0440
0380
06e0
1c38
f7cf
1008
1fe8
1108
1548
3928
2308
6008
ENDCHAR
STARTCHAR ch-400
ENCODING 400
SWIDTH 1000 0
DWIDTH 16 0
BBX 16 16 0 -2
BITMAP
0420
0420
fc3f
0420
7c3e
0420
fc3f
0920
1100
ffff
0810
0c30
0660
03c0
1e78
f00f
ENDCHAR
STARTCHAR ch-401
ENCODING 401
SWIDTH 1000 0
DWIDTH 16 0
BBX 16 16 0 -2
BITMAP
0100
f93f
2108
2fe8
2088
2488
f688
22be
2388
2108
2388
3ac8
6648
cc08
183f
0000
ENDCHAR
STARTCHAR ch-407
ENCODING 407
SWIDTH 1000 0
DWIDTH 16 0
BBX 16 16 0 -2
BITMAP
0020
0020
1820
0e20
0220
0020
3020
1c20
0420
0020
003f
07e0
fc20
0020
0020
0020
ENDCHAR
STARTCHAR ch-409
ENCODING 409
SWIDTH 1000 0
DWIDTH 16 0
BBX 16 16 0 -2
BITMAP
1004
9264
d634
5414
1004
fec4
1064
3824
3404
5207
503c
91e4
1004
1004
1004
1004
ENDCHAR
STARTCHAR ch-411
ENCODING 411
SWIDTH 1000 0
DWIDTH 16 0
BBX 16 16 0 -2
BITMAP
2004
3e04
6264
4434
ff14
4904
4964
7f34
4914
4904
7f07
411c
4174
4104
c104
8704
ENDCHAR
STARTCHAR ch-412
ENCODING 412
SWIDTH 1000 0
DWIDTH 16 0
BBX 16 16 0 -2
BITMAP
0804
1c44
1664
3324
2104
7e44
c864
0824
ff84
0807
2a3c
2ae4
6b04
c904
0804
3804
ENDCHAR
STARTCHAR ch-415
ENCODING 415
SWIDTH 1000 0
DWIDTH 16 0
BBX 16 16 0 -2
BITMAP
2204
2204
ffa4
2234
3e14
2204
3e24
2234
2214
ff84
5407
541c
6774
4004
7f84
0004
ENDCHAR
STARTCHAR ch-417
ENCODING 417
SWIDTH 1000 0
DWIDTH 16 0
BBX 16 16 0 -2
BITMAP
1010
1038
fe28
106c
7cc6
4583
4464
7c34
4404
44c4
7c64
1007
fe3c
10e4
1004
1004
ENDCHAR
STARTCHAR ch-420
ENCODING 420
SWIDTH 1000 0
DWIDTH 16 0
BBX 16 16 0 -2
BITMAP
000c
0078
3fc0
2000
2000
3fff
2040
2040
2040
2040
2040
2040
6040
4040
c040
0040
ENDCHAR
STARTCHAR ch-421
ENCODING 421
SWIDTH 1000 0
DWIDTH 16 0
BBX 16 16 0 -2
BITMAP
0018
00f0
3f80
2000
2000
3fff
2040
2040
2740
21f0
205c
6046
4040
c040
0040
0040
ENDCHAR
STARTCHAR ch-423
ENCODING 423
SWIDTH 1000 0
DWIDTH 16 0
BBX 16 16 0 -2
BITMAP
0240
0660
1c38
766e
03c0
0660
1c38
f0ef
1f80
1000
1fff
1040
3040
6040
c040
0040
ENDCHAR
STARTCHAR ch-427
ENCODING 427
SWIDTH 1000 0
DWIDTH 16 0
BBX 16 16 0 -2
BITMAP
0006
fe1c
10f0
1080
1080
10ff
3c88
2488
6488
6488
a488
2488
2588
3d08
0308
0008
ENDCHAR
STARTCHAR ch-428
ENCODING 428
SWIDTH 1000 0
DWIDTH 16 0
BBX 16 16 0 -2
BITMAP
0802
080e
ffb8
0820
7f20
493f
4924
7f24
4924
4924
7f24
0824
ffe4
0844
08c4
0804
ENDCHAR
STARTCHAR ch-429
ENCODING 429
SWIDTH 1000 0
DWIDTH 16 0
BBX 16 16 0 -2
BITMAP
0002
440e
5578
5540
5540
4440
5f7f
4444
4e44
4d44
5544
4444
4444
4044
7fc4
0084
ENDCHAR
STARTCHAR ch-431
ENCODING 431
SWIDTH 1000 0
DWIDTH 16 0
BBX 16 16 0 -2
BITMAP
2202
220e
ffb8
2220
2220
3e3f
2224
2224
3e24
2224
2224
ffa4
2464
2644
62c4
c004
ENDCHAR
STARTCHAR ch-432
ENCODING 432
SWIDTH 1000 0
DWIDTH 16 0
BBX 16 16 0 -2
BITMAP
0802
080e
ff78
4240
6640
247f
ff44
0844
0844
ff44
2844
2c44
6ac4
4884
c984
0804
ENDCHAR
STARTCHAR ch-439
ENCODING 439
SWIDTH 1000 0
DWIDTH 16 0
BBX 16 16 0 -2
BITMAP
1106
a20c
aab8
9120
aaa0
bbbf
8024
ffa4
9124
a224
aaa4
9124
aaa4
bba4
8044
ff84
ENDCHAR
STARTCHAR ch-441
ENCODING 441
SWIDTH 1000 0
DWIDTH 16 0
BBX 16 16 0 -2
BITMAP
0100
0100
0100
ffff
0200
0200
0200
03f8
0608
0408
0408
0c08
0818
1810
3010
e0f0
ENDCHAR
STARTCHAR ch-444
ENCODING 444
SWIDTH 1000 0
DWIDTH 16 0
BBX 16 16 0 -2
BITMAP
1010
1010
1038
ff28
106c
1044
1ec6
13b3
1218
120c
3204
2260
2630
6418
440c
cc04
ENDCHAR
STARTCHAR ch-445
ENCODING 445
SWIDTH 1000 0
DWIDTH 16 0
BBX 16 16 0 -2
BITMAP
1080
1080
1080
fdff
2100
2310
3c96
249a
24b2
24d2
2596
2490
6490
4481
44c3
dc7e
ENDCHAR
STARTCHAR ch-449
ENCODING 449
SWIDTH 1000 0
DWIDTH 16 0
BBX 16 16 0 -2
BITMAP
0100
0100
7ffe
0810
0420
7ffe
4002
4102
0100
ffff
0200
07fc
0404
0c0c
1808
7038
ENDCHAR
STARTCHAR ch-451
ENCODING 451
SWIDTH 1000 0
DWIDTH 16 0
BBX 16 16 0 -2
BITMAP
1080
1080
1080
fdff
2100
2300
3cfe
2492
2492
2492
25ff
2482
6482
4482
4482
dc8e
ENDCHAR
STARTCHAR ch-452
ENCODING 452
SWIDTH 1000 0
DWIDTH 16 0
BBX 16 16 0 -2
BITMAP
1040
1040
1040
feff
2180
200c
3cf8
2420
24fc
2420
2420
25fe
6420
4421
4433
dc1e
ENDCHAR
STARTCHAR ch-453
ENCODING 453
SWIDTH 1000 0
DWIDTH 16 0
BBX 16 16 0 -2
BITMAP
1040
1040
1040
feff
1090
11b0
1020
1e72
13d6
1254
1258
3248
264c
2444
6446
dc43
ENDCHAR
STARTCHAR ch-454
ENCODING 454
SWIDTH 1000 0
DWIDTH 16 0
BBX 16 16 0 -2
BITMAP
1040
1040
1040
feff
2190
2010
3dff
2410
2410
24fe
2492
2492
6492
4496
4410
dc10
ENDCHAR
STARTCHAR ch-459
ENCODING 459
SWIDTH 1000 0
DWIDTH 16 0
BBX 16 16 0 -2
BITMAP
1040
1040
10ff
fe80
2100
20ff
3c12
2414
2450
2450
245e
2450
6450
4470
44dc
dd87
ENDCHAR
STARTCHAR ch-460
ENCODING 460
SWIDTH 1000 0
DWIDTH 16 0
BBX 16 16 0 -2
BITMAP
1040
1040
1040
feff
2080
2190
3c50
2450
24fe
2590
2410
24fe
6410
4410
4410
ddff
ENDCHAR
STARTCHAR ch-463
ENCODING 463
SWIDTH 1000 0
DWIDTH 16 0
BBX 16 16 0 -2
BITMAP
1080
1080
1080
ffff
2100
2340
3c7e
24d0
2410
2410
25ff
2428
2428
646c
44c6
cd83
ENDCHAR
STARTCHAR ch-466
ENCODING 466
SWIDTH 1000 0
DWIDTH 16 0
BBX 16 16 0 -2
BITMAP
1080
1080
11ff
ff00
2010
21ff
3c20
2444
24fa
2400
2454
2454
6454
4455
44d5
dd83
ENDCHAR
STARTCHAR ch-471
ENCODING 471
SWIDTH 1000 0
DWIDTH 16 0
BBX 16 16 0 -2
BITMAP
1080
1080
11ff
fd00
2244
21ff
3c44
247c
2444
247c
2444
25ff
6400
4c44
48c6
d983
ENDCHAR
STARTCHAR ch-473
ENCODING 473
SWIDTH 1000 0
DWIDTH 16 0
BBX 16 16 0 -2
BITMAP
1006
101c
11f0
fe92
2054
21ff
3c54
24d6
2593
2400
24fe
2492
64fe
4492
4492
dcfe
ENDCHAR
STARTCHAR ch-475
ENCODING 475
SWIDTH 1000 0
DWIDTH 16 0
BBX 16 16 0 -2
BITMAP
1080
1080
11ff
ff00
200e
21f8
3c92
2454
25ff
2454
2492
25ff
6492
44fe
4492
dcfe
ENDCHAR
STARTCHAR ch-480
ENCODING 480
SWIDTH 1000 0
DWIDTH 16 0
BBX 16 16 0 -2
BITMAP
0000
7ffe
0100
0100
0100
0100
ffff
0100
0380
0280
0680
0480
0c80
1881
30c3
e07e
ENDCHAR
STARTCHAR ch-481
ENCODING 481
SWIDTH 1000 0
DWIDTH 16 0
BBX 16 16 0 -2
BITMAP
0000
7ffe
0840
0840
0840
0840
0840
ffff
0080
0180
0140
0340
0640
0c41
3863
e03e
ENDCHAR
STARTCHAR ch-482
ENCODING 482
SWIDTH 1000 0
DWIDTH 16 0
BBX 16 16 0 -2
BITMAP
0000
7efe
4248
4248
7e48
4248
4248
7fff
4008
4018
4418
4438
5e28
7269
c0c9
0187
ENDCHAR
STARTCHAR ch-485
ENCODING 485
SWIDTH 1000 0
DWIDTH 16 0
BBX 16 16 0 -2
BITMAP
0000
1ff8
1008
1008
1008
1008
1008
1ff8
1008
1008
1008
1008
1008
1008
1ff8
0000
ENDCHAR
STARTCHAR ch-486
ENCODING 486
SWIDTH 1000 0
DWIDTH 16 0
BBX 16 16 0 -2
BITMAP
0000
1ff8
1008
1008
1008
1008
1ff8
1008
1008
1008
1008
1ff8
0000
0000
ffff
0000
ENDCHAR
STARTCHAR ch-487
ENCODING 487
SWIDTH 1000 0
DWIDTH 16 0
BBX 16 16 0 -2
BITMAP
0000
43fe
4202
4202
4202
4202
4202
43fe
4202
4202
4202
4202
4202
4202
43fe
0000
ENDCHAR
STARTCHAR ch-488
ENCODING 488
SWIDTH 1000 0
DWIDTH 16 0
BBX 16 16 0 -2
BITMAP
2000
203c
3fe0
2000
2002
3006
1ffc
0000
0000
3ffc
2004
2004
3ffc
2004
2004
3ffc
ENDCHAR
STARTCHAR ch-489
ENCODING 489
SWIDTH 1000 0
DWIDTH 16 0
BBX 16 16 0 -2
BITMAP
0000
1ff8
1008
1008
1ff8
1008
1008
1ff8
0100
0100
ffff
0100
0100
0100
0100
0100
ENDCHAR
STARTCHAR ch-492
ENCODING 492
SWIDTH 1000 0
DWIDTH 16 0
BBX 16 16 0 -2
BITMAP
0800
0800
1ffe
1002
3002
6fc2
c842
0842
0fc2
0842
0842
0842
0fc2
0006
0004
001c
ENDCHAR
STARTCHAR ch-493
ENCODING 493
SWIDTH 1000 0
DWIDTH 16 0
BBX 16 16 0 -2
BITMAP
2000
20fc
2084
2084
fc84
2484
24fc
2484
2484
2484
2484
24fc
2400
6401
4603
c3fe
ENDCHAR
STARTCHAR ch-497
ENCODING 497
SWIDTH 1000 0
DWIDTH 16 0
BBX 16 16 0 -2
BITMAP
0000
1ff8
1008
1008
1ff8
1008
1008
1ff8
0000
3ffc
0100
0100
ffff
0100
0100
0100
ENDCHAR
STARTCHAR ch-506
ENCODING 506
SWIDTH 1000 0
DWIDTH 16 0
BBX 16 16 0 -2
BITMAP
0000
fbfe
8820
8820
8820
8820
f820
8bfe
8820
8820
8820
8820
f820
0020
07ff
0000
ENDCHAR
STARTCHAR ch-507
ENCODING 507
SWIDTH 1000 0
DWIDTH 16 0
BBX 16 16 0 -2
BITMAP
0000
1ff8
1008
1ff8
1008
1ff8
0100
0100
ffff
0810
0c30
0660
03c0
0660
1c38
f00f
ENDCHAR
ENDFONT
