STARTFONT 2.1
FONT jis.jis9200.16
SIZE 16 72 72
FONTBOUNDINGBOX 16 16 0 -2
STARTPROPERTIES 4
FONT_DESCENT 2
FONT_ASCENT 14
DEFAULT_CHAR 13
COPYRIGHT "Copyright (c) 1992 AT&T - All rights reserved."
ENDPROPERTIES
CHARS 106
STARTCHAR ch-13
ENCODING 13
SWIDTH 1000 0
DWIDTH 16 0
BBX 16 16 0 -2
BITMAP
1020
3826
2c3c
65e0
4020
fd22
1122
1122
fd22
1122
95fe
d420
5020
1c21
7033
c01e
ENDCHAR
STARTCHAR ch-14
ENCODING 14
SWIDTH 1000 0
DWIDTH 16 0
BBX 16 16 0 -2
BITMAP
1040
3840
2c40
66fe
4082
fd82
1042
1042
fed2
1092
94fa
d58a
5002
1c06
7004
c01c
ENDCHAR
STARTCHAR ch-17
ENCODING 17
SWIDTH 1000 0
DWIDTH 16 0
BBX 16 16 0 -2
BITMAP
1000
38ff
2c80
6680
4080
fcfe
10a2
10a2
fcb6
1094
949c
d488
519c
1d14
7336
c063
ENDCHAR
STARTCHAR ch-20
ENCODING 20
SWIDTH 1000 0
DWIDTH 16 0
BBX 16 16 0 -2
BITMAP
0810
1c10
1610
3354
2054
7e56
c8d3
0890
7f12
0812
4a76
6a04
280c
0f18
3830
e0e0
ENDCHAR
STARTCHAR ch-21
ENCODING 21
SWIDTH 1000 0
DWIDTH 16 0
BBX 16 16 0 -2
BITMAP
1000
39fc
2c44
6644
4044
fc44
1044
11ff
fc44
1044
9444
d444
5044
1c44
71ff
c000
ENDCHAR
STARTCHAR ch-30
ENCODING 30
SWIDTH 1000 0
DWIDTH 16 0
BBX 16 16 0 -2
BITMAP
1040
3840
2c40
66ff
4081
fd81
1079
1001
fc01
1019
9431
d461
5003
1c02
7006
c01c
ENDCHAR
STARTCHAR ch-41
ENCODING 41
SWIDTH 1000 0
DWIDTH 16 0
BBX 16 16 0 -2
BITMAP
0800
1cff
1600
3300
207e
7e42
c842
0842
7f7e
0840
4a40
6a40
2840
0ec0
3880
e180
ENDCHAR
STARTCHAR ch-44
ENCODING 44
SWIDTH 1000 0
DWIDTH 16 0
BBX 16 16 0 -2
BITMAP
1000
38fe
2c82
6682
4082
fc82
10fe
1088
fc88
1088
9488
d48c
5084
1d84
7106
c303
ENDCHAR
STARTCHAR ch-52
ENCODING 52
SWIDTH 1000 0
DWIDTH 16 0
BBX 16 16 0 -2
BITMAP
1010
3838
2c6c
66c6
4183
fc7c
1000
1000
fcfe
1022
9422
d422
5022
1c2e
7020
c020
ENDCHAR
STARTCHAR ch-55
ENCODING 55
SWIDTH 1000 0
DWIDTH 16 0
BBX 16 16 0 -2
BITMAP
1010
3810
2c10
6410
41ff
fc10
1010
1010
fe10
10fe
9482
d482
5082
1e82
7082
c0fe
ENDCHAR
STARTCHAR ch-63
ENCODING 63
SWIDTH 1000 0
DWIDTH 16 0
BBX 16 16 0 -2
BITMAP
1000
38fe
2c92
6692
4092
fc92
1092
10fe
fc92
1092
9492
d492
5092
1c92
70fe
c000
ENDCHAR
STARTCHAR ch-68
ENCODING 68
SWIDTH 1000 0
DWIDTH 16 0
BBX 16 16 0 -2
BITMAP
1010
3890
2c90
64fe
4190
fd10
1010
11ff
fc10
1010
9438
d428
506c
1c44
70c6
c183
ENDCHAR
STARTCHAR ch-69
ENCODING 69
SWIDTH 1000 0
DWIDTH 16 0
BBX 16 16 0 -2
BITMAP
0800
1c7f
1640
3340
2040
7e7e
c842
0842
7f42
087e
4a40
6a40
2840
0f40
387f
e000
ENDCHAR
STARTCHAR ch-72
ENCODING 72
SWIDTH 1000 0
DWIDTH 16 0
BBX 16 16 0 -2
BITMAP
1010
3810
2c10
65ff
4101
fd01
1040
1046
fc5c
1070
9440
d440
5040
1c41
7063
c03e
ENDCHAR
STARTCHAR ch-73
ENCODING 73
SWIDTH 1000 0
DWIDTH 16 0
BBX 16 16 0 -2
BITMAP
1010
3810
2c10
65ff
4010
fc30
1060
10c4
fc6c
1038
9410
d430
5062
1c42
70df
c1f1
ENDCHAR
STARTCHAR ch-75
ENCODING 75
SWIDTH 1000 0
DWIDTH 16 0
BBX 16 16 0 -2
BITMAP
1080
3880
2dfe
6502
4302
fcf2
1012
1012
fc12
10f6
9484
d49c
5080
1c81
70c3
c07e
ENDCHAR
STARTCHAR ch-80
ENCODING 80
SWIDTH 1000 0
DWIDTH 16 0
BBX 16 16 0 -2
BITMAP
1000
39ff
2c10
6610
4030
fc20
1020
107e
fcc2
1142
9442
d442
5042
1c42
707e
c000
ENDCHAR
STARTCHAR ch-87
ENCODING 87
SWIDTH 1000 0
DWIDTH 16 0
BBX 16 16 0 -2
BITMAP
1044
3844
2c44
65ff
4044
fc44
1044
1044
fc44
107c
9444
d444
5044
1c44
7044
c07c
ENDCHAR
STARTCHAR ch-90
ENCODING 90
SWIDTH 1000 0
DWIDTH 16 0
BBX 16 16 0 -2
BITMAP
1020
3860
2dcf
6529
4129
fd29
1129
1129
fd29
1129
9529
d5e9
532f
1028
3c68
e0c8
ENDCHAR
STARTCHAR ch-91
ENCODING 91
SWIDTH 1000 0
DWIDTH 16 0
BBX 16 16 0 -2
BITMAP
1024
3824
2c24
6666
4242
fcc3
1081
1000
fe7e
1042
9442
d442
5042
1e42
7042
c07e
ENDCHAR
STARTCHAR ch-94
ENCODING 94
SWIDTH 1000 0
DWIDTH 16 0
BBX 16 16 0 -2
BITMAP
1014
3816
2c12
6610
40ff
fc90
1092
1092
fc96
1094
949c
d488
50dc
1d95
7037
c062
ENDCHAR
STARTCHAR ch-98
ENCODING 98
SWIDTH 1000 0
DWIDTH 16 0
BBX 16 16 0 -2
BITMAP
1010
3810
2c10
6410
41ff
fc54
1054
1054
fe54
10d6
9492
d593
507c
1c10
7010
c010
ENDCHAR
STARTCHAR ch-100
ENCODING 100
SWIDTH 1000 0
DWIDTH 16 0
BBX 16 16 0 -2
BITMAP
1040
3840
2c40
66ff
4081
fd81
1079
1049
fc49
1049
9449
d479
5001
1c03
7002
c00e
ENDCHAR
STARTCHAR ch-102
ENCODING 102
SWIDTH 1000 0
DWIDTH 16 0
BBX 16 16 0 -2
BITMAP
1000
39fe
2c10
6410
4010
fc90
1090
109e
fc90
1090
9490
d490
5090
1c90
73ff
c000
ENDCHAR
STARTCHAR ch-113
ENCODING 113
SWIDTH 1000 0
DWIDTH 16 0
BBX 16 16 0 -2
BITMAP
1010
3810
2c10
65ff
4100
fd00
1110
1110
fd10
1130
9520
d524
5166
1f42
725f
c6f1
ENDCHAR
STARTCHAR ch-126
ENCODING 126
SWIDTH 1000 0
DWIDTH 16 0
BBX 16 16 0 -2
BITMAP
1020
3820
2c64
6644
40fe
fc02
1010
1090
fcfe
1110
9410
d5ff
5010
1c10
7010
c010
ENDCHAR
STARTCHAR ch-128
ENCODING 128
SWIDTH 1000 0
DWIDTH 16 0
BBX 16 16 0 -2
BITMAP
1000
38fe
2c82
6682
42fe
fc82
1082
10fe
fe91
1093
9496
d498
5088
1e8c
70f6
c383
ENDCHAR
STARTCHAR ch-131
ENCODING 131
SWIDTH 1000 0
DWIDTH 16 0
BBX 16 16 0 -2
BITMAP
1020
3820
2c20
65ff
4040
fcc4
1084
11fe
fe4a
1048
9448
d448
50c8
1e89
7189
c307
ENDCHAR
STARTCHAR ch-133
ENCODING 133
SWIDTH 1000 0
DWIDTH 16 0
BBX 16 16 0 -2
BITMAP
1000
39fe
2d02
6502
417a
fd02
1102
117a
ff4a
114a
954a
d57a
5102
1d02
7102
c106
ENDCHAR
STARTCHAR ch-145
ENCODING 145
SWIDTH 1000 0
DWIDTH 16 0
BBX 16 16 0 -2
BITMAP
1010
3890
2c90
65fe
4110
fc10
1010
11ff
fe48
1048
9448
d448
50c8
1c89
7189
c307
ENDCHAR
STARTCHAR ch-147
ENCODING 147
SWIDTH 1000 0
DWIDTH 16 0
BBX 16 16 0 -2
BITMAP
1010
3838
2c6c
66c6
4183
fc00
10fe
1010
fc10
1010
947c
d410
5010
1c10
71ff
c000
ENDCHAR
STARTCHAR ch-149
ENCODING 149
SWIDTH 1000 0
DWIDTH 16 0
BBX 16 16 0 -2
BITMAP
1010
3810
2dff
6410
40fe
fc12
10fe
1090
fc90
10ff
9411
d439
502b
1c6c
70c6
c183
ENDCHAR
STARTCHAR ch-150
ENCODING 150
SWIDTH 1000 0
DWIDTH 16 0
BBX 16 16 0 -2
BITMAP
1010
3890
2c90
64fe
4190
fd10
1010
11ff
fc54
1054
9454
d4d6
5092
1d93
7010
c010
ENDCHAR
STARTCHAR ch-152
ENCODING 152
SWIDTH 1000 0
DWIDTH 16 0
BBX 16 16 0 -2
BITMAP
1040
3840
2c7c
64c4
408c
fdc8
1358
1030
fc20
107e
95c2
d442
5042
1c42
7042
c07e
ENDCHAR
STARTCHAR ch-154
ENCODING 154
SWIDTH 1000 0
DWIDTH 16 0
BBX 16 16 0 -2
BITMAP
1048
3848
2c49
654b
40ce
fc48
1048
1048
fc4e
10cb
9549
d448
50c8
1c89
7189
c307
ENDCHAR
STARTCHAR ch-155
ENCODING 155
SWIDTH 1000 0
DWIDTH 16 0
BBX 16 16 0 -2
BITMAP
1006
381c
2cf0
6610
4010
fdff
1010
1010
fc10
1010
94fe
d482
5082
1c82
7082
c0fe
ENDCHAR
STARTCHAR ch-156
ENCODING 156
SWIDTH 1000 0
DWIDTH 16 0
BBX 16 16 0 -2
BITMAP
1100
338f
62c0
c660
1430
3fc0
610f
e104
2fe4
2104
2924
2d64
2544
23e4
2e04
200c
ENDCHAR
STARTCHAR ch-173
ENCODING 173
SWIDTH 1000 0
DWIDTH 16 0
BBX 16 16 0 -2
BITMAP
1028
3824
2c20
65fe
4020
fdfe
1020
11ff
fe20
1032
9416
d41c
5008
1c1d
7077
c1c2
ENDCHAR
STARTCHAR ch-183
ENCODING 183
SWIDTH 1000 0
DWIDTH 16 0
BBX 16 16 0 -2
BITMAP
0810
1c92
16d6
3354
2010
7efe
c882
0882
7efe
0882
4a82
6afe
2882
0e82
3882
e08e
ENDCHAR
STARTCHAR ch-185
ENCODING 185
SWIDTH 1000 0
DWIDTH 16 0
BBX 16 16 0 -2
BITMAP
1006
381c
2cf0
6410
41ff
fc54
10d6
1193
fc00
10fc
9424
d427
5061
1c41
70c1
c187
ENDCHAR
STARTCHAR ch-207
ENCODING 207
SWIDTH 1000 0
DWIDTH 16 0
BBX 16 16 0 -2
BITMAP
1010
3810
2dff
6410
4092
fc92
1092
1155
fd55
1038
9428
d428
506c
1c44
70c6
c183
ENDCHAR
STARTCHAR ch-210
ENCODING 210
SWIDTH 1000 0
DWIDTH 16 0
BBX 16 16 0 -2
BITMAP
1040
387c
2c44
64cc
41a8
fc38
106c
11c7
fc10
10fe
9410
d4fe
5010
1dff
7010
c010
ENDCHAR
STARTCHAR ch-228
ENCODING 228
SWIDTH 1000 0
DWIDTH 16 0
BBX 16 16 0 -2
BITMAP
2008
73c8
5a48
ca48
027f
fbc9
2249
2249
fa49
23c9
aa49
aa49
a259
3bd3
6632
c066
ENDCHAR
STARTCHAR ch-233
ENCODING 233
SWIDTH 1000 0
DWIDTH 16 0
BBX 16 16 0 -2
BITMAP
1044
3844
2dff
6644
4044
fc00
1010
1010
fdff
1040
9440
d440
5040
1c40
7060
c03e
ENDCHAR
STARTCHAR ch-234
ENCODING 234
SWIDTH 1000 0
DWIDTH 16 0
BBX 16 16 0 -2
BITMAP
1014
3812
2dff
6610
4010
fcfe
1092
1092
fefe
1092
9492
d4fe
5092
1e92
7092
c096
ENDCHAR
STARTCHAR ch-237
ENCODING 237
SWIDTH 1000 0
DWIDTH 16 0
BBX 16 16 0 -2
BITMAP
1082
38c6
2c44
66fe
4282
fc82
1082
1082
fefe
1048
9448
d448
50c8
1e89
f189
0307
ENDCHAR
STARTCHAR ch-242
ENCODING 242
SWIDTH 1000 0
DWIDTH 16 0
BBX 16 16 0 -2
BITMAP
1004
381c
2c70
6640
4040
fc7e
1044
1044
fe44
1044
95ff
d400
5000
1c44
70c6
c183
ENDCHAR
STARTCHAR ch-243
ENCODING 243
SWIDTH 1000 0
DWIDTH 16 0
BBX 16 16 0 -2
BITMAP
1020
3820
2dff
6420
40fe
fc20
11ff
1040
fc42
11ff
9442
d4d2
509a
1d8a
7302
c00e
ENDCHAR
STARTCHAR ch-248
ENCODING 248
SWIDTH 1000 0
DWIDTH 16 0
BBX 16 16 0 -2
BITMAP
1000
38fe
2c82
6682
40fe
fc88
1088
10ff
fe88
1088
94be
d4a2
51a2
1d22
7322
c03e
ENDCHAR
STARTCHAR ch-250
ENCODING 250
SWIDTH 1000 0
DWIDTH 16 0
BBX 16 16 0 -2
BITMAP
1010
3810
2dff
6501
4101
fc80
10ef
10a9
fca9
1129
94ab
d468
5048
1c49
70c9
c187
ENDCHAR
STARTCHAR ch-252
ENCODING 252
SWIDTH 1000 0
DWIDTH 16 0
BBX 16 16 0 -2
BITMAP
1000
39ff
2d01
6545
4129
fd01
117d
1111
fd11
1155
9555
d555
517d
1d01
7101
c107
ENDCHAR
STARTCHAR ch-262
ENCODING 262
SWIDTH 1000 0
DWIDTH 16 0
BBX 16 16 0 -2
BITMAP
1010
3810
2dff
6410
40fe
fc10
11ff
1000
fefe
1082
94fe
d482
50fe
1c82
7082
c086
ENDCHAR
STARTCHAR ch-271
ENCODING 271
SWIDTH 1000 0
DWIDTH 16 0
BBX 16 16 0 -2
BITMAP
1000
39fe
2c48
6648
4048
fdce
1102
1102
fd02
11ce
9448
d448
5048
1c48
73ff
c000
ENDCHAR
STARTCHAR ch-272
ENCODING 272
SWIDTH 1000 0
DWIDTH 16 0
BBX 16 16 0 -2
BITMAP
1044
384c
2c48
66ff
4088
fd88
1288
10fe
fe88
1088
9488
d4fe
5088
1e88
7088
c0ff
ENDCHAR
STARTCHAR ch-280
ENCODING 280
SWIDTH 1000 0
DWIDTH 16 0
BBX 16 16 0 -2
BITMAP
1006
381c
2cf0
6610
41ff
fc92
1092
1092
fdff
1092
9492
d492
51ff
1c10
7010
c1ff
ENDCHAR
STARTCHAR ch-281
ENCODING 281
SWIDTH 1000 0
DWIDTH 16 0
BBX 16 16 0 -2
BITMAP
1092
3892
2d24
6524
4092
fc92
1000
10fe
fc92
1092
9492
d4fe
5092
1c92
7092
c0fe
ENDCHAR
STARTCHAR ch-282
ENCODING 282
SWIDTH 1000 0
DWIDTH 16 0
BBX 16 16 0 -2
BITMAP
1006
383c
2de2
6526
4094
fcfe
1012
1012
fdff
1012
9412
d4fe
5010
1c10
7010
c070
ENDCHAR
STARTCHAR ch-288
ENCODING 288
SWIDTH 1000 0
DWIDTH 16 0
BBX 16 16 0 -2
BITMAP
1010
3810
2dff
6501
4101
fcfe
1010
1010
fc90
109e
9490
d490
5090
1dd0
7170
c31f
ENDCHAR
STARTCHAR ch-290
ENCODING 290
SWIDTH 1000 0
DWIDTH 16 0
BBX 16 16 0 -2
BITMAP
1048
3844
2c7e
65e0
4036
fc18
106d
1187
fc48
1044
947e
d5e0
5036
1c18
706d
c387
ENDCHAR
STARTCHAR ch-291
ENCODING 291
SWIDTH 1000 0
DWIDTH 16 0
BBX 16 16 0 -2
BITMAP
2000
73de
5842
cb5a
0084
f94a
2211
2000
fbde
2042
aa42
a994
a094
3948
6254
c423
ENDCHAR
STARTCHAR ch-294
ENCODING 294
SWIDTH 1000 0
DWIDTH 16 0
BBX 16 16 0 -2
BITMAP
1010
3820
2cfe
6682
40fe
fc82
1082
10fe
fe10
11ff
9511
d511
5111
1d17
7010
c010
ENDCHAR
STARTCHAR ch-296
ENCODING 296
SWIDTH 1000 0
DWIDTH 16 0
BBX 16 16 0 -2
BITMAP
1044
3844
2dff
6644
4044
fc00
1000
10fe
fe92
1092
9492
d4fe
5092
1c92
7092
c0fe
ENDCHAR
STARTCHAR ch-299
ENCODING 299
SWIDTH 1000 0
DWIDTH 16 0
BBX 16 16 0 -2
BITMAP
1000
38fe
2c82
6682
40fe
fc82
1082
10fe
fe20
107f
9595
d425
50c9
1c13
7062
c00e
ENDCHAR
STARTCHAR ch-300
ENCODING 300
SWIDTH 1000 0
DWIDTH 16 0
BBX 16 16 0 -2
BITMAP
1010
3810
2dff
6410
40fe
fc92
10fe
1092
fc92
10fe
9454
d454
50d6
1c92
7193
c010
ENDCHAR
STARTCHAR ch-302
ENCODING 302
SWIDTH 1000 0
DWIDTH 16 0
BBX 16 16 0 -2
BITMAP
1000
39ff
2d01
6511
4111
fd7d
1111
1111
fd7d
1145
9545
d545
517d
1d01
71ff
c000
ENDCHAR
STARTCHAR ch-303
ENCODING 303
SWIDTH 1000 0
DWIDTH 16 0
BBX 16 16 0 -2
BITMAP
1044
3844
2c44
65ff
4044
fc44
1044
11ff
fe00
10fe
9482
d482
50fe
1c82
7082
c0fe
ENDCHAR
STARTCHAR ch-306
ENCODING 306
SWIDTH 1000 0
DWIDTH 16 0
BBX 16 16 0 -2
BITMAP
1000
38fc
2c04
64fc
4004
fc04
11ff
1010
fc92
10d6
9454
5438
505c
1cd6
7193
c070
ENDCHAR
STARTCHAR ch-309
ENCODING 309
SWIDTH 1000 0
DWIDTH 16 0
BBX 16 16 0 -2
BITMAP
1044
3844
2dff
6644
4044
fc28
1068
1049
fccb
114e
9448
d448
5048
1c49
7049
c047
ENDCHAR
STARTCHAR ch-314
ENCODING 314
SWIDTH 1000 0
DWIDTH 16 0
BBX 16 16 0 -2
BITMAP
1044
3844
2dff
6444
4054
fc10
11ff
1020
fc20
103e
9422
d422
5062
1c46
70c4
c19c
ENDCHAR
STARTCHAR ch-315
ENCODING 315
SWIDTH 1000 0
DWIDTH 16 0
BBX 16 16 0 -2
BITMAP
100a
380b
2de9
6408
43ff
fc08
1048
1148
fd78
1148
954c
d544
5174
1dc5
7307
c002
ENDCHAR
STARTCHAR ch-324
ENCODING 324
SWIDTH 1000 0
DWIDTH 16 0
BBX 16 16 0 -2
BITMAP
1010
3810
2c10
65ff
4000
fcfe
1082
1082
fc82
10fe
9410
d492
5092
1d93
7111
c070
ENDCHAR
STARTCHAR ch-331
ENCODING 331
SWIDTH 1000 0
DWIDTH 16 0
BBX 16 16 0 -2
BITMAP
1000
38fe
2c82
649e
4092
fc92
1092
11ff
fd01
117d
9545
d545
517d
1d01
7101
c107
ENDCHAR
STARTCHAR ch-333
ENCODING 333
SWIDTH 1000 0
DWIDTH 16 0
BBX 16 16 0 -2
BITMAP
1010
3810
2dff
6500
4124
fdff
1124
113c
fd00
11fe
9542
d566
512c
1d38
726c
c1c7
ENDCHAR
STARTCHAR ch-340
ENCODING 340
SWIDTH 1000 0
DWIDTH 16 0
BBX 16 16 0 -2
BITMAP
1000
39ef
2d29
6529
41ef
fc00
10fe
1000
fdff
1020
9440
d4fe
5002
1c02
7006
c01c
ENDCHAR
STARTCHAR ch-342
ENCODING 342
SWIDTH 1000 0
DWIDTH 16 0
BBX 16 16 0 -2
BITMAP
1044
3844
2dff
6644
407c
fc44
107c
1044
fc44
11ff
94a4
d4a4
50c7
1c80
7080
c0ff
ENDCHAR
STARTCHAR ch-347
ENCODING 347
SWIDTH 1000 0
DWIDTH 16 0
BBX 16 16 0 -2
BITMAP
20c0
73bc
5a24
ca24
03a4
fa47
2200
2380
fa7e
2222
aa36
ab9c
a608
221c
3a36
e263
ENDCHAR
STARTCHAR ch-348
ENCODING 348
SWIDTH 1000 0
DWIDTH 16 0
BBX 16 16 0 -2
BITMAP
1000
39ef
2d21
6521
4121
fdef
1100
111f
fde9
110b
950a
d5ee
5104
1d0e
710a
c11b
ENDCHAR
STARTCHAR ch-352
ENCODING 352
SWIDTH 1000 0
DWIDTH 16 0
BBX 16 16 0 -2
BITMAP
1010
3820
2cfe
6682
40fe
fc82
1082
10fe
fc00
10fe
9410
d4fe
5010
1c10
71ff
c000
ENDCHAR
STARTCHAR ch-364
ENCODING 364
SWIDTH 1000 0
DWIDTH 16 0
BBX 16 16 0 -2
BITMAP
1024
38e4
2f84
6495
4095
fff5
1095
11c4
fda4
12a4
948e
d48a
508a
1c8a
709b
c091
ENDCHAR
STARTCHAR ch-366
ENCODING 366
SWIDTH 1000 0
DWIDTH 16 0
BBX 16 16 0 -2
BITMAP
1010
3838
2c6c
66c6
41bb
fc00
11e2
112a
fd2a
11ea
952a
d52a
51e2
1d22
7122
c166
ENDCHAR
STARTCHAR ch-373
ENCODING 373
SWIDTH 1000 0
DWIDTH 16 0
BBX 16 16 0 -2
BITMAP
2008
73be
588a
c90a
817f
720a
238a
20be
f888
22be
aa88
a97f
a108
3b08
6280
c67f
ENDCHAR
STARTCHAR ch-380
ENCODING 380
SWIDTH 1000 0
DWIDTH 16 0
BBX 16 16 0 -2
BITMAP
200a
7009
5808
cbff
0208
fa08
22e9
2209
faeb
22aa
aaae
aae4
a204
3a0d
6217
c462
ENDCHAR
STARTCHAR ch-382
ENCODING 382
SWIDTH 1000 0
DWIDTH 16 0
BBX 16 16 0 -2
BITMAP
1006
38fc
2c10
65ff
4010
fcfe
1092
1092
fefe
1092
9492
d4fe
5010
1efe
7010
c1ff
ENDCHAR
STARTCHAR ch-396
ENCODING 396
SWIDTH 1000 0
DWIDTH 16 0
BBX 16 16 0 -2
BITMAP
1084
3848
2fff
6450
41fe
fc52
1052
13ff
fc52
1052
95fe
d458
50d4
1d56
f253
0050
ENDCHAR
STARTCHAR ch-404
ENCODING 404
SWIDTH 1000 0
DWIDTH 16 0
BBX 16 16 0 -2
BITMAP
1010
3810
2dff
6501
4145
fcc6
1193
1038
fc6c
11c7
9400
d4fe
5082
1c82
7082
c0fe
ENDCHAR
STARTCHAR ch-406
ENCODING 406
SWIDTH 1000 0
DWIDTH 16 0
BBX 16 16 0 -2
BITMAP
1092
38d6
2c54
6610
40fe
fc82
1082
10fe
fe82
1082
94fe
d482
5082
1efe
7044
c183
ENDCHAR
STARTCHAR ch-407
ENCODING 407
SWIDTH 1000 0
DWIDTH 16 0
BBX 16 16 0 -2
BITMAP
1010
3838
2c6c
66c6
41bb
fc00
10fe
1082
fefe
1082
94fe
d480
51ff
1d41
7341
c07f
ENDCHAR
STARTCHAR ch-410
ENCODING 410
SWIDTH 1000 0
DWIDTH 16 0
BBX 16 16 0 -2
BITMAP
1004
3908
2dbe
64a2
4022
fc22
103e
13a0
fca0
10be
94a2
d4a2
50a2
1dbe
7140
c33f
ENDCHAR
STARTCHAR ch-423
ENCODING 423
SWIDTH 1000 0
DWIDTH 16 0
BBX 16 16 0 -2
BITMAP
1010
3892
2c92
66fe
4000
fdff
1000
10fe
fe82
1082
94fe
d444
506c
1c28
71ff
c000
ENDCHAR
STARTCHAR ch-428
ENCODING 428
SWIDTH 1000 0
DWIDTH 16 0
BBX 16 16 0 -2
BITMAP
1020
3820
2fff
6400
40fc
fc84
10fc
1000
fdfe
1102
957a
d54a
514a
1d7a
7102
c106
ENDCHAR
STARTCHAR ch-429
ENCODING 429
SWIDTH 1000 0
DWIDTH 16 0
BBX 16 16 0 -2
BITMAP
108c
38f8
2c82
647e
4000
fd7e
1142
117e
fd42
117e
9542
d57e
5100
1dff
7044
c183
ENDCHAR
STARTCHAR ch-430
ENCODING 430
SWIDTH 1000 0
DWIDTH 16 0
BBX 16 16 0 -2
BITMAP
1010
3810
2dff
6410
40fe
fc82
10fe
1082
fefe
1082
94fe
d400
51ff
1c44
70c6
c183
ENDCHAR
STARTCHAR ch-432
ENCODING 432
SWIDTH 1000 0
DWIDTH 16 0
BBX 16 16 0 -2
BITMAP
1082
38c6
2c44
65ff
4044
fc44
10c6
1082
fd83
10fe
94aa
d4aa
50aa
1caa
71ff
c000
ENDCHAR
STARTCHAR ch-441
ENCODING 441
SWIDTH 1000 0
DWIDTH 16 0
BBX 16 16 0 -2
BITMAP
1022
3936
2d94
6480
403e
fc08
1008
13bf
fc88
109c
9494
d4b6
50a2
1d80
7140
c33f
ENDCHAR
STARTCHAR ch-451
ENCODING 451
SWIDTH 1000 0
DWIDTH 16 0
BBX 16 16 0 -2
BITMAP
2088
7088
5888
cbff
0110
f908
21cf
2154
f944
215f
a944
a944
a34e
3a4a
624a
c6db
ENDCHAR
STARTCHAR ch-456
ENCODING 456
SWIDTH 1000 0
DWIDTH 16 0
BBX 16 16 0 -2
BITMAP
1008
3908
2dff
6488
403e
fc2a
102a
13be
fcaa
10aa
94be
d488
50ff
1d88
7148
c33f
ENDCHAR
STARTCHAR ch-464
ENCODING 464
SWIDTH 1000 0
DWIDTH 16 0
BBX 16 16 0 -2
BITMAP
1000
38ee
2c22
64aa
4066
fcaa
1010
1038
fc6c
11c7
9410
d464
5019
1c62
700c
c0f0
ENDCHAR
STARTCHAR ch-465
ENCODING 465
SWIDTH 1000 0
DWIDTH 16 0
BBX 16 16 0 -2
BITMAP
1010
3810
2dff
6482
4044
fdff
1101
1111
fd7d
1111
957d
d545
5145
1d7d
7101
c107
ENDCHAR
STARTCHAR ch-470
ENCODING 470
SWIDTH 1000 0
DWIDTH 16 0
BBX 16 16 0 -2
BITMAP
0100
7ffe
4440
7ffc
4444
7ffc
5040
de7c
9042
3f3e
0000
07c0
1930
efef
1110
ffff
ENDCHAR
STARTCHAR ch-471
ENCODING 471
SWIDTH 1000 0
DWIDTH 16 0
BBX 16 16 0 -2
BITMAP
1000
39ff
2d49
654b
41ea
fd26
11e4
114e
fd5b
11e0
9410
d4fe
5010
1c10
71ff
c000
ENDCHAR
STARTCHAR ch-472
ENCODING 472
SWIDTH 1000 0
DWIDTH 16 0
BBX 16 16 0 -2
BITMAP
2090
729e
5ab2
caea
0296
fb8c
2098
20b2
f882
27bf
aa82
aa92
a29a
3a8a
6482
c086
ENDCHAR
STARTCHAR ch-477
ENCODING 477
SWIDTH 1000 0
DWIDTH 16 0
BBX 16 16 0 -2
BITMAP
107c
3844
2c7c
6644
407c
fc00
11ff
1149
fdff
1000
95ff
d486
504c
1c38
706c
c1c7
ENDCHAR
STARTCHAR ch-481
ENCODING 481
SWIDTH 1000 0
DWIDTH 16 0
BBX 16 16 0 -2
BITMAP
1010
3810
2dff
6482
4044
fdff
1000
10fe
fe82
10fe
9482
d4fe
5048
1c49
70c9
c387
ENDCHAR
STARTCHAR ch-484
ENCODING 484
SWIDTH 1000 0
DWIDTH 16 0
BBX 16 16 0 -2
BITMAP
1010
38fe
2c92
65ff
4092
fcfe
1010
10fe
fc92
10fe
9420
d5ff
5042
1ce4
703c
c1e7
ENDCHAR
STARTCHAR ch-485
ENCODING 485
SWIDTH 1000 0
DWIDTH 16 0
BBX 16 16 0 -2
BITMAP
1020
3820
2dfe
6502
4142
fc7f
10c8
1090
fdbe
10a2
94a2
d4be
50a2
1ca2
70a2
c0be
ENDCHAR
STARTCHAR ch-488
ENCODING 488
SWIDTH 1000 0
DWIDTH 16 0
BBX 16 16 0 -2
BITMAP
0806
ffbc
0820
7f20
493f
7f24
4924
7f24
0844
ff84
0800
07c0
1930
efef
1110
ffff
ENDCHAR
ENDFONT
