STARTFONT 2.1
FONT jis.jis5400.24
SIZE 24 72 72
FONTBOUNDINGBOX 24 24 0 -3
STARTPROPERTIES 4
FONT_DESCENT 3
FONT_ASCENT 21
DEFAULT_CHAR 1
COPYRIGHT "Copyright (c) 1992 AT&T - All rights reserved."
ENDPROPERTIES
CHARS 156
STARTCHAR ch-1
ENCODING 1
SWIDTH 1000 0
DWIDTH 24 0
BBX 24 24 0 -3
BITMAP
00000c
003ffe
418180
7fc180
618180
618180
618180
618180
618180
618186
61ffff
618180
618180
618180
618180
7f8180
618180
600180
000180
000180
000180
000180
000f80
000300
ENDCHAR
STARTCHAR ch-3
ENCODING 3
SWIDTH 1000 0
DWIDTH 24 0
BBX 24 24 0 -3
BITMAP
000800
000e00
000c00
430c00
7f8c06
631fff
631800
631800
633000
632030
637ff8
6380e0
6301c0
630380
630700
630e00
7f1c00
631802
603002
003002
003002
003c07
001fff
0007fe
ENDCHAR
STARTCHAR ch-4
ENCODING 4
SWIDTH 1000 0
DWIDTH 24 0
BBX 24 24 0 -3
BITMAP
008000
00e000
00c0c0
01ffe0
0181c0
030180
068380
0cc700
186e00
603800
001c00
007700
00e3e0
0180ff
07003e
1bffce
e300c0
0300c0
0300c0
0300c0
0300c0
0300c0
03ffc0
0300c0
ENDCHAR
STARTCHAR ch-8
ENCODING 8
SWIDTH 1000 0
DWIDTH 24 0
BBX 24 24 0 -3
BITMAP
001800
001800
003400
003400
006200
00c300
018180
0300c0
060070
0c033f
31ff9e
c00006
000000
000000
040060
07fff0
060060
060060
060060
060060
060060
07ffe0
060060
060060
ENDCHAR
STARTCHAR ch-9
ENCODING 9
SWIDTH 1000 0
DWIDTH 24 0
BBX 24 24 0 -3
BITMAP
001c00
001800
001800
001806
ffffff
001800
001800
001800
001800
001818
3ffffc
000000
000000
080030
0ffff8
0c0030
0c0030
0c0030
0c0030
0c0030
0c0030
0ffff0
0c0030
0c0030
ENDCHAR
STARTCHAR ch-10
ENCODING 10
SWIDTH 1000 0
DWIDTH 24 0
BBX 24 24 0 -3
BITMAP
040060
07fff0
060060
060060
060060
060060
060060
07ffe0
061860
001800
001800
101818
1ffffc
181818
181818
181818
181818
181818
181818
181818
1818f8
181830
001800
001800
ENDCHAR
STARTCHAR ch-11
ENCODING 11
SWIDTH 1000 0
DWIDTH 24 0
BBX 24 24 0 -3
BITMAP
000070
000060
418060
7fc060
618060
618060
618066
61ffff
618060
618060
61a060
619860
618c60
618660
618660
7f8060
618060
618060
600060
000060
000060
000060
0007e0
0001c0
ENDCHAR
STARTCHAR ch-12
ENCODING 12
SWIDTH 1000 0
DWIDTH 24 0
BBX 24 24 0 -3
BITMAP
20000c
3ffffe
30000c
30000c
30018c
33ffcc
30000c
30000c
30000c
31018c
31ffcc
31818c
31818c
31818c
31818c
31818c
31ff8c
31818c
31818c
30000c
30000c
30000c
30007c
300018
ENDCHAR
STARTCHAR ch-13
ENCODING 13
SWIDTH 1000 0
DWIDTH 24 0
BBX 24 24 0 -3
BITMAP
004000
007000
00e000
00c060
01fff0
030060
0600c0
0d0180
18c300
606600
006c00
001800
003000
00c00c
03fffe
1d800c
e1800c
01800c
01800c
01800c
01800c
01fffc
01800c
01800c
ENDCHAR
STARTCHAR ch-14
ENCODING 14
SWIDTH 1000 0
DWIDTH 24 0
BBX 24 24 0 -3
BITMAP
000070
0003f8
103f80
1fe000
180000
180000
180000
180006
1fffff
180000
180000
180000
188018
18fffc
18c018
30c018
30c018
30c018
20c018
60c018
40c018
80fff8
00c018
00c018
ENDCHAR
STARTCHAR ch-15
ENCODING 15
SWIDTH 1000 0
DWIDTH 24 0
BBX 24 24 0 -3
BITMAP
001c00
001800
001806
ffffff
001800
001800
081830
0ffff8
0c1830
0c1830
0c1830
0c1830
0c1830
0ffff0
001800
011800
009800
007000
003800
006e00
00c7c0
0181ff
0e007e
f0000e
ENDCHAR
STARTCHAR ch-16
ENCODING 16
SWIDTH 1000 0
DWIDTH 24 0
BBX 24 24 0 -3
BITMAP
0001c0
000180
418180
7fc180
618180
618180
618180
618180
61818c
61bffe
618180
618180
618180
618180
618180
618180
7f8180
618180
600180
000180
000180
000186
00ffff
000000
ENDCHAR
STARTCHAR ch-17
ENCODING 17
SWIDTH 1000 0
DWIDTH 24 0
BBX 24 24 0 -3
BITMAP
002000
003800
003000
002000
20400c
3ffffe
30000c
30000c
30830c
30ff8c
30c30c
30c30c
30c30c
30c30c
30c30c
30c30c
30ff0c
30c30c
30c00c
30000c
30000c
30000c
30007c
300018
ENDCHAR
STARTCHAR ch-27
ENCODING 27
SWIDTH 1000 0
DWIDTH 24 0
BBX 24 24 0 -3
BITMAP
000060
1ffff0
006060
006060
006060
006066
ffffff
006060
006060
006060
006060
1fffe0
00c000
01c000
018018
03fffc
078018
0d8018
198018
318018
c18018
01fff8
018018
018018
ENDCHAR
STARTCHAR ch-29
ENCODING 29
SWIDTH 1000 0
DWIDTH 24 0
BBX 24 24 0 -3
BITMAP
001c00
001800
001806
ffffff
020180
010380
008300
00c700
006e00
001c00
003600
00e380
0380f0
1e003f
e0000e
040060
07fff0
060060
060060
060060
060060
060060
07ffe0
060060
ENDCHAR
STARTCHAR ch-31
ENCODING 31
SWIDTH 1000 0
DWIDTH 24 0
BBX 24 24 0 -3
BITMAP
000300
000300
430680
7f8680
630c40
630c40
631820
631030
63201c
6340cf
639fe6
630000
630000
630030
633ff8
7f0030
630030
630060
600060
000060
0000c0
0000c0
000180
000180
ENDCHAR
STARTCHAR ch-32
ENCODING 32
SWIDTH 1000 0
DWIDTH 24 0
BBX 24 24 0 -3
BITMAP
000380
000300
430320
7f8318
63030c
63030c
630300
630306
63ffff
630300
630300
630300
630680
630680
630680
7f0440
630c40
630c60
600820
001830
001018
00201f
00400e
018006
ENDCHAR
STARTCHAR ch-38
ENCODING 38
SWIDTH 1000 0
DWIDTH 24 0
BBX 24 24 0 -3
BITMAP
000000
000006
ffffff
001c00
003800
007800
00db00
0198e0
031838
0c181c
30180e
c01806
001800
080030
0ffff8
0c0030
0c0030
0c0030
0c0030
0c0030
0c0030
0ffff0
0c0030
0c0030
ENDCHAR
STARTCHAR ch-41
ENCODING 41
SWIDTH 1000 0
DWIDTH 24 0
BBX 24 24 0 -3
BITMAP
000840
000e40
430c40
7f8c20
631820
631830
631010
633018
63200c
63400f
638006
633ff8
630618
630618
630618
7f0618
630e18
600c18
000c18
001838
001830
003030
0061f0
018060
ENDCHAR
STARTCHAR ch-43
ENCODING 43
SWIDTH 1000 0
DWIDTH 24 0
BBX 24 24 0 -3
BITMAP
003000
003000
006800
006400
00c600
018300
0301c0
0600f0
0dff7f
30001e
c00306
07ff80
000300
000600
000e00
040c60
07fff0
060060
060060
060060
060060
060060
07ffe0
060060
ENDCHAR
STARTCHAR ch-44
ENCODING 44
SWIDTH 1000 0
DWIDTH 24 0
BBX 24 24 0 -3
BITMAP
000018
00007c
4313e0
7f9e00
631800
631800
631800
631806
631fff
631860
631860
631860
631860
631860
631860
7f1860
633860
603060
003060
006060
004060
008060
030060
000060
ENDCHAR
STARTCHAR ch-45
ENCODING 45
SWIDTH 1000 0
DWIDTH 24 0
BBX 24 24 0 -3
BITMAP
000380
000300
430300
7f8300
630306
63ffff
630000
630000
631060
631ff0
631860
631860
631860
631860
631860
7f1860
631860
601860
001862
003062
003062
006063
00c07f
03003e
ENDCHAR
STARTCHAR ch-46
ENCODING 46
SWIDTH 1000 0
DWIDTH 24 0
BBX 24 24 0 -3
BITMAP
000400
000700
430600
7f8c20
630c10
630818
63180c
63107e
637fc6
633c06
632070
630e60
630c60
630c60
630c60
7f0c60
630c60
601c60
001862
001862
003062
006063
00c07f
03003e
ENDCHAR
STARTCHAR ch-54
ENCODING 54
SWIDTH 1000 0
DWIDTH 24 0
BBX 24 24 0 -3
BITMAP
0001c0
000180
000180
430180
7fa186
633fff
633186
633186
633186
633186
633346
633366
633226
633636
633436
7f3836
633006
603006
003006
003006
003006
003006
00303e
00300c
ENDCHAR
STARTCHAR ch-56
ENCODING 56
SWIDTH 1000 0
DWIDTH 24 0
BBX 24 24 0 -3
BITMAP
000030
00fff8
001830
431830
7f9860
631860
631860
6318cc
6318fe
6318cc
63340c
63340c
633218
633218
633318
7f6130
6361b0
6060e0
60c0e0
00c1b0
018338
03061f
0c180e
00e006
ENDCHAR
STARTCHAR ch-57
ENCODING 57
SWIDTH 1000 0
DWIDTH 24 0
BBX 24 24 0 -3
BITMAP
000800
000e00
430c00
7f8c00
630c06
631fff
631806
63100c
633388
632310
634300
630300
630300
630680
630680
630680
630c40
7f0c40
631820
601830
003018
00601f
00c00e
030006
ENDCHAR
STARTCHAR ch-59
ENCODING 59
SWIDTH 1000 0
DWIDTH 24 0
BBX 24 24 0 -3
BITMAP
000800
000e00
000c00
430c00
7f9800
631806
631fff
633666
632666
634446
638cc6
6308c6
631886
631186
633106
7f230c
63420c
60860c
61040c
000818
001018
006030
0001f0
000060
ENDCHAR
STARTCHAR ch-60
ENCODING 60
SWIDTH 1000 0
DWIDTH 24 0
BBX 24 24 0 -3
BITMAP
000070
000360
46ffe0
7f0360
660260
660660
661460
661860
661860
661860
661b60
661e60
663860
67f860
66d860
669860
7e1860
661860
601862
001862
001862
001863
00f87f
00303e
ENDCHAR
STARTCHAR ch-61
ENCODING 61
SWIDTH 1000 0
DWIDTH 24 0
BBX 24 24 0 -3
BITMAP
0001c0
000180
431180
7f9d80
631980
631980
63118c
633ffe
632180
632180
634180
630180
630180
630186
63ffff
7f0180
630180
600180
000180
000180
000180
000180
000180
000180
ENDCHAR
STARTCHAR ch-62
ENCODING 62
SWIDTH 1000 0
DWIDTH 24 0
BBX 24 24 0 -3
BITMAP
000018
3ffffc
003000
003000
006000
0060c0
1fffe0
00c0c0
00c0c0
00c0c0
0180c0
0180c6
ffffff
000000
000000
080030
0ffff8
0c0030
0c0030
0c0030
0c0030
0c0030
0ffff0
0c0030
ENDCHAR
STARTCHAR ch-64
ENCODING 64
SWIDTH 1000 0
DWIDTH 24 0
BBX 24 24 0 -3
BITMAP
00000c
007ffe
431860
7f9860
631860
631860
631860
631860
631860
631866
63ffff
6301e0
630360
630360
7f0660
630660
600c60
001860
003060
006060
00c060
030060
0003e0
0000c0
ENDCHAR
STARTCHAR ch-66
ENCODING 66
SWIDTH 1000 0
DWIDTH 24 0
BBX 24 24 0 -3
BITMAP
000000
040060
07fff0
060060
060060
060060
060060
060060
060060
07ffe0
063060
002000
002000
104018
1ffffc
180018
180018
180018
180018
180018
180018
1ffff8
180018
180018
ENDCHAR
STARTCHAR ch-70
ENCODING 70
SWIDTH 1000 0
DWIDTH 24 0
BBX 24 24 0 -3
BITMAP
040060
07fff0
060060
060060
060060
060060
060060
060060
07ffe0
061860
001800
001806
ffffff
007a00
00da00
00d900
019980
0318c0
061870
0c183f
30181e
c01806
001800
001800
ENDCHAR
STARTCHAR ch-72
ENCODING 72
SWIDTH 1000 0
DWIDTH 24 0
BBX 24 24 0 -3
BITMAP
000000
080030
0ffff8
0c0030
0c0030
0c0030
0c0030
0c0030
0ffff0
0c0030
000000
000018
3ffffc
001800
001800
001800
001830
1ffff8
001800
001800
001800
001806
ffffff
000000
ENDCHAR
STARTCHAR ch-73
ENCODING 73
SWIDTH 1000 0
DWIDTH 24 0
BBX 24 24 0 -3
BITMAP
008060
00fff0
1cc060
18c060
18c060
18c060
18c060
18ffe0
18c060
180000
180000
1ffff0
180030
180030
000030
000036
ffffff
000000
010300
01c0c0
038070
070038
1c001c
60000c
ENDCHAR
STARTCHAR ch-74
ENCODING 74
SWIDTH 1000 0
DWIDTH 24 0
BBX 24 24 0 -3
BITMAP
001c00
081800
0e1800
0c1800
0c1818
0ffffc
181800
101800
201800
401800
001806
ffffff
000000
000000
080030
0ffff8
0c0030
0c0030
0c0030
0c0030
0c0030
0ffff0
0c0030
0c0030
ENDCHAR
STARTCHAR ch-78
ENCODING 78
SWIDTH 1000 0
DWIDTH 24 0
BBX 24 24 0 -3
BITMAP
00200c
433ffe
7fb00c
63300c
63300c
63300c
63300c
63300c
633ffc
63310c
633100
633180
633080
633080
7f30c0
633040
606060
606060
006030
004038
00c01c
00801f
01000e
020006
ENDCHAR
STARTCHAR ch-81
ENCODING 81
SWIDTH 1000 0
DWIDTH 24 0
BBX 24 24 0 -3
BITMAP
0000e0
001ff0
1ffc00
006000
006000
006000
006006
ffffff
00c100
018100
018080
0300c0
020060
040038
0bffdf
1300ce
2300c6
c300c0
0300c0
0300c0
0300c0
03ffc0
0300c0
0300c0
ENDCHAR
STARTCHAR ch-95
ENCODING 95
SWIDTH 1000 0
DWIDTH 24 0
BBX 24 24 0 -3
BITMAP
0001c0
000180
000180
418180
7f8186
61ffff
618100
6181c0
618180
618100
619210
618c1c
618638
618330
618370
618060
7f80c0
618180
600108
000204
000406
007ffb
003f03
002003
ENDCHAR
STARTCHAR ch-104
ENCODING 104
SWIDTH 1000 0
DWIDTH 24 0
BBX 24 24 0 -3
BITMAP
10000c
1ffffe
18000c
181c0c
18180c
18198c
19ffcc
18180c
18180c
1818cc
1bffec
18000c
18000c
18830c
18ff8c
18c30c
18c30c
30c30c
30c30c
30ff0c
20c30c
60000c
40007c
800018
ENDCHAR
STARTCHAR ch-106
ENCODING 106
SWIDTH 1000 0
DWIDTH 24 0
BBX 24 24 0 -3
BITMAP
000000
00100c
419ffe
7fd80c
61980c
61980c
61980c
61980c
61980c
61980c
61980c
619ffc
618660
618660
7f8660
618e60
600c60
000c60
001862
001862
003062
006063
00c07f
03003e
ENDCHAR
STARTCHAR ch-112
ENCODING 112
SWIDTH 1000 0
DWIDTH 24 0
BBX 24 24 0 -3
BITMAP
038380
030300
03030c
3b031e
333338
33fb60
330380
330302
330302
330302
33f303
ff03ff
7801fe
400000
040060
07fff0
060060
060060
060060
060060
060060
060060
07ffe0
060060
ENDCHAR
STARTCHAR ch-113
ENCODING 113
SWIDTH 1000 0
DWIDTH 24 0
BBX 24 24 0 -3
BITMAP
000018
0020fc
433fe0
7fb020
633320
633320
633320
633320
633320
633320
633330
633310
633310
633310
633310
7f3318
633318
606308
006348
00434c
00c3ec
009e6f
010c66
060006
ENDCHAR
STARTCHAR ch-115
ENCODING 115
SWIDTH 1000 0
DWIDTH 24 0
BBX 24 24 0 -3
BITMAP
000380
000300
430300
7f8300
630318
637ffc
630300
630300
630300
630300
630306
63ffff
630f40
630b40
631b20
631320
7f3330
632318
60431c
00830f
010306
060300
000300
000300
ENDCHAR
STARTCHAR ch-117
ENCODING 117
SWIDTH 1000 0
DWIDTH 24 0
BBX 24 24 0 -3
BITMAP
000000
000006
437fff
7f8018
630018
630018
632198
633fd8
633198
633198
633198
633198
633198
633198
633f98
633198
7f3018
630018
600018
000018
000018
000018
0000f8
000030
ENDCHAR
STARTCHAR ch-118
ENCODING 118
SWIDTH 1000 0
DWIDTH 24 0
BBX 24 24 0 -3
BITMAP
003800
00300c
4633fe
7f308c
66308c
66368c
67fe8c
666688
6666c8
666658
666450
666450
66cc70
66c820
66c820
66d870
7ef050
663850
602cd8
006688
00478c
00810f
010206
060c06
ENDCHAR
STARTCHAR ch-119
ENCODING 119
SWIDTH 1000 0
DWIDTH 24 0
BBX 24 24 0 -3
BITMAP
002006
003fff
433186
7fb186
633186
633186
633186
633ffe
633186
633186
633186
633186
633186
633186
7f3ffe
633186
603186
000180
000180
000180
000180
000180
000180
000180
ENDCHAR
STARTCHAR ch-123
ENCODING 123
SWIDTH 1000 0
DWIDTH 24 0
BBX 24 24 0 -3
BITMAP
0001c0
000180
000180
432186
7fbfff
633186
633186
633186
633186
633186
633ffe
633186
633186
633186
633186
7f3186
633ffe
603186
000180
000180
000180
000180
000180
000180
ENDCHAR
STARTCHAR ch-124
ENCODING 124
SWIDTH 1000 0
DWIDTH 24 0
BBX 24 24 0 -3
BITMAP
000018
00007c
4303e0
7fbf80
630188
63018e
63218c
63118c
631998
631990
6319a0
630180
630186
63ffff
630180
630180
7f0180
630180
600180
000180
000180
000180
000f80
000300
ENDCHAR
STARTCHAR ch-125
ENCODING 125
SWIDTH 1000 0
DWIDTH 24 0
BBX 24 24 0 -3
BITMAP
001800
003800
003400
006200
00c100
018080
030060
060138
0dff9f
300006
c00000
10c418
1fe7fc
18c618
18c618
18c618
18c618
18c618
18c618
18c618
1fc6f8
18c630
000600
000600
ENDCHAR
STARTCHAR ch-128
ENCODING 128
SWIDTH 1000 0
DWIDTH 24 0
BBX 24 24 0 -3
BITMAP
001030
001ff8
431830
7f9830
631830
631830
631830
631ff0
631830
631830
631830
631830
631830
631830
631ff0
7f1830
631830
601830
001830
001830
001830
001836
03ffff
000000
ENDCHAR
STARTCHAR ch-132
ENCODING 132
SWIDTH 1000 0
DWIDTH 24 0
BBX 24 24 0 -3
BITMAP
0001c0
000180
43398e
7fb18c
63318c
63318c
63318c
63318c
63318c
633ffc
63318c
630180
630180
630180
637187
7f6186
636186
606186
006186
006186
006186
007ffe
006006
006006
ENDCHAR
STARTCHAR ch-134
ENCODING 134
SWIDTH 1000 0
DWIDTH 24 0
BBX 24 24 0 -3
BITMAP
000800
000e00
000c00
430c00
7f980c
631ffe
63100c
63300c
63218c
637fcc
63818c
63018c
63018c
63218c
633f9c
7f3018
633018
6030f8
003030
003002
003002
003003
003fff
001ffe
ENDCHAR
STARTCHAR ch-139
ENCODING 139
SWIDTH 1000 0
DWIDTH 24 0
BBX 24 24 0 -3
BITMAP
000400
000700
418600
7fc600
618c06
618fff
619b00
619300
61a300
61c30c
6183fe
618300
618300
618300
618300
618306
6183ff
7f8300
618300
600300
000300
000300
000300
000300
ENDCHAR
STARTCHAR ch-140
ENCODING 140
SWIDTH 1000 0
DWIDTH 24 0
BBX 24 24 0 -3
BITMAP
006000
03f000
7f0000
030406
0307ff
030606
033606
fffe06
030606
030606
070606
078606
0f6606
0b3606
1b3606
130606
230606
430606
830606
0307fe
030606
030606
030000
030000
ENDCHAR
STARTCHAR ch-142
ENCODING 142
SWIDTH 1000 0
DWIDTH 24 0
BBX 24 24 0 -3
BITMAP
080000
0e0080
0c00e0
0c60c0
1ff0c0
1861a0
30c190
28c308
45820c
870406
038806
06e000
0c7e00
180fff
3001fe
c00000
07ffe0
060060
060060
060060
060060
060060
07ffe0
060060
ENDCHAR
STARTCHAR ch-143
ENCODING 143
SWIDTH 1000 0
DWIDTH 24 0
BBX 24 24 0 -3
BITMAP
001800
000700
0001c0
0000c0
430000
7f8300
637f80
630300
630308
63030e
631b0c
63fb98
631ba0
633340
633340
632360
7f6320
634330
60c318
00831f
01030e
020306
001f00
000600
ENDCHAR
STARTCHAR ch-144
ENCODING 144
SWIDTH 1000 0
DWIDTH 24 0
BBX 24 24 0 -3
BITMAP
000838
000e30
430c30
7f8c30
631830
631830
631836
6337ff
633030
633030
637430
63b230
633330
633330
633330
7f3030
633030
603030
003030
003030
003030
003030
0031f0
003060
ENDCHAR
STARTCHAR ch-146
ENCODING 146
SWIDTH 1000 0
DWIDTH 24 0
BBX 24 24 0 -3
BITMAP
20c418
3fe7fc
30c618
30c618
30c618
30c618
30c618
3fc7f8
30c618
000000
000000
020300
03ff80
030300
030300
030300
030300
030300
030302
060302
060302
0c0303
1803ff
e001fe
ENDCHAR
STARTCHAR ch-162
ENCODING 162
SWIDTH 1000 0
DWIDTH 24 0
BBX 24 24 0 -3
BITMAP
106418
1ff7fc
186618
186618
186618
186618
1fe7f8
186618
000000
000060
0ffff0
000000
000006
ffffff
00c000
018030
03fff8
030030
000060
0000e0
0001c0
000380
001f00
000600
ENDCHAR
STARTCHAR ch-164
ENCODING 164
SWIDTH 1000 0
DWIDTH 24 0
BBX 24 24 0 -3
BITMAP
0001c0
000180
002180
432186
7fffff
636006
636044
6301e8
630780
633f00
630300
630300
630300
630306
637fff
630300
7f0300
630300
600300
000304
000304
000306
0003fe
0001fc
ENDCHAR
STARTCHAR ch-165
ENCODING 165
SWIDTH 1000 0
DWIDTH 24 0
BBX 24 24 0 -3
BITMAP
000000
000006
007fff
430300
7f8300
630610
630608
63040c
630876
637f86
633c06
632000
6301c0
630180
630180
7f018c
633ffe
600180
000180
000180
000180
000186
00ffff
000000
ENDCHAR
STARTCHAR ch-168
ENCODING 168
SWIDTH 1000 0
DWIDTH 24 0
BBX 24 24 0 -3
BITMAP
001000
001c00
031800
7f9806
001fff
003306
002304
004688
000640
038460
fc0c30
70181c
40300f
01c006
000000
080030
0ffff8
0c0030
0c0030
0c0030
0c0030
0c0030
0ffff0
0c0030
ENDCHAR
STARTCHAR ch-171
ENCODING 171
SWIDTH 1000 0
DWIDTH 24 0
BBX 24 24 0 -3
BITMAP
20640c
3ff7fe
30660c
30660c
30660c
30660c
30660c
30660c
30660c
3fe60c
3267fc
32060c
320000
310210
310388
31830c
308606
30c406
306806
203000
201c00
600f80
4003ff
8000fe
ENDCHAR
STARTCHAR ch-172
ENCODING 172
SWIDTH 1000 0
DWIDTH 24 0
BBX 24 24 0 -3
BITMAP
0001c0
000180
430180
7f8186
637fff
630000
630800
630e20
630c18
63180c
63104e
632876
634860
630460
6304c0
7f02c0
630380
600100
000380
0006c0
000c70
00183f
00601e
018006
ENDCHAR
STARTCHAR ch-175
ENCODING 175
SWIDTH 1000 0
DWIDTH 24 0
BBX 24 24 0 -3
BITMAP
000400
000700
000618
430ffc
7f8c18
631830
631430
632460
6342c0
630180
6303c0
630670
630c3f
63301e
63c006
7f1018
631ffc
601818
001818
001818
001818
001818
001ff8
001818
ENDCHAR
STARTCHAR ch-178
ENCODING 178
SWIDTH 1000 0
DWIDTH 24 0
BBX 24 24 0 -3
BITMAP
000010
00401c
003038
431830
7f8c60
630c40
63008c
637ffe
630300
630300
630300
630300
630306
63ffff
630300
7f0300
630680
600680
000c40
000c60
001838
00301f
00c00e
030006
ENDCHAR
STARTCHAR ch-179
ENCODING 179
SWIDTH 1000 0
DWIDTH 24 0
BBX 24 24 0 -3
BITMAP
0001c0
000180
000180
430186
7f7fff
630200
630380
630320
632438
631830
630c70
630660
6306c8
63018e
63030c
7f061c
630c38
601870
0060e0
0181d0
00070c
001c06
007007
038003
ENDCHAR
STARTCHAR ch-184
ENCODING 184
SWIDTH 1000 0
DWIDTH 24 0
BBX 24 24 0 -3
BITMAP
0003a0
000318
000318
200306
3fffff
300300
300300
301308
37fb0e
30030c
30010c
323198
33f998
333190
3330b0
3330e0
333040
3330e0
23f0a2
233132
63021a
40041f
40180f
800006
ENDCHAR
STARTCHAR ch-188
ENCODING 188
SWIDTH 1000 0
DWIDTH 24 0
BBX 24 24 0 -3
BITMAP
0200c0
03ffe0
0300c0
0300c0
0310c0
031fc0
0318c0
0318c0
0318c0
2318cc
3ffffe
30000c
30000c
31018c
31ffcc
31818c
31818c
31818c
31818c
31ff8c
31818c
30000c
30007c
300018
ENDCHAR
STARTCHAR ch-189
ENCODING 189
SWIDTH 1000 0
DWIDTH 24 0
BBX 24 24 0 -3
BITMAP
004006
007fff
006006
4661c6
7f6186
666186
666186
6661b6
667ffe
666186
666186
666186
666186
666346
666326
666326
7e6236
666636
666436
606836
006006
006006
007ffe
006006
ENDCHAR
STARTCHAR ch-190
ENCODING 190
SWIDTH 1000 0
DWIDTH 24 0
BBX 24 24 0 -3
BITMAP
000700
000608
43060e
7f861c
637ff8
630618
630630
630660
6306c6
63ffff
630300
630600
630608
630f0e
7f1e1c
633630
6066c0
00c700
030600
000604
000604
000606
0007fe
0003fc
ENDCHAR
STARTCHAR ch-192
ENCODING 192
SWIDTH 1000 0
DWIDTH 24 0
BBX 24 24 0 -3
BITMAP
001c00
001800
001806
ffffff
000000
040060
07fff0
060060
060060
060060
060060
060060
07ffe0
066860
00e410
01c41c
038238
0d8140
318180
c180c0
018e70
3ff03f
1f001e
100006
ENDCHAR
STARTCHAR ch-193
ENCODING 193
SWIDTH 1000 0
DWIDTH 24 0
BBX 24 24 0 -3
BITMAP
000000
0200c0
03ffe0
0300c0
0300c0
0300c0
0300c0
0300c0
0300c0
03ffc0
0300c0
000000
40c206
7fe3ff
60c306
60c306
60c306
60c306
60c306
60c306
60c306
7fc3fe
60c306
60c306
ENDCHAR
STARTCHAR ch-194
ENCODING 194
SWIDTH 1000 0
DWIDTH 24 0
BBX 24 24 0 -3
BITMAP
000000
000006
437fff
7f8660
630660
630660
634666
637fff
636666
636666
636666
636666
636666
636466
636c7e
7f683e
637006
606006
006006
006006
006006
007ffe
006006
006006
ENDCHAR
STARTCHAR ch-196
ENCODING 196
SWIDTH 1000 0
DWIDTH 24 0
BBX 24 24 0 -3
BITMAP
000e70
000c60
430c60
7f8c60
630c60
630c6c
637ffe
630c60
630c60
630c60
630c60
630c60
630c60
630c66
63ffff
7f0000
630000
600840
000e30
001c18
00180c
00300e
006006
018006
ENDCHAR
STARTCHAR ch-199
ENCODING 199
SWIDTH 1000 0
DWIDTH 24 0
BBX 24 24 0 -3
BITMAP
0001c0
000180
430180
7f818c
633ffe
630180
630180
630180
63018c
633ffe
630000
630000
6301c0
630180
63018c
7f3ffe
630180
600180
000180
000180
000180
000186
00ffff
000000
ENDCHAR
STARTCHAR ch-200
ENCODING 200
SWIDTH 1000 0
DWIDTH 24 0
BBX 24 24 0 -3
BITMAP
000300
000300
000780
430680
7f86c0
630c40
630c60
631830
631038
63201c
635fef
638006
630000
630000
632018
633ffc
7f3018
633018
603018
003018
003018
003ff8
003018
003018
ENDCHAR
STARTCHAR ch-201
ENCODING 201
SWIDTH 1000 0
DWIDTH 24 0
BBX 24 24 0 -3
BITMAP
038380
030300
030320
033318
3ffb0c
03030c
030300
030300
030306
ffffff
000300
000300
106110
1ff19c
186198
1861b0
1860b0
1860e0
186042
1860e2
1fe1b2
18033b
000c1f
00700e
ENDCHAR
STARTCHAR ch-216
ENCODING 216
SWIDTH 1000 0
DWIDTH 24 0
BBX 24 24 0 -3
BITMAP
000800
000e0c
431dfe
7f9800
633000
632400
634700
630600
630c06
630dff
631818
631818
633818
635818
631818
7f1818
631818
601818
001818
001818
001818
001818
0018f8
001830
ENDCHAR
STARTCHAR ch-225
ENCODING 225
SWIDTH 1000 0
DWIDTH 24 0
BBX 24 24 0 -3
BITMAP
080030
0ffff8
0c0030
0c0030
0c0030
0ffff0
0c0030
000000
100018
1ffffc
180018
180018
1ffff8
180018
180018
1ffff8
180018
180018
1ffff8
190018
01c180
038078
0e001c
70000c
ENDCHAR
STARTCHAR ch-226
ENCODING 226
SWIDTH 1000 0
DWIDTH 24 0
BBX 24 24 0 -3
BITMAP
00000c
003ffe
430180
7f8180
630198
631ffc
630180
630180
630186
637fff
630000
630000
630e38
630c30
7f0c36
60ffff
600c30
000c30
001830
001830
003030
002030
004030
018030
ENDCHAR
STARTCHAR ch-229
ENCODING 229
SWIDTH 1000 0
DWIDTH 24 0
BBX 24 24 0 -3
BITMAP
000000
00000c
7ffffe
000060
040c60
07fe60
060c60
060c60
060c60
07fc60
0603e0
0000c0
000006
ffffff
000030
081830
0ffc30
0c1830
0c1830
0c1830
0ff830
0c1830
0001f0
000060
ENDCHAR
STARTCHAR ch-230
ENCODING 230
SWIDTH 1000 0
DWIDTH 24 0
BBX 24 24 0 -3
BITMAP
0008e0
000ec8
431cc4
7f38c6
63d8c6
6318c0
6318c0
6318c6
63ffff
6318c0
6318c8
6318ce
6318cc
631ec8
63f858
637850
7f5870
631822
601872
0018da
00189a
00190e
00fa07
003003
ENDCHAR
STARTCHAR ch-232
ENCODING 232
SWIDTH 1000 0
DWIDTH 24 0
BBX 24 24 0 -3
BITMAP
0001c4
004187
003186
43198c
7f9988
631990
630180
63218c
633ffe
63300c
63300c
63300c
633ffc
63300c
63300c
7f300c
633ffc
60300c
00300c
00300c
00300c
00300c
00307c
003018
ENDCHAR
STARTCHAR ch-233
ENCODING 233
SWIDTH 1000 0
DWIDTH 24 0
BBX 24 24 0 -3
BITMAP
000000
00200c
433ffe
7fb18c
63318c
63318c
63318c
633ffc
63318c
63318c
63318c
63318c
633ffc
63318c
7f0180
630180
630198
603ffc
000180
000180
000180
000186
00ffff
000000
ENDCHAR
STARTCHAR ch-237
ENCODING 237
SWIDTH 1000 0
DWIDTH 24 0
BBX 24 24 0 -3
BITMAP
20c20c
3fe3fe
30c30c
30c30c
30c30c
30c30c
30c30c
3fc3fc
30c30c
000000
001c40
001830
001830
001806
ffffff
003400
003200
006300
006180
00c1c0
0180f0
03007e
0c003c
70000c
ENDCHAR
STARTCHAR ch-238
ENCODING 238
SWIDTH 1000 0
DWIDTH 24 0
BBX 24 24 0 -3
BITMAP
000700
000600
430610
7f861c
637ff8
630630
630660
6306c6
63ffff
630180
630318
637ffc
630c30
631820
633140
7fc180
63018c
60fffe
000180
000180
000180
000180
000f80
000300
ENDCHAR
STARTCHAR ch-242
ENCODING 242
SWIDTH 1000 0
DWIDTH 24 0
BBX 24 24 0 -3
BITMAP
07000c
06087e
060fe0
06cc00
ffec00
060c06
060fff
07cc30
fe0c30
761830
061830
061030
3e2030
0c4030
000000
000000
0ffff0
0c0030
0c0030
0c0030
0c0030
0c0030
0ffff0
0c0030
ENDCHAR
STARTCHAR ch-250
ENCODING 250
SWIDTH 1000 0
DWIDTH 24 0
BBX 24 24 0 -3
BITMAP
0003a0
000318
430318
7f0306
63ffff
630300
630300
63430c
637ffe
63630c
63630c
63630c
637ffc
63630c
63630c
7f630c
637ffc
60630c
00630c
00630c
00630c
00630c
00633c
006318
ENDCHAR
STARTCHAR ch-253
ENCODING 253
SWIDTH 1000 0
DWIDTH 24 0
BBX 24 24 0 -3
BITMAP
000006
007fff
430180
7f8180
63218c
633ffe
63318c
63318c
63318c
633ffc
63318c
63318c
63318c
633ffc
7f318c
630180
601180
000d00
000700
000380
0006e0
000c7f
00301e
00c006
ENDCHAR
STARTCHAR ch-260
ENCODING 260
SWIDTH 1000 0
DWIDTH 24 0
BBX 24 24 0 -3
BITMAP
00100c
001ffe
43180c
7f980c
63180c
63180c
631ffc
63180c
63180c
63180c
63180c
631ffc
63180c
63180c
63180c
7f180c
63180c
631ffc
600800
000e30
000c0c
001806
003007
00c003
ENDCHAR
STARTCHAR ch-262
ENCODING 262
SWIDTH 1000 0
DWIDTH 24 0
BBX 24 24 0 -3
BITMAP
000400
000700
000620
460418
7f080c
66fff6
667c06
661070
661c60
661860
66307e
66683e
668e00
660c30
661ff8
7e1030
662860
604460
0086c0
000380
0006e0
000c7f
00301e
01c006
ENDCHAR
STARTCHAR ch-263
ENCODING 263
SWIDTH 1000 0
DWIDTH 24 0
BBX 24 24 0 -3
BITMAP
100018
1ffffc
180000
180000
19fff0
180000
18000c
1ffffe
198410
19821c
318318
3181a0
2ffcc0
478070
84003f
00000e
07ffe0
060060
060060
060060
060060
060060
07ffe0
060060
ENDCHAR
STARTCHAR ch-271
ENCODING 271
SWIDTH 1000 0
DWIDTH 24 0
BBX 24 24 0 -3
BITMAP
000010
00183c
430770
7f81e0
630738
633818
630380
630306
63ffff
630600
630dc0
630d80
631986
633fff
637186
7fb186
633186
603186
003186
003186
0031be
00318c
000180
000180
ENDCHAR
STARTCHAR ch-272
ENCODING 272
SWIDTH 1000 0
DWIDTH 24 0
BBX 24 24 0 -3
BITMAP
000e00
000c00
200c06
3fffff
300c00
300c00
33fff0
300c30
300c36
3fffff
300c30
300c30
300c30
33fff0
300000
300000
310030
31fff8
618030
618030
418030
818030
01fff0
018030
ENDCHAR
STARTCHAR ch-276
ENCODING 276
SWIDTH 1000 0
DWIDTH 24 0
BBX 24 24 0 -3
BITMAP
00000c
007ffe
430300
7f8300
630300
630318
633ffc
630618
630618
630618
630618
63061e
637fff
630000
630000
7f100c
631ffe
60180c
00180c
00180c
00180c
00180c
001ffc
00180c
ENDCHAR
STARTCHAR ch-278
ENCODING 278
SWIDTH 1000 0
DWIDTH 24 0
BBX 24 24 0 -3
BITMAP
000006
00ffff
460660
7f0660
660660
660660
664666
667fff
666666
666666
666666
666666
666666
666666
667ffe
666666
7e0660
660660
600660
000660
000660
000666
01ffff
000000
ENDCHAR
STARTCHAR ch-302
ENCODING 302
SWIDTH 1000 0
DWIDTH 24 0
BBX 24 24 0 -3
BITMAP
020400
038700
070600
060818
0ffffc
180800
380800
dffff0
180800
180800
1ffff0
180800
180800
18080c
1ffffe
180000
000000
040060
07fff0
060060
060060
060060
07ffe0
060060
ENDCHAR
STARTCHAR ch-303
ENCODING 303
SWIDTH 1000 0
DWIDTH 24 0
BBX 24 24 0 -3
BITMAP
000840
000e70
430c60
7f8c40
63188c
631ffe
6318c0
6338c0
6338c0
6358d8
639ffc
6318c0
6318c0
6318c0
6318d8
631ffc
7f18c0
6318c0
6018c0
0018c0
0018c6
001fff
001800
001800
ENDCHAR
STARTCHAR ch-305
ENCODING 305
SWIDTH 1000 0
DWIDTH 24 0
BBX 24 24 0 -3
BITMAP
001018
001ffc
001818
431818
7f9818
631ff8
631818
631818
631818
631ff8
631818
630000
634006
637fff
636006
7f6006
636006
607ffe
006006
006006
006006
006006
007ffe
006006
ENDCHAR
STARTCHAR ch-307
ENCODING 307
SWIDTH 1000 0
DWIDTH 24 0
BBX 24 24 0 -3
BITMAP
000006
00ffff
460000
7f0000
66400c
667ffe
66600c
66600c
66600c
667ffc
66600c
6661c0
666180
666186
667fff
7e6180
66c340
60c340
008320
018630
010618
020c1f
00180e
006006
ENDCHAR
STARTCHAR ch-312
ENCODING 312
SWIDTH 1000 0
DWIDTH 24 0
BBX 24 24 0 -3
BITMAP
000300
000300
000680
430680
7f8c40
630860
631030
632fdc
63400f
638066
633ff0
630060
6300c0
6300c0
630180
7f0180
631a10
60590c
005986
00d9a3
009823
019830
019ff0
000fe0
ENDCHAR
STARTCHAR ch-313
ENCODING 313
SWIDTH 1000 0
DWIDTH 24 0
BBX 24 24 0 -3
BITMAP
007060
006060
466060
7e6060
6666d0
67ffd0
6660d0
666098
666088
666d8c
667d0f
664d46
664e26
664c30
664c18
66cc18
7ecc00
668c80
608c60
009830
019818
01181c
01780c
02300c
ENDCHAR
STARTCHAR ch-318
ENCODING 318
SWIDTH 1000 0
DWIDTH 24 0
BBX 24 24 0 -3
BITMAP
000030
0003f8
467f00
7f0300
660300
66030c
66fffe
663330
663330
663330
663336
67ffff
663330
663330
663330
663330
7e3334
66fffe
660300
600300
000300
000306
01ffff
000000
ENDCHAR
STARTCHAR ch-320
ENCODING 320
SWIDTH 1000 0
DWIDTH 24 0
BBX 24 24 0 -3
BITMAP
004006
467fff
7f6000
6660e0
6660c0
6660d8
6667fc
6660c0
6660c0
6660cc
666ffe
666000
666000
6660e0
6660c0
7e60cc
664ffe
60c0c0
00c0c0
0080c0
0180c0
0100c6
023fff
000000
ENDCHAR
STARTCHAR ch-324
ENCODING 324
SWIDTH 1000 0
DWIDTH 24 0
BBX 24 24 0 -3
BITMAP
000000
000006
00ffff
430300
7f8600
630600
630c08
631a0e
63230c
63c518
630d90
6309a0
6311c0
6323c0
63c5a0
6305a0
7f0990
631198
60218f
00c18e
030386
000300
001f00
000600
ENDCHAR
STARTCHAR ch-325
ENCODING 325
SWIDTH 1000 0
DWIDTH 24 0
BBX 24 24 0 -3
BITMAP
0001c0
000180
43018c
7f81fe
630180
630180
63218c
633ffe
63300c
63300c
633ffc
63300c
63300c
63300c
633ffc
7f318c
630180
600186
01ffff
000180
000180
000180
000180
000180
ENDCHAR
STARTCHAR ch-326
ENCODING 326
SWIDTH 1000 0
DWIDTH 24 0
BBX 24 24 0 -3
BITMAP
001c00
001800
001806
ffffff
010200
008380
00c300
20c40c
3ffffe
30860c
30e60c
30c60c
3187ec
3303ec
3c000c
30ff0c
30c30c
30c30c
30c30c
30c30c
30ff0c
30c30c
30007c
300018
ENDCHAR
STARTCHAR ch-332
ENCODING 332
SWIDTH 1000 0
DWIDTH 24 0
BBX 24 24 0 -3
BITMAP
0001c0
000180
001180
431186
7fbfff
632666
636664
636668
630c60
630c60
63087e
63103e
636000
630000
63000c
7f3ffe
630180
600180
000180
000180
000180
000186
00ffff
000000
ENDCHAR
STARTCHAR ch-335
ENCODING 335
SWIDTH 1000 0
DWIDTH 24 0
BBX 24 24 0 -3
BITMAP
406406
7ff7ff
606606
606606
7fe7fe
606606
606606
7fe7fe
606606
600006
600006
610306
61ff86
618306
618306
618306
618306
618306
61ff06
618306
600006
600006
60003e
60000c
ENDCHAR
STARTCHAR ch-339
ENCODING 339
SWIDTH 1000 0
DWIDTH 24 0
BBX 24 24 0 -3
BITMAP
003100
7ff9c0
000186
0001ff
106310
1ff31c
186618
186918
186130
1860b0
1fe060
1860e0
3001b8
30061f
20180e
440066
87fff0
060060
060060
060060
060060
060060
07ffe0
060060
ENDCHAR
STARTCHAR ch-342
ENCODING 342
SWIDTH 1000 0
DWIDTH 24 0
BBX 24 24 0 -3
BITMAP
000380
000308
43130e
7f931c
633310
636720
636680
630660
630c38
630c1c
63180e
633386
63c300
630308
63230e
7f269c
604690
61c640
018c40
000c20
001830
00301c
00600f
038006
ENDCHAR
STARTCHAR ch-343
ENCODING 343
SWIDTH 1000 0
DWIDTH 24 0
BBX 24 24 0 -3
BITMAP
000400
000700
43060c
7f87fe
630c0c
630c0c
63181c
631018
632038
6341f0
630060
630200
632706
633c3f
633006
7f3006
633206
603f3e
003006
003006
003006
003006
003ffe
003006
ENDCHAR
STARTCHAR ch-348
ENCODING 348
SWIDTH 1000 0
DWIDTH 24 0
BBX 24 24 0 -3
BITMAP
00060c
00fffe
43060c
7f0c18
636d98
633870
631c38
63366c
6360c6
638306
630000
630000
630606
63ffff
630686
7f0c8c
60cc4c
602858
001870
001c20
003670
0066dc
00c18f
030606
ENDCHAR
STARTCHAR ch-349
ENCODING 349
SWIDTH 1000 0
DWIDTH 24 0
BBX 24 24 0 -3
BITMAP
000600
003f00
01f000
463086
7f30ff
6630c6
6630c6
6636c6
67ffc6
6630c6
6630c6
6678c6
6674c6
6674c6
66f6c6
7eb6c6
61b0c6
6130c6
0230c6
0430fe
0830c6
0030c0
003000
003000
ENDCHAR
STARTCHAR ch-355
ENCODING 355
SWIDTH 1000 0
DWIDTH 24 0
BBX 24 24 0 -3
BITMAP
004000
007000
466046
7e627f
667f66
66d866
669866
671866
661866
661966
67ffe6
661866
661866
669866
669f66
7e9866
669866
609866
009b7e
00bc6c
03f060
01c060
010060
000060
ENDCHAR
STARTCHAR ch-379
ENCODING 379
SWIDTH 1000 0
DWIDTH 24 0
BBX 24 24 0 -3
BITMAP
001c00
001800
00180c
7ffffe
020100
0181c0
20c180
20c206
7fffff
601c06
c01808
cffff0
0c1830
0c1830
0c19f0
0c1860
001800
100018
1ffffc
180018
180018
180018
1ffff8
180018
ENDCHAR
STARTCHAR ch-380
ENCODING 380
SWIDTH 1000 0
DWIDTH 24 0
BBX 24 24 0 -3
BITMAP
0001c0
000180
43018c
7fbffe
630820
630438
630630
632642
633fff
636006
6361c8
630180
63218c
633ffe
63318c
7f318c
63318c
60318c
00318c
00318c
0031bc
003198
000180
000180
ENDCHAR
STARTCHAR ch-382
ENCODING 382
SWIDTH 1000 0
DWIDTH 24 0
BBX 24 24 0 -3
BITMAP
000c70
003e60
01f060
463060
7f3064
663167
663166
67ff66
663164
66336c
667368
667860
667470
66f650
66b650
66b0d0
7fb0d0
6130d8
623088
003088
00318c
00310f
003106
003206
ENDCHAR
STARTCHAR ch-384
ENCODING 384
SWIDTH 1000 0
DWIDTH 24 0
BBX 24 24 0 -3
BITMAP
0001c0
001180
431186
7fbfff
633006
636404
636630
630ff8
630c30
631860
633460
6342c0
630180
630360
63063f
7f0c1e
633006
60dff8
001818
001818
001818
001818
001ff8
001818
ENDCHAR
STARTCHAR ch-387
ENCODING 387
SWIDTH 1000 0
DWIDTH 24 0
BBX 24 24 0 -3
BITMAP
000380
000300
460306
7effff
660300
660300
66430c
667ffe
66600c
66684c
66646c
66644c
66608c
666fec
66630c
66630c
7e630c
666fec
60630c
00630c
00630c
00630c
00633c
006018
ENDCHAR
STARTCHAR ch-388
ENCODING 388
SWIDTH 1000 0
DWIDTH 24 0
BBX 24 24 0 -3
BITMAP
020100
0181c0
00c180
00c204
7ffffe
001800
001810
1ffff8
001800
001808
3ffffc
041860
021840
031886
ffffff
000000
040060
07fff0
060060
060060
060060
060060
07ffe0
060060
ENDCHAR
STARTCHAR ch-391
ENCODING 391
SWIDTH 1000 0
DWIDTH 24 0
BBX 24 24 0 -3
BITMAP
001c07
001806
4619a6
7fffe6
661826
661826
669926
66ffa6
669926
669926
669926
669926
66ff26
669926
663826
7e3826
667c26
605b26
00d986
009986
011806
061806
00183e
00180c
ENDCHAR
STARTCHAR ch-393
ENCODING 393
SWIDTH 1000 0
DWIDTH 24 0
BBX 24 24 0 -3
BITMAP
004030
0077f8
8c6030
fe6030
cc6036
ccdfff
ccc000
ccc400
ccc700
cdc618
cdc7fc
ceccc0
ccc8c0
ccd0c0
ccc0c6
ccdfff
fcc1a0
ccc1a0
c0c190
00c110
00c318
00c20f
00c40e
00d806
ENDCHAR
STARTCHAR ch-394
ENCODING 394
SWIDTH 1000 0
DWIDTH 24 0
BBX 24 24 0 -3
BITMAP
0000e8
0000c6
0000c6
4600c0
7f40c6
667fff
6660c0
6660c0
6660c0
666fc4
6660c7
6660c6
666f4c
66694c
666948
666958
7e4970
66cf22
60c072
008052
0180da
01018e
020307
040c03
ENDCHAR
STARTCHAR ch-395
ENCODING 395
SWIDTH 1000 0
DWIDTH 24 0
BBX 24 24 0 -3
BITMAP
003998
003110
463110
7e3112
67ffff
663110
663110
663110
6631f0
663000
66300c
663ffe
663300
660300
660306
7fffff
660f40
601b20
001b30
003318
00631f
00c30e
030306
000300
ENDCHAR
STARTCHAR ch-408
ENCODING 408
SWIDTH 1000 0
DWIDTH 24 0
BBX 24 24 0 -3
BITMAP
0001c0
003987
433186
7fb186
633186
633186
633ffe
633006
630000
630006
63ffff
630180
630100
632206
633fff
7f3246
633246
603246
003246
003246
003246
003246
00325e
00300c
ENDCHAR
STARTCHAR ch-409
ENCODING 409
SWIDTH 1000 0
DWIDTH 24 0
BBX 24 24 0 -3
BITMAP
000030
001ff8
430030
7f8030
631ff0
630030
630030
630036
637fff
630380
630704
630d87
631986
6363cc
6306d0
7f0ce0
6319e0
6063d0
0006d8
000ccf
0030ce
00c0c6
0007c0
000180
ENDCHAR
STARTCHAR ch-410
ENCODING 410
SWIDTH 1000 0
DWIDTH 24 0
BBX 24 24 0 -3
BITMAP
000800
000c60
001ff0
461860
7f3040
66608c
66fffe
67648c
66648c
66648c
66648c
666cfc
66687c
66700c
66638c
7e630c
60630c
61ffff
000680
000c40
001870
00303f
00c01e
030006
ENDCHAR
STARTCHAR ch-412
ENCODING 412
SWIDTH 1000 0
DWIDTH 24 0
BBX 24 24 0 -3
BITMAP
001c00
00180c
7ffffe
001800
001830
1ffff8
000000
040060
07fff0
060060
060060
07ffe0
020100
0181c0
00c180
00c206
ffffff
000000
040060
07fff0
060060
060060
07ffe0
060060
ENDCHAR
STARTCHAR ch-413
ENCODING 413
SWIDTH 1000 0
DWIDTH 24 0
BBX 24 24 0 -3
BITMAP
004018
007ffc
466018
7e6018
667ff8
666018
666018
666018
667ff8
661818
661800
663006
663fff
666006
7e7186
60e3c6
61ee06
067046
006066
007fe6
003fcc
00000c
0000fc
000038
ENDCHAR
STARTCHAR ch-414
ENCODING 414
SWIDTH 1000 0
DWIDTH 24 0
BBX 24 24 0 -3
BITMAP
000000
004646
467f7f
7f6666
666666
666666
666666
667e66
666666
666666
666666
666666
667e66
666666
666066
666066
7e6866
666466
606666
006b7e
01f36c
00e360
008060
000060
ENDCHAR
STARTCHAR ch-415
ENCODING 415
SWIDTH 1000 0
DWIDTH 24 0
BBX 24 24 0 -3
BITMAP
002006
003fff
433186
7fb186
633ffe
633186
633186
633186
633ffe
633006
630000
631ffc
63180c
63180c
7f1ffc
63180c
60180c
00180c
001ffc
00180c
00180c
00180c
00187c
001818
ENDCHAR
STARTCHAR ch-423
ENCODING 423
SWIDTH 1000 0
DWIDTH 24 0
BBX 24 24 0 -3
BITMAP
0001c0
002180
462186
7f7fff
666006
66c004
66c008
663ffc
660000
662018
663ffc
663018
663018
663018
663ff8
7e3018
663018
603018
003ff8
003018
000000
000006
01ffff
000000
ENDCHAR
STARTCHAR ch-424
ENCODING 424
SWIDTH 1000 0
DWIDTH 24 0
BBX 24 24 0 -3
BITMAP
000380
000300
430306
7fffff
630000
630000
631ff0
631830
631830
631ff0
634000
634006
637fff
63c006
63c004
7f1ce8
6318c0
6018c0
0018c2
0030c2
0030c2
0060c3
00c0ff
03007e
ENDCHAR
STARTCHAR ch-425
ENCODING 425
SWIDTH 1000 0
DWIDTH 24 0
BBX 24 24 0 -3
BITMAP
000300
000300
460680
7f0640
660c60
661830
66301c
66604f
679fe6
660000
660000
66420e
667f4c
66424c
66424c
7e7e4c
66424c
60424c
007e4c
00424c
00420c
00420c
004e3c
004618
ENDCHAR
STARTCHAR ch-426
ENCODING 426
SWIDTH 1000 0
DWIDTH 24 0
BBX 24 24 0 -3
BITMAP
001c00
001800
00180c
7ffffe
001800
001800
3f99fc
31998c
31998c
31998c
3f99fc
001800
001806
ffffff
060820
060838
060470
060680
060300
060180
0638e0
7fc07e
3c003c
20000c
ENDCHAR
STARTCHAR ch-427
ENCODING 427
SWIDTH 1000 0
DWIDTH 24 0
BBX 24 24 0 -3
BITMAP
001c00
001906
46ffff
7f1866
661866
661a66
66ff66
661846
6618c6
66188e
661e8c
67f97c
66e218
668700
7e0600
600606
63ffff
000d00
000c80
0018c0
001870
00303f
00c01e
070006
ENDCHAR
STARTCHAR ch-428
ENCODING 428
SWIDTH 1000 0
DWIDTH 24 0
BBX 24 24 0 -3
BITMAP
0003c0
001fe0
0ff800
003000
006006
ffffff
00c100
018080
03ff60
068138
0c811f
30ff06
c00000
100018
1ffffc
180018
180018
18ff18
18c318
18c318
18ff18
180018
1800f8
180030
ENDCHAR
STARTCHAR ch-430
ENCODING 430
SWIDTH 1000 0
DWIDTH 24 0
BBX 24 24 0 -3
BITMAP
20640c
3ff7fe
30660c
30660c
30660c
3fe7fc
30660c
000000
080030
0ffff8
0c1830
0c1830
0ffff0
0c1830
0c1830
0c1830
0ffff0
0c1830
001806
ffffff
001800
001800
001800
001800
ENDCHAR
STARTCHAR ch-432
ENCODING 432
SWIDTH 1000 0
DWIDTH 24 0
BBX 24 24 0 -3
BITMAP
000300
000300
000680
430640
7f8c60
630c30
63199c
63318f
635ff6
639830
631830
631ff0
631830
631830
631ff4
7f1887
631886
60184c
001850
001820
001bb8
00fe1f
00700e
004006
ENDCHAR
STARTCHAR ch-438
ENCODING 438
SWIDTH 1000 0
DWIDTH 24 0
BBX 24 24 0 -3
BITMAP
002040
041870
030c60
118c40
118086
3fffff
300006
6200c4
63ffe8
0300c0
0300c0
0300c0
03ffc0
0330c0
002000
084030
0ffff8
0c0030
0c0030
0c0030
0c0030
0c0030
0ffff0
0c0030
ENDCHAR
STARTCHAR ch-452
ENCODING 452
SWIDTH 1000 0
DWIDTH 24 0
BBX 24 24 0 -3
BITMAP
000006
00ffff
430300
7f8200
633ffc
63300c
63300c
633ffc
63300c
63300c
633ffc
63300c
63300c
633ffc
630600
7f0c18
631ffc
603030
006860
0186c0
000380
000ef0
00383f
01c00e
ENDCHAR
STARTCHAR ch-453
ENCODING 453
SWIDTH 1000 0
DWIDTH 24 0
BBX 24 24 0 -3
BITMAP
000400
000700
002618
433ffc
7fb018
633018
633ff8
633018
633018
633ff8
633018
633018
633018
633ff8
633018
7f0380
600306
61ffff
000680
000640
000c60
001838
00301f
01c006
ENDCHAR
STARTCHAR ch-455
ENCODING 455
SWIDTH 1000 0
DWIDTH 24 0
BBX 24 24 0 -3
BITMAP
001c00
001800
00180c
7ffffe
041840
061860
0c18c0
0a18a0
119918
609a08
001802
ffffff
000000
100018
1ffffc
180018
18ff18
188118
188118
188118
18ff18
180018
1ffff8
180018
ENDCHAR
STARTCHAR ch-468
ENCODING 468
SWIDTH 1000 0
DWIDTH 24 0
BBX 24 24 0 -3
BITMAP
0001c0
000180
43018c
7f7ffe
630180
630180
631ff8
631818
631818
631ff8
631818
631818
631ff8
631818
631818
7f1ff8
630000
600006
00ffff
000000
000c60
001e1c
00380e
00c006
ENDCHAR
STARTCHAR ch-474
ENCODING 474
SWIDTH 1000 0
DWIDTH 24 0
BBX 24 24 0 -3
BITMAP
000200
000380
002318
433ffc
7fb018
633018
633018
633018
633ff8
633018
633000
633006
633fff
633000
7f3006
633fff
603006
008046
009226
019126
01990e
03180c
03007c
000018
ENDCHAR
STARTCHAR ch-476
ENCODING 476
SWIDTH 1000 0
DWIDTH 24 0
BBX 24 24 0 -3
BITMAP
000704
000607
43060e
7fbfec
630618
630632
63ffff
6301c0
630308
630c1c
633c70
63cf84
630c06
6307fe
630000
7f0000
631ff8
601818
001818
001ff8
001818
001818
001ff8
001818
ENDCHAR
STARTCHAR ch-479
ENCODING 479
SWIDTH 1000 0
DWIDTH 24 0
BBX 24 24 0 -3
BITMAP
001010
000c1c
000618
430620
7fbffe
630180
630180
630198
631ffc
630180
630180
630186
637fff
630600
630600
7f0c00
63080c
601ffe
0030c0
0060c0
00c0c0
0300c0
0000c6
003fff
ENDCHAR
STARTCHAR ch-483
ENCODING 483
SWIDTH 1000 0
DWIDTH 24 0
BBX 24 24 0 -3
BITMAP
206000
3ff006
306fff
306006
306006
306066
3fe7f6
306006
000006
403226
7ffbf6
693226
693226
693226
693226
693226
7ff3e6
693226
693006
693006
693006
693006
69f03e
60600c
ENDCHAR
STARTCHAR ch-484
ENCODING 484
SWIDTH 1000 0
DWIDTH 24 0
BBX 24 24 0 -3
BITMAP
0001c0
00398e
43318c
7fb18c
63318c
633ffc
63330c
630200
630406
63ffff
6301c0
630180
633ffc
63318c
7f318c
63318c
603ffc
000180
000180
000188
000184
00fffe
007f03
004003
ENDCHAR
STARTCHAR ch-503
ENCODING 503
SWIDTH 1000 0
DWIDTH 24 0
BBX 24 24 0 -3
BITMAP
003880
0030e0
4630c0
7ffec0
6630c0
663086
6630ff
67ff88
66010e
66314c
66324c
66304c
67ff48
666028
666028
667e38
7e6610
666610
60c638
00c628
008c2c
018c6f
013c46
061986
ENDCHAR
STARTCHAR ch-505
ENCODING 505
SWIDTH 1000 0
DWIDTH 24 0
BBX 24 24 0 -3
BITMAP
0000e0
0080cc
464ffe
7f60c0
6660c0
6667fc
6604c4
6604c4
6604c4
6607fc
6664c4
67f4c4
6664c4
6667fc
6660c0
7e60c6
667fff
6060c0
0060c0
0060c0
007000
03dfff
0187fe
010000
ENDCHAR
STARTCHAR ch-509
ENCODING 509
SWIDTH 1000 0
DWIDTH 24 0
BBX 24 24 0 -3
BITMAP
003840
003070
443260
7fff60
643046
6430ff
653286
65ff04
653268
653260
653260
653260
65fe60
653260
647070
7c7850
64f4d0
60b6d0
01b6d8
013088
02308c
0c318f
003106
003206
ENDCHAR
STARTCHAR ch-510
ENCODING 510
SWIDTH 1000 0
DWIDTH 24 0
BBX 24 24 0 -3
BITMAP
003840
003070
463060
7f30c6
6632ff
67ff80
666140
666260
666044
6666fe
667eb0
666730
666630
666632
6667ff
666630
7e6630
664638
60c668
00c668
008c4c
018ccf
013c86
021906
ENDCHAR
ENDFONT
