STARTFONT 2.1
FONT jis.jis9600.16
SIZE 16 72 72
FONTBOUNDINGBOX 16 16 0 -2
STARTPROPERTIES 4
FONT_DESCENT 2
FONT_ASCENT 14
DEFAULT_CHAR 28
COPYRIGHT "Copyright (c) 1992 AT&T - All rights reserved."
ENDPROPERTIES
CHARS 176
STARTCHAR ch-28
ENCODING 28
SWIDTH 1000 0
DWIDTH 16 0
BBX 16 16 0 -2
BITMAP
0080
0100
1ff8
1008
1008
1ff8
1000
1ff8
1008
1008
1ff8
0100
ffff
0100
0100
0100
ENDCHAR
STARTCHAR ch-33
ENCODING 33
SWIDTH 1000 0
DWIDTH 16 0
BBX 16 16 0 -2
BITMAP
0006
7c1c
44f0
4c10
4810
5810
5010
49ff
4410
4410
4410
4410
5c10
4010
4010
4010
ENDCHAR
STARTCHAR ch-40
ENCODING 40
SWIDTH 1000 0
DWIDTH 16 0
BBX 16 16 0 -2
BITMAP
0000
7dff
4500
4d00
493e
5922
5122
4922
4522
4522
4526
4520
5d20
4121
4233
401e
ENDCHAR
STARTCHAR ch-42
ENCODING 42
SWIDTH 1000 0
DWIDTH 16 0
BBX 16 16 0 -2
BITMAP
0000
7dff
4500
4d00
4900
59fe
5142
4946
4964
492c
4938
5b10
4238
466c
4cc6
4183
ENDCHAR
STARTCHAR ch-46
ENCODING 46
SWIDTH 1000 0
DWIDTH 16 0
BBX 16 16 0 -2
BITMAP
0000
7dfe
4400
4c00
4800
5bff
5048
4848
4448
4448
4448
4448
5cc8
4089
4189
4307
ENDCHAR
STARTCHAR ch-47
ENCODING 47
SWIDTH 1000 0
DWIDTH 16 0
BBX 16 16 0 -2
BITMAP
0010
7c10
4410
4c10
4890
5890
509e
4890
4490
4490
4490
4490
5c90
4090
43ff
4000
ENDCHAR
STARTCHAR ch-50
ENCODING 50
SWIDTH 1000 0
DWIDTH 16 0
BBX 16 16 0 -2
BITMAP
0020
7c20
4420
4fff
4840
5840
5040
487e
4442
4442
4442
44c2
5c86
4084
4184
431c
ENDCHAR
STARTCHAR ch-59
ENCODING 59
SWIDTH 1000 0
DWIDTH 16 0
BBX 16 16 0 -2
BITMAP
0000
7cfc
4484
4c84
5884
50fc
4884
4484
4484
44fc
4484
5c84
4084
4084
43ff
4000
ENDCHAR
STARTCHAR ch-63
ENCODING 63
SWIDTH 1000 0
DWIDTH 16 0
BBX 16 16 0 -2
BITMAP
0000
7dff
4404
4c04
59e4
5124
4924
4524
4524
4524
45e4
4404
5c04
4004
4004
401c
ENDCHAR
STARTCHAR ch-64
ENCODING 64
SWIDTH 1000 0
DWIDTH 16 0
BBX 16 16 0 -2
BITMAP
0010
7c10
4410
4dff
5901
5101
4840
4446
445c
4470
4440
4440
5c40
4041
4063
403e
ENDCHAR
STARTCHAR ch-66
ENCODING 66
SWIDTH 1000 0
DWIDTH 16 0
BBX 16 16 0 -2
BITMAP
0010
7c10
4410
4dff
4911
5912
5110
51fe
4942
4946
4964
492c
5b18
4234
4666
40c3
ENDCHAR
STARTCHAR ch-68
ENCODING 68
SWIDTH 1000 0
DWIDTH 16 0
BBX 16 16 0 -2
BITMAP
0084
7c84
4484
4d84
497f
5904
5304
5524
4934
4914
4904
4904
5904
4104
4104
411c
ENDCHAR
STARTCHAR ch-75
ENCODING 75
SWIDTH 1000 0
DWIDTH 16 0
BBX 16 16 0 -2
BITMAP
0000
79ff
4810
4810
58fe
5292
5292
4aaa
4aaa
4ac6
4a82
5a82
4286
4200
43ff
4000
ENDCHAR
STARTCHAR ch-76
ENCODING 76
SWIDTH 1000 0
DWIDTH 16 0
BBX 16 16 0 -2
BITMAP
0000
7dff
4410
4c30
4820
58fe
5082
4882
4482
4482
44fe
4482
5c82
4082
4082
40fe
ENDCHAR
STARTCHAR ch-77
ENCODING 77
SWIDTH 1000 0
DWIDTH 16 0
BBX 16 16 0 -2
BITMAP
0040
7c40
44fc
4d84
4b48
5830
50dc
5387
4810
49fe
4890
4890
5bff
4010
4010
4010
ENDCHAR
STARTCHAR ch-79
ENCODING 79
SWIDTH 1000 0
DWIDTH 16 0
BBX 16 16 0 -2
BITMAP
0020
7c20
45ff
4c20
4820
587e
5042
48c2
457e
4442
4442
447e
5c42
4042
4042
404e
ENDCHAR
STARTCHAR ch-80
ENCODING 80
SWIDTH 1000 0
DWIDTH 16 0
BBX 16 16 0 -2
BITMAP
0000
7dfc
4504
4d04
49fc
5904
5104
49fc
4521
4533
4516
451c
5d08
410c
41e6
4703
ENDCHAR
STARTCHAR ch-91
ENCODING 91
SWIDTH 1000 0
DWIDTH 16 0
BBX 16 16 0 -2
BITMAP
0110
7910
4916
49dc
5910
5110
5111
49cf
4b00
4820
4820
5bfe
4020
4020
47ff
4000
ENDCHAR
STARTCHAR ch-92
ENCODING 92
SWIDTH 1000 0
DWIDTH 16 0
BBX 16 16 0 -2
BITMAP
0010
7c10
45ff
4c10
4892
5892
5092
4955
4555
4438
4428
4428
5c6c
4044
40c6
4183
ENDCHAR
STARTCHAR ch-93
ENCODING 93
SWIDTH 1000 0
DWIDTH 16 0
BBX 16 16 0 -2
BITMAP
0010
7c10
45ff
4c10
4996
5892
5092
4955
4555
4438
4428
4428
5c6c
4044
40c6
4183
ENDCHAR
STARTCHAR ch-94
ENCODING 94
SWIDTH 1000 0
DWIDTH 16 0
BBX 16 16 0 -2
BITMAP
0024
7c64
45c4
4c44
49ff
5844
5044
48c4
4584
4420
4420
5dfe
4020
4020
43ff
4000
ENDCHAR
STARTCHAR ch-95
ENCODING 95
SWIDTH 1000 0
DWIDTH 16 0
BBX 16 16 0 -2
BITMAP
0010
7c90
449e
4c90
4890
5bff
5010
4854
44d6
4593
4410
4432
5c06
400c
4038
41e0
ENDCHAR
STARTCHAR ch-98
ENCODING 98
SWIDTH 1000 0
DWIDTH 16 0
BBX 16 16 0 -2
BITMAP
0020
7820
4bfe
4a02
4a02
51fc
5000
4800
4fff
4890
4890
4890
5990
4111
4313
460e
ENDCHAR
STARTCHAR ch-99
ENCODING 99
SWIDTH 1000 0
DWIDTH 16 0
BBX 16 16 0 -2
BITMAP
0020
7c20
47ff
4c20
4bfe
5a22
5222
53fe
4a22
4a22
4bfe
4820
4fff
5820
4020
4020
ENDCHAR
STARTCHAR ch-100
ENCODING 100
SWIDTH 1000 0
DWIDTH 16 0
BBX 16 16 0 -2
BITMAP
0020
7c70
4450
48d8
498c
5306
56fb
4820
4820
4bfe
4820
4924
5924
4326
4623
40e0
ENDCHAR
STARTCHAR ch-101
ENCODING 101
SWIDTH 1000 0
DWIDTH 16 0
BBX 16 16 0 -2
BITMAP
0040
7c40
44fc
4c84
498c
5b18
5010
493e
4522
4522
4522
453e
5d22
4122
4122
413e
ENDCHAR
STARTCHAR ch-102
ENCODING 102
SWIDTH 1000 0
DWIDTH 16 0
BBX 16 16 0 -2
BITMAP
0020
7c20
47ff
4c20
49fe
5820
53ff
5040
4844
4bff
4884
49a4
5934
4314
4604
401c
ENDCHAR
STARTCHAR ch-106
ENCODING 106
SWIDTH 1000 0
DWIDTH 16 0
BBX 16 16 0 -2
BITMAP
0020
7c20
45fe
4c84
48cc
5848
5048
4bff
4400
4400
44fc
4484
5c84
4084
4084
40fc
ENDCHAR
STARTCHAR ch-108
ENCODING 108
SWIDTH 1000 0
DWIDTH 16 0
BBX 16 16 0 -2
BITMAP
0000
7ffe
4a40
4a40
5a7e
53d2
5252
4a56
4a54
4bdc
4a48
5a48
425c
43d4
4666
4043
ENDCHAR
STARTCHAR ch-112
ENCODING 112
SWIDTH 1000 0
DWIDTH 16 0
BBX 16 16 0 -2
BITMAP
0020
7870
48d8
498c
4b76
5603
51fc
4808
4810
49fc
4800
4fff
5880
4084
413e
43e3
ENDCHAR
STARTCHAR ch-114
ENCODING 114
SWIDTH 1000 0
DWIDTH 16 0
BBX 16 16 0 -2
BITMAP
000c
7c38
45e0
4c20
4bfe
5924
5124
5124
4fff
4924
4924
4924
5bfe
4020
4020
47ff
ENDCHAR
STARTCHAR ch-115
ENCODING 115
SWIDTH 1000 0
DWIDTH 16 0
BBX 16 16 0 -2
BITMAP
0020
7c20
47ff
4c20
5bfe
5222
53fe
4a22
4a22
4bfe
48a8
48a8
59ac
4326
4623
4020
ENDCHAR
STARTCHAR ch-117
ENCODING 117
SWIDTH 1000 0
DWIDTH 16 0
BBX 16 16 0 -2
BITMAP
0020
7c20
47fe
4c20
4bff
5888
5188
4b4f
4840
48fc
4984
4b0c
58d8
4070
41dc
4707
ENDCHAR
STARTCHAR ch-118
ENCODING 118
SWIDTH 1000 0
DWIDTH 16 0
BBX 16 16 0 -2
BITMAP
0100
7900
4bff
4e01
5901
51f9
5341
4841
4ffd
4841
4a49
5a49
4249
43fb
4002
400e
ENDCHAR
STARTCHAR ch-119
ENCODING 119
SWIDTH 1000 0
DWIDTH 16 0
BBX 16 16 0 -2
BITMAP
0040
7c40
447e
4cc2
4886
5984
531c
4800
4460
45ce
4502
4502
5dce
4102
4102
41fe
ENDCHAR
STARTCHAR ch-120
ENCODING 120
SWIDTH 1000 0
DWIDTH 16 0
BBX 16 16 0 -2
BITMAP
0020
7c20
45fe
4c20
4820
5bff
5088
5088
4b0f
4820
4820
49fe
5820
4020
43ff
4000
ENDCHAR
STARTCHAR ch-122
ENCODING 122
SWIDTH 1000 0
DWIDTH 16 0
BBX 16 16 0 -2
BITMAP
0020
7c70
44d8
498c
4f07
51fc
5020
4bfe
4a22
4a22
4a22
4bfe
5850
40d8
418c
4707
ENDCHAR
STARTCHAR ch-125
ENCODING 125
SWIDTH 1000 0
DWIDTH 16 0
BBX 16 16 0 -2
BITMAP
0000
7df8
4508
4df8
4908
5908
51f8
5000
4fff
4900
49fe
4a52
5892
4326
4044
419c
ENDCHAR
STARTCHAR ch-133
ENCODING 133
SWIDTH 1000 0
DWIDTH 16 0
BBX 16 16 0 -2
BITMAP
0000
7dfe
4522
4d22
59fe
5122
5122
49fe
4820
4bff
4a21
4a29
5a3d
42e5
4201
4207
ENDCHAR
STARTCHAR ch-134
ENCODING 134
SWIDTH 1000 0
DWIDTH 16 0
BBX 16 16 0 -2
BITMAP
0080
7c80
45fc
4d0c
4a98
5870
50dc
4b87
48a0
49fe
4a20
49fc
5820
4020
47ff
4000
ENDCHAR
STARTCHAR ch-136
ENCODING 136
SWIDTH 1000 0
DWIDTH 16 0
BBX 16 16 0 -2
BITMAP
0000
79fc
4924
4924
59fc
5124
5124
49fc
4800
4fff
4920
4932
5914
4118
41cc
4707
ENDCHAR
STARTCHAR ch-138
ENCODING 138
SWIDTH 1000 0
DWIDTH 16 0
BBX 16 16 0 -2
BITMAP
0104
7d8c
4488
4fff
5840
50a0
5322
4856
4894
4b38
4858
4894
5916
4613
4030
40e0
ENDCHAR
STARTCHAR ch-139
ENCODING 139
SWIDTH 1000 0
DWIDTH 16 0
BBX 16 16 0 -2
BITMAP
0020
7c20
45ff
4c40
48fe
5b10
50ff
4800
44fe
4482
44fe
4482
5cfe
4082
4082
408e
ENDCHAR
STARTCHAR ch-141
ENCODING 141
SWIDTH 1000 0
DWIDTH 16 0
BBX 16 16 0 -2
BITMAP
0010
7c20
44fc
4c84
48fc
5884
5084
48fc
4400
45fe
4420
44fc
5c20
4020
43ff
4000
ENDCHAR
STARTCHAR ch-142
ENCODING 142
SWIDTH 1000 0
DWIDTH 16 0
BBX 16 16 0 -2
BITMAP
0110
7d13
45de
4d10
4910
5911
51cf
4b10
4420
45fe
4502
4502
59fe
4102
4102
41fe
ENDCHAR
STARTCHAR ch-143
ENCODING 143
SWIDTH 1000 0
DWIDTH 16 0
BBX 16 16 0 -2
BITMAP
0010
7a10
4b7f
4910
483e
5022
5062
4b3e
4922
4922
493e
4922
5922
4326
4680
4c7f
ENDCHAR
STARTCHAR ch-148
ENCODING 148
SWIDTH 1000 0
DWIDTH 16 0
BBX 16 16 0 -2
BITMAP
0000
7bfe
4800
49fc
4904
51fc
5000
4bfe
4a52
4a92
4b0e
4a02
5afa
4222
4222
4226
ENDCHAR
STARTCHAR ch-149
ENCODING 149
SWIDTH 1000 0
DWIDTH 16 0
BBX 16 16 0 -2
BITMAP
0000
7dfe
4502
4d02
49fe
5800
51fe
4902
45fe
4502
45fe
4502
5dfe
4084
4186
4303
ENDCHAR
STARTCHAR ch-151
ENCODING 151
SWIDTH 1000 0
DWIDTH 16 0
BBX 16 16 0 -2
BITMAP
0020
7c40
45fe
4d22
4922
59fe
5122
4922
45fe
4450
4454
4455
5cdf
4090
4191
430f
ENDCHAR
STARTCHAR ch-152
ENCODING 152
SWIDTH 1000 0
DWIDTH 16 0
BBX 16 16 0 -2
BITMAP
0082
7cc6
4444
4dff
4844
5844
50c6
4882
4583
44fe
44aa
5caa
40aa
40aa
41ff
4000
ENDCHAR
STARTCHAR ch-153
ENCODING 153
SWIDTH 1000 0
DWIDTH 16 0
BBX 16 16 0 -2
BITMAP
0020
7924
4b26
4e23
5820
51fc
5104
49fc
4904
49fc
4820
4924
5924
4326
4623
40e0
ENDCHAR
STARTCHAR ch-155
ENCODING 155
SWIDTH 1000 0
DWIDTH 16 0
BBX 16 16 0 -2
BITMAP
0100
79de
4b22
4ea6
4954
5088
5104
4efb
4800
4800
4bfe
5820
4124
4326
4623
40e0
ENDCHAR
STARTCHAR ch-156
ENCODING 156
SWIDTH 1000 0
DWIDTH 16 0
BBX 16 16 0 -2
BITMAP
0020
7c20
45fe
4c84
4848
5bff
5000
51fe
4902
49fe
4902
49fe
5820
43ff
4020
4020
ENDCHAR
STARTCHAR ch-160
ENCODING 160
SWIDTH 1000 0
DWIDTH 16 0
BBX 16 16 0 -2
BITMAP
0006
783c
4be2
4926
4894
51fe
5002
49fe
4802
49fe
4820
4810
5952
4143
4345
423c
ENDCHAR
STARTCHAR ch-163
ENCODING 163
SWIDTH 1000 0
DWIDTH 16 0
BBX 16 16 0 -2
BITMAP
0222
7924
4820
4fff
58a8
51ac
5727
4920
49c4
4b7f
4e54
49d4
58bf
4184
4304
4604
ENDCHAR
STARTCHAR ch-167
ENCODING 167
SWIDTH 1000 0
DWIDTH 16 0
BBX 16 16 0 -2
BITMAP
0042
7866
4a24
4bff
5910
5021
5053
4812
4b28
494c
491a
5929
4148
4318
4280
467f
ENDCHAR
STARTCHAR ch-168
ENCODING 168
SWIDTH 1000 0
DWIDTH 16 0
BBX 16 16 0 -2
BITMAP
0010
7aff
4b20
497e
48c8
503f
5000
4b3e
4922
493e
4922
493e
5922
4326
4680
4c7f
ENDCHAR
STARTCHAR ch-170
ENCODING 170
SWIDTH 1000 0
DWIDTH 16 0
BBX 16 16 0 -2
BITMAP
0020
7c70
44d8
4d8c
4b07
58f8
5000
53de
4a52
4a52
4bde
4800
5904
4104
438e
46db
ENDCHAR
STARTCHAR ch-176
ENCODING 176
SWIDTH 1000 0
DWIDTH 16 0
BBX 16 16 0 -2
BITMAP
0000
7dfe
4502
4dfe
4902
59fe
5084
5108
494a
4884
4929
4bef
5800
4152
435b
4249
ENDCHAR
STARTCHAR ch-177
ENCODING 177
SWIDTH 1000 0
DWIDTH 16 0
BBX 16 16 0 -2
BITMAP
000e
7bf8
4a42
4924
5bfe
5020
57ff
4800
49fc
4804
49fc
5804
41fc
42a2
4295
447c
ENDCHAR
STARTCHAR ch-178
ENCODING 178
SWIDTH 1000 0
DWIDTH 16 0
BBX 16 16 0 -2
BITMAP
0020
7ca4
45a6
4f23
4868
5830
50ff
5390
48fe
4890
48fe
4890
58ff
4201
42a9
44ab
ENDCHAR
STARTCHAR ch-180
ENCODING 180
SWIDTH 1000 0
DWIDTH 16 0
BBX 16 16 0 -2
BITMAP
0088
7888
4fff
4a28
594f
57f1
500f
4be8
4a2f
4be8
4a2f
5be8
422f
4228
4229
4267
ENDCHAR
STARTCHAR ch-182
ENCODING 182
SWIDTH 1000 0
DWIDTH 16 0
BBX 16 16 0 -2
BITMAP
0100
0100
3ffc
0104
ffff
0104
0104
3ffc
0100
6106
310c
0198
0d60
3938
e10f
0700
ENDCHAR
STARTCHAR ch-183
ENCODING 183
SWIDTH 1000 0
DWIDTH 16 0
BBX 16 16 0 -2
BITMAP
1010
1010
fefe
1012
7dff
0012
7cfe
0010
fe92
10d6
5454
5618
d234
9056
1193
3030
ENDCHAR
STARTCHAR ch-184
ENCODING 184
SWIDTH 1000 0
DWIDTH 16 0
BBX 16 16 0 -2
BITMAP
1010
1010
fefe
1012
39ff
5412
92fe
0010
7c92
00d6
fe54
1018
5434
5456
9593
3030
ENDCHAR
STARTCHAR ch-185
ENCODING 185
SWIDTH 1000 0
DWIDTH 16 0
BBX 16 16 0 -2
BITMAP
0420
0c60
0840
1ffe
3080
7080
dffc
1080
1080
1080
1ffc
1080
1080
1080
1fff
0000
ENDCHAR
STARTCHAR ch-187
ENCODING 187
SWIDTH 1000 0
DWIDTH 16 0
BBX 16 16 0 -2
BITMAP
0820
1040
3ffe
6080
bffc
2080
3ffc
2080
3fff
0000
7ffc
0808
0630
01c0
0f78
f80f
ENDCHAR
STARTCHAR ch-188
ENCODING 188
SWIDTH 1000 0
DWIDTH 16 0
BBX 16 16 0 -2
BITMAP
0840
18c0
1080
3ffe
6080
bffc
2080
3ffc
2080
3ffe
0100
0100
ffff
0100
0100
0100
ENDCHAR
STARTCHAR ch-192
ENCODING 192
SWIDTH 1000 0
DWIDTH 16 0
BBX 16 16 0 -2
BITMAP
0100
1118
110c
3126
6162
c7c0
0190
0620
1ffe
f040
1ffc
1040
1ffc
1040
1040
1fff
ENDCHAR
STARTCHAR ch-193
ENCODING 193
SWIDTH 1000 0
DWIDTH 16 0
BBX 16 16 0 -2
BITMAP
0000
3fff
2000
2244
2248
24ff
2590
2e90
34fe
2490
2490
24fe
6490
4490
c4ff
0400
ENDCHAR
STARTCHAR ch-196
ENCODING 196
SWIDTH 1000 0
DWIDTH 16 0
BBX 16 16 0 -2
BITMAP
1022
1026
1024
107f
ff48
10c8
1148
147e
3448
2448
2c48
687e
4a48
ca48
1f48
317f
ENDCHAR
STARTCHAR ch-197
ENCODING 197
SWIDTH 1000 0
DWIDTH 16 0
BBX 16 16 0 -2
BITMAP
0022
7e26
2424
247f
24c8
2548
2448
ff7e
1448
1448
1448
347e
2448
6448
c448
1c7f
ENDCHAR
STARTCHAR ch-198
ENCODING 198
SWIDTH 1000 0
DWIDTH 16 0
BBX 16 16 0 -2
BITMAP
0840
1080
3ffe
e080
3ffc
2080
3ffc
2080
3ffe
0100
ffff
0520
0d30
391c
e107
0100
ENDCHAR
STARTCHAR ch-199
ENCODING 199
SWIDTH 1000 0
DWIDTH 16 0
BBX 16 16 0 -2
BITMAP
0000
ffff
0000
3ffe
2002
3ffe
2110
2220
27fe
2c20
37fc
2420
67fc
4420
c420
07ff
ENDCHAR
STARTCHAR ch-201
ENCODING 201
SWIDTH 1000 0
DWIDTH 16 0
BBX 16 16 0 -2
BITMAP
2022
2066
7c44
50ff
d188
1288
1088
fefe
1088
1088
3888
28fe
6c88
4488
c088
00ff
ENDCHAR
STARTCHAR ch-203
ENCODING 203
SWIDTH 1000 0
DWIDTH 16 0
BBX 16 16 0 -2
BITMAP
0820
1040
3ffe
6080
bffc
2080
3ffc
2080
3fff
0000
7c3e
4422
4422
47e2
4002
400e
ENDCHAR
STARTCHAR ch-204
ENCODING 204
SWIDTH 1000 0
DWIDTH 16 0
BBX 16 16 0 -2
BITMAP
1424
146c
1448
54ff
5548
5448
5d48
567e
5448
5448
5448
547e
5448
5c48
7548
c37f
ENDCHAR
STARTCHAR ch-205
ENCODING 205
SWIDTH 1000 0
DWIDTH 16 0
BBX 16 16 0 -2
BITMAP
0100
0100
ffff
1000
3024
6448
ccff
7988
1288
20fe
4488
fc88
08fe
1888
3088
e0ff
ENDCHAR
STARTCHAR ch-206
ENCODING 206
SWIDTH 1000 0
DWIDTH 16 0
BBX 16 16 0 -2
BITMAP
0022
7866
4844
48ff
7988
4a88
4888
48fe
7888
4888
4888
48fe
4c88
7888
c088
00ff
ENDCHAR
STARTCHAR ch-209
ENCODING 209
SWIDTH 1000 0
DWIDTH 16 0
BBX 16 16 0 -2
BITMAP
2024
202c
fc28
247f
2548
6748
c0c8
117e
1048
fe48
1048
387e
3448
5248
9048
107f
ENDCHAR
STARTCHAR ch-213
ENCODING 213
SWIDTH 1000 0
DWIDTH 16 0
BBX 16 16 0 -2
BITMAP
0022
7f26
4124
497f
5d48
49c8
4948
5d7e
4148
5d48
5548
557e
5548
5d48
c148
837f
ENDCHAR
STARTCHAR ch-214
ENCODING 214
SWIDTH 1000 0
DWIDTH 16 0
BBX 16 16 0 -2
BITMAP
0024
fe24
8248
827f
fec8
1148
1048
fe7e
9248
9248
fe48
107e
1448
1448
3e48
e27f
ENDCHAR
STARTCHAR ch-217
ENCODING 217
SWIDTH 1000 0
DWIDTH 16 0
BBX 16 16 0 -2
BITMAP
1224
2428
7f7f
a4c8
3f7e
2448
3f7e
2448
3f7f
0000
7ffc
0818
0670
03c0
1e78
f00f
ENDCHAR
STARTCHAR ch-219
ENCODING 219
SWIDTH 1000 0
DWIDTH 16 0
BBX 16 16 0 -2
BITMAP
2024
7f2c
9128
557f
5548
7dc8
2348
467e
2048
7f48
9148
557e
5548
7d48
2348
467f
ENDCHAR
STARTCHAR ch-220
ENCODING 220
SWIDTH 1000 0
DWIDTH 16 0
BBX 16 16 0 -2
BITMAP
1022
1066
fe44
00ff
4588
4488
aa88
00fe
1088
fe88
1088
38fe
3488
5288
9088
10ff
ENDCHAR
STARTCHAR ch-226
ENCODING 226
SWIDTH 1000 0
DWIDTH 16 0
BBX 16 16 0 -2
BITMAP
1024
106c
fe48
00ff
aac8
9348
aa48
fe7e
1048
fe48
a248
aa7e
f648
8248
8248
867f
ENDCHAR
STARTCHAR ch-227
ENCODING 227
SWIDTH 1000 0
DWIDTH 16 0
BBX 16 16 0 -2
BITMAP
2224
ffac
2228
007f
7f48
49c8
4948
7f7e
0848
7f48
0848
fffe
1448
3648
6348
c07f
ENDCHAR
STARTCHAR ch-232
ENCODING 232
SWIDTH 1000 0
DWIDTH 16 0
BBX 16 16 0 -2
BITMAP
0000
ffff
0100
0100
7ffe
4102
5962
4d32
4512
4102
5962
4d32
4512
4102
4102
400e
ENDCHAR
STARTCHAR ch-234
ENCODING 234
SWIDTH 1000 0
DWIDTH 16 0
BBX 16 16 0 -2
BITMAP
0000
7ffe
0100
ffff
8101
bd7d
8101
3d7c
0000
3ffc
0004
0004
3ffc
0004
0004
3ffc
ENDCHAR
STARTCHAR ch-235
ENCODING 235
SWIDTH 1000 0
DWIDTH 16 0
BBX 16 16 0 -2
BITMAP
0000
7ffe
0100
ffff
8101
bd7d
8101
3d7c
0000
ffff
0100
01e0
0138
010e
0100
0100
ENDCHAR
STARTCHAR ch-240
ENCODING 240
SWIDTH 1000 0
DWIDTH 16 0
BBX 16 16 0 -2
BITMAP
0000
3ffc
0100
7ffe
4102
5d7a
4102
5d7a
0100
0420
0810
3ffc
e20b
0608
1c08
7038
ENDCHAR
STARTCHAR ch-242
ENCODING 242
SWIDTH 1000 0
DWIDTH 16 0
BBX 16 16 0 -2
BITMAP
0000
3ffc
0100
7ffe
4102
5d3a
4102
1d38
0000
3ffc
0000
ffff
0808
1808
10fc
3f86
ENDCHAR
STARTCHAR ch-246
ENCODING 246
SWIDTH 1000 0
DWIDTH 16 0
BBX 16 16 0 -2
BITMAP
3ffc
0100
7ffe
4102
5d7a
4102
1d78
0380
0ee0
3838
e7ef
0000
3ffc
0104
011c
0100
ENDCHAR
STARTCHAR ch-247
ENCODING 247
SWIDTH 1000 0
DWIDTH 16 0
BBX 16 16 0 -2
BITMAP
0000
3ffc
0100
7ffe
4102
5d7a
4102
1d78
0000
3ffc
2104
2104
3ffc
2104
2104
3ffc
ENDCHAR
STARTCHAR ch-249
ENCODING 249
SWIDTH 1000 0
DWIDTH 16 0
BBX 16 16 0 -2
BITMAP
3ffc
0100
7ffe
4102
5d7a
4102
1d78
0800
0ffc
1004
3fc4
c044
1fdc
1001
1803
0ffe
ENDCHAR
STARTCHAR ch-251
ENCODING 251
SWIDTH 1000 0
DWIDTH 16 0
BBX 16 16 0 -2
BITMAP
0000
7ffe
0100
ffff
8101
bd7d
8101
3d7c
0000
3ffc
2104
3ffc
2104
3ffd
0103
00fe
ENDCHAR
STARTCHAR ch-256
ENCODING 256
SWIDTH 1000 0
DWIDTH 16 0
BBX 16 16 0 -2
BITMAP
0000
7ffe
0100
7ffe
4102
5d7a
4102
1d78
0000
ffff
0200
7ffe
4442
4442
4442
444e
ENDCHAR
STARTCHAR ch-260
ENCODING 260
SWIDTH 1000 0
DWIDTH 16 0
BBX 16 16 0 -2
BITMAP
3ffc
0100
ffff
8101
bd7d
8101
3c7c
4102
2104
3ffc
2004
3ffc
2004
3ffc
2004
201c
ENDCHAR
STARTCHAR ch-262
ENCODING 262
SWIDTH 1000 0
DWIDTH 16 0
BBX 16 16 0 -2
BITMAP
3ffc
0100
7ffe
4102
5d7a
4102
1d78
0000
781c
11f0
7820
0bfe
5820
31fc
6c00
c3ff
ENDCHAR
STARTCHAR ch-263
ENCODING 263
SWIDTH 1000 0
DWIDTH 16 0
BBX 16 16 0 -2
BITMAP
3ffc
0100
7ffe
4102
5d7a
4102
1d78
0000
7ffe
4000
5ffc
4000
7fff
c844
8f38
380f
ENDCHAR
STARTCHAR ch-264
ENCODING 264
SWIDTH 1000 0
DWIDTH 16 0
BBX 16 16 0 -2
BITMAP
3ffc
0100
7ffe
4102
5d7a
4102
1d78
0000
3020
1bff
6020
31fe
0922
1922
3126
6020
ENDCHAR
STARTCHAR ch-266
ENCODING 266
SWIDTH 1000 0
DWIDTH 16 0
BBX 16 16 0 -2
BITMAP
3ffc
0100
7ffe
4102
5d7a
4102
1d78
0000
3ffc
0000
7ffe
0240
1248
0a50
ffff
0000
ENDCHAR
STARTCHAR ch-269
ENCODING 269
SWIDTH 1000 0
DWIDTH 16 0
BBX 16 16 0 -2
BITMAP
3ffc
0100
7ffe
4102
5d7a
4102
1d78
0000
0840
1ffe
3080
dffc
1080
1ffc
1080
1fff
ENDCHAR
STARTCHAR ch-270
ENCODING 270
SWIDTH 1000 0
DWIDTH 16 0
BBX 16 16 0 -2
BITMAP
3ffc
0100
7ffe
4102
5d7a
4102
1c78
0100
3ffc
0420
ffff
0200
7ffe
0820
07c0
3c3c
ENDCHAR
STARTCHAR ch-271
ENCODING 271
SWIDTH 1000 0
DWIDTH 16 0
BBX 16 16 0 -2
BITMAP
3ffc
0100
7ffe
4102
5d7a
4102
1d78
0000
0440
7c7e
0440
7c7e
0440
fc7f
0840
3040
ENDCHAR
STARTCHAR ch-273
ENCODING 273
SWIDTH 1000 0
DWIDTH 16 0
BBX 16 16 0 -2
BITMAP
3ffc
0100
7ffe
4102
5d7a
4102
1d78
0000
3020
183f
6020
31fe
0902
1902
3102
61fe
ENDCHAR
STARTCHAR ch-275
ENCODING 275
SWIDTH 1000 0
DWIDTH 16 0
BBX 16 16 0 -2
BITMAP
3ffc
0100
7ffe
4102
5d7a
4102
1d78
0000
1e78
1008
1e78
1008
1ff8
0441
1c63
f03e
ENDCHAR
STARTCHAR ch-278
ENCODING 278
SWIDTH 1000 0
DWIDTH 16 0
BBX 16 16 0 -2
BITMAP
3ffc
0100
7ffe
4102
5d7a
4102
1d78
0000
0810
feff
0810
1e38
2b54
68d6
c993
0810
ENDCHAR
STARTCHAR ch-281
ENCODING 281
SWIDTH 1000 0
DWIDTH 16 0
BBX 16 16 0 -2
BITMAP
3ffc
0100
7ffe
4102
5d7a
4102
1d78
0820
7ffe
0820
0100
1ff8
1108
ffff
0420
781e
ENDCHAR
STARTCHAR ch-284
ENCODING 284
SWIDTH 1000 0
DWIDTH 16 0
BBX 16 16 0 -2
BITMAP
0000
7ffe
0100
ffff
8101
bd7d
8101
3d7c
0100
087e
ff42
287e
2e42
6b7e
c842
087e
ENDCHAR
STARTCHAR ch-286
ENCODING 286
SWIDTH 1000 0
DWIDTH 16 0
BBX 16 16 0 -2
BITMAP
7ffe
0100
ffff
8101
bd3d
0100
3d3c
0000
7efe
4202
7efe
4000
7cfe
4044
7c38
41c7
ENDCHAR
STARTCHAR ch-292
ENCODING 292
SWIDTH 1000 0
DWIDTH 16 0
BBX 16 16 0 -2
BITMAP
3ffc
0100
7ffe
4102
5d7a
4102
1d78
0000
3cfc
2024
2244
7ffc
1108
1ff8
1108
1ff8
ENDCHAR
STARTCHAR ch-295
ENCODING 295
SWIDTH 1000 0
DWIDTH 16 0
BBX 16 16 0 -2
BITMAP
7ffe
0100
ffff
8101
bd7d
0100
3d7c
0040
7e7f
04a4
2818
fee7
1a10
28fe
c822
18ce
ENDCHAR
STARTCHAR ch-298
ENCODING 298
SWIDTH 1000 0
DWIDTH 16 0
BBX 16 16 0 -2
BITMAP
3ffc
0100
7ffe
4102
5d7a
4102
1d78
0006
33fc
1922
6094
31fe
0820
1bff
3020
61fe
ENDCHAR
STARTCHAR ch-304
ENCODING 304
SWIDTH 1000 0
DWIDTH 16 0
BBX 16 16 0 -2
BITMAP
3ffc
0100
7ffe
4102
5d7a
0100
2220
7f3f
2264
ff94
2214
3e1c
2208
3e1c
2236
2663
ENDCHAR
STARTCHAR ch-306
ENCODING 306
SWIDTH 1000 0
DWIDTH 16 0
BBX 16 16 0 -2
BITMAP
7ffe
0100
ffff
8101
bd7d
8101
3d7c
0020
7c7c
45c4
7c38
106c
5d83
50fe
5c82
f0fe
ENDCHAR
STARTCHAR ch-312
ENCODING 312
SWIDTH 1000 0
DWIDTH 16 0
BBX 16 16 0 -2
BITMAP
7ffe
0100
ffff
8101
bd7d
0100
3d7c
2200
ffbe
2222
7f3e
4922
7f3e
0822
ffa2
084e
ENDCHAR
STARTCHAR ch-313
ENCODING 313
SWIDTH 1000 0
DWIDTH 16 0
BBX 16 16 0 -2
BITMAP
3ffc
0100
7ffe
4102
5d7a
4102
1d78
0010
3efe
2244
3e28
21ff
7e10
52fe
d210
1e10
ENDCHAR
STARTCHAR ch-317
ENCODING 317
SWIDTH 1000 0
DWIDTH 16 0
BBX 16 16 0 -2
BITMAP
3ffc
0100
7ffe
4102
5c7a
0100
ffff
0280
7d3f
2524
cd33
1008
1ff8
1008
1ff8
2008
ENDCHAR
STARTCHAR ch-318
ENCODING 318
SWIDTH 1000 0
DWIDTH 16 0
BBX 16 16 0 -2
BITMAP
3ffc
0100
7ffe
4102
5d7a
4102
1d78
2000
69fc
d124
21fc
d124
2924
dbfe
2820
d3ff
ENDCHAR
STARTCHAR ch-322
ENCODING 322
SWIDTH 1000 0
DWIDTH 16 0
BBX 16 16 0 -2
BITMAP
3ffc
0100
7ffe
4102
5d7a
0000
3ffe
2210
3ffe
2a34
2b54
3292
6440
447e
c440
1fff
ENDCHAR
STARTCHAR ch-324
ENCODING 324
SWIDTH 1000 0
DWIDTH 16 0
BBX 16 16 0 -2
BITMAP
3ffc
0100
7ffe
4102
5d7a
0100
7c7c
0044
fe7c
0044
7cff
0181
7ce1
4489
44fb
7c06
ENDCHAR
STARTCHAR ch-326
ENCODING 326
SWIDTH 1000 0
DWIDTH 16 0
BBX 16 16 0 -2
BITMAP
0008
fe08
113e
fe8a
92bf
da0a
923e
4988
00a9
7c9a
008c
feaa
20c9
6898
4d40
f53f
ENDCHAR
STARTCHAR ch-328
ENCODING 328
SWIDTH 1000 0
DWIDTH 16 0
BBX 16 16 0 -2
BITMAP
3ffc
0100
7ffe
4102
5d7a
4102
1d78
0000
7bde
4a52
7bde
0000
7ffe
1110
2928
ffff
ENDCHAR
STARTCHAR ch-329
ENCODING 329
SWIDTH 1000 0
DWIDTH 16 0
BBX 16 16 0 -2
BITMAP
0006
fe7c
1091
fe4a
92ff
da91
922a
48a5
011c
7c20
003e
fe62
20b6
681c
4c36
f4e3
ENDCHAR
STARTCHAR ch-338
ENCODING 338
SWIDTH 1000 0
DWIDTH 16 0
BBX 16 16 0 -2
BITMAP
0100
0100
7ffe
0100
3ffc
0100
ffff
0000
1ff8
1008
1ff8
1008
1ff8
1008
1008
1038
ENDCHAR
STARTCHAR ch-342
ENCODING 342
SWIDTH 1000 0
DWIDTH 16 0
BBX 16 16 0 -2
BITMAP
1010
1010
11ff
fe10
00fe
4410
45ff
6400
2cfe
2882
08fe
3e82
e0fe
0082
0082
008e
ENDCHAR
STARTCHAR ch-345
ENCODING 345
SWIDTH 1000 0
DWIDTH 16 0
BBX 16 16 0 -2
BITMAP
1020
103c
fe44
1088
7c7e
1012
fe12
00ff
7c12
4412
7c7e
4410
7c10
4410
4410
4c70
ENDCHAR
STARTCHAR ch-348
ENCODING 348
SWIDTH 1000 0
DWIDTH 16 0
BBX 16 16 0 -2
BITMAP
100e
11f8
fe22
1096
7c44
10fe
fe12
0012
7dff
4412
7c12
44fe
7c10
4410
4410
4c70
ENDCHAR
STARTCHAR ch-350
ENCODING 350
SWIDTH 1000 0
DWIDTH 16 0
BBX 16 16 0 -2
BITMAP
0420
0420
0420
fc3f
0420
0420
0420
7c3e
0420
0420
3c20
e43f
0c20
1820
3020
e020
ENDCHAR
STARTCHAR ch-352
ENCODING 352
SWIDTH 1000 0
DWIDTH 16 0
BBX 16 16 0 -2
BITMAP
1100
3ffc
2100
ffff
0000
1ff8
1008
1ff8
0440
7c7e
0440
7c7e
0440
fc7f
0840
3040
ENDCHAR
STARTCHAR ch-353
ENCODING 353
SWIDTH 1000 0
DWIDTH 16 0
BBX 16 16 0 -2
BITMAP
0080
7fff
4208
5fbf
460c
4b1a
52a9
4208
4120
5f3e
4120
5f3e
c120
bf3f
8220
0c20
ENDCHAR
STARTCHAR ch-354
ENCODING 354
SWIDTH 1000 0
DWIDTH 16 0
BBX 16 16 0 -2
BITMAP
0000
ffff
0100
0200
7ffe
4422
4422
47e2
4422
4422
47e2
4422
4422
4422
7ffe
0000
ENDCHAR
STARTCHAR ch-356
ENCODING 356
SWIDTH 1000 0
DWIDTH 16 0
BBX 16 16 0 -2
BITMAP
0040
fe40
107e
20c2
fe82
aaf2
ab92
ba12
aa12
aa76
ba44
aa4c
aa40
aa41
fe63
003e
ENDCHAR
STARTCHAR ch-358
ENCODING 358
SWIDTH 1000 0
DWIDTH 16 0
BBX 16 16 0 -2
BITMAP
0000
ffbe
0822
1022
7f3e
5522
5522
5d3e
5522
5522
5d3e
5514
5514
5535
7f25
0063
ENDCHAR
STARTCHAR ch-360
ENCODING 360
SWIDTH 1000 0
DWIDTH 16 0
BBX 16 16 0 -2
BITMAP
7fff
5114
5f12
517f
5f28
516c
dfc6
9103
0000
ffff
0100
3ffc
2424
27e4
2424
3ffc
ENDCHAR
STARTCHAR ch-361
ENCODING 361
SWIDTH 1000 0
DWIDTH 16 0
BBX 16 16 0 -2
BITMAP
0820
0820
ffff
0820
0820
0fe0
0100
3ff8
2108
2108
3ff8
0100
ffff
0100
0100
0100
ENDCHAR
STARTCHAR ch-363
ENCODING 363
SWIDTH 1000 0
DWIDTH 16 0
BBX 16 16 0 -2
BITMAP
2200
227f
ffa1
2231
222b
3e22
0832
7f16
4914
491c
7f08
081c
ff94
0836
0822
0863
ENDCHAR
STARTCHAR ch-365
ENCODING 365
SWIDTH 1000 0
DWIDTH 16 0
BBX 16 16 0 -2
BITMAP
4400
44fe
fe22
4422
4422
7ca2
1062
fe22
9232
922a
fe2a
1062
fe42
10c6
1184
131c
ENDCHAR
STARTCHAR ch-369
ENCODING 369
SWIDTH 1000 0
DWIDTH 16 0
BBX 16 16 0 -2
BITMAP
4400
44fe
fe12
4412
4412
7c12
1052
fe32
9212
921a
fe36
1023
fe22
1066
10c4
119c
ENDCHAR
STARTCHAR ch-372
ENCODING 372
SWIDTH 1000 0
DWIDTH 16 0
BBX 16 16 0 -2
BITMAP
2228
2228
ffa8
2268
2249
3e4b
08ce
7f48
4948
4948
7f48
0848
ffc8
0849
0849
0847
ENDCHAR
STARTCHAR ch-377
ENCODING 377
SWIDTH 1000 0
DWIDTH 16 0
BBX 16 16 0 -2
BITMAP
4410
4410
fe10
44fe
4492
7c92
1092
feba
92aa
92aa
fec6
1082
fe82
1082
1082
1086
ENDCHAR
STARTCHAR ch-378
ENCODING 378
SWIDTH 1000 0
DWIDTH 16 0
BBX 16 16 0 -2
BITMAP
4410
4410
fe10
45ff
4410
7c10
1010
fefe
9254
9254
fe54
10d6
fe92
1193
1010
1010
ENDCHAR
STARTCHAR ch-380
ENCODING 380
SWIDTH 1000 0
DWIDTH 16 0
BBX 16 16 0 -2
BITMAP
4400
447c
fe44
4444
4444
7c44
107c
fe44
9244
9244
fe44
107c
fe00
1000
11ff
1000
ENDCHAR
STARTCHAR ch-385
ENCODING 385
SWIDTH 1000 0
DWIDTH 16 0
BBX 16 16 0 -2
BITMAP
4810
4810
fc10
49ff
4911
7912
2110
fdfe
a542
a546
fd64
212c
fd18
2134
2266
20c3
ENDCHAR
STARTCHAR ch-388
ENCODING 388
SWIDTH 1000 0
DWIDTH 16 0
BBX 16 16 0 -2
BITMAP
4440
4440
fe40
44fe
4482
7df2
1012
fe12
92f2
9286
fe84
109c
fe80
1081
10c3
107e
ENDCHAR
STARTCHAR ch-389
ENCODING 389
SWIDTH 1000 0
DWIDTH 16 0
BBX 16 16 0 -2
BITMAP
4410
4410
fe10
44fe
4492
7c92
1092
fe92
93ff
9228
fe28
1028
fe6c
1044
10c6
1183
ENDCHAR
STARTCHAR ch-390
ENCODING 390
SWIDTH 1000 0
DWIDTH 16 0
BBX 16 16 0 -2
BITMAP
4400
45ff
fe10
4410
44fe
7c92
1092
fe92
92ba
92aa
feaa
10c6
fe82
1082
1082
1086
ENDCHAR
STARTCHAR ch-395
ENCODING 395
SWIDTH 1000 0
DWIDTH 16 0
BBX 16 16 0 -2
BITMAP
4410
4410
fefe
4410
4410
7c10
11ff
fe00
9210
9210
fefe
1010
fe10
1010
11ff
1000
ENDCHAR
STARTCHAR ch-397
ENCODING 397
SWIDTH 1000 0
DWIDTH 16 0
BBX 16 16 0 -2
BITMAP
4410
4410
fefe
4482
44a2
7c20
1020
feff
9224
9264
fe4c
10e8
fe38
102c
1066
10c2
ENDCHAR
STARTCHAR ch-399
ENCODING 399
SWIDTH 1000 0
DWIDTH 16 0
BBX 16 16 0 -2
BITMAP
00f8
fc88
10c8
1ca9
f107
0420
7ffe
0420
07e0
0100
1ff8
1108
1ff8
0100
ffff
0100
ENDCHAR
STARTCHAR ch-400
ENCODING 400
SWIDTH 1000 0
DWIDTH 16 0
BBX 16 16 0 -2
BITMAP
4410
4410
fe10
441e
4410
7c10
10ff
fe00
9200
92ff
fe10
101c
fe16
1010
1010
1010
ENDCHAR
STARTCHAR ch-408
ENCODING 408
SWIDTH 1000 0
DWIDTH 16 0
BBX 16 16 0 -2
BITMAP
4410
4492
fed6
4454
4410
7cfe
1082
fe82
92fe
9282
fe82
10fe
fe82
1082
1082
108e
ENDCHAR
STARTCHAR ch-412
ENCODING 412
SWIDTH 1000 0
DWIDTH 16 0
BBX 16 16 0 -2
BITMAP
4410
4412
fed6
4458
4454
7cd6
1193
fe30
9200
92fe
fe82
1082
fefe
1082
1082
10fe
ENDCHAR
STARTCHAR ch-416
ENCODING 416
SWIDTH 1000 0
DWIDTH 16 0
BBX 16 16 0 -2
BITMAP
2880
2880
feff
2901
2a21
3925
10a9
7dfd
5421
5471
7c69
10a5
fea1
1123
1022
100e
ENDCHAR
STARTCHAR ch-419
ENCODING 419
SWIDTH 1000 0
DWIDTH 16 0
BBX 16 16 0 -2
BITMAP
2800
28fe
fe44
2828
29ff
3852
10d4
7d90
5400
5410
7dff
1054
fe54
10d6
1193
1010
ENDCHAR
STARTCHAR ch-422
ENCODING 422
SWIDTH 1000 0
DWIDTH 16 0
BBX 16 16 0 -2
BITMAP
2864
29c4
fe84
2895
2895
3bf5
1095
7c84
55c4
56a4
7c8e
108a
fe8a
108a
109b
1091
ENDCHAR
STARTCHAR ch-424
ENCODING 424
SWIDTH 1000 0
DWIDTH 16 0
BBX 16 16 0 -2
BITMAP
447c
4444
fe44
447c
4444
7c44
107c
fe20
927f
92c1
fe59
1071
fe41
104b
103a
1006
ENDCHAR
STARTCHAR ch-427
ENCODING 427
SWIDTH 1000 0
DWIDTH 16 0
BBX 16 16 0 -2
BITMAP
2900
29ff
ff01
2af9
2801
39fd
1001
7cf9
5401
54f9
7c01
10f9
fe89
108b
10fa
1006
ENDCHAR
STARTCHAR ch-429
ENCODING 429
SWIDTH 1000 0
DWIDTH 16 0
BBX 16 16 0 -2
BITMAP
4880
48ff
fd88
497f
4b49
7949
217f
fd49
a549
a57f
fd08
2128
fd28
211c
2136
2163
ENDCHAR
STARTCHAR ch-435
ENCODING 435
SWIDTH 1000 0
DWIDTH 16 0
BBX 16 16 0 -2
BITMAP
2844
2844
fdff
2844
2810
3838
106c
7dc7
5400
547c
7c00
10fe
fe82
1082
1082
10fe
ENDCHAR
STARTCHAR ch-436
ENCODING 436
SWIDTH 1000 0
DWIDTH 16 0
BBX 16 16 0 -2
BITMAP
2848
2848
fdff
2848
2848
39ff
1100
7d7e
5552
557e
7d52
1152
ff7e
1152
1252
1056
ENDCHAR
STARTCHAR ch-451
ENCODING 451
SWIDTH 1000 0
DWIDTH 16 0
BBX 16 16 0 -2
BITMAP
5010
5410
fefe
5210
51ff
7082
2044
f8fe
ae10
aafe
fa10
23ff
fa10
2210
2700
24ff
ENDCHAR
STARTCHAR ch-454
ENCODING 454
SWIDTH 1000 0
DWIDTH 16 0
BBX 16 16 0 -2
BITMAP
5000
55ff
fe28
52fe
50aa
70fe
2020
f9ff
ae44
aafe
fb8b
2278
fa42
227e
2700
24ff
ENDCHAR
STARTCHAR ch-456
ENCODING 456
SWIDTH 1000 0
DWIDTH 16 0
BBX 16 16 0 -2
BITMAP
2844
2844
fdff
2844
28fe
38aa
10fe
7c04
540a
54ff
7c88
108a
feee
1085
119f
1132
ENDCHAR
STARTCHAR ch-459
ENCODING 459
SWIDTH 1000 0
DWIDTH 16 0
BBX 16 16 0 -2
BITMAP
0200
1ff8
0408
0408
ffff
0000
1ff8
1008
1ff8
0020
3ffe
0820
0820
ffff
0020
0020
ENDCHAR
STARTCHAR ch-467
ENCODING 467
SWIDTH 1000 0
DWIDTH 16 0
BBX 16 16 0 -2
BITMAP
1010
10fc
fe24
1024
7dff
4400
44fe
7c82
44fe
4408
7cfe
1048
fe48
11ff
1008
1008
ENDCHAR
STARTCHAR ch-476
ENCODING 476
SWIDTH 1000 0
DWIDTH 16 0
BBX 16 16 0 -2
BITMAP
1003
7e0e
2278
2211
ff5b
006a
7e20
4218
7e77
0441
7f41
2477
2441
ff41
0441
047f
ENDCHAR
STARTCHAR ch-493
ENCODING 493
SWIDTH 1000 0
DWIDTH 16 0
BBX 16 16 0 -2
BITMAP
0420
0420
7c3e
0420
0420
0420
3c3c
0420
0420
0420
3c3c
0420
0420
0420
ffff
0000
ENDCHAR
STARTCHAR ch-494
ENCODING 494
SWIDTH 1000 0
DWIDTH 16 0
BBX 16 16 0 -2
BITMAP
0420
0420
ffff
0420
0000
0420
7c3e
0420
0420
7c3e
0420
0420
7c3e
0420
0420
ffff
ENDCHAR
STARTCHAR ch-498
ENCODING 498
SWIDTH 1000 0
DWIDTH 16 0
BBX 16 16 0 -2
BITMAP
0100
ffff
0440
7abe
2924
6926
d833
0240
7e7e
0240
3e7c
0240
3e7c
0240
ffff
0000
ENDCHAR
STARTCHAR ch-499
ENCODING 499
SWIDTH 1000 0
DWIDTH 16 0
BBX 16 16 0 -2
BITMAP
0100
0100
7ffe
0810
0c30
0420
ffff
0000
1ff8
1008
1008
1ff8
1008
1008
1008
1ff8
ENDCHAR
STARTCHAR ch-501
ENCODING 501
SWIDTH 1000 0
DWIDTH 16 0
BBX 16 16 0 -2
BITMAP
1020
1020
ff20
427f
6641
24c1
ff39
0001
7e01
4219
4231
7e61
4203
4202
7e06
001c
ENDCHAR
STARTCHAR ch-502
ENCODING 502
SWIDTH 1000 0
DWIDTH 16 0
BBX 16 16 0 -2
BITMAP
1000
10fe
fe22
4422
6c62
2846
fec4
019c
7c00
44fe
4482
7c82
4482
4482
7c82
00fe
ENDCHAR
STARTCHAR ch-507
ENCODING 507
SWIDTH 1000 0
DWIDTH 16 0
BBX 16 16 0 -2
BITMAP
1000
10fe
fe82
4482
6cfe
2800
fefe
0082
7cfe
4482
44fe
7c82
44fe
4444
7cc6
0183
ENDCHAR
STARTCHAR ch-511
ENCODING 511
SWIDTH 1000 0
DWIDTH 16 0
BBX 16 16 0 -2
BITMAP
23ef
ca29
53ea
222a
fbe9
1249
23eb
c628
0100
7ffe
0420
ffff
1008
1ff8
1008
1ff8
ENDCHAR
ENDFONT
