STARTFONT 2.1
FONT jis.jis7800.16
SIZE 16 72 72
FONTBOUNDINGBOX 16 16 0 -2
STARTPROPERTIES 4
FONT_DESCENT 2
FONT_ASCENT 14
DEFAULT_CHAR 2
COPYRIGHT "Copyright (c) 1992 AT&T - All rights reserved."
ENDPROPERTIES
CHARS 129
STARTCHAR ch-2
ENCODING 2
SWIDTH 1000 0
DWIDTH 16 0
BBX 16 16 0 -2
BITMAP
0020
fe20
1020
10a8
10ac
11a6
3d23
2720
6422
a422
24e6
2404
240c
3c18
0070
01c0
ENDCHAR
STARTCHAR ch-12
ENCODING 12
SWIDTH 1000 0
DWIDTH 16 0
BBX 16 16 0 -2
BITMAP
0100
fd3f
2109
2109
21c9
2709
7909
4909
c909
4909
4959
4951
48d1
7833
0062
00ce
ENDCHAR
STARTCHAR ch-18
ENCODING 18
SWIDTH 1000 0
DWIDTH 16 0
BBX 16 16 0 -2
BITMAP
0110
fd10
2110
2110
2112
2116
79dc
4910
c910
4910
4910
4910
4910
7911
01d3
070e
ENDCHAR
STARTCHAR ch-20
ENCODING 20
SWIDTH 1000 0
DWIDTH 16 0
BBX 16 16 0 -2
BITMAP
0000
fdff
1044
1044
1044
3044
2044
3dff
6444
6444
a444
2444
24c4
3c84
0184
0304
ENDCHAR
STARTCHAR ch-21
ENCODING 21
SWIDTH 1000 0
DWIDTH 16 0
BBX 16 16 0 -2
BITMAP
0040
fc40
23f8
2048
20c8
2089
7989
4b07
c820
4820
4bfe
4820
4820
7820
0020
0020
ENDCHAR
STARTCHAR ch-32
ENCODING 32
SWIDTH 1000 0
DWIDTH 16 0
BBX 16 16 0 -2
BITMAP
0000
fefc
1084
1084
1084
10fc
3c84
2484
6484
64fc
a484
2484
2484
3c84
03ff
0000
ENDCHAR
STARTCHAR ch-37
ENCODING 37
SWIDTH 1000 0
DWIDTH 16 0
BBX 16 16 0 -2
BITMAP
0006
fc1c
21f0
2110
2110
2110
79ff
4910
c910
4918
4908
49c8
4b0c
7805
03f7
0002
ENDCHAR
STARTCHAR ch-38
ENCODING 38
SWIDTH 1000 0
DWIDTH 16 0
BBX 16 16 0 -2
BITMAP
0840
4840
4846
4f7c
4840
4841
4f63
783e
c000
0000
ffff
0400
0ffc
3804
e804
0ffc
ENDCHAR
STARTCHAR ch-39
ENCODING 39
SWIDTH 1000 0
DWIDTH 16 0
BBX 16 16 0 -2
BITMAP
0010
fe10
1010
1010
101f
3010
2010
3c10
6410
64fe
a482
2482
2482
2482
3c82
00fe
ENDCHAR
STARTCHAR ch-50
ENCODING 50
SWIDTH 1000 0
DWIDTH 16 0
BBX 16 16 0 -2
BITMAP
0080
fc80
20fe
2082
2082
21f2
7912
4b12
c812
48f2
488e
4880
4880
7881
00c3
007e
ENDCHAR
STARTCHAR ch-52
ENCODING 52
SWIDTH 1000 0
DWIDTH 16 0
BBX 16 16 0 -2
BITMAP
0010
fc10
2010
21ff
2111
2112
7910
49fe
c942
4946
4964
492c
4b18
7a3c
0666
00c3
ENDCHAR
STARTCHAR ch-58
ENCODING 58
SWIDTH 1000 0
DWIDTH 16 0
BBX 16 16 0 -2
BITMAP
0000
fdff
2100
2100
21ff
2120
7920
493e
c922
4922
4922
4922
4b22
7a62
0642
00ce
ENDCHAR
STARTCHAR ch-63
ENCODING 63
SWIDTH 1000 0
DWIDTH 16 0
BBX 16 16 0 -2
BITMAP
0010
fc10
2010
21ff
2100
2100
7910
4910
c910
4930
4920
4924
4966
7b42
025f
06f1
ENDCHAR
STARTCHAR ch-69
ENCODING 69
SWIDTH 1000 0
DWIDTH 16 0
BBX 16 16 0 -2
BITMAP
0020
fc20
21fe
2020
2020
2020
7bff
4800
c820
4820
49fe
4820
4820
7820
03ff
0000
ENDCHAR
STARTCHAR ch-93
ENCODING 93
SWIDTH 1000 0
DWIDTH 16 0
BBX 16 16 0 -2
BITMAP
0020
fd22
21a6
20a4
2020
21fe
7902
4902
c9fe
4902
4902
49fe
4902
7902
0102
010e
ENDCHAR
STARTCHAR ch-107
ENCODING 107
SWIDTH 1000 0
DWIDTH 16 0
BBX 16 16 0 -2
BITMAP
0020
f820
27ff
2080
2084
213e
7be2
4800
c924
4924
4924
4924
4924
7925
0325
0603
ENDCHAR
STARTCHAR ch-108
ENCODING 108
SWIDTH 1000 0
DWIDTH 16 0
BBX 16 16 0 -2
BITMAP
0000
fbff
2020
21fe
2122
7922
49fe
c922
4922
49fe
4820
49a0
78e0
0070
00dc
0387
ENDCHAR
STARTCHAR ch-111
ENCODING 111
SWIDTH 1000 0
DWIDTH 16 0
BBX 16 16 0 -2
BITMAP
0000
fefe
1082
1082
30fe
2082
3c82
64fe
6482
a482
24fe
2448
2448
3cc9
0189
0307
ENDCHAR
STARTCHAR ch-114
ENCODING 114
SWIDTH 1000 0
DWIDTH 16 0
BBX 16 16 0 -2
BITMAP
0044
fe44
10c6
1193
3038
2028
3c6c
64c6
6583
a400
24fe
2482
2482
3c82
0082
00fe
ENDCHAR
STARTCHAR ch-116
ENCODING 116
SWIDTH 1000 0
DWIDTH 16 0
BBX 16 16 0 -2
BITMAP
0088
fc88
23ff
2088
2088
2050
78d0
4893
c996
4b9c
4e90
4890
4890
7891
0093
008e
ENDCHAR
STARTCHAR ch-124
ENCODING 124
SWIDTH 1000 0
DWIDTH 16 0
BBX 16 16 0 -2
BITMAP
0000
fbde
2252
2252
2252
23de
7a52
4a52
ca52
4bde
4a52
4a52
4a52
7a52
02d2
0426
ENDCHAR
STARTCHAR ch-129
ENCODING 129
SWIDTH 1000 0
DWIDTH 16 0
BBX 16 16 0 -2
BITMAP
0810
0810
7ffe
0810
0ff0
0810
0ff0
0810
ffff
0810
1ff8
2404
cffb
1808
6808
0ff8
ENDCHAR
STARTCHAR ch-134
ENCODING 134
SWIDTH 1000 0
DWIDTH 16 0
BBX 16 16 0 -2
BITMAP
0020
6020
33fe
c222
63fc
1284
36cc
6478
cdcf
0000
ffff
0400
0ffc
3804
e804
0ffc
ENDCHAR
STARTCHAR ch-135
ENCODING 135
SWIDTH 1000 0
DWIDTH 16 0
BBX 16 16 0 -2
BITMAP
0010
fc10
21ff
2101
2101
20fe
7810
4810
c890
489e
4890
4890
4890
79d0
0170
031f
ENDCHAR
STARTCHAR ch-140
ENCODING 140
SWIDTH 1000 0
DWIDTH 16 0
BBX 16 16 0 -2
BITMAP
0000
fdfc
2004
21fc
2004
2004
7bff
4820
c922
49a6
48b4
4878
48ac
79a6
0323
00e0
ENDCHAR
STARTCHAR ch-141
ENCODING 141
SWIDTH 1000 0
DWIDTH 16 0
BBX 16 16 0 -2
BITMAP
00fc
fe84
1084
10fc
3084
2084
3cfc
6400
67ff
a404
27ff
2484
2444
3c44
0004
001c
ENDCHAR
STARTCHAR ch-142
ENCODING 142
SWIDTH 1000 0
DWIDTH 16 0
BBX 16 16 0 -2
BITMAP
0020
fc20
23fe
2000
2088
2088
79dc
4b56
c800
4820
4bff
4820
4820
7820
0020
0020
ENDCHAR
STARTCHAR ch-145
ENCODING 145
SWIDTH 1000 0
DWIDTH 16 0
BBX 16 16 0 -2
BITMAP
0020
fc40
23fe
2222
2222
23fe
7a22
4a22
cbfe
4890
4910
4fff
4810
7810
0010
0010
ENDCHAR
STARTCHAR ch-147
ENCODING 147
SWIDTH 1000 0
DWIDTH 16 0
BBX 16 16 0 -2
BITMAP
0024
006c
fe48
10ff
1188
3288
2088
3cfe
6488
a488
2488
24fe
2488
2488
3c88
00ff
ENDCHAR
STARTCHAR ch-149
ENCODING 149
SWIDTH 1000 0
DWIDTH 16 0
BBX 16 16 0 -2
BITMAP
0020
fc20
23fe
2050
20d8
218c
7800
4fff
4804
c9e4
4924
4924
4924
79e4
0004
001c
ENDCHAR
STARTCHAR ch-151
ENCODING 151
SWIDTH 1000 0
DWIDTH 16 0
BBX 16 16 0 -2
BITMAP
0020
fc20
23fe
2202
2202
2100
79de
4952
cb52
4a52
4dd2
4896
4990
7911
0313
060e
ENDCHAR
STARTCHAR ch-154
ENCODING 154
SWIDTH 1000 0
DWIDTH 16 0
BBX 16 16 0 -2
BITMAP
0020
fc20
21fe
2084
20cc
2048
7848
4bff
c800
4800
48fc
4884
4884
7884
0084
00fc
ENDCHAR
STARTCHAR ch-163
ENCODING 163
SWIDTH 1000 0
DWIDTH 16 0
BBX 16 16 0 -2
BITMAP
00fc
fc84
2084
20fc
2084
2084
78fc
4840
c8ff
4981
4b31
49e1
4901
7913
00f2
000e
ENDCHAR
STARTCHAR ch-167
ENCODING 167
SWIDTH 1000 0
DWIDTH 16 0
BBX 16 16 0 -2
BITMAP
0010
fe20
10fe
1082
7c82
10fe
1082
1e82
f0fe
0000
ffff
0200
0ffc
f804
0804
0ffc
ENDCHAR
STARTCHAR ch-169
ENCODING 169
SWIDTH 1000 0
DWIDTH 16 0
BBX 16 16 0 -2
BITMAP
0000
fdff
1010
10fe
3082
2082
3cfe
6482
6482
a4fe
2482
2482
24fe
3c44
00c6
0183
ENDCHAR
STARTCHAR ch-170
ENCODING 170
SWIDTH 1000 0
DWIDTH 16 0
BBX 16 16 0 -2
BITMAP
0084
fc84
23ff
2084
20fc
2084
78fc
4884
c884
4bff
4948
4948
498f
7900
0100
01ff
ENDCHAR
STARTCHAR ch-175
ENCODING 175
SWIDTH 1000 0
DWIDTH 16 0
BBX 16 16 0 -2
BITMAP
0092
fd24
2248
2124
2092
2000
7840
4bfe
ca02
4a8a
4a52
4a22
4a52
7a8a
0202
03fe
ENDCHAR
STARTCHAR ch-181
ENCODING 181
SWIDTH 1000 0
DWIDTH 16 0
BBX 16 16 0 -2
BITMAP
0010
fe10
101f
1010
10fe
1082
3c82
24fe
6482
6482
a4fe
2482
2482
3cfe
0044
0183
ENDCHAR
STARTCHAR ch-186
ENCODING 186
SWIDTH 1000 0
DWIDTH 16 0
BBX 16 16 0 -2
BITMAP
0020
0020
fdff
1121
1165
3048
20fe
3d90
6690
64fe
a490
2490
24fe
2490
3c90
00ff
ENDCHAR
STARTCHAR ch-188
ENCODING 188
SWIDTH 1000 0
DWIDTH 16 0
BBX 16 16 0 -2
BITMAP
0000
fdff
2110
2110
21fe
2110
7910
49fe
c910
4910
49ff
4801
4955
7955
0203
0006
ENDCHAR
STARTCHAR ch-190
ENCODING 190
SWIDTH 1000 0
DWIDTH 16 0
BBX 16 16 0 -2
BITMAP
0000
fbfe
2202
2202
23fe
2248
7a48
4bfe
ca48
4a48
4bff
4a92
4a94
7a98
04ec
0187
ENDCHAR
STARTCHAR ch-193
ENCODING 193
SWIDTH 1000 0
DWIDTH 16 0
BBX 16 16 0 -2
BITMAP
0084
00cc
fc48
23ff
2084
2084
2108
7908
4a52
c94a
4884
4884
494a
494a
7bdf
0251
ENDCHAR
STARTCHAR ch-197
ENCODING 197
SWIDTH 1000 0
DWIDTH 16 0
BBX 16 16 0 -2
BITMAP
0020
fc20
23ff
2084
2048
21fe
7902
4922
c820
4bff
4840
487e
4842
78c2
0182
030e
ENDCHAR
STARTCHAR ch-198
ENCODING 198
SWIDTH 1000 0
DWIDTH 16 0
BBX 16 16 0 -2
BITMAP
0000
fcfc
2084
20bc
20a4
20a4
7bff
4a01
cafd
4884
48fc
4884
48fc
7884
0084
008c
ENDCHAR
STARTCHAR ch-202
ENCODING 202
SWIDTH 1000 0
DWIDTH 16 0
BBX 16 16 0 -2
BITMAP
0000
3ffc
0200
0400
0ff8
3408
0408
07f8
0000
feff
1010
2020
7e7e
a2a2
2222
3e3e
ENDCHAR
STARTCHAR ch-203
ENCODING 203
SWIDTH 1000 0
DWIDTH 16 0
BBX 16 16 0 -2
BITMAP
0104
fc88
23fe
2020
2020
21fc
7820
4820
cbfe
4840
4880
49fe
4b10
7810
0010
01ff
ENDCHAR
STARTCHAR ch-208
ENCODING 208
SWIDTH 1000 0
DWIDTH 16 0
BBX 16 16 0 -2
BITMAP
0800
3e7c
2244
2a47
ff80
227e
2a24
6a18
c667
0000
ffff
0400
0ffc
3804
e804
0ffc
ENDCHAR
STARTCHAR ch-209
ENCODING 209
SWIDTH 1000 0
DWIDTH 16 0
BBX 16 16 0 -2
BITMAP
0020
fa22
2222
23fe
2000
23fe
7800
49fc
c904
4904
49fc
4888
48d8
7850
03ff
0000
ENDCHAR
STARTCHAR ch-212
ENCODING 212
SWIDTH 1000 0
DWIDTH 16 0
BBX 16 16 0 -2
BITMAP
0104
f9c4
237f
2254
27d4
2094
79bf
4b04
ce04
4820
4bff
48a8
48ac
79a6
0323
0020
ENDCHAR
STARTCHAR ch-218
ENCODING 218
SWIDTH 1000 0
DWIDTH 16 0
BBX 16 16 0 -2
BITMAP
0020
fc20
23ff
2020
21fe
2122
79fe
4922
c9fe
4824
48fe
4b83
4804
7bff
0084
005c
ENDCHAR
STARTCHAR ch-231
ENCODING 231
SWIDTH 1000 0
DWIDTH 16 0
BBX 16 16 0 -2
BITMAP
0020
fbfe
2020
21fc
2020
27ff
7800
49fc
c904
49fc
4904
49fc
4904
79fc
0088
0306
ENDCHAR
STARTCHAR ch-232
ENCODING 232
SWIDTH 1000 0
DWIDTH 16 0
BBX 16 16 0 -2
BITMAP
0080
0080
7fff
4208
5fbf
4208
471c
4aaa
5209
4000
5fff
4100
c7fe
9c02
8402
07fe
ENDCHAR
STARTCHAR ch-236
ENCODING 236
SWIDTH 1000 0
DWIDTH 16 0
BBX 16 16 0 -2
BITMAP
0800
ffbc
0824
7f47
0000
7f7c
4924
7f18
40e7
8000
7ffe
0400
0ffc
3804
e804
0ffc
ENDCHAR
STARTCHAR ch-239
ENCODING 239
SWIDTH 1000 0
DWIDTH 16 0
BBX 16 16 0 -2
BITMAP
0122
fa24
26ad
2122
2225
22af
77a4
5022
d3ff
5220
5312
5294
7288
0615
0427
0cc2
ENDCHAR
STARTCHAR ch-244
ENCODING 244
SWIDTH 1000 0
DWIDTH 16 0
BBX 16 16 0 -2
BITMAP
03f2
fc55
22da
218c
2306
26fb
7800
4800
c9fc
4904
4904
49fc
4888
78d8
0050
07ff
ENDCHAR
STARTCHAR ch-253
ENCODING 253
SWIDTH 1000 0
DWIDTH 16 0
BBX 16 16 0 -2
BITMAP
0020
fdfe
2020
23ff
2000
2084
7bdf
4884
c8e4
4b9f
4800
4bff
4888
7889
0189
0707
ENDCHAR
STARTCHAR ch-257
ENCODING 257
SWIDTH 1000 0
DWIDTH 16 0
BBX 16 16 0 -2
BITMAP
0088
fc90
21ff
2110
2310
25fe
7910
4910
c9fe
4910
4910
49ff
4800
7952
035b
0249
ENDCHAR
STARTCHAR ch-263
ENCODING 263
SWIDTH 1000 0
DWIDTH 16 0
BBX 16 16 0 -2
BITMAP
0020
fc40
23fe
2202
22aa
2222
7afa
4a72
caaa
4a02
4a22
4fff
4850
78d8
018c
0707
ENDCHAR
STARTCHAR ch-270
ENCODING 270
SWIDTH 1000 0
DWIDTH 16 0
BBX 16 16 0 -2
BITMAP
0084
fc84
23ff
2084
21ce
22b5
7884
4800
cbff
4821
4920
493e
4920
7ba0
02e0
063f
ENDCHAR
STARTCHAR ch-273
ENCODING 273
SWIDTH 1000 0
DWIDTH 16 0
BBX 16 16 0 -2
BITMAP
0122
fda6
20a4
23ff
2201
22fd
7884
48fc
c800
49fe
4922
4922
49fe
7922
0122
01fe
ENDCHAR
STARTCHAR ch-274
ENCODING 274
SWIDTH 1000 0
DWIDTH 16 0
BBX 16 16 0 -2
BITMAP
0104
fc88
23fe
2020
21fc
2020
7bff
4804
cbd2
4890
4fff
4892
48d4
7b89
0095
01a3
ENDCHAR
STARTCHAR ch-281
ENCODING 281
SWIDTH 1000 0
DWIDTH 16 0
BBX 16 16 0 -2
BITMAP
0400
fcbf
2702
2414
2488
23bf
7409
578a
5a28
d22e
5fa8
5228
5328
72b8
046c
08c7
ENDCHAR
STARTCHAR ch-294
ENCODING 294
SWIDTH 1000 0
DWIDTH 16 0
BBX 16 16 0 -2
BITMAP
0010
fc10
23ff
2244
22fe
2244
7bff
4a10
cafe
4a92
4afe
4a92
7a92
02fe
0444
0183
ENDCHAR
STARTCHAR ch-298
ENCODING 298
SWIDTH 1000 0
DWIDTH 16 0
BBX 16 16 0 -2
BITMAP
0000
fbff
2244
23ff
2244
22fe
7a92
4afe
ca92
4afe
4a10
4aff
7a95
029d
04b5
0083
ENDCHAR
STARTCHAR ch-299
ENCODING 299
SWIDTH 1000 0
DWIDTH 16 0
BBX 16 16 0 -2
BITMAP
0010
fa21
237b
214a
2048
2078
794a
4b4b
ca79
4820
4bff
48a8
48ac
79a6
0323
0020
ENDCHAR
STARTCHAR ch-300
ENCODING 300
SWIDTH 1000 0
DWIDTH 16 0
BBX 16 16 0 -2
BITMAP
2244
2184
fa5f
2004
724e
a995
2244
0100
ffff
0420
0810
3ffc
e207
0ff8
7408
07f8
ENDCHAR
STARTCHAR ch-314
ENCODING 314
SWIDTH 1000 0
DWIDTH 16 0
BBX 16 16 0 -2
BITMAP
0000
3ffc
0000
0000
0000
0000
ffff
0100
0100
1108
1108
310c
6106
c103
0100
0700
ENDCHAR
STARTCHAR ch-316
ENCODING 316
SWIDTH 1000 0
DWIDTH 16 0
BBX 16 16 0 -2
BITMAP
1040
1040
1040
fc40
0440
0c40
0840
1840
3040
7c40
d640
1040
1040
1041
1063
103e
ENDCHAR
STARTCHAR ch-318
ENCODING 318
SWIDTH 1000 0
DWIDTH 16 0
BBX 16 16 0 -2
BITMAP
1010
1010
1010
fc10
0410
0cfe
0810
1810
3010
7c10
d610
1010
1010
1010
11ff
1000
ENDCHAR
STARTCHAR ch-320
ENCODING 320
SWIDTH 1000 0
DWIDTH 16 0
BBX 16 16 0 -2
BITMAP
1000
10fe
1082
fc82
0482
0c82
0882
18fe
3080
7c80
d680
1080
1080
1081
10c3
107e
ENDCHAR
STARTCHAR ch-321
ENCODING 321
SWIDTH 1000 0
DWIDTH 16 0
BBX 16 16 0 -2
BITMAP
1000
107e
1042
fe46
0244
064c
0c48
1844
3042
7c42
d642
1242
1042
104e
1040
1040
ENDCHAR
STARTCHAR ch-327
ENCODING 327
SWIDTH 1000 0
DWIDTH 16 0
BBX 16 16 0 -2
BITMAP
1006
101c
11f0
fd10
0510
0d10
0910
19ff
3110
7d18
d708
1108
110c
1105
11e7
1702
ENDCHAR
STARTCHAR ch-328
ENCODING 328
SWIDTH 1000 0
DWIDTH 16 0
BBX 16 16 0 -2
BITMAP
1006
101c
10f0
fc80
0480
0cff
0888
1888
3088
7c88
d688
1088
1188
1108
1308
1008
ENDCHAR
STARTCHAR ch-329
ENCODING 329
SWIDTH 1000 0
DWIDTH 16 0
BBX 16 16 0 -2
BITMAP
1010
1010
1010
fc90
0490
0c9e
0890
1890
3090
7c90
d690
1090
1090
1090
13ff
1000
ENDCHAR
STARTCHAR ch-336
ENCODING 336
SWIDTH 1000 0
DWIDTH 16 0
BBX 16 16 0 -2
BITMAP
1020
1020
1020
fdff
0420
0c60
0840
1840
30fe
78c2
d542
1242
1042
1042
1042
107e
ENDCHAR
STARTCHAR ch-339
ENCODING 339
SWIDTH 1000 0
DWIDTH 16 0
BBX 16 16 0 -2
BITMAP
1048
104c
1044
fdff
0440
0c40
1844
10e4
3cac
76a8
d1b8
1110
1338
166c
10c6
1183
ENDCHAR
STARTCHAR ch-341
ENCODING 341
SWIDTH 1000 0
DWIDTH 16 0
BBX 16 16 0 -2
BITMAP
1060
1030
1010
fc42
0442
0c46
1844
114c
3d4a
775b
d151
1160
1040
10c2
1366
103c
ENDCHAR
STARTCHAR ch-342
ENCODING 342
SWIDTH 1000 0
DWIDTH 16 0
BBX 16 16 0 -2
BITMAP
1000
10fc
1084
fc84
0484
0cfc
0884
1884
3084
7cfc
d684
1084
1084
1084
13ff
1000
ENDCHAR
STARTCHAR ch-343
ENCODING 343
SWIDTH 1000 0
DWIDTH 16 0
BBX 16 16 0 -2
BITMAP
1006
101c
11f0
fd10
0510
0d10
09ff
1910
3110
7d18
d708
1108
11ec
1705
1007
17e2
ENDCHAR
STARTCHAR ch-346
ENCODING 346
SWIDTH 1000 0
DWIDTH 16 0
BBX 16 16 0 -2
BITMAP
1040
1040
1040
fcff
04a0
0da0
0b20
183e
3020
7c20
d620
103e
1020
1020
1020
1020
ENDCHAR
STARTCHAR ch-349
ENCODING 349
SWIDTH 1000 0
DWIDTH 16 0
BBX 16 16 0 -2
BITMAP
1000
11fe
1102
fd02
0502
0d02
0902
19fe
3048
7c48
d648
1048
10c8
1089
1189
1307
ENDCHAR
STARTCHAR ch-350
ENCODING 350
SWIDTH 1000 0
DWIDTH 16 0
BBX 16 16 0 -2
BITMAP
1010
1010
1010
fcfe
0492
0c92
0892
18fe
3092
7c92
d692
10fe
1010
1010
1010
1010
ENDCHAR
STARTCHAR ch-351
ENCODING 351
SWIDTH 1000 0
DWIDTH 16 0
BBX 16 16 0 -2
BITMAP
0100
1108
1108
1ff8
0100
4102
4102
7ffe
0000
1ff8
0000
ffff
0100
0910
1918
770e
ENDCHAR
STARTCHAR ch-352
ENCODING 352
SWIDTH 1000 0
DWIDTH 16 0
BBX 16 16 0 -2
BITMAP
1000
11fe
1002
fc02
04f2
0c02
0802
18f2
3092
7c92
d692
10f2
1002
1002
1002
100e
ENDCHAR
STARTCHAR ch-354
ENCODING 354
SWIDTH 1000 0
DWIDTH 16 0
BBX 16 16 0 -2
BITMAP
1040
1040
1040
fcff
0490
0d90
0b10
1854
3054
7c54
d6d6
1092
1193
1010
1010
1070
ENDCHAR
STARTCHAR ch-357
ENCODING 357
SWIDTH 1000 0
DWIDTH 16 0
BBX 16 16 0 -2
BITMAP
1082
10c6
1044
fcfe
0410
0c10
0810
18fe
3010
7c10
d610
11ff
1010
1010
1010
1010
ENDCHAR
STARTCHAR ch-360
ENCODING 360
SWIDTH 1000 0
DWIDTH 16 0
BBX 16 16 0 -2
BITMAP
0000
ffff
0440
7ffe
4442
4442
7ffe
0000
3ffc
0000
ffff
0100
1108
310c
e107
0700
ENDCHAR
STARTCHAR ch-365
ENCODING 365
SWIDTH 1000 0
DWIDTH 16 0
BBX 16 16 0 -2
BITMAP
1000
1f7e
3182
6bc6
c66c
2c30
1818
37ec
e007
0000
7ffe
0100
0910
391c
e107
0700
ENDCHAR
STARTCHAR ch-375
ENCODING 375
SWIDTH 1000 0
DWIDTH 16 0
BBX 16 16 0 -2
BITMAP
2020
2020
23fe
f820
09fc
1820
13fe
3040
2044
7bff
ac84
21a4
2134
2314
2604
201c
ENDCHAR
STARTCHAR ch-378
ENCODING 378
SWIDTH 1000 0
DWIDTH 16 0
BBX 16 16 0 -2
BITMAP
1044
1044
11ff
fc44
0444
0c7c
0844
1844
307c
7c44
d644
11ff
1000
1044
10c6
1183
ENDCHAR
STARTCHAR ch-383
ENCODING 383
SWIDTH 1000 0
DWIDTH 16 0
BBX 16 16 0 -2
BITMAP
1080
10fc
1184
fd0c
05f8
0c08
0bff
1820
3122
7da6
d6b4
1078
10ac
11a6
1323
10e0
ENDCHAR
STARTCHAR ch-384
ENCODING 384
SWIDTH 1000 0
DWIDTH 16 0
BBX 16 16 0 -2
BITMAP
0100
7ffe
0000
1ff8
1008
17e8
1428
17e8
1008
1ff8
0000
3ffc
0000
ffff
1108
6306
ENDCHAR
STARTCHAR ch-385
ENCODING 385
SWIDTH 1000 0
DWIDTH 16 0
BBX 16 16 0 -2
BITMAP
0810
0810
feff
2854
2c54
6ad6
c993
0000
3ffc
0000
ffff
0100
1108
310c
e107
0700
ENDCHAR
STARTCHAR ch-388
ENCODING 388
SWIDTH 1000 0
DWIDTH 16 0
BBX 16 16 0 -2
BITMAP
1000
11fc
1004
fdfc
0404
0c04
0bff
1820
3122
7da6
d6b4
1078
10ac
11a6
1323
10e0
ENDCHAR
STARTCHAR ch-389
ENCODING 389
SWIDTH 1000 0
DWIDTH 16 0
BBX 16 16 0 -2
BITMAP
1121
11b3
1092
fcfe
0492
0c92
08fe
1892
3092
7cfe
d610
1010
11ff
1010
1010
1010
ENDCHAR
STARTCHAR ch-394
ENCODING 394
SWIDTH 1000 0
DWIDTH 16 0
BBX 16 16 0 -2
BITMAP
2100
27de
210a
f90a
0fca
190a
111a
31d2
2736
7000
a820
27ff
2050
20d8
218c
2707
ENDCHAR
STARTCHAR ch-397
ENCODING 397
SWIDTH 1000 0
DWIDTH 16 0
BBX 16 16 0 -2
BITMAP
1000
10fc
1084
fcbc
04a4
0ca4
08a4
19fe
3102
7d7a
d74a
114a
114a
117a
1102
1106
ENDCHAR
STARTCHAR ch-398
ENCODING 398
SWIDTH 1000 0
DWIDTH 16 0
BBX 16 16 0 -2
BITMAP
1010
1010
101f
fc10
04fe
0c82
0882
18fe
3082
7c82
d6fe
1082
1082
10fe
1044
1183
ENDCHAR
STARTCHAR ch-399
ENCODING 399
SWIDTH 1000 0
DWIDTH 16 0
BBX 16 16 0 -2
BITMAP
1000
11ff
1000
fcfe
0482
0c82
08fe
1800
3000
7dff
d711
1111
11ff
1111
1111
11ff
ENDCHAR
STARTCHAR ch-413
ENCODING 413
SWIDTH 1000 0
DWIDTH 16 0
BBX 16 16 0 -2
BITMAP
1000
10fe
1092
fcfe
0492
0cfe
0848
18c8
318f
7c40
d67c
10c4
11ac
1038
106c
11c7
ENDCHAR
STARTCHAR ch-422
ENCODING 422
SWIDTH 1000 0
DWIDTH 16 0
BBX 16 16 0 -2
BITMAP
1400
27de
4912
97d2
2112
65d2
a512
27d6
2c10
0000
3ffc
0000
ffff
0080
308c
e387
ENDCHAR
STARTCHAR ch-423
ENCODING 423
SWIDTH 1000 0
DWIDTH 16 0
BBX 16 16 0 -2
BITMAP
2020
23fe
2020
f9fc
0800
19fc
3104
21fc
7088
a850
27ff
2000
21fc
2104
2104
21fc
ENDCHAR
STARTCHAR ch-426
ENCODING 426
SWIDTH 1000 0
DWIDTH 16 0
BBX 16 16 0 -2
BITMAP
11ef
1129
11ef
fc00
04fe
0c92
0892
18fe
3092
7c92
d6fe
1010
11ff
1010
1010
1010
ENDCHAR
STARTCHAR ch-430
ENCODING 430
SWIDTH 1000 0
DWIDTH 16 0
BBX 16 16 0 -2
BITMAP
2090
23fe
2292
fbfe
0a92
1bfe
1000
37ff
2000
79fc
ad04
21fc
2088
2050
27ff
2000
ENDCHAR
STARTCHAR ch-432
ENCODING 432
SWIDTH 1000 0
DWIDTH 16 0
BBX 16 16 0 -2
BITMAP
2000
27ff
2124
fa22
0fff
1a22
1376
32aa
2376
7222
ab76
22aa
2376
2222
2222
2206
ENDCHAR
STARTCHAR ch-435
ENCODING 435
SWIDTH 1000 0
DWIDTH 16 0
BBX 16 16 0 -2
BITMAP
2020
2020
23ff
f884
0b03
1848
11fe
3048
21fe
7048
abff
2052
20d4
2388
20e4
2383
ENDCHAR
STARTCHAR ch-441
ENCODING 441
SWIDTH 1000 0
DWIDTH 16 0
BBX 16 16 0 -2
BITMAP
000c
00f8
7f80
0100
1ff8
1108
1108
1ff8
0100
7ffe
4102
4122
41f2
5f1a
4002
400e
ENDCHAR
STARTCHAR ch-442
ENCODING 442
SWIDTH 1000 0
DWIDTH 16 0
BBX 16 16 0 -2
BITMAP
0000
1ff8
1108
1108
1ff8
1108
1108
1ff8
0100
7ffe
4102
4122
41f2
5f1a
4002
400e
ENDCHAR
STARTCHAR ch-445
ENCODING 445
SWIDTH 1000 0
DWIDTH 16 0
BBX 16 16 0 -2
BITMAP
0100
0380
0ee0
393c
e7e7
1248
1188
1248
1ff8
0200
7ffe
4402
4c22
49f2
5f12
400e
ENDCHAR
STARTCHAR ch-446
ENCODING 446
SWIDTH 1000 0
DWIDTH 16 0
BBX 16 16 0 -2
BITMAP
0018
01f0
3f00
0100
0100
0100
ffff
0520
0d30
0910
1918
310c
6106
c103
0100
0100
ENDCHAR
STARTCHAR ch-447
ENCODING 447
SWIDTH 1000 0
DWIDTH 16 0
BBX 16 16 0 -2
BITMAP
0018
01f0
3f00
0100
ffff
0520
0d30
391c
e107
0000
0440
0440
0c40
1841
3063
e03e
ENDCHAR
STARTCHAR ch-448
ENCODING 448
SWIDTH 1000 0
DWIDTH 16 0
BBX 16 16 0 -2
BITMAP
000c
00f8
3f80
0100
ffff
0520
0d30
391c
e007
1fe0
0220
023c
0604
0c04
180c
7038
ENDCHAR
STARTCHAR ch-449
ENCODING 449
SWIDTH 1000 0
DWIDTH 16 0
BBX 16 16 0 -2
BITMAP
0610
1c10
f010
1030
1020
fe20
1020
1020
3860
3444
5244
5046
90c2
109e
10f3
1381
ENDCHAR
STARTCHAR ch-457
ENCODING 457
SWIDTH 1000 0
DWIDTH 16 0
BBX 16 16 0 -2
BITMAP
0038
3fe0
0100
ffff
0100
3ffc
0104
ffff
0104
3ffc
0540
0d60
1930
311c
e107
0100
ENDCHAR
STARTCHAR ch-459
ENCODING 459
SWIDTH 1000 0
DWIDTH 16 0
BBX 16 16 0 -2
BITMAP
0620
1c20
f022
1122
1126
fd24
132c
1220
3870
3450
5450
50d8
9088
118c
1306
1603
ENDCHAR
STARTCHAR ch-465
ENCODING 465
SWIDTH 1000 0
DWIDTH 16 0
BBX 16 16 0 -2
BITMAP
0604
1cc4
f064
1024
1004
fe04
10c4
1064
3824
3404
5207
503c
91e4
1004
1004
1004
ENDCHAR
STARTCHAR ch-466
ENCODING 466
SWIDTH 1000 0
DWIDTH 16 0
BBX 16 16 0 -2
BITMAP
0420
1c20
f020
10a8
10ac
fda6
1323
1020
3822
3426
54e4
500c
9018
1030
1060
11c0
ENDCHAR
STARTCHAR ch-469
ENCODING 469
SWIDTH 1000 0
DWIDTH 16 0
BBX 16 16 0 -2
BITMAP
0510
1d10
f110
1110
1112
fdd6
111c
1110
3910
3510
5510
5110
9110
1111
11d3
170e
ENDCHAR
STARTCHAR ch-472
ENCODING 472
SWIDTH 1000 0
DWIDTH 16 0
BBX 16 16 0 -2
BITMAP
0460
1c30
f010
1044
1044
fe4c
1048
1158
3956
3573
5361
5240
90c0
1142
1666
103c
ENDCHAR
STARTCHAR ch-479
ENCODING 479
SWIDTH 1000 0
DWIDTH 16 0
BBX 16 16 0 -2
BITMAP
0400
1cfc
f084
1084
1084
fcfc
1084
1084
3884
34fc
5484
5084
9084
1084
13ff
1000
ENDCHAR
STARTCHAR ch-481
ENCODING 481
SWIDTH 1000 0
DWIDTH 16 0
BBX 16 16 0 -2
BITMAP
0448
1c4c
f044
13ff
1040
fc40
1044
10e4
38ac
34a8
55b8
5110
9338
166c
10c6
1183
ENDCHAR
STARTCHAR ch-483
ENCODING 483
SWIDTH 1000 0
DWIDTH 16 0
BBX 16 16 0 -2
BITMAP
0420
1c20
f020
13ff
1020
fc20
1020
13fe
38a8
34a8
55ac
5124
9326
1623
1020
1020
ENDCHAR
STARTCHAR ch-484
ENCODING 484
SWIDTH 1000 0
DWIDTH 16 0
BBX 16 16 0 -2
BITMAP
0400
1dfe
f020
1122
11a6
fca4
10a4
1020
3bff
3420
5420
5020
9020
1020
1020
1020
ENDCHAR
STARTCHAR ch-486
ENCODING 486
SWIDTH 1000 0
DWIDTH 16 0
BBX 16 16 0 -2
BITMAP
0100
7ffe
0100
3ffc
0240
ffff
0810
30ec
ef87
0100
7ffe
0520
0d30
391c
e107
0100
ENDCHAR
STARTCHAR ch-487
ENCODING 487
SWIDTH 1000 0
DWIDTH 16 0
BBX 16 16 0 -2
BITMAP
0420
1c20
f020
11fc
1124
fd24
1124
1924
37ff
3450
5050
50d8
9088
118c
1306
1603
ENDCHAR
STARTCHAR ch-489
ENCODING 489
SWIDTH 1000 0
DWIDTH 16 0
BBX 16 16 0 -2
BITMAP
0420
1d20
f120
11fe
1320
fe20
1020
13ff
3820
3470
5450
5058
90c8
108c
1186
1303
ENDCHAR
STARTCHAR ch-492
ENCODING 492
SWIDTH 1000 0
DWIDTH 16 0
BBX 16 16 0 -2
BITMAP
0600
1cff
f080
1080
1080
fefe
1082
1082
3882
34fe
5280
5080
9080
1080
10ff
1000
ENDCHAR
STARTCHAR ch-496
ENCODING 496
SWIDTH 1000 0
DWIDTH 16 0
BBX 16 16 0 -2
BITMAP
0440
1c40
f040
10ff
1090
fd90
1010
3010
3854
3454
54d6
5092
9193
1010
1010
1070
ENDCHAR
STARTCHAR ch-507
ENCODING 507
SWIDTH 1000 0
DWIDTH 16 0
BBX 16 16 0 -2
BITMAP
0620
1c3e
f062
10c6
11ac
fe18
1030
10e8
380f
3419
5233
50ea
9006
100c
1038
11e0
ENDCHAR
ENDFONT
