STARTFONT 2.1
FONT jis.jis6400.24
SIZE 24 72 72
FONTBOUNDINGBOX 24 24 0 -3
STARTPROPERTIES 4
FONT_DESCENT 3
FONT_ASCENT 21
DEFAULT_CHAR 6
COPYRIGHT "Copyright (c) 1992 AT&T - All rights reserved."
ENDPROPERTIES
CHARS 160
STARTCHAR ch-6
ENCODING 6
SWIDTH 1000 0
DWIDTH 24 0
BBX 24 24 0 -3
BITMAP
0e0e38
0c0c30
0c0c30
0c7ffe
0d0c30
ff8c30
0c3ffc
0c0c30
0c0c30
0cffff
0c0180
0d218c
1e3ffe
fc318c
6c318c
4c3ffc
0c318c
0c318c
0cffff
0c300c
0c300c
0c300c
7c307c
183018
ENDCHAR
STARTCHAR ch-13
ENCODING 13
SWIDTH 1000 0
DWIDTH 24 0
BBX 24 24 0 -3
BITMAP
0e1018
0c1ffc
0c1818
0c1818
0c1818
0d9818
ffdff8
0c0000
0c200c
0c3ffe
0c300c
0db00c
1e3ffc
fc300c
6c300c
4c3ffc
0c300c
0c300c
0c3ffc
0c0800
0c0e30
0c1c0e
7c3007
18c003
ENDCHAR
STARTCHAR ch-15
ENCODING 15
SWIDTH 1000 0
DWIDTH 24 0
BBX 24 24 0 -3
BITMAP
0e01d0
0c0198
0c018a
0cffff
0c0180
0d218c
ffbffe
0c318c
0c318c
0c3ffc
0db18c
0e318c
1c3ffc
fc300c
6c0000
4c0036
0cffff
0c0030
0c2030
0c1830
0c0c30
0c0c30
7c01f0
180060
ENDCHAR
STARTCHAR ch-19
ENCODING 19
SWIDTH 1000 0
DWIDTH 24 0
BBX 24 24 0 -3
BITMAP
0e1010
0c0c1c
0c0618
0c0620
0c3ffe
0d8180
ffc180
0c0198
0c1ffc
0c0180
0c0180
0d8186
1e7fff
fc0600
6c0600
4c0c0c
0c0ffe
0c18c0
0c30c0
0c60c0
0d80c0
0c00c6
7c3fff
180000
ENDCHAR
STARTCHAR ch-22
ENCODING 22
SWIDTH 1000 0
DWIDTH 24 0
BBX 24 24 0 -3
BITMAP
0e0100
0c01c0
0c038c
0c07fe
0d0c1c
ff9b38
0c6170
0c18e0
0c09c0
0c0300
0d8e00
0e3800
1c0c18
fc1ffc
6c1180
4c2186
0cffff
0c0180
0c0180
0c398e
0c318c
0c318c
7c3ffc
18300c
ENDCHAR
STARTCHAR ch-23
ENCODING 23
SWIDTH 1000 0
DWIDTH 24 0
BBX 24 24 0 -3
BITMAP
0e0200
0c0380
0c2318
0c3ffc
0c3018
0db018
fffff8
0c3018
0c3018
0c3ff8
0c3000
0db006
1e3fff
fc3000
6c3006
4c3fff
0c0006
0c0c06
0cccc6
0cccc6
0cccc6
0cffcc
7cc07c
180018
ENDCHAR
STARTCHAR ch-28
ENCODING 28
SWIDTH 1000 0
DWIDTH 24 0
BBX 24 24 0 -3
BITMAP
0e01c0
0c0580
0c2f8c
0c39be
0c318c
0db18c
fff18c
0c3dbc
0c318c
0c318c
0c318c
0dbffc
1e0180
fc018c
6c7ffe
4c080c
0c0418
0c0630
0c0360
0c01c0
0c0370
0c063f
7c181e
18e006
ENDCHAR
STARTCHAR ch-38
ENCODING 38
SWIDTH 1000 0
DWIDTH 24 0
BBX 24 24 0 -3
BITMAP
1c0606
18ff7f
180606
180606
180606
1a4646
ff7e7e
184646
184040
184040
184646
1afeff
1cc6c6
f80606
788686
586666
182e2e
181616
186666
19c7c6
188e8e
180c0c
f87c7c
301818
ENDCHAR
STARTCHAR ch-40
ENCODING 40
SWIDTH 1000 0
DWIDTH 24 0
BBX 24 24 0 -3
BITMAP
1c2018
183ffc
183018
183018
183ff8
1b3018
ffb018
183018
183ff8
183018
180000
1b0606
1cfeff
f80606
788686
586666
182e2e
181616
186666
19c7c6
188686
180606
f83e3e
300c0c
ENDCHAR
STARTCHAR ch-44
ENCODING 44
SWIDTH 1000 0
DWIDTH 24 0
BBX 24 24 0 -3
BITMAP
1c2000
183898
1830fc
18fc98
188c98
18cc98
ffac98
18ac98
18ad9f
188d0f
188e00
1bfc0c
1d8dfe
f88c8c
78ac8c
58acd8
18ac58
18ac70
18ac20
188c70
198c58
190ccc
f93d8f
321a06
ENDCHAR
STARTCHAR ch-45
ENCODING 45
SWIDTH 1000 0
DWIDTH 24 0
BBX 24 24 0 -3
BITMAP
0e0e38
0c0c30
0c0c36
0cffff
0c0c30
0d8c30
ffc180
0c0380
0c0340
0c0620
0c8c18
0d180f
0e37e6
1cc000
fc0000
6c1018
4c1ffc
0c1818
0c1818
0c1818
0c1818
0c1ff8
7c1818
181818
ENDCHAR
STARTCHAR ch-52
ENCODING 52
SWIDTH 1000 0
DWIDTH 24 0
BBX 24 24 0 -3
BITMAP
001c00
101800
101806
3fffff
30c306
60c304
6ffff0
00c300
0ffff0
00c300
00c306
ffffff
018080
038660
077f38
0c181f
33ffc6
c01800
00180c
3ffffe
001800
001800
00f800
003000
ENDCHAR
STARTCHAR ch-54
ENCODING 54
SWIDTH 1000 0
DWIDTH 24 0
BBX 24 24 0 -3
BITMAP
0e0300
0c0300
0c0680
0c0640
0d8c60
ffd838
0c37df
0c600e
0d8006
0c3ff8
0c3018
0d3018
1e3ff8
fc3018
6c3018
4c3ff8
0c3000
0c6000
0c6ffc
0c4c0c
0ccc0c
0c8c0c
7d0ffc
180c0c
ENDCHAR
STARTCHAR ch-58
ENCODING 58
SWIDTH 1000 0
DWIDTH 24 0
BBX 24 24 0 -3
BITMAP
1c1080
181ce0
1818c0
183104
183ffe
1a7180
ff7180
18bffc
193180
183180
183ffc
193180
1e3182
fc3fff
780000
58fff0
180c60
180c66
180cff
1818c6
181806
18300c
f8607c
318018
ENDCHAR
STARTCHAR ch-62
ENCODING 62
SWIDTH 1000 0
DWIDTH 24 0
BBX 24 24 0 -3
BITMAP
1c0380
184300
184306
187fff
18c8c6
1acec8
ff1cc0
1818c0
1830ff
18607f
199000
181c00
1b1806
fc3fff
783300
586300
18c3fc
190300
180300
1803fe
180300
180300
f80300
300300
ENDCHAR
STARTCHAR ch-66
ENCODING 66
SWIDTH 1000 0
DWIDTH 24 0
BBX 24 24 0 -3
BITMAP
0e0006
0cffff
0c0c30
0c0c30
0c0ff0
0d8c30
ffcc30
0c0ff0
0c0c30
0c0c30
0d0c30
0effff
0c0030
1c0030
fc2008
6c181e
4c0c38
0c0c40
0c0000
0c0000
0c0460
0cf81c
7c700e
184006
ENDCHAR
STARTCHAR ch-78
ENCODING 78
SWIDTH 1000 0
DWIDTH 24 0
BBX 24 24 0 -3
BITMAP
0e0204
0c7ffe
0c0204
0c2244
0c1a34
0d8a14
ffc204
0c0e1c
0c72e4
0c2244
0c0700
0d8680
1e0c60
fc1838
6c321f
4cc706
0c0c40
0c30e0
0c0188
0c061c
0c1870
0c01c0
7c0700
183800
ENDCHAR
STARTCHAR ch-88
ENCODING 88
SWIDTH 1000 0
DWIDTH 24 0
BBX 24 24 0 -3
BITMAP
0e01c0
0c0180
0c0186
0cffff
0c0820
0d0438
ff8630
0c0620
0c4046
0c7fff
0c6006
0d6186
1e6186
fc6ff6
6c6186
4c6186
0c67e6
0c6426
0c6426
0c6426
0c67e6
0c6006
7c601e
18600c
ENDCHAR
STARTCHAR ch-103
ENCODING 103
SWIDTH 1000 0
DWIDTH 24 0
BBX 24 24 0 -3
BITMAP
0e01c0
0c398e
0c318c
0c318c
0c318c
0dbffc
ffd080
0c1ce0
0c18c0
0c310c
0d3ffe
0e7180
1cb180
fd3188
6c3ffc
4c3180
0c3180
0c3188
0c3ffc
0c3180
0c3180
0c3186
7c3fff
183000
ENDCHAR
STARTCHAR ch-105
ENCODING 105
SWIDTH 1000 0
DWIDTH 24 0
BBX 24 24 0 -3
BITMAP
001c00
001800
20180c
3ffffe
304080
304884
37fffe
30c1a0
31f390
33529c
34448f
304086
300060
300ff0
33fc00
300c10
27fff8
600c00
600c04
4ffffe
400c00
800c00
007c00
001800
ENDCHAR
STARTCHAR ch-111
ENCODING 111
SWIDTH 1000 0
DWIDTH 24 0
BBX 24 24 0 -3
BITMAP
070380
060300
3fc300
060330
060ff8
7fe330
108b30
090630
7fe732
0605b2
0609b3
3fd03f
06001e
060180
001fc0
07f800
001818
3ffffc
001800
ffffff
001800
001800
00f800
003000
ENDCHAR
STARTCHAR ch-118
ENCODING 118
SWIDTH 1000 0
DWIDTH 24 0
BBX 24 24 0 -3
BITMAP
0e01c0
0c0186
0c7fff
0c0180
0c218c
0dbffe
fff18c
0c318c
0c3ffc
0c318c
0db18c
0e3ffc
1c0190
fc018c
6c7ff6
4c1c06
0c0030
0cffff
0c1030
0c0830
0c0c30
0c0c30
7c01f0
180060
ENDCHAR
STARTCHAR ch-120
ENCODING 120
SWIDTH 1000 0
DWIDTH 24 0
BBX 24 24 0 -3
BITMAP
1c0e70
180c60
180c66
18ffff
180c60
1b0c60
ffbff8
183018
183018
183ff8
183018
193018
1e3018
f83ff8
780300
580306
19ffff
180680
180c40
180c60
181838
18301f
f8600e
318006
ENDCHAR
STARTCHAR ch-122
ENCODING 122
SWIDTH 1000 0
DWIDTH 24 0
BBX 24 24 0 -3
BITMAP
1c0606
19ffff
180606
188686
186666
1b2626
ff8606
180e0e
183636
18e6e6
184646
190100
1e0180
fc420c
787ffe
58600c
18600c
18600c
187ffc
18600c
18600c
18600c
f87ffc
30600c
ENDCHAR
STARTCHAR ch-131
ENCODING 131
SWIDTH 1000 0
DWIDTH 24 0
BBX 24 24 0 -3
BITMAP
020230
0203f8
fffb30
020330
3fe33f
22261f
3fe800
2227fc
22210c
3fe098
020060
fff9b8
02061f
0200c6
001fe0
0ff800
001800
3ffffc
001800
ffffff
001800
001800
00f800
003000
ENDCHAR
STARTCHAR ch-136
ENCODING 136
SWIDTH 1000 0
DWIDTH 24 0
BBX 24 24 0 -3
BITMAP
0e0c18
0c2952
0c2b57
0c68d0
0c58b0
0d1428
ff9226
0c2242
0c0000
0c4006
0c7fff
0ec006
1cc384
fc0300
6c030c
4c3ffe
0c030c
0c060c
0c060c
0c0c0c
0c0c1c
0c1818
7c30f8
18c030
ENDCHAR
STARTCHAR ch-146
ENCODING 146
SWIDTH 1000 0
DWIDTH 24 0
BBX 24 24 0 -3
BITMAP
1c4440
184470
184460
19ff60
184460
184446
ff447f
1844cc
19ff8c
18008c
18014c
1afe4c
1cc648
f8c628
78fe28
58c618
18c610
18c638
18fe28
18c62c
18c66c
18c646
f8de87
30cd02
ENDCHAR
STARTCHAR ch-147
ENCODING 147
SWIDTH 1000 0
DWIDTH 24 0
BBX 24 24 0 -3
BITMAP
0e01c0
0c0188
0c3ffc
0c0180
0c0184
0c7ffe
ff8000
0c1818
0c1010
0cfefe
0c1010
0d1010
1e1c12
fcf1ff
6c4000
4c0000
0c7ffe
0c0c60
0c0c60
0c0c62
0c1862
0c1863
7c307f
18c03e
ENDCHAR
STARTCHAR ch-149
ENCODING 149
SWIDTH 1000 0
DWIDTH 24 0
BBX 24 24 0 -3
BITMAP
1ccc04
18880e
188898
1bfee0
1888c0
1888c0
fe88c0
18f8c6
1888ff
1888cc
1888cc
1af8cc
1c88cc
f888cc
7888cc
5888cc
1bfecc
1800cc
18108c
18888c
18cd8c
198d0c
f9010c
32020c
ENDCHAR
STARTCHAR ch-154
ENCODING 154
SWIDTH 1000 0
DWIDTH 24 0
BBX 24 24 0 -3
BITMAP
1c4070
187060
186068
186664
187f66
1a4666
ff4660
18b466
1897ff
190c60
1ac860
1858d0
1b10d0
fc3098
78218c
58410f
18820e
190c06
180000
184488
184444
188c66
fb8c63
330c63
ENDCHAR
STARTCHAR ch-158
ENCODING 158
SWIDTH 1000 0
DWIDTH 24 0
BBX 24 24 0 -3
BITMAP
1c0380
180300
180318
187ffc
181040
1b0c60
ff8440
18008c
18fffe
180000
183ff8
1b3118
1c3118
f83ff8
783118
583118
183ff8
180100
180108
187ffc
180100
180102
f9ffff
300000
ENDCHAR
STARTCHAR ch-164
ENCODING 164
SWIDTH 1000 0
DWIDTH 24 0
BBX 24 24 0 -3
BITMAP
1c3840
183070
183260
1bff60
182060
183066
fe207f
184448
19fece
18e68c
18808c
1a014c
1cfc4c
f88428
788428
58fc38
188410
188410
18fc38
188428
18846c
18844f
f89c86
308d06
ENDCHAR
STARTCHAR ch-165
ENCODING 165
SWIDTH 1000 0
DWIDTH 24 0
BBX 24 24 0 -3
BITMAP
0e0300
0cff08
0c069c
0c86b0
0c6c42
0c2c47
ff982c
0c1030
0c201c
0c7fff
0c98c6
0e18c0
3c18c0
fc18cc
6dfffe
4c18c0
0c18c0
0c18c0
0c18c2
0c30c2
0c30c2
0c20c3
7c40ff
19807e
ENDCHAR
STARTCHAR ch-169
ENCODING 169
SWIDTH 1000 0
DWIDTH 24 0
BBX 24 24 0 -3
BITMAP
0e0380
0c0300
0c0306
0cffff
0c0684
0c8446
ff6c68
0c2830
0c101c
0c3fff
0c5836
0e9830
3c1ff0
fc1830
6c1830
4c1ff0
0c0180
0c2190
0c398c
0c3186
0c6187
0cc183
7d0780
180300
ENDCHAR
STARTCHAR ch-171
ENCODING 171
SWIDTH 1000 0
DWIDTH 24 0
BBX 24 24 0 -3
BITMAP
1c1000
181c00
181800
183000
18200c
1b7ffe
ffe490
18a490
192490
182496
19ffff
1a2490
1c2490
f82490
782490
582496
19ffff
180000
180000
184488
184444
188c66
fb8c63
330c63
ENDCHAR
STARTCHAR ch-173
ENCODING 173
SWIDTH 1000 0
DWIDTH 24 0
BBX 24 24 0 -3
BITMAP
1c0030
1803f8
187f00
180320
1b2338
ff9b30
180b46
19ffff
181b40
181320
1b3330
1c631c
f8c30f
790006
587ff8
186218
186218
186218
187ff8
186218
186218
186218
f87ff8
306018
ENDCHAR
STARTCHAR ch-174
ENCODING 174
SWIDTH 1000 0
DWIDTH 24 0
BBX 24 24 0 -3
BITMAP
1c2018
183ffc
183018
183018
183ff8
1b3018
ffb018
183ff8
180000
180006
19ffff
184400
1b440c
fc7dfe
78448c
58448c
187c88
184458
184450
184c30
1bf47c
19c4cf
f90706
300400
ENDCHAR
STARTCHAR ch-176
ENCODING 176
SWIDTH 1000 0
DWIDTH 24 0
BBX 24 24 0 -3
BITMAP
1c0c0c
19fefe
180c0c
180c0c
188c8c
1afcfc
ffc0c0
18c4c2
18c6c3
18feff
187c7e
190000
1e1ce0
fc18c8
78fffc
5818c0
1818c0
1818c6
1bffff
182000
183860
18701c
f8c00e
330006
ENDCHAR
STARTCHAR ch-178
ENCODING 178
SWIDTH 1000 0
DWIDTH 24 0
BBX 24 24 0 -3
BITMAP
1c0cc0
188cc8
184cce
186ccc
186cd0
1b0cc0
fffffe
182020
181830
180840
18fffc
1a0300
1c0300
f8fffc
780300
580306
1bffff
180680
180c40
180c60
181838
18301f
f8c00e
330006
ENDCHAR
STARTCHAR ch-185
ENCODING 185
SWIDTH 1000 0
DWIDTH 24 0
BBX 24 24 0 -3
BITMAP
1c0208
18210e
18119c
181998
181830
1b4026
ffffff
18c006
18c004
183ff8
183018
1b3018
3c3ff8
f83018
783018
583ff8
183018
183018
183ff8
180cc2
180cc2
1818c3
f830ff
31c07e
ENDCHAR
STARTCHAR ch-187
ENCODING 187
SWIDTH 1000 0
DWIDTH 24 0
BBX 24 24 0 -3
BITMAP
1c00e0
1900c0
18c0c4
186ffe
1860c0
1b00c2
ff9fff
180210
180110
180124
186ffe
1bf0c0
1c60c8
f867fc
7860c0
5860c2
187fff
1860c0
1860c0
1860c0
18f000
1f9fff
fb07fe
320000
ENDCHAR
STARTCHAR ch-188
ENCODING 188
SWIDTH 1000 0
DWIDTH 24 0
BBX 24 24 0 -3
BITMAP
1c01d0
18018c
188184
18fffe
188180
1a8190
ffbd9c
188098
1880b0
18bce0
1aa442
1ca4e2
39bdb2
f9031b
790c0f
5a0006
180800
180610
18bb0c
18b326
19b023
1b3033
fb3ff0
301fe0
ENDCHAR
STARTCHAR ch-193
ENCODING 193
SWIDTH 1000 0
DWIDTH 24 0
BBX 24 24 0 -3
BITMAP
1c0380
180300
180306
19ffff
182100
1a31c8
ff218c
184188
1a5112
199bff
18b220
1e2620
f84a24
7853fe
589a20
1bfa20
191224
1833fe
182220
186220
184220
188222
f903ff
320200
ENDCHAR
STARTCHAR ch-194
ENCODING 194
SWIDTH 1000 0
DWIDTH 24 0
BBX 24 24 0 -3
BITMAP
1c0030
183ff8
180300
184306
187fff
1ac306
ffc304
183b70
180300
180300
187b78
1b0300
1c0300
f8400c
787ffe
58630c
18630c
18630c
187ffc
18630c
18630c
18630c
f87ffc
30600c
ENDCHAR
STARTCHAR ch-197
ENCODING 197
SWIDTH 1000 0
DWIDTH 24 0
BBX 24 24 0 -3
BITMAP
0e0380
0c0306
0cffff
0c0000
0c3ff8
0da008
ffe7c8
0c2448
0c2448
0c27c8
0c2008
0dbff8
1e0000
fc1ff0
6c1830
4c1830
0c1ff0
0c1830
0c1830
0c1ff0
0c1830
0c0006
7dffff
180000
ENDCHAR
STARTCHAR ch-199
ENCODING 199
SWIDTH 1000 0
DWIDTH 24 0
BBX 24 24 0 -3
BITMAP
0e2006
0c3fff
0c3246
0c3246
0c3246
0d3ffe
ff8180
0c0184
0c3ffe
0c0180
0d0182
0e7fff
1c0810
fc0410
6c0422
4c7fff
0c0180
0c0180
0c0184
0c3ffe
0c0180
0c0180
7c0180
180180
ENDCHAR
STARTCHAR ch-205
ENCODING 205
SWIDTH 1000 0
DWIDTH 24 0
BBX 24 24 0 -3
BITMAP
0e0830
0c0ff8
0c0c30
0c0c30
0c0c30
0d8ff0
ffc000
0c0000
0c3e7c
0c2244
0c2244
0da244
1e3e7c
fc0180
6c0186
4cffff
0c0380
0c07c0
0c05a0
0c0db8
0c199f
0c318e
7cc186
180180
ENDCHAR
STARTCHAR ch-210
ENCODING 210
SWIDTH 1000 0
DWIDTH 24 0
BBX 24 24 0 -3
BITMAP
0e0180
0c0380
0c0340
0c0620
0d8c30
ffd99c
0c318f
0ccff6
0c0000
0c1a58
0c1998
0d9a58
1e1818
fc1ff8
6c0180
4c4106
0c7fff
0c6306
0c6226
0c6ff6
0c6736
0c6006
7c603e
18600c
ENDCHAR
STARTCHAR ch-212
ENCODING 212
SWIDTH 1000 0
DWIDTH 24 0
BBX 24 24 0 -3
BITMAP
0e0800
0c0c60
0c1ff0
0c10c0
0c2086
0d7fff
ffe660
0c6660
0c6c7e
0c683e
0c7000
0d67f8
1e6000
fc7fff
6c6000
4c67f8
0c6000
0c67f8
0c4000
0ccffc
0c8c0c
0c8c0c
7d0ffc
180c0c
ENDCHAR
STARTCHAR ch-216
ENCODING 216
SWIDTH 1000 0
DWIDTH 24 0
BBX 24 24 0 -3
BITMAP
1060e0
1ff0c0
1860c4
186ffe
186210
1fe110
180124
180ffe
1fe0c0
3c60c4
2c6ffe
2c60c0
4fe0c0
8c60c0
000700
07ff80
001800
3ffffc
001800
ffffff
001800
001800
00f800
003000
ENDCHAR
STARTCHAR ch-218
ENCODING 218
SWIDTH 1000 0
DWIDTH 24 0
BBX 24 24 0 -3
BITMAP
1c0380
180300
1803f8
184302
187fff
1b6306
ffe3e4
187f00
186304
1861fc
186000
1b6ffc
1c6100
f86384
786c86
5861cc
186668
1858d0
18c1d8
18c34c
188c4f
18b046
f903c0
300180
ENDCHAR
STARTCHAR ch-224
ENCODING 224
SWIDTH 1000 0
DWIDTH 24 0
BBX 24 24 0 -3
BITMAP
1c01c0
180180
180186
18ffff
1a0480
ff02c6
187abc
182928
182928
18692c
1a4934
1c5967
388102
f83018
783018
583ff8
183018
183018
183ff8
183018
186018
186018
f8c018
310018
ENDCHAR
STARTCHAR ch-225
ENCODING 225
SWIDTH 1000 0
DWIDTH 24 0
BBX 24 24 0 -3
BITMAP
1c0380
18030c
18fffe
180300
187ffc
1b0000
ffbff0
182010
183ff0
188006
18ffff
198006
1dbff4
f80c40
780830
58fff8
187018
180380
180300
187ffc
180300
180306
f9ffff
300000
ENDCHAR
STARTCHAR ch-226
ENCODING 226
SWIDTH 1000 0
DWIDTH 24 0
BBX 24 24 0 -3
BITMAP
1c0606
18ff7f
180606
180606
187e7e
1a0606
ff0606
18fe7e
180606
181080
181ce0
1918cc
1e3ffe
f83080
787080
58bffc
193080
183080
183ffc
183080
183080
183086
f83fff
303000
ENDCHAR
STARTCHAR ch-227
ENCODING 227
SWIDTH 1000 0
DWIDTH 24 0
BBX 24 24 0 -3
BITMAP
0e0180
0c0100
0c7ffc
0c0100
0c0100
0d3ff8
ff8002
0c7fff
0c0002
0c1ff4
0c0100
0d8100
1e3ff8
fc0000
6cffff
4c0018
0c0018
0c7dff
0c4418
0c4598
0c4498
0c7c18
7c0078
180030
ENDCHAR
STARTCHAR ch-230
ENCODING 230
SWIDTH 1000 0
DWIDTH 24 0
BBX 24 24 0 -3
BITMAP
1c01c0
184180
184186
187fff
18d004
1ad988
ff1ffe
183346
182a44
184e28
18a430
182c18
1b181c
fc37ef
786006
598000
187ffe
180180
182180
183990
18318c
186186
f98786
300300
ENDCHAR
STARTCHAR ch-231
ENCODING 231
SWIDTH 1000 0
DWIDTH 24 0
BBX 24 24 0 -3
BITMAP
013000
13be18
1e30fc
183018
1f3ef8
180618
186618
1f66f8
186618
18661e
ffffff
030040
060620
0c1f30
19f81c
3018cf
c7ffe6
001800
001818
3ffffc
001800
001800
00f800
003000
ENDCHAR
STARTCHAR ch-236
ENCODING 236
SWIDTH 1000 0
DWIDTH 24 0
BBX 24 24 0 -3
BITMAP
1ce006
18cdff
18ce06
18d804
18e048
1ac430
ffc618
18fe18
187c06
1881ff
18c036
1ac034
1cfd30
f8b1b0
7931b2
5831bf
1bff30
186130
186130
185330
18dab0
189a70
f9043f
32080e
ENDCHAR
STARTCHAR ch-239
ENCODING 239
SWIDTH 1000 0
DWIDTH 24 0
BBX 24 24 0 -3
BITMAP
1c0380
184306
187fff
18c006
18dff4
1b0100
ff914c
1839e6
186386
180e00
18fff8
183018
1f3018
fc3ff8
783018
583018
183ff8
183018
183018
183ff8
181000
183c78
f8701e
318006
ENDCHAR
STARTCHAR ch-241
ENCODING 241
SWIDTH 1000 0
DWIDTH 24 0
BBX 24 24 0 -3
BITMAP
1c8446
18fe7f
18c446
18c446
18fc7e
1ac446
ffc446
18fc7e
18c406
18c646
18c7e6
1acc46
1ccac6
f8d186
78c2c6
58c47e
18d836
18c7c6
18c446
18c446
18c446
18c7c6
f8c01e
30c00c
ENDCHAR
STARTCHAR ch-242
ENCODING 242
SWIDTH 1000 0
DWIDTH 24 0
BBX 24 24 0 -3
BITMAP
1c8446
18467f
184866
19ff66
182866
1b2864
fffe64
18aa6c
18aa68
18ae68
18c264
188264
1efe66
f88266
788266
58fe66
183066
1bffe6
18307e
18286c
186460
184660
f88360
330360
ENDCHAR
STARTCHAR ch-244
ENCODING 244
SWIDTH 1000 0
DWIDTH 24 0
BBX 24 24 0 -3
BITMAP
1c01c0
180180
188186
18ffff
18c000
1ac220
ffdffe
18c220
18c220
18ffff
18c080
18c080
1ecffc
f8c884
78c884
58cffc
18c884
18c884
18cffc
188000
198400
190738
fa0e0e
303006
ENDCHAR
STARTCHAR ch-246
ENCODING 246
SWIDTH 1000 0
DWIDTH 24 0
BBX 24 24 0 -3
BITMAP
1c4040
186060
186262
18ff7f
18a0d0
19188c
ff8904
182040
181870
180866
19ffff
180000
1e860e
f8ff4c
78c64c
58c64c
18fe4c
18c64c
18c64c
18fe4c
18c60c
18c60c
f8de7c
30cc18
ENDCHAR
STARTCHAR ch-250
ENCODING 250
SWIDTH 1000 0
DWIDTH 24 0
BBX 24 24 0 -3
BITMAP
1c4006
187fff
186446
186446
186446
1b7ffe
ffa000
183860
183044
18224e
19ff70
18e342
1e8043
f87e7f
78423e
584200
187e60
184244
18424e
187e70
184242
184243
f84e7f
30463e
ENDCHAR
STARTCHAR ch-253
ENCODING 253
SWIDTH 1000 0
DWIDTH 24 0
BBX 24 24 0 -3
BITMAP
1c0200
188388
18430e
186fcc
186cc8
1a0cd0
ff0cc0
180fc0
181cd0
19eccc
18ccc6
188fc6
1e0000
fc0380
780306
59ffff
180f40
180f20
181b30
181b18
18331f
18630e
f98306
300300
ENDCHAR
STARTCHAR ch-254
ENCODING 254
SWIDTH 1000 0
DWIDTH 24 0
BBX 24 24 0 -3
BITMAP
1c0006
18ffff
180300
180200
181ff0
1b1010
ff9ff0
181010
189ff0
189016
19ffff
1f8204
f9ad88
782ca6
58cc33
18c7f3
180800
180ff0
181860
1824c0
18c380
1806e0
f8383f
31c006
ENDCHAR
STARTCHAR ch-256
ENCODING 256
SWIDTH 1000 0
DWIDTH 24 0
BBX 24 24 0 -3
BITMAP
060030
046620
051822
ffb5ff
1c4270
1600a8
35a4ac
649927
843422
044220
003006
ffffff
00e200
018180
060c70
18ff1f
e01806
07ffe0
001800
7ffffe
001800
001800
00f800
003000
ENDCHAR
STARTCHAR ch-261
ENCODING 261
SWIDTH 1000 0
DWIDTH 24 0
BBX 24 24 0 -3
BITMAP
1c1818
181010
18fe7e
181010
181010
19ffff
ff3030
182c28
18644c
18c087
193ffa
183018
1f3018
fc3ff8
783018
583018
183ff8
183018
183018
183ff8
180800
181c38
f8780e
31c006
ENDCHAR
STARTCHAR ch-280
ENCODING 280
SWIDTH 1000 0
DWIDTH 24 0
BBX 24 24 0 -3
BITMAP
1c01c0
180180
180186
18ffff
180800
1b0e30
ff9c0c
183006
18c446
183ff8
180440
180440
1b3ff8
fc0440
780446
58ffff
180c88
18188c
186858
1b8860
1809b0
187e1f
f8380e
302006
ENDCHAR
STARTCHAR ch-284
ENCODING 284
SWIDTH 1000 0
DWIDTH 24 0
BBX 24 24 0 -3
BITMAP
1c738e
18630c
18630c
187ffc
181080
1b18c0
ffbffc
182100
187ff8
18a100
183ff8
182100
1b3ffe
fc0000
78fffe
58c446
18cc46
18d83e
18e7c6
18c446
18c446
18c7c6
f8c03e
30c00c
ENDCHAR
STARTCHAR ch-285
ENCODING 285
SWIDTH 1000 0
DWIDTH 24 0
BBX 24 24 0 -3
BITMAP
0e0018
0c7ffc
0c0820
0c0fe0
0c0820
0d8820
ffcfe0
0c0820
0c083c
0c7fe0
0d3820
0e0606
1dffff
fc4444
6c4444
4c7c7c
0c4444
0c4444
0c7c7c
0c4444
0c4444
0dfdfc
7cc4c4
180404
ENDCHAR
STARTCHAR ch-291
ENCODING 291
SWIDTH 1000 0
DWIDTH 24 0
BBX 24 24 0 -3
BITMAP
080008
0c7e0c
580058
64ff64
260026
0c7e0c
120012
ff7eff
690069
087e08
2a424c
39426b
697e49
880088
080708
03ff80
001800
3ffffc
001800
ffffff
001800
001800
00f800
003000
ENDCHAR
STARTCHAR ch-292
ENCODING 292
SWIDTH 1000 0
DWIDTH 24 0
BBX 24 24 0 -3
BITMAP
1c6640
184474
184466
19ff64
184448
1a447e
ff0048
18fec8
1892c8
189348
18927e
18fe48
1e1048
f81048
78fe48
581048
18107e
19ff48
183048
182848
186648
18434a
f8837f
310040
ENDCHAR
STARTCHAR ch-298
ENCODING 298
SWIDTH 1000 0
DWIDTH 24 0
BBX 24 24 0 -3
BITMAP
1c0800
185c0c
1872be
184104
18729c
1b4004
fff29c
184104
184284
18ffff
188006
1d8004
39bff8
f82008
783ff8
582008
183ff8
182008
183ff8
180c62
180c62
181863
f8307f
30c03e
ENDCHAR
STARTCHAR ch-299
ENCODING 299
SWIDTH 1000 0
DWIDTH 24 0
BBX 24 24 0 -3
BITMAP
1c4444
187e7e
184444
187c7c
184444
1b7c7c
ffc444
187c7c
181080
1818c0
183ffc
182100
1e7ff8
fca100
793ff8
582100
183ffe
180000
187ff8
180830
1804e0
180380
f81cff
31e01e
ENDCHAR
STARTCHAR ch-300
ENCODING 300
SWIDTH 1000 0
DWIDTH 24 0
BBX 24 24 0 -3
BITMAP
1c8440
18fe70
189060
189066
18fcff
1a8480
ff8500
18fc0c
18907e
189000
18fe00
180000
1b7ff8
fc4008
787ff8
584008
187ff8
184008
187ff8
1818c2
1818c2
1830c3
f860ff
31807e
ENDCHAR
STARTCHAR ch-303
ENCODING 303
SWIDTH 1000 0
DWIDTH 24 0
BBX 24 24 0 -3
BITMAP
001c00
001800
001800
001800
001806
ffffff
001800
001800
001800
001800
001860
1ffff0
010060
0080c0
0080c0
004180
006300
003600
001c00
003700
0063e0
0180ff
0e003e
f0000c
ENDCHAR
STARTCHAR ch-308
ENCODING 308
SWIDTH 1000 0
DWIDTH 24 0
BBX 24 24 0 -3
BITMAP
001c00
001800
001800
001800
001818
001ffc
001800
001800
001800
001830
1ffff8
020030
010060
010060
0080c0
00c180
006300
003600
001c00
003700
0063e0
0180ff
0e003e
f0000c
ENDCHAR
STARTCHAR ch-309
ENCODING 309
SWIDTH 1000 0
DWIDTH 24 0
BBX 24 24 0 -3
BITMAP
010000
01c000
018000
038000
030000
060006
07ffff
0c0080
0a00e0
1200c0
2100c0
410180
008180
00c300
006300
003600
001c00
001e00
003700
0063c0
01c1f0
03007f
1c003e
e0000c
ENDCHAR
STARTCHAR ch-310
ENCODING 310
SWIDTH 1000 0
DWIDTH 24 0
BBX 24 24 0 -3
BITMAP
01c200
018380
018300
018300
398300
318606
3187ff
318420
318c38
318a30
319230
31a230
318360
318160
318140
3381c0
3d8080
f181c0
618160
418330
018238
01841f
01880e
01b006
ENDCHAR
STARTCHAR ch-311
ENCODING 311
SWIDTH 1000 0
DWIDTH 24 0
BBX 24 24 0 -3
BITMAP
000400
006700
fff600
180600
180600
180606
380fff
300c20
318838
3fd830
619430
61a430
018260
018260
018140
0181c0
038080
0301c0
030160
070330
060638
0e0c1f
7c180e
186006
ENDCHAR
STARTCHAR ch-312
ENCODING 312
SWIDTH 1000 0
DWIDTH 24 0
BBX 24 24 0 -3
BITMAP
040400
070700
060600
0e0600
0dc600
0d8606
198fff
198c20
398838
399830
599430
99a430
198260
198260
198140
1981c0
198080
1981c0
198160
198330
198638
180c1f
18180e
186006
ENDCHAR
STARTCHAR ch-313
ENCODING 313
SWIDTH 1000 0
DWIDTH 24 0
BBX 24 24 0 -3
BITMAP
000400
000700
018600
ffc600
018406
018fff
018c10
01881c
019818
419418
7fa418
618430
600230
600230
600260
600160
6001c0
608080
6081c0
70c360
7fc638
3f8c1f
00300e
00c006
ENDCHAR
STARTCHAR ch-315
ENCODING 315
SWIDTH 1000 0
DWIDTH 24 0
BBX 24 24 0 -3
BITMAP
000800
000e00
000c00
018c00
ffd800
0c1806
0c1fff
0c3020
0c2838
0c4830
0c8830
0c0460
0c0460
0c0640
0cc2c0
0f0380
fc0180
7003c0
4006e0
000c70
001838
00301f
00c00e
070006
ENDCHAR
STARTCHAR ch-318
ENCODING 318
SWIDTH 1000 0
DWIDTH 24 0
BBX 24 24 0 -3
BITMAP
070200
060380
060300
060300
063300
fffb06
0607ff
060610
06041c
066c18
07ea38
0c7230
0c6230
0c6160
0c6160
0861c0
08e080
18c1c0
10c160
10c330
31c238
21841f
4f880e
833006
ENDCHAR
STARTCHAR ch-319
ENCODING 319
SWIDTH 1000 0
DWIDTH 24 0
BBX 24 24 0 -3
BITMAP
000200
003380
fffb00
030300
030300
030306
3b07ff
330610
33641c
33fc18
330a18
331218
332230
330130
330120
3301e0
3300c0
3331c0
33c160
3f0330
fc0638
700c1f
40180e
006006
ENDCHAR
STARTCHAR ch-325
ENCODING 325
SWIDTH 1000 0
DWIDTH 24 0
BBX 24 24 0 -3
BITMAP
070200
060380
060300
060300
060300
066306
fff7ff
060610
06041c
060c18
060a18
26d230
3fe230
30c160
30c160
30c0c0
30c080
30c1c0
30c160
30c330
3fc638
300c1f
30300e
00c006
ENDCHAR
STARTCHAR ch-328
ENCODING 328
SWIDTH 1000 0
DWIDTH 24 0
BBX 24 24 0 -3
BITMAP
070100
0601c0
060180
063180
fff980
000106
1083ff
1c6310
18321c
303618
310518
61c918
5181b0
8d80b0
0700a0
0300e0
078040
06c0e0
0c60a0
0c71b0
183118
30021f
60040e
801806
ENDCHAR
STARTCHAR ch-333
ENCODING 333
SWIDTH 1000 0
DWIDTH 24 0
BBX 24 24 0 -3
BITMAP
0300e0
0300c0
0680c0
0660c0
0c30c6
0818ff
1818c0
1060c0
3ff0c0
4300cc
830ffe
03320c
7ffa0c
030118
230118
3b40b0
3330e0
331840
2318e0
6318b0
4301b8
83031f
1f060e
061806
ENDCHAR
STARTCHAR ch-335
ENCODING 335
SWIDTH 1000 0
DWIDTH 24 0
BBX 24 24 0 -3
BITMAP
100100
1c01c0
180180
101980
3ffd00
200306
4003ff
9ff210
19361c
193518
193918
193118
193130
fffcb0
3260a0
3260e0
326040
326040
3268e0
7ffcb0
60c138
00c21f
07c40e
019806
ENDCHAR
STARTCHAR ch-337
ENCODING 337
SWIDTH 1000 0
DWIDTH 24 0
BBX 24 24 0 -3
BITMAP
074100
0631c0
063180
060180
063180
fffb00
060306
0603ff
464210
26761c
366518
368918
360118
060130
0700b0
0ec0b0
3660e0
e63040
6630e0
4600b0
060198
06031f
3e0c0e
0c3006
ENDCHAR
STARTCHAR ch-341
ENCODING 341
SWIDTH 1000 0
DWIDTH 24 0
BBX 24 24 0 -3
BITMAP
070100
0601c0
061980
fffd80
060180
060106
4633ff
7ffb10
66321c
663618
663518
663918
7ff1b0
6630b0
0e00a0
0f00e0
1ec040
1660e0
3630a0
2631b0
460118
86021f
06040e
061806
ENDCHAR
STARTCHAR ch-342
ENCODING 342
SWIDTH 1000 0
DWIDTH 24 0
BBX 24 24 0 -3
BITMAP
070200
060380
066300
7ff300
060200
060606
0637ff
fffc20
000a38
071230
060230
063230
fffb60
0c0160
0c6140
0ff1c0
0c6080
1861c0
186160
10e330
30c238
21c41f
4f880e
833006
ENDCHAR
STARTCHAR ch-343
ENCODING 343
SWIDTH 1000 0
DWIDTH 24 0
BBX 24 24 0 -3
BITMAP
20c200
3fe380
30c300
30c300
30c300
30c606
3fc7ff
30c420
30cc38
30ca30
30d230
3fc230
30c260
30c160
30c140
30c1c0
3fc080
0001c0
110160
1c8330
18c63c
30cc1f
60180e
806006
ENDCHAR
STARTCHAR ch-344
ENCODING 344
SWIDTH 1000 0
DWIDTH 24 0
BBX 24 24 0 -3
BITMAP
030100
0301c0
068180
066180
0c3180
081b06
181bff
106210
3ff61c
430518
830918
033118
7ff930
0300b0
2300a0
3b40e0
333040
3318e0
2318a0
6319b0
430118
83021f
1f040e
061806
ENDCHAR
STARTCHAR ch-345
ENCODING 345
SWIDTH 1000 0
DWIDTH 24 0
BBX 24 24 0 -3
BITMAP
072100
0639c0
063180
063180
7fe180
066306
0643ff
068210
fff61c
010418
026a18
fff218
046230
084130
328160
c33160
03c0c0
ff00c0
7301a0
430330
030618
030c1f
1f180e
066006
ENDCHAR
STARTCHAR ch-349
ENCODING 349
SWIDTH 1000 0
DWIDTH 24 0
BBX 24 24 0 -3
BITMAP
038100
8311c0
431d80
631980
333180
332186
3341ff
030110
431b1c
7ffa18
430d18
430918
4b4930
4b48b0
4b48a0
4b48e0
4b4840
4b48e0
4b48a0
4308b0
430998
43091f
437a0e
403406
ENDCHAR
STARTCHAR ch-350
ENCODING 350
SWIDTH 1000 0
DWIDTH 24 0
BBX 24 24 0 -3
BITMAP
038100
8311c0
431d80
631980
333180
332186
3341ff
030110
431b1c
7ffa18
601d18
601918
679930
6498b0
6498a0
6498e0
649840
6498e0
6798a0
6018b0
601998
60191f
60fa0e
603406
ENDCHAR
STARTCHAR ch-354
ENCODING 354
SWIDTH 1000 0
DWIDTH 24 0
BBX 24 24 0 -3
BITMAP
000100
0031c0
7ff980
030180
030180
031b06
ffffff
186310
18621c
186618
1fe518
186918
186130
1860b0
1fe0a0
1860e0
186040
1860e0
1860a0
1be0b0
fe6198
78611f
40620e
006c06
ENDCHAR
STARTCHAR ch-355
ENCODING 355
SWIDTH 1000 0
DWIDTH 24 0
BBX 24 24 0 -3
BITMAP
1ce100
18c1c0
18c180
7ff180
18c180
18c306
18c3ff
fffa10
00061c
000518
3fe918
306118
306118
3fe0b0
3060b0
3060e0
306060
3fe040
3060e0
3060b0
306198
30631f
33e60e
30d806
ENDCHAR
STARTCHAR ch-358
ENCODING 358
SWIDTH 1000 0
DWIDTH 24 0
BBX 24 24 0 -3
BITMAP
038100
0301c0
031980
fffd80
000180
000306
1fe3ff
186210
18661c
1fe518
000918
000118
7ff110
006130
0280b0
0300a0
03f0e0
ff0040
7300e0
4300b0
030118
03021f
1f0c0e
063006
ENDCHAR
STARTCHAR ch-364
ENCODING 364
SWIDTH 1000 0
DWIDTH 24 0
BBX 24 24 0 -3
BITMAP
0ee100
0cc1c0
0cc980
fffd80
0cc180
0cc186
0cc1ff
100110
18331c
1ffa18
303218
203518
7f3930
513130
9130b0
1130a0
113060
1f3040
1160e0
1060b0
006198
00c31f
07c60e
019806
ENDCHAR
STARTCHAR ch-368
ENCODING 368
SWIDTH 1000 0
DWIDTH 24 0
BBX 24 24 0 -3
BITMAP
43a100
3339c0
1b3180
1b2180
034180
fffb06
0703ff
0f8210
0b661c
1b2518
330918
c31118
060130
0618b0
fffca0
0c60e0
186040
18c0e0
36c0a0
3181b0
037118
06321f
18040e
e01806
ENDCHAR
STARTCHAR ch-370
ENCODING 370
SWIDTH 1000 0
DWIDTH 24 0
BBX 24 24 0 -3
BITMAP
0700e0
0600c0
0618c0
fffcc0
0000c6
0000ff
1fc0c0
1040c0
1040c0
1fc0cc
0007fe
40320c
7ffa0c
603118
603118
6fb0b0
68b0e0
68b040
68b0e0
6fb0b0
6031b8
60311f
61f20e
606c06
ENDCHAR
STARTCHAR ch-372
ENCODING 372
SWIDTH 1000 0
DWIDTH 24 0
BBX 24 24 0 -3
BITMAP
038100
0319c0
fffd80
030106
0303ff
3ff210
231518
2318b0
3ff0e0
030040
07c0e0
0f31b8
33331f
c30c06
030000
000018
3ffffc
001800
071800
061ff0
061800
061806
ffffff
000000
ENDCHAR
STARTCHAR ch-373
ENCODING 373
SWIDTH 1000 0
DWIDTH 24 0
BBX 24 24 0 -3
BITMAP
038080
0300e0
0318c0
fffcc0
1080c0
08e080
0cc186
0c81ff
411910
7ffb1c
601a18
631d18
6fd910
6318b0
6318b0
6798a0
649860
649860
649850
6498d0
679898
60190f
607a0e
603406
ENDCHAR
STARTCHAR ch-375
ENCODING 375
SWIDTH 1000 0
DWIDTH 24 0
BBX 24 24 0 -3
BITMAP
03a100
0331c0
031180
fffd80
030100
3ff306
2313ff
231210
3ff61c
231518
231918
3ff110
0000b0
0700a0
0630e0
fff840
0c00e0
0c60a0
0ff0b0
086118
18611c
10c20f
23c40e
c19806
ENDCHAR
STARTCHAR ch-376
ENCODING 376
SWIDTH 1000 0
DWIDTH 24 0
BBX 24 24 0 -3
BITMAP
038100
0301c0
3ff180
231180
231180
ffff06
2313ff
231210
3ff61c
030518
3ff118
231118
231130
3ff0b0
0600a0
060ce0
fffe40
0c60e0
18c0a0
3ec0b0
338198
06f11f
0c320e
700c06
ENDCHAR
STARTCHAR ch-386
ENCODING 386
SWIDTH 1000 0
DWIDTH 24 0
BBX 24 24 0 -3
BITMAP
060100
0601c0
0d0180
0cc180
186180
103306
21b3ff
5fc310
80021c
000618
79e518
492918
492130
4920b0
4920a0
79e0e0
000040
2080e0
38e0a0
30c1b0
30c118
6db21f
45140e
820806
ENDCHAR
STARTCHAR ch-387
ENCODING 387
SWIDTH 1000 0
DWIDTH 24 0
BBX 24 24 0 -3
BITMAP
072080
8638e0
6670c0
264186
0681ff
7ff210
46151c
4690b8
565060
5650f0
66119c
46760f
462006
000000
ffffff
030000
060708
0ff61e
183678
6667c0
02c602
038603
0e07ff
f003fe
ENDCHAR
STARTCHAR ch-391
ENCODING 391
SWIDTH 1000 0
DWIDTH 24 0
BBX 24 24 0 -3
BITMAP
001c00
001800
001800
001800
001806
ffffff
0100c0
0100c0
0100c0
008180
008180
00c180
004300
006300
003600
001c00
001c00
003600
006300
00c1c0
0180f0
06007f
18001e
e00004
ENDCHAR
STARTCHAR ch-392
ENCODING 392
SWIDTH 1000 0
DWIDTH 24 0
BBX 24 24 0 -3
BITMAP
001c00
001800
001806
ffffff
0200c0
0101c0
00c380
006700
003c00
007700
01c3f0
0f00ff
f0001e
07ffc0
000180
000300
001400
001806
ffffff
001800
001800
001800
00f800
003000
ENDCHAR
STARTCHAR ch-393
ENCODING 393
SWIDTH 1000 0
DWIDTH 24 0
BBX 24 24 0 -3
BITMAP
001c00
001800
00180c
7ffffe
008180
004300
002600
001c00
003780
01c1ff
0f007e
f30060
030060
03ffe0
030060
030060
030060
03ffe0
060060
060060
0c0060
180060
300060
c00060
ENDCHAR
STARTCHAR ch-396
ENCODING 396
SWIDTH 1000 0
DWIDTH 24 0
BBX 24 24 0 -3
BITMAP
0000e0
0e00c8
0c04c4
0c3ec6
0c00c6
0cc0c0
ffe0c0
0300c6
037fff
2304c0
1204c0
0a24c0
0e2440
042460
0e2760
0b2460
19a422
11a432
31a432
20241a
40279a
81fc0e
00e007
008003
ENDCHAR
STARTCHAR ch-398
ENCODING 398
SWIDTH 1000 0
DWIDTH 24 0
BBX 24 24 0 -3
BITMAP
001c00
001800
001806
ffffff
010380
008700
006e00
003800
00ef80
0781ff
fc003e
0c0030
0cff30
0c0030
0c0030
0dffb0
0c1830
091830
19da30
119930
3319b0
2219b0
447830
803030
ENDCHAR
STARTCHAR ch-400
ENCODING 400
SWIDTH 1000 0
DWIDTH 24 0
BBX 24 24 0 -3
BITMAP
007380
006300
006304
7fe3fe
006300
006308
3fe3fc
006300
006302
ffc3ff
78c300
418300
030300
0c1800
001806
ffffff
010180
008300
006600
001c00
007780
01c1fe
0f007c
f0000c
ENDCHAR
STARTCHAR ch-401
ENCODING 401
SWIDTH 1000 0
DWIDTH 24 0
BBX 24 24 0 -3
BITMAP
001c00
031806
ff98ff
181830
181830
19ffb0
180030
180430
1a8730
7f4630
182c34
182dfe
181830
181830
181c30
183630
192630
1e6330
f8c330
618330
430030
040036
0003ff
000000
ENDCHAR
STARTCHAR ch-407
ENCODING 407
SWIDTH 1000 0
DWIDTH 24 0
BBX 24 24 0 -3
BITMAP
000380
020300
018300
00c300
006300
006300
000300
100300
0c0300
060300
030300
030300
000300
000306
00033f
001fc0
07e300
f80300
000300
000300
000300
000300
000300
000300
ENDCHAR
STARTCHAR ch-409
ENCODING 409
SWIDTH 1000 0
DWIDTH 24 0
BBX 24 24 0 -3
BITMAP
07001c
064418
467318
266198
364198
368018
060018
066818
fff618
060318
060318
0f0018
0ec018
1e601a
16601f
360078
260798
463818
860018
060018
060018
060018
060018
060018
ENDCHAR
STARTCHAR ch-411
ENCODING 411
SWIDTH 1000 0
DWIDTH 24 0
BBX 24 24 0 -3
BITMAP
10001c
1c0018
198418
1fc318
318198
210198
626018
bff018
326418
326318
326198
3fe198
326018
32601a
32601f
3fe1f8
306f18
306018
306018
306018
206018
606018
43e018
80c018
ENDCHAR
STARTCHAR ch-412
ENCODING 412
SWIDTH 1000 0
DWIDTH 24 0
BBX 24 24 0 -3
BITMAP
03001c
030418
068318
066198
0c3198
181818
101818
20c018
5fe418
830318
030198
033198
7ff81a
03001f
030038
2341d8
3b2618
333018
331818
631818
431818
830018
1f0018
060018
ENDCHAR
STARTCHAR ch-415
ENCODING 415
SWIDTH 1000 0
DWIDTH 24 0
BBX 24 24 0 -3
BITMAP
1ce01c
18c018
18c918
fffc98
18c0d8
18c0d8
1fc0d8
18c018
18c218
1fc118
18c198
18c198
18c998
fffc1a
66c01f
66c0f8
64c798
6cf018
687018
700018
600818
7ffc18
600018
600018
ENDCHAR
STARTCHAR ch-417
ENCODING 417
SWIDTH 1000 0
DWIDTH 24 0
BBX 24 24 0 -3
BITMAP
0e00e0
0c00c0
0c60c0
fff1a0
0c01a0
4cc310
7fe318
60c60c
60c40f
60ca36
7fd130
60c1b0
60c1b0
60c830
7fc430
6cc630
0c0636
0c603f
fff0f0
0c07b0
0c1c30
0c0030
0c0030
0c0030
ENDCHAR
STARTCHAR ch-420
ENCODING 420
SWIDTH 1000 0
DWIDTH 24 0
BBX 24 24 0 -3
BITMAP
000070
0003f8
083f80
0fe000
0c0000
0c0000
0c0000
0c0006
0fffff
0c0600
0c0600
0c0600
0c0600
0c0600
0c0600
180600
180600
180600
100600
300600
200600
400600
800600
000600
ENDCHAR
STARTCHAR ch-421
ENCODING 421
SWIDTH 1000 0
DWIDTH 24 0
BBX 24 24 0 -3
BITMAP
000070
0003f8
103f80
1fe000
180000
180000
180000
180006
1fffff
180600
180600
180600
18e600
181e00
1807c0
1006f0
300638
300618
200600
600600
400600
800600
000600
000600
ENDCHAR
STARTCHAR ch-423
ENCODING 423
SWIDTH 1000 0
DWIDTH 24 0
BBX 24 24 0 -3
BITMAP
010000
01c180
018070
03011c
0643ce
183706
601c00
003600
00e3c0
0380ff
1c063e
e43f06
07f000
060000
06000c
07fffe
0c0600
0c0600
180600
100600
200600
400600
800600
000600
ENDCHAR
STARTCHAR ch-427
ENCODING 427
SWIDTH 1000 0
DWIDTH 24 0
BBX 24 24 0 -3
BITMAP
00000c
00603e
fff4f0
0c0780
0c0600
0c0600
0c0600
180606
1807ff
10c630
3fe630
38c630
78c630
58c630
98c630
18c630
18cc30
18cc30
1fcc30
18c830
18d830
181030
002030
000030
ENDCHAR
STARTCHAR ch-428
ENCODING 428
SWIDTH 1000 0
DWIDTH 24 0
BBX 24 24 0 -3
BITMAP
070006
06000f
06623c
fff3e0
060300
466300
7ff300
666300
666306
6663ff
7fe318
666318
666318
666318
7fe318
666318
060318
066618
fff618
060418
060c18
060818
061018
062018
ENDCHAR
STARTCHAR ch-429
ENCODING 429
SWIDTH 1000 0
DWIDTH 24 0
BBX 24 24 0 -3
BITMAP
71c00c
61823e
6993e0
659b00
659300
65a300
618300
618306
6ff3ff
618318
618318
63c318
63a318
65b318
65b318
698318
718218
618218
618218
600618
606418
7ff418
600818
600018
ENDCHAR
STARTCHAR ch-431
ENCODING 431
SWIDTH 1000 0
DWIDTH 24 0
BBX 24 24 0 -3
BITMAP
1c7006
18621f
1863e0
186300
ffff00
186300
186300
186306
1fe3ff
186318
186318
186318
1fe318
186318
186318
186318
ffff18
000318
108318
1c6218
183618
303418
600818
801018
ENDCHAR
STARTCHAR ch-432
ENCODING 432
SWIDTH 1000 0
DWIDTH 24 0
BBX 24 24 0 -3
BITMAP
03800c
03023e
0333e0
7ffb00
104300
087300
0c6300
0c4306
009bff
ffff18
030318
030318
031b18
ffff18
070318
0f8318
0f6618
1b3618
1b3418
330c18
630818
831018
032018
030018
ENDCHAR
STARTCHAR ch-439
ENCODING 439
SWIDTH 1000 0
DWIDTH 24 0
BBX 24 24 0 -3
BITMAP
72100c
62101e
6c6138
6529e0
621180
642180
652980
7ffd86
6885ff
600198
7ffd98
621198
621198
6c6198
652998
621198
642198
652998
7ffd98
688518
600118
7ffb18
600218
600418
ENDCHAR
STARTCHAR ch-441
ENCODING 441
SWIDTH 1000 0
DWIDTH 24 0
BBX 24 24 0 -3
BITMAP
003800
003000
003000
003000
003006
ffffff
006000
006000
006000
006000
006060
007ff0
006060
006060
00c060
00c060
00c060
018060
018060
0300e0
0600c0
0c01c0
180f80
600300
ENDCHAR
STARTCHAR ch-444
ENCODING 444
SWIDTH 1000 0
DWIDTH 24 0
BBX 24 24 0 -3
BITMAP
0700c0
0600c0
0600c0
0601a0
0661a0
fff1a0
0c0110
0c0310
0c0218
0cc60c
0fe40f
0cc906
0cd0c6
0ce060
18c030
18c030
18c000
18c200
30c180
3180e0
218070
618038
4f8018
830018
ENDCHAR
STARTCHAR ch-445
ENCODING 445
SWIDTH 1000 0
DWIDTH 24 0
BBX 24 24 0 -3
BITMAP
0e0200
0c0380
0c0300
0c0300
0cc606
ffe7ff
180c00
1808e0
1810c0
198ecc
1fccde
198dec
198ecc
198ccc
19bccc
198ccc
198cfc
318ccc
318cc0
318cc2
230c02
630c03
4f0fff
8607fe
ENDCHAR
STARTCHAR ch-449
ENCODING 449
SWIDTH 1000 0
DWIDTH 24 0
BBX 24 24 0 -3
BITMAP
001c00
001800
00180c
7ffffe
010100
00c1c0
106180
106206
3fffff
300006
601c04
601800
00180c
7ffffe
006000
006060
007ff0
006060
00c060
00c060
0180e0
0300c0
0c07c0
300180
ENDCHAR
STARTCHAR ch-451
ENCODING 451
SWIDTH 1000 0
DWIDTH 24 0
BBX 24 24 0 -3
BITMAP
0e0400
0c0700
0c0600
0c0600
0ccc06
ffefff
181800
181000
18280c
198ffe
1fcccc
198ccc
198ccc
198ccc
198ccc
19bfff
198c0c
318c0c
318c0c
318c0c
230c0c
630c0c
4f0c7c
860c18
ENDCHAR
STARTCHAR ch-452
ENCODING 452
SWIDTH 1000 0
DWIDTH 24 0
BBX 24 24 0 -3
BITMAP
0e0400
0c0700
0c0600
0c0c06
0ccfff
fff800
181000
182030
1801f8
199f80
1fc180
19818c
199ffe
198180
198180
198186
19bfff
318180
318180
318182
230182
630183
4f01ff
8600fe
ENDCHAR
STARTCHAR ch-453
ENCODING 453
SWIDTH 1000 0
DWIDTH 24 0
BBX 24 24 0 -3
BITMAP
0e0400
0c0700
0c0600
0c0600
0ccc06
ffefff
181840
181070
1820e0
198180
1fc308
19860e
198f1c
19b760
198680
198680
118640
318660
318630
318638
23861f
63060e
4f0606
860600
ENDCHAR
STARTCHAR ch-454
ENCODING 454
SWIDTH 1000 0
DWIDTH 24 0
BBX 24 24 0 -3
BITMAP
0e0400
0c0700
0c0600
0c0600
0ccc06
ffefff
1808c0
1810c0
1800c6
19bfff
1fc0c0
1980c0
1990c6
199fff
1998c6
1998c6
1998c6
3198c6
3198c6
3198c6
2318de
6318cc
4f00c0
8600c0
ENDCHAR
STARTCHAR ch-459
ENCODING 459
SWIDTH 1000 0
DWIDTH 24 0
BBX 24 24 0 -3
BITMAP
0e0400
0c0700
0c0600
0c0600
0ccc06
ffefff
181800
181000
18200c
198ffe
1fc0cc
1980c8
198ec0
198cc0
198ccc
198cfe
198cc0
318cc0
318cc0
318ac0
2319c0
6310e0
4f207f
86401e
ENDCHAR
STARTCHAR ch-460
ENCODING 460
SWIDTH 1000 0
DWIDTH 24 0
BBX 24 24 0 -3
BITMAP
0e0400
0c0700
0c0600
0c0c06
0ccfff
fff800
181000
1824e0
1806c0
1986c0
1fcccc
198ffe
1988c0
1990c0
1980c0
1980cc
198ffe
3180c0
3180c0
3180c0
2300c0
6300c6
4f3fff
860000
ENDCHAR
STARTCHAR ch-463
ENCODING 463
SWIDTH 1000 0
DWIDTH 24 0
BBX 24 24 0 -3
BITMAP
0e0400
0c0700
0c0600
0c0c0c
0ccffe
fff800
181400
182700
180600
198418
1fcffc
198980
199180
198180
198186
19ffff
198180
318340
318340
318620
238638
630c1f
4f180e
866006
ENDCHAR
STARTCHAR ch-466
ENCODING 466
SWIDTH 1000 0
DWIDTH 24 0
BBX 24 24 0 -3
BITMAP
0e0800
0c0e00
0c0c0c
0c0ffe
0cd800
fff1c0
182188
181ffc
180300
198220
1fc418
19bffc
199e0c
198000
199930
199930
199930
319930
319930
319932
231132
633133
4f213f
86401e
ENDCHAR
STARTCHAR ch-471
ENCODING 471
SWIDTH 1000 0
DWIDTH 24 0
BBX 24 24 0 -3
BITMAP
0e0800
0c0e00
0c0c06
0c0fff
0c9800
ffd738
182630
180634
199ffe
1fc630
198630
1987f0
198630
198630
1987f0
198630
198630
318636
31bfff
318400
230710
63060c
5f0c06
863006
ENDCHAR
STARTCHAR ch-473
ENCODING 473
SWIDTH 1000 0
DWIDTH 24 0
BBX 24 24 0 -3
BITMAP
0e0018
0c01fc
0c1fc0
0c0088
0cc88c
ffe688
180290
180086
183fff
1983a0
1fc690
198498
19888f
19b086
198080
199ffc
199084
319084
319ffc
319084
231084
631084
4f1ffc
861004
ENDCHAR
STARTCHAR ch-475
ENCODING 475
SWIDTH 1000 0
DWIDTH 24 0
BBX 24 24 0 -3
BITMAP
0e0800
0c0e00
0c0c0c
0c0ffe
0cd800
fff060
1821f0
180788
18108c
198c88
1fc492
19bfff
1986a0
198490
198c98
19888c
199fff
31e88e
318888
318ff8
230888
630888
4f0ff8
860808
ENDCHAR
STARTCHAR ch-480
ENCODING 480
SWIDTH 1000 0
DWIDTH 24 0
BBX 24 24 0 -3
BITMAP
000000
000018
3ffffc
003000
003000
003000
003000
003000
003006
ffffff
003000
003000
003700
003600
006600
006600
006600
00c600
00c602
018602
030602
060603
1807ff
e003fe
ENDCHAR
STARTCHAR ch-481
ENCODING 481
SWIDTH 1000 0
DWIDTH 24 0
BBX 24 24 0 -3
BITMAP
000000
000030
3ffff8
060c00
060c00
060c00
060c00
060c00
060c00
060c06
ffffff
001800
001800
001f00
003600
003600
006600
006600
00c602
018602
030602
060603
1807ff
e003fe
ENDCHAR
STARTCHAR ch-482
ENCODING 482
SWIDTH 1000 0
DWIDTH 24 0
BBX 24 24 0 -3
BITMAP
20c000
3fe00c
30dffe
30c630
30c630
30c630
3fc630
30c630
30c630
30c630
30c636
3fffff
30c060
300060
3200f8
3100f0
3181b0
30c1b0
30e332
336332
fc6632
700c33
40183f
00601e
ENDCHAR
STARTCHAR ch-485
ENCODING 485
SWIDTH 1000 0
DWIDTH 24 0
BBX 24 24 0 -3
BITMAP
000000
080030
0ffff8
0c0030
0c0030
0c0030
0c0030
0c0030
0c0030
0c0030
0c0030
0ffff0
0c0030
0c0030
0c0030
0c0030
0c0030
0c0030
0c0030
0c0030
0c0030
0ffff0
0c0030
0c0030
ENDCHAR
STARTCHAR ch-486
ENCODING 486
SWIDTH 1000 0
DWIDTH 24 0
BBX 24 24 0 -3
BITMAP
040060
07fff0
060060
060060
060060
060060
060060
060060
07ffe0
060060
060060
060060
060060
060060
060060
060060
07ffe0
060060
060060
000000
000000
000006
ffffff
000000
ENDCHAR
STARTCHAR ch-487
ENCODING 487
SWIDTH 1000 0
DWIDTH 24 0
BBX 24 24 0 -3
BITMAP
380000
30400c
307ffe
30600c
30600c
30600c
30600c
30600c
30600c
30600c
30600c
307ffc
30600c
30600c
30600c
30600c
30600c
30600c
30600c
30600c
307ffc
30600c
30600c
300000
ENDCHAR
STARTCHAR ch-488
ENCODING 488
SWIDTH 1000 0
DWIDTH 24 0
BBX 24 24 0 -3
BITMAP
1c0000
1800c0
1803e0
183f00
1fe004
180004
180004
180006
1ffffe
0ffffc
000000
000000
040060
07fff0
060060
060060
060060
07ffe0
060060
060060
060060
060060
07ffe0
060060
ENDCHAR
STARTCHAR ch-489
ENCODING 489
SWIDTH 1000 0
DWIDTH 24 0
BBX 24 24 0 -3
BITMAP
080030
0ffff8
0c0030
0c0030
0c0030
0c0030
0ffff0
0c0030
0c0030
0c0030
0c0030
0ffff0
0c1830
001800
001800
001806
ffffff
001800
001800
001800
001800
001800
001800
001800
ENDCHAR
STARTCHAR ch-492
ENCODING 492
SWIDTH 1000 0
DWIDTH 24 0
BBX 24 24 0 -3
BITMAP
020000
038000
030000
06000c
07fffe
0c000c
0c000c
1a0c0c
13fe0c
230c0c
430c0c
830c0c
030c0c
03fc0c
030c0c
030c0c
030c0c
030c0c
03fc0c
030c1c
000018
000038
0001f0
000060
ENDCHAR
STARTCHAR ch-493
ENCODING 493
SWIDTH 1000 0
DWIDTH 24 0
BBX 24 24 0 -3
BITMAP
0e0000
0c0418
0c07fc
0c0618
0c6618
fff618
0c6618
0c6618
0c67f8
0c6618
0c6618
0c6618
0c6618
0c6618
1c6618
1867f8
18661a
18661a
106002
306002
207007
207fff
403ffe
800000
ENDCHAR
STARTCHAR ch-497
ENCODING 497
SWIDTH 1000 0
DWIDTH 24 0
BBX 24 24 0 -3
BITMAP
040060
07fff0
060060
060060
060060
07ffe0
060060
060060
060060
07ffe0
000000
000018
3ffffc
001800
001800
001806
ffffff
001800
001800
001800
001800
001800
001800
001800
ENDCHAR
STARTCHAR ch-506
ENCODING 506
SWIDTH 1000 0
DWIDTH 24 0
BBX 24 24 0 -3
BITMAP
000000
430006
7fbfff
630180
630180
630180
630180
630180
630180
630180
7f018c
633ffe
630180
630180
630180
630180
630180
630180
630180
7f0180
630180
600186
00ffff
000000
ENDCHAR
STARTCHAR ch-507
ENCODING 507
SWIDTH 1000 0
DWIDTH 24 0
BBX 24 24 0 -3
BITMAP
040060
07fff0
060060
060060
07ffe0
060060
060060
060060
07ffe0
060060
001c00
001806
ffffff
0100c0
0081c0
008180
004380
006700
003e00
001c00
003700
00e3e0
0780fe
78003c
ENDCHAR
ENDFONT
