STARTFONT 2.1
FONT jis.katakana.24
SIZE 24 72 72
FONTBOUNDINGBOX 24 24 0 -3
STARTPROPERTIES 4
FONT_DESCENT 3
FONT_ASCENT 21
DEFAULT_CHAR 0
COPYRIGHT "Copyright (c) 1992 AT&T - All rights reserved."
ENDPROPERTIES
CHARS 90
STARTCHAR ch-0
ENCODING 0
SWIDTH 1000 0
DWIDTH 24 0
BBX 24 24 0 -3
BITMAP
000000
000000
000000
000000
000000
000000
000000
000040
083fe0
07e060
0700f0
002300
001c00
001800
001800
001000
003000
003000
002000
006000
004000
008000
010000
000000
ENDCHAR
STARTCHAR ch-1
ENCODING 1
SWIDTH 1000 0
DWIDTH 24 0
BBX 24 24 0 -3
BITMAP
000000
000000
0000f0
21fffc
3fc01e
1c003e
003078
001cc0
000f00
000c00
000c00
001800
001800
001000
003000
002000
006000
004000
00c000
008000
010000
020000
040000
000000
ENDCHAR
STARTCHAR ch-2
ENCODING 2
SWIDTH 1000 0
DWIDTH 24 0
BBX 24 24 0 -3
BITMAP
000000
000000
000000
000000
000000
000000
000100
000180
000180
000300
000600
000c00
001800
003c00
006400
00c400
030400
000400
000400
000c00
000c00
000c00
000400
000000
ENDCHAR
STARTCHAR ch-3
ENCODING 3
SWIDTH 1000 0
DWIDTH 24 0
BBX 24 24 0 -3
BITMAP
000100
000180
0003c0
000380
000700
000600
000e00
001c00
003800
007800
00cc00
018c00
030c00
0c0c00
300c00
000c00
000c00
000c00
000c00
000c00
000c00
000c00
000800
000000
ENDCHAR
STARTCHAR ch-4
ENCODING 4
SWIDTH 1000 0
DWIDTH 24 0
BBX 24 24 0 -3
BITMAP
000000
000000
000000
000000
000000
000000
002000
001800
001800
021fe0
01f070
010060
030060
0300c0
0100c0
000180
000180
000300
000200
000400
000800
001000
002000
000000
ENDCHAR
STARTCHAR ch-5
ENCODING 5
SWIDTH 1000 0
DWIDTH 24 0
BBX 24 24 0 -3
BITMAP
000000
007000
003800
001800
001800
3018f0
1ffff8
0f803c
0c0038
0c0030
0c0070
0c0060
0c0060
0c00c0
0800c0
000180
000180
000300
000600
000400
000800
001000
002000
000000
ENDCHAR
STARTCHAR ch-6
ENCODING 6
SWIDTH 1000 0
DWIDTH 24 0
BBX 24 24 0 -3
BITMAP
000000
000000
000000
000000
000000
000000
000000
000000
000000
000000
020380
01ffc0
01a000
001800
001800
001800
001800
001000
001000
1010c0
0ffff0
070030
000000
000000
ENDCHAR
STARTCHAR ch-7
ENCODING 7
SWIDTH 1000 0
DWIDTH 24 0
BBX 24 24 0 -3
BITMAP
000000
000000
000000
000000
1000e0
0ffff0
073030
001800
001800
001800
001800
001800
001800
001800
003800
003000
003000
80fff8
7ffffe
3c000e
000000
000000
000000
000000
ENDCHAR
STARTCHAR ch-8
ENCODING 8
SWIDTH 1000 0
DWIDTH 24 0
BBX 24 24 0 -3
BITMAP
000000
000000
000000
000000
000000
000000
001000
000c00
000c00
000c60
087ff0
07cc00
021c00
001400
003400
006400
00c400
018400
030400
0c0400
003c00
001c00
000c00
000000
ENDCHAR
STARTCHAR ch-9
ENCODING 9
SWIDTH 1000 0
DWIDTH 24 0
BBX 24 24 0 -3
BITMAP
000000
000c00
000700
000300
000300
000300
0003fc
21fffe
1fc700
0c0f00
001f00
003b00
003300
006300
00c300
018300
030300
060300
180300
600300
001300
000f00
000700
000200
ENDCHAR
STARTCHAR ch-10
ENCODING 10
SWIDTH 1000 0
DWIDTH 24 0
BBX 24 24 0 -3
BITMAP
000000
001800
000c00
000e00
000c00
001c00
001820
107ff0
0ffe38
073038
006030
006030
00c060
00c060
018060
0180c0
0300c0
0600c0
0c0180
182180
301380
400f00
000700
000200
ENDCHAR
STARTCHAR ch-11
ENCODING 11
SWIDTH 1000 0
DWIDTH 24 0
BBX 24 24 0 -3
BITMAP
000006
001803
000c33
000e18
000c18
001c00
001820
107ff0
0ffe38
073038
006030
006030
00c060
00c060
018060
0180c0
0300c0
0600c0
0c0180
182180
301380
400f00
000700
000200
ENDCHAR
STARTCHAR ch-12
ENCODING 12
SWIDTH 1000 0
DWIDTH 24 0
BBX 24 24 0 -3
BITMAP
000000
018000
00e000
006000
0061c0
002fe0
007e00
21e000
1f3000
0c3000
001038
001bfc
001f00
40f800
3f8c00
1c0c00
000400
000600
000600
000600
000300
000300
000300
000100
ENDCHAR
STARTCHAR ch-13
ENCODING 13
SWIDTH 1000 0
DWIDTH 24 0
BBX 24 24 0 -3
BITMAP
000006
018003
00e033
006018
006198
002fc0
007c00
21e000
1f3000
0c3000
001038
001bfc
001f00
40f800
3f8c00
1c0c00
000400
000600
000600
000600
000300
000300
000300
000100
ENDCHAR
STARTCHAR ch-14
ENCODING 14
SWIDTH 1000 0
DWIDTH 24 0
BBX 24 24 0 -3
BITMAP
000000
002000
003800
003040
007fe0
007c70
00e070
01c0e0
0300c0
0601c0
080180
100380
000700
000e00
000c00
001800
003000
006000
00c000
018000
030000
060000
180000
000000
ENDCHAR
STARTCHAR ch-15
ENCODING 15
SWIDTH 1000 0
DWIDTH 24 0
BBX 24 24 0 -3
BITMAP
000006
000003
004033
007018
006098
00ffc0
00f8e0
01c0e0
0381c0
060180
0c0380
100700
200e00
001c00
001800
003000
006000
00c000
018000
030000
060000
0c0000
300000
000000
ENDCHAR
STARTCHAR ch-16
ENCODING 16
SWIDTH 1000 0
DWIDTH 24 0
BBX 24 24 0 -3
BITMAP
000000
00c000
006000
006000
00e000
00c000
01807c
03fffe
067e00
0c0300
100300
200300
000600
000600
000c00
000c00
001800
003000
006000
00c000
018000
030000
0c0000
000000
ENDCHAR
STARTCHAR ch-17
ENCODING 17
SWIDTH 1000 0
DWIDTH 24 0
BBX 24 24 0 -3
BITMAP
000006
00c003
006033
006018
00e018
00c000
018000
03007c
06fffe
0c3e00
100300
200300
000600
000600
000c00
000c00
001800
003000
006000
00c000
018000
030000
0c0000
000000
ENDCHAR
STARTCHAR ch-18
ENCODING 18
SWIDTH 1000 0
DWIDTH 24 0
BBX 24 24 0 -3
BITMAP
000000
000000
000000
000000
0000e0
107ff0
0ff038
070030
000030
000070
000060
000060
000060
000060
0000e0
0000c0
0000c0
1000c0
0fffe0
07c060
000000
000000
000000
000000
ENDCHAR
STARTCHAR ch-19
ENCODING 19
SWIDTH 1000 0
DWIDTH 24 0
BBX 24 24 0 -3
BITMAP
000006
000003
000033
000018
000018
0001c0
107fe0
0ff070
070060
000060
0000e0
0000c0
0000c0
0000c0
0001c0
000180
000180
100180
0fffc0
07c0c0
000000
000000
000000
000000
ENDCHAR
STARTCHAR ch-20
ENCODING 20
SWIDTH 1000 0
DWIDTH 24 0
BBX 24 24 0 -3
BITMAP
000000
000600
000380
0301c0
018180
018180
01819e
819fff
7ff180
398180
018180
018180
018380
018300
018300
010300
000600
000600
000400
000c00
001800
001000
002000
004000
ENDCHAR
STARTCHAR ch-21
ENCODING 21
SWIDTH 1000 0
DWIDTH 24 0
BBX 24 24 0 -3
BITMAP
000006
000c03
000733
030398
018318
018300
018300
01831c
819ffe
7ff300
398300
018300
018700
018600
018600
010600
000c00
000c00
000800
001800
003000
002000
004000
008000
ENDCHAR
STARTCHAR ch-22
ENCODING 22
SWIDTH 1000 0
DWIDTH 24 0
BBX 24 24 0 -3
BITMAP
000000
000000
060000
038000
01c000
00c000
000000
000000
000002
180004
0f0008
038010
018060
0000c0
000180
000300
000e00
003c00
10f000
1fe000
0f8000
060000
000000
000000
ENDCHAR
STARTCHAR ch-23
ENCODING 23
SWIDTH 1000 0
DWIDTH 24 0
BBX 24 24 0 -3
BITMAP
000006
000003
060033
038018
01c018
00c000
000000
000000
000002
180004
0f0008
038010
018060
0000c0
000180
000300
000e00
003c00
10f000
1fe000
0f8000
060000
000000
000000
ENDCHAR
STARTCHAR ch-24
ENCODING 24
SWIDTH 1000 0
DWIDTH 24 0
BBX 24 24 0 -3
BITMAP
000000
000000
000000
000180
041fc0
03f8e0
01c1c0
000180
000380
000300
000600
000600
000c00
001c00
003200
006180
00c0e0
018070
060038
18001c
60000c
000000
000000
000000
ENDCHAR
STARTCHAR ch-25
ENCODING 25
SWIDTH 1000 0
DWIDTH 24 0
BBX 24 24 0 -3
BITMAP
000006
000003
000033
000318
083f98
07f1c0
038180
000380
000300
000700
000600
000e00
000c00
001800
003600
006180
00c0e0
018070
060038
18001c
60000c
000000
000000
000000
ENDCHAR
STARTCHAR ch-26
ENCODING 26
SWIDTH 1000 0
DWIDTH 24 0
BBX 24 24 0 -3
BITMAP
000000
000000
018000
00c000
00e000
00c000
00c000
00c070
00cff8
00fc3c
07c070
7ec0c0
30c100
00c200
00c000
00c000
00c000
004000
007000
003ff8
000ff8
000000
000000
000000
ENDCHAR
STARTCHAR ch-27
ENCODING 27
SWIDTH 1000 0
DWIDTH 24 0
BBX 24 24 0 -3
BITMAP
000006
000003
018033
00c018
00e018
00c000
00c000
00c070
00cff8
00fc3c
07c070
7ec0c0
30c100
00c200
00c000
00c000
00c000
004000
007000
003ff8
000ff8
000000
000000
000000
ENDCHAR
STARTCHAR ch-28
ENCODING 28
SWIDTH 1000 0
DWIDTH 24 0
BBX 24 24 0 -3
BITMAP
000000
000000
000060
000030
100038
0c0030
060070
070060
0300e0
0380c0
0181c0
000180
000300
000300
000600
000c00
000c00
001800
003000
002000
004000
008000
010000
000000
ENDCHAR
STARTCHAR ch-29
ENCODING 29
SWIDTH 1000 0
DWIDTH 24 0
BBX 24 24 0 -3
BITMAP
000006
000003
000033
000318
400198
3001c0
180180
1c0180
0c0300
0e0300
060600
000600
000c00
000c00
001800
001000
003000
006000
004000
008000
010000
020000
040000
000000
ENDCHAR
STARTCHAR ch-30
ENCODING 30
SWIDTH 1000 0
DWIDTH 24 0
BBX 24 24 0 -3
BITMAP
000000
003000
001800
001860
003ff0
007738
006030
00c070
018060
0360c0
0631c0
181980
001b00
000700
000600
000c00
001800
003000
006000
00c000
018000
060000
180000
000000
ENDCHAR
STARTCHAR ch-31
ENCODING 31
SWIDTH 1000 0
DWIDTH 24 0
BBX 24 24 0 -3
BITMAP
000006
006003
003033
003018
006198
007fc0
00d8e0
0180c0
030180
06c180
0c6300
303300
003600
000c00
000c00
001800
003000
006000
00c000
018000
030000
0c0000
300000
000000
ENDCHAR
STARTCHAR ch-32
ENCODING 32
SWIDTH 1000 0
DWIDTH 24 0
BBX 24 24 0 -3
BITMAP
000000
000200
000300
000f80
003e00
00f800
070c00
000c00
000c00
000c78
41fffe
3f8c06
1c0c00
000c00
000c00
001800
001800
001800
003000
003000
006000
004000
008000
010000
ENDCHAR
STARTCHAR ch-33
ENCODING 33
SWIDTH 1000 0
DWIDTH 24 0
BBX 24 24 0 -3
BITMAP
000006
000203
000333
000f98
003e18
00f800
070c00
000c00
000c00
000c78
41fffe
3f8c06
1c0c00
000c00
000c00
001800
001800
001800
003000
003000
006000
004000
008000
010000
ENDCHAR
STARTCHAR ch-34
ENCODING 34
SWIDTH 1000 0
DWIDTH 24 0
BBX 24 24 0 -3
BITMAP
000000
000000
000000
000000
000000
000000
000000
000000
000000
002040
041070
021860
031860
0308c0
0100c0
000180
000100
000300
000600
000400
000800
001000
002000
000000
ENDCHAR
STARTCHAR ch-35
ENCODING 35
SWIDTH 1000 0
DWIDTH 24 0
BBX 24 24 0 -3
BITMAP
000000
000000
000000
004030
006018
20201c
103018
183038
1c3030
0c0030
0c0060
000060
0000c0
0000c0
000180
000180
000300
000600
000c00
001800
003000
006000
018000
000000
ENDCHAR
STARTCHAR ch-36
ENCODING 36
SWIDTH 1000 0
DWIDTH 24 0
BBX 24 24 0 -3
BITMAP
000006
000003
000033
010318
018198
4081c0
20c180
30c180
38c380
180300
180300
000600
000600
000c00
000c00
001800
001800
003000
006000
00c000
018000
030000
0c0000
000000
ENDCHAR
STARTCHAR ch-37
ENCODING 37
SWIDTH 1000 0
DWIDTH 24 0
BBX 24 24 0 -3
BITMAP
000000
000000
0403c0
03ffe0
01e000
000000
000000
000000
000078
40fffe
3fc80e
1c0c00
000c00
000c00
001800
001800
001800
003000
003000
002000
006000
004000
008000
010000
ENDCHAR
STARTCHAR ch-38
ENCODING 38
SWIDTH 1000 0
DWIDTH 24 0
BBX 24 24 0 -3
BITMAP
000006
000003
040733
03ff98
01c018
000000
000000
000000
0000f0
40fffc
3fc81c
1c0c00
000c00
000c00
001800
001800
001800
003000
003000
002000
006000
004000
008000
010000
ENDCHAR
STARTCHAR ch-39
ENCODING 39
SWIDTH 1000 0
DWIDTH 24 0
BBX 24 24 0 -3
BITMAP
000000
030000
01c000
00e000
00e000
00c000
00c000
00c000
00c000
00f000
00ce00
00c380
00c0e0
00c070
00c030
00c000
00c000
00c000
00c000
00c000
00c000
00c000
008000
000000
ENDCHAR
STARTCHAR ch-40
ENCODING 40
SWIDTH 1000 0
DWIDTH 24 0
BBX 24 24 0 -3
BITMAP
000000
030000
01c030
00e018
00e198
00c0c0
00c0c0
00c000
00c000
00f000
00ce00
00c380
00c0e0
00c070
00c030
00c000
00c000
00c000
00c000
00c000
00c000
00c000
008000
000000
ENDCHAR
STARTCHAR ch-41
ENCODING 41
SWIDTH 1000 0
DWIDTH 24 0
BBX 24 24 0 -3
BITMAP
000000
003000
001800
000c00
000c00
000c00
000c00
000c78
41fffe
3f8c0e
1c0c00
000c00
001c00
001800
001800
001800
003000
003000
002000
006000
004000
008000
010000
000000
ENDCHAR
STARTCHAR ch-42
ENCODING 42
SWIDTH 1000 0
DWIDTH 24 0
BBX 24 24 0 -3
BITMAP
000000
000000
000000
000000
080780
07ffe0
0380e0
000000
000000
000000
000000
000000
000000
000000
000000
000000
400ff0
3ffffe
1f001e
000000
000000
000000
000000
000000
ENDCHAR
STARTCHAR ch-43
ENCODING 43
SWIDTH 1000 0
DWIDTH 24 0
BBX 24 24 0 -3
BITMAP
000000
000000
000000
0200e0
01fff0
00e0e0
0000c0
0001c0
000180
030300
00c300
003600
001c00
000e00
001b00
003380
003180
0061c0
00c0c0
018000
030000
0c0000
300000
000000
ENDCHAR
STARTCHAR ch-44
ENCODING 44
SWIDTH 1000 0
DWIDTH 24 0
BBX 24 24 0 -3
BITMAP
003000
001c00
000e00
000600
000000
000180
087fc0
07e380
030700
000e00
001c00
003c80
006c60
00cc38
018c1c
030c0e
0c0c06
300c00
000c00
000c00
000c00
000c00
000800
000000
ENDCHAR
STARTCHAR ch-45
ENCODING 45
SWIDTH 1000 0
DWIDTH 24 0
BBX 24 24 0 -3
BITMAP
000000
000000
000060
000030
000038
000070
000060
0000e0
0000c0
0001c0
000180
000300
000700
000600
000c00
001800
003000
006000
00c000
018000
060000
180000
000000
000000
ENDCHAR
STARTCHAR ch-46
ENCODING 46
SWIDTH 1000 0
DWIDTH 24 0
BBX 24 24 0 -3
BITMAP
000000
000000
000000
000000
030000
018200
018100
018080
0380c0
030060
030030
060038
060018
0c001c
0c000c
18000e
100006
200006
c00006
000000
000000
000000
000000
000000
ENDCHAR
STARTCHAR ch-47
ENCODING 47
SWIDTH 1000 0
DWIDTH 24 0
BBX 24 24 0 -3
BITMAP
000006
000003
000033
000018
030018
018200
018100
018080
0380c0
030060
030030
060038
060018
0c001c
0c000c
18000e
100006
200006
c00006
000000
000000
000000
000000
000000
ENDCHAR
STARTCHAR ch-48
ENCODING 48
SWIDTH 1000 0
DWIDTH 24 0
BBX 24 24 0 -3
BITMAP
000000
000000
00000e
000011
030011
018211
01810e
018080
0380c0
030060
030030
060038
060018
0c001c
0c000c
18000e
100006
200006
c00006
000000
000000
000000
000000
000000
ENDCHAR
STARTCHAR ch-49
ENCODING 49
SWIDTH 1000 0
DWIDTH 24 0
BBX 24 24 0 -3
BITMAP
000000
180000
0e0000
070000
060000
060000
060000
060780
07ffc0
06e000
060000
060000
060000
060000
060000
060000
060000
070000
03c070
01fff0
007fc0
000000
000000
000000
ENDCHAR
STARTCHAR ch-50
ENCODING 50
SWIDTH 1000 0
DWIDTH 24 0
BBX 24 24 0 -3
BITMAP
000006
180003
0e0033
070018
060018
060000
060000
060780
07ffc0
06e000
060000
060000
060000
060000
060000
060000
060000
070000
03c070
01fff0
007fc0
000000
000000
000000
ENDCHAR
STARTCHAR ch-51
ENCODING 51
SWIDTH 1000 0
DWIDTH 24 0
BBX 24 24 0 -3
BITMAP
000000
180000
0e001c
070022
060022
060022
06001c
060780
07ffc0
06e000
060000
060000
060000
060000
060000
060000
060000
070000
03c070
01fff0
007fc0
000000
000000
000000
ENDCHAR
STARTCHAR ch-52
ENCODING 52
SWIDTH 1000 0
DWIDTH 24 0
BBX 24 24 0 -3
BITMAP
000000
000000
000000
000000
1003e0
0ffff0
03c038
000070
000060
000060
0000c0
0000c0
000180
000180
000300
000600
000c00
001800
003000
006000
018000
060000
000000
000000
ENDCHAR
STARTCHAR ch-53
ENCODING 53
SWIDTH 1000 0
DWIDTH 24 0
BBX 24 24 0 -3
BITMAP
000006
000003
000033
000018
200798
1fffc0
0780e0
0000c0
0001c0
000180
000180
000300
000300
000600
000600
000c00
001800
003000
006000
00c000
030000
0c0000
000000
000000
ENDCHAR
STARTCHAR ch-54
ENCODING 54
SWIDTH 1000 0
DWIDTH 24 0
BBX 24 24 0 -3
BITMAP
000000
000000
00000e
000011
400f11
3fff91
0f01ce
000180
000380
000300
000300
000600
000600
000c00
000c00
001800
003000
006000
00c000
018000
060000
180000
000000
000000
ENDCHAR
STARTCHAR ch-55
ENCODING 55
SWIDTH 1000 0
DWIDTH 24 0
BBX 24 24 0 -3
BITMAP
000000
000000
000000
000000
010000
038000
02c000
066000
0c3000
0c1800
180c00
380600
f00300
600180
0000e0
000070
00003c
00001e
000007
000003
000000
000000
000000
000000
ENDCHAR
STARTCHAR ch-56
ENCODING 56
SWIDTH 1000 0
DWIDTH 24 0
BBX 24 24 0 -3
BITMAP
000000
000060
000030
000330
010180
038180
02c000
066000
0c3000
0c1800
180c00
380600
f00300
600180
0000e0
000070
00003c
00001e
000007
000003
000000
000000
000000
000000
ENDCHAR
STARTCHAR ch-57
ENCODING 57
SWIDTH 1000 0
DWIDTH 24 0
BBX 24 24 0 -3
BITMAP
000000
000000
000000
0000e0
010110
038110
02c110
0660e0
0c3000
0c1800
180c00
380600
f00300
600180
0000e0
000070
00003c
00001e
000007
000003
000000
000000
000000
000000
ENDCHAR
STARTCHAR ch-58
ENCODING 58
SWIDTH 1000 0
DWIDTH 24 0
BBX 24 24 0 -3
BITMAP
000000
003000
001800
001c00
001800
001800
001870
403ffc
3ff80c
1e1800
001800
001800
001840
041820
041830
0c1818
08181c
18180c
38180c
309800
007800
003800
001000
000000
ENDCHAR
STARTCHAR ch-59
ENCODING 59
SWIDTH 1000 0
DWIDTH 24 0
BBX 24 24 0 -3
BITMAP
000006
003003
001833
001c18
001818
001800
0018e0
203ff8
1ff818
0e1800
001800
001800
001840
041820
041830
0c1818
08181c
18180c
38180c
309800
007800
003800
001000
000000
ENDCHAR
STARTCHAR ch-60
ENCODING 60
SWIDTH 1000 0
DWIDTH 24 0
BBX 24 24 0 -3
BITMAP
000000
006000
00300e
003811
003011
003011
0031ce
407fe0
3ff060
1c3000
003000
003000
003080
083040
083060
183030
103038
303018
703018
613000
00f000
007000
002000
000000
ENDCHAR
STARTCHAR ch-61
ENCODING 61
SWIDTH 1000 0
DWIDTH 24 0
BBX 24 24 0 -3
BITMAP
000000
000000
000000
000000
000038
401ffc
3ff80e
1f001c
080038
000030
000060
0000c0
000180
008200
006400
003800
001c00
000e00
000700
000700
000300
000000
000000
000000
ENDCHAR
STARTCHAR ch-62
ENCODING 62
SWIDTH 1000 0
DWIDTH 24 0
BBX 24 24 0 -3
BITMAP
000000
010000
00c000
007c00
001f80
0003c0
0000c0
000000
010000
018000
00f000
003f00
0007c0
0000c0
000000
000000
040000
030000
01e000
007f00
000fc0
0001e0
000060
000000
ENDCHAR
STARTCHAR ch-63
ENCODING 63
SWIDTH 1000 0
DWIDTH 24 0
BBX 24 24 0 -3
BITMAP
000000
000000
003000
001800
001c00
001c00
003800
003000
003000
006000
006000
004100
00c080
008040
018060
010030
030018
4201f8
7ffe0c
3f800c
18000c
000000
000000
000000
ENDCHAR
STARTCHAR ch-64
ENCODING 64
SWIDTH 1000 0
DWIDTH 24 0
BBX 24 24 0 -3
BITMAP
000000
000000
0000c0
000060
000070
0000e0
0000c0
030180
00c180
003300
001f00
000e00
000f00
001b80
0031c0
0060c0
00c0e0
018060
030000
060000
180000
600000
000000
000000
ENDCHAR
STARTCHAR ch-65
ENCODING 65
SWIDTH 1000 0
DWIDTH 24 0
BBX 24 24 0 -3
BITMAP
000000
000000
000000
100780
0fffc0
07c000
006000
006000
006000
006000
0063f8
41fffc
3fe000
1c6000
006000
006000
006000
006000
006000
007800
003ff8
000ff8
000000
000000
ENDCHAR
STARTCHAR ch-66
ENCODING 66
SWIDTH 1000 0
DWIDTH 24 0
BBX 24 24 0 -3
BITMAP
000000
000000
000000
000000
000000
000000
000000
01c000
00c000
00c060
0043f0
007c38
21e040
1f2080
0c3100
001000
001000
001800
001800
000800
000c00
000c00
000c00
000000
ENDCHAR
STARTCHAR ch-67
ENCODING 67
SWIDTH 1000 0
DWIDTH 24 0
BBX 24 24 0 -3
BITMAP
000000
018000
03c000
00c000
00c000
00400c
0061fe
007f07
01f00e
8fa01c
7c3030
3030c0
001000
001000
001800
001800
000800
000800
000c00
000c00
000600
000600
000600
000000
ENDCHAR
STARTCHAR ch-68
ENCODING 68
SWIDTH 1000 0
DWIDTH 24 0
BBX 24 24 0 -3
BITMAP
000000
000000
000000
000000
000000
000000
000000
000000
000000
000000
010300
00ff80
00c300
000300
000300
000200
000600
000400
000400
107ff8
0fc038
0c0000
000000
000000
ENDCHAR
STARTCHAR ch-69
ENCODING 69
SWIDTH 1000 0
DWIDTH 24 0
BBX 24 24 0 -3
BITMAP
000000
000000
000000
000000
000000
080f00
07ff80
038380
000300
000300
000300
000300
000600
000600
000600
000400
000400
81fffe
7fc03f
380000
000000
000000
000000
000000
ENDCHAR
STARTCHAR ch-70
ENCODING 70
SWIDTH 1000 0
DWIDTH 24 0
BBX 24 24 0 -3
BITMAP
000000
000000
000000
000000
000000
000000
000000
000000
000000
020180
01ffc0
00c180
000180
000180
020180
01ff80
00c100
000100
000100
000100
020100
01ff80
00c000
000000
ENDCHAR
STARTCHAR ch-71
ENCODING 71
SWIDTH 1000 0
DWIDTH 24 0
BBX 24 24 0 -3
BITMAP
000000
000000
000000
1003e0
0ffff0
070070
000060
000060
000060
000060
080fe0
07fcc0
0380c0
0000c0
0000c0
0000c0
000080
000080
101f80
0fffc0
070000
000000
000000
000000
ENDCHAR
STARTCHAR ch-72
ENCODING 72
SWIDTH 1000 0
DWIDTH 24 0
BBX 24 24 0 -3
BITMAP
000000
000000
0403c0
03ffe0
01c000
000000
000000
000030
101ff8
0ffc38
070030
000070
000060
0000e0
0000c0
0001c0
000380
000300
000600
000c00
001800
006000
038000
000000
ENDCHAR
STARTCHAR ch-73
ENCODING 73
SWIDTH 1000 0
DWIDTH 24 0
BBX 24 24 0 -3
BITMAP
000000
000180
0400c0
0200e0
0300c0
0300c0
0300c0
0300c0
0300c0
0300c0
0300c0
0300c0
0300c0
0300c0
0201c0
000180
000180
000300
000300
000600
000c00
003000
01c000
000000
ENDCHAR
STARTCHAR ch-74
ENCODING 74
SWIDTH 1000 0
DWIDTH 24 0
BBX 24 24 0 -3
BITMAP
000000
000000
003000
001800
001c00
0c1800
071800
061800
061800
061800
061801
0c1802
0c1804
0c1808
0c1810
181860
1818c0
101b80
301f00
203e00
401c00
800800
000000
000000
ENDCHAR
STARTCHAR ch-75
ENCODING 75
SWIDTH 1000 0
DWIDTH 24 0
BBX 24 24 0 -3
BITMAP
000000
000000
180000
0e0000
070000
060000
060000
060000
060000
060004
060008
060010
060020
0600c0
060180
060700
060e00
063800
07f000
0fc000
0f0000
040000
000000
000000
ENDCHAR
STARTCHAR ch-76
ENCODING 76
SWIDTH 1000 0
DWIDTH 24 0
BBX 24 24 0 -3
BITMAP
000000
000000
000000
000000
000000
301ff0
1ffff8
18001c
18001c
180018
080018
0c0018
0c0030
0c0030
0c0030
0c0020
0c0060
0c0060
0ffff0
040030
040000
000000
000000
000000
ENDCHAR
STARTCHAR ch-77
ENCODING 77
SWIDTH 1000 0
DWIDTH 24 0
BBX 24 24 0 -3
BITMAP
000000
000000
000000
000000
000000
000000
000000
000000
000040
041fe0
03f070
010060
0100c0
0100c0
030180
030180
010300
000200
000600
000c00
000800
001000
006000
000000
ENDCHAR
STARTCHAR ch-78
ENCODING 78
SWIDTH 1000 0
DWIDTH 24 0
BBX 24 24 0 -3
BITMAP
000000
000000
000000
3000f0
1ffff8
0fc01c
0c0018
0c0038
0c0030
0c0030
0c0060
0c0060
0400c0
000180
000180
000300
000600
000c00
001800
003000
006000
018000
000000
000000
ENDCHAR
STARTCHAR ch-79
ENCODING 79
SWIDTH 1000 0
DWIDTH 24 0
BBX 24 24 0 -3
BITMAP
000c00
000600
000700
000600
000600
000600
101fe0
0ffff0
07c600
030600
030600
030600
030600
03061c
87fffe
7f860e
380600
000600
000600
000600
000600
000600
000600
000400
ENDCHAR
STARTCHAR ch-80
ENCODING 80
SWIDTH 1000 0
DWIDTH 24 0
BBX 24 24 0 -3
BITMAP
000000
000000
000000
000000
0001c0
10fff0
0fc0e0
0601c0
003300
001c00
001800
001800
001800
001000
001000
001000
0010f0
80fffe
7fe01f
3c0003
000000
000000
000000
000000
ENDCHAR
STARTCHAR ch-81
ENCODING 81
SWIDTH 1000 0
DWIDTH 24 0
BBX 24 24 0 -3
BITMAP
000000
000000
000060
0407f0
03fe18
01e038
000030
000030
000060
081fe0
07f8c0
0381c0
000180
000300
000700
000600
000c00
001800
003000
006000
00c000
018000
020000
000000
ENDCHAR
STARTCHAR ch-82
ENCODING 82
SWIDTH 1000 0
DWIDTH 24 0
BBX 24 24 0 -3
BITMAP
000000
000000
000000
080000
040000
070000
038002
01c004
00c008
000010
000020
0000c0
000180
000300
000600
000c00
003800
007000
11e000
0f8000
0f0000
040000
000000
000000
ENDCHAR
STARTCHAR ch-83
ENCODING 83
SWIDTH 1000 0
DWIDTH 24 0
BBX 24 24 0 -3
BITMAP
000006
00e003
007033
003018
003018
3031c0
1fffe0
0f80f0
0c00e0
0c00c0
0c01c0
0c0180
0c0180
0c0300
080300
000600
000600
000c00
000800
001000
002000
004000
008000
000000
ENDCHAR
STARTCHAR ch-84
ENCODING 84
SWIDTH 1000 0
DWIDTH 24 0
BBX 24 24 0 -3
BITMAP
000000
000000
000000
000000
000000
000000
001000
000c00
000c00
000c00
020860
01fff0
019060
003060
002040
0060c0
00c0c0
008080
010180
021100
040f00
000600
000400
000000
ENDCHAR
STARTCHAR ch-85
ENCODING 85
SWIDTH 1000 0
DWIDTH 24 0
BBX 24 24 0 -3
BITMAP
000000
000000
000000
000000
000000
000000
000000
004000
006000
00c000
00c0e0
018ff0
037c00
060600
080600
000400
000c00
000800
001800
001000
002000
004000
018000
000000
ENDCHAR
STARTCHAR ch-90
ENCODING 90
SWIDTH 1000 0
DWIDTH 24 0
BBX 24 24 0 -3
BITMAP
000000
000000
000000
000000
000000
000000
000000
000000
000000
000000
000000
003800
003800
003800
000000
000000
000000
000000
000000
000000
000000
000000
000000
000000
ENDCHAR
STARTCHAR ch-91
ENCODING 91
SWIDTH 1000 0
DWIDTH 24 0
BBX 24 24 0 -3
BITMAP
000000
000000
000000
000000
000000
000000
000000
000000
000000
000000
400000
7ffffc
3ffffe
180000
000000
000000
000000
000000
000000
000000
000000
000000
000000
000000
ENDCHAR
STARTCHAR ch-92
ENCODING 92
SWIDTH 1000 0
DWIDTH 24 0
BBX 24 24 0 -3
BITMAP
000000
000000
000000
000000
000000
000000
000000
000000
008000
006000
003800
001c00
000e00
000700
000700
000300
000000
000000
000000
000000
000000
000000
000000
000000
ENDCHAR
STARTCHAR ch-93
ENCODING 93
SWIDTH 1000 0
DWIDTH 24 0
BBX 24 24 0 -3
BITMAP
000000
000000
000000
000000
000000
000060
000030
000330
000180
008180
006000
003800
001c00
000e00
000700
000700
000300
000000
000000
000000
000000
000000
000000
000000
ENDCHAR
ENDFONT
