STARTFONT 2.1
FONT jis.hiragana.24
SIZE 24 72 72
FONTBOUNDINGBOX 24 24 0 -3
STARTPROPERTIES 4
FONT_DESCENT 3
FONT_ASCENT 21
DEFAULT_CHAR 0
COPYRIGHT "Copyright (c) 1992 AT&T - All rights reserved."
ENDPROPERTIES
CHARS 87
STARTCHAR ch-0
ENCODING 0
SWIDTH 1000 0
DWIDTH 24 0
BBX 24 24 0 -3
BITMAP
000000
000000
000000
000000
000000
004000
003000
003000
002700
07fe00
004000
004400
004400
007f00
01c4c0
034860
064830
045030
086030
08e030
09a060
0e20c0
000700
000000
ENDCHAR
STARTCHAR ch-1
ENCODING 1
SWIDTH 1000 0
DWIDTH 24 0
BBX 24 24 0 -3
BITMAP
00c000
007000
006000
006300
107f80
0ffc00
00c000
00c400
008600
008600
00bf80
01cc60
028830
049818
089018
10a00c
10c00c
20c00c
20c00c
214018
266018
3c6030
300060
000380
ENDCHAR
STARTCHAR ch-2
ENCODING 2
SWIDTH 1000 0
DWIDTH 24 0
BBX 24 24 0 -3
BITMAP
000000
000000
000000
000000
000000
000000
000000
000000
000000
080000
040300
0400c0
040040
040060
040020
042030
044030
064030
0280f0
038030
038000
018000
000000
000000
ENDCHAR
STARTCHAR ch-3
ENCODING 3
SWIDTH 1000 0
DWIDTH 24 0
BBX 24 24 0 -3
BITMAP
000000
000000
000000
200000
100000
1000c0
180020
180010
180018
180008
18000c
18000c
184004
184006
18c006
0c801e
0d800e
0f0006
070000
070000
030000
000000
000000
000000
ENDCHAR
STARTCHAR ch-4
ENCODING 4
SWIDTH 1000 0
DWIDTH 24 0
BBX 24 24 0 -3
BITMAP
000000
000000
000000
000000
000000
002000
001800
000e00
000600
000000
000000
010e00
00f300
00c180
000180
000180
000180
000180
000300
000300
000600
000c00
003000
000000
ENDCHAR
STARTCHAR ch-5
ENCODING 5
SWIDTH 1000 0
DWIDTH 24 0
BBX 24 24 0 -3
BITMAP
006000
001c00
000700
000300
000000
000000
000000
001e00
047100
03c080
0300c0
0000c0
0000c0
0000c0
0000c0
0000c0
0000c0
000180
000180
000300
000600
001800
00e000
000000
ENDCHAR
STARTCHAR ch-6
ENCODING 6
SWIDTH 1000 0
DWIDTH 24 0
BBX 24 24 0 -3
BITMAP
000000
000000
000000
000000
000000
001000
000c00
000700
000300
000000
000200
008f00
007300
004600
000c00
001800
003000
006000
00d000
018800
038c00
0307f0
0003e0
000000
ENDCHAR
STARTCHAR ch-7
ENCODING 7
SWIDTH 1000 0
DWIDTH 24 0
BBX 24 24 0 -3
BITMAP
002000
001800
000e00
000600
000000
000000
000200
021f00
01f300
018600
000c00
001800
003000
002000
004000
00c000
018000
036000
061000
0e1000
1c1800
180ff8
0003f8
000000
ENDCHAR
STARTCHAR ch-8
ENCODING 8
SWIDTH 1000 0
DWIDTH 24 0
BBX 24 24 0 -3
BITMAP
000000
000000
000000
000000
000000
000000
010000
00c000
00c000
0081c0
009830
04f830
038040
008000
008f00
00b0c0
00c060
018060
038060
168060
0c80c0
058f00
008000
000000
ENDCHAR
STARTCHAR ch-9
ENCODING 9
SWIDTH 1000 0
DWIDTH 24 0
BBX 24 24 0 -3
BITMAP
000000
030000
01c000
018000
018060
018018
01980c
31f80c
1fc030
010000
010000
0103c0
011c70
016018
01800c
03000c
07000c
4d000c
790018
390038
1788f0
0387c0
010000
000000
ENDCHAR
STARTCHAR ch-10
ENCODING 10
SWIDTH 1000 0
DWIDTH 24 0
BBX 24 24 0 -3
BITMAP
000000
018000
00c000
00e000
00c000
008000
008060
01f818
47860c
790206
330206
030207
020207
06023f
060606
0c0600
0c0400
180c00
180c00
311800
70f800
607000
006000
000000
ENDCHAR
STARTCHAR ch-11
ENCODING 11
SWIDTH 1000 0
DWIDTH 24 0
BBX 24 24 0 -3
BITMAP
000006
018003
00c033
00e018
00c018
008000
0080c0
01f830
478618
79020c
33020c
03020e
02020e
06023e
06060c
0c0600
0c0400
180c00
180c00
311800
70f800
607000
006000
000000
ENDCHAR
STARTCHAR ch-12
ENCODING 12
SWIDTH 1000 0
DWIDTH 24 0
BBX 24 24 0 -3
BITMAP
01c000
00c000
006000
006700
103e00
0ff000
071800
0008e0
000fc0
081c00
07e200
030300
000180
0000c0
00f8e0
0307e0
040060
080000
080000
0c0000
070000
03fe00
00fe00
000000
ENDCHAR
STARTCHAR ch-13
ENCODING 13
SWIDTH 1000 0
DWIDTH 24 0
BBX 24 24 0 -3
BITMAP
01c006
00c003
006033
006718
103e18
0ff000
071800
0008e0
000fc0
081c00
07e200
030300
000180
0000c0
00f8e0
0307e0
040060
080000
080000
0c0000
070000
03fe00
00fe00
000000
ENDCHAR
STARTCHAR ch-14
ENCODING 14
SWIDTH 1000 0
DWIDTH 24 0
BBX 24 24 0 -3
BITMAP
000080
0000c0
0001c0
000380
000700
000e00
003800
006000
018000
060000
080000
080000
040000
030000
01c000
006000
003000
001c00
000e00
000700
000380
000180
0001c0
0000c0
ENDCHAR
STARTCHAR ch-15
ENCODING 15
SWIDTH 1000 0
DWIDTH 24 0
BBX 24 24 0 -3
BITMAP
000100
000180
000386
000703
000e33
001c18
003018
006000
018000
060000
080000
080000
040000
030000
01c000
006000
003000
001800
000c00
000600
000700
000300
000380
000180
ENDCHAR
STARTCHAR ch-16
ENCODING 16
SWIDTH 1000 0
DWIDTH 24 0
BBX 24 24 0 -3
BITMAP
000000
180380
0c00e0
0c0060
0c0060
180060
180066
1841ff
103fe0
101860
300060
300060
320060
320060
320060
340040
3400c0
1c00c0
1800c0
180080
180180
080100
000200
000400
ENDCHAR
STARTCHAR ch-17
ENCODING 17
SWIDTH 1000 0
DWIDTH 24 0
BBX 24 24 0 -3
BITMAP
000006
300003
180e33
180398
180198
300180
300180
30018c
2107fe
20ff80
606180
600180
640180
640180
640180
680100
680300
380300
300300
300200
300600
100400
000800
001000
ENDCHAR
STARTCHAR ch-18
ENCODING 18
SWIDTH 1000 0
DWIDTH 24 0
BBX 24 24 0 -3
BITMAP
000000
000000
020000
01f000
007fc0
0007c0
001c00
006000
000000
000000
000000
000000
000000
000000
080000
100000
100000
100000
100000
0c0000
07fff0
01fff0
000000
000000
ENDCHAR
STARTCHAR ch-19
ENCODING 19
SWIDTH 1000 0
DWIDTH 24 0
BBX 24 24 0 -3
BITMAP
000006
000003
020033
01f018
007f98
000780
001c00
006000
000000
000000
000000
000000
000000
000000
080000
100000
100000
100000
100000
0c0000
07fff0
01fff0
000000
000000
ENDCHAR
STARTCHAR ch-20
ENCODING 20
SWIDTH 1000 0
DWIDTH 24 0
BBX 24 24 0 -3
BITMAP
00e000
01c000
00c180
0060e0
0031c0
101f00
0ffc00
038600
000300
000180
0000c0
0000e0
003e60
01c3f0
060070
040020
080000
080000
040000
070000
03f000
00ff80
000f80
000000
ENDCHAR
STARTCHAR ch-21
ENCODING 21
SWIDTH 1000 0
DWIDTH 24 0
BBX 24 24 0 -3
BITMAP
01c006
038003
018633
00c398
006718
103c00
0ff800
038c00
000600
000300
000180
0001c0
003cc0
01c7e0
0600e0
040040
080000
080000
040000
070000
03f000
00ff80
000f80
000000
ENDCHAR
STARTCHAR ch-22
ENCODING 22
SWIDTH 1000 0
DWIDTH 24 0
BBX 24 24 0 -3
BITMAP
060000
030000
038000
038000
038000
030000
030000
030000
030000
030000
030000
030000
030000
030000
020000
020000
020004
020008
020010
020060
0103c0
01ff00
007800
000000
ENDCHAR
STARTCHAR ch-23
ENCODING 23
SWIDTH 1000 0
DWIDTH 24 0
BBX 24 24 0 -3
BITMAP
060000
030000
038000
038180
0380c0
030cc0
030600
030600
030000
030000
030000
030000
030000
030000
020000
020000
020004
020008
020010
020060
0103c0
01ff00
007800
000000
ENDCHAR
STARTCHAR ch-24
ENCODING 24
SWIDTH 1000 0
DWIDTH 24 0
BBX 24 24 0 -3
BITMAP
001800
000e00
000700
000600
000600
001ffe
83fc1f
7f0400
300400
007c00
008c00
010600
010600
010600
010600
008600
00fe00
006400
000c00
000800
001800
001000
002000
00c000
ENDCHAR
STARTCHAR ch-25
ENCODING 25
SWIDTH 1000 0
DWIDTH 24 0
BBX 24 24 0 -3
BITMAP
001806
000e03
000733
000618
000618
000600
83fffe
7f041f
300400
007c00
008c00
010600
010600
010600
010600
008600
00fe00
006400
000c00
000800
001800
001000
002000
00c000
ENDCHAR
STARTCHAR ch-26
ENCODING 26
SWIDTH 1000 0
DWIDTH 24 0
BBX 24 24 0 -3
BITMAP
000300
000180
0001c0
060180
030180
030180
030180
03018e
031fff
0ff180
fb0180
630180
030100
030300
031300
030e00
030600
010000
010000
018000
00e000
007ff0
001ff0
000000
ENDCHAR
STARTCHAR ch-27
ENCODING 27
SWIDTH 1000 0
DWIDTH 24 0
BBX 24 24 0 -3
BITMAP
000006
000603
000333
060398
030318
030300
030300
03031c
031ffe
0ff300
fb0300
630300
030200
030600
032600
031c00
030c00
010000
010000
018000
00e000
007ff0
001ff0
000000
ENDCHAR
STARTCHAR ch-28
ENCODING 28
SWIDTH 1000 0
DWIDTH 24 0
BBX 24 24 0 -3
BITMAP
000000
000700
013980
01e380
008600
000c00
001800
003000
004000
0081f8
011ffc
066600
0f8800
3c1000
302000
002000
004000
004000
004000
002000
003000
001e00
000f80
000380
ENDCHAR
STARTCHAR ch-29
ENCODING 29
SWIDTH 1000 0
DWIDTH 24 0
BBX 24 24 0 -3
BITMAP
000000
000700
013986
01e383
008633
000c18
001818
003000
004000
0081f8
011ffc
066600
0f8800
3c1000
302000
002000
004000
004000
004000
002000
003000
001e00
000f80
000380
ENDCHAR
STARTCHAR ch-30
ENCODING 30
SWIDTH 1000 0
DWIDTH 24 0
BBX 24 24 0 -3
BITMAP
000000
018000
00c000
00c000
008c00
01bc00
41f000
7f81c0
330078
03001c
02001c
060060
040000
0c0000
0c0000
180000
181000
302000
302000
701000
601c00
000ffc
0001fc
000000
ENDCHAR
STARTCHAR ch-31
ENCODING 31
SWIDTH 1000 0
DWIDTH 24 0
BBX 24 24 0 -3
BITMAP
000006
018003
00c033
00c018
008c18
01bc00
41f000
7f81c0
330078
03001c
02001c
060060
040000
0c0000
0c0000
180000
181000
302000
302000
701000
601c00
000ffc
0001fc
000000
ENDCHAR
STARTCHAR ch-32
ENCODING 32
SWIDTH 1000 0
DWIDTH 24 0
BBX 24 24 0 -3
BITMAP
018000
00c000
00c000
008000
018600
21bf00
3fe000
198000
010000
010000
030000
0303c0
021c30
027018
02c00c
07000c
07000c
060018
000038
000070
0000e0
000380
001c00
000000
ENDCHAR
STARTCHAR ch-33
ENCODING 33
SWIDTH 1000 0
DWIDTH 24 0
BBX 24 24 0 -3
BITMAP
018000
00c000
00c006
008003
018633
21bf18
3fe018
198000
010000
010000
030000
0303c0
021c30
027018
02c00c
07000c
07000c
060018
000038
000070
0000e0
000380
001c00
000000
ENDCHAR
STARTCHAR ch-34
ENCODING 34
SWIDTH 1000 0
DWIDTH 24 0
BBX 24 24 0 -3
BITMAP
000000
000000
000000
000000
000000
000000
000000
000000
000000
000f00
0078c0
13c060
0f0030
040030
000030
000030
000060
000060
0000c0
000300
000c00
000000
000000
000000
ENDCHAR
STARTCHAR ch-35
ENCODING 35
SWIDTH 1000 0
DWIDTH 24 0
BBX 24 24 0 -3
BITMAP
000000
000000
000000
000000
000000
000fc0
00f030
03c008
8f000c
7c0004
380006
000006
000006
00000e
00000c
00001c
000038
000070
0001c0
000700
003800
000000
000000
000000
ENDCHAR
STARTCHAR ch-36
ENCODING 36
SWIDTH 1000 0
DWIDTH 24 0
BBX 24 24 0 -3
BITMAP
000006
000003
000033
000018
000018
000f80
00f0e0
03c030
8f0018
7c0018
38000c
00000c
00000c
00000c
000018
000038
000070
0000e0
000380
000e00
007000
000000
000000
000000
ENDCHAR
STARTCHAR ch-37
ENCODING 37
SWIDTH 1000 0
DWIDTH 24 0
BBX 24 24 0 -3
BITMAP
000000
000000
0000f0
001ff8
41f380
7f0600
3c0c00
101000
002000
002000
004000
004000
008000
008000
008000
008000
00c000
004000
006000
003800
001f00
0007c0
0001c0
000000
ENDCHAR
STARTCHAR ch-38
ENCODING 38
SWIDTH 1000 0
DWIDTH 24 0
BBX 24 24 0 -3
BITMAP
000000
000000
0000e0
001ff0
41f380
7f0606
3c0c03
101033
002018
002018
004000
004000
008000
008000
008000
008000
00c000
004000
006000
003800
001f00
0007c0
0001c0
000000
ENDCHAR
STARTCHAR ch-39
ENCODING 39
SWIDTH 1000 0
DWIDTH 24 0
BBX 24 24 0 -3
BITMAP
000000
030000
018000
01c000
018000
018000
018000
008000
0081c0
0087c0
009f00
007800
00e000
018000
030000
060000
040000
080000
080000
080000
0400e0
03ffe0
00ff80
000000
ENDCHAR
STARTCHAR ch-40
ENCODING 40
SWIDTH 1000 0
DWIDTH 24 0
BBX 24 24 0 -3
BITMAP
000000
03000c
018006
01c066
018030
018030
018000
008000
0081c0
0087c0
009f00
007800
00e000
018000
030000
060000
040000
080000
080000
080000
0400e0
03ffe0
00ff80
000000
ENDCHAR
STARTCHAR ch-41
ENCODING 41
SWIDTH 1000 0
DWIDTH 24 0
BBX 24 24 0 -3
BITMAP
006000
003000
006000
006000
40cc00
7ffe00
388000
010070
03000c
02003e
0600c6
0c0100
180100
380200
700200
600200
000200
000200
00fa00
010780
0202e0
020670
01fc30
007800
ENDCHAR
STARTCHAR ch-42
ENCODING 42
SWIDTH 1000 0
DWIDTH 24 0
BBX 24 24 0 -3
BITMAP
000000
080000
0c0000
0c0000
0c01e0
0c0ff8
18303c
180060
180080
180000
100000
300000
300000
310000
310000
321000
322000
322000
143000
1c1ffe
1c07fc
0c0000
080000
000000
ENDCHAR
STARTCHAR ch-43
ENCODING 43
SWIDTH 1000 0
DWIDTH 24 0
BBX 24 24 0 -3
BITMAP
000000
006000
001000
001800
101000
101000
103f80
10f060
132018
16200c
18600c
184006
38c006
2c8006
478006
47000e
83000c
8787cc
cd8838
58083c
300ce6
000386
000000
000000
ENDCHAR
STARTCHAR ch-44
ENCODING 44
SWIDTH 1000 0
DWIDTH 24 0
BBX 24 24 0 -3
BITMAP
060000
030000
018000
018000
018000
030000
030000
0783c0
5f1c30
326018
028008
07000c
06000c
0e000c
0a000c
1a000c
12001c
320798
730c78
6b083c
4f0c66
0607c6
060000
000000
ENDCHAR
STARTCHAR ch-45
ENCODING 45
SWIDTH 1000 0
DWIDTH 24 0
BBX 24 24 0 -3
BITMAP
000000
000000
000000
001f00
00f8c0
038c30
060c18
0c0c0c
18180c
101806
203006
202006
406006
404006
40c006
618006
63000c
36000c
3c0018
180030
0000c0
000300
000000
000000
ENDCHAR
STARTCHAR ch-46
ENCODING 46
SWIDTH 1000 0
DWIDTH 24 0
BBX 24 24 0 -3
BITMAP
000000
300180
180060
1c0060
180060
180040
180040
30204e
301ffc
300c40
300040
200040
600040
640040
640060
640060
6c0060
680fe0
283070
38407c
3840ee
183fc6
100f00
000000
ENDCHAR
STARTCHAR ch-47
ENCODING 47
SWIDTH 1000 0
DWIDTH 24 0
BBX 24 24 0 -3
BITMAP
000006
300003
180633
1c0198
180198
180180
180100
308138
307ff0
303100
300100
200100
600100
640100
640180
640180
6c0180
681f80
2861c0
3881f0
3883b8
187f18
101c00
000000
ENDCHAR
STARTCHAR ch-48
ENCODING 48
SWIDTH 1000 0
DWIDTH 24 0
BBX 24 24 0 -3
BITMAP
000000
300000
18060e
1c0191
180191
180191
18010e
308130
307ff0
303100
300100
200100
600100
640100
640180
640180
6c0180
681f80
2861c0
3881f0
3883b8
187f18
101c00
000000
ENDCHAR
STARTCHAR ch-49
ENCODING 49
SWIDTH 1000 0
DWIDTH 24 0
BBX 24 24 0 -3
BITMAP
000000
000000
008060
03c060
4fc060
398060
030060
020070
060050
040058
0c0098
0c008c
08008e
180187
180102
180100
180300
180200
180600
080c00
0e3800
07f000
01c000
000000
ENDCHAR
STARTCHAR ch-50
ENCODING 50
SWIDTH 1000 0
DWIDTH 24 0
BBX 24 24 0 -3
BITMAP
000006
000003
010033
078198
9f8198
730180
060180
0401c0
0c0140
080160
180160
180130
100138
30011c
300208
300200
300200
300400
300c00
101800
1c7000
0fe000
038000
000000
ENDCHAR
STARTCHAR ch-51
ENCODING 51
SWIDTH 1000 0
DWIDTH 24 0
BBX 24 24 0 -3
BITMAP
000000
000000
01000e
078191
9f8191
730191
06018e
0401c0
0c0140
080160
180160
180130
100138
30011c
300208
300200
300200
300400
300c00
101800
1c7000
0fe000
038000
000000
ENDCHAR
STARTCHAR ch-52
ENCODING 52
SWIDTH 1000 0
DWIDTH 24 0
BBX 24 24 0 -3
BITMAP
000000
004000
002000
003000
001800
000c00
000c00
001000
002000
002000
004000
004000
002000
003000
001fe0
00783c
018806
860c07
9c0c1f
780c06
70fc00
203800
000000
000000
ENDCHAR
STARTCHAR ch-53
ENCODING 53
SWIDTH 1000 0
DWIDTH 24 0
BBX 24 24 0 -3
BITMAP
000000
004000
002000
003000
00180c
000c06
000c66
001030
002030
002000
004000
004000
002000
003000
001fe0
00783c
018806
860c07
9c0c1f
780c06
70fc00
203800
000000
000000
ENDCHAR
STARTCHAR ch-54
ENCODING 54
SWIDTH 1000 0
DWIDTH 24 0
BBX 24 24 0 -3
BITMAP
000000
004000
002000
003000
001800
000c00
000c38
001044
002044
002044
004038
004000
002000
003000
001fe0
00783c
018806
860c07
9c0c1f
780c06
70fc00
203800
000000
000000
ENDCHAR
STARTCHAR ch-55
ENCODING 55
SWIDTH 1000 0
DWIDTH 24 0
BBX 24 24 0 -3
BITMAP
000000
000000
000000
000000
038000
064000
042000
0c2000
0c1000
081800
180c00
180600
b00300
f00180
6000e0
000070
000038
00001e
00000f
000003
000000
000000
000000
000000
ENDCHAR
STARTCHAR ch-56
ENCODING 56
SWIDTH 1000 0
DWIDTH 24 0
BBX 24 24 0 -3
BITMAP
000000
000060
000030
000330
038180
064180
042000
0c2000
0c1000
081800
180c00
180600
b00300
f00180
6000e0
000070
000038
00001e
00000f
000003
000000
000000
000000
000000
ENDCHAR
STARTCHAR ch-57
ENCODING 57
SWIDTH 1000 0
DWIDTH 24 0
BBX 24 24 0 -3
BITMAP
000000
000000
000000
000070
038088
064088
042088
0c2070
0c1000
081800
180c00
180600
b00300
f00180
6000e0
000070
000038
00001e
00000f
000003
000000
000000
000000
000000
ENDCHAR
STARTCHAR ch-58
ENCODING 58
SWIDTH 1000 0
DWIDTH 24 0
BBX 24 24 0 -3
BITMAP
000000
300000
1801f8
1c3ffc
1800c0
180060
180060
300060
30007c
3001f8
303f60
200060
600060
640060
640060
640060
6c0060
6807e0
281870
38207c
3820ee
181fc6
100700
000000
ENDCHAR
STARTCHAR ch-59
ENCODING 59
SWIDTH 1000 0
DWIDTH 24 0
BBX 24 24 0 -3
BITMAP
000000
300000
1803c6
1cffe3
180303
180198
18018c
30018c
300180
3001f0
30ffe0
200180
600180
640180
640180
640180
6c0180
681f80
2861c0
3881f0
3883b8
187f18
101c00
000000
ENDCHAR
STARTCHAR ch-60
ENCODING 60
SWIDTH 1000 0
DWIDTH 24 0
BBX 24 24 0 -3
BITMAP
00000e
300011
180391
1cffd1
18030e
180180
180180
300180
3001f0
300fe0
30f980
200180
600180
640180
640180
640180
6c0180
681f80
2861c0
3881f0
3883b8
187f18
101c00
000000
ENDCHAR
STARTCHAR ch-61
ENCODING 61
SWIDTH 1000 0
DWIDTH 24 0
BBX 24 24 0 -3
BITMAP
001800
000c00
000e00
000c00
000c00
1009e0
0fffc0
070800
000900
0008c0
080bc0
07ff00
038800
000800
000800
000c00
000c00
03fc00
0c0f80
100de0
183c70
0ff830
03e000
000000
ENDCHAR
STARTCHAR ch-62
ENCODING 62
SWIDTH 1000 0
DWIDTH 24 0
BBX 24 24 0 -3
BITMAP
000000
000000
083c00
07ce00
030e00
001c00
001800
003040
002020
006030
004030
00c030
03fe60
0d87e0
310070
2300fc
4600ce
4c0186
580180
700300
200200
000400
000000
000000
ENDCHAR
STARTCHAR ch-63
ENCODING 63
SWIDTH 1000 0
DWIDTH 24 0
BBX 24 24 0 -3
BITMAP
000000
060000
030000
030000
033800
03f800
7fe030
330048
02004c
020046
0e0046
13005e
230044
230040
230040
120020
0e0020
060020
040030
040070
0601f0
03ffe0
00ff00
000000
ENDCHAR
STARTCHAR ch-64
ENCODING 64
SWIDTH 1000 0
DWIDTH 24 0
BBX 24 24 0 -3
BITMAP
000000
001800
000c00
200c00
300c00
100800
101f80
18f8e0
0b9038
0e301c
1c200c
34600e
644006
46c006
c38006
83800e
83800c
86c01c
4c4018
700030
2000c0
000300
000000
000000
ENDCHAR
STARTCHAR ch-65
ENCODING 65
SWIDTH 1000 0
DWIDTH 24 0
BBX 24 24 0 -3
BITMAP
00c000
006000
007000
006000
006000
084000
074000
01c000
00c000
018000
068000
088000
090080
07e040
01f860
011820
030030
030030
030030
010060
0180e0
00ffc0
003f00
000000
ENDCHAR
STARTCHAR ch-66
ENCODING 66
SWIDTH 1000 0
DWIDTH 24 0
BBX 24 24 0 -3
BITMAP
000000
000000
000000
000000
000000
002000
001800
01f800
021800
0207c0
033c60
01c030
238030
1ec460
0c6380
003000
001000
001800
000800
000c00
000c00
000600
000600
000000
ENDCHAR
STARTCHAR ch-67
ENCODING 67
SWIDTH 1000 0
DWIDTH 24 0
BBX 24 24 0 -3
BITMAP
001000
000800
038c00
047e00
080c00
0801f0
0c0e0c
067006
03c003
070003
9d8007
f8c61e
7063fc
0060f0
003000
001800
001800
000c00
000c00
000e00
000600
000700
000300
000000
ENDCHAR
STARTCHAR ch-68
ENCODING 68
SWIDTH 1000 0
DWIDTH 24 0
BBX 24 24 0 -3
BITMAP
000000
000000
000000
000000
000000
000000
001800
002400
024700
025ac0
046260
048220
048230
054230
054230
064230
062620
063460
021cc0
000700
000c00
000800
001000
000000
ENDCHAR
STARTCHAR ch-69
ENCODING 69
SWIDTH 1000 0
DWIDTH 24 0
BBX 24 24 0 -3
BITMAP
000000
003800
404400
208600
308fc0
313230
314218
31830c
21030c
630306
650306
650306
688306
68830c
68460c
304618
302670
301fe0
100f80
000800
001800
001000
002000
004000
ENDCHAR
STARTCHAR ch-70
ENCODING 70
SWIDTH 1000 0
DWIDTH 24 0
BBX 24 24 0 -3
BITMAP
000000
000000
000000
000000
000000
000000
001000
000c00
000c00
000c00
0008c0
000fc0
000800
000800
000800
000800
000800
000800
00f800
030f00
020bc0
0118c0
00f000
000000
ENDCHAR
STARTCHAR ch-71
ENCODING 71
SWIDTH 1000 0
DWIDTH 24 0
BBX 24 24 0 -3
BITMAP
006000
003800
001c00
001800
001800
001800
0018e0
001ff0
001800
001800
001800
001800
001800
001800
001800
001800
001800
07fe00
0c1f80
1019e0
101870
187030
0fc000
000000
ENDCHAR
STARTCHAR ch-72
ENCODING 72
SWIDTH 1000 0
DWIDTH 24 0
BBX 24 24 0 -3
BITMAP
004000
002000
003000
001800
003c00
00cc00
010000
010000
020000
020000
020000
020000
020780
061860
066030
078018
0f0018
0e0018
040038
000030
0000e0
000380
001c00
000000
ENDCHAR
STARTCHAR ch-73
ENCODING 73
SWIDTH 1000 0
DWIDTH 24 0
BBX 24 24 0 -3
BITMAP
020000
030000
010f00
011180
0120c0
0120c0
034060
034060
038060
038060
030060
030060
030060
030060
010060
0000c0
0000c0
0000c0
000180
000180
000300
000600
000c00
003000
ENDCHAR
STARTCHAR ch-74
ENCODING 74
SWIDTH 1000 0
DWIDTH 24 0
BBX 24 24 0 -3
BITMAP
000000
000c00
027e00
03c700
018e00
000c00
001800
003000
006000
00c000
008000
019f00
03e0c0
038060
070030
0e0030
1c0030
187030
019830
010c60
0106c0
018700
007c00
000000
ENDCHAR
STARTCHAR ch-75
ENCODING 75
SWIDTH 1000 0
DWIDTH 24 0
BBX 24 24 0 -3
BITMAP
060000
030000
038000
030000
030000
020700
021880
8720c0
7f40c0
3280c0
0700c0
0700c0
0e0080
0c0180
1c0180
1c0180
340180
340180
660180
f601c3
ce00fe
0e0038
040000
000000
ENDCHAR
STARTCHAR ch-76
ENCODING 76
SWIDTH 1000 0
DWIDTH 24 0
BBX 24 24 0 -3
BITMAP
000000
020c00
03fe00
01c600
000c00
001800
001000
002000
006000
00c000
018f80
037060
078030
0e0018
1c0018
380018
300018
000038
000030
000060
0001c0
000700
007800
000000
ENDCHAR
STARTCHAR ch-77
ENCODING 77
SWIDTH 1000 0
DWIDTH 24 0
BBX 24 24 0 -3
BITMAP
000000
000000
000000
000000
000000
008000
006000
006000
004000
004000
00e000
07c700
0298c0
00a060
01c060
018030
038030
028030
048060
0e8060
0980c0
00c700
00c000
000000
ENDCHAR
STARTCHAR ch-78
ENCODING 78
SWIDTH 1000 0
DWIDTH 24 0
BBX 24 24 0 -3
BITMAP
018000
00c000
00e000
00c000
00c000
008000
008000
01e000
27e1e0
1cc638
00980c
01a00e
02c006
028006
058006
0c8006
08800e
18800c
34c018
72c030
61c0c0
01c300
008000
000000
ENDCHAR
STARTCHAR ch-79
ENCODING 79
SWIDTH 1000 0
DWIDTH 24 0
BBX 24 24 0 -3
BITMAP
000000
041800
03fc00
018c00
001800
001800
001000
003000
002000
006f80
00f060
03c010
0c8018
198008
11000c
23000c
22000c
260f1c
3410d8
1c1070
0818e0
000f80
000000
000000
ENDCHAR
STARTCHAR ch-80
ENCODING 80
SWIDTH 1000 0
DWIDTH 24 0
BBX 24 24 0 -3
BITMAP
000600
023f00
03e600
018400
000c00
001800
003780
0078c0
00c060
018060
070060
067860
00ccc0
008d80
007e00
006000
008000
0100e0
060338
0d860c
387c0e
70383e
601004
000000
ENDCHAR
STARTCHAR ch-81
ENCODING 81
SWIDTH 1000 0
DWIDTH 24 0
BBX 24 24 0 -3
BITMAP
006000
003000
003000
102600
0fff00
066000
00c000
008000
010070
036038
07b0f8
0e1bc0
1c1e00
183800
007800
009800
011800
020800
040000
040000
078000
03ffc0
00ffc0
000000
ENDCHAR
STARTCHAR ch-82
ENCODING 82
SWIDTH 1000 0
DWIDTH 24 0
BBX 24 24 0 -3
BITMAP
000000
001800
000c00
001c00
001800
003800
003000
006000
006000
00c000
008000
018000
030000
027000
079800
0e1800
0c1802
181806
180c0c
300c18
700c70
600fe0
600780
000000
ENDCHAR
STARTCHAR ch-90
ENCODING 90
SWIDTH 1000 0
DWIDTH 24 0
BBX 24 24 0 -3
BITMAP
180000
0c0000
cc0000
600000
600000
000000
000000
000000
000000
000000
000000
000000
000000
000000
000000
000000
000000
000000
000000
000000
000000
000000
000000
000000
ENDCHAR
STARTCHAR ch-91
ENCODING 91
SWIDTH 1000 0
DWIDTH 24 0
BBX 24 24 0 -3
BITMAP
000000
000000
380000
440000
440000
440000
380000
000000
000000
000000
000000
000000
000000
000000
000000
000000
000000
000000
000000
000000
000000
000000
000000
000000
ENDCHAR
STARTCHAR ch-92
ENCODING 92
SWIDTH 1000 0
DWIDTH 24 0
BBX 24 24 0 -3
BITMAP
000000
000000
000000
000000
000000
000000
008000
004000
006000
003800
001c00
000e00
000700
001f00
006600
000000
000000
000000
000000
000000
000000
000000
000000
000000
ENDCHAR
STARTCHAR ch-93
ENCODING 93
SWIDTH 1000 0
DWIDTH 24 0
BBX 24 24 0 -3
BITMAP
000000
000000
000000
000000
000060
000030
000330
008180
004180
006000
003800
001c00
000e00
000700
001f00
006600
000000
000000
000000
000000
000000
000000
000000
000000
ENDCHAR
ENDFONT
