STARTFONT 2.1
FONT lucm.currency.9
SIZE 15 72 72
FONTBOUNDINGBOX 13 15 0 -2
STARTPROPERTIES 4
FONT_DESCENT 2
FONT_ASCENT 13
DEFAULT_CHAR 0
COPYRIGHT "Copyright (C) 1985 Bigelow & Holmes Inc. All rights reserved."
ENDPROPERTIES
CHARS 11
STARTCHAR ch-0
ENCODING 0
SWIDTH 600 0
DWIDTH 9 0
BBX 9 15 0 -2
BITMAP
0000
0000
3c00
6200
c000
c000
df00
d800
7800
3e00
1800
1800
1f00
0000
0000
ENDCHAR
STARTCHAR ch-1
ENCODING 1
SWIDTH 600 0
DWIDTH 9 0
BBX 9 15 0 -2
BITMAP
0000
0000
0500
1f00
3700
6a00
6a00
6a00
7400
7400
7400
3b00
3e00
2800
0000
ENDCHAR
STARTCHAR ch-2
ENCODING 2
SWIDTH 600 0
DWIDTH 9 0
BBX 9 15 0 -2
BITMAP
0000
0000
0000
3c00
6600
c000
c000
db00
df00
d900
d800
7e00
3c00
0000
0000
ENDCHAR
STARTCHAR ch-3
ENCODING 3
SWIDTH 600 0
DWIDTH 9 0
BBX 9 15 0 -2
BITMAP
0000
0000
0000
fc00
c000
c000
c000
db00
ff00
d900
d800
d800
d800
0000
0000
ENDCHAR
STARTCHAR ch-4
ENCODING 4
SWIDTH 600 0
DWIDTH 9 0
BBX 9 15 0 -2
BITMAP
0000
0000
0000
0e00
1900
1800
1800
7e00
1800
7e00
1800
3100
7e00
0000
0000
ENDCHAR
STARTCHAR ch-5
ENCODING 5
SWIDTH 600 0
DWIDTH 9 0
BBX 10 15 0 -2
BITMAP
0000
0000
0000
0000
5b00
6dc0
6d80
6f80
6d80
7d80
6d80
ed80
6d80
0000
0000
ENDCHAR
STARTCHAR ch-6
ENCODING 6
SWIDTH 600 0
DWIDTH 9 0
BBX 9 15 0 -2
BITMAP
0000
0000
0000
6100
7100
7100
ff00
5900
4d00
ff00
4700
4700
4300
0000
0000
ENDCHAR
STARTCHAR ch-7
ENCODING 7
SWIDTH 600 0
DWIDTH 9 0
BBX 9 15 0 -2
BITMAP
0000
0000
0000
7e00
6300
ff00
6300
6600
7c00
6000
6000
6000
6000
0000
0000
ENDCHAR
STARTCHAR ch-8
ENCODING 8
SWIDTH 866 0
DWIDTH 13 0
BBX 13 15 0 -2
BITMAP
0000
0000
0000
f800
cc00
cde0
cf10
f300
dbe0
d9f0
cc30
ce30
cde0
0000
0000
ENDCHAR
STARTCHAR ch-9
ENCODING 9
SWIDTH 666 0
DWIDTH 10 0
BBX 10 15 0 -2
BITMAP
0000
0000
0000
6180
6180
ff80
6d80
ff80
6d00
3700
3700
3300
3300
0000
0000
ENDCHAR
STARTCHAR ch-10
ENCODING 10
SWIDTH 600 0
DWIDTH 9 0
BBX 9 15 0 -2
BITMAP
0000
0000
0000
0000
0000
f200
8a00
aa00
aa00
aa00
aa00
a200
bc00
0000
0000
ENDCHAR
ENDFONT
