STARTFONT 2.1
FONT matty.hebrew.9.orig
SIZE 15 72 72
FONTBOUNDINGBOX 10 15 0 -2
STARTPROPERTIES 4
FONT_DESCENT 2
FONT_ASCENT 13
DEFAULT_CHAR 48
COPYRIGHT "Copyright (c) 1993 James Matthew Farrow - All rights reserved."
ENDPROPERTIES
CHARS 34
STARTCHAR ch-48
ENCODING 48
SWIDTH 600 0
DWIDTH 9 0
BBX 9 15 0 -2
BITMAP
0000
0000
0000
0800
1800
1800
1800
1800
1800
1800
1800
1800
1000
0000
0000
ENDCHAR
STARTCHAR ch-51
ENCODING 51
SWIDTH 600 0
DWIDTH 9 0
BBX 9 15 0 -2
BITMAP
0000
0000
0000
0000
0800
1c00
1c00
0800
0000
0800
1c00
1c00
0800
0000
0000
ENDCHAR
STARTCHAR ch-64
ENCODING 64
SWIDTH 600 0
DWIDTH 9 0
BBX 9 15 0 -2
BITMAP
0000
0000
0000
c600
e700
7300
7b00
5e00
8c00
8e00
c600
e700
6300
0000
0000
ENDCHAR
STARTCHAR ch-65
ENCODING 65
SWIDTH 600 0
DWIDTH 9 0
BBX 9 15 0 -2
BITMAP
0000
0000
8000
fc00
7e00
0600
0200
0200
0200
0200
0200
7f00
ff00
8000
0000
ENDCHAR
STARTCHAR ch-66
ENCODING 66
SWIDTH 600 0
DWIDTH 9 0
BBX 9 15 0 -2
BITMAP
0000
0000
0000
3800
3e00
0c00
0400
0400
0c00
0c00
3e00
f300
e100
0000
0000
ENDCHAR
STARTCHAR ch-67
ENCODING 67
SWIDTH 600 0
DWIDTH 9 0
BBX 9 15 0 -2
BITMAP
0000
0000
8000
fe00
7f00
0600
0600
0600
0600
0600
0600
0600
0400
0000
0000
ENDCHAR
STARTCHAR ch-68
ENCODING 68
SWIDTH 600 0
DWIDTH 9 0
BBX 9 15 0 -2
BITMAP
0000
0000
8000
fe00
7f00
0300
0300
4300
c300
c300
c300
c300
8200
0000
0000
ENDCHAR
STARTCHAR ch-69
ENCODING 69
SWIDTH 600 0
DWIDTH 9 0
BBX 9 15 0 -2
BITMAP
0000
0000
1000
3800
1c00
0c00
0c00
0c00
0c00
0c00
0c00
0c00
0800
0000
0000
ENDCHAR
STARTCHAR ch-70
ENCODING 70
SWIDTH 600 0
DWIDTH 9 0
BBX 9 15 0 -2
BITMAP
0000
0000
1000
3800
1e00
0e00
1800
1000
1000
1000
1800
1c00
0800
0000
0000
ENDCHAR
STARTCHAR ch-71
ENCODING 71
SWIDTH 600 0
DWIDTH 9 0
BBX 9 15 0 -2
BITMAP
0000
0000
8000
fe00
7f00
c300
c300
c300
c300
c300
c300
c300
8200
0000
0000
ENDCHAR
STARTCHAR ch-72
ENCODING 72
SWIDTH 666 0
DWIDTH 10 0
BBX 10 15 0 -2
BITMAP
0000
0000
0000
4700
ef80
6980
6180
6180
6180
6180
6380
7f00
3c00
0000
0000
ENDCHAR
STARTCHAR ch-73
ENCODING 73
SWIDTH 600 0
DWIDTH 9 0
BBX 9 15 0 -2
BITMAP
0000
0000
0800
1c00
0c00
0800
1000
0000
0000
0000
0000
0000
0000
0000
0000
ENDCHAR
STARTCHAR ch-74
ENCODING 74
SWIDTH 600 0
DWIDTH 9 0
BBX 9 15 0 -2
BITMAP
0000
0000
4000
7e00
3e00
0600
0c00
0c00
0c00
0c00
0c00
0c00
0c00
0400
0000
ENDCHAR
STARTCHAR ch-75
ENCODING 75
SWIDTH 600 0
DWIDTH 9 0
BBX 9 15 0 -2
BITMAP
0000
0000
4000
7e00
3f00
0300
0300
0300
0300
0300
0700
7e00
fc00
0000
0000
ENDCHAR
STARTCHAR ch-76
ENCODING 76
SWIDTH 600 0
DWIDTH 9 0
BBX 9 15 0 -2
BITMAP
0000
2000
6000
7e00
3e00
0200
0200
0200
0600
0400
1c00
7800
e000
0000
0000
ENDCHAR
STARTCHAR ch-77
ENCODING 77
SWIDTH 600 0
DWIDTH 9 0
BBX 9 15 0 -2
BITMAP
0000
0000
8000
fe00
7f00
c300
c300
c300
c300
c300
c300
ff00
fe00
0000
0000
ENDCHAR
STARTCHAR ch-78
ENCODING 78
SWIDTH 600 0
DWIDTH 9 0
BBX 9 15 0 -2
BITMAP
0000
0000
4000
cc00
fe00
6700
4300
4300
4300
c300
8300
9f00
be00
0000
0000
ENDCHAR
STARTCHAR ch-79
ENCODING 79
SWIDTH 600 0
DWIDTH 9 0
BBX 9 15 0 -2
BITMAP
0000
0000
0000
3c00
6600
c300
c300
c300
c300
c300
c300
6600
3c00
0000
0000
ENDCHAR
STARTCHAR ch-80
ENCODING 80
SWIDTH 600 0
DWIDTH 9 0
BBX 9 15 0 -2
BITMAP
0000
0000
0000
7e00
6300
6300
6300
6600
7c00
6000
6000
6000
6000
0000
0000
ENDCHAR
STARTCHAR ch-81
ENCODING 81
SWIDTH 600 0
DWIDTH 9 0
BBX 9 15 0 -2
BITMAP
0000
0000
0000
3c00
6600
c300
c300
c300
c300
c300
c300
6600
3c00
0600
0000
ENDCHAR
STARTCHAR ch-82
ENCODING 82
SWIDTH 600 0
DWIDTH 9 0
BBX 9 15 0 -2
BITMAP
0000
0000
0000
7c00
6600
6600
6400
7800
6c00
6600
6600
6300
6300
0000
0000
ENDCHAR
STARTCHAR ch-83
ENCODING 83
SWIDTH 600 0
DWIDTH 9 0
BBX 9 15 0 -2
BITMAP
0000
0000
0000
3e00
6300
6000
7000
3c00
0e00
0700
0300
6300
3e00
0000
0000
ENDCHAR
STARTCHAR ch-84
ENCODING 84
SWIDTH 600 0
DWIDTH 9 0
BBX 9 15 0 -2
BITMAP
0000
0000
0000
ff00
1800
1800
1800
1800
1800
1800
1800
1800
1800
0000
0000
ENDCHAR
STARTCHAR ch-85
ENCODING 85
SWIDTH 600 0
DWIDTH 9 0
BBX 9 15 0 -2
BITMAP
0000
0000
0000
6300
6300
6300
6300
6300
6300
6300
6300
3600
1c00
0000
0000
ENDCHAR
STARTCHAR ch-86
ENCODING 86
SWIDTH 600 0
DWIDTH 9 0
BBX 9 15 0 -2
BITMAP
0000
0000
0000
c300
c300
c300
6200
6200
6600
3400
3400
1800
1800
0000
0000
ENDCHAR
STARTCHAR ch-87
ENCODING 87
SWIDTH 600 0
DWIDTH 9 0
BBX 9 15 0 -2
BITMAP
0000
0000
0000
c300
c300
db00
db00
db00
da00
6e00
6e00
6600
6600
0000
0000
ENDCHAR
STARTCHAR ch-88
ENCODING 88
SWIDTH 600 0
DWIDTH 9 0
BBX 9 15 0 -2
BITMAP
0000
0000
0000
6300
6300
6300
3200
1c00
1c00
2600
6300
6300
6300
0000
0000
ENDCHAR
STARTCHAR ch-89
ENCODING 89
SWIDTH 600 0
DWIDTH 9 0
BBX 9 15 0 -2
BITMAP
0000
0000
0000
c300
c300
6200
6600
3400
1800
1800
1800
1800
1800
0000
0000
ENDCHAR
STARTCHAR ch-90
ENCODING 90
SWIDTH 666 0
DWIDTH 10 0
BBX 10 15 0 -2
BITMAP
0000
0000
8000
ff00
7f80
3180
3180
3180
3180
3180
3180
e180
c100
0000
0000
ENDCHAR
STARTCHAR ch-96
ENCODING 96
SWIDTH 666 0
DWIDTH 10 0
BBX 10 15 0 -2
BITMAP
0000
0000
2200
7700
3b80
1980
1980
1980
1980
1980
1980
1980
1100
0000
0000
ENDCHAR
STARTCHAR ch-97
ENCODING 97
SWIDTH 666 0
DWIDTH 10 0
BBX 10 15 0 -2
BITMAP
0000
0000
2200
7700
3380
2180
4180
0180
0180
0180
0180
0180
0100
0000
0000
ENDCHAR
STARTCHAR ch-98
ENCODING 98
SWIDTH 600 0
DWIDTH 9 0
BBX 9 15 0 -2
BITMAP
0000
0000
2200
7700
3300
2200
4400
0000
0000
0000
0000
0000
0000
0000
0000
ENDCHAR
STARTCHAR ch-99
ENCODING 99
SWIDTH 600 0
DWIDTH 9 0
BBX 9 15 0 -2
BITMAP
0000
0c00
1800
1000
2000
0000
0000
0000
0000
0000
0000
0000
0000
0000
0000
ENDCHAR
STARTCHAR ch-100
ENCODING 100
SWIDTH 600 0
DWIDTH 9 0
BBX 9 15 0 -2
BITMAP
0000
3300
6600
4400
8800
0000
0000
0000
0000
0000
0000
0000
0000
0000
0000
ENDCHAR
ENDFONT
