STARTFONT 2.1
FONT matty.tengwar.9.24
SIZE 24 72 72
FONTBOUNDINGBOX 22 24 0 -8
STARTPROPERTIES 4
FONT_DESCENT 8
FONT_ASCENT 16
DEFAULT_CHAR 1
COPYRIGHT "Copyright (c) 1993 James Matthew Farrow - All rights reserved."
ENDPROPERTIES
CHARS 14
STARTCHAR ch-1
ENCODING 1
SWIDTH 500 0
DWIDTH 12 0
BBX 12 24 0 -8
BITMAP
000000
000000
000000
000000
000000
000000
000000
000000
cf8000
78c000
706000
606000
606000
606000
6cc000
678000
600000
600000
600000
600000
600000
600000
400000
800000
ENDCHAR
STARTCHAR ch-2
ENCODING 2
SWIDTH 625 0
DWIDTH 15 0
BBX 15 24 0 -8
BITMAP
000000
000000
000000
000000
000000
000000
000000
000000
cf8000
78c000
706003
606000
606000
606000
60cc00
7ff800
600000
600000
600000
600000
600000
600000
400000
800003
ENDCHAR
STARTCHAR ch-3
ENCODING 3
SWIDTH 500 0
DWIDTH 12 0
BBX 12 24 0 -8
BITMAP
000000
000000
000000
000000
000001
000000
000000
001000
1e2000
336000
606003
606000
606000
60e000
31e000
1f6000
006000
006000
006000
006000
006000
006000
004000
008003
ENDCHAR
STARTCHAR ch-4
ENCODING 4
SWIDTH 541 0
DWIDTH 13 0
BBX 13 24 0 -8
BITMAP
000000
000000
000000
000000
000001
000000
000000
c03000
7fe000
306000
606002
606000
606003
60e000
31e000
1f6001
006003
006000
006001
006000
006000
006000
004000
008003
ENDCHAR
STARTCHAR ch-5
ENCODING 5
SWIDTH 791 0
DWIDTH 19 0
BBX 19 24 0 -8
BITMAP
000000
000000
000000
000000
000001
000000
000000
000000
cf9f00
78f180
7060c3
6060c0
6060c0
6060c0
6cd980
678f00
600000
600000
600001
600000
600000
600000
400000
800003
ENDCHAR
STARTCHAR ch-6
ENCODING 6
SWIDTH 916 0
DWIDTH 22 0
BBX 22 24 0 -8
BITMAP
000000
000000
000000
000000
000001
000000
000000
000000
cf9f00
78f180
7060c3
6060c0
6060c0
6060c0
60c198
7ffff0
600000
600000
600000
600000
600000
600000
400000
800003
ENDCHAR
STARTCHAR ch-7
ENCODING 7
SWIDTH 791 0
DWIDTH 19 0
BBX 19 24 0 -8
BITMAP
000000
000000
000000
000000
000001
000000
000000
000040
3c7880
66cd80
c18183
c18180
c18180
c18380
63c780
3e7d80
000180
000180
000180
000180
000180
000180
000100
000203
ENDCHAR
STARTCHAR ch-8
ENCODING 8
SWIDTH 833 0
DWIDTH 20 0
BBX 20 24 0 -8
BITMAP
000000
000000
000000
000000
000001
000000
000000
c00060
7fffc0
3060c0
60c0c0
60c0c0
60c0c0
60c1c1
31e3c1
1f3ec0
0000c0
0000c3
0000c3
0000c0
0000c0
0000c1
000080
000103
ENDCHAR
STARTCHAR ch-9
ENCODING 9
SWIDTH 500 0
DWIDTH 12 0
BBX 12 24 0 -8
BITMAP
c00000
600000
600000
600000
600001
600000
600000
600000
6f8000
78c000
706003
606000
606000
606000
6cc000
678000
400000
800001
000001
000000
000000
000000
000000
000003
ENDCHAR
STARTCHAR ch-10
ENCODING 10
SWIDTH 625 0
DWIDTH 15 0
BBX 15 24 0 -8
BITMAP
c00000
600000
600000
600000
600001
600000
600000
600000
6f8000
78c000
706003
606000
606000
606000
60cc00
7ff800
400000
800000
000000
000000
000000
000000
000000
000003
ENDCHAR
STARTCHAR ch-11
ENCODING 11
SWIDTH 500 0
DWIDTH 12 0
BBX 12 24 0 -8
BITMAP
001000
002000
006000
006000
006001
006000
006000
006000
1e6000
336000
606003
606000
606000
60e000
31e000
1f6000
006000
006000
006000
006000
006000
006000
004000
008003
ENDCHAR
STARTCHAR ch-17
ENCODING 17
SWIDTH 791 0
DWIDTH 19 0
BBX 19 24 0 -8
BITMAP
000000
000000
000000
000000
000001
000000
000000
000000
cf9f00
78f180
7060c2
6060c0
6060c0
6060c0
6cd980
678f00
400000
800000
000001
000000
000000
000000
000000
000003
ENDCHAR
STARTCHAR ch-18
ENCODING 18
SWIDTH 916 0
DWIDTH 22 0
BBX 22 24 0 -8
BITMAP
000000
000000
000000
000000
000001
000000
000000
000000
cf9f00
78f180
7060c3
6060c0
6060c0
6060c0
60c198
7ffff0
400000
800000
000000
000000
000000
000000
000000
000003
ENDCHAR
STARTCHAR ch-57
ENCODING 57
SWIDTH 500 0
DWIDTH 12 0
BBX 12 24 0 -8
BITMAP
c00000
600000
600000
600000
600001
600000
600000
600000
6f8000
78c000
706003
606000
606000
606000
6cc000
678000
600000
600000
600000
600000
600000
600000
400000
800003
ENDCHAR
ENDFONT
