STARTFONT 2.1
FONT misc.letterlike.8
SIZE 13 72 72
FONTBOUNDINGBOX 13 13 0 -1
STARTPROPERTIES 4
FONT_DESCENT 1
FONT_ASCENT 12
DEFAULT_CHAR 34
COPYRIGHT "Copyright (c) 1992 AT&T - All rights reserved."
ENDPROPERTIES
CHARS 1
STARTCHAR ch-34
ENCODING 34
SWIDTH 923 0
DWIDTH 12 0
BBX 12 13 0 -1
BITMAP
0000
fa20
2360
22a0
22a0
2220
2220
2220
0000
0000
0000
0000
0000
ENDCHAR
ENDFONT
