STARTFONT 2.1
FONT pelm.fffd.9
SIZE 16 72 72
FONTBOUNDINGBOX 9 16 0 -3
STARTPROPERTIES 4
FONT_DESCENT 3
FONT_ASCENT 13
DEFAULT_CHAR 0
COPYRIGHT "Copyright (C) 1985 Bigelow & Holmes Inc. All rights reserved."
ENDPROPERTIES
CHARS 1
STARTCHAR ch-0
ENCODING 0
SWIDTH 562 0
DWIDTH 9 0
BBX 9 16 0 -3
BITMAP
0800
1c00
3e00
7f00
e380
cd80
dd80
f980
f380
f380
ff80
f380
7300
3e00
1c00
0800
ENDCHAR
ENDFONT
