STARTFONT 2.1
FONT pelm.currency.9
SIZE 16 72 72
FONTBOUNDINGBOX 12 16 0 -3
STARTPROPERTIES 4
FONT_DESCENT 3
FONT_ASCENT 13
DEFAULT_CHAR 0
COPYRIGHT "Copyright (C) 1985 Bigelow & Holmes Inc. All rights reserved."
ENDPROPERTIES
CHARS 11
STARTCHAR ch-0
ENCODING 0
SWIDTH 562 0
DWIDTH 9 0
BBX 9 16 0 -3
BITMAP
0000
0000
3c00
6600
c000
c000
df00
d800
7800
3e00
1800
1800
1f00
0000
0000
0000
ENDCHAR
STARTCHAR ch-1
ENCODING 1
SWIDTH 562 0
DWIDTH 9 0
BBX 9 16 0 -3
BITMAP
0000
0900
3f00
7200
d200
d200
e400
e400
e400
c800
c800
6a00
be00
9000
9000
0000
ENDCHAR
STARTCHAR ch-2
ENCODING 2
SWIDTH 562 0
DWIDTH 9 0
BBX 9 16 0 -3
BITMAP
0000
0000
3e00
6200
c000
c000
fb00
df00
db00
d800
d800
7a00
3e00
0000
0000
0000
ENDCHAR
STARTCHAR ch-3
ENCODING 3
SWIDTH 562 0
DWIDTH 9 0
BBX 9 16 0 -3
BITMAP
0000
0000
fc00
c000
c000
c000
db00
ff00
db00
d800
d800
d800
d800
0000
0000
0000
ENDCHAR
STARTCHAR ch-4
ENCODING 4
SWIDTH 562 0
DWIDTH 9 0
BBX 9 16 0 -3
BITMAP
0000
0000
1c00
3400
3000
3000
7c00
3000
7c00
3000
3000
7a00
6e00
0000
0000
0000
ENDCHAR
STARTCHAR ch-5
ENCODING 5
SWIDTH 687 0
DWIDTH 11 0
BBX 11 16 0 -3
BITMAP
0000
0000
0000
0000
6900
7fc0
6d80
6f80
6d80
7d80
6d80
ed80
6d80
0000
0000
0000
ENDCHAR
STARTCHAR ch-6
ENCODING 6
SWIDTH 562 0
DWIDTH 9 0
BBX 9 16 0 -3
BITMAP
0000
0000
3200
3200
3200
7f00
3a00
2a00
2e00
7f00
2600
2600
2600
0000
0000
0000
ENDCHAR
STARTCHAR ch-7
ENCODING 7
SWIDTH 562 0
DWIDTH 9 0
BBX 9 16 0 -3
BITMAP
0000
0000
7c00
6600
6600
ff00
6600
6c00
7800
6000
6000
6000
6000
0000
0000
0000
ENDCHAR
STARTCHAR ch-8
ENCODING 8
SWIDTH 750 0
DWIDTH 12 0
BBX 12 16 0 -3
BITMAP
0000
0000
f800
cc00
cdc0
cf60
cf00
f380
d9c0
d8e0
cc60
ce60
cfc0
0000
0000
0000
ENDCHAR
STARTCHAR ch-9
ENCODING 9
SWIDTH 625 0
DWIDTH 10 0
BBX 10 16 0 -3
BITMAP
0000
0000
6100
6100
ff80
6d00
ff80
6d00
3600
3600
3600
3600
3600
0000
0000
0000
ENDCHAR
STARTCHAR ch-10
ENCODING 10
SWIDTH 625 0
DWIDTH 10 0
BBX 10 16 0 -3
BITMAP
0000
0000
0000
0000
0000
f980
c580
d580
d580
d580
d580
d180
df00
0000
0000
0000
ENDCHAR
ENDFONT
