/* XPM */
static char * face_xpm[] = {
/* width height ncolors chars_per_pixel */
"48 48 16 1",
/* colors */
" 	c white",
".	c grey73",
"X	c grey27",
"o	c grey47",
"O	c grey40",
"+	c grey93",
"@	c grey33",
"#	c grey87",
"$	c grey13",
"%	c grey60",
"&	c grey80",
"*	c grey20",
"=	c grey53",
"-	c grey67",
";	c grey7",
":	c black",
/* pixels */
"                                                ",
"                                                ",
"                                                ",
"    .XooO.  +.o@O                               ",
"    @.+#+$++$%##$#  o@O+  +oX@#                 ",
"    &X+@#%*.O+X&X  %=%.*. X%+.*#     +X@. #     ",
"     X.#*#&X-o..O +*+.+*.#@.- &*#    &oX+.*#    ",
"     .$O#. @ .#*& O- #X%+@&+#  &*#   =.o#@=-    ",
"     +&O= #=..@#.O- #O+ #XX-#   +O. #o&@o+o%X   ",
"    +*O-+ .=-%+=o  .*%+  ...@     @@X+   #%o*   ",
"    %O+O+%=%. -o  #X.%*&    %#    +@%  -X$-##   ",
"   .X+O&O@+ OoX+  X#.#$#    .%%-   +X.X@&%@+    ",
"   %O+%O%.=%Xo  %o# -=&+    +@#X+   +X..%=O     ",
"    oX.  +.oo +O&++#$$*$*$**O*..@    .O         ",
"       +@@oX .O# =-@#+ ++++#&-*+@#    @.        ",
"       .*+#.#=+ .o&O       +X..@#o +# #X        ",
"       =*@oOoo=## ##  +++ #.%X.%o=.+O# %%       ",
"       -$#.&oo.o %X@-*X$$*@.%+*o%#X#+o  X#      ",
"       =o$o.&.$XX*+ -+# ..=$=-.$#O$$+%- .O      ",
"       #*#=X.-*--XXO@X-+oO=&O# @$.@.X+@- *+     ",
"        $$.#o%&O%##..=X$%&OX$+###&* .o O%.%     ",
"        -O=Oo@;.#%#.%#++Oo.oo@%O=*-  .O#.OX     ",
"         -$XX--XXX@o#&O@ %@&X +.+@#   XX& o.    ",
"      +.@@.+#OX.&#o-@@.@-##*@#-@.*+   @#;%#@    ",
"     +$o#--#  -X@@#%-+ #*X*=-O==$#    o#@=o@#   ",
"     .@ +%%=O#  +=. +%=oo.##-oO-+     %-@#O@@   ",
"     .=     %= .***@**X@XX*@=#        .=-%% &   ",
"     #X     =.%@++&-#+                 X#O%+    ",
"      *.+   X@X+                       X+$X.    ",
"      #oOO.=$-                         OO-#     ",
"         #o.                            +       ",
"                                                ",
"                                                ",
"      ++                                  ++    ",
"     .;:o  +$$$$$$$$$$$$$$$$o.;* #;$+o@*$;;*    ",
"     .:::. #::=-------%----%&-:$ &:;#&.....#    ",
"     .:::$ #;:# &oOo#  +=OO. o:$--:;# .OOo#     ",
"     .:;::%#::#.;:::$++*::::=::::X:;+-::::*+    ",
"     .:X@:;&::#$$.#-;X-:X#&@o=:$#.:;#$$.#%;O    ",
"     .:X+;:O;:.:;XXX;;.;:$X% -:$ &:;.:$XXX:$+   ",
"     .:* %:;::.::;;;$$#.*;::o-:$ &:;-:;;;;$*    ",
"     .:* +*:::&:*+++-.#%##%;$-:$ &:;&:@+++%.    ",
"     .:*  .:::#X:O.o:X=:X.-;$&::o.:;#$;o.O:O    ",
"     &;@   X;$##X;::X++O$::$. =$;O;$+.*::;@+    ",
"                                                ",
"                                                ",
"                                                ",
"                                                "};
