/* XPM */
static char *noname_xpm[] = {
/* width height ncolors chars_per_pixel */
"48 48 17 1",
/* colors */
"` c black",
"a c grey33",
"b c grey47",
"c c grey40",
"d c grey87",
"e c grey80",
"f c grey73",
"g c grey27",
"h c grey20",
"i c grey13",
"j c grey67",
"k c grey60",
"l c grey53",
"m c white",
"n c grey93",
"o c grey7",
"p s None c None",
/* pixels */
"ppppppkkkkjjjjjkkkkkjjjffffffjjklljfffjjjjpppppp",
"ppppppkkkkkjjjjkkkkkjjffjefefjklllkfffjjjjpppppp",
"ppppppkkkkkjjjjklkkkljeedfefjjjklkjfffjjjjpppppp",
"ppppppkkkkkjjjkkkklaajdflclffjjkkljffffjjjpppppp",
"ppppppkkkkjjjjjklbgoiiabbggljejklkjfffjjjjpppppp",
"ppppppkkkkkkjjjlchoohgaachhckjbkkkjfffjjfjpppppp",
"ppppppklkkkjjjkchiihhihhiigbkhhhgbjfffjjjjpppppp",
"ppppppkkkkkjkjkhihioo```oihiioo`oobfffjffjpppppp",
"ppppppkkkkjjkkco`````````oo```````okjfjjjjpppppp",
"pppppplkkkkjkao````````````````````hjjjjjjpppppp",
"ppppppkkkkkkc```````````````````````bfjjjjpppppp",
"ppppppklkkkkg`````````````ihh```````hjjjjjpppppp",
"pppppplkkkkkh```````````ihgggi``````ojjjjjpppppp",
"ppppppklkkkl``````````igacaaah```````ljjjkpppppp",
"pppppplkkkkb``ioggaaacbklbaaag```````cjkjkpppppp",
"ppppppllkkkb`obkfeeejfjjjbccahi``````bjjjkpppppp",
"ppppppkkkkka`obkfddeeeffjbccghi``````ljkjkpppppp",
"ppppppkllkkc`iljeddeeeffjlccghi``````lkjjkpppppp",
"pppppplkkkka`hljenddeeefjlcaghi``````kjkkkpppppp",
"ppppppkllkka`iabkfefefjklbcahhh``````kkkjkpppppp",
"pppppplkkkkb````oalkjlcgiooooiho````ojkjkkpppppp",
"ppppppklklklohio``allao````ooiho````ikjkkkpppppp",
"ppppppkkkkkkaahciigjjaooh`o`ighi````akkkjkpppppp",
"ppppppllklkkllllbbbfkaggbaahaagi``hickjkkkpppppp",
"ppppppklkkkklkjjjfjflallllbbbahioggilkkkkkpppppp",
"ppppppkllklkkkeedekjbalffjkbcghhiggikkkkklpppppp",
"ppppppllklkklkedflkjcgakfejlaghihaggkkkkklpppppp",
"pppppplllklklkjkcbkkcggalkjbahhigailkklklkpppppp",
"ppppppllllklkbbabbahiohabbbcghiiiiakkkllkkpppppp",
"ppppppllklkllccaccaghhgaacaaghhioolkllklllpppppp",
"pppppplllllllcchgcbllcaahhggghhihgklklllllpppppp",
"pppppplllllllbccaillcahiihaaghihihlklllllbpppppp",
"ppppppllllllbbaclcbklbagacbghgihihklllllllpppppp",
"pppppplblllbllcclbblbbaaccgghhihiiljllbbllpppppp",
"pppppplllllbbbbabbcaaagaaaghhihhholeflbllbpppppp",
"pppppplblblblbbcclbbccacaghhiihhholdmnjblbpppppp",
"ppppppbllblbbbbbccllbccahhiioihhhckdnmnflbpppppp",
"pppppplbbbbbbbbbbacccaghiiooihhhbkkfdnmmdkpppppp",
"ppppppbblbbbbbbbbahiiiioooooiihbkkjednmnmmpppppp",
"ppppppbbbbbcbcbcbbkbo`o`oooiiickkjfenmmmmmpppppp",
"ppppppbbbbbbcbcbbjdjhooooooiialkjfenmmmmmmpppppp",
"ppppppbbbbbbcbcckdfeahiiiiihalkjjedmnmmmmmpppppp",
"ppppppbbbbbcccclfeefgiiiihgclkjjeenmmmmnmmpppppp",
"ppppppbbbbbccbckefffghiihgbkkkffedmmmmmmmmpppppp",
"ppppppbbcbccccbfffffchiickkkjfjfdnmnmnmmmmpppppp",
"ppppppcbbccccclfjffejggbblkffjfddnmnmmmmmmpppppp",
"ppppppbbcbcccckfjffffkccbjfejfdenmnnmmmmmmpppppp",
"ppppppaaaaaaggblllkkllbblblkljjjefffefeeeepppppp"
};
