/* XPM */
static char *noname_xpm[] = {
/* width height ncolors chars_per_pixel */
"48 48 17 1",
/* colors */
"` c black",
"a c grey33",
"b c grey47",
"c c grey40",
"d c grey87",
"e c grey80",
"f c grey73",
"g c grey27",
"h c grey20",
"i c grey13",
"j c grey67",
"k c grey60",
"l c grey53",
"m c white",
"n c grey93",
"o c grey7",
"p s None c None",
/* pixels */
"ppppppcaaaaaaaaaaaacaaaaacacaacaaaaacaccaapppppp",
"ppppppaccaaaaaacacaacacacacaccacacacaccaccpppppp",
"ppppppcaaacaacaaacacaacacacccacacaacacacacpppppp",
"ppppppcacaaaaaacaaaacacaccccacccaacacacacapppppp",
"ppppppaaaaaacacaacccbkefdeflccaccacacccacapppppp",
"ppppppccacaacaacacbbccbbkjefbcaccacccaccacpppppp",
"ppppppcaaaacaacaaaghgghiihggahihcccccccccapppppp",
"ppppppaccacaccaghihiiiiioooooo`oalccccccccpppppp",
"ppppppcacacacahiiioiiiiihooo````oaccccccccpppppp",
"ppppppccaacaahoooioiiiioiooo``o```hgccccccpppppp",
"ppppppacacachoooiooooooiioooo`````ohccccccpppppp",
"ppppppcaccago`ooo````ooooooooo`````iccccccpppppp",
"ppppppcacaco`o``````oigcaghhiioiihiogbccccpppppp",
"ppppppaacago`o````oabennmnejklllkkbohcbcccpppppp",
"ppppppcacci`o``o``hlfdmmmmmmmmnddekhocccccpppppp",
"ppppppacccoo`o`o``akjemmmmmmmmnndejcoccbccpppppp",
"ppppppccaao``o`o`ickkdnmmmmmnmnnnefcoaccccpppppp",
"ppppppaccao``````alljdnnmmmmmnmmddecocbcbcpppppp",
"ppppppcacg``````iblllkkkjjdnnmmnddfcibccccpppppp",
"ppppppccci``````glllllbcagbkedeffjjggcbcbcpppppp",
"ppppppccao`````oclljlahgbaabfjlcaachccbcccpppppp",
"ppppppccco`o```ibljdejbajllbdjahaccgbcbcbcpppppp",
"ppppppcacgabiioilljddefjjkjjnjchgaaccbcbccpppppp",
"ppppppcccckkblcgbbfemnddeeffnfbbbbccbcbcbcpppppp",
"ppppppccccljklcaclkenmmnndefnfklkklccbccccpppppp",
"ppppppcccccjejcaclkjdnmnndefdjjjjjkcbcbcbcpppppp",
"ppppppcaccgcjfccalkjfeejlfffnfjffflbcbcbccpppppp",
"ppppppccccaohgaacllkjklklkjfnflkfjlbcbccccpppppp",
"ppppppcaccai`igacblklkkkkaalfkbbklbbccbcbcpppppp",
"ppppppccccch`hgacblkjblkjlcgaabcblccbbccccpppppp",
"ppppppcaccccihgaabbjlagclkkbcbcccccbcccbccpppppp",
"ppppppcaccacaggaabbkkjbljkbbcaagcccbcbccccpppppp",
"ppppppccccccagggacckjejkkedfkgabbcccccccccpppppp",
"ppppppcacaccaaagaccbfffjfjjjbckkbcbcbcbcccpppppp",
"ppppppccccccaccggabbffjkkkklbbklcccbccccccpppppp",
"ppppppcacklcabbagacckffjkbbbbllcccccccccccpppppp",
"ppppppcccdagablbagacbkeffjkbblccccccccccccpppppp",
"ppppppccljkccbklcgggabkfffjklcccccccccccccpppppp",
"ppppppcckfelblklbaghgacbkjklbaccccccccccccpppppp",
"ppppppcljfeekkkklcaghhhgcbbcacccccccccccccpppppp",
"ppppppbjffefekjklbcaghihihggcccccccccccccapppppp",
"ppppppjffeeeedjjklbccahhigccaccccccccccaccpppppp",
"ppppppefeeffeedfkkbccbcaghglcacaccaccccccapppppp",
"ppppppdfeeeffeddekbbccbcagilbcccccccccccccpppppp",
"ppppppndfdfffeeedekbccccghicjcaccacccaccacpppppp",
"ppppppnnefefffeeeddkbcaahiiafcccccccccccccpppppp",
"ppppppdndefjjfjfeeeclbcahihacccacccaccccccpppppp",
"ppppppjfffllbllllkccccghioigagggggggagagggpppppp"
};
