#define face_width 48
#define face_height 48
static unsigned char face_bits[] = {
 0x00,0x00,0x40,0x01,0x00,0x00,0x00,0x00,0xf8,0x0f,0x00,0x00,0x00,0x00,0xfe,
 0x3f,0x00,0x00,0x00,0x00,0xfe,0x3f,0x00,0x00,0x00,0x00,0xff,0x7f,0x00,0x00,
 0x00,0x00,0xff,0x7d,0x00,0x00,0x00,0x00,0x0f,0x72,0x00,0x00,0x00,0x80,0xa7,
 0x68,0x00,0x00,0x00,0x80,0x09,0xd0,0x00,0x00,0x00,0x00,0x27,0xd4,0x00,0x00,
 0x00,0x80,0x05,0x61,0x00,0x00,0x00,0x80,0x2b,0xd0,0x00,0x00,0x00,0x00,0xbb,
 0xbc,0x00,0x00,0x00,0x00,0x47,0x56,0x00,0x00,0x00,0x80,0xbd,0x58,0x00,0x00,
 0x00,0x00,0x03,0x45,0x00,0x00,0x00,0x00,0x54,0x52,0x00,0x00,0x00,0x00,0x82,
 0x44,0x00,0x00,0x00,0x80,0x4a,0x23,0x00,0x00,0x00,0x00,0x04,0xa4,0x00,0x00,
 0x00,0x00,0xd5,0x2a,0x00,0x00,0x00,0x00,0x2a,0x25,0x00,0x00,0x00,0x00,0x44,
 0x2a,0x00,0x00,0x00,0x00,0x9d,0xb0,0x00,0x00,0x00,0x00,0x54,0x2e,0x00,0x00,
 0x00,0x00,0xb4,0x38,0x00,0x00,0x00,0x00,0x6a,0x0f,0x01,0x00,0x00,0x80,0xa8,
 0x2a,0x00,0x00,0x00,0x00,0x16,0x52,0x00,0x00,0x00,0x00,0xc9,0xaa,0x01,0x00,
 0x00,0x40,0x26,0x51,0x00,0x00,0x00,0x40,0x51,0x4a,0x01,0x00,0x00,0x80,0x8a,
 0x50,0x00,0x00,0x00,0x00,0x55,0x54,0x00,0x00,0x00,0x00,0x24,0x55,0x05,0x00,
 0x00,0x00,0xaa,0xaa,0x0a,0x00,0x00,0x40,0x55,0x55,0x69,0x00,0x00,0x40,0x49,
 0x55,0x95,0x00,0x00,0x94,0xaa,0x02,0x54,0x00,0x00,0x50,0x00,0x08,0x80,0x00,
 0x00,0x25,0x80,0x00,0x01,0x00,0x00,0x0a,0x00,0x00,0x00,0x00,0x80,0x00,0x00,
 0x00,0x00,0x00,0x80,0x02,0x00,0x00,0x00,0x00,0x00,0x00,0x00,0x00,0x00,0x00,
 0x00,0x01,0x00,0x00,0x00,0x00,0x80,0x00,0x00,0x00,0x00,0x00,0x00,0x00,0x00,
 0x00,0x00,0x00};
