/* XPM */
static char *noname_xpm[] = {
/* width height ncolors chars_per_pixel */
"48 48 17 1",
/* colors */
"` c black",
"a c grey33",
"b c grey47",
"c c grey40",
"d c grey87",
"e c grey80",
"f c grey73",
"g c grey27",
"h c grey20",
"i c grey13",
"j c grey67",
"k c grey60",
"l c grey53",
"m c white",
"n c grey93",
"o c grey7",
"p s None c None",
/* pixels */
"ppppppmmmmmmmmmmmmmmmmmmmmmmmmmmmmmmmmmmmmpppppp",
"ppppppmmmmmmmmmmmmmmmmmmmnmmmmmmmmmmmmmmmmpppppp",
"ppppppmmmmmmmmmmmmmmmnjkbbblkemmmmmmmmmmmmpppppp",
"ppppppmmmmmmmmmmmmmdlcaaggggggaknmmmmmmmmmpppppp",
"ppppppmmmmmmmmmmmnkcagghhhhihhhhgfmmmmmmmmpppppp",
"ppppppmmmmmmmmmmnbahhiiiiiiiiiiiihjmmmmmmmpppppp",
"ppppppmmmmmmmmmnbahhhiiiiihhhhiiiiijmmmmmmpppppp",
"ppppppmmmmmmmmmlgggggghhhhacaaaiioihnmmmmmpppppp",
"ppppppmmmmmmmmfclcllbbbcbbllbbcgiooojmmmmmpppppp",
"ppppppmmmmmmmnknnfffejjjkjfjjjlgoooocmmmmmpppppp",
"ppppppmmmmmmmedndeedeffjjeddefkaiooohmmmmmpppppp",
"ppppppmmmmmmmdmdednnefefenmddfkaooo`ommmmmpppppp",
"ppppppmmmmmmmndednnmdeefemnndjkahoo`inmmmmpppppp",
"ppppppmmmmmmmnefenmmdeefenmdeklgioooommmmmpppppp",
"ppppppmmmmmmmmnednmmndffenmdjkbghiooommmmmpppppp",
"ppppppmmmmmmmefnmmmmmnddnnnekbcagiooimmmmmpppppp",
"ppppppmmmmmmmcaldmmmmndfjkjjllbcgioogmmmmmpppppp",
"ppppppmmmmmmmfbgalefjbaghgccblbbcio`ammmmmpppppp",
"ppppppmmmmmmmkaacblbbghhgbklbbblaiihcdmmmmpppppp",
"ppppppmmmmmmmcklhcjfbagclgacbbbbchgcaammmmpppppp",
"ppppppmmmmmmnjelakdmdkcfdgagclbbchallgmmmmpppppp",
"ppppppmmmmmmmdefjenmmmeffkfjkklbaagicammmmpppppp",
"ppppppmmmmmmmmmmmnmmmnmfjjedejbagabhgjmmmmpppppp",
"ppppppmmmmmmnnmmmnmmndnnennmdkcaggbacnmmmmpppppp",
"ppppppmmmmmmddnndnmnffeeddddjlcghgccfmmmmmpppppp",
"ppppppmmmmmmdkfknmmndejkfffjbcghhacfmmmmmmpppppp",
"ppppppmmmmmmnbbkjeflblbcllkbaghhhkemmmmmmmpppppp",
"ppppppmmmmmmmbcljlahhajlbccaghhhbmmmmmmmmmpppppp",
"ppppppmmmmmmmkaacccacbklbbghhhhhjmmmmmmmmmpppppp",
"ppppppmmmmmmmfggblklccccagghihhhnmmmmmmmmmpppppp",
"ppppppmmmmmmmaaabbbcaaahihhihiiammmmmmmmmmpppppp",
"ppppppmmmmmmeogclljbghhiiihiiiijmmmmmmmmmmpppppp",
"ppppppmmmmmmf`ackeejkjbghiiiooinmmmmmmmmmmpppppp",
"ppppppmmmmnmf`aabjeflaihhiiooobmmmmmmmmmmmpppppp",
"ppppppmmmdjjfigacahho`ihiiioooemmmmmmmmmmmpppppp",
"ppppppmnmealjchacbagihghhi`ooidmmmmmmmmmmmpppppp",
"ppppppmdjbhckkaaggghhhhio``oogkfmmmmmmmmmmpppppp",
"ppppppjfbbhgbklgho`````````ooibakjnmmmmmmmpppppp",
"ppppppbkjcihcbbaioo```````ooo`lccekenmmmmmpppppp",
"ppppppkclchogcccgooo```````o``bcalljfjmmmmpppppp",
"ppppppelgcgohhggggo``````oo```bbacjellnmmmpppppp",
"ppppppdjcgaohhggghgho````````ibbaaknlcjdnnpppppp",
"ppppppdjkghaoghggghhggioooooicbbcggebackddpppppp",
"ppppppnfkbghhiggagghiihhhhhihbbbbhhcbagbfkpppppp",
"ppppppeejbchahgggcaggghhiiihgbbbbghiaaabblpppppp",
"ppppppdkjkbaicgcgaagacbccagaalcbbagiaacbclpppppp",
"ppppppnjcjbcggcabgacgaccccaacbbbcbhhgalblbpppppp",
"ppppppjlhaagg`ghggigiihghiihgahghgohihagagpppppp"
};
