/* XPM */
static char *noname_xpm[] = {
/* width height ncolors chars_per_pixel */
"48 48 17 1",
/* colors */
"` c black",
"a c grey33",
"b c grey47",
"c c grey40",
"d c grey87",
"e c grey80",
"f c grey73",
"g c grey27",
"h c grey20",
"i c grey13",
"j c grey67",
"k c grey60",
"l c grey53",
"m c white",
"n c grey93",
"o c grey7",
"p s None c None",
/* pixels */
"pppffjfjffffffffffffffffjfjffffffffjjfjfjfjjpppp",
"pppmmmmmmmmmmmmmmmmmmmmmmmmmmmmmmmmmnmnmmmmnpppp",
"pppmnmnnmmmmmmmmmmmmnmmnnnnmmmmmnmmnmnnnmnnnpppp",
"pppmmnnnnnnnmmmmmnnnmmmnnmnnmnmnmnnnnnnnnnnnpppp",
"pppnnnnnnnmnmnmnnnnnnmnnnnnmnmnnnnnnnndnnnndpppp",
"pppmnnndnnnnnmnmnnnnnnmnnnnnnnmnnnnnnndnnnndpppp",
"pppnnnndnnnnnmnnnnnnnnnnnndnnnnnnnnddndndnddpppp",
"pppnnnndnnnnnnnndndelcacblkennnnndnnndddndddpppp",
"pppnnndddnnnnnnnnfchiiiioioogjdndnndnddnndndpppp",
"pppnnnnndnnnnmneciiiooooooooo`geddndnnddndddpppp",
"pppnnnnddnnnnnfhiioiooo`o`````ooldndndddndndpppp",
"pppnnnnddnnnneioo`ooo`o`o`o`o```oceddnddddddpppp",
"pppnnndddnnndgoo`o`oo`o`oo````oooigdddddndddpppp",
"pppnnnnddndncoo`o`o`o````````o`oooobddndddddpppp",
"pppnnnnddnneoo`o``o`o``````o`o`ooooiedddddddpppp",
"pppnnnnddnnco```o``````````o``````oojdddddddpppp",
"pppnnndddndi````````o``````````o```obdeddddepppp",
"pppnnnndddfo````````````````oo`````ocdddddddpppp",
"pppnnnddddkoo```````iiiihgagio``````cdedddeepppp",
"pppnnnnddnc```oooohacbblllbcahiho``ogdeeddddpppp",
"pppnndddddc```iaaacbblkllllbbcbao```adeedeedpppp",
"pppdnnddddb```icccbblllkklkllbbao``ogdeedddepppp",
"pppndnddedc```iccbblllkklkllllbci```gdeedeeepppp",
"pppdndddedb```icbbblblllllbccabbg```gdeeddeepppp",
"pppdddddedl```hccaaacbblbcgiihgaao``hdeeedeepppp",
"pppdndddede``oaahhhihaclcghhhhggah``geefdeeepppp",
"pppdddddeedh`iagghihhgclbgggooohaa`ibeeeeeeepppp",
"pppdnddeedelohcgiiihggcklggggggaccohbeefdeeepppp",
"pppdddddeeefigcaagggaacklcaaggabbbhaleefdeeepppp",
"pppddddeeedeahbbcaacccbllccccblllbaakeffeeeepppp",
"pppddddeeeeecgbllbbbbbbllbbblllklbabkefeeefepppp",
"pppddddeeeeekccbllllbcbllbbabblbbccbjeffeeefpppp",
"pppddeeeeeeejccbllbcabcbbcbagacccaaceeffefefpppp",
"pppedddeefeeebacbccaaggaahhagggaaabjeffffeffpppp",
"pppdeeeefeefefbcacaaaaghhhgaghhggafffefffeffpppp",
"pppeedeeefeeeeeaaaagaagagaaaghgggaffffffffffpppp",
"pppeeeeeffeffffbaaagggagghgioggggcjffeffjfjjpppp",
"pppfeeeeffffjfjjaaaaiiaaacaigaaggbjfffffjjjjpppp",
"pppffeefffffjjjfcaaaahgaaagaaggghbjjffffjjjjpppp",
"pppffeefffjfjjjjlagacaggaggaaaghgbjfffffjjjjpppp",
"pppjfefffjfjjjjjjgggaaaggggacghhgbkjfffjjjjkpppp",
"pppjjfefffjjjjjjlgggacaghgaaagghgckfffffjkjkpppp",
"pppjjeffjjfjjjjbhaghaacaaaacghhhggajffjjjkkjpppp",
"pppkjffffjjjjjlgigghhgccacaaghhggghcfjffjjkkpppp",
"pppkjfffjjjjjjahigaghhgaagggihhgggihjfjjjkkkpppp",
"pppkjfffjjjkkcghiggghihihhhihhgggaihaljjjkkkpppp",
"pppkkfffjjkbggghiaagghhihihhhhgagaihgggclkkkpppp",
"pppkkjfjkcghhghhigaaghhhhhhhhgggaahiggghgcclpppp"
};
