#define face_width 48
#define face_height 48
static char face_bits[] = {
   0x00, 0x00, 0x00, 0x00, 0x00, 0x00, 0x00, 0x00, 0x00, 0x00, 0x00, 0x00,
   0x00, 0x00, 0x00, 0x00, 0x00, 0x00, 0x00, 0x00, 0x00, 0x00, 0x00, 0x00,
   0x00, 0x00, 0x00, 0x00, 0x00, 0x00, 0x00, 0x00, 0x00, 0x00, 0x00, 0x00,
   0x00, 0x00, 0x00, 0x00, 0x00, 0x00, 0x00, 0x00, 0x00, 0x00, 0x00, 0x00,
   0x00, 0x00, 0x00, 0x00, 0x00, 0x00, 0x00, 0xfe, 0xff, 0xff, 0xff, 0xff,
   0x00, 0xf0, 0xff, 0xff, 0xff, 0xff, 0x00, 0x00, 0xfe, 0xff, 0xff, 0xff,
   0x00, 0x00, 0xc0, 0xff, 0xff, 0x7f, 0x00, 0x00, 0x00, 0xf8, 0xff, 0x7f,
   0x00, 0x00, 0x00, 0x00, 0xff, 0x7f, 0x00, 0x00, 0x00, 0x00, 0xf8, 0x7f,
   0xe0, 0xff, 0xff, 0xff, 0xf0, 0x3f, 0xf0, 0xff, 0xff, 0xff, 0x07, 0x3e,
   0xf0, 0xff, 0x03, 0x00, 0xf8, 0x3c, 0xf0, 0xff, 0x03, 0x00, 0x07, 0x3d,
   0xf0, 0xff, 0x07, 0x00, 0x00, 0x3d, 0xf0, 0xff, 0x07, 0x00, 0x00, 0x1d,
   0xf8, 0xff, 0x07, 0x00, 0x7f, 0x1c, 0xf8, 0xff, 0x0f, 0xf0, 0x00, 0x1e,
   0xf8, 0xff, 0x0f, 0x1e, 0x80, 0x1f, 0xf8, 0xff, 0x8f, 0x07, 0xf0, 0x1f,
   0xf8, 0xff, 0xff, 0x01, 0xfc, 0x0f, 0xfc, 0xff, 0x3f, 0x80, 0xff, 0x0f,
   0xfc, 0xff, 0x0f, 0xf0, 0xff, 0x0f, 0xfc, 0xff, 0x03, 0xfc, 0xff, 0x0f,
   0xfc, 0xff, 0x80, 0xff, 0xff, 0x0f, 0xfc, 0x3f, 0xe0, 0xff, 0xff, 0x07,
   0xfe, 0x0f, 0xfc, 0xff, 0xff, 0x07, 0xfe, 0x03, 0xff, 0xff, 0xff, 0x07,
   0xfe, 0xe0, 0xff, 0xff, 0xff, 0x03, 0x3e, 0xfc, 0xff, 0xff, 0xff, 0x03,
   0x0f, 0xff, 0xff, 0xff, 0xff, 0x03, 0xe3, 0xff, 0xff, 0xff, 0xff, 0x03,
   0xf1, 0xff, 0xff, 0xff, 0xff, 0x01, 0x00, 0x00, 0x00, 0x00, 0x00, 0x00,
   0x00, 0x00, 0x00, 0x00, 0x00, 0x00, 0x00, 0x00, 0x00, 0x00, 0x00, 0x00,
   0x00, 0x00, 0x00, 0x00, 0x00, 0x00, 0x00, 0x00, 0x00, 0x00, 0x00, 0x00,
   0x00, 0x00, 0x00, 0x00, 0x00, 0x00, 0x00, 0x00, 0x00, 0x00, 0x00, 0x00,
   0x00, 0x00, 0x00, 0x00, 0x00, 0x00, 0x00, 0x00, 0x00, 0x00, 0x00, 0x00};
