#define noname_width 48
#define noname_height 48
static char noname_bits[] = {
 0x00,0x12,0x02,0x00,0x00,0x00,0x40,0x81,0xb0,0x40,0x00,0x00,0x00,0x2a,0x6e,
 0x05,0x09,0x00,0x40,0x41,0xff,0x13,0x40,0x00,0x00,0xaa,0x7f,0x47,0x00,0x00,
 0x80,0xc4,0xff,0x3f,0x10,0x00,0x00,0xe9,0xff,0xbf,0x80,0x00,0x40,0xf2,0xff,
 0x5b,0x0a,0x00,0x80,0xf4,0xff,0xff,0x22,0x00,0x00,0xf9,0xff,0xff,0x0d,0x00,
 0x80,0xf4,0xff,0xff,0x0b,0x00,0x00,0xf9,0xff,0xbf,0x96,0x00,0x80,0xfc,0xff,
 0x55,0x0f,0x00,0x00,0xfd,0xff,0x0f,0x1d,0x01,0x40,0xfc,0x7f,0x41,0x0e,0x00,
 0x80,0xfa,0x0a,0x00,0x8d,0x00,0x00,0xfd,0x7d,0xc0,0x0e,0x00,0x80,0x78,0xfb,
 0xf5,0x27,0x01,0x00,0xfd,0xee,0xb9,0x86,0x00,0x40,0xe9,0x38,0xe9,0x25,0x00,
 0x00,0xba,0xa0,0xa8,0x82,0x00,0x40,0x69,0x03,0x42,0x28,0x01,0x00,0xaa,0x80,
 0x09,0x01,0x00,0x40,0xf1,0x05,0x02,0x24,0x01,0x00,0x55,0xc1,0x0d,0x09,0x00,
 0x80,0xf0,0x16,0xaf,0x42,0x01,0x80,0xea,0xd5,0x5d,0x15,0x02,0x00,0x69,0xf5,
 0xb7,0x82,0x00,0x80,0xf2,0x5a,0x7f,0x29,0x02,0x80,0xa8,0xa5,0xa8,0x0a,0x00,
 0x00,0xf5,0x97,0xd2,0xa4,0x02,0x80,0xd4,0x2f,0xa9,0x12,0x00,0x80,0x7a,0x5f,
 0x7a,0x45,0x02,0x80,0xbc,0xff,0x1a,0x29,0x00,0xc0,0xd5,0xfe,0xaf,0x92,0x00,
 0xc0,0xbe,0xfd,0x0f,0x2a,0x01,0x40,0xab,0xfe,0xd3,0x82,0x00,0x80,0x7f,0xab,
 0x0b,0x5a,0x00,0xc0,0xaa,0xfe,0xd5,0x0a,0x01,0x40,0xff,0xaa,0x25,0xaa,0x00,
 0xc0,0x6d,0xfb,0x49,0x15,0x01,0xc0,0xfb,0xd7,0x92,0xaa,0x00,0xc0,0xaf,0xfd,
 0x4b,0x25,0x02,0x40,0x7f,0xbf,0x2b,0x55,0x01,0xc0,0xff,0xfd,0x5d,0x95,0x00,
 0x80,0x7d,0xff,0xb3,0x54,0x00,0xc0,0xff,0xff,0x3b,0xab,0x02,0xc0,0xff,0xff,
 0x7f,0x55,0x01};
