/* XPM */
static char * face_xpm[] = {
/* width height ncolors chars_per_pixel */
"48 48 4 1",
/* colors */
" 	c blue",
".	c red",
"X	c slate grey",
"o	c white",
/* pixels */
"        ...        ...    ......................",
"        ...        ...    ......................",
"        ...        ...    ......................",
"        ...        ...    ......................",
"        ...        ...    ......................",
"        ...        ...    ......................",
"        ...        .............................",
"        ...        ...    ...    ..  ....     ..",
"         .         ...    ...    .   ...       .",
"         .         ...    ...    .   ..         ",
"         .         ...    ...        .          ",
"         .         ...    ...        .          ",
"         .         ...    ...        .    ..    ",
"         .         ...    ...        .    ..    ",
"     .       .     ...    ...        .    ..    ",
"     .       .     ...    ...      ...    ..    ",
"     .       .     ...    ...     ..........    ",
"     .       .     ...    ...    ..........     ",
"     .       .     ...    ...    ........       ",
"     .       .     ...    ...    .......        ",
"     .       .     ...    ...    ......         ",
"     .       .     ...    ...    .....          ",
"     .       .     ...    ...    .....     .    ",
"     .       .     ...    ...    .....    ..    ",
"     ..     ..     ...    ...    .....    ..    ",
"     ..     ..     ...    ...    .....    ..    ",
"     ..     ..     ...    ...    .....    ..    ",
"     ..     ..     ...    ...    .....    ..    ",
"     ..     ..     ...    ...    .....    ..    ",
"     ..     ..     ...    ...    .....     .    ",
"     ..     ..     ...    ...    .....          ",
"     ..     ..     ...    ...    .....          ",
"     ..     ..     ...    ...    .....          ",
"     ..     ..     ...    ...    ......    .    ",
"................................................",
"................................................",
"................................................",
"XXXXXXXXXXXXXXXXXXXXXXXXXXXXXXXXXXXXXXXXXXXXXXXX",
"XXXXXXXXXXXXXXXXXXXXXXXXXXXXXXXXXXXXXXXXXXXXXXXX",
"XXXXXXXXXXXXoXXXXXXXXXXXXXXXXXoXXXXoXXXXXXXXXoXX",
"XXoXXoXXoXXoooXoXoXoXXooXXXooXoXXoXXXXoooXXoooXX",
"XXooXoXoXoXXoXXoXoXoXoXXoXoXXXoXoXXoXXoXXoXoXoXX",
"XXoXooXoooXXoXXXoooXXoXXoXoXXXooXXXoXXoXXoXoooXX",
"XXoXXoXoXXXXoXXXoXoXXoXXoXoXXXoXoXXoXXoXXoXoXXXX",
"XXoXXoXXooXXXoXXoXoXXXooXXoXXXoXXoXoXXoXXoXoooXX",
"XXXXXXXXXXXXXXXXXXXXXXXXXXXXXXXXXXXXXXXXXXXoXoXX",
"XXXXXXXXXXXXXXXXXXXXXXXXXXXXXXXXXXXXXXXXXXXoooXX",
"XXXXXXXXXXXXXXXXXXXXXXXXXXXXXXXXXXXXXXXXXXXXXXXX"};
