#define noname_width 48
#define noname_height 48
static char noname_bits[] = {
 0x80,0x88,0xaa,0xab,0x00,0x00,0x40,0x55,0xfa,0x6f,0x55,0x01,0x00,0xa9,0x6f,
 0x75,0x01,0x00,0x80,0x84,0xfa,0xff,0x56,0x01,0x80,0xea,0xff,0xef,0x0b,0x00,
 0x80,0xd4,0xff,0xfd,0x2f,0x01,0x80,0xf2,0xff,0x7f,0x97,0x00,0x00,0x69,0xef,
 0xff,0x3f,0x00,0x40,0xfa,0xff,0xff,0xbf,0x00,0x00,0xf5,0xff,0xdb,0x3b,0x01,
 0x40,0xfd,0x6f,0xf5,0x5f,0x00,0x40,0xfa,0x8b,0x80,0x3f,0x00,0x80,0xfe,0x01,
 0xa4,0x5f,0x01,0x40,0xf9,0x05,0x48,0x3f,0x00,0x00,0xfd,0x00,0xa0,0x9f,0x02,
 0x40,0xfd,0x0a,0xa0,0x5e,0x00,0x80,0xfe,0x22,0x54,0x1f,0x01,0x40,0xf9,0x3d,
 0xf4,0xbf,0x00,0x00,0x7d,0x75,0x9e,0x3e,0x02,0x80,0x7e,0x5d,0xf4,0xbf,0x00,
 0x40,0x7d,0x21,0x4a,0x5e,0x02,0x00,0x7d,0x4a,0x25,0xbf,0x00,0x40,0x7d,0x21,
 0x8a,0x0e,0x01,0x80,0xaa,0x80,0x24,0xab,0x00,0x40,0x55,0x52,0x8a,0x0e,0x01,
 0x40,0xaa,0x54,0x5d,0xab,0x00,0x80,0xfa,0x4a,0xab,0x16,0x01,0x40,0x65,0xa9,
 0x94,0x4f,0x01,0x80,0xea,0x2a,0x5a,0x93,0x00,0x40,0xd5,0x12,0xa5,0x4b,0x02,
 0x80,0xaa,0xa5,0xea,0x92,0x00,0x40,0x55,0x4b,0xaa,0x55,0x02,0x80,0xaa,0x92,
 0xec,0x48,0x01,0x40,0xd5,0x2e,0x75,0x25,0x01,0x80,0x4a,0xdb,0xde,0xaa,0x02,
 0x80,0xaa,0xb5,0x76,0x91,0x00,0x40,0x65,0xef,0x7f,0x55,0x01,0x80,0xa2,0x74,
 0xdb,0x49,0x02,0x40,0xc0,0xda,0x7d,0xa9,0x00,0x00,0xa0,0x56,0xd7,0x41,0x02,
 0x00,0x40,0x55,0xfd,0x91,0x02,0x00,0x80,0xb5,0x56,0x05,0x01,0x00,0x00,0xd5,
 0xfb,0x00,0x02,0x00,0x00,0xb5,0xd6,0x00,0x00,0x00,0x00,0xea,0xda,0x40,0x00,
 0x00,0x00,0x50,0x55,0x02,0x00,0x00,0x00,0xa1,0x2a,0x00,0x00,0x00,0x80,0xda,
 0x4d,0xa1,0x00};
