/* XPM */
static char *noname_xpm[] = {
/* width height ncolors chars_per_pixel */
"48 48 17 1",
/* colors */
"` c black",
"a c grey33",
"b c grey47",
"c c grey40",
"d c grey87",
"e c grey80",
"f c grey73",
"g c grey27",
"h c grey20",
"i c grey13",
"j c grey67",
"k c grey60",
"l c grey53",
"m c white",
"n c grey93",
"o c grey7",
"p s None c None",
/* pixels */
"ppppppkklklllbbcagagaaaaaaagagggggggggggggpppppp",
"ppppppkkllllbbbaaggaaaaaaaaaaaggggggggggggpppppp",
"ppppppklllllbbccagaacccgggihagagggggagagghpppppp",
"ppppppkllllblbcaabkjfjcgiio`ogggggggggggggpppppp",
"ppppppllllbblbbcllkffbgio`````agggagagggggpppppp",
"pppppplbbblbbbhihakffcho``````ocagggggggggpppppp",
"pppppplblbbbch`ohccag``````````ihhgggggghhpppppp",
"ppppppllbbbco`oabbggaoii````````o`gagaggggpppppp",
"ppppppbbbbbo````o`````o``````o````ogagggggpppppp",
"ppppppbbbcg````````````````````````haaggghpppppp",
"ppppppbbbco````````````````````````oagagggpppppp",
"ppppppbbbg```hhh````````hgho````````gaggghpppppp",
"ppppppbcch``ockfbho``oiabcahh```````gaggghpppppp",
"ppppppcbci``objfdejllllkklcaho``````gaggghpppppp",
"ppppppbcci``ockfendddeefjlbah```````gaggghpppppp",
"ppppppbcch``obkfdndddeefjlbgho``````aaggghpppppp",
"ppppppbccg``hckfdddddeefklcgho``````ggaghhpppppp",
"ppppppcbcc``gcbcbjfefjlghgghhi`````ogagghhpppppp",
"ppppppcccao`aghhigcklahoihhiiio````igggghhpppppp",
"ppppppbccch`hihio``gc```oooooio````iggghhhpppppp",
"ppppppcccccihh```oogk``h````oio``oohggghhhpppppp",
"ppppppbcccchhghhohhcloihhiohhi```oiggggghhpppppp",
"ppppppcccccghccagaallhhgghgahi```oghgghhhhpppppp",
"ppppppcccccagcbbcccklhhaacccai```ighggghhhpppppp",
"ppppppcccacagcbbclljkggccbbcgo```hhghghhhipppppp",
"ppppppccccaghclkjkcklihcllbcho``ohigghghhipppppp",
"ppppppcccacgibkjjkiii``alllcho``ooihhhhhhipppppp",
"ppppppccacagoalkkco````hbbcgi````ohgghghhipppppp",
"ppppppccaaag`gccho``````ohgho````hhhhhhhhipppppp",
"ppppppccacagoiao``````````io`````hhghhhhiipppppp",
"ppppppcacaaao`io`oooo`````o``````hhhhhhiiipppppp",
"ppppppcaaaaai``ooaaaghhio````````hghhhihiipppppp",
"ppppppcaaaaah````io````oo````````ighhhiiiipppppp",
"ppppppccaaaggo``````````````````gbaihhhiiipppppp",
"ppppppcaaaaggho```````````````oclkbhhiiiiopppppp",
"ppppppccaaaaggi``````````````ibljjkhhhhiiopppppp",
"ppppppcaaaagghhio``````````ogkkjfflahiiiiipppppp",
"ppppppccaaagggafk`````````ibkjjfeekcbhiiiopppppp",
"ppppppcaaaaggbndjh```````gbjjjeeeeffklhiiipppppp",
"ppppppccaaaglmnjlai````hcljjjeddndeffkkhiopppppp",
"ppppppcacagcdmdfkagggablkjjfedddnnnmndejgipppppp",
"ppppppccaaaadnmflckeeffffffddeeddnnnddeejcpppppp",
"ppppppccaacfnjjkkllndefffedeeedeeeeddddefjpppppp",
"ppppppccccdmnejjklleeefeddeddddddeedmnnddfpppppp",
"ppppppcccdmmmnendfffffenddndnnddenmmmmmmndpppppp",
"ppppppccemmmmmnmmddfedndnnnndeddmmmmmmmmmnpppppp",
"ppppppbjmmmmmmmnnmddnmnnnndednnnmmmmmmmmnmpppppp",
"ppppppafefefeffffjkefjjjkkkjjjjfffffffffjepppppp"
};
