#define noname_width 48
#define noname_height 48
static char noname_bits[] = {
 0x00,0x22,0x80,0x40,0x12,0x00,0x80,0x54,0x25,0x25,0x88,0x00,0x80,0x48,0x80,
 0x80,0x12,0x02,0x40,0x92,0x48,0x24,0x49,0x00,0x80,0x24,0x02,0x11,0x14,0x00,
 0x40,0x92,0x80,0x46,0x25,0x01,0x00,0x29,0x40,0x25,0x10,0x00,0x80,0x88,0xe8,
 0x43,0x08,0x01,0x80,0x52,0xf4,0x0a,0x40,0x00,0x40,0x94,0xfe,0xf7,0x00,0x00,
 0x80,0xe2,0xef,0x1f,0x03,0x01,0x40,0x68,0xff,0xff,0x7f,0x00,0x80,0xf2,0xff,
 0xff,0xbf,0x00,0x00,0xf9,0xff,0xff,0xff,0x00,0x40,0xfa,0xff,0xff,0xff,0x02,
 0x00,0xf9,0xf7,0xfd,0xff,0x00,0x40,0xfa,0x15,0xea,0xff,0x02,0x00,0xf9,0x82,
 0xd0,0xff,0x01,0x40,0xfa,0x01,0xd0,0xff,0x00,0x80,0xfa,0x02,0x40,0xff,0x01,
 0x80,0xf4,0x00,0xc8,0xff,0x02,0x00,0xf9,0x05,0x2a,0xff,0x01,0x40,0xf2,0x8a,
 0xfe,0xfe,0x00,0x00,0xf9,0x3f,0xbe,0xff,0x03,0x40,0xf5,0x8f,0x75,0xfd,0x00,
 0x40,0xe2,0x35,0x88,0xfe,0x03,0x80,0x74,0x85,0x42,0xdb,0x00,0x80,0x8a,0xa8,
 0x80,0xee,0x02,0x80,0x54,0x11,0x45,0xdf,0x01,0x40,0x49,0x29,0x95,0xf5,0x02,
 0x80,0x52,0xad,0xd6,0xde,0x01,0x40,0x2a,0xfb,0xb7,0xff,0x02,0x80,0xaa,0xfd,
 0xdf,0xfe,0x02,0x40,0x25,0x5f,0xbd,0x7f,0x01,0x80,0x54,0xb5,0xe6,0x7f,0x03,
 0x80,0x2a,0xaf,0xb5,0x7f,0x01,0x40,0xa9,0x6e,0xfb,0xff,0x02,0x80,0xaa,0xbc,
 0xec,0xff,0x03,0x40,0x95,0xd6,0xfe,0xfb,0x03,0x00,0x55,0x59,0xfd,0xff,0x03,
 0x40,0x55,0xfe,0xff,0xff,0x03,0x40,0x55,0xe9,0xff,0xfe,0x03,0x80,0xaa,0xfa,
 0xff,0xff,0x03,0x80,0xaa,0xfe,0xff,0xff,0x03,0x40,0xb5,0xff,0xdf,0xff,0x03,
 0x40,0xeb,0xff,0xff,0xff,0x03,0x80,0xfa,0xff,0xff,0xff,0x03,0xc0,0xfd,0xff,
 0xff,0xff,0x03};
