#define noname_width 48
#define noname_height 48
static char noname_bits[] = {
 0x00,0xaa,0x2a,0x09,0x82,0x00,0x00,0x55,0xf5,0x47,0x29,0x01,0x00,0xaa,0xfe,
 0x2d,0x4a,0x02,0x00,0xb5,0xfe,0x1f,0x92,0x00,0x80,0xaa,0xff,0xdf,0x24,0x01,
 0x00,0xda,0xff,0x7f,0x95,0x00,0x80,0xea,0xff,0xff,0x52,0x02,0x00,0xfa,0xff,
 0xff,0x0b,0x01,0x80,0xf6,0xff,0xff,0x55,0x02,0x00,0xfd,0xff,0xff,0x4b,0x01,
 0x80,0xfa,0xff,0xff,0x2b,0x00,0x00,0xfd,0xff,0xff,0x97,0x01,0x80,0xfe,0xff,
 0xe2,0x57,0x02,0x00,0xfd,0x5f,0x91,0x2f,0x01,0x80,0xfe,0x2f,0x40,0x57,0x02,
 0x80,0xfe,0x97,0x80,0x4f,0x01,0x00,0xfd,0x2f,0x20,0x57,0x02,0x80,0xfe,0x2f,
 0x44,0x57,0x01,0x80,0xfe,0x5b,0x80,0xab,0x00,0x00,0xfd,0xff,0xf5,0x57,0x02,
 0x80,0xfe,0xff,0xfb,0xaf,0x00,0x80,0xfa,0xff,0xf5,0xab,0x02,0x00,0xfd,0xad,
 0x5a,0xaa,0x00,0x40,0xf5,0x7b,0xa3,0xaa,0x02,0x80,0xde,0x87,0x0a,0x55,0x01,
 0x40,0xf2,0xab,0x56,0xac,0x02,0x80,0xfe,0x97,0xa5,0xaa,0x02,0x00,0xb9,0xad,
 0xb7,0x56,0x01,0x80,0xf6,0x6f,0xff,0x6d,0x01,0x40,0xfd,0xef,0xff,0xab,0x02,
 0x00,0xfd,0xfb,0xff,0x56,0x01,0x80,0xf4,0xff,0xd5,0xdb,0x02,0x80,0xfa,0x77,
 0xab,0xb6,0x02,0x00,0x55,0x5e,0xb5,0x55,0x01,0x80,0xaa,0x7e,0xd5,0x6e,0x03,
 0x40,0x35,0xd1,0x4a,0x5b,0x01,0x00,0x15,0x74,0xbb,0xad,0x02,0x80,0x0a,0x80,
 0x3f,0xeb,0x02,0x80,0x0a,0x44,0x2e,0xae,0x02,0x00,0x01,0x00,0xb0,0xd4,0x02,
 0x40,0x00,0x00,0x28,0xac,0x01,0x00,0x00,0x00,0x20,0xb1,0x02,0x00,0x10,0x00,
 0xa6,0x5a,0x01,0x00,0x00,0x00,0x40,0xd5,0x02,0x00,0x00,0x00,0xa2,0xad,0x01,
 0x00,0x00,0x00,0x29,0xb4,0x02,0x00,0x00,0x00,0x28,0xad,0x02,0x80,0x24,0x08,
 0x92,0xda,0x02};
