/* XPM */
static char * face_xpm[] = {
/* width height ncolors chars_per_pixel */
"48 48 15 1",
/* colors */
" 	s None	c None",
".	c grey80",
"X	c grey73",
"o	c grey67",
"O	c grey53",
"+	c grey27",
"@	c grey20",
"#	c grey33",
"$	c grey13",
"%	c grey7",
"&	c grey47",
"*	c grey60",
"=	c grey40",
"-	c grey93",
";	c grey87",
/* pixels */
"        ..............XXX...............        ",
"        ..........oO+@@@+#OX............        ",
"        ........o#$%$$$@@@@&o...........        ",
"        ......X&$%%%$$$@@@@@+o..........        ",
"        ......&%%%%%$$$$$@@@@+&o........        ",
"        .....*$%%%%%%$$$$$@@@@$@#*X.....        ",
"        ....o@%%%%%%%%$@@$$$@@$$$@&X....        ",
"        ...X=%%%%%%%$$$$@@@$$$$%$@+&....        ",
"        ...O%%%%%%%$$$$$$$$$$$$$%$++o...        ",
"        ..*$%%%%%%%$$$@$$$@@@@$$$$++&...        ",
"        ..#%%%%%%%%$$$@@@@@+++#$$@++@o..        ",
"        .o$%%%%%%%%$$@@@@+#==&&+$@+@$&..        ",
"        .O%%%%%%%%%$$@++#=&*O*OO$$@$$+..        ",
"        .&%%%%%%%%%$@++#&Ooo*o**+$@@$@X.        ",
"        .+%%%%%%%%$+++#&*oX.oooo=$+@$+..        ",
"        o$%%%%%%%%@+#=&*oX..XXoo&@+@$$X.        ",
"        o%%%%%%%%$#=&=OoXXXXXXooO#+@$$X.        ",
"        o%%%%%%%$+=&&OOooooXXXoo*+@@$$o.        ",
"        X$%%%$$$$#=&&O*oooX..Xoo*#$$$$o.        ",
"        X$%%$@@@+=&OO*XooX..o**o*&$$$@X.        ",
"        X%%%$@@@+=&&*ooooO==#&OOO*$$$@X.        ",
"        .$%%$@@@@+@+#&*o*&#=&O*OO*@$++X.        ",
"        .+%%$@@+#=#+++=oXO=###=O**+#*O..        ",
"        .#%%$@@+@++X#@#oXo=O#o&O**#***..        ",
"        .+$%$@+++==*=+#*ooOO*oooooOoo*..        ",
"        X@@$@@###&O*=+#*XoXoXXXoXo*oXo..        ",
"        .#@@@@#==&OO=+#*ooXXXXXXX*Oooo..        ",
"        .&@@@@+==OOO#@=*ooXXX.XXX*OOXo..        ",
"        .*@@@@+#&&OO++&o.XoXX..Xo*OXoX..        ",
"        ..+@@@+#=OOO@+#*XOXo..XXo**XoX..        ",
"        ..*@@@@+=&*O#@@=*OXXX.XooO&oX...        ",
"        ...&@@@+=&*O==&*ooXXXXXo*Oo.....        ",
"        ....o#@+#&&=#=*o*XooXXoo***.....        ",
"        .....*@@##==#==OO*XooXo***X.....        ",
"        .....o@++#&=@##==&&O&oo***X.....        ",
"        ......#@+#O=+#&O*ooX*oo***......        ",
"        ......=@+#&=#=OOOoXXXo***o......        ",
"        ......*@++##=&OO*oXXoo***o......        ",
"        ......*+@++#==&*ooooo**OOX......        ",
"        .....X#++@@@#=OoooX***O**o......        ",
"        ....o+@@+++@+#Oo**o*OOOo*.......        ",
"        ...o++$+@++++#&O&&OO&O*o&XX.....        ",
"        ..X=+@$+@@@++#==##==O*oo&&Xo....        ",
"        ..o=+@$+++++++##==&O*ooo&=XOoX..        ",
"        ..OO+$$+++++++##=&O**oXo&=o--.o*        ",
"        .oOo@$@+###++==&O****oXoO#X.--.X        ",
"        X+XX+@@+#==##=&&Ooooo*oo*+X.-;..        ",
"        =#;;#+++#===#=&OOoooooooO@o.-..;        "};
