/* XPM */
static char *noname_xpm[] = {
/* width height ncolors chars_per_pixel */
"48 48 17 1",
/* colors */
"` c black",
"a c grey33",
"b c grey47",
"c c grey40",
"d c grey87",
"e c grey80",
"f c grey73",
"g c grey27",
"h c grey20",
"i c grey13",
"j c grey67",
"k c grey60",
"l c grey53",
"m c white",
"n c grey93",
"o c grey7",
"p s None c None",
/* pixels */
"pppjjffefffffjfjffffffefeeeeefjjjjjjjjjkkkkkpppp",
"pppjjfffffffffjfjffffefeeeefffjjjjjjjjjkkjkkpppp",
"pppjjjffeffffjjjfjfffefeeefffjjjjjjjjfjkkjkjpppp",
"pppjjjfffeeffffjfffffeefefeffjfjjjjfjjjkjkkkpppp",
"pppjjjjfefeffffffffeefeeffffffjjjjjjfjkjkjjkpppp",
"pppjjjjffeefeefffeefeeeefefffjjjjjjffjkjkjkkpppp",
"pppfjjjffeeefeeeeeeeefefffffjjjjjjffjjkjjjkjpppp",
"pppjfjjjffeeeeeeefefefjfffjjfjjjjjffjjjkjjkjpppp",
"pppjfjjjfeeeefeeeeeffkbbllaabjjjjfffjjkjjjjkpppp",
"pppjffjjffeeeefeefjbaablabbcgaljjfffjkjjjjjjpppp",
"pppjfffjjfeeeeeeflggabcccgccghglffffjjjjjjjkpppp",
"pppjffjfjfeeeeejagaahhigcghiaghhbefjjjjjjjjjpppp",
"pppjffffjffedefghgahohggghhghgahibfjjjjjfjjjpppp",
"pppjffffjffeeeahgghihhhghhgabggghiljjjjffjjjpppp",
"pppjfffffjfeekhhggghhhghhhcblaahihhjjjjfjfjjpppp",
"pppjjfeffjfffghhhcaaagcacabacaaaihibjjffffjjpppp",
"pppjfffefffflhiihacccccblcaghhihh`hgjffffjjjpppp",
"pppjfffeffjjgiooiaacbcbbbbghoiiihooijjffffjjpppp",
"pppfjfeeffjlii`oiacaccclbbghoooioo`icfffffjfpppp",
"pppffffeefjbh``ohaccbcccbbcgiooooo``ikffffjjpppp",
"pppjffeeefjg````habblbcccbbagi`o`o`ooafffjfjpppp",
"pppjfffeeelo```ogckjkllbccblbhioo````ilfffjjpppp",
"pppjfffeefaooo``abfffjjffjkfndlhio```objfjjjpppp",
"pppjffefefhhgo`oakjeeeddennnnmnkaoo```bkjfjjpppp",
"pppjfffefkgcgo`hacagabjdnekcbkjjjoio``ckjjjjpppp",
"pppjfffefkcch``aagiiiiadmjhhhabjeiio``akjjjjpppp",
"pppjjffeflbho``cbabljlhdmejjlfleehoio`gjjjjkpppp",
"pppkjfffjcgh``oajfllkjcdmdfjjedmegooo`gkjkjjpppp",
"pppjjffflchi```ajdnndekdmnnednmmfg`oiogkjjkkpppp",
"pppkjjfjcagho``gkedmmdknmnmmmmmnfbh`oiakkkjkpppp",
"pppkjjfkbcahi``hbjddneknmnnmmmmdkbo`ohajkkkkpppp",
"pppkkjjklcagh``hckfddjldmddmnndebo``igckkkkkpppp",
"pppkkjjjlccag``habjeelabflnnddefc`o`iabkkkkkpppp",
"pppkkjjjkabcao`iabkfekghlenneeejcio`hackkkkkpppp",
"pppklkjjlalcao`iabkkjjbbfnndefffgiiohcclllkkpppp",
"pppkkkjklabcai``aclcalljfjjjjeejggiigcalkkkkpppp",
"pppklkkkbabbai``hcblhihgcbbkeejchghhacglkkkkpppp",
"pppkklkkcabcch```aabbbkjfeffejlahahgccgblkkkpppp",
"pppkllkbagbcch```iacbccllkkeeklcaaggbcgclkkkpppp",
"pppkkllcagccaho``ogablbblkfejckgabagbahglkkkpppp",
"pppkklcgggaagho```igckfenddfbbkgabcgbaghlkkkpppp",
"pppkklaghhaaghi```ihabjeedfbajchagcabagickklpppp",
"pppkklcgihgaghi```ihgaclklcgljhihhccaaghgkklpppp",
"pppkklchihggghio`oohgacccaabfliiiicagaghglklpppp",
"pppkklbhhihiggioo`ihhgaaaacffcoiihighgggclllpppp",
"pppkklchhiiihhhoooohhhggacjfjgoiiiihhggcjdjkpppp",
"pppklllahhooihhiioihhggaaljfjhoiiiihhggcbnmmpppp",
"ppplkfkcgiioohhihihgggaacjjfjhohioihhhcbbjmmpppp"
};
