#define face_width 48
#define face_height 48
static char face_bits[] = {
   0x00, 0x00, 0x00, 0x00, 0x00, 0x00, 0x00, 0x00, 0x00, 0x00, 0x00, 0x00,
   0x00, 0x00, 0x00, 0x00, 0x00, 0x00, 0x00, 0x00, 0x00, 0x00, 0x00, 0x00,
   0x00, 0x00, 0x00, 0x00, 0x00, 0x00, 0x00, 0x00, 0x00, 0x00, 0x00, 0x00,
   0x00, 0x00, 0x00, 0x00, 0x00, 0x00, 0x00, 0x00, 0x00, 0x00, 0x00, 0x00,
   0x00, 0x00, 0x00, 0x00, 0x00, 0x00, 0x00, 0x00, 0x00, 0x00, 0x00, 0x00,
   0x00, 0x00, 0x00, 0x00, 0x00, 0x00, 0x00, 0x00, 0x00, 0x00, 0x00, 0x00,
   0xfe, 0x1f, 0xff, 0xfe, 0x01, 0x3e, 0xfe, 0x1f, 0xff, 0xfe, 0x81, 0x3f,
   0xfe, 0x3f, 0xff, 0xfe, 0xc1, 0x3f, 0xfe, 0x3f, 0xff, 0xfe, 0xe1, 0x3f,
   0xfe, 0x3f, 0xff, 0xfe, 0xf1, 0x3f, 0x00, 0x00, 0x00, 0x00, 0x00, 0x00,
   0xa4, 0x24, 0x92, 0x24, 0x91, 0x02, 0xfe, 0x7f, 0xff, 0xfe, 0xfd, 0x01,
   0xfe, 0xff, 0xff, 0xfe, 0xfd, 0x00, 0xfe, 0xff, 0xff, 0xfe, 0xfd, 0x00,
   0x00, 0x00, 0x00, 0x00, 0x00, 0x00, 0xfe, 0xff, 0xff, 0xfe, 0x7d, 0x00,
   0xfe, 0xff, 0xff, 0xfe, 0xfd, 0x00, 0x48, 0xa9, 0xaa, 0xa8, 0x48, 0x00,
   0x12, 0x00, 0x00, 0x02, 0x11, 0x00, 0xfe, 0xfd, 0xff, 0xfe, 0xfd, 0x01,
   0x48, 0x55, 0x55, 0x54, 0x50, 0x01, 0x24, 0x20, 0x89, 0x08, 0x01, 0x08,
   0xfe, 0xfd, 0xff, 0xfe, 0xf1, 0x3f, 0x44, 0x91, 0x48, 0xa4, 0xa0, 0x12,
   0xfe, 0xf9, 0xff, 0xfe, 0xc1, 0x3f, 0x00, 0x00, 0x00, 0x00, 0x00, 0x00,
   0xfe, 0xf1, 0xff, 0xfe, 0x01, 0x3c, 0xaa, 0x40, 0x55, 0x54, 0x01, 0x00,
   0x00, 0x00, 0x00, 0x00, 0x00, 0x00, 0x00, 0x00, 0x00, 0x00, 0x00, 0x00,
   0x00, 0x00, 0x00, 0x00, 0x00, 0x00, 0x00, 0x00, 0x00, 0x00, 0x00, 0x00,
   0x00, 0x00, 0x00, 0x00, 0x00, 0x00, 0x00, 0x00, 0x00, 0x00, 0x00, 0x00,
   0x00, 0x00, 0x00, 0x00, 0x00, 0x00, 0x00, 0x00, 0x00, 0x00, 0x00, 0x00,
   0x00, 0x00, 0x00, 0x00, 0x00, 0x00, 0x00, 0x00, 0x00, 0x00, 0x00, 0x00,
   0x00, 0x00, 0x00, 0x00, 0x00, 0x00, 0x00, 0x00, 0x00, 0x00, 0x00, 0x00};
