/* XPM */
static char *noname_xpm[] = {
/* width height ncolors chars_per_pixel */
"48 48 17 1",
/* colors */
"` c black",
"a c grey33",
"b c grey47",
"c c grey40",
"d c grey87",
"e c grey80",
"f c grey73",
"g c grey27",
"h c grey20",
"i c grey13",
"j c grey67",
"k c grey60",
"l c grey53",
"m c white",
"n c grey93",
"o c grey7",
"p s None c None",
/* pixels */
"ppppppdefjjjjjkjffffeeffjffeeeffffefjjjjfepppppp",
"ppppppdefjjjjkkjfjeeeejfeddeeeffffffjkjjfepppppp",
"ppppppdefjjkjkkffjfeejklenmmeffeffffjjjjffpppppp",
"ppppppdefjkjjkklbghgigclenefkbjfffejjkjjfepppppp",
"ppppppdefjjkjlahiooo`ogabbahhgcffffjjjjjjfpppppp",
"ppppppdffjkjlhioo`oio`oohahiiiibfffjjkjjffpppppp",
"ppppppeefjkkgoooooghhioo`oooigahkffjjkjjffpppppp",
"ppppppeefjkkh``oigacccgio`ogacfaajfjjkjjffpppppp",
"ppppppeffjjb````habclkcaghckfjjjhcfjkkjjjfpppppp",
"ppppppeffjja```oaacbkjkjjfdnndfkahjjkkkjjfpppppp",
"ppppppeffjkg```oaaclkennmmmmmdfklijkkkjjjjpppppp",
"ppppppefjjka```igabljfnnmmmmmnejbhkjkkkjjjpppppp",
"ppppppeffjkg```ogaclkfdnmmmmndfjchlkkkjkjjpppppp",
"ppppppffjjja```ogacljfednmmnddfkbilklkkjjjpppppp",
"ppppppejjjkc```ohgcbkednnmnnndfkbokkkkkkjjpppppp",
"ppppppffjkkai``hhgghggbfddnefkkkcikkkkkkjjpppppp",
"ppppppejjklgh``hghiiooohljkaioiaagjkklkkjjpppppp",
"ppppppffjkkcgi`gghioohihbfbgoihgccklkkkkkjpppppp",
"ppppppffjkkbhiogabbaclbacekbabcbbkkkklkkjkpppppp",
"ppppppffjkkbhaihgbkklklclfjjkjjjkkkklkkkjkpppppp",
"ppppppffjjklagihgljeeflbbjffdddjlkkkllkkjkpppppp",
"ppppppfjjkkkcahhaljedflbbfjjdndflkklklkkkkpppppp",
"ppppppffkkkllhhgackjlbcclfelbjeflkklllkkkkpppppp",
"ppppppfjjkkllhigagcacahabjflbglklklklllkkkpppppp",
"ppppppfjjkklkiiacahihio``ghhghgbbkllllklkkpppppp",
"ppppppjjkkkbjhohcaho`ooighioiialbkllllllkkpppppp",
"ppppppjjjklakc`icclbchalljaglblbllllllklklpppppp",
"ppppppjjkkbohki`hacjklcbbcckkkcclllbllllllpppppp",
"ppppppjjklh``bc`ogalklbllkkjjaallllbllllklpppppp",
"pppppplcaho``ijh`igakjkllkjfbgblkllbbbllllpppppp",
"ppppppio``````aji`hicjjffeflgbllllbbbbllllpppppp",
"ppppppio```````lji`ooakjjjlaalllllbbbbbllbpppppp",
"ppppppio```````idjh```hacahcllblbbbbbbblllpppppp",
"ppppppo`````````bneco````ohflbblbbbbbblblbpppppp",
"pppppp``````````oemkch``igbjllllbbccbcbblbpppppp",
"pppppp```````````hekogooallcjhclbbcbcbblbbpppppp",
"pppppp````````````ajgiogackgagalbcbcbbbbbbpppppp",
"pppppp````````````ocbhicaiiohbclgccbcbbbbbpppppp",
"pppppp`````````````iciiggo`abllloogccbbbbbpppppp",
"pppppp``````````````gblefgoogihg```ohccbbcpppppp",
"pppppp``````````````hfemnelbb````````hcbbcpppppp",
"pppppp```````````````ednnddeh`````````gcbcpppppp",
"pppppp```````````````amfdmmf``````````ocbcpppppp",
"pppppp````````````````ememmdh``````````abcpppppp",
"pppppp````````````````cnnmmdb``````````hcbpppppp",
"pppppp````````````````odmmmmf``````````obcpppppp",
"pppppp`````````````````kmmmmdi`````````iccpppppp",
"pppppp`````````````````ajeeefh`````````iaapppppp"
};
