/* XPM */
static char *noname_xpm[] = {
/* width height ncolors chars_per_pixel */
"48 48 16 1",
/* colors */
"` c grey33",
"a c grey47",
"b c grey40",
"c c grey87",
"d c grey80",
"e c grey73",
"f c grey27",
"g c grey20",
"h c grey13",
"i c grey67",
"j c grey60",
"k c grey53",
"l c white",
"m c grey93",
"n c grey7",
"o s None c None",
/* pixels */
"ooollllllllllllllllllmddijiclllllllllllllllllooo",
"ooollllllllllllllllljfkbfhhhbclllllllllllllllooo",
"ooollllllllllllllmcjfafhnnnnngdllllllllllllllooo",
"ooollllllllllllllcjnhb`nnnnnnngclllllllllllllooo",
"ooolllllllllllllmegnnf`hnnnnnnn`lllllllllllllooo",
"ooollllllllllllmcjgfa`g``hnnnnnnillllllllllllooo",
"ooollllllllllllmci`kikaiik`nnnnngmlllllllllllooo",
"ooollllllllllllmea`eddddddibnnnnnelllllllllllooo",
"ooollllllllllllmbgbddcccdddj`hnnnfmllllllllllooo",
"ooollllllllllllehgjddddcddejafnnnhcllllllllllooo",
"ooollllllllllllchfiiedcccddjbgnnnnillllllllllooo",
"ooollllllllllllc`fjijidcceabfhnnnhcllllllllllooo",
"ooollllllllllllmiaejbaecekkab`gnnnillllllllllooo",
"ooollllllllllllmdjeijjedk`ia``fnnhcllllllllllooo",
"ooollllllllllllldedddeee`bieij`hn`lllllllllllooo",
"ooolllllllllllllcdddddeifbeeeibgnilllllllllllooo",
"ooolllllllllllllldddccddbfideibhbmlllllllllllooo",
"ooollllllmmmlllllcdccdiebkidejf`mllllllllllllooo",
"ooollllllmmllllllmddddddejidekfelllllllllllllooo",
"ooollllllmllllllllcdddddejjeeafdlllllllllllllooo",
"ooolllllllmlllllllcddiiijbadj`gclllllllllllllooo",
"ooolllllmmllllllllmdddddeiiebfbllllllllllllllooo",
"ooolllllmmllllllllmedddeeeikfgillllllllllllllooo",
"ooollllmmllllllllldeedddeijfhngelllllllllllllooo",
"ooollmmllllllllllljddeeeij`nnnngcllllllllllllooo",
"ooollmllllllllllllidddeeikghghhkcllllllllllllooo",
"ooolllmmllllllllllmidcdddiaaj`fccllllllllllllooo",
"ooolllmmlllllllmlllieccddijij`iceemllllllllllooo",
"ooollmmmllllmcdellllaidddeiekjmcdf`cmlllllcemooo",
"ooolmmmmmlmmdbjeclllm`kddeiielccdhbiiicmcibamooo",
"ooolmmmmmcdiigaiidlllm``ieeclciikaaii`bij``amooo",
"ooollmmdkjeejgaiiiecmlmahjcmcafajbaiejfjijbamooo",
"ooolmmdikfbikh`iiiiieeiebjijabajk`kkeibkek`imooo",
"ooolmdejaifjahhijiijiijkaaabbakjb`kkeejaifbicooo",
"oooldiiibbkabnnkjjiiiijjkaaaaajjg`akiejjjhkimooo",
"ooodiijikgak`hnbjkieeiijkaaaaajknbajjiijbgjemooo",
"oooeijjij`gjggnfjajieiiijkaabaibnbkkkiejfbiemooo",
"oooeijkjiahbg`ngikjieeiiijkaakjfnakkaiejgajicooo",
"oooeijkajjf`hbhgikkjieeiijabajjgnajkkiejgbkamooo",
"ooodejkkkjbahaghijajjieiijabkikhnajkkjijgbajmooo",
"oooeejakajaahafnjjakjiiiijkbkianhkkakiiigbkimooo",
"oooeeibbakkbgkbnaikkkjieijkakibnhkkakieigajemooo",
"oooeiiafbak`gkkn`jjkkjieijaajj`nhkkkjiiifkkemooo",
"oooeiik`ffkfgjkhfjjkkkjiiikajkfnhkkkjiij`akjmooo",
"oooiijjfggkgfjjfhjkkkkkiiikkjagnhkakjiijf`kkmooo",
"ooofjjjbngkgfjj`nkkkkkkjiijkjahnhaakjiikh`akmooo",
"ooon`kkahnagfjjbnbkkkkajjjjjjbhnnaaajjjahaakmooo",
"ooohn`aagnagfjjahfkkkkakjjjikbhnnbbajkabgabbmooo"
};
