/* XPM */
static char *noname_xpm[] = {
/* width height ncolors chars_per_pixel */
"48 48 17 1",
/* colors */
"` c black",
"a c grey33",
"b c grey47",
"c c grey40",
"d c grey87",
"e c grey80",
"f c grey73",
"g c grey27",
"h c grey20",
"i c grey13",
"j c grey67",
"k c grey60",
"l c grey53",
"m c white",
"n c grey93",
"o c grey7",
"p s None c None",
/* pixels */
"ppppppjllllllllchoioooo`ooooihgbllkkkkjkjjpppppp",
"ppppppjllblbllci``ooio`o``oooohalbalkjkjjjpppppp",
"ppppppjllllllco```o`oooo`oooooihcccalkkjjjpppppp",
"ppppppjlllllbi`````````````oiiiigaahckkkkjpppppp",
"ppppppjllllbh``o``o`o``o````ooighhgghcljjjpppppp",
"ppppppfllllao``````o`oooo`````oihhhhggbjkjpppppp",
"ppppppflllbi```````ooo`oo`o````ooiiiihckkjpppppp",
"ppppppfkllao``````o```ooooo`o````oiiiiaaclpppppp",
"ppppppflllh```o`o`````o``oo`````o`oiiiiggapppppp",
"ppppppfklbi``oo`oo```````o`o`o`oo`oihiiihapppppp",
"ppppppfllco`o`ooo```oo```o``o`oiiihaghoihhpppppp",
"ppppppfkbh`ooooooooigaghiooo`oiihgcbchiohgpppppp",
"ppppppflcoo``o`ooogcljkkbcaggagablkkchoiihpppppp",
"ppppppjlho``ooooiabjffffefeeefjkjjfkchiiihpppppp",
"ppppppcho```oohgcljfeeeedddddddefejkbhiohhpppppp",
"ppppppi``````hacbljffeeeeddddnedeefkchoiiipppppp",
"ppppppoo````ogacaaclkjfeeeednddeeffjaiiihipppppp",
"ppppppi`o```oggaahhhabkfffjjjeeffffkaiiiiopppppp",
"ppppppi`````hgggiioihabkjlbagacblkjlgioooopppppp",
"ppppppo````ogghihhihhhalkcghhggaclklhioooopppppp",
"pppppph````haaggagggggcjlgghiiggccbbio`o`opppppp",
"ppppppli```gccaaaaagggbfbcaggacagcccioo`oopppppp",
"ppppppfbiohaccbccccccajfkccacblbbcacgo`ooopppppp",
"ppppppelccacbcbbllbbabjejcbcccbbcbbkco`ooopppppp",
"ppppppekbbcccbbclllaclfefbkllllllllkbooo`opppppp",
"ppppppeklbcccblbbaaabkfefkllllkkkbjkbiooo`pppppp",
"ppppppejlbcccblklbccbkfefjcclkjkkjkjbioooipppppp",
"ppppppekbhgccbbbbcabbjfdfflcccbkfjjkkahogbpppppp",
"ppppppekchhcccccaacaabkklllabkjjfjjkkjaohlpppppp",
"ppppppdklggccccggcccaaacbblbcbkkjkjkkjgigkpppppp",
"ppppppekklcccccagaccaaacbkkkbaclkkjlkcihbkpppppp",
"ppppppejkklacccahgacbbbbllklbcblkkklhhgckkpppppp",
"ppppppejkklcacccgaggabllllbagabkkkkcohclkkpppppp",
"ppppppejkkkcaaccccaaaaggacbbcbkllklaialkkkpppppp",
"ppppppneddebaaaaccaacbblllklbbllkllcblkkkkpppppp",
"ppppppmnmnfcaaaacccagggacllbbblbllkdekkkkkpppppp",
"ppppppmnmdkggaaacbccccccblbbbbbblbjmdjkkkkpppppp",
"ppppppmndebgaaaaabbbllkklklbbcbbbajnmndfkkpppppp",
"ppppppmdnjaacaagacbllkkkklllbcbblaenmmmmnepppppp",
"ppppppmdnlaaaagagaccbblblllbbcblbbfnmmmmmmpppppp",
"ppppppmdfbccgcagggagaacccbbcccbkabenmmmmmmpppppp",
"ppppppmejcaggcaggghhhhhgaaaaccllgjfmmmmmmmpppppp",
"ppppppjblcahacaaghhhhhhhhgaacblclknmmmmmmmpppppp",
"ppppppfclbagacccaahhihihhgacbbbakjnmmmmmnmpppppp",
"ppppppjcklbggccaaaaghihhgccbbbcglkkdmmmmnmpppppp",
"ppppppagcfkhgacccaaaaaacbbbbcbgcelbbdmmmmmpppppp",
"pppppphhgjeciacacaccccbcbcaccllfdlcckdmmmmpppppp",
"ppppppghhabloigaggggggaaagghalblkagaabjfefpppppp"
};
