#define noname_width 48
#define noname_height 48
static char noname_bits[] = {
 0x80,0xaa,0xff,0x7f,0x49,0x02,0x80,0xaa,0xff,0xdf,0xad,0x00,0x80,0xea,0xff,
 0x7f,0x15,0x01,0x00,0xe9,0xff,0xff,0x5f,0x01,0x80,0xfa,0xff,0x7f,0x35,0x02,
 0x40,0xf5,0xff,0xff,0x6f,0x01,0x80,0xfa,0xef,0xff,0xbf,0x00,0x00,0xfd,0xff,
 0xfe,0x7b,0x03,0x80,0xfe,0xff,0xff,0xff,0x01,0x00,0xfd,0xff,0xff,0x6f,0x03,
 0x80,0xfe,0xff,0x7f,0xf7,0x01,0x00,0xfd,0xae,0xf7,0xdb,0x03,0x80,0xff,0x57,
 0x5a,0xe9,0x01,0x80,0xde,0x8b,0x80,0xe8,0x03,0xc0,0x7f,0x21,0x04,0xb2,0x03,
 0xc0,0xff,0x0a,0x80,0xe8,0x03,0xc0,0x5f,0xab,0x12,0xf2,0x02,0xc0,0xff,0x5e,
 0x88,0xe8,0x03,0xc0,0xaf,0xbf,0x76,0xf5,0x03,0xc0,0xff,0x6b,0xbd,0xf5,0x03,
 0xc0,0xaf,0x5e,0xf6,0xda,0x03,0x80,0xb7,0x6b,0x5b,0xf7,0x03,0x80,0xaf,0x1a,
 0xb6,0xfa,0x03,0x00,0x54,0xb5,0x5a,0xe5,0x03,0x80,0x5b,0x15,0xa2,0xfa,0x03,
 0x00,0x54,0x5d,0x9a,0xa2,0x03,0x80,0xab,0x2a,0x54,0xea,0x03,0x00,0xbe,0x16,
 0xaa,0xe8,0x01,0x80,0x65,0xdb,0x1a,0xc5,0x02,0x00,0xbe,0xb5,0x6a,0xa9,0x01,
 0x80,0xa4,0xeb,0x52,0xea,0x02,0x80,0xda,0x36,0xb5,0x72,0x01,0x00,0xb5,0xad,
 0x5a,0x5d,0x01,0x80,0x58,0xdb,0xab,0x72,0x01,0x00,0x68,0x2d,0x54,0x8a,0x00,
 0x00,0xd8,0xf6,0xab,0x52,0x02,0x00,0xba,0x55,0xaa,0x42,0x01,0x00,0xd4,0xaa,
 0x6a,0x05,0x01,0x00,0x6c,0x4b,0x55,0x03,0x00,0x00,0xda,0xb6,0xaa,0x02,0x00,
 0x00,0xb6,0x5b,0xb5,0x02,0x00,0x80,0xda,0xfe,0x5d,0x01,0x00,0x80,0x6e,0x6b,
 0xd7,0x02,0x00,0x80,0xda,0xfe,0x55,0x01,0x00,0x80,0xac,0xb5,0xab,0x02,0x00,
 0xc0,0xd9,0xde,0xda,0x0c,0x00,0x40,0xb9,0xaa,0x56,0x0a,0x00,0xc0,0xf7,0xf7,
 0x5d,0xbd,0x00};
