#define noname_width 48
#define noname_height 48
static char noname_bits[] = {
 0x00,0x24,0x48,0x02,0x00,0x01,0x00,0x49,0xf5,0x79,0x41,0x00,0x80,0x10,0xad,
 0x2d,0x10,0x01,0x00,0xca,0xfe,0x7b,0x43,0x00,0x80,0x28,0xff,0xaf,0x04,0x01,
 0x00,0xc5,0xff,0xff,0x5b,0x00,0x00,0xd4,0xff,0xff,0x9f,0x00,0x80,0xf2,0xff,
 0xff,0x7f,0x00,0x00,0xf9,0xff,0xff,0xd7,0x02,0x40,0xfa,0xff,0xff,0xff,0x00,
 0x80,0xfa,0xff,0xa7,0x7f,0x01,0x80,0xfe,0xff,0xcb,0xfe,0x00,0x80,0xff,0xff,
 0x4b,0xff,0x01,0x80,0xff,0xff,0x03,0xfb,0x01,0x40,0xff,0x5f,0xc4,0x7e,0x01,
 0x80,0xff,0xbf,0x01,0x74,0x03,0x40,0xff,0x57,0x92,0xfa,0x01,0x80,0xff,0xdd,
 0x04,0xf4,0x03,0xc0,0xff,0xf7,0xab,0xfa,0x01,0x80,0xff,0xbb,0xdf,0xff,0x01,
 0xc0,0xff,0xf7,0xd7,0xff,0x01,0x80,0xff,0x6f,0x5d,0xff,0x01,0xc0,0xff,0xba,
 0xca,0x7a,0x01,0xc0,0xff,0x5f,0x55,0xed,0x01,0x80,0xff,0xaa,0xaa,0x7a,0x00,
 0xc0,0xff,0xaf,0x1a,0x75,0x01,0x80,0xff,0x95,0xae,0x35,0x02,0x80,0xff,0xef,
 0x7d,0x57,0x01,0x80,0xff,0xdb,0xef,0x3b,0x00,0x40,0xff,0xef,0xdd,0xbb,0x02,
 0x80,0xff,0x5b,0x53,0x1f,0x00,0x80,0xff,0x7f,0xad,0xba,0x02,0xc0,0xdf,0x57,
 0x53,0x2f,0x00,0x80,0xde,0x7f,0xad,0xae,0x02,0x00,0xa5,0x5f,0x5a,0x2f,0x01,
 0x40,0x15,0xfb,0x55,0x97,0x00,0x80,0x42,0xfe,0xfb,0xa1,0x02,0x40,0x10,0xfc,
 0xff,0x95,0x00,0x00,0x02,0xf9,0x7f,0x55,0x01,0x00,0x00,0xe0,0xff,0x89,0x00,
 0x00,0x00,0xf1,0x3f,0x52,0x01,0x00,0x00,0xc0,0x5f,0x94,0x00,0x00,0x00,0xc4,
 0x36,0x51,0x01,0x00,0x00,0x20,0xbf,0x10,0x01,0x00,0x08,0xa0,0xca,0xaa,0x00,
 0x00,0x00,0x50,0x3d,0x45,0x02,0x00,0x00,0x20,0x95,0xa8,0x00,0x00,0x52,0xea,
 0xbe,0x5a,0x03};
