/* XPM */
static char * gr_xpm[] = {
/* width height ncolors chars_per_pixel */
"48 48 4 1",
/* colors */
" 	s None	c None",
".	c black",
"X	c blue",
"o	c white",
/* pixels */
"          ....                                  ",
"         .    .                                 ",
"         .      . .  ..   ..   ..   ..          ",
"         .      ..  .  . .  . .  . .  .         ",
"         .   .. .   .... .... .    ....         ",
"         .    . .   .    .    .    .            ",
"         .   .. .   .  . .  . .  . .  .         ",
"          ... . .    ..   ..   ..   ..          ",
"                                                ",
"                                                ",
"................................................",
".XXXXXXXooooXXXXXXXXXXXXXXXXXXXXXXXXXXXXXXXXXXX.",
".XXXXXXXooooXXXXXXXXXXXXXXXXXXXXXXXXXXXXXXXXXXX.",
".XXXXXXXooooXXXXXXXXXXXXXXXXXXXXXXXXXXXXXXXXXXX.",
".XXXXXXXooooXXXXXXXXooooooooooooooooooooooooooo.",
".XXXXXXXooooXXXXXXXXooooooooooooooooooooooooooo.",
".XXXXXXXooooXXXXXXXXooooooooooooooooooooooooooo.",
".XXXXXXXooooXXXXXXXXooooooooooooooooooooooooooo.",
".ooooooooooooooooooXXXXXXXXXXXXXXXXXXXXXXXXXXXX.",
".ooooooooooooooooooXXXXXXXXXXXXXXXXXXXXXXXXXXXX.",
".ooooooooooooooooooXXXXXXXXXXXXXXXXXXXXXXXXXXXX.",
".ooooooooooooooooooXXXXXXXXXXXXXXXXXXXXXXXXXXXX.",
".XXXXXXXooooXXXXXXXXooooooooooooooooooooooooooo.",
".XXXXXXXooooXXXXXXXXooooooooooooooooooooooooooo.",
".XXXXXXXooooXXXXXXXXooooooooooooooooooooooooooo.",
".XXXXXXXooooXXXXXXXXooooooooooooooooooooooooooo.",
".XXXXXXXooooXXXXXXXXXXXXXXXXXXXXXXXXXXXXXXXXXXX.",
".XXXXXXXooooXXXXXXXXXXXXXXXXXXXXXXXXXXXXXXXXXXX.",
".XXXXXXXooooXXXXXXXXXXXXXXXXXXXXXXXXXXXXXXXXXXX.",
".XXXXXXXXXXXXXXXXXXXXXXXXXXXXXXXXXXXXXXXXXXXXXX.",
".oooooooooooooooooooooooooooooooooooooooooooooo.",
".oooooooooooooooooooooooooooooooooooooooooooooo.",
".oooooooooooooooooooooooooooooooooooooooooooooo.",
".oooooooooooooooooooooooooooooooooooooooooooooo.",
".XXXXXXXXXXXXXXXXXXXXXXXXXXXXXXXXXXXXXXXXXXXXXX.",
".XXXXXXXXXXXXXXXXXXXXXXXXXXXXXXXXXXXXXXXXXXXXXX.",
".XXXXXXXXXXXXXXXXXXXXXXXXXXXXXXXXXXXXXXXXXXXXXX.",
".XXXXXXXXXXXXXXXXXXXXXXXXXXXXXXXXXXXXXXXXXXXXXX.",
".oooooooooooooooooooooooooooooooooooooooooooooo.",
".oooooooooooooooooooooooooooooooooooooooooooooo.",
".oooooooooooooooooooooooooooooooooooooooooooooo.",
".oooooooooooooooooooooooooooooooooooooooooooooo.",
".XXXXXXXXXXXXXXXXXXXXXXXXXXXXXXXXXXXXXXXXXXXXXX.",
".XXXXXXXXXXXXXXXXXXXXXXXXXXXXXXXXXXXXXXXXXXXXXX.",
".XXXXXXXXXXXXXXXXXXXXXXXXXXXXXXXXXXXXXXXXXXXXXX.",
"................................................",
"                                                ",
"                                                "};
