/* XPM */
static char *noname_xpm[] = {
/* width height ncolors chars_per_pixel */
"48 48 17 1",
/* colors */
"` c black",
"a c grey33",
"b c grey47",
"c c grey40",
"d c grey87",
"e c grey80",
"f c grey73",
"g c grey27",
"h c grey20",
"i c grey13",
"j c grey67",
"k c grey60",
"l c grey53",
"m c white",
"n c grey93",
"o c grey7",
"p s None c None",
/* pixels */
"pppddednnnnnnmmmmmmmnmmmmmmnnnnnnnnnndndddddpppp",
"pppdddddmmnnnmmmmnmmnmmmmmnnnnnnnnnndndndnddpppp",
"pppddednnnnnnmmmnmnmnmmmmnnnnnnnnnndddndddddpppp",
"pppdddddmnnnnmmmnnmmnmmmmmmnnnnnnnnnnndnddndpppp",
"pppddednnmnnnmmmnmnnnmmmmnnnnnnnnnnndddnddddpppp",
"pppdddddmnnnnmmndfjlkjenmmnnnnnndndndnddddndpppp",
"pppddednnmnnnmnekaclkkbclennnnnnnnnndndnddddpppp",
"pppddddnnmnnnnflbkjfffjkbbledndnnnnnndddndddpppp",
"pppnddddmnnnelbkjjfeeefjkkbclddndndndnddddddpppp",
"pppdeddnnmnehgkffeeeeeeefkklghfdnnnndndnndndpppp",
"pppnddenmmnbikjfeddddddefjkbbhadnnndnddnnddnpppp",
"pppdddddmnehckjednnnddddejkbcc`fnndnndnddndnpppp",
"pppnddenmnjiljjfenddddeefjlbccicnnnddndnnnddpppp",
"pppdddennnahljjfddddddeefjkbcahiednndnddndddpppp",
"pppnddenmehglkffdddddddeejkbbah`jnndnndndndnpppp",
"pppdddenneogljjfedddddefjjklbgi`andndndndnddpppp",
"pppnddedmeohlkjklbkjffkbaccccgo`onndnddndndnpppp",
"pppndeenndoibbchioabjkchoohhhho``dndnnndnnddpppp",
"pppnddedmdoibgacgihcffgoigghooo``ddndndndnddpppp",
"pppnddfnndohcghiohcljfgaaooo`oi``endnndndndnpppp",
"pppnddfnmdhhbaaccbkkjfcbkbcgaai`oedndnnndnddpppp",
"pppdddfnndghbkkbljjkjflckkblkbh``jnndndddnndpppp",
"pppnddfnndihbjfeffjkfekakjfjkcg``dddnndnndddpppp",
"pppnddfnnnahbkfeejkkfelackkjlcg`hnnndndddnddpppp",
"pppdddfdnmbhbkjfjclablgohabbcagojnddnddndnddpppp",
"pppnddfdnndallkkbba`oh```ghaaghienndnndddnddpppp",
"pppdnefdnnnkllkballba```igaggghhndnddddnddddpppp",
"pppnddfdnnnjlllbclbllcoighhbcahienndnndddndepppp",
"pppdnefennnkbllllaaggahi``glbghcdnnddndddnddpppp",
"pppddefenmndbbllcghabllcgablcaiendddddddddddpppp",
"pppdnefednnnfcbklklbllbbccllghcnddnddddddnddpppp",
"pppddejednnnnbbblkklbbbcccbchiaeddddedddddddpppp",
"pppddeffdnnnneccllklblbbbbbgi`ohjddeddededddpppp",
"pppddefednnnnnbacblkkkklbcaoo`o`olddeedeendepppp",
"pppddeffdnddeflggabllkllchi```oooikedeeeedddpppp",
"pppdeeffdffjjkjciihgcccgi`o```oo`hlkffeeedddpppp",
"pppdeejjjjkkjkjlaiiiooooo`````o`iblklkjfddddpppp",
"pppdeejkkkkkkkjllghooo`o``````oicbllllklkedepppp",
"pppefjkkkjkkkljjkccgi````````ihccllllllllljjpppp",
"pppjkjklljkkkkllklbcch``````oabablllklllllllpppp",
"pppkkkkllkkkkklbkkbbcci````oiaacblllllllllllpppp",
"pppkkkkblkkkkklbbigcagio`ghicagcllllllllllllpppp",
"pppkkkkblkklkkklbblbcghiaggcggabblblkbllllllpppp",
"pppkkkkbckklkkkllbbbcbbccaaggabbllbblllblblbpppp",
"pppkklkcckkllkllllbbccaaaaaaccblllblllllbllbpppp",
"ppplklkbalkklllkkkbbbbccaccbbblblblblblbllbbpppp",
"pppbkllbglkkllklkklllbbbbblbbbllbbblllbblbbcpppp",
"pppclkkcglklllllkkllklbblllbblbllbbllblblbcapppp"
};
