#define face_width 48
#define face_height 48
static char face_bits[] = {
   0x00, 0x00, 0x00, 0x00, 0x00, 0x00, 0x00, 0x00, 0x00, 0x00, 0x00, 0x00,
   0x00, 0x00, 0xf8, 0x0f, 0x00, 0x00, 0x00, 0x00, 0x7f, 0x48, 0x00, 0x00,
   0x00, 0xe0, 0xbf, 0x00, 0x00, 0x00, 0x00, 0xf0, 0x7f, 0x40, 0x00, 0x00,
   0x00, 0xfc, 0x1f, 0x80, 0x00, 0x00, 0x00, 0xfe, 0x43, 0x00, 0x00, 0x00,
   0x00, 0xff, 0xbf, 0x1c, 0x00, 0x00, 0x80, 0xff, 0x7f, 0x81, 0x00, 0x00,
   0x80, 0xff, 0xfb, 0x13, 0x00, 0x00, 0xc0, 0xff, 0xb5, 0x0f, 0x00, 0x00,
   0xe0, 0xff, 0x42, 0x00, 0x00, 0x00, 0xe0, 0xff, 0x15, 0x00, 0x06, 0x00,
   0xf0, 0xff, 0x0b, 0x00, 0x10, 0x00, 0xf0, 0xff, 0x53, 0x20, 0xe0, 0x00,
   0xf8, 0xff, 0x0a, 0x40, 0xc0, 0x08, 0xf8, 0xff, 0x15, 0x00, 0xa0, 0x19,
   0xf8, 0xff, 0x0b, 0x00, 0x80, 0x19, 0xfc, 0xff, 0x2b, 0x00, 0x80, 0x1b,
   0xfc, 0xff, 0x05, 0x00, 0x80, 0x3b, 0xfc, 0xff, 0x2f, 0x00, 0x80, 0x37,
   0xfc, 0xff, 0x0f, 0x00, 0x00, 0x1f, 0xfc, 0xff, 0x5f, 0x00, 0xc2, 0x3f,
   0xfc, 0xff, 0x2f, 0x80, 0xa7, 0x3f, 0xfc, 0xff, 0x9f, 0x80, 0xff, 0x3e,
   0xfc, 0xff, 0x1f, 0x80, 0xdd, 0x3f, 0xfc, 0xff, 0x5f, 0x80, 0xff, 0x3f,
   0xfc, 0xdf, 0x3f, 0x00, 0xfb, 0x1f, 0xf8, 0xff, 0x8f, 0xc0, 0xf4, 0x1f,
   0xf8, 0xff, 0x5f, 0xa1, 0x7c, 0x1f, 0xf8, 0xff, 0xbf, 0x60, 0xfe, 0x1f,
   0xf0, 0xff, 0xbf, 0x72, 0xfe, 0x0f, 0xf0, 0xff, 0x7f, 0xf9, 0xff, 0x0f,
   0xe0, 0xff, 0xff, 0xfa, 0xf7, 0x07, 0xe0, 0xff, 0xff, 0xff, 0xff, 0x07,
   0xc0, 0xff, 0xff, 0xff, 0xff, 0x03, 0x80, 0xff, 0xff, 0xff, 0xef, 0x01,
   0x80, 0xff, 0xff, 0xff, 0xff, 0x01, 0x00, 0xff, 0xff, 0xff, 0x7f, 0x00,
   0x00, 0xfe, 0xff, 0xff, 0x7f, 0x00, 0x00, 0xf8, 0xff, 0xff, 0x1f, 0x00,
   0x00, 0xf0, 0xff, 0xff, 0x0f, 0x00, 0x00, 0xc0, 0xff, 0xff, 0x07, 0x00,
   0x00, 0x80, 0xff, 0xff, 0x00, 0x00, 0x00, 0x00, 0xf8, 0x1f, 0x00, 0x00,
   0x00, 0x00, 0x00, 0x00, 0x00, 0x00, 0x00, 0x00, 0x00, 0x00, 0x00, 0x00};
