/* XPM */
static char *noname_xpm[] = {
/* width height ncolors chars_per_pixel */
"48 48 17 1",
/* colors */
"` c black",
"a c grey33",
"b c grey47",
"c c grey40",
"d c grey87",
"e c grey80",
"f c grey73",
"g c grey27",
"h c grey20",
"i c grey13",
"j c grey67",
"k c grey60",
"l c grey53",
"m c white",
"n c grey93",
"o c grey7",
"p s None c None",
/* pixels */
"ppppppkkllllkkkklkjkkklbcblklllkkklbllkkkkpppppp",
"ppppppkkllllkkkklkjjkklcbkbbbllkkklllkkkkkpppppp",
"ppppppkllllkkkjklkjklagghcghgblkjllllkkkjkpppppp",
"ppppppkkllllkkjkljlho```ogaghabkkkkllkkkkkpppppp",
"ppppppkkbllkkkkkllh``ohhoo`oiihckkklkkkjkkpppppp",
"ppppppklllllkkklch```oioi``````ogkkkkkkjkkpppppp",
"ppppppkklblkkkbgg````````````````hllkkjjkkpppppp",
"ppppppkllllllbi`o`oiioo```````````gbbkkjkkpppppp",
"ppppppklllllbo```oalklbch````oo```oallkjkkpppppp",
"ppppppkllllli````hlkjffjkg`````````ibljjjkpppppp",
"ppppppkllblc````oalkjfeeekgo````````glkjkkpppppp",
"ppppppkllbli````iclkfeedeekaoo```````aljkkpppppp",
"ppppppklblb`````icljfedndeelgh```````oljklpppppp",
"pppppplllbg`````hclkfeedeffkcho```````bkklpppppp",
"ppppppllbli`````hbljffeeeeklbgh```````cklbpppppp",
"ppppppkllbi````ogbljeedddefklch```````blkbpppppp",
"ppppppklbbi````oigklcjeeeekccaho``````lklbpppppp",
"ppppppllbbco```o``oiogljkkjoiiho`````hkklbpppppp",
"ppppppklblbi````ioooohhlhhhioo`o````hkkklcpppppp",
"ppppppllbllb```iaaccagafhhgghiioo``gkkkkbcpppppp",
"ppppppklblllg``gclklbcljcgblbcaho``bklklbcpppppp",
"ppppppkllllkliogbkkkkbkkcbkkjjbgo`illkllbcpppppp",
"ppppppllbllkka`gbkffjblkaljjjkbg``hkkkklbcpppppp",
"ppppppllblllka`gbkfjlbjjacjefkbh``hkkkllccpppppp",
"ppppppllbllklg`gbkklchbchabjjlci``akkklbcapppppp",
"ppppppllbllllc`hcccgh`ioogclkbai``blkllbcapppppp",
"pppppplbbblkkcohhi``o````oohacgo`hlllllbcapppppp",
"pppppplbbllllboo````````````ogho`hlkllbccapppppp",
"pppppplbbbllkli````ohgagho```hh``hllllbbaapppppp",
"pppppplbbblllbi`````ihhhhho``ii``clllbbccgpppppp",
"ppppppllbbblba````````o`````````ilejlbbcagpppppp",
"pppppplbbblllc``````````````````glkdkbbcagpppppp",
"pppppplbcbblbbi`````````````````bbjnmjccagpppppp",
"ppppppbbbbbblfb````````````````iabjnmmdbagpppppp",
"pppppplbcbbbljbo```````````````igkfenmmnfcpppppp",
"ppppppbbccbblkbh``````````````oabjjeenmmmmpppppp",
"ppppppbbcbblejjh````````````iicljkjeddmmmmpppppp",
"ppppppbcclenmfkgihagiiii`ohggcjjjkfeenmmmmpppppp",
"ppppppbbfnmmeejbclcblbccblbclffjkjeeddmmmmpppppp",
"ppppppjnmmndefekjffffedeejkkfejjjeednnnmmmpppppp",
"ppppppmmnmdefeejnndedmmdejjfejjjfedndmnmmnpppppp",
"ppppppmnndeefdfenmmnfmnefjffjfjefddnnnmmmmpppppp",
"ppppppmnneefeefnmmndfeeejfejffefddndmmnnmmpppppp",
"ppppppmddededfdmmndeefdffefffeeedddnmmndmmpppppp",
"ppppppndddeeefnmnneffeefeefefdeedndmmmdnmmpppppp",
"ppppppdnddeefemnnefefefeefefeddddndmmndmmmpppppp",
"ppppppnndedejmmdefefeeedefeedddendmmmdnmmmpppppp",
"ppppppfjkjkljfjjklklkkkklkkkjjjjfkeffkefefpppppp"
};
