/* XPM */
static char *noname_xpm[] = {
/* width height ncolors chars_per_pixel */
"48 48 17 1",
/* colors */
"` c black",
"a c grey33",
"b c grey47",
"c c grey40",
"d c grey87",
"e c grey80",
"f c grey73",
"g c grey27",
"h c grey20",
"i c grey13",
"j c grey67",
"k c grey60",
"l c grey53",
"m c white",
"n c grey93",
"o c grey7",
"p s None c None",
/* pixels */
"ppppppnnnnnnnnnnnnnnnndnnnmmmmmmmmmmmmmmmmpppppp",
"ppppppnnnndnnnnnnnnejlbbckfdmmmmmmmmmmmmmmpppppp",
"ppppppnnndndndnnnnelchiooigckdmmmmmmmmmmmmpppppp",
"ppppppnnndnddndndfbahihioiiggbdmmmmmmmmmmmpppppp",
"ppppppnndddddddfchiiihhhhaahhhcjmmmmmmmmmmpppppp",
"ppppppnddnddddkio```o`ooohkao`ihlmmmmmmmmmpppppp",
"ppppppndnddddki``````````oioo``ookmmmmmmmmpppppp",
"ppppppndddddfi``````````````o````hnmmmmmmmpppppp",
"ppppppnddddeh`````````````````````kmmmmmmmpppppp",
"ppppppddddeb```oho````````````````gnmmmmmmpppppp",
"ppppppddddfh```hh````o````````````idmmmmmmpppppp",
"ppppppnddejo``hai```oiooooi`oo````inmmmmmmpppppp",
"ppppppdddeb``ibkcaohccggohi`ooi```idmmmmmmpppppp",
"ppppppdddec``ildnmdnmnnflebccaho``odmmmmmmpppppp",
"ppppppdddec``hknmmmmmmmmmmmndjco``oemmmmmmpppppp",
"ppppppdddek``ajdmmmmmmmmmmmmdjbg``oemmmmmmpppppp",
"ppppppddeefo`cjfjfenmmmmmmmndjbg``oemmmmmmpppppp",
"ppppppdedeeh`ckblkccfnmmnjkkbbcgo`oenmmmmmpppppp",
"ppppppddeeel`bkkkbblkdmnbahacagg``bnmmnmnmpppppp",
"ppppppdeeeefhljlcaglkdmecbcigaag`ienmnnmnmpppppp",
"ppppppdeeeeflkefjkkjfnmebkkccabaicnnnmnnmnpppppp",
"ppppppdeeeeejlemdddddnmjljjlljlcglnnmnnnnnpppppp",
"ppppppeeeeffklemmmmmedmjbeddeelaaknnnnnnnnpppppp",
"ppppppeeefefllemmmmmeemjbenmnelaafnnnnnnnnpppppp",
"ppppppfefeffllenmmmefedlbjmndjlgcdnnndnnnnpppppp",
"ppppppeeffefjbedmmnelcbhaldnfjbaknnndnddndpppppp",
"ppppppefffffflfendedjbagbjeejkccddndnddnddpppppp",
"ppppppfefffeflkfelblkklbcbkfklakddndddddddpppppp",
"ppppppeffffffkbkfjkklkkbaabflcafdnddddddddpppppp",
"ppppppfffffffjcbjedekklbljfjcgbdddddddddddpppppp",
"ppppppfffjffflaclfddejkjffjbghfdddddedededpppppp",
"ppppppffjfjfjlcgclfddndeejbahgfdeddedeedeepppppp",
"ppppppffjfjjcblcggckjeeklcgiiafedeedeeeedepppppp",
"ppppppffjjjkicklcgigaccghiohhgleedeeeedeeepppppp",
"ppppppfjjjkghcfkbagiiiiioiihgggjdeeeefeeeepppppp",
"ppppppffkacigaddkbcaghhhhhhggcoleeffffeeeepppppp",
"ppppppfkghbiggnndkbccccagggalc`akffeeeeeeepppppp",
"ppppppcchalilajnmdkbccccggcjkgiggajeeeeeeepppppp",
"ppppppclabcicgbdnmdkklcaakekbhggaoceeffeefpppppp",
"ppppppjjleligcadnnmdjkljnnfkaoalgiobedjffepppppp",
"pppppplkjfa`gbibnmnmnnnmneelioacgaoigkmnjkpppppp",
"ppppppcklcooabogdmmmmnmmndkh`ocbgbhhiafekbpppppp",
"ppppppknfciih`oofmmnnmdlkda`o`algbchcbgakkpppppp",
"pppppplekahi```ogdnmmmdojna`hiaaiabgclghgjpppppp",
"ppppppaelho````oilmmmmnhlbihbgi`ohlacbghhhpppppp",
"pppppplego```oihghjdddeagiici````hclabhhihpppppp",
"ppppppkgghii`igagiihclcahgci``````gbbjcaihpppppp",
"pppppphgchoioihggo`iiggihbh```oo``oagagghhpppppp"
};
