#define noname_width 48
#define noname_height 48
static char noname_bits[] = {
 0x20,0x11,0x89,0x10,0x09,0x02,0x00,0x00,0x00,0x00,0x00,0x00,0x00,0x00,0x00,
 0x00,0x00,0x00,0x00,0x00,0x00,0x00,0x00,0x00,0x00,0x00,0x00,0x00,0x40,0x00,
 0x00,0x00,0x20,0x01,0x02,0x00,0x80,0x40,0xdd,0x24,0x00,0x01,0x00,0x88,0xbe,
 0x0b,0x20,0x00,0x00,0xa0,0xf5,0x3e,0x01,0x00,0x10,0x61,0xff,0x6f,0x04,0x01,
 0x00,0xf8,0xb5,0xfb,0x00,0x00,0x00,0x50,0xff,0xbe,0x43,0x00,0x00,0xfc,0xfd,
 0xf7,0x13,0x02,0x40,0x54,0xdf,0xff,0x06,0x00,0x00,0xfc,0xff,0xdf,0x07,0x00,
 0x00,0xf6,0xf7,0xfe,0x1f,0x01,0x00,0xbe,0xef,0xfb,0x4f,0x00,0x20,0xfe,0x55,
 0xd5,0x1f,0x00,0x00,0xff,0xa7,0x24,0x1f,0x02,0x00,0x7f,0x11,0x89,0x5e,0x00,
 0x00,0x7f,0x45,0x40,0x1a,0x00,0x00,0xbf,0x10,0x84,0x3c,0x02,0x80,0x3f,0x85,
 0x90,0x9a,0x00,0x10,0xbf,0x74,0x44,0x3d,0x00,0x80,0x5f,0x49,0x49,0x2d,0x01,
 0x00,0xdf,0xb2,0xb2,0x7d,0x00,0x80,0x7f,0xdd,0xda,0x1b,0x09,0x80,0xbf,0x6e,
 0xb1,0x5a,0x00,0x80,0xaf,0x52,0x69,0x35,0x01,0x80,0xaf,0xaa,0x22,0x69,0x00,
 0xa0,0x2f,0x24,0x48,0x32,0x05,0x00,0xaf,0x42,0xa5,0x2a,0x00,0x80,0xaf,0x94,
 0x12,0x94,0x00,0x00,0x57,0x42,0xf5,0x2a,0x04,0x10,0xae,0xb4,0x2a,0x95,0x02,
 0x00,0xa4,0x2a,0x55,0x15,0x00,0x20,0xa9,0x52,0xb5,0x55,0x05,0x08,0x52,0xed,
 0xee,0x0a,0x00,0x40,0x58,0x52,0x55,0x55,0x05,0x10,0xa4,0xa9,0xaa,0x2a,0x00,
 0x40,0x51,0x2a,0x55,0x8a,0x0a,0x08,0xa4,0x4a,0x22,0x55,0x02,0x20,0x51,0x25,
 0x49,0x21,0x09,0x48,0x94,0x95,0xa8,0x4a,0x02,0x00,0xa1,0xaa,0x56,0x15,0x09,
 0x50,0x54,0xdb,0xaa,0x43,0x02,0x20,0x49,0xad,0x6d,0x54,0x04,0x48,0x40,0x6b,
 0xb5,0x0b,0x02};
