/* XPM */
static char *noname_xpm[] = {
/* width height ncolors chars_per_pixel */
"48 48 17 1",
/* colors */
"` c black",
"a c grey33",
"b c grey47",
"c c grey40",
"d c grey87",
"e c grey80",
"f c grey73",
"g c grey27",
"h c grey20",
"i c grey13",
"j c grey67",
"k c grey60",
"l c grey53",
"m c white",
"n c grey93",
"o c grey7",
"p s None c None",
/* pixels */
"ppppppdedeededdddndndnnnnnmmmmmmmmmmmmmmmmpppppp",
"ppppppedeeeededddddfcbllbkfennmmmmmmmmmmmmpppppp",
"ppppppdeedeeededddko`oihghoigcfmmmmmmmmmmmpppppp",
"ppppppedeeeedeefjl`````oo````ihcdmmmmmmmmmpppppp",
"ppppppeedeeeeekhoi````````````ooilnmmmmmmmpppppp",
"ppppppdeeeeeejh```````````````````anmmmmmmpppppp",
"ppppppeeeeeejh`````````````````````lnmmmmmpppppp",
"ppppppdeeeeeg```````````o``````````obnmmmmpppppp",
"ppppppeeeeel`````````````````````````jmmmmpppppp",
"ppppppeeeefg`````````````````````````cmmmmpppppp",
"ppppppeeeeji`````````````````````````bmmmmpppppp",
"ppppppeeeek``````````````````````````ammmmpppppp",
"ppppppeeeel``````````````````````````idmmmpppppp",
"ppppppeeeec``````````````````````````hnmmmpppppp",
"ppppppeeeec``````````````````````````cmmmmpppppp",
"ppppppeeeek``````````````````````````ammmmpppppp",
"ppppppeeeeji`````````````````````````bmmmmpppppp",
"ppppppeeeffh`````````````````````````fmmmmpppppp",
"ppppppeefefa````````````````````````ilnmmmpppppp",
"ppppppeeffjc````````````````````````glemnmpppppp",
"ppppppefffjc``````````````````````ibbakmnmpppppp",
"ppppppefffjco`````````````````````kcejenmnpppppp",
"ppppppffefjbi````````````````````hjafjnnnnpppppp",
"ppppppfffffja````````````````````bbajennnnpppppp",
"ppppppfffffflo``````````````````obcaednnnnpppppp",
"ppppppffffjfjh``````````````````ibglnnndnnpppppp",
"ppppppffjjffja``````````````````obgjndnnddpppppp",
"ppppppfjfjjjjb``````````````````oggeddddddpppppp",
"ppppppfjjjfjfjg````````````````higgeddddddpppppp",
"ppppppfjjjjjjjl`````````o````oigghcddeddedpppppp",
"ppppppjjjjjjjfli```oiohii```oggghgjedeeeeepppppp",
"ppppppfjjjjjjjlcgacljjjlaghhhaahhceeeeedeepppppp",
"ppppppjjjjjjjjlljfddnnndjklbccghgfeeeeeeeepppppp",
"ppppppjjkjkjjjlkjednnndddejlccgafeeeeeeeeepppppp",
"ppppppjjjjjkjjbkjenmnnndeeflbaafeeefefeefepppppp",
"ppppppjjkjkjjkbkfedmmnnndefkbaafeffffffeefpppppp",
"ppppppjjjkjjkkbkfdnmmmmnndejbaafeffeefefefpppppp",
"ppppppjkjkjkjlljfdnmmmmmndejlacfeeefefefefpppppp",
"ppppppjjjjkjkkkjednnmmmmnndfkcaefefefefeffpppppp",
"ppppppjjjkjkfffednnmmmmmnddejlcfefffeffeffpppppp",
"ppppppjjjjfedddnmmmmmmmdnddefjlkfeffffefffpppppp",
"ppppppffenmnmnnmmmmmmmmmmnndeefkkffefeffffpppppp",
"ppppppmmmmmmmmmmmmmmmmmmmmmmndeefjfffffeffpppppp",
"ppppppmmmmmmmmmmmmmmmmmmmmmmmnnndndeeefeffpppppp",
"ppppppmmmmmmmmmmmmmmmmmmmmmmmmmmmmmmmmneffpppppp",
"ppppppmmmmmmmmmmmmmmmmmmmmmmmmmmmmmmmmmmndpppppp",
"ppppppmmmmmmmmmmmmmmmmmmmmmmmmmmmmmmmmmmmmpppppp",
"ppppppnnnnnnnnnnnnnnnnnnnnnnnnnnnnnnnndnnnpppppp"
};
