/* XPM */
static char *noname_xpm[] = {
/* width height ncolors chars_per_pixel */
"48 48 17 1",
/* colors */
"` c black",
"a c grey33",
"b c grey47",
"c c grey40",
"d c grey87",
"e c grey80",
"f c grey73",
"g c grey27",
"h c grey20",
"i c grey13",
"j c grey67",
"k c grey60",
"l c grey53",
"m c white",
"n c grey93",
"o c grey7",
"p s None c None",
/* pixels */
"pppjffjfjffffffffffjfjfffffjfjfjjjfjjjjfjfjjpppp",
"pppmmmmmmmmmmmmmmmmmmmmmmmmmmmmmnmmmmmnmmmmmpppp",
"pppmnmnmnnmmmmmmnmmmnmmmmmmmnmnnnnmnnnnmnmnnpppp",
"pppnnmnnmnmnmmnmmnmnnnnmnmnmnmnmnnnnmnnnmnnnpppp",
"pppnnnnnnnnmnmnmnnmnnneffdnnnnnnnnnnnnnnnnnnpppp",
"pppnnnnnnnnnnmnnnnnndkcagacennndnnnnnndnnnnnpppp",
"pppnnnnnnnnnnnnnnddecghiiihhldnddnnnndndnnndpppp",
"pppnnnnndnnnmnnddfjahiioiooiicdnddndnddnnnnnpppp",
"pppnnnnndnnnddnflcgioooo``ooiofdddnndddnnnddpppp",
"pppdnnnndnndeklahoo``o```o``o`gedddndndddnnnpppp",
"pppnnnnnndndjahiio```````o`o`oigenndnddnnnddpppp",
"pppnnnnndnndlhoiio``o`o`o`o`oooicddnddddndnnpppp",
"pppnnnndndneioiioohgghiiiiio`o`oikddnddndnddpppp",
"pppdnnnnnnnbooooogaccahggggho```ocndddddnnndpppp",
"pppnnnndnddh``oohabbbbccaccch````iendddddnddpppp",
"pppdnnnndndi```igcblllbbcbbbai```olddddddndnpppp",
"pppnnnnnndeo```hcblkkkllllblbg````andddddndnpppp",
"pppnnnndndfo```cbkkkkkkkkkkkbco```hdddddndndpppp",
"pppnnnnnndeo``hbkklblllbbbbcbch```hdddddddndpppp",
"pppdnnndnndh``abaghhgcbagiiihag```odddddddddpppp",
"pppnnnnnddna``cggggggaaghhggaga```oedddddndnpppp",
"pppnnnndndnbooagcaccggcgagagagao``ieddddddddpppp",
"pppnnnnnndnkogbcgggggacgaggggchg``hddededdndpppp",
"pppnnnndndndihkbcaaagckgaaaablgg`okdddedddddpppp",
"pppnnnnnddndcgfllbbcakkcacbbbbccoaedddeeddddpppp",
"pppnnnnnddnnagklbbccblllcaccbbccoceddededdddpppp",
"pppnnnndndnnaallccaacaaacaaaacccocedddededddpppp",
"pppdnnnnddndkgbccaaahihiighgggccibddedeeddddpppp",
"pppnnnndddndjhbaagggiihoihhoiaagileddeeeedddpppp",
"pppdnndndddndhacaiiiiiiiiiooigahhjedddeededdpppp",
"pppdnnnddddndchggoiiihhhiihhgggiaeedeeeeeddepppp",
"pppdndnddddndfihagaggggggaagghhokeededeeededpppp",
"pppddnddddddddhhgaacahhihacagiiofeeeeeeeeeddpppp",
"pppdddnddddddncoiggcchiihaagioohfeedeeeeeeeepppp",
"pppddnddddddddjooihccahhgcaioo`aeeeeeeeeeeeepppp",
"pppdddddddededeoooiaaahhgagooo`cefefeefefeeepppp",
"pppeddddeeeeeefiooohhhooiho```obeeffefefefefpppp",
"pppeedddedeeeeeao``ooooooo````hbeeeffeeffefepppp",
"pppedddeeeeeeeflho```````````ocbefefffffffefpppp",
"pppeeeddeeeeefflch``````````oablfefffeefffffpppp",
"pppeedeeeeeffejlbcgo`````oohacbbjeffffffefefpppp",
"pppeeedeeeefffkllbaghhiihiggabblkeejffffffffpppp",
"pppefeeeeefffkkkbbccaggggaaacbblljfjjfffffffpppp",
"pppefeeeefeflcbklbbcccaaaccccbbllckjjfffffffpppp",
"pppffeeeffkbcaallbbcccccccccbbbllgcbkfffjfffpppp",
"pppfffefjbcbaahgbbbbbccccccbccbbcggaabjfjjffpppp",
"pppfffkccgccaaghhabccccacccccbbbhggacgbkjjfjpppp",
"pppffkgaaacbaaghhhgcccccccbbbllaaccbbbclkfefpppp"
};
