/* XPM */
static char * face_xpm[] = {
/* width height ncolors chars_per_pixel */
"48 48 17 1",
/* colors */
" 	s None	c None",
".	c grey93",
"X	c white",
"o	c grey87",
"O	c grey47",
"+	c grey7",
"@	c black",
"#	c grey13",
"$	c grey27",
"%	c grey80",
"&	c grey73",
"*	c grey20",
"=	c grey53",
"-	c grey60",
";	c grey33",
":	c grey67",
">	c grey40",
/* pixels */
"      .XXXXXXXXXXXXXXXXXXXXXXXXXX.X.......      ",
"      .XXXXXXXXXXXXXXXXXXXXXXXX.X.XXXX....      ",
"      XXXXXXXXXXXXXXXXX.XXX.XXXXXXXXX.....      ",
"      XXXXXXXXXXXXXXX.XXXXXXXXXXXXXX..XX..      ",
"      XXXXXXXXXXXXX.o.O+++@+..XXXXXXX.XXX.      ",
"      XXXXXXXXXXXX.o+@@@++++#X....XXXXXXX.      ",
"      XXXXXXXXXX..$@@@@@+@++++X.oXXXXXXXXX      ",
"      XXXXXXXXX.%@@@@@@@+@@@@@+&oXXXXXXXXX      ",
"      XXXXXXXXXX@@@@@++##*$**++@=oXXXXXXXX      ",
"      XXXXXXXXX+@@@#O===------$@+;oXXXXXXX      ",
"      XXXXXXX.*+@@O=:--::::----O++;.XXXXXX      ",
"      XXXXXX.o+@+>--::::::::::--=++:XXXXXX      ",
"      XXXXX..%+@>----:::::::::---=++XXXXXX      ",
"      XXXX...+@*=----:::::::::::--++O.XXXX      ",
"      XX....o+@>-----:-::::::::---$++X.XXX      ",
"      XX....o@@O-==---:::::::::-::>++o.XXX      ",
"      XX..oo%++-===-:--:::::::---:=++;.XXX      ",
"      ....oo&++=======-:::--==>>---#++o.XX      ",
"      ....ooo@;=O#+++*;=-->>*+@@#$-O@+o.XX      ",
"      ...oo%:@O=#+###+*>=O>**#$$$#O-@+o..X      ",
"      ...oo%*@O$*$>;$>O$OO$>&;>=-;;=@$oo.X      ",
"      ...oo&;+*O;*##>*$*==;;***;*O->@%oo.X      ",
"      ..oo%%;+==$**;**$#=-*;*$*$OO--#:o..X      ",
"      ..ooo%&#==>>$$;>>*=-*>>>;>>O=-$-oo.X      ",
"      ...oo%&$=O=OO=O=O;O=>=--O==----&oo..      ",
"      ..oo%%%>=;-==-==*>OOO;::----;-:%oo..      ",
"      ...oo%&-==%--:-$$=-:=;>--::&--:%oo.X      ",
"      ...oo%:-===;$;=>OO--==;>*$;:-::&oo.X      ",
"      ..ooo%%-=O=---O>$*>>$=>OO-:--:-%oo..      ",
"      ..ooo%&:=====>;$##$;#$;OO=----:%oo.X      ",
"      ..ooo%%&===O;++@@+@+@@++#$--:::%oo.X      ",
"      .oooo%&%====*++@++*;>++@+#=-:::ooo.X      ",
"      ..ooo%%%====#*##*$$$$$**##=---&oo...      ",
"      ..ooo%%%-=-O>;O;;>OO>>>=O;=::-oooo.X      ",
"      ...ooo%%-==OO;>>;#++#O=OO==-=-%oo...      ",
"      ..ooo%%%&==O>;>>O*++*>OO>>=-=:%oo..X      ",
"      ..oooo%%%OO=>>O>O$$*$OO=;;===%%oo..X      ",
"      ....o%%%%OOO$$$;;;>=>O>;$$===%ooo...      ",
"      ..oooo%&&OOO>+##***;;**##*=O=%%%o..X      ",
"      ..ooo%%&&=>>O#+@++#**#+++;=O:%%oo..X      ",
"      ..oo%%&&:O-O;*@@++@+@@+++O=-%&%%o...      ",
"      %&oo%%$&&&-=O$++@@+@@++#>=::&o&#:..&      ",
"      &=+@+++:&&O--OO#+@++++#;-:&&%%%@+#$#      ",
"      &+@@@@+&%&%=:-=OO;**;O=--%&o::%@@@@@      ",
"      -@@@@@*&&&%%=---=-=----O%:%:%&%$@@@@      ",
"      =@@@@@%%&%&%%%O=--=--O%%&%&:%:%&@@@@      ",
"      @@@@@@o%&%&%&ooo...ooooo&o&%%&%&+@@@      ",
"      @@@@@o%%%o&&%&ooo%ooooo&o%&oo&o%>@@@      "};
