#define noname_width 48
#define noname_height 48
static char noname_bits[] = {
 0x00,0x00,0x00,0x00,0x00,0x00,0x00,0x00,0x00,0x00,0x00,0x00,0x00,0x00,0xf0,
 0x0f,0x00,0x00,0x00,0x00,0x0c,0x30,0x00,0x00,0x00,0x00,0x03,0xc0,0x00,0x00,
 0x00,0x80,0x00,0x00,0x01,0x00,0x00,0x40,0x00,0x00,0x02,0x00,0x00,0x20,0x00,
 0x00,0x04,0x00,0x00,0x20,0xf0,0x0f,0x04,0x00,0x00,0x10,0xee,0x77,0x08,0x00,
 0x00,0x90,0x11,0x88,0x09,0x00,0x00,0x48,0x08,0x10,0x12,0x00,0x00,0x28,0x84,
 0x21,0x14,0x00,0x00,0x18,0xc4,0x23,0x18,0x00,0x00,0x28,0x84,0x21,0x14,0x00,
 0x00,0x48,0x08,0x10,0x12,0x00,0x00,0x90,0x11,0x88,0x09,0x00,0x00,0x10,0xee,
 0x77,0x08,0x00,0x00,0x20,0xf0,0x0f,0x04,0x00,0x00,0x20,0x00,0x00,0x04,0x00,
 0x00,0x40,0x00,0x00,0x02,0x00,0x00,0x80,0x00,0x00,0x01,0x00,0x00,0x00,0x03,
 0xc0,0x00,0x00,0x00,0xff,0xff,0xff,0xff,0x00,0x40,0x00,0x00,0x00,0x00,0x02,
 0x10,0x00,0x00,0x00,0x00,0x08,0x04,0x00,0x00,0x00,0x00,0x20,0x00,0x00,0x00,
 0x00,0x00,0x00,0xff,0xff,0xff,0xff,0xff,0xff,0x04,0x00,0x00,0x00,0x00,0x20,
 0x04,0x00,0x00,0x00,0x00,0x20,0x84,0x30,0x8c,0xe8,0xbb,0x20,0x44,0x49,0x92,
 0x28,0x90,0x20,0x24,0x8a,0xa2,0x28,0x90,0x20,0x24,0x0a,0x82,0x28,0x90,0x20,
 0x24,0x0a,0x82,0xe8,0x91,0x20,0xe4,0x0b,0x82,0x28,0x90,0x20,0x24,0x8a,0xa2,
 0x28,0x90,0x20,0x24,0x4a,0x92,0x28,0x90,0x20,0x24,0x32,0x0c,0xe7,0xbb,0x2f,
 0x04,0x00,0x00,0x00,0x00,0x20,0x04,0x00,0x00,0x00,0x00,0x20,0xfc,0xff,0xff,
 0xff,0xff,0x3f,0x0c,0x00,0x00,0x00,0x00,0x30,0x0c,0x00,0x00,0x00,0x00,0x30,
 0x0c,0x00,0x00,0x00,0x00,0x30,0x1e,0x00,0x00,0x00,0x00,0x78,0x00,0x00,0x00,
 0x00,0x00,0x00};
