/* XPM */
static char * face_xpm[] = {
/* width height ncolors chars_per_pixel */
"48 48 6 1",
/* colors */
" 	s None	c None",
".	c dark slate grey",
"X	c navy",
"o	c slate grey",
"O	c white",
"+	c grey",
/* pixels */
"                                                ",
"                                                ",
"                    .XXXXXX.o                   ",
"                oXXXXXXXXXXXXX.o                ",
"              oXXXXXXXXXXXXXXXXXXo              ",
"             XXXXXXXXXXXXXXXXXXXXXX             ",
"          oXXXXXXXXXXXXXXXXXXXXXXXXXXo          ",
"         oXXXXXXXXXXXXXXXXXXXXXXXXXXXXo         ",
"        oXXXXXXXXXXXXXXXXXXXXXXXXXXXXXXo        ",
"       oXXXXXXXXXXXXXXXXXXXXXXXXXXXXXXXXo       ",
"       XXXXXXXXXXXXXXXXXXXXXXXXXXXXXXXXXX       ",
"      XXXXXXXXXXXXXXXXXXXXXXXXXXXXXXXXXXX       ",
"     XXXXXXXXXXXXXXXXXXXXXXXXXXXXXXXXXXXXXo     ",
"     XXXXXXXXXXXXXXXXXXXXXXXXXXXXXXXXXXXXXX     ",
"    oXXXXXXXXXXXXXXXXXXXXXXXXXXXXXXXXXXXXXXo    ",
"    XXXXXXXXXXXXXXXXXXXXXXXXXXXXXXXXXXXXXXXX    ",
"   oXXXXXXXXXXXXXXXXXXXXXXXXXXXXXXXXXXXXXXXXo   ",
"   .XXXXXXXXXXXXXXXXXXXXXXXXXXXXXXXXXXXXXXXX.   ",
"   XXXXXXXXXXXXXXXXXXXXXXXXXXXXXXXXXXXXXXXXXX   ",
"  oXXXXXXXXXXXXXXXXXXXXXXXXXXXXXXXXXXXXXXXXXXo  ",
"  .XXXXXXOOOOOXXOXXXXXXXXXXXXXXXXXXXXOXXXXXXX.  ",
"  XXXXXXXOOXXOOXOXXXXXXXXXXXXXXXXXXXOOXXXXXXXX  ",
"  XXXXXXXOOXXXOXOXXOOOOXOOXOOXXOOOOOOOOXXXXXXX  ",
"  XXXXXXXOOXXXOXOXOXXXOXOOOXOXOOXXOXOOXXXXXXXX  ",
"  XXXXXXXOOOOOXXOXXOOXOXOOXXOXOOOOOXOOXXXXXX    ",
"  XXXXXXXOOXXXXXOXOOXXOXOOXXOXOXXXXXOOXXXXXo    ",
"  XXXXXXXOOXXXXXOXOOXXOXOOXXOXOOXXOXOOXXXXo     ",
"  .XXXXXXOOXXXXXOXXOOOXXOOXXOXXOOOOXXOOXX+      ",
"  oXXXXXXXXXXXXXXXXXXXXXXXXXXXXXXXXXXXXXX       ",
"   XXXXXXXXXXXXXXXXXXXXXXXXXXXXXXXXXXXXX        ",
"   .XXXXXXXXXXXXXXXXXXXXXXXXXXXXXXXXXX          ",
"   oXXXXXXXXXXXXXXXXXXXXXXXXXXXXXXXXXo          ",
"    XXXXXXXXXXXXXXXXXXXXXXXXXXXXXXXXo           ",
"    oXXXXXXXXXXXXXXXXXXXXXXXXXXXXXX             ",
"     XXXXXXXXXXXXXXXXXXXXXXXXXXXXXX             ",
"     XXXXXXXXXXXXXXXXXXXXXXXXXXXXX              ",
"      XXXXXXXXXXXXXXXXXXXXXXXXXXo               ",
"      oXXXXXXXXXXXXXXXXXXXXXXXX                 ",
"       oXXXXXXXXXXXXXXXXXXXXXXo                 ",
"        oXXXXXXXXXXXXXXXXXXXX                   ",
"         oXXXXXXXXXXXXXXXXXXX                   ",
"          oXXXXXXXXXXXXXXXXX+                   ",
"            oXXXXXXXXXXXXXo                     ",
"              oXXXXXXXXXX                       ",
"                oXXXXXXXo                       ",
"                   o.XX                         ",
"                                                ",
"                                                "};
