/* XPM */
static char * face_xpm[] = {
/* width height ncolors chars_per_pixel */
"48 48 8 1",
/* colors */
" 	s None	c None",
".	c grey",
"X	c slate grey",
"o	c dark slate grey",
"O	c lavender",
"+	c gainsboro",
"@	c white",
"#	c navy",
/* pixels */
"                                                ",
"                       ...                      ",
"                  .XXooooooooX.                 ",
"               .XooooXXXXXXXooooX.              ",
"             XoooXXXX.......XXXXoooX            ",
"           .XoXXXX.OO.XX+XXXO..XXXXoo.          ",
"          .ooXX.+@@@.X+OOXXXO.XX..XXoo.         ",
"         .ooXX.+@@@@.XO@@XoX@XX.+X.XXXoX        ",
"        XoXX....@@@@+X.O.XXX+XX.+X...XXoX       ",
"       XoXX+@.XXXO@@@+......XX.+XXX...XXoX      ",
"      .oXX..OO..X.@@O..XXXX....XXX.@O.+XXoX     ",
"     .ooX.+oX...X+.XXXX....XXX...X+.OO+.XXo.    ",
"     ooX.XO.XXX..XX.O@@@@@@@O.XX..XX..XX.XoX    ",
"    .oXXXXO+X+..X.O@@@@@@@O@@@@.X.+.XoXO.XXoX   ",
"    XoX.XXX+X+XX++XXXX.O.XX.X.+@OXX.X.XXX.Xoo   ",
"   .oX...OXo..X+@.o##o#XXoX.XXXO@+X.+.XX.XXXoX  ",
"   XoX.X.+O..X+@@.X...XoXooXXXXX.O+X.X.+.XXXoo  ",
"  .oXX...XX+X.@@@+@@@OXX..X.+OO+XXO.X.XXX.XXXo  ",
"  .oX.X.XX..X@@@O++@OX#.@OXXX@@@OXXOX....XX.XoX ",
"  XoX.XXXX.X.@@@+XX.X#oX.OX..@@@@+X..XOXXXX.XoX ",
"  oXX+XX...X+@@O....X#oXX.XXXX.@@+o.@X.XO@O.XXo ",
"  oXX+.O.X.X@@@.X.O@+XX....Xoo.@@.XO@X.X..X.XXo.",
"  oXXXXXX.X.@@@OX.O@@.XX@@@OXXO@@.X@@...XXX..Xo.",
" .oXXXXoX.X.@@@OXX.@@.XXO@@+Xo+@@X.@@.....XX.Xo.",
" .oXX..XX.X.@@@OX.+...XX.@@+XX.O.X@@@.X@+XX..Xo.",
" .oX..O+..X.@@@OXX.OOXXXX.@@..XXX+@@@...oX...Xo.",
"  oXXX.X.X..@@@@OX.+.XXX.X...O.XoO@@@...X....X#.",
"  oXXXXXXX.XO@@O.XX.XXX..XXooo###.@@@X.XXXX.XXo.",
"  oXX.+OOO+X+@.XoXoooX.ooXoo#####o.@OX..+...XXo ",
"  XoX.X.XX+X..o#o..oo..Xooo#######o..X+X.O@+XoX ",
"  .oX.O.XXO.Xo##XOXXX+.Xoo#########oo...XXO.XoX ",
"  .oX.XX.+X.X##o..Xo..XX############X.XXXX.XXo. ",
"   XoX..XXX..o#X.oooXoo############o..+OOO+XoX  ",
"   .oX.XX..o..oXXXXXXo############o.@..O@@.Xo.  ",
"    XoX.+.Xo++Xo#Xooo############o....XX.OXoo   ",
"    .oXX...X.XO.o###############o..XoXXXXXXo.   ",
"     ooX.OXX..X..X############oX.O.....O.XoX    ",
"     .ooX.X...OX.@.Xoo#####ooX.O.XXX@O..XXo.    ",
"      .oXX...O.X+@@@O..XXX..O@@@OXoXO@.XX#X     ",
"       XoXX..+X.@@@@.X.......O@@@@.X.+XXoX      ",
"        XoXX.XXO@@@@.XXXXXXXX+@@@@@O.XXoX       ",
"         XoXXX.@@@@@X.XX...XoX@@@@O.XXoX        ",
"          .ooXX.+@@+X.XX+.O.XXO@+.XXoo.         ",
"           .XoXXXX....X.+.@O...XXXooX.          ",
"             XoooXXXX.......XXXXooo.            ",
"               XooooXXXXXXXXXoo#o.              ",
"                 .XXoooooooooXX.                ",
"                                                "};
