/* XPM */
static char *noname_xpm[] = {
/* width height ncolors chars_per_pixel */
"48 48 17 1",
/* colors */
"` c black",
"a c grey33",
"b c grey47",
"c c grey40",
"d c grey87",
"e c grey80",
"f c grey73",
"g c grey27",
"h c grey20",
"i c grey13",
"j c grey67",
"k c grey60",
"l c grey53",
"m c white",
"n c grey93",
"o c grey7",
"p s None c None",
/* pixels */
"ppppppfjjjjjjjjjjjkbaacljkbcghacljffffefefpppppp",
"ppppppjjjjjjjjjjklghhhhakkcghioohcjffefefepppppp",
"ppppppfjjjjjjjkkbhiihhhhhhhiooo`ooajeffeefpppppp",
"ppppppjjjjjjjjkahihgiiihghhiioo````bjefefepppppp",
"ppppppjjjjjjkkaiihhihgcbllbcccahhooaljefeepppppp",
"ppppppjjjjjjkgoooihclkfffffjkllcagihiajefepppppp",
"ppppppjjjjkkco`ohakfdnnnnndefjkklcgooocfeepppppp",
"ppppppjjjjjlo``gbjenmmmmmmmmnefjklci``ikfepppppp",
"ppppppjjjjkg``hljenmmmmmmmmmndefkkbg```gjepppppp",
"ppppppjjjjli`oajfdnmmmmmmmmmnddfkkbg```obfpppppp",
"ppppppjjjkc``ocjednmmmmmmmmmndefjkch```ogfpppppp",
"ppppppjjjja`oicjdnnmmmmmmmmnddefjkch`o``okpppppp",
"ppppppjjjkg``ibfddnmmmmmmmmnndefjlci`````bpppppp",
"ppppppkkjkg``olfkblkemmmmmnjlkljjlcho````apppppp",
"ppppppkjjja``hlkbbccbemmmnjcaaccblcg`````hpppppp",
"ppppppjjjjb``gkkkfeejkemmejjedflbbba`````ipppppp",
"ppppppjjjjloobjjlahhclfmnklbbclkklbco````bpppppp",
"ppppppkkjjkgileekklbljfnekklchgcjjkchoooifpppppp",
"ppppppkjkjkghldmneeffefdfkfjfefjeelchihakfpppppp",
"ppppppjkjjkghldmmmnnmdedjjedddnmnekchhglfepppppp",
"ppppppjjjjjailemmmmmmednfjdmmmmmnflaiiglffpppppp",
"ppppppjjjjjlglenmmmmdednfkfmmmmmejbahgckffpppppp",
"ppppppjjjjjkblenmmnfffnmjjkfnmmmdkbggbckffpppppp",
"ppppppjjjjjjlljdnekjkaljccbjjfdnekcagbakffpppppp",
"ppppppjjjjjjkbkjlaccahigihabbcljjlcgghockfpppppp",
"ppppppjjjkjjkblkgooooooi`oooiihlklcao`iljfpppppp",
"ppppppjjkjjjkclkaooioihcaiiiooikklcgo`afffpppppp",
"ppppppjkjjjjkcblbocbcljefkbcbhhkklcg`okfjfpppppp",
"ppppppjjjkjkjbabkbkkklklkklkkllklbahhajffjpppppp",
"ppppppjjjjjjjkgaljjfjjjkffjkjjjlbcagabjfjfpppppp",
"ppppppjjkjkjjjlgcbljffdeefjkkllbcaggcckjjjpppppp",
"ppppppjjjkjjkjjlagcljjfefkllbcbcaaggclkffjpppppp",
"ppppppjkjjkjjkjjkghallllklbbaaaagagallkedjpppppp",
"ppppppjjkjkjkjjjjkhihaaaccaaggggaagbkkjfddpppppp",
"ppppppjjjkjkjkjkjjciiiihihhhgggacgblkjfdnmpppppp",
"ppppppjjkjkkjkjjkjbhiiiiiiihhggaackkjfddnmpppppp",
"ppppppjkjkjkjkjkjjlghaggghggagcaakkjfeddnmpppppp",
"ppppppjkjkkjkjkjjklghacaaaaacccclkjjeddddmpppppp",
"ppppppjjkjkkjkjjlkkcghgaaccbcccbkjjeeddfnmpppppp",
"ppppppjkjkkkjjflkkkaggaaabbbbclkjjfeddefnnpppppp",
"ppppppkjkkjkfekkjekhgcacbllbcbkjjfeedejdnmpppppp",
"ppppppkkkjkkfkkjfnkogcccllbbbkkjjeeeefeddmpppppp",
"ppppppkkjkjfkknnnncogbbcllbblkjffeeeefeenmpppppp",
"ppppppjjkjfjjdmmnfciacclllllkjfeedeejeednmpppppp",
"ppppppjkjjdeemmmdlcgaccbllllkfefedefjfddnepppppp",
"ppppppjjkemnmmmnecagacbbllkkjmnedefjfddeddpppppp",
"ppppppjkjnmnmmmnfcchacclkkkknmmddejjendeddpppppp",
"ppppppbbbfeeefefbghohgabcccfeeeekkbljjkkjjpppppp"
};
