/* XPM */
static char *noname_xpm[] = {
/* width height ncolors chars_per_pixel */
"48 48 17 1",
/* colors */
"` c black",
"a c grey33",
"b c grey47",
"c c grey40",
"d c grey87",
"e c grey80",
"f c grey73",
"g c grey27",
"h c grey20",
"i c grey13",
"j c grey67",
"k c grey60",
"l c grey53",
"m c white",
"n c grey93",
"o c grey7",
"p s None c None",
/* pixels */
"ppppppeeededdedefffffjjc`oohgljfdddddndnnnpppppp",
"ppppppeeeedddddeeeffjja``o`oohbjedddnnnnnmpppppp",
"ppppppedeeddddddefffja`o````o`ikeddddnnnmnpppppp",
"ppppppdeededddndeeffki````````obfddndnnnnmpppppp",
"ppppppedeeedddddeeffc`````````oceedddndnnmpppppp",
"ppppppedeededddddefkg`o```````oafeddddndnnpppppp",
"ppppppdededddddddefli`io`o``oooaledddddnnnpppppp",
"ppppppddeededddddejco``oiiio``ohgfedddnnnnpppppp",
"ppppppddeeedddnddfbo``````iihiihijeddnnnnmpppppp",
"ppppppdddededdndeco````o````ohiihlfddnnnmnpppppp",
"ppppppndddeeddddb```oo`oohio`o`oogkdnnnnnmpppppp",
"ppppppndddddeedko`oohgacbllchio`ooaeddnnnnpppppp",
"ppppppndddedddji``igbkfdnndjklci`oikdnnnnmpppppp",
"ppppppnndddedda```hbjfdmmmddejkgioobddnnnmpppppp",
"ppppppnndddddfo``iakfdnmmnnnefjlgioaednnmmpppppp",
"ppppppnnddddeb```hbfdmmmmmnndfjkbgiajnnnnnpppppp",
"ppppppnnddddea``igkfnmmmmmmndfjklgiaednnnnpppppp",
"ppppppnnnddefh`ialjenmmmmnmndfjllaoceeddnnpppppp",
"ppppppnnddefkh`aljjennmmmmnnejkbbaibeeddnnpppppp",
"ppppppnnddejlaickkllbkdnmnndejkbcaijedddnnpppppp",
"ppppppnnddekjbglkkbbcahcfdndefkbagieddddddpppppp",
"ppppppnnddffbcaljjchihggljejfjlcahgeededddpppppp",
"ppppppnndeejcbckedkahhgakdklhihgghbdddddedpppppp",
"ppppppnddefjllbkdndjbbcbenlhiihghhkeedddddpppppp",
"ppppppnndeefjlbkenmnfjjfndchioohhhjdeeddddpppppp",
"ppppppnnneefjlbkenmmnnddneaaghiihgeeeeeeddpppppp",
"ppppppnnddejkbbkjdnnddddnjcbcaggabeeeeeedepppppp",
"ppppppnnddeflcblkjjjklfdnjalkkbcckeeeeeeedpppppp",
"ppppppnddeeejblbbbbablfedlabkkcgaeeeeeededpppppp",
"ppppppnnddfjcblbbaaljlabjcgclbcgleedeeeeeepppppp",
"ppppppnddjbioalkkbalfelahighccgajfeeeeeeeepppppp",
"ppppppndkho`ogllkkccbkkcaaghhghcefeeeeeeeepppppp",
"ppppppnjh``iihblkkkckbccagghiihgeeeeeeeefepppppp",
"ppppppkcoiahohabkkfllkjcgiihghihbjfeeefeffpppppp",
"ppppppchiiiiigcclkjkllccghgahhiohakefeeeefpppppp",
"ppppppaioghhiacabkjkbcaghhgghoooihakfeefefpppppp",
"ppppppchohghhaaagkjjlcaghghio`oooogcjffeeepppppp",
"ppppppagihagoacahcjfjkbaghio````o`oigjfeffpppppp",
"pppppphaogghigaaghckkkbagioooo``````ilfffepppppp",
"pppppphaoahgohaagghgaaahoioooio`````igjfffpppppp",
"ppppppggiagh`haaaghiiioiii``oooooo``ohkfffpppppp",
"pppppphgicgo`iaagghiiooihh`ooioiooo`hacjffpppppp",
"ppppppchhghi`igaaghiiiihhioooooo```ighhbjfpppppp",
"ppppppcghhih`igaaghhiihhhhio`oo`o`oaihgibfpppppp",
"ppppppgggahhoihgaaghhhgghhgaoooiiiagihhogcpppppp",
"ppppppacaghhhiihaagahgbkbcaahiohgchiihgoohpppppp",
"ppppppaagachghgghihcgcbclllbhhhaghooiiaoohpppppp",
"ppppppggagghohhohihggghacggccachhioooihi`hpppppp"
};
