/* XPM */
static char *noname_xpm[] = {
/* width height ncolors chars_per_pixel */
"48 48 17 1",
/* colors */
"` c black",
"a c grey33",
"b c grey47",
"c c grey40",
"d c grey87",
"e c grey80",
"f c grey73",
"g c grey27",
"h c grey20",
"i c grey13",
"j c grey67",
"k c grey60",
"l c grey53",
"m c white",
"n c grey93",
"o c grey7",
"p s None c None",
/* pixels */
"pppkkklbklkjjkjkjjkjjbblkllkkklllbblcclkklllpppp",
"pppkkklblkkjkjjjkjjkjcblklljklkkllbbcclkkllkpppp",
"pppjkklbklkjkjkjjjkkjbbbkllkkkklblbbcclkkllkpppp",
"pppklklbkljkjjkjkjkkjbbblblkkllklbblacllkllkpppp",
"pppkkkklkljjjjkjjjkkjbccacclllbllbbbcblklllkpppp",
"pppkkklbkljkjjjjkjkklgoihaccbbllbbbbccllkkllpppp",
"pppkkllbklkjjkjkjkblbh``igcbbbcbbbbbcclklklkpppp",
"pppjlkllkljkjjkjjlbcghoo`iabkkccbcbbccbklllkpppp",
"pppjkklbkkkjjjjjblhhgccahiicblcagbbbcclkklklpppp",
"pppkllllkkkkjjjlbagabkkklcgglbaghhclcclklllkpppp",
"pppjkllbklkjjjkalgablkjffjkccbahiiabccllklllpppp",
"pppkllllkkjkjjcacgcbkjjjfffklbahiihbcclkllllpppp",
"pppjlllbklkkjlgahablkjjjfjfffkbhooiaccllllllpppp",
"pppkllllkkkjjcgohcblkjjjjffjffjci`ogcclkllllpppp",
"pppklllbkkkkjgh`gablkjjjjjfjfjjkci`iacllklllpppp",
"pppklllbklkkkhg`gcbljjffjjfjffjklb`hgcbkllllpppp",
"pppkllblkkkkkogoaccljffjfeffdejklbogocllllllpppp",
"pppkbllbklkkb`giacblkkjffffefjkjlbig`alllllkpppp",
"pppkbllbkkkka`ioacblaialjfkbghbklbih`abklbllpppp",
"pppkblbbklkkg```acbaihigkfkahohblb`o`gbllbllpppp",
"ppplbllbkkkki```abgg`cagckkbh`habb```obklbllpppp",
"ppplblbbkllk```oclcbbbaacklbgabblli```bllbblpppp",
"ppplblllkkkk```hbkkkbccaakblbcbkkkg```bllblbpppp",
"ppplblbbklkli``gbkjklkbcckllkklkjja```bllbblpppp",
"ppplblbbkllkc``hbkjkjkaabkklkjjjjjg``ibllblbpppp",
"ppplblbbkklkk``hbljfjccclkkllkffjkl``abllbbbpppp",
"ppplbbbbkllkkb`gcljfjgahallckljfjklogcblbbblpppp",
"ppplbbbbkllllkhccbkjjlccblkllkjjjlkgacblbblbpppp",
"pppbblbbklklkkbcccjjkbllkkkklkjjjkbaacblbbbbpppp",
"ppplbbbbkllllkkhhckjkbcbcbbbblljkbocacbbbbbbpppp",
"pppbbbbblllklklaoblkkg`ckjjbocjkkagcacbbbbbbpppp",
"pppbbbbbllllllkloclljbacccccbkjjjabcaabbbcbbpppp",
"pppbbbbblllllkllcgbbklbblllkkkjkkgccaabbbbbbpppp",
"pppbbbcllllllllkbiblblllllkkkjkjbaccaabbbccbpppp",
"pppbbbcblllllklllbcbblkkkkkjkkkkbabaaabbcbbbpppp",
"pppccbcbllbbllllblccbblkkkjjkjkbcacaaacbbccbpppp",
"pppcbbcllbllblllblccbbblkkjkkkklbacaaabcccbbpppp",
"pppcbbcbllblllllbbccbbbblllllkklcgcagabbccccpppp",
"pppcbbcblbblblllblcccbbbblkkkkkllabagacbcccbpppp",
"pppcbcbbllbblllllkcbllblkkkkkkkklcdlcabbccbcpppp",
"pppbcbcblbblllfjfdbbllblkjjkkkkklbmmneflccccpppp",
"pppccbcbbllblfmmnmfllkllljjkkjkkkjmmmmmnflbcpppp",
"pppccccbbbljdnmmnmmfkkllkkjkkkkkjmmmmmmmmnefpppp",
"pppcccclkedmmmmmmmmmdfkkkjjjkjjenmmmmmmmmnddpppp",
"pppgcljedmmnmmmmmmmmmmnffjjjfdmmmmmmmmmmnnmnpppp",
"ppplfeednmmmmnmmmmmmmmmmmmmmmmmmmmmmmmmnmmmmpppp",
"pppeeddmmnmmmmmmnmmmmmmmmmmmmmmmmmnmnmnmmmmmpppp",
"pppnndnnmmmmnmmmmmmmmnmnmmnmmmnmnmmmmmmmmmmmpppp"
};
