#define noname_width 48
#define noname_height 48
static char noname_bits[] = {
 0x00,0x00,0xf0,0x02,0x00,0x00,0x00,0x00,0xbc,0x1f,0x00,0x00,0x00,0x00,0xfe,
 0xfe,0x00,0x00,0x00,0x00,0xbf,0xff,0x01,0x00,0x00,0xe0,0xff,0xff,0x03,0x00,
 0x00,0xf0,0xff,0xef,0x0f,0x00,0x00,0xf8,0xff,0xf7,0x2e,0x00,0x00,0xf8,0xf6,
 0xfb,0x3f,0x00,0x00,0x7c,0x7f,0xff,0x7f,0x00,0x00,0xbc,0xbf,0xff,0xff,0x00,
 0x00,0xdc,0xe7,0x57,0xff,0x00,0x00,0xfc,0xb3,0xfd,0xff,0x01,0x00,0xfc,0x01,
 0x00,0xff,0x02,0x00,0x1e,0x00,0xa0,0x7c,0x03,0x00,0xbe,0x00,0x00,0xbe,0x07,
 0x00,0x5f,0x05,0xb4,0xfd,0x03,0x00,0xff,0x5f,0xfd,0xda,0x0f,0x00,0xdf,0x2e,
 0x5e,0xef,0x07,0x00,0x6f,0x1f,0xb7,0xfa,0x0f,0x00,0xf7,0xac,0x9b,0xed,0x0f,
 0x00,0x3f,0x3b,0xdc,0xfe,0x1f,0x80,0xdf,0x0f,0xeb,0xfb,0x1f,0x80,0xef,0x32,
 0x11,0xf5,0x1f,0x80,0x57,0x89,0xa4,0xf8,0x1f,0xc0,0x0f,0x24,0x02,0xe0,0x3f,
 0xc0,0x97,0x12,0x01,0xf8,0x1f,0xc0,0x0f,0x28,0x0a,0xd0,0x1f,0x80,0x27,0x14,
 0x2b,0xfa,0x1f,0x80,0x1f,0xfd,0x17,0xe9,0x1f,0x80,0xa7,0xfa,0xef,0xfc,0x0f,
 0x00,0x5f,0xf9,0x43,0xf6,0x1f,0x00,0xbf,0xd4,0xba,0xfd,0x0f,0x00,0x6e,0xfb,
 0xcf,0xf6,0x0f,0x00,0x3e,0x7d,0x7d,0xfd,0x0b,0x00,0xbe,0x0f,0x30,0xf6,0x05,
 0x00,0x5e,0x14,0x14,0xfd,0x05,0x00,0x7c,0x0a,0x8a,0x76,0x05,0x00,0x38,0xec,
 0x51,0xfa,0x0f,0x00,0xf8,0xb2,0x04,0xff,0x07,0x00,0xbc,0x09,0xa0,0xfe,0x07,
 0x00,0xf4,0x42,0x92,0xff,0x01,0x00,0xf8,0x15,0xc8,0xfe,0x01,0x00,0xf8,0x57,
 0xf5,0x7f,0x00,0x00,0xf0,0x5f,0xfb,0x7f,0x00,0x00,0xe0,0xf7,0xff,0x3f,0x00,
 0x00,0xc0,0xfb,0xff,0x1f,0x00,0x00,0xc0,0xff,0xff,0x0f,0x00,0x00,0xc0,0xff,
 0x7b,0x07,0x00};
