/* XPM */
static char * face_xpm[] = {
/* width height ncolors chars_per_pixel */
"48 48 15 1",
/* colors */
" 	c grey60",
".	c grey53",
"X	c grey47",
"o	c grey73",
"O	c grey67",
"+	c grey40",
"@	c grey33",
"#	c grey13",
"$	c grey27",
"%	c grey20",
"&	c grey7",
"*	c grey80",
"=	c grey87",
"-	c grey93",
";	c white",
/* pixels */
" . .  XoO.  OOX   X.+@@##$#@%@$#$$$+.$#####X+$#%",
"  OOXOoX  O.  O @@%#%#########@%###%#$#####X%#@#",
"  X .    OO  X+$%%&######%######&%#&##&##&#X$%##",
". o.O..    X@$######$#&######%###########$#X$###",
"    . XO X+####&%##&############$###&##&###X@###",
"O .    OX$###%%%#########&#&###&##&%$######X%&##",
"    X  X@#########&##&#&#####&#####%##&##&#@$###",
"...   +X%##$##&#####%###########&###&######$$#$#",
"X O ...$%%##&###&######&#&##&#########&##&#$$#&#",
"O. .OXX@@######################&##$&############",
"  .O  X+%&##&##&##&#&##&##&##%####&###&##&#&$###",
"   O...+%###########%$#$$##%####$#############&#",
".X .O. +#$#%%&%@#$%@%@XX@$$#####&##&##&##&######",
"OO  . .+$#$@$$X@+ o ..OOo.@###&##############&##",
"O .     @+X+ *Oo*===***o o.$#%###&##&##&##&####&",
"     OO+XOoO**=-=--*==***OO@#%#&############&###",
"X  .. O+X**==---=-*;-=-**oO $&###%&##&##&#####%%",
"  .  .X. **-=--O---=--===OOX%####%#########&##&#",
"O.O.  X.O=-=---=-;---;-=**O+$#%#&##&##&#########",
".  .  XOo*==----;--;----=oO+$###########&#&##&##",
"..O.   Xo=====--;--;-;=-**O.%####&##&##########&",
"  . O...O=-==;=---;;;-===*O.X##&########&##&####",
"OO.  OX O=--------;---=--oo  @####&##&#########%",
" . O  O$ o*-----;-;---=== oo.+$##%%%@%&##&##&###",
"OO .  X%@@*-=-;=o*o*=*=***O O+#$$  Oo #$########",
"     X$@$%+o*= .X+@+XX.**o* X@+@Xo*=**+#&##&##&#",
"..O X+@X@@++* *. X+X+.O.  XX.O+@ OO-=*.#########",
".O .O X.$%X OO*oo %$XX  +.Oo*OX+.Oo*-o+###&##&##",
" O.O.*OX++ Xo=***o X OX+O-=*o .X. ==*O$#&######&",
"   OO*OXX O.*-O *= O==O-;==** XX o=*=o@#####&###",
"   .OOOXXOO ==o*==-=-=*==-=oO XX O*-=O###&####&#",
"..oX. X X..o**==*O=---*--=*o X + O=o*$#####&####",
"  XOO.O..***==-*-*==**----*O..X+O==*+##&####@##%",
"Oo. O O  *o*-**==;=;--;-=**O . X+o*$#&######@###",
"  X O..O.*o==*===O----=-*-* O.X+%@$####&#&#%X###",
"  O O  O OO=-****=-=----*=oO .X$%%##&#######X$$#",
"..O .OO..OO*oO=o---;---=***  O@$%%&########$X#&#",
"oO.O  .ooXXX *o===-=----=*ooO @$$$##&##&#&%#.%##",
"    O .ooX XO****=*--=--***  X@$@#########%#.###",
"    . oXOX X o==*o*O*====*OOX+@+@@#X.%#&####.$&#",
"OX   O   O. X o*OoOo =**O*O.+@@+@@#X*+###&##X###",
"X O.O  ..  O.   oo*=***=OO X+$+.$$$@*X%#####X%$%",
" O.  X   ...XX Xo=**=**  oXX@+++@X$$.+$#&##&+%%#",
"O.   O.   O .   O**=oo OO X@@XXX+X@$X.%#####@###",
"O.  .  .O. O+.O**o*o*Oo...X+X +XX+XOXXX&##&#$$#&",
".. .O  O.O.  XOO**OOO X+.@XX.XO XXOO O.@@#######",
"X.. O.   **==O  . oOOXX..OO.Oo . oooOO .o..@%###",
"O ..Ooo=;o=-=-**   X+  Oo O*** ***oo*oO***O .+%%"};
