/* XPM */
static char * face_xpm[] = {
/* width height ncolors chars_per_pixel */
"48 48 3 1",
/* colors */
" 	s None	c None",
".	c navy",
"X	c grey",
/* pixels */
"                                                ",
"                                                ",
"                                                ",
"                                                ",
"                                                ",
"                                                ",
"     ...............................X.....      ",
"     ...............................X.....      ",
"     ...............................X.....      ",
"     ...............................X.....      ",
"     ...............................X.....      ",
"     ..............................XX.....      ",
"     ..............................X......      ",
"     ..............................X......      ",
"     ..............................X......      ",
"     .............................XX......      ",
"     .............................X.......      ",
"     ............................XX.......      ",
"     ............................X........      ",
"     ...........................XX........      ",
"     ..........................XX.........      ",
"     .........................XX..........      ",
"     ........................XX...........      ",
"     .......................XX............      ",
"     .....................XXX.............      ",
"     ....................XX...............      ",
"     ..................XXX................      ",
"     ................XXX..................      ",
"     ..............XXX....................      ",
"     ............XXX......................      ",
"     ..........XXX........................      ",
"     ........XXXXXXXXXXXXXXXXXXXXXXXXXXXXX      ",
"     ......XXX............................      ",
"     ....XXX..............................      ",
"     ...XX................................      ",
"     ..XX.................................      ",
"     ..X..................................      ",
"     .XX..................................      ",
"     .X...................................      ",
"     .X...................................      ",
"     .X...................................      ",
"     .X...................................      ",
"                                                ",
"                                                ",
"                                                ",
"                                                ",
"                                                ",
"                                                "};
