/* XPM */
static char *noname_xpm[] = {
/* width height ncolors chars_per_pixel */
"48 48 16 1",
/* colors */
"` c grey33",
"a c grey47",
"b c grey40",
"c c grey87",
"d c grey80",
"e c grey73",
"f c grey27",
"g c grey20",
"h c grey13",
"i c grey67",
"j c grey60",
"k c grey53",
"l c white",
"m c grey93",
"n c grey7",
"o s None c None",
/* pixels */
"oooooooolllllllllllllllllllllllllllllllloooooooo",
"oooooooolllllllllllllllllllllllllllllllloooooooo",
"oooooooollllllllllllllllmmlllllllllllllloooooooo",
"oooooooollllllllllllcijkkkkemllllllllllloooooooo",
"oooooooolllllllllllekkkkakkakelllllllllloooooooo",
"oooooooolllllllllldkkkkkkkkkkkjiimlllllloooooooo",
"oooooooollllllllldjjjjjjjjkkkkabakdllllloooooooo",
"oooooooolllllllmjjiiiiiijjjkkkkb`bbelllloooooooo",
"oooooooollllllmkkieiiiiiijjjkkkk````ellloooooooo",
"oooooooolllllmkaiiiiiiiiiijjkkkka``f`clloooooooo",
"oooooooolllllkakiieiiiiiiijjjkkkk`fggklloooooooo",
"oooooooollllcbbiieeiiiiiijjjjkkkkb`gg`mloooooooo",
"oooooooollllkbkieeeiiijjjjjkkkkkaa`ggfeloooooooo",
"oooooooolllc`ajieeeiijjjjkkkkkkkaa`gggjloooooooo",
"oooooooollle`bjieiiiijjjjjjkkkaaaa`ghhkloooooooo",
"oooooooollli`bjieeiiijjjjjkkkaaaaa`hhgbloooooooo",
"oooooooollli``jieiiijjkkkkaaaaaaabfhhhfcoooooooo",
"oooooooollldb`jjab`ffff```fff```bb`hnhfeoooooooo",
"oooooooolllck`akkb`ggfffffghggff``fnhgacoooooooo",
"oooooooolllckk`ab`ghhg`abghhhggffffhggiloooooooo",
"oooooooollldkkjjab`ggfaikghhhhgg``bggfjloooooooo",
"oooooooolllcaajijab`bbjik`gfggf`bbbgf`iloooooooo",
"oooooooolllcbaijjkaabkijkaf`bbbaabbgg`dloooooooo",
"oooooooolllmjkijab``aiijkabfgf``bbbffamloooooooo",
"oooooooolllmiiiijkkkjja```bfb```bbb`billoooooooo",
"oooooooollllcjijjkbbafffghfgg`bbbbbbbmlloooooooo",
"oooooooolllllejjkbfbkabfggf`gf```bbadllloooooooo",
"oooooooollllllijkf`kjka``f`bfgf``bbjlllloooooooo",
"oooooooolllllldjk``bb`fgghggggf``bmllllloooooooo",
"oooooooollllllmjjakjjab```bb`````jlllllloooooooo",
"oooooooolllllllejkkjjab``f`bb```bclllllloooooooo",
"oooooooolllllllmjkjjkab```bba```jllllllloooooooo",
"oooooooollllllllikjjjkkaaaaab``bellllllloooooooo",
"oooooooolllllllldjjjjjkkaaab```bcllllllloooooooo",
"oooooooollllllllejkjkkabbbb````bellllllloooooooo",
"oooooooollllllldkijkaab``fff````fclllllloooooooo",
"oooooooollllllljbijkaab``ff`````gelllllloooooooo",
"oooooooolllllmckfijjkab``ff`````hilllllloooooooo",
"oooooooollmceiejgjjjjkb`fff````fhjemlllloooooooo",
"oooooooocdeeiidihajjijkb```````fgjjjdmlloooooooo",
"oooooooodeiiiede``kjjjkab``````gbkjjjjecoooooooo",
"ooooooooeiijieddjgbkjjkab```````jkjjjjjioooooooo",
"ooooooooiijiiiddek`bakkab```b``kkkjjjjjjoooooooo",
"ooooooooiiiiiieeeiiabbab``bbbajaakkjjjjjoooooooo",
"ooooooooieiiiieeeiijjkab`bakjkaaakjjjjjjoooooooo",
"ooooooooieiiejeieijjjjjjjjkaabbaakjjjjjjoooooooo",
"ooooooooeeieejejiiijjkaaabbbbbabkjjjjjijoooooooo",
"ooooooooeeiedjiijiijjkaabbbbbbbajjjjiiiioooooooo"
};
