#define noname_width 48
#define noname_height 48
static char noname_bits[] = {
 0x00,0x00,0x02,0x00,0x00,0x00,0xa8,0xaa,0x20,0x00,0x00,0x00,0x40,0x80,0x96,
 0x02,0x80,0x04,0x28,0x55,0xa9,0x10,0x00,0x00,0x80,0x54,0xbf,0xaa,0x00,0x00,
 0x50,0x94,0xfd,0xa6,0x42,0x02,0x00,0xef,0xff,0xb8,0x0a,0x00,0x50,0x95,0xf7,
 0x55,0x05,0x00,0x20,0xef,0xed,0x37,0x95,0x04,0x88,0xae,0xd2,0xaf,0x1a,0x00,
 0x20,0x7f,0xa9,0x5e,0x2d,0x00,0x48,0xbf,0x82,0xf6,0x37,0x02,0xa0,0x6f,0x15,
 0xdc,0x1d,0x00,0x88,0xbf,0x4a,0xa1,0x76,0x01,0xa0,0x7f,0x25,0x48,0x1d,0x04,
 0x10,0x5f,0x15,0x92,0x7a,0x00,0xc0,0x7f,0xa5,0x40,0x1a,0x00,0x90,0xbf,0x12,
 0x8a,0x3c,0x02,0xa0,0xdf,0x4a,0x20,0xb8,0x00,0x88,0x7f,0x35,0x95,0x3a,0x00,
 0xa0,0xdf,0xdb,0x2a,0x7c,0x04,0x90,0x7f,0xff,0xfd,0x79,0x00,0xa0,0xef,0x7f,
 0xfd,0x7b,0x00,0xc8,0xff,0xff,0xf9,0x3b,0x04,0x80,0xaf,0xbd,0xfc,0xb7,0x00,
 0xa8,0xff,0xef,0xd8,0x3b,0x00,0x80,0x55,0xbb,0x78,0xb5,0x04,0x50,0xff,0xee,
 0xd5,0x32,0x00,0x80,0xaf,0x35,0x28,0x29,0x02,0x28,0xfb,0xee,0xd3,0x94,0x00,
 0xa0,0xdf,0xb5,0xaa,0x1a,0x04,0x10,0xf6,0xee,0xaf,0x96,0x00,0xa0,0x5f,0xfb,
 0xaf,0x05,0x02,0x48,0xfa,0xd5,0x96,0x5e,0x00,0x20,0xbf,0x7b,0xa7,0x0a,0x09,
 0x90,0xec,0xd6,0x5f,0x4b,0x00,0xa0,0xfa,0xff,0xbb,0x06,0x01,0x10,0x7d,0xfb,
 0x6d,0x23,0x04,0xa0,0xfa,0xad,0xf7,0x86,0x00,0x10,0x7a,0xff,0xad,0x2d,0x04,
 0xa0,0xec,0xbb,0xf7,0x8e,0x00,0x10,0x71,0xef,0xba,0x2d,0x04,0x50,0xfa,0xbd,
 0xd5,0x8d,0x00,0x08,0xa1,0xff,0xbf,0x3e,0x04,0x50,0xea,0x6b,0xeb,0x8d,0x02,
 0x20,0xf1,0xfe,0xdf,0x5a,0x00,0x90,0xf4,0xbf,0x7d,0x13,0x05,0x20,0x79,0xf7,
 0xd7,0xc2,0x00};
