/* XPM */
static char *noname_xpm[] = {
/* width height ncolors chars_per_pixel */
"48 48 17 1",
/* colors */
"` c black",
"a c grey33",
"b c grey47",
"c c grey40",
"d c grey87",
"e c grey80",
"f c grey73",
"g c grey27",
"h c grey20",
"i c grey13",
"j c grey67",
"k c grey60",
"l c grey53",
"m c white",
"n c grey93",
"o c grey7",
"p s None c None",
/* pixels */
"pppjfffeeeeeddddnnmmmmmmmnmnmnmnnnmnnnnndnddpppp",
"pppffefeeedededdnnmmmmmmnmnnnmnmnmnnnnnnndndpppp",
"pppfffefeeeeddddnnmmmmmmnnmnmnnnmnnmnmnnndnnpppp",
"pppffefeeeededddnmmmmmnmnmnnnnmnnmnnnnmnndnnpppp",
"pppfffeeeeededddnnmmmmnnnnmnmnnmnnmnmnmmnnnnpppp",
"pppffeeeeeededddnnnnnnmnmnnnnmmnmnmnnnmnnnnnpppp",
"pppfefeeeeeedekccbkennnnnmnmnnnmnnnnmnnnndndpppp",
"pppfefeeeeeekaiooihgcfnnnnnmnmnmnmnmnnnnnnnnpppp",
"pppffeeejllchi```ooiggknmnmnnmnnnmnnnnnnnnddpppp",
"pppfeefgiihhgo``````ohibnnnnmnnmnnmnnmnnnnndpppp",
"pppfefahiooiio```````oiilnmnmnmnnmnnmnnnnnndpppp",
"pppefeoi````ooo```````ihhfnnnnnnmnnnnnnnnnddpppp",
"pppfejoo```oiihhhhio```iohnnnmnmnnmnnnnnnndnpppp",
"pppefl`````hgccccccgho``oolnmnnnnnnnnnnnndndpppp",
"pppfec````habbllkllbagi``ohnnnnndfjjdneedndnpppp",
"pppefa````hcbbllklllbaai```enndbacghcccabdddpppp",
"pppfeg```ogccbcbblbbccago``lndgighoiiiighbddpppp",
"pppefi```ogaccbbbbbbbcaao``adh`oaoigcgiihikdpppp",
"pppfk````ohacbbbbbblbbcai``hg`oihocfekbahihepppp",
"pppec````igcbbbbbcbllllch``````ohcfmmekbahicpppp",
"pppfh```oghagggaacaaggacgo`````ohkdmndjlghiopppp",
"pppjo```ogghhhiigggiihhhaio````ocjfeeeekahiipppp",
"pppb````ighiioihhghhiihgcgo````ickjededfcioipppp",
"pppc````igaghiihgbghihgclgi````hbjfeddddkhoipppp",
"pppa````ogacaagackbagcblkai```ogbkllagbljbiopppp",
"pppi```oihacbccbljjbbbllbco```ogcbbahhhgkfhopppp",
"pppo````ihaccbcakfjbcbbbbi`````ihhcaiiakddlipppp",
"ppp`````ohhgagilbkkkigacai````iioilkbcbeeefhpppp",
"ppp`````ohhhhihhhggghigggo```oooiilneffffffjpppp",
"pppi`````ihhhighhihaghhgi````oohgakdnbabblkjpppp",
"pppao````ohhhioihhhhohggo````ogbbhlddfhihabkpppp",
"ppplg`````ohhhhhcaagaggi`````ohccigbbclaigblpppp",
"pppkco`````iighhihhgagh```c```hghioihbchihblpppp",
"pppfkh``````ihggihhcah```ojo``oihiiiigbbhgbbpppp",
"pppfjlhci```oihgaacago````````oihi`iabcbbbbcpppp",
"pppfffjco``ooiiihhhhio`````````oihoihgbbkjbcpppp",
"pppffki````oiiiiiiihhi`````````oighohggcjjcapppp",
"pppjbo``````iiiiiiihih``````````oohihhakjlacpppp",
"ppph````````iiiiiihhhh````````````oihacaagacpppp",
"ppp`````````oiihihhhgh``````````````oiiihhagpppp",
"ppp``````````iihhhgggg`````````````````oihggpppp",
"ppp``````````ohhggacag`````````````````ooihhpppp",
"ppp```````````hgaacaai``````````````````oiihpppp",
"ppp````````````gaacag``````````````````oooigpppp",
"ppp````````````ohgaai`````````````````ooihggpppp",
"ppp``````````````o`h```````````````````hhhggpppp",
"ppp``````````````o`````````````````````ihaggpppp",
"ppp````````````````````````````````````iggagpppp"
};
