#define noname_width 48
#define noname_height 48
static char noname_bits[] = {
 0x40,0x55,0xa9,0x54,0x4a,0x02,0x80,0xaa,0xaa,0x92,0x22,0x01,0x40,0x55,0x55,
 0x55,0xaa,0x00,0x40,0xd5,0xb6,0xaa,0x12,0x01,0x80,0x6a,0x5b,0xad,0xa4,0x02,
 0x40,0xf5,0x6d,0xbb,0xaa,0x00,0x80,0x6d,0xeb,0x7d,0x25,0x01,0xc0,0xfa,0x76,
 0xdf,0x55,0x01,0x80,0x6e,0xdb,0x7f,0x4b,0x02,0x40,0xff,0xff,0xfe,0x35,0x01,
 0xc0,0xb5,0xba,0xff,0xaf,0x02,0x80,0xfe,0xef,0xff,0x5a,0x01,0xc0,0xfb,0xda,
 0xff,0xaf,0x00,0xc0,0xbe,0xf7,0xff,0xbf,0x02,0xc0,0xff,0xda,0xfe,0x7b,0x01,
 0x40,0xbd,0xed,0xdf,0x7f,0x01,0xc0,0xf7,0xda,0x7a,0xef,0x02,0xc0,0xbe,0x64,
 0xd7,0x7f,0x01,0xc0,0xfb,0x48,0xb4,0x7b,0x01,0xc0,0x7e,0x51,0xc9,0xfe,0x02,
 0x40,0x5b,0xa0,0x92,0x5d,0x01,0xc0,0xbf,0xaa,0x6b,0xff,0x02,0xc0,0x36,0xf4,
 0xd2,0x3f,0x01,0xc0,0xaf,0x68,0xe3,0xfd,0x02,0xc0,0x5f,0xa8,0xf0,0x9f,0x02,
 0xc0,0x55,0xa0,0xe2,0x6f,0x01,0xc0,0x96,0x80,0x50,0x5d,0x01,0xc0,0x2b,0x21,
 0xe4,0xae,0x02,0xc0,0x55,0xc4,0x50,0xad,0x02,0xc0,0xaf,0x6a,0xcb,0x56,0x01,
 0xc0,0x53,0xb5,0xf6,0xdb,0x02,0xc0,0x93,0x3c,0xfd,0xab,0x02,0xc0,0x25,0x75,
 0xfb,0x56,0x01,0x80,0xd5,0xca,0xfc,0xdb,0x02,0xc0,0x2a,0xd5,0xdb,0xb4,0x02,
 0x80,0x44,0x55,0x7e,0xaf,0x02,0x40,0xa9,0x4a,0xff,0x6a,0x01,0x00,0xa4,0x52,
 0x5b,0xb5,0x02,0x00,0x48,0x4b,0x7d,0xab,0x01,0x00,0xa0,0x36,0xad,0xdd,0x02,
 0x00,0xa8,0xdf,0x5f,0x55,0x01,0x00,0xa0,0xfa,0xd6,0xad,0x02,0x00,0x40,0xff,
 0xb5,0xda,0x02,0x00,0xa0,0xda,0xae,0xad,0x02,0x00,0x80,0xef,0x5a,0x6b,0x01,
 0x00,0x00,0xf5,0xea,0xaa,0x02,0x00,0x80,0xfd,0x5a,0x5b,0x01,0x00,0x34,0x7f,
 0xe7,0xee,0x03};
