/* XPM */
static char *noname_xpm[] = {
/* width height ncolors chars_per_pixel */
"48 48 17 1",
/* colors */
"` c black",
"a c grey33",
"b c grey47",
"c c grey40",
"d c grey87",
"e c grey80",
"f c grey73",
"g c grey27",
"h c grey20",
"i c grey13",
"j c grey67",
"k c grey60",
"l c grey53",
"m c white",
"n c grey93",
"o c grey7",
"p s None c None",
/* pixels */
"ppppppeeffefeeeeeeefffeddnnnnnnnnnmmmmmmmmpppppp",
"ppppppefefefeeeeeklchgcgbjeddnnnnmnmmmmmmmpppppp",
"ppppppfefeffefefbaahiighbklkkdnnnnmnmmmmmmpppppp",
"ppppppfefefefefcgiiiioiigcbcabdnnnmnnnmmmmpppppp",
"ppppppeefefffflgooihioiooihcagldnnnmmmmmmmpppppp",
"ppppppfeeefeffgoooioooooiiigaagldnmnmmmmmmpppppp",
"ppppppeeefefflo``o`ooiiiiiiiohghbnnmmnmmmmpppppp",
"ppppppefeeefjh```oohhghiihiooooihjnnnmnmnmpppppp",
"ppppppeeefejb```ohabkjbgcblbchooiadnmnmnnnpppppp",
"ppppppeeeffki```hbjjeeejfeffkbh``iknnnnnnmpppppp",
"ppppppeeeffb```ocljfeeedeeeejlbioocennnnnnpppppp",
"ppppppeefeja``oablkjededeeeejllch`oldnnnmnpppppp",
"ppppppeeefjh``gcbbkfeeeeeeefkllcao`gddndnnpppppp",
"ppppppefefji`ogcbbkjeeedeeejkbbcgo`gdndndnpppppp",
"ppppppfefeji``gabbkfeedeeeefklccho`gddddndpppppp",
"ppppppeeffji`ogaclkfeeededdejlbch``adndndnpppppp",
"ppppppfefejh``hablkfeeeeefffklbcg`oaddndddpppppp",
"ppppppeeffjh``hacbbblkjfkbaaaabcg`ogddndnnpppppp",
"ppppppefefjh``haghiiiglflgioihacg`obdnnnnnpppppp",
"ppppppeeffjo``gggiioohkdjghohhabaohkdnnnnnpppppp",
"ppppppefeefg``gaghhggakejcccbbllbigknnnnnnpppppp",
"ppppppeeeffbi`ablbbcackejlllkjfkbiajndnnnnpppppp",
"ppppppeffeflhialjjkklllejkjffefjbhcfdnndndpppppp",
"ppppppfefffjgigljeefkllefljeeefjcgcddndnddpppppp",
"ppppppeffffjahhbkeefkllefklbjeflagbdddndddpppppp",
"ppppppeffffjcgialjfkbbbllcccallchalddddnddpppppp",
"ppppppfefffjbcihclbacghhhhgbagahibjdddddddpppppp",
"ppppppeffffjkbiigagachhiihhhghhiockfedddddpppppp",
"ppppppffffjjlgo`ihhhhhiiiiiiioo``gbjkeedeepppppp",
"ppppppffjfkcgo``oiioioiiiiiioo```oakjjeedepppppp",
"ppppppffjkcgoo```o`ohhgcbbccho``ooockjeeeepppppp",
"ppppppffjkco`````oohaacaaaccgi`````hckfffepppppp",
"ppppppjjjlh````o``ohaggiihaaho`ih``ihkffffpppppp",
"ppppppjjjgo``ohg```igahiihggi``glo``ilfeffpppppp",
"ppppppjjkgiihahgi``ohggiihgio`oajbhoijffefpppppp",
"ppppppjjkcgacahaho``iihiiiio``ickkfklffeffpppppp",
"ppppppkbcaabchhahh```oioioi``ihckljkljefffpppppp",
"ppppppbcagaccagaaii````o`o``oihbblkjccbkefpppppp",
"ppppppcgggacccgcciiio``````iioccckllcbbcbkpppppp",
"ppppppagghhgcaaaaaoiooo`ooioogcacbbaaacblkpppppp",
"ppppppacagghacaggch`iooiooo`hcacccccghagacpppppp",
"ppppppaagaaggcaaggci`o`ooo`icaaaacaaagghabpppppp",
"ppppppbaaggaaaaagghoi`o``oiiaacababaaaccgapppppp",
"ppppppaaabaagggaaghohho`ohgigcccagacaacccapppppp",
"ppppppbbaaaagggagaciioiohhacaaagcagaaclacapppppp",
"ppppppclbgggacghgggaacaaacagaagggabcaabaaapppppp",
"ppppppccbabggaaghhaaggggacaagacbagaclcacbcpppppp",
"ppppppaaggggghhghhihhghgghhhhgagagagaaaggapppppp"
};
