#define noname_width 48
#define noname_height 48
static char noname_bits[] = {
 0x80,0xaa,0xc6,0xa1,0xaa,0x02,0x80,0xb6,0xfb,0x43,0x55,0x01,0x40,0xd5,0xbc,
 0x03,0x55,0x03,0x80,0xf6,0xff,0xaf,0x57,0x01,0x40,0xed,0xfe,0xff,0xab,0x02,
 0x80,0xfa,0xff,0xd7,0x57,0x01,0x40,0xff,0xff,0xef,0xaf,0x02,0x40,0xfd,0xff,
 0xff,0xaf,0x02,0x80,0xfe,0xff,0xff,0x5f,0x01,0x80,0xff,0xff,0xff,0xaf,0x02,
 0x40,0xff,0xef,0xff,0x5f,0x01,0x80,0xff,0x05,0xff,0xbf,0x02,0x40,0x3f,0x80,
 0xfe,0x5f,0x01,0x80,0x5f,0x00,0xfd,0xbf,0x02,0xc0,0xbf,0x00,0xfa,0xbf,0x01,
 0x00,0x3f,0x80,0xfa,0xbf,0x02,0xc0,0x5e,0x10,0xfc,0x7f,0x01,0x40,0x3f,0x42,
 0xeb,0xbf,0x02,0x80,0x9e,0xe8,0xff,0xbf,0x01,0x80,0xfd,0xf7,0xdd,0xbf,0x02,
 0x40,0xff,0xfb,0xff,0x77,0x03,0x80,0xda,0xa7,0x56,0xbf,0x02,0xc0,0x7a,0xbb,
 0xed,0xdb,0x02,0x40,0xd7,0x52,0x90,0x5f,0x03,0x80,0x5a,0xb5,0xf2,0x5b,0x01,
 0xc0,0x37,0x6a,0xa9,0xaf,0x03,0x80,0x5a,0xd9,0xea,0x77,0x01,0x80,0xad,0xe7,
 0xf7,0xae,0x03,0x40,0xb7,0x7d,0xaf,0x57,0x01,0xc0,0xda,0xff,0xff,0xb7,0x03,
 0x40,0xf7,0xb6,0xf5,0x6f,0x03,0x80,0xad,0x5f,0x6f,0xd7,0x02,0xc0,0xfe,0xd6,
 0xfd,0x6b,0x03,0x40,0xab,0x6d,0xf7,0xaf,0x03,0xc0,0xee,0xf7,0xbd,0x65,0x01,
 0x40,0xdb,0x7e,0xff,0xa7,0x03,0xc0,0x6e,0x97,0xff,0xc9,0x02,0x40,0xdb,0xef,
 0xde,0xa2,0x03,0xc0,0x6e,0x5d,0x7f,0x94,0x02,0x40,0x77,0xf5,0x37,0x01,0x00,
 0xc0,0x0a,0xf8,0x1f,0x08,0x00,0x40,0x03,0xe0,0x4b,0x02,0x00,0x00,0x00,0xd4,
 0x05,0x08,0x00,0x00,0x00,0x50,0x00,0x00,0x00,0x00,0x00,0x48,0x01,0x02,0x00,
 0x00,0x00,0x38,0x07,0x00,0x00,0x00,0x00,0xa4,0x81,0x00,0x00,0x00,0x50,0x6d,
 0x55,0x4a,0x00};
