/* XPM */
static char *noname_xpm[] = {
/* width height ncolors chars_per_pixel */
"48 48 17 1",
/* colors */
"` c black",
"a c grey33",
"b c grey47",
"c c grey40",
"d c grey87",
"e c grey80",
"f c grey73",
"g c grey27",
"h c grey20",
"i c grey13",
"j c grey67",
"k c grey60",
"l c grey53",
"m c white",
"n c grey93",
"o c grey7",
"p s None c None",
/* pixels */
"pppmmmmmmmmmmmmmmmmmmmmmmmmmmmmmmmmmmmmmmmmmpppp",
"pppmmmmmmmmmmmmmmmmmmmmmmmmmmmmmmmmmmmmmmmmmpppp",
"pppmmmmmmmmmmmmmmmmmnjllkfddnmmmmmmmmmmmmmmmpppp",
"pppmmmmmmmmmmmmmmmnkagalkbaggcbjdmmmmmmmmmmmpppp",
"pppmmmmmmmmmmmmmmfahggaggghhiiihicemmmmmmmmmpppp",
"pppmmmmmmmmmmmmnlggihhhgioiiiiiiiiilmmmmmmmmpppp",
"pppmmmmmmmmmmmncchhhhhhhhiiiooiihiiicnmmmmmmpppp",
"pppmmmmmmmmmmdahciooihoooooooiiiiiiiilmmmmmmpppp",
"pppmmmmmmmmmnaiogo```oooioooooooooiiiijmmmmmpppp",
"pppmmmmmmmmmbh`iioo```ooo`o``ooiiiooiihdmmmmpppp",
"pppmmmmmmmmegi`o`````o`ooo``ooooooooooicmmmmpppp",
"pppmmmmmmmmbho`i`````ooo`o```ooooo````ihfmmmpppp",
"pppmmmmmmmdhiooggo``oo`````oo`oooo````oicmmmpppp",
"pppmmmmmmmfooogbccgioo`o`````oooo`````oihdmmpppp",
"pppmmmmmmmb`oocljjkkchhioo``o`oooo`````ohemmpppp",
"pppmmmmmmmc``obkjedndeffkkllccccho`````oifmmpppp",
"pppmmmmmmng``hlkfednmnnnnnnmmmnndfc````oiemmpppp",
"pppmmmmmmnh``hlkffnnmmndnmmmmmmmnefh```ogdmmpppp",
"pppmmmmmmmg``gljjfedddddnnnnmnmndefg````lmmmpppp",
"pppmmmmmmna``glllllkffeddeefjffeeffh```iemmmpppp",
"pppmmmmmmmf``gcaaaggabjfjlbghgcbljjh``ilnmmmpppp",
"pppmmmmmmmnh`gaabgihgaffkahhhablblko`cbdmmmmpppp",
"pppmmmmmmmmlihaahhoihcfdlahhhihclbcahldmmmmmpppp",
"pppmmmmmmmmncklccccaaakkabalbcllbljlccnmmmmmpppp",
"pppmmmmmmmmmjejccbbbcgddgccccbkkjjkkjknmmmmmpppp",
"pppmmmmmmmmmdjflkkkkllnnlljjkjfdejklfemmmmmmpppp",
"pppmmmmmmmmmmkjjjkklbjnddljkjenmefklfemmmmmmpppp",
"pppmmmmmmmmmmllkllcakfnmddcbblfefkklfmmmmmmmpppp",
"pppmmmmmmmmmmjcbahiabjedfjbhgclkkllfmmmmmmmmpppp",
"pppmmmmmmmmmmjaghiaccccbaabbgihcbbldmmmmmmmmpppp",
"pppmmmmmmmmmmdagohgagghihabbbghacbbnmmmmmmmmpppp",
"pppmmmmmmmmmmmcghggighghhhhhiihacblmmmmmmmmmpppp",
"pppmmmmmmmmmmmegagcccacacgaabagcacjmmmmmmmmmpppp",
"pppmmmmmmmmmmmmlggccbkllbkkkbcagccjmmmmmmmmmpppp",
"pppmmmmmmmmmmmmdggccccbbbbbbccaacbkmmmmmmmmmpppp",
"pppmmmmmmmmmmmmlggcccaggaacbbbcccblmmmmmmnmnpppp",
"pppmmmmmmmmmmmdghgcbblllbblllcaaccfmmmmmmmnnpppp",
"pppmmmmmmmmmmmjhiagcbllllkkkbcgacgdmmmmmmmmmpppp",
"pppmmmmmmmmmmmkoiaggacbcbbbcghacgbnmmmmmmmmmpppp",
"pppmmmmmmmmmmnbohaaghghggggggaagiemmmmmmnmmmpppp",
"pppmmmmmmmmmmdboiaaaghiooihhgagicmmmmmmmnmmmpppp",
"pppmmmmmmmmmmdcooaaaahhiihhhhgiofmmmmmmmmmmmpppp",
"pppmmmmmmmmmmebioaaaaaghghgghhoanmmmmmmmmmmmpppp",
"pppmmmmmmmmmnfli`gacaaghiggghiijmmmmmmmmmmmmpppp",
"pppmmmmmmmmmmjlg`iaacaaggaaahiadmmmmmmmmmmmmpppp",
"pppmmmmmmmmmmejboogacaagaaaghijkemmmmmmmmmmmpppp",
"pppmmmmmmmmmmdekgoggcaaagagghhfhilnmmmmmmmmmpppp",
"pppeeeeeeeeeeeflcoigggghhhhhicbooigjeedeedeepppp"
};
