#define noname_width 48
#define noname_height 48
static char noname_bits[] = {
 0x00,0x40,0x21,0x00,0x84,0x00,0x00,0xaa,0x08,0x55,0x21,0x01,0x00,0x49,0x25,
 0x00,0x4a,0x00,0x00,0x52,0xb2,0x40,0x21,0x01,0x00,0xa4,0xfc,0x13,0x8a,0x00,
 0x00,0x95,0xfe,0xe5,0x22,0x01,0x00,0x54,0xff,0x9f,0x4b,0x00,0x00,0xa2,0xff,
 0xff,0x27,0x01,0x80,0xd4,0xff,0xff,0x47,0x02,0x00,0xd2,0xdf,0xff,0xaf,0x00,
 0x00,0xe9,0xb7,0xfe,0x17,0x01,0x00,0xea,0x17,0x30,0xae,0x00,0x80,0xf0,0xaf,
 0x80,0x9c,0x02,0x00,0xea,0x2f,0x00,0x5e,0x00,0x80,0xf4,0x17,0x80,0x5c,0x01,
 0x00,0xf2,0x57,0x20,0x3e,0x01,0x80,0xf4,0x17,0x80,0x4a,0x02,0x00,0xb5,0xf5,
 0x27,0x5e,0x01,0x00,0xea,0xd5,0xaf,0x2f,0x01,0x80,0x94,0xe2,0xf7,0xaf,0x00,
 0x00,0xd5,0x85,0xe8,0x53,0x01,0x40,0xaa,0x02,0xc2,0x27,0x01,0x00,0xc9,0x15,
 0xb4,0x56,0x02,0x80,0xaa,0x07,0x44,0x55,0x01,0x00,0xd5,0x92,0xaa,0xaa,0x02,
 0x80,0xf4,0x4b,0x66,0x53,0x01,0x00,0xf5,0x56,0xbd,0x55,0x02,0x40,0xd9,0x6d,
 0xfd,0x55,0x01,0x80,0xf4,0xd7,0xbb,0xaa,0x02,0x80,0x5e,0x2f,0xfd,0x55,0x01,
 0x00,0xb7,0xdf,0x77,0x55,0x01,0x40,0xbe,0x37,0xfd,0xaa,0x02,0x80,0x57,0x5f,
 0x5a,0xb5,0x02,0x80,0xbe,0xfe,0xb5,0x5a,0x01,0x40,0x5f,0xfd,0xdf,0xd6,0x02,
 0x80,0xbf,0xfe,0x6b,0x55,0x01,0x40,0x7f,0xfd,0xd5,0xb6,0x02,0x80,0x7d,0xfd,
 0x6d,0x5b,0x01,0x80,0xff,0xfb,0x5a,0xd5,0x02,0x40,0xff,0xfe,0xab,0xad,0x02,
 0x40,0xfb,0xff,0x7d,0x5b,0x01,0x40,0xff,0xff,0xa5,0xea,0x02,0xc0,0xff,0xff,
 0xdb,0xad,0x02,0xc0,0xfe,0xff,0xb7,0xb6,0x02,0xc0,0xff,0x7f,0xef,0x6a,0x01,
 0x80,0xfb,0xff,0xbf,0x5d,0x03,0xc0,0xff,0xff,0x6f,0x6b,0x01,0xc0,0xff,0xff,
 0xff,0xde,0x03};
