/* XPM */
static char *noname_xpm[] = {
/* width height ncolors chars_per_pixel */
"48 48 17 1",
/* colors */
"` c black",
"a c grey33",
"b c grey47",
"c c grey40",
"d c grey87",
"e c grey80",
"f c grey73",
"g c grey27",
"h c grey20",
"i c grey13",
"j c grey67",
"k c grey60",
"l c grey53",
"m c white",
"n c grey93",
"o c grey7",
"p s None c None",
/* pixels */
"ppppppgggghggghgggggaaggggggggggggggggggggpppppp",
"ppppppgghgghghgghggccbccagghggggghgggggghgpppppp",
"ppppppgggghggghgacghgaaaccggggggggggggggggpppppp",
"ppppppgghgghggcbcgoohaaghhhgggggghgggggghgpppppp",
"ppppppgggggggcbai```oigiihiihgggggggggggggpppppp",
"ppppppgghgaaagho``````o````ighggggggggggggpppppp",
"ppppppggghhioo```o`oioo`````ihihagggggggggpppppp",
"ppppppggi``````oihhiiiiiiioiggi`hgaagaggggpppppp",
"ppppppgg``````ohccaccaaaabcbbch`oohagggaggpppppp",
"ppppppgi``````hbkkjjffjeeddefkao```gaaggggpppppp",
"ppppppgo`````ibkjjeenmmmmmmndflao``igaagggpppppp",
"pppppph``````akjffedmmmmmmmmdekbg``oaagaagpppppp",
"pppppph`````iljjffddnmmmmmmmnejlco``aaagggpppppp",
"ppppppo`````gjfjffednmmmmmmmnekklh``gaaaagpppppp",
"ppppppo````ogkfffeeennmmmmmmdejkla``ggaggapppppp",
"pppppp``````gljffeeedmmmmmmmnejklg`oaaaaagpppppp",
"ppppppo````ohclffeeennmmmmmmneejlg`haaagagpppppp",
"ppppppo`````ialjjeeddddnnmnneefklg`aaaaaaapppppp",
"ppppppi`````icblkjkbcabjddeflaggggiaaaaaagpppppp",
"ppppppgo```ogbbblcgggggajdfchihhhaiaaaaaaapppppp",
"ppppppcaco`oabbbcahiohhgbdego`hogahcaaaaagpppppp",
"ppppppbbcgoiabllbghgiccbcddbaaaabbgacaaaaapppppp",
"pppppplkbahiabkjjlbbbbbbledlbllbllgaaaaaaapppppp",
"ppppppkkbhhigbkfffjffffkkfdjkedejlhaaaaaaapppppp",
"pppppplkcgcohaljffdmnndjkjdelfddfbiaaaaaaapppppp",
"ppppppblcbaoigclkfnnnnfkkkddkljfjbicaaaaaapppppp",
"ppppppcklcaohaabljfefklkkkffbccllciaaaaaaapppppp",
"ppppppgbllaogaacclklblcahhccigagcahaaaaaaapppppp",
"ppppppagcbaigaaccccagcagghiioooiaghaaaaaagpppppp",
"ppppppgagiiihaacacaihiiiii`io``oghgaaaaaaapppppp",
"ppppppacaiooihhaagh`o`ooiioooo``iihaaaaaagpppppp",
"ppppppabbcioooiiooi`iihhaaccgai```haaaaaaapppppp",
"ppppppjkkkcio`oo``o`acccacagaco```haaaaagapppppp",
"ppppppjffflgo```````ablcgiihcco``ogaaaaaagpppppp",
"ppppppeefffbi```````hcllcghgag```gaaaagagapppppp",
"ppppppnmnfeflh``````ohgccgghho``hgaagaaaagpppppp",
"ppppppenmneeeja```````iihhhio``hgaaaagagagpppppp",
"ppppppnfnmnddeeco``````o`o````iggagagaagagpppppp",
"ppppppmmdmmmndddbo``````````ocagagaaagagagpppppp",
"ppppppnmemmmmmmndlo````````iclkcgagggaagagpppppp",
"ppppppmmefmmmnnnndbh``````ooclkjcaaaagaaggpppppp",
"ppppppmdmfnmmmmmndech``ooo``ilkllbgggagaggpppppp",
"ppppppnnnmdmmnnmmnnfaaihh``ooalllbcaaggaggpppppp",
"ppppppmmmmmnmmmnmnjglaooi```ohbbbbcggaagagpppppp",
"ppppppmmnnmnmnnnnloohllao`o`oogbbbcagagaggpppppp",
"ppppppmmmnnndnmnjhooohgch````iiblbcgagaaagpppppp",
"ppppppmmmmdnnddelchiihgac``oiialllcaaaagagpppppp",
"ppppppeffffjjjjbcchiihhhgh`ooohcccghhhhhhhpppppp"
};
