#define noname_width 48
#define noname_height 48
static char noname_bits[] = {
 0x00,0x00,0x00,0x00,0x00,0x00,0x00,0x00,0x00,0x00,0x00,0x00,0x00,0x00,0x00,
 0x00,0x00,0x00,0x00,0x00,0x00,0x20,0x00,0x00,0x00,0x00,0x34,0x8f,0x00,0x00,
 0x00,0x00,0xda,0x55,0x01,0x00,0x00,0x00,0x6d,0x7b,0x03,0x00,0x00,0x80,0xfb,
 0xde,0x05,0x00,0x00,0x80,0xaf,0x6b,0x07,0x00,0x00,0xa0,0xba,0xfa,0x0d,0x00,
 0x00,0xf0,0x07,0x90,0x0b,0x00,0x00,0xa0,0x01,0x40,0x1e,0x00,0x00,0xf0,0x02,
 0x00,0x16,0x00,0x00,0xb0,0x01,0x00,0x3c,0x00,0x00,0xf0,0x00,0x00,0x36,0x00,
 0x00,0xf0,0x02,0x00,0x3c,0x00,0x00,0xd8,0x00,0x00,0x3d,0x00,0x00,0xf0,0x02,
 0x00,0x3a,0x00,0x00,0x78,0x29,0xa8,0x34,0x00,0x00,0xf8,0x5e,0x7a,0x39,0x00,
 0x00,0x30,0xb5,0x54,0x19,0x00,0x00,0xb0,0x5a,0xe8,0x10,0x00,0x00,0x50,0x2a,
 0x0a,0x19,0x00,0x00,0x30,0x40,0x20,0x10,0x00,0x00,0x50,0x00,0x00,0x0c,0x00,
 0x00,0xa0,0x40,0x04,0x10,0x00,0x00,0x30,0x30,0x08,0x08,0x00,0x00,0xe0,0xd5,
 0x37,0x0d,0x00,0x00,0x30,0x6a,0x6b,0x0a,0x00,0x00,0xe0,0xf9,0x7f,0x0d,0x00,
 0x00,0x60,0xdd,0xb6,0x0e,0x00,0x00,0xc0,0x73,0x69,0x07,0x00,0x00,0xe0,0x9a,
 0xaa,0x06,0x00,0x00,0xc0,0xdf,0xea,0x07,0x00,0x00,0x80,0x6f,0xef,0x03,0x00,
 0x00,0x80,0xbf,0xf3,0x02,0x00,0x00,0xc0,0xbf,0xfe,0x01,0x00,0x00,0x40,0xff,
 0xeb,0x03,0x00,0x00,0x60,0xff,0xff,0x06,0x00,0x00,0x60,0xfc,0xff,0x3e,0x00,
 0x00,0x78,0xfe,0x7f,0x7e,0x00,0x00,0xfe,0xf0,0x7f,0xf6,0x01,0x80,0xfb,0xe8,
 0x2f,0xfe,0x03,0xc0,0xfe,0x40,0x0b,0xfe,0x03,0xc0,0xff,0x01,0x05,0xde,0x03,
 0x40,0xf7,0x01,0x00,0xfe,0x03,0xc0,0xff,0x81,0x1f,0xff,0x03,0xc0,0xff,0xc3,
 0x7f,0xfe,0x03};
