/* XPM */
static char *noname_xpm[] = {
/* width height ncolors chars_per_pixel */
"48 48 17 1",
/* colors */
"` c black",
"a c grey33",
"b c grey47",
"c c grey40",
"d c grey87",
"e c grey80",
"f c grey73",
"g c grey27",
"h c grey20",
"i c grey13",
"j c grey67",
"k c grey60",
"l c grey53",
"m c white",
"n c grey93",
"o c grey7",
"p s None c None",
/* pixels */
"ppppppfjkkkkjjjjjjffjfjkllkkkkkjjjjkkkjffjpppppp",
"ppppppjjkkkkjjjjkjffjfjkllkjjkkjfjkkkkjffjpppppp",
"ppppppfjkkkkjjjfjjfffjjkllkjjkjffjkkkjjfffpppppp",
"ppppppfjkkkjjjffkjffffjklljjjkjjfjjkkjffffpppppp",
"ppppppjjkkkkjjfjjjfffjjkllkjjjkffjjjkjfffjpppppp",
"ppppppjjkkkjjjjfjjefjfjklljjjkjjfjjkjjjfffpppppp",
"ppppppjjkkkkjjjfjjejfjlcalkaiogbffjjjjffffpppppp",
"ppppppjjkkkjjjfjjjejbhooigbgi```hljjjfffffpppppp",
"ppppppjjkkkjjjjfjjjh`````oiio````oljjfffffpppppp",
"ppppppjkkkkkjjjjjlo````````o``````iljjfffjpppppp",
"ppppppjjkkkjjjfjbo````````````````ogbjjfffpppppp",
"ppppppjkkkkkjjjki```````````ooo``````cjjffpppppp",
"ppppppjkkkkjjjjb`````````iabllcahi````lfjjpppppp",
"ppppppjklkkkjjjh``````oaljfffjlbagi```hjfjpppppp",
"ppppppjkkkkjjjb``````ilfddddefklcah````lfjpppppp",
"ppppppjkkkkkjjh``oooajdnmnnnneflbaao```ajkpppppp",
"ppppppjkklkjjko``gbkfenmmmnnnefkcca````ijjpppppp",
"ppppppjklkkkjko``alkednmmmmmnejkbago````jkpppppp",
"ppppppjkklkjjki``gljennmmmmndefkbah`````kkpppppp",
"ppppppkklkkkjji``gbkedmmmmmnnejlcai`````klpppppp",
"ppppppjkklkjjjg``hhgbjfdndefjlbaagi````oklpppppp",
"ppppppkkkkkkjjb`ohhhiiakejchhhhhiih````hklpppppp",
"ppppppjklkkkjjkoigiioihbekagghgggigo```hkbpppppp",
"ppppppkklkkkjjjhaahcgbccelacliiigggo```aklpppppp",
"ppppppkkklkjkjkhclcbblclflbbllbacbgo```blbpppppp",
"ppppppjkllkkkjjabjkkkklkfllllklllbgioiiklbpppppp",
"ppppppkklkkkjjkbbjfffjlfflkfjjfjkcgoigaklbpppppp",
"ppppppklllkkkkjlbkfeejkeflcfefeflchigallbbpppppp",
"ppppppklllkkkjklckjeflldjcbkeefklaihgckllbpppppp",
"ppppppkklllkkjklcljefbcbagcjeejkbgiggcllbcpppppp",
"ppppppklllkkkkkkcljfjkkjkkjffjjlchigicllbcpppppp",
"ppppppklllllkkklcblkllljkklkfkkbahio`lllbcpppppp",
"ppppppkkllllkkklcclcgaaaaacblkbcaho`ollbbcpppppp",
"ppppppklllllllklcabbacllbahablcagio`allbbcpppppp",
"ppppppklblllkkllbgcbbbbbbbbllbachigihlbbccpppppp",
"pppppplllblllllllaacblklllbllcaghchiocbbbapppppp",
"ppppppllbblllllllbacblkjkklbbaghchiiihbccapppppp",
"ppppppllbbbbllllblcgablllbcaghhcghhhiicbcapppppp",
"pppppplbbbllllllblbghgacaggiihbahghhioabcapppppp",
"pppppplbbbbbbbblbbbciiiiiiiigjchhgghiiclcapppppp",
"pppppplbbbbbblbbbbbcgiiiihhlflhggghhhihbbapppppp",
"pppppplbcbbbbbbbbbbcchhhgbedfgghgghhhhhabbpppppp",
"pppppplbbbbbbbbbbcccfggbemmdagghggihhhhhclpppppp",
"pppppplbcbcbbbbbcbblebbdmmnlhggggihghghgglpppppp",
"ppppppbbbcbbbbbcbbbblcdmmnjghghhohhhhhhhgapppppp",
"ppppppbbccbcbcbcccccihmmndgghggiihhgghghhgpppppp",
"ppppppbbbcbbbbbcccba`idmnbgggghohghhhgghggpppppp",
"ppppppcaaaaaaaaggagooogelhihhioiihihihihhhpppppp"
};
