/* XPM */
static char *noname_xpm[] = {
/* width height ncolors chars_per_pixel */
"48 48 17 1",
/* colors */
"` c black",
"a c grey33",
"b c grey47",
"c c grey40",
"d c grey87",
"e c grey80",
"f c grey73",
"g c grey27",
"h c grey20",
"i c grey13",
"j c grey67",
"k c grey60",
"l c grey53",
"m c white",
"n c grey93",
"o c grey7",
"p s None c None",
/* pixels */
"pppmmmmmmmmmmmmmmmmmmmmnnnnnddddedeeeeefefffpppp",
"pppmmmmmmmmmmmmmmmmnnnnnnnddddeeeeeeeffffjjjpppp",
"pppmnmmmmmmmmnmnnnnnnndnddeeeeeeefeffffjjjjkpppp",
"pppnmnnnnnnnnmnnnndnddddeeeeeeeefeffffjjjkkkpppp",
"pppnnnmnnmnnnnnnnddddeeeeeeeeefeffffjjjkklagpppp",
"pppnnnnnnnnnnnddddddeedeeeeeeeefffjjjkjkbhhipppp",
"pppnnnndnndnddddeeeeedeeeeeeefffffjjjkjlaioopppp",
"pppdddddddddddddededeeeeeeeefefffjjjkjlbiooopppp",
"pppdddddddddedeeeeeeeeeeeeefeffffjjjklghoo``pppp",
"pppddededeeeeeeedeedeeeeeeeefffffjjkjagooo``pppp",
"pppeeeeeeedededeeeeeeeeeefffffffjjjjkghoo`o`pppp",
"pppeeeeedeeeeeeeeeeeeeeeefefffffjjjkchio`o``pppp",
"pppeeeeeeeeedeeeeeeeefeffffffjjjjjjkgoo`````pppp",
"pppfeeeeeeeeeedeeeeeeefefffjjfjjjjjki`oooo``pppp",
"pppeefeeeeeeeeeeeeefefffffjfjjjjjjkci`o`````pppp",
"pppefeeeeeeeeeeeeeeeffeffjfjjjjjjjjbo``o````pppp",
"pppeeefeeeeeeeeeeefefeffffjjjjjjjjjlo```````pppp",
"pppfeeeeeeeedeeeeeefeffffjfjjfjjjjjlioo`````pppp",
"pppeeeeeeeeeeeeeeefeefffffjjjjjjjjjbio````oopppp",
"pppeeeeeeeeeeeeeeeefefeffjfjfjjjjjjli```````pppp",
"pppeeeeeeeeeeeeeeeeefeffffjfjjjjjjjbo```````pppp",
"pppedeedeeeeeeeeeefeeffffjfjfjfjjjjao```````pppp",
"pppdeddeedeeeeeeeeeeeefffffjjjjjjjjg````````pppp",
"pppdededdeeeeedeeeeeefeeffjffjfjjjkg`o``````pppp",
"pppedddeeeeeeeeeeeeeeeefffffjjjjjjjg`````o``pppp",
"pppddededeeeeeeededeeeeefeffffjfjjjgo````o``pppp",
"pppeddedeeeeeedeedeeeeefeffffjjjjjlba```o```pppp",
"pppdeddeeeeeeeedeeedeeeeeffffjfjjjaccgo``o``pppp",
"pppddeeeeeeeeeeeedeeeefeffffjjjjjjaaagiooo`ipppp",
"pppdeddeeeeeeeeeeeeeeeeffffjjfjfjjbcbagio`ohpppp",
"pppddedeeeeeeeeeedeeeeffffjfjjjjjjlbcgggooohpppp",
"pppeddedeeeeeeeeeeeeefeffjfjfjjjjjlbaaaaioihpppp",
"pppddededeeeeeeeeeeefefffjfjjjjjjjkbccbciihgpppp",
"pppdeddddedeeeeeeeeeefefjfjjjfjjjjjbbcbchhaapppp",
"pppdddedddedeeeeeeeeeeffffjfjjjjjjjllbcbhggcpppp",
"pppdeddddeddedeeeeeeefeffjfjjjjjjjjkblbchgacpppp",
"pppdddeddddedeeeeeeeeeeffffjfjjjjjjjbbbcghccpppp",
"pppdddddddedeeeeeeeeeefeeffjjjjjjjjjcccbccabpppp",
"pppddddddeddeeeeeeedeeeeffffjfjjjjjjccccccccpppp",
"pppddddedddedeeeeeeeeeeeeeffffjjjjjjcccccccbpppp",
"pppddeddedeeeeeeeeedeeeeeefefjfjjjjkcbbcccccpppp",
"pppdeddededeeeeeeeeeeeeeeeeffffjjjjjacbcccbcpppp",
"pppddeedeeeeeeeeeeededeeefeffffjfjjkcbcbccccpppp",
"pppededeeeeeeeeeeeeeeeeeeeeeffffjfbbcbbcccccpppp",
"pppeeeeeeeeeeeeeeededeeeefeffffjebaccbccccccpppp",
"pppedeeeeeeeeeeeeeeeeeeeeeffeednmgbcbcbcccccpppp",
"pppeeeeeefeeeeeeededeeeefeeenmnmnacbcbbcccccpppp",
"pppeeeeeeeeeeeedeeeeeeeeednmmnnmmccbcbccccccpppp"
};
