/* XPM */
static char *noname_xpm[] = {
/* width height ncolors chars_per_pixel */
"48 48 11 1",
/* colors */
"` c grey47",
"a c grey40",
"b c grey87",
"c c grey80",
"d c grey73",
"e c grey67",
"f c grey60",
"g c grey53",
"h c white",
"i c grey93",
"j s None c None",
/* pixels */
"jjjjjjhhhhhhhhhicccdcccccccihhhhhhhhhhhhhjjjjjjj",
"jjjjjjhhhhhhhhibccccccccccbhhhhhhhhhhhhhhjjjjjjj",
"jjjjjjhhhhhhhhbcdcddcccccbihhhhhhhhhhhhhhjjjjjjj",
"jjjjjjhhhhhhhbccccddcccccihhhhhhhhhhhhhhhjjjjjjj",
"jjjjjjhhhhhhiccddcdcccccbhhhhhhhhhhhhhhhhjjjjjjj",
"jjjjjjhhhhhiccddddddcccbhhhhhhhhhhhhhhhhhjjjjjjj",
"jjjjjjhhhhhbcdddddddcccihhhhhhhhhhhhhhhhhjjjjjjj",
"jjjjjjhhhhicddddddddccihhhhhhhhhhhhhhhhhhjjjjjjj",
"jjjjjjhhhicdddddddddcbhhhhhhhhhhhhhhhhhhhjjjjjjj",
"jjjjjjhhhbcddddddddcbhhhhhhhhhhhhhhhhhhhhjjjjjjj",
"jjjjjjhhbcdddddddddcihhhhhhhhhhhhhhhhhhhhjjjjjjj",
"jjjjjjhicdddddddddciiibbbibbhhhhhhhhhhhhhjjjjjjj",
"jjjjjjhcdddddddddcbiceffeeefdbhhhhhhhhhhhjjjjjjj",
"jjjjjjbddddddddddbbegg`a`eddedbhhhhhhhhhhjjjjjjj",
"jjjjjjcdddddddddcbdfggg``gdcceebhhhhhhhhhjjjjjjj",
"jjjjjjdddddddddcbbdfffgffedcddeeihhhhhhhhjjjjjjj",
"jjjjjjddddddddcbibecccefddeeeeeedhhhhhhhhjjjjjjj",
"jjjjjjddddddddbiiedcbbcdeeeeffffeihhhhhhhjjjjjjj",
"jjjjjjdddddddcicbeccbbbbceeefgggfchhhhhhhjjjjjjj",
"jjjjjjddddddcibddcccbiiiidefg``ggdhhhhhhhjjjjjjj",
"jjjjjjddddddbhieeccbiiiiicfg`````fhhhhhhhjjjjjjj",
"jjjjjjdddddbhhhcecbbiiiiicf`````gfhhhhhhhjjjjjjj",
"jjjjjjddddcihhhcccbbiiiiicfa``gggbhhhhhhhjjjjjjj",
"jjjjjjdddcihhhhdccbiiiiiiicffefgehhhhhhhhjjjjjjj",
"jjjjjjdddbhhhhiccbbcciiiiibccdffdhhhhhhhhjjjjjjj",
"jjjjjjddbhhhhhibbcddecbibcddddef`ihhhhhhhjjjjjjj",
"jjjjjjccihhhhhiibbccdbbbeddgfeeg`ihhhhhhhjjjjjjj",
"jjjjjjcihhhhhhicbbbbbcccfccddde``hhhhhhhhjjjjjjj",
"jjjjjjcihhhhhhibbbbbbccdfdbcccegghhhhhhhhjjjjjjj",
"jjjjjjbhhhhhhhhibbiiicbcfebccdegehhhhhhhhjjjjjjj",
"jjjjjjhhhhhhhhhhbbiibccddebbcdfgbhhhhhhhhjjjjjjj",
"jjjjjjhhhhhhhhhhbbiibbbcdcbbcddbhhhhhhhhhjjjjjjj",
"jjjjjjhhhhhhhhhhibibcbbbcccbddihhhhhhhhhhjjjjjjj",
"jjjjjjhhhhhhhhhhhbibcdddeeccdedhhhhhhhhhhjjjjjjj",
"jjjjjjhhhhhhhhhhhbbbbbccccccdfgbhhhhhhhhijjjjjjj",
"jjjjjjhhhhhhhhhicbbbbbbbccccdafciihhhhhbcjjjjjjj",
"jjjjjjhhhhhhhhhcebbbbbbbcccde`chhbihhhibcjjjjjjj",
"jjjjjjhhhhhhhhhcecibbbbbcddddfhhhbhhhhhhhjjjjjjj",
"jjjjjjhhhhhhhhhidbiibibbccccddhhhhihhhhhhjjjjjjj",
"jjjjjjhhhhhhhhhidbiibiibbcccdbhhhhihhhhhhjjjjjjj",
"jjjjjjhhhhhhhhhhciiiibibbcbccihhhhihhhhhhjjjjjjj",
"jjjjjjhhhhhhhhhhiiiiiiibbbbbchhhhhhhhhhhhjjjjjjj",
"jjjjjjhhhhhhhhhhhiiiiiibbbbbbhhhhhhhhhhhhjjjjjjj",
"jjjjjjhhhhhhhhhhhiiiiibbbiibihhhhhhhhhhhhjjjjjjj",
"jjjjjjhhhhhhhhhhhhiiiibbiiiihhhhhhhhhhhhhjjjjjjj",
"jjjjjjhhhhhhhhhhhhiiiiiiiiihhhhhhhhhhhhhhjjjjjjj",
"jjjjjjhhhhhhhhhhhhhbiiiiiihhhhhhhhhhhhhhhjjjjjjj",
"jjjjjjhhhhhhhhhhhhhhhhhhhhhhhhhhhhhhhhhhhjjjjjjj"
};
