/* XPM */
static char *noname_xpm[] = {
/* width height ncolors chars_per_pixel */
"48 48 17 1",
/* colors */
"` c black",
"a c grey33",
"b c grey47",
"c c grey40",
"d c grey87",
"e c grey80",
"f c grey73",
"g c grey27",
"h c grey20",
"i c grey13",
"j c grey67",
"k c grey60",
"l c grey53",
"m c white",
"n c grey93",
"o c grey7",
"p s None c None",
/* pixels */
"ppppppmmmmmmmmkhiccioooigkelldmmmmmmmmmmmmpppppp",
"ppppppmmmmmnmmboohhiooooiiagcafdmmmmmmmmmmpppppp",
"ppppppmmmmdflfbooiioooooiiigchahdmmmmmmmmmpppppp",
"ppppppmmnjahhhhooio`````oooighghgdmmmmmmmmpppppp",
"ppppppmnjciiooio`oo`oo`o```oihghohfnmmmmmmpppppp",
"ppppppmfcgiooo`o`ooooiio````oiiiooihemmmmmpppppp",
"ppppppdbaaho```o``oooihiioooohihioiibmmmmmpppppp",
"ppppppbghhhio```o```ooiiiiiioiihhioogdmmmmpppppp",
"ppppppghiiooo``````oooooooioioohhiooidmmmmpppppp",
"ppppppiio``o```````ooiooooooo`ihhooohmmmmmpppppp",
"ppppppiio`oo```oooiihioooo`ooooiiooigmmmmmpppppp",
"ppppppooo`ooo``ooiiiioo`ooo`o`oooooohnmmmmpppppp",
"pppppp``o``oooioooiooo``o`ooooo``ooiidmmmmpppppp",
"pppppp```o`ooiooooo```o`ooihhhi``ooohdmmmmpppppp",
"pppppp`ooooo`oo````o`ooohgaaaago`oooammmmmpppppp",
"pppppp```ooooooo`o`ooohgccbbccgh``oikmmmmmpppppp",
"pppppp`ooooooo`````ohgacbllbbbago`oadmmmmmpppppp",
"pppppp`oooooo`````oigbbllkllbbcgi`gjnmmmmmpppppp",
"pppppp``o`````````ogclkjjkkbbbcaiolnmmmmmmpppppp",
"pppppp````oooo```oiabkkbccaccagiiijmmmmmmmpppppp",
"pppppp``oooioooo`ogcllbbaggacghiihjmmmmmmmpppppp",
"pppppp```ooooo``ohclllbghhgcbhohilnmmmmmmmpppppp",
"pppppp`oooiio```ialllchiaaakfagggemmmmmmmmpppppp",
"pppppp``o`iihiooialkkkkbccbfelacglmmmmmmmmpppppp",
"pppppp````ighhhohcljeffklkjeejcaacmmmmmmmmpppppp",
"pppppp````ocaacghcbjfeffjjfeeflacammmmmmmmpppppp",
"pppppp`````cccccgabljfeffjljeejaaanmmmmmmmpppppp",
"pppppp`````hblbbccclkjffkcbjkklggammmmmmmmpppppp",
"pppppp`````oggcbccbllkklbcbcgghhhkmmmmmmmmpppppp",
"pppppp```o`oilacbccblbbcaljkbcaghdmmmmmmmmpppppp",
"ppppppjh`o`cjkggbcbbcccgclkkbaghammmmmmmmmpppppp",
"ppppppmncgbemnfbbbcbbbbagagaaghhkmmmmmmmmmpppppp",
"ppppppmmmdnmmmmnlcccbbbcbcbbbbghnmmmmmmmmmpppppp",
"ppppppmmmnmmmmmmdlcccbcclkcccahbmmmmmmmmmmpppppp",
"ppppppmmnnmmmmmmmebcccccblbghihfmmmmmmmmmmpppppp",
"ppppppmmmnmmmmmmmmdccaccbbbagggnmmmmmmmmmnpppppp",
"ppppppmmmmmmmmmmmmmdcaaacbbbaabmmmmmmmnmnmpppppp",
"ppppppmmmmmmmmmmmmmmeahhgaaaganmmmmmmnmnmnpppppp",
"ppppppmmmmmmmmnmmmmnnjgoijkkfnmmmmmmnmmmnnpppppp",
"ppppppmmmmmmmmmmmnmmndlhidmmmmmmmmnmmnmnmmpppppp",
"ppppppmmmmmmmmmmmndmndfahjmmmmmmmnmmnmmnmnpppppp",
"ppppppmmmmmmmmmmmmdnnddcgcmmmmnmnmnmnmnmnnpppppp",
"ppppppmmmmmmmmmmmndfdedkokmmnmmmmnnmmmmnmnpppppp",
"ppppppmmmmmmmmmmmmndffdfgnmmmmmnnmmnnmnmmnpppppp",
"ppppppmmmmmmmmmmmmmmeffjgmmmnmnmmnnmmnmnmnpppppp",
"ppppppmmmmmmmmmmmmmmmefchnmmmnmmnmnmnmnmmnpppppp",
"ppppppmmmmmmmmmmmmmmmmfgohnmmmmnmnmnmmnmnnpppppp",
"ppppppeeeeeeeeeeeeeeefbaohfefefeffefefeefepppppp"
};
