#define noname_width 48
#define noname_height 48
static char noname_bits[] = {
 0x40,0x55,0x55,0x95,0x24,0x01,0x80,0xaa,0xaa,0xa4,0x4a,0x00,0x40,0x55,0x15,
 0x0b,0x91,0x02,0x80,0xaa,0xfa,0x3d,0xaa,0x00,0x40,0x55,0xfd,0x7f,0x49,0x02,
 0x40,0x55,0xff,0xef,0x26,0x01,0x80,0xaa,0xff,0xff,0xab,0x00,0x80,0xaa,0xff,
 0xff,0x1f,0x01,0x40,0xd5,0xff,0xff,0x57,0x02,0x40,0xed,0xff,0xff,0x5f,0x01,
 0x80,0xea,0xff,0xff,0xbf,0x00,0x80,0xf5,0xff,0xff,0x6d,0x02,0x40,0xfd,0xff,
 0xd6,0xbf,0x00,0x40,0xf5,0xff,0xff,0xfe,0x02,0x80,0xfa,0xff,0xdf,0x7f,0x01,
 0x40,0xfd,0xff,0xff,0xff,0x01,0x40,0xfb,0xff,0xbd,0xff,0x00,0x40,0xfd,0x5f,
 0xef,0xff,0x02,0x80,0xfe,0xb7,0xd1,0xfa,0x02,0xc0,0xfe,0x7d,0xe7,0xfb,0x01,
 0x80,0xfe,0xd7,0x42,0xf5,0x02,0x40,0xfd,0x0b,0x15,0xf9,0x01,0x80,0xff,0x25,
 0x02,0xf0,0x00,0x80,0xfe,0x8f,0x12,0xf8,0x02,0x40,0xff,0x8b,0x42,0x7c,0x01,
 0x80,0xfe,0xb7,0x57,0xf9,0x02,0x40,0xff,0xdd,0xd6,0x7e,0x01,0x80,0xff,0xaf,
 0x25,0xfb,0x02,0x40,0xff,0xdb,0xdb,0x7c,0x01,0x80,0xfe,0xaf,0x2a,0xbe,0x02,
 0x40,0xff,0xda,0x57,0xbf,0x02,0x80,0xfe,0x6f,0x80,0x5f,0x01,0xc0,0xbe,0x5e,
 0x55,0xdf,0x02,0x80,0xda,0xf5,0xea,0x57,0x01,0x40,0xbd,0xae,0xfb,0xab,0x02,
 0x40,0xe3,0xfa,0xde,0xd5,0x02,0x40,0xa1,0xf5,0xeb,0x56,0x01,0x80,0x48,0x5a,
 0x5d,0xb5,0x02,0x00,0x02,0xe0,0xab,0xd5,0x02,0x40,0xa0,0x89,0xd4,0xac,0x02,
 0x00,0x04,0x81,0x2e,0x5a,0x01,0x00,0x20,0x00,0xe9,0x64,0x03,0x00,0x00,0x12,
 0xeb,0xa2,0x02,0x00,0x84,0x04,0x94,0x81,0x02,0x00,0x40,0x08,0xa8,0x89,0x02,
 0x00,0x01,0x08,0x94,0x13,0x02,0x00,0x40,0x11,0x50,0x03,0x02,0x40,0xa8,0x78,
 0x55,0xb7,0x02};
