/* XPM */
static char *noname_xpm[] = {
/* width height ncolors chars_per_pixel */
"48 48 17 1",
/* colors */
"` c black",
"a c grey33",
"b c grey47",
"c c grey40",
"d c grey87",
"e c grey80",
"f c grey73",
"g c grey27",
"h c grey20",
"i c grey13",
"j c grey67",
"k c grey60",
"l c grey53",
"m c white",
"n c grey93",
"o c grey7",
"p s None c None",
/* pixels */
"ppppppmmmmmmmmmmmmmmmnnnmmmmmmmmmmmmmmmmmmpppppp",
"ppppppmmmmmmmmmmmdfndlccknnneemmmmmmmmmmmmpppppp",
"ppppppmmmmmmmmmmjbbjbhghgbcelaknmmmmmmmmmmpppppp",
"ppppppmmmmmmmmnebbkkbhiiigccaggcdmmmmmmmmmpppppp",
"ppppppmmmmmmmnlccccggioiigagghggcdmmmmmmmmpppppp",
"ppppppmmmmmmdcghhhhiihihhghhhhggabdmmmmmmmpppppp",
"ppppppmmmmmmbhhighiiiiioiihhgaagcclnmmmmmmpppppp",
"ppppppmmmmmfghhhhhhiiiooioohgcbcacbjnmmmmmpppppp",
"ppppppmmmmegihhghhiihhoooiohacblcccbemmmmmpppppp",
"ppppppmmmnaiihhhhiihahioogihaccbcacljnmmmmpppppp",
"ppppppmmmehoiiihhihachhhohahaaccbccbjdmmmmpppppp",
"ppppppmmmjooioiiihacahgaihcaghcckbbclenmmmpppppp",
"ppppppmmmki`oiiiigagghaaaaaggigcbkllkjemmmpppppp",
"ppppppmmmco`ioiiihighhggbccghiiaabkjfejemmpppppp",
"ppppppmmdi`oooihiihihhhhccbghhohhgclffjjempppppp",
"ppppppmmboo`oiiioioihhhiggcchhiioohckklllepppppp",
"ppppppmdiooooiioooiiihghhhhgghhi`oiihaccclpppppp",
"ppppppmfahiiiooooioiihiihhhhghi`ooohhhabbcpppppp",
"ppppppmdaghio`o`ooiiiiooigbbjco``````ihabbpppppp",
"ppppppmmbgho``iooogaghioihlfefh```````oigbpppppp",
"ppppppnmmbho`oio`ocfbhigoiafndki```````oiapppppp",
"ppppppdmmfho`ohhihlnflcagkdmmdebo```````igpppppp",
"ppppppdnnki``hbggcfmndfkfdmmndekho``````ihpppppp",
"ppppppnnkhoo`hlkkbemmmdnmnmmdeejaho````oogpppppp",
"ppppppnebho``hbklldmnneednmmdeeelci````oihpppppp",
"ppppppmdgo```ibbcldnddbbjeddeeeflgo```ooihpppppp",
"ppppppmdgo```ocahablclccclfefeeeco````oihipppppp",
"ppppppmfgo````ghhchgckjlaaljjfeebi````oiihpppppp",
"ppppppmego````hhgccabfejagbkjfffbi`````iacpppppp",
"ppppppmfgoo```ighhgggacahablkjjjco`````gchpppppp",
"ppppppmegio````gaghallbljlcbkkkkg`````ohiopppppp",
"ppppppmdahoo```igaabllkkjkbblllcio````oio`pppppp",
"ppppppmdlao`o``ogggblcclklbbcbghhhio```oo`pppppp",
"ppppppmnfbg`````oagiihckjlcaaiihiihaio`oo`pppppp",
"ppppppmmfdao`````hcbkkjjkbahooiioooaio`o``pppppp",
"ppppppmmenkio`````gccbkbcgi``ooh```ho`````pppppp",
"ppppppmmmekhoo````oooihho````iooiooo``````pppppp",
"ppppppmmedbhii```````````````ii```o```````pppppp",
"ppppppmdleciiio``````````````oooo`````````pppppp",
"ppppppmnclaiii````````````````````````````pppppp",
"ppppppmmkghio`````````````````````````````pppppp",
"ppppppmmmjioo`oo`````````o````````````````pppppp",
"ppppppmmncioooo```````````````````````````pppppp",
"ppppppmmkioo``````````````````````````````pppppp",
"ppppppmmgfkgaii```````````````````````````pppppp",
"ppppppmmbkdccai```````````````````````````pppppp",
"ppppppmmnfffgigio`````````````````````````pppppp",
"ppppppeeeedfggcao`````````````````````````pppppp"
};
