/* XPM */
static char * win31_config_xpm[] = {
/* width height num_colors chars_per_pixel */
"32 32 8 1",
/* colors */
" 	s None	c None",
".	c black",
"X	c #c0c0c0",
"o	c SlateGray",
"O	c white",
"+	c magenta",
"@	c yellow",
"#	c cyan",
/* pixels */
"   ......                       ",
"  .XXXXoo.                      ",
" .OOOOOOXo.................     ",
".OOOO.OOOo.XXXXXXXXXXXXXXOo.    ",
".OOOO.OOO.OOOOOOOOOOOOOOOoo.    ",
".OOOO.OO.XXXXXXXXXXXXXXXXoo.    ",
".O.....O.XXooooooooooooXXoo.    ",
".OOOO.OO.Xo............OXoo.    ",
".OOOOOOO.Xo.+++++++.++.OXoo.    ",
" .OOOOOO.Xo.++++++..++.OXoo.    ",
"  .OOOOo.Xo.@@@@@.@.@@.OXoo.    ",
"   ......Xo.@@@@....@@.OXoo.    ",
"        .Xo.@@@.@@@.@@.OXoo.    ",
"        .Xo.#...##...#.OXoo.    ",
"        .Xo.##########.OXoo.    ",
"        .Xo............OXoo.    ",
"       ..XXOOOOOOOOOOOOXXoo.... ",
"      .X.XXXXXXXXXXXXXXXXo.ooXo.",
"     .XXo.................ooXoo.",
"    .XXXXXXXXXXXXXXXXXXXXXXXooo.",
"   .OOOOOOOOOOOOOOOOOOOOOOOoooo.",
"   .OXXXXXXXXXXXXXXXXXXXXXXoooo.",
"   .o.Xo.Xo.Xo.Xo.Xo.Xo.XXXoooo.",
"   .Oo.Oo.Oo.Oo.Oo.Oo.Oo....... ",
"  .Oo.Oo.Oo.Oo.Oo.Oo.Oo.OOO.OO..",
" .Oo.oo.oo.oo.oo.oo.oo........o.",
".OOOOOOOOOOOOOOOOOOOO.OOOOOOO.o.",
".XXXXXXXXXXXXXXXXXXX.OOOOOOO.oo.",
".....................XOOOOoooo. ",
"                    .oooooooo.  ",
"                    .XXXXXo..   ",
"                     ......     "};
