/* XPM */
static char * win31_3dbar_xpm[] = {
/* width height num_colors chars_per_pixel */
"30 32 11 1",
/* colors */
" 	s None	c None",
".	c black",
"X	c SlateGray",
"o	c yellow",
"O	c white",
"+	c yellow4",
"@	c #c0c0c0",
"#	c cyan",
"$	c #008080",
"%	c magenta4",
"&	c magenta",
/* pixels */
"          ...X                ",
"        .XoOoX..              ",
"       .OoOoOoO.              ",
"       ..XoOoX..              ",
"       .oo...++..             ",
"       .ooo.+++.@..           ",
"      ..ooo.+++.@@@..         ",
"    ..@.ooo.+++.@@@OO..       ",
"  ..@@@.ooo.++...@@OOOO..     ",
"..@@@@@.+oo..X#O#X.@@OOOO..   ",
".@@@@@@.+oo.O#O#O#O.@@@OOOO.. ",
".@@@@@@.++o..X#O#X..@@@OOOOOO.",
".@@@@@@.++o.##...$$.@@@OOOOOO.",
".@@@@@@.+++.###.$$$.@@@OOOOOO.",
".@@@@@@.+++.###.$$$.@@@OOOOOO.",
".@@@@@@.+++.$##.$$...@@@@OOOO.",
".@@@@@@.+++.$##..%&&&%.@@@@OO.",
".@@@@@@.+++.$$#.&&&&&&&.@@@OO.",
".@@@@@@.+++.$$#..%&&&%..@@@OO.",
".@@@@@@.+++.$$$.&&...%%.@@@OO.",
".@@@@@@.+++.$$$.&&&.%%%..@@OO.",
".@@@@...+++.$$$.&&&.%%%.X..OO.",
".@@..@O@..+.$$$.%&&.%%%.XXX...",
"...O@O@O@O..$$$.%&&.%%%.XXXOO.",
".@O@O@O@O@O@..$.%%&.%%%.X@O@..",
" ..O@O@O@O@O@O..%%&.%%..@O..  ",
"   ..@O@O@O@O@O@..%...O@..    ",
"     ..O@O@O@O@O@O..@O..      ",
"       ..@O@O@O@O@O@..        ",
"         ..O@O@O@O..          ",
"           ..@O@..            ",
"             ...              "};
