#define noname_width 48
#define noname_height 48
static char noname_bits[] = {
 0x00,0x00,0x00,0x00,0x00,0x00,0x00,0x00,0x00,0x02,0x00,0x00,0x00,0x00,0x00,
 0x5d,0x00,0x00,0x00,0x00,0x80,0xaa,0x00,0x00,0x00,0x00,0x80,0xda,0x00,0x00,
 0x00,0x00,0x54,0x6d,0x03,0x00,0x00,0xc0,0x43,0xb5,0x05,0x00,0x00,0xa0,0xad,
 0xea,0x0b,0x00,0x00,0xf0,0xba,0x2a,0x0f,0x00,0x00,0x50,0x5f,0x00,0x16,0x00,
 0x00,0xf0,0x2b,0x00,0x16,0x00,0x00,0xf0,0x06,0x00,0x18,0x00,0x00,0xb8,0x0b,
 0x00,0x2e,0x00,0x00,0xf8,0x02,0x00,0x18,0x00,0x00,0x58,0x05,0x00,0x1c,0x00,
 0x00,0xf8,0x00,0x50,0x18,0x00,0x00,0x78,0x2a,0x08,0x18,0x00,0x00,0xb8,0xaa,
 0x2a,0x08,0x00,0x00,0xb0,0x3a,0x58,0x02,0x00,0x00,0x60,0x55,0x01,0x00,0x00,
 0x00,0x98,0xaa,0x08,0x00,0x00,0x00,0x50,0x01,0x00,0x08,0x00,0x00,0x28,0xa4,
 0x00,0x00,0x00,0x00,0x50,0x41,0x00,0x00,0x00,0x00,0x20,0x90,0x10,0x00,0x00,
 0x00,0x90,0x55,0x25,0x00,0x00,0x00,0x40,0xa2,0x00,0x00,0x00,0x00,0xa0,0x4a,
 0x80,0x00,0x00,0x00,0x40,0x95,0x00,0x00,0x00,0x00,0x80,0x72,0x3f,0x04,0x00,
 0x00,0x80,0xaa,0x00,0x00,0x00,0x00,0x00,0x55,0x81,0x02,0x00,0x00,0x80,0xa6,
 0x06,0x04,0x00,0x00,0x00,0x5b,0x81,0x02,0x00,0x00,0x00,0x25,0x80,0x0a,0x00,
 0x00,0xe0,0x1f,0x42,0x39,0x00,0x00,0xbf,0xb5,0x52,0xb1,0x00,0xc0,0xfd,0xdf,
 0xed,0x78,0x01,0x40,0xff,0x7d,0x5f,0xfa,0x02,0xc0,0xff,0xf7,0xb7,0xb8,0x03,
 0xc0,0xbf,0xfb,0x5f,0xfe,0x03,0x80,0xff,0xaf,0x2b,0xf9,0x03,0xc0,0xff,0xfb,
 0xae,0x7e,0x03,0xc0,0xff,0xdf,0x57,0xff,0x03,0xc0,0xff,0xeb,0xaa,0xff,0x03,
 0xc0,0xef,0x7f,0xf7,0xdf,0x03,0xc0,0xff,0xcf,0xfc,0xff,0x02,0xc0,0xff,0x7f,
 0xff,0xff,0x03};
