/* XPM */
static char * face_xpm[] = {
/* width height ncolors chars_per_pixel */
"48 48 3 1",
/* colors */
" 	s None	c None",
".	c gold",
"X	c navy",
/* pixels */
"                                                ",
"                                                ",
"                                                ",
"                                                ",
"                                                ",
"       ...........        ..............        ",
"       .XXXXXXXXX.        .XXXXXXXXXXXX.        ",
"       .XXXXXXXXX..       .XXXXXXXXXXXX.        ",
"       .XXXXXXXXXX.       .XXXXXXXXXXXX.        ",
"       .XXXXXXXXXX..      .XXXXXXXXXXXX.        ",
"       .....XXXXXXX.      .....XXXX.....        ",
"           .XXXXXXX..         .XXXX.            ",
"           .XXXXXXXX.         .XXXX.            ",
"............XXXXXXXX...........XXXX.......      ",
".XXXXXXXXXXXXXXXXXXXXXXXXXXXXXXXXXXXXXXXX...    ",
".XXXXXXXXXXXXXXXXXXXXXXXXXXXXXXXXXXXXXXXXXX..   ",
".XXXXXXXXXXXXXXXXXXXXXXXXXXXXXXXXXXXXXXXXXXX..  ",
".XXXXXXXXXXXXXXXXXXXXXXXXXXXXXXXXXXXXXXXXXXXX.. ",
"....XXXX....XXXX..XXXXX........XXXX.....XXXXXX. ",
"   .XXXX.  .XXXX...XXXX..     .XXXX.   ...XXXX..",
"   .XXXX.  .XXXX. .XXXXX.     .XXXX.     .XXXXX.",
"   .XXXX.  .XXXX. ..XXXX..    .XXXX.     ..XXXX.",
"   .XXXX.  .XXXX.  .XXXXX.    .XXXX.      .XXXX.",
"   .XXXX.  .XXXX.  ..XXXX..   .XXXX.      .XXXX.",
"   .XXXX.  .XXXX.   .XXXXX.   .XXXX.      .XXXX.",
"   .XXXX.  .XXXX.   ..XXXX..  .XXXX.      .XXXX.",
"   .XXXX.  .XXXX.    .XXXXX.  .XXXX.     ..XXXX.",
"   .XXXX.  .XXXX.    ..XXXX.. .XXXX.     .XXXXX.",
"   .XXXX.  .XXXX.     .XXXXX. .XXXX.   ...XXXX..",
"....XXXX....XXXX........XXXX...XXXX.....XXXXXX. ",
".XXXXXXXXXXXXXXXXXXXXXXXXXXXXXXXXXXXXXXXXXXXX.. ",
".XXXXXXXXXXXXXXXXXXXXXXXXXXXXXXXXXXXXXXXXXXX..  ",
".XXXXXXXXXXXXXXXXXXXXXXXXXXXXXXXXXXXXXXXXXX..   ",
".XXXXXXXXXXXXXXXXXXXXXXXXXXXXXXXXXXXXXXXX...    ",
"............XXXX..........XXXXXXXXX.......      ",
"           .XXXX.         .XXXXXXXX.            ",
"           .XXXX.         .XXXXXXXX.            ",
"       .....XXXX....      ..XXXXXXX.            ",
"       .XXXXXXXXXXX.       .XXXXXXX.            ",
"       .XXXXXXXXXXX.       ..XXXXXX.            ",
"       .XXXXXXXXXXX.        .XXXXXX.            ",
"       .XXXXXXXXXXX.        ..XXXXX.            ",
"       .............         .......            ",
"                                                ",
"                                                ",
"                                                ",
"                                                ",
"                                                "};
