/* XPM */
static char *noname_xpm[] = {
/* width height ncolors chars_per_pixel */
"48 48 17 1",
/* colors */
"` c black",
"a c grey33",
"b c grey47",
"c c grey40",
"d c grey87",
"e c grey80",
"f c grey73",
"g c grey27",
"h c grey20",
"i c grey13",
"j c grey67",
"k c grey60",
"l c grey53",
"m c white",
"n c grey93",
"o c grey7",
"p s None c None",
/* pixels */
"pppnmmmmmmmmmmmmmmnmmmmmmnmmmnmmmnmnnnnnnndnpppp",
"pppnmnmnmmmmmmmmmmmmmmmmmnnmnmmnmmnnnnnnnnndpppp",
"pppnmmmmmmmmmmmmnmnmmdjbbblfnnnmnmnnnnnnnddnpppp",
"pppnmnmnmnmnmmnmmnmechhhiiiohkdnmnnnnnnndndnpppp",
"pppmnmmnmmmmmnmmnjkhhggio````ohjnnnnnnnnnddnpppp",
"pppnmmmnmnmnmnmnlghiiiio```````oknnnnnnnndndpppp",
"pppnnmnmmmnmmmnlhioo``oo````oo```bddndnndnddpppp",
"pppnmmnnmnmmndcio``o`ihhhclkkjkgo`ldddnnndnnpppp",
"pppnmnmmnmmnnaih````iiabenndddeelohfddnnnnddpppp",
"pppnnmnnmmnmbiiooooiabfnmnnndddeflgblfdnnddnpppp",
"pppnmmnmnmneihiogcckenmnnnnndndeffcooajdndndpppp",
"pppnmnnmnmnaiiohkjeddnnmnnnddddeejkgoigjddddpppp",
"pppnnmnnmnf`oo`cjeddnnmnnnddnddefjkb`iigddnnpppp",
"pppnmnnmnmb`oohbfeddnnnmnnnddneefjkloiioedddpppp",
"pppnnmnnmdio`iikfeefddmnnndddddeffkbhoioedddpppp",
"pppnmnnmnj```oijfjkccblfnnnddneefjkbhi`oedddpppp",
"pppnnnmnmao```afjlkjjlccjedddekbaggaio`hddndpppp",
"pppnmnnmnho```ljkjfjklbblfddflahihhhi``bddddpppp",
"pppnnmnmngo``ijjjjljefkblkeekahialbho``jddddpppp",
"pppnmnnnmco``gfjjlkfefklkjdeaihblcba``odnddnpppp",
"pppnnnmmnfa`obffjjcahicljedehgjfjbah``hndddnpppp",
"pppnmnnnmkchojfefelbggbkdenegbbhiggio`bnndddpppp",
"pppnnnnmnfebhjeeeefkkkjeeeedcljghohho`fndddnpppp",
"pppnmnnmneebcjfeedddeeddeeedlllbcgaaihdnndddpppp",
"pppnnnnnmfflcjfeddddnnndeeedkkkkblbbhlnddeddpppp",
"pppnnnmnmffjcjfedddnnnnefedejlfjjjkbgfndndedpppp",
"pppdnnnnmffjckfeddnnnejffjdffcjffjjbgeddneddpppp",
"pppennnnnddfakjfeeeejljlaallaikjfjkbcddnddedpppp",
"pppdnnnnmdddbkjjfffjleflcaio`ockkjlblddnneedpppp",
"pppdnnnnnnedllkkkjjlkklghhh``oglkllakeddneeepppp",
"pppednnnmnnbllkkkjlcghhiooioioibbbahfddddeeepppp",
"pppddnnnnnmbcklkjkbhiiioiiiiooigbahhdednddffpppp",
"pppednnnnnnnbllkkkiioooioooooooogaibdddddeefpppp",
"pppddndnnmnnebllklo`hcagio``````oaifedddddfepppp",
"pppednnnnnnnnblkklickkljbahii```ohgedeeddefepppp",
"pppeddndnnnndlbllkckjllbbbcah`o`ooleddeddejjpppp",
"pppeednnnnnnelcbkkjkjklbbaahihiiogeeeeeedefepppp",
"pppeddddnnnelkccllkjjfjjklbccaahohbjfeeddeffpppp",
"pppeeddnddfakkbcbblkkjjffjlbbcaooooiohgcbkjfpppp",
"pppedddkchillklbccccblkjkklcghiiiohhh``oiibfpppp",
"pppejbgiiigfjklbcccagacbbbcgiooiioigigioioocpppp",
"pppchoioiokjfjllbccaaiiiiiiooi`iiiihigcbioiipppp",
"pppooiiiiaefffkllbcagho`o`ooi``iihhhibfkiooipppp",
"pppiooioijeefejklbbcaio`ooooo`oihhhhgjfciooipppp",
"pppiioiogeeefefkllbbcagoooo```ohhghgkfjiiooopppp",
"pppooooileedfdefllbbbbcci`oo``hhhgbbffgoiiiopppp",
"pppioioijeeeeedejlbbcccchio```hgglfkfboooooopppp",
"pppooooheefefeefellccaghiio`igghceekbioiooiopppp"
};
