/* XPM */
static char *noname_xpm[] = {
/* width height ncolors chars_per_pixel */
"48 48 17 1",
/* colors */
"` c black",
"a c grey33",
"b c grey47",
"c c grey40",
"d c grey87",
"e c grey80",
"f c grey73",
"g c grey27",
"h c grey20",
"i c grey13",
"j c grey67",
"k c grey60",
"l c grey53",
"m c white",
"n c grey93",
"o c grey7",
"p s None c None",
/* pixels */
"ppppppkllblllklkkjjkkkllcbllllllkllbbblkkkpppppp",
"ppppppkllbllklkkkjkkkkklkkkkllllkklbblkkkkpppppp",
"ppppppkllblllklkkjjkkjfeeefklllkkklbbllkkkpppppp",
"ppppppkkblllklkkkkklcblllllcgalkkklbblkkkkpppppp",
"ppppppklbllllkklkbghhhhaagii`objklllllkkkkpppppp",
"ppppppkllbllklklcgiihhhhgbaioohgacblllkjkkpppppp",
"ppppppklbbllkklahhhabklcgi````o`o`hblkkkkkpppppp",
"ppppppklblllllciooooioo```````````ohblkjkkpppppp",
"ppppppklbbllkbiooo``````````````````alkkjkpppppp",
"pppppplllblllg``````````````````````ockjjkpppppp",
"ppppppklblllc````````````````````````ilkkjpppppp",
"ppppppllbbblh````````````oiho`````````ajkkpppppp",
"ppppppllbbla```````````ihgacho````````ikkkpppppp",
"ppppppllbbbi`````````ohabbklai`````````bkkpppppp",
"pppppplbbbg````````ohajfffjjbh`````````gkkpppppp",
"ppppppllbbh````````glddddndfbh`````````ikkpppppp",
"ppppppllbba``````ogjnmmmnmnelh``````````llpppppp",
"ppppppllbbc````oibenmmnmmnneli``````````clpppppp",
"pppppplbbbc```hbjedmmmmmmmnflg``````````alpppppp",
"ppppppllbbbi``hljedmmmmnnekjlao`````````alpppppp",
"ppppppllbbla``oohaledekcghhhgcg`````````cbpppppp",
"ppppppllbbllo`ooo`ikdjaiihgaccbi````````cbpppppp",
"ppppppllbblbi`hih`ibnkcacoigljkco```````ccpppppp",
"pppppplbbbllh`cgagcbellllcbledjbi```o```abpppppp",
"ppppppllbblllcblbbblekjjkjfddekbg`oigi``ccpppppp",
"pppppplbbblllllfjklkfljedddndfkcaigcai`ibcpppppp",
"pppppplbbbllllbjfjljflkennmnejlcghgbg``ibcpppppp",
"pppppplbbblllkckjjbffbbfnmndflcgghaco``hccpppppp",
"pppppplbbbblllcljklfelblfddfkbagghgo```hcapppppp",
"ppppppbbcbllllcbllakjccbjffjkcagghi````igapppppp",
"pppppplbbbblllcabbchghhkjjjklcgagio````ogapppppp",
"ppppppbbcbbbllbaahooio`ihglkbcgghio```oohgpppppp",
"pppppplbcbbbllbh````o``oooibcagghio````ohapppppp",
"ppppppbbcbbbbbbggiiigioihigcagghiio``oihaapppppp",
"ppppppbbcbbbbblagagcccccbbccaghhiio`iggaaapppppp",
"ppppppbbccbbbbbbiggggacbbcagggiiiii`gcccagpppppp",
"ppppppbccbcbbbblghacacclcagghhoihhi`cbccagpppppp",
"ppppppbbcccbbbblcigcbllbaghhioighgiijbccagpppppp",
"ppppppbccccbcbbbbhgacabaghiooighahhjjlcaagpppppp",
"ppppppbcccbccbbbbcigagahioo`iggcghjefkccagpppppp",
"ppppppccccccbcbbccahhiii`oohggccafdejkllggpppppp",
"ppppppbcaccccccbccaaiioooihgabbcedeejfjjkgpppppp",
"ppppppcccaccccbbcclkhhhgggaccbledddefeeemnpppppp",
"ppppppccacccccccclffghgaacbbbldddeeedddndmpppppp",
"ppppppccaccccccbledjgggacbbckdddeednnnnmdmpppppp",
"ppppppccaaccccckeddlggaacccjdddeednnnmmmmnpppppp",
"ppppppccacaccckdnnebgaggcbfdddeednmnmmmmmmpppppp",
"ppppppaggggggalfeflahhhhgljfjkkjefjfeefffepppppp"
};
