/* XPM */
static char * face_xpm[] = {
/* width height ncolors chars_per_pixel */
"48 48 13 1",
/* colors */
" 	s None	c None",
".	c grey73",
"X	c grey60",
"o	c grey80",
"O	c grey93",
"+	c white",
"@	c grey53",
"#	c grey47",
"$	c grey33",
"%	c grey27",
"&	c grey20",
"*	c grey7",
"=	c black",
/* pixels */
"                     ......                     ",
"                   .....XXX..o                  ",
"               o..o.O++OX.Xo.@X.o               ",
"            O.XoXXOO+++OXOXo@@.OX@.             ",
"           oX@@O@@X+++OO@@XO@XooXX@Xo           ",
"          XXoXXO@...........XXo...@O@X          ",
"        oX.o.O.o.X.OOO+OO+OOoo..X@XoXoX         ",
"       oXXX.XooXo++oo++.O++oO+OXX.O@o+oX        ",
"      o.o@X@o.o.oOoooOoooOO...o.X....OX..       ",
"      XoO.@X@oooo.o+..XoO.X.+oXoOo.@oo@+oX      ",
"     XX@.O@.XoX.oXXXXo.XXo.X.XXo.XXX..O++..     ",
"    .XXX.XXO.Oo@X@X@X..X@..X#@@@XoO.OXO++OX     ",
"   oXo@XO.++.oXX#@.@XXX.XX.X@X$#@...+O.O+.@@    ",
"   ..OO..O++XX@@@$@..+.O@.OXX$$X$@X@O+o.o@@@o   ",
"  oXX.o.O++O.O.XXOXo@XXoXXXXo...@oO.+++..X@XX   ",
"  ..@XX.++++.Oo@X+O@$XXoXX@$@+o@Xoo.++++XXoO@o  ",
"  .oo.XO++++o.@$@+O$$@.O.o@%@+o@@@@O++++oo+.@.  ",
" .O.Xoo+++++Oo.#XOo$&&@o.@&$#o..@o..++++O...XX  ",
" XoX@XO++++OXO+@@.@%&%$o@%*&&$@@@OOXo++++.O+O.o ",
" ..oO.+++++O.@@.#%%&&%$.@%&&&&$#...oO++++....X. ",
"..XX.o+++++++OOX%&%$&&%.@%*%$%%&X++++++++oX@OOX ",
".oo..o+++++++O#$&$%$%&$.@$&%$$&%$@O++++++O@@ooX ",
"Xoo@@O+++++++@*%%&%&&&#oX%&&$&&$$%X+++++++XX@.X ",
"XoXo.O++++++X$%#$$&&%%Xo.@&&*&&%$$%X++++++XoooX ",
".XX..O+++++O$$$@%&$%%@.o.o#&&&=&$@$$o+++++....@ ",
".oo..O+++++.$%$%&&%&##.oX.@$&&%&&$$&@+++++..o.$ ",
".o.@@O+++++@%&&&%&%#@@@.@$@@$&%&&&&&$+++++@.X@# ",
"Xo+o$o++++O$%&%&%%@.@@&@$$@@.$&&%$&&$O+++OXo..X ",
".o.X@o++++O$&$$%%$@X@$$X$$X..#$&%$&=$++++OXo@@X ",
"ooOOO.++++O$$&%%$$X.X@XO..X..X#$$$&%@++++o.++oX ",
" .+++.+++++X%%$$$#.oO@O++X.+o@$$$$$$.++++.o++oo ",
" .+++oO++++.$$%$%%...Xo+oXX.X@&%$%%$@++++.+++.  ",
" .O++O.++++.@@$#$$OO.@X+.@X.OX&%$%$#@+++Oo++OX  ",
" o.+OO.O+++@$#$$%%o..X@O.@oXo.%&%&%$X+++.OO+oo  ",
"  .OoOoo+++X$$&$$#..oX.+OXoooX#@$%%%X++O.oOOX   ",
"  o.OOOoO++X$%@@@@X....+o@o..@@@@$%%.+O.OOo..   ",
"   XOO+O.O+.$#@@##@XXXo+o@@@@$$@@##$o+.o+O+X    ",
"   oX+++o.+O##@@$%@oO.o+O..O.X%$$$$@Oo.+++.o    ",
"    .o+++OoO@$#$$$oXXXo+oXX.oO@$$%%@..+++oX     ",
"     .O++Oo.@%$$XO+OooO++o.OO+OX###XX@@.OX      ",
"      Xoo@@X.X.O++++o+++++o++++++OXoO@@XXo      ",
"       XoX@o+o.O++++O++++++++++O..o++X...       ",
"        ...O++...oO+++++++++Oo.X.o.++OXo        ",
"         ..O+O@XO....ooooo.X.OO@@@@O.X          ",
"          o.oooXXO+o.X.oo.X@X++..oXX.           ",
"            .Xo.X++..Oo++Xo+.++O.XX             ",
"              ...OO....++oXXXOo..o              ",
"                o.X.XX.oooXXX.o                 "};
