/* XPM */
static char * face_xpm[] = {
/* width height ncolors chars_per_pixel */
"48 48 10 1",
/* colors */
" 	s None	c None",
".	c wheat",
"X	c tan",
"o	c tomato",
"O	c peru",
"+	c grey",
"@	c red",
"#	c gainsboro",
"$	c firebrick",
"%	c sienna",
/* pixels */
"                                                ",
"                                                ",
"                                                ",
"                  ...XXXXXXXX.                  ",
"                XXooooooooooOOX+                ",
"              XooooooooooooooOOOXX              ",
"           .Xoo@@o@oooooooooooooooOX            ",
"          .XooooooooooooooooooooooOOX           ",
"         #ooooooooooooooooooooooOOOOOX          ",
"        .ooXooooooooooooooooOoOoOooooOX         ",
"       .ooXXoooo@o@oooooOOooooooooooXXXX        ",
"       ooXXXoooooooooooooooooooooOOoXX.XX       ",
"      XoXXXoooooooooooooooooooooooooooX.XX      ",
"     .ooXXooooooooooooooooOOooooooooooX#.X.     ",
"     ooooooooooo@oooooooooooooooooooOOXX.XX     ",
"    Xoooooooo@ooooooooooooooooooooOOooooXXO.    ",
"    ooooooooooooooooooo@@oooooOooooooooooXXX    ",
"    o@oooooooooooooo@oooooooooooooooooooXXXX    ",
"   Xo@@oooooooo@oooooooooooooooooooooOOOooooX   ",
"   X@@@@oooo@@oooooooooooo@oooooooooooooooooX   ",
"   o@@@@@ooooooooooooooooooooooooooooooooooOX   ",
"  .o@@@@ooooooooooo@ooooooooooooooooooooOOooO+  ",
"  .o@@o@oooooo@@ooooooooooooo@@ooooooOoOoooo$X  ",
"  Xo@@@oooooo@ooooooooooooooooooooooooooooooOX  ",
"  Xo@@@@@o@ooooooooooo@ooooooooooooooooooooOOX  ",
"  .o@@@@@@@ooooooo@@ooooooooooooo@oooooOOOOoOX  ",
"  .o@@@oo@ooooo@ooooooooooooooooooooooOOoooo%X  ",
"   o@@@@@oo@@oooooooooooo@ooooooooooooooooooX   ",
"   X@@@o@oooooooooooo@ooooooooooooo@oooooOOOX   ",
"   X@@@@o@oooooooooooooooooooooooooooooOOOoOO   ",
"   .oooo@o@o@oooooooooooooooooooooooooooooooX   ",
"    ooooo@oo@oooooooooooooooooooooooooooooXX    ",
"    OoooooooooooooooooooooooooooooooooooX.X+    ",
"    +ooooooooooo@o@ooooooooooooooooooOoX..X     ",
"     Xooooooo@ooooooooooooooooooooOoOoXX.XX     ",
"      XXXooooo@ooooooooo@oooooooooooooX..O      ",
"      #XXXoooooooooo@ooooooooooooooooX..X+      ",
"       XXXXooooo@oooooooooooooooooooo..XX       ",
"        XOXooooo@oooooooooooooooooooXXXX        ",
"         .ooooooo@ooooo@ooooooOooooooOX         ",
"          Xooooooo@ooooooooooooooooooX          ",
"           XOooo@@o@ooooooooooooooOO.           ",
"             Xoo@@@@@@ooooooooooOOX             ",
"               Xo$$@@@@@@@oooo%OX+              ",
"                +XOOooo$o$ooOXX+                ",
"                      .X+X.                     ",
"                                                ",
"                                                "};
