/* XPM */
static char *noname_xpm[] = {
/* width height ncolors chars_per_pixel */
"48 48 17 1",
/* colors */
"` c black",
"a c grey33",
"b c grey47",
"c c grey40",
"d c grey87",
"e c grey80",
"f c grey73",
"g c grey27",
"h c grey20",
"i c grey13",
"j c grey67",
"k c grey60",
"l c grey53",
"m c white",
"n c grey93",
"o c grey7",
"p s None c None",
/* pixels */
"ppppppnneedddnnnenmnnndfjfddeednndeeednnndpppppp",
"ppppppnddeddnnnndnmmnddjjfdddednnneeednnnnpppppp",
"ppppppnneeddnnmnenmnnndfjfddeednndddddnmnnpppppp",
"ppppppndedddnnmndnmnnddjjjjkkfendddddnnnndpppppp",
"ppppppndeeddnnnndmmnndkcagahoobffeeednnmnnpppppp",
"ppppppndeedddnnndmnfbgooihhoo`oacgckdnnmnnpppppp",
"ppppppndeeddnnmndnlo``o```o`hcbgghh`gnnmndpppppp",
"ppppppndeeddnnnndl`````````ohgclh````lnnndpppppp",
"ppppppndeeddnnndko````````````oig````ifnndpppppp",
"ppppppndeeddnnnei```````````````ii````hnnnpppppp",
"ppppppndeedddnnc```````````````````````jndpppppp",
"ppppppdeeeddnneo```````````````````````andpppppp",
"ppppppdeeeddnnk````````````````````````oeepppppp",
"ppppppdeeedddnc``````oo`````````````````kfpppppp",
"ppppppdeeeddndh````obfflgo``igaaio``````bfpppppp",
"ppppppdeeeddddo```obfennekbkfjjlai``````afpppppp",
"ppppppdeeeedne````gljedmmmmmnfkbag``````afpppppp",
"ppppppdefedddeo``ogacbfmmmmdlccghgo`````afpppppp",
"ppppppdeeeedddo``igbbcbnmmmmebclcho`````cjpppppp",
"ppppppdefeddndi``hkmmmjedmfnmfbjfci`````cjpppppp",
"ppppppdefeddnnc`icbakabfjekjfgcabki````ojjpppppp",
"ppppppdeeeeddneoocbljjkjknlkjjfjklao```afjpppppp",
"ppppppdeeedddndaibkdnddkjdbjdmmnelco`ookfjpppppp",
"ppppppeefeednddlglfnmmdkfdkbdmmmfkco`haejkpppppp",
"ppppppdffeeddddkclfdmnfkedjljeeffkaihgkfjkpppppp",
"ppppppeefeeedndebbjennejenjkknndjlggagefjkpppppp",
"ppppppefffeddddejblfnejbbbcljedejbgggcffkkpppppp",
"ppppppefffeedddeekbkefkjjefjkkfjllg`ojfjjlpppppp",
"ppppppefffeeddeedebljkbblklbbcjkkbh`gefjkkpppppp",
"ppppppefffeeedeeedbljlhbffjcgbflkai`lffjklpppppp",
"ppppppeffffeeeeeedkclflckkkcbffbbh``jffjklpppppp",
"ppppppefjfefeeeeeefaclklbclkjjlchoo`ffjkklpppppp",
"ppppppefjfffeefeeefkabkjjkjfjkcgiiobffjjlbpppppp",
"ppppppejjfffffeffefjlaljfjffjbhohiokfjjkkbpppppp",
"ppppppffjffffefffejjkcalllllchoggh`afjjklbpppppp",
"ppppppfjjjfffffjffjkkchgghhioiaach`ijjkkbbpppppp",
"ppppppfjjjjjfffjffjklbgaaggggcbbch``ckkllcpppppp",
"ppppppfjkjjjfjfjjjkklhhcllbbblllbh``olklbcpppppp",
"ppppppfjkjjjjjjjjjklc`igbbbbblklbi```hllbcpppppp",
"ppppppjjkjjjjjjkjjkli`ohacbblkkka`````obccpppppp",
"ppppppjkkkjjjjjkkagi``oiacbblkkbo````ohihapppppp",
"ppppppjkkkkkkklci`o````iaccblllh`````ia`iapppppp",
"ppppppjkkkkkchgg`o`````igccblla``````haciopppppp",
"ppppppjklbchioo```````oohgccbao``````iia`opppppp",
"ppppppjbahoio`````````oohhaaco````````````pppppp",
"ppppppliohaghio```````ihhhhgo`````````````pppppp",
"ppppppaagio``````````ohgaaho``````````o`oopppppp",
"pppppphi`````````````hhgcah```````````````pppppp"
};
