/* XPM */
static char *noname_xpm[] = {
/* width height ncolors chars_per_pixel */
"48 48 17 1",
/* colors */
"` c black",
"a c grey33",
"b c grey47",
"c c grey40",
"d c grey87",
"e c grey80",
"f c grey73",
"g c grey27",
"h c grey20",
"i c grey13",
"j c grey67",
"k c grey60",
"l c grey53",
"m c white",
"n c grey93",
"o c grey7",
"p s None c None",
/* pixels */
"pppjjjffffjfffffffffffefefefeffjjjjfjjjkjjjkpppp",
"pppjjfjfjfffffffffffefeefefffffjjjfjjjkjjjjkpppp",
"pppjfjfffffffffeffeffeefefeffjjfffffjjjjjjkkpppp",
"pppjjfjjffffffffeffefefefkkjjfjfjffjjkjjjjjjpppp",
"pppjjffffffffffffeffeffjlacckjfffjjjjjjjjjkkpppp",
"pppjffjjffffeffffffjjjjlaaacaljjfjjjkjjjjjjjpppp",
"pppjjjfffffefefefjlcbbbagaaabkjkfjjjjjjfjjkjpppp",
"pppjfjfjffffefjjkcaaaggggghaclkbkjjkjjffjjjjpppp",
"pppjjffffjfffjbaghgghghgghiggaacgglkjjfjjjjjpppp",
"pppjjfjffffjbccgaaghioighgoigggahhbblfffjjjjpppp",
"pppjjfffjfjbgaghhghh```hig``ohhhghaagajjjjjjpppp",
"pppjjjfffjlghhggihhih```igo``iiioohggibjjjjjpppp",
"pppjfjfjkbagiihgiohhhi```o`````oooighohkfjjjpppp",
"pppjjfkllaghiiihghhhhio``o``````oihggiiljjjjpppp",
"pppjfjlblaghioiihhh`oo`ooo``````ohhggiialjfjpppp",
"pppjfjbhghighooihi``````ooooio`oooighhiicjfjpppp",
"pppjfjciihihio`oio`o````oooigioiioogihgibjfjpppp",
"pppjjjgiihiiihooiiihi``````ooi``ooogighgljffpppp",
"pppjfkooiihihihhihhgio````ooooo``oiihihakfffpppp",
"pppjfjioh`iiihaahhhachooo`ooo`````oohhhcjfjfpppp",
"pppjffh`oiioiohghhihagaiiiioo`io``oohhgkjfffpppp",
"pppjjfki`iiiiihhhiihaabghgaioooioooihhcjffffpppp",
"pppjfffaooiihhhhhihhabbcbbflaihhhiiihgbjffffpppp",
"pppfjfflo`iiiiihihgcbkjfeenmjjlcghhihcjfffffpppp",
"pppjfjfloooooooaaccbljfddnmmjfejbgiohjffffffpppp",
"pppjjfffc``ooohclkkkjfeddndekljjkkhohjffffffpppp",
"pppjfjffjhoo`habllcccljendfbbkfeffbiajfjffffpppp",
"pppjjjjfflo``gcbkjkbcccjndkkblbckejabfffffffpppp",
"pppjjfjffjiooabcacclbcclmmfbcgccfefbkfffffffpppp",
"pppjjfjfffgiicbcghahklkknmdejlkjndecjffjffffpppp",
"pppjjjjfffbhibkfjabcfeffnmdndffnndfcffjffffjpppp",
"pppjjjjjjflghckeefjjfdefnmnnmmmmmdjlffjfjfjfpppp",
"pppjkkjjffjaialfdnmmmnefnmndmmmmndjffjjfffjfpppp",
"pppjjkjjjjjcagbkenmmmnffnmmdennmnefejfjfjjjjpppp",
"pppkjkkjjjflcaclfennnefjdmmefjedefjfjjjjfjjfpppp",
"pppjkkjkjjjjbacbkfeeekbcbjjbeejjjjjffjjjjjjjpppp",
"pppkjkkkjjjjkcccbkjjfkahhgajdefkkkkkjjjjjjjjpppp",
"pppjkkkkkjjkkkcaaclljjccacjdefjjjkkkjjjjjjjjpppp",
"pppkkkkkjjjjlklaaaclklbbclkbcbkfjkkjkjjjjjjkpppp",
"pppjkjkkkkjjlklcaalkbhhhggbbleffjkjjjjjjjjjjpppp",
"pppkkkkkkjjjkkkcaaljfkbkfeejfeefjkjjkjjjkjkkpppp",
"pppkkkkkkkjkjkjbaackfjlbkkkjfefjlkjjjjjjkjkkpppp",
"pppkkkkkkkkjjjkbaaaljjjkjffeeefkljjkjkkjkkkkpppp",
"pppkkkkkkkkkkjklaggcljffedndefkcbkkjkjkkkkkkpppp",
"ppplkkkklkkkjkklggggckjffeeeekabcolkkkkkjkkkpppp",
"pppkllklklkkkklgaghghgclkkllbggka`hkklkkkkklpppp",
"pppllklklklkjkaoggghgghhggghhgcjg``cllkkkkllpppp",
"ppplllklkklkklo`aggghghhhihhgakkc``hlkkkkkllpppp"
};
