/* XPM */
static char * samson_mrih_no_xpm[] = {
/* width height ncolors chars_per_pixel */
"48 48 4 1",
/* colors */
" 	s None	c None",
".	c grey",
"X	c blue",
"o	c white",
/* pixels */
"                                                ",
"                                                ",
"                   ..XXXX  ..X.                 ",
"               .   .XXXX    XXXX..              ",
"             ..X. ..XXXX.X.XXXXXX               ",
"            XXXXXXXXXXX.XXXXXXXX   .X           ",
"            XXXXXXXXXXXX.XXXXXXXX. XXX.         ",
"            .XXXXXXXXXXo.XXXXXXXXXXXXXX         ",
"            XXXXXXXXXXXoX.XXXXXXXXXXXXX.        ",
"        XX XXXXXXXXXXX.XXoXXXXXXXXXXXXX.        ",
"       XXXXXXXXXXXX.ooXoooXooXXXXXXXXXX         ",
"      .XXXXXXXXXXo..XXooooX..ooXXXXXXXXX .X     ",
"      .XXXXXXXX.ooooXXX...XX.ooooXXXXXXXXXX     ",
"      ..XXXXXXXoooo.Xo.X.Xo.XoooooXXXXXXXXXX    ",
"      .XXXXXX.oooooXooooooo..ooooooXXXXXXXXX    ",
"    ..XXXXXXXooooooXooooooo.X.ooooooXXXXXXXX.   ",
"    XXXXXXXXooooooXooooooooooX.oooo..XXXXXX     ",
"   .XXXXXXX..ooooX.oooooooooo.X.oooo.XXXXXX     ",
"   XXXXXXXX.oooo.XXooooooooooo.Xooo...XXXXX.    ",
"   .XXXXXXXoooooX.oooooooooooooXoooo..XXXXXXXX  ",
"   ..XXXXXX.X...XX.oX.....oX...X..oX..XXXXXXXX  ",
"    .XXXXXXX.XXX..XX.XX.X.X.XXX.XXX.XXXXXXXXXX. ",
"   ..XXXXX...oo...ooooo.ooooooooXoo.X.XXXXXXXX. ",
"  .XXXXXXX..XXooooX.XX.XX.XX.X..oo.X...XXXXXXX..",
" ..XXXXXXXX.ooX.....ooooooooooX.o.X.ooXXXXXX  . ",
"  .XXXXXXX..ooX....XoooooooooXo.XX..ooXXXXXX    ",
" ..XXXXXXXXooooXX.ooXoooooooX....X..o..XXXXX    ",
"  .XXXXXXXXoooooX.Xo.XoooooXoo.XXoooo.XXXXXXX.. ",
"     .XXXXX.oooooX..ooXoooXoooX.oooooXXXXXXXXX  ",
"     .XXXXXXooooooX..ooX.Xoo.X..oooooXXXXXXXX   ",
"      XXXXXX.ooooooXX.o...o.X..oooooXXXXXXXXX   ",
"    .XXXXXXXXoooooooX......X...oooo.XXXXXX.X..  ",
"    XXXXXXXXXXoooooooXX..oX...oooooXXXXXXX  ..  ",
"     XXXXXXXXXXooooooo.X.X...oooooXXXXXXX..     ",
"      XXXXXXXXXX.ooooo..XX..oooooXXXXXXXXX.     ",
"      .. XXXXXXXXXoooooo.ooooo.XXXXXXXXXXXX     ",
"          XXXXXXoXXX..oooo...XXX.XXXXXXXXX      ",
"          .XXXXXo..XXXXXXXXXXXX..XXXXX.XX       ",
"        ..XXXXX....XXXoXXXX.XXX..oXXX ..        ",
"         .XXXXXXX.XXXX.oXXX.XXXX.XXX            ",
"           XXX..XXXXX.X.XXX.XXXXXXXX.           ",
"               ..XXXXXXXXXXXXXX.XXXX..          ",
"                XXXXX X.XXXXX   XX. .           ",
"                .XXXX   XXXXX                   ",
"                    X  ..XXX..                  ",
"                        .                       ",
"                                                ",
"                                                "};
