/* XPM */
static char *noname_xpm[] = {
/* width height ncolors chars_per_pixel */
"48 48 17 1",
/* colors */
"` c black",
"a c grey33",
"b c grey47",
"c c grey40",
"d c grey87",
"e c grey80",
"f c grey73",
"g c grey27",
"h c grey20",
"i c grey13",
"j c grey67",
"k c grey60",
"l c grey53",
"m c white",
"n c grey93",
"o c grey7",
"p s None c None",
/* pixels */
"ppppppmmdeeeefjjjfeeedddeednnnddeeeddeefeepppppp",
"ppppppmmdeeefffkjefjkcbbjednnndeeeeddefffdpppppp",
"ppppppmndeffffjkccgg``ooikennndeeeeddeefeepppppp",
"ppppppmndefffjlhicg``````gljfddeeeeedeefedpppppp",
"ppppppmndeffjlo`hho```````oabcfeeeedeeffeepppppp",
"ppppppmdeeffjh`oi``````````oiaakeeeddeefeepppppp",
"ppppppnnefffa```````````````hah`leedeeffedpppppp",
"ppppppndeffjo`````````````````o`hfeedeffedpppppp",
"ppppppndefjc`````````````````io`ocfdeefefepppppp",
"ppppppndefjh`````````````````````ojdeeffedpppppp",
"ppppppndefji``````````````````````ceeeffeepppppp",
"ppppppneefb```````````````````````ieefffeepppppp",
"ppppppddeji```````````````````````ofefffedpppppp",
"ppppppdeej`````````gao``````ohi````kffffeepppppp",
"ppppppdeeb````````hlfjco``ogccch```bffffeepppppp",
"ppppppdeeb````````hkfddelljfffkbo`okfffffepppppp",
"ppppppdefa````````ckenmmmmnnnejli`ifffffeepppppp",
"ppppppdefc```````gcllbkjennndfklh`iefffffepppppp",
"ppppppeefb``````oacggchoibfjaiooo`gefffffepppppp",
"ppppppeeflo`````ibbciohhgbeboohgi`kefjfffepppppp",
"ppppppdfflah```ockjlbclcblelgigia`feffjffepppppp",
"ppppppeejlcbo``hckeeefjfjkfjblbbbhfefjfjfepppppp",
"ppppppeefgabhoohckfddddejljfljfjlgfffjjjffpppppp",
"ppppppefjaibchohakfenndelkfdjjfjlbffjfjjjfpppppp",
"ppppppefjc`akgihgbkfddfjcckeklejlkffjjjjffpppppp",
"ppppppffki`ijcihgcbjfkkflchgaclkcjffjjjfffpppppp",
"ppppppffa```ghoigbbklblkklbaaacbcjfjjjkjffpppppp",
"ppppppffb``````igcckkagcblklcgacbjjjjkjjjfpppppp",
"ppppppffkh```ooohcckjjbaclbaoalcljjjkkjkjjpppppp",
"ppppppfjki```ii`habbjfjjjjklclkakjjjkkkkjjpppppp",
"ppppppjjb````ohoohcbkjffflbblbcckkjkkkkjjjpppppp",
"ppppppfjc````oahoogclkjfefjkkcglkkkkkkkkkjpppppp",
"ppppppjjbi```oachoohablkfffkbgbkkkkklkkkjjpppppp",
"ppppppjjkbh`oiabcho`ohgcblllgclllkklllkkkkpppppp",
"ppppppjjkkhhggclbchi``ooihhhcllllkllllkkkjpppppp",
"ppppppjjfjacbbbkkbagio````ocllllllkllllkkkpppppp",
"ppppppjdffkjffbljkbaaghioohllllblklllllkkkpppppp",
"ppppppjeffkeeeklkklbcacaghgllbbbllllllllkkpppppp",
"ppppppjefflenneckkklbbcbghallbbbllllllllkkpppppp",
"ppppppedefckmnnblkkkccaghhbkbbbbbllllllkkkpppppp",
"ppppppmnmebinmnkckklbcgghiafflbbbllblllkkkpppppp",
"ppppppmmmjgikmnegbllbaahioiekeflbbllbllklkpppppp",
"ppppppmmmghhammnagblbcagh``kekddjllbllllkkpppppp",
"ppppppmmboiihfddbiablccahoogffjdekllbllllkpppppp",
"ppppppmncoohibddjiicllbchogacjkjflclbllkklpppppp",
"ppppppeefaooigfefh`illbbahggihbjfkhgbllklkpppppp",
"ppppppedejiiogcllkhihlbbchago`ocdeb`allllkpppppp",
"ppppppjlkbc``hhabfcoohggaihho`oibfbooaacccpppppp"
};
