/* XPM */
static char *noname_xpm[] = {
/* width height ncolors chars_per_pixel */
"48 48 17 1",
/* colors */
"` c black",
"a c grey33",
"b c grey47",
"c c grey40",
"d c grey87",
"e c grey80",
"f c grey73",
"g c grey27",
"h c grey20",
"i c grey13",
"j c grey67",
"k c grey60",
"l c grey53",
"m c white",
"n c grey93",
"o c grey7",
"p s None c None",
/* pixels */
"ppppppnmmnmnnddndnnnmnmddeeeeeeeededddddnnpppppp",
"ppppppnmmmmnnnndnnnmnnnnddedeedededdddddnnpppppp",
"ppppppnmmmnmnnnnnnnnmmnnddeededdeddeddddnnpppppp",
"ppppppdmmmmmmnndnnmnmnmnddedededddddddddnnpppppp",
"ppppppdmmmmmnmnnnnnmmmmndddededdddddddnnnnpppppp",
"ppppppdmmmmmmnmnnnnnnmndffffededddddddnnnnpppppp",
"ppppppdmmmmmmmmnnndejlcioiihgckedddddndnnmpppppp",
"ppppppdmmmmmmmnmnjahoo```oioihacjdddddnnnnpppppp",
"ppppppdmmmmmmmmnaooo````o`oooohhajdddndnnnpppppp",
"ppppppdmmmmmmmnboo`````oo`ooooiiggjdddnnnnpppppp",
"ppppppdmmmmmmmkoo`````````o`ooihhgheddndnnpppppp",
"ppppppdmmmmmmngo`o````````o`o`oihghbdddnnnpppppp",
"ppppppdmmmmmmeio`o``````o`o```o`o`iikdnndnpppppp",
"ppppppnmmmmmmji`o``ooo``oo`````o``o`gddnnnpppppp",
"ppppppdmmmmmmko`o`ohhoioo`o`o`o``oo`ifndnnpppppp",
"ppppppnmmmmmmco`o`icbaahhooo`o````ooibnnnnpppppp",
"ppppppdmmmmmmh``o`hbjjjjkbgioooo```ooanndnpppppp",
"ppppppnmmmmmnh```ohlfedddejbgioooo``oaddnnpppppp",
"ppppppnmmmmmng```oglfeennddejlcgggh``gnndnpppppp",
"ppppppnmmmmmmc````aljednnndddefkbbg``andnnpppppp",
"ppppppnmmmmmmk```ocllblkjfeeekcagac`ofnnndpppppp",
"ppppppnmmmmmme```obcggiiihbkcioiihb`lnnnnnpppppp",
"ppppppnmmmmmmdho`ibacghihhbkaioiigbiennnndpppppp",
"ppppppnmmmmmmmch`hlbahigcckecahggglcdddnnnpppppp",
"ppppppnmmmmmmnbgiakklbcccbkelcbbllkkednndnpppppp",
"ppppppnmmmmmmnbbcckjffjkkkkekbkkjkkkfndnnnpppppp",
"ppppppnmmmmmmnlbbckjeeeefjkejbkjjjkjfddndnpppppp",
"ppppppmmmmmmmmjkcalfendefkkefckjjjljedndddpppppp",
"ppppppnmmmmmmnelcabkfefjllkffbbkjlbleddddnpppppp",
"ppppppmmmmmmmmnecaalkjklbchachbllbcfddddddpppppp",
"ppppppmmmmnmnmnneaacblblkbaggacbbbceeeddddpppppp",
"ppppppnmnmmnmnnndacccbbblllbbccccaceedeeddpppppp",
"ppppppmnmmnmnmnnfcaccbbghggaahggaabeeeedeepppppp",
"ppppppnmmnmnnnndlcacabblcccccaaccgleeeeeeepppppp",
"ppppppmmmmnnnndfkcaacabklcbbccccagjefeeeeepppppp",
"ppppppmnmnmnnnkjkbaaaaclbbaaaccagbffefeeeepppppp",
"ppppppmmnnnefjkjjkcgggabllkllbcgcfffffefeepppppp",
"ppppppnnddeffjfffjbchhgabkkklcagkffefefeeepppppp",
"ppppppdkeedeeejfffjaghihaccccgggaeffffeefepppppp",
"ppppppccbdddddjeefjlaghiihihihggifffffffeepppppp",
"ppppppcacededdfeefjjcgghioooiggiifffffffffpppppp",
"ppppppbcckeddndfeejkjaagghhhgggoifefefffffpppppp",
"ppppppkcabddnddeffjkfjagaacaagh`hjeeefefefpppppp",
"ppppppecccddddedffjjkekagaccghi`gffkfeeeffpppppp",
"ppppppdbaakddeeefefjkfecggghhhoiadfbljeeeepppppp",
"ppppppdkaafkffeeeffjlkkigghhhiohbbfaclndeepppppp",
"ppppppdkaajdffeeejffkkahhhhhhioaaolaacjmdepppppp",
"ppppppjlggbjjkkjjkbklcaaagiiioibgicgggajefpppppp"
};
