#define face_width 48
#define face_height 48
static unsigned char face_bits[] = {
 0x40,0x15,0x00,0x00,0x00,0x00,0x80,0x2a,0x00,0x00,0x00,0x00,0x80,0x04,0x00,
 0x00,0x00,0x00,0x40,0x15,0x00,0x00,0x00,0x00,0x80,0x0a,0x00,0x00,0x00,0x00,
 0x80,0x02,0x00,0x00,0x00,0x00,0x40,0x01,0x00,0x00,0x00,0x00,0x80,0x02,0x00,
 0x00,0x00,0x00,0x40,0x00,0xe0,0x07,0x00,0x00,0x80,0x00,0xf0,0x0f,0x00,0x00,
 0x40,0x00,0xfc,0x1f,0x00,0x00,0x00,0x00,0xf4,0x7f,0x00,0x00,0x00,0x00,0xfb,
 0xff,0x00,0x00,0x00,0x80,0xc9,0xf5,0x01,0x00,0x00,0x80,0x23,0xfc,0x01,0x00,
 0x00,0xc0,0x02,0xf0,0x01,0x00,0x00,0xc0,0x01,0xfa,0x01,0x00,0x00,0x80,0x09,
 0xe0,0x01,0x00,0x00,0xc0,0x40,0xfa,0x03,0x00,0x00,0xc0,0x02,0xe0,0x03,0x00,
 0x00,0x40,0x0d,0xff,0x03,0x00,0x00,0x40,0x99,0xfa,0x01,0x00,0x00,0x40,0x82,
 0xc1,0x01,0x00,0x00,0x00,0x88,0xe5,0x03,0x00,0x00,0x80,0xa0,0xd0,0x01,0x00,
 0x00,0x00,0x80,0xe3,0x01,0x00,0x00,0x00,0x91,0xf0,0x00,0x00,0x00,0x00,0x82,
 0xe2,0x00,0x00,0x00,0x00,0x10,0x51,0x00,0x00,0x00,0x00,0x40,0x33,0x00,0x00,
 0x00,0x00,0x12,0x31,0x00,0x00,0x00,0x00,0x42,0x74,0x00,0x00,0x00,0x80,0x05,
 0xf9,0x01,0x01,0x00,0x40,0x13,0xfe,0x4f,0x00,0x00,0xf0,0x41,0xff,0xbf,0x00,
 0x00,0x7c,0x95,0xfc,0xff,0x01,0x00,0xff,0x03,0xfe,0xff,0x01,0x80,0xff,0x44,
 0xfc,0xff,0x01,0xc0,0xff,0x0b,0xed,0xff,0x01,0xc0,0xff,0xfb,0xf6,0xff,0x01,
 0xc0,0xff,0x8f,0xfa,0xff,0x01,0xc0,0xff,0xff,0xff,0xff,0x01,0xc0,0xff,0xff,
 0xff,0xff,0x01,0xc0,0xff,0xff,0xff,0xff,0x01,0xc0,0xff,0xff,0xff,0xff,0x01,
 0xc0,0xff,0xff,0xff,0xff,0x01,0xc0,0xff,0xff,0xff,0xff,0x01,0xc0,0xff,0xff,
 0xff,0xff,0x01};
