#define noname_width 48
#define noname_height 48
static char noname_bits[] = {
 0x00,0x00,0x00,0x00,0x00,0x00,0x00,0x00,0x00,0x00,0x00,0x00,0x00,0x00,0x00,
 0x01,0x00,0x00,0x00,0x00,0x00,0x00,0x00,0x00,0x00,0x00,0x40,0x04,0x00,0x00,
 0x00,0x00,0x00,0x10,0x00,0x00,0x00,0x00,0xf8,0x0f,0x00,0x00,0x00,0x00,0xfc,
 0x7f,0x00,0x00,0x00,0x00,0xff,0xbf,0x00,0x00,0x00,0x80,0x7f,0xaf,0x01,0x00,
 0x00,0xe0,0x87,0xf8,0x03,0x00,0x00,0xc0,0x2b,0x42,0x07,0x00,0x00,0xf0,0x03,
 0xc8,0x07,0x00,0x00,0xe0,0xab,0x20,0x0e,0x00,0x00,0xf0,0x05,0xc4,0x0f,0x00,
 0x00,0xe0,0x2b,0x21,0x0c,0x00,0x00,0xf0,0x02,0xc4,0x0f,0x00,0x00,0xe0,0x95,
 0x28,0x0e,0x00,0x00,0xe0,0x0b,0x42,0x07,0x00,0x00,0xf0,0xd5,0xa8,0x0c,0x00,
 0x00,0xe0,0x76,0x7b,0x07,0x00,0x00,0xf0,0xfa,0xd4,0x0d,0x00,0x00,0x60,0x55,
 0x79,0x07,0x00,0x00,0xb0,0xaa,0x94,0x04,0x00,0x00,0x60,0x81,0xaa,0x02,0x00,
 0x00,0x90,0xa5,0x54,0x05,0x00,0x00,0x60,0x49,0x95,0x02,0x00,0x00,0x80,0x66,
 0x55,0x01,0x00,0x00,0xc0,0xda,0x5d,0x01,0x00,0x00,0x00,0x2b,0xb7,0x01,0x00,
 0x00,0xc0,0xfa,0xda,0x00,0x00,0x00,0x80,0x56,0xbf,0x00,0x00,0x00,0x80,0x6d,
 0xf5,0x00,0x00,0x00,0x00,0xab,0xaf,0x00,0x00,0x00,0x00,0xad,0xf4,0x00,0x00,
 0x00,0x00,0x57,0xad,0x01,0x00,0x00,0x00,0x5e,0xf5,0x01,0x00,0x00,0x00,0xea,
 0xde,0x01,0x00,0x00,0x00,0xbe,0xfb,0x01,0x00,0x00,0x00,0xec,0xd7,0x02,0x00,
 0x00,0x00,0xbe,0xfd,0x01,0x00,0x00,0x80,0xd1,0xd7,0x02,0x00,0x00,0x40,0x6b,
 0xfd,0x30,0x00,0x00,0x00,0x91,0x6f,0x02,0x00,0x00,0x00,0xc0,0x5a,0x10,0x00,
 0x00,0x00,0x00,0x2b,0x02,0x00,0x00,0x00,0x00,0x2b,0x00,0x00,0x00,0x10,0x52,
 0x5e,0xa9,0x00};
