/* XPM */
static char *noname_xpm[] = {
/* width height ncolors chars_per_pixel */
"48 48 16 1",
/* colors */
"` c grey33",
"a c grey47",
"b c grey40",
"c c grey87",
"d c grey80",
"e c grey73",
"f c grey27",
"g c grey20",
"h c grey13",
"i c grey67",
"j c grey60",
"k c grey53",
"l c white",
"m c grey93",
"n c grey7",
"o s None c None",
/* pixels */
"ooooollllllllllllllllllllllllllllllllllllllooooo",
"ooooollllllllllllllllllllllllllllllllllllllooooo",
"ooooollllllllllllllllllllllllllllllllllllllooooo",
"ooooollllllllllllllllllllllllllllllllllllllooooo",
"ooooolllllllllllllllllmmllllllllllmllllllllooooo",
"ooooollllllllllllllcja`f`bimlllllllllllllllooooo",
"ooooollllllllllllle`fggghgg`dlllllmllllllllooooo",
"ooooolllllllllllmaghggffggfffillllmmlllllllooooo",
"ooooollllllllllljghgf`fggfgggfilllmllllllllooooo",
"ooooolllllllllleghhhhhhhggghhgfelmmmlllllllooooo",
"ooooolllllllllcfhgggnhnngggnnngfcmmmlllllllooooo",
"ooooolllllllllkf`bbbfgfg`ffhnnngjmmmlllllllooooo",
"ooooollllllllmaakaaakjjaab`fhnnn`mmllllllllooooo",
"ooooollllllllcb`aieidddeieijb`fhgcmllllllllooooo",
"ooooollllllllcgfiddcccccdddijbfghcmllllllllooooo",
"ooooolllllllllbfidccmmcccddeibfghcmllllllllooooo",
"ooooollllllllldfjdccmmcccddeib`hhcmllllllllooooo",
"ooooolllllllllmfkdcmmmmmccdekb`hgmmllllllllooooo",
"ooooollllllllll`addeedcccibba``hgcmllllllllooooo",
"ooooollllllllllbbeeijjdcekjjkkbghjmllllllllooooo",
"ooooolllllllllmiadejaidckjekakaffbmllllllllooooo",
"ooooolllllllllmdicddddddkjeedea`famllllllllooooo",
"ooooolllllllllmddcccccddjjdddeabfimllllllllooooo",
"ooooollllllllllcccccccddjaecdeabammllllllllooooo",
"ooooollllllllllmcccmcddciajddeakdmmllllllllooooo",
"ooooolllllllllllmcccddddeeeedeacmmmllllllllooooo",
"ooooollllllllllllmccdedddeakcekmllmllllllllooooo",
"ooooolllllllllllllccdjdmceaedjillllllllllllooooo",
"ooooolllllllllllllcccdeeeiieekillllllllllllooooo",
"ooooolllllllllllllmdcccdddddkbellllllllllllooooo",
"ooooolllllllllllllmddccccddibbdllllllllllllooooo",
"ooooolllllllllllllccdddcddiabbjmlmmmlllllllooooo",
"ooooolllllllllllleaccddeejabaagillmmlllllllooooo",
"ooooolllllllllllci`ccccdeeijikficmmmlllllllooooo",
"ooooollllllllllmedadccmmccdieaaakcmllllllllooooo",
"ooooolllllllllmceddjcccmcdeeijkaiicmllmllllooooo",
"ooooolllllllmmcccdddjdcccddeijkijkicmmmmlllooooo",
"ooooollmmcddddcccddddkjccddeijijkjiedccmmmmooooo",
"ooooocddddeedddccccdddjadddeeijjjjieeddddedooooo",
"ooooodiidddieddcccccccdddddeejjjjiieeddeeedooooo",
"oooooceikddijdddcddcccdddddeiijiieeeeddedddooooo",
"ooooocceajdekeccddccccdddddeeiiieeeeeddddddooooo",
"ooooodcdjaddjkdcddcdccdcdddeeiieddeeededeedooooo",
"ooooojedekedekeccdddccdddddeiiieddeiddddeicooooo",
"oooooebddkiddjkdccddddccdddeiiieddeidddijecooooo",
"ooooodkidjjddiaeddddcddddddeiiedddiedddaaddooooo",
"ooooodeedijeddjkdcddddccdddeieeddeieddifjdcooooo",
"oooooddedejeddikdddddcdddddiieeddeeddeaaedcooooo"
};
