#define noname_width 48
#define noname_height 48
static char noname_bits[] = {
 0x00,0x00,0x00,0x00,0x00,0x00,0x00,0x4a,0x24,0x00,0x00,0x00,0x80,0x20,0x81,
 0x24,0x00,0x00,0x00,0x09,0x28,0x00,0x01,0x00,0x00,0xa4,0xaa,0x02,0x00,0x00,
 0x40,0x81,0xd6,0x15,0x10,0x00,0x00,0xaa,0xb5,0x2a,0x00,0x00,0x80,0xc0,0xfa,
 0x51,0x02,0x00,0x00,0xb5,0xae,0xb4,0x00,0x00,0x40,0x68,0xd5,0xd2,0x40,0x00,
 0x00,0xb5,0x5b,0xab,0x00,0x00,0x80,0xd8,0xf6,0x56,0x0b,0x00,0x00,0x6d,0xad,
 0x5b,0x05,0x00,0x40,0xba,0xd2,0xac,0x0a,0x00,0x00,0x4d,0x48,0xd9,0x4b,0x00,
 0x40,0xb4,0x52,0x64,0x16,0x00,0x80,0x6e,0xa4,0xa9,0x0b,0x00,0x00,0x5a,0xc9,
 0xaa,0x8e,0x00,0x80,0x6f,0xaa,0xea,0x0b,0x00,0x40,0xbe,0x40,0xad,0x2e,0x00,
 0x80,0x5e,0x0a,0x55,0x07,0x01,0x00,0x7f,0x0a,0xb6,0x1e,0x00,0x80,0x8e,0x17,
 0x15,0x4b,0x00,0x40,0xbf,0x04,0x00,0x17,0x00,0x80,0x0e,0x00,0x01,0x2f,0x01,
 0x40,0x1f,0x00,0x00,0x1d,0x00,0x80,0x17,0x00,0x41,0x57,0x00,0x80,0x6e,0x20,
 0x80,0x1f,0x01,0x80,0x1f,0xa0,0xa3,0x4f,0x00,0x80,0x7e,0x49,0x91,0x2f,0x01,
 0x40,0x77,0x01,0xd4,0x2f,0x00,0x80,0xff,0x4a,0x57,0x5f,0x01,0x40,0xb3,0xb2,
 0xe4,0x17,0x02,0x80,0xaf,0x4d,0xd5,0xbf,0x00,0x40,0xeb,0xa5,0xf2,0x57,0x01,
 0x80,0xff,0x1a,0xd4,0x3f,0x00,0x40,0xdf,0x2d,0xf8,0xab,0x02,0x80,0xfb,0xf2,
 0xee,0x5f,0x01,0xc0,0xfe,0xd5,0xf5,0x5f,0x00,0x80,0xff,0x25,0xfb,0xb7,0x02,
 0xc0,0xf6,0x93,0xea,0x5f,0x00,0x40,0x7f,0x8b,0xf4,0xf7,0x02,0xc0,0xed,0x25,
 0xf9,0x5f,0x01,0x80,0xbe,0x4b,0xea,0xb7,0x03,0xc0,0xfb,0x22,0xf8,0x7d,0x01,
 0x80,0xfe,0x8d,0xe8,0xaf,0x03,0xc0,0xbf,0x02,0xfc,0x77,0x03,0xc0,0xfd,0xb7,
 0xff,0xdf,0x03};
