/* XPM */
static char *noname_xpm[] = {
/* width height ncolors chars_per_pixel */
"48 48 17 1",
/* colors */
"` c black",
"a c grey33",
"b c grey47",
"c c grey40",
"d c grey87",
"e c grey80",
"f c grey73",
"g c grey27",
"h c grey20",
"i c grey13",
"j c grey67",
"k c grey60",
"l c grey53",
"m c white",
"n c grey93",
"o c grey7",
"p s None c None",
/* pixels */
"pppkjkkkkkjkjkjkjkjkkkkjkjkjkjkkkkkjkkkkkjkkpppp",
"pppnnnnnnnnnnnnnnnnnndnnnnnnnnnnnnnnnnndnnnnpppp",
"pppndndddndnnnnnnnndndddnnnndndddddnndddndndpppp",
"pppdndndddndnndnddddddddnnndndnddddnddddddndpppp",
"pppddddddddddnddddefffeeddddddddddddddddddndpppp",
"pppdnddddddndndeefjbbkjfjkfddddddddnddddddddpppp",
"pppdddddddddnddfklbaabblllcljeeeeddddddeddddpppp",
"pppdnddddddddjfcccgghhgihgggaljjeeddddddddddpppp",
"pppdddddddddfccghgiihioooiiiihgbjeedddddddddpppp",
"pppddnddddddkghioiiiihhhiooo`oiakjeddddednddpppp",
"pppdndddddnebhio``iccbbbbbgo`ooigbjdddddddddpppp",
"pppdndnddddeaio`ohclklkkkjlco``ogckdddddddddpppp",
"pppddndddddcii``hblkjjjjjjjkbi``ohkeddddddddpppp",
"pppdndndddkhoo`ilkkkjjjjjjjklc```ibdddddddddpppp",
"pppdnddddeg````bkjkjjjjkjkjkkbh``ogdddddddddpppp",
"pppdnndndki```hlkkkkkkkkkkkklba``iheddddddddpppp",
"pppdndnddjo```alkkkkkkkkklllllco`ohedddeddddpppp",
"pppdndnddjo```alkkkkkkkkkkllllch``oeddddddddpppp",
"pppdndnddf````ablkklklklkkkkklch``odddededddpppp",
"pppddnndde````bbbaghgbllkbbcbbci``hdedddddddpppp",
"pppnndnddeo``obcgaacggblbaiihhci``hdddeeddddpppp",
"pppddnndddi``hlcccggccblbaacaggi``addeddedddpppp",
"pppnnnddddho`glbggoiggbkagghiggi``kddedeedddpppp",
"pppdndndddcagbllbcagaabkcaciihaa`gfdedeeededpppp",
"pppdnnddddkballklbccccbkcaaaacblgkeeddededdepppp",
"pppddnddddlclbllkklblbbkbcccclllgefddeeeeeddpppp",
"pppdndndddfblbbkkkkklllkblllkklbaffedeeeededpppp",
"pppddndddedkbbcbblccbllkbbcbllbbbeeedeeeeeeepppp",
"pppdddddddefbccccaggacblccggaccakfeeeeeeeeddpppp",
"pppddndddedflcaagiiooigai`oihggajffdeeeefeeepppp",
"pppdddddededecaahio```oo``o`ihgaefeeeeefeeeepppp",
"pppdddddedeedbaaagiooooioo`ohggbeefeeeefeeeepppp",
"pppdddddeedeekaccagiggghhiiggghjfefeeefeeeeepppp",
"pppedddedeeeeeaaaacahggghhggaggfefefefefffeepppp",
"pppdeddeeeeeeebaaaaccagggagggglfefffefefefeepppp",
"pppeededeeeefebaaaacaaggggagggjfefefffffffffpppp",
"pppeeddeeeeffflaaaaaaggghggghlffeffffffffffepppp",
"pppeeeeeeffffflaagaaaaggaggggjjefeffffffffffpppp",
"pppeedefefeffdlagggaaaaaagghgkfffeffjfffjfffpppp",
"pppfeeeeefffdmbcaghgggggghhgcbdeeffjfjffjjjfpppp",
"pppefeeefeedmmccagghhhhhihhaabmdffffjjffjffjpppp",
"pppffeedmmmmmmkaaaaghhihhggagbnneefjjjjfjjfjpppp",
"pppffdnmmmdnmmehcaaaagggggaahkdmmndfjjjjjjjjpppp",
"pppfnmmmmndmmmdgaaagggggggaahfdmnmmnejjjjjjjpppp",
"pppnmmmnnndmmmnbgaaagaggaacggddnmnnmmndjjjjjpppp",
"pppmdeddnnemmmnjgaaaaaaaaaaglnnnmddnnnmnfjkjpppp",
"pppmddndmdemmmneaaaaaaaacaahfddmnndeddnnmdfjpppp",
"pppneennnedmmfkkcgaaaacacagcennnnmddedddndmdpppp"
};
