/* XPM */
static char * bastos_xpm[] = {
/* width height ncolors chars_per_pixel */
"48 48 16 1",
/* colors */
" 	s None	c None",
".	c grey87",
"X	c grey80",
"o	c grey73",
"O	c grey67",
"+	c grey53",
"@	c grey40",
"#	c grey47",
"$	c grey27",
"%	c grey33",
"&	c grey60",
"*	c grey20",
"=	c grey13",
"-	c grey7",
";	c black",
":	c grey93",
/* pixels */
"                    .XoOoOOo.                   ",
"                .oo+@@###@@@@o                  ",
"               O@+##@$%@%%@%$@&                 ",
"             X@@##@@$%@%%%%%%@#O                ",
"            O@@##%$$$$%%%%%%@@@@X               ",
"           o++++@$*$$%$%$$*$$$**$X.             ",
"          X+##&+#@%%%$$*$$$@@%=-*$#+o           ",
"          %%*$$%#@%$*%$***$$%%--==%@%&          ",
"         &**-=$*=*==-==$*=***$===-*$%%O         ",
"        .$==--=-----;;;-----*@##*--*%$@         ",
"       &@*=----;;;;-;;;;;;;*oXoo&=--%%$X        ",
"      X$**=--=---;;=--;;;;*o:.XXO$===*$O        ",
"      .%*=--***=**%@%*=-*@&X::.XX#=--**#        ",
"      X%*=-=$%@@@+&&O##@+&X.:::..&--*=*%        ",
"      O*==-*@+OOXX..XXoooX::::::.&*--=*%        ",
"      +*===%&XXX...::::....:::::.o*--===.       ",
"      X$*=-&.XXXoooX...XoXXX:::::X*;-=-=&       ",
"      X$=-=oX+##$$@+OXXo&#%$%#O.:.%-;--=&       ",
"      o$*;%&%%&&&@%%#X.+@#o+%%%#O.O-;-;*&       ",
"       %*;%$@@%%@@@@+.:O$%%%&@O+o#X=;--*X       ",
"       %=$$+@$==$%#&$o.+@$$$@#++oo+%--*&        ",
"       @*#$@%****@$%%@&#&@%%*#@%&X%@@-=.        ",
"       @-@@&@@%@@#@&@OX+.o+&&&OOoX@@%-=.        ",
"       @;%+..o&OoXoo@::XO::.XX.::X+&*=*o        ",
"       $=%&X:::::.o+o:::O.::::::..Oo$$$O        ",
"       %=@+o..:::X+%.:::XOo.:::...OX$++o        ",
"       @=&##XX.:.&@oX...XXOOX.X:.&.X$#o         ",
"       #$&#@+ooO+%+&%##+OX&%#&&&oXX.%@X         ",
"       O$##@#+++%*%--*$$=-#$@&OoXX.o%%X         ",
"       X$@+@####%+$;;;---*@+%+OXXX.O%%X         ",
"       .$$+##@#@@@*=-=--*$%@#@&oXXX+%%X         ",
"        $*#&####%======-===%@@#OXoO%$$X         ",
"        $=%+###$-;---***==-=$%+&o&#$$*.         ",
"        *-=%#@$-;;;-*$$$$*-;;=+OO+$*=%          ",
"        %;=*%$=;-=$@+&&&&&+%-=#+#@=**+          ",
"        &;;-**=-$%@@%%%%#&O#*=$%%$*=*&          ",
"        X-;-==--=%%%$**$@++$=--$**==$X          ",
"         $-;;;;;=*%%%%#@##%*----=*=*@           ",
"         O-;;;---=*$%+&@%%*-=---=--=+           ",
"         .=;;;;;;==*$@%%$*==---;;--=-*+.        ",
"         +;;;;;-=--*=*=*-**==;;;;--#=--*O       ",
"        +-=-;;;;=-;-==-------;;;;;=.@-==-       ",
"       O*-O*;;;-;;;;;;;;;;--;-;;;;*X.*-=-       ",
"      .$=%:%;;;;;;;;;;;;;;;;-;;;;-@.:X==-       ",
"      @*-o:#-;;;;;;;;;;;;;;;--;;-@O.::#--       ",
"      $*%::#=-;;;;;;;;;;;;;;;;;;%&.::::$-       ",
"      $*o:.&%-;;;;;;;;;;;;;-;;;$&&.:::::%       ",
"      %@::.o#*=;;;;;;;;;;;;;;;=&&O.::::::       "};
