#define noname_width 48
#define noname_height 48
static char noname_bits[] = {
 0x80,0x52,0x24,0x14,0x91,0x00,0x80,0x94,0x52,0xa3,0x04,0x01,0x80,0x2a,0x5d,
 0x1d,0x52,0x00,0x40,0x92,0xbe,0x7f,0x09,0x01,0x80,0xaa,0xf7,0xee,0x22,0x00,
 0x40,0x49,0xff,0xff,0x4b,0x01,0x80,0xaa,0xff,0xff,0x12,0x00,0x80,0xe4,0xff,
 0xff,0x4f,0x01,0x80,0xea,0xff,0xff,0x17,0x02,0x40,0xf5,0xff,0xff,0x9f,0x00,
 0x80,0xf4,0xff,0xd7,0x4f,0x02,0x40,0xf5,0xbf,0xd0,0x9f,0x00,0x80,0xfa,0x01,
 0xa0,0x5f,0x02,0x00,0xf9,0x05,0xc8,0x3f,0x00,0x40,0xfd,0x00,0xa4,0x5f,0x01,
 0x80,0xfa,0x0b,0x10,0xbf,0x00,0x80,0xfc,0x00,0xe0,0x3f,0x02,0x80,0xfa,0x5f,
 0x5a,0x5f,0x01,0x40,0x7d,0x3f,0xfd,0x3f,0x00,0x40,0xfa,0x6a,0xd4,0x5e,0x01,
 0x80,0x7a,0xad,0x76,0x1f,0x01,0x40,0xd5,0x22,0x0a,0xad,0x00,0x80,0x72,0x40,
 0xa2,0x4e,0x02,0x80,0x4a,0xa1,0x0c,0x2e,0x01,0x40,0xb5,0x14,0x46,0xab,0x00,
 0x80,0xca,0x6a,0xb5,0x1e,0x02,0x40,0xb5,0xdd,0xaf,0xa3,0x00,0x80,0xca,0xfe,
 0xff,0x96,0x02,0x40,0xb5,0xf6,0x7e,0x2b,0x01,0x80,0x4a,0xab,0xad,0x43,0x01,
 0x40,0xb5,0xaa,0xda,0x54,0x02,0x40,0x55,0xaf,0xea,0x2b,0x01,0x80,0xaa,0x5a,
 0xb5,0xa4,0x02,0x80,0x56,0x57,0xfa,0x53,0x01,0x40,0x55,0x5d,0xad,0x4c,0x02,
 0x80,0x6a,0xeb,0xfa,0x53,0x01,0x40,0xab,0xda,0xaf,0xaa,0x02,0x40,0x95,0xb6,
 0xda,0x45,0x01,0x80,0x82,0x6a,0xb7,0x22,0x01,0xc0,0x00,0x55,0xa9,0x01,0x02,
 0x00,0x00,0xa8,0x26,0x00,0x00,0x00,0x00,0x48,0x01,0x00,0x00,0x00,0x00,0x20,
 0x01,0x00,0x00,0x00,0x00,0x90,0x00,0x00,0x00,0x00,0x00,0x00,0x00,0x00,0x00,
 0x00,0x00,0xa0,0x00,0x00,0x00,0x00,0x00,0x00,0x00,0x00,0x00,0x00,0x20,0x41,
 0x90,0x14,0x00};
