/* XPM */
static char *noname_xpm[] = {
/* width height ncolors chars_per_pixel */
"48 48 17 1",
/* colors */
"` c black",
"a c grey33",
"b c grey47",
"c c grey40",
"d c grey87",
"e c grey80",
"f c grey73",
"g c grey27",
"h c grey20",
"i c grey13",
"j c grey67",
"k c grey60",
"l c grey53",
"m c white",
"n c grey93",
"o c grey7",
"p s None c None",
/* pixels */
"ppppppeffffffffffefeeeeeefeeeeeeddeeeeeeddpppppp",
"ppppppffeffffffeffjjeeeejfeedeeeddedededndpppppp",
"ppppppffffffffffklcbljeklckfdeeedddeeeeednpppppp",
"ppppppefffffjfkchhihhacbghalfdndddeeeeeeddpppppp",
"ppppppffffjfjkgo`ooiiooiigclkjdndneefeeeddpppppp",
"ppppppjfffjfkh````````````hckjekfndefeeeedpppppp",
"ppppppjfjjjkh`````````````oohcjkkedeffeeeepppppp",
"ppppppjfjjja````````````ooiiihcjjedeeffeedpppppp",
"ppppppfjjjbo``````````oigaccaggckendefeeedpppppp",
"ppppppfjjko`````````ooalkjjfklbcglndeefeeepppppp",
"ppppppjjkh``````````oajfddeeeffkchbfdfefedpppppp",
"ppppppjja```````````ajfddnmnndefkhhcjeefeepppppp",
"ppppppjjg```````oigbkjedmmmmmmndfgohkfefeepppppp",
"ppppppkkh```````igclkffdnnmmmmndfb`icjeffepppppp",
"ppppppjlo```````hgcljjeednmnnnndfkooakefjfpppppp",
"ppppppjl```````oigbkjfednnnnnnddeki`gkefefpppppp",
"ppppppjg````````hblkjfeddnnnnnndekg`hjeffepppppp",
"ppppppkh```````oallkkjfeedddddddejg`hjeeefpppppp",
"ppppppja```````hcbbaghhhaledefjkkla`bfefffpppppp",
"ppppppkc```````gbbghioiiiakffaioohh`kfffffpppppp",
"ppppppjbo``````abcaghogaackflgohghoojfffffpppppp",
"ppppppjl`ooo``oclbccbclkkljekahgiaiojfffffpppppp",
"ppppppkc`ogi``hcbkkkkkkjjkjdjjlklcgaffjfffpppppp",
"ppppppjlioahhohabljeedddfkldfeejjkkfffjfffpppppp",
"ppppppkkgocgggaaclkfdnndfkkffeddejjfjfjjfjpppppp",
"ppppppjli`acggaacbkfennekllfejedejjffjjjjfpppppp",
"ppppppkli`ocggaacclkfefklkleelkefkjjffjjjjpppppp",
"ppppppjkba`hhgaaccblkkllagckllckkljjjjjjjjpppppp",
"ppppppjkkkgghggacccbbcblcgihabccbbjfjjjjjjpppppp",
"ppppppjkkjcghhgaacacaaacbbccccagaljjjjjjjjpppppp",
"ppppppkkklbgghggcccbchihacbccagcckjjjjjjjjpppppp",
"ppppppkkcglbghhggcacbbahihghhccbckjjkjjkjjpppppp",
"ppppppklgakkghhggaaccblblllbbbbccjjkjkjjkjpppppp",
"ppppppkagglflghhhaggccbbbccbcbaalkjkkkkjkkpppppp",
"ppppppcaaacffchghgghaabbbbccbagbkkkkkkkkkkpppppp",
"ppppppagaaalejchhhghhgclklllcgakkkkkkkkkjkpppppp",
"ppppppaaaacceekahhhhihgbbkkbggkkkkkkkkkkkkpppppp",
"ppppppacaaaakdfkahhhiiigcccgglklkllllklkkkpppppp",
"ppppppccaaacceeflahiiioihhhhlklklllllkkklkpppppp",
"ppppppccaccaakdejkahhiiooiblkkklklllllkkkkpppppp",
"ppppppcccaaacceeefjlahhihkfgkklklllllklkllpppppp",
"ppppppcccccacajddddeeflgikfoadfkllllllkkllpppppp",
"ppppppaccccaccbendndnnkaggehhbmmejlblllkllpppppp",
"ppppppgccccacccjnnnmnncbbgdbhcenmmndfkkkklpppppp",
"ppppppgcccccacclnnmnmjbcbbejahjeenmmmffkklpppppp",
"ppppppggccaccaccfmmmdaccblffkhadfjdnmmjeklpppppp",
"ppppppahccccaccclmmmbhgaccffecgkmdffjeneelpppppp",
"ppppppgihggggggggjefh`ihgglklkhgjjjlblkjllpppppp"
};
