#define noname_width 48
#define noname_height 48
static char noname_bits[] = {
 0x00,0x20,0x00,0x00,0x00,0x00,0x80,0x0a,0x15,0x95,0x90,0x00,0x00,0x50,0xaa,
 0x42,0x04,0x00,0x80,0x8a,0x5f,0x0f,0x90,0x00,0x00,0xe4,0xff,0x15,0x40,0x00,
 0x80,0xe2,0xff,0x57,0x15,0x00,0x00,0xf9,0xff,0x9f,0x40,0x02,0x80,0xf8,0xff,
 0x7f,0x11,0x00,0x00,0xfd,0xff,0x6a,0x40,0x01,0x80,0xfc,0xbf,0xa2,0x13,0x00,
 0x00,0xff,0x3f,0x88,0x46,0x00,0x80,0xfe,0x4f,0x00,0x1e,0x01,0x80,0xff,0x2b,
 0x80,0x46,0x00,0x00,0xff,0x16,0x00,0x3c,0x01,0x40,0xff,0x4b,0x00,0x0d,0x00,
 0x00,0xff,0x15,0x02,0x5c,0x01,0xc0,0xff,0x13,0x90,0x1e,0x00,0x80,0xff,0x4a,
 0x01,0x5c,0x01,0x80,0xff,0xfd,0xa2,0x1a,0x00,0x40,0x7f,0xf5,0xeb,0x4f,0x01,
 0x80,0xff,0x5e,0xe5,0x2e,0x02,0x00,0xff,0xa9,0xa2,0x8f,0x00,0xc0,0x7b,0x52,
 0x2a,0x2a,0x02,0x00,0xff,0x05,0x42,0x89,0x00,0x80,0xaa,0x02,0x0a,0x52,0x02,
 0x40,0xb7,0x15,0x25,0x84,0x00,0x80,0x7f,0x45,0xa1,0x12,0x01,0x40,0xae,0xab,
 0xae,0xa4,0x00,0x80,0x7c,0xad,0x5d,0x93,0x02,0x00,0xd5,0xf6,0xd6,0x49,0x00,
 0x40,0x7a,0x55,0x75,0x25,0x01,0x00,0xd7,0xd7,0x5f,0x49,0x01,0x40,0x79,0xad,
 0xa8,0x12,0x01,0x80,0xc7,0x5b,0xd7,0xaa,0x00,0x40,0x75,0x6f,0x6a,0x49,0x01,
 0x80,0x87,0x7b,0xb5,0x24,0x01,0x40,0x4d,0xaf,0xaa,0xaa,0x02,0xc0,0x96,0xfa,
 0x5b,0xaa,0x00,0x80,0x0d,0xff,0xae,0x4a,0x01,0xc0,0x5a,0xd8,0x4b,0x55,0x02,
 0x80,0x35,0xea,0x29,0xa9,0x02,0xc0,0x5e,0x00,0x9b,0x2a,0x01,0x80,0x2a,0xa1,
 0x19,0x54,0x01,0x40,0x6b,0x40,0x33,0x40,0x02,0xc0,0xb6,0x40,0xb5,0x80,0x02,
 0x80,0xda,0xe0,0x62,0x02,0x01,0xc0,0x55,0xb1,0xa5,0x28,0x02,0x80,0xff,0xf1,
 0xd6,0x54,0x01};
