/* XPM */
static char *noname_xpm[] = {
/* width height ncolors chars_per_pixel */
"48 48 17 1",
/* colors */
"` c black",
"a c grey33",
"b c grey47",
"c c grey40",
"d c grey87",
"e c grey80",
"f c grey73",
"g c grey27",
"h c grey20",
"i c grey13",
"j c grey67",
"k c grey60",
"l c grey53",
"m c white",
"n c grey93",
"o c grey7",
"p s None c None",
/* pixels */
"ppppppddededededddddddddnnnnnnmnmmmmmmmmmmpppppp",
"ppppppdedeeedeeddddddddndnnnmnmnmmmmmmmmmmpppppp",
"ppppppdedeeeeeddeddddnnnmnnnnnmnmmmmmmmmmmpppppp",
"ppppppedeeeeeeeddddnmmmmmmmmmnmmnmmmmmmmmmpppppp",
"ppppppdeeeeeeededdmmmmmmmmmmmmnmmmmmmmmmmmpppppp",
"ppppppeeeeeeeeeddmmmmmmmmmmmmmmmmmmmmmmmmmpppppp",
"ppppppeeeeeeeedddmmmmmnnnddmmmmmnmmmmmmmmmpppppp",
"ppppppeeeeeeeeedenmmmnfeefdmmmmmmmmmmmmmmmpppppp",
"ppppppeeeefeeeeffdedndjfffdmmmmmmmmmmmmmmmpppppp",
"ppppppeefeeeeedffffdefkjfffmmmmnmmmmmmmmmmpppppp",
"ppppppeeefeejfeffffddejkjfjfnnddmmmmmmmmmmpppppp",
"ppppppeefeffkljjfejdnneeedeeedejdmmmmmmmmmpppppp",
"ppppppeefeflccljnnenmmmnmmmnnejlkmmmmmmmmmpppppp",
"ppppppefefkagcknmmmmmmmmmmmmmdjlcfnmmnmmmmpppppp",
"ppppppeeffcghcjnmmmmmmmmmmmmmmjbabdnmmmmmmpppppp",
"ppppppfefjcihcjnmmmmmmmmmmmmmmflagkdmnmnmmpppppp",
"ppppppeffkghoajdmmmmmmmmmmmmmnflagafnmnmnmpppppp",
"ppppppeffcoo`hkemmmmmmmmmmmmmnfkaigknnnnmnpppppp",
"ppppppfffg`ioibenmmmmmmmmmmmmnejaogjnmnmnmpppppp",
"ppppppeffa```icfnmmmmmmmmmmmmmdkaoadnnnnnnpppppp",
"ppppppffjc```iaenmmmmmmmmmmmmmdja`cdnnnnnnpppppp",
"ppppppfffb```ocednmmmnnmmmmmefkbghknnnnnnnpppppp",
"ppppppffjlggi`beeedfklkemmnlcaccacenndnnnnpppppp",
"ppppppjfjkkeelkeeejbgckfmmeaghggafdnddddndpppppp",
"ppppppjfjjedffjnndekafdnmmebjblccfdddddddnpppppp",
"ppppppfjjjejnfjdmmmmnmmmmmekemdfljddddddddpppppp",
"ppppppjjjjddmfkdmmmmmmmmmmdldmmdkkddddddddpppppp",
"ppppppjjjjfmnflfmmmmmmmmmmdlemmdkkededededpppppp",
"ppppppjjjkkemelkdmmmmmmnnmmlfmdflleeeeeedepppppp",
"ppppppjjjjkbjjllfnmmmmmdnmnbleflcjdeeedeeepppppp",
"ppppppjjkjkchlllkfdmmmmfllcgbjkcaeeeeeeeeepppppp",
"ppppppjjkkjbglllljfdmmmmnjlbkklacefefefefepppppp",
"ppppppjkkkklakllkkfenmmmmmmflbcgbefeffefefpppppp",
"ppppppjkkkklillbkkkfejfjllcgggggkffffffeffpppppp",
"ppppppjkkkkgiblbllkjjjlbcaaghcggfffjffffffpppppp",
"ppppppkkkklhogkbbllljefjffjagahbjjjjjjffffpppppp",
"ppppppkkkkbiiiblcblljjfkcaggaggjjjjfjfffffpppppp",
"ppppppkkklaghiikkabljednndjlagkjjfjfjfjfjfpppppp",
"ppppppkkklgahgogkkgalfenndflabjjjjjjfjfffjpppppp",
"ppppppkkkchggahihllhiabkklchgjjjjjjjjjjjfjpppppp",
"ppppppklbahhaagiihbbhoooooo`hjjjjjjjjfjfjjpppppp",
"pppppplbbggigcagiigccgho`oo``bjjjjjjjjjjjjpppppp",
"ppppppbbcga`iacahooabccgioo``okjjjjjjjjfjjpppppp",
"pppppplbcgh``gccaiigbbcahii```ajjjjjjjjjjjpppppp",
"ppppppkbchih`igacgiiacaghi````ilkjjkjjjjjjpppppp",
"ppppppklchhhi`iaaciiigghhh```ohgjjjjjjjfjjpppppp",
"ppppppjkaaaih`ihcaghhihhai```ihocjjjjjjjjfpppppp",
"pppppplciihh```ohhgo``oih```oho``acbbbbbbbpppppp"
};
