#define noname_width 48
#define noname_height 48
static char noname_bits[] = {
 0x80,0x22,0x22,0x41,0x80,0x00,0x00,0x49,0x59,0x15,0x2a,0x00,0x40,0x2a,0xff,
 0x57,0x80,0x00,0x80,0x44,0xff,0xbf,0x2a,0x00,0x00,0xa9,0xff,0xff,0x80,0x02,
 0x40,0xd5,0xff,0xff,0x25,0x00,0x00,0xf1,0xff,0xff,0x93,0x00,0x80,0xf4,0xbf,
 0xf7,0x07,0x00,0x80,0xfa,0xff,0xff,0x55,0x01,0x40,0xfa,0xff,0x5f,0x0f,0x00,
 0x80,0xfc,0xf5,0x4a,0x5e,0x02,0x00,0xfd,0xfb,0x07,0x9d,0x00,0x40,0xbd,0xd2,
 0xa2,0x3e,0x00,0x80,0xfe,0x03,0x00,0x79,0x01,0x00,0xbf,0x00,0x40,0x7e,0x00,
 0x40,0xff,0x05,0x00,0x75,0x01,0x80,0x7f,0x51,0x88,0x7e,0x00,0x00,0xff,0xec,
 0x43,0x7a,0x01,0x40,0x3f,0x51,0xf1,0x7f,0x00,0x40,0x7f,0x74,0x69,0x3b,0x01,
 0x80,0x7f,0x89,0xf0,0xbd,0x00,0x40,0xba,0x40,0x2a,0x3b,0x01,0x80,0x77,0x02,
 0xb1,0x8e,0x00,0x40,0xb6,0x00,0xa8,0x3a,0x01,0x80,0x77,0x41,0x51,0x8e,0x00,
 0x40,0xf6,0x8a,0xb0,0x3a,0x01,0x80,0x7f,0xa4,0xaa,0x4e,0x02,0x80,0x7c,0xd3,
 0x7f,0x9d,0x00,0x40,0xf7,0xf4,0xbf,0x4f,0x02,0x80,0xfc,0xf5,0xfe,0x2d,0x01,
 0x80,0xf8,0xbb,0xf5,0xae,0x00,0x80,0xf0,0xff,0xfe,0x4f,0x02,0x40,0xe8,0x5f,
 0xff,0x97,0x00,0x00,0xe0,0xbf,0xef,0x4f,0x02,0x00,0xe0,0x7f,0xff,0x53,0x01,
 0x00,0x80,0xdf,0xfb,0x2b,0x01,0x00,0xc0,0xff,0xff,0xa5,0x02,0x00,0x80,0xfe,
 0xff,0x92,0x00,0x00,0x00,0xff,0x3f,0x55,0x01,0x00,0x00,0xfe,0xdf,0x48,0x02,
 0x00,0x00,0xfc,0x2f,0x55,0x01,0x00,0x00,0xe8,0xb6,0x28,0x01,0x00,0x00,0xb8,
 0xab,0xa0,0x02,0x00,0x00,0xc4,0x5e,0x42,0x01,0x00,0x00,0x96,0x85,0x00,0x01,
 0x00,0x00,0x0d,0x3a,0x20,0x02,0x00,0x80,0x12,0x07,0x80,0x00,0x00,0x84,0x14,
 0xae,0x54,0x02};
