/* XPM */
static char *noname_xpm[] = {
/* width height ncolors chars_per_pixel */
"48 48 17 1",
/* colors */
"` c black",
"a c grey33",
"b c grey47",
"c c grey40",
"d c grey87",
"e c grey80",
"f c grey73",
"g c grey27",
"h c grey20",
"i c grey13",
"j c grey67",
"k c grey60",
"l c grey53",
"m c white",
"n c grey93",
"o c grey7",
"p s None c None",
/* pixels */
"ppppppffjfjfjfjfffffffefeeeeeeedededdddddnpppppp",
"ppppppjfjfjjjfjfffffffffefeeedeededdedddddpppppp",
"ppppppfjjjjjjjjfjjjddjjjfeeeeeededeededddnpppppp",
"ppppppjfjjjjjjjkcgaljahhcjeeeedeededddddddpppppp",
"ppppppjjjjjjjkcihihgbci`ocjfeeededededdddnpppppp",
"ppppppjjjjjjkh`oihiigaiighalfedeededededddpppppp",
"ppppppjjjjkli``oooo``ohhblchakeedededdddddpppppp",
"ppppppjjjjlg````o`````hgljkhohkeededededddpppppp",
"ppppppjjkkgi`````````igbjjkcioafdedededdddpppppp",
"ppppppjjjc`oio``oooohckefjkbgoikedededeeddpppppp",
"ppppppjjkh``i````ohglfdnejklcoocedededededpppppp",
"ppppppjjko``hoooohgkdmmmnfklci`gedeedededdpppppp",
"ppppppjjko`oaho`icfnmmmmnfjbci`hfeedeeeedepppppp",
"ppppppjjkh`obcaajnmmmmmmnfjlco`hfdeeeededepppppp",
"ppppppjkkc`oljjfnmmmmmmmnejlco`heeeeeeeeedpppppp",
"ppppppjjkl`ilfedmmmmmmmmnejkci`aeeeeeeeeeepppppp",
"ppppppjkjl`gkjfdmmmmmmmmdjjlci`ceeeeeeeeeepppppp",
"ppppppjjkk`gbbcbkdmmndfbccccai`lfeefeeeeeepppppp",
"ppppppjkklgacghhhgcjlcgooihigi`alefefefeeepppppp",
"ppppppkjlblagho``ihlfhio``oihhhaaffeefeefepppppp",
"ppppppjkkjjbagihiggkdhhgiiihhggacffffeffefpppppp",
"ppppppjkkjeahaghgaajnagghggggggabffefffefepppppp",
"ppppppkkkkfbccccbcbenbaacaaaagaakfffffffffpppppp",
"ppppppkkkkjlkcbbbbjenkblbccbcgcbjfffffffffpppppp",
"ppppppkkkkkblfeffjfenklkfeekagajffffjfffffpppppp",
"ppppppkkkkkccljjklackgigbllaggljjfjfjfjfjfpppppp",
"ppppppkkkkkcaccggh``````ohgggaffjfjjjjfjfjpppppp",
"ppppppkkklkbaccoo`o``oo`o`gggbjjjjjjjjjjjjpppppp",
"ppppppkkkkklaacaaacbbbaggaahgkjjjjjjjjjjjjpppppp",
"ppppppkklklkcgablcbccccacchhhkjjjjjjjjjjjjpppppp",
"ppppppklkkkkchggblllbbbcaghihjjjjjjkjkjjkjpppppp",
"ppppppkklkllhghgacllklbagiiihlkjjjkjkjkjkjpppppp",
"ppppppklllkciaghhacbbccghoihhakjkkkkkkkjkjpppppp",
"ppppppkkklbahcchihhghghioihhggkjjjkkkjkkkkpppppp",
"ppppppklllbcabcahiooo`ooiihgggckkkkklkkkkkpppppp",
"pppppplkjbccclbbahoo`ooohhgaggabjkllllkkkkpppppp",
"ppppppkllcbbclllccggiihhhaachaclljkkkkkkkkpppppp",
"ppppppbllccbcckklcaccggaaccchbllbllkkklklkpppppp",
"ppppppblccbbbakjjlcaagacbblchbllccblkkkklkpppppp",
"ppppppbbbccbbacjjklcacblkllcgbklcccbkjjkklpppppp",
"ppppppbbccbcgigljjkllljjkklcabkllcablkjjjkpppppp",
"ppppppbbccao``ickjjjkjjjkkbbaihcbbaallkfffpppppp",
"pppppplbca``iighckjjfjeffkbco````ccabllfjepppppp",
"pppppplcciigacaagclfjjjjkbch`iio`occcllkkjpppppp",
"pppppplbhgccccccagalllllcchoohghhhhccbblkkpppppp",
"ppppppkbcbbbbbccccgaallbchiogachaaagcbblllpppppp",
"ppppppklllbbbbbcbbaahabchiigcccgccbbbbblkkpppppp",
"ppppppccccacaaaaggahiohooihggggiggaaaaaaccpppppp"
};
