/* XPM */
static char *noname_xpm[] = {
/* width height ncolors chars_per_pixel */
"48 48 17 1",
/* colors */
"` c black",
"a c grey33",
"b c grey47",
"c c grey40",
"d c grey87",
"e c grey80",
"f c grey73",
"g c grey27",
"h c grey20",
"i c grey13",
"j c grey67",
"k c grey60",
"l c grey53",
"m c white",
"n c grey93",
"o c grey7",
"p s None c None",
/* pixels */
"pppffffeejkjjjjffjlahoo`o`ogbjfeednnnndefkkkpppp",
"pppfjlkjkllllcacbbbgio````ohckjkkkfeefjcgcbcpppp",
"pppjcaaghgghghhghggho`````oiaaaahhgbfjahhacapppp",
"pppggiihiiiooiiiiiiio`````oiiihgghihfjcagbckpppp",
"pppgihoiioooooioioiiioo```ohiiihbklafejjlkjfpppp",
"ppphiiiiioooooooooiiiiiio`ogcbabkjjljdedeeefpppp",
"pppooiiooo`ooooioohiiiioiooglfjjfdkkfneddeejpppp",
"pppoo``o`oooooooooiooiooiiohbjeeefjkemefjffkpppp",
"ppp```````iioiiioooioiooooihabjjjbbbfdfjkcllpppp",
"pppoooo`oo`ooio`ooi`ooo`o`iihgbllciohccjkccbpppp",
"pppoioooooo`ooooo`o`oooiiooiihgccchoohkkblkbpppp",
"ppp`ooiiioiiiiiiohiooi``oiooiiachihoihahljlapppp",
"pppohggaaaljjlbhhioi`ooiooooihgkaooiiigcfjcgpppp",
"ppphacblfenmmnfbjhgh`oooi``o`ihhiioooooiabohpppp",
"pppbcbkeddnmmmmklglao`ooi`oooooioooooooooioipppp",
"ppplkjeddnnmmmmnejjcoo`oiooooooooooooo`ooooopppp",
"pppjfeeddnnnmmmndejlhoooo`oooooooo```ooo`ooopppp",
"pppjeeddnnnmmmmnddejaio`o`oooooo``oooo`ooooopppp",
"pppfffddnnnnmmmnndeeboo`oooo`o``oooooooo``oopppp",
"pppbljfeddddnmmnddeeki`ooo`o``ooooihhhioooo`pppp",
"pppagakfeeefjkkjeedeeg`o`o``o`ooiggaabchiooopppp",
"pppklcckfejkblbjjjedei`o```o`ohaccacacbaiiiopppp",
"pppljkgbjejljeefjjeeko```o``ogccllbcacccghhipppp",
"pppablbcfejlkjeffeeeh`o```oihacclbbccccaaahhpppp",
"pppbljjkddflcbkkfeejo```ooiggcccllbccccaacahpppp",
"pppeeeffnddekllfdddl````oiihcaaablcccccaacagpppp",
"pppedeeemdnmnddnmndb```oiihhaagaabllllcaaaagpppp",
"pppfjkedmdmmnnnmmndk```oiiihhhggackjagagggggpppp",
"pppbljemnddednnmmdejo``ooiiihhhggaaghaaagghhpppp",
"pppbbkjdnddkkfddddfji``ooooiihhhghoohcbchgggpppp",
"pppcihbkjefkckfeeefjh``ooooiihihhihigaaihacapppp",
"pppgiiihhgbjbgljkjjkg```oohhhhhhihhiooogaccapppp",
"pppihhhgclffkgcklkkla```ooihhhhihhho`ohgabcapppp",
"pppo`hhbllklbhblklklh```oooooihihbcahhhaclbapppp",
"pppaiohabaghhcbllllco````o``oooihbbbcgaaclcapppp",
"pppkcahihggljkllkkcgo``````````ogcccchihggggpppp",
"pppkbljkjfeeekkllcghoooio`ooo`o`gcbbbciooohipppp",
"pppkbcbkkffefjkbcaahooiii`o`ooiogcbjkbaahooopppp",
"pppkllbbkjeffjbbacbgooooio``ooiogackbgbcghoopppp",
"pppkkjjfffeejklbllkhoo``oiooihhoigagihhiiio`pppp",
"ppplkjjeeeefklkkkklho````oi`hhiooiioooigggoipppp",
"pppakkjffffjlkjkkllho`````ooihi````o`igakjgapppp",
"ppphcbbkkjkbkkkkllkho```````oio````oihbkfkccpppp",
"ppphigallbcklllbbkjai`o`````ooo````ohcdjebcapppp",
"pppihihggabbcccbjjjaiioi`````o````oigkkfbcagpppp",
"pppiiihhhagggabjfjkbhihio`````o`````ogbaggggpppp",
"ppphiiiihhhgaljjjkjjghbgo`o````o``o`ihghhhigpppp",
"pppiiiiiihhckkjkjjffbclki`o`````oo`ooihioohapppp"
};
