/* XPM */
static char *noname_xpm[] = {
/* width height ncolors chars_per_pixel */
"48 48 17 1",
/* colors */
"` c black",
"a c grey33",
"b c grey47",
"c c grey40",
"d c grey87",
"e c grey80",
"f c grey73",
"g c grey27",
"h c grey20",
"i c grey13",
"j c grey67",
"k c grey60",
"l c grey53",
"m c white",
"n c grey93",
"o c grey7",
"p s None c None",
/* pixels */
"pppppphhhhhhhhhhhhcacbfbhggghhghhhhhghhhhhpppppp",
"pppppphhhhhhhhhhhgaccbdjbaggaghghghghghghhpppppp",
"pppppphhhhhhhhhhhhhhhgbbblblbcaghhhhghhhhhpppppp",
"pppppphhhhhihhooooo```ohbhoibkcggghghhghhhpppppp",
"pppppphhhhhhho``````````igo`hcchhghhghhhhhpppppp",
"pppppphhhhhho```````````ohi``oio`hghghghghpppppp",
"pppppphhhhho````````````oo````````gghghhhhpppppp",
"ppppppghhhh```````````````````````ohggggghpppppp",
"pppppphhhho````````````````````````ighghhgpppppp",
"pppppphhhh`````````````o````````````hgghghpppppp",
"pppppphghi````````````````````o`````iggghhpppppp",
"pppppphhho``````````````ooio`io`````igggggpppppp",
"pppppphgho```````````oggcbbahiiio````ggghgpppppp",
"pppppphhh```````````iabkjjjkagih`````gggggpppppp",
"pppppphhi```````````aljfddeekahh`````gggghpppppp",
"ppppppghi``````````hlfeddnddfbaio```ogggggpppppp",
"pppppphhi`````````oakeddndnddjaihi``igggggpppppp",
"ppppppghi`````````gljedddnddeekaaa``iaagggpppppp",
"ppppppghi```````oalkjeeddddddefklc``haggggpppppp",
"pppppphgoio`````abblkjkjjfeeefjklco`gaagagpppppp",
"ppppppghhho````hbbbbccahhgbffkbagg`oagagggpppppp",
"ppppppghgago```ablbcghiiiiajkhooio`haagaagpppppp",
"ppppppghacci``ocblbahiibggafji`ooooaagaaggpppppp",
"ppppppghhbaio`ocbkjlccccacbffaggihiaaaagagpppppp",
"ppppppgiobaagigcbkjfjlbbllkfebaghghaagaaggpppppp",
"ppppppho`bbcagcbbljffeffjjjfekcccaaaaagaagpppppp",
"ppppppgo`akkaacbclkjeddejjkfdjclbgaaaaaaggpppppp",
"ppppppg``olkcacbclljfefkckkjdecbbgaaaagaagpppppp",
"ppppppg``ogghgcccblkkjlbckkkfjaccgaaagagagpppppp",
"ppppppgo`ogghgcbcbbblbclbhhgccgaagaaaaagagpppppp",
"ppppppghohacggacbbcbcaabchiooiagghaaagaagapppppp",
"pppppphghhacaagcbbbbchihiooi``ihggaaaagaggpppppp",
"ppppppagggabaaaablbbcoooo`hh```hhgaagaagagpppppp",
"ppppppmnlgcbcaacclbbgigioioooo`hhaaaaagaggpppppp",
"ppppppnmnjbbcaaccbbbaaccaagaihihgagagaggggpppppp",
"ppppppdnmmnkbacccccccbbcaaaghhhhagaagagaggpppppp",
"ppppppmmmmmmebcccccccbbbcgghhhhggaggagggggpppppp",
"ppppppmmmmmmmebcccccabbbbbcaghhagggaggagggpppppp",
"ppppppmmmmmmmmnkccccccbbklbahigggagagaggggpppppp",
"ppppppmmmmmmnmmmfbcccaacccahigagagggggagggpppppp",
"ppppppmmmmmmmmmmmnkccagggghihgggggagagggggpppppp",
"ppppppmmmmmmmmmnmmmdbcaghhhhkaggggggggggggpppppp",
"ppppppmmmmmmmmmmnmmmmjahghilfdcggggggaggggpppppp",
"ppppppmmmmmmmmmmmnmmmnnliigkkdkggagaggggggpppppp",
"ppppppmmmmmmmmmmmmnnmmmeflljjdlgggggagagggpppppp",
"ppppppmmmmmmmmmmmmmmemmfejkbndcgggggggggggpppppp",
"ppppppmmmmmmmmmmmmmnmnnjjnkakjggagagaaagagpppppp",
"ppppppdeeeeeedeeeeefeekkkelhachhhhhhhihhhipppppp"
};
