#define noname_width 48
#define noname_height 48
static char noname_bits[] = {
 0x00,0x00,0x00,0x00,0x00,0x00,0x00,0x00,0x40,0x2f,0x00,0x00,0x00,0x00,0xb0,
 0xf5,0x00,0x00,0x00,0x00,0xec,0xbf,0x03,0x00,0x00,0x00,0xf6,0xfb,0x0f,0x00,
 0x00,0x00,0xff,0x7f,0x3b,0x00,0x00,0x80,0xff,0xff,0x2f,0x00,0x00,0xc0,0xbd,
 0xff,0x3f,0x00,0x00,0xe0,0xff,0xff,0x7f,0x00,0x00,0xc0,0xff,0xff,0x7f,0x00,
 0x00,0xe0,0x97,0xf4,0x7f,0x00,0x00,0xe0,0x05,0x80,0xfe,0x00,0x00,0xe0,0x01,
 0x00,0xfc,0x00,0x00,0xf0,0x0a,0x00,0xfc,0x01,0x00,0xf0,0x00,0x00,0xf8,0x01,
 0x00,0x70,0x05,0x00,0xf8,0x01,0x00,0xf0,0x00,0x00,0xfc,0x01,0x00,0xf0,0x0a,
 0xa8,0xf0,0x01,0x00,0x60,0x2f,0xfe,0xf8,0x01,0x00,0xe0,0x7d,0xab,0xf1,0x00,
 0x00,0x60,0x3b,0x3e,0x71,0x01,0x00,0xa0,0x5e,0xd0,0x30,0x00,0x00,0x40,0x15,
 0x25,0xb0,0x00,0x00,0xc0,0x44,0x00,0x24,0x00,0x00,0x40,0x10,0x02,0x30,0x00,
 0x00,0x40,0x35,0x18,0x08,0x00,0x00,0x80,0xd8,0x47,0x24,0x00,0x00,0x40,0x6d,
 0xb9,0x12,0x00,0x00,0x80,0x57,0x2b,0x05,0x00,0x00,0x00,0xad,0x6a,0x29,0x00,
 0x00,0x80,0x3d,0xdd,0x0a,0x00,0x00,0x80,0xee,0x36,0x25,0x00,0x00,0x00,0x15,
 0xc9,0x0a,0x00,0x00,0x00,0xeb,0x56,0x15,0x00,0x00,0x00,0xd6,0xa9,0x15,0x00,
 0x00,0x00,0x2c,0x55,0x15,0x00,0x00,0x00,0xb8,0xf2,0x0a,0x00,0x00,0x00,0xd8,
 0x5d,0x05,0x00,0x00,0x00,0x70,0xf7,0x0b,0x00,0x00,0x00,0xe0,0xbf,0x02,0x00,
 0x00,0x00,0xf0,0xdb,0x03,0x00,0x00,0x00,0x50,0xff,0x01,0x00,0x00,0x00,0xe8,
 0xbf,0x00,0x00,0x00,0x00,0x80,0xea,0x00,0x00,0x00,0x00,0x64,0x7f,0x00,0x00,
 0x00,0x40,0x80,0x2a,0x00,0x00,0x00,0x40,0x60,0x15,0x06,0x02,0x00,0x20,0xc5,
 0x0f,0x7e,0x01};
