/* XPM */
static char *noname_xpm[] = {
/* width height ncolors chars_per_pixel */
"48 48 16 1",
/* colors */
"` c grey33",
"a c grey47",
"b c grey40",
"c c grey87",
"d c grey80",
"e c grey73",
"f c grey27",
"g c grey20",
"h c grey13",
"i c grey67",
"j c grey60",
"k c grey53",
"l c white",
"m c grey93",
"n c grey7",
"o s None c None",
/* pixels */
"ooooooollllllllllllllllllllllllllllllllllooooooo",
"ooooooollllllllllllllllllllllllllllllllllooooooo",
"ooooooollllllllllllllllllllllllllllllllllooooooo",
"ooooooollllllllllllllllllllllllllllllllllooooooo",
"ooooooollllllllllllllllllllllllllllllllllooooooo",
"ooooooollllllllllllllllllllllllllllllllllooooooo",
"ooooooolllllllllllllmmmciecmllllllllllllmooooooo",
"ooooooolllllllllllck`faffb`bemllllllllllmooooooo",
"ooooooolllllllllldgnnnnnnnnnnkmlllllllllmooooooo",
"ooooooollllllllmjhnnnnnnnnnnnnklllllllllmooooooo",
"ooooooollllllllannnnnnnnnnnnnnhcllllllllmooooooo",
"ooooooolllllllchnnnnnnnnnnnnnnnallllllllmooooooo",
"ooooooolllllllennnnnnhnnnnnnnnn`llllllllmooooooo",
"ooooooolllllllknnnnhgg`fgnnnnnnhmlllllllmooooooo",
"ooooooolllllll`nnfbkkjekik`fgnnnmlllllllmooooooo",
"ooooooollllllmfnhbjedcciedij`nnnmlllllllmooooooo",
"ooooooollllllmfnnbiedccdddejahnhmllllllllooooooo",
"ooooooolllllllfnhajidcmmcia``fnfmllllllllooooooo",
"ooooooolllllllang`hgficce`kk`bnfmllllllllooooooo",
"ooooooollllllljn`fkeeidcikb`akhgcllllllllooooooo",
"ooooooolllllllknba```ajdjjkkkjgkmllllllllooooooo",
"ooooooolllllllihbjjieeididccejbelllllllllooooooo",
"ooooooollllllleafjeccdididmmdjaelllllllllooooooo",
"ooooooolllllllcibkecmdiceimmdjaelllllllllooooooo",
"ooooooolllllllmjaaecmeajkiccejakmllllllllooooooo",
"ooooooolllllllcbkaiddahfgfaeejfgmllllllllooooooo",
"ooooooollllllldhg`ie`h`kk``jejg`mllllllllooooooo",
"ooooooolllllllcgngjiijkiijeeiah`mllllllllooooooo",
"ooooooollllllllannbiidddddeikfnblllllllllooooooo",
"ooooooolllllllljnnhbkieccdiafgnjlllllllllooooooo",
"ooooooollllllllcgnggfajddiagfbbmlllllllllooooooo",
"ooooooollllllllldfhafhfbafhfabhblllllllllooooooo",
"ooooooolllllllllmjhajaf`bbakjahnjmlllllllooooooo",
"ooooooollllllllldbnaijjjejjiik`hgbjdlllllooooooo",
"ooooooolllllllmebhnaieijjjieijanhgkk`kdmlooooooo",
"ooooooollllmcjkkannaieeeedeeejfngfka`bbbaooooooo",
"ooooooolldjabb`kjgngieddddddebnh`kkfg`b`booooooo",
"ooooooockb``bafbjkgngjdddcddanhbkja`ffkbkooooooo",
"ooooooo``ab`k`ggajj`nnaecccdhgajjkfgnf``jooooooo",
"ooooooofbfbaabnggajjjbfgkcekbkjjkfgfnhh`jooooooo",
"ooooooofggf`g`nnfgbjjjiijijjjjjkbf`agg`ffooooooo",
"oooooooffhnhfnnf``gbajjijjjjjkjab`kkbnhb`ooooooo",
"oooooookghngb`gak`b`kijkkbbkbkj`ffakahghnooooooo",
"ooooooojgfhnfhgbkaffbjkaa`bbbjb`gbbaagbghooooooo",
"ooooooojgbafgnhakb`g`aj```fgh``gbjkbjjbfhooooooo",
"oooooooafbaf`bbkbbj`f`fhfgfbgf``jakakjbaaooooooo",
"ooooooo`bbkaaajb`jjj`g`gkbbkfbhbjaajbbbkiooooooo",
"ooooooobaaakjab`akajbhfbjjkj`fggb`aiaafbbooooooo"
};
