/* XPM */
static char *noname_xpm[] = {
/* width height ncolors chars_per_pixel */
"48 48 17 1",
/* colors */
"` c black",
"a c grey33",
"b c grey47",
"c c grey40",
"d c grey87",
"e c grey80",
"f c grey73",
"g c grey27",
"h c grey20",
"i c grey13",
"j c grey67",
"k c grey60",
"l c grey53",
"m c white",
"n c grey93",
"o c grey7",
"p s None c None",
/* pixels */
"ppppppmmmmmmmmmmmmmmdennmmmnmmmmmmmmmmmmmmpppppp",
"ppppppmmmmmmmmmmmdkkkkjljjnefjkemmmmmmmmmmpppppp",
"ppppppmmmmmmmmmmkghggghglcacccaalnmmmmmmmmpppppp",
"ppppppmmmmmmmmmdhiiooiiooihagaihgcnmmmmmmmpppppp",
"ppppppmmmmmmmmmkhoo`oogbchioiiiihhcmmmmmmmpppppp",
"ppppppmmmmmmmmmlo```ohiooiooo``oihhkmmmmmmpppppp",
"ppppppmmmmmmmmdao```oooo`io``oooihhhnmmmmmpppppp",
"ppppppmmmmmmmego````````ooo``ooooihikmmmmmpppppp",
"ppppppmmmmmmmcio`ii````````o`ooooooihmmmmmpppppp",
"ppppppmmmmmmdhoiiblai```````ooooo```ofmmmmpppppp",
"ppppppmmmmmmjho`ajjklgioooo`oooooo``okmmmmpppppp",
"ppppppmmmmmmbo`objjjeflcclbaggacjgo``bmmmmpppppp",
"ppppppmmmmmmco`hljjfedmnmmmnnmmmmnjl`ammmmpppppp",
"ppppppmmmmmmg`ogjjjjedmmmmmmmmmmmmmdigmmmmpppppp",
"ppppppmmmmmmao`cjjkfedmnmmmmmmmmmmmnigmmmmpppppp",
"ppppppmmmmmma``cjjjjemmmmmmmmmmmmmmnhgmmmmpppppp",
"ppppppmmmmmmc`objkjjemmmnmmmmmmmndmnacmmmmpppppp",
"ppppppmmmmmmh`olkklcbkeddedennekllfmalmmmmpppppp",
"ppppppmmmmmmi`ilkccgioickjkkkciihclncjmmmmpppppp",
"ppppppmmmmmmaoollaahiiihglkbghihbllelemmmmpppppp",
"ppppppmmmmmmlahlbachiohbclekkgiiefklfmmmmmpppppp",
"ppppppmmmmmmfcckbaaaagaacbkljcacklebemmmmmpppppp",
"ppppppmmmmmmeclkbaaccaccajmellbbkknbnmmmmmpppppp",
"ppppppmmmmmmnklllblljkbaaemnbkjfedfbnmmmmmpppppp",
"ppppppmmmmmmmjlblbkkkbaacfmmkblfdnkjnmmmmmpppppp",
"ppppppmmmmmmmfbbbljklblllledejjfdneenmmmmmpppppp",
"ppppppmmmmmmmelbblbaghigihaaacggbjdenmmmmmpppppp",
"ppppppmmmmmmmmjcbccahihgghhallcgbjeemmmmmmpppppp",
"ppppppmmmmmmmmncccahhigacljkklcackfemmmmmmpppppp",
"ppppppmmmmmmmmmlcaaciihgacbbbbhhbkfnmmmmmmpppppp",
"ppppppmmmmmmmmmfgaaccbbaaggabkfbkjfmmmmmmmpppppp",
"ppppppmmmmmmmnbhhgagabllllljffjllknmmmmmmmpppppp",
"ppppppmmmmmmmkoihhhgacbbbccljjjlbemmmmmmmmpppppp",
"ppppppmmmmmmdchohghigcbkkjjeffkbakmmmmmmmmpppppp",
"ppppppmmmmmmkaa`iaghihcllkjjjkccacenmmmmmmpppppp",
"ppppppmmmmmmcacigcahhiihaacccaclhgkfdendmmpppppp",
"ppppppmmmmmeaaaahbagghhioiihabljigkljlffcfpppppp",
"ppppppmmmfklcaaaaccagghhiohalkkkoglcllbjcbpppppp",
"ppppppmmelccaaaaaacaaagghhablkkk`glccbckbapppppp",
"ppppppndjbaaaaaaaghccaagggabbkkc`hbaabablbpppppp",
"ppppppkbkjagaaaagaghccaagggcbklh`hacgcagbbpppppp",
"ppppppjkcccggaaaagghgcaaghhcblco`h`ghcghgbpppppp",
"ppppppffkcaagaaagaiohcaaaaacbbgoh``hhaahicpppppp",
"ppppppjbklcaaaaagao`oiggaaaccgihi``ogaagihpppppp",
"ppppppnfblbaagagag```iihgaaggihhi``ohgcgiipppppp",
"ppppppfdjclaaagaag```oiohacghhhhh``oghaahipppppp",
"ppppppfkfkccaagaag```iihhgahagghci``ghaachpppppp",
"ppppppllccaghhhiho````oooioohhiihio`hohhhhpppppp"
};
