/* XPM */
static char *noname_xpm[] = {
/* width height ncolors chars_per_pixel */
"48 48 17 1",
/* colors */
"` c black",
"a c grey33",
"b c grey47",
"c c grey40",
"d c grey87",
"e c grey80",
"f c grey73",
"g c grey27",
"h c grey20",
"i c grey13",
"j c grey67",
"k c grey60",
"l c grey53",
"m c white",
"n c grey93",
"o c grey7",
"p s None c None",
/* pixels */
"ppppppjjjjjjkkkllklklkkkkkkkkkjjjjjjjjjfffpppppp",
"ppppppjkjkjjjjkkklklklkllcacclkkjjjjjfjfffpppppp",
"ppppppjjjjjjjjkklkllkbahiooiigclkjjjffffffpppppp",
"ppppppkjjjjjjjkkklkbhooo``oooigabkjjjjjfffpppppp",
"ppppppjjkjjjjjkklkcio`oooi````ihgakjjfffffpppppp",
"ppppppjjjkjjjjjkkci````o`oo`o``ihigljjjjjfpppppp",
"ppppppjjjjjjjjkkc``````o```````ooiigkjjjffpppppp",
"ppppppjjkjjjjjkl````````oo`o`````oohcjjfjfpppppp",
"ppppppjjjkjjjjja``````````````````ooiajfjfpppppp",
"ppppppjjkjjjjjkh```````````````o`o`oiibfffpppppp",
"ppppppfjjjkjjjlo``````ooooo`````oooooigjffpppppp",
"ppppppfjjjjkjjb``````oihggio`o`ooiooooijffpppppp",
"ppppppfjjjjjjja````oohalkkbgioiiihhoo`okjfpppppp",
"ppppppffjjjjjkh``iaclljfeefjkcghhggio`obffpppppp",
"ppppppfjjjjjjlo``glljjjefffjjjlaacghoo`lffpppppp",
"ppppppffffjjjkh`ogbkkjfeeffffjklccaho`ocffpppppp",
"ppppppffjjjjjjh`oalkkffefffjjjklbccgo`obffpppppp",
"ppppppffjfjjjli`iclkjfeeefffffjlbbagi`okjfpppppp",
"ppppppffjjjfjai`gcaacbllkkjjklklcaaghookfjpppppp",
"ppppppffjfjjkghohcaaghigabklcahhhhhgh`ikfjpppppp",
"ppppppffjjjjkacigcacghhhgcbaghihagghhoaljjpppppp",
"ppppppfffjjjkchhaaghhhgggbkahhhiihhgigaljjpppppp",
"ppppppffjjjjkagaaagaccccckkaaacghhhghgaljjpppppp",
"ppppppfjfjjjkcgaabbccaacckkaaaaaggggaaakjjpppppp",
"ppppppfjjjjjkbbaablklkklbkkcccccaaagaackjjpppppp",
"ppppppffjjjkjbcaabljjjklbkkccbblbbcgaackkjpppppp",
"ppppppfjjjjjkkbcgclkfjkbbkjbabllbcagacbjjjpppppp",
"ppppppfjjjjjjkkcaablklaaallcgabbccggabkkjkpppppp",
"ppppppfjjjkkjkklgacbbaagigghggaccaggbkjkjkpppppp",
"ppppppfjjkjjkjklaaaaahhiihiiiggaagaglkkjkkpppppp",
"ppppppfjjjkkkkkkgaaahiioihiioihagggakkkkkjpppppp",
"ppppppjjjkjkjkkkaaagioooihhiooihgggakkkkkkpppppp",
"ppppppjjjjkkkkkkcggio``ooioo`ooigggbkkkkkkpppppp",
"ppppppjjjkkjkkkkcggioioiihiioooogggkkkkkkkpppppp",
"ppppppjjkjkkkkkkbgghhhghhgghiiiiggajkkkklkpppppp",
"ppppppjjjkkkkkkkchggggcahhhhgahhggafkkkkkkpppppp",
"ppppppjjkkkkkkkkcgghgacbccacccggggcfkkkkklpppppp",
"ppppppjjjjkkkkfjlgggggabbccccaggggleejkkkkpppppp",
"ppppppjjkkjfendfjggghgggaaaggghhgcjfmmnejkpppppp",
"ppppppjjenmmdndfjlhgghhhhhhhhhhggkjfmmmmmnpppppp",
"ppppppemnnmnnddfjfcgghhhiiiihhggljjfdnnmmmpppppp",
"ppppppmmnmnneeffjfjahghhiiihhhgljjjffefdnmpppppp",
"ppppppmmmmddeeeffffjahghhiiihhljjjjfeffdnnpppppp",
"ppppppmnnnddedeefefjjaghhhhhakjjjfffffjfndpppppp",
"ppppppnnnndddddefdddefkghhglffffefjffefeempppppp",
"ppppppnmnmnnnndeffdnnnnlcbfmndddeffjfeeeenpppppp",
"ppppppmmmmdnnnddeeenmnbiblaemmdejfjfededddpppppp",
"ppppppeeeejefeffkkkjfb`oohoojfjlllkkjjjjjjpppppp"
};
