#define noname_width 48
#define noname_height 48
static char noname_bits[] = {
 0x00,0x40,0x00,0x00,0x08,0x00,0x40,0x25,0x00,0x01,0x12,0x00,0x00,0x10,0x00,
 0x80,0x08,0x00,0x40,0x42,0x00,0x01,0x02,0x00,0x00,0x08,0x40,0x00,0x08,0x00,
 0x40,0xa2,0xa0,0x41,0x22,0x00,0x00,0x00,0xf8,0xfa,0x09,0x00,0x40,0x52,0xfc,
 0xef,0x07,0x00,0x00,0x08,0xff,0xff,0x0f,0x00,0x80,0x42,0xff,0xff,0x2f,0x00,
 0x00,0x90,0xff,0xff,0x1f,0x00,0x40,0x82,0xff,0xff,0x3f,0x00,0x00,0xa9,0xff,
 0xff,0x3f,0x00,0x40,0xc0,0xff,0xff,0x3f,0x00,0x00,0x91,0x47,0xff,0x3f,0x00,
 0x40,0x84,0x17,0x40,0x3f,0x00,0x00,0x91,0x0b,0xa8,0x3f,0x00,0x40,0xa0,0x55,
 0xd4,0xbe,0x00,0x00,0x89,0x6b,0xab,0x3d,0x00,0x80,0x20,0x77,0xfc,0x3e,0x00,
 0x00,0x82,0x5d,0x55,0x3f,0x02,0x80,0x28,0x45,0x92,0x7c,0x00,0x00,0x81,0x29,
 0x45,0x2f,0x00,0x80,0x28,0x85,0x82,0x5e,0x01,0x00,0x01,0x63,0x57,0x3f,0x00,
 0x80,0x54,0xd5,0x8a,0x5d,0x01,0x00,0x01,0x23,0xa5,0x3e,0x00,0x80,0x54,0x5a,
 0xad,0x1f,0x02,0x80,0x22,0x6b,0x5d,0xaf,0x00,0x40,0x10,0xb4,0xca,0x1e,0x02,
 0x80,0x4a,0x56,0xb5,0xaf,0x02,0x40,0x25,0x6c,0xdb,0x3f,0x01,0x00,0x28,0x59,
 0xb5,0xaf,0x02,0x40,0x4b,0xb4,0xfa,0x7b,0x01,0x80,0x10,0xb9,0xfe,0xfe,0x02,
 0x40,0x55,0xf2,0xfd,0xdf,0x02,0x80,0x24,0xf4,0xbf,0xfa,0x01,0x80,0x52,0xe9,
 0xff,0xfe,0x02,0x40,0x15,0xf5,0xaf,0xeb,0x03,0x00,0xa9,0x68,0xb7,0xde,0x02,
 0x40,0x95,0xfa,0xcd,0xfb,0x01,0x40,0x55,0x6a,0xf7,0xfe,0x03,0x80,0xaa,0xfd,
 0xb5,0x5b,0x03,0x80,0xaa,0xbe,0xfa,0xff,0x03,0x40,0xd5,0xff,0xde,0xee,0x02,
 0x40,0x75,0x7f,0xff,0xff,0x03,0x80,0xfe,0xff,0xff,0xdb,0x02,0xc0,0xfb,0xfd,
 0xff,0xff,0x03};
