/* XPM */
static char *noname_xpm[] = {
/* width height ncolors chars_per_pixel */
"48 48 11 1",
/* colors */
"` c grey33",
"a c grey47",
"b c grey40",
"c c grey27",
"d c grey20",
"e c grey13",
"f c grey67",
"g c grey60",
"h c grey53",
"i c grey7",
"j s None c None",
/* pixels */
"jjjjjjjhhhghggggggggggggggggggggggggggggjjjjjjjj",
"jjjjjjjhhhhhggggggggggggggggggggggggggggjjjjjjjj",
"jjjjjjjgggggggggggggggggggggggggggggggggjjjjjjjj",
"jjjjjjjgggggggggggggggggggggggggggggggggjjjjjjjj",
"jjjjjjjgggggggggggggggahggggggggggggggggjjjjjjjj",
"jjjjjjjgggggggggggghbcdbggggggggggggggggjjjjjjjj",
"jjjjjjjgggggggggh`cceiedbbbahfggggggggggjjjjjjjj",
"jjjjjjjggggggggbbdiieiiedeeecbffggggggggjjjjjjjj",
"jjjjjjjgggggggbeeiiiiiiiiieeddhffgffgfggjjjjjjjj",
"jjjjjjjfggffhadiiiiiiiieiiiiiedfffffggfgjjjjjjjj",
"jjjjjjjgffff`eiiiiiiiiiiiiiiieebffffffffjjjjjjjj",
"jjjjjjjgfffgciiiiiiiiiiiiiiiieiigfffffffjjjjjjjj",
"jjjjjjjhgffgeieiiiiiiiiiiiiiieii`fffffffjjjjjjjj",
"jjjjjjjhgffbeeiiieiiiiiiiiiiiieeibffffffjjjjjjjj",
"jjjjjjjhhffceeiiieiiiiiiiiiiiieeedffffffjjjjjjjj",
"jjjjjjjhhgfdeeiiiiiiiiiiieiiiieeeehhffffjjjjjjjj",
"jjjjjjjhhggeeeeeieiiiiiiieeeeeeeeeeaffffjjjjjjjj",
"jjjjjjjhhh`eieeeeeiiiiiiiieedddeeedfffffjjjjjjjj",
"jjjjjjjhhh`eeedddeeiiiiieeed`b`eeiehffffjjjjjjjj",
"jjjjjjjhhh`eedb`cdeeeeeeedc`bb`diii`ffffjjjjjjjj",
"jjjjjjjhhh`idchhab``dddccbbbbb`diiicffffjjjjjjjj",
"jjjjjjjhhh`iddhhhhhbbc``baaabb`ceiiaffffjjjjjjjj",
"jjjjjjjhhhaedchhhhhaabaaaaaabbb`eiihffffjjjjjjjj",
"jjjjjjjhhhgedchhhgghhhhhaaaabbb`deehffffjjjjjjjj",
"jjjjjjjhhgfcechhhhgghhhhhaab````cedaffffjjjjjjjj",
"jjjjjjjhhgfbidhhahhhhhhhabcc`````cbaffffjjjjjjjj",
"jjjjjjjhhgfgddabb`c`baab`ddccc```cbhffffjjjjjjjj",
"jjjjjjjhhgfgdcaab`cccbb`cdddc`bbb`bgffffjjjjjjjj",
"jjjjjjjhhgffbbaa``c``hhb`c`bbbbbbbbfffffjjjjjjjj",
"jjjjjjjhhgffgbahhabbahhb```babbbbbafffffjjjjjjjj",
"jjjjjjjhhffffaahghahhaab`bbbaaabbbhfffffjjjjjjjj",
"jjjjjjjhhgfffgahgghbbaab````aaabbhffffffjjjjjjjj",
"jjjjjjjhhgffffhhggacaaab``b``bbbbhffffffjjjjjjjj",
"jjjjjjjhhfffffghhhbahabbbbbbbbbbbgffffffjjjjjjjj",
"jjjjjjjhgfffffgaaabhhhaaabbbbbbbbgffffffjjjjjjjj",
"jjjjjjjhhffffffahhabab``b`c`bbbbbfffffffjjjjjjjj",
"jjjjjjjhhhhhgffhhhhabcbb```bbbbb`dffffffjjjjjjjj",
"jjjjjjjhhhhhgffgahhhhbbb`baabbb``i`fffffjjjjjjjj",
"jjjjjjjaaahahfffgaahhabbbaaabb`c`eegffffjjjjjjjj",
"jjjjjjjahhhhhgffh`bhhhhaaaaab````dibffffjjjjjjjj",
"jjjjjjjaaaahahfh`cbahhhhaab``c`bbdecfffgjjjjjjjj",
"jjjjjjjaaaaaaabdcccbbhhaab`cccbbbeedcbagjjjjjjjj",
"jjjjjjjaaaa``cdcc`dcbbbbb`cc`bbbdedddddcjjjjjjjj",
"jjjjjjjabb`ddddcc``ddbb`ccc`bbbciedddcddjjjjjjjj",
"jjjjjjjc`cccdddcdc``cc`babbbabdedddddddejjjjjjjj",
"jjjjjjjccccccdecdd``d````baabdd`ddddddeejjjjjjjj",
"jjjjjjjcccdcccecccc`iid```cddc`ceddeddddjjjjjjjj",
"jjjjjjjccdddccdcdc`ciedccddc`cceiedcddddjjjjjjjj"
};
