#define face_width 48
#define face_height 48
static char face_bits[] = {
   0xff, 0xff, 0xff, 0xff, 0xff, 0xff, 0xff, 0xff, 0xff, 0xff, 0xff, 0xff,
   0xdf, 0xff, 0xff, 0xff, 0xff, 0xff, 0x25, 0xff, 0xff, 0xff, 0xff, 0xfe,
   0x80, 0xff, 0xff, 0xff, 0xfb, 0xf7, 0xc1, 0xff, 0xff, 0xfb, 0xff, 0xff,
   0xe8, 0xf7, 0x95, 0xf6, 0xff, 0xff, 0xc2, 0x7f, 0x27, 0x48, 0xff, 0xde,
   0xf4, 0xff, 0x00, 0xd1, 0xff, 0xff, 0xf9, 0x7f, 0x15, 0x80, 0xfb, 0xff,
   0xf4, 0x5d, 0x01, 0x28, 0xff, 0xfb, 0xfd, 0x7f, 0x00, 0x00, 0xfd, 0xff,
   0xfa, 0xaf, 0x00, 0xa0, 0xfe, 0xd7, 0xfc, 0x5e, 0x44, 0x84, 0xf4, 0xab,
   0xff, 0xaf, 0x00, 0x00, 0xfd, 0xc7, 0xdc, 0x5f, 0x04, 0xa0, 0xea, 0x8b,
   0xff, 0x5f, 0x15, 0xd0, 0xfd, 0xcf, 0xfd, 0xb7, 0x16, 0x50, 0xfe, 0x9f,
   0xbf, 0xdf, 0x2a, 0x28, 0xf9, 0xdf, 0xfd, 0x7f, 0xa0, 0x04, 0xea, 0xbf,
   0xff, 0x2d, 0x4d, 0xd2, 0xf5, 0xdf, 0xf7, 0x5f, 0xab, 0xd4, 0xee, 0xff,
   0xff, 0xdf, 0x57, 0xab, 0xe9, 0xff, 0xbf, 0x57, 0xaa, 0x2c, 0xd5, 0xff,
   0xff, 0x4d, 0xa1, 0x95, 0xe8, 0xff, 0xff, 0x2f, 0x54, 0x2d, 0xa4, 0xff,
   0xbf, 0x8b, 0xa0, 0x8a, 0xd2, 0xfa, 0xf7, 0x17, 0xc8, 0x34, 0xd0, 0xfd,
   0x7f, 0x4f, 0xa2, 0x14, 0xd4, 0xfa, 0xff, 0x2b, 0x40, 0x29, 0xa0, 0xfa,
   0xdf, 0x8e, 0xa0, 0x2a, 0x50, 0xfc, 0xff, 0x3a, 0x40, 0x92, 0x52, 0xfa,
   0xb7, 0x0c, 0x90, 0x28, 0x60, 0xfc, 0xff, 0xba, 0xa0, 0x54, 0xd1, 0xde,
   0xef, 0x2c, 0x28, 0x51, 0xe8, 0xfb, 0xff, 0xba, 0xa0, 0x40, 0xd1, 0xff,
   0xfb, 0x1b, 0x28, 0x54, 0xe8, 0xdf, 0xff, 0x7f, 0xc1, 0x52, 0xe1, 0xff,
   0xff, 0x5d, 0x90, 0x48, 0xfc, 0xf7, 0xbf, 0x7f, 0x45, 0x80, 0xc2, 0xbf,
   0xfb, 0xbf, 0x28, 0x21, 0xfd, 0xfb, 0xff, 0x7f, 0x45, 0x48, 0x49, 0xaf,
   0xff, 0xff, 0x28, 0x81, 0xe6, 0x7b, 0x77, 0xff, 0xaf, 0x40, 0x85, 0xd7,
   0xff, 0x7f, 0xab, 0xa8, 0xe2, 0x5d, 0xff, 0x6f, 0xfd, 0xa6, 0xe0, 0xef,
   0xff, 0x3e, 0xaa, 0x5d, 0xe0, 0xba, 0xdf, 0x7f, 0x74, 0x15, 0x80, 0xaf};
