#define face_width 48
#define face_height 48
static char face_bits[] = {
   0xf8, 0xff, 0xff, 0xff, 0xff, 0x1f, 0x18, 0x40, 0x08, 0x01, 0x04, 0x18,
   0xa8, 0x0a, 0x21, 0xaa, 0x52, 0x1d, 0x48, 0x51, 0x4a, 0x01, 0x08, 0x1e,
   0x88, 0xff, 0xff, 0xff, 0xff, 0x17, 0xa8, 0x7f, 0x15, 0x00, 0xaa, 0x1c,
   0xc8, 0xff, 0x41, 0x00, 0x04, 0x16, 0x98, 0xff, 0x5e, 0xef, 0x5a, 0x1e,
   0xc8, 0xff, 0x0d, 0x68, 0x30, 0x1a, 0x98, 0xff, 0x46, 0x48, 0x50, 0x1e,
   0xc8, 0xdf, 0x09, 0x88, 0x50, 0x1a, 0x98, 0x7f, 0x52, 0x05, 0x56, 0x1c,
   0x88, 0x9f, 0x24, 0x00, 0x50, 0x16, 0xa8, 0x3f, 0x04, 0x00, 0x20, 0x1c,
   0xc8, 0xaf, 0x91, 0x02, 0x92, 0x16, 0x98, 0x2f, 0x24, 0x06, 0x25, 0x1c,
   0xc8, 0x52, 0xe1, 0x9a, 0x4a, 0x1e, 0x98, 0x2e, 0x10, 0x08, 0x21, 0x16,
   0xc8, 0xba, 0x0a, 0x44, 0x40, 0x1a, 0x88, 0x18, 0x00, 0x28, 0x20, 0x1e,
   0x98, 0xa2, 0x05, 0x00, 0x40, 0x1a, 0xc8, 0x14, 0x10, 0x58, 0x22, 0x1e,
   0xa8, 0x51, 0x05, 0x04, 0x40, 0x1a, 0x88, 0x31, 0x20, 0x78, 0x25, 0x1c,
   0xd8, 0x53, 0x15, 0x68, 0x8b, 0x16, 0x88, 0xbf, 0xc0, 0xdf, 0x2b, 0x1c,
   0xa8, 0x9f, 0x6a, 0x7f, 0x4f, 0x16, 0x98, 0x6f, 0xa4, 0x83, 0x1d, 0x1c,
   0xc8, 0xbf, 0x5a, 0x14, 0xac, 0x16, 0x98, 0x6f, 0xbf, 0x00, 0x0c, 0x1e,
   0xc8, 0xff, 0x7f, 0x62, 0x55, 0x1a, 0x88, 0x4f, 0xff, 0x70, 0x0c, 0x1c,
   0x98, 0x8f, 0x7e, 0x2d, 0x57, 0x16, 0xc8, 0x8f, 0xf0, 0x6f, 0x0f, 0x1e,
   0xa8, 0x0f, 0x97, 0xff, 0xff, 0x1a, 0x88, 0x0f, 0xee, 0xff, 0xff, 0x1e,
   0x98, 0x0f, 0xa8, 0x82, 0xff, 0x1a, 0xc8, 0x00, 0x00, 0x00, 0x00, 0x1c,
   0xe8, 0xff, 0xdd, 0x7d, 0xff, 0x17, 0x68, 0x55, 0x77, 0xaf, 0xab, 0x1e,
   0xb8, 0xef, 0xee, 0xfa, 0xfe, 0x1d, 0xf8, 0xff, 0xff, 0xff, 0xff, 0x1f,
   0x00, 0x00, 0x00, 0x00, 0x00, 0x00, 0x00, 0x00, 0x00, 0x00, 0x00, 0x00,
   0x00, 0x00, 0xcc, 0x3c, 0x00, 0x00, 0x00, 0x00, 0xa2, 0x54, 0x00, 0x00,
   0x00, 0x00, 0xa2, 0x2a, 0x00, 0x00, 0x00, 0x00, 0x66, 0x2a, 0x00, 0x00};
