/* XPM */
static char * face_xpm[] = {
/* width height ncolors chars_per_pixel */
"48 48 10 1",
/* colors */
" 	s None	c None",
".	c grey60",
"X	c grey53",
"o	c grey47",
"O	c grey67",
"+	c grey40",
"@	c grey73",
"#	c grey33",
"$	c grey27",
"%	c grey20",
/* pixels */
"                        .XoO                    ",
"                      Xooo++o                   ",
"                 .Xo++++@....X.                 ",
"              o+++oXo+#X@OX@@..o                ",
"             o$#.X.o+#+XXoXo..@@.oX             ",
"             +$+.XooX...XO..XX....+$o           ",
"            o$$oX++.XX.XoXX.OOOXo.O+$o          ",
"           .$$$++++##$$$$$$##oO.+XOo$$          ",
"           +$$#+##$$$$$$$$$$$$#+ooo+$$.         ",
"          .$$$#$$$$$$$$$$$$$$$$$#+o+$$+         ",
"          o$$$$$$$$$$$$$$$$$$$$$$$++$$#         ",
"          +$$$$$$$$$$%%%%%%%%$$#$###$$$.        ",
"          $$$$$$$$%%%%%%%%%%%%%%$$$$$$$X        ",
"          $$$$$$%%%%%%%%%%%%%%%%%%$$$$#X        ",
"         o$%$$%%%%%%%%%%$$%%%%%%%%%$$$$o        ",
"         +$$$%%%%%%%%%$$$$%$%%%%%%%%$$$o        ",
"         +$$%%%%%%%%$$$$$$$$%%%%%%%%$$$o        ",
"         #$$%%%%%%$$$###$$$$$%%%%%%%%$$o        ",
"         $%%%$$$$$$$#######$$$$%%%%%%%$X        ",
"         $%%%#$%%%%%%$$####$$%%%%%%%%%$.        ",
"         #%%$+$$$%%%%%%$###$%%%%%%%$%%$         ",
"        X+%%#+#$$%%%%%%$##$%%%%%%%%$$%$         ",
"        o+#$#+#$%$%%%%%$##%%%%%%%$$#$%o         ",
"        +#+$+##$$$%%$%$$##%%%%%%%%$+#%XO        ",
"        ++##++###$$$$$$$#$%%%%%%%%#+#$+oX       ",
"        o+$++########$$##$$%%$$$$#+o#+#+.       ",
"        X+#+++++########+#$$$$$$+ooo+o+o        ",
"        Xo+++++++#######o+#$$##++ooo##+.        ",
"        .oo++++++++####+Xo+##+++oooo##X         ",
"         Xo++++++++###+oXXo+++oooooooX          ",
"          o++++++++##++oXXXo++ooooooXX          ",
"           X++++++###$$#++##++ooooooX           ",
"            o+++++#+#$$$#$$#oooooooX            ",
"            o++++###+##$$$+oooooooo.            ",
"            o++++#$#+++##++o++oo++o             ",
"            o++++#$$$$$###+o+#+oo+o             ",
"            o+####+####$$$$$$$++o+              ",
"            o++###++#######++#+++o              ",
"            o++####++#$$$#+++++++               ",
"            o+++####+##$$#+++#+++               ",
"            ++++###++++###++++++X               ",
"            ++#+###+ooooooooo++oX               ",
"           X++######++ooooooo+ooo               ",
"           X++#####$$####+#++++oo               ",
"          Xo++#######$$$$###++ooo               ",
"          ++++#############++++oo               ",
"         .#++++#####$$$###++++ooo               ",
"         O+o++#######$$###++++ooo               "};
