/* XPM */
static char *noname_xpm[] = {
/* width height ncolors chars_per_pixel */
"48 48 17 1",
/* colors */
"` c black",
"a c grey33",
"b c grey47",
"c c grey40",
"d c grey87",
"e c grey80",
"f c grey73",
"g c grey27",
"h c grey20",
"i c grey13",
"j c grey67",
"k c grey60",
"l c grey53",
"m c white",
"n c grey93",
"o c grey7",
"p s None c None",
/* pixels */
"pppllllllllllkklklklklkkkkkkkllllllllbbbbbbbpppp",
"ppplllklklklllklklklkkkkkklkkklllllllbbblbbbpppp",
"ppplllllklklklkklkkkklkkkkkklllllllllbbblbbbpppp",
"pppllllklklklklkkklkkkkkkkklkllklkllbbblllbbpppp",
"ppplllkllklkklklklkkkkkkkkkllklllllblbblbbbbpppp",
"ppplllllklkklkkkkkkkkkkkkllkllkkllllbbllllbbpppp",
"pppblklklkkkkkllbcacccblklllklkllllbbblllbbbpppp",
"ppplllklkklkklcghhhhhihhgcbklkklllbbblllllbbpppp",
"pppblklklkkkcghhiihihiioooigcllllbbblllllbblpppp",
"pppblklkkllahgiiihiihio`o````hbblbllllklllblpppp",
"ppplllkkklgiiiooooihho````````ocbllllklllbllpppp",
"ppplllklkgio`oooo`ihioo`````````clllklklllblpppp",
"pppllkkkcoooo````oihio``````````glllkklllbllpppp",
"ppplllkbio````````ihiooooooo````iblkkkllllllpppp",
"pppllllho```````oigcbcbbbcah`````ibklkllllllpppp",
"ppplllb``````oicljfeddddeefbh```ooglkkllllllpppp",
"pppllkg````ialjeeenmmmmndeekh`o`o`hkllllllllpppp",
"pppllli```gbkjfeeddmmmmddeejciiiooibklklllllpppp",
"pppblb```hckjjfeednnnmnndeefjahhiiicklllllllpppp",
"pppllb```aclkfeeednnnmmnddeffboihiigkkllllllpppp",
"pppblb``oacljjfeedddnnndddeejko`hoigllklllllpppp",
"pppbll``oablkjjjffeeeeeefjkfjjh`iiiaklllllllpppp",
"ppplll``ogaacclkjjfjfjkagggakja`oiickllllkllpppp",
"pppblli`ogoioiiabljklchhgcbbcjl`ooibllllllllpppp",
"ppplllh`ohiiiioihcffbghggaabljko`oibklklklklpppp",
"pppbllg`ogiiioiooaeejbcchccljfjh`oilkkllllllpppp",
"pppllla`ihihagbcgaedffkkkjffeejg`oillllllllkpppp",
"pppblllohaaaclllbceeeeejjfeddefaoiglllkllkllpppp",
"ppplbllaibkllkjkbbeeeedddnnndejcglbkklllllllpppp",
"pppbllllgbjffffjlkfdefdndnnddejlkeklklklklklpppp",
"ppplbllkgckjefflljedeffeddndeejkeeklllllllllpppp",
"pppbbbllacljffkbckfeffjkjefeffjkefklklllklllpppp",
"ppplbbllaabkkklhhgllackfkkjjjjkkefkkllllllllpppp",
"ppplbbllcgacbbcoo`ihhakjjkkkkjkkdjllllklllllpppp",
"pppblbblbgggabahhohgacccblkkjkkkfklkllllllllpppp",
"ppplbbbllahhgghghabccaccaaljkjkbclkkklllllllpppp",
"ppplbbbblbhiho``iaccllcohhbjjkkagkklllllllllpppp",
"ppplbbbbllghhiiigckjekkkjabkjklhbklllllllllbpppp",
"pppbbbbbllchiggablkjjfffjlkjkklclkkllblllblbpppp",
"ppplbbbbbllghhagablkkjjjjkkklllkklllllllbllbpppp",
"pppbbbbcbllchhhghggaclljjjkkbbkkllllllllblbbpppp",
"ppplbbbbbblkahhgggcblkkjjkkbclkkkllllbllblbbpppp",
"pppbbbbbclllcghacblkjjjjklbclkkkllllllbblbbbpppp",
"pppbbbbcbbblagggaclkkjkklccbkkjkeklblblbbbbbpppp",
"pppbbbbbcbblchgghgcbbllbccclkkjkjndjlbbbblbcpppp",
"pppbbbcbcbblcghgghhggaaagclkkkjkkemmmdfklbbbpppp",
"pppbcbcbccbbbhhhgghghghgallkkjkkjjmmmmmmnflcpppp",
"pppcbcbccbblcghhhhhhhihgllkkjkjkjjmmmmmmmmmnpppp"
};
