#define noname_width 48
#define noname_height 48
static char noname_bits[] = {
 0x50,0xaa,0x54,0x52,0x55,0x05,0x50,0x55,0x4a,0xa9,0xaa,0x0a,0xa8,0x92,0x52,
 0xa5,0xaa,0x0a,0x90,0x54,0x95,0x94,0x54,0x05,0xa8,0xaa,0x24,0x55,0x55,0x0d,
 0x50,0x49,0xaa,0x52,0x55,0x05,0x48,0x95,0x55,0x95,0xaa,0x0a,0xa8,0x64,0xff,
 0x55,0x55,0x05,0x50,0xf5,0xff,0xaf,0xaa,0x0a,0x90,0xb4,0xd5,0x7f,0x55,0x05,
 0xa8,0xfe,0xff,0x7f,0x95,0x0a,0x50,0xfa,0xff,0xff,0x55,0x05,0xa8,0xff,0xf7,
 0xff,0x49,0x05,0x20,0xff,0xff,0xff,0xab,0x0a,0xa8,0xff,0x25,0xfa,0x4b,0x05,
 0xd0,0xbf,0x82,0xf0,0xaf,0x0a,0xc8,0x2f,0x00,0xf4,0x53,0x02,0xd0,0x57,0x02,
 0xb0,0x97,0x0a,0xe8,0x0b,0x00,0xe9,0xaf,0x0a,0xd0,0x4b,0x01,0xc0,0x56,0x05,
 0xe8,0x15,0x04,0xea,0xaf,0x0a,0xd0,0x4b,0x41,0xc1,0x97,0x04,0xe8,0x3f,0x95,
 0xaf,0xaf,0x0a,0xd0,0xed,0xe9,0x95,0x57,0x05,0xc8,0xff,0x52,0xab,0xa7,0x0a,
 0xd0,0xfd,0xd3,0x95,0xaf,0x04,0xe8,0x97,0x01,0xc2,0xab,0x0a,0x90,0x6d,0x56,
 0x11,0x2f,0x05,0xa8,0x95,0x02,0xc0,0x50,0x09,0x50,0x23,0x21,0x00,0x4d,0x05,
 0x28,0x85,0x42,0x52,0x50,0x05,0x50,0xab,0x92,0x84,0xac,0x0a,0xa8,0xca,0x5b,
 0xa9,0x24,0x05,0x50,0xb7,0x3f,0x4a,0xa8,0x04,0xa8,0xae,0xeb,0x92,0x56,0x05,
 0xa8,0xfa,0xad,0xa5,0xa2,0x0a,0x50,0xed,0xab,0xcb,0xad,0x0a,0x50,0xfd,0x45,
 0xa6,0x52,0x05,0xa8,0x5a,0x2a,0xaa,0x54,0x05,0x50,0xf5,0x45,0x91,0xaa,0x0a,
 0xa8,0xda,0x9f,0xaa,0x4a,0x05,0xa8,0xb5,0x52,0x34,0xa9,0x0a,0x50,0xf5,0x4a,
 0x55,0x55,0x05,0xa8,0xaa,0x25,0x15,0xaa,0x0a,0x68,0xf5,0x57,0xab,0x50,0x05,
 0xa8,0x55,0xfd,0x4a,0x81,0x0a,0x50,0xf5,0xab,0x15,0x01,0x04,0xb0,0xd6,0x7e,
 0xa5,0x00,0x00};
