#define noname_width 48
#define noname_height 48
static char noname_bits[] = {
 0x00,0x00,0x00,0x00,0x00,0x00,0x00,0x00,0x00,0x00,0x00,0x00,0x00,0x00,0xc0,
 0x00,0x00,0x00,0x00,0x00,0xe8,0x1f,0x00,0x00,0x00,0x00,0xd4,0x3b,0x00,0x00,
 0x00,0x00,0xef,0x7e,0x00,0x00,0x00,0x00,0xbf,0x7f,0x00,0x00,0x00,0x80,0xfb,
 0xf7,0x00,0x00,0x00,0xc0,0xff,0xff,0x01,0x00,0x00,0x40,0xef,0xff,0x01,0x00,
 0x00,0xe0,0xff,0xfe,0x03,0x00,0x00,0xe0,0xbd,0xef,0x03,0x00,0x00,0xf0,0xff,
 0xfa,0x07,0x00,0x00,0xb0,0xdb,0xfe,0x07,0x00,0x00,0xf0,0x7f,0xf5,0x07,0x00,
 0x00,0x78,0xdf,0xb6,0x0f,0x00,0x00,0xe8,0xef,0xfd,0x0f,0x00,0x00,0xf8,0x7f,
 0xd5,0x0f,0x00,0x00,0xb4,0xab,0xee,0x0f,0x00,0x00,0xf8,0x3f,0xb5,0x1f,0x00,
 0x00,0xfc,0x01,0x44,0x0f,0x00,0x00,0xde,0x0b,0x01,0x1f,0x00,0x00,0xfc,0x00,
 0xa4,0x3f,0x00,0x00,0xfe,0x03,0x4a,0x3f,0x00,0x00,0xf6,0x95,0xaa,0x3f,0x00,
 0x00,0xfe,0x2b,0x55,0x1f,0x00,0x00,0xff,0x83,0xaa,0x1f,0x00,0x00,0xfe,0xbb,
 0xac,0x1f,0x00,0x00,0xfe,0x2b,0xd5,0x1f,0x00,0x00,0xfe,0x97,0xea,0x0f,0x00,
 0x00,0xfe,0xa7,0xea,0x03,0x00,0x00,0xfc,0x1f,0x74,0x00,0x00,0x00,0xb8,0xa9,
 0x7d,0x00,0x00,0x00,0x00,0xbc,0xd6,0x00,0x00,0x00,0x00,0xd4,0x7b,0x03,0x00,
 0x00,0x00,0x56,0xad,0x0d,0x00,0x00,0x00,0x54,0xa5,0x02,0x00,0x00,0x00,0xaa,
 0x52,0x05,0x00,0x00,0x00,0x44,0x48,0x82,0x00,0x00,0x00,0x94,0x92,0x80,0x01,
 0x80,0x01,0x00,0x00,0xc0,0x00,0x40,0x01,0x48,0xa0,0xa0,0x00,0xc0,0x03,0x00,
 0x00,0x40,0x00,0x40,0x07,0x00,0x00,0xa0,0x00,0xc0,0x0f,0x00,0x08,0x60,0x00,
 0xc0,0x1b,0x00,0x00,0x20,0x03,0x40,0x3f,0x00,0x00,0x50,0x03,0xc0,0x3f,0xa8,
 0x4a,0xe0,0x03};
