#define noname_width 48
#define noname_height 48
static char noname_bits[] = {
 0xa8,0x52,0x55,0xa9,0xaa,0x0a,0x50,0x55,0x55,0x55,0x55,0x0b,0xa8,0xaa,0xaa,
 0xaa,0xaa,0x0a,0x50,0x55,0x25,0x49,0x55,0x05,0xa8,0xa4,0xaa,0xbf,0xaa,0x0a,
 0x50,0x55,0xf5,0xff,0x52,0x05,0x50,0x29,0xfd,0x7d,0x55,0x0d,0x50,0xa5,0xfe,
 0xff,0x55,0x05,0xa8,0xaa,0xff,0xef,0xab,0x0a,0x20,0x95,0xff,0x95,0x55,0x05,
 0xa8,0xd2,0x7f,0x29,0x57,0x05,0xa8,0xea,0x7f,0x85,0xac,0x0a,0x50,0xe5,0xaf,
 0xa8,0xae,0x0a,0xa8,0xea,0x5b,0x22,0x5d,0x05,0x90,0xf4,0xa7,0x44,0xbd,0x04,
 0xa8,0xea,0x2b,0x51,0xba,0x0a,0x50,0xf5,0x95,0x84,0xba,0x0a,0x50,0xf5,0x6b,
 0x51,0x7a,0x05,0x28,0xf5,0x5a,0xa5,0x7b,0x05,0xa8,0xf4,0x55,0xaa,0xbc,0x0a,
 0x50,0x75,0xed,0x52,0x75,0x09,0x50,0xf5,0x32,0xd5,0x7b,0x05,0x28,0x75,0x45,
 0x29,0xba,0x0a,0x50,0xf5,0x55,0x4a,0x55,0x05,0xa8,0xd4,0x0a,0x11,0x54,0x05,
 0x50,0xf5,0x52,0x55,0xa9,0x0a,0xa8,0xaa,0x85,0x22,0x55,0x0a,0x50,0x69,0x6b,
 0xad,0x54,0x05,0xa8,0xaa,0x9a,0x5f,0x55,0x05,0x50,0xaa,0x55,0xa0,0xaa,0x0a,
 0xa8,0xaa,0xd5,0x5b,0x55,0x05,0x50,0x55,0x55,0x6d,0x55,0x0a,0xa8,0xaa,0xab,
 0x52,0x55,0x05,0x50,0xa5,0xaa,0xad,0xaa,0x0a,0xa8,0x5a,0x57,0x5b,0x55,0x05,
 0x68,0xa5,0xaa,0xa4,0xaa,0x0a,0x50,0xd5,0x5d,0x55,0x55,0x05,0xb0,0xaa,0x6e,
 0xd5,0xaa,0x0a,0xa8,0x2a,0xbb,0xbb,0xaa,0x05,0x50,0x05,0xed,0xde,0xa8,0x0a,
 0x68,0x20,0xdb,0xab,0xa0,0x06,0x28,0x00,0xf6,0x7e,0x00,0x0a,0x28,0x00,0xac,
 0x8b,0x00,0x04,0x00,0x00,0xf4,0x6d,0x08,0x00,0x00,0x00,0x54,0x15,0x40,0x04,
 0x00,0x00,0x54,0x55,0x00,0x01,0x20,0x88,0xa8,0x2a,0x10,0x00,0x00,0x60,0xab,
 0x2a,0x02,0x04};
