#define noname_width 48
#define noname_height 48
static char noname_bits[] = {
 0x00,0x00,0x00,0x00,0x00,0x00,0x00,0x00,0xd2,0x0f,0x00,0x00,0x00,0x80,0xe8,
 0x17,0x00,0x00,0x00,0x02,0xf8,0x5d,0x04,0x00,0x00,0x20,0xff,0x17,0x00,0x00,
 0x00,0x00,0xf6,0x3a,0x01,0x00,0x00,0x82,0xff,0x6b,0x00,0x00,0x00,0xc0,0xff,
 0xf6,0x0b,0x00,0x00,0xe0,0xee,0x5f,0x05,0x00,0x00,0xa8,0x5f,0xf7,0x1d,0x00,
 0x00,0xf0,0xba,0xdd,0x16,0x00,0x00,0x68,0x57,0xb6,0x3b,0x00,0x00,0xf4,0x59,
 0xfd,0x2e,0x00,0x00,0xf8,0x05,0xba,0x3f,0x00,0x00,0xdc,0x12,0xec,0x3d,0x00,
 0x00,0xfc,0x01,0xf8,0x77,0x00,0x00,0x7c,0x4a,0xf8,0x3f,0x00,0x00,0xec,0x01,
 0xa1,0x7f,0x00,0x00,0xbc,0x16,0xd0,0x7f,0x00,0x00,0xfe,0x7a,0xa5,0x7e,0x00,
 0x00,0xbe,0x55,0x7d,0x3f,0x00,0x00,0x7c,0xff,0xae,0x7b,0x00,0x00,0x7e,0x55,
 0xfa,0x3e,0x00,0x00,0xbc,0x5a,0xad,0x3d,0x00,0x00,0x7e,0x56,0xaa,0x1e,0x00,
 0x00,0x58,0x21,0xa4,0xbe,0x00,0x00,0x6c,0x54,0x95,0x0e,0x00,0x00,0xb8,0x55,
 0x54,0x1f,0x00,0x00,0x7e,0x55,0x57,0x85,0x00,0x00,0xb8,0xed,0x5b,0x2f,0x00,
 0x00,0x7c,0x95,0xb4,0x0f,0x00,0x00,0xf8,0x7a,0xdf,0x2e,0x01,0x00,0xbd,0xd5,
 0xaa,0x17,0x00,0x00,0x78,0x55,0xd5,0x8f,0x00,0x00,0xfe,0x6a,0xab,0x07,0x02,
 0x00,0xa8,0xab,0xf5,0x57,0x00,0x00,0x7c,0x95,0xea,0x02,0x01,0x00,0xf9,0x57,
 0xda,0x4b,0x00,0x00,0x78,0xdd,0xfd,0x23,0x00,0x00,0xfc,0x7f,0xd7,0x0a,0x01,
 0x00,0xff,0xfa,0xff,0x21,0x00,0x80,0xff,0xf7,0x77,0x0f,0x01,0xc0,0xff,0xdf,
 0xfa,0x57,0x00,0xc0,0xff,0xb7,0xfe,0xbf,0x00,0xc0,0xfe,0xdf,0xfe,0x7f,0x01,
 0xc0,0xff,0x7f,0xff,0xff,0x03,0xc0,0xff,0xff,0xfd,0xbe,0x02,0xc0,0xff,0xdf,
 0xff,0xff,0x03};
