/* XPM */
static char *noname_xpm[] = {
/* width height ncolors chars_per_pixel */
"48 48 17 1",
/* colors */
"` c black",
"a c grey33",
"b c grey47",
"c c grey40",
"d c grey87",
"e c grey80",
"f c grey73",
"g c grey27",
"h c grey20",
"i c grey13",
"j c grey67",
"k c grey60",
"l c grey53",
"m c white",
"n c grey93",
"o c grey7",
"p s None c None",
/* pixels */
"pppffjffeffjffeeeefffeeeefjjfejefffffjjkkkffpppp",
"pppffjfffffkjfefeeefeefeefjjffffefffjjjlkjffpppp",
"pppffjfefejjfffeeffefeefefjjfejefffffjkkkkffpppp",
"pppfffffefjjjffeeefjjfffefjjffffefffjjkkljffpppp",
"pppffjffeffkffeefklbcbbbljkjffjeffffjjjlkjffpppp",
"pppfffffeffjjfffkbblkkkkbbbljfjfffffjjkkkkffpppp",
"pppffffefffkjfjllkjfffffjjlabkkjffffjjkkljffpppp",
"pppeffffeejjjlbkjjeefeeefffkccljjjjjjjkkkjffpppp",
"pppffffefffkaakkjeeeeeedeefjjaicljjfjjkkkkffpppp",
"pppeeffeefkholkjfeeeeeedeeffjkiogljjjjkkkkffpppp",
"pppffffefjhoakkjfeeeeeeeeeeffjcooabjjjkkkkffpppp",
"pppeeffefaoolkkfffeeeedeeeefjjji`igljjkkkjffpppp",
"pppfefefli`glkjfeeeeeeeeeeeefjjaooiajjkkkkffpppp",
"pppeffffa``ckjffffeeeeeeeeeeefjboo`gkjkkkkffpppp",
"pppefefjo``bkjjffeeeeeeedeeefffboo`hkkkkkjffpppp",
"pppfeffb``olkjffeeeeeeeeddeefffloo``ljkkkkffpppp",
"pppefffbo`olkjffeeeeeeeeddefffjki``olkkkkkffpppp",
"pppfefelo`ollcbkjfffefffjkbcbljji``okkkkkkjfpppp",
"pppefffji`olcccgcblljjkkbacbbkkjg``hjkkkkkffpppp",
"pppfefejg`ollbcahaallklbcahacjkkgohbjkkkkkffpppp",
"pppfffffkaiakcghicacbkklclgaacblbhkkjkkkkkffpppp",
"pppefffejbcccgaaabbklfkjkklllcjjlikjjkkkkkjfpppp",
"pppfffffjballlclbbllkekjjllkjjejkgkjjkkklkffpppp",
"pppffffffbgkjjkkkkkljffkfjkjfjefjhbkkkkkkkjfpppp",
"pppfffffjlhkjkkjklbkjffjkkkjfejfjgckjkkklkfjpppp",
"pppffffffcgkkkjjkbcljffjkcblfeffjcclkkkkkkjfpppp",
"pppffjffjbhkkfjjjcbljffjjkclfefffaakkkkklkfjpppp",
"pppfjfffjchlkffjlclccbbckjlgkfffjaglkkkklkjfpppp",
"pppffjffkahlkkjbccaooiooigghgkjjjggbkklkljjjpppp",
"pppfjfjfjaibkkkiiioo`oo`oooiibkjlhhljlkklkjfpppp",
"pppjfjffjaialkloo`ioiiiiooooiclbaohkklkllkjjpppp",
"pppfjjffjciialcoooihgllghghoigaghohlklkllkjjpppp",
"pppjfjjfjliohggiohaccblllkkhohhiooglkkkllkjjpppp",
"pppfjjffjlhooihghgbblklllljgoioo``gkklkllkjjpppp",
"pppjjjjfjkh``oiiigcccgaalkbiooo`ooakkllllkjjpppp",
"pppjjjffjkao``oo`hbbcggabbco`````obkklkllkjjpppp",
"pppjjkjfjjbo`````hacagggccg``````ibjklkllkjjpppp",
"pppjjkfjjjkg`````ohhggggghi``````hkkkblllljjpppp",
"pppjjjjfeefc``````oihiiiio``````ockjkbllbkjjpppp",
"pppjjjeddnflao`````oooo`o``````obedfkllllkkjpppp",
"pppfjffeddjjjg`````o`o````````ohemdnnfjlbkjjpppp",
"pppdfjfedejeeli`o````o````o``ohjnmdmnndfjkjjpppp",
"pppnejjenfjeddaio`o```o````oigldnmdnmndnnndepppp",
"pppnnefenfffddjchooooo```ooigknemmndmnddnnnnpppp",
"pppmmndenefeeedjkhiiiooihhhafnmdmnndmmnedmnnpppp",
"pppmmnmnnnenfedjdfbghihcbbknmmdnnnndmmmednmnpppp",
"pppmmmmdmmmmdededndddedndmmmmmdnmmnnmmmnnnmnpppp",
"pppmmmmdmmmmmmmddmmmmmmmmmmmmmemmmnnmmmmdnmnpppp"
};
