/* XPM */
static char *noname_xpm[] = {
/* width height ncolors chars_per_pixel */
"48 48 17 1",
/* colors */
"` c black",
"a c grey33",
"b c grey47",
"c c grey40",
"d c grey87",
"e c grey80",
"f c grey73",
"g c grey27",
"h c grey20",
"i c grey13",
"j c grey67",
"k c grey60",
"l c grey53",
"m c white",
"n c grey93",
"o c grey7",
"p s None c None",
/* pixels */
"pppppplklblkkkklkllllllbcblklbbllllbbbblbbpppppp",
"pppppplllllklkkkllllllbbcblkllllllllbblbllpppppp",
"pppppplkblllkkkkklkllllbcblkllllllllblblblpppppp",
"ppppppkllblkkkkklkllllbbcbkkklllkkllllblllpppppp",
"pppppplllllklkkkklkllllcacblllllklllllllllpppppp",
"ppppppllllllkkkkkkklchoo``oohclllkklllllllpppppp",
"pppppplllblkkkkkklchoo````````hohlkllllllbpppppp",
"ppppppkllllkkkkklgoo`````````````glkklllllpppppp",
"pppppplllblkkkklho````````````````hblkllllpppppp",
"pppppplllllkkkkh```````````````````oblkkllpppppp",
"pppppplllblkkka`````````````````````ilklllpppppp",
"pppppplllllkkli``````````````````````bllllpppppp",
"ppppppllbllkla```````````````````````hlllbpppppp",
"ppppppllblllbo````````````````````````bllbpppppp",
"ppppppllbllkc`````````````````````````cllbpppppp",
"ppppppllblllh````````ioo```````i``````allbpppppp",
"pppppplllbllo```oohgcbcaahiio`hho`````hllbpppppp",
"ppppppllbllc````icljffeefkbchhagoo````ilbbpppppp",
"ppppppllbllh````gljednddddeflbcao``````lbbpppppp",
"ppppppllbllh```oacckfedndefklcaaho````obbbpppppp",
"ppppppllbblh```iggghabfekbghgahha`````obbcpppppp",
"ppppppllbllh```hgahihcjelcghhgaggo````obbcpppppp",
"ppppppllbblg```gccbbbbjfbllcccbbai````ibbcpppppp",
"ppppppllblla```ckfjkjkfjbkfjjjjkai````hbbcpppppp",
"ppppppllbllbo``ckefeflfjbjffffjlai````cbbcpppppp",
"pppppplbbblkcoockfefkkfjbbfeeekbaihi`hbbccpppppp",
"ppppppllbblllcgcljklbcfjcckjffkbaigh`cbbccpppppp",
"ppppppllbbllllacblllaiggigkkljkbaigiilbbccpppppp",
"pppppplbbbllklbcblbaihgchhhaalkbai``ibbbcapppppp",
"pppppplbbblllklccbhiigbbagiihclbaio`hbbbcapppppp",
"pppppplbbblllllbcbbcgbjkjcabkkllgi``abbccapppppp",
"ppppppbbbbllllllgckkbblklblkjkbbhiohbbbccapppppp",
"ppppppbbcbbbllllaalkkblllkkkkbbahhohcbccaapppppp",
"ppppppbbcbblblllcgckkklllkkklcchhhijcbccagpppppp",
"ppppppbbcbbbblllbaaljjjkjkjlcahgahjmebccagpppppp",
"ppppppbbcbbbbbbllcgalkkjkklbgghcgbmmmfbaagpppppp",
"ppppppbcccbbblblbcahablllbchhhccadmmmmfcagpppppp",
"ppppppbcccbbbbbbbcchihgaaghihcbcjmmmmmnflcpppppp",
"ppppppbcccbbbbbbbcaghioooiigcbbbnmmmmmeklcpppppp",
"ppppppbcccbcbbbbccaagaagaabbllbdmmmmmnflblpppppp",
"ppppppccccbbbbbbcaaagacccbllllfmmmmmnjjffkpppppp",
"ppppppbcccccbcbbccbjagcccblllkmmmmmmfeeddepppppp",
"ppppppcccccbcbbcbkjfcggacbllkdmmmmmnjmnnnmpppppp",
"ppppppccccccccbbjkfjcgaccbkkfenddeefenmnmnpppppp",
"ppppppccacccbcblkfjbohccbfeddneednnenmnmddpppppp",
"ppppppccaccccbcbffka`hccleekklbbljennnnnnkpppppp",
"ppppppccacccbllfdkl`igcljlgoiihcbkedddddffpppppp",
"ppppppgggggacaclbcc`hggahooohaccllblljkjcjpppppp"
};
