#define noname_width 48
#define noname_height 48
static char noname_bits[] = {
 0x00,0x00,0x28,0x0b,0x00,0x00,0x00,0x00,0xfc,0x3f,0x80,0x00,0x00,0x00,0xfe,
 0xff,0x00,0x02,0x00,0x80,0xff,0xff,0x21,0x00,0x00,0x80,0xff,0xff,0x03,0x00,
 0x00,0xe0,0xff,0xff,0x0f,0x01,0x00,0xe0,0xff,0xff,0x0f,0x00,0x00,0xf0,0xff,
 0xff,0x5f,0x00,0x00,0xf8,0xff,0xff,0x3f,0x00,0x00,0xfc,0xfe,0xbf,0x3f,0x00,
 0x00,0xfe,0xff,0xfb,0x3f,0x01,0x00,0xfe,0x6f,0xff,0x7f,0x00,0x00,0xfe,0xfd,
 0xff,0x7f,0x00,0x00,0xbf,0xbf,0xff,0x7f,0x00,0x00,0xfe,0xeb,0xee,0x7f,0x00,
 0x00,0xff,0xff,0xff,0x7e,0x00,0x00,0xff,0x6b,0xfd,0x7f,0x00,0x00,0xfe,0xff,
 0xfb,0x7f,0x00,0x00,0xfe,0xb2,0xaf,0x7a,0x00,0x00,0xfe,0xed,0xfa,0x77,0x00,
 0x00,0x7e,0xbb,0xaa,0x3e,0x00,0x00,0x7e,0x45,0xb3,0x32,0x00,0x00,0x7c,0x2a,
 0x49,0x3d,0x02,0x00,0xf8,0x82,0xb0,0x2a,0x00,0x00,0x78,0x54,0x22,0x15,0x00,
 0x00,0xd0,0x93,0xd0,0x3a,0x01,0x00,0x60,0x44,0x35,0x0d,0x00,0x00,0x90,0x4b,
 0xde,0x06,0x00,0x00,0xf0,0x52,0xa9,0x8d,0x00,0x00,0xf0,0x5d,0xd4,0x06,0x00,
 0x00,0x70,0xd3,0xfb,0x93,0x00,0x00,0xe0,0xad,0xaa,0x06,0x00,0x00,0x74,0xb7,
 0x76,0x23,0x01,0x00,0x60,0x5d,0xbd,0x03,0x00,0x00,0xb9,0xb6,0x6a,0x91,0x00,
 0x00,0x7c,0x7d,0xd5,0x06,0x00,0x80,0xf7,0xec,0xfd,0xbf,0x00,0xc0,0xde,0x79,
 0x6f,0x7f,0x01,0x40,0xff,0xeb,0xff,0xf6,0x01,0xc0,0x6b,0xd7,0x7b,0xab,0x02,
 0xc0,0xe6,0x6b,0xdf,0xab,0x02,0x40,0x41,0x9f,0xff,0x5a,0x01,0x00,0x80,0xaf,
 0x76,0xd7,0x02,0x00,0x00,0x7b,0xbe,0xb7,0x02,0x00,0x84,0xbf,0x6c,0xff,0x03,
 0x00,0x00,0xfe,0xd5,0xf7,0x03,0x00,0x90,0xdb,0xee,0xff,0x03,0x40,0xea,0xff,
 0xf7,0xff,0x03};
