/* XPM */
static char *noname_xpm[] = {
/* width height ncolors chars_per_pixel */
"48 48 17 1",
/* colors */
"` c black",
"a c grey33",
"b c grey47",
"c c grey40",
"d c grey87",
"e c grey80",
"f c grey73",
"g c grey27",
"h c grey20",
"i c grey13",
"j c grey67",
"k c grey60",
"l c grey53",
"m c white",
"n c grey93",
"o c grey7",
"p s None c None",
/* pixels */
"pppmmmmmmmmmmmmndflbblbjdnmnmmmmmmmmmnmnnnnnpppp",
"pppmmmmmmmmmmmdjkbbcggaglennnnmnmmnmnmnnmnnnpppp",
"pppmmmmmmmmmnkcccccaahihgleeednmnmmnmnnnnnnnpppp",
"pppmmnmmmmfkbcccacccghiiogljjeedmnmnmnmnnnnnpppp",
"pppmmmmmnbhgaacbccghhihioohaacljdnmnmnnnnnndpppp",
"pppmnmmnjhhaagabcagghiiooo`oihackenmnnmnnnnnpppp",
"pppmmmmeahhaacaaacaghiooiioioihgckennnnnnnnnpppp",
"pppmmmnbgggacaahiihhhoo```o```iggbjdmnmnnnnnpppp",
"pppmnmfiigggggggggghhooooo`o`ooiggbfnnnnnnnnpppp",
"pppmmmkoihhgaaaagggghioo`o````ooihgknnmnnnnnpppp",
"pppmmmaiooiiggaaggahiiioo`o```ooiihbnmnnmnnnpppp",
"pppmmmhiooiihggggcaghiiiioooooooiihfnnmnnnnnpppp",
"pppmmdhiooiiihhggghghiiihhhiioooooikmnmnnnnnpppp",
"pppmmjhoo`o`ihhhggcgghhggghihhoooo`anmnmnnnnpppp",
"pppmmkioo``oiiihhgagggggaaaggghoooobmnnnnmnnpppp",
"pppmmko`oooiiihhghghhgaccccaaago`oidnmnmnnnnpppp",
"pppmmei``iooiiiihhihgaccbbbcccai`oinmnmnnnnnpppp",
"pppmmni``agihhhhghgacblkkllbbbch`ocnnmnmnnnnpppp",
"pppmmmc`hlklklllbbblllkjkjklbbcaoofmnmnnnnnnpppp",
"pppnmmk`gkjfefeeffjjjjfjjklbcaccoannmnmnmnnnpppp",
"pppmmmeoajjjlbbbblkkjjkklcghhggcifmnmnmnnnnnpppp",
"pppnnmnaakklcaghihablkbbgioiggachfnnnnnnmnnnpppp",
"pppmmnelcjkcahggiihakjlgiooohigcgfnmnmnmnnnnpppp",
"pppnnmflljkbgghoihhajekhii`oghgccknnnnnnnnnnpppp",
"pppmmnekljjkklbhcaalfdjggggacacbabnnnnnnnnnnpppp",
"pppnnmecljfffjkbbcljfdjcaccccblbaanmnnnnnnnnpppp",
"pppnmmekkkfeefkllkffjejcbbbblllbacnnnmnnnnndpppp",
"pppnnndfkkjeeeeeeeeffefbblklkklcabnnnnnnnndnpppp",
"pppnmndfjbkffeeeddfffefkcbllllbcalnnnnnnndndpppp",
"pppnnnnkkbljjfeeejjjkjkbcclllbccgennnnnnnddnpppp",
"pppnmnmelbkkjfefjllghgghiacllbcajnnnnnnnddndpppp",
"pppnnmnmnklkjfffkkkaaghhhacbbbcafdnnndndndddpppp",
"pppnnnnmnflkjjfjljfkbaghgaccbccafnndndndddddpppp",
"pppnnnmnndblkkjlkjjklagggaccccaaddndnnddddddpppp",
"pppnnnnnmdblkjkkkklkkbbccaaccaacddnnddddddddpppp",
"pppnnmnnmnlbllkllbbcaaahiggacagbddnddnddddedpppp",
"pppnnnnnnneclllbchooihhh``haaageddndnddddddepppp",
"pppnnnnmnnncbbbbacccaaggggcgagbddnddddddddeepppp",
"pppndnnnnnnbccbccllllllcgaagggcedddddddededdpppp",
"pppnnnnnnnnlaaccblbcaghhhgahhgihcjddddddddeepppp",
"pppdnnnndjgacggacbcaghihhghhhhh`h`ilfdedededpppp",
"pppdndjchg`acghgaccagghhhghihgg`gai`iajdeedepppp",
"pppjch`ghoobcahhgacbbcccaghhhhgigbbh`oocfeeepppp",
"pppo``oha`ilccghhgccbcaaghihhhgiabkb``h`hleepppp",
"ppp```iig`hkcacghihhggghiihhhgghcbkkg`i`h`glpppp",
"ppp```hig`gfcccaagiiiiiiihihhhggbbkka`i`i```pppp",
"ppp```hig`gflccaagghiiiihhhhhggccljkc`i`i```pppp",
"ppp```hog`gfjccaagagghhhhihhhhgccbjla`h`h```pppp"
};
