/* XPM */
static char *noname_xpm[] = {
/* width height ncolors chars_per_pixel */
"48 48 17 1",
/* colors */
"` c black",
"a c grey33",
"b c grey47",
"c c grey40",
"d c grey87",
"e c grey80",
"f c grey73",
"g c grey27",
"h c grey20",
"i c grey13",
"j c grey67",
"k c grey60",
"l c grey53",
"m c white",
"n c grey93",
"o c grey7",
"p s None c None",
/* pixels */
"ppppppffffffffffefefefefeeeededdddddddndnnpppppp",
"ppppppfffffffffffeffjkkkjfeeeededdddndndnnpppppp",
"ppppppffffjfjffffffkcaallllklkefeddddddndnpppppp",
"ppppppfffjfffjfffkbagclklghgggclbkddddndnnpppppp",
"ppppppfjfjfjjfjlbhihgckbghooiihaagkddddndnpppppp",
"ppppppffjfjjjjlgi`ohhgcho`o``ooihigfdndddnpppppp",
"ppppppjjfjjfjlhooooiiio````oo`ohiihbdddndnpppppp",
"ppppppffjjjjlhoo`ooiioo``ooiiihgiiigeddddnpppppp",
"ppppppjjjjjjaioo``oiio`oihhhghgioo`ifdddndpppppp",
"ppppppjfjjjbai````oiihhcbbbbcaho```oldddddpppppp",
"ppppppjjjjlago```igbljjeeeejlbao````geddndpppppp",
"ppppppfjjjkai``ohbednmmmmndjlbbi````ieddddpppppp",
"ppppppjjjjka``hbjdmmmmmmmmneklbgo````jddddpppppp",
"ppppppjjjjja`ocjenmmmmmmmmdfjkbao````lddddpppppp",
"ppppppjjjjkc`oljdmmmmmmmmmdfjjbco````kdeddpppppp",
"ppppppjjjjkg`ikfdmmmmmmmmmnfjkbci````kddddpppppp",
"ppppppjjkjkg`hkjfdmmmmmmmndfklbci````bedddpppppp",
"ppppppjjkjkbihaiiicjenndekcaacbch````adedepppppp",
"ppppppjkjkkchhaghiiajecgiihhhgach````hedddpppppp",
"ppppppjjkjkkbabggigajfgggahiihaah````aeeedpppppp",
"ppppppjkkkkjlblcblbbefacbkcghgacg```ijeddepppppp",
"ppppppkjkjkklllkllkjdfclkklcabbcgooibeeeeepppppp",
"ppppppkkkkkkklkfeejfdjbkffjkllbahhghkeeedepppppp",
"ppppppkkkkkkkllffkkedjblfeffklcahhggkeeeeepppppp",
"ppppppkkkkkkklkjklljekclcjfklcaghgacfeeeeepppppp",
"ppppppkkkkkkkllklkchahogaljkcaaghaclefeeeepppppp",
"ppppppkkklkkkllbbbgoo``iablbcgahhclfeefefepppppp",
"ppppppkklklkkllahio`oo``igcagaghajffffeefepppppp",
"ppppppklklklklchoihhghiooohagaghkfffefefefpppppp",
"ppppppklklklklgigbckklbghioggghafffeffffffpppppp",
"ppppppkllklklbooalblklbcaaiiihilffffffefffpppppp",
"ppppppkklllllb`ohbahiihgggoooookffffffffffpppppp",
"pppppplllklkllh`icahooihgh````ijffffffffffpppppp",
"ppppppkklllllfk``ggiooiggi````hjjfjfjfffffpppppp",
"ppppppllllllknfo`iio`oiio````oikfjjjjjffjfpppppp",
"pppppplkllkfnmna``o``o``````ohhljjjjjjjjfjpppppp",
"ppppppkljenmmmmjho`````````ohhhbjjjjjfjfjfpppppp",
"ppppppfdmmmmmmmmlao```````ohghgljfjfjjfjfjpppppp",
"ppppppmmmmmnmmmmdcai```ooihhhhlllknffjfjfjpppppp",
"ppppppmmmmmmmmmmmebcahiihhgghbkkkbfmnffjjjpppppp",
"ppppppmmmmmmmmmmmmflcahhggghcjjjkllenmdejfpppppp",
"ppppppmmmmmmmmmmmmmflcagaahbeejjjkkfenmmdfpppppp",
"ppppppmmmmmmmmmmmmmmjbbbbcknndefjjjednmmmmpppppp",
"ppppppmmmmmmmmmmmmnbglbljnfjmndefjfdnmnmmmpppppp",
"ppppppmmmmmmmmmmmna`iacblaihjmddfjdnnmmmmmpppppp",
"ppppppmmmmmmmmmmnbiooiabchi`ofnnefnmnmmmmmpppppp",
"ppppppmmmmmmnmmnlacbahbkbihccbeneemmnmmmmmpppppp",
"ppppppedeeeefeebaclkbiggiiabkbcjkkeefeeeeepppppp"
};
