/* XPM */
static char *noname_xpm[] = {
/* width height ncolors chars_per_pixel */
"48 48 17 1",
/* colors */
"` c black",
"a c grey33",
"b c grey47",
"c c grey40",
"d c grey87",
"e c grey80",
"f c grey73",
"g c grey27",
"h c grey20",
"i c grey13",
"j c grey67",
"k c grey60",
"l c grey53",
"m c white",
"n c grey93",
"o c grey7",
"p s None c None",
/* pixels */
"ppppppmmmmmmmmmmmmmmmndeednmmmmmmmmmmmmnnnpppppp",
"ppppppmmmmmmmmmmmmmneklcghaldmmmmmmmmmmnmnpppppp",
"ppppppmmmmmmmmmmmmnkblccghoigfmmmmmmmmmmnnpppppp",
"ppppppmmmmmmmmmmmelghhhihiooohdmmmmmmmmmnnpppppp",
"ppppppmmmmmmmmmmechiooiiioo```cnmmmmmmmnnnpppppp",
"ppppppmmmmmmmmmjliooooiii``````bmmmmmmmmnnpppppp",
"ppppppmmmmmmmmncgo`o`oioo``o````bnmmmmmmnnpppppp",
"ppppppmmmmmmmmjchoo`oo`oo````````gjnmmmmmnpppppp",
"ppppppmmmmmmmnbci`ooooiiiiiio`````oanmmnnnpppppp",
"ppppppmmmmmmmkggooohgggaclbcaho`````cmmmmnpppppp",
"ppppppmmmmmmnbiioogbkkkjjfjkbaho````hdmmnnpppppp",
"ppppppmmmmmnkcioohbjfeeeeffjlcgi`````fmmnnpppppp",
"ppppppmmmmdbggioickfedddeefjlbago````lmnnnpppppp",
"ppppppmmmmkhihoohbkeedddeefjlbagh````gnmnnpppppp",
"ppppppmmmnciioooglkfedddeefjkbcai```oiennnpppppp",
"ppppppmmmmchoooiclkfedeeeefflbacho````lmnnpppppp",
"ppppppmmmdaio``hblkfedeedefkbghhgi````gdnnpppppp",
"ppppppmmmdgoooohclljfefeejlgioioih`````jnnpppppp",
"ppppppmmmmgooo`hcagggacllchoihhiih`````bnnpppppp",
"ppppppmmmmco`oohgihhiiicbahiioiiggi```olnnpppppp",
"ppppppmmmnaoo``ihhghhhhcjbaaagaccai```oennpppppp",
"ppppppmmmfao```hghiihacbfkbbbblklah``iknnnpppppp",
"ppppppmmnlgo`o`hcbcccbklfjblkkjklag`iennndpppppp",
"ppppppmmncho```hbkkkkjjkjflbbbllcahoannnnnpppppp",
"ppppppmmmkh````hcljffjllfekbccacaggicnnnddpppppp",
"ppppppmmmnlo`o`iclkkkcblljlgacagghgilnnnndpppppp",
"ppppppmmmmmko``iacbbccbgggggaaagagghbnnnddpppppp",
"ppppppmmmmmmc``iaacagcbbbaaaagihaggoknnnddpppppp",
"ppppppmmmmmmna`oaaaagaaaccabahgaaghobdddddpppppp",
"ppppppmmmmmmmdo`gcacggiakkjkaaacagiacdndddpppppp",
"ppppppmmmmmmmni`igaaccccblbbbgacgihkedddddpppppp",
"ppppppmmmmmmmmco`hggcccccbcaggcaholddddddepppppp",
"ppppppmmmmmmmmdlhohggbbacaggccchio`kndddeepppppp",
"ppppppmmmmmmmmmncohihgcbbbbbbcaii``ieddedepppppp",
"ppppppmmmmmmmmnmaohihhhabbccaaioi``ofedeeepppppp",
"ppppppmmmmmmnmnegohhiiiihggghiiiio``jdeeeepppppp",
"ppppppmmmmnmnnechiihhiiiooooooihio`oilfeeepppppp",
"ppppppmmmmmndfcahiohghiooooooiihioo``ickjfpppppp",
"ppppppmmmnndclgghioigaghioooiihio``ooihggapppppp",
"ppppppmnndnjglggioioiggghhiihhhi`oo``iihhhpppppp",
"ppppppdeednlglghioooiiaggghghgio`o``ohihhhpppppp",
"ppppppbljedbhccghoooooiaaaggah`o`o``ohhihhpppppp",
"ppppppccljecgagagiioooiihgggoo`oo`o`iihhhhpppppp",
"ppppppccckfchggihhioooooiio`io`o`o`ohhhhghpppppp",
"ppppppccclkahgghiihioo`oiiiihh`io``ohhhhhhpppppp",
"ppppppcaccbggggghhoo`oiihghii`oggooiihggghpppppp",
"ppppppccacaagaagggghihhhgggg``oghiihhgghghpppppp",
"ppppppggggghhhhghhhhhhhhhhhho``hiihhhhhhhipppppp"
};
