/* XPM */
static char * face_xpm[] = {
/* width height ncolors chars_per_pixel */
"48 48 11 1",
/* colors */
" 	s None	c None",
".	c blue",
"X	c white",
"o	c sky blue",
"O	c dodger blue",
"+	c lavender",
"@	c grey",
"#	c slate grey",
"$	c gainsboro",
"%	c dark slate grey",
"&	c black",
/* pixels */
"                                                ",
"                                                ",
"                                                ",
"                                                ",
"                                                ",
"                                                ",
"                                                ",
"                                                ",
"                                                ",
"                                                ",
"                                                ",
"                                                ",
"                                                ",
"                                                ",
"................................................",
"XXXXXXXXXXXXXXXXXXXXXXXXXXXXXXXXXXXXXXXXXXXXXXXX",
"XXXXXXXXXXXXXXXXXXXXXXXXXXXXXXXXXXXXXXXXXXXXXXXX",
"XXXXXXXXoOoOoOoOooXXoOooXXXXXXXXX+oOoOoOoOo+XXXX",
"XXXXXX+O..........XX....+XXXXXXX+..........+XXXX",
"XXXXXXO..........OXX....+XXXXXX+...........+XXXX",
"XXXXXX...o++++++++XX....+XXXXXX+...++++++++XXXXX",
"X@@X@@oO#+@$$@@@XX@$o#O#+$@XX@@$#.#X@XX$$@@@@$XX",
"@%@@%##@#$%@@%#%@%#%@%##@%#XX%%#%#%@#X$#@&@%#%XX",
"X%@%$X%@#$%#@#@%@#X@#%%%@#@XX%%@#$@&$X$#X%$%$#@X",
"$@%##@%@%@%%@#@%@%@%@%@&@@%$X%$X#$$%XX$#$%$%@%$X",
"$#@X@@oo#@@@X@$@X$@@o#o#$@@XX@$+#o+@XXX@@@X@@@XX",
"XXXXX+...+++++X+++XX....+++++XX+..O++++X+++XXXXX",
"XXXXXX...........OXXO........OX+...........+XXXX",
"XXXXXXo...........XX+.........XXO..........+XXXX",
"XXXXXXX+O........OXXX+O......OXX+o.........+XXXX",
"XXXXXXXXXXXXXXXXXXXXXXXXXXXXXXXXXXXXXXXXXXXXXXXX",
"XXXXXXXXXXXXXXXXXXXXXXXXXXXXXXXXXXXXXXXXXXXXXXXX",
"................................................",
"                                                ",
"                                                ",
"                                                ",
"                                                ",
"                                                ",
"                                                ",
"                                                ",
"                                                ",
"                                                ",
"                                                ",
"                                                ",
"                                                ",
"                                                ",
"                                                ",
"                                                "};
