/* XPM */
static char *noname_xpm[] = {
/* width height ncolors chars_per_pixel */
"48 48 17 1",
/* colors */
"` c black",
"a c grey33",
"b c grey47",
"c c grey40",
"d c grey87",
"e c grey80",
"f c grey73",
"g c grey27",
"h c grey20",
"i c grey13",
"j c grey67",
"k c grey60",
"l c grey53",
"m c white",
"n c grey93",
"o c grey7",
"p s None c None",
/* pixels */
"ppppppmmmmmmmmmmmmnmnmnnnnndndddeeeeefffffpppppp",
"ppppppmmmmmmmmmmnmmnmnnnnnndnddddeeeefefffpppppp",
"ppppppmmmmmmmmnmmnnmnnndnddnnndddeeeefffffpppppp",
"ppppppmmmmmmmnmmmmndjbggaccldnddddeeefefffpppppp",
"ppppppmmmmmmnmmnnnebaiio`ooogjnddeeeeeffffpppppp",
"ppppppmmmmmmmnnnnflllgo``o`ooijddddeefefefpppppp",
"ppppppmmmmnmnmnebagghiioooo```hfddeeeefefepppppp",
"ppppppmmmmnmnndjiiiiioiihiio```hfddeeeeeefpppppp",
"ppppppmmmmmnnekcihghhihhgaagho``ceeeeefefepppppp",
"ppppppmmmmnmecaaajkcccccbbbccgh`oceeeeeeefpppppp",
"ppppppmmnmnnbhggkffkkkklkllbcaghoikeeeeeeepppppp",
"ppppppmmmmnfgggbkkkkkkkjkkllccaghoceeeeeefpppppp",
"ppppppnnnnnkgcallkkkjjjjjkklbcaggigfeeefffpppppp",
"ppppppdmnnnkccbblkkkjjjjjjklbccaghhleeeeffpppppp",
"ppppppnnnnnjccbllkkjffjjjjklbccagghbeefeffpppppp",
"ppppppmnnnnfbbbblkkjjjjjjjklbbcagggceefeffpppppp",
"ppppppnnnndflbbblkjjjfjkjkkllcccgggceeefffpppppp",
"ppppppnnnnnkkbcblkjjjjjkjjkkbbbagggleeefefpppppp",
"ppppppnddndkbbbbbkkjjjjkjkkllbcagghceeffffpppppp",
"ppppppnndddjccbbblblbllbkbbcgagaghhgjefeffpppppp",
"ppppppndndeccbcbblcaggaclaggggagghggkeffffpppppp",
"ppppppndddfcbbblkkcggbacbaahiacahiaajeefffpppppp",
"ppppppddddelccghacgihagcbahgihihhigafeffffpppppp",
"ppppppdddddkcbagagagagacbagggahhagacefffffpppppp",
"ppppppdddedjcbcacaagaacllgagghhggggbefefffpppppp",
"ppppppdeddefkcccbcccccckbaaaccgaggalefffjfpppppp",
"ppppppddeeeelbccblbblccklagacaaaggajfffffjpppppp",
"ppppppdeeeeelbbbcbbcggbklaggaaaagaafefffffpppppp",
"ppppppdedeeefbcbclbcacblbgaaacaagckfffffjfpppppp",
"ppppppdeeeeeeelbcbbbbbagggaaaaaggjefffjffjpppppp",
"ppppppeeeeefeffccbcbbbbcaaaaaaagaffffffjjjpppppp",
"ppppppeeefefeefacccaccbccaaghgaggkjffjjfjjpppppp",
"ppppppeeefffkdcaaccggggaghhhhgghohakjjjjjjpppppp",
"ppppppeeedelkjhhaccaaaaaaahgggghoiihbjjjjjpppppp",
"ppppppeedddkkkhogaaccggghhhgghhiihicggalkjpppppp",
"ppppppfbjmnkdbi`gghgaaaagggghihiihiccghoglpppppp",
"pppppplfljkleho`ghihaccccaghihi``hiohhhiogpppppp",
"ppppppaahahljg``iahihgagghhiih`ooii```ihccpppppp",
"pppppphoacacli``oggiooooooiihi```io```ohhopppppp",
"ppppppoogghbbho``hahhihoiiiih``o`iioohgcchpppppp",
"ppppppcgjjgkai```igghhhhiiiho````hi`ohcllgpppppp",
"ppppppbaffgfggho`ohaghhiiihi``ihogh`oocbbipppppp",
"ppppppahkkhnagii`oigaghhhhhooohhhlco``hgg`pppppp",
"pppppphoaaceg```o`ihaaghhihoo``ihklho`gghopppppp",
"ppppppiiaalk`````ohigaghhho`````iclhooccaipppppp",
"ppppppghbaa```oiiiihgaghhh`o`iag`ohoigjkchpppppp",
"ppppppcafkhoihccihhhgagggihioabaoo`oiajkahpppppp",
"ppppppggkkbiihcciiihhhghihgo`iho`````iggo`pppppp"
};
