/* XPM */
static char *noname_xpm[] = {
/* width height ncolors chars_per_pixel */
"48 48 17 1",
/* colors */
"` c black",
"a c grey33",
"b c grey47",
"c c grey40",
"d c grey87",
"e c grey80",
"f c grey73",
"g c grey27",
"h c grey20",
"i c grey13",
"j c grey67",
"k c grey60",
"l c grey53",
"m c white",
"n c grey93",
"o c grey7",
"p s None c None",
/* pixels */
"ppplkkkkkkklkkkkkkkkklkkkkjkjkkklklkllllllblpppp",
"ppplklkkkkkkkkkkkcgcbcbblkkjkkklklkkklbllllbpppp",
"ppplkkkkkkklkllbcghhgagagcbkkkkkkkkllllllllbpppp",
"pppklkkkklbllcaghghghighihhalklkkkkkllllllllpppp",
"ppplkkkklccbbahhhgghhihiiiihckkkkkllllllkllbpppp",
"pppklkklaacaachhgccgihoiioiiglkkkkllllllklllpppp",
"ppplkklcgaaacggaaaahihiihoohaclkkllllllklllbpppp",
"ppplllaghgaacagaagaahhhhhiohhhclllllllkkklllpppp",
"pppllchhgagccghhgagaaggghgghhhabblllllkkllllpppp",
"pppllahhhghcahiggabbcbccbbcchhccclllkkkkllllpppp",
"ppplbgiiihhghhhhackkjjjfjkjjbhacgblkkkkkllllpppp",
"ppplciiioihhhggckfeedddddeeffchchgllkkkklkllpppp",
"pppbhooo`hggccljfenmmnnndddeekhhhhbkkkklllllpppp",
"pppbh`oiohacbjfednmmmmmnndeeejghiogkjkkkllklpppp",
"pppbi`oiogckffeednmmmmmmndeeejcgioolkkllllllpppp",
"pppb``iooglkjfeednmmmmmmnneeejbag`oakkklklklpppp",
"pppc``hoigbkkjfednmmmmmmnddefflah`iilklkllllpppp",
"pppa``i`igckkjfeednnnnnnndeefjlao`oibklkllklpppp",
"pppc``o`ohblkkffednnnnmndddeejbh``oolkklllklpppp",
"pppb````ohclkjfeddnmmmmmmndeefbo``ooaklkllklpppp",
"pppc`````halkjfdnnmnmmmmmnndejlo````cklklkllpppp",
"pppl`````hckjfeednnndnnmnnndefjhoo`obkklllklpppp",
"pppb`````gbkkkkjeeddddeefjffefkboihakkllkklkpppp",
"pppbo```oacagghgabjfejbgggacclkkhiclkllkllklpppp",
"ppplg```hghihgggihbefbhhgclbbbkjhhalkkklkklkpppp",
"ppplbi`ohghgaaggbhhfdcgaabccbblkgglkkklkllklpppp",
"ppplliohhgghhgihhahkelcccgablllccgkkllllklklpppp",
"pppllh`hacbcacbkccakfkjejlljejbllgflkkkkklklpppp",
"pppllcohabkkbblfflajdlljlllkekljllflkkkllklkpppp",
"pppllbhiacbcbblkkbgkdkbkjkkkklkkbdkkklklklklpppp",
"ppplllghgglbbbblbcajnfckkjkkljklbfkklklklklkpppp",
"ppplbbchghcfkbcbbbbfnekbkkjejkjblfklkkllklklpppp",
"ppplbbbhhhhbfklcgllenefccljjbklckklkklkklkllpppp",
"pppllblbgghhhhghhgcjejkkagcbllbblkkklklkllklpppp",
"ppplbbllcgihgcbla`ogggajfklklbbbllklklllklllpppp",
"pppllbbllaiigcklgo`oigkffjklkbbbllkkkllkllllpppp",
"pppllbbllchigabbgooiakffjjjjkllbkkkklllkllllpppp",
"pppllbbblbhiggghiiigkjklblkjllbbkkkkllllllllpppp",
"ppplbbbblbhihccgoogcbkjkjfjkkkblkkklllklllllpppp",
"pppllbbbllaiihccihcbblkkjjjlklbbkkllllllllllpppp",
"ppplblbcblciiiacaagccblkjjjkkblbblllllllllbbpppp",
"pppblbbbblaiiihccccbbkjjjjkklbkbicklllllblbbpppp",
"ppplbbbbbc`iiihabbblkfjjjjklckkboicllllblbbbpppp",
"pppbllbbci`iioigblllkjjfjjkcckkloohbllblbbbbpppp",
"pppbbbbba``oiooiablllkjkkkcglkklioocbbbblbbbpppp",
"pppbbbbao``oiiooigcbbbbllchakkkli`oiccbbbbbbpppp",
"pppbcaio````ooiooihgaaaagihlkklbhoooohcbbbbcpppp",
"pppai```````iiooioooiiiiohclkklbg`ooooogcbccpppp"
};
