/* XPM */
static char * face_xpm[] = {
/* width height ncolors chars_per_pixel */
"48 48 17 1",
/* colors */
" 	s None	c None",
".	c grey67",
"X	c grey40",
"o	c grey53",
"O	c grey80",
"+	c grey73",
"@	c grey27",
"#	c grey20",
"$	c grey47",
"%	c white",
"&	c grey93",
"*	c grey87",
"=	c grey33",
"-	c grey60",
";	c grey13",
":	c grey7",
">	c black",
/* pixels */
"                                                ",
"                                                ",
"                     .Xo.O++O                   ",
"                    X@#@$.%&+O*O                ",
"                   X###==XoX@=$.-               ",
"                  X;#@=@###;;;#=$$              ",
"                 X#@@@##;;;;;;:;@Xo             ",
"                X@##@#;;#;;;;;;@=##o            ",
"               $@=@##:;:;::::;####;#.           ",
"              oX=@#;:;;::;#@X$--=#;:#           ",
"             X##;;;::;:#@o+*&%%&*$;:;o          ",
"             ##::;;:;;#=-&%%%%%%%*#::#          ",
"            .;;::;;;::@o&%%%%%%%%&=:>;          ",
"            X;::::;;:;@O%%%%%%%%%%$:>#o         ",
"            #::::::;;;o&%%%%%%%%%&o::;=         ",
"           $;:::::;;#=*%%%%%%%%%%%->:;@         ",
"           :::::::;;@$*&%%%%%%&O*&.:::@         ",
"           :::::::;;;##=$O&%.X@@=o.;>:;+        ",
"           >:>>>:::;#=@@=oOO$=@=X=o;>::=        ",
"           :>:>:>##@#;@@=.%&$@;#@o.@>::=        ",
"           #>>>>:XXX$$ooo.%*-oo.+O*=:>:@        ",
"           X>>>:;--OO++...%%OO**&%*X;::=        ",
"           $>>>:;.+%%%%*++%%&%%%%%&o#:;+        ",
"           =>>>>;-O%%%%*++&%&&%%%%&-=#$         ",
"           :>>>>:-O&%%*...*&&+O&%%&O-#          ",
"           >>>>>>o+*&O-=$XXo$-$+***OoX          ",
"           $>>>>:$-..-X$-X=$..$o..+$$-          ",
"            ::>>>Xo$o$$--OO++.-oo-.@#X          ",
"            $;;>>Xooo-oo--..-.-o-..#:o          ",
"            o#>>>=oo--X@@$ooX@@o...:>;$         ",
"            #>>>>;$---X=$O&*-$$o+-o>>:X         ",
"            o>>>>>Xoo.-oo-----...-@>;>;         ",
"             #>>>>=$o---oooo-...-->>:::;-       ",
"             X>::#@=$-.o$XXXo-+--.:>::;;=       ",
"              =#@;#=Xo-.o-.-..+--.=>>@=.$       ",
"               +-;#X@X-++***++.o.+o==+-%+       ",
"                $::==@=--++O++$o..-$X$X+O       ",
"                =::==@#@X$$ooXX--.-$X@$@o       ",
"               o@##=X@@#;;##@Xoo---XX@$@X       ",
"              -X=;$X===@#;#@$oooo-o$=@X@$-      ",
"             .XX@#.X====@@=X$o$$oooX=$@=o$      ",
"            .$@=@#.$===XXX$$oo$X$$$X=X==-X      ",
"           =o===@@.o@X=X$-.oo$$X$X$XoX@X$=      ",
"          +;X=##=@..====X--$XXXXX$$ooX==X=      ",
"         --=#;;=X=-+X==@@XX==XX$X$..-$XX@X      ",
"        .-oo@#Xo==$O.==@@@@@=XXXoOO+.oX$=X      ",
"       .--ooXXX$XXX.+-==@#@@==$.OO*O.-o-=X      ",
"      .$$XXX@=X==@=X.$$=##;##X----.-o-o$@#      "};
