#define noname_width 48
#define noname_height 48
static char noname_bits[] = {
 0x50,0x12,0x22,0x22,0x92,0x08,0x28,0x49,0x49,0x49,0x25,0x05,0xa0,0x92,0x24,
 0x12,0x48,0x02,0x28,0x49,0x92,0xa4,0x25,0x09,0x50,0x12,0x29,0x09,0x92,0x02,
 0x20,0xa9,0x56,0x55,0x49,0x09,0x48,0xe5,0xd5,0x96,0x14,0x02,0x50,0x72,0xb7,
 0x6d,0xa2,0x0a,0x50,0xbd,0xed,0xff,0x54,0x02,0x90,0xec,0x76,0xb5,0x13,0x09,
 0x28,0xbf,0xdd,0xff,0x49,0x05,0xa0,0x6a,0xf7,0xfe,0x53,0x02,0xa8,0xbe,0xdd,
 0xf7,0x4b,0x05,0x90,0xde,0x76,0x7f,0x57,0x04,0x50,0x6b,0xff,0xff,0x8b,0x02,
 0xa8,0x56,0xd5,0xfb,0x57,0x09,0x50,0xaf,0xfe,0xee,0x4f,0x02,0x50,0x97,0xd4,
 0xff,0x9f,0x0a,0xa8,0x2a,0xf5,0xdd,0x2f,0x09,0x48,0xaf,0x5a,0xff,0xaf,0x04,
 0x50,0x5f,0xef,0x76,0x5f,0x05,0xa8,0x34,0xbb,0xfd,0x3f,0x02,0x50,0x9b,0x6d,
 0xfd,0x5f,0x05,0x50,0x55,0x55,0xd5,0x9f,0x0a,0xa8,0x4a,0x0a,0xf5,0x5f,0x02,
 0xa8,0x56,0x51,0xfa,0x3f,0x09,0x50,0x45,0x45,0xfd,0x5f,0x05,0xa8,0xb6,0x22,
 0xb5,0x9f,0x0a,0x50,0xd5,0xd5,0xfe,0xaf,0x02,0xa8,0x7a,0x29,0xf5,0x4f,0x0a,
 0x50,0xd7,0xab,0xff,0x57,0x05,0x50,0xfd,0xd6,0xde,0xaf,0x0a,0xa8,0xae,0xfb,
 0xff,0x53,0x05,0x50,0x6d,0xbd,0xef,0xaf,0x0a,0xa8,0xae,0xfa,0xff,0x51,0x09,
 0xd0,0xda,0xfe,0x57,0x2f,0x05,0xa8,0xba,0xfb,0xf5,0xd0,0x0a,0x50,0xed,0xfe,
 0xab,0x2d,0x05,0xa8,0xfa,0x7f,0x6d,0x51,0x05,0xa8,0x82,0xdf,0x56,0xa4,0x0a,
 0x50,0x61,0xbf,0x29,0x80,0x0a,0x58,0xc4,0x6a,0x95,0x10,0x04,0x20,0x40,0x55,
 0x05,0x00,0x09,0x08,0x90,0x5b,0x15,0x00,0x00,0x00,0x01,0xb5,0x02,0x00,0x00,
 0x20,0x40,0xae,0x00,0x00,0x00,0x00,0x09,0x00,0x00,0x00,0x04,0x00,0x00,0x25,
 0x09,0x00,0x00};
