#define noname_width 48
#define noname_height 48
static char noname_bits[] = {
 0x80,0x84,0x92,0x2a,0x49,0x01,0x00,0x51,0xc9,0xdf,0x94,0x00,0x80,0x84,0xf4,
 0xff,0x2b,0x01,0x00,0xa9,0xfa,0xff,0x4f,0x01,0x80,0x44,0xff,0xff,0x1f,0x02,
 0x00,0x91,0xfe,0xff,0x7f,0x01,0x80,0x44,0xff,0xff,0x3f,0x02,0x40,0xa2,0xff,
 0xff,0xff,0x00,0x00,0xc9,0xff,0xff,0x7f,0x01,0x80,0xd0,0xff,0xff,0xff,0x00,
 0x00,0xc5,0xff,0xff,0xff,0x02,0x80,0xe8,0x5f,0xdf,0xff,0x01,0x00,0xe1,0x07,
 0x16,0xff,0x00,0x80,0xd4,0x17,0x40,0xfd,0x02,0x80,0xe2,0x0b,0x00,0xfe,0x01,
 0x40,0xd0,0x03,0x80,0xfc,0x01,0x80,0xea,0x05,0x00,0xfa,0x01,0x00,0xc1,0x03,
 0x00,0xfc,0x01,0x80,0xf4,0x15,0xe0,0xfb,0x03,0x40,0xc2,0xff,0xf8,0xff,0x01,
 0x00,0xe9,0x77,0x5d,0xee,0x01,0x40,0xc2,0xff,0xed,0x77,0x03,0x80,0xd4,0xad,
 0xad,0xf4,0x00,0x00,0x81,0xbb,0x49,0xf6,0x02,0x40,0xaa,0x45,0x09,0xad,0x02,
 0x80,0x44,0x8b,0xb8,0x74,0x01,0x00,0xa9,0xe6,0x60,0xdb,0x02,0x80,0x44,0xab,
 0xa8,0xf4,0x01,0x40,0x92,0xb6,0xad,0xfb,0x03,0x00,0x49,0x6d,0x57,0xed,0x01,
 0x40,0x52,0xb7,0xd4,0xf4,0x03,0x80,0x94,0xcc,0x55,0xfd,0x03,0x80,0x22,0xb7,
 0x2a,0xdf,0x01,0x80,0xd4,0x2c,0x85,0xfa,0x02,0x80,0x22,0xbd,0xaa,0xef,0x03,
 0x80,0x54,0x7f,0x81,0xde,0x03,0x40,0xe9,0x7f,0xea,0xe7,0x03,0x40,0xff,0xef,
 0xd3,0xd7,0x03,0xc0,0xff,0xff,0xfd,0xe9,0x03,0xc0,0xff,0xcf,0xff,0xe5,0x03,
 0xc0,0xff,0xdf,0x7f,0xf2,0x03,0xc0,0xff,0x2f,0x5f,0xc1,0x03,0xc0,0xff,0xaf,
 0x2e,0xd5,0x03,0xc0,0xff,0x57,0x1f,0xe0,0x03,0xc0,0xff,0xc7,0x7b,0xf0,0x03,
 0xc0,0xff,0xb7,0xfe,0xf3,0x03,0xc0,0xff,0x27,0x1b,0xf6,0x03,0xc0,0xff,0xaf,
 0x5f,0xf5,0x03};
