/* XPM */
static char *noname_xpm[] = {
/* width height ncolors chars_per_pixel */
"48 48 17 1",
/* colors */
"` c black",
"a c grey33",
"b c grey47",
"c c grey40",
"d c grey87",
"e c grey80",
"f c grey73",
"g c grey27",
"h c grey20",
"i c grey13",
"j c grey67",
"k c grey60",
"l c grey53",
"m c white",
"n c grey93",
"o c grey7",
"p s None c None",
/* pixels */
"pppfffeeeeededddnnnnmmmmmmmmmmmmmmmmmmmmmmmmpppp",
"pppfffffeeeedddndnnnnmmmmmmmmmmmmmmmmmmmmmmmpppp",
"pppfffeeeeededddnnnmmmmmmmmmmmmmmmmmmmmmmmmmpppp",
"pppfefeeeeedddndnnnmnmmmmmmmmmmmmmmmmmmmmmmmpppp",
"pppffeefeddddddnnnmnmmmnmmmmmmmmmmmmmmmmmmmmpppp",
"pppfefeeeeedddnnnnmmmmmmmmmmmmmnmmmmmmmmmmmmpppp",
"pppfeeeeeddddndnnmmmmnmmmnmmmmmmmnmmnmmnmmnmpppp",
"pppfeeeededdndnnmmnmmmmmmmmnmmnmmmmmmmmmmmmmpppp",
"pppeeeeedddddnnnmmmnndnnmmmmmmmmmmnmmmnmmmmmpppp",
"pppfeeeeedddnnnnnnfbaacbkfddmnmnmmmmmmmmmnmmpppp",
"pppeeeedddddnnnmmjggaaabkjblljednmmmnmmmmmmmpppp",
"pppeeededdddnnnneaihhgcbljlghclfennmmmmmmnmmpppp",
"pppeededdddnnnmnlhigbjeddnnebhihcldmnmnmmmmmpppp",
"pppeededdddnnnnfaiakfdnmmmmmnebhickdmmmmmmmmpppp",
"pppeededddnnnnnbiakfeednnmmmmmnkiikfmmmnmmnmpppp",
"pppeeddddndnndjihkjfffeddnnmmmmmkogbenmmmmmmpppp",
"pppeededddnnneahckffffeeddnmmmmmdghalmmmmmmmpppp",
"pppededddnnndjihlkfffeeddnnnmmnmmligadmnmmnmpppp",
"pppeeedddnnndbhgljjffeedndnmmmmmmfgggemmmmmmpppp",
"pppeeedddnnndghalkklkjjeeeddnnmmmeghhkmmnmmmpppp",
"pppedddddnnnehoclghiihckjfkklfnnmeaihbmmmmnmpppp",
"pppeeedddnnnji`labllcaackkcahialedaihcmnmmmmpppp",
"pppeedddnnndbi`lllcgaacljjbcccbcafboianmmmmmpppp",
"pppeeddddnndcooklggiigckefbahggbbkk``hdmnmnmpppp",
"pppededdnnneaohjklbcccbjddlcaihhbjj`oiemmmmmpppp",
"pppeeddddnnfh`akjjkllkkfndflcbllkej``hfmmnmmpppp",
"pppeedddnndfo`ckjjfjfffdmndejkkjdnf`oifmmmmmpppp",
"pppededddnejo`bjfffjfjjenmddddnmndj``hfmmmmmpppp",
"pppeeddddneko`bkjfffjlllkfdfenmmmdj`ohfmnmmmpppp",
"pppeeeddddeb`hbljkjjkcaaaglffennmdk`ohfmmmnmpppp",
"pppeddddddecogllkkkkkkbccblejjjedeloigenmmmmpppp",
"pppeeeeddeeco`blkkblkkkkkkeeklkjfecoigemmmmmpppp",
"pppeeedddeeg``clkllkklbbljefklklkfh`hadmnmmmpppp",
"pppeedededfgo`alkkbcacaaaaccllkklkoohanmmmmmpppp",
"pppeeeddedbh``hlkkkklbbblklllkkllc`ohbmmmnmmpppp",
"pppeeeedefaho`oblkkkkbcccblfjjkllh`ohlmnmmmmpppp",
"pppeeddeebah```allkkklbcbbjjfklla``ohjmmmmmmpppp",
"pppeededjcgho``obllkkkkkkjfjkkbco``ogknmmmnmpppp",
"pppedddfbchi```olbllkkkkjffjllcg```ogbnnmnmnpppp",
"pppjjfflcghi```oklbbbblllklbcaah```ihcenddedpppp",
"pppcbbbcahhi```ilklbbccccccccach``oohgbbcccapppp",
"pppgggaghhhi`o`illlbbcccccccccbh```ohgcbccccpppp",
"pppccccagihiiihclllllbcccccccbbh``oohiclllklpppp",
"pppklbacggagaabklllbbbbccccbbbbh``o`gigbjfffpppp",
"pppklllbcblblkffkllllbcbcccbblbgo`o`gihalddepppp",
"pppkjkllkfjkfjedklllblbcbcbbllbahio`hiigckdnpppp",
"pppedneeedffefdddllbbbbbbbllllbcghhiihohcjdnpppp",
"pppeenddmeeddenndelllbbbbbllkllbaggaighhakmmpppp"
};
