/* XPM */
static char *noname_xpm[] = {
/* width height ncolors chars_per_pixel */
"48 48 17 1",
/* colors */
"` c black",
"a c grey33",
"b c grey47",
"c c grey40",
"d c grey87",
"e c grey80",
"f c grey73",
"g c grey27",
"h c grey20",
"i c grey13",
"j c grey67",
"k c grey60",
"l c grey53",
"m c white",
"n c grey93",
"o c grey7",
"p s None c None",
/* pixels */
"ppppppfjkkjjjjjjkffjjjkllkjjkkkjjjkkjkjjjkpppppp",
"ppppppfjkjkjjfjjjjffjkkllkjjjkjjjjjjkjjjkjpppppp",
"ppppppjjkkjjjjfjjffjjjkblkjjjkjjjjjkjjjjjjpppppp",
"ppppppfjkjkjjjjjjjffjkklkkjjjjjjjjjjjjjjjjpppppp",
"ppppppjjkkjjjfjjkffjjjklljjfjjjjffjjjjjfjjpppppp",
"ppppppjjkkkjjjjjkfffjjklljjjjjjjfjjjjfjfjjpppppp",
"ppppppfjkkjjjffjjfffjkllbljjjjjjffjjfjffjkpppppp",
"ppppppjjkjkjjfjjjfjbgihaaiibkkkjjjjffjffjkpppppp",
"ppppppjjkkjjjjfjkbio`ooighoohalcbkjfjffjjkpppppp",
"ppppppjjkkkjfjjkh`````ooohhi`ogahcljjjjjjkpppppp",
"ppppppjkkkkjjjkh````````ooohiohg`oakkjkjjkpppppp",
"ppppppjjkkkjjkh```````````o``agho`ocjjfjklpppppp",
"ppppppkkkkkjka``````````````oii````okfjjklpppppp",
"ppppppjkkkjklo````````````````o`````hjjjklpppppp",
"ppppppjkkkkkg``````````````oihi``````ljkklpppppp",
"ppppppjkkkkko````````````ogacggio````gjkklpppppp",
"ppppppjkkkkb```````````ogclllbaho````ijkkbpppppp",
"ppppppjkkkkc``````````ickkkjlbbai````okkllpppppp",
"ppppppjkkkkc````ooi`iakjjjjjkkbcho```ikkllpppppp",
"ppppppkklkka```ogahaljfffefklaaagi```hkklbpppppp",
"ppppppjkkkka```oacacaljeeejahgaggh```gkklbpppppp",
"ppppppjkkkkc```iaccacaakjkbclkkbgh```akllbpppppp",
"ppppppjkkkkb```iakefllkljkkbcbbbgi```bkklbpppppp",
"ppppppjkkkkc```iaccbhallllkbhhgagh``okklbbpppppp",
"ppppppjkkkkb```ogcbcccbcbacccbcchi`hbkkllbpppppp",
"ppppppjkkkkkai`oablkkllalcalllbbaiobkkklbbpppppp",
"ppppppkkkkkklghhablkkjlbjlalkklbahgkkkllbbpppppp",
"ppppppkkklkjkccgaclkjkcljlcbkklbahcjkkllbcpppppp",
"ppppppkklkkkkkcaacllklblfkccllbcghckkkllbcpppppp",
"ppppppkklkkkkklcaabkkkbblbcbkklcgogkkllbbcpppppp",
"ppppppkklklkkkkkacclkklbbcbbklbagialllllbcpppppp",
"ppppppkkllkkkkkkacbbllklllbbbbcagiclkllbccpppppp",
"ppppppkkllkkkkklbacbbaagggggbccahhckklbbccpppppp",
"ppppppklllllkkkkkaccbbccaaacbcaghcclllbcccpppppp",
"ppppppklllklklklllaacbbccacccaghhbclkelbccpppppp",
"ppppppkllllllkklklbaccblllbccghgbbbbkmnlccpppppp",
"ppppppllllllkllllllbaacbbbcahhbbbbbbenmmjapppppp",
"ppppppkllllllkllllbbcghhghhiilbbblbldmmmmjpppppp",
"ppppppllblllkllllbbbbghhhiihlkblbblkdmmmmnpppppp",
"ppppppllbllllkllblbllhhgghgjjlblllbfdnnmmmpppppp",
"ppppppllblblllllblkfahhhhafjkblblblfedmmmmpppppp",
"pppppplbbblllllblkjjaihhafjjlbbllbkjejdnmmpppppp",
"pppppplblblblllkkkfkbihaefjkblllbljkkjfdnnpppppp",
"ppppppllbbblllekbbclbhgefjjlbbllblklkjfeejpppppp",
"pppppplbbblbbjkbacclcaeeffkbblblckkjfjjfeepppppp",
"pppppplbbbbblllbcccbccjejjbbbllbclffjjjfffpppppp",
"pppppplbbbblbkllbabblbbfjlbbblbabffjkkjfjfpppppp",
"ppppppcacccccbbccgccccabbcccccchllllllllllpppppp"
};
