#define noname_width 48
#define noname_height 48
static char noname_bits[] = {
 0x00,0x00,0x00,0x00,0x00,0x00,0x00,0x00,0x00,0x84,0x00,0x00,0x00,0x00,0xd0,
 0xaa,0x01,0x00,0x00,0x00,0xb8,0xff,0x07,0x00,0x00,0x00,0xfe,0xff,0x0f,0x00,
 0x00,0x80,0xff,0xff,0x1f,0x00,0x00,0xc0,0xff,0xff,0x1f,0x00,0x00,0xc0,0xff,
 0xff,0x3f,0x00,0x00,0xf0,0xff,0xff,0x7f,0x00,0x00,0xc0,0xff,0xff,0x7f,0x00,
 0x00,0xf0,0xff,0xff,0x7f,0x00,0x00,0xe0,0xea,0xff,0xff,0x00,0x00,0x30,0x80,
 0xfe,0xff,0x00,0x00,0x70,0x00,0xfe,0xff,0x00,0x00,0x30,0x00,0xfa,0x7f,0x00,
 0x00,0x20,0x00,0xf9,0xff,0x00,0x00,0x30,0x00,0xec,0x7f,0x00,0x00,0x00,0x00,
 0xd1,0xff,0x00,0x00,0x20,0x00,0xf4,0x7f,0x00,0x00,0x00,0x00,0xa8,0x7f,0x00,
 0x00,0xe0,0x00,0xf5,0xff,0x00,0x00,0xe0,0xc1,0x5e,0x7f,0x00,0x00,0x40,0xfb,
 0xbf,0xff,0x00,0x00,0xc0,0x42,0xef,0xef,0x00,0x00,0x04,0x31,0x55,0x5f,0x00,
 0x00,0x40,0x48,0xd2,0x76,0x00,0x00,0x21,0x12,0xa8,0x5b,0x00,0x00,0x00,0x20,
 0xd1,0x6f,0x00,0x00,0x24,0x59,0xd4,0x35,0x00,0x00,0x40,0x68,0x68,0xbf,0x00,
 0x80,0x40,0x3f,0xfd,0x7f,0x00,0x00,0x90,0x7a,0xd5,0x7d,0x00,0x00,0xc2,0xf7,
 0x7a,0x3f,0x00,0x00,0x88,0xfb,0xd7,0xbf,0x00,0x80,0xa0,0xa4,0xfd,0x1b,0x00,
 0x00,0x80,0x5a,0xda,0x5f,0x00,0x00,0x12,0x55,0xff,0x0e,0x01,0x80,0x00,0xa5,
 0xff,0x3f,0x00,0x00,0x24,0xe9,0x7f,0x3b,0x00,0x00,0x40,0xb6,0xfe,0x7e,0x00,
 0x80,0x04,0xed,0xef,0x5f,0x02,0x00,0x40,0xf8,0xbf,0xf6,0x00,0x00,0x09,0xe9,
 0x7f,0xff,0x00,0x00,0x40,0xf8,0xaf,0xb7,0x01,0x00,0x12,0x5d,0x75,0xff,0x01,
 0x80,0x00,0xfe,0xaa,0xbf,0x01,0x00,0xa4,0xbe,0xed,0xef,0x03,0x40,0xa9,0x7f,
 0xfb,0xff,0x03};
