/* XPM */
static char *noname_xpm[] = {
/* width height ncolors chars_per_pixel */
"48 48 17 1",
/* colors */
"` c black",
"a c grey33",
"b c grey47",
"c c grey40",
"d c grey87",
"e c grey80",
"f c grey73",
"g c grey27",
"h c grey20",
"i c grey13",
"j c grey67",
"k c grey60",
"l c grey53",
"m c white",
"n c grey93",
"o c grey7",
"p s None c None",
/* pixels */
"ppppppmmmmmmmmmmmmmmmmmmmmmmmmmmmmmmmmmmmmpppppp",
"ppppppmmmmmmmmmmmmmmmmmmmmmmmmmmmmmmmmmmmmpppppp",
"ppppppmmmmmmmmmmmmmmmmmmmmmmmmmmmmmmmmmmmmpppppp",
"ppppppmmmmmmmmmmmmmmmmndddmmmmnnmmmmmmmmmmpppppp",
"ppppppmmmmmmmmmmmmmmmmddekjnndfjfnmmmmmmmmpppppp",
"ppppppmmmmmmmmmmmmmmmnffkccjfcccbknmmmmmmmpppppp",
"ppppppmmmmmmmmmmmmmmnefjbggacghhacknmmmmmmpppppp",
"ppppppmmmmmmmmmmmmdjkkkbghhhhhihhaalmmmmmmpppppp",
"ppppppmmmmmmmnddmejlccaagghihhihhhgkmmmmmmpppppp",
"ppppppmmmmmmmjfndfkcccagaahhhhghgaagnmmmmmpppppp",
"ppppppmmmmmmdjdnjklbccgcagggagagacghfmmmmmpppppp",
"ppppppmmmmmmekmfjlblcabcaacclcbcbahicmmmmmpppppp",
"ppppppmmmmmmjfdfkcabccbbcblbkllkkaioammmmmpppppp",
"ppppppmmmmmmjfkklcgabbblblllkjjjkbgiammmmmpppppp",
"ppppppmmmmmmjkabbggcabbcblljjeefjkbgfmmmmmpppppp",
"ppppppmmmmmmkbacaghghaaclljenmmdekbbmmmmmmpppppp",
"ppppppmmmmmmkcaagghihggbkeennmmdkbllmmmmmmpppppp",
"ppppppmmmmmdlccgghhihaljjkllfnmfbcccmmmmmmpppppp",
"ppppppmmmmmflaagggihcfdnfjllknmkghlgdmmmmmpppppp",
"ppppppmmmmdffagggagjnmdkcajlfmmflccldmmmmmpppppp",
"ppppppmmmmkejghgaajmmnfblbjknmmnfkkffmmmmmpppppp",
"ppppppmmmngblbgggbnmmmnmejjdmmmmeeeefmmmmmpppppp",
"ppppppmmmdiaklccckmmmmmmmnmmmmmmmeeefnmmmmpppppp",
"ppppppmmmfhibfjbkemmmmmmmmmmmnmmnedejmmmmmpppppp",
"ppppppmmmjhigfjkdnnmmmmmmmmmffkblkffkmmmmmpppppp",
"ppppppmmmfahigdedmnnnnddnmmneffbkfjjjmmmmmpppppp",
"ppppppmmmjghoocnnenddeeednndnnmefjjkjmmmmmpppppp",
"ppppppmmmjho`iiakcendeffeddddelaagbkfmmmmmpppppp",
"ppppppmmmeio`ogagcfdeeeeeddfllkllbblfmmmmmpppppp",
"ppppppmmmngo`oachgffeeedeedfeflbbbllfmmmmmpppppp",
"ppppppmmmmb```bh`ikejfefddefeffeejlbadmmmmpppppp",
"ppppppmmmmbo`gcooicejkjfffeeddnndjlcgcmmmmpppppp",
"ppppppmmmmlgibiogigffkbblkjffeefkbaihgkmmmpppppp",
"ppppppmmmddcacooahojfkbaggaccccahihhihhnmmpppppp",
"ppppppebabbgcaoolh`ljkllcagiooih`oihiiickkpppppp",
"ppppppcaoohgcciolhohblkllbagoihg`ohhiiiigcpppppp",
"ppppppelo`hibcihlgi`ablkkbcghhai`higiihohcpppppp",
"ppppppjbhohhbahgcah`hcbkklcagaao`ghhihiiigpppppp",
"ppppppefaoohgchcaag`ihcblbcaaag`ogghiioiihpppppp",
"ppppppakahiigghcaai``hhacaagaai`gggiiiooigpppppp",
"ppppppcccchogggbago``hghhgggghighgiiiiii`ipppppp",
"pppppplkajaohhgcaioi`ihghhhgghgghhoiiiii``pppppp",
"ppppppbahbhhghgagiihooiggggihhahhhoiiiih``pppppp",
"ppppppllcbiihhgaiohhh`ooooooiggiiioiio`oi`pppppp",
"ppppppbackhooghai`ihhi``oiihggioiioiio`hoipppppp",
"pppppplacloooiggiiihhgi```hghhoiioihg``hhhpppppp",
"ppppppjlla`iioaggihihghhihghgooioogcg``gcgpppppp",
"ppppppjkbo`oi`hoo`oi`oiiiioo`````oiii``hg`pppppp"
};
