/* XPM */
static char *noname_xpm[] = {
/* width height ncolors chars_per_pixel */
"48 48 17 1",
/* colors */
"` c black",
"a c grey33",
"b c grey47",
"c c grey40",
"d c grey87",
"e c grey80",
"f c grey73",
"g c grey27",
"h c grey20",
"i c grey13",
"j c grey67",
"k c grey60",
"l c grey53",
"m c white",
"n c grey93",
"o c grey7",
"p s None c None",
/* pixels */
"pppmmmmmmmmmmmmmnndfefeddnnmnmmnmnmnnnnnnnndpppp",
"pppmmmmmmmmmmmmndfcggggclfdmnmnmnmnmnmnnnnndpppp",
"pppmnmmmmmmmmnefkaiooooiiihknmnmnnnnnnnnnndnpppp",
"pppmmmnmmmmndeekahoooooiiihhbednnnmnnnnnnndnpppp",
"pppmnmmnndddefkahioihggcbbllklbkednnnnnnnnndpppp",
"pppmmmnndeedflghioigclkjeeeffjkcgbfdddnnndnnpppp",
"pppmmdnddddekaghiohbjffeedeefjkkaohkdddnnndnpppp",
"pppnmndddddfbchhohljfededddeefkklhoikddddndnpppp",
"pppmnddnddflaghoibfedddnnndeejjkkciogjddddnnpppp",
"pppnndnndfkchhiiakddnnnmnnddffjkkchoobfefdddpppp",
"pppnndedkbcggiiabfddnmmnmddeffjjkbg`ohbfeeedpppp",
"pppmnndbggghhihbkeennnnnnneeffjjkbao`ogkffdepppp",
"pppmnnlihghiioakfeddmmmmnndeeffjklao`ohlbfeepppp",
"pppmmniohhiioocjednnmmmnnnddefjjkbao``iacjfepppp",
"pppmmeioioio`obfennnnnnnnndffffjkbao`ooohljjpppp",
"pppmmehooooo`hlfedddeeeeefjklbbbcbao``ooiglkpppp",
"pppmndhoiio`ogllklbblkjjkkbagggagcaoo`o`oiclpppp",
"pppnmehioo``oalllbcacllkkbaaablbcaah`o`ooiabpppp",
"pppfflaoo```icblfjlbagajkcgaclllbcag`o`ooialpppp",
"ppplkkgio`o`hlblllcagcbmmkaaaghaacgi````oigkpppp",
"pppbaghii```hlkcagiabklkkablbagaclch```ooiabpppp",
"pppjgoioio``igjkkkllkeldeclllbbllklco``ooohgpppp",
"pppkgiooi`o`bljfjkjfdnlnelcklblbllla``o`ooihpppp",
"pppbhooioo``bjkfeddddjknelabkjklkjbao`o`ooihpppp",
"pppbgiii`o``bkljeeffjkeddklablkllcag``o`ooihpppp",
"pppahiioo```akkjjjkkbjkklbaccccblcch````ooihpppp",
"pppahhio````gkjjklbbcchgghigbllllcah```o`iigpppp",
"pppchhiooo``hkjfjjkkfjcggihabkkkllch```ooooipppp",
"pppchhio`i``ilffejjfflagghihabkllbci````ooihpppp",
"pppbhioioi``icjfjkkblcghcgoihhabbbai```ooohipppp",
"pppbghiooo``ogkjjlghbccblbgahoigbcho```oohhgpppp",
"pppcgioioo```gbkkbhhalllbbcagihgcgh````ooihcpppp",
"pppcgiioo```oiabbcajjjjjjklcccghgho```ooiiggpppp",
"pppghioo`o```ogaccbffklcaaccbbghhio```oooiiipppp",
"ppphiiooo````oogaclkjkcghhacccgiio``````o`ihpppp",
"ppphoooiooo```oigcljjjkcgabbbcgio````````oiipppp",
"pppiooooooi````ohgbjffjbcbbbcaho`````````oacpppp",
"pppiooooo``o`o``oigccbbaggggiio`````````oogapppp",
"ppphho``o```o`o``oooiihiioo`````````````ohbkpppp",
"ppplgio`o``ooo`o````o````o`````````````oocfepppp",
"pppelioo```oo`o``o```````````````````o``okeepppp",
"pppbio`````iooio````````o````````````o```okepppp",
"pppoo`o````ihooo`````````````o````o`oo`````ipppp",
"pppo`o`````iho`i`o```````````````oo``o``o```pppp",
"pppooo````ohiooio```````````````o``o`i``i```pppp",
"pppoooo``oiooi`ooo``````````````oo`ooio`i```pppp",
"pppooio`oiiiiio`iioo``````o`oooooo`ooio`io``pppp",
"pppoooo``hiihhioigghiiiiiiiiiiiiioo`o`o`oo``pppp"
};
