/* XPM */
static char *noname_xpm[] = {
/* width height ncolors chars_per_pixel */
"48 48 17 1",
/* colors */
"` c black",
"a c grey33",
"b c grey47",
"c c grey40",
"d c grey87",
"e c grey80",
"f c grey73",
"g c grey27",
"h c grey20",
"i c grey13",
"j c grey67",
"k c grey60",
"l c grey53",
"m c white",
"n c grey93",
"o c grey7",
"p s None c None",
/* pixels */
"ppppppmmmmmmmmmmmmmndmmmmefnmmmmmmmmmmmmmmpppppp",
"ppppppmmmmmmmmmmmdlldmmndfkljnmmmmmmmmmmmmpppppp",
"ppppppmmmmmmmmmmdklclbjjklkjjkdmmmmmmmmmmmpppppp",
"ppppppmmmmmmmmmdkbahhhhgbbbkfeedmmmmmmmmmmpppppp",
"ppppppmmmmmmmnfbghhiohhhhacaclljdmmmmmmmmmpppppp",
"ppppppmmmmmmecgcccaahiiiiiiiigacjnmmmmmmmmpppppp",
"ppppppmmmmmekahhgaaghhiiiiihhhhgaknmmmmmmmpppppp",
"ppppppmmmmmfcgihihhhiiiiiiihihhhhhkmmmmmmmpppppp",
"ppppppmmmmnelahihghhiiiihoiiiihghhgemmmmmmpppppp",
"ppppppmmmmmelahhhghiihihhioiiihihhgbnmmmmmpppppp",
"ppppppmmmmmncghihhghhiihhiiiihhhhigbnmmmmmpppppp",
"ppppppmmmmmfhhhhhhaghhhihiioiihhhhgbdmmmmmpppppp",
"ppppppmmmmnchocahhgcaghhiiiiiihhggacjmmmmmpppppp",
"ppppppmmmmkghikkbabkbahhgghgckbhihggaldmmmpppppp",
"ppppppmmmncahhjkklkjkbahghgbjfmfchiihgldmmpppppp",
"ppppppmmmkgiigaaghalllbgggcjddnmdg`ooicjmmpppppp",
"ppppppmmdgiioablbcackejccaabbjdmmc``ooaknmpppppp",
"ppppppmnbioo`ccggihakmnbblaljnmmnlo``ickdmpppppp",
"ppppppmmkoo``lkccaalfmmdfjjdmmmmnko``hckddpppppp",
"ppppppmmji```kffkkkjfmmmmnnmmmmmdko``gcldepppppp",
"ppppppmmei```lfedddefmmmnmmmmmmndkh`ohcbfkpppppp",
"ppppppmmehooobkfnnfkenmmjdnmmmdefkh`ohackkpppppp",
"ppppppmmfaio`akjdfbljddellfeeeejec``ohaablpppppp",
"ppppppmmjaoo`hblkbakcckjkaclkjjfeh``ihagbkpppppp",
"ppppppmnlgii`oabcackkkkfejcabfeejo``hacgckpppppp",
"ppppppmdbghh``gcaaclbllbbccljfeeb```gclhckpppppp",
"ppppppmfbchoo`ocbcaghgacbjfjfffjh``icclhgbpppppp",
"ppppppmlcchoo`ogccllljjjjeejkkjc``ohaclhhgpppppp",
"ppppppebaagiioooaclbbcbbjeejkkbo``ihcabagipppppp",
"ppppppkcacgiiiioiabkkfddddejlci```hhagabgipppppp",
"ppppppbgacgoihho`ogbjfeddejbaio`oiggggglagpppppp",
"ppppppbhgbg`ihhio``hcbblkbaho``oohghagcjcapppppp",
"ppppppbgcciohhiio```ihhhhiho``oohhahgabjbapppppp",
"pppppplgcioihgihi````hhiiioo```ohcahhabkccpppppp",
"ppppppkagiihgahhio```ihhiioo```agghghabkccpppppp",
"ppppppjcghihgahaiio``ohhhiioi`olcghhgabjlcpppppp",
"ppppppnccahhggaghho```ihhhhiihabahhggcbllbpppppp",
"ppppppnbcahhghaghho```ohhhhhaaoo`oohgclbbbpppppp",
"ppppppnlaciggggghioi```ihghggio`hggacblclbpppppp",
"ppppppnkachhaaaghi`oii`ohhgghiihcaclbllckbpppppp",
"ppppppejccghgcaghi```hioigagigiccbbbbkbckcpppppp",
"ppppppjbccahhhgiioo``igiigghggabcbblbjbblcpppppp",
"ppppppflbcahhiiohiiiohgaagghbhbbbbbblfalbcpppppp",
"pppppplbbbcaghhighhhihccaaggaabcbbblkfalabpppppp",
"ppppppklbbbcahggcgggggcccghbgcbbbbbbjkgkgbpppppp",
"pppppplllklbbaacccaaaabagaabhbbbbbbljkgkgapppppp",
"pppppplkkkkklccbbbcccclcbcbcgbbbbbbkfbakggpppppp",
"ppppppccbbbccghaaaggggaccgaihaaagaaclghahipppppp"
};
