#define face_width 48
#define face_height 48
static char face_bits[] = {
   0x03, 0x00, 0x00, 0x00, 0x00, 0xc0, 0x07, 0x00, 0x00, 0x00, 0x00, 0xe0,
   0x0e, 0x00, 0x00, 0x00, 0x00, 0x70, 0x1c, 0x00, 0x00, 0x00, 0x00, 0x38,
   0x38, 0x00, 0x00, 0x00, 0x00, 0x1c, 0x70, 0x00, 0x00, 0x00, 0x00, 0x0e,
   0xe0, 0x00, 0x00, 0x00, 0x00, 0x07, 0xc0, 0x01, 0x00, 0x00, 0x80, 0x03,
   0x80, 0x03, 0x00, 0x00, 0xc0, 0x01, 0x00, 0xff, 0xff, 0xff, 0xff, 0x01,
   0x80, 0x0e, 0x00, 0x00, 0x70, 0x02, 0x40, 0x5c, 0x55, 0x55, 0x7d, 0x04,
   0x20, 0x38, 0x00, 0x00, 0x1c, 0x08, 0x10, 0x70, 0x55, 0x55, 0x5f, 0x11,
   0x10, 0xf0, 0x00, 0x00, 0x07, 0x10, 0x08, 0xe1, 0x55, 0xd5, 0x57, 0x25,
   0x88, 0xa3, 0x03, 0xc0, 0x01, 0x20, 0xc8, 0x27, 0x57, 0xf5, 0x55, 0x25,
   0xc8, 0x27, 0x0e, 0x70, 0x00, 0x20, 0xc8, 0x27, 0x5d, 0x7d, 0x55, 0x25,
   0xc8, 0x27, 0x38, 0x1c, 0x00, 0x20, 0xc8, 0x27, 0x75, 0x5f, 0x55, 0x25,
   0x88, 0x23, 0xe0, 0x07, 0x00, 0x20, 0x08, 0x21, 0xd5, 0x57, 0x55, 0x25,
   0x10, 0x10, 0xc0, 0x03, 0x00, 0x10, 0x10, 0x10, 0xf5, 0x57, 0x55, 0x11,
   0x30, 0x08, 0x70, 0x0e, 0x00, 0x08, 0x50, 0x44, 0xbd, 0x5e, 0x55, 0x04,
   0xa0, 0x02, 0x1c, 0x38, 0x00, 0x02, 0x20, 0xff, 0xff, 0xff, 0xff, 0x01,
   0x20, 0x00, 0x07, 0xe0, 0x20, 0x00, 0x20, 0x80, 0x03, 0xc0, 0x41, 0x00,
   0x20, 0xc0, 0x01, 0x80, 0x43, 0x00, 0x40, 0xe0, 0x00, 0x00, 0x47, 0x00,
   0x40, 0x70, 0x00, 0x00, 0x8e, 0x00, 0x80, 0x38, 0x00, 0x00, 0x9c, 0x00,
   0x80, 0x1c, 0x00, 0x00, 0xb8, 0x00, 0x80, 0x0e, 0x00, 0x00, 0xf0, 0x00,
   0x80, 0x07, 0x00, 0x00, 0xe0, 0x00, 0x80, 0x03, 0x00, 0x00, 0xc0, 0x01,
   0xc0, 0x01, 0x06, 0x00, 0x80, 0x03, 0xe0, 0xc1, 0x1f, 0x00, 0x00, 0x07,
   0x70, 0x79, 0x20, 0x00, 0x1e, 0x0f, 0x38, 0x15, 0xc0, 0xc1, 0x21, 0x1e,
   0x1c, 0x03, 0x00, 0x7e, 0xc0, 0x39, 0x0e, 0x00, 0x00, 0x00, 0x00, 0x70,
   0x07, 0x00, 0x00, 0x00, 0x00, 0xe0, 0x03, 0x00, 0x00, 0x00, 0x00, 0xc0};
