#define noname_width 48
#define noname_height 48
static char noname_bits[] = {
 0x00,0x00,0x00,0x00,0x00,0x00,0x00,0x00,0x00,0x00,0x00,0x00,0x00,0x00,0x00,
 0x00,0x00,0x00,0x00,0x00,0x00,0x00,0x00,0x00,0x00,0x00,0x00,0x00,0x00,0x00,
 0x00,0x00,0x08,0x7a,0x00,0x00,0x00,0x00,0x20,0xad,0x00,0x00,0x00,0x00,0x92,
 0xfa,0x00,0x00,0x00,0x00,0xb1,0xa9,0x01,0x00,0x00,0x00,0xa8,0xf6,0x07,0x00,
 0x00,0x00,0x5e,0xe9,0x0f,0x00,0x00,0x40,0x41,0xd4,0x0f,0x00,0x00,0x80,0x84,
 0x52,0x0b,0x00,0x00,0x60,0x8a,0xb4,0x0f,0x00,0x00,0x50,0x81,0x6e,0x1b,0x00,
 0x00,0xe8,0x04,0xd2,0x1e,0x00,0x00,0xb8,0x4a,0xac,0x17,0x00,0x00,0xe8,0x14,
 0xd5,0x3f,0x00,0x00,0x38,0x15,0xda,0x1f,0x00,0x00,0xe8,0x2c,0x6d,0x7f,0x00,
 0x00,0x34,0x00,0x91,0x77,0x00,0x00,0xf8,0x80,0xa0,0x7f,0x00,0x00,0x34,0x20,
 0xc1,0xbb,0x00,0x00,0x74,0x08,0x44,0xef,0x00,0x00,0xbc,0xa8,0xd3,0xbf,0x00,
 0x00,0x72,0x95,0xac,0xaf,0x00,0x00,0x78,0x22,0xb5,0x7b,0x00,0x00,0xf8,0x9c,
 0xd6,0x5f,0x00,0x00,0xfc,0x22,0xd5,0x3b,0x00,0x00,0xf0,0x91,0xea,0x7f,0x00,
 0x00,0xfc,0x4a,0xf5,0xbb,0x00,0x00,0xe8,0x45,0xda,0x77,0x00,0x00,0xf0,0x8b,
 0xee,0x7f,0x00,0x00,0xe0,0x6b,0xab,0xb7,0x00,0x00,0xf0,0xab,0xed,0x7b,0x00,
 0x00,0xd0,0x57,0xd5,0xff,0x00,0x00,0xe0,0x56,0xb5,0x77,0x01,0x00,0xf0,0xad,
 0xea,0xdf,0x00,0x00,0xf8,0xd7,0xb6,0x7b,0x01,0x00,0xe8,0x7d,0xdb,0xaf,0x02,
 0x00,0xe8,0x57,0x55,0x5f,0x01,0x00,0xf4,0x4d,0xd5,0x53,0x01,0x00,0xf2,0xb6,
 0x3a,0x94,0x00,0x00,0x45,0xdb,0x4a,0x4b,0x02,0x00,0x44,0x25,0xa5,0x24,0x01,
 0x00,0x21,0x48,0x49,0x92,0x00,0x80,0x84,0x12,0x92,0x24,0x01,0x80,0x6a,0xd5,
 0x6d,0xab,0x02};
