/* XPM */
static char * ge_xpm[] = {
/* width height ncolors chars_per_pixel */
"48 48 4 1",
/* colors */
" 	s None	c None",
".	c black",
"X	c purple",
"o	c white",
/* pixels */
"        ....                       .            ",
"       .    .                                   ",
"       .       ..   ...  . .  .. . . ...        ",
"       .      .  . .   . ..  .  .. .    .       ",
"       .   .. .... .   . .   .   . .  ...       ",
"       .    . .    .   . .   .   . . .  .       ",
"       .   .. .  . .   . .   .  .. . .  .       ",
"        ... .  ..   ...  .    .. . .  .. .      ",
"                                 .              ",
"                              ...               ",
"                                                ",
"                                                ",
"................................................",
"....................XXXXXXXXXXXXXXXXXXXXXXXXXXX.",
"....................XXXXXXXXXXXXXXXXXXXXXXXXXXX.",
"....................XXXXXXXXXXXXXXXXXXXXXXXXXXX.",
"....................XXXXXXXXXXXXXXXXXXXXXXXXXXX.",
"....................XXXXXXXXXXXXXXXXXXXXXXXXXXX.",
"....................XXXXXXXXXXXXXXXXXXXXXXXXXXX.",
"....................XXXXXXXXXXXXXXXXXXXXXXXXXXX.",
".oooooooooooooooooooXXXXXXXXXXXXXXXXXXXXXXXXXXX.",
".oooooooooooooooooooXXXXXXXXXXXXXXXXXXXXXXXXXXX.",
".oooooooooooooooooooXXXXXXXXXXXXXXXXXXXXXXXXXXX.",
".oooooooooooooooooooXXXXXXXXXXXXXXXXXXXXXXXXXXX.",
".oooooooooooooooooooXXXXXXXXXXXXXXXXXXXXXXXXXXX.",
".oooooooooooooooooooXXXXXXXXXXXXXXXXXXXXXXXXXXX.",
".oooooooooooooooooooXXXXXXXXXXXXXXXXXXXXXXXXXXX.",
".oooooooooooooooooooXXXXXXXXXXXXXXXXXXXXXXXXXXX.",
".XXXXXXXXXXXXXXXXXXXXXXXXXXXXXXXXXXXXXXXXXXXXXX.",
".XXXXXXXXXXXXXXXXXXXXXXXXXXXXXXXXXXXXXXXXXXXXXX.",
".XXXXXXXXXXXXXXXXXXXXXXXXXXXXXXXXXXXXXXXXXXXXXX.",
".XXXXXXXXXXXXXXXXXXXXXXXXXXXXXXXXXXXXXXXXXXXXXX.",
".XXXXXXXXXXXXXXXXXXXXXXXXXXXXXXXXXXXXXXXXXXXXXX.",
".XXXXXXXXXXXXXXXXXXXXXXXXXXXXXXXXXXXXXXXXXXXXXX.",
".XXXXXXXXXXXXXXXXXXXXXXXXXXXXXXXXXXXXXXXXXXXXXX.",
".XXXXXXXXXXXXXXXXXXXXXXXXXXXXXXXXXXXXXXXXXXXXXX.",
".XXXXXXXXXXXXXXXXXXXXXXXXXXXXXXXXXXXXXXXXXXXXXX.",
".XXXXXXXXXXXXXXXXXXXXXXXXXXXXXXXXXXXXXXXXXXXXXX.",
".XXXXXXXXXXXXXXXXXXXXXXXXXXXXXXXXXXXXXXXXXXXXXX.",
".XXXXXXXXXXXXXXXXXXXXXXXXXXXXXXXXXXXXXXXXXXXXXX.",
".XXXXXXXXXXXXXXXXXXXXXXXXXXXXXXXXXXXXXXXXXXXXXX.",
".XXXXXXXXXXXXXXXXXXXXXXXXXXXXXXXXXXXXXXXXXXXXXX.",
".XXXXXXXXXXXXXXXXXXXXXXXXXXXXXXXXXXXXXXXXXXXXXX.",
"................................................",
"                                                ",
"                                                ",
"                                                ",
"                                                "};
