/* XPM */
static char *noname_xpm[] = {
/* width height ncolors chars_per_pixel */
"48 48 17 1",
/* colors */
"` c black",
"a c grey33",
"b c grey47",
"c c grey40",
"d c grey87",
"e c grey80",
"f c grey73",
"g c grey27",
"h c grey20",
"i c grey13",
"j c grey67",
"k c grey60",
"l c grey53",
"m c white",
"n c grey93",
"o c grey7",
"p s None c None",
/* pixels */
"ppppppeeeeeeeeeeeeeeeeeddddddddndnnnnnmnmmpppppp",
"ppppppeeeeefeeeeeeeeedeededdddddnnnnnnnnnmpppppp",
"ppppppeeefeefeeeeeeeeeeddndddddddnnnnnmnmmpppppp",
"ppppppeeeefeefeeeeeeeefddeffjjfdndnnnnnnnmpppppp",
"ppppppeefeefefeeeefklklkflbbbcgbednnnnmnmmpppppp",
"ppppppefefffefeeefbgacacbcaagcahcennnnnnnnpppppp",
"ppppppeefefefeeffchhgaaacaagggaagafnnnnnmmpppppp",
"ppppppfefeffefefahiiighhhhhhhgggghcdnnmnnnpppppp",
"ppppppefeffefffkghhiihhiiioiooigahhlennnmnpppppp",
"ppppppfeffffefkhiioiiiiiiiioiioohhihbdnnnnpppppp",
"ppppppeffefffjgiiooioiiiiiiiiiooiiiihldnnmpppppp",
"ppppppfefffejaoiioo`oiihiiiihihihihihgfnnnpppppp",
"ppppppefffffkooiiihghhhihhhghghhgggihhbdnnpppppp",
"ppppppffefffc`ooiighiiihhhggggccbcahihgdnnpppppp",
"ppppppefffffg``oohcaghgggagcbkjkbbchiiifnnpppppp",
"ppppppfffffji```oilkjednefedddefkbchiiifdnpppppp",
"ppppppfffffjo```oglkenmmmmmmmmmdflciiohdddpppppp",
"ppppppeffffjh```ocljfdnndmmmmmmnelcioohdddpppppp",
"ppppppfffffjc```olklfdfbblkjjjkkklci`ohdddpppppp",
"ppppppfffjfflho`hgbkjmfbedkjlbalkcaio`gdddpppppp",
"ppppppffffjfjlaiclckkekkeejllbckjahg`ikdddpppppp",
"ppppppfjfjjjjjlbbkkjfeeffejfclkllagchaededpppppp",
"ppppppffjfjfjjklbkjednnnnfeebljkkbckgleddepppppp",
"ppppppjjjjjjjjelckfenmmmdjndcleejlklgkededpppppp",
"ppppppjfjjjjjjfkblfeeedfjemdbbfdekjackeeeepppppp",
"ppppppjjjjjjjlcacbkfeeefjjeebclkjkcacfedeepppppp",
"ppppppjjjjjjjkoocblkjednjllcgckjlbgcbeeeeepppppp",
"ppppppfjjjjjjkhoabljffeeeejkbllkcaalfeeeeepppppp",
"ppppppjjjjjjjkgiabkkfkkjdeeelbcbcglefefefepppppp",
"ppppppjjkjkjkjlagclkfjbcblklbaacagjffefeffpppppp",
"ppppppjjjkjjjkfaagblkfjlblbahhacgaffeffffepppppp",
"ppppppjjkjkjkleccgcbljklkkklbaaagkfffffeffpppppp",
"ppppppjkjkjkbanebaacbljlccccggagcfffffffffpppppp",
"ppppppjjkkkbilmmfbaaabjfjklccagajfffffffffpppppp",
"ppppppjkkkci`kmmmebaacbjffjbbghkfjjjjjffjfpppppp",
"ppppppjkcgooolmmmmdlaaaclllcgibjjjjjjjfjfjpppppp",
"ppppppcgioo``bmmmmmnjcaggghhhcljjjjjfjfjfjpppppp",
"ppppppiioo```gmmmmmmmebahhhhcjchakjjjjjfjjpppppp",
"ppppppioo````idmmmmmmmnkchgceecooigljjfjjjpppppp",
"ppppppo`ooo``ofmmmmmmmmmbgkmmdc`oooogbjjjjpppppp",
"ppppppooo`````kmmmmmmmnkiiigjec`o`oooihbjjpppppp",
"pppppp`o`o````ammmmmmmbhiio`ikbo`o`o`ooihcpppppp",
"ppppppo`o`````inmmmmmaoihhooiaka``o`o``ooopppppp",
"ppppppoo`o`o``ojmmmmjgggiiigcgkjo``o`oo`oopppppp",
"ppppppo````````cmmmmneeeihiblkena````o````pppppp",
"pppppp``o````o`hnmmmmmdehiiljenmj``````o`opppppp",
"pppppp`````o```ofmmmmmnkihibeenmnio`o```o`pppppp",
"pppppp``````````cdededfgohickffeeg````````pppppp"
};
