/* XPM */
static char *noname_xpm[] = {
/* width height ncolors chars_per_pixel */
"48 48 17 1",
/* colors */
"` c black",
"a c grey33",
"b c grey47",
"c c grey40",
"d c grey87",
"e c grey80",
"f c grey73",
"g c grey27",
"h c grey20",
"i c grey13",
"j c grey67",
"k c grey60",
"l c grey53",
"m c white",
"n c grey93",
"o c grey7",
"p s None c None",
/* pixels */
"ppppppmmmmmmmmmmmmmmmmmmmmmmmmmmmmmmmmmmmmpppppp",
"ppppppmmmmmmmmmmndmmmmmnedeenmmmmmmmmmmmmmpppppp",
"ppppppmmmmmmmmmelkdndnneeejlfenmnnmmmmmmmmpppppp",
"ppppppmmmmmmmmdblllfjdeeejjlbbemfkemmmmmmmpppppp",
"ppppppmmmmmmmdbccbbcclkkbcggacfmflkdmmmmmmpppppp",
"ppppppmmmmmmmkaaaacbccaaagghggjflcblnmmmmmpppppp",
"ppppppmmmmmmmcaggaaaggaghgghhgccccabemmmmmpppppp",
"ppppppmmmmmmdaaagaaaaaaaaaaaahhhhacckmmmmmpppppp",
"ppppppmmmmmmkagggggaaaccblkjkbhhhaccbmmmmmpppppp",
"ppppppmmmmmlaaggghgaacbkemmmmnbhhacaadmmmmpppppp",
"ppppppmmmmeagggghgaacbfnmmmmmmfaaacagjmmmmpppppp",
"ppppppmmmdcggggghggabemmmmmmmmdcaaagalmmmmpppppp",
"ppppppmmmbghhghhhhacjmmmmmmmmmnbaggggammmmpppppp",
"ppppppmmngghhggghgaknmmmmmmmmmmjahhgggemmmpppppp",
"ppppppmmdghhhggggbjnmmmmmmmmmmmmlhhhhhlmmmpppppp",
"ppppppmmehihhhabfdmmmmmmmmmmmmmmnbhhhicmmmpppppp",
"ppppppmmkhhhhhaledmmmmmmmmmmmmmmmdahihhdmmpppppp",
"ppppppmmbhhihhgkednmnmmmmmmmmmmmmmbhhiiemmpppppp",
"ppppppmnchhihhgjffjkllkfnmnfjkkennliiiibmmpppppp",
"ppppppmfahihiicfklllbacbemebcbkjfdkiiihbnmpppppp",
"ppppppmjchihhhkfklblbccbemdkbbjffejiiiglnmpppppp",
"ppppppmlgihgagjfkbaggllkemnkchackdehhhgjdmpppppp",
"ppppppncghajflffjkkkkjkfdmmekkffendkkghbempppppp",
"ppppppfahhldfkjfeffffeeeemmnneddnmdndahajmpppppp",
"ppppppkghhfflkkfenmmnmdfdmmnmmmmmndenaigjnpppppp",
"ppppppcgigfkfkkjenmmmdfjemmnmmmmmmeedaigkmpppppp",
"ppppppghihjjfllkfdmndkkjennnenmmmnedehihbnpppppp",
"ppppppghiikfjllkjfeflbbccllkkjdmndfnliihcepppppp",
"pppppphiiicffbllkjjkbkkcaalffbkedeengoiiajpppppp",
"pppppphhoohllblllklcbklbbbljflbjfeffiiiigbpppppp",
"pppppphiooooiablllbcbbkkjjjkjkbkjfaoooiihapppppp",
"pppppphioooooccbbllcgaacbblblclkjjioooiiiapppppp",
"ppppppiiooo`iccbcblblccbbllclllkjlo``oooihpppppp",
"ppppppoooo`ohcacccbbklllkjjjfklkkao`o`ooohpppppp",
"ppppppoo`o``hbgaaaccbbccacbkkkllli```o`ooipppppp",
"ppppppo`o``ohbagacaccbccaablllbbg````````opppppp",
"ppppppo```oogbaghgaacbkkkjjkllbao````o`o`opppppp",
"ppppppooo`ohgbcahhgacckkkkjklbch``````````pppppp",
"ppppppoo`o`hcccaghhhgacbcclbbac```````````pppppp",
"ppppppiooo`ogcbaghiiihhgaaaaaag```````````pppppp",
"ppppppioooo`oabcahhioooooiihgch```````````pppppp",
"ppppppoioooo`hccaghhoooooohacc````````````pppppp",
"ppppppo`oooooiaaaghhiiiiihccca````````````pppppp",
"ppppppii``oo``hagghhhiiihgaacg````````````pppppp",
"ppppppioo`oo`o`hggahhiiiihaach````````````pppppp",
"ppppppoooi``o```hgaaghhiihacag````````````pppppp",
"ppppppoooooo`o``ohggaaghhgacag```o````````pppppp",
"ppppppoooo`o`o````ihhhhhihghgi````````````pppppp"
};
