/* XPM */
static char * il_xpm[] = {
/* width height ncolors chars_per_pixel */
"48 48 4 1",
/* colors */
" 	s None	c None",
".	c black",
"X	c white",
"o	c blue",
/* pixels */
"             .                    .             ",
"             .                    .             ",
"             .  ..  . . ...   ..  .             ",
"             . .  . ..     . .  . .             ",
"             .  ..  .    ... .... .             ",
"             .    . .   .  . .    .             ",
"             . .  . .   .  . .  . .             ",
"             .  ..  .    .. . ..  .             ",
"                                                ",
"                                                ",
"                                                ",
"                                                ",
"                                                ",
" ...............................................",
" .XXXXXXXXXXXXXXXXXXXXXXXXXXXXXXXXXXXXXXXXXXXXX.",
" .XXXXXXXXXXXXXXXXXXXXXXXXXXXXXXXXXXXXXXXXXXXXX.",
" .XXXXXXXXXXXXXXXXXXXXXXXXXXXXXXXXXXXXXXXXXXXXX.",
" .ooooooooooooooooooooooooooooooooooooooooooooo.",
" .ooooooooooooooooooooooooooooooooooooooooooooo.",
" .ooooooooooooooooooooooooooooooooooooooooooooo.",
" .XXXXXXXXXXXXXXXXXXXXXXXXXXXXXXXXXXXXXXXXXXXXX.",
" .XXXXXXXXXXXXXXXXXXXXXXXXXXXXXXXXXXXXXXXXXXXXX.",
" .XXXXXXXXXXXXXXXXXXXXXXoXXXXXXXXXXXXXXXXXXXXXX.",
" .XXXXXXXXXXXXXXXXXXXXXoXoXXXXXXXXXXXXXXXXXXXXX.",
" .XXXXXXXXXXXXXXXXXXXXoXXXoXXXXXXXXXXXXXXXXXXXX.",
" .XXXXXXXXXXXXXXXoooooooooooooooXXXXXXXXXXXXXXX.",
" .XXXXXXXXXXXXXXXXoXXoXXXXXoXXoXXXXXXXXXXXXXXXX.",
" .XXXXXXXXXXXXXXXXXooXXXXXXXooXXXXXXXXXXXXXXXXX.",
" .XXXXXXXXXXXXXXXXXoXXXXXXXXXoXXXXXXXXXXXXXXXXX.",
" .XXXXXXXXXXXXXXXXXooXXXXXXXooXXXXXXXXXXXXXXXXX.",
" .XXXXXXXXXXXXXXXXoXXoXXXXXoXXoXXXXXXXXXXXXXXXX.",
" .XXXXXXXXXXXXXXXoooooooooooooooXXXXXXXXXXXXXXX.",
" .XXXXXXXXXXXXXXXXXXXXoXXXoXXXXXXXXXXXXXXXXXXXX.",
" .XXXXXXXXXXXXXXXXXXXXXoXoXXXXXXXXXXXXXXXXXXXXX.",
" .XXXXXXXXXXXXXXXXXXXXXXoXXXXXXXXXXXXXXXXXXXXXX.",
" .XXXXXXXXXXXXXXXXXXXXXXXXXXXXXXXXXXXXXXXXXXXXX.",
" .XXXXXXXXXXXXXXXXXXXXXXXXXXXXXXXXXXXXXXXXXXXXX.",
" .ooooooooooooooooooooooooooooooooooooooooooooo.",
" .ooooooooooooooooooooooooooooooooooooooooooooo.",
" .ooooooooooooooooooooooooooooooooooooooooooooo.",
" .XXXXXXXXXXXXXXXXXXXXXXXXXXXXXXXXXXXXXXXXXXXXX.",
" .XXXXXXXXXXXXXXXXXXXXXXXXXXXXXXXXXXXXXXXXXXXXX.",
" .XXXXXXXXXXXXXXXXXXXXXXXXXXXXXXXXXXXXXXXXXXXXX.",
" ...............................................",
"                                                ",
"                                                ",
"                                                ",
"                                                "};
