#define face_width 48
#define face_height 48
static char face_bits[] = {
   0x00, 0x00, 0x00, 0x00, 0x00, 0x00, 0x00, 0x00, 0xf0, 0x1f, 0x00, 0x00,
   0x00, 0x00, 0xfe, 0xff, 0x00, 0x00, 0x00, 0xc0, 0x7f, 0xfc, 0x07, 0x00,
   0x00, 0xe0, 0x07, 0xc0, 0x1f, 0x00, 0x00, 0xf8, 0x80, 0x03, 0x3e, 0x00,
   0x00, 0x3c, 0xf8, 0x3f, 0x78, 0x00, 0x00, 0x1e, 0xff, 0xff, 0xf1, 0x00,
   0x00, 0x8f, 0xff, 0xfd, 0xe3, 0x01, 0x80, 0xe3, 0x7f, 0xfc, 0x8f, 0x03,
   0xc0, 0xf1, 0x1f, 0xfc, 0x1f, 0x07, 0xe0, 0xf9, 0x07, 0xfc, 0x3f, 0x0e,
   0xe0, 0xfc, 0x03, 0xf8, 0x7f, 0x0e, 0x70, 0xfe, 0x01, 0xf0, 0xff, 0x1c,
   0x70, 0x1e, 0x00, 0xf0, 0xef, 0x1c, 0x38, 0x1f, 0x00, 0xf0, 0xe7, 0x39,
   0x38, 0x17, 0x0c, 0xf0, 0xe3, 0x39, 0x9c, 0x07, 0x04, 0xe0, 0xf1, 0x73,
   0x9c, 0x27, 0x00, 0xf2, 0xf8, 0x73, 0x9c, 0x0f, 0x00, 0x23, 0xfc, 0x67,
   0xcc, 0x9f, 0x38, 0x06, 0xfe, 0xe7, 0xcc, 0xfb, 0x09, 0x0e, 0xfb, 0xe7,
   0xce, 0xe1, 0x07, 0x87, 0xf3, 0xe7, 0xce, 0xc1, 0x81, 0xa3, 0xf3, 0xe7,
   0xce, 0xc1, 0xe0, 0xb9, 0xf3, 0xe7, 0xce, 0xc1, 0xf8, 0xbc, 0xf3, 0xe7,
   0xce, 0x4f, 0x7c, 0xbe, 0xf3, 0xe7, 0xce, 0x4f, 0x30, 0xbe, 0xf3, 0xe7,
   0xcc, 0x2f, 0x38, 0xff, 0xff, 0xe7, 0x9c, 0x2f, 0x3c, 0xfe, 0xff, 0x67,
   0x9c, 0x3f, 0x38, 0xff, 0xff, 0x73, 0x9c, 0x3f, 0x3c, 0x83, 0x03, 0x73,
   0x38, 0x3f, 0x3c, 0x83, 0x83, 0x31, 0x38, 0x7f, 0x7c, 0xbf, 0xf3, 0x39,
   0x70, 0x7e, 0xf8, 0xbe, 0xf3, 0x1c, 0x70, 0xfe, 0xf8, 0xbf, 0xf3, 0x1c,
   0xe0, 0xfc, 0xf8, 0xff, 0x73, 0x0e, 0xe0, 0xf8, 0xf1, 0xff, 0x3b, 0x0e,
   0xc0, 0xf1, 0xe3, 0xff, 0x1f, 0x07, 0x80, 0xe3, 0xff, 0xff, 0x8f, 0x03,
   0x00, 0x87, 0xff, 0xff, 0xc7, 0x01, 0x00, 0x1e, 0xff, 0xff, 0xe1, 0x00,
   0x00, 0x3c, 0xfc, 0x7f, 0x78, 0x00, 0x00, 0xf8, 0x00, 0x00, 0x3e, 0x00,
   0x00, 0xe0, 0x0f, 0xc0, 0x1f, 0x00, 0x00, 0xc0, 0xff, 0xff, 0x07, 0x00,
   0x00, 0x00, 0xff, 0xff, 0x01, 0x00, 0x00, 0x00, 0xf8, 0x3f, 0x00, 0x00};
