#define noname_width 48
#define noname_height 48
static char noname_bits[] = {
 0x00,0x40,0x03,0x00,0x00,0x00,0x00,0x80,0x1e,0x00,0x00,0x00,0x00,0x0e,0x3e,
 0xd0,0x03,0x00,0x00,0x65,0x7a,0x68,0x17,0x00,0x80,0xdb,0x6c,0x95,0xd3,0x00,
 0x80,0x6a,0xa3,0xc9,0x57,0x01,0x40,0x5f,0xe0,0xb2,0xfa,0x01,0xc0,0x37,0x50,
 0x89,0xb5,0x03,0xc0,0x1f,0xe0,0x62,0xff,0x03,0x80,0x07,0xa0,0xb4,0x7f,0x03,
 0xc0,0x03,0xd0,0xea,0xdb,0x03,0xc0,0x12,0x60,0xd9,0xff,0x03,0xc0,0x6a,0x7d,
 0xef,0xff,0x03,0xc0,0xa0,0xda,0x7b,0xff,0x03,0xc0,0x28,0x6e,0xef,0xff,0x03,
 0xc0,0x81,0xf4,0x9b,0xff,0x03,0xc0,0x10,0xaa,0xc7,0xff,0x03,0xc0,0x51,0xd4,
 0x4b,0xff,0x03,0xc0,0xaa,0x6f,0x60,0xfb,0x03,0xc0,0xfb,0xde,0x00,0xf5,0x03,
 0xc0,0x6d,0x7f,0x20,0xfc,0x03,0xc0,0x9f,0xfe,0x26,0xf4,0x03,0xc0,0x4f,0x7b,
 0x71,0xfd,0x03,0xc0,0xdf,0x7f,0x94,0xfa,0x03,0xc0,0xff,0xff,0x72,0xfe,0x03,
 0xc0,0xff,0x7f,0x80,0xfa,0x03,0xc0,0xff,0xff,0x34,0xff,0x01,0xc0,0xff,0xff,
 0x41,0xf9,0x00,0xc0,0xff,0xff,0xa8,0xfe,0x01,0xc0,0xff,0xff,0x57,0xfb,0x00,
 0xc0,0xff,0xff,0xff,0x0a,0x01,0xc0,0xff,0xe9,0xbf,0x52,0x00,0xc0,0xff,0xe0,
 0x5f,0x00,0x00,0xc0,0x7f,0xa1,0x7f,0x05,0x00,0xc0,0x7f,0x40,0xbf,0x20,0x00,
 0xc0,0xdf,0x82,0x7a,0x80,0x00,0xc0,0x2f,0x2a,0x5f,0x00,0x00,0xc0,0x2f,0x42,
 0x7d,0x82,0x00,0xc0,0x17,0xd0,0x2e,0x00,0x02,0xc0,0x2f,0x40,0xbf,0x00,0x00,
 0xc0,0x15,0x98,0x5e,0x80,0x00,0xc0,0x9c,0x00,0x2d,0x40,0x00,0x40,0x18,0xee,
 0x17,0x00,0x01,0x00,0x88,0x10,0x0d,0x40,0x00,0x00,0x00,0xd4,0x04,0x80,0x00,
 0x00,0x04,0x08,0x0f,0x20,0x00,0x00,0x04,0x80,0x0f,0x40,0x00,0x00,0x40,0xc2,
 0x51,0xf4,0x01};
