/* XPM */
static char *noname_xpm[] = {
/* width height ncolors chars_per_pixel */
"48 48 17 1",
/* colors */
"` c black",
"a c grey33",
"b c grey47",
"c c grey40",
"d c grey87",
"e c grey80",
"f c grey73",
"g c grey27",
"h c grey20",
"i c grey13",
"j c grey67",
"k c grey60",
"l c grey53",
"m c white",
"n c grey93",
"o c grey7",
"p s None c None",
/* pixels */
"ppppppmfffffjjjjjjjjjjkjjjjjjjkjjkjkjkkkkkpppppp",
"ppppppnefffjfjjjjkkjkklckkjkjkjjkjkjkkjkkkpppppp",
"ppppppmffffjfjjjjlkbbaihakkjkjjkjkjkjkkkjkpppppp",
"ppppppmeffffjjjkklchiiiiohagalkjkjkjkkjkkkpppppp",
"ppppppnfffjjfjjkcahhihiiioiihakjjjkjkjkkkkpppppp",
"ppppppmffffjjjkbahiiiooooiooiiglkkjkjkkjkkpppppp",
"ppppppnfffjjjlahhihoooooooooooigkjkjkkjkkkpppppp",
"ppppppmffffjkcghiiiiiooiooiioooibjkjkjkkjkpppppp",
"ppppppnffjjkchiiiiiiooiiiioooooogkkjkjkjkkpppppp",
"ppppppnffjjbhhihiooiioiioiooooiooakkjkkkkkpppppp",
"ppppppnfjjkaiiiiiihiiioooioioooooockkkjkkkpppppp",
"ppppppdfjjchiihihcllahioooihioooooihbkkjkkpppppp",
"ppppppdjjkghiiigjdnefbghhiigggoooooibkkkkkpppppp",
"ppppppejjbhiiihldnmmneklcbbbccgioooocjkkkkpppppp",
"ppppppdjjbhioicedmmmmmndeefklccgooooakkkkkpppppp",
"ppppppdfjbhoihkdnmmmmmnddefjlbbai`ooakkkkkpppppp",
"ppppppdjjbiiiafdnmmmmmnddefjlbcaioooakkkkkpppppp",
"ppppppdjjbhhibednmmmmmnddefjkbcci`oockkkkkpppppp",
"ppppppdjkbiiikednmmmmnndeejklbcah`o`bkkkkkpppppp",
"ppppppnjjliiibedeefeedejlcaacccaho`olkkkkkpppppp",
"ppppppdjjjhiilfjlccbkefbghgcaacah`oobkkkklpppppp",
"ppppppdfjkgiikfklahgldfcgghihaacho`ibkklkkpppppp",
"ppppppdfjkaohkfkccabjnfbcbcccccchoiglkkkklpppppp",
"ppppppdjjjkhhjdffjkkfdkbbblllklcgihgklkklkpppppp",
"ppppppdfjjkkgfdnndeeedkbbkjffjlcghgbkkklklpppppp",
"ppppppdjjjjkcjdnmndeddjcbkfeekbcghclklkklkpppppp",
"ppppppdjjjkklkenmdjjfflacbkfjlcghgalkklklkpppppp",
"ppppppdjjkjkbckeeklkccghgbbllbahoiohllklklpppppp",
"ppppppdjjkjkbgbkjblccgghggaccahio``ogbklllpppppp",
"ppppppdjjkjkkhgbbaagggghhhihagi`o`o``iblklpppppp",
"ppppppdjjkkkkaigahhhhgghiihigioo```oo`oohapppppp",
"ppppppejjkjkkbiiggcklllcccahhoo`oo`o`oo``opppppp",
"ppppppdjkkkjkkgoihbjkbbcccgioo`oo``o`o`o``pppppp",
"ppppppejkjkkklcoiiakkbaacahoo``i`o`o`o```opppppp",
"ppppppdkjkklahiooihabbccagi```oo`o`o`o``oopppppp",
"ppppppeklchioooohoihgggghio``ooo`o`o```o`opppppp",
"ppppppjgio`oooogchooihiio```oh```o``o`oooopppppp",
"pppppphoooooooocccgoooooo`ooho`o`o`o``oooopppppp",
"ppppppioooooooobcccahioooiiih`o`o````ooooopppppp",
"ppppppiooooooohlcaccaghihihgooo`````oooooopppppp",
"ppppppiooooooohhcggccaghhgcgooo``o`oo`ooiipppppp",
"ppppppiooooooiigcahabaghhgciooo````o``oooopppppp",
"ppppppiooooooiobbcaabbcaaihoioo```oo`ooooopppppp",
"ppppppiooooooiocbaccccccgiio``o```o```oooopppppp",
"ppppppoooiooo`oicccbaccaho```````oo``ooooopppppp",
"ppppppoiooooio`oclllaacci``````o`oi```o```pppppp",
"ppppppooiooo````gllkchgho`oo`o```oo``oo```pppppp",
"ppppppiooo``````oabbaoo````o``o```````````pppppp"
};
