/* XPM */
static char * face_xpm[] = {
/* width height ncolors chars_per_pixel */
"48 48 20 1",
/* colors */
" 	s None	c None",
".	c black",
"X	c firebrick",
"o	c dark slate grey",
"O	c sienna",
"+	c slate grey",
"@	c tan",
"#	c grey",
"$	c navy",
"%	c purple",
"&	c violet",
"*	c lavender",
"=	c gainsboro",
"-	c wheat",
";	c white",
":	c peru",
">	c blue",
",	c sky blue",
"<	c dodger blue",
"1	c lemon chiffon",
/* pixels */
"                                                ",
"                                                ",
"                                                ",
"                                                ",
"                                                ",
"                                                ",
"                                                ",
"                                                ",
"                                                ",
"                                                ",
"                                                ",
"                                                ",
"                                                ",
"................................................",
"................X.X.............................",
".......o.o...X.XX.X.................o.oOoO+O+...",
"........o..X.oX.o.X.O.o..o+O+@+@#@@@+@@+@++Oo...",
".........oo$oXo%OO+&*o...*=#=&@+OooXo.+*=+......",
"...$$o$$$$$$+%%&#%@=*@X..=-&=@+.......+;*:......",
"...$$$$+$+>+>%,**=@&**o..#*@*&O.o..o..o**+......",
"...o$o$$>$$%<%,**#&=*=&o.@*#;##.......o;*@......",
"...$$$$o$+>+%<%,&%+**&-+.#=&*-+oo++oo.o;*+......",
"...o$$o>$>+>+<%%<%+*1+*&o+*#==@&@@@@o.o;;:o.....",
"...$$$$o$$>+>%<%+%+=*o@=@+=-=&@+ooo...o1*@......",
"....o$$$+$o>+><+$o$=*oo=&+-&#=@o....o..;*+o.....",
"...$$$o$$>+$>+>o.o.#;o.@=-&-#=&..o....o*;@......",
"...X...o$$>+$$+$...#;+..=;##==@Oo..o...**@o.....",
"........$o$$>+$$...@*+.oo;;*==#+@#-@+o.-;#o.....",
"..X....o$$$o$$$o...+;@...#;*=*===#&@@...oX......",
"........$$$$$+$$...+;+.o.o=*@+-#+Ooo............",
"........$$o$$$$o...o;#.....oo.........o.........",
"........o$$$o$$$....o..o.o....o..o..o...........",
".........$o$...............o....................",
"................................................",
"                                                ",
"                                                ",
"                                                ",
"                                                ",
"                                                ",
"                                                ",
"                                                ",
"                                                ",
"                                                ",
"                                                ",
"                                                ",
"                                                ",
"                                                ",
"                                                "};
