/* XPM */
static char *noname_xpm[] = {
/* width height ncolors chars_per_pixel */
"48 48 17 1",
/* colors */
"` c black",
"a c grey33",
"b c grey47",
"c c grey40",
"d c grey87",
"e c grey80",
"f c grey73",
"g c grey27",
"h c grey20",
"i c grey13",
"j c grey67",
"k c grey60",
"l c grey53",
"m c white",
"n c grey93",
"o c grey7",
"p s None c None",
/* pixels */
"ppppppllblbbbbccaghggggacblbllllllllllllllpppppp",
"ppppppllblblccgiioo``ooohgclblbllbllllllllpppppp",
"ppppppllblbbaho````o`o`oooicblllllllllllllpppppp",
"pppppplblbbchoo`ooiiiiioiooogbllllllllllllpppppp",
"ppppppllbbbgo``hacccccaaaaioogllllllllllllpppppp",
"pppppplblbcio`gckjffefffjkbh`oabllllllllllpppppp",
"ppppppllbbgo`glkednmndnndfklh`iclllllllllkpppppp",
"pppppplllci`ilkjednmnmnnndjkboohlllllllkllpppppp",
"pppppplbbaooakkednmmmmmmmdejlh`iclllllllllpppppp",
"ppppppllbgoobkjedmmmmmmmmndjkaoocllkllllklpppppp",
"ppppppllbh`ibkfednmmmmmmmndekcooglllllklllpppppp",
"pppppplbbiohbjeednnmnmmmmndejcooilllllllklpppppp",
"ppppppllcoohbkeddmmnmmmmmndejcooocllllllllpppppp",
"pppppplbco`hbkfednmmnmmmmndejbi`oglllkllklpppppp",
"ppppppllg``hlkffeddnmnnnndffklh`oibklllllkpppppp",
"pppppplbh``abbbbcbkfeefkbaggbkg`oocllllkllpppppp",
"pppppplli``cchhhihalkjbahhcagba``oglklkllkpppppp",
"pppppplbo``caacbagabjflaabbbcbc``oilllllllpppppp",
"pppppplb``occaghighbddlghiihclco`ooclklklkpppppp",
"pppppplc``ocbcgggccldeklbclljkbo`oogllllllpppppp",
"ppppppla``iblklbbbbkedfjjkjedjbi`ooibllkllpppppp",
"ppppppla`oibkfdfjkkjedfjeedddklh``ooclllllpppppp",
"pppppplg``ialedejklkedejjfendlbio`ooglllllpppppp",
"pppppplgoooabjffbckkedejlbjfflaio``ohllkllpppppp",
"pppppplgooohallcgcgglkcgcaallcgoo``oibllllpppppp",
"pppppplho``ihaahgghihhgigghhagho````ocllllpppppp",
"ppppppbh```oighiiiooihooiiiihhio```ooallllpppppp",
"pppppplg````ihioooooghhioooiiio`````ogllllpppppp",
"pppppplh````oiiooohgcbcaioooioo````ooablllpppppp",
"ppppppbgo````ooohhgbjejbggiooo`o````oallllpppppp",
"ppppppba`````ooohaccblllbchiio````ooigblllpppppp",
"ppppppba```````igaalklllcahio``````oicclllpppppp",
"pppppplao`````oohghggaagggioo``````oiccbllpppppp",
"ppppppbc````````igghiiiggioo````````ocbcllpppppp",
"ppppppbc````````ohghioihhi``````````ogbbblpppppp",
"ppppppbco````````oiiiooii`o```````o``icbblpppppp",
"ppppppba``````````ooooooo```````````oogclbpppppp",
"ppppppcho```````````o````````````````ohabbpppppp",
"ppppppggo```````````````````````````ooiacbpppppp",
"ppppppah````````````````````oo````````iaabpppppp",
"pppppphi`````o``````````````io```````oohccpppppp",
"ppppppioo`````oo``````````ooio````````oihapppppp",
"ppppppio`````oiii```````oohhgo``o```o`ioihpppppp",
"ppppppooo`````hghioooooihgaaho``````o`iiihpppppp",
"ppppppoo``````iggghiiihhgaahio``o``o`ooiihpppppp",
"ppppppoo`o```oohgggghhggaghiio``````oooihhpppppp",
"ppppppo`o``o`oihhggghghghhiiio`o`oooooohhipppppp",
"ppppppoo`````oiiihhhhhiiiiiiio``o``ooooihipppppp"
};
