#define noname_width 48
#define noname_height 48
static char noname_bits[] = {
 0x00,0x48,0x41,0x00,0x0a,0x01,0x80,0x92,0x94,0x52,0x41,0x00,0x00,0x40,0xa2,
 0x0a,0x0a,0x02,0x40,0x2a,0xe9,0xaf,0xa4,0x00,0x00,0x41,0x7d,0x5b,0x09,0x00,
 0x40,0x94,0xfe,0xff,0x23,0x00,0x00,0xa0,0xef,0xff,0x95,0x00,0x40,0xd5,0xff,
 0xff,0x0f,0x00,0x00,0xe0,0xff,0x7f,0x9f,0x02,0x00,0xf5,0xff,0xff,0x3f,0x00,
 0x80,0xf0,0xff,0xff,0x9f,0x00,0x00,0xea,0xff,0xff,0x3f,0x01,0x80,0xf0,0xff,
 0xff,0x7f,0x00,0x40,0xf4,0xff,0xff,0x7f,0x02,0x00,0xf9,0xab,0xff,0x7f,0x01,
 0x40,0xf2,0xa5,0xfa,0xff,0x00,0x80,0xf8,0x09,0xf5,0x7f,0x02,0x00,0xf2,0x02,
 0x80,0x7f,0x01,0x80,0x68,0x01,0xa0,0x7f,0x02,0x00,0xe5,0x00,0x88,0x7f,0x01,
 0x80,0x70,0x01,0x7a,0xff,0x02,0x40,0xe4,0x97,0x57,0x7f,0x01,0x80,0xd2,0x9f,
 0xbe,0xfe,0x02,0x00,0xc4,0x1f,0xaa,0x7e,0x01,0x40,0x29,0x45,0x95,0x9e,0x02,
 0x00,0x42,0x15,0x80,0x76,0x01,0x40,0x29,0x50,0x20,0xbb,0x02,0x00,0x4a,0x89,
 0x82,0x56,0x01,0x40,0x51,0xd4,0xa4,0x2b,0x03,0x80,0x88,0x75,0x99,0x5e,0x01,
 0x00,0xa5,0x96,0xd6,0xa7,0x02,0x80,0x52,0x57,0xad,0x96,0x02,0x80,0xa4,0xbc,
 0xab,0x57,0x01,0x40,0x12,0x57,0x64,0x57,0x03,0x80,0x54,0xd5,0xd5,0x5d,0x01,
 0x80,0x4a,0x6d,0xb2,0xbf,0x02,0x80,0x54,0x15,0xd9,0xb6,0x01,0x80,0xa2,0x5a,
 0xfa,0xbd,0x02,0x40,0x2a,0xad,0xbd,0x57,0x01,0x00,0x55,0xfd,0xef,0xec,0x02,
 0x40,0xa9,0xf6,0xbf,0xdb,0x01,0x80,0x4a,0xaf,0x5b,0xb5,0x02,0x40,0x95,0xfe,
 0x6e,0xeb,0x02,0x00,0x49,0x57,0xb7,0xba,0x02,0x40,0xa5,0xbd,0x55,0xd5,0x02,
 0x40,0xa8,0xd6,0xad,0xb6,0x02,0x00,0x12,0x3b,0xab,0x6a,0x01,0x40,0xb5,0xdd,
 0x5a,0xbb,0x03};
