/* XPM */
static char *noname_xpm[] = {
/* width height ncolors chars_per_pixel */
"48 48 17 1",
/* colors */
"` c black",
"a c grey33",
"b c grey47",
"c c grey40",
"d c grey87",
"e c grey80",
"f c grey73",
"g c grey27",
"h c grey20",
"i c grey13",
"j c grey67",
"k c grey60",
"l c grey53",
"m c white",
"n c grey93",
"o c grey7",
"p s None c None",
/* pixels */
"pppmnmndnnnekkjfdddedddennmmnefjfkjefennnnnnpppp",
"pppmnnnendekkjfeeeeednndddnndeefjjbkeenmnndnpppp",
"pppmnmdddekkkjjfeeeenmndeddddefffjkbkennnnnnpppp",
"pppmnmdedklkkjjfffdddmndndddddeeffjlbfnnnndnpppp",
"pppmnndfkllkkjjfeeednnnnnnnndddeeffkckdnnnnnpppp",
"pppmmndblllkkjjfeeednnnnnnnmnnndeffjlcennndnpppp",
"pppmnnlclllkkjjfededdndnnnmnmnnddefjjcknnnnnpppp",
"pppmndablllkjjfededdndnnnnmmmmmddeffjlkdnnnnpppp",
"pppmnjabbklkjfedededdddnnnmmmmmndeejjjkenddnpppp",
"pppmnlcbllkkfeeeeeeednnddnnmmmmnndefjjljdnnnpppp",
"pppmdcclllkjjjeeeeeeddndnnmmnmnnmndefjkjednnpppp",
"pppmeabbllljfffffeeddnnnmnmmnnnndndefjkfjndnpppp",
"pppmfablblkkjjfeeedndnnnnmmmmmmndddeefjffddnpppp",
"pppmjabllllkfeeeeeddnnnnnmmmmmndeeedefjeeddnpppp",
"pppmkcbblklkjennnddddnnmmmndejkkfeefeejfednnpppp",
"pppnjccllklkjeddeedddmnnnnnfjkfendeffffddnddpppp",
"pppmjbclkkllblkkjffednnnnneejkjfeeefeefdnddnpppp",
"pppnfbcllklcclbcclkjjdnmmdflag``cbbjfeeendddpppp",
"pppnellllllcjfjjkbcblfnnnelcaa`oceljeeeedddnpppp",
"pppndkklllbcbagcbcaiajennejbcbiokfjfeeefeednpppp",
"pppndjklllbgi``emkohakfdeejlbbbkjjffedejjdddpppp",
"pppndejlkllag``fmkihbljeeefjkkkjfededdefjeddpppp",
"pppdddflkklccccjkbiglljddeeddefednddndejdeedpppp",
"pppdedfllkklbbllbgalkkjeneeednddeednndejdeddpppp",
"pppdddfllkjkkklkbbjkkkjendddddddddnnnnejeeddpppp",
"pppnedeblkjjjjjlljjkkkjdndeeemndddndndeffeedpppp",
"pppdddelbkjfefjkkkjkkkjdnddeeeennnnndddffeddpppp",
"pppdedeklljjffjkjklblkjddnneeejfdmnnndeffeedpppp",
"pppdeeejlbkkkjkkklcbkkfedmndnddjfnmnnedffeedpppp",
"pppdddejlbllkkjjkbalkljfedefjenekdmnndeffeeepppp",
"pppeedeffblklkjjlalkcgclkjfekjffkkdmdeejeedepppp",
"pppdeeeedllkljkjbckbahohcklchacbbljdneejeeeepppp",
"pppedeefdfbklkffllcgi``oghgo`oiihgledeejeeedpppp",
"pppdeeefneblkkjjbgoo```o`oi`oo`oiigfdeffeeeepppp",
"pppeedeeddkblkkbho```o`io`ooiiihhhhbdfffeeeepppp",
"pppeeeefddebblbaooooioohgghgggihhooaeflafeeepppp",
"pppeeeeeddekbbbhooooiohhcbbkklbah`ogjfg`lfeepppp",
"pppeeeefdddebbbhioi``iclllkfjjffciogkkg`hljfpppp",
"pppeeeefdeddjccgohhohcclkkkllkkkjaohbjc`olagpppp",
"pppeeeefddfahccaiiiiaaaaacghgccalchgckb``clipppp",
"pppeeeefdlgoaacaihoihhhgcbcggggghgicljl`oakkpppp",
"pppeeeejl``iciggoo`oghgalbcagaaho`ogljk`ogjjpppp",
"pppeffkhi``ab`iai``iihgbbblbaagi``ogcjj``ocfpppp",
"pppfkchoo`icg``ai`oioicbbclcgagg``oiajj`ihckpppp",
"pppccoioi`cbi``giohiiobcccachghhh`ohajj`ioojpppp",
"pppoiihio`aao``ihihohhclaagah`hhooiicjj`ioocpppp",
"pppigighihaco```gioohhcchgigiohahoohlfl`oiiapppp",
"pppgioiiiacc````ghiohhaghahgihhgioogjjc``ioipppp"
};
