#define face_width 48
#define face_height 48
static char face_bits[] = {
   0x00, 0x00, 0x00, 0x00, 0x04, 0x00, 0x22, 0x22, 0x22, 0x29, 0x81, 0x24,
   0x10, 0x10, 0x01, 0x00, 0x24, 0x00, 0x82, 0x02, 0x90, 0x84, 0x00, 0x24,
   0x10, 0x48, 0x04, 0x20, 0x90, 0x00, 0x81, 0x00, 0x01, 0x09, 0x04, 0x22,
   0x04, 0x02, 0x50, 0x40, 0x21, 0x88, 0x20, 0x50, 0x04, 0x12, 0x04, 0x01,
   0x80, 0x08, 0x21, 0x00, 0x20, 0x48, 0x14, 0x01, 0x04, 0x22, 0x01, 0x02,
   0x00, 0x44, 0x20, 0x08, 0x44, 0x88, 0x44, 0x08, 0x08, 0x7f, 0x11, 0x01,
   0x10, 0x40, 0xc1, 0xdb, 0x00, 0x10, 0x42, 0x02, 0xd0, 0xfe, 0x89, 0x44,
   0x00, 0x48, 0xf4, 0xeb, 0x43, 0x00, 0x14, 0x11, 0xf0, 0xff, 0x12, 0x20,
   0x80, 0x80, 0x7a, 0xbf, 0x03, 0x05, 0x02, 0x24, 0xec, 0xf7, 0x43, 0x48,
   0xe8, 0x4a, 0xfc, 0xdd, 0x07, 0x00, 0x60, 0xb5, 0xbb, 0x7f, 0xd7, 0x25,
   0x52, 0x02, 0xf0, 0xff, 0x2d, 0xdb, 0x24, 0xa8, 0x42, 0xdd, 0xd7, 0x4a,
   0xa8, 0xfe, 0xff, 0x6f, 0xad, 0xba, 0x62, 0x56, 0x55, 0xab, 0x57, 0x95,
   0x94, 0xae, 0xae, 0x95, 0xaa, 0x6a, 0x61, 0xf6, 0x7b, 0x4b, 0xa8, 0xad,
   0x34, 0xae, 0x6f, 0x05, 0x6d, 0x59, 0xa2, 0xf6, 0xda, 0xab, 0xa8, 0xae,
   0x54, 0xee, 0x7f, 0x01, 0x55, 0x69, 0x25, 0x76, 0xdb, 0x57, 0x68, 0xad,
   0xb8, 0xae, 0xbf, 0x01, 0xa2, 0xab, 0x25, 0xf6, 0xdd, 0xff, 0xff, 0x54,
   0x58, 0x6e, 0xf7, 0xff, 0x7f, 0xdb, 0xb2, 0xda, 0xfd, 0xf7, 0xf7, 0xab,
   0x54, 0x6e, 0xdb, 0x7e, 0xff, 0xb7, 0xb2, 0xba, 0xfe, 0xff, 0x7f, 0xaf,
   0x6a, 0xee, 0xff, 0xef, 0xfb, 0xbf, 0xb2, 0x5e, 0xdf, 0xff, 0xfe, 0xbd,
   0xaa, 0xb6, 0xf7, 0xfe, 0xef, 0xbf, 0x75, 0xfe, 0xff, 0xef, 0xff, 0xff,
   0x5a, 0xc1, 0xff, 0x73, 0x73, 0x66, 0x6a, 0xfd, 0xfe, 0x73, 0xd7, 0xf6,
   0xad, 0xeb, 0xef, 0xfb, 0x77, 0xf6, 0xb6, 0xfd, 0x7f, 0xf3, 0xff, 0xf7,
   0x6d, 0xf7, 0x7f, 0xff, 0xff, 0xff, 0xf6, 0xfa, 0xfd, 0xff, 0xfe, 0xdf,
   0x5b, 0xff, 0xdf, 0xbf, 0x73, 0xfa, 0xad, 0xf5, 0xff, 0x53, 0xfe, 0xea};
