/* XPM */
static char * kuleuven_ac_be_xpm[] = {
/* width height ncolors chars_per_pixel */
"48 48 2 1",
/* colors */
" 	s None	c None",
".	c dodger blue",
/* pixels */
"                                                ",
"                                                ",
"                                                ",
"   .......       .............        .......   ",
"   .......      ..............        .......   ",
"   .......     ...............        .......   ",
"   .......    ................        .......   ",
"   .......   .................        .......   ",
"   .......  .......... .......        .......   ",
"   ....... ..........  .......        .......   ",
"   ....... .........   .......        .......   ",
"   ....... ........    .......        .......   ",
"   ....... .......     .......        .......   ",
"   ....... ......      .......        .......   ",
"   ....... .....       .......        .......   ",
"   ....... ....        .......        .......   ",
"   ....... .....       .......        .......   ",
"   ....... ......      .......        .......   ",
"   ....... .......     .......        .......   ",
"   ....... ........    .......        .......   ",
"   ....... .........   ......................   ",
"   .......  .........   ....................    ",
"   .......   .........   ..................     ",
"   .......    .........   ................      ",
"   .......     .........   ..............       ",
"   .......      .........   ............        ",
"   .......       .........   ..........         ",
"                                                ",
"                                                ",
"                                                ",
"   ..     ..... ..   .. ..  .. .....  ..   ..   ",
"   ..     ..... ..   .. ..  .. .....  ..   ..   ",
"   ..     ..    ..   .. ..  .. ..     ..   ..   ",
"   ..     ..    ..   .. ..  .. ..     ...  ..   ",
"   ..     ..    ..   .. ..  .. ..     ...  ..   ",
"   ..     ..    ..   .. ..  .. ..     .... ..   ",
"   ..     ..... ..   .. ..  .. .....  .. . ..   ",
"   ..     ..... ..   .. ..  .. .....  .. ....   ",
"   ..     ..    ..   .. ..  .. ..     ..  ...   ",
"   ..     ..    ..   .. ..  .. ..     ..  ...   ",
"   ..     ..    ..   .. ..  .. ..     ..   ..   ",
"   ..     ..    ..   ..  ....  ..     ..   ..   ",
"   ..     ..    ..   ..   ..   ..     ..   ..   ",
"   .....  .....  .....    ..   .....  ..   ..   ",
"   .....  .....   ...     ..   .....  ..   ..   ",
"                                                ",
"                                                ",
"                                                "};
