#define dog_width 48
#define dog_height 48
static char dog_bits[] = {
   0x00, 0xc0, 0xf5, 0x3f, 0x00, 0x00, 0x00, 0xf0, 0xdf, 0xf5, 0x00, 0x00,
   0x00, 0x7e, 0x7f, 0xfa, 0x03, 0x00, 0x00, 0xd5, 0x2a, 0xdd, 0x07, 0x00,
   0xc0, 0xff, 0x9f, 0xfe, 0x0f, 0x00, 0x40, 0xab, 0xaa, 0xff, 0x3d, 0x00,
   0xe0, 0xee, 0xcd, 0xff, 0xbf, 0x01, 0xa0, 0xf7, 0xfe, 0xf7, 0xfe, 0x0f,
   0xf0, 0xbe, 0xff, 0xfd, 0xfb, 0x1f, 0xa0, 0xff, 0xff, 0x7f, 0xff, 0x3f,
   0xf0, 0xde, 0xbf, 0xdf, 0xff, 0x3f, 0xb8, 0xf7, 0xff, 0xbd, 0xf6, 0x2f,
   0xf8, 0xdf, 0xfe, 0xfe, 0xdd, 0x2f, 0xd8, 0xfe, 0xbf, 0x37, 0xf5, 0x0f,
   0xfc, 0xf7, 0x77, 0xfb, 0xfe, 0x03, 0xe8, 0xdf, 0xff, 0xae, 0xfe, 0x07,
   0xfc, 0xbf, 0xfb, 0xbf, 0xfa, 0x07, 0xfc, 0x7f, 0xff, 0xef, 0xeb, 0x07,
   0xfc, 0xef, 0xfa, 0xfb, 0x73, 0x07, 0xfc, 0xfb, 0xfd, 0xfe, 0xc7, 0x07,
   0xfc, 0xfa, 0xdd, 0xfd, 0x57, 0x07, 0xbc, 0xfd, 0xdf, 0xf6, 0x4f, 0x03,
   0xfe, 0xfa, 0x7f, 0xf9, 0x5f, 0x03, 0xdc, 0xd9, 0xbd, 0xff, 0xaf, 0x07,
   0xde, 0xb8, 0xbf, 0x7c, 0xdf, 0x03, 0x6c, 0xd8, 0x7f, 0xfd, 0x97, 0x03,
   0x7c, 0xb0, 0x7e, 0xfd, 0xf7, 0x03, 0x6c, 0xf8, 0xff, 0xfa, 0x9f, 0x03,
   0x2c, 0xb0, 0x7f, 0xfd, 0xdf, 0x03, 0x3c, 0x70, 0x0f, 0xfe, 0xff, 0x01,
   0x38, 0xb0, 0x0b, 0xff, 0xde, 0x01, 0x1c, 0xe0, 0x02, 0x1e, 0xfc, 0x01,
   0x14, 0x30, 0x03, 0x0e, 0xf8, 0x00, 0x3c, 0xe0, 0x02, 0x0c, 0xf0, 0x00,
   0x14, 0x60, 0x05, 0x00, 0xf0, 0x00, 0x3c, 0xe0, 0x02, 0x00, 0xf8, 0x00,
   0x14, 0xf0, 0x06, 0x00, 0xf0, 0x00, 0x2c, 0xc0, 0x06, 0x00, 0x78, 0x00,
   0x10, 0x70, 0x0d, 0x00, 0xf8, 0x00, 0x34, 0x80, 0x06, 0x00, 0xf8, 0x00,
   0x14, 0x70, 0x05, 0x00, 0xf8, 0x00, 0x68, 0x90, 0x0e, 0x00, 0xf8, 0x03,
   0xbe, 0x70, 0x09, 0x00, 0xfc, 0x02, 0x00, 0x40, 0x15, 0x00, 0xf6, 0x07,
   0x00, 0xa0, 0x12, 0x00, 0xf0, 0x0f, 0x00, 0xa0, 0x1a, 0x00, 0x00, 0x00,
   0x00, 0xd0, 0x15, 0x00, 0x00, 0x00, 0x00, 0x50, 0x02, 0x00, 0x00, 0x00};
