#define noname_width 48
#define noname_height 48
static char noname_bits[] = {
 0x00,0x00,0x00,0x00,0x00,0x00,0x00,0x00,0xb8,0x4a,0x00,0x00,0x00,0x00,0xec,
 0x7f,0x00,0x00,0x00,0x40,0xff,0x6f,0x03,0x00,0x00,0xc0,0xff,0xfb,0x0f,0x00,
 0x00,0xc0,0xff,0xff,0x0f,0x00,0x00,0xe0,0xed,0xff,0x2f,0x00,0x00,0xf0,0xff,
 0xff,0xfd,0x00,0x00,0xf4,0xff,0xff,0xbf,0x00,0x00,0xf8,0xff,0xdd,0xff,0x00,
 0x00,0xfe,0xab,0xf7,0xff,0x01,0x00,0xfe,0x6d,0xfd,0xff,0x02,0x00,0xff,0x01,
 0xac,0xff,0x03,0x00,0xff,0x02,0x80,0xff,0x01,0x00,0xbf,0x00,0x00,0x7d,0x01,
 0x00,0xff,0x02,0x00,0xfe,0x03,0x00,0x77,0x01,0x00,0xfd,0x07,0x80,0xfe,0x00,
 0x00,0xfd,0x07,0x00,0xfe,0x02,0x00,0xfe,0x01,0x00,0x7e,0x01,0x50,0xfd,0x06,
 0x00,0xfe,0x7e,0xfd,0xfd,0x03,0x00,0xfe,0x7f,0x7e,0xfb,0x01,0x00,0x78,0xb3,
 0xfc,0xfd,0x00,0x00,0xf8,0x5d,0x00,0xf8,0x01,0x00,0x78,0x05,0xa0,0xfa,0x00,
 0x00,0x70,0x02,0x00,0xf8,0x01,0x00,0x70,0x01,0x00,0xb8,0x01,0x00,0x60,0x40,
 0x00,0xbc,0x01,0x00,0xf0,0x00,0x00,0xb4,0x01,0x00,0x70,0x51,0x2a,0xda,0x01,
 0x00,0xb0,0xe5,0x07,0xfe,0x00,0x00,0xd0,0x51,0x5f,0x75,0x00,0x00,0xe0,0xad,
 0x26,0x7e,0x00,0x00,0xe0,0xfa,0xff,0x7f,0x00,0x00,0xe0,0x7f,0xf8,0x35,0x00,
 0x00,0xc0,0x0a,0x40,0x3f,0x00,0x00,0xe0,0xaf,0xd4,0x3f,0x00,0x00,0xe0,0x05,
 0xc2,0x1b,0x00,0x00,0xe0,0xde,0xf5,0x3e,0x00,0x00,0xc0,0xbf,0xae,0x1f,0x00,
 0x00,0xe0,0xdf,0xfa,0x3f,0x00,0x00,0xf0,0x6f,0xed,0x5f,0x00,0x00,0xf0,0xfb,
 0xff,0x7f,0x00,0x00,0xd0,0x7f,0xfb,0xbf,0x00,0x00,0xf8,0xbf,0xff,0xf6,0x00,
 0x00,0x78,0xff,0x7f,0xbf,0x00,0x00,0x5c,0xff,0xbf,0xf7,0x01,0x00,0x3f,0xfe,
 0xff,0xff,0x03};
