/* XPM */
static char * face_xpm[] = {
/* width height ncolors chars_per_pixel */
"48 48 19 1",
/* colors */
" 	s None	c None",
".	c grey",
"X	c slate grey",
"o	c dark slate grey",
"O	c lavender",
"+	c white",
"@	c black",
"#	c gainsboro",
"$	c tan",
"%	c sienna",
"&	c sea green",
"*	c peru",
"=	c tomato",
"-	c wheat",
";	c lemon chiffon",
":	c pale green",
">	c gold",
",	c lime green",
"<	c orange",
/* pixels */
"                                                ",
"                                                ",
"   ...........................................  ",
"  XXXXXXXXXXXXXXXXXXXXXXXXXXXXXXXXXXXXXXXXXXo.  ",
"  X........................................XX.  ",
"  X..oXXX.XoXXXoXXXXXo..oXXX.XXX.XoXOXXX..XOX.  ",
"  X..XXXXoXXX.XXXX..XX++XX.XOooo@XXXOXXX.X.+X.  ",
"  X.#X.XXOXXXXX.X.#..X.+X.XXX.X..XXXXXXX..++X.  ",
"  X.+++++++++++++++++++++..O+++.++++++++++++X.  ",
"  X.+++++++++++++++++++XX$XoX++.%.++++++++++X.  ",
"  X.++++++++++++++++++Xo$XXX++++.%X+++++++++X.  ",
"  X.++o.oXooOXXo#X++++XoXX.++++++OX.+$&%X.++X.  ",
"  X.++o.XXooOXXo.X++++.X%*o++++++++O+XXX.+++X.  ",
"  X.++.+X...O.OXXXX+++.*$%*.O++.XXXO.O++++++X.  ",
"  X.++++++++O++++++++++X$*%**O.XX%#.#%.O++++X.  ",
"  X.++++++.XX++++++++OXX%%===.+++XXX.X&X++++X.  ",
"  X.++++++Xo%$O+++++.*$-.=-$*-.++.o@oX#X.+++X.  ",
"  X.++++++OXXX%X.+.X$**$O-*=%*$.++.X.O++#+++X.  ",
"  X.++++++++O#X%*X$**X.=-O**%.%$.+.X++++++++X.  ",
"  X.+++++++++++.%**X.++X=****.+X=XX.++++++++X.  ",
"  X.++++++++++++O..++++.%%**=X+#%*@#++++++++X.  ",
"  X.++++++++++++++++++++**%*%@X+OX@O++++++++X.  ",
"  X.++++++++++++++++++.OO%X%%@*X+#%.++++++++X.  ",
"  X.++++++++++++++++#X.XXo@*%***..oO++++++++X.  ",
"  X.+++++++++++++++OXOOOOXo%**%%%%oO++++++++X.  ",
"  X.+#X.#.O.+++++#XXOOO.OOX%*%%*%XX+++++++++X.  ",
"  X.+.XX.oXX.+++.XO.#OOX+OO.@%**$*X+++++++++X.  ",
"  X.+...OX.XO++..+OXOO+X.OO;.o.*-$*.++++++++X.  ",
"  X.++++++++++X.;;..;;O$%$X$$$X.%$XX++++++++X.  ",
"  X.++++++++OXX--$X---$XXX$o*$XXX%*%X+++++++X.  ",
"  X.+O.X..O.X%-$X%-$-$%$#o-$X%$*XXXX%X...+++X.  ",
"  X.OX-$;.o$X-$*%-$-$XX-OXX-$%o$$X%o%o$--X.+X.  ",
"  XXX-$-X%-$-$$%:$XXXo;O-Xo%$-X@X*$%oX%-$$$XX.  ",
"  XX;-:XX$$:$$Xo%XX%X#*XoX-X%%XXXXX&$.XX*$--X.  ",
"  XX$XX-$X&%XXX$XXXXo%XX-$$XXXXX%%X%X*$-$$-;X.  ",
"  XXX$-XXX$XXXXX.$$#$XXXXX..$-$--:-----#---OX.  ",
"  X.#oooooooooooooooooooooooooooooooooooooXOX.  ",
"  X.o@@@@@@@@@@@@@@@@@@@@@@@@@@@@@@@@@@@@@@.X.  ",
"  XX@>@@@%%*%@@%%@@@@@@@@@@>@@@*%@*@@@@@@%@XX.  ",
"  XX@>%>****%>@%@>*>>>>%%>**%*@>*>>%*%>>@>@XX.  ",
"  XX@%*%%>%,%*@%@**%**%%,<%*%%@>***@*%*>@>@XX.  ",
"  X.@*%%%%%%o%@o%%@@%%@%%%@*%*@@%%%@*@%%@%@XX.  ",
"  XXX@@@@@@@@@@@@@@@@@@@@@@@@@@@@@@@@@@@@@o.X.  ",
"  XXXXXXXXXXXXXXXXXXXXXXXXXXXXXXXXXXXXXXXXXXX.  ",
"  XXXXXXXXXXXXXXXXXXXXXXXXXXXXXXXXXXXXXXXXXXX   ",
"                                                ",
"                                                ",
"                                                "};
