#define face_width 48
#define face_height 48
static unsigned char face_bits[] = {
 0x00,0x00,0x00,0x00,0x00,0x00,0x00,0x00,0x00,0x01,0x00,0x00,0x00,0x00,0xb8,
 0x02,0x00,0x00,0x00,0x00,0xe8,0x1f,0x00,0x00,0x00,0x00,0xfe,0x1f,0x00,0x00,
 0x00,0x00,0xfe,0x7f,0x00,0x00,0x00,0x00,0xff,0xff,0x01,0x00,0x00,0x80,0xff,
 0xff,0x01,0x00,0x00,0x80,0xa5,0xfa,0x01,0x00,0x00,0x80,0xa9,0xd6,0x03,0x00,
 0x00,0xc0,0x52,0xfd,0x07,0x00,0x00,0x80,0x89,0xea,0x07,0x00,0x00,0xc0,0xa4,
 0xba,0x0f,0x00,0x00,0x40,0x51,0xed,0x0f,0x00,0x00,0x40,0x82,0xea,0x0f,0x00,
 0x00,0xc0,0x29,0xfd,0x0f,0x00,0x00,0x40,0x56,0xf7,0x07,0x20,0x00,0x40,0x9d,
 0xdd,0x0f,0x00,0x00,0x80,0xd2,0xbe,0x0f,0x00,0x00,0x40,0xd4,0xd1,0x0f,0x00,
 0x00,0x00,0xa9,0x76,0x07,0x00,0x00,0x00,0xc2,0xd5,0x0f,0x00,0x00,0x40,0x78,
 0xea,0x03,0x00,0x00,0x00,0x85,0xb1,0x03,0x00,0x00,0x80,0xf8,0xda,0x01,0x00,
 0x00,0x00,0x54,0xf5,0x00,0x00,0x00,0x80,0xea,0xeb,0x00,0x28,0x00,0x00,0x15,
 0xf5,0x00,0x02,0x00,0x00,0xd2,0x6e,0x00,0x14,0x00,0x00,0x56,0xfa,0xa0,0x02,
 0x00,0x00,0xab,0xff,0x44,0x2a,0x00,0x00,0xd6,0x7e,0x29,0x09,0x00,0x00,0xba,
 0xbf,0xa2,0x24,0x00,0x00,0xfc,0x6f,0x0a,0x09,0x00,0x00,0xd4,0x55,0x94,0x24,
 0x00,0x00,0x0a,0x28,0x00,0x10,0x00,0x00,0x48,0x25,0x35,0x02,0x00,0x00,0x15,
 0x90,0x80,0x10,0x00,0x40,0xb1,0x94,0x21,0x02,0x00,0x00,0x40,0x85,0x48,0x20,
 0x00,0x80,0x60,0xa1,0x00,0x11,0x00,0x20,0x80,0x05,0x22,0x04,0x00,0x00,0x00,
 0x41,0x00,0x00,0x00,0x00,0x00,0x0a,0x21,0x02,0x00,0x00,0x00,0x41,0x80,0x10,
 0x00,0x00,0x00,0x00,0x10,0x00,0x00,0x10,0x10,0x40,0x40,0x00,0x00,0x01,0x00,
 0x08,0x10,0x04};
