/* XPM */
static char * face_xpm[] = {
/* width height ncolors chars_per_pixel */
"48 48 3 1",
/* colors */
" 	s None	c None",
".	c grey",
"X	c black",
/* pixels */
"                                                ",
"                  .XXXXXXXXXX                   ",
"                  X..........                   ",
"                  ............                  ",
"                  X..........                   ",
"                 ............                   ",
"                 ..........X                    ",
"                 X..........                    ",
"                 ............                   ",
"                ............                    ",
"                X.........X                     ",
"                ...........                     ",
"               .X...........                    ",
"               X...........                     ",
"              ...........X                      ",
"              ............                      ",
"              X..........X                      ",
"              X.X.X.X.X.X.                      ",
"                                                ",
"                                                ",
"                                                ",
"             ....X....X....X....X..             ",
"             ...........X...........            ",
"             X.........X.............           ",
"            .......................X            ",
"            ...........X X..........            ",
"            X.........X  ............           ",
"            ...........  X..........X           ",
"           ............. ............           ",
"           X...........  ...........X           ",
"           ..........X    X...........          ",
"           X..........    ............          ",
"          .............   ...........X          ",
"          ............    X...........          ",
"          X.........X      ..........X          ",
"          ...........      X...........         ",
"         .............     .............        ",
"         X...........      ...........X         ",
"         ..........X    X.XX...........         ",
"         X..........    X...............        ",
"        .............   .................       ",
"        ............    X..............X        ",
"        X.........X     ................        ",
"       ............     X................       ",
"       .............    ..................      ",
"       X...........     X...............X       ",
"       X.X.X.X.X.X      X.X.X.X.X.X.X.X.X       ",
"                                                "};
