#define noname_width 48
#define noname_height 48
static char noname_bits[] = {
 0x20,0x01,0x10,0x00,0x01,0x09,0x48,0x54,0x45,0x52,0x48,0x0a,0x10,0x01,0x12,
 0x08,0x25,0x09,0x40,0xaa,0x84,0x82,0x40,0x04,0x10,0x01,0x50,0x10,0x0a,0x09,
 0x90,0xa8,0x0a,0x84,0x40,0x0a,0x20,0x02,0x20,0x10,0x8a,0x08,0x08,0xa9,0x0a,
 0x85,0x20,0x05,0x50,0x04,0x20,0x10,0x12,0x0a,0x00,0x41,0x89,0x80,0x84,0x00,
 0x90,0x14,0x04,0x12,0x20,0x05,0x20,0xc2,0x7f,0x00,0x09,0x04,0x00,0xf9,0xef,
 0x48,0x20,0x09,0x50,0xfe,0xff,0x03,0x00,0x02,0x00,0xff,0xbf,0x11,0x92,0x08,
 0xa8,0xfb,0xff,0x07,0x00,0x02,0xc0,0xff,0xdf,0x27,0x44,0x08,0xc0,0xfe,0xf7,
 0x87,0x00,0x02,0xd0,0xfb,0xff,0x0f,0x10,0x09,0xe0,0xaf,0xfe,0x0f,0x40,0x00,
 0xe0,0x6b,0xbb,0x0e,0x04,0x05,0xe0,0x8b,0xfc,0x2e,0x00,0x00,0xf0,0x04,0x94,
 0x1c,0x80,0x04,0xa0,0x42,0x20,0x1d,0x00,0x01,0x70,0x09,0x42,0x0e,0x04,0x04,
 0x60,0x25,0x10,0x0c,0x00,0x01,0xe0,0x88,0x40,0x15,0x20,0x04,0x48,0x05,0x10,
 0x0d,0x00,0x01,0xe0,0x92,0xa2,0x2a,0x04,0x04,0x80,0x2a,0x59,0x05,0x00,0x01,
 0x60,0x75,0xfe,0x0a,0x20,0x04,0x80,0xbe,0x00,0x24,0x01,0x01,0x40,0x41,0xb5,
 0x0a,0x88,0x04,0x90,0x3a,0x02,0x04,0x00,0x00,0x80,0x82,0x44,0x13,0xa0,0x04,
 0x00,0x09,0x11,0x24,0x04,0x00,0x10,0x65,0xaa,0x05,0x40,0x05,0x40,0xaa,0x49,
 0x22,0x11,0x00,0x00,0x95,0x57,0x09,0x40,0x05,0x50,0x54,0xaa,0x22,0x10,0x00,
 0x00,0xab,0x2d,0x01,0x42,0x05,0x10,0xa4,0x52,0x03,0x10,0x00,0x00,0xac,0xae,
 0x00,0x40,0x05,0x00,0xa8,0xa2,0x03,0x00,0x02,0x00,0xb4,0x6c,0x00,0x20,0x04,
 0x00,0xd0,0x5b,0x01,0x00,0x01,0x00,0xa0,0x5f,0x00,0x00,0x08,0x20,0x40,0x25,
 0x01,0x00,0x00};
