#define noname_width 48
#define noname_height 48
static char noname_bits[] = {
 0x40,0x55,0x6b,0x55,0x55,0x01,0x40,0xad,0xaa,0xaa,0xad,0x02,0x80,0x6a,0x55,
 0x55,0xb5,0x01,0x40,0xab,0xba,0xab,0xaa,0x02,0x40,0x55,0xed,0xfa,0x56,0x01,
 0x80,0xda,0xff,0xaf,0xd5,0x02,0x40,0xf5,0x7d,0xfd,0x57,0x01,0x80,0xfa,0xff,
 0xbf,0xad,0x02,0x40,0xfd,0xbf,0xff,0x5f,0x01,0x80,0xfe,0xff,0xff,0xf7,0x02,
 0x40,0xfb,0xff,0xff,0xbf,0x02,0x80,0xfe,0xfb,0xd7,0x7f,0x01,0x40,0xff,0xff,
 0x7e,0xbf,0x03,0x80,0xff,0xbf,0x13,0x7f,0x03,0xc0,0x7e,0x5f,0x40,0xfd,0x03,
 0xc0,0xff,0x2b,0x00,0xfc,0x03,0xc0,0xff,0x06,0x00,0xff,0x02,0x40,0xff,0x12,
 0x00,0xec,0x03,0xc0,0xff,0x01,0x00,0xfa,0x03,0xc0,0xff,0x0a,0x80,0xfc,0x03,
 0xc0,0xbf,0x00,0x00,0xfe,0x02,0xc0,0xfb,0xee,0xaa,0xfd,0x03,0xc0,0x7f,0x55,
 0x71,0xfd,0x03,0xc0,0xff,0xba,0xd9,0xfd,0x03,0xc0,0x5b,0x45,0x22,0xfa,0x03,
 0xc0,0xff,0x90,0x90,0xfc,0x03,0xc0,0x37,0x01,0x02,0x7c,0x01,0xc0,0xff,0x80,
 0x10,0xf8,0x03,0xc0,0x5f,0x05,0x42,0x3e,0x02,0xc0,0xff,0x52,0x21,0xd9,0x01,
 0xc0,0x5f,0x8d,0x5b,0x3d,0x01,0xc0,0xff,0xb2,0xac,0xfd,0x02,0xc0,0x5f,0x55,
 0xb3,0x2e,0x01,0x40,0x77,0xe5,0xaa,0xda,0x02,0x80,0xfd,0x12,0x29,0x2f,0x01,
 0xc0,0xfe,0xa7,0xa8,0xde,0x02,0x80,0xfe,0x4a,0xd5,0xa7,0x02,0x40,0xd7,0x5f,
 0x4a,0x5f,0x01,0x80,0xff,0x0b,0xf0,0xa5,0x02,0x40,0xb5,0xbf,0xc4,0xdb,0x02,
 0xc0,0xef,0xbf,0xf8,0x55,0x01,0x80,0xda,0xfe,0xfe,0xaa,0x02,0xc0,0x6f,0xff,
 0xf7,0xaa,0x02,0x40,0xd9,0xff,0x7f,0xd5,0x02,0x80,0xbd,0xfa,0xbf,0x56,0x01,
 0x80,0xd6,0xff,0xaf,0xaa,0x02,0x40,0x75,0x75,0x7d,0x55,0x01,0x80,0xad,0xdf,
 0xd7,0xbb,0x03};
