/* XPM */
static char *noname_xpm[] = {
/* width height ncolors chars_per_pixel */
"48 48 17 1",
/* colors */
"` c black",
"a c grey33",
"b c grey47",
"c c grey40",
"d c grey87",
"e c grey80",
"f c grey73",
"g c grey27",
"h c grey20",
"i c grey13",
"j c grey67",
"k c grey60",
"l c grey53",
"m c white",
"n c grey93",
"o c grey7",
"p s None c None",
/* pixels */
"ppppppbbbbbbcaaaccai``oooiihacbccaacccccccpppppp",
"ppppppbbcbbbcaaaaci``````````iaccaacbcccccpppppp",
"ppppppbbbbbbcagaci````````````ogaaacbcccbbpppppp",
"ppppppbbcbbbcaagh```````````````ohacbbcccbpppppp",
"ppppppbbbbbccagi``````````````````icbcccbbpppppp",
"ppppppbbcbbbcai````````````````````hbbbcbbpppppp",
"ppppppbbbbbbci``````````````````````abcbbbpppppp",
"ppppppbbbbbbg```````````````````````hbcbcbpppppp",
"ppppppbbcbbco```````````````````````ibcbbbpppppp",
"ppppppbbbbbg`````````````````oo`````obcbbbpppppp",
"ppppppbbbbbo`````````````````ihho````hbbbbpppppp",
"ppppppbbbbc````ii`````oooo`oogggh````obcbbpppppp",
"ppppppbcbbc``oaljlclkjjffkbccaaaho```icbbbpppppp",
"ppppppbbbba``akjednnnnddeejkbcaaho````cbbbpppppp",
"ppppppbcbbc``ckjfddnddddefjlbccggo````ccbbpppppp",
"ppppppbbbba``bkjfdnnddddeefkbaaghi````cbbbpppppp",
"ppppppbbbbc`olkjfenndeedeekcaghghho```cbbbpppppp",
"ppppppbbbbboibbghgckfjkflgi````oiho``occbbpppppp",
"ppppppbbbbbiibioo``ogkjkh```ooioohi``ibbbbpppppp",
"ppppppbbbbbgicgii```ijelhooc```iihi`hhccbbpppppp",
"ppppppbbbbbaibcgchggbjfbgggcghihghi`ggcbbbpppppp",
"ppppppbbbblbalklbaabkjflggaggggaghiogabbbbpppppp",
"ppppppbbbbbblkfejffejffbgabllklcahiigacbbcpppppp",
"ppppppbbbblbbkeddedfjfjbgabkkjlcahiigabcbbpppppp",
"ppppppbbbbbbllfddeejjefcggcbjjlaghiiggbcbcpppppp",
"ppppppbbbbbblbjeejkkjefcggagblbahhihghbcbbpppppp",
"ppppppbbbbbbbclkkbkkblbgihaagaaghiiohccbbcpppppp",
"ppppppbbbbbccaacgbllgii``ihhhhaghoioabccbcpppppp",
"ppppppbbbbbbagaagghi````````oighiiiiklcccbpppppp",
"ppppppbcbbbccggca`````ooooo``ighhiicfjbcbcpppppp",
"ppppppbbbbbccahgaighiiiiioihhhghhihfffkcccpppppp",
"ppppppcbcbbcaaghgalbbcaaggggghhhhhkfefjlbcpppppp",
"ppppppbcbbccaaahhabbcgaagggghhhhibeeeeejkcpppppp",
"ppppppbcbcbcagaahgclchiohggghhhhaddeeedeflpppppp",
"ppppppccbcccaagaghalklcaacagiihhfnndenndejpppppp",
"ppppppcbcbccagaachhabcaaaghiihilnmnddmnnnfpppppp",
"ppppppcccbccagaacciiihiihiioioadmmnnnmmmmdpppppp",
"ppppppcbcccaagaaffgho`oooooi`hfmmmmnnmmmmnpppppp",
"ppppppcccbcaaggkmnghhooooioohjmmmmmnmmmmmmpppppp",
"ppppppcccccaagcnmncghiioooogenmmmmmmmmmmmmpppppp",
"ppppppcccccagaemmekgghiiihgemmmmmmmmnmmmmmpppppp",
"ppppppccccaagknmdefcaghhacjmmmmmmmmmnmmmmmpppppp",
"ppppppccccaaacbmndebbcacbkmmmmmmmmmdmmmmmmpppppp",
"ppppppcccccagakmmnjlbbbbldmmmmmmmmmnmmmmmmpppppp",
"ppppppccacaackknndfjllbbffemmmmmmmmmmmmmmmpppppp",
"ppppppcaccaajfffndnjlljflagaemmmmmnnmmmmmmpppppp",
"ppppppcccaalfeefenmdlkkbaahgbdmmmmnmmmmmmmpppppp",
"ppppppggggglkkkkkeeecbcahhgclljeejfeeeeefepppppp"
};
