#define noname_width 48
#define noname_height 48
static char noname_bits[] = {
 0x80,0x92,0x0a,0x01,0x05,0x01,0x80,0x0a,0x51,0x44,0x48,0x00,0x40,0x51,0x0a,
 0x11,0x25,0x01,0x80,0x8a,0x52,0x42,0x44,0x00,0x80,0x12,0x25,0x08,0x09,0x01,
 0x40,0xa5,0xfc,0x2f,0x85,0x00,0x80,0x8a,0xfe,0xbf,0x14,0x02,0x80,0x52,0xff,
 0x7f,0x83,0x00,0x40,0xc5,0xff,0x7f,0x17,0x01,0x40,0xd2,0xff,0x7f,0x87,0x00,
 0x80,0xca,0xff,0xff,0x17,0x02,0x40,0xe9,0xff,0xff,0xaf,0x00,0x80,0xf2,0x77,
 0xfd,0x07,0x01,0x40,0xf5,0x8b,0xf4,0xaf,0x00,0x80,0xf2,0x00,0xea,0x0f,0x01,
 0x40,0x79,0x01,0xf4,0xaf,0x00,0x80,0x72,0x80,0xd4,0x0f,0x01,0x80,0xfa,0x02,
 0xe9,0xaf,0x00,0x40,0x69,0x08,0xfc,0x0f,0x01,0x00,0xb5,0x4f,0xb7,0xaf,0x00,
 0x40,0xe9,0xd7,0xff,0x47,0x01,0x40,0x75,0x1d,0xbd,0x2f,0x00,0x80,0xa2,0xe5,
 0xea,0x4b,0x01,0x40,0x69,0x88,0x54,0x27,0x01,0x80,0x2a,0x61,0xd1,0x97,0x02,
 0x80,0x6a,0x90,0xea,0xa5,0x00,0x40,0x69,0xca,0xa9,0x47,0x01,0x00,0x65,0xf1,
 0xeb,0x2b,0x01,0x40,0xb5,0xae,0xf7,0x93,0x02,0x80,0xea,0xfa,0xef,0xa7,0x00,
 0x40,0xe5,0x57,0xff,0x49,0x01,0x40,0xd5,0xaa,0xfa,0xab,0x02,0x80,0xea,0xf3,
 0xfd,0x29,0x01,0x80,0xaa,0x57,0xff,0x4a,0x01,0x40,0xd5,0xff,0xff,0xb0,0x02,
 0x80,0xaa,0xfe,0x7f,0x4b,0x01,0x40,0x55,0xff,0x3f,0x51,0x01,0x80,0x2a,0xfd,
 0x9f,0x84,0x02,0x40,0xd5,0xfb,0x57,0x09,0x00,0x40,0x15,0xd7,0x56,0x04,0x00,
 0x80,0xaa,0xab,0x95,0x2a,0x00,0x80,0x2d,0xae,0x4a,0x01,0x00,0x40,0x85,0x6b,
 0x51,0x12,0x00,0x80,0x50,0x96,0x4a,0x04,0x00,0x00,0x40,0x6b,0x21,0x52,0x00,
 0x00,0x28,0x95,0x96,0x00,0x00,0x00,0x84,0xaa,0x24,0x22,0x00,0x40,0xa2,0x68,
 0x9b,0x12,0x01};
