/* XPM */
static char *noname_xpm[] = {
/* width height ncolors chars_per_pixel */
"48 48 17 1",
/* colors */
"` c black",
"a c grey33",
"b c grey47",
"c c grey40",
"d c grey87",
"e c grey80",
"f c grey73",
"g c grey27",
"h c grey20",
"i c grey13",
"j c grey67",
"k c grey60",
"l c grey53",
"m c white",
"n c grey93",
"o c grey7",
"p s None c None",
/* pixels */
"ppppppaaaaaaaaaaaaaaackjcaaaaaaaaaaaaaaaaapppppp",
"ppppppaaaaagaaaaaaaaalddkccbjjcaaaaaaaaaaapppppp",
"ppppppaaaaaaaaaaaagacbjklccledlaaaaaaacaaapppppp",
"ppppppaaaaaaagaaagghgaaacbahblahhaaaaaaaaapppppp",
"ppppppaaaaaaaaaaahihggaghhhiacah`haaaaaaaapppppp",
"ppppppaaagaaaaaagooihhggioiiihhhoogcacaaaapppppp",
"ppppppaaaaaaaaaho`oooihhoooo`hhho`ogcaaaaapppppp",
"ppppppcaaaaaaaho```oighhio``oiihoo`iacacaapppppp",
"ppppppaaaaaaago```oihgaaghi``ihioo``acacaapppppp",
"ppppppacaaaaao````oihgaacgho`ohho```hcaacapppppp",
"ppppppaaaaaah`````oiggacccchiohho```oaccaapppppp",
"ppppppacaacg`````ooihgckffjkchiho````gcacapppppp",
"ppppppaaaaai`````oohgbjfenmndjgho````hccacpppppp",
"ppppppaacaao````oigckeednmmmmdkhi````icccapppppp",
"ppppppaaaaa`````hbkkednmmmmmmmeci````icacapppppp",
"ppppppaacag````obffedmmmmmmmmmdjgo```occacpppppp",
"ppppppacaah````hbjeenmmmmmmmmmdfjgo``ocacapppppp",
"ppppppcaaao```oabjednmmmmmmmmmndekai`occccpppppp",
"ppppppaaca```ohackfddmmmmmmmmmndejci`iccacpppppp",
"ppppppacaao``ohcbkednmmmmmmmmmmnekci`oacccpppppp",
"ppppppcaca```iacbkfeefedmmmmnndefjch`occcapppppp",
"ppppppacag```hcccbbbghalfndelaggcbch`occccpppppp",
"ppppppcaah``ogbcgacaghgakeflcghaaaga`oaccapppppp",
"ppppppaccgo`ocbcaghihaggbdeaghhhhaacoiccccpppppp",
"ppppppcaaahiiabbbaaccjlblndlllcbaabcgcccacpppppp",
"ppppppacccaagabkefkklkllfmmkklllkjkblccccapppppp",
"ppppppcaacaccabjeddfefjkfnnjjfffedfbbccccapppppp",
"ppppppcacaaccgckennnddjjjdmfjednndflccccccpppppp",
"ppppppacacaacgckenmmdfkjkdmekjenndflccacacpppppp",
"ppppppacacaacgaljeddfkbfkenekkkfeejccccccapppppp",
"ppppppcacacaihgclkjjjkbcaljbalkkjkbacccacapppppp",
"ppppppcaaaaaoogacbllkkchoighhcbbbbaacaccacpppppp",
"ppppppaccacchogcabccbbahhiihhgcgcccacccacapppppp",
"ppppppcaacaagogccbcggghhhhihihggbcccccccacpppppp",
"ppppppcacaacaghabblbahhhhhhhigalbcacacacaapppppp",
"ppppppaaacaaaagacbljlbblklklcbllccaccacacapppppp",
"ppppppcacaacacggcbclllblllllbblccgccacacaapppppp",
"ppppppcaaaaaaagggcbbbbllbbbbbbbcaacacacacapppppp",
"ppppppaacaaacagagaccbllkkjkklbcaacacacacaapppppp",
"ppppppccaacjbgaaggaccbkkkjjllbaaacacacaaaapppppp",
"ppppppaacbblaglaagggabblbblbbagacacacaccaapppppp",
"ppppppcllbcchcblaahhhaacccccaghiccaacaaacapppppp",
"ppppppjjkcaagclkkaghhhgaaaaghahobacaacaaaapppppp",
"ppppppfjbcalabklklaghiihhhhhgahoaccccaacaapppppp",
"pppppplbaakkcckkbklghhiioigggaiohcaflcaaaapppppp",
"ppppppcbbjjfcblklbkcghghggahagi`ilacffkccapppppp",
"ppppppckeejffbbkkbcbbaggggggagi`hkcackddkcpppppp",
"pppppplkjjkjelacbaggacghhihhgho`icbihabljfpppppp"
};
