/* XPM */
static char *noname_xpm[] = {
/* width height ncolors chars_per_pixel */
"48 48 17 1",
/* colors */
"` c black",
"a c grey33",
"b c grey47",
"c c grey40",
"d c grey87",
"e c grey80",
"f c grey73",
"g c grey27",
"h c grey20",
"i c grey13",
"j c grey67",
"k c grey60",
"l c grey53",
"m c white",
"n c grey93",
"o c grey7",
"p s None c None",
/* pixels */
"ppppppndddeeefffffffjfffffffjjjjjjkkkkjkkkpppppp",
"ppppppnddeeeefefffffffffffjffjjjjjjjkjkjkkpppppp",
"ppppppdddeefefffffffeffjjjffjjjjjjjjjkjkjkpppppp",
"ppppppdddeeefefefejbfjhoihbfkkbkjjjjkjjkkkpppppp",
"ppppppdddeeeffffejggbh````hjcgioakjkjjkkjkpppppp",
"ppppppddeeefefffjgoohao```ici```ohjjjjjkkkpppppp",
"ppppppdeeeffffffh`oohh```hhgo`````cjjjjkkjpppppp",
"ppppppddeefeffjgo`oooio``hgo``````ijfjkkkjpppppp",
"ppppppdeeeefffhh``oio````io````````lfjkjkkpppppp",
"ppppppddeefffbiooo`oo````i`````````cfkjkjjpppppp",
"ppppppeeefefjio`oooigo```oo````````ajjkjkkpppppp",
"ppppppdeeefjc``oioioiihhiio````````gfjjjkjpppppp",
"ppppppeeeffkh``o`oohabkkbgio```````hjfjkjjpppppp",
"ppppppeeeffcoo```ohlfeefkbgi```````hjjjjjkpppppp",
"ppppppeeffjh`````ocenndefkch```````ojjjkjjpppppp",
"ppppppeeffki`````obenndefklao```````cjjjkjpppppp",
"ppppppeeffko`o```obdnddeefkbh```````ikjjkjpppppp",
"ppppppeeffki`o```iknmndeefkbgi``````ojjjjjpppppp",
"ppppppeeffji`hoohbdmmddfjkkbcg```````bjjkjpppppp",
"ppppppefffjh`cgabendekcghhcaaai``````ajjkjpppppp",
"ppppppefffjg`iiiigcchihgiooiaho``````hlkkkpppppp",
"ppppppeeffkoooii``icoooi``o`oiao``````obkjpppppp",
"ppppppefffcoaioi`ooh`ohhiooohcao`o````hlkjpppppp",
"ppppppeffjlocahhihakoihghhhigagioihi`iljkjpppppp",
"ppppppefffjhhcggghbkaigcaghiaaahhaao`hjkjjpppppp",
"ppppppeefjjliahgggjjaghggghgaagggch``ikjkjpppppp",
"ppppppfffjjjkchhgbejcacbcccccagghio``gkkkkpppppp",
"ppppppeffjjjjjljkjfkaackkjkbccgggo``objkjkpppppp",
"ppppppefjjjjjjkkkjlagabkllkbbaahg````kkkjkpppppp",
"ppppppeffjjjjjkklllcccbccblbccggg```gljkjkpppppp",
"ppppppefjjjjjfklbcbbllcggblccaahg``clkkkkkpppppp",
"ppppppffjjjjjjjlllaccaaalkbccaggaoilkkjkjkpppppp",
"ppppppffjjjjjjjjbkbbbbcbklcaaggaghakkkkkkkpppppp",
"ppppppfjjjjjjjjjklkbacbklaaaggacagglkkkkjkpppppp",
"ppppppffjjjjjjjjjkljjjklbggggacccagalkkkkkpppppp",
"ppppppfjjjjjjjjjjkblkklcagghacbbcccgckkkkkpppppp",
"ppppppfjjjjjjjjjkjkbcaaahhhgalllcklcackkkkpppppp",
"ppppppfjjjjjjjjjjkjkbaghhhhabllkljkkbccfjkpppppp",
"ppppppffjjjjjjjjkjkkbbcaagaclkjkkffjjlbkfjpppppp",
"ppppppfjjjjjjkjjjkjklcccbbllkjjjfeeendndjnpppppp",
"ppppppfjjjkjjjjkjkkklccblllljfffeeenmmmnfdpppppp",
"ppppppfjjkjjjjjjkkkjelcblblkfeeeeenmmmnmeepppppp",
"ppppppfjjjjkjjkjkjfmmfccbbbljfedenmmmmmnmfpppppp",
"ppppppffjjjjjjjkjfmmmecaacclkeeenmmmmnmmndpppppp",
"ppppppfjjjjjjjjjjnmmmkaggalkjjjnmmmmmmmmnnpppppp",
"ppppppfjjjjjjjjjemmmmllggbkjkjnmmmmmmmmmmnpppppp",
"ppppppffjjjjjjjjmmmmdbebckjjemmmmmmmmmmmmmpppppp",
"ppppppllblllblbkeeeelakcalkedeeeeeeeedeeeepppppp"
};
