#define noname_width 48
#define noname_height 48
static char noname_bits[] = {
 0x40,0xf5,0xf6,0xff,0xfe,0x03,0x80,0xaa,0xea,0xaf,0x52,0x01,0x00,0x20,0xfd,
 0x7f,0x24,0x01,0x80,0x10,0xff,0xff,0x0b,0x00,0x00,0xc0,0xff,0xff,0x03,0x00,
 0x00,0xd0,0xff,0xff,0x0b,0x00,0x80,0xe0,0xff,0xff,0x1f,0x00,0x00,0xf0,0xff,
 0xff,0x0f,0x00,0x80,0xf0,0xff,0xff,0x3f,0x00,0x00,0xfa,0xff,0xff,0x7f,0x00,
 0x00,0xf8,0xff,0xff,0x7f,0x00,0x80,0xfa,0xff,0xff,0xff,0x00,0x00,0xfc,0xff,
 0xff,0x7f,0x00,0x40,0xfd,0xff,0xff,0xff,0x00,0x00,0xfe,0xff,0xff,0xff,0x00,
 0x80,0xfc,0xff,0xff,0xeb,0x01,0x00,0xff,0xff,0x5f,0xe5,0x00,0x40,0xfc,0xbf,
 0x5f,0xe0,0x01,0x00,0xff,0xab,0x22,0xe0,0x00,0x40,0xfe,0xaf,0x00,0xe0,0x01,
 0x00,0xff,0x2a,0x02,0xe0,0x00,0x40,0xf6,0xfb,0x02,0xe0,0x00,0x00,0xff,0xf6,
 0x0f,0xe9,0x00,0x80,0xd6,0xd5,0xdf,0x76,0x00,0x00,0x7f,0x51,0xca,0x6f,0x01,
 0x40,0xd7,0xa6,0x0a,0x2b,0x00,0x00,0xff,0x05,0x94,0x42,0x02,0x40,0x6f,0x15,
 0x0a,0x90,0x00,0x80,0xff,0x4b,0x45,0x49,0x00,0x00,0x5f,0x95,0x0a,0x20,0x01,
 0x80,0xee,0x57,0xaf,0x8a,0x00,0x00,0xff,0xda,0x7e,0x29,0x01,0xc0,0xed,0xf7,
 0x5f,0xa5,0x00,0x00,0x7f,0xad,0xf5,0x15,0x01,0xc0,0xed,0x57,0xd5,0xaa,0x00,
 0x40,0xbb,0xbd,0xae,0x12,0x01,0x80,0xde,0x77,0xd5,0xaa,0x00,0x40,0xf7,0xbf,
 0xa8,0x24,0x01,0xc0,0x6e,0xff,0x72,0x55,0x02,0x80,0xd9,0xff,0x5f,0x2a,0x01,
 0x40,0xff,0xdd,0xaa,0xa4,0x00,0x80,0x6a,0xff,0x17,0x55,0x02,0x40,0xbb,0xef,
 0x54,0x25,0x01,0x80,0x66,0x7b,0xa5,0x54,0x01,0x40,0xdd,0xbd,0x4a,0x95,0x00,
 0x80,0xae,0xee,0xa9,0x52,0x02,0xc0,0x5a,0xbb,0x55,0x55,0x01,0xc0,0xbd,0xff,
 0x57,0xad,0x02};
