#define noname_width 48
#define noname_height 48
static char noname_bits[] = {
 0x00,0x00,0x00,0x00,0x00,0x00,0x00,0x00,0x00,0x00,0x00,0x00,0x00,0x00,0x00,
 0x01,0x00,0x00,0x00,0x00,0xe0,0x7f,0x00,0x00,0x00,0x00,0x78,0xef,0x00,0x00,
 0x00,0x00,0xdc,0xdd,0x03,0x00,0x00,0x00,0xfe,0xf7,0x07,0x00,0x00,0x00,0xef,
 0xfe,0x06,0x00,0x00,0x80,0xbf,0xfb,0x0f,0x00,0x00,0xc0,0xf7,0x6c,0x1d,0x00,
 0x00,0xc0,0x5f,0xf1,0x5f,0x00,0x00,0xe0,0xb7,0xaa,0x1a,0x00,0x00,0xe0,0x5e,
 0xd4,0x3d,0x00,0x00,0xf0,0xaf,0xaa,0x2e,0x00,0x00,0xf0,0x2b,0xc1,0x3a,0x00,
 0x00,0xf0,0x4b,0x14,0x35,0x00,0x00,0xf8,0x2b,0x41,0x5b,0x00,0x00,0xf8,0xd6,
 0x55,0x35,0x00,0x00,0xfe,0xa9,0xe3,0x3b,0x00,0x00,0xfc,0x6b,0x95,0x3a,0x00,
 0x00,0xde,0xd0,0xe2,0x3b,0x00,0x00,0xff,0x25,0x01,0x74,0x00,0x00,0x7f,0x02,
 0xa4,0x72,0x00,0x80,0xfe,0x01,0x00,0xf8,0x00,0x80,0x6f,0x82,0x25,0x30,0x00,
 0x40,0xff,0x49,0xc1,0xf8,0x00,0xc0,0x3f,0xa5,0x56,0x79,0x00,0x80,0xff,0x72,
 0xd9,0x7a,0x00,0xc0,0xbf,0xb4,0xa2,0x3d,0x00,0xc0,0xfe,0x6a,0xfd,0x7a,0x00,
 0xc0,0x7f,0xa9,0xa1,0x7d,0x00,0xc0,0x7f,0x55,0x5d,0x7d,0x00,0xc0,0x7f,0x89,
 0xa2,0x7e,0x00,0x40,0xbf,0x52,0x5a,0xbf,0x00,0xc0,0xbf,0x84,0xca,0x7f,0x00,
 0xc0,0x42,0x32,0xa0,0xdf,0x00,0x40,0x00,0x45,0xd5,0x7f,0x00,0x00,0x00,0xb4,
 0xea,0xbf,0x01,0x00,0x00,0xa8,0xfd,0x7f,0x00,0x00,0x00,0x68,0xeb,0xff,0x01,
 0x00,0x00,0xd0,0xed,0x5f,0x01,0x00,0x00,0x60,0xd7,0xff,0x00,0x00,0x00,0x80,
 0xea,0xbf,0x02,0x00,0x00,0x00,0xc5,0xfd,0x00,0x00,0x00,0x00,0xf6,0xae,0x00,
 0x00,0x00,0x00,0xe8,0x7f,0x01,0x00,0x00,0x00,0x68,0xed,0x02,0x00,0x40,0x92,
 0xd6,0xdf,0x02};
