/* XPM */
static char *noname_xpm[] = {
/* width height ncolors chars_per_pixel */
"48 48 13 1",
/* colors */
"` c grey33",
"a c grey47",
"b c grey40",
"c c grey87",
"d c grey80",
"e c grey73",
"f c grey27",
"g c grey67",
"h c grey60",
"i c grey53",
"j c white",
"k c grey93",
"l s None c None",
/* pixels */
"lllllllljjjjjjjjjjjjjjjjjjjjjjjjjjjjjjjjllllllll",
"lllllllljjjjjjjjjjjjjjjjjjjjjjjjjjjjjjjjllllllll",
"lllllllljjjjjjjjjjjdggibbagcjjjjjjjjjjjjllllllll",
"lllllllljjjjjjjjjjh`````bbaahgcjjjjjjjjjllllllll",
"lllllllljjjjjjjjeb``ffff``````adjjjjjjjjllllllll",
"lllllllljjjjjjjg``fffffffffffffacjjjjjjjllllllll",
"lllllllljjjjjca``fffffffffffffffadjjjjjjllllllll",
"lllllllljjjjc`````ffffffffffffff`aejjjjjllllllll",
"lllllllljjjjif```fffffffffff`fff``bcjjjjllllllll",
"lllllllljjjjaffffffffffff`f``fff```hjjjjllllllll",
"lllllllljjjk`fffffffffffff```f``b`bakjjjllllllll",
"lllllllljjjefffffff``````bbbaiaabbaaejjjllllllll",
"lllllllljjjhfffffaihhhhggggeeghiiiabikjjllllllll",
"lllllllljjjab``bheedddeddddddeghhab`bejjllllllll",
"lllllllljjcbabigeedcddddddcccdegghhbfhjjllllllll",
"lllllllljjebabigeedccdddddcccdeeghib`gjjllllllll",
"lllllllljje``bhgeddccdddddcccdeegha``kjjllllllll",
"lllllllljjgf`bhgeddccdddddcccdeegib``kjjllllllll",
"lllllllljjhf`bggeeedcddddccccdeggi`f`cjjllllllll",
"lllllllljjiffbhhiaaihgeeeeehiaaaiibffdjjllllllll",
"lllllllljjiffahababb`bigghabbaaaiiaffejjllllllll",
"lllllllljjeb`igiaaiibbieeha`aiaaaiiffejjllllllll",
"lllllllljjehhhgib`````heehbf``bbaihbbcjjllllllll",
"lllllllljjchhegghiaa`bieeia``aaaihgiicjjllllllll",
"lllllllljjkbhdgeehhaahggghiabahggggaijjjllllllll",
"lllllllljjkigdeeehiaiggehiiiiahggggiajjjllllllll",
"lllllllljjjdgdeddgaaihgegiiiiaheeggigjjjllllllll",
"lllllllljjjkedeedga`ahggeiiabaheggghcjjjllllllll",
"lllllllljjjjddegha``abaabbbaa`ahhhegjjjjllllllll",
"lllllllljjjjjkegi``iihiabaiiib`aihdkjjjjllllllll",
"lllllllljjjjjkeghaahhhghhghiiabaihcjjjjjllllllll",
"lllllllljjjjjjdghha``iabbbab`baiihkjjjjjllllllll",
"lllllllljjjjjjcghhgh`heddegbbihiigjjjjjjllllllll",
"lllllllljjjjjjkeghhhiabaibbbiiiiidjjjjjjllllllll",
"lllllllljjjjjjjdgihhhibbbbbiiaaihjjjjjjjllllllll",
"lllllllljjjjjjjcehhgghabbaihiiaicjjjjjjjllllllll",
"lllllllljjjjjjjcegheeeghhgghhiihjjjjjjjjllllllll",
"lllllllljjjjjjjceggggdeegeeghiigjjjjjjjjllllllll",
"lllllllljjjjjjjddgeggggggghhiiiejjjjjjjjllllllll",
"lllllllljjjjjjjddehiiaaaaaaaaahejjjjjjjjllllllll",
"lllllllljjjjjjjddeggib````baihhdjjjjjjjjllllllll",
"lllllllljjjjjjkddeeegghhiihhhhhdjjjjjjjjllllllll",
"lllllllljjjjjkeedeeeeddeeeghhhidjjjjjjjjllllllll",
"lllllllljjjjg`gedddeddddeeghhhiejjjjjjjjllllllll",
"lllllllljjki`beeeeeegedddghhhhiibgjjjjjjllllllll",
"llllllllkgbb`beeeeeegggeeiihhhihafhjjjjjllllllll",
"llllllllb`````geeegeeghhiihhhhihif`hjjjjllllllll",
"llllllllff````beeggggghiaihhhiihaf``aejjllllllll"
};
