/* XPM */
static char *noname_xpm[] = {
/* width height ncolors chars_per_pixel */
"48 48 17 1",
/* colors */
"` c black",
"a c grey33",
"b c grey47",
"c c grey40",
"d c grey87",
"e c grey80",
"f c grey73",
"g c grey27",
"h c grey20",
"i c grey13",
"j c grey67",
"k c grey60",
"l c grey53",
"m c white",
"n c grey93",
"o c grey7",
"p s None c None",
/* pixels */
"pppfeeeeeedddddnnnddnmmmmmmmmmmmmmmmmmmmmmmmpppp",
"pppfeeeedeedddddfbaaldnddjfdmmmmmmmmmmmmmmmmpppp",
"pppeeeeeeeddddkchihgkddlcgcbkemmmmmmmmmmmmmmpppp",
"pppfeeeeededjcgiihhcjklchgackeedmmmmmmmmmmmmpppp",
"pppeeeeeddelahhhhihclkcagigalfndnnmmmmmmmmmmpppp",
"pppeeeededbahghhiihabfbghhigckdnedmmnmnmmmmmpppp",
"pppeeeedekchggghhhgackkchiohckfdnfemmmmmmnmmpppp",
"pppeeedejbgggghhiggcbjfkhiooiajeddfemmmmmmmmpppp",
"pppeedejbggagghhggaabfjjgho``oajfedjdmmnmmmmpppp",
"pppeedfbacahaghgghihakfkcho`oigkkeeejnmmmmmmpppp",
"pppeedbcacagcghgihgckjllbai`ohhbejjfjfmmmnmmpppp",
"pppdefaacchaggggighabljjbchoio`iljkkkkdmmmmmpppp",
"pppedlaccghaaaahgihaacbbcghioo`ogcbblldmmmmnpppp",
"pppeeggagiggcgaahgghhggaagaghiioihcablfmmnmmpppp",
"pppekhggihggcgagaghgaaccccccaghhioahgljmmmmmpppp",
"pppdlhhhohhgagghhhhaccbblllbcggghogohbjmnmmmpppp",
"pppejiiiihhggghiiigacbbllkklbagghihoickmmmmmpppp",
"pppdjiiiihhhihhoiggccllkkkkklcaahihioaknmmnmpppp",
"pppej`hhoiiooiiihgacbkkjjkkkklcggohooalnmmmmpppp",
"pppdlohhoooooiiigacblkkjjjkjklcggihhicfnmmmmpppp",
"pppdbohhiooo`oihgabbkkkkjjkkkbhghhghibnmmnmmpppp",
"pppdbhghiioo`oohacbllllllkkklaghhggghemmmmmmpppp",
"pppejaghhiiiihogacccaaccblllahiihaaacnmmmmmmpppp",
"pppddlghiiihcahggaaghihhaclbgghihgabjmmmmnmmpppp",
"pppddfahiiigbbcgggghhhhggcllahiocackenmmmmmmpppp",
"pppdddfhhhiabbcaghiohahhabkjcaacbljeemnmmmmmpppp",
"pppddddagggablbbcbbcbbcbcbjjlbcbljfndmmmmmmmpppp",
"pppdddnjggggblkkkkllllllllkjkkklkjenmmmmmnmmpppp",
"pppdddnjcgghbbkkkjkkklkkllkjkkkkkjfdmmnmmmmmpppp",
"pppddndjgcahcblkkkklklkllkkjjklkjjffmmmmmmmmpppp",
"pppddddjiclgccbblllkkklblljkeflkkjjemnmmmmnmpppp",
"pppddddfhhbaccbbbbllkllckkkjfejlkjjfmmmmmmmmpppp",
"pppdddnegohabbcccbbllllallblkllkkkjfmmmnmmmmpppp",
"pppdddddkabgbcbccbbllblaaghaaakjkkkemmmmmmmmpppp",
"pppdddndnfjkbbbcccbbblbccaghaljjfjkemnmmmmnmpppp",
"pppedddddndebbbcccbbblbbcccabkjkkjkdmmmmmmmmpppp",
"pppdddddndndbbcccccbbbbcbbbllkkcbjjnmmmnmmmmpppp",
"pppedddnddnelccbcccbbcgaahhghgccckfmmmmmmmmmpppp",
"pppdeddddnnjlcccccccccccccbcblklbkdmnmmmmnmmpppp",
"pppdeeciglekbbcaaaccccbbccaaaclllchfmmnmmmmmpppp",
"pppekh````gllbaaaaaccacccaaacclkkghhemmmmmmmpppp",
"pppio````gjlbbcaagaacacccbllljjkbgghfmmmmnmmpppp",
"ppp`````hffklbcccgggaaccbbllkjklhhhanmmmmmmmpppp",
"ppp`````hkfjbbcccaaggaacccbbblcgoiicnmmnmmmmpppp",
"ppp``````ckfkbbcccaagghggggaaglioiogbkedmmnmpppp",
"ppp``````ibkjkbcccaaagghhhhgcfeioohgaaaabenmpppp",
"ppp```````ilkjjbccaaagaggaacknkooiggaaaggcbkpppp",
"ppp````````ilkjfkcaaaagaaaabedgoohhggagghgaapppp"
};
