#define noname_width 48
#define noname_height 48
static char noname_bits[] = {
 0x00,0x10,0x20,0x80,0x04,0x00,0x00,0x4a,0x89,0x20,0xaa,0x00,0x80,0x10,0x00,
 0x80,0x0a,0x02,0x00,0xa4,0x34,0x0c,0x55,0x00,0x00,0x10,0x5e,0x2f,0x02,0x00,
 0x00,0x55,0x3f,0x3c,0x2d,0x01,0x00,0x90,0x9f,0x3f,0x09,0x00,0x00,0xc9,0xff,
 0x7f,0xa5,0x00,0x00,0xe4,0xff,0xff,0x0b,0x02,0x00,0xd1,0xff,0xbf,0x2b,0x00,
 0x00,0xe4,0xff,0xff,0x87,0x00,0x80,0xf2,0xff,0xff,0x2b,0x00,0x00,0xf4,0xff,
 0xff,0x17,0x01,0x00,0xf1,0xff,0xf4,0x4f,0x00,0x80,0xfc,0x0f,0xe8,0x17,0x01,
 0x00,0xf0,0x07,0xf2,0x8f,0x00,0x80,0xfa,0x02,0xe8,0x27,0x02,0x00,0xf4,0x9b,
 0xfe,0x97,0x00,0x80,0xf8,0xbf,0xef,0x17,0x02,0x00,0xf5,0x5e,0xbd,0xaf,0x00,
 0x00,0x78,0xa1,0xc0,0x13,0x01,0x40,0x65,0x11,0xd1,0x4f,0x02,0x00,0x68,0xa9,
 0xa0,0x29,0x01,0x80,0x4a,0x11,0xc9,0x4b,0x01,0x00,0xd1,0xf4,0xb1,0x95,0x02,
 0x40,0x8a,0xa9,0xc4,0x55,0x00,0x00,0x29,0xab,0x76,0xad,0x02,0x80,0x88,0xba,
 0xd5,0x2a,0x01,0x00,0x25,0xab,0xea,0x55,0x01,0x40,0x92,0x56,0xf5,0xaa,0x02,
 0x80,0x24,0x9b,0xda,0x2c,0x01,0x40,0x4a,0xac,0x7e,0xa9,0x02,0x80,0x94,0xfe,
 0x9f,0x52,0x01,0x00,0x29,0xfd,0xaf,0x82,0x02,0x40,0x45,0xfe,0xab,0x00,0x00,
 0x00,0xaa,0xf6,0x55,0x03,0x00,0x40,0x15,0x5c,0x95,0x04,0x00,0x00,0x49,0xef,
 0xaa,0x09,0x00,0x40,0x85,0xdf,0xaa,0x02,0x00,0x80,0xa2,0xed,0xa5,0xa2,0x02,
 0x80,0x18,0x5f,0x5b,0x49,0x01,0x40,0x48,0xab,0x51,0x55,0x01,0x00,0x05,0xad,
 0xac,0x2a,0x01,0x00,0xaa,0x56,0x57,0x55,0x01,0x80,0x02,0x55,0x69,0xa5,0x02,
 0x80,0x52,0xaa,0x5a,0x55,0x01,0x40,0x08,0x6b,0x55,0x29,0x01,0x80,0xd7,0xb6,
 0xdf,0xde,0x02};
