/* XPM */
static char *noname_xpm[] = {
/* width height ncolors chars_per_pixel */
"48 48 17 1",
/* colors */
"` c black",
"a c grey33",
"b c grey47",
"c c grey40",
"d c grey87",
"e c grey80",
"f c grey73",
"g c grey27",
"h c grey20",
"i c grey13",
"j c grey67",
"k c grey60",
"l c grey53",
"m c white",
"n c grey93",
"o c grey7",
"p s None c None",
/* pixels */
"ppppppmmmmmmmnnnnnddmmmmdeeeedededeeeeeeefpppppp",
"ppppppmmmmmnmmnmnnenmmmndffeeededeeeeeeeefpppppp",
"ppppppmmmmmnnmmmmdmmmnfjlbckeeeeeeeeeeeeffpppppp",
"ppppppmmmmmdnnddfdmnfcghhhgglfdededeeefeeepppppp",
"ppppppmmmneffedjfddflahihhhihaeeeeeeeeeeeepppppp",
"ppppppmmmnkcclklkjjkaiiihiiiiheeeeeeeeffefpppppp",
"ppppppmmneaihacccbbahioighiooglblfeeeeeeffpppppp",
"ppppppmnnlhhgcccaghiioioihhiihgghceeeeeeeepppppp",
"ppppppnneaggagggghhiioooihgaghhhihcjeeeeefpppppp",
"ppppppmnlagghhhgghhiooohhcllbcgiihgcjeeeefpppppp",
"ppppppmfaghhgghggghiiihabjffklagiiihceeeefpppppp",
"ppppppmlghihhgggaghhggckenneklcgihihhfeefepppppp",
"ppppppnahiihhhgacacclfnmmmmejlchiihiojeffepppppp",
"ppppppdhiiioihhabljdmmmmmmndjlahooio`keeefpppppp",
"ppppppdhooooiiialenmmmmmmmnejbahooo``ceeffpppppp",
"ppppppng`ooihhhcemmmmmmmmmnfkbai`o```keeejpppppp",
"ppppppnj``ogjjljmmmmmmmmmndjlbah````offefjpppppp",
"ppppppmea``beeffeedmmmmnndfklccg````gfefffpppppp",
"ppppppnea`ojeklccacjnnkbgggghaag````afefjjpppppp",
"ppppppnnfhgjdfkchgljmncaaggcgaaao``ojfffjjpppppp",
"ppppppmnnccfndeebkenmnckfgggaccg``oafefffjpppppp",
"ppppppmnneffnmmmmmmmmdbjddfkklbg`oafeffffjpppppp",
"ppppppmnnddfnmmmmmmmmfbjddeefkagohbfefffjjpppppp",
"ppppppmmnndenmmmmmmmmebkdmndjlaggglfffjfjjpppppp",
"ppppppmnnnefnmmmmmmnmdbbdmmekbghhafefffjjjpppppp",
"ppppppnnndefdmmmmmnfnjgajndflcgggbffffjjjkpppppp",
"ppppppmnnnejdmmmmmmejagbjeejbaghgkffjjjjjkpppppp",
"ppppppnnnndjfnmmmmmnejllkjkbcahhcffjfjjjjkpppppp",
"ppppppnnnddjjdnndddnddjbclkbcghikfjfjjjjjkpppppp",
"ppppppmdnndjjfenjbkkjkaghllbaghhjjjjjjjkkkpppppp",
"ppppppnnnnnekjfejdjfekbaljkcahilfjfjjkkkklpppppp",
"ppppppnnnnndkkjfendjkbcbkkbagigjjjjjjjkkklpppppp",
"ppppppndndddjlkkjeefkllklcaghicjjjjkkkkkllpppppp",
"ppppppnnnddefbllkfnnndfkbahhiiajjjkjkkkkllpppppp",
"ppppppndnddellccbjeeeelbahiioohkjjkkkkkkllpppppp",
"ppppppnnnddegllgablkllcahooio``kkkkkkllllbpppppp",
"ppppppnnndfbickbhhaagghi``oo```olklkklklblpppppp",
"ppppppnddkccihklbgioooo`oo``````hbjkklllbbpppppp",
"ppppppffcacciiklbcahooooo```````ogfkllklbbpppppp",
"ppppppaghcbci`bkklbahghho````````oiakllbbbpppppp",
"ppppppaggbc`o`akjjlbccaoo`````oooioikklbbbpppppp",
"ppppppahccg`oiiljjkklaio``o``ooooiioajklbbpppppp",
"ppppppahbaii``ogkklaoio``i`oooiooigihbfklbpppppp",
"ppppppalbbhgi`ioblg``o```oioihiihigagaleflpppppp",
"ppppppclcaabaoioac``````oioihhihhhacggglfjpppppp",
"pppppplcaaacaoioaooo```oioihhgoohhhgahhgllpppppp",
"ppppppkccaalchoiho```oooiihghgoihhggggggakpppppp",
"ppppppcghigagioi``o`o`oiiiihii`oiihhggiiigpppppp"
};
