/* XPM */
static char *noname_xpm[] = {
/* width height ncolors chars_per_pixel */
"48 48 17 1",
/* colors */
"` c black",
"a c grey33",
"b c grey47",
"c c grey40",
"d c grey87",
"e c grey80",
"f c grey73",
"g c grey27",
"h c grey20",
"i c grey13",
"j c grey67",
"k c grey60",
"l c grey53",
"m c white",
"n c grey93",
"o c grey7",
"p s None c None",
/* pixels */
"pppppplbccbblbcbendeeeefffeeefjjjjfefjjfeepppppp",
"ppppppkbccbblbcbdnddeefffffeefjjjjfefjjjeepppppp",
"pppppplbcccblbacfennddndnndefjjjkjfefjjjfepppppp",
"pppppplbccbbbcagcbblkjkjdfjljfkjjkfffjjfeepppppp",
"ppppppbbcccbcgo`ohiggghoiiakgbjkkjjejjjfeepppppp",
"ppppppbcacbbbi```ihaci````ojllljkkjffjjjeepppppp",
"ppppppbacaacli``oohbaiho```io`hakeffjjjjeepppppp",
"ppppppbcaagago````````````````oholffjkjjeepppppp",
"ppppppbaaho```````````````````oiiibffjkjeepppppp",
"ppppppcci```````````````````````oioljjjffepppppp",
"ppppppbg```````````````````````````ibkjjeepppppp",
"ppppppbg```````ohhgaccho````````````hjjjffpppppp",
"ppppppba```````ihgcljfdfco``````````okjjfepppppp",
"ppppppbc```````iigcljennegioo```````ikjjffpppppp",
"ppppppcco``````iihcljenmmdbbkbai````hkjjffpppppp",
"ppppppbah``````oihclkednmmnndflao``objjjffpppppp",
"ppppppbaa```````ihclkfdnnnmnefkco``okkkjjfpppppp",
"ppppppccgo`````oohcbkjfnndndejlci``ikjkjffpppppp",
"ppppppcago`````o`o`ohbkjjjfkbg``o``akkkjjfpppppp",
"ppppppaga``````o``````oalllh``o``o`ckkkkjfpppppp",
"ppppppaggoo````o```````ialao````ooickkkjjfpppppp",
"ppppppcagii````oo```ooiilebiioiohigbklkkjjpppppp",
"ppppppaaahioo``haiihggaclejcaghacgglklkjjjpppppp",
"ppppppcaagiii``igccblkkblefkjjkkbhallllkjjpppppp",
"ppppppcaaaiho``ohckfjjjbljjklfejbhcklllkjjpppppp",
"ppppppbaaahho```oakjjkcbcjdjcbkkbgblbllkkjpppppp",
"ppppppbaaagho```ohclblhgackcgggcghcllblkkkpppppp",
"ppppppcaaaghi````ohaaaho``o`ihigihbblblkkkpppppp",
"ppppppagaaagg```oihhhiio`ioooiiiigbbblllkkpppppp",
"ppppppaagaaag````ohoo`ohalbah`ohoabbbllkkkpppppp",
"ppppppaagaaaa````ogio```oiii`ooaoabbblllklpppppp",
"ppppppaaaaaabo``o`hgghigaacghghhoccbbbklllpppppp",
"ppppppaaagabja````ohhgihhhghgahohaccbbbllkpppppp",
"ppppppcgaacnffo````oihhiiihhggi`aaccccbllbpppppp",
"ppppppaaabddnmg```o``ihigcagai`haaccccbbllpppppp",
"ppppppccfnmdnmko`````oiogaahhoaagaaccccbllpppppp",
"ppppppkdmmmndmmho`````o`iiio``bfgaccbbbblbpppppp",
"ppppppmmmnmmnmmjio```````````ojdcaccccblblpppppp",
"ppppppmmmnmmnmmncio`````````oheeeaccccbbblpppppp",
"ppppppmmmnmmnnmmdioo````````ohndmjbccbbbllpppppp",
"ppppppmmmmmmmnmmnlio```````oiinnnmnjbbcbbbpppppp",
"ppppppmmmmmmmnmmnniiooo``oohiodmnmmmdkblbbpppppp",
"ppppppmmmmmmmnmmnelhhioooihghgfmnmnmmmekbbpppppp",
"ppppppmmnmmmmmdlhhdkghhhhgagbfdmmmmmmmmnflpppppp",
"ppppppmmnmmmnfaccgkjlagggacjnnmmdbmmmmmmmnpppppp",
"ppppppmmmmnbfdenejffebaaclemnnmnbiemmmmmmmpppppp",
"ppppppmmmmmdmmmmmemmddednmmmmmdfaajnmmmmmmpppppp",
"ppppppnnnenenneddeeeekednndedkbelfkefnddnepppppp"
};
