/* XPM */
static char *noname_xpm[] = {
/* width height ncolors chars_per_pixel */
"48 48 17 1",
/* colors */
"` c black",
"a c grey33",
"b c grey47",
"c c grey40",
"d c grey87",
"e c grey80",
"f c grey73",
"g c grey27",
"h c grey20",
"i c grey13",
"j c grey67",
"k c grey60",
"l c grey53",
"m c white",
"n c grey93",
"o c grey7",
"p s None c None",
/* pixels */
"ppppppefjjjfffffeeeeffjkkkjfffjffffjjfffefpppppp",
"ppppppefjjjfffffedefefjkljffffffeffjjffeffpppppp",
"ppppppffjjfjfffeeeeeffjkkkffefffefffjffefepppppp",
"ppppppffjjjfffffeddfffjkkjffeffffefffffefepppppp",
"ppppppffjjjfjfffedeefjffjjfeeffeeeffffefeepppppp",
"ppppppfjjjjjffffednjkkcaagcbfdfefeffffeeeepppppp",
"ppppppffjjjfffffeelbcgo`iiioikdfeeffffeeefpppppp",
"ppppppffjjjffffjjcghiihckco`ooajedfefeeeefpppppp",
"ppppppfjjjjjffkbhhiiiiiiii```oohbjfeefeeefpppppp",
"ppppppffkjjfjlahiiiiioo`o`oo`iioiakffeeeffpppppp",
"ppppppfjjjjjjghiiiiooo```o`oooghiaafffeeejpppppp",
"ppppppjjjkjjlii`ooioooo``````oohhhiceeeefjpppppp",
"ppppppjjjkjjco``o`ooiiiiiio`oo`oo`ohkeeefjpppppp",
"ppppppjjkjjlh`````oihggacghoiooo```oaeeejkpppppp",
"ppppppjjjkjci`````ogacblkbcghiio```ookffjkpppppp",
"ppppppjjkjjco`````igabjenflahioo`````afjjkpppppp",
"ppppppjjkjjb``````ickfdnnfkchoo``````hjjjkpppppp",
"ppppppjjkkjb`````icjenmmmekchoo``````hbfkkpppppp",
"ppppppjjkjjlo```glemmmmmmdfcgi```````ibkkkpppppp",
"ppppppjjkkjlooigkdnmmmmmmdjbgio``````ibkklpppppp",
"ppppppjjkjkbioghibenmnekccbcahi``````oclklpppppp",
"ppppppfjkkkbhgchiocemelhiakklcao``io`oblklpppppp",
"ppppppjjkjlbgbbcbcbfmeklbhhcllch``igo`clllpppppp",
"ppppppjjkklbhleeefjfdjfefjjfekbg``ig`oalllpppppp",
"ppppppjjkllbhkenndfefjnnnmmnejcgoihh`ohlblpppppp",
"ppppppfkkllbhlfnnnfefjnmmmmdflagoihh``ibbbpppppp",
"ppppppjkkklbhbfdnejdfkdmmmmejbgaghho``oabbpppppp",
"ppppppjklklcigjfjlkeklkjdddjlcggcco````gbbpppppp",
"ppppppjkklbcoiblbkkbcljjkfjkcaahii`````hcbpppppp",
"ppppppjkllbgoibklbkffefjlllbccgi```````ocbpppppp",
"ppppppkklbao`objkhljjkbaajkbbcho```````occpppppp",
"ppppppjllaio``ckflljfjlbefjllai````````obcpppppp",
"ppppppklcao```hkjllfjjlkeejkcho````````occpppppp",
"ppppppklcao````bjjjkkjjfeeklgo`````````iccpppppp",
"ppppppklcao````hlfeddddefkbgi``````````ogcpppppp",
"ppppppklch``````gkfdddfkbcgoo```````````hcpppppp",
"ppppppklch```````gljjkbagioii``````````oiapppppp",
"ppppppklci`o``````igagiiooii````````````ohpppppp",
"ppppppkbci`````````ohiiihgi````````````ooipppppp",
"ppppppllcio`````````ggggago``````````````ipppppp",
"ppppppkbh```````````haaccg```````````````opppppp",
"ppppppbi````````````ogccco````````````````pppppp",
"ppppppi`````````````ohach`````````````````pppppp",
"ppppppo`````````````ohgai`````````````````pppppp",
"pppppp``````````````ihggo`````````````````pppppp",
"pppppp``````````````gaaaho````````````````pppppp",
"pppppp`````````````iaccaaa````````````````pppppp",
"pppppp`````````````iaaagag````````````````pppppp"
};
