#define noname_width 48
#define noname_height 48
static char noname_bits[] = {
 0x80,0xa4,0x40,0x22,0x12,0x02,0x40,0x92,0x2a,0x09,0x89,0x00,0x00,0x49,0x41,
 0x22,0x12,0x02,0x80,0x24,0x2a,0x89,0xa4,0x00,0x00,0x49,0x41,0x21,0x12,0x02,
 0x40,0x92,0x5a,0x0d,0x89,0x00,0x80,0x24,0xfd,0x2f,0x04,0x00,0x00,0x91,0xfe,
 0x5f,0x29,0x01,0x80,0xa4,0xff,0x5f,0x01,0x00,0x00,0xe9,0xff,0xff,0x55,0x01,
 0x80,0xf4,0xff,0xff,0x03,0x00,0x40,0xe2,0xff,0xff,0x57,0x01,0x80,0xf4,0xbf,
 0xea,0x0b,0x02,0x00,0xf9,0x97,0xd2,0x87,0x00,0x80,0x7c,0x00,0xe8,0x2f,0x02,
 0x40,0xf2,0x12,0x90,0x07,0x01,0x80,0x3c,0x01,0xe9,0x2f,0x02,0x40,0xfa,0x00,
 0x80,0x4f,0x01,0x80,0x3c,0x01,0xe8,0x07,0x01,0x00,0x7d,0x02,0x80,0x5f,0x02,
 0x40,0x7a,0x01,0x50,0x8f,0x02,0x80,0xfc,0x00,0xd0,0x27,0x01,0x00,0x3d,0x05,
 0x7f,0x4f,0x01,0x80,0xf8,0xbf,0xde,0xab,0x02,0x80,0xba,0x1b,0x7b,0x27,0x01,
 0x40,0xb2,0x3e,0x2a,0x95,0x02,0x80,0xb4,0x25,0x85,0x56,0x01,0x40,0x52,0x28,
 0x22,0xab,0x02,0x80,0x2a,0x81,0x81,0x4a,0x01,0x00,0x51,0x30,0x2a,0xa7,0x02,
 0x40,0xaa,0x94,0xc5,0xaa,0x02,0x00,0x55,0x69,0xb7,0xab,0x02,0x40,0xd2,0xf6,
 0xad,0x55,0x01,0x40,0x49,0x3f,0x5f,0xa7,0x02,0x80,0xaa,0xfd,0xbe,0xa9,0x01,
 0x40,0xd2,0x96,0xca,0xab,0x02,0x80,0xa4,0x55,0xea,0xab,0x01,0x40,0x55,0xaf,
 0xea,0xab,0x02,0x80,0x4a,0x6b,0xf5,0xd6,0x02,0x40,0xa9,0x16,0xe9,0x57,0x03,
 0x80,0xaa,0x6e,0x7d,0x6b,0x01,0x40,0x55,0xb9,0xfe,0xdd,0x03,0x80,0xaa,0xfe,
 0xbf,0xe6,0x03,0x40,0xa9,0xfd,0xff,0xfb,0x03,0x80,0xea,0xef,0xaf,0xf6,0x03,
 0x40,0xf5,0xff,0x7b,0xf5,0x03,0x80,0xfe,0x7f,0xd7,0xfa,0x03,0x40,0xff,0xff,
 0xbd,0xff,0x03};
