#define weight_width 64
#define weight_height 48
static unsigned char weight_bits[] = {
 0x55,0x55,0x55,0x55,0x55,0x55,0x55,0xd5,0xaa,0xaa,0xaa,0xaa,0xaa,0xaa,0xaa,
 0xea,0xfc,0xff,0xff,0xff,0xff,0xff,0xff,0xbf,0x0e,0x00,0x00,0x00,0xcd,0xc0,
 0xe7,0xfd,0x0c,0x00,0x00,0x00,0x40,0x08,0x80,0xb0,0x0e,0xf8,0xff,0xff,0xff,
 0xff,0x5f,0xfb,0x0c,0x58,0x55,0x55,0x55,0x55,0x3d,0xb2,0x0e,0xa8,0xaa,0xaa,
 0xaa,0xaa,0x9e,0xfa,0x0c,0x48,0x55,0x55,0x55,0x55,0xdb,0xbb,0x0e,0xe8,0xff,
 0xff,0xff,0xff,0x7f,0xfb,0x0c,0xc8,0x00,0x00,0x00,0x00,0xbb,0xbb,0x0e,0xe8,
 0x00,0x00,0x00,0x00,0xff,0xf9,0x0c,0xc8,0x00,0x00,0x00,0x00,0x5b,0xbb,0x0e,
 0xe8,0x00,0x00,0x00,0x00,0x1f,0xf5,0x0c,0xc8,0x00,0x00,0x00,0x00,0x1b,0xbf,
 0x0e,0xe8,0xff,0xff,0xff,0xff,0x1f,0xf4,0x0c,0xc8,0xff,0xff,0xff,0xff,0x9b,
 0xbe,0x0e,0xe8,0xaa,0xaa,0xaa,0xaa,0xde,0xff,0x0c,0x68,0x55,0x55,0x55,0x55,
 0xfd,0xbf,0x0e,0xa8,0xaa,0xaa,0xaa,0xaa,0x5e,0xf7,0x0c,0x68,0x55,0x55,0x55,
 0x55,0xbd,0xb6,0x0e,0xa8,0xaa,0xaa,0xaa,0xaa,0xfe,0xf7,0x0c,0x58,0x55,0x55,
 0x55,0x55,0x7d,0xbe,0x0e,0xb8,0xaa,0xaa,0xaa,0xaa,0xba,0xfe,0x0c,0x58,0x55,
 0x55,0x55,0x55,0xfd,0xbf,0x0e,0xb8,0xaa,0xaa,0xaa,0xaa,0xfa,0xf9,0x0c,0x58,
 0x55,0x55,0x55,0x55,0x75,0xb7,0x0e,0xa8,0xaa,0xaa,0xaa,0xaa,0x3a,0xff,0x0c,
 0xf8,0xff,0xff,0xff,0xff,0x3f,0xb9,0x0e,0xf8,0xff,0xff,0xff,0xff,0x1f,0xfc,
 0x0c,0x00,0x00,0x92,0x88,0x24,0x34,0xb4,0x0e,0x00,0x00,0x80,0x34,0xd8,0x1a,
 0xfd,0x0c,0x00,0x00,0x01,0x40,0x85,0x74,0xbe,0x0e,0x00,0x00,0x28,0x95,0xc3,
 0x42,0xfa,0x0c,0x00,0x00,0x25,0xc6,0xe9,0x30,0xb8,0x0e,0x00,0x80,0x12,0xe5,
 0x74,0x18,0xfc,0x0c,0x00,0x00,0x80,0x62,0xe0,0xf3,0xbe,0x0e,0x00,0x00,0x02,
 0x82,0x01,0x7c,0xfa,0xfc,0xff,0xff,0xff,0xff,0xff,0xff,0xbf,0xfe,0xff,0xff,
 0xff,0xff,0xff,0xff,0xff,0x56,0x55,0x55,0x55,0x55,0x55,0x55,0xd5,0xaa,0xaa,
 0xaa,0xaa,0xaa,0xaa,0xaa,0xea,0x56,0x55,0x55,0x55,0x55,0x55,0x55,0xd5,0xaa,
 0xaa,0xaa,0xaa,0xaa,0xaa,0xaa,0xea,0x55,0x55,0x55,0x55,0x55,0x55,0x55,0xd5,
 0xab,0xaa,0xaa,0xaa,0xaa,0xaa,0xaa,0xaa,0x55,0x55,0x55,0x55,0x55,0x55,0x55,
 0xd5,0xab,0xaa,0xaa,0xaa,0xaa,0xaa,0xaa,0xaa};
