/* XPM */
static char *noname_xpm[] = {
/* width height ncolors chars_per_pixel */
"48 48 17 1",
/* colors */
"` c black",
"a c grey33",
"b c grey47",
"c c grey40",
"d c grey87",
"e c grey80",
"f c grey73",
"g c grey27",
"h c grey20",
"i c grey13",
"j c grey67",
"k c grey60",
"l c grey53",
"m c white",
"n c grey93",
"o c grey7",
"p s None c None",
/* pixels */
"ppppppjfjjkkklblkkjjjkkkkjfjjkjkkklkkjjfjjpppppp",
"ppppppjjjjjkklblkjkjjklkjjfjjjkjkkkkkjjfffpppppp",
"ppppppjfjjkkklblkkjjjjkkkjffjkjkkklkkjjfjjpppppp",
"ppppppjjjjjkklblkjjkllkkjfffjjjjkkkkkjjjfjpppppp",
"ppppppjjjkkkklllkkkcllcleefjfjjjkkkkkjfjjjpppppp",
"ppppppjjjjkkllbbhgccgaahcdflljjjjkkkjjjjfjpppppp",
"ppppppjjjkkkkbboiiioooiiigalkaljjkkkjjjffjpppppp",
"ppppppjjjjkklbh`o```h`oohooiiiakjjkkkjfffkpppppp",
"ppppppjjjkkklao``````o``oo``o`ilbkkjjjjfjkpppppp",
"ppppppjjjjkkbi```````````o````oghakkjjffjkpppppp",
"ppppppjjkkklh``````````````````ihhkjjjfjjkpppppp",
"ppppppkkjkklo```````````````````oobkjjjjkkpppppp",
"ppppppkjkkkg```o````````iggioo`oo`ajjjfjjlpppppp",
"ppppppkkjkli``hi``oo`oglkjkkkcho``gkjjjjklpppppp",
"ppppppkkkklo`iah`hcaglenddffjkbo``hjjjjjkbpppppp",
"ppppppkjkkb``ablckjkfnmmnneefklh``ojjjjkkbpppppp",
"ppppppkkkkc`ocljfeeemmmmmmndfkla``okjjjkllpppppp",
"ppppppkkkka`ocbjfednmmmmmmmnekla``okjjkkkbpppppp",
"ppppppkjkla`oabkfedmmmmmmmndfkbc```kjjjklbpppppp",
"ppppppkkkkg`oaclednnmmmmmmndfllco``ljjkklbpppppp",
"ppppppkkkkc`oaclfdnmmmmmmmndfkbao`okjjkkbbpppppp",
"ppppppkkkkli`gcbkjfeeddefkkkkbbcooglkkllbcpppppp",
"ppppppkkkklciggaakchclkaacgkccaahaakkllbbcpppppp",
"ppppppkkkklbhhggggiigbjagaiaccahggclllblbcpppppp",
"ppppppkkkklbagccagiaacjacchacbcagablbbllbcpppppp",
"ppppppkkkkllbabbbbbcgbfabcbllkbagcbllllbccpppppp",
"ppppppkkklklbglbkkklclebbkjjfklagcbllklbbcpppppp",
"pppppplkklklcgkjjfjkbkekljfeeekgacllkllbccpppppp",
"ppppppkklkllbaablllbbjelkljefkcgablkllbbcapppppp",
"ppppppklkllllcgclkccbfebbblkkbaglllllbbcccpppppp",
"pppppplklllllbhgccbchbbhglkbbagglllllbcccapppppp",
"ppppppklklllbbghcahiiioihgcbbggclllbbcbccapppppp",
"ppppppllllllbbghaaiooooooohcbghabbbbcbcccapppppp",
"ppppppllllbbbbchgaagiiihhgcbaghoogbcbcbcaapppppp",
"pppppplklllbbcbahacgabbbacbcahgi``abccccagpppppp",
"pppppplllbbbbbcbggccghhggbbaghgci`icbccaaapppppp",
"pppppplllbbbbccchiablbbbllchihaccioacbcaagpppppp",
"ppppppllblbbbccghohablkkbchihgaacahaacbcagpppppp",
"pppppplblbbbbcghiooigcccghiihacccchaggbblbpppppp",
"ppppppllbbbbcahhooiooooooohhgaccccgaagaccbpppppp",
"ppppppblbbbbchhio`ihoo`oiihgacbbbcgacggacapppppp",
"ppppppbbbbbcahhiooihiioohhggacbllcggaggaaapppppp",
"ppppppbllcggggioioihhhhihggaccblkbghaahaccpppppp",
"ppppppbbchhgggiiiiihhghgggaccbbkkbagaahacapppppp",
"ppppppbggghhahhhghhghaaggaccbblkkcagaghgaapppppp",
"ppppppbggggihggghgggggcaaacblbcbcaacaahgcapppppp",
"ppppppcgghhiiiiiohgaaacbcccllghiiohggghhaapppppp",
"ppppppghhhiioo````hggaacaaaaahhooo```iohggpppppp"
};
