/* XPM */
static char *noname_xpm[] = {
/* width height ncolors chars_per_pixel */
"48 48 17 1",
/* colors */
"` c black",
"a c grey33",
"b c grey47",
"c c grey40",
"d c grey87",
"e c grey80",
"f c grey73",
"g c grey27",
"h c grey20",
"i c grey13",
"j c grey67",
"k c grey60",
"l c grey53",
"m c white",
"n c grey93",
"o c grey7",
"p s None c None",
/* pixels */
"ppppppcbbbcbbbccaccbcbcccbbbcccbccccccccccpppppp",
"ppppppccbbbcbbccaccbcccaccbbccbcbcccccccccpppppp",
"ppppppcbbbbbbbcaccccgaagaaccccbbbcccccbcccpppppp",
"ppppppbcbbbbbbcagggiiiiiooohgaccbcccccbcbcpppppp",
"ppppppcbbbcbbccahioooooooooooigcbbcccbcbcbpppppp",
"ppppppccbbbbcbah```````oooiooooicccbccbcbcpppppp",
"ppppppcbbbcbcgo````oiiiiiiioo`o`iabcbbcbcbpppppp",
"ppppppcbcbcaao````oioooooiio`o```iccbcbbbbpppppp",
"ppppppbbbcago````````oiioiooo`o``ohcbbbcbcpppppp",
"ppppppbcbccg`````````ooiooooo`o```iccbbbbbpppppp",
"ppppppcbbbao````````oooooioo```````abbbbbbpppppp",
"ppppppbbcci`````````o`oiooo````````hbbbbcbpppppp",
"ppppppcbba``````````oooooo`````````gbbbbbbpppppp",
"ppppppccbg``````````o`oooooo```````hbbbbbcpppppp",
"ppppppcbbg```````````o`ooo`````````obbbbcbpppppp",
"ppppppbcbc`````````ioooooo`````````obbbbbbpppppp",
"ppppppbbbc``o```ooiiiooooo`````o```ocbbbbcpppppp",
"ppppppcbcbo`ooo`ihihiioooo````hh````bbbbbcpppppp",
"ppppppcbbbo```oohgcccahiooo``och```oclbbbcpppppp",
"ppppppbcbbh```igabjffkbghiooohcao``ibbbbbcpppppp",
"ppppppcbbba```hbkjedndflchihgcacg`ogbbbbbcpppppp",
"ppppppcbcbco``hckjfeeddflcaggbagaooabbbbccpppppp",
"ppppppbbbbbho`agcccaaljjahiiaagghiicbbbbccpppppp",
"ppppppccbbbah`ahacbhhhkkchhioihaagicbbbbccpppppp",
"ppppppbbbbbaiohhhi`hhgafgcccaaabcagabbbcccpppppp",
"ppppppbcbbbcg`hahgacbaaeccbbbbllcagacbbccapppppp",
"ppppppcbbcbbaihacccblcbekblkjjkbbagacbcccapppppp",
"ppppppccbbbbcgggckkjkclejbbjjfklbaagcbcccapppppp",
"ppppppcbcbbbchaackjjkcldfllljjjbcaahcccccapppppp",
"ppppppccbcbbbhgcclkkccakbaabljlbcaghccccaapppppp",
"ppppppcbbbbbchgaaljlaaihhgaccbbccaghccccaapppppp",
"ppppppccbccbbhhggcbccaaagggaccbbcahicaccaapppppp",
"ppppppcbcbbcbhigaaaaghhgchhiogbbbaiicccaaapppppp",
"ppppppccbcbbcaohacbgoogbbbbgcblbcgohccccagpppppp",
"ppppppccbbcbbaohgcbbbackjlbblklcah`gbccaagpppppp",
"ppppppccccbcbaiohgclbblkkklblkbcgoogaabcagpppppp",
"ppppppccbcbcccg`ihabccbbbcbclbcaioigcahbkapppppp",
"ppppppcccbcbccaioigccbccacbblcahoogacaafdfpppppp",
"ppppppcccccbcblkh`igcbcccbblcgiooiagcckdnnpppppp",
"ppppppcccccacffelo`ogcaccccchiooiaaacldnnmpppppp",
"ppppppcccaggjfeefh`oohgaggghooooaccaldnmmmpppppp",
"ppppppaahhhbfeedfai`ooiiihioo`ogacccenmmmmpppppp",
"ppppppghhhgjeeedfbgo``oo`ooooigacbbenmmmmmpppppp",
"ppppppihhhaefeeeekghio`````oiggccbfdmmmmmmpppppp",
"pppppphghhbeeeedejaghioo`oiiggacbfdnmmmmmmpppppp",
"ppppppghhhkeeeeedjkaghhiiihggaabfenmmmmmmmpppppp",
"ppppppghhhjddeeddfjlaaghhhggaclfednmmnmmmmpppppp",
"pppppphihhjjjjjjjjllbaghghggclkkjfeefeeeeepppppp"
};
