/* XPM */
static char *noname_xpm[] = {
/* width height ncolors chars_per_pixel */
"48 48 15 1",
/* colors */
"` c grey33",
"a c grey47",
"b c grey40",
"c c grey87",
"d c grey80",
"e c grey73",
"f c grey27",
"g c grey20",
"h c grey13",
"i c grey67",
"j c grey60",
"k c grey53",
"l c white",
"m c grey93",
"n s None c None",
/* pixels */
"nnnnnnnnllllllllllllllllllllllllllllllllnnnnnnnn",
"nnnnnnnnlllllllllllckkjkaaiellllllllllllnnnnnnnn",
"nnnnnnnnllllllllmekgghhhhhggfbdlllllllllnnnnnnnn",
"nnnnnnnnlllllllefghhhhhhhhhhhgadllllllllnnnnnnnn",
"nnnnnnnnlllllleghhhhhghhhhhhhhgfamllllllnnnnnnnn",
"nnnnnnnnllllleghhhhhhhhhhhhhhhhhgbelllllnnnnnnnn",
"nnnnnnnnlllldghhhhhhhhhhhhhhhhhhhgilllllnnnnnnnn",
"nnnnnnnnllllahhhhhhhhhhhhhhhhhhhhhhcllllnnnnnnnn",
"nnnnnnnnlllcghhhhhhhhhhhhhhhhhhhhhhbllllnnnnnnnn",
"nnnnnnnnlllkgghhhhhhhhhhhhhhhhhhhhhhclllnnnnnnnn",
"nnnnnnnnlllfhhgfgghgggff`ffghhhhhhhhjlllnnnnnnnn",
"nnnnnnnnlleghfbaaabaaaabb``fghhhhhhh`lllnnnnnnnn",
"nnnnnnnnllbhgaakkkkkkaaabb```ghhhhhhhdllnnnnnnnn",
"nnnnnnnnllfhbkkkkkkkkkaabbb`bfhhhhhhhbllnnnnnnnn",
"nnnnnnnnlmggkkjjjjjjkkkaabbb`fghhhhhhgllnnnnnnnn",
"nnnnnnnnlcgfkjjjjjjjkkkaaabb`fghhhhhhgclnnnnnnnn",
"nnnnnnnnlegbkjjjjjjjkkkaaabbb`ghhhhhhhelnnnnnnnn",
"nnnnnnnnlehajjjjjjjkkkaaaabbb`ghhhhhhhjlnnnnnnnn",
"nnnnnnnnlihkjjjjjjjjjkkabbbbbbfghhhhhhjlnnnnnnnn",
"nnnnnnnnlihkbbkjjjjkabfff`bbbb`ghhhhhhjlnnnnnnnn",
"nnnnnnnnlehbgghgajkbghhgggfbbbbghhhhhhilnnnnnnnn",
"nnnnnnnnldgaab`fajka`f````b`bbbfhhhhhhdlnnnnnnnn",
"nnnnnnnnlmfjbbhg`kabf`kggf`bbbbfhhhhhgllnnnnnnnn",
"nnnnnnnnlljjaaffbkabffa`b`babbbfhhggh`llnnnnnnnn",
"nnnnnnnnllmjjkaakabb```bbaaabbb`ggf`gillnnnnnnnn",
"nnnnnnnnllmjkkkkkabbbbbbbaaabbbbbbg``lllnnnnnnnn",
"nnnnnnnnllmjjjjkkabb``aaaabbbbbbb`g`illlnnnnnnnn",
"nnnnnnnnllmjjjkkkkab`gkkkaaabbbb`f``clllnnnnnnnn",
"nnnnnnnnllmjjkakba````akkkaabbbbb`ballllnnnnnnnn",
"nnnnnnnnllljkakaaab``bbaaaabbb`b`fgillllnnnnnnnn",
"nnnnnnnnllljbbaaaaabbbbb`abbbb`bbhhcllllnnnnnnnn",
"nnnnnnnnlllibb`baabbb`fg`abbbb`b`hflllllnnnnnnnn",
"nnnnnnnnllldabb`iiikb`f`babbb``b`aelllllnnnnnnnn",
"nnnnnnnnllllkakabbbbbbbaba`b```balllllllnnnnnnnn",
"nnnnnnnnlllldakkakaabbaaab``````jlllllllnnnnnnnn",
"nnnnnnnnllllliakabbbbbaab`````b`f`illlllnnnnnnnn",
"nnnnnnnnlllllmakkaaaaaab`f`````ghbkdllllnnnnnnnn",
"nnnnnnnnlllllliaakkabbb`fff```gh`kkillllnnnnnnnn",
"nnnnnnnnllllllcaaaaabb`fff``fhh`aakdllllnnnnnnnn",
"nnnnnnnnlllllllibb`b`ffggfghhh`kaaamllllnnnnnnnn",
"nnnnnnnnllllllllcbbb`bbb`ffggbkaaaadllllnnnnnnnn",
"nnnnnnnnllllllldaaabbbbbb`ffakaaaabellllnnnnnnnn",
"nnnnnnnnllllllik`babbbabb`fakaakkb``dlllnnnnnnnn",
"nnnnnnnnllllmjb`hbabbaabb`akaaakaghgfellnnnnnnnn",
"nnnnnnnnlllckafhh`abaaab`kkakaaafhggggelnnnnnnnn",
"nnnnnnnnlldkb`fhhgbbbb`fakkaabkbhghgggfcnnnnnnnn",
"nnnnnnnnllk`b`ghhhggghhbkkkabaagggghhggbnnnnnnnn",
"nnnnnnnnlda``fhhhhhhhhfkkkabbafhggghhhhgnnnnnnnn"
};
